G04*
G04 #@! TF.GenerationSoftware,Altium Limited,Altium Designer,20.1.11 (218)*
G04*
G04 Layer_Color=8388736*
%FSLAX25Y25*%
%MOIN*%
G70*
G04*
G04 #@! TF.SameCoordinates,49FD3369-56E0-4B66-BF1D-E122077B7428*
G04*
G04*
G04 #@! TF.FilePolarity,Negative*
G04*
G01*
G75*
%ADD10C,0.00984*%
%ADD11C,0.01000*%
%ADD42R,0.03904X0.01581*%
%ADD43R,0.01187X0.06699*%
%ADD44R,0.04437X0.06012*%
G04:AMPARAMS|DCode=45|XSize=31.5mil|YSize=24.02mil|CornerRadius=6.99mil|HoleSize=0mil|Usage=FLASHONLY|Rotation=90.000|XOffset=0mil|YOffset=0mil|HoleType=Round|Shape=RoundedRectangle|*
%AMROUNDEDRECTD45*
21,1,0.03150,0.01004,0,0,90.0*
21,1,0.01752,0.02402,0,0,90.0*
1,1,0.01398,0.00502,0.00876*
1,1,0.01398,0.00502,-0.00876*
1,1,0.01398,-0.00502,-0.00876*
1,1,0.01398,-0.00502,0.00876*
%
%ADD45ROUNDEDRECTD45*%
G04:AMPARAMS|DCode=46|XSize=25.98mil|YSize=24.02mil|CornerRadius=6.99mil|HoleSize=0mil|Usage=FLASHONLY|Rotation=180.000|XOffset=0mil|YOffset=0mil|HoleType=Round|Shape=RoundedRectangle|*
%AMROUNDEDRECTD46*
21,1,0.02598,0.01004,0,0,180.0*
21,1,0.01201,0.02402,0,0,180.0*
1,1,0.01398,-0.00600,0.00502*
1,1,0.01398,0.00600,0.00502*
1,1,0.01398,0.00600,-0.00502*
1,1,0.01398,-0.00600,-0.00502*
%
%ADD46ROUNDEDRECTD46*%
G04:AMPARAMS|DCode=47|XSize=30.59mil|YSize=20.75mil|CornerRadius=6.44mil|HoleSize=0mil|Usage=FLASHONLY|Rotation=180.000|XOffset=0mil|YOffset=0mil|HoleType=Round|Shape=RoundedRectangle|*
%AMROUNDEDRECTD47*
21,1,0.03059,0.00787,0,0,180.0*
21,1,0.01772,0.02075,0,0,180.0*
1,1,0.01287,-0.00886,0.00394*
1,1,0.01287,0.00886,0.00394*
1,1,0.01287,0.00886,-0.00394*
1,1,0.01287,-0.00886,-0.00394*
%
%ADD47ROUNDEDRECTD47*%
G04:AMPARAMS|DCode=48|XSize=30.59mil|YSize=16.81mil|CornerRadius=5.45mil|HoleSize=0mil|Usage=FLASHONLY|Rotation=180.000|XOffset=0mil|YOffset=0mil|HoleType=Round|Shape=RoundedRectangle|*
%AMROUNDEDRECTD48*
21,1,0.03059,0.00591,0,0,180.0*
21,1,0.01968,0.01681,0,0,180.0*
1,1,0.01091,-0.00984,0.00295*
1,1,0.01091,0.00984,0.00295*
1,1,0.01091,0.00984,-0.00295*
1,1,0.01091,-0.00984,-0.00295*
%
%ADD48ROUNDEDRECTD48*%
G04:AMPARAMS|DCode=49|XSize=30.59mil|YSize=24.68mil|CornerRadius=4.47mil|HoleSize=0mil|Usage=FLASHONLY|Rotation=90.000|XOffset=0mil|YOffset=0mil|HoleType=Round|Shape=RoundedRectangle|*
%AMROUNDEDRECTD49*
21,1,0.03059,0.01575,0,0,90.0*
21,1,0.02165,0.02468,0,0,90.0*
1,1,0.00894,0.00787,0.01083*
1,1,0.00894,0.00787,-0.01083*
1,1,0.00894,-0.00787,-0.01083*
1,1,0.00894,-0.00787,0.01083*
%
%ADD49ROUNDEDRECTD49*%
%ADD50R,0.02365X0.01775*%
G04:AMPARAMS|DCode=51|XSize=31.5mil|YSize=24.02mil|CornerRadius=6.99mil|HoleSize=0mil|Usage=FLASHONLY|Rotation=180.000|XOffset=0mil|YOffset=0mil|HoleType=Round|Shape=RoundedRectangle|*
%AMROUNDEDRECTD51*
21,1,0.03150,0.01004,0,0,180.0*
21,1,0.01752,0.02402,0,0,180.0*
1,1,0.01398,-0.00876,0.00502*
1,1,0.01398,0.00876,0.00502*
1,1,0.01398,0.00876,-0.00502*
1,1,0.01398,-0.00876,-0.00502*
%
%ADD51ROUNDEDRECTD51*%
G04:AMPARAMS|DCode=52|XSize=20.75mil|YSize=30.59mil|CornerRadius=4.47mil|HoleSize=0mil|Usage=FLASHONLY|Rotation=180.000|XOffset=0mil|YOffset=0mil|HoleType=Round|Shape=RoundedRectangle|*
%AMROUNDEDRECTD52*
21,1,0.02075,0.02165,0,0,180.0*
21,1,0.01181,0.03059,0,0,180.0*
1,1,0.00894,-0.00591,0.01083*
1,1,0.00894,0.00591,0.01083*
1,1,0.00894,0.00591,-0.01083*
1,1,0.00894,-0.00591,-0.01083*
%
%ADD52ROUNDEDRECTD52*%
G04:AMPARAMS|DCode=53|XSize=25.98mil|YSize=24.02mil|CornerRadius=6.99mil|HoleSize=0mil|Usage=FLASHONLY|Rotation=90.000|XOffset=0mil|YOffset=0mil|HoleType=Round|Shape=RoundedRectangle|*
%AMROUNDEDRECTD53*
21,1,0.02598,0.01004,0,0,90.0*
21,1,0.01201,0.02402,0,0,90.0*
1,1,0.01398,0.00502,0.00600*
1,1,0.01398,0.00502,-0.00600*
1,1,0.01398,-0.00502,-0.00600*
1,1,0.01398,-0.00502,0.00600*
%
%ADD53ROUNDEDRECTD53*%
%ADD54R,0.04437X0.01800*%
%ADD55R,0.01700X0.04337*%
%ADD56R,0.06406X0.06406*%
%ADD57R,0.18904X0.18904*%
%ADD58O,0.04140X0.01384*%
%ADD59O,0.01384X0.04140*%
G04:AMPARAMS|DCode=60|XSize=14.84mil|YSize=30.59mil|CornerRadius=3.73mil|HoleSize=0mil|Usage=FLASHONLY|Rotation=0.000|XOffset=0mil|YOffset=0mil|HoleType=Round|Shape=RoundedRectangle|*
%AMROUNDEDRECTD60*
21,1,0.01484,0.02313,0,0,0.0*
21,1,0.00738,0.03059,0,0,0.0*
1,1,0.00746,0.00369,-0.01157*
1,1,0.00746,-0.00369,-0.01157*
1,1,0.00746,-0.00369,0.01157*
1,1,0.00746,0.00369,0.01157*
%
%ADD60ROUNDEDRECTD60*%
G04:AMPARAMS|DCode=61|XSize=14.84mil|YSize=30.59mil|CornerRadius=3.73mil|HoleSize=0mil|Usage=FLASHONLY|Rotation=90.000|XOffset=0mil|YOffset=0mil|HoleType=Round|Shape=RoundedRectangle|*
%AMROUNDEDRECTD61*
21,1,0.01484,0.02313,0,0,90.0*
21,1,0.00738,0.03059,0,0,90.0*
1,1,0.00746,0.01157,0.00369*
1,1,0.00746,0.01157,-0.00369*
1,1,0.00746,-0.01157,-0.00369*
1,1,0.00746,-0.01157,0.00369*
%
%ADD61ROUNDEDRECTD61*%
G04:AMPARAMS|DCode=62|XSize=14.45mil|YSize=22.72mil|CornerRadius=4.86mil|HoleSize=0mil|Usage=FLASHONLY|Rotation=180.000|XOffset=0mil|YOffset=0mil|HoleType=Round|Shape=RoundedRectangle|*
%AMROUNDEDRECTD62*
21,1,0.01445,0.01299,0,0,180.0*
21,1,0.00472,0.02272,0,0,180.0*
1,1,0.00972,-0.00236,0.00650*
1,1,0.00972,0.00236,0.00650*
1,1,0.00972,0.00236,-0.00650*
1,1,0.00972,-0.00236,-0.00650*
%
%ADD62ROUNDEDRECTD62*%
G04:AMPARAMS|DCode=63|XSize=24.68mil|YSize=23.5mil|CornerRadius=7.13mil|HoleSize=0mil|Usage=FLASHONLY|Rotation=180.000|XOffset=0mil|YOffset=0mil|HoleType=Round|Shape=RoundedRectangle|*
%AMROUNDEDRECTD63*
21,1,0.02468,0.00925,0,0,180.0*
21,1,0.01043,0.02350,0,0,180.0*
1,1,0.01425,-0.00522,0.00463*
1,1,0.01425,0.00522,0.00463*
1,1,0.01425,0.00522,-0.00463*
1,1,0.01425,-0.00522,-0.00463*
%
%ADD63ROUNDEDRECTD63*%
G04:AMPARAMS|DCode=64|XSize=44.37mil|YSize=40.43mil|CornerRadius=6.93mil|HoleSize=0mil|Usage=FLASHONLY|Rotation=90.000|XOffset=0mil|YOffset=0mil|HoleType=Round|Shape=RoundedRectangle|*
%AMROUNDEDRECTD64*
21,1,0.04437,0.02657,0,0,90.0*
21,1,0.03051,0.04043,0,0,90.0*
1,1,0.01386,0.01329,0.01526*
1,1,0.01386,0.01329,-0.01526*
1,1,0.01386,-0.01329,-0.01526*
1,1,0.01386,-0.01329,0.01526*
%
%ADD64ROUNDEDRECTD64*%
G04:AMPARAMS|DCode=65|XSize=30.59mil|YSize=20.75mil|CornerRadius=6.44mil|HoleSize=0mil|Usage=FLASHONLY|Rotation=90.000|XOffset=0mil|YOffset=0mil|HoleType=Round|Shape=RoundedRectangle|*
%AMROUNDEDRECTD65*
21,1,0.03059,0.00787,0,0,90.0*
21,1,0.01772,0.02075,0,0,90.0*
1,1,0.01287,0.00394,0.00886*
1,1,0.01287,0.00394,-0.00886*
1,1,0.01287,-0.00394,-0.00886*
1,1,0.01287,-0.00394,0.00886*
%
%ADD65ROUNDEDRECTD65*%
G04:AMPARAMS|DCode=66|XSize=30.59mil|YSize=16.81mil|CornerRadius=5.45mil|HoleSize=0mil|Usage=FLASHONLY|Rotation=90.000|XOffset=0mil|YOffset=0mil|HoleType=Round|Shape=RoundedRectangle|*
%AMROUNDEDRECTD66*
21,1,0.03059,0.00591,0,0,90.0*
21,1,0.01968,0.01681,0,0,90.0*
1,1,0.01091,0.00295,0.00984*
1,1,0.01091,0.00295,-0.00984*
1,1,0.01091,-0.00295,-0.00984*
1,1,0.01091,-0.00295,0.00984*
%
%ADD66ROUNDEDRECTD66*%
%ADD67R,0.02075X0.02075*%
%ADD68C,0.07874*%
%ADD69C,0.04000*%
G04:AMPARAMS|DCode=70|XSize=36.5mil|YSize=75.87mil|CornerRadius=10.37mil|HoleSize=0mil|Usage=FLASHONLY|Rotation=270.000|XOffset=0mil|YOffset=0mil|HoleType=Round|Shape=RoundedRectangle|*
%AMROUNDEDRECTD70*
21,1,0.03650,0.05512,0,0,270.0*
21,1,0.01575,0.07587,0,0,270.0*
1,1,0.02075,-0.02756,-0.00787*
1,1,0.02075,-0.02756,0.00787*
1,1,0.02075,0.02756,0.00787*
1,1,0.02075,0.02756,-0.00787*
%
%ADD70ROUNDEDRECTD70*%
%ADD71C,0.17000*%
D10*
X-18800Y-26441D02*
X-13028D01*
X-15914D01*
Y-35100D01*
X-5812Y-26441D02*
X-8698D01*
X-10141Y-27885D01*
Y-33657D01*
X-8698Y-35100D01*
X-5812D01*
X-4369Y-33657D01*
Y-27885D01*
X-5812Y-26441D01*
X-1483Y-35100D02*
Y-26441D01*
X2847D01*
X4290Y-27885D01*
Y-30771D01*
X2847Y-32214D01*
X-1483D01*
X21607Y-27885D02*
X20164Y-26441D01*
X17278D01*
X15834Y-27885D01*
Y-29328D01*
X17278Y-30771D01*
X20164D01*
X21607Y-32214D01*
Y-33657D01*
X20164Y-35100D01*
X17278D01*
X15834Y-33657D01*
X28822Y-26441D02*
X25936D01*
X24493Y-27885D01*
Y-33657D01*
X25936Y-35100D01*
X28822D01*
X30266Y-33657D01*
Y-27885D01*
X28822Y-26441D01*
X33152D02*
Y-35100D01*
X38924D01*
X41810Y-26441D02*
Y-35100D01*
X46140D01*
X47583Y-33657D01*
Y-27885D01*
X46140Y-26441D01*
X41810D01*
X56241D02*
X50469D01*
Y-35100D01*
X56241D01*
X50469Y-30771D02*
X53355D01*
X59128Y-35100D02*
Y-26441D01*
X63457D01*
X64900Y-27885D01*
Y-30771D01*
X63457Y-32214D01*
X59128D01*
X62014D02*
X64900Y-35100D01*
X76445D02*
Y-26441D01*
X79331Y-29328D01*
X82217Y-26441D01*
Y-35100D01*
X85103D02*
Y-29328D01*
X87990Y-26441D01*
X90876Y-29328D01*
Y-35100D01*
Y-30771D01*
X85103D01*
X99534Y-27885D02*
X98091Y-26441D01*
X95205D01*
X93762Y-27885D01*
Y-29328D01*
X95205Y-30771D01*
X98091D01*
X99534Y-32214D01*
Y-33657D01*
X98091Y-35100D01*
X95205D01*
X93762Y-33657D01*
X102421Y-26441D02*
Y-35100D01*
Y-32214D01*
X108193Y-26441D01*
X103864Y-30771D01*
X108193Y-35100D01*
D11*
X67547Y74906D02*
G03*
X67547Y74906I-2500J0D01*
G01*
D42*
X66169Y37280D02*
D03*
Y35312D02*
D03*
Y33343D02*
D03*
Y31375D02*
D03*
X77350D02*
D03*
Y33343D02*
D03*
Y35312D02*
D03*
Y37280D02*
D03*
X66169Y51240D02*
D03*
Y49272D02*
D03*
Y47304D02*
D03*
Y45335D02*
D03*
X77350D02*
D03*
Y47304D02*
D03*
Y49272D02*
D03*
Y51240D02*
D03*
D43*
X71760Y34327D02*
D03*
Y48288D02*
D03*
D44*
X10960Y58369D02*
D03*
X14700Y67031D02*
D03*
X18440Y58369D02*
D03*
D45*
X20571Y109406D02*
D03*
X24115D02*
D03*
Y104907D02*
D03*
X20571D02*
D03*
X28070Y95406D02*
D03*
X31614D02*
D03*
X72115Y82906D02*
D03*
X68571D02*
D03*
X48229Y3847D02*
D03*
X44685D02*
D03*
X47835Y50591D02*
D03*
X44291D02*
D03*
X65657Y41020D02*
D03*
X69201D02*
D03*
X16555Y52802D02*
D03*
X13011D02*
D03*
D46*
X78342Y102134D02*
D03*
Y105677D02*
D03*
X64842Y104677D02*
D03*
Y101134D02*
D03*
X6692Y59449D02*
D03*
Y55906D02*
D03*
X61843Y33635D02*
D03*
Y37178D02*
D03*
X6889Y79528D02*
D03*
Y83071D02*
D03*
X5342Y87134D02*
D03*
Y90677D02*
D03*
X43100Y84372D02*
D03*
Y80828D02*
D03*
X52342Y82678D02*
D03*
Y79135D02*
D03*
X55842D02*
D03*
Y82678D02*
D03*
X39741Y54777D02*
D03*
Y51234D02*
D03*
X46900Y80828D02*
D03*
Y84372D02*
D03*
X77558Y87599D02*
D03*
Y91142D02*
D03*
X17842Y88135D02*
D03*
Y91678D02*
D03*
X64763Y87599D02*
D03*
Y91142D02*
D03*
X6692Y44489D02*
D03*
Y48032D02*
D03*
D47*
X61023Y3347D02*
D03*
Y9646D02*
D03*
X56693Y3347D02*
D03*
Y9646D02*
D03*
D48*
X61023Y7480D02*
D03*
Y5512D02*
D03*
X56693D02*
D03*
Y7480D02*
D03*
D49*
X59342Y49861D02*
D03*
Y56948D02*
D03*
D50*
X74000Y100938D02*
D03*
Y102906D02*
D03*
Y104875D02*
D03*
X68685D02*
D03*
Y100938D02*
D03*
X73720Y87205D02*
D03*
Y89173D02*
D03*
Y91142D02*
D03*
X68405D02*
D03*
Y87205D02*
D03*
X14102Y86705D02*
D03*
Y88673D02*
D03*
Y90642D02*
D03*
X8787D02*
D03*
Y86705D02*
D03*
D51*
X76842Y60635D02*
D03*
Y64178D02*
D03*
X6692Y66536D02*
D03*
Y62993D02*
D03*
X57300Y62128D02*
D03*
Y65672D02*
D03*
D52*
X10039Y115060D02*
D03*
X15157D02*
D03*
Y106989D02*
D03*
X12598D02*
D03*
X10039D02*
D03*
D53*
X35071Y95406D02*
D03*
X38615D02*
D03*
X50070Y94906D02*
D03*
X53614D02*
D03*
X64615Y60907D02*
D03*
X61071D02*
D03*
X74319Y41020D02*
D03*
X77862D02*
D03*
X36689Y46948D02*
D03*
X33145D02*
D03*
X31103Y8465D02*
D03*
X27559D02*
D03*
X47941Y47048D02*
D03*
X51484D02*
D03*
X50787Y50591D02*
D03*
X54331D02*
D03*
X74319Y55375D02*
D03*
X77862D02*
D03*
X44685Y47048D02*
D03*
X41142D02*
D03*
X38977Y8465D02*
D03*
X42520D02*
D03*
X39054Y3544D02*
D03*
X35511D02*
D03*
X58070Y45406D02*
D03*
X61614D02*
D03*
D54*
X7638Y12402D02*
D03*
Y14371D02*
D03*
Y16339D02*
D03*
Y18308D02*
D03*
X19526D02*
D03*
Y16339D02*
D03*
Y14371D02*
D03*
Y12402D02*
D03*
D55*
X6693Y23780D02*
D03*
X8662D02*
D03*
X10630D02*
D03*
X12599D02*
D03*
X14567D02*
D03*
Y39212D02*
D03*
X12599D02*
D03*
X10630D02*
D03*
X8662D02*
D03*
X6693D02*
D03*
X16536Y23780D02*
D03*
X18504D02*
D03*
X16536Y39212D02*
D03*
X18504D02*
D03*
D56*
X22835Y73819D02*
D03*
X9055D02*
D03*
D57*
X41929Y27559D02*
D03*
D58*
X28642Y16732D02*
D03*
Y18701D02*
D03*
Y20669D02*
D03*
Y22638D02*
D03*
Y24606D02*
D03*
Y26575D02*
D03*
Y28543D02*
D03*
Y30512D02*
D03*
Y32480D02*
D03*
Y34449D02*
D03*
Y36417D02*
D03*
Y38386D02*
D03*
X55217D02*
D03*
Y36417D02*
D03*
Y34449D02*
D03*
Y32480D02*
D03*
Y30512D02*
D03*
Y28543D02*
D03*
Y26575D02*
D03*
Y24606D02*
D03*
Y22638D02*
D03*
Y20669D02*
D03*
Y18701D02*
D03*
Y16732D02*
D03*
D59*
X31102Y40847D02*
D03*
X33071D02*
D03*
X35039D02*
D03*
X37008D02*
D03*
X38976D02*
D03*
X40945D02*
D03*
X42913D02*
D03*
X44882D02*
D03*
X46850D02*
D03*
X48819D02*
D03*
X50787D02*
D03*
X52756D02*
D03*
Y14272D02*
D03*
X50787D02*
D03*
X48819D02*
D03*
X46850D02*
D03*
X44882D02*
D03*
X42913D02*
D03*
X40945D02*
D03*
X38976D02*
D03*
X37008D02*
D03*
X35039D02*
D03*
X33071D02*
D03*
X31102D02*
D03*
D60*
X45866Y73228D02*
D03*
X43898D02*
D03*
X41929D02*
D03*
X39961D02*
D03*
X37992D02*
D03*
Y59449D02*
D03*
X39961D02*
D03*
X41929D02*
D03*
X43898D02*
D03*
X45866D02*
D03*
D61*
X35433Y63386D02*
D03*
Y65354D02*
D03*
Y67323D02*
D03*
Y69291D02*
D03*
Y71260D02*
D03*
Y73228D02*
D03*
Y61417D02*
D03*
Y59449D02*
D03*
X48425Y73228D02*
D03*
Y71260D02*
D03*
Y59449D02*
D03*
Y61417D02*
D03*
Y63386D02*
D03*
Y65354D02*
D03*
Y67323D02*
D03*
Y69291D02*
D03*
D62*
X42520Y110335D02*
D03*
X44094D02*
D03*
X45669D02*
D03*
X47244D02*
D03*
X48819D02*
D03*
X50394D02*
D03*
X51969D02*
D03*
X40945D02*
D03*
X39370D02*
D03*
X37795D02*
D03*
X36220D02*
D03*
X34646D02*
D03*
X42520Y101083D02*
D03*
X44094D02*
D03*
X45669D02*
D03*
X47244D02*
D03*
X48819D02*
D03*
X50394D02*
D03*
X51969D02*
D03*
X40945D02*
D03*
X39370D02*
D03*
X37795D02*
D03*
X36220D02*
D03*
X34646D02*
D03*
D63*
X31693Y101201D02*
D03*
Y110217D02*
D03*
X54921D02*
D03*
Y101201D02*
D03*
D64*
X19291Y81693D02*
D03*
X12599D02*
D03*
D65*
X11614Y44095D02*
D03*
X17914D02*
D03*
X11614Y48426D02*
D03*
X17914D02*
D03*
X16733Y7481D02*
D03*
X10433D02*
D03*
X16733Y3150D02*
D03*
X10433D02*
D03*
D66*
X15748Y44095D02*
D03*
X13780D02*
D03*
Y48426D02*
D03*
X15748D02*
D03*
X12599Y7481D02*
D03*
X14567D02*
D03*
Y3150D02*
D03*
X12599D02*
D03*
D67*
X26772Y60905D02*
D03*
Y58543D02*
D03*
X24409D02*
D03*
Y60905D02*
D03*
D68*
X23700Y4300D02*
D03*
X4724Y116142D02*
D03*
X77842D02*
D03*
D69*
X65047Y74906D02*
D03*
D70*
X0Y8819D02*
D03*
Y13819D02*
D03*
Y18819D02*
D03*
Y23819D02*
D03*
Y28819D02*
D03*
Y33819D02*
D03*
Y38819D02*
D03*
Y43819D02*
D03*
Y48819D02*
D03*
Y53819D02*
D03*
Y58819D02*
D03*
Y63819D02*
D03*
Y68819D02*
D03*
Y73819D02*
D03*
Y78819D02*
D03*
X83858Y8819D02*
D03*
Y13819D02*
D03*
Y18819D02*
D03*
Y23819D02*
D03*
Y28819D02*
D03*
Y33819D02*
D03*
Y38819D02*
D03*
Y43819D02*
D03*
Y48819D02*
D03*
Y53819D02*
D03*
Y58819D02*
D03*
Y63819D02*
D03*
Y68819D02*
D03*
Y73819D02*
D03*
Y78819D02*
D03*
D71*
X70842Y16406D02*
D03*
X31842Y83906D02*
D03*
M02*
