G04*
G04 #@! TF.GenerationSoftware,Altium Limited,Altium Designer,20.1.11 (218)*
G04*
G04 Layer_Color=128*
%FSLAX25Y25*%
%MOIN*%
G70*
G04*
G04 #@! TF.SameCoordinates,49FD3369-56E0-4B66-BF1D-E122077B7428*
G04*
G04*
G04 #@! TF.FilePolarity,Positive*
G04*
G01*
G75*
%ADD127C,0.00200*%
D127*
X63047Y74906D02*
X67047D01*
X65047Y72906D02*
Y76906D01*
X-1181Y8819D02*
X1181D01*
X0Y7638D02*
Y10000D01*
X-1181Y13819D02*
X1181D01*
X0Y12638D02*
Y15000D01*
X-1181Y18819D02*
X1181D01*
X0Y17638D02*
Y20000D01*
X-1181Y23819D02*
X1181D01*
X0Y22638D02*
Y25000D01*
X-1181Y28819D02*
X1181D01*
X0Y27638D02*
Y30000D01*
X-1181Y33819D02*
X1181D01*
X0Y32638D02*
Y35000D01*
X-1181Y38819D02*
X1181D01*
X0Y37638D02*
Y40000D01*
X-1181Y43819D02*
X1181D01*
X0Y42638D02*
Y45000D01*
X-1181Y48819D02*
X1181D01*
X0Y47638D02*
Y50000D01*
X-1181Y53819D02*
X1181D01*
X0Y52638D02*
Y55000D01*
X-1181Y58819D02*
X1181D01*
X0Y57638D02*
Y60000D01*
X-1181Y63819D02*
X1181D01*
X0Y62638D02*
Y65000D01*
X-1181Y68819D02*
X1181D01*
X0Y67638D02*
Y70000D01*
X-1181Y73819D02*
X1181D01*
X0Y72638D02*
Y75000D01*
X-1181Y78819D02*
X1181D01*
X0Y77638D02*
Y80000D01*
X82677Y8819D02*
X85039D01*
X83858Y7638D02*
Y10000D01*
X82677Y13819D02*
X85039D01*
X83858Y12638D02*
Y15000D01*
X82677Y18819D02*
X85039D01*
X83858Y17638D02*
Y20000D01*
X82677Y23819D02*
X85039D01*
X83858Y22638D02*
Y25000D01*
X82677Y28819D02*
X85039D01*
X83858Y27638D02*
Y30000D01*
X82677Y33819D02*
X85039D01*
X83858Y32638D02*
Y35000D01*
X82677Y38819D02*
X85039D01*
X83858Y37638D02*
Y40000D01*
X82677Y43819D02*
X85039D01*
X83858Y42638D02*
Y45000D01*
X82677Y48819D02*
X85039D01*
X83858Y47638D02*
Y50000D01*
X82677Y53819D02*
X85039D01*
X83858Y52638D02*
Y55000D01*
X82677Y58819D02*
X85039D01*
X83858Y57638D02*
Y60000D01*
X82677Y63819D02*
X85039D01*
X83858Y62638D02*
Y65000D01*
X82677Y68819D02*
X85039D01*
X83858Y67638D02*
Y70000D01*
X82677Y73819D02*
X85039D01*
X83858Y72638D02*
Y75000D01*
X82677Y78819D02*
X85039D01*
X83858Y77638D02*
Y80000D01*
X66592Y16406D02*
X75092D01*
X70842Y12156D02*
Y20656D01*
X27592Y83906D02*
X36092D01*
X31842Y79656D02*
Y88156D01*
X49262Y103393D02*
X50050D01*
X49656Y102999D02*
Y103786D01*
X10706Y18846D02*
X11494D01*
X11100Y18452D02*
Y19239D01*
X18110Y62946D02*
X18897D01*
X18503Y62552D02*
Y63340D01*
X31019Y52506D02*
X31806D01*
X31412Y52112D02*
Y52899D01*
X57042Y59700D02*
X57829D01*
X57436Y59306D02*
Y60094D01*
X21549Y27706D02*
X22336D01*
X21942Y27312D02*
Y28100D01*
X29241Y46699D02*
X30029D01*
X29635Y46305D02*
Y47092D01*
X55370Y74707D02*
X56158D01*
X55764Y74313D02*
Y75100D01*
X18449Y68539D02*
X19236D01*
X18842Y68145D02*
Y68932D01*
X38977Y112406D02*
X39764D01*
X39370Y112012D02*
Y112800D01*
X52099Y98706D02*
X52886D01*
X52492Y98312D02*
Y99099D01*
X22979Y63616D02*
X23766D01*
X23372Y63222D02*
Y64009D01*
X27089Y65896D02*
X27876D01*
X27482Y65502D02*
Y66290D01*
X10106Y52563D02*
X10894D01*
X10500Y52169D02*
Y52956D01*
X9449Y65906D02*
X10236D01*
X9842Y65512D02*
Y66299D01*
X58671Y70800D02*
X59458D01*
X59064Y70406D02*
Y71194D01*
X58671Y75600D02*
X59458D01*
X59064Y75206D02*
Y75994D01*
X53099Y73900D02*
X53886D01*
X53492Y73506D02*
Y74294D01*
X16142Y20406D02*
X16929D01*
X16535Y20012D02*
Y20799D01*
X32406Y4200D02*
X33194D01*
X32800Y3806D02*
Y4594D01*
X30706Y6700D02*
X31494D01*
X31100Y6306D02*
Y7094D01*
X20866Y68539D02*
X21654D01*
X21260Y68145D02*
Y68932D01*
X30819Y55006D02*
X31606D01*
X31212Y54612D02*
Y55400D01*
X32206Y49199D02*
X32994D01*
X32600Y48805D02*
Y49593D01*
X54306Y11200D02*
X55094D01*
X54700Y10806D02*
Y11594D01*
X59749Y11706D02*
X60536D01*
X60142Y11312D02*
Y12100D01*
X61516Y91142D02*
X62303D01*
X61909Y90748D02*
Y91536D01*
X58165Y91906D02*
X58952D01*
X58558Y91512D02*
Y92299D01*
X39600Y77607D02*
X40387D01*
X39993Y77213D02*
Y78000D01*
X74113Y44966D02*
X74900D01*
X74506Y44572D02*
Y45360D01*
X73906Y34800D02*
X74694D01*
X74300Y34406D02*
Y35194D01*
X68409Y38256D02*
X69197D01*
X68803Y37862D02*
Y38650D01*
X71406Y41300D02*
X72194D01*
X71800Y40906D02*
Y41694D01*
X8662Y69292D02*
X9449D01*
X9055Y68898D02*
Y69686D01*
X12057Y110298D02*
X12844D01*
X12450Y109904D02*
Y110692D01*
X17949Y109406D02*
X18736D01*
X18342Y109012D02*
Y109800D01*
X15748Y103150D02*
X16535D01*
X16141Y102756D02*
Y103543D01*
X20306Y97900D02*
X21094D01*
X20700Y97506D02*
Y98294D01*
X49106Y80800D02*
X49894D01*
X49500Y80406D02*
Y81194D01*
X53735Y59734D02*
X54522D01*
X54128Y59341D02*
Y60128D01*
X50049Y44606D02*
X50836D01*
X50442Y44212D02*
Y45000D01*
X53771Y53177D02*
X54558D01*
X54164Y52784D02*
Y53571D01*
X34649Y52343D02*
X35436D01*
X35042Y51949D02*
Y52736D01*
X48235Y53426D02*
X49022D01*
X48628Y53032D02*
Y53820D01*
X35159Y49006D02*
X35946D01*
X35552Y48612D02*
Y49400D01*
X15070Y79127D02*
X15858D01*
X15464Y78733D02*
Y79520D01*
X61516Y87599D02*
X62303D01*
X61909Y87205D02*
Y87993D01*
X48506Y56400D02*
X49294D01*
X48900Y56006D02*
Y56794D01*
X52306Y63800D02*
X53094D01*
X52700Y63406D02*
Y64194D01*
X47376Y43782D02*
X48163D01*
X47769Y43388D02*
Y44175D01*
X38606Y45000D02*
X39394D01*
X39000Y44606D02*
Y45394D01*
X40534Y43798D02*
X41321D01*
X40928Y43404D02*
Y44192D01*
X40149Y49206D02*
X40936D01*
X40542Y48812D02*
Y49599D01*
X60678Y63406D02*
X61465D01*
X61071Y63012D02*
Y63800D01*
X56906Y68700D02*
X57694D01*
X57300Y68306D02*
Y69094D01*
X70306Y76000D02*
X71094D01*
X70700Y75606D02*
Y76394D01*
X57871Y79107D02*
X58658D01*
X58264Y78713D02*
Y79500D01*
X65449Y84406D02*
X66236D01*
X65842Y84012D02*
Y84799D01*
X66339Y57976D02*
X67126D01*
X66732Y57582D02*
Y58369D01*
X68721Y63906D02*
X69508D01*
X69114Y63512D02*
Y64299D01*
X17949Y104907D02*
X18736D01*
X18342Y104513D02*
Y105300D01*
X35827Y112406D02*
X36614D01*
X36220Y112012D02*
Y112800D01*
X27319Y43436D02*
X28106D01*
X27712Y43042D02*
Y43830D01*
X61879Y47796D02*
X62666D01*
X62272Y47402D02*
Y48189D01*
X32306Y74200D02*
X33094D01*
X32700Y73806D02*
Y74594D01*
X53809Y65503D02*
X54597D01*
X54203Y65110D02*
Y65897D01*
X52363Y57548D02*
X53150D01*
X52756Y57154D02*
Y57942D01*
X30439Y62946D02*
X31226D01*
X30832Y62552D02*
Y63340D01*
X49806Y86000D02*
X50594D01*
X50200Y85606D02*
Y86394D01*
X54210Y89537D02*
X54997D01*
X54603Y89143D02*
Y89930D01*
X46464Y86530D02*
X47252D01*
X46858Y86137D02*
Y86924D01*
X43206Y89400D02*
X43994D01*
X43600Y89006D02*
Y89794D01*
X51949Y84905D02*
X52736D01*
X52342Y84511D02*
Y85299D01*
X30474Y65679D02*
X31261D01*
X30867Y65286D02*
Y66073D01*
X46665Y91993D02*
X47452D01*
X47058Y91599D02*
Y92387D01*
X30406Y70400D02*
X31194D01*
X30800Y70006D02*
Y70794D01*
X29706Y72800D02*
X30494D01*
X30100Y72406D02*
Y73194D01*
X52006Y55000D02*
X52794D01*
X52400Y54606D02*
Y55394D01*
X49024Y91901D02*
X49811D01*
X49417Y91507D02*
Y92295D01*
X50806Y73500D02*
X51594D01*
X51200Y73106D02*
Y73894D01*
X46206Y55300D02*
X46994D01*
X46600Y54906D02*
Y55694D01*
X41520Y53177D02*
X42308D01*
X41914Y52784D02*
Y53571D01*
X41849Y50906D02*
X42636D01*
X42242Y50512D02*
Y51300D01*
X27166Y40775D02*
X27953D01*
X27559Y40381D02*
Y41168D01*
X19379Y49106D02*
X20166D01*
X19772Y48712D02*
Y49499D01*
X30699Y59256D02*
X31486D01*
X31092Y58862D02*
Y59649D01*
X28328Y69137D02*
X29115D01*
X28722Y68743D02*
Y69530D01*
X2562Y13819D02*
X3349D01*
X2955Y13425D02*
Y14212D01*
X2562Y23819D02*
X3349D01*
X2955Y23425D02*
Y24213D01*
X2562Y28819D02*
X3349D01*
X2955Y28425D02*
Y29212D01*
X2562Y38819D02*
X3349D01*
X2955Y38425D02*
Y39213D01*
X2562Y43819D02*
X3349D01*
X2955Y43425D02*
Y44212D01*
X2562Y53819D02*
X3349D01*
X2955Y53425D02*
Y54212D01*
X2562Y63819D02*
X3349D01*
X2955Y63425D02*
Y64213D01*
X2562Y68819D02*
X3349D01*
X2955Y68425D02*
Y69213D01*
X2562Y78819D02*
X3349D01*
X2955Y78425D02*
Y79212D01*
X2720Y87134D02*
X3507D01*
X3113Y86740D02*
Y87528D01*
X3406Y100800D02*
X4194D01*
X3800Y100406D02*
Y101194D01*
X11024Y15552D02*
X11811D01*
X11417Y15158D02*
Y15946D01*
X10824Y12008D02*
X11611D01*
X11217Y11614D02*
Y12402D01*
X8268Y20406D02*
X9055D01*
X8661Y20012D02*
Y20799D01*
X10899Y35456D02*
X11686D01*
X11292Y35062D02*
Y35849D01*
X8949Y44406D02*
X9736D01*
X9342Y44012D02*
Y44800D01*
X8662Y78347D02*
X9449D01*
X9055Y77953D02*
Y78741D01*
X11389Y92816D02*
X12176D01*
X11782Y92422D02*
Y93209D01*
X11396Y95227D02*
X12184D01*
X11790Y94834D02*
Y95621D01*
X8949Y109906D02*
X9736D01*
X9342Y109512D02*
Y110300D01*
X9646Y117406D02*
X10433D01*
X10039Y117012D02*
Y117799D01*
X15355Y15552D02*
X16142D01*
X15748Y15158D02*
Y15946D01*
X15355Y12008D02*
X16142D01*
X15748Y11614D02*
Y12402D01*
X19133Y20406D02*
X19920D01*
X19526Y20012D02*
Y20799D01*
X18449Y27906D02*
X19236D01*
X18842Y27512D02*
Y28299D01*
X17749Y35506D02*
X18536D01*
X18142Y35112D02*
Y35899D01*
X14949Y35406D02*
X15736D01*
X15342Y35012D02*
Y35800D01*
X19106Y52200D02*
X19894D01*
X19500Y51806D02*
Y52594D01*
X19678Y88135D02*
X20465D01*
X20071Y87741D02*
Y88529D01*
X15357Y93049D02*
X16145D01*
X15751Y92655D02*
Y93443D01*
X27166Y11335D02*
X27953D01*
X27559Y10941D02*
Y11728D01*
X27049Y14806D02*
X27836D01*
X27442Y14412D02*
Y15200D01*
X24749Y15506D02*
X25536D01*
X25142Y15112D02*
Y15900D01*
X25149Y20670D02*
X25936D01*
X25542Y20276D02*
Y21064D01*
X24804Y91906D02*
X25591D01*
X25197Y91512D02*
Y92299D01*
X24949Y99346D02*
X25736D01*
X25342Y98952D02*
Y99739D01*
X32949Y11406D02*
X33736D01*
X33342Y11012D02*
Y11800D01*
X32669Y103746D02*
X33456D01*
X33062Y103352D02*
Y104139D01*
X33449Y108006D02*
X34236D01*
X33842Y107612D02*
Y108399D01*
X35849Y107906D02*
X36636D01*
X36242Y107512D02*
Y108300D01*
X42127Y5906D02*
X42914D01*
X42520Y5512D02*
Y6300D01*
X39764Y23623D02*
X40551D01*
X40157Y23229D02*
Y24016D01*
X43701Y23623D02*
X44488D01*
X44094Y23229D02*
Y24016D01*
X39764Y31497D02*
X40551D01*
X40157Y31103D02*
Y31890D01*
X39764Y27560D02*
X40551D01*
X40157Y27166D02*
Y27953D01*
X43701Y31497D02*
X44488D01*
X44094Y31103D02*
Y31890D01*
X43701Y27560D02*
X44488D01*
X44094Y27166D02*
Y27953D01*
X39764Y35497D02*
X40551D01*
X40157Y35103D02*
Y35890D01*
X43701Y35497D02*
X44488D01*
X44094Y35103D02*
Y35890D01*
X41059Y91906D02*
X41846D01*
X41452Y91512D02*
Y92299D01*
X43389Y91996D02*
X44176D01*
X43782Y91602D02*
Y92390D01*
X40849Y103306D02*
X41636D01*
X41242Y102912D02*
Y103700D01*
X43920Y112483D02*
X44707D01*
X44313Y112089D02*
Y112877D01*
X47638Y23623D02*
X48425D01*
X48031Y23229D02*
Y24016D01*
X47638Y31497D02*
X48425D01*
X48031Y31103D02*
Y31890D01*
X47638Y27560D02*
X48425D01*
X48031Y27166D02*
Y27953D01*
X47638Y35497D02*
X48425D01*
X48031Y35103D02*
Y35890D01*
X46949Y103393D02*
X47736D01*
X47342Y102999D02*
Y103786D01*
X55469Y14786D02*
X56256D01*
X55862Y14392D02*
Y15179D01*
X59799Y15266D02*
X60586D01*
X60192Y14872D02*
Y15660D01*
X57849Y20406D02*
X58636D01*
X58242Y20012D02*
Y20799D01*
X59449Y30512D02*
X60236D01*
X59842Y30118D02*
Y30906D01*
X57784Y32481D02*
X58571D01*
X58177Y32087D02*
Y32875D01*
X57784Y28544D02*
X58571D01*
X58177Y28150D02*
Y28938D01*
X57949Y100906D02*
X58736D01*
X58342Y100512D02*
Y101300D01*
X63349Y5512D02*
X64136D01*
X63742Y5118D02*
Y5906D01*
X63249Y7806D02*
X64036D01*
X63642Y7412D02*
Y8200D01*
X64549Y29506D02*
X65336D01*
X64942Y29112D02*
Y29899D01*
X64221Y63406D02*
X65008D01*
X64614Y63012D02*
Y63800D01*
X64434Y110300D02*
X65222D01*
X64828Y109906D02*
Y110694D01*
X72849Y4706D02*
X73636D01*
X73242Y4312D02*
Y5099D01*
X74249Y29606D02*
X75036D01*
X74642Y29212D02*
Y30000D01*
X73849Y47304D02*
X74636D01*
X74242Y46910D02*
Y47697D01*
X71379Y52846D02*
X72166D01*
X71772Y52452D02*
Y53240D01*
X74906Y71363D02*
X75693D01*
X75299Y70969D02*
Y71757D01*
X71106Y85500D02*
X71894D01*
X71500Y85106D02*
Y85894D01*
X75985Y94942D02*
X76772D01*
X76378Y94548D02*
Y95336D01*
X71654Y94906D02*
X72441D01*
X72047Y94512D02*
Y95300D01*
X80579Y13819D02*
X81366D01*
X80972Y13425D02*
Y14212D01*
X80579Y23819D02*
X81366D01*
X80972Y23425D02*
Y24213D01*
X80579Y28819D02*
X81366D01*
X80972Y28425D02*
Y29212D01*
X80579Y38819D02*
X81366D01*
X80972Y38425D02*
Y39213D01*
X80579Y43819D02*
X81366D01*
X80972Y43425D02*
Y44212D01*
X80579Y53819D02*
X81366D01*
X80972Y53425D02*
Y54212D01*
X80579Y63819D02*
X81366D01*
X80972Y63425D02*
Y64213D01*
X80579Y68819D02*
X81366D01*
X80972Y68425D02*
Y69213D01*
X80579Y78819D02*
X81366D01*
X80972Y78425D02*
Y79212D01*
X80178Y102134D02*
X80965D01*
X80571Y101740D02*
Y102527D01*
X2562Y18819D02*
X3349D01*
X2955Y18425D02*
Y19212D01*
X2562Y8819D02*
X3349D01*
X2955Y8425D02*
Y9212D01*
X3556Y3150D02*
X4344D01*
X3950Y2756D02*
Y3544D01*
X2562Y48819D02*
X3349D01*
X2955Y48425D02*
Y49213D01*
X2562Y33819D02*
X3349D01*
X2955Y33425D02*
Y34212D01*
X2562Y73819D02*
X3349D01*
X2955Y73425D02*
Y74212D01*
X2562Y58819D02*
X3349D01*
X2955Y58425D02*
Y59212D01*
X3181Y90677D02*
X3968D01*
X3575Y90283D02*
Y91070D01*
X7245Y10406D02*
X8032D01*
X7638Y10012D02*
Y10800D01*
X12008Y26906D02*
X12795D01*
X12401Y26512D02*
Y27299D01*
X8949Y83071D02*
X9736D01*
X9342Y82677D02*
Y83464D01*
X18449Y9906D02*
X19236D01*
X18842Y9512D02*
Y10300D01*
X22949Y17406D02*
X23736D01*
X23342Y17012D02*
Y17799D01*
X24949Y24607D02*
X25736D01*
X25342Y24213D02*
Y25001D01*
X24629Y33776D02*
X25416D01*
X25022Y33382D02*
Y34170D01*
X26949Y106406D02*
X27736D01*
X27342Y106012D02*
Y106799D01*
X27177Y98406D02*
X27964D01*
X27570Y98012D02*
Y98800D01*
X22835Y97906D02*
X23622D01*
X23228Y97512D02*
Y98299D01*
X33349Y9006D02*
X34136D01*
X33742Y8612D02*
Y9399D01*
X34980Y98260D02*
X35768D01*
X35374Y97866D02*
Y98654D01*
X42849Y11206D02*
X43636D01*
X43242Y10812D02*
Y11599D01*
X40469Y11206D02*
X41256D01*
X40862Y10812D02*
Y11599D01*
X39287Y98566D02*
X40075D01*
X39681Y98172D02*
Y98959D01*
X42606Y98878D02*
X43394D01*
X43000Y98484D02*
Y99271D01*
X46849Y8806D02*
X47636D01*
X47242Y8412D02*
Y9200D01*
X49186Y8795D02*
X49973D01*
X49580Y8402D02*
Y9189D01*
X48249Y97896D02*
X49036D01*
X48642Y97502D02*
Y98290D01*
X50506Y113400D02*
X51294D01*
X50900Y113006D02*
Y113794D01*
X48235Y113849D02*
X49022D01*
X48628Y113455D02*
Y114243D01*
X57849Y18106D02*
X58636D01*
X58242Y17712D02*
Y18499D01*
X57749Y24806D02*
X58536D01*
X58142Y24412D02*
Y25199D01*
X55949Y40706D02*
X56736D01*
X56342Y40312D02*
Y41100D01*
X55649Y43006D02*
X56436D01*
X56042Y42612D02*
Y43400D01*
X55749Y98206D02*
X56536D01*
X56142Y97812D02*
Y98599D01*
X65449Y81906D02*
X66236D01*
X65842Y81512D02*
Y82300D01*
X62949Y66405D02*
X63736D01*
X63342Y66011D02*
Y66799D01*
X64449Y98905D02*
X65236D01*
X64842Y98511D02*
Y99299D01*
X73849Y49706D02*
X74636D01*
X74242Y49312D02*
Y50099D01*
X74949Y74906D02*
X75736D01*
X75342Y74512D02*
Y75300D01*
X74449Y82906D02*
X75236D01*
X74842Y82512D02*
Y83299D01*
X73459Y57756D02*
X74246D01*
X73852Y57362D02*
Y58149D01*
X80579Y18819D02*
X81366D01*
X80972Y18425D02*
Y19212D01*
X80579Y8819D02*
X81366D01*
X80972Y8425D02*
Y9212D01*
X80579Y48819D02*
X81366D01*
X80972Y48425D02*
Y49213D01*
X80579Y33819D02*
X81366D01*
X80972Y33425D02*
Y34212D01*
X80579Y73819D02*
X81366D01*
X80972Y73425D02*
Y74212D01*
X80579Y58819D02*
X81366D01*
X80972Y58425D02*
Y59212D01*
X80178Y105678D02*
X80965D01*
X80571Y105284D02*
Y106071D01*
X79949Y98906D02*
X80736D01*
X80342Y98512D02*
Y99300D01*
X79949Y90906D02*
X80736D01*
X80342Y90512D02*
Y91299D01*
X22449Y12402D02*
X23236D01*
X22842Y12008D02*
Y12796D01*
X22149Y22906D02*
X22936D01*
X22542Y22512D02*
Y23300D01*
X4949Y84905D02*
X5736D01*
X5342Y84511D02*
Y85299D01*
X14764Y117406D02*
X15551D01*
X15157Y117012D02*
Y117799D01*
X36349Y8465D02*
X37136D01*
X36742Y8071D02*
Y8858D01*
X44653Y8104D02*
X45440D01*
X45046Y7710D02*
Y8497D01*
X52606Y7000D02*
X53394D01*
X53000Y6606D02*
Y7394D01*
X36418Y11418D02*
X37205D01*
X36811Y11024D02*
Y11812D01*
X54449Y91906D02*
X55236D01*
X54842Y91512D02*
Y92299D01*
X52649Y103406D02*
X53436D01*
X53042Y103012D02*
Y103799D01*
X37449Y103406D02*
X38236D01*
X37842Y103012D02*
Y103799D01*
X52606Y112100D02*
X53394D01*
X53000Y111706D02*
Y112494D01*
X61118Y24457D02*
X61905D01*
X61511Y24063D02*
Y24850D01*
X61749Y31506D02*
X62536D01*
X62142Y31112D02*
Y31899D01*
X69302Y28409D02*
X70089D01*
X69695Y28015D02*
Y28802D01*
X76946Y29721D02*
X77734D01*
X77340Y29327D02*
Y30114D01*
X62349Y39506D02*
X63136D01*
X62742Y39112D02*
Y39900D01*
X68949Y46406D02*
X69736D01*
X69342Y46012D02*
Y46799D01*
X68949Y51906D02*
X69736D01*
X69342Y51512D02*
Y52299D01*
X77165Y85237D02*
X77952D01*
X77558Y84843D02*
Y85631D01*
X77949Y107907D02*
X78736D01*
X78342Y107513D02*
Y108300D01*
X5949Y50406D02*
X6736D01*
X6342Y50012D02*
Y50800D01*
X6299Y26906D02*
X7086D01*
X6692Y26512D02*
Y27299D01*
X46457Y11221D02*
X47244D01*
X46850Y10827D02*
Y11614D01*
X30709Y98406D02*
X31496D01*
X31102Y98012D02*
Y98800D01*
X45977Y97896D02*
X46764D01*
X46370Y97502D02*
Y98290D01*
X46182Y112689D02*
X46970D01*
X46576Y112295D02*
Y113083D01*
X45306Y105100D02*
X46094D01*
X45700Y104706D02*
Y105494D01*
X68949Y49272D02*
X69736D01*
X69342Y48878D02*
Y49665D01*
X61099Y26886D02*
X61886D01*
X61492Y26492D02*
Y27279D01*
X60549Y42706D02*
X61336D01*
X60942Y42312D02*
Y43099D01*
X69474Y34938D02*
X70261D01*
X69867Y34544D02*
Y35331D01*
X68894Y32741D02*
X69681D01*
X69287Y32347D02*
Y33134D01*
X77389Y43186D02*
X78176D01*
X77782Y42792D02*
Y43580D01*
X76909Y57946D02*
X77696D01*
X77302Y57552D02*
Y58340D01*
X76449Y66406D02*
X77236D01*
X76842Y66012D02*
Y66799D01*
X60299Y97843D02*
X61087D01*
X60693Y97449D02*
Y98237D01*
M02*
