G04*
G04 #@! TF.GenerationSoftware,Altium Limited,Altium Designer,20.1.11 (218)*
G04*
G04 Layer_Physical_Order=6*
G04 Layer_Color=16711680*
%FSLAX25Y25*%
%MOIN*%
G70*
G04*
G04 #@! TF.SameCoordinates,49FD3369-56E0-4B66-BF1D-E122077B7428*
G04*
G04*
G04 #@! TF.FilePolarity,Positive*
G04*
G01*
G75*
%ADD11C,0.01000*%
%ADD15C,0.00500*%
G04:AMPARAMS|DCode=20|XSize=22.05mil|YSize=20.08mil|CornerRadius=5.02mil|HoleSize=0mil|Usage=FLASHONLY|Rotation=180.000|XOffset=0mil|YOffset=0mil|HoleType=Round|Shape=RoundedRectangle|*
%AMROUNDEDRECTD20*
21,1,0.02205,0.01004,0,0,180.0*
21,1,0.01201,0.02008,0,0,180.0*
1,1,0.01004,-0.00600,0.00502*
1,1,0.01004,0.00600,0.00502*
1,1,0.01004,0.00600,-0.00502*
1,1,0.01004,-0.00600,-0.00502*
%
%ADD20ROUNDEDRECTD20*%
G04:AMPARAMS|DCode=27|XSize=22.05mil|YSize=20.08mil|CornerRadius=5.02mil|HoleSize=0mil|Usage=FLASHONLY|Rotation=90.000|XOffset=0mil|YOffset=0mil|HoleType=Round|Shape=RoundedRectangle|*
%AMROUNDEDRECTD27*
21,1,0.02205,0.01004,0,0,90.0*
21,1,0.01201,0.02008,0,0,90.0*
1,1,0.01004,0.00502,0.00600*
1,1,0.01004,0.00502,-0.00600*
1,1,0.01004,-0.00502,-0.00600*
1,1,0.01004,-0.00502,0.00600*
%
%ADD27ROUNDEDRECTD27*%
%ADD69C,0.04000*%
%ADD72C,0.03937*%
%ADD73C,0.00800*%
%ADD76C,0.01968*%
%ADD77C,0.01200*%
%ADD78C,0.01500*%
%ADD81C,0.00984*%
%ADD82C,0.02000*%
%ADD83C,0.01900*%
%ADD84C,0.01181*%
%ADD87C,0.00600*%
%ADD90C,0.00884*%
%ADD93C,0.01081*%
%ADD95C,0.16500*%
%ADD96C,0.01772*%
%ADD97R,0.04331X0.08661*%
%ADD98R,0.05118X0.12008*%
%ADD99R,0.01181X0.03150*%
%ADD100C,0.00787*%
%ADD101R,0.02055X0.02362*%
%ADD102R,0.03110X0.01024*%
%ADD103R,0.01024X0.03110*%
%ADD104R,0.10630X0.10236*%
G04:AMPARAMS|DCode=105|XSize=9.84mil|YSize=43.31mil|CornerRadius=2.46mil|HoleSize=0mil|Usage=FLASHONLY|Rotation=270.000|XOffset=0mil|YOffset=0mil|HoleType=Round|Shape=RoundedRectangle|*
%AMROUNDEDRECTD105*
21,1,0.00984,0.03839,0,0,270.0*
21,1,0.00492,0.04331,0,0,270.0*
1,1,0.00492,-0.01919,-0.00246*
1,1,0.00492,-0.01919,0.00246*
1,1,0.00492,0.01919,0.00246*
1,1,0.00492,0.01919,-0.00246*
%
%ADD105ROUNDEDRECTD105*%
%ADD106C,0.01700*%
%ADD107C,0.02362*%
G04:AMPARAMS|DCode=108|XSize=25.59mil|YSize=70.87mil|CornerRadius=6.4mil|HoleSize=0mil|Usage=FLASHONLY|Rotation=270.000|XOffset=0mil|YOffset=0mil|HoleType=Round|Shape=RoundedRectangle|*
%AMROUNDEDRECTD108*
21,1,0.02559,0.05807,0,0,270.0*
21,1,0.01280,0.07087,0,0,270.0*
1,1,0.01280,-0.02904,-0.00640*
1,1,0.01280,-0.02904,0.00640*
1,1,0.01280,0.02904,0.00640*
1,1,0.01280,0.02904,-0.00640*
%
%ADD108ROUNDEDRECTD108*%
D11*
X65047Y71906D02*
G03*
X68047Y74906I0J3000D01*
G01*
D02*
G03*
X65047Y77906I-3000J0D01*
G01*
D02*
G03*
X65047Y71906I0J-3000D01*
G01*
X65047Y78902D02*
X65842Y79697D01*
X65047Y77906D02*
Y78902D01*
X65047Y70963D02*
Y71906D01*
X63342Y69258D02*
X65047Y70963D01*
X39993Y77607D02*
X40000Y77600D01*
X27712Y43436D02*
X29809Y41339D01*
X31083D01*
X50424Y78324D02*
X52900Y80800D01*
X45714Y78324D02*
X50424D01*
X54128Y59734D02*
Y59785D01*
X52496Y61417D02*
X54128Y59785D01*
X46850Y92201D02*
X47058Y91993D01*
X46850Y92201D02*
Y94882D01*
X49685Y61417D02*
X52496D01*
X49685Y71260D02*
X52782D01*
X52797Y71275D01*
X44894Y57006D02*
Y58571D01*
Y57006D02*
X46600Y55300D01*
X44882Y58583D02*
X44894Y58571D01*
X38976Y76577D02*
X40000Y77600D01*
X42913Y74094D02*
Y76708D01*
X44530Y78324D01*
X40945Y74094D02*
Y76655D01*
X40000Y77600D02*
X40945Y76655D01*
X38976Y74094D02*
Y76577D01*
X36917Y94972D02*
Y96717D01*
X35374Y98260D02*
X36917Y96717D01*
Y94972D02*
X37008Y94882D01*
X27442Y14806D02*
X28385Y15749D01*
X31083D01*
X28916Y13780D02*
X31083D01*
X27559Y12423D02*
X28916Y13780D01*
X27559Y11335D02*
Y12423D01*
X31102Y94882D02*
Y98406D01*
X-39800Y-26741D02*
Y-35400D01*
X-34028D01*
X-31141D02*
Y-29628D01*
X-28255Y-26741D01*
X-25369Y-29628D01*
Y-35400D01*
Y-31071D01*
X-31141D01*
X-22483Y-26741D02*
Y-28185D01*
X-19597Y-31071D01*
X-16710Y-28185D01*
Y-26741D01*
X-19597Y-31071D02*
Y-35400D01*
X-8052Y-26741D02*
X-13824D01*
Y-35400D01*
X-8052D01*
X-13824Y-31071D02*
X-10938D01*
X-5165Y-35400D02*
Y-26741D01*
X-836D01*
X607Y-28185D01*
Y-31071D01*
X-836Y-32514D01*
X-5165D01*
X-2279D02*
X607Y-35400D01*
X17924Y-26741D02*
X15038Y-28185D01*
X12152Y-31071D01*
Y-33957D01*
X13595Y-35400D01*
X16481D01*
X17924Y-33957D01*
Y-32514D01*
X16481Y-31071D01*
X12152D01*
X20810D02*
X26583D01*
X38128Y-26741D02*
Y-35400D01*
X42457D01*
X43900Y-33957D01*
Y-32514D01*
X42457Y-31071D01*
X38128D01*
X42457D01*
X43900Y-29628D01*
Y-28185D01*
X42457Y-26741D01*
X38128D01*
X51116D02*
X48229D01*
X46786Y-28185D01*
Y-33957D01*
X48229Y-35400D01*
X51116D01*
X52559Y-33957D01*
Y-28185D01*
X51116Y-26741D01*
X55445D02*
X61217D01*
X58331D01*
Y-35400D01*
X64103Y-26741D02*
X69876D01*
X66990D01*
Y-35400D01*
X77091Y-26741D02*
X74205D01*
X72762Y-28185D01*
Y-33957D01*
X74205Y-35400D01*
X77091D01*
X78535Y-33957D01*
Y-28185D01*
X77091Y-26741D01*
X81421Y-35400D02*
Y-26741D01*
X84307Y-29628D01*
X87193Y-26741D01*
Y-35400D01*
X98738Y-26741D02*
Y-35400D01*
X104510D01*
X107396D02*
Y-29628D01*
X110283Y-26741D01*
X113169Y-29628D01*
Y-35400D01*
Y-31071D01*
X107396D01*
X116055Y-26741D02*
Y-28185D01*
X118941Y-31071D01*
X121828Y-28185D01*
Y-26741D01*
X118941Y-31071D02*
Y-35400D01*
X130486Y-26741D02*
X124714D01*
Y-35400D01*
X130486D01*
X124714Y-31071D02*
X127600D01*
X133372Y-35400D02*
Y-26741D01*
X137702D01*
X139145Y-28185D01*
Y-31071D01*
X137702Y-32514D01*
X133372D01*
X136259D02*
X139145Y-35400D01*
D15*
X77193Y26746D02*
X79200Y28753D01*
Y32046D02*
X80972Y33819D01*
X79200Y28753D02*
Y32046D01*
X55764Y74707D02*
X55793Y74736D01*
Y85907D01*
X52492Y98706D02*
X54972Y101185D01*
Y105914D01*
X53086Y107800D02*
X54972Y105914D01*
X43976Y107800D02*
X53086D01*
X51602Y90098D02*
Y91998D01*
Y90098D02*
X55793Y85907D01*
X50787Y92813D02*
Y94882D01*
Y92813D02*
X51602Y91998D01*
X50787Y94882D02*
Y97001D01*
X50787Y94882D02*
X50787Y94882D01*
X39370Y112406D02*
X43976Y107800D01*
X50787Y97001D02*
X52492Y98706D01*
X19500Y52200D02*
Y56400D01*
X25400Y62300D01*
Y67795D01*
X26741Y69137D01*
X28722D01*
X29390Y49257D02*
X42042Y36605D01*
X19500Y52200D02*
X22443Y49257D01*
X29390D01*
X12500Y45819D02*
Y59300D01*
X7981Y63819D02*
X12500Y59300D01*
Y45819D02*
X22885Y35434D01*
X6481Y53819D02*
X8500Y51800D01*
Y47957D02*
X15342Y41115D01*
X8500Y47957D02*
Y51800D01*
X2955Y53819D02*
X6481D01*
X2955Y63819D02*
X7981D01*
X59300Y66424D02*
X60700Y67824D01*
X58521Y86587D02*
X60700Y84408D01*
Y67824D02*
Y84408D01*
X50993Y76400D02*
X53492Y73900D01*
X45100Y76400D02*
X50993D01*
X44882Y76182D02*
X45100Y76400D01*
X2955Y18819D02*
X6490Y18819D01*
X8099Y17210D02*
X17890D01*
X6490Y18819D02*
X6490D01*
X8099Y17210D01*
X19894Y17406D02*
X23342D01*
X14438Y18489D02*
X18811D01*
X19894Y17406D01*
X19694Y15406D02*
X25042D01*
X17890Y17210D02*
X19694Y15406D01*
X23342Y17406D02*
X25306D01*
X2955Y23819D02*
X9108D01*
X14438Y18489D01*
X17672Y32900D02*
X23148D01*
X24551Y31497D01*
X15342Y35230D02*
X17672Y32900D01*
X31083Y29528D02*
X33720D01*
X24481D02*
X31083D01*
X2955Y47335D02*
Y48819D01*
X13342Y34758D02*
Y36948D01*
X2955Y47335D02*
X13342Y36948D01*
X31083Y31497D02*
X34550D01*
X24551D02*
X31083D01*
X43765Y40035D02*
X45942Y37858D01*
X37364Y43036D02*
X40365Y40035D01*
X43765D01*
X39393Y47044D02*
X44259D01*
X45232Y40616D02*
Y46071D01*
Y40616D02*
X50414Y35434D01*
X44259Y47044D02*
X45232Y46071D01*
X38500Y47937D02*
X39393Y47044D01*
X41317Y98170D02*
Y99243D01*
Y98170D02*
X42322Y97164D01*
X42646Y95149D02*
X43182Y94613D01*
X42322Y97164D02*
X42322D01*
X42646Y95149D02*
Y96841D01*
X42322Y97164D02*
X42646Y96841D01*
X58521Y91869D02*
X58558Y91906D01*
X58521Y86587D02*
Y91869D01*
X76142Y41958D02*
Y46142D01*
Y41958D02*
X77000Y41100D01*
X76142Y46142D02*
X78819Y48819D01*
X80972D01*
X73087Y31800D02*
X75900D01*
X78400Y34300D02*
Y41246D01*
X75900Y31800D02*
X78400Y34300D01*
X69695Y28409D02*
X73087Y31800D01*
X78400Y41246D02*
X80972Y43819D01*
X74978Y33164D02*
X77000Y35187D01*
Y41100D01*
X74300Y34800D02*
X75800Y36300D01*
X72182Y43947D02*
X75800Y40330D01*
Y36300D02*
Y40330D01*
X72182Y43947D02*
Y47646D01*
X68803Y38256D02*
X71988D01*
X72442Y37802D01*
X72471Y33164D02*
X74978D01*
X69912Y30606D02*
X72471Y33164D01*
X67152Y47082D02*
X69342Y49272D01*
X67152Y37536D02*
X69750Y34938D01*
X67152Y37536D02*
Y47082D01*
X69750Y34938D02*
X69867D01*
X15464Y79127D02*
Y79284D01*
X13900Y80848D02*
X15464Y79284D01*
X38500Y47937D02*
Y56000D01*
X38976Y56476D02*
Y58583D01*
X38500Y56000D02*
X38976Y56476D01*
X52776Y33465D02*
X56696D01*
X47183D02*
X52776D01*
X37008Y56392D02*
X37364Y56036D01*
Y43036D02*
Y56036D01*
X37008Y56392D02*
Y58583D01*
X50414Y35434D02*
X57171D01*
X69976Y78449D02*
X70700Y77725D01*
Y76000D02*
Y77725D01*
X59082Y50326D02*
X66732Y57976D01*
X43163Y102327D02*
Y105463D01*
X41300Y100463D02*
X43163Y102327D01*
X36220Y112406D02*
X43163Y105463D01*
X54906Y50906D02*
X59300Y55300D01*
X51148Y50906D02*
X54906D01*
X59300Y55300D02*
Y66424D01*
X54592Y89537D02*
X54603D01*
X52756Y91372D02*
X54592Y89537D01*
X48628Y53426D02*
X51148Y50906D01*
X50866Y73500D02*
X51200D01*
X44882Y74094D02*
Y76182D01*
X50271Y74094D02*
X50866Y73500D01*
X46850Y74094D02*
X50271D01*
X31862Y112262D02*
X35700Y116100D01*
X31862Y106776D02*
Y112262D01*
X35700Y116100D02*
X51900D01*
X44313Y110866D02*
X45479Y109700D01*
X56900D01*
X44313Y110866D02*
Y112483D01*
X56900Y109700D02*
X60693Y105907D01*
Y97843D02*
Y105907D01*
X13900Y93512D02*
X16600Y96212D01*
X13900Y80848D02*
Y93512D01*
X16600Y96212D02*
Y98100D01*
X11783Y92816D02*
X14673Y95707D01*
X14681D02*
X15120Y96146D01*
Y96153D02*
X15600Y96633D01*
X11782Y92816D02*
X11783D01*
X15120Y96146D02*
Y96153D01*
X14673Y95707D02*
X14681D01*
X15600Y96633D02*
Y98800D01*
X60630Y94882D02*
Y97906D01*
X34700Y117900D02*
X61100D01*
X15600Y98800D02*
X34700Y117900D01*
X61100D02*
X67382Y111618D01*
X51900Y116100D02*
X53000Y115000D01*
Y112100D02*
Y115000D01*
X31862Y106776D02*
X32970Y105668D01*
X34510D02*
X35617Y104561D01*
X32970Y105668D02*
X34510D01*
X35617Y102629D02*
X39681Y98566D01*
X35617Y102629D02*
Y104561D01*
X44882Y96376D02*
X46370Y97864D01*
Y97896D02*
X46402Y97928D01*
X46370Y97864D02*
Y97896D01*
X44882Y94882D02*
Y96376D01*
X39681Y98391D02*
X40945Y97127D01*
X39681Y98391D02*
Y98566D01*
X40945Y94882D02*
Y97127D01*
X48819Y94882D02*
Y97719D01*
X48819Y94882D02*
X48819Y94882D01*
X48642Y97896D02*
X48819Y97719D01*
X52756Y91372D02*
Y94882D01*
X67382Y89618D02*
Y111618D01*
X43182Y92924D02*
X43782Y92324D01*
X43182Y92924D02*
Y94613D01*
X43782Y91996D02*
Y92324D01*
X41300Y99260D02*
X41317Y99243D01*
X41300Y99260D02*
Y100463D01*
X23228Y94882D02*
Y97906D01*
X66732Y57976D02*
X69002Y60246D01*
X45942Y34706D02*
Y37858D01*
X11292Y34408D02*
Y35482D01*
Y34408D02*
X15794Y29906D01*
X2955Y43819D02*
X11292Y35482D01*
X2955Y38819D02*
X5182D01*
X18095Y25906D01*
X21341D01*
X31083Y27560D02*
X33888D01*
X15794Y29906D02*
X22362D01*
X24708Y27560D02*
X31083D01*
X13342Y34758D02*
X16694Y31406D01*
X22603D01*
X15342Y35406D02*
Y41115D01*
X7381Y28819D02*
X13794Y22406D01*
X2955Y28819D02*
X7381D01*
X13794Y22406D02*
X20342D01*
X27099Y22662D02*
X28059Y23623D01*
X22786Y22662D02*
X27099D01*
X21542Y23906D02*
X22786Y22662D01*
X28059Y23623D02*
X31083D01*
X26526Y21654D02*
X31083D01*
X25542Y20670D02*
X26526Y21654D01*
X22078Y20670D02*
X25542D01*
X27353Y17717D02*
X31083D01*
X25042Y15406D02*
X27353Y17717D01*
X27586Y19686D02*
X31083D01*
X25306Y17406D02*
X27586Y19686D01*
X66115Y26746D02*
X77193D01*
X66552Y25716D02*
X77869D01*
X80972Y28819D02*
X80972D01*
X77869Y25716D02*
X80972Y28819D01*
X68766Y54666D02*
X80125D01*
X80972Y53819D01*
X65812Y40116D02*
Y51712D01*
X68766Y54666D01*
X64100Y52700D02*
X67366Y55966D01*
X64100Y43413D02*
Y52700D01*
X60969Y40283D02*
X64100Y43413D01*
X67366Y55966D02*
X78119D01*
X59082Y37345D02*
Y50326D01*
X58002Y39416D02*
Y51736D01*
X61962Y55696D02*
Y55696D01*
X58002Y51736D02*
X61962Y55696D01*
X68067Y61800D02*
X75151D01*
X80972Y67622D02*
Y68819D01*
X75151Y61800D02*
X80972Y67622D01*
X61962Y55696D02*
X68067Y61800D01*
X69002Y60246D02*
X77399D01*
X80972Y63819D01*
X33738Y97441D02*
Y103070D01*
X34699Y95222D02*
X35039Y94882D01*
X34699Y95222D02*
Y96480D01*
X33738Y97441D02*
X34699Y96480D01*
X16600Y98100D02*
X19726Y101226D01*
X27472D01*
X15748Y7480D02*
Y12008D01*
Y7480D02*
X18503Y4725D01*
X57086D02*
X60167Y7806D01*
X63642D01*
X26575Y4725D02*
X27952D01*
X15748Y15552D02*
X26575Y4725D01*
X64352Y27656D02*
X65662D01*
X63442Y28566D02*
X64352Y27656D01*
X66415Y28409D02*
X69695D01*
X60602Y28566D02*
X63442D01*
X65662Y27656D02*
X66415Y28409D01*
X58742Y26706D02*
X60602Y28566D01*
X67382Y89618D02*
X71500Y85500D01*
X33062Y103746D02*
X33738Y103070D01*
X32738Y95215D02*
Y101010D01*
Y95215D02*
X33071Y94882D01*
X27342Y106406D02*
X32738Y101010D01*
X52775Y31497D02*
X56233D01*
X57217Y32481D01*
X58177D01*
X25342Y98006D02*
Y99346D01*
Y98006D02*
X27165Y96183D01*
Y94882D02*
Y96183D01*
X34550Y31497D02*
X37442Y28605D01*
Y12805D02*
Y28605D01*
X36811Y12174D02*
X37442Y12805D01*
X36811Y11418D02*
Y12174D01*
X27472Y101226D02*
X29390Y99308D01*
Y95954D02*
Y99308D01*
X29134Y95698D02*
X29390Y95954D01*
X29134Y94882D02*
Y95698D01*
X22885Y35434D02*
X31083D01*
X22603Y31406D02*
X24481Y29528D01*
X54724Y96788D02*
X56142Y98206D01*
X54724Y94882D02*
Y96788D01*
X22640Y24607D02*
X25342D01*
X21341Y25906D02*
X22640Y24607D01*
X18310Y23906D02*
X21542D01*
X8397Y33819D02*
X18310Y23906D01*
X2955Y33819D02*
X8397D01*
X45046Y8104D02*
Y13354D01*
X49409Y17717D01*
X52775D01*
X33888Y27560D02*
X34942Y26506D01*
Y13706D02*
Y26506D01*
X33342Y12106D02*
X34942Y13706D01*
X33342Y11406D02*
Y12106D01*
X15342Y35230D02*
Y35406D01*
X33720Y29528D02*
X36242Y27006D01*
Y13407D02*
Y27006D01*
X35039Y12204D02*
X36242Y13407D01*
X35039Y10303D02*
Y12204D01*
X33742Y9006D02*
X35039Y10303D01*
X57171Y35434D02*
X59082Y37345D01*
X72182Y47646D02*
X74242Y49706D01*
X59842Y30512D02*
X60568Y29786D01*
X62823D01*
X64243Y31206D01*
X66342D01*
X66942Y30606D01*
X69912D01*
X20342Y22406D02*
X22078Y20670D01*
X78119Y55966D02*
X80972Y58819D01*
X60969Y37738D02*
Y40283D01*
X56696Y33465D02*
X60969Y37738D01*
X73212Y71363D02*
X75299D01*
X55988Y37402D02*
X58002Y39416D01*
X52775Y37402D02*
X55988D01*
X45942Y34706D02*
X47183Y33465D01*
X73261Y4725D02*
X76377D01*
X73242Y4706D02*
X73261Y4725D01*
X58177Y32481D02*
X65812Y40116D01*
X58342Y97806D02*
Y100906D01*
X56693Y96157D02*
X58342Y97806D01*
X56693Y94882D02*
Y96157D01*
X52775Y29528D02*
X56263D01*
X57247Y30512D01*
X59842D01*
X73212Y74906D02*
X75342D01*
X25022Y33776D02*
X25333Y33465D01*
X31083D01*
X52775Y27560D02*
X55587D01*
X56441Y26706D01*
X58742D01*
X58521Y94742D02*
X58661Y94882D01*
X58521Y91943D02*
Y94742D01*
Y91943D02*
X58558Y91906D01*
X62045Y22676D02*
X66115Y26746D01*
X59872Y22676D02*
X62045D01*
X59442Y23106D02*
X59872Y22676D01*
X56842Y23106D02*
X59442D01*
X56325Y23623D02*
X56842Y23106D01*
X52775Y23623D02*
X56325D01*
X26326Y25591D02*
X31083D01*
X25342Y24607D02*
X26326Y25591D01*
X64529Y4725D02*
X66732D01*
X63742Y5512D02*
X64529Y4725D01*
X42042Y27006D02*
Y36605D01*
Y27006D02*
X43457Y25591D01*
X52775D01*
X22362Y29906D02*
X24708Y27560D01*
X62412Y21576D02*
X66552Y25716D01*
X59472Y21576D02*
X62412D01*
X58942Y22106D02*
X59472Y21576D01*
X56843Y22106D02*
X58942D01*
X56391Y21654D02*
X56843Y22106D01*
X52775Y21654D02*
X56391D01*
X43110Y11338D02*
X43242Y11206D01*
X43110Y11338D02*
Y14371D01*
X48425Y19686D01*
X52775D01*
D20*
X46900Y80828D02*
D03*
Y84372D02*
D03*
X43100Y80828D02*
D03*
Y84372D02*
D03*
X54200Y71272D02*
D03*
Y67728D02*
D03*
D27*
X69114Y66405D02*
D03*
X65571D02*
D03*
X72114Y82905D02*
D03*
X68571D02*
D03*
D69*
X65047Y74906D02*
D03*
D72*
X72442Y37802D02*
D03*
X8600Y88900D02*
D03*
X37795Y4725D02*
D03*
X18503D02*
D03*
X47440D02*
D03*
X28149D02*
D03*
X57086D02*
D03*
X76377D02*
D03*
X66732D02*
D03*
X52900Y80800D02*
D03*
X74700Y89900D02*
D03*
X9055Y4725D02*
D03*
D73*
X52775Y41339D02*
X54375D01*
X56042Y43006D01*
X52775Y13780D02*
X54856D01*
X55862Y14786D01*
Y14886D01*
X54999Y15749D02*
X55862Y14886D01*
X52775Y15749D02*
X54999D01*
D76*
X33325Y4725D02*
X37795D01*
X32800Y4200D02*
X33325Y4725D01*
D77*
X73212Y78449D02*
Y80035D01*
X72114Y81133D02*
X73212Y80035D01*
X72114Y81133D02*
Y82905D01*
D78*
X65842Y79697D02*
Y81906D01*
X67571D01*
X68570Y82905D01*
X63342Y66405D02*
Y69258D01*
X69114Y66405D02*
X69976Y67267D01*
X69114Y63906D02*
Y66405D01*
X54204Y65504D02*
Y67724D01*
X54203Y65503D02*
X54204Y65504D01*
X54200Y67728D02*
X54204Y67724D01*
X46858Y86530D02*
X46879Y86509D01*
Y84393D02*
Y86509D01*
Y84393D02*
X46900Y84372D01*
X40736Y89452D02*
X43548D01*
X43600Y89400D01*
X38976Y91212D02*
X40736Y89452D01*
X38976Y91212D02*
Y94057D01*
X43100Y84372D02*
X46900D01*
X69976Y67267D02*
Y71363D01*
X63342Y66405D02*
X65570D01*
D81*
X55007Y39371D02*
X56342Y40706D01*
X52775Y39371D02*
X55007D01*
X28149Y37402D02*
X31083D01*
D82*
X40000Y77600D02*
X42998Y80598D01*
Y80824D01*
X43002Y80828D01*
X46885Y79496D02*
Y80824D01*
X44530Y78324D02*
X45714D01*
X46885Y79496D01*
X46889Y80828D02*
X46900D01*
X46885Y80824D02*
X46889Y80828D01*
X52797Y71275D02*
X54197D01*
X54204Y71268D02*
X54732D01*
X57300Y68700D01*
X54197Y71275D02*
X54204Y71268D01*
X43002Y80828D02*
X43100D01*
D83*
X9055Y69292D02*
X11908D01*
X15500Y48051D02*
Y65700D01*
X11908Y69292D02*
X15500Y65700D01*
Y48051D02*
X26149Y37402D01*
X11790Y102439D02*
X11811Y102461D01*
X11790Y95227D02*
Y102439D01*
X7467Y100800D02*
X7480Y100787D01*
X3800Y100800D02*
X7467D01*
X72047Y94906D02*
Y102461D01*
X76378Y94942D02*
Y100787D01*
D84*
X26149Y37402D02*
X28149D01*
D87*
X53161Y4725D02*
X60142Y11706D01*
X47440Y4725D02*
X53161D01*
D90*
X27559Y40775D02*
X28963Y39371D01*
X31083D01*
D93*
X20700Y97900D02*
X21210Y97390D01*
Y94932D02*
Y97390D01*
Y94932D02*
X21260Y94882D01*
X25197Y91906D02*
Y94882D01*
D95*
X70842Y16406D02*
D03*
X31842Y83906D02*
D03*
D96*
X49656Y103393D02*
D03*
X11100Y18846D02*
D03*
X18503Y62946D02*
D03*
X31412Y52506D02*
D03*
X57436Y59700D02*
D03*
X21942Y27706D02*
D03*
X29635Y46699D02*
D03*
X55764Y74707D02*
D03*
X18842Y68539D02*
D03*
X39370Y112406D02*
D03*
X52492Y98706D02*
D03*
X23372Y63616D02*
D03*
X27482Y65896D02*
D03*
X10500Y52563D02*
D03*
X9842Y65906D02*
D03*
X59064Y70800D02*
D03*
Y75600D02*
D03*
X53492Y73900D02*
D03*
X16535Y20406D02*
D03*
X32800Y4200D02*
D03*
X31100Y6700D02*
D03*
X21260Y68539D02*
D03*
X31212Y55006D02*
D03*
X32600Y49199D02*
D03*
X54700Y11200D02*
D03*
X60142Y11706D02*
D03*
X61909Y91142D02*
D03*
X58558Y91906D02*
D03*
X39993Y77607D02*
D03*
X74506Y44966D02*
D03*
X74300Y34800D02*
D03*
X68803Y38256D02*
D03*
X71800Y41300D02*
D03*
X9055Y69292D02*
D03*
X12450Y110298D02*
D03*
X18342Y109406D02*
D03*
X16141Y103150D02*
D03*
X20700Y97900D02*
D03*
X49500Y80800D02*
D03*
X54128Y59734D02*
D03*
X50442Y44606D02*
D03*
X54164Y53177D02*
D03*
X35042Y52343D02*
D03*
X48628Y53426D02*
D03*
X35552Y49006D02*
D03*
X15464Y79127D02*
D03*
X61909Y87599D02*
D03*
X48900Y56400D02*
D03*
X52700Y63800D02*
D03*
X47769Y43782D02*
D03*
X39000Y45000D02*
D03*
X40928Y43798D02*
D03*
X40542Y49206D02*
D03*
X61071Y63406D02*
D03*
X57300Y68700D02*
D03*
X70700Y76000D02*
D03*
X58264Y79107D02*
D03*
X65842Y84406D02*
D03*
X66732Y57976D02*
D03*
X69114Y63906D02*
D03*
X18342Y104907D02*
D03*
X36220Y112406D02*
D03*
X27712Y43436D02*
D03*
X62272Y47796D02*
D03*
X32700Y74200D02*
D03*
X54203Y65503D02*
D03*
X52756Y57548D02*
D03*
X30832Y62946D02*
D03*
X50200Y86000D02*
D03*
X54603Y89537D02*
D03*
X46858Y86530D02*
D03*
X43600Y89400D02*
D03*
X52342Y84905D02*
D03*
X30867Y65679D02*
D03*
X47058Y91993D02*
D03*
X30800Y70400D02*
D03*
X30100Y72800D02*
D03*
X52400Y55000D02*
D03*
X49417Y91901D02*
D03*
X51200Y73500D02*
D03*
X46600Y55300D02*
D03*
X41914Y53177D02*
D03*
X42242Y50906D02*
D03*
X27559Y40775D02*
D03*
X19772Y49106D02*
D03*
X31092Y59256D02*
D03*
X28722Y69137D02*
D03*
X2955Y13819D02*
D03*
Y23819D02*
D03*
Y28819D02*
D03*
Y38819D02*
D03*
Y43819D02*
D03*
Y53819D02*
D03*
Y63819D02*
D03*
Y68819D02*
D03*
Y78819D02*
D03*
X3113Y87134D02*
D03*
X3800Y100800D02*
D03*
X11417Y15552D02*
D03*
X11217Y12008D02*
D03*
X8661Y20406D02*
D03*
X11292Y35456D02*
D03*
X9342Y44406D02*
D03*
X9055Y78347D02*
D03*
X11782Y92816D02*
D03*
X11790Y95227D02*
D03*
X9342Y109906D02*
D03*
X10039Y117406D02*
D03*
X15748Y15552D02*
D03*
Y12008D02*
D03*
X19526Y20406D02*
D03*
X18842Y27906D02*
D03*
X18142Y35506D02*
D03*
X15342Y35406D02*
D03*
X19500Y52200D02*
D03*
X20071Y88135D02*
D03*
X15751Y93049D02*
D03*
X27559Y11335D02*
D03*
X27442Y14806D02*
D03*
X25142Y15506D02*
D03*
X25542Y20670D02*
D03*
X25197Y91906D02*
D03*
X25342Y99346D02*
D03*
X33342Y11406D02*
D03*
X33062Y103746D02*
D03*
X33842Y108006D02*
D03*
X36242Y107906D02*
D03*
X42520Y5906D02*
D03*
X40157Y23623D02*
D03*
X44094D02*
D03*
X40157Y31497D02*
D03*
Y27560D02*
D03*
X44094Y31497D02*
D03*
Y27560D02*
D03*
X40157Y35497D02*
D03*
X44094D02*
D03*
X41452Y91906D02*
D03*
X43782Y91996D02*
D03*
X41242Y103306D02*
D03*
X44313Y112483D02*
D03*
X48031Y23623D02*
D03*
Y31497D02*
D03*
Y27560D02*
D03*
Y35497D02*
D03*
X47342Y103393D02*
D03*
X55862Y14786D02*
D03*
X60192Y15266D02*
D03*
X58242Y20406D02*
D03*
X59842Y30512D02*
D03*
X58177Y32481D02*
D03*
Y28544D02*
D03*
X58342Y100906D02*
D03*
X63742Y5512D02*
D03*
X63642Y7806D02*
D03*
X64942Y29506D02*
D03*
X64614Y63406D02*
D03*
X64828Y110300D02*
D03*
X73242Y4706D02*
D03*
X74642Y29606D02*
D03*
X74242Y47304D02*
D03*
X71772Y52846D02*
D03*
X75299Y71363D02*
D03*
X71500Y85500D02*
D03*
X76378Y94942D02*
D03*
X72047Y94906D02*
D03*
X80972Y13819D02*
D03*
Y23819D02*
D03*
Y28819D02*
D03*
Y38819D02*
D03*
Y43819D02*
D03*
Y53819D02*
D03*
Y63819D02*
D03*
Y68819D02*
D03*
Y78819D02*
D03*
X80571Y102134D02*
D03*
X2955Y18819D02*
D03*
Y8819D02*
D03*
X3950Y3150D02*
D03*
X2955Y48819D02*
D03*
Y33819D02*
D03*
Y73819D02*
D03*
Y58819D02*
D03*
X3575Y90677D02*
D03*
X7638Y10406D02*
D03*
X12401Y26906D02*
D03*
X9342Y83071D02*
D03*
X18842Y9906D02*
D03*
X23342Y17406D02*
D03*
X25342Y24607D02*
D03*
X25022Y33776D02*
D03*
X27342Y106406D02*
D03*
X27570Y98406D02*
D03*
X23228Y97906D02*
D03*
X33742Y9006D02*
D03*
X35374Y98260D02*
D03*
X43242Y11206D02*
D03*
X40862D02*
D03*
X39681Y98566D02*
D03*
X43000Y98878D02*
D03*
X47242Y8806D02*
D03*
X49580Y8795D02*
D03*
X48642Y97896D02*
D03*
X50900Y113400D02*
D03*
X48628Y113849D02*
D03*
X58242Y18106D02*
D03*
X58142Y24806D02*
D03*
X56342Y40706D02*
D03*
X56042Y43006D02*
D03*
X56142Y98206D02*
D03*
X65842Y81906D02*
D03*
X63342Y66405D02*
D03*
X64842Y98905D02*
D03*
X74242Y49706D02*
D03*
X75342Y74906D02*
D03*
X74842Y82906D02*
D03*
X73852Y57756D02*
D03*
X80972Y18819D02*
D03*
Y8819D02*
D03*
Y48819D02*
D03*
Y33819D02*
D03*
Y73819D02*
D03*
Y58819D02*
D03*
X80571Y105678D02*
D03*
X80342Y98906D02*
D03*
Y90906D02*
D03*
X22842Y12402D02*
D03*
X22542Y22906D02*
D03*
X5342Y84905D02*
D03*
X15157Y117406D02*
D03*
X36742Y8465D02*
D03*
X45046Y8104D02*
D03*
X53000Y7000D02*
D03*
X36811Y11418D02*
D03*
X54842Y91906D02*
D03*
X53042Y103406D02*
D03*
X37842D02*
D03*
X53000Y112100D02*
D03*
X61511Y24457D02*
D03*
X62142Y31506D02*
D03*
X69695Y28409D02*
D03*
X77340Y29721D02*
D03*
X62742Y39506D02*
D03*
X69342Y46406D02*
D03*
Y51906D02*
D03*
X77558Y85237D02*
D03*
X78342Y107907D02*
D03*
X6342Y50406D02*
D03*
X6692Y26906D02*
D03*
X46850Y11221D02*
D03*
X31102Y98406D02*
D03*
X46370Y97896D02*
D03*
X46576Y112689D02*
D03*
X45700Y105100D02*
D03*
X69342Y49272D02*
D03*
X61492Y26886D02*
D03*
X60942Y42706D02*
D03*
X69867Y34938D02*
D03*
X69287Y32741D02*
D03*
X77782Y43186D02*
D03*
X77302Y57946D02*
D03*
X76842Y66406D02*
D03*
X60693Y97843D02*
D03*
D97*
X76378Y100787D02*
D03*
X7480D02*
D03*
D98*
X72047Y102461D02*
D03*
X11811D02*
D03*
D99*
X64567Y94882D02*
D03*
X62598D02*
D03*
X60630D02*
D03*
X58661D02*
D03*
X56693D02*
D03*
X54724D02*
D03*
X52756D02*
D03*
X50787D02*
D03*
X48819D02*
D03*
X46850D02*
D03*
X44882D02*
D03*
X42913D02*
D03*
X40945D02*
D03*
X38976D02*
D03*
X37008D02*
D03*
X35039D02*
D03*
X33071D02*
D03*
X31102D02*
D03*
X29134D02*
D03*
X27165D02*
D03*
X25197D02*
D03*
X23228D02*
D03*
X21260D02*
D03*
X19291D02*
D03*
D100*
X65047Y71906D02*
D03*
X65047Y77906D02*
D03*
D101*
X73213Y71363D02*
D03*
Y78449D02*
D03*
X69976D02*
D03*
Y71363D02*
D03*
X73213Y74906D02*
D03*
D102*
X34173Y61417D02*
D03*
Y63386D02*
D03*
Y65354D02*
D03*
Y67323D02*
D03*
Y69291D02*
D03*
Y71260D02*
D03*
X49685D02*
D03*
Y69291D02*
D03*
Y67323D02*
D03*
Y65354D02*
D03*
Y63386D02*
D03*
Y61417D02*
D03*
D103*
X37008Y74094D02*
D03*
X38976D02*
D03*
X40945D02*
D03*
X42913D02*
D03*
X44882D02*
D03*
X46850D02*
D03*
Y58583D02*
D03*
X44882D02*
D03*
X42913D02*
D03*
X40945D02*
D03*
X38976D02*
D03*
X37008D02*
D03*
D104*
X41929Y66338D02*
D03*
D105*
X31083Y19685D02*
D03*
Y21654D02*
D03*
X52776Y19685D02*
D03*
Y21654D02*
D03*
X31083Y41339D02*
D03*
X52776D02*
D03*
Y39370D02*
D03*
X31083D02*
D03*
X52776Y37402D02*
D03*
X31083D02*
D03*
X52776Y35433D02*
D03*
X31083D02*
D03*
X52776Y33465D02*
D03*
X31083D02*
D03*
X52776Y31496D02*
D03*
X31083D02*
D03*
X52776Y29528D02*
D03*
X31083D02*
D03*
X52776Y27559D02*
D03*
X31083D02*
D03*
X52776Y25591D02*
D03*
X31083D02*
D03*
X52776Y23622D02*
D03*
X31083D02*
D03*
X52776Y17717D02*
D03*
X31083D02*
D03*
X52776Y15748D02*
D03*
X31083D02*
D03*
X52776Y13780D02*
D03*
X31083D02*
D03*
D106*
X80342Y79449D02*
X80972Y78819D01*
X72114Y82905D02*
X74841D01*
X74842Y82906D01*
D107*
X80342Y79449D02*
Y90906D01*
D108*
X0Y8819D02*
D03*
Y13819D02*
D03*
Y18819D02*
D03*
Y23819D02*
D03*
Y28819D02*
D03*
Y33819D02*
D03*
Y38819D02*
D03*
Y43819D02*
D03*
Y48819D02*
D03*
Y53819D02*
D03*
Y58819D02*
D03*
Y63819D02*
D03*
Y68819D02*
D03*
Y73819D02*
D03*
Y78819D02*
D03*
X83858Y8819D02*
D03*
Y13819D02*
D03*
Y18819D02*
D03*
Y23819D02*
D03*
Y28819D02*
D03*
Y33819D02*
D03*
Y38819D02*
D03*
Y43819D02*
D03*
Y48819D02*
D03*
Y53819D02*
D03*
Y58819D02*
D03*
Y63819D02*
D03*
Y68819D02*
D03*
Y73819D02*
D03*
Y78819D02*
D03*
M02*
