G04*
G04 #@! TF.GenerationSoftware,Altium Limited,Altium Designer,20.1.11 (218)*
G04*
G04 Layer_Color=16711935*
%FSLAX25Y25*%
%MOIN*%
G70*
G04*
G04 #@! TF.SameCoordinates,49FD3369-56E0-4B66-BF1D-E122077B7428*
G04*
G04*
G04 #@! TF.FilePolarity,Negative*
G04*
G01*
G75*
%ADD10C,0.00984*%
G04:AMPARAMS|DCode=46|XSize=25.98mil|YSize=24.02mil|CornerRadius=6.99mil|HoleSize=0mil|Usage=FLASHONLY|Rotation=180.000|XOffset=0mil|YOffset=0mil|HoleType=Round|Shape=RoundedRectangle|*
%AMROUNDEDRECTD46*
21,1,0.02598,0.01004,0,0,180.0*
21,1,0.01201,0.02402,0,0,180.0*
1,1,0.01398,-0.00600,0.00502*
1,1,0.01398,0.00600,0.00502*
1,1,0.01398,0.00600,-0.00502*
1,1,0.01398,-0.00600,-0.00502*
%
%ADD46ROUNDEDRECTD46*%
G04:AMPARAMS|DCode=53|XSize=25.98mil|YSize=24.02mil|CornerRadius=6.99mil|HoleSize=0mil|Usage=FLASHONLY|Rotation=90.000|XOffset=0mil|YOffset=0mil|HoleType=Round|Shape=RoundedRectangle|*
%AMROUNDEDRECTD53*
21,1,0.02598,0.01004,0,0,90.0*
21,1,0.01201,0.02402,0,0,90.0*
1,1,0.01398,0.00502,0.00600*
1,1,0.01398,0.00502,-0.00600*
1,1,0.01398,-0.00502,-0.00600*
1,1,0.01398,-0.00502,0.00600*
%
%ADD53ROUNDEDRECTD53*%
%ADD68C,0.07874*%
%ADD69C,0.04000*%
%ADD71C,0.17000*%
%ADD82C,0.02000*%
%ADD101R,0.02055X0.02362*%
%ADD109R,0.04831X0.09161*%
%ADD110R,0.05618X0.12508*%
%ADD111R,0.01681X0.03650*%
%ADD112C,0.01287*%
%ADD113C,0.04537*%
%ADD114R,0.03610X0.01524*%
%ADD115R,0.01524X0.03610*%
%ADD116R,0.11130X0.10736*%
G04:AMPARAMS|DCode=117|XSize=14.17mil|YSize=47.64mil|CornerRadius=4.63mil|HoleSize=0mil|Usage=FLASHONLY|Rotation=270.000|XOffset=0mil|YOffset=0mil|HoleType=Round|Shape=RoundedRectangle|*
%AMROUNDEDRECTD117*
21,1,0.01417,0.03839,0,0,270.0*
21,1,0.00492,0.04764,0,0,270.0*
1,1,0.00925,-0.01919,-0.00246*
1,1,0.00925,-0.01919,0.00246*
1,1,0.00925,0.01919,0.00246*
1,1,0.00925,0.01919,-0.00246*
%
%ADD117ROUNDEDRECTD117*%
G04:AMPARAMS|DCode=118|XSize=30.59mil|YSize=75.87mil|CornerRadius=8.9mil|HoleSize=0mil|Usage=FLASHONLY|Rotation=270.000|XOffset=0mil|YOffset=0mil|HoleType=Round|Shape=RoundedRectangle|*
%AMROUNDEDRECTD118*
21,1,0.03059,0.05807,0,0,270.0*
21,1,0.01280,0.07587,0,0,270.0*
1,1,0.01780,-0.02904,-0.00640*
1,1,0.01780,-0.02904,0.00640*
1,1,0.01780,0.02904,0.00640*
1,1,0.01780,0.02904,-0.00640*
%
%ADD118ROUNDEDRECTD118*%
D10*
X-32500Y-27041D02*
Y-35700D01*
X-28171D01*
X-26728Y-34257D01*
Y-32814D01*
X-28171Y-31371D01*
X-32500D01*
X-28171D01*
X-26728Y-29928D01*
Y-28484D01*
X-28171Y-27041D01*
X-32500D01*
X-19512D02*
X-22398D01*
X-23841Y-28484D01*
Y-34257D01*
X-22398Y-35700D01*
X-19512D01*
X-18069Y-34257D01*
Y-28484D01*
X-19512Y-27041D01*
X-15183D02*
X-9410D01*
X-12297D01*
Y-35700D01*
X-6524Y-27041D02*
X-752D01*
X-3638D01*
Y-35700D01*
X6464Y-27041D02*
X3578D01*
X2135Y-28484D01*
Y-34257D01*
X3578Y-35700D01*
X6464D01*
X7907Y-34257D01*
Y-28484D01*
X6464Y-27041D01*
X10793Y-35700D02*
Y-27041D01*
X13679Y-29928D01*
X16566Y-27041D01*
Y-35700D01*
X33883Y-28484D02*
X32440Y-27041D01*
X29553D01*
X28110Y-28484D01*
Y-29928D01*
X29553Y-31371D01*
X32440D01*
X33883Y-32814D01*
Y-34257D01*
X32440Y-35700D01*
X29553D01*
X28110Y-34257D01*
X41098Y-27041D02*
X38212D01*
X36769Y-28484D01*
Y-34257D01*
X38212Y-35700D01*
X41098D01*
X42541Y-34257D01*
Y-28484D01*
X41098Y-27041D01*
X45428D02*
Y-35700D01*
X51200D01*
X54086Y-27041D02*
Y-35700D01*
X58416D01*
X59859Y-34257D01*
Y-28484D01*
X58416Y-27041D01*
X54086D01*
X68517D02*
X62745D01*
Y-35700D01*
X68517D01*
X62745Y-31371D02*
X65631D01*
X71403Y-35700D02*
Y-27041D01*
X75733D01*
X77176Y-28484D01*
Y-31371D01*
X75733Y-32814D01*
X71403D01*
X74290D02*
X77176Y-35700D01*
X88721D02*
Y-27041D01*
X91607Y-29928D01*
X94493Y-27041D01*
Y-35700D01*
X97379D02*
Y-29928D01*
X100266Y-27041D01*
X103152Y-29928D01*
Y-35700D01*
Y-31371D01*
X97379D01*
X111810Y-28484D02*
X110367Y-27041D01*
X107481D01*
X106038Y-28484D01*
Y-29928D01*
X107481Y-31371D01*
X110367D01*
X111810Y-32814D01*
Y-34257D01*
X110367Y-35700D01*
X107481D01*
X106038Y-34257D01*
X114697Y-27041D02*
Y-35700D01*
Y-32814D01*
X120469Y-27041D01*
X116140Y-31371D01*
X120469Y-35700D01*
D46*
X46900Y80828D02*
D03*
Y84372D02*
D03*
X43100Y80828D02*
D03*
Y84372D02*
D03*
X54200Y71272D02*
D03*
Y67728D02*
D03*
D53*
X69114Y66405D02*
D03*
X65571D02*
D03*
X72114Y82905D02*
D03*
X68571D02*
D03*
D68*
X8600Y88900D02*
D03*
X74700Y89900D02*
D03*
X9055Y4725D02*
D03*
D69*
X65047Y74906D02*
D03*
D71*
X70842Y16406D02*
D03*
X31842Y83906D02*
D03*
D82*
X68047Y74906D02*
G03*
X68047Y74906I-3000J0D01*
G01*
D101*
X73213Y71363D02*
D03*
Y78449D02*
D03*
X69976D02*
D03*
Y71363D02*
D03*
X73213Y74906D02*
D03*
D109*
X76378Y100787D02*
D03*
X7480D02*
D03*
D110*
X72047Y102461D02*
D03*
X11811D02*
D03*
D111*
X64567Y94882D02*
D03*
X62598D02*
D03*
X60630D02*
D03*
X58661D02*
D03*
X56693D02*
D03*
X54724D02*
D03*
X52756D02*
D03*
X50787D02*
D03*
X48819D02*
D03*
X46850D02*
D03*
X44882D02*
D03*
X42913D02*
D03*
X40945D02*
D03*
X38976D02*
D03*
X37008D02*
D03*
X35039D02*
D03*
X33071D02*
D03*
X31102D02*
D03*
X29134D02*
D03*
X27165D02*
D03*
X25197D02*
D03*
X23228D02*
D03*
X21260D02*
D03*
X19291D02*
D03*
D112*
X65047Y71906D02*
D03*
X65047Y77906D02*
D03*
D113*
X72442Y37802D02*
D03*
X37795Y4725D02*
D03*
X18503D02*
D03*
X47440D02*
D03*
X28149D02*
D03*
X57086D02*
D03*
X76377D02*
D03*
X66732D02*
D03*
X52900Y80800D02*
D03*
D114*
X34173Y61417D02*
D03*
Y63386D02*
D03*
Y65354D02*
D03*
Y67323D02*
D03*
Y69291D02*
D03*
Y71260D02*
D03*
X49685D02*
D03*
Y69291D02*
D03*
Y67323D02*
D03*
Y65354D02*
D03*
Y63386D02*
D03*
Y61417D02*
D03*
D115*
X37008Y74094D02*
D03*
X38976D02*
D03*
X40945D02*
D03*
X42913D02*
D03*
X44882D02*
D03*
X46850D02*
D03*
Y58583D02*
D03*
X44882D02*
D03*
X42913D02*
D03*
X40945D02*
D03*
X38976D02*
D03*
X37008D02*
D03*
D116*
X41929Y66338D02*
D03*
D117*
X31083Y19685D02*
D03*
Y21654D02*
D03*
X52776Y19685D02*
D03*
Y21654D02*
D03*
X31083Y41339D02*
D03*
X52776D02*
D03*
Y39370D02*
D03*
X31083D02*
D03*
X52776Y37402D02*
D03*
X31083D02*
D03*
X52776Y35433D02*
D03*
X31083D02*
D03*
X52776Y33465D02*
D03*
X31083D02*
D03*
X52776Y31496D02*
D03*
X31083D02*
D03*
X52776Y29528D02*
D03*
X31083D02*
D03*
X52776Y27559D02*
D03*
X31083D02*
D03*
X52776Y25591D02*
D03*
X31083D02*
D03*
X52776Y23622D02*
D03*
X31083D02*
D03*
X52776Y17717D02*
D03*
X31083D02*
D03*
X52776Y15748D02*
D03*
X31083D02*
D03*
X52776Y13780D02*
D03*
X31083D02*
D03*
D118*
X0Y8819D02*
D03*
Y13819D02*
D03*
Y18819D02*
D03*
Y23819D02*
D03*
Y28819D02*
D03*
Y33819D02*
D03*
Y38819D02*
D03*
Y43819D02*
D03*
Y48819D02*
D03*
Y53819D02*
D03*
Y58819D02*
D03*
Y63819D02*
D03*
Y68819D02*
D03*
Y73819D02*
D03*
Y78819D02*
D03*
X83858Y8819D02*
D03*
Y13819D02*
D03*
Y18819D02*
D03*
Y23819D02*
D03*
Y28819D02*
D03*
Y33819D02*
D03*
Y38819D02*
D03*
Y43819D02*
D03*
Y48819D02*
D03*
Y53819D02*
D03*
Y58819D02*
D03*
Y63819D02*
D03*
Y68819D02*
D03*
Y73819D02*
D03*
Y78819D02*
D03*
M02*
