G04*
G04 #@! TF.GenerationSoftware,Altium Limited,Altium Designer,20.1.11 (218)*
G04*
G04 Layer_Color=65535*
%FSLAX25Y25*%
%MOIN*%
G70*
G04*
G04 #@! TF.SameCoordinates,49FD3369-56E0-4B66-BF1D-E122077B7428*
G04*
G04*
G04 #@! TF.FilePolarity,Positive*
G04*
G01*
G75*
%ADD10C,0.00984*%
%ADD11C,0.01000*%
%ADD12C,0.00787*%
%ADD13C,0.00394*%
%ADD14C,0.00472*%
%ADD15C,0.00500*%
G36*
X83071Y117383D02*
X82707Y117233D01*
X77923Y122017D01*
X78074Y122381D01*
X83071D01*
Y117383D01*
D02*
G37*
G36*
X65412Y121451D02*
X65794D01*
Y121420D01*
X66049D01*
Y121388D01*
X66240D01*
Y121356D01*
X66399D01*
Y121324D01*
X66527D01*
Y121292D01*
X66654D01*
Y121260D01*
X66782D01*
Y121229D01*
X66909D01*
Y121197D01*
X67005D01*
Y121165D01*
X67100D01*
Y121133D01*
X67195D01*
Y121101D01*
X67291D01*
Y121069D01*
X67387D01*
Y121037D01*
X67450D01*
Y121006D01*
X67546D01*
Y120974D01*
X67610D01*
Y120942D01*
X67705D01*
Y120910D01*
X67769D01*
Y120878D01*
X67832D01*
Y120846D01*
X67896D01*
Y120815D01*
X67992D01*
Y120783D01*
X68055D01*
Y120751D01*
X68119D01*
Y120719D01*
X68183D01*
Y120687D01*
X68246D01*
Y120655D01*
X68278D01*
Y120624D01*
X68342D01*
Y120592D01*
X68406D01*
Y120560D01*
X68469D01*
Y120528D01*
X68533D01*
Y120496D01*
X68565D01*
Y120464D01*
X68629D01*
Y120432D01*
X68692D01*
Y120401D01*
X68724D01*
Y120369D01*
X68788D01*
Y120337D01*
X68851D01*
Y120305D01*
X68883D01*
Y120273D01*
X68947D01*
Y120241D01*
X68979D01*
Y120210D01*
X69042D01*
Y120178D01*
X69074D01*
Y120146D01*
X69138D01*
Y120114D01*
X69170D01*
Y120082D01*
X69234D01*
Y120050D01*
X69265D01*
Y120018D01*
X69329D01*
Y119987D01*
X69361D01*
Y119955D01*
X69393D01*
Y119923D01*
X69456D01*
Y119891D01*
X69488D01*
Y119859D01*
X69552D01*
Y119827D01*
X69584D01*
Y119796D01*
X69616D01*
Y119764D01*
X69648D01*
Y119732D01*
X69711D01*
Y119700D01*
X69743D01*
Y119668D01*
X69775D01*
Y119636D01*
X69839D01*
Y119605D01*
X69870D01*
Y119573D01*
X69902D01*
Y119541D01*
X69934D01*
Y119509D01*
X69966D01*
Y119477D01*
X70030D01*
Y119445D01*
X70061D01*
Y119413D01*
X70093D01*
Y119382D01*
X70125D01*
Y119350D01*
X70157D01*
Y119318D01*
X70189D01*
Y119286D01*
X70253D01*
Y119254D01*
X70284D01*
Y119222D01*
X70316D01*
Y119191D01*
X70348D01*
Y119159D01*
X70380D01*
Y119127D01*
X70412D01*
Y119095D01*
X70444D01*
Y119063D01*
X70475D01*
Y119031D01*
X70507D01*
Y119000D01*
X70539D01*
Y118968D01*
X70603D01*
Y118936D01*
X70635D01*
Y118904D01*
X70666D01*
Y118872D01*
X70698D01*
Y118840D01*
X70730D01*
Y118808D01*
X70762D01*
Y118777D01*
X70794D01*
Y118745D01*
X70826D01*
Y118713D01*
X70858D01*
Y118681D01*
X70889D01*
Y118649D01*
X70921D01*
Y118617D01*
X70953D01*
Y118586D01*
X70985D01*
Y118554D01*
X71017D01*
Y118522D01*
X71049D01*
Y118490D01*
X71080D01*
Y118458D01*
X71112D01*
Y118426D01*
X71144D01*
Y118394D01*
Y118363D01*
X71176D01*
Y118331D01*
X71208D01*
Y118299D01*
X71240D01*
Y118267D01*
X71272D01*
Y118235D01*
X71303D01*
Y118203D01*
X71335D01*
Y118172D01*
X71367D01*
Y118140D01*
X71399D01*
Y118108D01*
X71431D01*
Y118076D01*
X71463D01*
Y118044D01*
X71494D01*
Y118012D01*
Y117981D01*
X71526D01*
Y117949D01*
X71558D01*
Y117917D01*
X71590D01*
Y117885D01*
X71622D01*
Y117853D01*
X71654D01*
Y117821D01*
X71685D01*
Y117789D01*
X71717D01*
Y117758D01*
Y117726D01*
X71749D01*
Y117694D01*
X71781D01*
Y117662D01*
X71813D01*
Y117630D01*
X71845D01*
Y117598D01*
X71877D01*
Y117567D01*
X71908D01*
Y117535D01*
Y117503D01*
X71940D01*
Y117471D01*
X71972D01*
Y117439D01*
X72004D01*
Y117407D01*
X72036D01*
Y117375D01*
Y117344D01*
X72068D01*
Y117312D01*
X72100D01*
Y117280D01*
X72131D01*
Y117248D01*
X72163D01*
Y117216D01*
Y117184D01*
X72195D01*
Y117153D01*
X72227D01*
Y117121D01*
X72259D01*
Y117089D01*
X72290D01*
Y117057D01*
Y117025D01*
X72322D01*
Y116993D01*
X72354D01*
Y116962D01*
X72386D01*
Y116930D01*
X72418D01*
Y116898D01*
Y116866D01*
X72450D01*
Y116834D01*
X72482D01*
Y116802D01*
X72513D01*
Y116770D01*
Y116739D01*
X72545D01*
Y116707D01*
X72577D01*
Y116675D01*
Y116643D01*
X72545D01*
Y116611D01*
X72513D01*
Y116579D01*
Y116548D01*
X72482D01*
Y116516D01*
X72450D01*
Y116484D01*
Y116452D01*
X72418D01*
Y116420D01*
X72386D01*
Y116388D01*
Y116356D01*
X72354D01*
Y116325D01*
X72322D01*
Y116293D01*
X72290D01*
Y116261D01*
Y116229D01*
X72259D01*
Y116197D01*
X72227D01*
Y116165D01*
Y116133D01*
X72195D01*
Y116102D01*
X72163D01*
Y116070D01*
X72131D01*
Y116038D01*
X72100D01*
Y116006D01*
Y115974D01*
X72068D01*
Y115943D01*
X72036D01*
Y115911D01*
X72004D01*
Y115879D01*
Y115847D01*
X71972D01*
Y115815D01*
X71940D01*
Y115783D01*
X71908D01*
Y115751D01*
X71877D01*
Y115720D01*
Y115688D01*
X71845D01*
Y115656D01*
X71813D01*
Y115624D01*
X71781D01*
Y115592D01*
X71749D01*
Y115560D01*
X71717D01*
Y115529D01*
Y115497D01*
X71685D01*
Y115465D01*
X71654D01*
Y115433D01*
X71622D01*
Y115401D01*
X71590D01*
Y115369D01*
X71558D01*
Y115337D01*
X71526D01*
Y115306D01*
X71494D01*
Y115274D01*
Y115242D01*
X71463D01*
Y115210D01*
X71431D01*
Y115178D01*
X71399D01*
Y115146D01*
X71367D01*
Y115114D01*
X71335D01*
Y115083D01*
X71303D01*
Y115051D01*
X71272D01*
Y115019D01*
X71240D01*
Y114987D01*
X71208D01*
Y114955D01*
X71176D01*
Y114924D01*
X71144D01*
Y114892D01*
X71112D01*
Y114860D01*
X71080D01*
Y114828D01*
X71049D01*
Y114796D01*
X71017D01*
Y114764D01*
Y114732D01*
X70985D01*
Y114701D01*
X70953D01*
Y114669D01*
X70921D01*
Y114637D01*
X70889D01*
Y114605D01*
X70858D01*
Y114573D01*
X70794D01*
Y114541D01*
X70762D01*
Y114509D01*
X70730D01*
Y114478D01*
X70698D01*
Y114446D01*
X70666D01*
Y114414D01*
X70635D01*
Y114382D01*
X70603D01*
Y114350D01*
X70571D01*
Y114318D01*
X70539D01*
Y114287D01*
X70507D01*
Y114255D01*
X70475D01*
Y114223D01*
X70444D01*
Y114191D01*
X70412D01*
Y114159D01*
X70380D01*
Y114127D01*
X70316D01*
Y114095D01*
X70284D01*
Y114064D01*
X70253D01*
Y114032D01*
X70221D01*
Y114000D01*
X70189D01*
Y113968D01*
X70157D01*
Y113936D01*
X70093D01*
Y113905D01*
X70061D01*
Y113873D01*
X70030D01*
Y113841D01*
X69998D01*
Y113809D01*
X69966D01*
Y113777D01*
X69902D01*
Y113745D01*
X69870D01*
Y113713D01*
X69839D01*
Y113682D01*
X69807D01*
Y113650D01*
X69743D01*
Y113618D01*
X69711D01*
Y113586D01*
X69679D01*
Y113554D01*
X69616D01*
Y113522D01*
X69584D01*
Y113490D01*
X69552D01*
Y113459D01*
X69488D01*
Y113427D01*
X69456D01*
Y113395D01*
X69425D01*
Y113363D01*
X69361D01*
Y113331D01*
X69329D01*
Y113299D01*
X69265D01*
Y113268D01*
X69234D01*
Y113236D01*
X69202D01*
Y113204D01*
X69138D01*
Y113172D01*
X69106D01*
Y113140D01*
X69042D01*
Y113108D01*
X69011D01*
Y113076D01*
X68947D01*
Y113045D01*
X68915D01*
Y113013D01*
X68851D01*
Y112981D01*
X68788D01*
Y112949D01*
X68756D01*
Y112917D01*
X68692D01*
Y112885D01*
X68629D01*
Y112854D01*
X68597D01*
Y112822D01*
X68533D01*
Y112790D01*
X68469D01*
Y112758D01*
X68406D01*
Y112726D01*
X68374D01*
Y112694D01*
X68310D01*
Y112663D01*
X68246D01*
Y112631D01*
X68183D01*
Y112599D01*
X68119D01*
Y112567D01*
X68055D01*
Y112535D01*
X67992D01*
Y112503D01*
X67928D01*
Y112471D01*
X67864D01*
Y112440D01*
X67801D01*
Y112408D01*
X67705D01*
Y112376D01*
X67641D01*
Y112344D01*
X67578D01*
Y112312D01*
X67482D01*
Y112280D01*
X67418D01*
Y112249D01*
X67323D01*
Y112217D01*
X67259D01*
Y112185D01*
X67164D01*
Y112153D01*
X67068D01*
Y112121D01*
X66973D01*
Y112089D01*
X66877D01*
Y112057D01*
X66750D01*
Y112026D01*
X66654D01*
Y111994D01*
X66527D01*
Y111962D01*
X66399D01*
Y111930D01*
X66240D01*
Y111898D01*
X66081D01*
Y111866D01*
X65858D01*
Y111835D01*
X65603D01*
Y111803D01*
X65158D01*
Y111771D01*
X64807D01*
Y111803D01*
X64361D01*
Y111835D01*
X64107D01*
Y111866D01*
X63916D01*
Y111898D01*
X63756D01*
Y111930D01*
X63597D01*
Y111962D01*
X63470D01*
Y111994D01*
X63342D01*
Y112026D01*
X63247D01*
Y112057D01*
X63151D01*
Y112089D01*
X63056D01*
Y112121D01*
X62960D01*
Y112153D01*
X62865D01*
Y112185D01*
X62769D01*
Y112217D01*
X62706D01*
Y112249D01*
X62610D01*
Y112280D01*
X62546D01*
Y112312D01*
X62451D01*
Y112344D01*
X62387D01*
Y112376D01*
X62323D01*
Y112408D01*
X62260D01*
Y112440D01*
X62196D01*
Y112471D01*
X62132D01*
Y112503D01*
X62069D01*
Y112535D01*
X62005D01*
Y112567D01*
X61941D01*
Y112599D01*
X61878D01*
Y112631D01*
X61814D01*
Y112663D01*
X61750D01*
Y112694D01*
X61718D01*
Y112726D01*
X61655D01*
Y112758D01*
X61591D01*
Y112790D01*
X61559D01*
Y112822D01*
X61496D01*
Y112854D01*
X61432D01*
Y112885D01*
X61400D01*
Y112917D01*
X61336D01*
Y112949D01*
X61304D01*
Y112981D01*
X61241D01*
Y113013D01*
X61209D01*
Y113045D01*
X61145D01*
Y113076D01*
X61113D01*
Y113108D01*
X61081D01*
Y113140D01*
X61018D01*
Y113172D01*
X60986D01*
Y113204D01*
X60922D01*
Y113236D01*
X60891D01*
Y113268D01*
X60859D01*
Y113299D01*
X60795D01*
Y113331D01*
X60763D01*
Y113363D01*
X60731D01*
Y113395D01*
X60668D01*
Y113427D01*
X60636D01*
Y113459D01*
X60604D01*
Y113490D01*
X60572D01*
Y113522D01*
X60508D01*
Y113554D01*
X60476D01*
Y113586D01*
X60445D01*
Y113618D01*
X60413D01*
Y113650D01*
X60381D01*
Y113682D01*
X60349D01*
Y113713D01*
X60285D01*
Y113745D01*
X60254D01*
Y113777D01*
X60222D01*
Y113809D01*
X60190D01*
Y113841D01*
X60158D01*
Y113873D01*
X60126D01*
Y113905D01*
X60094D01*
Y113936D01*
X60062D01*
Y113968D01*
X59999D01*
Y114000D01*
X59967D01*
Y114032D01*
X59935D01*
Y114064D01*
X59903D01*
Y114095D01*
X59872D01*
Y114127D01*
X59840D01*
Y114159D01*
X59808D01*
Y114191D01*
X59776D01*
Y114223D01*
X59744D01*
Y114255D01*
X59712D01*
Y114287D01*
X59680D01*
Y114318D01*
X59649D01*
Y114350D01*
X59617D01*
Y114382D01*
X59585D01*
Y114414D01*
X59553D01*
Y114446D01*
X59521D01*
Y114478D01*
X59489D01*
Y114509D01*
X59457D01*
Y114541D01*
X59426D01*
Y114573D01*
X59394D01*
Y114605D01*
X59362D01*
Y114637D01*
Y114669D01*
X59330D01*
Y114701D01*
X59298D01*
Y114732D01*
X59266D01*
Y114764D01*
X59235D01*
Y114796D01*
X59203D01*
Y114828D01*
X59171D01*
Y114860D01*
X59139D01*
Y114892D01*
X59107D01*
Y114924D01*
X59075D01*
Y114955D01*
Y114987D01*
X59044D01*
Y115019D01*
X59012D01*
Y115051D01*
X58980D01*
Y115083D01*
X58948D01*
Y115114D01*
X58916D01*
Y115146D01*
X58884D01*
Y115178D01*
Y115210D01*
X58852D01*
Y115242D01*
X58821D01*
Y115274D01*
X58789D01*
Y115306D01*
X58757D01*
Y115337D01*
X58725D01*
Y115369D01*
Y115401D01*
X58693D01*
Y115433D01*
X58661D01*
Y115465D01*
X58630D01*
Y115497D01*
X58598D01*
Y115529D01*
Y115560D01*
X58566D01*
Y115592D01*
X58534D01*
Y115624D01*
X58502D01*
Y115656D01*
X58470D01*
Y115688D01*
Y115720D01*
X58438D01*
Y115751D01*
X58407D01*
Y115783D01*
X58375D01*
Y115815D01*
Y115847D01*
X58343D01*
Y115879D01*
X58311D01*
Y115911D01*
X58279D01*
Y115943D01*
Y115974D01*
X58247D01*
Y116006D01*
X58216D01*
Y116038D01*
X58184D01*
Y116070D01*
Y116102D01*
X58152D01*
Y116133D01*
X58120D01*
Y116165D01*
X58088D01*
Y116197D01*
Y116229D01*
X58056D01*
Y116261D01*
X58025D01*
Y116293D01*
Y116325D01*
X57993D01*
Y116356D01*
X57961D01*
Y116388D01*
X57929D01*
Y116420D01*
Y116452D01*
X57897D01*
Y116484D01*
X57865D01*
Y116516D01*
Y116548D01*
X57833D01*
Y116579D01*
X57802D01*
Y116611D01*
X57770D01*
Y116643D01*
Y116675D01*
X57802D01*
Y116707D01*
X57833D01*
Y116739D01*
Y116770D01*
X57865D01*
Y116802D01*
Y116834D01*
X57897D01*
Y116866D01*
X57929D01*
Y116898D01*
Y116930D01*
X57961D01*
Y116962D01*
X57993D01*
Y116993D01*
Y117025D01*
X58025D01*
Y117057D01*
X58056D01*
Y117089D01*
Y117121D01*
X58088D01*
Y117153D01*
X58120D01*
Y117184D01*
Y117216D01*
X58152D01*
Y117248D01*
X58184D01*
Y117280D01*
X58216D01*
Y117312D01*
Y117344D01*
X58247D01*
Y117375D01*
X58279D01*
Y117407D01*
X58311D01*
Y117439D01*
Y117471D01*
X58343D01*
Y117503D01*
X58375D01*
Y117535D01*
X58407D01*
Y117567D01*
Y117598D01*
X58438D01*
Y117630D01*
X58470D01*
Y117662D01*
X58502D01*
Y117694D01*
Y117726D01*
X58534D01*
Y117758D01*
X58566D01*
Y117789D01*
X58598D01*
Y117821D01*
X58630D01*
Y117853D01*
X58661D01*
Y117885D01*
Y117917D01*
X58693D01*
Y117949D01*
X58725D01*
Y117981D01*
X58757D01*
Y118012D01*
X58789D01*
Y118044D01*
X58821D01*
Y118076D01*
Y118108D01*
X58852D01*
Y118140D01*
X58884D01*
Y118172D01*
X58916D01*
Y118203D01*
X58948D01*
Y118235D01*
X58980D01*
Y118267D01*
X59012D01*
Y118299D01*
X59044D01*
Y118331D01*
Y118363D01*
X59075D01*
Y118394D01*
X59107D01*
Y118426D01*
X59139D01*
Y118458D01*
X59171D01*
Y118490D01*
X59203D01*
Y118522D01*
X59235D01*
Y118554D01*
X59266D01*
Y118586D01*
X59298D01*
Y118617D01*
X59330D01*
Y118649D01*
X59362D01*
Y118681D01*
X59394D01*
Y118713D01*
X59426D01*
Y118745D01*
X59457D01*
Y118777D01*
X59489D01*
Y118808D01*
X59521D01*
Y118840D01*
X59553D01*
Y118872D01*
X59585D01*
Y118904D01*
X59617D01*
Y118936D01*
X59649D01*
Y118968D01*
X59680D01*
Y119000D01*
X59712D01*
Y119031D01*
X59744D01*
Y119063D01*
X59776D01*
Y119095D01*
X59808D01*
Y119127D01*
X59840D01*
Y119159D01*
X59872D01*
Y119191D01*
X59903D01*
Y119222D01*
X59967D01*
Y119254D01*
X59999D01*
Y119286D01*
X60031D01*
Y119318D01*
X60062D01*
Y119350D01*
X60094D01*
Y119382D01*
X60126D01*
Y119413D01*
X60158D01*
Y119445D01*
X60222D01*
Y119477D01*
X60254D01*
Y119509D01*
X60285D01*
Y119541D01*
X60317D01*
Y119573D01*
X60349D01*
Y119605D01*
X60413D01*
Y119636D01*
X60445D01*
Y119668D01*
X60476D01*
Y119700D01*
X60508D01*
Y119732D01*
X60572D01*
Y119764D01*
X60604D01*
Y119796D01*
X60636D01*
Y119827D01*
X60699D01*
Y119859D01*
X60731D01*
Y119891D01*
X60763D01*
Y119923D01*
X60827D01*
Y119955D01*
X60859D01*
Y119987D01*
X60891D01*
Y120018D01*
X60954D01*
Y120050D01*
X60986D01*
Y120082D01*
X61050D01*
Y120114D01*
X61081D01*
Y120146D01*
X61145D01*
Y120178D01*
X61177D01*
Y120210D01*
X61241D01*
Y120241D01*
X61273D01*
Y120273D01*
X61336D01*
Y120305D01*
X61368D01*
Y120337D01*
X61432D01*
Y120369D01*
X61464D01*
Y120401D01*
X61527D01*
Y120432D01*
X61591D01*
Y120464D01*
X61655D01*
Y120496D01*
X61687D01*
Y120528D01*
X61750D01*
Y120560D01*
X61814D01*
Y120592D01*
X61878D01*
Y120624D01*
X61941D01*
Y120655D01*
X61973D01*
Y120687D01*
X62037D01*
Y120719D01*
X62100D01*
Y120751D01*
X62164D01*
Y120783D01*
X62260D01*
Y120815D01*
X62323D01*
Y120846D01*
X62387D01*
Y120878D01*
X62451D01*
Y120910D01*
X62515D01*
Y120942D01*
X62610D01*
Y120974D01*
X62674D01*
Y121006D01*
X62769D01*
Y121037D01*
X62833D01*
Y121069D01*
X62928D01*
Y121101D01*
X63024D01*
Y121133D01*
X63120D01*
Y121165D01*
X63215D01*
Y121197D01*
X63311D01*
Y121229D01*
X63438D01*
Y121260D01*
X63565D01*
Y121292D01*
X63693D01*
Y121324D01*
X63820D01*
Y121356D01*
X64011D01*
Y121388D01*
X64202D01*
Y121420D01*
X64425D01*
Y121451D01*
X64807D01*
Y121483D01*
X65412D01*
Y121451D01*
D02*
G37*
G36*
X60039Y110954D02*
Y110939D01*
Y110924D01*
Y110910D01*
Y110895D01*
Y110880D01*
Y110866D01*
Y110851D01*
Y110836D01*
Y110822D01*
Y110807D01*
Y110792D01*
Y110778D01*
Y110763D01*
Y110748D01*
Y110734D01*
Y110719D01*
Y110704D01*
Y110690D01*
Y110675D01*
Y110660D01*
Y110646D01*
Y110631D01*
Y110617D01*
X59688D01*
Y110631D01*
Y110646D01*
Y110660D01*
Y110675D01*
Y110690D01*
Y110704D01*
Y110719D01*
Y110734D01*
Y110748D01*
Y110763D01*
Y110778D01*
Y110792D01*
Y110807D01*
Y110822D01*
Y110836D01*
Y110851D01*
Y110866D01*
Y110880D01*
Y110895D01*
Y110910D01*
Y110924D01*
Y110939D01*
Y110954D01*
Y110968D01*
X60039D01*
Y110954D01*
D02*
G37*
G36*
X83380Y111027D02*
Y111012D01*
Y110998D01*
Y110983D01*
Y110968D01*
Y110954D01*
Y110939D01*
Y110924D01*
Y110910D01*
Y110895D01*
Y110880D01*
Y110866D01*
Y110851D01*
Y110836D01*
Y110822D01*
Y110807D01*
Y110792D01*
Y110778D01*
Y110763D01*
Y110748D01*
Y110734D01*
Y110719D01*
Y110704D01*
Y110690D01*
Y110675D01*
Y110660D01*
Y110646D01*
Y110631D01*
Y110617D01*
Y110602D01*
Y110587D01*
Y110573D01*
Y110558D01*
Y110543D01*
Y110529D01*
Y110514D01*
Y110499D01*
Y110485D01*
Y110470D01*
Y110455D01*
Y110441D01*
Y110426D01*
Y110411D01*
Y110397D01*
Y110382D01*
Y110367D01*
Y110353D01*
Y110338D01*
Y110323D01*
Y110309D01*
Y110294D01*
X82633D01*
Y110309D01*
Y110323D01*
Y110338D01*
Y110353D01*
Y110367D01*
Y110382D01*
Y110397D01*
Y110411D01*
Y110426D01*
Y110441D01*
Y110455D01*
Y110470D01*
Y110485D01*
Y110499D01*
Y110514D01*
Y110529D01*
Y110543D01*
Y110558D01*
Y110573D01*
Y110587D01*
Y110602D01*
Y110617D01*
Y110631D01*
Y110646D01*
Y110660D01*
Y110675D01*
Y110690D01*
Y110704D01*
Y110719D01*
Y110734D01*
Y110748D01*
Y110763D01*
Y110778D01*
Y110792D01*
Y110807D01*
Y110822D01*
Y110836D01*
Y110851D01*
Y110866D01*
Y110880D01*
Y110895D01*
Y110910D01*
Y110924D01*
Y110939D01*
Y110954D01*
Y110968D01*
Y110983D01*
Y110998D01*
Y111012D01*
Y111027D01*
Y111042D01*
X83380D01*
Y111027D01*
D02*
G37*
G36*
X72312D02*
Y111012D01*
Y110998D01*
Y110983D01*
Y110968D01*
Y110954D01*
Y110939D01*
Y110924D01*
Y110910D01*
Y110895D01*
Y110880D01*
Y110866D01*
Y110851D01*
Y110836D01*
Y110822D01*
Y110807D01*
Y110792D01*
Y110778D01*
Y110763D01*
Y110748D01*
Y110734D01*
Y110719D01*
Y110704D01*
Y110690D01*
Y110675D01*
Y110660D01*
Y110646D01*
Y110631D01*
Y110617D01*
Y110602D01*
Y110587D01*
Y110573D01*
Y110558D01*
Y110543D01*
Y110529D01*
Y110514D01*
Y110499D01*
Y110485D01*
Y110470D01*
Y110455D01*
Y110441D01*
Y110426D01*
Y110411D01*
Y110397D01*
Y110382D01*
Y110367D01*
Y110353D01*
Y110338D01*
Y110323D01*
Y110309D01*
Y110294D01*
X71579D01*
Y110309D01*
Y110323D01*
Y110338D01*
Y110353D01*
Y110367D01*
Y110382D01*
Y110397D01*
Y110411D01*
Y110426D01*
Y110441D01*
Y110455D01*
Y110470D01*
Y110485D01*
Y110499D01*
Y110514D01*
Y110529D01*
Y110543D01*
Y110558D01*
Y110573D01*
Y110587D01*
Y110602D01*
Y110617D01*
Y110631D01*
Y110646D01*
Y110660D01*
Y110675D01*
Y110690D01*
Y110704D01*
Y110719D01*
Y110734D01*
Y110748D01*
Y110763D01*
Y110778D01*
Y110792D01*
Y110807D01*
Y110822D01*
Y110836D01*
Y110851D01*
Y110866D01*
Y110880D01*
Y110895D01*
Y110910D01*
Y110924D01*
Y110939D01*
Y110954D01*
Y110968D01*
Y110983D01*
Y110998D01*
Y111012D01*
Y111027D01*
Y111042D01*
X72312D01*
Y111027D01*
D02*
G37*
G36*
X68514D02*
Y111012D01*
Y110998D01*
Y110983D01*
Y110968D01*
Y110954D01*
Y110939D01*
Y110924D01*
Y110910D01*
Y110895D01*
Y110880D01*
Y110866D01*
Y110851D01*
Y110836D01*
Y110822D01*
Y110807D01*
Y110792D01*
Y110778D01*
Y110763D01*
Y110748D01*
Y110734D01*
Y110719D01*
Y110704D01*
Y110690D01*
Y110675D01*
Y110660D01*
Y110646D01*
Y110631D01*
Y110617D01*
Y110602D01*
Y110587D01*
Y110573D01*
Y110558D01*
Y110543D01*
Y110529D01*
Y110514D01*
Y110499D01*
Y110485D01*
Y110470D01*
Y110455D01*
Y110441D01*
Y110426D01*
Y110411D01*
Y110397D01*
Y110382D01*
Y110367D01*
Y110353D01*
Y110338D01*
Y110323D01*
Y110309D01*
Y110294D01*
X67781D01*
Y110309D01*
Y110323D01*
Y110338D01*
Y110353D01*
Y110367D01*
Y110382D01*
Y110397D01*
Y110411D01*
Y110426D01*
Y110441D01*
Y110455D01*
Y110470D01*
Y110485D01*
Y110499D01*
Y110514D01*
Y110529D01*
Y110543D01*
Y110558D01*
Y110573D01*
Y110587D01*
Y110602D01*
Y110617D01*
Y110631D01*
Y110646D01*
Y110660D01*
Y110675D01*
Y110690D01*
Y110704D01*
Y110719D01*
Y110734D01*
Y110748D01*
Y110763D01*
Y110778D01*
Y110792D01*
Y110807D01*
Y110822D01*
Y110836D01*
Y110851D01*
Y110866D01*
Y110880D01*
Y110895D01*
Y110910D01*
Y110924D01*
Y110939D01*
Y110954D01*
Y110968D01*
Y110983D01*
Y110998D01*
Y111012D01*
Y111027D01*
Y111042D01*
X68514D01*
Y111027D01*
D02*
G37*
G36*
X77179Y110118D02*
X77310D01*
Y110103D01*
X77384D01*
Y110089D01*
X77427D01*
Y110074D01*
X77471D01*
Y110059D01*
X77501D01*
Y110045D01*
X77531D01*
Y110030D01*
X77560D01*
Y110015D01*
X77590D01*
Y110001D01*
X77604D01*
Y109986D01*
X77633D01*
Y109971D01*
X77647D01*
Y109957D01*
X77662D01*
Y109942D01*
X77677D01*
Y109927D01*
X77692D01*
Y109913D01*
X77706D01*
Y109898D01*
X77721D01*
Y109883D01*
X77735D01*
Y109869D01*
X77750D01*
Y109854D01*
X77751D01*
Y109839D01*
X77766D01*
Y109825D01*
X77779D01*
Y109810D01*
X77780D01*
Y109795D01*
X77795D01*
Y109781D01*
Y109766D01*
X77810D01*
Y109751D01*
X77808D01*
Y109737D01*
X77824D01*
Y109722D01*
Y109707D01*
Y109693D01*
X77838D01*
Y109678D01*
X77839D01*
Y109663D01*
Y109649D01*
X77852D01*
Y109634D01*
Y109619D01*
Y109605D01*
Y109590D01*
X77868D01*
Y109575D01*
Y109561D01*
Y109546D01*
Y109531D01*
X77867D01*
Y109517D01*
X77883D01*
Y109502D01*
X77882D01*
Y109488D01*
X77883D01*
Y109473D01*
X77882D01*
Y109458D01*
X77883D01*
Y109444D01*
X77882D01*
Y109429D01*
Y109414D01*
Y109400D01*
X77898D01*
Y109385D01*
X77896D01*
Y109370D01*
Y109356D01*
X77898D01*
Y109341D01*
Y109326D01*
Y109312D01*
X77896D01*
Y109297D01*
Y109282D01*
Y109268D01*
Y109253D01*
Y109238D01*
Y109224D01*
Y109209D01*
Y109194D01*
X77898D01*
Y109180D01*
Y109165D01*
Y109150D01*
Y109136D01*
Y109121D01*
Y109106D01*
Y109092D01*
Y109077D01*
Y109062D01*
Y109048D01*
Y109033D01*
Y109018D01*
Y109004D01*
Y108989D01*
Y108974D01*
Y108960D01*
Y108945D01*
Y108930D01*
Y108916D01*
Y108901D01*
Y108886D01*
Y108872D01*
Y108857D01*
Y108843D01*
Y108828D01*
Y108813D01*
Y108799D01*
Y108784D01*
Y108769D01*
Y108755D01*
Y108740D01*
Y108725D01*
Y108711D01*
Y108696D01*
Y108681D01*
Y108667D01*
Y108652D01*
Y108637D01*
Y108623D01*
Y108608D01*
Y108593D01*
Y108579D01*
Y108564D01*
Y108549D01*
Y108535D01*
Y108520D01*
Y108505D01*
Y108491D01*
Y108476D01*
Y108461D01*
Y108447D01*
Y108432D01*
Y108417D01*
Y108403D01*
Y108388D01*
Y108373D01*
Y108359D01*
Y108344D01*
Y108329D01*
Y108315D01*
Y108300D01*
Y108285D01*
Y108271D01*
Y108256D01*
Y108241D01*
Y108227D01*
Y108212D01*
Y108197D01*
Y108183D01*
Y108168D01*
Y108153D01*
Y108139D01*
Y108124D01*
Y108109D01*
Y108095D01*
Y108080D01*
Y108065D01*
Y108051D01*
Y108036D01*
Y108021D01*
Y108007D01*
Y107992D01*
Y107977D01*
Y107963D01*
Y107948D01*
Y107933D01*
Y107919D01*
Y107904D01*
Y107889D01*
Y107875D01*
Y107860D01*
Y107845D01*
Y107831D01*
Y107816D01*
Y107801D01*
Y107787D01*
Y107772D01*
Y107757D01*
Y107743D01*
Y107728D01*
Y107714D01*
Y107699D01*
Y107684D01*
Y107670D01*
Y107655D01*
Y107640D01*
Y107626D01*
Y107611D01*
Y107596D01*
Y107582D01*
Y107567D01*
Y107552D01*
Y107538D01*
X77164D01*
Y107552D01*
Y107567D01*
Y107582D01*
Y107596D01*
Y107611D01*
Y107626D01*
Y107640D01*
Y107655D01*
Y107670D01*
Y107684D01*
Y107699D01*
Y107714D01*
Y107728D01*
Y107743D01*
Y107757D01*
Y107772D01*
Y107787D01*
Y107801D01*
Y107816D01*
Y107831D01*
Y107845D01*
Y107860D01*
Y107875D01*
Y107889D01*
Y107904D01*
Y107919D01*
Y107933D01*
Y107948D01*
Y107963D01*
Y107977D01*
Y107992D01*
Y108007D01*
Y108021D01*
Y108036D01*
Y108051D01*
Y108065D01*
Y108080D01*
Y108095D01*
Y108109D01*
Y108124D01*
Y108139D01*
Y108153D01*
Y108168D01*
Y108183D01*
Y108197D01*
Y108212D01*
Y108227D01*
Y108241D01*
Y108256D01*
Y108271D01*
Y108285D01*
Y108300D01*
Y108315D01*
Y108329D01*
Y108344D01*
Y108359D01*
Y108373D01*
Y108388D01*
Y108403D01*
Y108417D01*
Y108432D01*
Y108447D01*
Y108461D01*
Y108476D01*
Y108491D01*
Y108505D01*
Y108520D01*
Y108535D01*
Y108549D01*
Y108564D01*
Y108579D01*
Y108593D01*
Y108608D01*
Y108623D01*
Y108637D01*
Y108652D01*
Y108667D01*
Y108681D01*
Y108696D01*
Y108711D01*
Y108725D01*
Y108740D01*
Y108755D01*
Y108769D01*
Y108784D01*
Y108799D01*
Y108813D01*
Y108828D01*
Y108843D01*
Y108857D01*
Y108872D01*
Y108886D01*
Y108901D01*
Y108916D01*
Y108930D01*
Y108945D01*
Y108960D01*
Y108974D01*
Y108989D01*
Y109004D01*
Y109018D01*
Y109033D01*
Y109048D01*
Y109062D01*
Y109077D01*
Y109092D01*
Y109106D01*
Y109121D01*
Y109136D01*
Y109150D01*
Y109165D01*
Y109180D01*
Y109194D01*
X77150D01*
Y109209D01*
Y109224D01*
Y109238D01*
Y109253D01*
Y109268D01*
Y109282D01*
Y109297D01*
Y109312D01*
X77135D01*
Y109326D01*
Y109341D01*
Y109356D01*
X77120D01*
Y109370D01*
Y109385D01*
X77106D01*
Y109400D01*
Y109414D01*
X77091D01*
Y109429D01*
Y109444D01*
X77077D01*
Y109458D01*
X77062D01*
Y109473D01*
X77047D01*
Y109488D01*
X77033D01*
Y109502D01*
X77003D01*
Y109517D01*
X76974D01*
Y109531D01*
X76945D01*
Y109546D01*
X76725D01*
Y109531D01*
X76680D01*
Y109517D01*
X76651D01*
Y109502D01*
X76636D01*
Y109488D01*
X76606D01*
Y109473D01*
X76593D01*
Y109458D01*
X76578D01*
Y109444D01*
X76562D01*
Y109429D01*
X76549D01*
Y109414D01*
Y109400D01*
X76533D01*
Y109385D01*
X76519D01*
Y109370D01*
Y109356D01*
X76505D01*
Y109341D01*
Y109326D01*
X76489D01*
Y109312D01*
Y109297D01*
Y109282D01*
X76475D01*
Y109268D01*
Y109253D01*
Y109238D01*
X76460D01*
Y109224D01*
Y109209D01*
Y109194D01*
Y109180D01*
Y109165D01*
X76446D01*
Y109150D01*
Y109136D01*
Y109121D01*
Y109106D01*
Y109092D01*
Y109077D01*
Y109062D01*
Y109048D01*
Y109033D01*
Y109018D01*
X76431D01*
Y109004D01*
Y108989D01*
Y108974D01*
Y108960D01*
Y108945D01*
Y108930D01*
Y108916D01*
Y108901D01*
Y108886D01*
Y108872D01*
Y108857D01*
Y108843D01*
Y108828D01*
Y108813D01*
Y108799D01*
Y108784D01*
Y108769D01*
Y108755D01*
Y108740D01*
Y108725D01*
Y108711D01*
Y108696D01*
Y108681D01*
Y108667D01*
Y108652D01*
Y108637D01*
Y108623D01*
Y108608D01*
Y108593D01*
Y108579D01*
Y108564D01*
Y108549D01*
Y108535D01*
Y108520D01*
Y108505D01*
Y108491D01*
Y108476D01*
Y108461D01*
Y108447D01*
Y108432D01*
Y108417D01*
Y108403D01*
Y108388D01*
Y108373D01*
Y108359D01*
Y108344D01*
Y108329D01*
Y108315D01*
Y108300D01*
Y108285D01*
Y108271D01*
Y108256D01*
Y108241D01*
Y108227D01*
Y108212D01*
Y108197D01*
Y108183D01*
Y108168D01*
Y108153D01*
Y108139D01*
Y108124D01*
Y108109D01*
Y108095D01*
Y108080D01*
Y108065D01*
Y108051D01*
Y108036D01*
Y108021D01*
Y108007D01*
Y107992D01*
Y107977D01*
Y107963D01*
Y107948D01*
Y107933D01*
Y107919D01*
Y107904D01*
Y107889D01*
Y107875D01*
Y107860D01*
Y107845D01*
Y107831D01*
Y107816D01*
Y107801D01*
Y107787D01*
Y107772D01*
Y107757D01*
Y107743D01*
Y107728D01*
Y107714D01*
Y107699D01*
Y107684D01*
Y107670D01*
Y107655D01*
Y107640D01*
Y107626D01*
Y107611D01*
Y107596D01*
Y107582D01*
Y107567D01*
Y107552D01*
Y107538D01*
X75698D01*
Y107552D01*
Y107567D01*
Y107582D01*
Y107596D01*
Y107611D01*
Y107626D01*
Y107640D01*
Y107655D01*
Y107670D01*
Y107684D01*
Y107699D01*
Y107714D01*
Y107728D01*
Y107743D01*
Y107757D01*
Y107772D01*
Y107787D01*
Y107801D01*
Y107816D01*
Y107831D01*
Y107845D01*
Y107860D01*
Y107875D01*
Y107889D01*
Y107904D01*
Y107919D01*
Y107933D01*
Y107948D01*
Y107963D01*
Y107977D01*
Y107992D01*
Y108007D01*
Y108021D01*
Y108036D01*
Y108051D01*
Y108065D01*
Y108080D01*
Y108095D01*
Y108109D01*
Y108124D01*
Y108139D01*
Y108153D01*
Y108168D01*
Y108183D01*
Y108197D01*
Y108212D01*
Y108227D01*
Y108241D01*
Y108256D01*
Y108271D01*
Y108285D01*
Y108300D01*
Y108315D01*
Y108329D01*
Y108344D01*
Y108359D01*
Y108373D01*
Y108388D01*
Y108403D01*
Y108417D01*
Y108432D01*
Y108447D01*
Y108461D01*
Y108476D01*
Y108491D01*
Y108505D01*
Y108520D01*
Y108535D01*
Y108549D01*
Y108564D01*
Y108579D01*
Y108593D01*
Y108608D01*
Y108623D01*
Y108637D01*
Y108652D01*
Y108667D01*
Y108681D01*
Y108696D01*
Y108711D01*
Y108725D01*
Y108740D01*
Y108755D01*
Y108769D01*
Y108784D01*
Y108799D01*
Y108813D01*
Y108828D01*
Y108843D01*
Y108857D01*
Y108872D01*
Y108886D01*
Y108901D01*
Y108916D01*
Y108930D01*
Y108945D01*
Y108960D01*
Y108974D01*
Y108989D01*
Y109004D01*
Y109018D01*
Y109033D01*
Y109048D01*
Y109062D01*
Y109077D01*
Y109092D01*
Y109106D01*
Y109121D01*
Y109136D01*
Y109150D01*
Y109165D01*
Y109180D01*
Y109194D01*
Y109209D01*
Y109224D01*
Y109238D01*
Y109253D01*
Y109268D01*
Y109282D01*
Y109297D01*
Y109312D01*
Y109326D01*
Y109341D01*
Y109356D01*
Y109370D01*
Y109385D01*
Y109400D01*
Y109414D01*
Y109429D01*
Y109444D01*
Y109458D01*
Y109473D01*
Y109488D01*
Y109502D01*
Y109517D01*
Y109531D01*
Y109546D01*
Y109561D01*
Y109575D01*
Y109590D01*
Y109605D01*
Y109619D01*
Y109634D01*
Y109649D01*
Y109663D01*
Y109678D01*
Y109693D01*
Y109707D01*
Y109722D01*
Y109737D01*
Y109751D01*
Y109766D01*
Y109781D01*
Y109795D01*
Y109810D01*
Y109825D01*
Y109839D01*
Y109854D01*
Y109869D01*
Y109883D01*
Y109898D01*
Y109913D01*
Y109927D01*
Y109942D01*
Y109957D01*
Y109971D01*
Y109986D01*
Y110001D01*
Y110015D01*
Y110030D01*
Y110045D01*
Y110059D01*
Y110074D01*
X76386D01*
Y110059D01*
Y110045D01*
Y110030D01*
Y110015D01*
Y110001D01*
Y109986D01*
Y109971D01*
Y109957D01*
Y109942D01*
Y109927D01*
Y109913D01*
Y109898D01*
Y109883D01*
Y109869D01*
Y109854D01*
Y109839D01*
Y109825D01*
Y109810D01*
Y109795D01*
Y109781D01*
Y109766D01*
Y109751D01*
Y109737D01*
Y109722D01*
Y109707D01*
Y109693D01*
Y109678D01*
Y109663D01*
Y109649D01*
X76402D01*
Y109663D01*
Y109678D01*
X76417D01*
Y109693D01*
X76431D01*
Y109707D01*
Y109722D01*
X76446D01*
Y109737D01*
Y109751D01*
X76461D01*
Y109766D01*
X76475D01*
Y109781D01*
Y109795D01*
X76490D01*
Y109810D01*
X76505D01*
Y109825D01*
X76519D01*
Y109839D01*
Y109854D01*
X76534D01*
Y109869D01*
X76549D01*
Y109883D01*
X76563D01*
Y109898D01*
X76578D01*
Y109913D01*
X76593D01*
Y109927D01*
X76607D01*
Y109942D01*
X76622D01*
Y109957D01*
X76637D01*
Y109971D01*
X76651D01*
Y109986D01*
X76666D01*
Y110001D01*
X76681D01*
Y110015D01*
X76710D01*
Y110030D01*
X76725D01*
Y110045D01*
X76754D01*
Y110059D01*
X76783D01*
Y110074D01*
X76827D01*
Y110089D01*
X76871D01*
Y110103D01*
X76930D01*
Y110118D01*
X77062D01*
Y110133D01*
X77179D01*
Y110118D01*
D02*
G37*
G36*
X62078Y110133D02*
X62166D01*
Y110118D01*
X62225D01*
Y110103D01*
X62269D01*
Y110089D01*
X62312D01*
Y110074D01*
X62342D01*
Y110059D01*
X62371D01*
Y110045D01*
X62385D01*
Y110030D01*
X62415D01*
Y110015D01*
X62445D01*
Y110001D01*
X62459D01*
Y109986D01*
X62474D01*
Y109971D01*
X62488D01*
Y109957D01*
X62503D01*
Y109942D01*
X62533D01*
Y109927D01*
X62547D01*
Y109913D01*
X62546D01*
Y109898D01*
X62561D01*
Y109883D01*
X62576D01*
Y109869D01*
X62590D01*
Y109854D01*
X62606D01*
Y109839D01*
X62605D01*
Y109825D01*
X62621D01*
Y109810D01*
X62635D01*
Y109795D01*
X62634D01*
Y109781D01*
X62650D01*
Y109766D01*
X62649D01*
Y109751D01*
X62665D01*
Y109737D01*
X62664D01*
Y109722D01*
X62679D01*
Y109707D01*
X62678D01*
Y109693D01*
X62694D01*
Y109678D01*
Y109663D01*
X62693D01*
Y109649D01*
X62708D01*
Y109634D01*
X62708D01*
Y109619D01*
Y109605D01*
X62723D01*
Y109590D01*
X62722D01*
Y109575D01*
Y109561D01*
Y109546D01*
X62738D01*
Y109531D01*
Y109517D01*
Y109502D01*
Y109488D01*
Y109473D01*
Y109458D01*
X62752D01*
Y109444D01*
Y109429D01*
Y109414D01*
X62752D01*
Y109400D01*
Y109385D01*
Y109370D01*
Y109356D01*
Y109341D01*
Y109326D01*
X62766D01*
Y109312D01*
Y109297D01*
Y109282D01*
Y109268D01*
X62767D01*
Y109253D01*
Y109238D01*
Y109224D01*
Y109209D01*
Y109194D01*
Y109180D01*
Y109165D01*
Y109150D01*
Y109136D01*
Y109121D01*
Y109106D01*
Y109092D01*
Y109077D01*
Y109062D01*
Y109048D01*
Y109033D01*
Y109018D01*
Y109004D01*
Y108989D01*
Y108974D01*
Y108960D01*
Y108945D01*
Y108930D01*
Y108916D01*
Y108901D01*
Y108886D01*
Y108872D01*
Y108857D01*
Y108843D01*
Y108828D01*
Y108813D01*
Y108799D01*
Y108784D01*
Y108769D01*
Y108755D01*
Y108740D01*
Y108725D01*
Y108711D01*
Y108696D01*
Y108681D01*
Y108667D01*
Y108652D01*
Y108637D01*
Y108623D01*
Y108608D01*
Y108593D01*
Y108579D01*
Y108564D01*
Y108549D01*
Y108535D01*
Y108520D01*
Y108505D01*
Y108491D01*
Y108476D01*
Y108461D01*
Y108447D01*
Y108432D01*
Y108417D01*
Y108403D01*
Y108388D01*
Y108373D01*
Y108359D01*
Y108344D01*
Y108329D01*
Y108315D01*
Y108300D01*
Y108285D01*
Y108271D01*
Y108256D01*
Y108241D01*
Y108227D01*
Y108212D01*
Y108197D01*
Y108183D01*
Y108168D01*
Y108153D01*
Y108139D01*
Y108124D01*
Y108109D01*
Y108095D01*
Y108080D01*
Y108065D01*
Y108051D01*
Y108036D01*
Y108021D01*
Y108007D01*
Y107992D01*
Y107977D01*
Y107963D01*
Y107948D01*
Y107933D01*
Y107919D01*
Y107904D01*
Y107889D01*
Y107875D01*
Y107860D01*
Y107845D01*
Y107831D01*
Y107816D01*
Y107801D01*
Y107787D01*
Y107772D01*
Y107757D01*
Y107743D01*
Y107728D01*
Y107714D01*
Y107699D01*
Y107684D01*
Y107670D01*
Y107655D01*
Y107640D01*
Y107626D01*
Y107611D01*
Y107596D01*
Y107582D01*
Y107567D01*
Y107552D01*
Y107538D01*
X62474D01*
Y107552D01*
Y107567D01*
Y107582D01*
Y107596D01*
Y107611D01*
Y107626D01*
Y107640D01*
Y107655D01*
Y107670D01*
Y107684D01*
Y107699D01*
Y107714D01*
Y107728D01*
Y107743D01*
Y107757D01*
Y107772D01*
Y107787D01*
Y107801D01*
Y107816D01*
Y107831D01*
Y107845D01*
Y107860D01*
Y107875D01*
Y107889D01*
Y107904D01*
Y107919D01*
Y107933D01*
Y107948D01*
Y107963D01*
Y107977D01*
Y107992D01*
Y108007D01*
Y108021D01*
Y108036D01*
Y108051D01*
Y108065D01*
Y108080D01*
Y108095D01*
Y108109D01*
Y108124D01*
Y108139D01*
Y108153D01*
Y108168D01*
Y108183D01*
Y108197D01*
Y108212D01*
Y108227D01*
Y108241D01*
Y108256D01*
Y108271D01*
Y108285D01*
Y108300D01*
Y108315D01*
Y108329D01*
Y108344D01*
Y108359D01*
Y108373D01*
Y108388D01*
Y108403D01*
Y108417D01*
Y108432D01*
Y108447D01*
Y108461D01*
Y108476D01*
Y108491D01*
Y108505D01*
Y108520D01*
Y108535D01*
Y108549D01*
Y108564D01*
Y108579D01*
Y108593D01*
Y108608D01*
Y108623D01*
Y108637D01*
Y108652D01*
Y108667D01*
Y108681D01*
Y108696D01*
Y108711D01*
Y108725D01*
Y108740D01*
Y108755D01*
Y108769D01*
Y108784D01*
Y108799D01*
Y108813D01*
Y108828D01*
Y108843D01*
Y108857D01*
Y108872D01*
Y108886D01*
Y108901D01*
Y108916D01*
Y108930D01*
Y108945D01*
Y108960D01*
Y108974D01*
Y108989D01*
Y109004D01*
Y109018D01*
Y109033D01*
Y109048D01*
Y109062D01*
Y109077D01*
Y109092D01*
Y109106D01*
Y109121D01*
Y109136D01*
Y109150D01*
Y109165D01*
Y109180D01*
Y109194D01*
Y109209D01*
Y109224D01*
Y109238D01*
Y109253D01*
Y109268D01*
X62459D01*
Y109282D01*
Y109297D01*
Y109312D01*
Y109326D01*
Y109341D01*
Y109356D01*
Y109370D01*
Y109385D01*
Y109400D01*
Y109414D01*
X62445D01*
Y109429D01*
Y109444D01*
Y109458D01*
Y109473D01*
Y109488D01*
X62430D01*
Y109502D01*
Y109517D01*
Y109531D01*
Y109546D01*
X62415D01*
Y109561D01*
Y109575D01*
Y109590D01*
X62401D01*
Y109605D01*
Y109619D01*
Y109634D01*
X62386D01*
Y109649D01*
Y109663D01*
X62371D01*
Y109678D01*
Y109693D01*
X62357D01*
Y109707D01*
X62342D01*
Y109722D01*
Y109737D01*
X62327D01*
Y109751D01*
X62313D01*
Y109766D01*
X62298D01*
Y109781D01*
X62283D01*
Y109795D01*
X62269D01*
Y109810D01*
X62254D01*
Y109825D01*
X62225D01*
Y109839D01*
X62195D01*
Y109854D01*
X62166D01*
Y109869D01*
X62122D01*
Y109883D01*
X62063D01*
Y109898D01*
X61799D01*
Y109883D01*
X61725D01*
Y109869D01*
X61682D01*
Y109854D01*
X61652D01*
Y109839D01*
X61609D01*
Y109825D01*
X61580D01*
Y109810D01*
X61565D01*
Y109795D01*
X61535D01*
Y109781D01*
X61506D01*
Y109766D01*
X61491D01*
Y109751D01*
X61477D01*
Y109737D01*
X61462D01*
Y109722D01*
X61433D01*
Y109707D01*
X61418D01*
Y109693D01*
X61404D01*
Y109678D01*
X61388D01*
Y109663D01*
X61373D01*
Y109649D01*
Y109634D01*
X61359D01*
Y109619D01*
X61345D01*
Y109605D01*
X61330D01*
Y109590D01*
X61315D01*
Y109575D01*
Y109561D01*
X61301D01*
Y109546D01*
X61285D01*
Y109531D01*
Y109517D01*
X61272D01*
Y109502D01*
Y109488D01*
X61257D01*
Y109473D01*
Y109458D01*
X61241D01*
Y109444D01*
Y109429D01*
X61228D01*
Y109414D01*
Y109400D01*
X61212D01*
Y109385D01*
Y109370D01*
Y109356D01*
X61198D01*
Y109341D01*
Y109326D01*
X61184D01*
Y109312D01*
Y109297D01*
Y109282D01*
Y109268D01*
X61168D01*
Y109253D01*
Y109238D01*
Y109224D01*
Y109209D01*
X61154D01*
Y109194D01*
Y109180D01*
Y109165D01*
Y109150D01*
Y109136D01*
Y109121D01*
X61139D01*
Y109106D01*
Y109092D01*
Y109077D01*
Y109062D01*
Y109048D01*
Y109033D01*
Y109018D01*
Y109004D01*
Y108989D01*
Y108974D01*
Y108960D01*
Y108945D01*
Y108930D01*
Y108916D01*
Y108901D01*
Y108886D01*
Y108872D01*
Y108857D01*
Y108843D01*
Y108828D01*
Y108813D01*
Y108799D01*
Y108784D01*
Y108769D01*
Y108755D01*
Y108740D01*
Y108725D01*
Y108711D01*
Y108696D01*
Y108681D01*
Y108667D01*
Y108652D01*
Y108637D01*
Y108623D01*
Y108608D01*
Y108593D01*
Y108579D01*
Y108564D01*
Y108549D01*
Y108535D01*
Y108520D01*
Y108505D01*
Y108491D01*
Y108476D01*
Y108461D01*
Y108447D01*
Y108432D01*
Y108417D01*
Y108403D01*
Y108388D01*
Y108373D01*
Y108359D01*
Y108344D01*
Y108329D01*
Y108315D01*
Y108300D01*
Y108285D01*
Y108271D01*
Y108256D01*
Y108241D01*
Y108227D01*
Y108212D01*
Y108197D01*
Y108183D01*
Y108168D01*
Y108153D01*
Y108139D01*
Y108124D01*
Y108109D01*
Y108095D01*
Y108080D01*
Y108065D01*
Y108051D01*
Y108036D01*
Y108021D01*
Y108007D01*
Y107992D01*
Y107977D01*
Y107963D01*
Y107948D01*
Y107933D01*
Y107919D01*
Y107904D01*
Y107889D01*
Y107875D01*
Y107860D01*
Y107845D01*
Y107831D01*
Y107816D01*
Y107801D01*
Y107787D01*
Y107772D01*
Y107757D01*
Y107743D01*
Y107728D01*
Y107714D01*
Y107699D01*
Y107684D01*
Y107670D01*
Y107655D01*
Y107640D01*
Y107626D01*
Y107611D01*
Y107596D01*
Y107582D01*
Y107567D01*
Y107552D01*
Y107538D01*
X60832D01*
Y107552D01*
Y107567D01*
Y107582D01*
Y107596D01*
Y107611D01*
Y107626D01*
Y107640D01*
Y107655D01*
Y107670D01*
Y107684D01*
Y107699D01*
Y107714D01*
Y107728D01*
Y107743D01*
Y107757D01*
Y107772D01*
Y107787D01*
Y107801D01*
Y107816D01*
Y107831D01*
Y107845D01*
Y107860D01*
Y107875D01*
Y107889D01*
Y107904D01*
Y107919D01*
Y107933D01*
Y107948D01*
Y107963D01*
Y107977D01*
Y107992D01*
Y108007D01*
Y108021D01*
Y108036D01*
Y108051D01*
Y108065D01*
Y108080D01*
Y108095D01*
Y108109D01*
Y108124D01*
Y108139D01*
Y108153D01*
Y108168D01*
Y108183D01*
Y108197D01*
Y108212D01*
Y108227D01*
Y108241D01*
Y108256D01*
Y108271D01*
Y108285D01*
Y108300D01*
Y108315D01*
Y108329D01*
Y108344D01*
Y108359D01*
Y108373D01*
Y108388D01*
Y108403D01*
Y108417D01*
Y108432D01*
Y108447D01*
Y108461D01*
Y108476D01*
Y108491D01*
Y108505D01*
Y108520D01*
Y108535D01*
Y108549D01*
Y108564D01*
Y108579D01*
Y108593D01*
Y108608D01*
Y108623D01*
Y108637D01*
Y108652D01*
Y108667D01*
Y108681D01*
Y108696D01*
Y108711D01*
Y108725D01*
Y108740D01*
Y108755D01*
Y108769D01*
Y108784D01*
Y108799D01*
Y108813D01*
Y108828D01*
Y108843D01*
Y108857D01*
Y108872D01*
Y108886D01*
Y108901D01*
Y108916D01*
Y108930D01*
Y108945D01*
Y108960D01*
Y108974D01*
Y108989D01*
Y109004D01*
Y109018D01*
Y109033D01*
Y109048D01*
Y109062D01*
Y109077D01*
Y109092D01*
Y109106D01*
Y109121D01*
Y109136D01*
Y109150D01*
Y109165D01*
Y109180D01*
Y109194D01*
Y109209D01*
Y109224D01*
Y109238D01*
Y109253D01*
Y109268D01*
Y109282D01*
Y109297D01*
Y109312D01*
Y109326D01*
Y109341D01*
Y109356D01*
Y109370D01*
Y109385D01*
Y109400D01*
Y109414D01*
Y109429D01*
Y109444D01*
Y109458D01*
Y109473D01*
Y109488D01*
Y109502D01*
Y109517D01*
Y109531D01*
Y109546D01*
Y109561D01*
Y109575D01*
Y109590D01*
Y109605D01*
Y109619D01*
Y109634D01*
Y109649D01*
Y109663D01*
Y109678D01*
Y109693D01*
Y109707D01*
Y109722D01*
Y109737D01*
Y109751D01*
Y109766D01*
Y109781D01*
Y109795D01*
Y109810D01*
Y109825D01*
Y109839D01*
Y109854D01*
Y109869D01*
Y109883D01*
Y109898D01*
Y109913D01*
Y109927D01*
Y109942D01*
Y109957D01*
Y109971D01*
Y109986D01*
Y110001D01*
Y110015D01*
Y110030D01*
Y110045D01*
Y110059D01*
Y110074D01*
X61139D01*
Y110059D01*
Y110045D01*
Y110030D01*
Y110015D01*
Y110001D01*
Y109986D01*
Y109971D01*
Y109957D01*
Y109942D01*
Y109927D01*
Y109913D01*
Y109898D01*
Y109883D01*
Y109869D01*
Y109854D01*
Y109839D01*
Y109825D01*
Y109810D01*
Y109795D01*
Y109781D01*
Y109766D01*
Y109751D01*
Y109737D01*
Y109722D01*
Y109707D01*
Y109693D01*
Y109678D01*
Y109663D01*
Y109649D01*
Y109634D01*
Y109619D01*
Y109605D01*
X61154D01*
Y109619D01*
Y109634D01*
X61169D01*
Y109649D01*
Y109663D01*
X61184D01*
Y109678D01*
Y109693D01*
X61198D01*
Y109707D01*
X61213D01*
Y109722D01*
Y109737D01*
X61228D01*
Y109751D01*
X61242D01*
Y109766D01*
Y109781D01*
X61257D01*
Y109795D01*
X61272D01*
Y109810D01*
X61286D01*
Y109825D01*
Y109839D01*
X61301D01*
Y109854D01*
X61316D01*
Y109869D01*
X61330D01*
Y109883D01*
X61345D01*
Y109898D01*
X61360D01*
Y109913D01*
X61374D01*
Y109927D01*
X61389D01*
Y109942D01*
X61404D01*
Y109957D01*
X61418D01*
Y109971D01*
X61448D01*
Y109986D01*
X61462D01*
Y110001D01*
X61477D01*
Y110015D01*
X61506D01*
Y110030D01*
X61521D01*
Y110045D01*
X61550D01*
Y110059D01*
X61580D01*
Y110074D01*
X61624D01*
Y110089D01*
X61653D01*
Y110103D01*
X61697D01*
Y110118D01*
X61756D01*
Y110133D01*
X61844D01*
Y110147D01*
X62078D01*
Y110133D01*
D02*
G37*
G36*
X70097Y110118D02*
X70273D01*
Y110103D01*
X70362D01*
Y110089D01*
X70419D01*
Y110074D01*
X70464D01*
Y110059D01*
X70508D01*
Y110045D01*
X70537D01*
Y110030D01*
X70567D01*
Y110015D01*
X70596D01*
Y110001D01*
X70625D01*
Y109986D01*
X70655D01*
Y109971D01*
X70670D01*
Y109957D01*
X70698D01*
Y109942D01*
X70714D01*
Y109927D01*
X70727D01*
Y109913D01*
X70742D01*
Y109898D01*
X70772D01*
Y109883D01*
X70787D01*
Y109869D01*
X70801D01*
Y109854D01*
X70815D01*
Y109839D01*
Y109825D01*
X70830D01*
Y109810D01*
X70845D01*
Y109795D01*
X70859D01*
Y109781D01*
X70875D01*
Y109766D01*
Y109751D01*
X70889D01*
Y109737D01*
X70903D01*
Y109722D01*
X70904D01*
Y109707D01*
X70918D01*
Y109693D01*
X70932D01*
Y109678D01*
Y109663D01*
X70948D01*
Y109649D01*
Y109634D01*
X70962D01*
Y109619D01*
Y109605D01*
X70976D01*
Y109590D01*
X70977D01*
Y109575D01*
X70991D01*
Y109561D01*
Y109546D01*
X71006D01*
Y109531D01*
X71007D01*
Y109517D01*
X71020D01*
Y109502D01*
X71021D01*
Y109488D01*
X71035D01*
Y109473D01*
X71021D01*
Y109458D01*
X70962D01*
Y109444D01*
X70919D01*
Y109429D01*
X70860D01*
Y109414D01*
X70802D01*
Y109400D01*
X70758D01*
Y109385D01*
X70699D01*
Y109370D01*
X70639D01*
Y109356D01*
X70595D01*
Y109341D01*
X70538D01*
Y109326D01*
X70494D01*
Y109341D01*
Y109356D01*
X70479D01*
Y109370D01*
Y109385D01*
X70464D01*
Y109400D01*
Y109414D01*
Y109429D01*
X70450D01*
Y109444D01*
X70435D01*
Y109458D01*
Y109473D01*
X70420D01*
Y109488D01*
Y109502D01*
X70406D01*
Y109517D01*
X70391D01*
Y109531D01*
X70376D01*
Y109546D01*
X70362D01*
Y109561D01*
X70347D01*
Y109575D01*
X70318D01*
Y109590D01*
X70303D01*
Y109605D01*
X70274D01*
Y109619D01*
X70244D01*
Y109634D01*
X70200D01*
Y109649D01*
X70127D01*
Y109663D01*
X69878D01*
Y109649D01*
X69805D01*
Y109634D01*
X69761D01*
Y109619D01*
X69731D01*
Y109605D01*
X69717D01*
Y109590D01*
X69686D01*
Y109575D01*
X69672D01*
Y109561D01*
X69658D01*
Y109546D01*
X69642D01*
Y109531D01*
X69643D01*
Y109517D01*
X69628D01*
Y109502D01*
Y109488D01*
Y109473D01*
X69629D01*
Y109458D01*
X69614D01*
Y109444D01*
Y109429D01*
Y109414D01*
Y109400D01*
X69629D01*
Y109385D01*
Y109370D01*
Y109356D01*
Y109341D01*
X69642D01*
Y109326D01*
X69658D01*
Y109312D01*
X69672D01*
Y109297D01*
X69687D01*
Y109282D01*
X69702D01*
Y109268D01*
X69731D01*
Y109253D01*
X69775D01*
Y109238D01*
X69834D01*
Y109224D01*
X69907D01*
Y109209D01*
X69995D01*
Y109194D01*
X70098D01*
Y109180D01*
X70200D01*
Y109165D01*
X70288D01*
Y109150D01*
X70375D01*
Y109136D01*
X70450D01*
Y109121D01*
X70523D01*
Y109106D01*
X70581D01*
Y109092D01*
X70626D01*
Y109077D01*
X70669D01*
Y109062D01*
X70714D01*
Y109048D01*
X70742D01*
Y109033D01*
X70772D01*
Y109018D01*
X70801D01*
Y109004D01*
X70830D01*
Y108989D01*
X70845D01*
Y108974D01*
X70875D01*
Y108960D01*
X70889D01*
Y108945D01*
X70904D01*
Y108930D01*
X70919D01*
Y108916D01*
X70932D01*
Y108901D01*
X70948D01*
Y108886D01*
X70963D01*
Y108872D01*
X70976D01*
Y108857D01*
X70991D01*
Y108843D01*
X71007D01*
Y108828D01*
X71006D01*
Y108813D01*
X71021D01*
Y108799D01*
X71036D01*
Y108784D01*
Y108769D01*
X71051D01*
Y108755D01*
X71050D01*
Y108740D01*
X71064D01*
Y108725D01*
X71065D01*
Y108711D01*
X71080D01*
Y108696D01*
X71079D01*
Y108681D01*
X71095D01*
Y108667D01*
Y108652D01*
X71094D01*
Y108637D01*
X71109D01*
Y108623D01*
Y108608D01*
X71108D01*
Y108593D01*
X71124D01*
Y108579D01*
X71123D01*
Y108564D01*
X71124D01*
Y108549D01*
Y108535D01*
Y108520D01*
X71138D01*
Y108505D01*
Y108491D01*
Y108476D01*
X71139D01*
Y108461D01*
Y108447D01*
X71138D01*
Y108432D01*
X71139D01*
Y108417D01*
Y108403D01*
Y108388D01*
X71138D01*
Y108373D01*
X71139D01*
Y108359D01*
X71138D01*
Y108344D01*
X71139D01*
Y108329D01*
Y108315D01*
X71138D01*
Y108300D01*
Y108285D01*
Y108271D01*
Y108256D01*
Y108241D01*
Y108227D01*
Y108212D01*
X71124D01*
Y108197D01*
Y108183D01*
Y108168D01*
X71123D01*
Y108153D01*
X71109D01*
Y108139D01*
X71108D01*
Y108124D01*
X71109D01*
Y108109D01*
X71108D01*
Y108095D01*
X71095D01*
Y108080D01*
X71094D01*
Y108065D01*
X71079D01*
Y108051D01*
X71080D01*
Y108036D01*
Y108021D01*
X71064D01*
Y108007D01*
Y107992D01*
X71051D01*
Y107977D01*
Y107963D01*
X71035D01*
Y107948D01*
X71020D01*
Y107933D01*
X71021D01*
Y107919D01*
X71007D01*
Y107904D01*
X70992D01*
Y107889D01*
X70991D01*
Y107875D01*
X70977D01*
Y107860D01*
X70963D01*
Y107845D01*
X70948D01*
Y107831D01*
X70932D01*
Y107816D01*
X70918D01*
Y107801D01*
X70904D01*
Y107787D01*
X70889D01*
Y107772D01*
X70875D01*
Y107757D01*
X70859D01*
Y107743D01*
X70845D01*
Y107728D01*
X70831D01*
Y107714D01*
X70802D01*
Y107699D01*
X70786D01*
Y107684D01*
X70758D01*
Y107670D01*
X70743D01*
Y107655D01*
X70713D01*
Y107640D01*
X70684D01*
Y107626D01*
X70655D01*
Y107611D01*
X70611D01*
Y107596D01*
X70581D01*
Y107582D01*
X70538D01*
Y107567D01*
X70493D01*
Y107552D01*
X70449D01*
Y107538D01*
X70375D01*
Y107523D01*
X70302D01*
Y107508D01*
X70185D01*
Y107494D01*
X69805D01*
Y107508D01*
X69687D01*
Y107523D01*
X69614D01*
Y107538D01*
X69555D01*
Y107552D01*
X69497D01*
Y107567D01*
X69467D01*
Y107582D01*
X69423D01*
Y107596D01*
X69394D01*
Y107611D01*
X69365D01*
Y107626D01*
X69335D01*
Y107640D01*
X69306D01*
Y107655D01*
X69277D01*
Y107670D01*
X69262D01*
Y107684D01*
X69233D01*
Y107699D01*
X69218D01*
Y107714D01*
X69189D01*
Y107728D01*
X69174D01*
Y107743D01*
X69159D01*
Y107757D01*
X69145D01*
Y107772D01*
X69130D01*
Y107787D01*
X69115D01*
Y107801D01*
X69101D01*
Y107816D01*
X69086D01*
Y107831D01*
X69072D01*
Y107845D01*
X69057D01*
Y107860D01*
X69042D01*
Y107875D01*
X69028D01*
Y107889D01*
X69013D01*
Y107904D01*
X68998D01*
Y107919D01*
Y107933D01*
X68984D01*
Y107948D01*
X68969D01*
Y107963D01*
Y107977D01*
X68954D01*
Y107992D01*
Y108007D01*
X68940D01*
Y108021D01*
Y108036D01*
X68925D01*
Y108051D01*
Y108065D01*
X68910D01*
Y108080D01*
Y108095D01*
X68896D01*
Y108109D01*
Y108124D01*
Y108139D01*
X68881D01*
Y108153D01*
Y108168D01*
Y108183D01*
Y108197D01*
X68866D01*
Y108212D01*
Y108227D01*
Y108241D01*
X68940D01*
Y108256D01*
X69057D01*
Y108271D01*
X69159D01*
Y108285D01*
X69262D01*
Y108300D01*
X69365D01*
Y108315D01*
X69496D01*
Y108300D01*
Y108285D01*
X69497D01*
Y108271D01*
X69510D01*
Y108256D01*
Y108241D01*
X69526D01*
Y108227D01*
Y108212D01*
X69540D01*
Y108197D01*
X69541D01*
Y108183D01*
X69555D01*
Y108168D01*
X69569D01*
Y108153D01*
X69585D01*
Y108139D01*
X69598D01*
Y108124D01*
X69614D01*
Y108109D01*
X69629D01*
Y108095D01*
X69643D01*
Y108080D01*
X69657D01*
Y108065D01*
X69687D01*
Y108051D01*
X69716D01*
Y108036D01*
X69760D01*
Y108021D01*
X69804D01*
Y108007D01*
X69862D01*
Y107992D01*
X70024D01*
Y107977D01*
X70068D01*
Y107992D01*
X70215D01*
Y108007D01*
X70274D01*
Y108021D01*
X70318D01*
Y108036D01*
X70347D01*
Y108051D01*
X70376D01*
Y108065D01*
X70406D01*
Y108080D01*
X70420D01*
Y108095D01*
X70435D01*
Y108109D01*
X70450D01*
Y108124D01*
X70464D01*
Y108139D01*
X70479D01*
Y108153D01*
Y108168D01*
X70494D01*
Y108183D01*
Y108197D01*
Y108212D01*
Y108227D01*
Y108241D01*
Y108256D01*
Y108271D01*
Y108285D01*
Y108300D01*
Y108315D01*
X70479D01*
Y108329D01*
Y108344D01*
X70464D01*
Y108359D01*
X70450D01*
Y108373D01*
X70435D01*
Y108388D01*
X70406D01*
Y108403D01*
X70376D01*
Y108417D01*
X70332D01*
Y108432D01*
X70274D01*
Y108447D01*
X70186D01*
Y108461D01*
X70083D01*
Y108476D01*
X69995D01*
Y108491D01*
X69907D01*
Y108505D01*
X69834D01*
Y108520D01*
X69761D01*
Y108535D01*
X69687D01*
Y108549D01*
X69629D01*
Y108564D01*
X69570D01*
Y108579D01*
X69511D01*
Y108593D01*
X69467D01*
Y108608D01*
X69423D01*
Y108623D01*
X69379D01*
Y108637D01*
X69350D01*
Y108652D01*
X69321D01*
Y108667D01*
X69291D01*
Y108681D01*
X69277D01*
Y108696D01*
X69247D01*
Y108711D01*
X69233D01*
Y108725D01*
X69218D01*
Y108740D01*
X69203D01*
Y108755D01*
X69174D01*
Y108769D01*
X69159D01*
Y108784D01*
Y108799D01*
X69145D01*
Y108813D01*
X69130D01*
Y108828D01*
X69115D01*
Y108843D01*
X69101D01*
Y108857D01*
X69086D01*
Y108872D01*
Y108886D01*
X69072D01*
Y108901D01*
X69057D01*
Y108916D01*
Y108930D01*
X69042D01*
Y108945D01*
Y108960D01*
X69028D01*
Y108974D01*
Y108989D01*
X69013D01*
Y109004D01*
Y109018D01*
Y109033D01*
X68998D01*
Y109048D01*
Y109062D01*
Y109077D01*
X68984D01*
Y109092D01*
Y109106D01*
Y109121D01*
Y109136D01*
X68969D01*
Y109150D01*
Y109165D01*
Y109180D01*
Y109194D01*
Y109209D01*
Y109224D01*
X68954D01*
Y109238D01*
Y109253D01*
Y109268D01*
Y109282D01*
Y109297D01*
Y109312D01*
Y109326D01*
Y109341D01*
Y109356D01*
Y109370D01*
X68969D01*
Y109385D01*
Y109400D01*
Y109414D01*
Y109429D01*
Y109444D01*
Y109458D01*
Y109473D01*
X68984D01*
Y109488D01*
Y109502D01*
Y109517D01*
Y109531D01*
X68998D01*
Y109546D01*
Y109561D01*
Y109575D01*
X69013D01*
Y109590D01*
Y109605D01*
X69028D01*
Y109619D01*
Y109634D01*
X69042D01*
Y109649D01*
Y109663D01*
X69057D01*
Y109678D01*
Y109693D01*
X69072D01*
Y109707D01*
Y109722D01*
X69086D01*
Y109737D01*
X69101D01*
Y109751D01*
X69115D01*
Y109766D01*
Y109781D01*
X69130D01*
Y109795D01*
X69145D01*
Y109810D01*
X69159D01*
Y109825D01*
X69174D01*
Y109839D01*
X69189D01*
Y109854D01*
X69203D01*
Y109869D01*
X69218D01*
Y109883D01*
X69233D01*
Y109898D01*
X69262D01*
Y109913D01*
X69277D01*
Y109927D01*
X69291D01*
Y109942D01*
X69321D01*
Y109957D01*
X69350D01*
Y109971D01*
X69365D01*
Y109986D01*
X69394D01*
Y110001D01*
X69423D01*
Y110015D01*
X69467D01*
Y110030D01*
X69497D01*
Y110045D01*
X69541D01*
Y110059D01*
X69585D01*
Y110074D01*
X69643D01*
Y110089D01*
X69702D01*
Y110103D01*
X69790D01*
Y110118D01*
X69966D01*
Y110133D01*
X70097D01*
Y110118D01*
D02*
G37*
G36*
X67443Y110059D02*
Y110045D01*
X67428D01*
Y110030D01*
Y110015D01*
Y110001D01*
X67415D01*
Y109986D01*
Y109971D01*
Y109957D01*
X67400D01*
Y109942D01*
Y109927D01*
Y109913D01*
X67384D01*
Y109898D01*
X67385D01*
Y109883D01*
Y109869D01*
X67370D01*
Y109854D01*
Y109839D01*
Y109825D01*
X67356D01*
Y109810D01*
X67355D01*
Y109795D01*
Y109781D01*
X67340D01*
Y109766D01*
X67341D01*
Y109751D01*
Y109737D01*
X67326D01*
Y109722D01*
X67327D01*
Y109707D01*
Y109693D01*
X67311D01*
Y109678D01*
Y109663D01*
X67312D01*
Y109649D01*
X67296D01*
Y109634D01*
Y109619D01*
Y109605D01*
X67283D01*
Y109590D01*
Y109575D01*
X67282D01*
Y109561D01*
X67267D01*
Y109546D01*
Y109531D01*
X67252D01*
Y109517D01*
Y109502D01*
Y109488D01*
X67238D01*
Y109473D01*
Y109458D01*
Y109444D01*
X67224D01*
Y109429D01*
X67223D01*
Y109414D01*
Y109400D01*
X67210D01*
Y109385D01*
Y109370D01*
Y109356D01*
X67195D01*
Y109341D01*
X67194D01*
Y109326D01*
Y109312D01*
X67180D01*
Y109297D01*
X67179D01*
Y109282D01*
Y109268D01*
X67165D01*
Y109253D01*
Y109238D01*
X67164D01*
Y109224D01*
X67151D01*
Y109209D01*
Y109194D01*
X67150D01*
Y109180D01*
X67136D01*
Y109165D01*
Y109150D01*
Y109136D01*
X67121D01*
Y109121D01*
Y109106D01*
X67120D01*
Y109092D01*
X67107D01*
Y109077D01*
Y109062D01*
X67106D01*
Y109048D01*
X67092D01*
Y109033D01*
Y109018D01*
X67076D01*
Y109004D01*
X67077D01*
Y108989D01*
Y108974D01*
X67062D01*
Y108960D01*
X67063D01*
Y108945D01*
Y108930D01*
X67048D01*
Y108916D01*
Y108901D01*
Y108886D01*
X67033D01*
Y108872D01*
X67034D01*
Y108857D01*
Y108843D01*
X67018D01*
Y108828D01*
Y108813D01*
X67019D01*
Y108799D01*
X67003D01*
Y108784D01*
Y108769D01*
X67004D01*
Y108755D01*
X66989D01*
Y108740D01*
Y108725D01*
X66990D01*
Y108711D01*
X66975D01*
Y108696D01*
Y108681D01*
Y108667D01*
X66959D01*
Y108652D01*
Y108637D01*
X66960D01*
Y108623D01*
X66945D01*
Y108608D01*
Y108593D01*
Y108579D01*
X66930D01*
Y108564D01*
Y108549D01*
Y108535D01*
X66915D01*
Y108520D01*
Y108505D01*
X66901D01*
Y108491D01*
X66902D01*
Y108476D01*
X66901D01*
Y108461D01*
X66886D01*
Y108447D01*
Y108432D01*
Y108417D01*
X66871D01*
Y108403D01*
Y108388D01*
Y108373D01*
X66857D01*
Y108359D01*
Y108344D01*
Y108329D01*
X66843D01*
Y108315D01*
Y108300D01*
X66842D01*
Y108285D01*
X66827D01*
Y108271D01*
Y108256D01*
X66828D01*
Y108241D01*
X66813D01*
Y108227D01*
Y108212D01*
X66814D01*
Y108197D01*
X66798D01*
Y108183D01*
Y108168D01*
X66799D01*
Y108153D01*
X66783D01*
Y108139D01*
Y108124D01*
Y108109D01*
X66770D01*
Y108095D01*
Y108080D01*
X66769D01*
Y108065D01*
X66754D01*
Y108051D01*
Y108036D01*
X66755D01*
Y108021D01*
X66739D01*
Y108007D01*
Y107992D01*
X66725D01*
Y107977D01*
Y107963D01*
Y107948D01*
X66710D01*
Y107933D01*
Y107919D01*
Y107904D01*
X66696D01*
Y107889D01*
Y107875D01*
Y107860D01*
X66681D01*
Y107845D01*
Y107831D01*
Y107816D01*
X66666D01*
Y107801D01*
Y107787D01*
Y107772D01*
X66651D01*
Y107757D01*
Y107743D01*
X66652D01*
Y107728D01*
X66637D01*
Y107714D01*
Y107699D01*
Y107684D01*
X66623D01*
Y107670D01*
Y107655D01*
X66622D01*
Y107640D01*
X66607D01*
Y107626D01*
Y107611D01*
X66608D01*
Y107596D01*
X66593D01*
Y107582D01*
Y107567D01*
X66594D01*
Y107552D01*
X66578D01*
Y107538D01*
X66007D01*
Y107552D01*
Y107567D01*
X65993D01*
Y107582D01*
Y107596D01*
Y107611D01*
X65978D01*
Y107626D01*
Y107640D01*
Y107655D01*
X65963D01*
Y107670D01*
Y107684D01*
Y107699D01*
X65949D01*
Y107714D01*
Y107728D01*
Y107743D01*
X65934D01*
Y107757D01*
Y107772D01*
X65919D01*
Y107787D01*
Y107801D01*
Y107816D01*
X65905D01*
Y107831D01*
Y107845D01*
Y107860D01*
X65890D01*
Y107875D01*
Y107889D01*
Y107904D01*
X65875D01*
Y107919D01*
Y107933D01*
Y107948D01*
X65861D01*
Y107963D01*
Y107977D01*
Y107992D01*
X65846D01*
Y108007D01*
Y108021D01*
Y108036D01*
X65831D01*
Y108051D01*
Y108065D01*
Y108080D01*
X65817D01*
Y108095D01*
Y108109D01*
Y108124D01*
X65802D01*
Y108139D01*
Y108153D01*
Y108168D01*
X65787D01*
Y108183D01*
Y108197D01*
Y108212D01*
X65773D01*
Y108227D01*
Y108241D01*
Y108256D01*
X65758D01*
Y108271D01*
Y108285D01*
Y108300D01*
X65743D01*
Y108315D01*
Y108329D01*
X65729D01*
Y108344D01*
Y108359D01*
Y108373D01*
X65714D01*
Y108388D01*
Y108403D01*
Y108417D01*
X65699D01*
Y108432D01*
Y108447D01*
Y108461D01*
X65685D01*
Y108476D01*
Y108491D01*
Y108505D01*
X65670D01*
Y108520D01*
Y108535D01*
Y108549D01*
X65655D01*
Y108564D01*
Y108579D01*
Y108593D01*
X65641D01*
Y108608D01*
Y108623D01*
Y108637D01*
X65626D01*
Y108652D01*
Y108667D01*
Y108681D01*
X65611D01*
Y108696D01*
Y108711D01*
Y108725D01*
X65597D01*
Y108740D01*
Y108755D01*
Y108769D01*
X65582D01*
Y108784D01*
Y108799D01*
Y108813D01*
X65567D01*
Y108828D01*
Y108843D01*
X65553D01*
Y108857D01*
Y108872D01*
Y108886D01*
X65538D01*
Y108901D01*
Y108916D01*
Y108930D01*
X65523D01*
Y108945D01*
Y108960D01*
Y108974D01*
X65509D01*
Y108989D01*
Y109004D01*
Y109018D01*
X65494D01*
Y109033D01*
Y109048D01*
Y109062D01*
X65479D01*
Y109077D01*
Y109092D01*
Y109106D01*
X65465D01*
Y109121D01*
Y109136D01*
Y109150D01*
X65450D01*
Y109165D01*
Y109180D01*
Y109194D01*
X65435D01*
Y109209D01*
Y109224D01*
Y109238D01*
X65421D01*
Y109253D01*
Y109268D01*
Y109282D01*
X65406D01*
Y109297D01*
Y109312D01*
Y109326D01*
X65391D01*
Y109341D01*
Y109356D01*
X65377D01*
Y109370D01*
Y109385D01*
Y109400D01*
X65362D01*
Y109414D01*
Y109429D01*
Y109444D01*
X65347D01*
Y109458D01*
Y109473D01*
Y109488D01*
X65333D01*
Y109502D01*
Y109517D01*
Y109531D01*
X65318D01*
Y109546D01*
Y109561D01*
Y109575D01*
X65303D01*
Y109590D01*
Y109605D01*
Y109619D01*
X65289D01*
Y109634D01*
Y109649D01*
Y109663D01*
X65274D01*
Y109678D01*
Y109693D01*
Y109707D01*
X65260D01*
Y109722D01*
Y109737D01*
Y109751D01*
X65245D01*
Y109766D01*
Y109781D01*
Y109795D01*
X65230D01*
Y109810D01*
Y109825D01*
Y109839D01*
X65216D01*
Y109854D01*
Y109869D01*
X65201D01*
Y109883D01*
Y109898D01*
Y109913D01*
X65186D01*
Y109927D01*
Y109942D01*
Y109957D01*
X65172D01*
Y109971D01*
Y109986D01*
Y110001D01*
X65157D01*
Y110015D01*
Y110030D01*
Y110045D01*
X65142D01*
Y110059D01*
Y110074D01*
X65904D01*
Y110059D01*
X65919D01*
Y110045D01*
Y110030D01*
Y110015D01*
X65933D01*
Y110001D01*
X65934D01*
Y109986D01*
Y109971D01*
Y109957D01*
X65949D01*
Y109942D01*
Y109927D01*
Y109913D01*
X65962D01*
Y109898D01*
Y109883D01*
Y109869D01*
X65977D01*
Y109854D01*
Y109839D01*
Y109825D01*
X65993D01*
Y109810D01*
Y109795D01*
X65992D01*
Y109781D01*
Y109766D01*
X66007D01*
Y109751D01*
X66006D01*
Y109737D01*
Y109722D01*
X66022D01*
Y109707D01*
X66021D01*
Y109693D01*
Y109678D01*
X66036D01*
Y109663D01*
X66037D01*
Y109649D01*
Y109634D01*
Y109619D01*
X66050D01*
Y109605D01*
Y109590D01*
Y109575D01*
X66065D01*
Y109561D01*
Y109546D01*
Y109531D01*
X66080D01*
Y109517D01*
Y109502D01*
Y109488D01*
X66094D01*
Y109473D01*
Y109458D01*
Y109444D01*
X66095D01*
Y109429D01*
X66110D01*
Y109414D01*
Y109400D01*
Y109385D01*
X66124D01*
Y109370D01*
Y109356D01*
X66125D01*
Y109341D01*
X66138D01*
Y109326D01*
X66139D01*
Y109312D01*
Y109297D01*
Y109282D01*
X66154D01*
Y109268D01*
Y109253D01*
Y109238D01*
X66168D01*
Y109224D01*
Y109209D01*
Y109194D01*
X66183D01*
Y109180D01*
Y109165D01*
Y109150D01*
X66198D01*
Y109136D01*
Y109121D01*
Y109106D01*
X66197D01*
Y109092D01*
X66212D01*
Y109077D01*
Y109062D01*
X66211D01*
Y109048D01*
X66227D01*
Y109033D01*
Y109018D01*
X66226D01*
Y109004D01*
X66242D01*
Y108989D01*
Y108974D01*
Y108960D01*
X66256D01*
Y108945D01*
Y108930D01*
X66255D01*
Y108916D01*
Y108901D01*
X66271D01*
Y108886D01*
X66270D01*
Y108872D01*
Y108857D01*
X66286D01*
Y108843D01*
X66285D01*
Y108828D01*
Y108813D01*
X66299D01*
Y108799D01*
Y108784D01*
Y108769D01*
Y108755D01*
X66315D01*
Y108740D01*
Y108725D01*
X66314D01*
Y108711D01*
X66329D01*
Y108696D01*
Y108681D01*
X66330D01*
Y108667D01*
X66343D01*
Y108652D01*
Y108637D01*
X66344D01*
Y108623D01*
X66358D01*
Y108608D01*
Y108593D01*
X66359D01*
Y108579D01*
Y108564D01*
X66373D01*
Y108549D01*
Y108535D01*
Y108520D01*
X66388D01*
Y108505D01*
X66387D01*
Y108491D01*
Y108476D01*
X66403D01*
Y108491D01*
X66418D01*
Y108505D01*
Y108520D01*
Y108535D01*
X66432D01*
Y108549D01*
Y108564D01*
Y108579D01*
X66447D01*
Y108593D01*
Y108608D01*
Y108623D01*
Y108637D01*
X66462D01*
Y108652D01*
Y108667D01*
Y108681D01*
X66476D01*
Y108696D01*
Y108711D01*
Y108725D01*
X66491D01*
Y108740D01*
Y108755D01*
Y108769D01*
X66506D01*
Y108784D01*
Y108799D01*
Y108813D01*
X66520D01*
Y108828D01*
Y108843D01*
Y108857D01*
Y108872D01*
X66535D01*
Y108886D01*
Y108901D01*
Y108916D01*
X66550D01*
Y108930D01*
Y108945D01*
Y108960D01*
X66564D01*
Y108974D01*
Y108989D01*
Y109004D01*
X66579D01*
Y109018D01*
Y109033D01*
Y109048D01*
Y109062D01*
X66594D01*
Y109077D01*
Y109092D01*
Y109106D01*
X66608D01*
Y109121D01*
Y109136D01*
Y109150D01*
X66623D01*
Y109165D01*
Y109180D01*
Y109194D01*
X66638D01*
Y109209D01*
Y109224D01*
Y109238D01*
X66652D01*
Y109253D01*
Y109268D01*
Y109282D01*
Y109297D01*
X66667D01*
Y109312D01*
Y109326D01*
Y109341D01*
X66682D01*
Y109356D01*
Y109370D01*
Y109385D01*
X66696D01*
Y109400D01*
Y109414D01*
Y109429D01*
X66711D01*
Y109444D01*
Y109458D01*
Y109473D01*
Y109488D01*
X66726D01*
Y109502D01*
Y109517D01*
Y109531D01*
X66740D01*
Y109546D01*
Y109561D01*
Y109575D01*
X66755D01*
Y109590D01*
Y109605D01*
Y109619D01*
X66770D01*
Y109634D01*
Y109649D01*
Y109663D01*
X66784D01*
Y109678D01*
Y109693D01*
Y109707D01*
Y109722D01*
X66799D01*
Y109737D01*
Y109751D01*
Y109766D01*
X66814D01*
Y109781D01*
Y109795D01*
Y109810D01*
X66828D01*
Y109825D01*
Y109839D01*
Y109854D01*
X66843D01*
Y109869D01*
Y109883D01*
Y109898D01*
X66858D01*
Y109913D01*
Y109927D01*
Y109942D01*
Y109957D01*
X66872D01*
Y109971D01*
Y109986D01*
Y110001D01*
X66887D01*
Y110015D01*
Y110030D01*
Y110045D01*
X66902D01*
Y110059D01*
Y110074D01*
X67443D01*
Y110059D01*
D02*
G37*
G36*
X65127D02*
Y110045D01*
Y110030D01*
X65113D01*
Y110015D01*
X65112D01*
Y110001D01*
Y109986D01*
X65098D01*
Y109971D01*
X65097D01*
Y109957D01*
Y109942D01*
X65084D01*
Y109927D01*
X65083D01*
Y109913D01*
X65068D01*
Y109898D01*
X65069D01*
Y109883D01*
Y109869D01*
X65053D01*
Y109854D01*
Y109839D01*
Y109825D01*
X65040D01*
Y109810D01*
X65039D01*
Y109795D01*
X65025D01*
Y109781D01*
X65024D01*
Y109766D01*
Y109751D01*
X65010D01*
Y109737D01*
X65009D01*
Y109722D01*
Y109707D01*
X64995D01*
Y109693D01*
X64996D01*
Y109678D01*
Y109663D01*
X64980D01*
Y109649D01*
Y109634D01*
X64966D01*
Y109619D01*
X64965D01*
Y109605D01*
Y109590D01*
X64952D01*
Y109575D01*
X64951D01*
Y109561D01*
Y109546D01*
X64937D01*
Y109531D01*
X64936D01*
Y109517D01*
X64921D01*
Y109502D01*
Y109488D01*
X64922D01*
Y109473D01*
X64907D01*
Y109458D01*
Y109444D01*
Y109429D01*
X64893D01*
Y109414D01*
X64892D01*
Y109400D01*
Y109385D01*
X64878D01*
Y109370D01*
X64877D01*
Y109356D01*
X64864D01*
Y109341D01*
Y109326D01*
X64863D01*
Y109312D01*
X64848D01*
Y109297D01*
X64849D01*
Y109282D01*
Y109268D01*
X64833D01*
Y109253D01*
Y109238D01*
X64820D01*
Y109224D01*
Y109209D01*
X64819D01*
Y109194D01*
X64805D01*
Y109180D01*
X64804D01*
Y109165D01*
Y109150D01*
X64790D01*
Y109136D01*
X64789D01*
Y109121D01*
Y109106D01*
X64775D01*
Y109092D01*
X64776D01*
Y109077D01*
X64760D01*
Y109062D01*
Y109048D01*
Y109033D01*
X64746D01*
Y109018D01*
X64745D01*
Y109004D01*
Y108989D01*
X64732D01*
Y108974D01*
X64731D01*
Y108960D01*
X64717D01*
Y108945D01*
Y108930D01*
X64716D01*
Y108916D01*
X64701D01*
Y108901D01*
Y108886D01*
X64702D01*
Y108872D01*
X64687D01*
Y108857D01*
Y108843D01*
Y108828D01*
X64673D01*
Y108813D01*
X64672D01*
Y108799D01*
X64658D01*
Y108784D01*
Y108769D01*
X64657D01*
Y108755D01*
X64644D01*
Y108740D01*
X64643D01*
Y108725D01*
Y108711D01*
X64628D01*
Y108696D01*
X64629D01*
Y108681D01*
X64613D01*
Y108667D01*
Y108652D01*
Y108637D01*
X64600D01*
Y108623D01*
Y108608D01*
X64599D01*
Y108593D01*
X64585D01*
Y108579D01*
X64584D01*
Y108564D01*
Y108549D01*
X64570D01*
Y108535D01*
X64569D01*
Y108520D01*
X64555D01*
Y108505D01*
Y108491D01*
X64556D01*
Y108476D01*
X64540D01*
Y108461D01*
Y108447D01*
Y108432D01*
X64526D01*
Y108417D01*
X64526D01*
Y108403D01*
X64512D01*
Y108388D01*
Y108373D01*
X64511D01*
Y108359D01*
X64497D01*
Y108344D01*
Y108329D01*
X64496D01*
Y108315D01*
X64482D01*
Y108300D01*
X64482D01*
Y108285D01*
Y108271D01*
X64467D01*
Y108256D01*
Y108241D01*
X64453D01*
Y108227D01*
Y108212D01*
X64452D01*
Y108197D01*
X64438D01*
Y108183D01*
Y108168D01*
X64438D01*
Y108153D01*
X64424D01*
Y108139D01*
X64423D01*
Y108124D01*
X64408D01*
Y108109D01*
Y108095D01*
X64409D01*
Y108080D01*
X64394D01*
Y108065D01*
Y108051D01*
Y108036D01*
X64380D01*
Y108021D01*
Y108007D01*
X64379D01*
Y107992D01*
X64365D01*
Y107977D01*
Y107963D01*
X64350D01*
Y107948D01*
Y107933D01*
Y107919D01*
X64336D01*
Y107904D01*
Y107889D01*
X64335D01*
Y107875D01*
X64321D01*
Y107860D01*
Y107845D01*
X64307D01*
Y107831D01*
Y107816D01*
Y107801D01*
X64292D01*
Y107787D01*
Y107772D01*
Y107757D01*
X64277D01*
Y107743D01*
Y107728D01*
Y107714D01*
X64263D01*
Y107699D01*
Y107684D01*
X64247D01*
Y107670D01*
X64248D01*
Y107655D01*
Y107640D01*
X64232D01*
Y107626D01*
X64233D01*
Y107611D01*
Y107596D01*
X64218D01*
Y107582D01*
Y107567D01*
Y107552D01*
X64204D01*
Y107538D01*
X64203D01*
Y107523D01*
X64188D01*
Y107508D01*
Y107494D01*
X64189D01*
Y107479D01*
X64174D01*
Y107464D01*
Y107450D01*
Y107435D01*
X64160D01*
Y107420D01*
X64159D01*
Y107406D01*
X64145D01*
Y107391D01*
Y107376D01*
X64144D01*
Y107362D01*
X64131D01*
Y107347D01*
X64130D01*
Y107332D01*
Y107318D01*
X64115D01*
Y107303D01*
X64116D01*
Y107288D01*
Y107274D01*
X64100D01*
Y107259D01*
Y107244D01*
X64086D01*
Y107230D01*
Y107215D01*
X64087D01*
Y107200D01*
X64071D01*
Y107186D01*
X64072D01*
Y107171D01*
X64056D01*
Y107156D01*
X64057D01*
Y107142D01*
X64043D01*
Y107127D01*
Y107112D01*
X64042D01*
Y107098D01*
X64028D01*
Y107083D01*
X64027D01*
Y107069D01*
X64012D01*
Y107054D01*
X64013D01*
Y107039D01*
X63998D01*
Y107025D01*
X63984D01*
Y107010D01*
X63983D01*
Y106995D01*
X63968D01*
Y106981D01*
X63969D01*
Y106966D01*
X63954D01*
Y106951D01*
X63940D01*
Y106937D01*
Y106922D01*
X63925D01*
Y106907D01*
X63911D01*
Y106893D01*
X63896D01*
Y106878D01*
X63880D01*
Y106863D01*
Y106849D01*
X63867D01*
Y106834D01*
X63851D01*
Y106819D01*
X63837D01*
Y106805D01*
X63823D01*
Y106790D01*
X63793D01*
Y106775D01*
X63778D01*
Y106761D01*
X63764D01*
Y106746D01*
X63734D01*
Y106731D01*
X63705D01*
Y106717D01*
X63676D01*
Y106702D01*
X63647D01*
Y106687D01*
X63603D01*
Y106673D01*
X63559D01*
Y106658D01*
X63471D01*
Y106643D01*
X63236D01*
Y106658D01*
X63148D01*
Y106673D01*
X63090D01*
Y106687D01*
X63060D01*
Y106702D01*
Y106717D01*
Y106731D01*
Y106746D01*
Y106761D01*
Y106775D01*
Y106790D01*
Y106805D01*
Y106819D01*
Y106834D01*
Y106849D01*
Y106863D01*
Y106878D01*
Y106893D01*
Y106907D01*
Y106922D01*
Y106937D01*
X63074D01*
Y106922D01*
X63134D01*
Y106907D01*
X63207D01*
Y106893D01*
X63471D01*
Y106907D01*
X63515D01*
Y106922D01*
X63544D01*
Y106937D01*
X63573D01*
Y106951D01*
X63603D01*
Y106966D01*
X63617D01*
Y106981D01*
X63632D01*
Y106995D01*
X63661D01*
Y107010D01*
X63676D01*
Y107025D01*
X63691D01*
Y107039D01*
Y107054D01*
X63705D01*
Y107069D01*
X63720D01*
Y107083D01*
X63735D01*
Y107098D01*
Y107112D01*
X63749D01*
Y107127D01*
X63764D01*
Y107142D01*
Y107156D01*
X63779D01*
Y107171D01*
Y107186D01*
X63793D01*
Y107200D01*
Y107215D01*
X63808D01*
Y107230D01*
Y107244D01*
X63823D01*
Y107259D01*
Y107274D01*
X63837D01*
Y107288D01*
Y107303D01*
X63852D01*
Y107318D01*
Y107332D01*
Y107347D01*
X63867D01*
Y107362D01*
Y107376D01*
X63881D01*
Y107391D01*
Y107406D01*
Y107420D01*
X63896D01*
Y107435D01*
Y107450D01*
Y107464D01*
X63911D01*
Y107479D01*
Y107494D01*
X63925D01*
Y107508D01*
Y107523D01*
Y107538D01*
X63940D01*
Y107552D01*
Y107567D01*
Y107582D01*
Y107596D01*
Y107611D01*
Y107626D01*
X63925D01*
Y107640D01*
Y107655D01*
Y107670D01*
X63911D01*
Y107684D01*
Y107699D01*
Y107714D01*
X63896D01*
Y107728D01*
Y107743D01*
Y107757D01*
X63881D01*
Y107772D01*
Y107787D01*
Y107801D01*
X63867D01*
Y107816D01*
Y107831D01*
Y107845D01*
X63852D01*
Y107860D01*
Y107875D01*
Y107889D01*
X63837D01*
Y107904D01*
Y107919D01*
Y107933D01*
X63823D01*
Y107948D01*
Y107963D01*
X63808D01*
Y107977D01*
Y107992D01*
Y108007D01*
X63793D01*
Y108021D01*
Y108036D01*
Y108051D01*
X63779D01*
Y108065D01*
Y108080D01*
Y108095D01*
X63764D01*
Y108109D01*
Y108124D01*
Y108139D01*
X63749D01*
Y108153D01*
Y108168D01*
Y108183D01*
X63735D01*
Y108197D01*
Y108212D01*
Y108227D01*
X63720D01*
Y108241D01*
Y108256D01*
Y108271D01*
X63705D01*
Y108285D01*
Y108300D01*
Y108315D01*
X63691D01*
Y108329D01*
Y108344D01*
Y108359D01*
X63676D01*
Y108373D01*
Y108388D01*
X63661D01*
Y108403D01*
Y108417D01*
Y108432D01*
X63647D01*
Y108447D01*
Y108461D01*
Y108476D01*
X63632D01*
Y108491D01*
Y108505D01*
Y108520D01*
X63617D01*
Y108535D01*
Y108549D01*
Y108564D01*
X63603D01*
Y108579D01*
Y108593D01*
Y108608D01*
X63588D01*
Y108623D01*
Y108637D01*
Y108652D01*
X63573D01*
Y108667D01*
Y108681D01*
Y108696D01*
X63559D01*
Y108711D01*
Y108725D01*
Y108740D01*
X63544D01*
Y108755D01*
Y108769D01*
Y108784D01*
X63529D01*
Y108799D01*
Y108813D01*
Y108828D01*
X63515D01*
Y108843D01*
Y108857D01*
X63500D01*
Y108872D01*
Y108886D01*
Y108901D01*
X63485D01*
Y108916D01*
Y108930D01*
Y108945D01*
X63471D01*
Y108960D01*
Y108974D01*
Y108989D01*
X63456D01*
Y109004D01*
Y109018D01*
Y109033D01*
X63442D01*
Y109048D01*
Y109062D01*
Y109077D01*
X63427D01*
Y109092D01*
Y109106D01*
Y109121D01*
X63412D01*
Y109136D01*
Y109150D01*
Y109165D01*
X63398D01*
Y109180D01*
Y109194D01*
Y109209D01*
X63383D01*
Y109224D01*
Y109238D01*
Y109253D01*
X63368D01*
Y109268D01*
Y109282D01*
X63354D01*
Y109297D01*
Y109312D01*
Y109326D01*
X63339D01*
Y109341D01*
Y109356D01*
Y109370D01*
X63324D01*
Y109385D01*
Y109400D01*
Y109414D01*
X63310D01*
Y109429D01*
Y109444D01*
Y109458D01*
X63295D01*
Y109473D01*
Y109488D01*
Y109502D01*
X63280D01*
Y109517D01*
Y109531D01*
Y109546D01*
X63266D01*
Y109561D01*
Y109575D01*
Y109590D01*
X63251D01*
Y109605D01*
Y109619D01*
Y109634D01*
X63236D01*
Y109649D01*
Y109663D01*
Y109678D01*
X63222D01*
Y109693D01*
Y109707D01*
Y109722D01*
X63207D01*
Y109737D01*
Y109751D01*
X63192D01*
Y109766D01*
Y109781D01*
Y109795D01*
X63178D01*
Y109810D01*
Y109825D01*
Y109839D01*
X63163D01*
Y109854D01*
Y109869D01*
Y109883D01*
X63148D01*
Y109898D01*
Y109913D01*
Y109927D01*
X63134D01*
Y109942D01*
Y109957D01*
Y109971D01*
X63119D01*
Y109986D01*
Y110001D01*
Y110015D01*
X63104D01*
Y110030D01*
Y110045D01*
Y110059D01*
X63090D01*
Y110074D01*
X63398D01*
Y110059D01*
X63411D01*
Y110045D01*
Y110030D01*
Y110015D01*
X63426D01*
Y110001D01*
Y109986D01*
Y109971D01*
X63441D01*
Y109957D01*
Y109942D01*
Y109927D01*
X63455D01*
Y109913D01*
Y109898D01*
Y109883D01*
X63471D01*
Y109869D01*
Y109854D01*
Y109839D01*
X63485D01*
Y109825D01*
Y109810D01*
Y109795D01*
X63499D01*
Y109781D01*
Y109766D01*
Y109751D01*
X63514D01*
Y109737D01*
Y109722D01*
X63515D01*
Y109707D01*
X63529D01*
Y109693D01*
Y109678D01*
X63529D01*
Y109663D01*
X63544D01*
Y109649D01*
Y109634D01*
Y109619D01*
X63558D01*
Y109605D01*
Y109590D01*
X63559D01*
Y109575D01*
X63573D01*
Y109561D01*
Y109546D01*
X63573D01*
Y109531D01*
X63587D01*
Y109517D01*
Y109502D01*
X63588D01*
Y109488D01*
X63602D01*
Y109473D01*
Y109458D01*
X63603D01*
Y109444D01*
X63617D01*
Y109429D01*
Y109414D01*
Y109400D01*
X63631D01*
Y109385D01*
Y109370D01*
X63632D01*
Y109356D01*
X63646D01*
Y109341D01*
Y109326D01*
X63647D01*
Y109312D01*
X63661D01*
Y109297D01*
Y109282D01*
X63661D01*
Y109268D01*
X63675D01*
Y109253D01*
X63676D01*
Y109238D01*
Y109224D01*
X63691D01*
Y109209D01*
Y109194D01*
Y109180D01*
X63705D01*
Y109165D01*
X63705D01*
Y109150D01*
Y109136D01*
X63719D01*
Y109121D01*
X63720D01*
Y109106D01*
Y109092D01*
X63734D01*
Y109077D01*
X63735D01*
Y109062D01*
Y109048D01*
X63749D01*
Y109033D01*
X63749D01*
Y109018D01*
Y109004D01*
X63764D01*
Y108989D01*
Y108974D01*
Y108960D01*
X63778D01*
Y108945D01*
X63779D01*
Y108930D01*
Y108916D01*
X63792D01*
Y108901D01*
X63793D01*
Y108886D01*
Y108872D01*
X63807D01*
Y108857D01*
X63808D01*
Y108843D01*
Y108828D01*
X63823D01*
Y108813D01*
Y108799D01*
Y108784D01*
X63837D01*
Y108769D01*
Y108755D01*
Y108740D01*
X63852D01*
Y108725D01*
Y108711D01*
Y108696D01*
X63867D01*
Y108681D01*
Y108667D01*
Y108652D01*
X63881D01*
Y108637D01*
Y108623D01*
Y108608D01*
X63896D01*
Y108593D01*
Y108579D01*
Y108564D01*
X63911D01*
Y108549D01*
Y108535D01*
Y108520D01*
X63925D01*
Y108505D01*
Y108491D01*
Y108476D01*
X63940D01*
Y108461D01*
Y108447D01*
Y108432D01*
X63955D01*
Y108417D01*
Y108403D01*
Y108388D01*
X63969D01*
Y108373D01*
Y108359D01*
Y108344D01*
X63984D01*
Y108329D01*
Y108315D01*
X63983D01*
Y108300D01*
X63999D01*
Y108285D01*
Y108271D01*
X63998D01*
Y108256D01*
X64013D01*
Y108241D01*
Y108227D01*
X64012D01*
Y108212D01*
X64028D01*
Y108197D01*
Y108183D01*
X64027D01*
Y108168D01*
X64043D01*
Y108153D01*
Y108139D01*
Y108124D01*
X64057D01*
Y108109D01*
Y108095D01*
X64056D01*
Y108080D01*
X64072D01*
Y108065D01*
Y108051D01*
X64071D01*
Y108036D01*
X64087D01*
Y108021D01*
Y108007D01*
X64116D01*
Y108021D01*
Y108036D01*
Y108051D01*
X64131D01*
Y108065D01*
Y108080D01*
Y108095D01*
X64145D01*
Y108109D01*
Y108124D01*
Y108139D01*
X64160D01*
Y108153D01*
Y108168D01*
X64175D01*
Y108183D01*
Y108197D01*
Y108212D01*
X64189D01*
Y108227D01*
Y108241D01*
Y108256D01*
X64204D01*
Y108271D01*
Y108285D01*
Y108300D01*
X64219D01*
Y108315D01*
Y108329D01*
X64233D01*
Y108344D01*
Y108359D01*
Y108373D01*
X64248D01*
Y108388D01*
Y108403D01*
Y108417D01*
X64263D01*
Y108432D01*
Y108447D01*
X64277D01*
Y108461D01*
Y108476D01*
Y108491D01*
X64292D01*
Y108505D01*
Y108520D01*
Y108535D01*
X64307D01*
Y108549D01*
Y108564D01*
Y108579D01*
X64321D01*
Y108593D01*
Y108608D01*
X64336D01*
Y108623D01*
Y108637D01*
Y108652D01*
X64350D01*
Y108667D01*
Y108681D01*
Y108696D01*
X64365D01*
Y108711D01*
Y108725D01*
Y108740D01*
X64380D01*
Y108755D01*
Y108769D01*
X64394D01*
Y108784D01*
Y108799D01*
Y108813D01*
X64409D01*
Y108828D01*
Y108843D01*
Y108857D01*
X64424D01*
Y108872D01*
Y108886D01*
X64438D01*
Y108901D01*
Y108916D01*
Y108930D01*
X64453D01*
Y108945D01*
Y108960D01*
Y108974D01*
X64468D01*
Y108989D01*
Y109004D01*
Y109018D01*
X64482D01*
Y109033D01*
Y109048D01*
X64497D01*
Y109062D01*
Y109077D01*
Y109092D01*
X64512D01*
Y109106D01*
Y109121D01*
Y109136D01*
X64526D01*
Y109150D01*
Y109165D01*
Y109180D01*
X64541D01*
Y109194D01*
Y109209D01*
X64556D01*
Y109224D01*
Y109238D01*
Y109253D01*
X64570D01*
Y109268D01*
Y109282D01*
Y109297D01*
X64585D01*
Y109312D01*
Y109326D01*
X64600D01*
Y109341D01*
Y109356D01*
Y109370D01*
X64614D01*
Y109385D01*
Y109400D01*
Y109414D01*
X64629D01*
Y109429D01*
Y109444D01*
Y109458D01*
X64644D01*
Y109473D01*
Y109488D01*
X64658D01*
Y109502D01*
Y109517D01*
Y109531D01*
X64673D01*
Y109546D01*
Y109561D01*
Y109575D01*
X64688D01*
Y109590D01*
Y109605D01*
Y109619D01*
X64702D01*
Y109634D01*
Y109649D01*
X64717D01*
Y109663D01*
Y109678D01*
Y109693D01*
X64732D01*
Y109707D01*
Y109722D01*
Y109737D01*
X64746D01*
Y109751D01*
Y109766D01*
Y109781D01*
X64761D01*
Y109795D01*
Y109810D01*
X64776D01*
Y109825D01*
Y109839D01*
Y109854D01*
X64790D01*
Y109869D01*
Y109883D01*
Y109898D01*
X64805D01*
Y109913D01*
Y109927D01*
X64820D01*
Y109942D01*
Y109957D01*
Y109971D01*
X64834D01*
Y109986D01*
Y110001D01*
Y110015D01*
X64849D01*
Y110030D01*
Y110045D01*
Y110059D01*
X64864D01*
Y110074D01*
X65127D01*
Y110059D01*
D02*
G37*
G36*
X83380D02*
Y110045D01*
Y110030D01*
Y110015D01*
Y110001D01*
Y109986D01*
Y109971D01*
Y109957D01*
Y109942D01*
Y109927D01*
Y109913D01*
Y109898D01*
Y109883D01*
Y109869D01*
Y109854D01*
Y109839D01*
Y109825D01*
Y109810D01*
Y109795D01*
Y109781D01*
Y109766D01*
Y109751D01*
Y109737D01*
Y109722D01*
Y109707D01*
Y109693D01*
Y109678D01*
Y109663D01*
Y109649D01*
Y109634D01*
Y109619D01*
Y109605D01*
Y109590D01*
Y109575D01*
Y109561D01*
Y109546D01*
Y109531D01*
Y109517D01*
Y109502D01*
Y109488D01*
Y109473D01*
Y109458D01*
Y109444D01*
Y109429D01*
Y109414D01*
Y109400D01*
Y109385D01*
Y109370D01*
Y109356D01*
Y109341D01*
Y109326D01*
Y109312D01*
Y109297D01*
Y109282D01*
Y109268D01*
Y109253D01*
Y109238D01*
Y109224D01*
Y109209D01*
Y109194D01*
Y109180D01*
Y109165D01*
Y109150D01*
Y109136D01*
Y109121D01*
Y109106D01*
Y109092D01*
Y109077D01*
Y109062D01*
Y109048D01*
Y109033D01*
Y109018D01*
Y109004D01*
Y108989D01*
Y108974D01*
Y108960D01*
Y108945D01*
Y108930D01*
Y108916D01*
Y108901D01*
Y108886D01*
Y108872D01*
Y108857D01*
Y108843D01*
Y108828D01*
Y108813D01*
Y108799D01*
Y108784D01*
Y108769D01*
Y108755D01*
Y108740D01*
Y108725D01*
Y108711D01*
Y108696D01*
Y108681D01*
Y108667D01*
Y108652D01*
Y108637D01*
Y108623D01*
Y108608D01*
Y108593D01*
Y108579D01*
Y108564D01*
Y108549D01*
Y108535D01*
Y108520D01*
Y108505D01*
Y108491D01*
Y108476D01*
Y108461D01*
Y108447D01*
Y108432D01*
Y108417D01*
Y108403D01*
Y108388D01*
Y108373D01*
Y108359D01*
Y108344D01*
Y108329D01*
Y108315D01*
Y108300D01*
Y108285D01*
Y108271D01*
Y108256D01*
Y108241D01*
Y108227D01*
Y108212D01*
Y108197D01*
Y108183D01*
Y108168D01*
Y108153D01*
Y108139D01*
Y108124D01*
Y108109D01*
Y108095D01*
Y108080D01*
Y108065D01*
Y108051D01*
Y108036D01*
Y108021D01*
Y108007D01*
Y107992D01*
Y107977D01*
Y107963D01*
Y107948D01*
Y107933D01*
Y107919D01*
Y107904D01*
Y107889D01*
Y107875D01*
Y107860D01*
Y107845D01*
Y107831D01*
Y107816D01*
Y107801D01*
Y107787D01*
Y107772D01*
Y107757D01*
Y107743D01*
Y107728D01*
Y107714D01*
Y107699D01*
Y107684D01*
Y107670D01*
Y107655D01*
Y107640D01*
Y107626D01*
Y107611D01*
Y107596D01*
Y107582D01*
Y107567D01*
Y107552D01*
Y107538D01*
X82633D01*
Y107552D01*
Y107567D01*
Y107582D01*
Y107596D01*
Y107611D01*
Y107626D01*
Y107640D01*
Y107655D01*
Y107670D01*
Y107684D01*
Y107699D01*
Y107714D01*
Y107728D01*
Y107743D01*
Y107757D01*
Y107772D01*
Y107787D01*
Y107801D01*
Y107816D01*
Y107831D01*
Y107845D01*
Y107860D01*
Y107875D01*
Y107889D01*
Y107904D01*
Y107919D01*
Y107933D01*
Y107948D01*
Y107963D01*
Y107977D01*
Y107992D01*
Y108007D01*
Y108021D01*
Y108036D01*
Y108051D01*
Y108065D01*
Y108080D01*
Y108095D01*
Y108109D01*
Y108124D01*
Y108139D01*
Y108153D01*
Y108168D01*
Y108183D01*
Y108197D01*
Y108212D01*
Y108227D01*
Y108241D01*
Y108256D01*
Y108271D01*
Y108285D01*
Y108300D01*
Y108315D01*
Y108329D01*
Y108344D01*
Y108359D01*
Y108373D01*
Y108388D01*
Y108403D01*
Y108417D01*
Y108432D01*
Y108447D01*
Y108461D01*
Y108476D01*
Y108491D01*
Y108505D01*
Y108520D01*
Y108535D01*
Y108549D01*
Y108564D01*
Y108579D01*
Y108593D01*
Y108608D01*
Y108623D01*
Y108637D01*
Y108652D01*
Y108667D01*
Y108681D01*
Y108696D01*
Y108711D01*
Y108725D01*
Y108740D01*
Y108755D01*
Y108769D01*
Y108784D01*
Y108799D01*
Y108813D01*
Y108828D01*
Y108843D01*
Y108857D01*
Y108872D01*
Y108886D01*
Y108901D01*
Y108916D01*
Y108930D01*
Y108945D01*
Y108960D01*
Y108974D01*
Y108989D01*
Y109004D01*
Y109018D01*
Y109033D01*
Y109048D01*
Y109062D01*
Y109077D01*
Y109092D01*
Y109106D01*
Y109121D01*
Y109136D01*
Y109150D01*
Y109165D01*
Y109180D01*
Y109194D01*
Y109209D01*
Y109224D01*
Y109238D01*
Y109253D01*
Y109268D01*
Y109282D01*
Y109297D01*
Y109312D01*
Y109326D01*
Y109341D01*
Y109356D01*
Y109370D01*
Y109385D01*
Y109400D01*
Y109414D01*
Y109429D01*
Y109444D01*
Y109458D01*
Y109473D01*
Y109488D01*
Y109502D01*
Y109517D01*
Y109531D01*
Y109546D01*
Y109561D01*
Y109575D01*
Y109590D01*
Y109605D01*
Y109619D01*
Y109634D01*
Y109649D01*
Y109663D01*
Y109678D01*
Y109693D01*
Y109707D01*
Y109722D01*
Y109737D01*
Y109751D01*
Y109766D01*
Y109781D01*
Y109795D01*
Y109810D01*
Y109825D01*
Y109839D01*
Y109854D01*
Y109869D01*
Y109883D01*
Y109898D01*
Y109913D01*
Y109927D01*
Y109942D01*
Y109957D01*
Y109971D01*
Y109986D01*
Y110001D01*
Y110015D01*
Y110030D01*
Y110045D01*
Y110059D01*
Y110074D01*
X83380D01*
Y110059D01*
D02*
G37*
G36*
X81035Y110118D02*
X81211D01*
Y110103D01*
X81298D01*
Y110089D01*
X81371D01*
Y110074D01*
X81431D01*
Y110059D01*
X81475D01*
Y110045D01*
X81519D01*
Y110030D01*
X81562D01*
Y110015D01*
X81592D01*
Y110001D01*
X81621D01*
Y109986D01*
X81651D01*
Y109971D01*
X81680D01*
Y109957D01*
X81709D01*
Y109942D01*
X81723D01*
Y109927D01*
X81752D01*
Y109913D01*
X81767D01*
Y109898D01*
X81782D01*
Y109883D01*
X81797D01*
Y109869D01*
X81826D01*
Y109854D01*
X81840D01*
Y109839D01*
X81855D01*
Y109825D01*
X81856D01*
Y109810D01*
X81870D01*
Y109795D01*
X81884D01*
Y109781D01*
X81900D01*
Y109766D01*
Y109751D01*
X81915D01*
Y109737D01*
X81929D01*
Y109722D01*
X81928D01*
Y109707D01*
X81943D01*
Y109693D01*
X81944D01*
Y109678D01*
Y109663D01*
X81958D01*
Y109649D01*
X81959D01*
Y109634D01*
Y109619D01*
X81972D01*
Y109605D01*
Y109590D01*
X81973D01*
Y109575D01*
X81988D01*
Y109561D01*
Y109546D01*
X81987D01*
Y109531D01*
Y109517D01*
Y109502D01*
X81988D01*
Y109488D01*
Y109473D01*
X82003D01*
Y109458D01*
Y109444D01*
Y109429D01*
X82002D01*
Y109414D01*
Y109400D01*
Y109385D01*
Y109370D01*
X82003D01*
Y109356D01*
Y109341D01*
Y109326D01*
Y109312D01*
Y109297D01*
Y109282D01*
Y109268D01*
Y109253D01*
Y109238D01*
Y109224D01*
Y109209D01*
Y109194D01*
Y109180D01*
Y109165D01*
Y109150D01*
Y109136D01*
Y109121D01*
Y109106D01*
X82002D01*
Y109092D01*
Y109077D01*
Y109062D01*
Y109048D01*
X82003D01*
Y109033D01*
Y109018D01*
X82002D01*
Y109004D01*
X82003D01*
Y108989D01*
Y108974D01*
X82002D01*
Y108960D01*
Y108945D01*
Y108930D01*
X82003D01*
Y108916D01*
Y108901D01*
Y108886D01*
X82002D01*
Y108872D01*
X82003D01*
Y108857D01*
Y108843D01*
Y108828D01*
Y108813D01*
X82002D01*
Y108799D01*
X82003D01*
Y108784D01*
Y108769D01*
X82002D01*
Y108755D01*
X82003D01*
Y108740D01*
Y108725D01*
Y108711D01*
Y108696D01*
Y108681D01*
Y108667D01*
Y108652D01*
Y108637D01*
Y108623D01*
Y108608D01*
Y108593D01*
Y108579D01*
Y108564D01*
Y108549D01*
Y108535D01*
Y108520D01*
Y108505D01*
Y108491D01*
Y108476D01*
Y108461D01*
Y108447D01*
Y108432D01*
Y108417D01*
X82002D01*
Y108403D01*
Y108388D01*
Y108373D01*
Y108359D01*
Y108344D01*
X82003D01*
Y108329D01*
Y108315D01*
Y108300D01*
X82002D01*
Y108285D01*
Y108271D01*
Y108256D01*
X82003D01*
Y108241D01*
Y108227D01*
Y108212D01*
Y108197D01*
X82002D01*
Y108183D01*
Y108168D01*
X82003D01*
Y108153D01*
X82002D01*
Y108139D01*
Y108124D01*
X82003D01*
Y108109D01*
Y108095D01*
X82002D01*
Y108080D01*
X82003D01*
Y108065D01*
X82002D01*
Y108051D01*
X82003D01*
Y108036D01*
X82002D01*
Y108021D01*
X82003D01*
Y108007D01*
Y107992D01*
X82002D01*
Y107977D01*
X82003D01*
Y107963D01*
Y107948D01*
Y107933D01*
X82002D01*
Y107919D01*
Y107904D01*
Y107889D01*
Y107875D01*
Y107860D01*
Y107845D01*
X82016D01*
Y107831D01*
Y107816D01*
Y107801D01*
Y107787D01*
Y107772D01*
Y107757D01*
Y107743D01*
Y107728D01*
X82017D01*
Y107714D01*
Y107699D01*
Y107684D01*
Y107670D01*
X82031D01*
Y107655D01*
Y107640D01*
Y107626D01*
X82032D01*
Y107611D01*
Y107596D01*
X82046D01*
Y107582D01*
Y107567D01*
Y107552D01*
X82047D01*
Y107538D01*
X81343D01*
Y107552D01*
X81328D01*
Y107567D01*
Y107582D01*
Y107596D01*
Y107611D01*
Y107626D01*
X81314D01*
Y107640D01*
Y107655D01*
Y107670D01*
Y107684D01*
Y107699D01*
Y107714D01*
Y107728D01*
X81299D01*
Y107743D01*
Y107757D01*
Y107772D01*
Y107787D01*
Y107801D01*
Y107816D01*
Y107831D01*
Y107845D01*
Y107860D01*
Y107875D01*
Y107889D01*
Y107904D01*
Y107919D01*
Y107933D01*
X81284D01*
Y107919D01*
X81270D01*
Y107904D01*
X81269D01*
Y107889D01*
X81255D01*
Y107875D01*
X81240D01*
Y107860D01*
X81225D01*
Y107845D01*
X81226D01*
Y107831D01*
X81210D01*
Y107816D01*
X81196D01*
Y107801D01*
X81181D01*
Y107787D01*
X81166D01*
Y107772D01*
X81152D01*
Y107757D01*
X81138D01*
Y107743D01*
X81122D01*
Y107728D01*
X81107D01*
Y107714D01*
X81094D01*
Y107699D01*
X81079D01*
Y107684D01*
X81064D01*
Y107670D01*
X81049D01*
Y107655D01*
X81020D01*
Y107640D01*
X81006D01*
Y107626D01*
X80975D01*
Y107611D01*
X80961D01*
Y107596D01*
X80932D01*
Y107582D01*
X80902D01*
Y107567D01*
X80874D01*
Y107552D01*
X80829D01*
Y107538D01*
X80786D01*
Y107523D01*
X80727D01*
Y107508D01*
X80639D01*
Y107494D01*
X80346D01*
Y107508D01*
X80258D01*
Y107523D01*
X80199D01*
Y107538D01*
X80155D01*
Y107552D01*
X80111D01*
Y107567D01*
X80082D01*
Y107582D01*
X80053D01*
Y107596D01*
X80023D01*
Y107611D01*
X80009D01*
Y107626D01*
X79979D01*
Y107640D01*
X79965D01*
Y107655D01*
X79935D01*
Y107670D01*
X79921D01*
Y107684D01*
X79906D01*
Y107699D01*
X79891D01*
Y107714D01*
X79877D01*
Y107728D01*
X79862D01*
Y107743D01*
X79847D01*
Y107757D01*
X79833D01*
Y107772D01*
Y107787D01*
X79818D01*
Y107801D01*
X79803D01*
Y107816D01*
X79789D01*
Y107831D01*
Y107845D01*
X79774D01*
Y107860D01*
Y107875D01*
X79760D01*
Y107889D01*
Y107904D01*
X79745D01*
Y107919D01*
Y107933D01*
Y107948D01*
X79730D01*
Y107963D01*
Y107977D01*
Y107992D01*
X79716D01*
Y108007D01*
Y108021D01*
Y108036D01*
Y108051D01*
X79701D01*
Y108065D01*
Y108080D01*
Y108095D01*
Y108109D01*
Y108124D01*
Y108139D01*
Y108153D01*
Y108168D01*
Y108183D01*
Y108197D01*
Y108212D01*
Y108227D01*
Y108241D01*
Y108256D01*
Y108271D01*
Y108285D01*
Y108300D01*
Y108315D01*
Y108329D01*
Y108344D01*
Y108359D01*
X79716D01*
Y108373D01*
Y108388D01*
Y108403D01*
Y108417D01*
X79730D01*
Y108432D01*
Y108447D01*
Y108461D01*
X79745D01*
Y108476D01*
Y108491D01*
Y108505D01*
X79760D01*
Y108520D01*
Y108535D01*
X79774D01*
Y108549D01*
Y108564D01*
X79789D01*
Y108579D01*
Y108593D01*
X79803D01*
Y108608D01*
Y108623D01*
X79818D01*
Y108637D01*
X79833D01*
Y108652D01*
Y108667D01*
X79847D01*
Y108681D01*
X79862D01*
Y108696D01*
X79877D01*
Y108711D01*
X79891D01*
Y108725D01*
X79906D01*
Y108740D01*
X79921D01*
Y108755D01*
X79935D01*
Y108769D01*
X79950D01*
Y108784D01*
X79965D01*
Y108799D01*
X79979D01*
Y108813D01*
X79994D01*
Y108828D01*
X80023D01*
Y108843D01*
X80038D01*
Y108857D01*
X80067D01*
Y108872D01*
X80082D01*
Y108886D01*
X80111D01*
Y108901D01*
X80141D01*
Y108916D01*
X80170D01*
Y108930D01*
X80199D01*
Y108945D01*
X80229D01*
Y108960D01*
X80273D01*
Y108974D01*
X80317D01*
Y108989D01*
X80361D01*
Y109004D01*
X80419D01*
Y109018D01*
X80478D01*
Y109033D01*
X80551D01*
Y109048D01*
X80639D01*
Y109062D01*
X80742D01*
Y109077D01*
X80859D01*
Y109092D01*
X81006D01*
Y109106D01*
X81167D01*
Y109121D01*
X81270D01*
Y109136D01*
Y109150D01*
Y109165D01*
Y109180D01*
Y109194D01*
Y109209D01*
Y109224D01*
Y109238D01*
Y109253D01*
Y109268D01*
Y109282D01*
Y109297D01*
Y109312D01*
Y109326D01*
Y109341D01*
Y109356D01*
Y109370D01*
X81255D01*
Y109385D01*
Y109400D01*
Y109414D01*
Y109429D01*
X81240D01*
Y109444D01*
Y109458D01*
Y109473D01*
X81226D01*
Y109488D01*
Y109502D01*
X81211D01*
Y109517D01*
X81196D01*
Y109531D01*
Y109546D01*
X81182D01*
Y109561D01*
X81152D01*
Y109575D01*
X81138D01*
Y109590D01*
X81108D01*
Y109605D01*
X81079D01*
Y109619D01*
X81035D01*
Y109634D01*
X80962D01*
Y109649D01*
X80815D01*
Y109634D01*
X80742D01*
Y109619D01*
X80698D01*
Y109605D01*
X80654D01*
Y109590D01*
X80638D01*
Y109575D01*
X80609D01*
Y109561D01*
X80595D01*
Y109546D01*
X80581D01*
Y109531D01*
X80565D01*
Y109517D01*
X80551D01*
Y109502D01*
X80537D01*
Y109488D01*
X80521D01*
Y109473D01*
Y109458D01*
X80507D01*
Y109444D01*
X80506D01*
Y109429D01*
X80493D01*
Y109414D01*
Y109400D01*
X80477D01*
Y109385D01*
X80478D01*
Y109370D01*
Y109356D01*
X80463D01*
Y109341D01*
Y109326D01*
Y109312D01*
X80462D01*
Y109297D01*
Y109282D01*
X80302D01*
Y109297D01*
X80155D01*
Y109312D01*
X79994D01*
Y109326D01*
X79847D01*
Y109341D01*
X79774D01*
Y109356D01*
Y109370D01*
Y109385D01*
X79789D01*
Y109400D01*
Y109414D01*
Y109429D01*
Y109444D01*
X79803D01*
Y109458D01*
Y109473D01*
Y109488D01*
Y109502D01*
X79818D01*
Y109517D01*
Y109531D01*
Y109546D01*
X79833D01*
Y109561D01*
Y109575D01*
X79847D01*
Y109590D01*
Y109605D01*
Y109619D01*
X79862D01*
Y109634D01*
Y109649D01*
X79877D01*
Y109663D01*
Y109678D01*
X79891D01*
Y109693D01*
X79906D01*
Y109707D01*
Y109722D01*
X79921D01*
Y109737D01*
X79935D01*
Y109751D01*
X79950D01*
Y109766D01*
Y109781D01*
X79965D01*
Y109795D01*
X79979D01*
Y109810D01*
X79994D01*
Y109825D01*
X80009D01*
Y109839D01*
X80038D01*
Y109854D01*
X80053D01*
Y109869D01*
X80067D01*
Y109883D01*
X80082D01*
Y109898D01*
X80111D01*
Y109913D01*
X80126D01*
Y109927D01*
X80155D01*
Y109942D01*
X80185D01*
Y109957D01*
X80214D01*
Y109971D01*
X80243D01*
Y109986D01*
X80273D01*
Y110001D01*
X80302D01*
Y110015D01*
X80346D01*
Y110030D01*
X80375D01*
Y110045D01*
X80419D01*
Y110059D01*
X80478D01*
Y110074D01*
X80537D01*
Y110089D01*
X80610D01*
Y110103D01*
X80698D01*
Y110118D01*
X80888D01*
Y110133D01*
X81035D01*
Y110118D01*
D02*
G37*
G36*
X79261Y108300D02*
Y108285D01*
Y108271D01*
Y108256D01*
Y108241D01*
Y108227D01*
Y108212D01*
Y108197D01*
Y108183D01*
Y108168D01*
Y108153D01*
Y108139D01*
Y108124D01*
Y108109D01*
Y108095D01*
Y108080D01*
Y108065D01*
Y108051D01*
Y108036D01*
Y108021D01*
Y108007D01*
Y107992D01*
Y107977D01*
Y107963D01*
Y107948D01*
Y107933D01*
Y107919D01*
Y107904D01*
Y107889D01*
Y107875D01*
Y107860D01*
Y107845D01*
Y107831D01*
Y107816D01*
Y107801D01*
Y107787D01*
Y107772D01*
Y107757D01*
Y107743D01*
Y107728D01*
Y107714D01*
Y107699D01*
Y107684D01*
Y107670D01*
Y107655D01*
Y107640D01*
Y107626D01*
Y107611D01*
Y107596D01*
Y107582D01*
Y107567D01*
Y107552D01*
Y107538D01*
X78484D01*
Y107552D01*
Y107567D01*
Y107582D01*
Y107596D01*
Y107611D01*
Y107626D01*
Y107640D01*
Y107655D01*
Y107670D01*
Y107684D01*
Y107699D01*
Y107714D01*
Y107728D01*
Y107743D01*
Y107757D01*
Y107772D01*
Y107787D01*
Y107801D01*
Y107816D01*
Y107831D01*
Y107845D01*
Y107860D01*
Y107875D01*
Y107889D01*
Y107904D01*
Y107919D01*
Y107933D01*
Y107948D01*
Y107963D01*
Y107977D01*
Y107992D01*
Y108007D01*
Y108021D01*
Y108036D01*
Y108051D01*
Y108065D01*
Y108080D01*
Y108095D01*
Y108109D01*
Y108124D01*
Y108139D01*
Y108153D01*
Y108168D01*
Y108183D01*
Y108197D01*
Y108212D01*
Y108227D01*
Y108241D01*
Y108256D01*
Y108271D01*
Y108285D01*
Y108300D01*
Y108315D01*
X79261D01*
Y108300D01*
D02*
G37*
G36*
X72312Y110059D02*
Y110045D01*
Y110030D01*
Y110015D01*
Y110001D01*
Y109986D01*
Y109971D01*
Y109957D01*
Y109942D01*
Y109927D01*
Y109913D01*
Y109898D01*
Y109883D01*
Y109869D01*
Y109854D01*
Y109839D01*
Y109825D01*
Y109810D01*
Y109795D01*
Y109781D01*
Y109766D01*
Y109751D01*
Y109737D01*
Y109722D01*
Y109707D01*
Y109693D01*
Y109678D01*
Y109663D01*
Y109649D01*
Y109634D01*
Y109619D01*
Y109605D01*
Y109590D01*
Y109575D01*
Y109561D01*
Y109546D01*
Y109531D01*
Y109517D01*
Y109502D01*
Y109488D01*
Y109473D01*
Y109458D01*
Y109444D01*
Y109429D01*
Y109414D01*
Y109400D01*
Y109385D01*
Y109370D01*
Y109356D01*
Y109341D01*
Y109326D01*
Y109312D01*
Y109297D01*
Y109282D01*
Y109268D01*
Y109253D01*
Y109238D01*
Y109224D01*
Y109209D01*
Y109194D01*
Y109180D01*
Y109165D01*
Y109150D01*
Y109136D01*
Y109121D01*
Y109106D01*
Y109092D01*
Y109077D01*
Y109062D01*
Y109048D01*
Y109033D01*
Y109018D01*
Y109004D01*
Y108989D01*
Y108974D01*
Y108960D01*
Y108945D01*
Y108930D01*
Y108916D01*
Y108901D01*
Y108886D01*
Y108872D01*
Y108857D01*
Y108843D01*
Y108828D01*
Y108813D01*
Y108799D01*
Y108784D01*
Y108769D01*
Y108755D01*
Y108740D01*
Y108725D01*
Y108711D01*
Y108696D01*
Y108681D01*
Y108667D01*
Y108652D01*
Y108637D01*
Y108623D01*
Y108608D01*
Y108593D01*
Y108579D01*
Y108564D01*
Y108549D01*
Y108535D01*
Y108520D01*
Y108505D01*
Y108491D01*
Y108476D01*
Y108461D01*
Y108447D01*
Y108432D01*
Y108417D01*
Y108403D01*
Y108388D01*
Y108373D01*
Y108359D01*
Y108344D01*
Y108329D01*
Y108315D01*
Y108300D01*
Y108285D01*
Y108271D01*
Y108256D01*
Y108241D01*
Y108227D01*
Y108212D01*
Y108197D01*
Y108183D01*
Y108168D01*
Y108153D01*
Y108139D01*
Y108124D01*
Y108109D01*
Y108095D01*
Y108080D01*
Y108065D01*
Y108051D01*
Y108036D01*
Y108021D01*
Y108007D01*
Y107992D01*
Y107977D01*
Y107963D01*
Y107948D01*
Y107933D01*
Y107919D01*
Y107904D01*
Y107889D01*
Y107875D01*
Y107860D01*
Y107845D01*
Y107831D01*
Y107816D01*
Y107801D01*
Y107787D01*
Y107772D01*
Y107757D01*
Y107743D01*
Y107728D01*
Y107714D01*
Y107699D01*
Y107684D01*
Y107670D01*
Y107655D01*
Y107640D01*
Y107626D01*
Y107611D01*
Y107596D01*
Y107582D01*
Y107567D01*
Y107552D01*
Y107538D01*
X71579D01*
Y107552D01*
Y107567D01*
Y107582D01*
Y107596D01*
Y107611D01*
Y107626D01*
Y107640D01*
Y107655D01*
Y107670D01*
Y107684D01*
Y107699D01*
Y107714D01*
Y107728D01*
Y107743D01*
Y107757D01*
Y107772D01*
Y107787D01*
Y107801D01*
Y107816D01*
Y107831D01*
Y107845D01*
Y107860D01*
Y107875D01*
Y107889D01*
Y107904D01*
Y107919D01*
Y107933D01*
Y107948D01*
Y107963D01*
Y107977D01*
Y107992D01*
Y108007D01*
Y108021D01*
Y108036D01*
Y108051D01*
Y108065D01*
Y108080D01*
Y108095D01*
Y108109D01*
Y108124D01*
Y108139D01*
Y108153D01*
Y108168D01*
Y108183D01*
Y108197D01*
Y108212D01*
Y108227D01*
Y108241D01*
Y108256D01*
Y108271D01*
Y108285D01*
Y108300D01*
Y108315D01*
Y108329D01*
Y108344D01*
Y108359D01*
Y108373D01*
Y108388D01*
Y108403D01*
Y108417D01*
Y108432D01*
Y108447D01*
Y108461D01*
Y108476D01*
Y108491D01*
Y108505D01*
Y108520D01*
Y108535D01*
Y108549D01*
Y108564D01*
Y108579D01*
Y108593D01*
Y108608D01*
Y108623D01*
Y108637D01*
Y108652D01*
Y108667D01*
Y108681D01*
Y108696D01*
Y108711D01*
Y108725D01*
Y108740D01*
Y108755D01*
Y108769D01*
Y108784D01*
Y108799D01*
Y108813D01*
Y108828D01*
Y108843D01*
Y108857D01*
Y108872D01*
Y108886D01*
Y108901D01*
Y108916D01*
Y108930D01*
Y108945D01*
Y108960D01*
Y108974D01*
Y108989D01*
Y109004D01*
Y109018D01*
Y109033D01*
Y109048D01*
Y109062D01*
Y109077D01*
Y109092D01*
Y109106D01*
Y109121D01*
Y109136D01*
Y109150D01*
Y109165D01*
Y109180D01*
Y109194D01*
Y109209D01*
Y109224D01*
Y109238D01*
Y109253D01*
Y109268D01*
Y109282D01*
Y109297D01*
Y109312D01*
Y109326D01*
Y109341D01*
Y109356D01*
Y109370D01*
Y109385D01*
Y109400D01*
Y109414D01*
Y109429D01*
Y109444D01*
Y109458D01*
Y109473D01*
Y109488D01*
Y109502D01*
Y109517D01*
Y109531D01*
Y109546D01*
Y109561D01*
Y109575D01*
Y109590D01*
Y109605D01*
Y109619D01*
Y109634D01*
Y109649D01*
Y109663D01*
Y109678D01*
Y109693D01*
Y109707D01*
Y109722D01*
Y109737D01*
Y109751D01*
Y109766D01*
Y109781D01*
Y109795D01*
Y109810D01*
Y109825D01*
Y109839D01*
Y109854D01*
Y109869D01*
Y109883D01*
Y109898D01*
Y109913D01*
Y109927D01*
Y109942D01*
Y109957D01*
Y109971D01*
Y109986D01*
Y110001D01*
Y110015D01*
Y110030D01*
Y110045D01*
Y110059D01*
Y110074D01*
X72312D01*
Y110059D01*
D02*
G37*
G36*
X68514D02*
Y110045D01*
Y110030D01*
Y110015D01*
Y110001D01*
Y109986D01*
Y109971D01*
Y109957D01*
Y109942D01*
Y109927D01*
Y109913D01*
Y109898D01*
Y109883D01*
Y109869D01*
Y109854D01*
Y109839D01*
Y109825D01*
Y109810D01*
Y109795D01*
Y109781D01*
Y109766D01*
Y109751D01*
Y109737D01*
Y109722D01*
Y109707D01*
Y109693D01*
Y109678D01*
Y109663D01*
Y109649D01*
Y109634D01*
Y109619D01*
Y109605D01*
Y109590D01*
Y109575D01*
Y109561D01*
Y109546D01*
Y109531D01*
Y109517D01*
Y109502D01*
Y109488D01*
Y109473D01*
Y109458D01*
Y109444D01*
Y109429D01*
Y109414D01*
Y109400D01*
Y109385D01*
Y109370D01*
Y109356D01*
Y109341D01*
Y109326D01*
Y109312D01*
Y109297D01*
Y109282D01*
Y109268D01*
Y109253D01*
Y109238D01*
Y109224D01*
Y109209D01*
Y109194D01*
Y109180D01*
Y109165D01*
Y109150D01*
Y109136D01*
Y109121D01*
Y109106D01*
Y109092D01*
Y109077D01*
Y109062D01*
Y109048D01*
Y109033D01*
Y109018D01*
Y109004D01*
Y108989D01*
Y108974D01*
Y108960D01*
Y108945D01*
Y108930D01*
Y108916D01*
Y108901D01*
Y108886D01*
Y108872D01*
Y108857D01*
Y108843D01*
Y108828D01*
Y108813D01*
Y108799D01*
Y108784D01*
Y108769D01*
Y108755D01*
Y108740D01*
Y108725D01*
Y108711D01*
Y108696D01*
Y108681D01*
Y108667D01*
Y108652D01*
Y108637D01*
Y108623D01*
Y108608D01*
Y108593D01*
Y108579D01*
Y108564D01*
Y108549D01*
Y108535D01*
Y108520D01*
Y108505D01*
Y108491D01*
Y108476D01*
Y108461D01*
Y108447D01*
Y108432D01*
Y108417D01*
Y108403D01*
Y108388D01*
Y108373D01*
Y108359D01*
Y108344D01*
Y108329D01*
Y108315D01*
Y108300D01*
Y108285D01*
Y108271D01*
Y108256D01*
Y108241D01*
Y108227D01*
Y108212D01*
Y108197D01*
Y108183D01*
Y108168D01*
Y108153D01*
Y108139D01*
Y108124D01*
Y108109D01*
Y108095D01*
Y108080D01*
Y108065D01*
Y108051D01*
Y108036D01*
Y108021D01*
Y108007D01*
Y107992D01*
Y107977D01*
Y107963D01*
Y107948D01*
Y107933D01*
Y107919D01*
Y107904D01*
Y107889D01*
Y107875D01*
Y107860D01*
Y107845D01*
Y107831D01*
Y107816D01*
Y107801D01*
Y107787D01*
Y107772D01*
Y107757D01*
Y107743D01*
Y107728D01*
Y107714D01*
Y107699D01*
Y107684D01*
Y107670D01*
Y107655D01*
Y107640D01*
Y107626D01*
Y107611D01*
Y107596D01*
Y107582D01*
Y107567D01*
Y107552D01*
Y107538D01*
X67781D01*
Y107552D01*
Y107567D01*
Y107582D01*
Y107596D01*
Y107611D01*
Y107626D01*
Y107640D01*
Y107655D01*
Y107670D01*
Y107684D01*
Y107699D01*
Y107714D01*
Y107728D01*
Y107743D01*
Y107757D01*
Y107772D01*
Y107787D01*
Y107801D01*
Y107816D01*
Y107831D01*
Y107845D01*
Y107860D01*
Y107875D01*
Y107889D01*
Y107904D01*
Y107919D01*
Y107933D01*
Y107948D01*
Y107963D01*
Y107977D01*
Y107992D01*
Y108007D01*
Y108021D01*
Y108036D01*
Y108051D01*
Y108065D01*
Y108080D01*
Y108095D01*
Y108109D01*
Y108124D01*
Y108139D01*
Y108153D01*
Y108168D01*
Y108183D01*
Y108197D01*
Y108212D01*
Y108227D01*
Y108241D01*
Y108256D01*
Y108271D01*
Y108285D01*
Y108300D01*
Y108315D01*
Y108329D01*
Y108344D01*
Y108359D01*
Y108373D01*
Y108388D01*
Y108403D01*
Y108417D01*
Y108432D01*
Y108447D01*
Y108461D01*
Y108476D01*
Y108491D01*
Y108505D01*
Y108520D01*
Y108535D01*
Y108549D01*
Y108564D01*
Y108579D01*
Y108593D01*
Y108608D01*
Y108623D01*
Y108637D01*
Y108652D01*
Y108667D01*
Y108681D01*
Y108696D01*
Y108711D01*
Y108725D01*
Y108740D01*
Y108755D01*
Y108769D01*
Y108784D01*
Y108799D01*
Y108813D01*
Y108828D01*
Y108843D01*
Y108857D01*
Y108872D01*
Y108886D01*
Y108901D01*
Y108916D01*
Y108930D01*
Y108945D01*
Y108960D01*
Y108974D01*
Y108989D01*
Y109004D01*
Y109018D01*
Y109033D01*
Y109048D01*
Y109062D01*
Y109077D01*
Y109092D01*
Y109106D01*
Y109121D01*
Y109136D01*
Y109150D01*
Y109165D01*
Y109180D01*
Y109194D01*
Y109209D01*
Y109224D01*
Y109238D01*
Y109253D01*
Y109268D01*
Y109282D01*
Y109297D01*
Y109312D01*
Y109326D01*
Y109341D01*
Y109356D01*
Y109370D01*
Y109385D01*
Y109400D01*
Y109414D01*
Y109429D01*
Y109444D01*
Y109458D01*
Y109473D01*
Y109488D01*
Y109502D01*
Y109517D01*
Y109531D01*
Y109546D01*
Y109561D01*
Y109575D01*
Y109590D01*
Y109605D01*
Y109619D01*
Y109634D01*
Y109649D01*
Y109663D01*
Y109678D01*
Y109693D01*
Y109707D01*
Y109722D01*
Y109737D01*
Y109751D01*
Y109766D01*
Y109781D01*
Y109795D01*
Y109810D01*
Y109825D01*
Y109839D01*
Y109854D01*
Y109869D01*
Y109883D01*
Y109898D01*
Y109913D01*
Y109927D01*
Y109942D01*
Y109957D01*
Y109971D01*
Y109986D01*
Y110001D01*
Y110015D01*
Y110030D01*
Y110045D01*
Y110059D01*
Y110074D01*
X68514D01*
Y110059D01*
D02*
G37*
G36*
X60011D02*
Y110045D01*
Y110030D01*
Y110015D01*
Y110001D01*
Y109986D01*
Y109971D01*
Y109957D01*
Y109942D01*
Y109927D01*
Y109913D01*
Y109898D01*
Y109883D01*
Y109869D01*
Y109854D01*
Y109839D01*
Y109825D01*
Y109810D01*
Y109795D01*
Y109781D01*
Y109766D01*
Y109751D01*
Y109737D01*
Y109722D01*
Y109707D01*
Y109693D01*
Y109678D01*
Y109663D01*
Y109649D01*
Y109634D01*
Y109619D01*
Y109605D01*
Y109590D01*
Y109575D01*
Y109561D01*
Y109546D01*
Y109531D01*
Y109517D01*
Y109502D01*
Y109488D01*
Y109473D01*
Y109458D01*
Y109444D01*
Y109429D01*
Y109414D01*
Y109400D01*
Y109385D01*
Y109370D01*
Y109356D01*
Y109341D01*
Y109326D01*
Y109312D01*
Y109297D01*
Y109282D01*
Y109268D01*
Y109253D01*
Y109238D01*
Y109224D01*
Y109209D01*
Y109194D01*
Y109180D01*
Y109165D01*
Y109150D01*
Y109136D01*
Y109121D01*
Y109106D01*
Y109092D01*
Y109077D01*
Y109062D01*
Y109048D01*
Y109033D01*
Y109018D01*
Y109004D01*
Y108989D01*
Y108974D01*
Y108960D01*
Y108945D01*
Y108930D01*
Y108916D01*
Y108901D01*
Y108886D01*
Y108872D01*
Y108857D01*
Y108843D01*
Y108828D01*
Y108813D01*
Y108799D01*
Y108784D01*
Y108769D01*
Y108755D01*
Y108740D01*
Y108725D01*
Y108711D01*
Y108696D01*
Y108681D01*
Y108667D01*
Y108652D01*
Y108637D01*
Y108623D01*
Y108608D01*
Y108593D01*
Y108579D01*
Y108564D01*
Y108549D01*
Y108535D01*
Y108520D01*
Y108505D01*
Y108491D01*
Y108476D01*
Y108461D01*
Y108447D01*
Y108432D01*
Y108417D01*
Y108403D01*
Y108388D01*
Y108373D01*
Y108359D01*
Y108344D01*
Y108329D01*
Y108315D01*
Y108300D01*
Y108285D01*
Y108271D01*
Y108256D01*
Y108241D01*
Y108227D01*
Y108212D01*
Y108197D01*
Y108183D01*
Y108168D01*
Y108153D01*
Y108139D01*
Y108124D01*
Y108109D01*
Y108095D01*
Y108080D01*
Y108065D01*
Y108051D01*
Y108036D01*
Y108021D01*
Y108007D01*
Y107992D01*
Y107977D01*
Y107963D01*
Y107948D01*
Y107933D01*
Y107919D01*
Y107904D01*
Y107889D01*
Y107875D01*
Y107860D01*
Y107845D01*
Y107831D01*
Y107816D01*
Y107801D01*
Y107787D01*
Y107772D01*
Y107757D01*
Y107743D01*
Y107728D01*
Y107714D01*
Y107699D01*
Y107684D01*
Y107670D01*
Y107655D01*
Y107640D01*
Y107626D01*
Y107611D01*
Y107596D01*
Y107582D01*
Y107567D01*
Y107552D01*
Y107538D01*
X59718D01*
Y107552D01*
Y107567D01*
Y107582D01*
Y107596D01*
Y107611D01*
Y107626D01*
Y107640D01*
Y107655D01*
Y107670D01*
Y107684D01*
Y107699D01*
Y107714D01*
Y107728D01*
Y107743D01*
Y107757D01*
Y107772D01*
Y107787D01*
Y107801D01*
Y107816D01*
Y107831D01*
Y107845D01*
Y107860D01*
Y107875D01*
Y107889D01*
Y107904D01*
Y107919D01*
Y107933D01*
Y107948D01*
Y107963D01*
Y107977D01*
Y107992D01*
Y108007D01*
Y108021D01*
Y108036D01*
Y108051D01*
Y108065D01*
Y108080D01*
Y108095D01*
Y108109D01*
Y108124D01*
Y108139D01*
Y108153D01*
Y108168D01*
Y108183D01*
Y108197D01*
Y108212D01*
Y108227D01*
Y108241D01*
Y108256D01*
Y108271D01*
Y108285D01*
Y108300D01*
Y108315D01*
Y108329D01*
Y108344D01*
Y108359D01*
Y108373D01*
Y108388D01*
Y108403D01*
Y108417D01*
Y108432D01*
Y108447D01*
Y108461D01*
Y108476D01*
Y108491D01*
Y108505D01*
Y108520D01*
Y108535D01*
Y108549D01*
Y108564D01*
Y108579D01*
Y108593D01*
Y108608D01*
Y108623D01*
Y108637D01*
Y108652D01*
Y108667D01*
Y108681D01*
Y108696D01*
Y108711D01*
Y108725D01*
Y108740D01*
Y108755D01*
Y108769D01*
Y108784D01*
Y108799D01*
Y108813D01*
Y108828D01*
Y108843D01*
Y108857D01*
Y108872D01*
Y108886D01*
Y108901D01*
Y108916D01*
Y108930D01*
Y108945D01*
Y108960D01*
Y108974D01*
Y108989D01*
Y109004D01*
Y109018D01*
Y109033D01*
Y109048D01*
Y109062D01*
Y109077D01*
Y109092D01*
Y109106D01*
Y109121D01*
Y109136D01*
Y109150D01*
Y109165D01*
Y109180D01*
Y109194D01*
Y109209D01*
Y109224D01*
Y109238D01*
Y109253D01*
Y109268D01*
Y109282D01*
Y109297D01*
Y109312D01*
Y109326D01*
Y109341D01*
Y109356D01*
Y109370D01*
Y109385D01*
Y109400D01*
Y109414D01*
Y109429D01*
Y109444D01*
Y109458D01*
Y109473D01*
Y109488D01*
Y109502D01*
Y109517D01*
Y109531D01*
Y109546D01*
Y109561D01*
Y109575D01*
Y109590D01*
Y109605D01*
Y109619D01*
Y109634D01*
Y109649D01*
Y109663D01*
Y109678D01*
Y109693D01*
Y109707D01*
Y109722D01*
Y109737D01*
Y109751D01*
Y109766D01*
Y109781D01*
Y109795D01*
Y109810D01*
Y109825D01*
Y109839D01*
Y109854D01*
Y109869D01*
Y109883D01*
Y109898D01*
Y109913D01*
Y109927D01*
Y109942D01*
Y109957D01*
Y109971D01*
Y109986D01*
Y110001D01*
Y110015D01*
Y110030D01*
Y110045D01*
Y110059D01*
Y110074D01*
X60011D01*
Y110059D01*
D02*
G37*
G36*
X74056Y110118D02*
X74203D01*
Y110103D01*
X74291D01*
Y110089D01*
X74349D01*
Y110074D01*
X74408D01*
Y110059D01*
X74451D01*
Y110045D01*
X74481D01*
Y110030D01*
X74524D01*
Y110015D01*
X74555D01*
Y110001D01*
X74583D01*
Y109986D01*
X74613D01*
Y109971D01*
X74627D01*
Y109957D01*
X74656D01*
Y109942D01*
X74687D01*
Y109927D01*
X74701D01*
Y109913D01*
X74730D01*
Y109898D01*
X74744D01*
Y109883D01*
X74760D01*
Y109869D01*
X74775D01*
Y109854D01*
X74803D01*
Y109839D01*
X74818D01*
Y109825D01*
X74833D01*
Y109810D01*
X74848D01*
Y109795D01*
X74863D01*
Y109781D01*
X74876D01*
Y109766D01*
X74891D01*
Y109751D01*
X74907D01*
Y109737D01*
X74920D01*
Y109722D01*
X74921D01*
Y109707D01*
X74936D01*
Y109693D01*
X74950D01*
Y109678D01*
X74964D01*
Y109663D01*
X74979D01*
Y109649D01*
X74980D01*
Y109634D01*
X74995D01*
Y109619D01*
X75008D01*
Y109605D01*
Y109590D01*
X75023D01*
Y109575D01*
X75024D01*
Y109561D01*
X75039D01*
Y109546D01*
X75052D01*
Y109531D01*
Y109517D01*
X75067D01*
Y109502D01*
Y109488D01*
X75082D01*
Y109473D01*
Y109458D01*
X75096D01*
Y109444D01*
Y109429D01*
X75097D01*
Y109414D01*
X75111D01*
Y109400D01*
Y109385D01*
X75126D01*
Y109370D01*
Y109356D01*
Y109341D01*
X75140D01*
Y109326D01*
Y109312D01*
Y109297D01*
X75156D01*
Y109282D01*
X75155D01*
Y109268D01*
Y109253D01*
X75170D01*
Y109238D01*
Y109224D01*
Y109209D01*
X75169D01*
Y109194D01*
X75185D01*
Y109180D01*
Y109165D01*
Y109150D01*
Y109136D01*
Y109121D01*
X75200D01*
Y109106D01*
Y109092D01*
X75199D01*
Y109077D01*
Y109062D01*
Y109048D01*
Y109033D01*
X75214D01*
Y109018D01*
Y109004D01*
Y108989D01*
Y108974D01*
Y108960D01*
Y108945D01*
Y108930D01*
Y108916D01*
Y108901D01*
Y108886D01*
Y108872D01*
Y108857D01*
Y108843D01*
X75228D01*
Y108828D01*
Y108813D01*
Y108799D01*
Y108784D01*
Y108769D01*
Y108755D01*
X75214D01*
Y108740D01*
Y108725D01*
Y108711D01*
Y108696D01*
Y108681D01*
Y108667D01*
Y108652D01*
Y108637D01*
Y108623D01*
Y108608D01*
Y108593D01*
Y108579D01*
X75199D01*
Y108564D01*
Y108549D01*
Y108535D01*
Y108520D01*
X75200D01*
Y108505D01*
Y108491D01*
X75185D01*
Y108476D01*
Y108461D01*
Y108447D01*
Y108432D01*
Y108417D01*
X75170D01*
Y108403D01*
Y108388D01*
Y108373D01*
X75155D01*
Y108359D01*
Y108344D01*
X75156D01*
Y108329D01*
Y108315D01*
X75140D01*
Y108300D01*
Y108285D01*
Y108271D01*
X75126D01*
Y108256D01*
Y108241D01*
X75111D01*
Y108227D01*
Y108212D01*
X75112D01*
Y108197D01*
X75096D01*
Y108183D01*
X75097D01*
Y108168D01*
X75082D01*
Y108153D01*
X75082D01*
Y108139D01*
X75067D01*
Y108124D01*
Y108109D01*
X75052D01*
Y108095D01*
X75053D01*
Y108080D01*
X75039D01*
Y108065D01*
X75024D01*
Y108051D01*
X75023D01*
Y108036D01*
X75008D01*
Y108021D01*
Y108007D01*
X74994D01*
Y107992D01*
X74979D01*
Y107977D01*
X74964D01*
Y107963D01*
X74965D01*
Y107948D01*
X74950D01*
Y107933D01*
X74936D01*
Y107919D01*
X74921D01*
Y107904D01*
X74920D01*
Y107889D01*
X74907D01*
Y107875D01*
X74891D01*
Y107860D01*
X74876D01*
Y107845D01*
X74863D01*
Y107831D01*
X74848D01*
Y107816D01*
X74833D01*
Y107801D01*
X74818D01*
Y107787D01*
X74803D01*
Y107772D01*
X74774D01*
Y107757D01*
X74759D01*
Y107743D01*
X74744D01*
Y107728D01*
X74730D01*
Y107714D01*
X74700D01*
Y107699D01*
X74686D01*
Y107684D01*
X74657D01*
Y107670D01*
X74643D01*
Y107655D01*
X74612D01*
Y107640D01*
X74584D01*
Y107626D01*
X74554D01*
Y107611D01*
X74525D01*
Y107596D01*
X74496D01*
Y107582D01*
X74451D01*
Y107567D01*
X74407D01*
Y107552D01*
X74363D01*
Y107538D01*
X74320D01*
Y107523D01*
X74247D01*
Y107508D01*
X74143D01*
Y107494D01*
X73836D01*
Y107508D01*
X73734D01*
Y107523D01*
X73660D01*
Y107538D01*
X73616D01*
Y107552D01*
X73572D01*
Y107567D01*
X73528D01*
Y107582D01*
X73499D01*
Y107596D01*
X73470D01*
Y107611D01*
X73440D01*
Y107626D01*
X73411D01*
Y107640D01*
X73382D01*
Y107655D01*
X73352D01*
Y107670D01*
X73338D01*
Y107684D01*
X73308D01*
Y107699D01*
X73294D01*
Y107714D01*
X73279D01*
Y107728D01*
X73264D01*
Y107743D01*
X73235D01*
Y107757D01*
X73221D01*
Y107772D01*
X73206D01*
Y107787D01*
X73191D01*
Y107801D01*
X73177D01*
Y107816D01*
X73162D01*
Y107831D01*
X73147D01*
Y107845D01*
X73133D01*
Y107860D01*
X73118D01*
Y107875D01*
X73103D01*
Y107889D01*
Y107904D01*
X73089D01*
Y107919D01*
X73074D01*
Y107933D01*
X73059D01*
Y107948D01*
Y107963D01*
X73045D01*
Y107977D01*
X73030D01*
Y107992D01*
X73015D01*
Y108007D01*
Y108021D01*
X73001D01*
Y108036D01*
Y108051D01*
X72986D01*
Y108065D01*
X72971D01*
Y108080D01*
Y108095D01*
X72957D01*
Y108109D01*
Y108124D01*
X72942D01*
Y108139D01*
Y108153D01*
X72927D01*
Y108168D01*
Y108183D01*
X72913D01*
Y108197D01*
Y108212D01*
Y108227D01*
X72898D01*
Y108241D01*
Y108256D01*
X72883D01*
Y108271D01*
Y108285D01*
Y108300D01*
X72869D01*
Y108315D01*
Y108329D01*
Y108344D01*
X72854D01*
Y108359D01*
Y108373D01*
Y108388D01*
Y108403D01*
X72839D01*
Y108417D01*
Y108432D01*
Y108447D01*
Y108461D01*
X72825D01*
Y108476D01*
Y108491D01*
Y108505D01*
Y108520D01*
Y108535D01*
Y108549D01*
X72810D01*
Y108564D01*
Y108579D01*
Y108593D01*
Y108608D01*
Y108623D01*
Y108637D01*
Y108652D01*
Y108667D01*
Y108681D01*
Y108696D01*
Y108711D01*
X72795D01*
Y108725D01*
Y108740D01*
Y108755D01*
Y108769D01*
Y108784D01*
Y108799D01*
Y108813D01*
Y108828D01*
Y108843D01*
Y108857D01*
Y108872D01*
Y108886D01*
Y108901D01*
Y108916D01*
Y108930D01*
X72810D01*
Y108945D01*
Y108960D01*
Y108974D01*
Y108989D01*
Y109004D01*
Y109018D01*
Y109033D01*
Y109048D01*
Y109062D01*
Y109077D01*
X72825D01*
Y109092D01*
Y109106D01*
Y109121D01*
Y109136D01*
Y109150D01*
Y109165D01*
X72839D01*
Y109180D01*
Y109194D01*
Y109209D01*
Y109224D01*
X72854D01*
Y109238D01*
Y109253D01*
Y109268D01*
Y109282D01*
X72869D01*
Y109297D01*
Y109312D01*
Y109326D01*
X72883D01*
Y109341D01*
Y109356D01*
Y109370D01*
X72898D01*
Y109385D01*
Y109400D01*
X72913D01*
Y109414D01*
Y109429D01*
Y109444D01*
X72927D01*
Y109458D01*
Y109473D01*
X72942D01*
Y109488D01*
Y109502D01*
X72957D01*
Y109517D01*
Y109531D01*
X72971D01*
Y109546D01*
Y109561D01*
X72986D01*
Y109575D01*
Y109590D01*
X73001D01*
Y109605D01*
X73015D01*
Y109619D01*
Y109634D01*
X73030D01*
Y109649D01*
X73045D01*
Y109663D01*
Y109678D01*
X73059D01*
Y109693D01*
X73074D01*
Y109707D01*
X73089D01*
Y109722D01*
X73103D01*
Y109737D01*
Y109751D01*
X73118D01*
Y109766D01*
X73133D01*
Y109781D01*
X73147D01*
Y109795D01*
X73162D01*
Y109810D01*
X73177D01*
Y109825D01*
X73191D01*
Y109839D01*
X73206D01*
Y109854D01*
X73235D01*
Y109869D01*
X73250D01*
Y109883D01*
X73264D01*
Y109898D01*
X73279D01*
Y109913D01*
X73308D01*
Y109927D01*
X73323D01*
Y109942D01*
X73352D01*
Y109957D01*
X73367D01*
Y109971D01*
X73396D01*
Y109986D01*
X73426D01*
Y110001D01*
X73455D01*
Y110015D01*
X73484D01*
Y110030D01*
X73528D01*
Y110045D01*
X73558D01*
Y110059D01*
X73602D01*
Y110074D01*
X73646D01*
Y110089D01*
X73704D01*
Y110103D01*
X73792D01*
Y110118D01*
X73939D01*
Y110133D01*
X74056D01*
Y110118D01*
D02*
G37*
G36*
X58530Y110719D02*
Y110704D01*
X58529D01*
Y110690D01*
Y110675D01*
Y110660D01*
Y110646D01*
Y110631D01*
Y110617D01*
Y110602D01*
Y110587D01*
Y110573D01*
Y110558D01*
Y110543D01*
Y110529D01*
Y110514D01*
Y110499D01*
Y110485D01*
Y110470D01*
Y110455D01*
Y110441D01*
Y110426D01*
Y110411D01*
Y110397D01*
Y110382D01*
Y110367D01*
Y110353D01*
Y110338D01*
Y110323D01*
Y110309D01*
Y110294D01*
Y110279D01*
Y110265D01*
Y110250D01*
Y110235D01*
Y110221D01*
Y110206D01*
Y110191D01*
Y110177D01*
Y110162D01*
Y110147D01*
Y110133D01*
Y110118D01*
Y110103D01*
Y110089D01*
Y110074D01*
X59130D01*
Y110059D01*
Y110045D01*
Y110030D01*
Y110015D01*
Y110001D01*
Y109986D01*
Y109971D01*
Y109957D01*
Y109942D01*
Y109927D01*
Y109913D01*
Y109898D01*
Y109883D01*
Y109869D01*
Y109854D01*
Y109839D01*
X58530D01*
Y109825D01*
Y109810D01*
Y109795D01*
Y109781D01*
Y109766D01*
Y109751D01*
Y109737D01*
Y109722D01*
Y109707D01*
Y109693D01*
Y109678D01*
Y109663D01*
Y109649D01*
Y109634D01*
Y109619D01*
Y109605D01*
Y109590D01*
Y109575D01*
Y109561D01*
Y109546D01*
Y109531D01*
Y109517D01*
Y109502D01*
Y109488D01*
Y109473D01*
Y109458D01*
Y109444D01*
Y109429D01*
Y109414D01*
Y109400D01*
Y109385D01*
Y109370D01*
Y109356D01*
Y109341D01*
Y109326D01*
Y109312D01*
Y109297D01*
Y109282D01*
Y109268D01*
Y109253D01*
Y109238D01*
Y109224D01*
Y109209D01*
Y109194D01*
Y109180D01*
Y109165D01*
Y109150D01*
Y109136D01*
Y109121D01*
Y109106D01*
Y109092D01*
Y109077D01*
Y109062D01*
Y109048D01*
Y109033D01*
Y109018D01*
Y109004D01*
Y108989D01*
Y108974D01*
Y108960D01*
Y108945D01*
Y108930D01*
Y108916D01*
Y108901D01*
Y108886D01*
Y108872D01*
Y108857D01*
Y108843D01*
Y108828D01*
Y108813D01*
Y108799D01*
Y108784D01*
Y108769D01*
Y108755D01*
Y108740D01*
Y108725D01*
Y108711D01*
Y108696D01*
Y108681D01*
Y108667D01*
Y108652D01*
Y108637D01*
Y108623D01*
Y108608D01*
Y108593D01*
Y108579D01*
Y108564D01*
Y108549D01*
Y108535D01*
Y108520D01*
Y108505D01*
Y108491D01*
Y108476D01*
Y108461D01*
Y108447D01*
Y108432D01*
Y108417D01*
Y108403D01*
Y108388D01*
Y108373D01*
Y108359D01*
Y108344D01*
Y108329D01*
Y108315D01*
Y108300D01*
Y108285D01*
Y108271D01*
Y108256D01*
Y108241D01*
Y108227D01*
Y108212D01*
Y108197D01*
Y108183D01*
Y108168D01*
Y108153D01*
Y108139D01*
X58544D01*
Y108124D01*
Y108109D01*
X58545D01*
Y108095D01*
Y108080D01*
Y108065D01*
Y108051D01*
Y108036D01*
Y108021D01*
X58559D01*
Y108007D01*
Y107992D01*
Y107977D01*
Y107963D01*
X58573D01*
Y107948D01*
Y107933D01*
X58574D01*
Y107919D01*
X58588D01*
Y107904D01*
Y107889D01*
X58602D01*
Y107875D01*
Y107860D01*
X58618D01*
Y107845D01*
X58632D01*
Y107831D01*
X58647D01*
Y107816D01*
X58662D01*
Y107801D01*
X58676D01*
Y107787D01*
X58691D01*
Y107772D01*
X58720D01*
Y107757D01*
X58750D01*
Y107743D01*
X58778D01*
Y107728D01*
X58838D01*
Y107714D01*
X59219D01*
Y107728D01*
X59292D01*
Y107714D01*
X59291D01*
Y107699D01*
Y107684D01*
X59292D01*
Y107670D01*
Y107655D01*
X59291D01*
Y107640D01*
X59292D01*
Y107626D01*
X59291D01*
Y107611D01*
X59292D01*
Y107596D01*
Y107582D01*
Y107567D01*
X59291D01*
Y107552D01*
X59292D01*
Y107538D01*
Y107523D01*
Y107508D01*
X59291D01*
Y107494D01*
X59205D01*
Y107479D01*
X59058D01*
Y107464D01*
X58838D01*
Y107479D01*
X58735D01*
Y107494D01*
X58677D01*
Y107508D01*
X58633D01*
Y107523D01*
X58589D01*
Y107538D01*
X58559D01*
Y107552D01*
X58530D01*
Y107567D01*
X58515D01*
Y107582D01*
X58486D01*
Y107596D01*
X58471D01*
Y107611D01*
X58457D01*
Y107626D01*
X58442D01*
Y107640D01*
X58427D01*
Y107655D01*
X58413D01*
Y107670D01*
X58398D01*
Y107684D01*
X58384D01*
Y107699D01*
Y107714D01*
X58369D01*
Y107728D01*
X58354D01*
Y107743D01*
Y107757D01*
X58340D01*
Y107772D01*
Y107787D01*
X58325D01*
Y107801D01*
Y107816D01*
X58310D01*
Y107831D01*
Y107845D01*
X58294D01*
Y107860D01*
Y107875D01*
Y107889D01*
X58281D01*
Y107904D01*
Y107919D01*
Y107933D01*
X58266D01*
Y107948D01*
Y107963D01*
Y107977D01*
Y107992D01*
Y108007D01*
X58252D01*
Y108021D01*
Y108036D01*
Y108051D01*
Y108065D01*
Y108080D01*
Y108095D01*
Y108109D01*
X58237D01*
Y108124D01*
Y108139D01*
Y108153D01*
Y108168D01*
Y108183D01*
Y108197D01*
Y108212D01*
Y108227D01*
Y108241D01*
Y108256D01*
Y108271D01*
Y108285D01*
Y108300D01*
Y108315D01*
Y108329D01*
Y108344D01*
Y108359D01*
Y108373D01*
Y108388D01*
Y108403D01*
Y108417D01*
Y108432D01*
Y108447D01*
Y108461D01*
Y108476D01*
Y108491D01*
Y108505D01*
Y108520D01*
Y108535D01*
Y108549D01*
Y108564D01*
Y108579D01*
Y108593D01*
Y108608D01*
Y108623D01*
Y108637D01*
Y108652D01*
Y108667D01*
Y108681D01*
Y108696D01*
Y108711D01*
Y108725D01*
Y108740D01*
Y108755D01*
Y108769D01*
Y108784D01*
Y108799D01*
Y108813D01*
Y108828D01*
Y108843D01*
Y108857D01*
Y108872D01*
Y108886D01*
Y108901D01*
Y108916D01*
Y108930D01*
Y108945D01*
Y108960D01*
Y108974D01*
Y108989D01*
Y109004D01*
Y109018D01*
Y109033D01*
Y109048D01*
Y109062D01*
Y109077D01*
Y109092D01*
Y109106D01*
Y109121D01*
Y109136D01*
Y109150D01*
Y109165D01*
Y109180D01*
Y109194D01*
Y109209D01*
Y109224D01*
Y109238D01*
Y109253D01*
Y109268D01*
Y109282D01*
Y109297D01*
Y109312D01*
Y109326D01*
Y109341D01*
Y109356D01*
Y109370D01*
Y109385D01*
Y109400D01*
Y109414D01*
Y109429D01*
Y109444D01*
Y109458D01*
Y109473D01*
Y109488D01*
Y109502D01*
Y109517D01*
Y109531D01*
Y109546D01*
Y109561D01*
Y109575D01*
Y109590D01*
Y109605D01*
Y109619D01*
Y109634D01*
Y109649D01*
Y109663D01*
Y109678D01*
Y109693D01*
Y109707D01*
Y109722D01*
Y109737D01*
Y109751D01*
Y109766D01*
Y109781D01*
Y109795D01*
Y109810D01*
Y109825D01*
Y109839D01*
X57724D01*
Y109854D01*
Y109869D01*
Y109883D01*
Y109898D01*
Y109913D01*
Y109927D01*
Y109942D01*
Y109957D01*
Y109971D01*
Y109986D01*
Y110001D01*
Y110015D01*
Y110030D01*
Y110045D01*
Y110059D01*
Y110074D01*
X58221D01*
Y110089D01*
Y110103D01*
Y110118D01*
Y110133D01*
Y110147D01*
Y110162D01*
Y110177D01*
Y110191D01*
Y110206D01*
Y110221D01*
Y110235D01*
Y110250D01*
Y110265D01*
Y110279D01*
Y110294D01*
Y110309D01*
Y110323D01*
Y110338D01*
Y110353D01*
Y110367D01*
Y110382D01*
Y110397D01*
Y110411D01*
Y110426D01*
Y110441D01*
Y110455D01*
Y110470D01*
Y110485D01*
Y110499D01*
Y110514D01*
Y110529D01*
Y110543D01*
Y110558D01*
Y110573D01*
Y110587D01*
Y110602D01*
Y110617D01*
Y110631D01*
Y110646D01*
Y110660D01*
Y110675D01*
Y110690D01*
Y110704D01*
X58310D01*
Y110719D01*
X58457D01*
Y110734D01*
X58530D01*
Y110719D01*
D02*
G37*
G36*
X52507Y98209D02*
X51507D01*
X52007Y99409D01*
X52507Y98209D01*
D02*
G37*
G36*
X64010Y52288D02*
X62110Y53488D01*
X63010Y54288D01*
X64010Y52288D01*
D02*
G37*
G36*
Y38327D02*
X62110Y39527D01*
X63010Y40327D01*
X64010Y38327D01*
D02*
G37*
G36*
X74159Y64638D02*
X60852D01*
Y70936D01*
X74159D01*
Y64638D01*
D02*
G37*
G36*
X35685Y117362D02*
X35745Y117352D01*
X35819Y117339D01*
X35902Y117315D01*
X35985Y117288D01*
X36068Y117251D01*
X36073D01*
X36077Y117246D01*
X36105Y117232D01*
X36147Y117205D01*
X36193Y117172D01*
X36248Y117126D01*
X36304Y117075D01*
X36359Y117015D01*
X36406Y116946D01*
X36410Y116937D01*
X36424Y116914D01*
X36443Y116872D01*
X36466Y116821D01*
X36489Y116761D01*
X36507Y116692D01*
X36521Y116613D01*
X36526Y116535D01*
Y116525D01*
Y116498D01*
X36521Y116461D01*
X36512Y116410D01*
X36498Y116350D01*
X36475Y116285D01*
X36447Y116221D01*
X36410Y116156D01*
X36406Y116147D01*
X36392Y116128D01*
X36364Y116096D01*
X36327Y116059D01*
X36281Y116017D01*
X36225Y115971D01*
X36161Y115929D01*
X36082Y115888D01*
X36087D01*
X36096Y115883D01*
X36110Y115879D01*
X36128Y115874D01*
X36179Y115856D01*
X36244Y115828D01*
X36318Y115791D01*
X36392Y115745D01*
X36461Y115685D01*
X36526Y115615D01*
X36530Y115606D01*
X36549Y115578D01*
X36577Y115532D01*
X36604Y115472D01*
X36632Y115398D01*
X36660Y115310D01*
X36678Y115209D01*
X36683Y115098D01*
Y115093D01*
Y115079D01*
Y115056D01*
X36678Y115029D01*
X36674Y114992D01*
X36664Y114950D01*
X36655Y114904D01*
X36646Y114853D01*
X36609Y114742D01*
X36581Y114682D01*
X36553Y114627D01*
X36516Y114567D01*
X36475Y114507D01*
X36429Y114446D01*
X36373Y114391D01*
X36369Y114386D01*
X36359Y114377D01*
X36341Y114363D01*
X36318Y114345D01*
X36290Y114322D01*
X36253Y114299D01*
X36211Y114271D01*
X36161Y114248D01*
X36110Y114220D01*
X36050Y114192D01*
X35990Y114169D01*
X35920Y114146D01*
X35846Y114128D01*
X35768Y114114D01*
X35689Y114105D01*
X35602Y114100D01*
X35560D01*
X35532Y114105D01*
X35495Y114109D01*
X35454Y114114D01*
X35408Y114123D01*
X35357Y114132D01*
X35246Y114160D01*
X35130Y114206D01*
X35070Y114234D01*
X35015Y114266D01*
X34960Y114308D01*
X34904Y114349D01*
X34899Y114354D01*
X34890Y114363D01*
X34876Y114377D01*
X34863Y114396D01*
X34839Y114419D01*
X34816Y114451D01*
X34789Y114483D01*
X34761Y114525D01*
X34733Y114571D01*
X34705Y114617D01*
X34655Y114728D01*
X34613Y114858D01*
X34599Y114927D01*
X34590Y115001D01*
X34983Y115052D01*
Y115047D01*
X34987Y115038D01*
X34992Y115019D01*
X34996Y114996D01*
X35001Y114969D01*
X35010Y114936D01*
X35033Y114867D01*
X35066Y114784D01*
X35107Y114705D01*
X35153Y114631D01*
X35209Y114567D01*
X35218Y114562D01*
X35237Y114543D01*
X35274Y114520D01*
X35320Y114497D01*
X35375Y114470D01*
X35445Y114446D01*
X35523Y114428D01*
X35606Y114423D01*
X35634D01*
X35653Y114428D01*
X35703Y114433D01*
X35768Y114446D01*
X35842Y114470D01*
X35920Y114502D01*
X35999Y114548D01*
X36073Y114613D01*
X36082Y114622D01*
X36105Y114650D01*
X36133Y114691D01*
X36170Y114747D01*
X36207Y114816D01*
X36235Y114895D01*
X36258Y114987D01*
X36267Y115089D01*
Y115093D01*
Y115103D01*
Y115116D01*
X36262Y115135D01*
X36258Y115186D01*
X36244Y115246D01*
X36225Y115320D01*
X36193Y115394D01*
X36147Y115468D01*
X36087Y115537D01*
X36077Y115546D01*
X36054Y115565D01*
X36018Y115592D01*
X35967Y115625D01*
X35902Y115657D01*
X35823Y115685D01*
X35736Y115703D01*
X35639Y115712D01*
X35597D01*
X35565Y115708D01*
X35523Y115703D01*
X35477Y115694D01*
X35421Y115685D01*
X35361Y115671D01*
X35408Y116017D01*
X35431D01*
X35449Y116013D01*
X35509D01*
X35560Y116022D01*
X35620Y116031D01*
X35689Y116045D01*
X35768Y116068D01*
X35842Y116101D01*
X35920Y116142D01*
X35925D01*
X35930Y116147D01*
X35953Y116165D01*
X35985Y116198D01*
X36022Y116239D01*
X36059Y116299D01*
X36091Y116368D01*
X36114Y116447D01*
X36124Y116493D01*
Y116544D01*
Y116549D01*
Y116553D01*
Y116581D01*
X36114Y116618D01*
X36105Y116669D01*
X36087Y116724D01*
X36064Y116784D01*
X36027Y116844D01*
X35976Y116900D01*
X35971Y116904D01*
X35948Y116923D01*
X35916Y116946D01*
X35874Y116974D01*
X35819Y116997D01*
X35754Y117020D01*
X35680Y117038D01*
X35597Y117043D01*
X35560D01*
X35519Y117034D01*
X35463Y117025D01*
X35403Y117006D01*
X35343Y116983D01*
X35278Y116946D01*
X35218Y116900D01*
X35214Y116895D01*
X35195Y116872D01*
X35167Y116840D01*
X35135Y116794D01*
X35103Y116733D01*
X35070Y116659D01*
X35043Y116572D01*
X35024Y116470D01*
X34631Y116539D01*
Y116544D01*
X34636Y116558D01*
X34641Y116576D01*
X34645Y116604D01*
X34655Y116636D01*
X34668Y116673D01*
X34696Y116761D01*
X34742Y116863D01*
X34798Y116964D01*
X34867Y117061D01*
X34955Y117149D01*
X34960Y117154D01*
X34969Y117158D01*
X34983Y117168D01*
X35001Y117182D01*
X35024Y117200D01*
X35056Y117218D01*
X35089Y117237D01*
X35130Y117260D01*
X35223Y117297D01*
X35329Y117334D01*
X35454Y117357D01*
X35519Y117366D01*
X35634D01*
X35685Y117362D01*
D02*
G37*
G36*
X33578Y114155D02*
X33185D01*
Y116655D01*
X33181Y116650D01*
X33158Y116632D01*
X33130Y116604D01*
X33084Y116572D01*
X33033Y116530D01*
X32968Y116484D01*
X32894Y116433D01*
X32811Y116382D01*
X32807D01*
X32802Y116378D01*
X32774Y116359D01*
X32728Y116336D01*
X32673Y116308D01*
X32608Y116276D01*
X32539Y116244D01*
X32469Y116211D01*
X32400Y116184D01*
Y116562D01*
X32405D01*
X32414Y116572D01*
X32432Y116576D01*
X32455Y116590D01*
X32483Y116604D01*
X32515Y116622D01*
X32594Y116669D01*
X32686Y116719D01*
X32779Y116784D01*
X32876Y116858D01*
X32973Y116937D01*
X32978Y116941D01*
X32982Y116946D01*
X32996Y116960D01*
X33015Y116974D01*
X33056Y117020D01*
X33112Y117075D01*
X33167Y117140D01*
X33227Y117214D01*
X33278Y117288D01*
X33324Y117366D01*
X33578D01*
Y114155D01*
D02*
G37*
G36*
X53890Y115827D02*
X54325D01*
Y115467D01*
X53890D01*
Y114700D01*
X53498D01*
Y115467D01*
X52107D01*
Y115827D01*
X53572Y117897D01*
X53890D01*
Y115827D01*
D02*
G37*
G36*
X50892Y117906D02*
X50929Y117902D01*
X50975Y117897D01*
X51026Y117888D01*
X51077Y117879D01*
X51197Y117846D01*
X51317Y117800D01*
X51377Y117772D01*
X51437Y117740D01*
X51493Y117698D01*
X51543Y117652D01*
X51548Y117648D01*
X51557Y117643D01*
X51566Y117624D01*
X51585Y117606D01*
X51608Y117583D01*
X51631Y117551D01*
X51654Y117518D01*
X51682Y117477D01*
X51728Y117389D01*
X51774Y117278D01*
X51793Y117222D01*
X51802Y117158D01*
X51811Y117093D01*
X51816Y117024D01*
Y117015D01*
Y116991D01*
X51811Y116955D01*
X51807Y116904D01*
X51797Y116848D01*
X51779Y116784D01*
X51761Y116714D01*
X51733Y116645D01*
X51728Y116636D01*
X51719Y116613D01*
X51701Y116576D01*
X51673Y116525D01*
X51636Y116470D01*
X51590Y116400D01*
X51534Y116331D01*
X51469Y116252D01*
X51460Y116243D01*
X51437Y116215D01*
X51414Y116192D01*
X51391Y116169D01*
X51363Y116141D01*
X51326Y116104D01*
X51289Y116068D01*
X51243Y116026D01*
X51197Y115980D01*
X51141Y115929D01*
X51081Y115878D01*
X51017Y115818D01*
X50943Y115758D01*
X50869Y115693D01*
X50864Y115689D01*
X50855Y115679D01*
X50836Y115666D01*
X50813Y115647D01*
X50786Y115619D01*
X50753Y115592D01*
X50679Y115532D01*
X50601Y115462D01*
X50527Y115393D01*
X50462Y115333D01*
X50435Y115310D01*
X50411Y115287D01*
X50407Y115282D01*
X50393Y115268D01*
X50375Y115250D01*
X50351Y115222D01*
X50328Y115190D01*
X50301Y115157D01*
X50245Y115079D01*
X51821D01*
Y114700D01*
X49700D01*
Y114705D01*
Y114723D01*
Y114751D01*
X49705Y114788D01*
X49709Y114829D01*
X49718Y114876D01*
X49728Y114922D01*
X49746Y114973D01*
Y114977D01*
X49751Y114982D01*
X49760Y115009D01*
X49779Y115051D01*
X49806Y115107D01*
X49843Y115171D01*
X49889Y115245D01*
X49940Y115319D01*
X50005Y115398D01*
Y115402D01*
X50014Y115407D01*
X50037Y115435D01*
X50079Y115476D01*
X50139Y115536D01*
X50208Y115605D01*
X50296Y115689D01*
X50402Y115781D01*
X50518Y115878D01*
X50522Y115883D01*
X50541Y115897D01*
X50569Y115920D01*
X50601Y115947D01*
X50643Y115984D01*
X50693Y116026D01*
X50744Y116072D01*
X50804Y116123D01*
X50920Y116234D01*
X51035Y116345D01*
X51091Y116400D01*
X51141Y116456D01*
X51188Y116506D01*
X51225Y116557D01*
Y116562D01*
X51234Y116567D01*
X51243Y116580D01*
X51252Y116599D01*
X51285Y116650D01*
X51322Y116710D01*
X51354Y116784D01*
X51386Y116862D01*
X51405Y116950D01*
X51414Y117033D01*
Y117038D01*
Y117042D01*
X51409Y117070D01*
X51405Y117116D01*
X51391Y117167D01*
X51372Y117232D01*
X51340Y117296D01*
X51298Y117361D01*
X51243Y117426D01*
X51234Y117435D01*
X51211Y117454D01*
X51178Y117477D01*
X51128Y117509D01*
X51063Y117537D01*
X50989Y117564D01*
X50901Y117583D01*
X50804Y117587D01*
X50776D01*
X50758Y117583D01*
X50703Y117578D01*
X50638Y117564D01*
X50569Y117546D01*
X50490Y117514D01*
X50416Y117472D01*
X50347Y117417D01*
X50338Y117407D01*
X50319Y117384D01*
X50291Y117347D01*
X50264Y117292D01*
X50231Y117227D01*
X50204Y117144D01*
X50185Y117052D01*
X50176Y116945D01*
X49774Y116987D01*
Y116991D01*
X49779Y117005D01*
Y117028D01*
X49783Y117061D01*
X49792Y117098D01*
X49802Y117139D01*
X49815Y117190D01*
X49829Y117241D01*
X49866Y117352D01*
X49922Y117463D01*
X49954Y117518D01*
X49996Y117574D01*
X50037Y117624D01*
X50084Y117671D01*
X50088Y117675D01*
X50097Y117680D01*
X50111Y117694D01*
X50134Y117708D01*
X50162Y117726D01*
X50194Y117745D01*
X50231Y117768D01*
X50278Y117791D01*
X50328Y117814D01*
X50384Y117837D01*
X50444Y117856D01*
X50508Y117874D01*
X50578Y117888D01*
X50652Y117902D01*
X50730Y117906D01*
X50813Y117911D01*
X50860D01*
X50892Y117906D01*
D02*
G37*
G36*
X27722Y102406D02*
X27759Y102402D01*
X27805Y102397D01*
X27856Y102388D01*
X27907Y102379D01*
X28027Y102346D01*
X28147Y102300D01*
X28207Y102272D01*
X28267Y102240D01*
X28322Y102198D01*
X28373Y102152D01*
X28378Y102148D01*
X28387Y102143D01*
X28396Y102125D01*
X28415Y102106D01*
X28438Y102083D01*
X28461Y102050D01*
X28484Y102018D01*
X28512Y101977D01*
X28558Y101889D01*
X28604Y101778D01*
X28623Y101723D01*
X28632Y101658D01*
X28641Y101593D01*
X28646Y101524D01*
Y101515D01*
Y101491D01*
X28641Y101455D01*
X28637Y101404D01*
X28627Y101348D01*
X28609Y101284D01*
X28590Y101214D01*
X28563Y101145D01*
X28558Y101136D01*
X28549Y101113D01*
X28530Y101076D01*
X28503Y101025D01*
X28466Y100970D01*
X28419Y100900D01*
X28364Y100831D01*
X28299Y100752D01*
X28290Y100743D01*
X28267Y100715D01*
X28244Y100692D01*
X28221Y100669D01*
X28193Y100641D01*
X28156Y100604D01*
X28119Y100567D01*
X28073Y100526D01*
X28027Y100480D01*
X27971Y100429D01*
X27911Y100378D01*
X27847Y100318D01*
X27773Y100258D01*
X27699Y100193D01*
X27694Y100189D01*
X27685Y100179D01*
X27666Y100166D01*
X27643Y100147D01*
X27615Y100119D01*
X27583Y100092D01*
X27509Y100032D01*
X27431Y99962D01*
X27357Y99893D01*
X27292Y99833D01*
X27264Y99810D01*
X27241Y99787D01*
X27237Y99782D01*
X27223Y99768D01*
X27204Y99750D01*
X27181Y99722D01*
X27158Y99690D01*
X27130Y99657D01*
X27075Y99579D01*
X28650D01*
Y99200D01*
X26530D01*
Y99205D01*
Y99223D01*
Y99251D01*
X26534Y99288D01*
X26539Y99329D01*
X26548Y99376D01*
X26557Y99422D01*
X26576Y99473D01*
Y99477D01*
X26581Y99482D01*
X26590Y99510D01*
X26608Y99551D01*
X26636Y99607D01*
X26673Y99671D01*
X26719Y99745D01*
X26770Y99819D01*
X26835Y99898D01*
Y99902D01*
X26844Y99907D01*
X26867Y99935D01*
X26909Y99976D01*
X26969Y100036D01*
X27038Y100106D01*
X27126Y100189D01*
X27232Y100281D01*
X27348Y100378D01*
X27352Y100383D01*
X27371Y100397D01*
X27398Y100420D01*
X27431Y100447D01*
X27472Y100484D01*
X27523Y100526D01*
X27574Y100572D01*
X27634Y100623D01*
X27749Y100734D01*
X27865Y100845D01*
X27920Y100900D01*
X27971Y100956D01*
X28018Y101006D01*
X28054Y101057D01*
Y101062D01*
X28064Y101067D01*
X28073Y101080D01*
X28082Y101099D01*
X28115Y101150D01*
X28151Y101210D01*
X28184Y101284D01*
X28216Y101362D01*
X28235Y101450D01*
X28244Y101533D01*
Y101538D01*
Y101542D01*
X28239Y101570D01*
X28235Y101616D01*
X28221Y101667D01*
X28202Y101732D01*
X28170Y101796D01*
X28128Y101861D01*
X28073Y101926D01*
X28064Y101935D01*
X28041Y101953D01*
X28008Y101977D01*
X27957Y102009D01*
X27893Y102037D01*
X27819Y102064D01*
X27731Y102083D01*
X27634Y102087D01*
X27606D01*
X27588Y102083D01*
X27532Y102078D01*
X27468Y102064D01*
X27398Y102046D01*
X27320Y102014D01*
X27246Y101972D01*
X27177Y101917D01*
X27167Y101907D01*
X27149Y101884D01*
X27121Y101847D01*
X27093Y101792D01*
X27061Y101727D01*
X27033Y101644D01*
X27015Y101552D01*
X27006Y101445D01*
X26604Y101487D01*
Y101491D01*
X26608Y101505D01*
Y101529D01*
X26613Y101561D01*
X26622Y101598D01*
X26632Y101639D01*
X26645Y101690D01*
X26659Y101741D01*
X26696Y101852D01*
X26752Y101963D01*
X26784Y102018D01*
X26825Y102074D01*
X26867Y102125D01*
X26913Y102171D01*
X26918Y102175D01*
X26927Y102180D01*
X26941Y102194D01*
X26964Y102208D01*
X26992Y102226D01*
X27024Y102245D01*
X27061Y102268D01*
X27107Y102291D01*
X27158Y102314D01*
X27214Y102337D01*
X27274Y102356D01*
X27338Y102374D01*
X27408Y102388D01*
X27481Y102402D01*
X27560Y102406D01*
X27643Y102411D01*
X27689D01*
X27722Y102406D01*
D02*
G37*
G36*
X25578Y99200D02*
X25185D01*
Y101699D01*
X25181Y101695D01*
X25158Y101676D01*
X25130Y101649D01*
X25084Y101616D01*
X25033Y101575D01*
X24968Y101529D01*
X24894Y101478D01*
X24811Y101427D01*
X24807D01*
X24802Y101422D01*
X24774Y101404D01*
X24728Y101381D01*
X24673Y101353D01*
X24608Y101321D01*
X24539Y101288D01*
X24469Y101256D01*
X24400Y101228D01*
Y101607D01*
X24405D01*
X24414Y101616D01*
X24432Y101621D01*
X24455Y101635D01*
X24483Y101649D01*
X24516Y101667D01*
X24594Y101713D01*
X24686Y101764D01*
X24779Y101829D01*
X24876Y101903D01*
X24973Y101981D01*
X24978Y101986D01*
X24982Y101990D01*
X24996Y102004D01*
X25014Y102018D01*
X25056Y102064D01*
X25111Y102120D01*
X25167Y102184D01*
X25227Y102258D01*
X25278Y102332D01*
X25324Y102411D01*
X25578D01*
Y99200D01*
D02*
G37*
G36*
X60078Y99800D02*
X59685D01*
Y102299D01*
X59681Y102295D01*
X59658Y102276D01*
X59630Y102249D01*
X59584Y102216D01*
X59533Y102175D01*
X59468Y102129D01*
X59394Y102078D01*
X59311Y102027D01*
X59307D01*
X59302Y102022D01*
X59274Y102004D01*
X59228Y101981D01*
X59173Y101953D01*
X59108Y101921D01*
X59039Y101888D01*
X58969Y101856D01*
X58900Y101828D01*
Y102207D01*
X58905D01*
X58914Y102216D01*
X58932Y102221D01*
X58955Y102235D01*
X58983Y102249D01*
X59016Y102267D01*
X59094Y102313D01*
X59186Y102364D01*
X59279Y102429D01*
X59376Y102503D01*
X59473Y102581D01*
X59478Y102586D01*
X59482Y102591D01*
X59496Y102604D01*
X59514Y102618D01*
X59556Y102664D01*
X59611Y102720D01*
X59667Y102785D01*
X59727Y102858D01*
X59778Y102932D01*
X59824Y103011D01*
X60078D01*
Y99800D01*
D02*
G37*
%LPC*%
G36*
X68660Y119222D02*
X68629D01*
Y119191D01*
X68660D01*
Y119159D01*
X68692D01*
Y119127D01*
Y119095D01*
X68724D01*
Y119063D01*
X68756D01*
Y119031D01*
Y119000D01*
X68788D01*
Y118968D01*
X68820D01*
Y118936D01*
Y118904D01*
X68851D01*
Y118872D01*
Y118840D01*
X68883D01*
Y118808D01*
Y118777D01*
X68915D01*
Y118745D01*
X68947D01*
Y118713D01*
Y118681D01*
X68979D01*
Y118649D01*
Y118617D01*
X69011D01*
Y118586D01*
Y118554D01*
X69042D01*
Y118522D01*
Y118490D01*
X69074D01*
Y118458D01*
Y118426D01*
Y118394D01*
X69106D01*
Y118363D01*
Y118331D01*
X69138D01*
Y118299D01*
Y118267D01*
X69170D01*
Y118235D01*
Y118203D01*
Y118172D01*
X69202D01*
Y118140D01*
Y118108D01*
Y118076D01*
X69234D01*
Y118044D01*
Y118012D01*
Y117981D01*
X69265D01*
Y117949D01*
Y117917D01*
Y117885D01*
X69297D01*
Y117853D01*
Y117821D01*
Y117789D01*
Y117758D01*
X69329D01*
Y117726D01*
Y117694D01*
Y117662D01*
Y117630D01*
X69361D01*
Y117598D01*
Y117567D01*
Y117535D01*
Y117503D01*
Y117471D01*
X69393D01*
Y117439D01*
Y117407D01*
Y117375D01*
Y117344D01*
Y117312D01*
Y117280D01*
X69425D01*
Y117248D01*
Y117216D01*
Y117184D01*
Y117153D01*
Y117121D01*
Y117089D01*
Y117057D01*
Y117025D01*
Y116993D01*
X69456D01*
Y116962D01*
Y116930D01*
Y116898D01*
Y116866D01*
Y116834D01*
Y116802D01*
Y116770D01*
Y116739D01*
Y116707D01*
Y116675D01*
Y116643D01*
Y116611D01*
Y116579D01*
Y116548D01*
Y116516D01*
Y116484D01*
Y116452D01*
Y116420D01*
Y116388D01*
X69425D01*
Y116356D01*
Y116325D01*
Y116293D01*
Y116261D01*
Y116229D01*
Y116197D01*
Y116165D01*
Y116133D01*
Y116102D01*
X69393D01*
Y116070D01*
Y116038D01*
Y116006D01*
Y115974D01*
Y115943D01*
Y115911D01*
X69361D01*
Y115879D01*
Y115847D01*
Y115815D01*
Y115783D01*
Y115751D01*
X69329D01*
Y115720D01*
Y115688D01*
Y115656D01*
Y115624D01*
X69297D01*
Y115592D01*
Y115560D01*
Y115529D01*
Y115497D01*
X69265D01*
Y115465D01*
Y115433D01*
Y115401D01*
X69234D01*
Y115369D01*
Y115337D01*
Y115306D01*
X69202D01*
Y115274D01*
Y115242D01*
Y115210D01*
X69170D01*
Y115178D01*
Y115146D01*
Y115114D01*
X69138D01*
Y115083D01*
Y115051D01*
X69106D01*
Y115019D01*
Y114987D01*
X69074D01*
Y114955D01*
Y114924D01*
Y114892D01*
X69042D01*
Y114860D01*
Y114828D01*
X69011D01*
Y114796D01*
Y114764D01*
X68979D01*
Y114732D01*
Y114701D01*
X68947D01*
Y114669D01*
Y114637D01*
X68915D01*
Y114605D01*
X68883D01*
Y114573D01*
Y114541D01*
X68851D01*
Y114509D01*
Y114478D01*
X68820D01*
Y114446D01*
X68788D01*
Y114414D01*
Y114382D01*
X68756D01*
Y114350D01*
Y114318D01*
X68724D01*
Y114287D01*
X68692D01*
Y114255D01*
Y114223D01*
X68660D01*
Y114191D01*
X68629D01*
Y114159D01*
X68597D01*
Y114127D01*
Y114095D01*
X68565D01*
Y114064D01*
X68629D01*
Y114095D01*
X68660D01*
Y114127D01*
X68724D01*
Y114159D01*
X68756D01*
Y114191D01*
X68820D01*
Y114223D01*
X68851D01*
Y114255D01*
X68883D01*
Y114287D01*
X68947D01*
Y114318D01*
X68979D01*
Y114350D01*
X69011D01*
Y114382D01*
X69074D01*
Y114414D01*
X69106D01*
Y114446D01*
X69138D01*
Y114478D01*
X69170D01*
Y114509D01*
X69234D01*
Y114541D01*
X69265D01*
Y114573D01*
X69297D01*
Y114605D01*
X69329D01*
Y114637D01*
X69393D01*
Y114669D01*
X69425D01*
Y114701D01*
X69456D01*
Y114732D01*
X69488D01*
Y114764D01*
X69520D01*
Y114796D01*
X69584D01*
Y114828D01*
X69616D01*
Y114860D01*
X69648D01*
Y114892D01*
X69679D01*
Y114924D01*
X69711D01*
Y114955D01*
X69743D01*
Y114987D01*
X69775D01*
Y115019D01*
X69807D01*
Y115051D01*
X69839D01*
Y115083D01*
X69902D01*
Y115114D01*
X69934D01*
Y115146D01*
X69966D01*
Y115178D01*
X69998D01*
Y115210D01*
X70030D01*
Y115242D01*
X70061D01*
Y115274D01*
X70093D01*
Y115306D01*
X70125D01*
Y115337D01*
X70157D01*
Y115369D01*
X70189D01*
Y115401D01*
X70221D01*
Y115433D01*
X70253D01*
Y115465D01*
X70284D01*
Y115497D01*
X70316D01*
Y115529D01*
X70348D01*
Y115560D01*
X70380D01*
Y115592D01*
X70412D01*
Y115624D01*
X70444D01*
Y115656D01*
X70475D01*
Y115688D01*
X70507D01*
Y115720D01*
X70539D01*
Y115751D01*
Y115783D01*
X70571D01*
Y115815D01*
X70603D01*
Y115847D01*
X70635D01*
Y115879D01*
X70666D01*
Y115911D01*
X70698D01*
Y115943D01*
X70730D01*
Y115974D01*
X70762D01*
Y116006D01*
X70794D01*
Y116038D01*
X70826D01*
Y116070D01*
Y116102D01*
X70858D01*
Y116133D01*
X70889D01*
Y116165D01*
X70921D01*
Y116197D01*
X70953D01*
Y116229D01*
X70985D01*
Y116261D01*
X71017D01*
Y116293D01*
Y116325D01*
X71049D01*
Y116356D01*
X71080D01*
Y116388D01*
X71112D01*
Y116420D01*
X71144D01*
Y116452D01*
Y116484D01*
X71176D01*
Y116516D01*
X71208D01*
Y116548D01*
X71240D01*
Y116579D01*
X71272D01*
Y116611D01*
Y116643D01*
X71303D01*
Y116675D01*
X71272D01*
Y116707D01*
X71240D01*
Y116739D01*
X71208D01*
Y116770D01*
X71176D01*
Y116802D01*
Y116834D01*
X71144D01*
Y116866D01*
X71112D01*
Y116898D01*
X71080D01*
Y116930D01*
X71049D01*
Y116962D01*
X71017D01*
Y116993D01*
Y117025D01*
X70985D01*
Y117057D01*
X70953D01*
Y117089D01*
X70921D01*
Y117121D01*
X70889D01*
Y117153D01*
X70858D01*
Y117184D01*
X70826D01*
Y117216D01*
Y117248D01*
X70794D01*
Y117280D01*
X70762D01*
Y117312D01*
X70730D01*
Y117344D01*
X70698D01*
Y117375D01*
X70666D01*
Y117407D01*
X70635D01*
Y117439D01*
X70603D01*
Y117471D01*
X70571D01*
Y117503D01*
Y117535D01*
X70539D01*
Y117567D01*
X70507D01*
Y117598D01*
X70475D01*
Y117630D01*
X70444D01*
Y117662D01*
X70412D01*
Y117694D01*
X70380D01*
Y117726D01*
X70348D01*
Y117758D01*
X70316D01*
Y117789D01*
X70284D01*
Y117821D01*
X70253D01*
Y117853D01*
X70221D01*
Y117885D01*
X70189D01*
Y117917D01*
X70157D01*
Y117949D01*
X70125D01*
Y117981D01*
X70093D01*
Y118012D01*
X70061D01*
Y118044D01*
X70030D01*
Y118076D01*
X69998D01*
Y118108D01*
X69966D01*
Y118140D01*
X69934D01*
Y118172D01*
X69902D01*
Y118203D01*
X69870D01*
Y118235D01*
X69839D01*
Y118267D01*
X69807D01*
Y118299D01*
X69775D01*
Y118331D01*
X69743D01*
Y118363D01*
X69679D01*
Y118394D01*
X69648D01*
Y118426D01*
X69616D01*
Y118458D01*
X69584D01*
Y118490D01*
X69552D01*
Y118522D01*
X69520D01*
Y118554D01*
X69488D01*
Y118586D01*
X69425D01*
Y118617D01*
X69393D01*
Y118649D01*
X69361D01*
Y118681D01*
X69329D01*
Y118713D01*
X69297D01*
Y118745D01*
X69265D01*
Y118777D01*
X69202D01*
Y118808D01*
X69170D01*
Y118840D01*
X69138D01*
Y118872D01*
X69106D01*
Y118904D01*
X69042D01*
Y118936D01*
X69011D01*
Y118968D01*
X68979D01*
Y119000D01*
X68915D01*
Y119031D01*
X68883D01*
Y119063D01*
X68851D01*
Y119095D01*
X68788D01*
Y119127D01*
X68756D01*
Y119159D01*
X68692D01*
Y119191D01*
X68660D01*
Y119222D01*
D02*
G37*
G36*
X68565Y114064D02*
X68533D01*
Y114032D01*
X68565D01*
Y114064D01*
D02*
G37*
G36*
X68533Y114032D02*
X68501D01*
Y114000D01*
X68533D01*
Y114032D01*
D02*
G37*
G36*
X61814Y119382D02*
X61782D01*
Y119350D01*
X61750D01*
Y119318D01*
X61687D01*
Y119286D01*
X61655D01*
Y119254D01*
X61591D01*
Y119222D01*
X61559D01*
Y119191D01*
X61527D01*
Y119159D01*
X61464D01*
Y119127D01*
X61432D01*
Y119095D01*
X61368D01*
Y119063D01*
X61336D01*
Y119031D01*
X61304D01*
Y119000D01*
X61241D01*
Y118968D01*
X61209D01*
Y118936D01*
X61177D01*
Y118904D01*
X61145D01*
Y118872D01*
X61081D01*
Y118840D01*
X61050D01*
Y118808D01*
X61018D01*
Y118777D01*
X60986D01*
Y118745D01*
X60922D01*
Y118713D01*
X60891D01*
Y118681D01*
X60859D01*
Y118649D01*
X60827D01*
Y118617D01*
X60795D01*
Y118586D01*
X60763D01*
Y118554D01*
X60699D01*
Y118522D01*
X60668D01*
Y118490D01*
X60636D01*
Y118458D01*
X60604D01*
Y118426D01*
X60572D01*
Y118394D01*
X60540D01*
Y118363D01*
X60508D01*
Y118331D01*
X60476D01*
Y118299D01*
X60445D01*
Y118267D01*
X60413D01*
Y118235D01*
X60381D01*
Y118203D01*
X60349D01*
Y118172D01*
X60285D01*
Y118140D01*
X60254D01*
Y118108D01*
X60222D01*
Y118076D01*
X60190D01*
Y118044D01*
X60158D01*
Y118012D01*
X60126D01*
Y117981D01*
Y117949D01*
X60094D01*
Y117917D01*
X60062D01*
Y117885D01*
X60031D01*
Y117853D01*
X59999D01*
Y117821D01*
X59967D01*
Y117789D01*
X59935D01*
Y117758D01*
X59903D01*
Y117726D01*
X59872D01*
Y117694D01*
X59840D01*
Y117662D01*
X59808D01*
Y117630D01*
X59776D01*
Y117598D01*
X59744D01*
Y117567D01*
X59712D01*
Y117535D01*
Y117503D01*
X59680D01*
Y117471D01*
X59649D01*
Y117439D01*
X59617D01*
Y117407D01*
X59585D01*
Y117375D01*
X59553D01*
Y117344D01*
X59521D01*
Y117312D01*
Y117280D01*
X59489D01*
Y117248D01*
X59457D01*
Y117216D01*
X59426D01*
Y117184D01*
X59394D01*
Y117153D01*
X59362D01*
Y117121D01*
Y117089D01*
X59330D01*
Y117057D01*
X59298D01*
Y117025D01*
X59266D01*
Y116993D01*
X59235D01*
Y116962D01*
Y116930D01*
X59203D01*
Y116898D01*
X59171D01*
Y116866D01*
X59139D01*
Y116834D01*
Y116802D01*
X59107D01*
Y116770D01*
X59075D01*
Y116739D01*
X59044D01*
Y116707D01*
Y116675D01*
Y116643D01*
Y116611D01*
X59075D01*
Y116579D01*
X59107D01*
Y116548D01*
Y116516D01*
X59139D01*
Y116484D01*
X59171D01*
Y116452D01*
X59203D01*
Y116420D01*
Y116388D01*
X59235D01*
Y116356D01*
X59266D01*
Y116325D01*
X59298D01*
Y116293D01*
X59330D01*
Y116261D01*
Y116229D01*
X59362D01*
Y116197D01*
X59394D01*
Y116165D01*
X59426D01*
Y116133D01*
X59457D01*
Y116102D01*
Y116070D01*
X59489D01*
Y116038D01*
X59521D01*
Y116006D01*
X59553D01*
Y115974D01*
X59585D01*
Y115943D01*
Y115911D01*
X59617D01*
Y115879D01*
X59649D01*
Y115847D01*
X59680D01*
Y115815D01*
X59712D01*
Y115783D01*
X59744D01*
Y115751D01*
Y115720D01*
X59776D01*
Y115688D01*
X59808D01*
Y115656D01*
X59840D01*
Y115624D01*
X59872D01*
Y115592D01*
X59903D01*
Y115560D01*
X59935D01*
Y115529D01*
X59967D01*
Y115497D01*
Y115465D01*
X59999D01*
Y115433D01*
X60031D01*
Y115401D01*
X60062D01*
Y115369D01*
X60094D01*
Y115337D01*
X60126D01*
Y115306D01*
X60158D01*
Y115274D01*
X60190D01*
Y115242D01*
X60222D01*
Y115210D01*
X60254D01*
Y115178D01*
X60285D01*
Y115146D01*
X60317D01*
Y115114D01*
X60349D01*
Y115083D01*
X60381D01*
Y115051D01*
X60413D01*
Y115019D01*
X60445D01*
Y114987D01*
X60476D01*
Y114955D01*
X60508D01*
Y114924D01*
X60540D01*
Y114892D01*
X60572D01*
Y114860D01*
X60604D01*
Y114828D01*
X60636D01*
Y114796D01*
X60668D01*
Y114764D01*
X60699D01*
Y114732D01*
X60731D01*
Y114701D01*
X60763D01*
Y114669D01*
X60795D01*
Y114637D01*
X60827D01*
Y114605D01*
X60891D01*
Y114573D01*
X60922D01*
Y114541D01*
X60954D01*
Y114509D01*
X60986D01*
Y114478D01*
X61018D01*
Y114446D01*
X61050D01*
Y114414D01*
X61113D01*
Y114382D01*
X61145D01*
Y114350D01*
X61177D01*
Y114318D01*
X61209D01*
Y114287D01*
X61241D01*
Y114255D01*
X61304D01*
Y114223D01*
X61336D01*
Y114191D01*
X61368D01*
Y114159D01*
X61432D01*
Y114127D01*
X61464D01*
Y114095D01*
X61496D01*
Y114064D01*
X61559D01*
Y114032D01*
X61591D01*
Y114000D01*
X61623D01*
Y113968D01*
X61687D01*
Y113936D01*
X61718D01*
Y113905D01*
X61782D01*
Y113873D01*
X61814D01*
Y113841D01*
X61878D01*
Y113809D01*
X61910D01*
Y113777D01*
X61973D01*
Y113745D01*
X62005D01*
Y113713D01*
X62069D01*
Y113682D01*
X62100D01*
Y113650D01*
X62132D01*
Y113682D01*
X62100D01*
Y113713D01*
X62069D01*
Y113745D01*
X62037D01*
Y113777D01*
X62005D01*
Y113809D01*
Y113841D01*
X61973D01*
Y113873D01*
X61941D01*
Y113905D01*
X61910D01*
Y113936D01*
X61878D01*
Y113968D01*
X61846D01*
Y114000D01*
X61814D01*
Y114032D01*
Y114064D01*
X61782D01*
Y114095D01*
X61750D01*
Y114127D01*
X61718D01*
Y114159D01*
Y114191D01*
X61687D01*
Y114223D01*
X61655D01*
Y114255D01*
X61623D01*
Y114287D01*
Y114318D01*
X61591D01*
Y114350D01*
X61559D01*
Y114382D01*
Y114414D01*
X61527D01*
Y114446D01*
Y114478D01*
X61496D01*
Y114509D01*
X61464D01*
Y114541D01*
Y114573D01*
X61432D01*
Y114605D01*
Y114637D01*
X61400D01*
Y114669D01*
Y114701D01*
X61368D01*
Y114732D01*
Y114764D01*
X61336D01*
Y114796D01*
Y114828D01*
X61304D01*
Y114860D01*
Y114892D01*
X61273D01*
Y114924D01*
Y114955D01*
X61241D01*
Y114987D01*
Y115019D01*
X61209D01*
Y115051D01*
Y115083D01*
Y115114D01*
X61177D01*
Y115146D01*
Y115178D01*
X61145D01*
Y115210D01*
Y115242D01*
Y115274D01*
X61113D01*
Y115306D01*
Y115337D01*
Y115369D01*
X61081D01*
Y115401D01*
Y115433D01*
Y115465D01*
X61050D01*
Y115497D01*
Y115529D01*
Y115560D01*
X61018D01*
Y115592D01*
Y115624D01*
Y115656D01*
Y115688D01*
X60986D01*
Y115720D01*
Y115751D01*
Y115783D01*
Y115815D01*
Y115847D01*
X60954D01*
Y115879D01*
Y115911D01*
Y115943D01*
Y115974D01*
Y116006D01*
X60922D01*
Y116038D01*
Y116070D01*
Y116102D01*
Y116133D01*
Y116165D01*
Y116197D01*
Y116229D01*
Y116261D01*
X60891D01*
Y116293D01*
Y116325D01*
Y116356D01*
Y116388D01*
Y116420D01*
Y116452D01*
Y116484D01*
Y116516D01*
Y116548D01*
Y116579D01*
Y116611D01*
Y116643D01*
Y116675D01*
Y116707D01*
Y116739D01*
Y116770D01*
Y116802D01*
Y116834D01*
Y116866D01*
Y116898D01*
Y116930D01*
Y116962D01*
Y116993D01*
Y117025D01*
Y117057D01*
Y117089D01*
Y117121D01*
X60922D01*
Y117153D01*
Y117184D01*
Y117216D01*
Y117248D01*
Y117280D01*
Y117312D01*
Y117344D01*
Y117375D01*
X60954D01*
Y117407D01*
Y117439D01*
Y117471D01*
Y117503D01*
Y117535D01*
X60986D01*
Y117567D01*
Y117598D01*
Y117630D01*
Y117662D01*
Y117694D01*
X61018D01*
Y117726D01*
Y117758D01*
Y117789D01*
Y117821D01*
X61050D01*
Y117853D01*
Y117885D01*
Y117917D01*
X61081D01*
Y117949D01*
Y117981D01*
Y118012D01*
X61113D01*
Y118044D01*
Y118076D01*
Y118108D01*
X61145D01*
Y118140D01*
Y118172D01*
Y118203D01*
X61177D01*
Y118235D01*
Y118267D01*
Y118299D01*
X61209D01*
Y118331D01*
Y118363D01*
X61241D01*
Y118394D01*
Y118426D01*
X61273D01*
Y118458D01*
Y118490D01*
X61304D01*
Y118522D01*
Y118554D01*
X61336D01*
Y118586D01*
Y118617D01*
X61368D01*
Y118649D01*
Y118681D01*
X61400D01*
Y118713D01*
Y118745D01*
X61432D01*
Y118777D01*
Y118808D01*
X61464D01*
Y118840D01*
Y118872D01*
X61496D01*
Y118904D01*
X61527D01*
Y118936D01*
Y118968D01*
X61559D01*
Y119000D01*
Y119031D01*
X61591D01*
Y119063D01*
X61623D01*
Y119095D01*
Y119127D01*
X61655D01*
Y119159D01*
X61687D01*
Y119191D01*
X61718D01*
Y119222D01*
Y119254D01*
X61750D01*
Y119286D01*
X61782D01*
Y119318D01*
X61814D01*
Y119350D01*
Y119382D01*
D02*
G37*
G36*
X68310Y118554D02*
X62037D01*
Y118522D01*
Y118490D01*
Y118458D01*
X62069D01*
Y118426D01*
X62100D01*
Y118394D01*
Y118363D01*
X62132D01*
Y118331D01*
Y118299D01*
X62164D01*
Y118267D01*
Y118235D01*
X62196D01*
Y118203D01*
X62228D01*
Y118172D01*
Y118140D01*
X62260D01*
Y118108D01*
Y118076D01*
X62292D01*
Y118044D01*
Y118012D01*
X62323D01*
Y117981D01*
X62355D01*
Y117949D01*
Y117917D01*
X62387D01*
Y117885D01*
Y117853D01*
X62419D01*
Y117821D01*
X62451D01*
Y117789D01*
Y117758D01*
X62483D01*
Y117726D01*
Y117694D01*
X62515D01*
Y117662D01*
Y117630D01*
X62546D01*
Y117598D01*
X62578D01*
Y117567D01*
Y117535D01*
X62610D01*
Y117503D01*
Y117471D01*
X62642D01*
Y117439D01*
Y117407D01*
X62674D01*
Y117375D01*
X62706D01*
Y117344D01*
Y117312D01*
X62737D01*
Y117280D01*
Y117248D01*
X62769D01*
Y117216D01*
X62801D01*
Y117184D01*
Y117153D01*
X62833D01*
Y117121D01*
Y117089D01*
X62865D01*
Y117057D01*
Y117025D01*
X62897D01*
Y116993D01*
X62928D01*
Y116962D01*
Y116930D01*
X62960D01*
Y116898D01*
Y116866D01*
X62992D01*
Y116834D01*
Y116802D01*
X63024D01*
Y116770D01*
X63056D01*
Y116739D01*
Y116707D01*
X63088D01*
Y116675D01*
Y116643D01*
X63120D01*
Y116611D01*
Y116579D01*
X63151D01*
Y116548D01*
X63183D01*
Y116516D01*
Y116484D01*
X63215D01*
Y116452D01*
Y116420D01*
X63247D01*
Y116388D01*
X63279D01*
Y116356D01*
Y116325D01*
X63311D01*
Y116293D01*
Y116261D01*
X63342D01*
Y116229D01*
Y116197D01*
X63374D01*
Y116165D01*
X63406D01*
Y116133D01*
Y116102D01*
X63438D01*
Y116070D01*
Y116038D01*
X63470D01*
Y116006D01*
Y115974D01*
X63502D01*
Y115943D01*
X63534D01*
Y115911D01*
Y115879D01*
X63565D01*
Y115847D01*
Y115815D01*
X63597D01*
Y115783D01*
Y115751D01*
X63629D01*
Y115720D01*
X63661D01*
Y115688D01*
Y115656D01*
X63693D01*
Y115624D01*
Y115592D01*
X63725D01*
Y115560D01*
X63756D01*
Y115529D01*
Y115497D01*
X63788D01*
Y115465D01*
Y115433D01*
X63820D01*
Y115401D01*
Y115369D01*
X63852D01*
Y115337D01*
X63884D01*
Y115306D01*
Y115274D01*
X63916D01*
Y115242D01*
Y115210D01*
X63947D01*
Y115178D01*
Y115146D01*
X63979D01*
Y115114D01*
X64011D01*
Y115083D01*
Y115051D01*
X64043D01*
Y115019D01*
Y114987D01*
X64075D01*
Y114955D01*
Y114924D01*
X64107D01*
Y114892D01*
X64139D01*
Y114860D01*
Y114828D01*
X64170D01*
Y114796D01*
Y114764D01*
X64202D01*
Y114732D01*
X64234D01*
Y114701D01*
Y114669D01*
X64266D01*
Y114637D01*
Y114605D01*
X64298D01*
Y114573D01*
Y114541D01*
X64330D01*
Y114509D01*
X64361D01*
Y114478D01*
Y114446D01*
X64393D01*
Y114414D01*
Y114382D01*
X64425D01*
Y114350D01*
Y114318D01*
X64457D01*
Y114287D01*
X64489D01*
Y114255D01*
Y114223D01*
X64521D01*
Y114191D01*
Y114159D01*
X64552D01*
Y114127D01*
X64584D01*
Y114095D01*
Y114064D01*
X64616D01*
Y114032D01*
Y114000D01*
X64648D01*
Y113968D01*
Y113936D01*
X64680D01*
Y113905D01*
X64712D01*
Y113873D01*
Y113841D01*
X64744D01*
Y113809D01*
Y113777D01*
X64775D01*
Y113745D01*
Y113713D01*
X64807D01*
Y113682D01*
X64839D01*
Y113650D01*
Y113618D01*
X64871D01*
Y113586D01*
Y113554D01*
X64903D01*
Y113522D01*
Y113490D01*
X64935D01*
Y113459D01*
X64966D01*
Y113427D01*
Y113395D01*
X64998D01*
Y113363D01*
Y113331D01*
X65030D01*
Y113299D01*
X65062D01*
Y113268D01*
Y113236D01*
X65094D01*
Y113204D01*
Y113172D01*
X65126D01*
Y113140D01*
Y113108D01*
X65189D01*
Y113140D01*
X65221D01*
Y113172D01*
Y113204D01*
X65253D01*
Y113236D01*
X65285D01*
Y113268D01*
Y113299D01*
X65317D01*
Y113331D01*
Y113363D01*
X65349D01*
Y113395D01*
Y113427D01*
X65380D01*
Y113459D01*
X65412D01*
Y113490D01*
Y113522D01*
X65444D01*
Y113554D01*
Y113586D01*
X65476D01*
Y113618D01*
X65508D01*
Y113650D01*
Y113682D01*
X65540D01*
Y113713D01*
Y113745D01*
X65571D01*
Y113777D01*
Y113809D01*
X65603D01*
Y113841D01*
X65635D01*
Y113873D01*
Y113905D01*
X65667D01*
Y113936D01*
Y113968D01*
X65699D01*
Y114000D01*
Y114032D01*
X65731D01*
Y114064D01*
X65763D01*
Y114095D01*
Y114127D01*
X65794D01*
Y114159D01*
Y114191D01*
X65826D01*
Y114223D01*
Y114255D01*
X65858D01*
Y114287D01*
X65890D01*
Y114318D01*
Y114350D01*
X65922D01*
Y114382D01*
Y114414D01*
X65954D01*
Y114446D01*
X65986D01*
Y114478D01*
Y114509D01*
X66017D01*
Y114541D01*
Y114573D01*
X66049D01*
Y114605D01*
Y114637D01*
X66081D01*
Y114669D01*
X66113D01*
Y114701D01*
Y114732D01*
X66145D01*
Y114764D01*
Y114796D01*
X66176D01*
Y114828D01*
Y114860D01*
X66208D01*
Y114892D01*
X66240D01*
Y114924D01*
Y114955D01*
X66272D01*
Y114987D01*
Y115019D01*
X66304D01*
Y115051D01*
Y115083D01*
X66336D01*
Y115114D01*
X66368D01*
Y115146D01*
Y115178D01*
X66399D01*
Y115210D01*
Y115242D01*
X66431D01*
Y115274D01*
X66463D01*
Y115306D01*
Y115337D01*
X66495D01*
Y115369D01*
Y115401D01*
X66527D01*
Y115433D01*
Y115465D01*
X66559D01*
Y115497D01*
X66590D01*
Y115529D01*
Y115560D01*
X66622D01*
Y115592D01*
Y115624D01*
X66654D01*
Y115656D01*
Y115688D01*
X66686D01*
Y115720D01*
X66718D01*
Y115751D01*
Y115783D01*
X66750D01*
Y115815D01*
Y115847D01*
X66782D01*
Y115879D01*
Y115911D01*
X66813D01*
Y115943D01*
X66845D01*
Y115974D01*
Y116006D01*
X66877D01*
Y116038D01*
Y116070D01*
X66909D01*
Y116102D01*
X66941D01*
Y116133D01*
Y116165D01*
X66973D01*
Y116197D01*
Y116229D01*
X67005D01*
Y116261D01*
Y116293D01*
X67036D01*
Y116325D01*
X67068D01*
Y116356D01*
Y116388D01*
X67100D01*
Y116420D01*
Y116452D01*
X67132D01*
Y116484D01*
Y116516D01*
X67164D01*
Y116548D01*
X67195D01*
Y116579D01*
Y116611D01*
X67227D01*
Y116643D01*
Y116675D01*
X67259D01*
Y116707D01*
X67291D01*
Y116739D01*
Y116770D01*
X67323D01*
Y116802D01*
Y116834D01*
X67355D01*
Y116866D01*
Y116898D01*
X67387D01*
Y116930D01*
X67418D01*
Y116962D01*
Y116993D01*
X67450D01*
Y117025D01*
Y117057D01*
X67482D01*
Y117089D01*
Y117121D01*
X67514D01*
Y117153D01*
X67546D01*
Y117184D01*
Y117216D01*
X67578D01*
Y117248D01*
Y117280D01*
X67610D01*
Y117312D01*
Y117344D01*
X67641D01*
Y117375D01*
X67673D01*
Y117407D01*
Y117439D01*
X67705D01*
Y117471D01*
Y117503D01*
X67737D01*
Y117535D01*
X67769D01*
Y117567D01*
Y117598D01*
X67801D01*
Y117630D01*
Y117662D01*
X67832D01*
Y117694D01*
Y117726D01*
X67864D01*
Y117758D01*
X67896D01*
Y117789D01*
Y117821D01*
X67928D01*
Y117853D01*
Y117885D01*
X67960D01*
Y117917D01*
Y117949D01*
X67992D01*
Y117981D01*
X68024D01*
Y118012D01*
Y118044D01*
X68055D01*
Y118076D01*
Y118108D01*
X68087D01*
Y118140D01*
Y118172D01*
X68119D01*
Y118203D01*
X68151D01*
Y118235D01*
Y118267D01*
X68183D01*
Y118299D01*
Y118331D01*
X68214D01*
Y118363D01*
X68246D01*
Y118394D01*
Y118426D01*
X68278D01*
Y118458D01*
Y118490D01*
X68310D01*
Y118522D01*
Y118554D01*
D02*
G37*
G36*
X81270Y108755D02*
X81151D01*
Y108740D01*
X81049D01*
Y108725D01*
X80976D01*
Y108711D01*
X80903D01*
Y108696D01*
X80859D01*
Y108681D01*
X80814D01*
Y108667D01*
X80770D01*
Y108652D01*
X80742D01*
Y108637D01*
X80712D01*
Y108623D01*
X80683D01*
Y108608D01*
X80654D01*
Y108593D01*
X80624D01*
Y108579D01*
X80609D01*
Y108564D01*
X80594D01*
Y108549D01*
X80581D01*
Y108535D01*
X80566D01*
Y108520D01*
X80550D01*
Y108505D01*
X80537D01*
Y108491D01*
Y108476D01*
X80521D01*
Y108461D01*
X80507D01*
Y108447D01*
Y108432D01*
Y108417D01*
X80493D01*
Y108403D01*
Y108388D01*
Y108373D01*
X80477D01*
Y108359D01*
X80478D01*
Y108344D01*
Y108329D01*
Y108315D01*
Y108300D01*
Y108285D01*
Y108271D01*
Y108256D01*
Y108241D01*
Y108227D01*
Y108212D01*
Y108197D01*
Y108183D01*
X80492D01*
Y108168D01*
Y108153D01*
Y108139D01*
X80507D01*
Y108124D01*
Y108109D01*
X80521D01*
Y108095D01*
Y108080D01*
X80537D01*
Y108065D01*
X80551D01*
Y108051D01*
X80566D01*
Y108036D01*
X80580D01*
Y108021D01*
X80595D01*
Y108007D01*
X80624D01*
Y107992D01*
X80654D01*
Y107977D01*
X80683D01*
Y107963D01*
X80756D01*
Y107948D01*
X80844D01*
Y107963D01*
X80918D01*
Y107977D01*
X80962D01*
Y107992D01*
X80991D01*
Y108007D01*
X81020D01*
Y108021D01*
X81035D01*
Y108036D01*
X81064D01*
Y108051D01*
X81079D01*
Y108065D01*
X81094D01*
Y108080D01*
X81108D01*
Y108095D01*
X81123D01*
Y108109D01*
X81138D01*
Y108124D01*
X81152D01*
Y108139D01*
Y108153D01*
X81167D01*
Y108168D01*
X81182D01*
Y108183D01*
Y108197D01*
X81196D01*
Y108212D01*
Y108227D01*
X81211D01*
Y108241D01*
Y108256D01*
X81226D01*
Y108271D01*
Y108285D01*
Y108300D01*
X81240D01*
Y108315D01*
Y108329D01*
Y108344D01*
X81255D01*
Y108359D01*
Y108373D01*
Y108388D01*
Y108403D01*
Y108417D01*
X81270D01*
Y108432D01*
Y108447D01*
Y108461D01*
Y108476D01*
Y108491D01*
Y108505D01*
Y108520D01*
Y108535D01*
Y108549D01*
Y108564D01*
Y108579D01*
Y108593D01*
Y108608D01*
Y108623D01*
Y108637D01*
Y108652D01*
Y108667D01*
Y108681D01*
Y108696D01*
Y108711D01*
Y108725D01*
Y108740D01*
Y108755D01*
D02*
G37*
G36*
X74086Y109649D02*
X73954D01*
Y109634D01*
X73879D01*
Y109619D01*
X73835D01*
Y109605D01*
X73807D01*
Y109590D01*
X73792D01*
Y109575D01*
X73763D01*
Y109561D01*
X73748D01*
Y109546D01*
X73733D01*
Y109531D01*
X73719D01*
Y109517D01*
Y109502D01*
X73704D01*
Y109488D01*
X73689D01*
Y109473D01*
X73690D01*
Y109458D01*
X73674D01*
Y109444D01*
X73660D01*
Y109429D01*
Y109414D01*
Y109400D01*
X73645D01*
Y109385D01*
Y109370D01*
X73630D01*
Y109356D01*
Y109341D01*
Y109326D01*
X73631D01*
Y109312D01*
X73615D01*
Y109297D01*
Y109282D01*
X73616D01*
Y109268D01*
Y109253D01*
X73601D01*
Y109238D01*
Y109224D01*
Y109209D01*
Y109194D01*
Y109180D01*
Y109165D01*
X73602D01*
Y109150D01*
X73586D01*
Y109136D01*
Y109121D01*
Y109106D01*
Y109092D01*
Y109077D01*
X73587D01*
Y109062D01*
Y109048D01*
Y109033D01*
Y109018D01*
Y109004D01*
Y108989D01*
Y108974D01*
Y108960D01*
Y108945D01*
Y108930D01*
X73586D01*
Y108916D01*
Y108901D01*
Y108886D01*
Y108872D01*
Y108857D01*
Y108843D01*
Y108828D01*
Y108813D01*
Y108799D01*
Y108784D01*
Y108769D01*
Y108755D01*
Y108740D01*
Y108725D01*
Y108711D01*
X73587D01*
Y108696D01*
Y108681D01*
Y108667D01*
Y108652D01*
Y108637D01*
Y108623D01*
Y108608D01*
Y108593D01*
Y108579D01*
Y108564D01*
Y108549D01*
X73586D01*
Y108535D01*
X73602D01*
Y108520D01*
Y108505D01*
Y108491D01*
Y108476D01*
Y108461D01*
X73601D01*
Y108447D01*
Y108432D01*
X73616D01*
Y108417D01*
Y108403D01*
Y108388D01*
Y108373D01*
Y108359D01*
X73630D01*
Y108344D01*
X73631D01*
Y108329D01*
Y108315D01*
Y108300D01*
X73646D01*
Y108285D01*
Y108271D01*
Y108256D01*
X73659D01*
Y108241D01*
Y108227D01*
X73660D01*
Y108212D01*
X73674D01*
Y108197D01*
Y108183D01*
X73690D01*
Y108168D01*
Y108153D01*
X73704D01*
Y108139D01*
Y108124D01*
X73719D01*
Y108109D01*
X73734D01*
Y108095D01*
X73748D01*
Y108080D01*
Y108065D01*
X73763D01*
Y108051D01*
X73792D01*
Y108036D01*
X73807D01*
Y108021D01*
X73835D01*
Y108007D01*
X73865D01*
Y107992D01*
X73910D01*
Y107977D01*
X74115D01*
Y107992D01*
X74159D01*
Y108007D01*
X74188D01*
Y108021D01*
X74217D01*
Y108036D01*
X74232D01*
Y108051D01*
X74261D01*
Y108065D01*
X74276D01*
Y108080D01*
Y108095D01*
X74291D01*
Y108109D01*
X74305D01*
Y108124D01*
X74320D01*
Y108139D01*
Y108153D01*
X74335D01*
Y108168D01*
Y108183D01*
X74349D01*
Y108197D01*
Y108212D01*
X74364D01*
Y108227D01*
Y108241D01*
X74379D01*
Y108256D01*
Y108271D01*
Y108285D01*
X74393D01*
Y108300D01*
Y108315D01*
Y108329D01*
Y108344D01*
X74408D01*
Y108359D01*
Y108373D01*
Y108388D01*
Y108403D01*
Y108417D01*
X74423D01*
Y108432D01*
Y108447D01*
Y108461D01*
Y108476D01*
Y108491D01*
Y108505D01*
Y108520D01*
X74437D01*
Y108535D01*
Y108549D01*
Y108564D01*
Y108579D01*
Y108593D01*
Y108608D01*
Y108623D01*
Y108637D01*
Y108652D01*
Y108667D01*
Y108681D01*
Y108696D01*
Y108711D01*
Y108725D01*
Y108740D01*
Y108755D01*
Y108769D01*
Y108784D01*
Y108799D01*
Y108813D01*
Y108828D01*
Y108843D01*
Y108857D01*
Y108872D01*
Y108886D01*
Y108901D01*
Y108916D01*
Y108930D01*
Y108945D01*
Y108960D01*
Y108974D01*
Y108989D01*
Y109004D01*
Y109018D01*
Y109033D01*
Y109048D01*
Y109062D01*
Y109077D01*
Y109092D01*
X74423D01*
Y109106D01*
Y109121D01*
Y109136D01*
Y109150D01*
Y109165D01*
Y109180D01*
Y109194D01*
Y109209D01*
X74408D01*
Y109224D01*
Y109238D01*
Y109253D01*
Y109268D01*
Y109282D01*
X74393D01*
Y109297D01*
Y109312D01*
Y109326D01*
Y109341D01*
X74379D01*
Y109356D01*
Y109370D01*
Y109385D01*
X74364D01*
Y109400D01*
Y109414D01*
Y109429D01*
X74349D01*
Y109444D01*
Y109458D01*
X74335D01*
Y109473D01*
Y109488D01*
X74320D01*
Y109502D01*
X74305D01*
Y109517D01*
X74291D01*
Y109531D01*
Y109546D01*
X74276D01*
Y109561D01*
X74261D01*
Y109575D01*
X74232D01*
Y109590D01*
X74217D01*
Y109605D01*
X74188D01*
Y109619D01*
X74144D01*
Y109634D01*
X74086D01*
Y109649D01*
D02*
G37*
G36*
X71616Y70436D02*
X71542D01*
X71298Y70422D01*
X71061Y70385D01*
X70854Y70340D01*
X70758Y70311D01*
X70669Y70281D01*
X70587Y70251D01*
X70513Y70222D01*
X70454Y70200D01*
X70395Y70177D01*
X70358Y70155D01*
X70328Y70140D01*
X70306Y70133D01*
X70299Y70126D01*
X70099Y70000D01*
X69929Y69852D01*
X69781Y69704D01*
X69655Y69556D01*
X69559Y69423D01*
X69522Y69363D01*
X69492Y69312D01*
X69463Y69275D01*
X69448Y69245D01*
X69441Y69223D01*
X69433Y69215D01*
X69330Y68986D01*
X69256Y68749D01*
X69204Y68512D01*
X69167Y68298D01*
X69152Y68202D01*
X69144Y68105D01*
X69137Y68031D01*
Y67957D01*
X69130Y67906D01*
Y65138D01*
Y67824D01*
X69144Y67558D01*
X69174Y67299D01*
X69211Y67069D01*
X69241Y66958D01*
X69263Y66862D01*
X69285Y66773D01*
X69315Y66692D01*
X69337Y66618D01*
X69352Y66559D01*
X69374Y66514D01*
X69381Y66477D01*
X69396Y66455D01*
Y66448D01*
X69507Y66226D01*
X69633Y66026D01*
X69766Y65856D01*
X69833Y65789D01*
X69892Y65723D01*
X69951Y65663D01*
X70010Y65612D01*
X70062Y65567D01*
X70107Y65538D01*
X70136Y65508D01*
X70166Y65486D01*
X70180Y65478D01*
X70188Y65471D01*
X70292Y65412D01*
X70395Y65360D01*
X70617Y65279D01*
X70839Y65219D01*
X71054Y65182D01*
X71157Y65168D01*
X71246Y65153D01*
X71328Y65145D01*
X71394D01*
X71453Y65138D01*
X69130D01*
X73659D01*
D01*
X71535D01*
X71683Y65145D01*
X71823Y65160D01*
X71956Y65175D01*
X72082Y65205D01*
X72201Y65242D01*
X72312Y65279D01*
X72415Y65316D01*
X72512Y65360D01*
X72593Y65397D01*
X72674Y65434D01*
X72733Y65471D01*
X72793Y65508D01*
X72830Y65538D01*
X72867Y65552D01*
X72882Y65567D01*
X72889Y65575D01*
X72992Y65663D01*
X73081Y65752D01*
X73163Y65856D01*
X73244Y65959D01*
X73377Y66167D01*
X73481Y66374D01*
X73525Y66470D01*
X73562Y66559D01*
X73592Y66640D01*
X73614Y66707D01*
X73636Y66766D01*
X73651Y66810D01*
X73659Y66840D01*
Y66847D01*
X72978Y67018D01*
X72948Y66899D01*
X72911Y66788D01*
X72874Y66685D01*
X72837Y66588D01*
X72793Y66500D01*
X72748Y66426D01*
X72697Y66352D01*
X72652Y66285D01*
X72615Y66226D01*
X72571Y66181D01*
X72534Y66137D01*
X72504Y66100D01*
X72474Y66078D01*
X72452Y66056D01*
X72445Y66048D01*
X72438Y66041D01*
X72364Y65982D01*
X72282Y65937D01*
X72119Y65856D01*
X71964Y65797D01*
X71808Y65760D01*
X71675Y65730D01*
X71623Y65723D01*
X71572D01*
X71527Y65715D01*
X71475D01*
X71305Y65723D01*
X71143Y65752D01*
X70995Y65789D01*
X70861Y65834D01*
X70758Y65878D01*
X70713Y65900D01*
X70676Y65915D01*
X70647Y65930D01*
X70625Y65945D01*
X70610Y65952D01*
X70602D01*
X70462Y66056D01*
X70343Y66167D01*
X70240Y66292D01*
X70158Y66411D01*
X70092Y66514D01*
X70047Y66603D01*
X70033Y66640D01*
X70018Y66662D01*
X70010Y66677D01*
Y66685D01*
X69951Y66877D01*
X69907Y67069D01*
X69870Y67262D01*
X69848Y67439D01*
X69840Y67521D01*
X69833Y67595D01*
Y67661D01*
X69825Y67713D01*
Y67758D01*
Y67795D01*
Y67817D01*
Y67824D01*
X69833Y68017D01*
X69848Y68194D01*
X69877Y68357D01*
X69907Y68505D01*
X69929Y68631D01*
X69944Y68683D01*
X69959Y68727D01*
X69966Y68764D01*
X69973Y68786D01*
X69981Y68801D01*
Y68808D01*
X70055Y68979D01*
X70136Y69134D01*
X70225Y69260D01*
X70321Y69371D01*
X70402Y69460D01*
X70469Y69519D01*
X70521Y69556D01*
X70528Y69571D01*
X70536D01*
X70691Y69667D01*
X70861Y69741D01*
X71024Y69793D01*
X71179Y69822D01*
X71320Y69844D01*
X71379Y69852D01*
X71431D01*
X71468Y69859D01*
X71527D01*
X71712Y69852D01*
X71882Y69822D01*
X72023Y69778D01*
X72149Y69733D01*
X72245Y69682D01*
X72319Y69645D01*
X72364Y69615D01*
X72378Y69600D01*
X72497Y69489D01*
X72608Y69363D01*
X72697Y69230D01*
X72771Y69097D01*
X72830Y68979D01*
X72852Y68919D01*
X72867Y68875D01*
X72882Y68838D01*
X72896Y68808D01*
X72904Y68794D01*
Y68786D01*
X73570Y68942D01*
X73525Y69075D01*
X73481Y69193D01*
X73422Y69304D01*
X73370Y69415D01*
X73311Y69511D01*
X73244Y69600D01*
X73185Y69689D01*
X73126Y69763D01*
X73067Y69822D01*
X73015Y69881D01*
X72963Y69933D01*
X72926Y69970D01*
X72889Y70007D01*
X72859Y70029D01*
X72844Y70037D01*
X72837Y70044D01*
X72733Y70111D01*
X72630Y70177D01*
X72526Y70229D01*
X72415Y70274D01*
X72193Y70340D01*
X71993Y70385D01*
X71897Y70407D01*
X71816Y70414D01*
X71734Y70422D01*
X71668Y70429D01*
X71616Y70436D01*
D02*
G37*
G36*
X66236Y70348D02*
X65326D01*
X64098Y66781D01*
X64031Y66588D01*
X63979Y66426D01*
X63928Y66285D01*
X63890Y66167D01*
X63861Y66078D01*
X63839Y66011D01*
X63831Y65974D01*
X63824Y65959D01*
X63794Y66063D01*
X63757Y66181D01*
X63713Y66307D01*
X63676Y66433D01*
X63639Y66544D01*
X63609Y66633D01*
X63595Y66670D01*
X63587Y66692D01*
X63580Y66707D01*
Y66714D01*
X62366Y70348D01*
X61352D01*
Y65227D01*
X66236D01*
Y70348D01*
D02*
G37*
G36*
X68131D02*
X67450D01*
Y65227D01*
X68131D01*
Y70348D01*
D02*
G37*
%LPD*%
G36*
X65585Y65227D02*
X64090D01*
X65585Y69511D01*
Y65227D01*
D02*
G37*
G36*
X63484D02*
X62003D01*
Y69585D01*
X63484Y65227D01*
D02*
G37*
%LPC*%
G36*
X53498Y117260D02*
X52491Y115827D01*
X53498D01*
Y117260D01*
D02*
G37*
%LPD*%
D10*
X10492Y53300D02*
G03*
X10492Y53300I-492J0D01*
G01*
X7579Y106989D02*
G03*
X7579Y106989I-492J0D01*
G01*
X26280Y11417D02*
G03*
X26280Y11417I-492J0D01*
G01*
X46421Y76139D02*
G03*
X46421Y76139I-492J0D01*
G01*
D11*
X67902Y74906D02*
G03*
X67902Y74906I-2855J0D01*
G01*
X23559Y78872D02*
G03*
X23559Y78872I-557J0D01*
G01*
X-5500Y-26641D02*
X272D01*
X-2614D01*
Y-35300D01*
X7488Y-26641D02*
X4602D01*
X3159Y-28084D01*
Y-33857D01*
X4602Y-35300D01*
X7488D01*
X8931Y-33857D01*
Y-28084D01*
X7488Y-26641D01*
X11817Y-35300D02*
Y-26641D01*
X16147D01*
X17590Y-28084D01*
Y-30971D01*
X16147Y-32414D01*
X11817D01*
X33464Y-26641D02*
X30578D01*
X29135Y-28084D01*
Y-33857D01*
X30578Y-35300D01*
X33464D01*
X34907Y-33857D01*
Y-28084D01*
X33464Y-26641D01*
X37793D02*
Y-32414D01*
X40679Y-35300D01*
X43565Y-32414D01*
Y-26641D01*
X52224D02*
X46452D01*
Y-35300D01*
X52224D01*
X46452Y-30971D02*
X49338D01*
X55110Y-35300D02*
Y-26641D01*
X59440D01*
X60883Y-28084D01*
Y-30971D01*
X59440Y-32414D01*
X55110D01*
X57997D02*
X60883Y-35300D01*
X63769Y-26641D02*
Y-35300D01*
X69541D01*
X72428D02*
Y-29528D01*
X75314Y-26641D01*
X78200Y-29528D01*
Y-35300D01*
Y-30971D01*
X72428D01*
X81086Y-26641D02*
Y-28084D01*
X83972Y-30971D01*
X86859Y-28084D01*
Y-26641D01*
X83972Y-30971D02*
Y-35300D01*
D12*
X76067Y100938D02*
G03*
X76067Y100938I-197J0D01*
G01*
X75787Y87205D02*
G03*
X75787Y87205I-197J0D01*
G01*
X16169Y86705D02*
G03*
X16169Y86705I-197J0D01*
G01*
X28346Y64251D02*
G03*
X28346Y64251I-394J0D01*
G01*
X8952Y65259D02*
X11157D01*
X8952Y62700D02*
Y65259D01*
X20448Y62700D02*
Y65259D01*
X18243D02*
X20448D01*
X57342Y52404D02*
X61342D01*
X8268Y112205D02*
X16929D01*
X8268Y109843D02*
X16929D01*
Y112205D01*
X8268Y109843D02*
Y112205D01*
X56496Y12992D02*
Y14665D01*
X54823Y12992D02*
X56496D01*
Y40453D02*
Y42126D01*
X54823D02*
X56496D01*
X27362D02*
X29035D01*
X27362Y40453D02*
Y42126D01*
Y12992D02*
Y14665D01*
Y12992D02*
X29035D01*
X49114Y75197D02*
X50788D01*
Y73524D02*
Y75197D01*
Y57480D02*
Y59154D01*
X49114Y57480D02*
X50788D01*
X33071D02*
X34744D01*
X33071D02*
Y59154D01*
Y75197D02*
X34744D01*
X33071Y73524D02*
Y75197D01*
D13*
X14764Y10434D02*
G03*
X12401Y10434I-1181J0D01*
G01*
X4724Y30315D02*
G03*
X4724Y32677I0J1181D01*
G01*
X14763Y10434D02*
X19488D01*
X7677D02*
X12401D01*
X7677Y20276D02*
X19488D01*
X20473Y25591D02*
Y37402D01*
X4724Y32677D02*
Y37402D01*
Y25591D02*
Y30315D01*
D14*
X19489Y111279D02*
X25099D01*
X19443Y107506D02*
X25152D01*
X19587Y103034D02*
X25197D01*
X19534Y106807D02*
X25243D01*
X74969Y59552D02*
Y65162D01*
X78742Y59506D02*
Y65215D01*
X26988Y97279D02*
X32598D01*
X26942Y93506D02*
X32651D01*
X67587Y81033D02*
X73197D01*
X67534Y84806D02*
X73243D01*
X43701Y1974D02*
X49311D01*
X43648Y5747D02*
X49357D01*
X43307Y48718D02*
X48917D01*
X43254Y52491D02*
X48963D01*
X8566Y62008D02*
Y67619D01*
X4792Y61956D02*
Y67664D01*
X64575Y42893D02*
X70185D01*
X64529Y39120D02*
X70238D01*
X55427Y61046D02*
Y66656D01*
X59200Y61000D02*
Y66709D01*
X11883Y50902D02*
X17592D01*
X11929Y54676D02*
X17539D01*
D15*
X76742Y100906D02*
Y106516D01*
X79942Y101006D02*
Y106714D01*
X57342Y52404D02*
Y55176D01*
X61342Y52404D02*
Y55176D01*
X66442Y100295D02*
Y105905D01*
X63242Y100097D02*
Y105805D01*
X8292Y55067D02*
Y60677D01*
X5092Y54869D02*
Y60577D01*
X33843Y97006D02*
X39453D01*
X33943Y93806D02*
X39652D01*
X48842Y96506D02*
X54452D01*
X48942Y93306D02*
X54651D01*
X60233Y59307D02*
X65843D01*
X60034Y62507D02*
X65743D01*
X73090Y42620D02*
X78701D01*
X73190Y39420D02*
X78899D01*
X60243Y32406D02*
Y38017D01*
X63443Y32506D02*
Y38215D01*
X32307Y45348D02*
X37917D01*
X32108Y48548D02*
X37817D01*
X26721Y6865D02*
X32331D01*
X26522Y10065D02*
X32231D01*
X5289Y78299D02*
Y83909D01*
X8489Y78399D02*
Y84108D01*
X3742Y85905D02*
Y91515D01*
X6942Y86005D02*
Y91714D01*
X46712Y48648D02*
X52323D01*
X46812Y45448D02*
X52521D01*
X44700Y79990D02*
Y85600D01*
X41500Y79791D02*
Y85500D01*
X53942Y78296D02*
Y83906D01*
X50742Y78098D02*
Y83806D01*
X49559Y52191D02*
X55169D01*
X49659Y48991D02*
X55368D01*
X73090Y56975D02*
X78701D01*
X73190Y53775D02*
X78899D01*
X40303Y45448D02*
X45913D01*
X40105Y48648D02*
X45813D01*
X37748Y10065D02*
X43359D01*
X37848Y6865D02*
X43557D01*
X54242Y77906D02*
Y83517D01*
X57442Y78006D02*
Y83715D01*
X41341Y50395D02*
Y56005D01*
X38141Y50197D02*
Y55905D01*
X45300Y79600D02*
Y85210D01*
X48500Y79700D02*
Y85409D01*
X34672Y1944D02*
X40282D01*
X34474Y5144D02*
X40182D01*
X75958Y86370D02*
Y91980D01*
X79158Y86470D02*
Y92179D01*
X16242Y86906D02*
Y92516D01*
X19442Y87006D02*
Y92715D01*
X63163Y86370D02*
Y91980D01*
X66363Y86470D02*
Y92179D01*
X56842Y47006D02*
X62452D01*
X56942Y43806D02*
X62651D01*
X15345Y80093D02*
X16545D01*
X15345Y83293D02*
X16545D01*
X5092Y43260D02*
Y48871D01*
X8292Y43360D02*
Y49069D01*
X28346Y56968D02*
Y58346D01*
X26968Y56968D02*
X28346D01*
X22835Y61102D02*
Y62480D01*
X24213D01*
X22835Y56968D02*
X24213D01*
X22835D02*
Y58346D01*
X28346Y61102D02*
Y62480D01*
X26968D02*
X28346D01*
M02*
