G04*
G04 #@! TF.GenerationSoftware,Altium Limited,Altium Designer,20.1.11 (218)*
G04*
G04 Layer_Color=255*
%FSLAX25Y25*%
%MOIN*%
G70*
G04*
G04 #@! TF.SameCoordinates,8FD927A0-C605-41AB-96FE-A5BD1A317AAA*
G04*
G04*
G04 #@! TF.FilePolarity,Positive*
G04*
G01*
G75*
%ADD74C,0.05906*%
%ADD75R,0.05906X0.05906*%
%ADD76C,0.13000*%
G04:AMPARAMS|DCode=77|XSize=74.8mil|YSize=59.06mil|CornerRadius=14.76mil|HoleSize=0mil|Usage=FLASHONLY|Rotation=0.000|XOffset=0mil|YOffset=0mil|HoleType=Round|Shape=RoundedRectangle|*
%AMROUNDEDRECTD77*
21,1,0.07480,0.02953,0,0,0.0*
21,1,0.04528,0.05906,0,0,0.0*
1,1,0.02953,0.02264,-0.01476*
1,1,0.02953,-0.02264,-0.01476*
1,1,0.02953,-0.02264,0.01476*
1,1,0.02953,0.02264,0.01476*
%
%ADD77ROUNDEDRECTD77*%
%ADD78O,0.04724X0.03543*%
D74*
X155000Y15000D02*
D03*
X145000D02*
D03*
X165000D02*
D03*
X75000Y85000D02*
D03*
X85000D02*
D03*
X95000D02*
D03*
X115000D02*
D03*
X125000D02*
D03*
X105000D02*
D03*
X165000D02*
D03*
X175000D02*
D03*
X135000D02*
D03*
X155000D02*
D03*
X145000D02*
D03*
X125000Y5000D02*
D03*
X115000D02*
D03*
X135000D02*
D03*
X95000D02*
D03*
X85000D02*
D03*
X105000D02*
D03*
X165000D02*
D03*
X145000D02*
D03*
X155000D02*
D03*
X25000D02*
D03*
X35000D02*
D03*
X45000D02*
D03*
X55000D02*
D03*
X75000D02*
D03*
X65000D02*
D03*
D75*
X175000Y15000D02*
D03*
X65000Y85000D02*
D03*
X175000Y5000D02*
D03*
D76*
X188585Y54805D02*
D03*
X121085Y15805D02*
D03*
X10000Y80000D02*
D03*
X190000Y10000D02*
D03*
Y80000D02*
D03*
X10000Y10000D02*
D03*
D77*
Y28563D02*
D03*
Y61437D02*
D03*
D78*
X21811Y36240D02*
D03*
Y53760D02*
D03*
M02*
