G04*
G04 #@! TF.GenerationSoftware,Altium Limited,Altium Designer,20.1.11 (218)*
G04*
G04 Layer_Color=2752767*
%FSLAX25Y25*%
%MOIN*%
G70*
G04*
G04 #@! TF.SameCoordinates,8FD927A0-C605-41AB-96FE-A5BD1A317AAA*
G04*
G04*
G04 #@! TF.FilePolarity,Positive*
G04*
G01*
G75*
%ADD11C,0.01000*%
%ADD14C,0.00500*%
%ADD71C,0.01500*%
%ADD85C,0.00100*%
%ADD87C,0.00200*%
%ADD88C,0.01600*%
%ADD89C,0.01400*%
G36*
X250311Y63287D02*
X250433D01*
X250589Y63265D01*
X250755Y63254D01*
X250944Y63231D01*
X251144Y63198D01*
X251366Y63165D01*
X251822Y63065D01*
X252066Y63009D01*
X252311Y62931D01*
X252566Y62854D01*
X252811Y62754D01*
X252822Y62743D01*
X252866Y62731D01*
X252933Y62698D01*
X253033Y62654D01*
X253144Y62609D01*
X253277Y62543D01*
X253422Y62465D01*
X253588Y62387D01*
X253766Y62298D01*
X253944Y62198D01*
X254333Y61976D01*
X254733Y61721D01*
X255110Y61443D01*
Y60765D01*
X255099D01*
X255077Y60787D01*
X255044Y60809D01*
X254999Y60832D01*
X254933Y60865D01*
X254866Y60909D01*
X254777Y60954D01*
X254677Y61009D01*
X254455Y61132D01*
X254177Y61265D01*
X253877Y61398D01*
X253533Y61554D01*
X253166Y61698D01*
X252777Y61832D01*
X252355Y61965D01*
X251922Y62087D01*
X251477Y62187D01*
X251011Y62265D01*
X250544Y62309D01*
X250066Y62331D01*
X250055D01*
X250022D01*
X249966D01*
X249900D01*
X249811Y62320D01*
X249700D01*
X249589Y62309D01*
X249455Y62298D01*
X249311Y62287D01*
X249155Y62276D01*
X248833Y62231D01*
X248478Y62176D01*
X248111Y62098D01*
X248100D01*
X248078Y62087D01*
X248033Y62076D01*
X247978Y62065D01*
X247911Y62043D01*
X247822Y62020D01*
X247622Y61965D01*
X247400Y61898D01*
X247145Y61809D01*
X246867Y61709D01*
X246600Y61598D01*
X246589D01*
X246578Y61587D01*
X246545Y61576D01*
X246511Y61554D01*
X246456Y61532D01*
X246389Y61498D01*
X246322Y61465D01*
X246222Y61421D01*
X246122Y61365D01*
X246011Y61309D01*
X245878Y61243D01*
X245733Y61165D01*
X245578Y61076D01*
X245411Y60987D01*
X245222Y60876D01*
X245023Y60765D01*
Y61443D01*
X245034Y61454D01*
X245078Y61487D01*
X245156Y61532D01*
X245245Y61598D01*
X245367Y61687D01*
X245511Y61776D01*
X245667Y61876D01*
X245845Y61987D01*
X246045Y62109D01*
X246256Y62220D01*
X246467Y62343D01*
X246700Y62465D01*
X247178Y62687D01*
X247433Y62798D01*
X247678Y62887D01*
X247689D01*
X247733Y62909D01*
X247789Y62920D01*
X247878Y62954D01*
X247978Y62987D01*
X248100Y63020D01*
X248244Y63054D01*
X248400Y63098D01*
X248578Y63131D01*
X248767Y63165D01*
X248955Y63198D01*
X249166Y63231D01*
X249611Y63276D01*
X250066Y63298D01*
X250078D01*
X250133D01*
X250211D01*
X250311Y63287D01*
D02*
G37*
G36*
X252844Y58421D02*
X249466D01*
X249455D01*
X249444D01*
X249366D01*
X249267D01*
X249144Y58410D01*
X249000Y58399D01*
X248855Y58376D01*
X248722Y58343D01*
X248600Y58310D01*
X248589D01*
X248555Y58288D01*
X248500Y58254D01*
X248433Y58221D01*
X248367Y58165D01*
X248289Y58099D01*
X248211Y58010D01*
X248144Y57910D01*
X248133Y57899D01*
X248111Y57865D01*
X248089Y57799D01*
X248056Y57721D01*
X248022Y57632D01*
X247989Y57521D01*
X247978Y57388D01*
X247967Y57254D01*
Y57199D01*
X247978Y57154D01*
X247989Y57043D01*
X248011Y56899D01*
X248067Y56743D01*
X248133Y56565D01*
X248222Y56388D01*
X248356Y56221D01*
X248378Y56199D01*
X248433Y56154D01*
X248478Y56121D01*
X248533Y56088D01*
X248600Y56043D01*
X248678Y56010D01*
X248767Y55966D01*
X248878Y55921D01*
X249000Y55888D01*
X249133Y55854D01*
X249278Y55832D01*
X249433Y55810D01*
X249622Y55788D01*
X249811D01*
X252844D01*
Y54843D01*
X247267D01*
Y55688D01*
X248067D01*
X248056Y55699D01*
X248022Y55721D01*
X247978Y55754D01*
X247922Y55799D01*
X247855Y55866D01*
X247778Y55943D01*
X247689Y56032D01*
X247600Y56143D01*
X247522Y56254D01*
X247433Y56388D01*
X247356Y56532D01*
X247289Y56688D01*
X247233Y56865D01*
X247189Y57043D01*
X247156Y57243D01*
X247145Y57454D01*
Y57543D01*
X247156Y57632D01*
X247167Y57754D01*
X247189Y57899D01*
X247222Y58054D01*
X247267Y58221D01*
X247333Y58376D01*
X247344Y58399D01*
X247367Y58443D01*
X247400Y58521D01*
X247456Y58610D01*
X247522Y58721D01*
X247611Y58821D01*
X247700Y58921D01*
X247811Y59010D01*
X247822Y59021D01*
X247867Y59043D01*
X247922Y59076D01*
X248000Y59132D01*
X248111Y59176D01*
X248222Y59221D01*
X248356Y59276D01*
X248500Y59310D01*
X248511D01*
X248555Y59321D01*
X248622Y59332D01*
X248711Y59343D01*
X248844D01*
X249000Y59354D01*
X249189Y59365D01*
X249422D01*
X252844D01*
Y58421D01*
D02*
G37*
G36*
Y52455D02*
X247267D01*
Y53399D01*
X252844D01*
Y52455D01*
D02*
G37*
G36*
X246234D02*
X245156D01*
Y53399D01*
X246234D01*
Y52455D01*
D02*
G37*
G36*
X255110Y50677D02*
X255099Y50666D01*
X255066Y50644D01*
X255010Y50599D01*
X254933Y50544D01*
X254844Y50477D01*
X254733Y50399D01*
X254599Y50310D01*
X254455Y50222D01*
X254288Y50111D01*
X254111Y50011D01*
X253922Y49899D01*
X253722Y49788D01*
X253510Y49677D01*
X253288Y49566D01*
X252811Y49355D01*
X252800Y49344D01*
X252755Y49333D01*
X252677Y49311D01*
X252577Y49277D01*
X252455Y49233D01*
X252322Y49188D01*
X252155Y49144D01*
X251966Y49088D01*
X251777Y49044D01*
X251555Y48988D01*
X251333Y48944D01*
X251100Y48911D01*
X250589Y48844D01*
X250333Y48833D01*
X250066Y48822D01*
X250055D01*
X250011D01*
X249944D01*
X249855Y48833D01*
X249744D01*
X249611Y48844D01*
X249466Y48855D01*
X249300Y48877D01*
X249122Y48888D01*
X248933Y48922D01*
X248533Y48988D01*
X248111Y49088D01*
X247678Y49222D01*
X247667Y49233D01*
X247622Y49244D01*
X247545Y49266D01*
X247445Y49311D01*
X247333Y49355D01*
X247189Y49422D01*
X247022Y49499D01*
X246845Y49577D01*
X246656Y49677D01*
X246445Y49777D01*
X246222Y49899D01*
X246000Y50033D01*
X245756Y50177D01*
X245511Y50333D01*
X245267Y50499D01*
X245023Y50677D01*
Y51355D01*
X245034Y51344D01*
X245067Y51333D01*
X245123Y51299D01*
X245200Y51255D01*
X245289Y51199D01*
X245400Y51144D01*
X245634Y51010D01*
X245889Y50866D01*
X246145Y50733D01*
X246389Y50599D01*
X246489Y50555D01*
X246589Y50511D01*
X246600D01*
X246622Y50499D01*
X246656Y50477D01*
X246711Y50455D01*
X246778Y50433D01*
X246856Y50399D01*
X246944Y50366D01*
X247044Y50333D01*
X247278Y50244D01*
X247533Y50166D01*
X247811Y50088D01*
X248100Y50011D01*
X248111D01*
X248144Y49999D01*
X248200Y49988D01*
X248267Y49977D01*
X248356Y49955D01*
X248467Y49944D01*
X248578Y49922D01*
X248711Y49899D01*
X248855Y49877D01*
X249011Y49855D01*
X249344Y49822D01*
X249700Y49799D01*
X250066Y49788D01*
X250078D01*
X250100D01*
X250133D01*
X250178D01*
X250244Y49799D01*
X250311D01*
X250400Y49810D01*
X250500D01*
X250733Y49833D01*
X251000Y49866D01*
X251311Y49922D01*
X251644Y49988D01*
X252011Y50066D01*
X252411Y50166D01*
X252833Y50299D01*
X253266Y50455D01*
X253711Y50633D01*
X254177Y50833D01*
X254644Y51077D01*
X255110Y51355D01*
Y50677D01*
D02*
G37*
G36*
X249400Y44655D02*
X249533D01*
X249678Y44644D01*
X249833Y44633D01*
X250189Y44600D01*
X250555Y44544D01*
X250911Y44478D01*
X251077Y44433D01*
X251244Y44378D01*
X251255D01*
X251277Y44367D01*
X251322Y44344D01*
X251377Y44322D01*
X251455Y44300D01*
X251533Y44256D01*
X251722Y44167D01*
X251922Y44056D01*
X252144Y43911D01*
X252344Y43745D01*
X252533Y43545D01*
Y43533D01*
X252555Y43522D01*
X252577Y43489D01*
X252600Y43444D01*
X252633Y43389D01*
X252677Y43333D01*
X252755Y43167D01*
X252833Y42967D01*
X252911Y42733D01*
X252955Y42456D01*
X252977Y42156D01*
Y42045D01*
X252966Y41967D01*
X252955Y41878D01*
X252933Y41767D01*
X252911Y41645D01*
X252877Y41511D01*
X252833Y41378D01*
X252788Y41234D01*
X252722Y41089D01*
X252644Y40945D01*
X252555Y40800D01*
X252444Y40656D01*
X252322Y40523D01*
X252188Y40400D01*
X252177Y40389D01*
X252144Y40367D01*
X252088Y40334D01*
X252000Y40278D01*
X251900Y40223D01*
X251766Y40167D01*
X251611Y40089D01*
X251433Y40023D01*
X251233Y39956D01*
X251000Y39889D01*
X250744Y39823D01*
X250455Y39767D01*
X250144Y39711D01*
X249811Y39678D01*
X249444Y39656D01*
X249055Y39645D01*
X249044D01*
X249000D01*
X248922D01*
X248833D01*
X248711Y39656D01*
X248578D01*
X248433Y39667D01*
X248267Y39678D01*
X247922Y39711D01*
X247556Y39767D01*
X247189Y39834D01*
X247022Y39878D01*
X246856Y39923D01*
X246845D01*
X246822Y39934D01*
X246778Y39956D01*
X246722Y39978D01*
X246645Y40000D01*
X246567Y40045D01*
X246378Y40134D01*
X246178Y40245D01*
X245967Y40389D01*
X245756Y40556D01*
X245578Y40756D01*
Y40767D01*
X245556Y40778D01*
X245534Y40811D01*
X245511Y40856D01*
X245467Y40911D01*
X245434Y40978D01*
X245345Y41145D01*
X245267Y41345D01*
X245189Y41578D01*
X245145Y41856D01*
X245123Y42156D01*
Y42256D01*
X245134Y42378D01*
X245156Y42522D01*
X245189Y42689D01*
X245234Y42867D01*
X245289Y43056D01*
X245378Y43233D01*
Y43244D01*
X245389Y43256D01*
X245423Y43311D01*
X245478Y43400D01*
X245556Y43511D01*
X245667Y43633D01*
X245789Y43767D01*
X245934Y43889D01*
X246100Y44011D01*
X246122Y44022D01*
X246178Y44067D01*
X246278Y44111D01*
X246422Y44189D01*
X246589Y44256D01*
X246778Y44344D01*
X247000Y44422D01*
X247245Y44489D01*
X247256D01*
X247278Y44500D01*
X247311Y44511D01*
X247367Y44522D01*
X247433Y44533D01*
X247511Y44544D01*
X247611Y44567D01*
X247722Y44578D01*
X247844Y44600D01*
X247978Y44611D01*
X248133Y44622D01*
X248289Y44644D01*
X248467Y44655D01*
X248644D01*
X248844Y44667D01*
X249055D01*
X249066D01*
X249111D01*
X249189D01*
X249278D01*
X249400Y44655D01*
D02*
G37*
G36*
X249211Y38712D02*
X249355D01*
X249522Y38701D01*
X249689Y38678D01*
X250066Y38645D01*
X250466Y38589D01*
X250844Y38512D01*
X251033Y38456D01*
X251200Y38401D01*
X251211D01*
X251233Y38389D01*
X251277Y38367D01*
X251344Y38345D01*
X251411Y38312D01*
X251500Y38267D01*
X251689Y38156D01*
X251900Y38023D01*
X252122Y37867D01*
X252333Y37667D01*
X252522Y37445D01*
Y37434D01*
X252544Y37412D01*
X252566Y37378D01*
X252588Y37334D01*
X252622Y37267D01*
X252666Y37201D01*
X252711Y37112D01*
X252744Y37023D01*
X252833Y36812D01*
X252911Y36556D01*
X252955Y36279D01*
X252977Y35967D01*
Y35879D01*
X252966Y35823D01*
Y35745D01*
X252955Y35656D01*
X252911Y35445D01*
X252855Y35212D01*
X252766Y34968D01*
X252644Y34723D01*
X252566Y34601D01*
X252477Y34490D01*
X252466Y34479D01*
X252455Y34468D01*
X252422Y34434D01*
X252388Y34401D01*
X252333Y34356D01*
X252266Y34301D01*
X252111Y34190D01*
X251911Y34079D01*
X251666Y33968D01*
X251389Y33879D01*
X251066Y33812D01*
X250989Y34723D01*
X251000D01*
X251022Y34734D01*
X251044D01*
X251089Y34745D01*
X251211Y34779D01*
X251344Y34823D01*
X251500Y34879D01*
X251655Y34956D01*
X251800Y35045D01*
X251922Y35156D01*
X251933Y35168D01*
X251966Y35212D01*
X252011Y35290D01*
X252055Y35379D01*
X252111Y35501D01*
X252155Y35645D01*
X252188Y35812D01*
X252200Y35990D01*
Y36068D01*
X252188Y36145D01*
X252177Y36245D01*
X252155Y36367D01*
X252122Y36490D01*
X252077Y36623D01*
X252011Y36745D01*
X252000Y36756D01*
X251977Y36801D01*
X251933Y36867D01*
X251866Y36934D01*
X251788Y37023D01*
X251700Y37112D01*
X251600Y37201D01*
X251477Y37290D01*
X251466Y37301D01*
X251411Y37323D01*
X251333Y37367D01*
X251233Y37412D01*
X251100Y37467D01*
X250944Y37523D01*
X250766Y37578D01*
X250566Y37634D01*
X250555D01*
X250544Y37645D01*
X250511D01*
X250466Y37656D01*
X250355Y37678D01*
X250211Y37712D01*
X250033Y37734D01*
X249844Y37756D01*
X249633Y37767D01*
X249411Y37778D01*
X249400D01*
X249366D01*
X249311D01*
X249222D01*
X249244Y37767D01*
X249300Y37723D01*
X249378Y37656D01*
X249489Y37578D01*
X249600Y37467D01*
X249722Y37334D01*
X249844Y37179D01*
X249955Y37001D01*
X249966Y36979D01*
X250000Y36912D01*
X250044Y36812D01*
X250089Y36690D01*
X250144Y36523D01*
X250189Y36345D01*
X250222Y36145D01*
X250233Y35934D01*
Y35845D01*
X250222Y35779D01*
X250211Y35690D01*
X250200Y35601D01*
X250178Y35490D01*
X250144Y35379D01*
X250066Y35123D01*
X250011Y34990D01*
X249944Y34857D01*
X249867Y34712D01*
X249766Y34579D01*
X249667Y34445D01*
X249544Y34323D01*
X249533Y34312D01*
X249511Y34290D01*
X249478Y34268D01*
X249422Y34223D01*
X249344Y34168D01*
X249267Y34112D01*
X249166Y34056D01*
X249055Y34001D01*
X248933Y33934D01*
X248800Y33879D01*
X248644Y33823D01*
X248489Y33768D01*
X248311Y33723D01*
X248122Y33701D01*
X247933Y33679D01*
X247722Y33668D01*
X247711D01*
X247667D01*
X247611D01*
X247533Y33679D01*
X247433Y33690D01*
X247311Y33701D01*
X247189Y33723D01*
X247044Y33757D01*
X246756Y33834D01*
X246600Y33890D01*
X246433Y33957D01*
X246278Y34034D01*
X246133Y34134D01*
X245978Y34234D01*
X245845Y34356D01*
X245833Y34368D01*
X245811Y34390D01*
X245778Y34423D01*
X245733Y34479D01*
X245678Y34545D01*
X245611Y34634D01*
X245556Y34723D01*
X245478Y34834D01*
X245411Y34945D01*
X245356Y35079D01*
X245234Y35379D01*
X245189Y35534D01*
X245156Y35712D01*
X245134Y35890D01*
X245123Y36079D01*
Y36156D01*
X245134Y36212D01*
Y36267D01*
X245145Y36345D01*
X245178Y36534D01*
X245222Y36745D01*
X245300Y36979D01*
X245400Y37212D01*
X245534Y37445D01*
Y37456D01*
X245556Y37467D01*
X245578Y37501D01*
X245611Y37545D01*
X245700Y37656D01*
X245822Y37801D01*
X245989Y37945D01*
X246189Y38112D01*
X246422Y38256D01*
X246689Y38389D01*
X246700D01*
X246722Y38401D01*
X246767Y38423D01*
X246822Y38445D01*
X246900Y38467D01*
X247000Y38500D01*
X247111Y38523D01*
X247233Y38556D01*
X247378Y38589D01*
X247545Y38623D01*
X247722Y38645D01*
X247911Y38667D01*
X248122Y38689D01*
X248344Y38712D01*
X248589Y38723D01*
X248844D01*
X248855D01*
X248911D01*
X248989D01*
X249089D01*
X249211Y38712D01*
D02*
G37*
G36*
X252844Y31212D02*
X251766D01*
Y32290D01*
X252844D01*
Y31212D01*
D02*
G37*
G36*
X249400Y29713D02*
X249533D01*
X249678Y29701D01*
X249833Y29690D01*
X250189Y29657D01*
X250555Y29601D01*
X250911Y29535D01*
X251077Y29490D01*
X251244Y29435D01*
X251255D01*
X251277Y29424D01*
X251322Y29401D01*
X251377Y29379D01*
X251455Y29357D01*
X251533Y29313D01*
X251722Y29224D01*
X251922Y29113D01*
X252144Y28968D01*
X252344Y28802D01*
X252533Y28602D01*
Y28590D01*
X252555Y28579D01*
X252577Y28546D01*
X252600Y28501D01*
X252633Y28446D01*
X252677Y28390D01*
X252755Y28224D01*
X252833Y28024D01*
X252911Y27790D01*
X252955Y27513D01*
X252977Y27213D01*
Y27102D01*
X252966Y27024D01*
X252955Y26935D01*
X252933Y26824D01*
X252911Y26702D01*
X252877Y26568D01*
X252833Y26435D01*
X252788Y26291D01*
X252722Y26146D01*
X252644Y26002D01*
X252555Y25857D01*
X252444Y25713D01*
X252322Y25580D01*
X252188Y25457D01*
X252177Y25446D01*
X252144Y25424D01*
X252088Y25391D01*
X252000Y25335D01*
X251900Y25280D01*
X251766Y25224D01*
X251611Y25146D01*
X251433Y25080D01*
X251233Y25013D01*
X251000Y24946D01*
X250744Y24880D01*
X250455Y24824D01*
X250144Y24769D01*
X249811Y24735D01*
X249444Y24713D01*
X249055Y24702D01*
X249044D01*
X249000D01*
X248922D01*
X248833D01*
X248711Y24713D01*
X248578D01*
X248433Y24724D01*
X248267Y24735D01*
X247922Y24769D01*
X247556Y24824D01*
X247189Y24891D01*
X247022Y24935D01*
X246856Y24980D01*
X246845D01*
X246822Y24991D01*
X246778Y25013D01*
X246722Y25035D01*
X246645Y25058D01*
X246567Y25102D01*
X246378Y25191D01*
X246178Y25302D01*
X245967Y25446D01*
X245756Y25613D01*
X245578Y25813D01*
Y25824D01*
X245556Y25835D01*
X245534Y25868D01*
X245511Y25913D01*
X245467Y25969D01*
X245434Y26035D01*
X245345Y26202D01*
X245267Y26402D01*
X245189Y26635D01*
X245145Y26913D01*
X245123Y27213D01*
Y27313D01*
X245134Y27435D01*
X245156Y27579D01*
X245189Y27746D01*
X245234Y27924D01*
X245289Y28113D01*
X245378Y28291D01*
Y28302D01*
X245389Y28313D01*
X245423Y28368D01*
X245478Y28457D01*
X245556Y28568D01*
X245667Y28690D01*
X245789Y28824D01*
X245934Y28946D01*
X246100Y29068D01*
X246122Y29079D01*
X246178Y29124D01*
X246278Y29168D01*
X246422Y29246D01*
X246589Y29313D01*
X246778Y29401D01*
X247000Y29479D01*
X247245Y29546D01*
X247256D01*
X247278Y29557D01*
X247311Y29568D01*
X247367Y29579D01*
X247433Y29590D01*
X247511Y29601D01*
X247611Y29624D01*
X247722Y29635D01*
X247844Y29657D01*
X247978Y29668D01*
X248133Y29679D01*
X248289Y29701D01*
X248467Y29713D01*
X248644D01*
X248844Y29724D01*
X249055D01*
X249066D01*
X249111D01*
X249189D01*
X249278D01*
X249400Y29713D01*
D02*
G37*
G36*
X108477Y118266D02*
X107533D01*
Y119344D01*
X108477D01*
Y118266D01*
D02*
G37*
G36*
X112710Y117344D02*
X112832Y117333D01*
X112976Y117311D01*
X113132Y117278D01*
X113299Y117233D01*
X113454Y117167D01*
X113476Y117156D01*
X113521Y117133D01*
X113599Y117100D01*
X113687Y117044D01*
X113798Y116978D01*
X113899Y116889D01*
X113998Y116800D01*
X114087Y116689D01*
X114099Y116678D01*
X114121Y116633D01*
X114154Y116578D01*
X114210Y116500D01*
X114254Y116389D01*
X114298Y116278D01*
X114354Y116145D01*
X114387Y116000D01*
Y115989D01*
X114399Y115945D01*
X114410Y115878D01*
X114421Y115789D01*
Y115656D01*
X114432Y115500D01*
X114443Y115311D01*
Y115078D01*
Y111656D01*
X113499D01*
Y115033D01*
Y115045D01*
Y115056D01*
Y115134D01*
Y115234D01*
X113487Y115356D01*
X113476Y115500D01*
X113454Y115645D01*
X113421Y115778D01*
X113387Y115900D01*
Y115911D01*
X113365Y115945D01*
X113332Y116000D01*
X113299Y116067D01*
X113243Y116133D01*
X113176Y116211D01*
X113087Y116289D01*
X112987Y116356D01*
X112976Y116367D01*
X112943Y116389D01*
X112876Y116411D01*
X112799Y116445D01*
X112710Y116478D01*
X112599Y116511D01*
X112465Y116522D01*
X112332Y116533D01*
X112276D01*
X112232Y116522D01*
X112121Y116511D01*
X111977Y116489D01*
X111821Y116433D01*
X111643Y116367D01*
X111465Y116278D01*
X111299Y116145D01*
X111276Y116122D01*
X111232Y116067D01*
X111199Y116022D01*
X111165Y115967D01*
X111121Y115900D01*
X111088Y115822D01*
X111043Y115733D01*
X110999Y115622D01*
X110966Y115500D01*
X110932Y115367D01*
X110910Y115222D01*
X110888Y115067D01*
X110865Y114878D01*
Y114689D01*
Y111656D01*
X109921D01*
Y117233D01*
X110766D01*
Y116433D01*
X110777Y116445D01*
X110799Y116478D01*
X110832Y116522D01*
X110877Y116578D01*
X110943Y116645D01*
X111021Y116722D01*
X111110Y116811D01*
X111221Y116900D01*
X111332Y116978D01*
X111465Y117067D01*
X111610Y117144D01*
X111765Y117211D01*
X111943Y117267D01*
X112121Y117311D01*
X112321Y117344D01*
X112532Y117356D01*
X112621D01*
X112710Y117344D01*
D02*
G37*
G36*
X108477Y111656D02*
X107533D01*
Y117233D01*
X108477D01*
Y111656D01*
D02*
G37*
G36*
X87368D02*
X86290D01*
Y112734D01*
X87368D01*
Y111656D01*
D02*
G37*
G36*
X82513Y119366D02*
X82602Y119355D01*
X82713Y119344D01*
X82835Y119322D01*
X82957Y119300D01*
X83246Y119222D01*
X83535Y119111D01*
X83679Y119044D01*
X83824Y118966D01*
X83957Y118867D01*
X84079Y118755D01*
X84090Y118744D01*
X84113Y118733D01*
X84135Y118689D01*
X84179Y118644D01*
X84235Y118589D01*
X84290Y118511D01*
X84346Y118433D01*
X84413Y118333D01*
X84524Y118122D01*
X84635Y117855D01*
X84679Y117722D01*
X84701Y117567D01*
X84724Y117411D01*
X84735Y117244D01*
Y117222D01*
Y117167D01*
X84724Y117078D01*
X84712Y116955D01*
X84690Y116822D01*
X84646Y116667D01*
X84601Y116500D01*
X84535Y116333D01*
X84524Y116311D01*
X84501Y116256D01*
X84457Y116167D01*
X84390Y116044D01*
X84302Y115911D01*
X84190Y115744D01*
X84057Y115578D01*
X83902Y115389D01*
X83879Y115367D01*
X83824Y115300D01*
X83768Y115245D01*
X83713Y115189D01*
X83646Y115122D01*
X83557Y115033D01*
X83468Y114945D01*
X83357Y114845D01*
X83246Y114734D01*
X83113Y114611D01*
X82968Y114489D01*
X82813Y114345D01*
X82635Y114200D01*
X82457Y114045D01*
X82446Y114034D01*
X82424Y114011D01*
X82379Y113978D01*
X82324Y113934D01*
X82257Y113867D01*
X82179Y113800D01*
X82002Y113656D01*
X81813Y113489D01*
X81635Y113323D01*
X81480Y113178D01*
X81413Y113123D01*
X81357Y113067D01*
X81346Y113056D01*
X81313Y113023D01*
X81268Y112978D01*
X81213Y112911D01*
X81157Y112834D01*
X81091Y112756D01*
X80957Y112567D01*
X84746D01*
Y111656D01*
X79646D01*
Y111667D01*
Y111712D01*
Y111778D01*
X79658Y111867D01*
X79669Y111967D01*
X79691Y112078D01*
X79713Y112189D01*
X79757Y112312D01*
Y112323D01*
X79769Y112334D01*
X79791Y112400D01*
X79835Y112500D01*
X79902Y112634D01*
X79991Y112789D01*
X80102Y112967D01*
X80224Y113145D01*
X80380Y113334D01*
Y113345D01*
X80402Y113356D01*
X80457Y113423D01*
X80557Y113523D01*
X80702Y113667D01*
X80869Y113834D01*
X81080Y114034D01*
X81335Y114256D01*
X81613Y114489D01*
X81624Y114500D01*
X81668Y114533D01*
X81735Y114589D01*
X81813Y114656D01*
X81913Y114745D01*
X82035Y114845D01*
X82157Y114956D01*
X82302Y115078D01*
X82579Y115345D01*
X82857Y115611D01*
X82990Y115744D01*
X83113Y115878D01*
X83224Y116000D01*
X83313Y116122D01*
Y116133D01*
X83335Y116145D01*
X83357Y116178D01*
X83379Y116222D01*
X83457Y116344D01*
X83546Y116489D01*
X83624Y116667D01*
X83701Y116856D01*
X83746Y117067D01*
X83768Y117267D01*
Y117278D01*
Y117289D01*
X83757Y117356D01*
X83746Y117467D01*
X83713Y117589D01*
X83668Y117744D01*
X83590Y117900D01*
X83490Y118055D01*
X83357Y118211D01*
X83335Y118233D01*
X83279Y118278D01*
X83202Y118333D01*
X83079Y118411D01*
X82924Y118478D01*
X82746Y118544D01*
X82535Y118589D01*
X82302Y118600D01*
X82235D01*
X82191Y118589D01*
X82057Y118578D01*
X81902Y118544D01*
X81735Y118500D01*
X81546Y118422D01*
X81368Y118322D01*
X81202Y118189D01*
X81180Y118166D01*
X81135Y118111D01*
X81068Y118022D01*
X81002Y117889D01*
X80924Y117733D01*
X80857Y117533D01*
X80813Y117311D01*
X80791Y117055D01*
X79824Y117156D01*
Y117167D01*
X79835Y117200D01*
Y117255D01*
X79846Y117333D01*
X79869Y117422D01*
X79891Y117522D01*
X79924Y117644D01*
X79957Y117767D01*
X80046Y118033D01*
X80180Y118300D01*
X80257Y118433D01*
X80357Y118567D01*
X80457Y118689D01*
X80568Y118800D01*
X80580Y118811D01*
X80602Y118822D01*
X80635Y118855D01*
X80691Y118889D01*
X80757Y118933D01*
X80835Y118977D01*
X80924Y119033D01*
X81035Y119089D01*
X81157Y119144D01*
X81291Y119200D01*
X81435Y119244D01*
X81591Y119289D01*
X81757Y119322D01*
X81935Y119355D01*
X82124Y119366D01*
X82324Y119378D01*
X82435D01*
X82513Y119366D01*
D02*
G37*
G36*
X97456D02*
X97600Y119344D01*
X97767Y119311D01*
X97945Y119266D01*
X98133Y119211D01*
X98311Y119122D01*
X98322D01*
X98333Y119111D01*
X98389Y119078D01*
X98478Y119022D01*
X98589Y118944D01*
X98711Y118833D01*
X98844Y118711D01*
X98967Y118567D01*
X99089Y118400D01*
X99100Y118378D01*
X99144Y118322D01*
X99189Y118222D01*
X99267Y118078D01*
X99333Y117911D01*
X99422Y117722D01*
X99500Y117500D01*
X99567Y117255D01*
Y117244D01*
X99578Y117222D01*
X99589Y117189D01*
X99600Y117133D01*
X99611Y117067D01*
X99622Y116989D01*
X99644Y116889D01*
X99655Y116778D01*
X99678Y116656D01*
X99689Y116522D01*
X99700Y116367D01*
X99722Y116211D01*
X99733Y116033D01*
Y115856D01*
X99744Y115656D01*
Y115445D01*
Y115434D01*
Y115389D01*
Y115311D01*
Y115222D01*
X99733Y115100D01*
Y114967D01*
X99722Y114822D01*
X99711Y114667D01*
X99678Y114311D01*
X99622Y113945D01*
X99555Y113589D01*
X99511Y113423D01*
X99455Y113256D01*
Y113245D01*
X99444Y113223D01*
X99422Y113178D01*
X99400Y113123D01*
X99378Y113045D01*
X99333Y112967D01*
X99244Y112778D01*
X99133Y112578D01*
X98989Y112356D01*
X98822Y112156D01*
X98622Y111967D01*
X98611D01*
X98600Y111945D01*
X98567Y111923D01*
X98522Y111900D01*
X98467Y111867D01*
X98411Y111823D01*
X98245Y111745D01*
X98045Y111667D01*
X97811Y111589D01*
X97534Y111545D01*
X97233Y111523D01*
X97122D01*
X97045Y111534D01*
X96956Y111545D01*
X96845Y111567D01*
X96723Y111589D01*
X96589Y111623D01*
X96456Y111667D01*
X96311Y111712D01*
X96167Y111778D01*
X96022Y111856D01*
X95878Y111945D01*
X95734Y112056D01*
X95600Y112178D01*
X95478Y112312D01*
X95467Y112323D01*
X95445Y112356D01*
X95411Y112411D01*
X95356Y112500D01*
X95300Y112600D01*
X95245Y112734D01*
X95167Y112889D01*
X95100Y113067D01*
X95034Y113267D01*
X94967Y113500D01*
X94900Y113756D01*
X94845Y114045D01*
X94789Y114356D01*
X94756Y114689D01*
X94734Y115056D01*
X94723Y115445D01*
Y115456D01*
Y115500D01*
Y115578D01*
Y115667D01*
X94734Y115789D01*
Y115922D01*
X94745Y116067D01*
X94756Y116233D01*
X94789Y116578D01*
X94845Y116944D01*
X94911Y117311D01*
X94956Y117478D01*
X95000Y117644D01*
Y117656D01*
X95012Y117678D01*
X95034Y117722D01*
X95056Y117778D01*
X95078Y117855D01*
X95123Y117933D01*
X95211Y118122D01*
X95323Y118322D01*
X95467Y118533D01*
X95634Y118744D01*
X95834Y118922D01*
X95845D01*
X95856Y118944D01*
X95889Y118966D01*
X95934Y118989D01*
X95989Y119033D01*
X96056Y119066D01*
X96223Y119155D01*
X96422Y119233D01*
X96656Y119311D01*
X96934Y119355D01*
X97233Y119378D01*
X97334D01*
X97456Y119366D01*
D02*
G37*
G36*
X91479D02*
X91623Y119344D01*
X91790Y119311D01*
X91967Y119266D01*
X92156Y119211D01*
X92334Y119122D01*
X92345D01*
X92356Y119111D01*
X92412Y119078D01*
X92501Y119022D01*
X92612Y118944D01*
X92734Y118833D01*
X92867Y118711D01*
X92989Y118567D01*
X93112Y118400D01*
X93123Y118378D01*
X93167Y118322D01*
X93212Y118222D01*
X93290Y118078D01*
X93356Y117911D01*
X93445Y117722D01*
X93523Y117500D01*
X93589Y117255D01*
Y117244D01*
X93600Y117222D01*
X93612Y117189D01*
X93623Y117133D01*
X93634Y117067D01*
X93645Y116989D01*
X93667Y116889D01*
X93678Y116778D01*
X93700Y116656D01*
X93712Y116522D01*
X93723Y116367D01*
X93745Y116211D01*
X93756Y116033D01*
Y115856D01*
X93767Y115656D01*
Y115445D01*
Y115434D01*
Y115389D01*
Y115311D01*
Y115222D01*
X93756Y115100D01*
Y114967D01*
X93745Y114822D01*
X93734Y114667D01*
X93700Y114311D01*
X93645Y113945D01*
X93578Y113589D01*
X93534Y113423D01*
X93478Y113256D01*
Y113245D01*
X93467Y113223D01*
X93445Y113178D01*
X93423Y113123D01*
X93401Y113045D01*
X93356Y112967D01*
X93267Y112778D01*
X93156Y112578D01*
X93012Y112356D01*
X92845Y112156D01*
X92645Y111967D01*
X92634D01*
X92623Y111945D01*
X92589Y111923D01*
X92545Y111900D01*
X92489Y111867D01*
X92434Y111823D01*
X92267Y111745D01*
X92067Y111667D01*
X91834Y111589D01*
X91556Y111545D01*
X91256Y111523D01*
X91145D01*
X91067Y111534D01*
X90979Y111545D01*
X90868Y111567D01*
X90745Y111589D01*
X90612Y111623D01*
X90479Y111667D01*
X90334Y111712D01*
X90190Y111778D01*
X90045Y111856D01*
X89901Y111945D01*
X89757Y112056D01*
X89623Y112178D01*
X89501Y112312D01*
X89490Y112323D01*
X89468Y112356D01*
X89434Y112411D01*
X89379Y112500D01*
X89323Y112600D01*
X89268Y112734D01*
X89190Y112889D01*
X89123Y113067D01*
X89057Y113267D01*
X88990Y113500D01*
X88923Y113756D01*
X88868Y114045D01*
X88812Y114356D01*
X88779Y114689D01*
X88757Y115056D01*
X88745Y115445D01*
Y115456D01*
Y115500D01*
Y115578D01*
Y115667D01*
X88757Y115789D01*
Y115922D01*
X88768Y116067D01*
X88779Y116233D01*
X88812Y116578D01*
X88868Y116944D01*
X88934Y117311D01*
X88979Y117478D01*
X89023Y117644D01*
Y117656D01*
X89034Y117678D01*
X89057Y117722D01*
X89079Y117778D01*
X89101Y117855D01*
X89145Y117933D01*
X89234Y118122D01*
X89345Y118322D01*
X89490Y118533D01*
X89657Y118744D01*
X89856Y118922D01*
X89868D01*
X89879Y118944D01*
X89912Y118966D01*
X89956Y118989D01*
X90012Y119033D01*
X90079Y119066D01*
X90245Y119155D01*
X90445Y119233D01*
X90679Y119311D01*
X90956Y119355D01*
X91256Y119378D01*
X91356D01*
X91479Y119366D01*
D02*
G37*
G36*
X116532Y119466D02*
X116565Y119422D01*
X116609Y119344D01*
X116676Y119255D01*
X116765Y119133D01*
X116854Y118989D01*
X116954Y118833D01*
X117065Y118655D01*
X117187Y118455D01*
X117298Y118244D01*
X117420Y118033D01*
X117543Y117800D01*
X117765Y117322D01*
X117876Y117067D01*
X117965Y116822D01*
Y116811D01*
X117987Y116767D01*
X117998Y116711D01*
X118031Y116622D01*
X118065Y116522D01*
X118098Y116400D01*
X118131Y116256D01*
X118176Y116100D01*
X118209Y115922D01*
X118243Y115733D01*
X118276Y115545D01*
X118309Y115333D01*
X118354Y114889D01*
X118376Y114434D01*
Y114423D01*
Y114367D01*
Y114289D01*
X118365Y114189D01*
Y114067D01*
X118342Y113911D01*
X118331Y113745D01*
X118309Y113556D01*
X118276Y113356D01*
X118243Y113134D01*
X118142Y112678D01*
X118087Y112434D01*
X118009Y112189D01*
X117931Y111934D01*
X117831Y111689D01*
X117820Y111678D01*
X117809Y111634D01*
X117776Y111567D01*
X117731Y111467D01*
X117687Y111356D01*
X117620Y111223D01*
X117543Y111078D01*
X117465Y110912D01*
X117376Y110734D01*
X117276Y110556D01*
X117054Y110167D01*
X116798Y109767D01*
X116521Y109390D01*
X115843D01*
Y109401D01*
X115865Y109423D01*
X115887Y109456D01*
X115909Y109501D01*
X115943Y109567D01*
X115987Y109634D01*
X116032Y109723D01*
X116087Y109823D01*
X116209Y110045D01*
X116343Y110323D01*
X116476Y110623D01*
X116632Y110967D01*
X116776Y111334D01*
X116909Y111723D01*
X117043Y112145D01*
X117165Y112578D01*
X117265Y113023D01*
X117343Y113489D01*
X117387Y113956D01*
X117409Y114434D01*
Y114445D01*
Y114478D01*
Y114533D01*
Y114600D01*
X117398Y114689D01*
Y114800D01*
X117387Y114911D01*
X117376Y115045D01*
X117365Y115189D01*
X117354Y115345D01*
X117309Y115667D01*
X117254Y116022D01*
X117176Y116389D01*
Y116400D01*
X117165Y116422D01*
X117154Y116467D01*
X117143Y116522D01*
X117120Y116589D01*
X117098Y116678D01*
X117043Y116878D01*
X116976Y117100D01*
X116887Y117356D01*
X116787Y117633D01*
X116676Y117900D01*
Y117911D01*
X116665Y117922D01*
X116654Y117955D01*
X116632Y117989D01*
X116609Y118044D01*
X116576Y118111D01*
X116543Y118178D01*
X116498Y118278D01*
X116443Y118378D01*
X116387Y118489D01*
X116321Y118622D01*
X116243Y118766D01*
X116154Y118922D01*
X116065Y119089D01*
X115954Y119278D01*
X115843Y119477D01*
X116521D01*
X116532Y119466D01*
D02*
G37*
G36*
X106421D02*
X106410Y119433D01*
X106377Y119378D01*
X106333Y119300D01*
X106277Y119211D01*
X106221Y119100D01*
X106088Y118867D01*
X105944Y118611D01*
X105810Y118355D01*
X105677Y118111D01*
X105633Y118011D01*
X105588Y117911D01*
Y117900D01*
X105577Y117878D01*
X105555Y117844D01*
X105533Y117789D01*
X105510Y117722D01*
X105477Y117644D01*
X105444Y117555D01*
X105411Y117455D01*
X105322Y117222D01*
X105244Y116967D01*
X105166Y116689D01*
X105088Y116400D01*
Y116389D01*
X105077Y116356D01*
X105066Y116300D01*
X105055Y116233D01*
X105033Y116145D01*
X105022Y116033D01*
X104999Y115922D01*
X104977Y115789D01*
X104955Y115645D01*
X104933Y115489D01*
X104899Y115156D01*
X104877Y114800D01*
X104866Y114434D01*
Y114423D01*
Y114400D01*
Y114367D01*
Y114322D01*
X104877Y114256D01*
Y114189D01*
X104888Y114100D01*
Y114000D01*
X104911Y113767D01*
X104944Y113500D01*
X104999Y113189D01*
X105066Y112856D01*
X105144Y112489D01*
X105244Y112089D01*
X105377Y111667D01*
X105533Y111234D01*
X105710Y110790D01*
X105910Y110323D01*
X106155Y109856D01*
X106433Y109390D01*
X105755D01*
X105744Y109401D01*
X105722Y109434D01*
X105677Y109490D01*
X105622Y109567D01*
X105555Y109656D01*
X105477Y109767D01*
X105388Y109901D01*
X105299Y110045D01*
X105188Y110212D01*
X105088Y110389D01*
X104977Y110578D01*
X104866Y110778D01*
X104755Y110989D01*
X104644Y111212D01*
X104433Y111689D01*
X104422Y111700D01*
X104411Y111745D01*
X104388Y111823D01*
X104355Y111923D01*
X104311Y112045D01*
X104266Y112178D01*
X104222Y112345D01*
X104166Y112534D01*
X104122Y112723D01*
X104066Y112945D01*
X104022Y113167D01*
X103988Y113400D01*
X103922Y113911D01*
X103911Y114167D01*
X103900Y114434D01*
Y114445D01*
Y114489D01*
Y114556D01*
X103911Y114645D01*
Y114756D01*
X103922Y114889D01*
X103933Y115033D01*
X103955Y115200D01*
X103966Y115378D01*
X103999Y115567D01*
X104066Y115967D01*
X104166Y116389D01*
X104299Y116822D01*
X104311Y116833D01*
X104322Y116878D01*
X104344Y116955D01*
X104388Y117055D01*
X104433Y117167D01*
X104499Y117311D01*
X104577Y117478D01*
X104655Y117656D01*
X104755Y117844D01*
X104855Y118055D01*
X104977Y118278D01*
X105111Y118500D01*
X105255Y118744D01*
X105411Y118989D01*
X105577Y119233D01*
X105755Y119477D01*
X106433D01*
X106421Y119466D01*
D02*
G37*
%LPC*%
G36*
X249400Y43700D02*
X249055D01*
X249044D01*
X249033D01*
X248978D01*
X248878D01*
X248744Y43689D01*
X248600D01*
X248422Y43678D01*
X248233Y43667D01*
X248022Y43644D01*
X247600Y43589D01*
X247389Y43556D01*
X247189Y43511D01*
X247000Y43467D01*
X246822Y43400D01*
X246667Y43333D01*
X246533Y43256D01*
X246522D01*
X246511Y43233D01*
X246478Y43211D01*
X246433Y43178D01*
X246334Y43078D01*
X246211Y42956D01*
X246100Y42789D01*
X246000Y42600D01*
X245956Y42500D01*
X245922Y42389D01*
X245911Y42267D01*
X245900Y42145D01*
Y42078D01*
X245911Y42033D01*
X245934Y41911D01*
X245967Y41767D01*
X246034Y41600D01*
X246133Y41423D01*
X246200Y41334D01*
X246267Y41245D01*
X246356Y41167D01*
X246456Y41089D01*
X246467D01*
X246489Y41067D01*
X246533Y41045D01*
X246589Y41011D01*
X246678Y40978D01*
X246778Y40934D01*
X246900Y40900D01*
X247044Y40856D01*
X247211Y40811D01*
X247400Y40767D01*
X247611Y40723D01*
X247844Y40689D01*
X248111Y40656D01*
X248400Y40634D01*
X248711Y40623D01*
X249055Y40611D01*
X249078D01*
X249133D01*
X249233D01*
X249366Y40623D01*
X249511D01*
X249689Y40634D01*
X249878Y40645D01*
X250078Y40667D01*
X250511Y40723D01*
X250722Y40756D01*
X250922Y40800D01*
X251111Y40845D01*
X251289Y40911D01*
X251444Y40978D01*
X251577Y41056D01*
X251589D01*
X251600Y41078D01*
X251677Y41134D01*
X251777Y41234D01*
X251888Y41356D01*
X252000Y41522D01*
X252100Y41711D01*
X252177Y41922D01*
X252188Y42033D01*
X252200Y42156D01*
Y42222D01*
X252188Y42267D01*
X252166Y42378D01*
X252122Y42533D01*
X252044Y42700D01*
X251933Y42889D01*
X251866Y42978D01*
X251777Y43067D01*
X251689Y43156D01*
X251577Y43244D01*
X251566D01*
X251544Y43267D01*
X251511Y43289D01*
X251455Y43311D01*
X251377Y43356D01*
X251277Y43389D01*
X251166Y43433D01*
X251033Y43478D01*
X250866Y43511D01*
X250689Y43556D01*
X250478Y43600D01*
X250255Y43633D01*
X249989Y43656D01*
X249711Y43678D01*
X249400Y43700D01*
D02*
G37*
G36*
X247678Y37678D02*
X247667D01*
X247644D01*
X247600D01*
X247545Y37667D01*
X247467D01*
X247389Y37656D01*
X247211Y37623D01*
X247000Y37578D01*
X246778Y37501D01*
X246567Y37390D01*
X246378Y37245D01*
X246367D01*
X246356Y37223D01*
X246300Y37167D01*
X246222Y37078D01*
X246133Y36956D01*
X246056Y36801D01*
X245978Y36623D01*
X245922Y36423D01*
X245900Y36312D01*
Y36134D01*
X245911Y36090D01*
X245922Y35967D01*
X245967Y35823D01*
X246022Y35645D01*
X246122Y35456D01*
X246245Y35267D01*
X246334Y35179D01*
X246422Y35090D01*
X246433D01*
X246445Y35068D01*
X246478Y35045D01*
X246511Y35023D01*
X246622Y34945D01*
X246778Y34868D01*
X246967Y34779D01*
X247200Y34701D01*
X247467Y34657D01*
X247756Y34634D01*
X247767D01*
X247789D01*
X247822D01*
X247878Y34645D01*
X247944D01*
X248011Y34657D01*
X248178Y34690D01*
X248367Y34745D01*
X248567Y34812D01*
X248767Y34923D01*
X248944Y35068D01*
X248967Y35090D01*
X249011Y35145D01*
X249089Y35245D01*
X249166Y35368D01*
X249255Y35534D01*
X249333Y35723D01*
X249378Y35934D01*
X249400Y36167D01*
Y36234D01*
X249389Y36279D01*
X249378Y36401D01*
X249344Y36545D01*
X249289Y36723D01*
X249211Y36901D01*
X249100Y37078D01*
X248944Y37245D01*
X248922Y37267D01*
X248855Y37312D01*
X248756Y37378D01*
X248611Y37467D01*
X248433Y37545D01*
X248222Y37612D01*
X247967Y37656D01*
X247678Y37678D01*
D02*
G37*
G36*
X249400Y28757D02*
X249055D01*
X249044D01*
X249033D01*
X248978D01*
X248878D01*
X248744Y28746D01*
X248600D01*
X248422Y28735D01*
X248233Y28724D01*
X248022Y28701D01*
X247600Y28646D01*
X247389Y28613D01*
X247189Y28568D01*
X247000Y28524D01*
X246822Y28457D01*
X246667Y28390D01*
X246533Y28313D01*
X246522D01*
X246511Y28291D01*
X246478Y28268D01*
X246433Y28235D01*
X246334Y28135D01*
X246211Y28013D01*
X246100Y27846D01*
X246000Y27657D01*
X245956Y27557D01*
X245922Y27446D01*
X245911Y27324D01*
X245900Y27202D01*
Y27135D01*
X245911Y27091D01*
X245934Y26968D01*
X245967Y26824D01*
X246034Y26657D01*
X246133Y26480D01*
X246200Y26391D01*
X246267Y26302D01*
X246356Y26224D01*
X246456Y26146D01*
X246467D01*
X246489Y26124D01*
X246533Y26102D01*
X246589Y26068D01*
X246678Y26035D01*
X246778Y25991D01*
X246900Y25957D01*
X247044Y25913D01*
X247211Y25868D01*
X247400Y25824D01*
X247611Y25780D01*
X247844Y25746D01*
X248111Y25713D01*
X248400Y25691D01*
X248711Y25680D01*
X249055Y25668D01*
X249078D01*
X249133D01*
X249233D01*
X249366Y25680D01*
X249511D01*
X249689Y25691D01*
X249878Y25702D01*
X250078Y25724D01*
X250511Y25780D01*
X250722Y25813D01*
X250922Y25857D01*
X251111Y25902D01*
X251289Y25969D01*
X251444Y26035D01*
X251577Y26113D01*
X251589D01*
X251600Y26135D01*
X251677Y26191D01*
X251777Y26291D01*
X251888Y26413D01*
X252000Y26579D01*
X252100Y26768D01*
X252177Y26980D01*
X252188Y27091D01*
X252200Y27213D01*
Y27279D01*
X252188Y27324D01*
X252166Y27435D01*
X252122Y27591D01*
X252044Y27757D01*
X251933Y27946D01*
X251866Y28035D01*
X251777Y28124D01*
X251689Y28213D01*
X251577Y28302D01*
X251566D01*
X251544Y28324D01*
X251511Y28346D01*
X251455Y28368D01*
X251377Y28413D01*
X251277Y28446D01*
X251166Y28490D01*
X251033Y28535D01*
X250866Y28568D01*
X250689Y28613D01*
X250478Y28657D01*
X250255Y28690D01*
X249989Y28713D01*
X249711Y28735D01*
X249400Y28757D01*
D02*
G37*
G36*
X97222Y118600D02*
X97156D01*
X97111Y118589D01*
X96989Y118567D01*
X96845Y118533D01*
X96678Y118466D01*
X96500Y118367D01*
X96411Y118300D01*
X96323Y118233D01*
X96245Y118144D01*
X96167Y118044D01*
Y118033D01*
X96145Y118011D01*
X96122Y117966D01*
X96089Y117911D01*
X96056Y117822D01*
X96011Y117722D01*
X95978Y117600D01*
X95934Y117455D01*
X95889Y117289D01*
X95845Y117100D01*
X95800Y116889D01*
X95767Y116656D01*
X95734Y116389D01*
X95711Y116100D01*
X95700Y115789D01*
X95689Y115445D01*
Y115422D01*
Y115367D01*
Y115267D01*
X95700Y115134D01*
Y114989D01*
X95711Y114811D01*
X95723Y114622D01*
X95745Y114423D01*
X95800Y113989D01*
X95834Y113778D01*
X95878Y113578D01*
X95922Y113389D01*
X95989Y113212D01*
X96056Y113056D01*
X96134Y112923D01*
Y112911D01*
X96156Y112900D01*
X96211Y112823D01*
X96311Y112723D01*
X96434Y112611D01*
X96600Y112500D01*
X96789Y112400D01*
X97000Y112323D01*
X97111Y112312D01*
X97233Y112300D01*
X97300D01*
X97345Y112312D01*
X97456Y112334D01*
X97611Y112378D01*
X97778Y112456D01*
X97967Y112567D01*
X98056Y112634D01*
X98145Y112723D01*
X98233Y112812D01*
X98322Y112923D01*
Y112934D01*
X98344Y112956D01*
X98367Y112989D01*
X98389Y113045D01*
X98433Y113123D01*
X98467Y113223D01*
X98511Y113334D01*
X98556Y113467D01*
X98589Y113634D01*
X98633Y113811D01*
X98678Y114023D01*
X98711Y114245D01*
X98733Y114511D01*
X98756Y114789D01*
X98778Y115100D01*
Y115445D01*
Y115456D01*
Y115467D01*
Y115522D01*
Y115622D01*
X98767Y115756D01*
Y115900D01*
X98756Y116078D01*
X98744Y116267D01*
X98722Y116478D01*
X98667Y116900D01*
X98633Y117111D01*
X98589Y117311D01*
X98545Y117500D01*
X98478Y117678D01*
X98411Y117833D01*
X98333Y117966D01*
Y117978D01*
X98311Y117989D01*
X98289Y118022D01*
X98256Y118067D01*
X98156Y118166D01*
X98033Y118289D01*
X97867Y118400D01*
X97678Y118500D01*
X97578Y118544D01*
X97467Y118578D01*
X97345Y118589D01*
X97222Y118600D01*
D02*
G37*
G36*
X91245D02*
X91179D01*
X91134Y118589D01*
X91012Y118567D01*
X90868Y118533D01*
X90701Y118466D01*
X90523Y118367D01*
X90434Y118300D01*
X90345Y118233D01*
X90267Y118144D01*
X90190Y118044D01*
Y118033D01*
X90168Y118011D01*
X90145Y117966D01*
X90112Y117911D01*
X90079Y117822D01*
X90034Y117722D01*
X90001Y117600D01*
X89956Y117455D01*
X89912Y117289D01*
X89868Y117100D01*
X89823Y116889D01*
X89790Y116656D01*
X89757Y116389D01*
X89734Y116100D01*
X89723Y115789D01*
X89712Y115445D01*
Y115422D01*
Y115367D01*
Y115267D01*
X89723Y115134D01*
Y114989D01*
X89734Y114811D01*
X89745Y114622D01*
X89768Y114423D01*
X89823Y113989D01*
X89856Y113778D01*
X89901Y113578D01*
X89945Y113389D01*
X90012Y113212D01*
X90079Y113056D01*
X90156Y112923D01*
Y112911D01*
X90179Y112900D01*
X90234Y112823D01*
X90334Y112723D01*
X90456Y112611D01*
X90623Y112500D01*
X90812Y112400D01*
X91023Y112323D01*
X91134Y112312D01*
X91256Y112300D01*
X91323D01*
X91367Y112312D01*
X91479Y112334D01*
X91634Y112378D01*
X91801Y112456D01*
X91990Y112567D01*
X92079Y112634D01*
X92167Y112723D01*
X92256Y112812D01*
X92345Y112923D01*
Y112934D01*
X92367Y112956D01*
X92390Y112989D01*
X92412Y113045D01*
X92456Y113123D01*
X92489Y113223D01*
X92534Y113334D01*
X92578Y113467D01*
X92612Y113634D01*
X92656Y113811D01*
X92701Y114023D01*
X92734Y114245D01*
X92756Y114511D01*
X92778Y114789D01*
X92801Y115100D01*
Y115445D01*
Y115456D01*
Y115467D01*
Y115522D01*
Y115622D01*
X92790Y115756D01*
Y115900D01*
X92778Y116078D01*
X92767Y116267D01*
X92745Y116478D01*
X92690Y116900D01*
X92656Y117111D01*
X92612Y117311D01*
X92567Y117500D01*
X92501Y117678D01*
X92434Y117833D01*
X92356Y117966D01*
Y117978D01*
X92334Y117989D01*
X92312Y118022D01*
X92278Y118067D01*
X92178Y118166D01*
X92056Y118289D01*
X91890Y118400D01*
X91701Y118500D01*
X91601Y118544D01*
X91490Y118578D01*
X91367Y118589D01*
X91245Y118600D01*
D02*
G37*
%LPD*%
D11*
X98995Y242632D02*
G03*
X98995Y242632I-3333J0D01*
G01*
X92329Y284298D02*
Y285965D01*
X93995Y287632D01*
X92329Y289298D02*
X93995Y287632D01*
X92329Y289298D02*
Y290965D01*
X93995D01*
X95662Y289298D01*
X97329Y290965D01*
X98995D01*
Y289298D02*
Y290965D01*
X97329Y287632D02*
X98995Y289298D01*
X97329Y287632D02*
X98995Y285965D01*
Y284298D02*
Y285965D01*
X97329Y284298D02*
X98995D01*
X95662Y285965D02*
X97329Y284298D01*
X93995D02*
X95662Y285965D01*
X92329Y284298D02*
X93995D01*
X95662Y269298D02*
X98995Y275965D01*
X92329D02*
X98995D01*
X92329D02*
X95662Y269298D01*
X93995Y255965D02*
X95662Y254298D01*
X92329Y255965D02*
X93995D01*
X92329D02*
X93995Y257631D01*
X92329Y259298D02*
X93995Y257631D01*
X92329Y259298D02*
X93995D01*
X95662Y260965D01*
X97329Y259298D01*
X98995D01*
X97329Y257631D02*
X98995Y259298D01*
X97329Y257631D02*
X98995Y255965D01*
X97329D02*
X98995D01*
X95662Y254298D02*
X97329Y255965D01*
X92329Y224298D02*
X98995D01*
Y230965D01*
X92329D02*
X98995D01*
X92329Y224298D02*
Y230965D01*
Y209298D02*
X95662Y210965D01*
X98995Y209298D01*
X97329Y212632D02*
X98995Y209298D01*
X97329Y212632D02*
X98995Y215965D01*
X95662Y214298D02*
X98995Y215965D01*
X92329D02*
X95662Y214298D01*
X92329Y215965D02*
X93995Y212632D01*
X92329Y209298D02*
X93995Y212632D01*
X247800Y90000D02*
X249800Y84000D01*
X245800D02*
X247800Y90000D01*
X245800Y6000D02*
X247800Y0D01*
X249800Y6000D01*
X247800Y64298D02*
Y90000D01*
Y0D02*
Y23702D01*
X178200Y90000D02*
X248800D01*
X175400Y0D02*
X248800D01*
X0Y116700D02*
X6000Y118700D01*
X0Y116700D02*
X6000Y114700D01*
X194000D02*
X200000Y116700D01*
X194000Y118700D02*
X200000Y116700D01*
X0D02*
X78646D01*
X119376D02*
X200000D01*
X0Y80000D02*
Y117700D01*
X200000Y80000D02*
Y117700D01*
X652796Y284298D02*
Y290296D01*
X655795D01*
X656794Y289297D01*
Y287297D01*
X655795Y286297D01*
X652796D01*
X654795D02*
X656794Y284298D01*
X659793D02*
X661793D01*
X662792Y285298D01*
Y287297D01*
X661793Y288297D01*
X659793D01*
X658794Y287297D01*
Y285298D01*
X659793Y284298D01*
X664792Y288297D02*
Y285298D01*
X665792Y284298D01*
X668790D01*
Y288297D01*
X670790Y284298D02*
Y288297D01*
X673789D01*
X674789Y287297D01*
Y284298D01*
X680787Y290296D02*
Y284298D01*
X677788D01*
X676788Y285298D01*
Y287297D01*
X677788Y288297D01*
X680787D01*
X685785Y284298D02*
X683786D01*
X682786Y285298D01*
Y287297D01*
X683786Y288297D01*
X685785D01*
X686785Y287297D01*
Y286297D01*
X682786D01*
X692783Y290296D02*
Y284298D01*
X689784D01*
X688784Y285298D01*
Y287297D01*
X689784Y288297D01*
X692783D01*
X652796Y269298D02*
Y275296D01*
X655795D01*
X656794Y274297D01*
Y272297D01*
X655795Y271298D01*
X652796D01*
X654795D02*
X656794Y269298D01*
X659793D02*
X661793D01*
X662792Y270298D01*
Y272297D01*
X661793Y273297D01*
X659793D01*
X658794Y272297D01*
Y270298D01*
X659793Y269298D01*
X664792Y273297D02*
Y270298D01*
X665792Y269298D01*
X668790D01*
Y273297D01*
X670790Y269298D02*
Y273297D01*
X673789D01*
X674789Y272297D01*
Y269298D01*
X680787Y275296D02*
Y269298D01*
X677788D01*
X676788Y270298D01*
Y272297D01*
X677788Y273297D01*
X680787D01*
X685785Y269298D02*
X683786D01*
X682786Y270298D01*
Y272297D01*
X683786Y273297D01*
X685785D01*
X686785Y272297D01*
Y271298D01*
X682786D01*
X692783Y275296D02*
Y269298D01*
X689784D01*
X688784Y270298D01*
Y272297D01*
X689784Y273297D01*
X692783D01*
X700780Y269298D02*
Y275296D01*
X703779D01*
X704779Y274297D01*
Y272297D01*
X703779Y271298D01*
X700780D01*
X702779D02*
X704779Y269298D01*
X709777D02*
X707778D01*
X706778Y270298D01*
Y272297D01*
X707778Y273297D01*
X709777D01*
X710777Y272297D01*
Y271298D01*
X706778D01*
X716775Y273297D02*
X713776D01*
X712776Y272297D01*
Y270298D01*
X713776Y269298D01*
X716775D01*
X719774Y274297D02*
Y273297D01*
X718774D01*
X720774D01*
X719774D01*
Y270298D01*
X720774Y269298D01*
X724772Y273297D02*
X726772D01*
X727771Y272297D01*
Y269298D01*
X724772D01*
X723773Y270298D01*
X724772Y271298D01*
X727771D01*
X729771Y269298D02*
Y273297D01*
X732770D01*
X733770Y272297D01*
Y269298D01*
X737768Y267299D02*
X738768D01*
X739768Y268299D01*
Y273297D01*
X736768D01*
X735769Y272297D01*
Y270298D01*
X736768Y269298D01*
X739768D01*
X741767D02*
X743766D01*
X742767D01*
Y275296D01*
X741767D01*
X749764Y269298D02*
X747765D01*
X746765Y270298D01*
Y272297D01*
X747765Y273297D01*
X749764D01*
X750764Y272297D01*
Y271298D01*
X746765D01*
X652796Y254298D02*
Y260296D01*
X655795D01*
X656794Y259297D01*
Y257297D01*
X655795Y256297D01*
X652796D01*
X654795D02*
X656794Y254298D01*
X659793D02*
X661793D01*
X662792Y255298D01*
Y257297D01*
X661793Y258297D01*
X659793D01*
X658794Y257297D01*
Y255298D01*
X659793Y254298D01*
X664792Y258297D02*
Y255298D01*
X665792Y254298D01*
X668790D01*
Y258297D01*
X670790Y254298D02*
Y258297D01*
X673789D01*
X674789Y257297D01*
Y254298D01*
X680787Y260296D02*
Y254298D01*
X677788D01*
X676788Y255298D01*
Y257297D01*
X677788Y258297D01*
X680787D01*
X685785Y254298D02*
X683786D01*
X682786Y255298D01*
Y257297D01*
X683786Y258297D01*
X685785D01*
X686785Y257297D01*
Y256297D01*
X682786D01*
X692783Y260296D02*
Y254298D01*
X689784D01*
X688784Y255298D01*
Y257297D01*
X689784Y258297D01*
X692783D01*
X654795Y239298D02*
X652796Y241298D01*
Y243297D01*
X654795Y245296D01*
X657794Y239298D02*
Y245296D01*
X659793Y243297D01*
X661793Y245296D01*
Y239298D01*
X663792D02*
X665792D01*
X664792D01*
Y243297D01*
X663792D01*
X668790D02*
X672789Y239298D01*
X670790Y241298D01*
X672789Y243297D01*
X668790Y239298D01*
X677788D02*
X675788D01*
X674789Y240298D01*
Y242297D01*
X675788Y243297D01*
X677788D01*
X678787Y242297D01*
Y241298D01*
X674789D01*
X684785Y245296D02*
Y239298D01*
X681786D01*
X680787Y240298D01*
Y242297D01*
X681786Y243297D01*
X684785D01*
X686785Y239298D02*
X688784Y241298D01*
Y243297D01*
X686785Y245296D01*
X652796Y224298D02*
Y230296D01*
X655795D01*
X656794Y229297D01*
Y227297D01*
X655795Y226297D01*
X652796D01*
X654795D02*
X656794Y224298D01*
X659793D02*
X661793D01*
X662792Y225298D01*
Y227297D01*
X661793Y228297D01*
X659793D01*
X658794Y227297D01*
Y225298D01*
X659793Y224298D01*
X664792Y228297D02*
Y225298D01*
X665792Y224298D01*
X668790D01*
Y228297D01*
X670790Y224298D02*
Y228297D01*
X673789D01*
X674789Y227297D01*
Y224298D01*
X680787Y230296D02*
Y224298D01*
X677788D01*
X676788Y225298D01*
Y227297D01*
X677788Y228297D01*
X680787D01*
X685785Y224298D02*
X683786D01*
X682786Y225298D01*
Y227297D01*
X683786Y228297D01*
X685785D01*
X686785Y227297D01*
Y226297D01*
X682786D01*
X692783Y230296D02*
Y224298D01*
X689784D01*
X688784Y225298D01*
Y227297D01*
X689784Y228297D01*
X692783D01*
X652796Y209298D02*
Y215296D01*
X655795D01*
X656794Y214297D01*
Y212297D01*
X655795Y211297D01*
X652796D01*
X654795D02*
X656794Y209298D01*
X659793D02*
X661793D01*
X662792Y210298D01*
Y212297D01*
X661793Y213297D01*
X659793D01*
X658794Y212297D01*
Y210298D01*
X659793Y209298D01*
X664792Y213297D02*
Y210298D01*
X665792Y209298D01*
X668790D01*
Y213297D01*
X670790Y209298D02*
Y213297D01*
X673789D01*
X674789Y212297D01*
Y209298D01*
X680787Y215296D02*
Y209298D01*
X677788D01*
X676788Y210298D01*
Y212297D01*
X677788Y213297D01*
X680787D01*
X685785Y209298D02*
X683786D01*
X682786Y210298D01*
Y212297D01*
X683786Y213297D01*
X685785D01*
X686785Y212297D01*
Y211297D01*
X682786D01*
X692783Y215296D02*
Y209298D01*
X689784D01*
X688784Y210298D01*
Y212297D01*
X689784Y213297D01*
X692783D01*
X593811Y290296D02*
Y286297D01*
X595810Y284298D01*
X597810Y286297D01*
Y290296D01*
X599809Y284298D02*
X601808D01*
X600809D01*
Y288297D01*
X599809D01*
X605807D02*
X607806D01*
X608806Y287297D01*
Y284298D01*
X605807D01*
X604807Y285298D01*
X605807Y286297D01*
X608806D01*
X593811Y269298D02*
Y275296D01*
X596810D01*
X597810Y274297D01*
Y272297D01*
X596810Y271298D01*
X593811D01*
X600809Y273297D02*
X602808D01*
X603808Y272297D01*
Y269298D01*
X600809D01*
X599809Y270298D01*
X600809Y271298D01*
X603808D01*
X609806Y275296D02*
Y269298D01*
X606807D01*
X605807Y270298D01*
Y272297D01*
X606807Y273297D01*
X609806D01*
X593811Y254298D02*
Y260296D01*
X596810D01*
X597810Y259297D01*
Y257297D01*
X596810Y256297D01*
X593811D01*
X600809Y258297D02*
X602808D01*
X603808Y257297D01*
Y254298D01*
X600809D01*
X599809Y255298D01*
X600809Y256297D01*
X603808D01*
X609806Y260296D02*
Y254298D01*
X606807D01*
X605807Y255298D01*
Y257297D01*
X606807Y258297D01*
X609806D01*
X593811Y239298D02*
Y245296D01*
X596810D01*
X597810Y244297D01*
Y242297D01*
X596810Y241298D01*
X593811D01*
X600809Y243297D02*
X602808D01*
X603808Y242297D01*
Y239298D01*
X600809D01*
X599809Y240298D01*
X600809Y241298D01*
X603808D01*
X609806Y245296D02*
Y239298D01*
X606807D01*
X605807Y240298D01*
Y242297D01*
X606807Y243297D01*
X609806D01*
X593811Y224298D02*
Y230296D01*
X596810D01*
X597810Y229297D01*
Y227297D01*
X596810Y226297D01*
X593811D01*
X600809Y228297D02*
X602808D01*
X603808Y227297D01*
Y224298D01*
X600809D01*
X599809Y225298D01*
X600809Y226297D01*
X603808D01*
X609806Y230296D02*
Y224298D01*
X606807D01*
X605807Y225298D01*
Y227297D01*
X606807Y228297D01*
X609806D01*
X593811Y209298D02*
Y215296D01*
X596810D01*
X597810Y214297D01*
Y212297D01*
X596810Y211297D01*
X593811D01*
X600809Y213297D02*
X602808D01*
X603808Y212297D01*
Y209298D01*
X600809D01*
X599809Y210298D01*
X600809Y211297D01*
X603808D01*
X609806Y215296D02*
Y209298D01*
X606807D01*
X605807Y210298D01*
Y212297D01*
X606807Y213297D01*
X609806D01*
X443856Y290296D02*
X447855D01*
X445855D01*
Y284298D01*
X450853D02*
X452853D01*
X453853Y285298D01*
Y287297D01*
X452853Y288297D01*
X450853D01*
X449854Y287297D01*
Y285298D01*
X450853Y284298D01*
X455852Y282299D02*
Y288297D01*
X458851D01*
X459851Y287297D01*
Y285298D01*
X458851Y284298D01*
X455852D01*
X467848Y290296D02*
Y284298D01*
X471847D01*
X474846Y288297D02*
X476845D01*
X477845Y287297D01*
Y284298D01*
X474846D01*
X473846Y285298D01*
X474846Y286297D01*
X477845D01*
X479844Y288297D02*
Y285298D01*
X480844Y284298D01*
X483843D01*
Y283298D01*
X482843Y282299D01*
X481844D01*
X483843Y284298D02*
Y288297D01*
X488841Y284298D02*
X486842D01*
X485842Y285298D01*
Y287297D01*
X486842Y288297D01*
X488841D01*
X489841Y287297D01*
Y286297D01*
X485842D01*
X491840Y288297D02*
Y284298D01*
Y286297D01*
X492840Y287297D01*
X493840Y288297D01*
X494839D01*
X503836Y287297D02*
X507835D01*
X515833Y290296D02*
Y284298D01*
X518831D01*
X519831Y285298D01*
Y286297D01*
X518831Y287297D01*
X515833D01*
X518831D01*
X519831Y288297D01*
Y289297D01*
X518831Y290296D01*
X515833D01*
X522830Y284298D02*
X524830D01*
X525829Y285298D01*
Y287297D01*
X524830Y288297D01*
X522830D01*
X521831Y287297D01*
Y285298D01*
X522830Y284298D01*
X528828Y289297D02*
Y288297D01*
X527829D01*
X529828D01*
X528828D01*
Y285298D01*
X529828Y284298D01*
X533827Y289297D02*
Y288297D01*
X532827D01*
X534826D01*
X533827D01*
Y285298D01*
X534826Y284298D01*
X538825D02*
X540824D01*
X541824Y285298D01*
Y287297D01*
X540824Y288297D01*
X538825D01*
X537825Y287297D01*
Y285298D01*
X538825Y284298D01*
X543823D02*
Y288297D01*
X544823D01*
X545823Y287297D01*
Y284298D01*
Y287297D01*
X546823Y288297D01*
X547822Y287297D01*
Y284298D01*
X555820Y290296D02*
Y284298D01*
X559818D01*
X562817Y288297D02*
X564817D01*
X565816Y287297D01*
Y284298D01*
X562817D01*
X561818Y285298D01*
X562817Y286297D01*
X565816D01*
X567816Y288297D02*
Y285298D01*
X568815Y284298D01*
X571814D01*
Y283298D01*
X570815Y282299D01*
X569815D01*
X571814Y284298D02*
Y288297D01*
X576813Y284298D02*
X574813D01*
X573814Y285298D01*
Y287297D01*
X574813Y288297D01*
X576813D01*
X577812Y287297D01*
Y286297D01*
X573814D01*
X579812Y288297D02*
Y284298D01*
Y286297D01*
X580812Y287297D01*
X581811Y288297D01*
X582811D01*
X443856Y275296D02*
X447855D01*
X445855D01*
Y269298D01*
X450853D02*
X452853D01*
X453853Y270298D01*
Y272297D01*
X452853Y273297D01*
X450853D01*
X449854Y272297D01*
Y270298D01*
X450853Y269298D01*
X455852Y267299D02*
Y273297D01*
X458851D01*
X459851Y272297D01*
Y270298D01*
X458851Y269298D01*
X455852D01*
X467848Y275296D02*
Y269298D01*
X471847D01*
X474846Y273297D02*
X476845D01*
X477845Y272297D01*
Y269298D01*
X474846D01*
X473846Y270298D01*
X474846Y271298D01*
X477845D01*
X479844Y273297D02*
Y270298D01*
X480844Y269298D01*
X483843D01*
Y268299D01*
X482843Y267299D01*
X481844D01*
X483843Y269298D02*
Y273297D01*
X488841Y269298D02*
X486842D01*
X485842Y270298D01*
Y272297D01*
X486842Y273297D01*
X488841D01*
X489841Y272297D01*
Y271298D01*
X485842D01*
X491840Y273297D02*
Y269298D01*
Y271298D01*
X492840Y272297D01*
X493840Y273297D01*
X494839D01*
X503836Y272297D02*
X507835D01*
X515833Y275296D02*
Y269298D01*
X518831D01*
X519831Y270298D01*
Y271298D01*
X518831Y272297D01*
X515833D01*
X518831D01*
X519831Y273297D01*
Y274297D01*
X518831Y275296D01*
X515833D01*
X522830Y269298D02*
X524830D01*
X525829Y270298D01*
Y272297D01*
X524830Y273297D01*
X522830D01*
X521831Y272297D01*
Y270298D01*
X522830Y269298D01*
X528828Y274297D02*
Y273297D01*
X527829D01*
X529828D01*
X528828D01*
Y270298D01*
X529828Y269298D01*
X533827Y274297D02*
Y273297D01*
X532827D01*
X534826D01*
X533827D01*
Y270298D01*
X534826Y269298D01*
X538825D02*
X540824D01*
X541824Y270298D01*
Y272297D01*
X540824Y273297D01*
X538825D01*
X537825Y272297D01*
Y270298D01*
X538825Y269298D01*
X543823D02*
Y273297D01*
X544823D01*
X545823Y272297D01*
Y269298D01*
Y272297D01*
X546823Y273297D01*
X547822Y272297D01*
Y269298D01*
X555820Y275296D02*
Y269298D01*
X559818D01*
X562817Y273297D02*
X564817D01*
X565816Y272297D01*
Y269298D01*
X562817D01*
X561818Y270298D01*
X562817Y271298D01*
X565816D01*
X567816Y273297D02*
Y270298D01*
X568815Y269298D01*
X571814D01*
Y268299D01*
X570815Y267299D01*
X569815D01*
X571814Y269298D02*
Y273297D01*
X576813Y269298D02*
X574813D01*
X573814Y270298D01*
Y272297D01*
X574813Y273297D01*
X576813D01*
X577812Y272297D01*
Y271298D01*
X573814D01*
X579812Y273297D02*
Y269298D01*
Y271298D01*
X580812Y272297D01*
X581811Y273297D01*
X582811D01*
X443856Y260296D02*
X447855D01*
X445855D01*
Y254298D01*
X450853D02*
X452853D01*
X453853Y255298D01*
Y257297D01*
X452853Y258297D01*
X450853D01*
X449854Y257297D01*
Y255298D01*
X450853Y254298D01*
X455852Y252299D02*
Y258297D01*
X458851D01*
X459851Y257297D01*
Y255298D01*
X458851Y254298D01*
X455852D01*
X467848Y260296D02*
Y254298D01*
X471847D01*
X474846Y258297D02*
X476845D01*
X477845Y257297D01*
Y254298D01*
X474846D01*
X473846Y255298D01*
X474846Y256297D01*
X477845D01*
X479844Y258297D02*
Y255298D01*
X480844Y254298D01*
X483843D01*
Y253298D01*
X482843Y252299D01*
X481844D01*
X483843Y254298D02*
Y258297D01*
X488841Y254298D02*
X486842D01*
X485842Y255298D01*
Y257297D01*
X486842Y258297D01*
X488841D01*
X489841Y257297D01*
Y256297D01*
X485842D01*
X491840Y258297D02*
Y254298D01*
Y256297D01*
X492840Y257297D01*
X493840Y258297D01*
X494839D01*
X503836Y257297D02*
X507835D01*
X515833Y260296D02*
Y254298D01*
X518831D01*
X519831Y255298D01*
Y256297D01*
X518831Y257297D01*
X515833D01*
X518831D01*
X519831Y258297D01*
Y259297D01*
X518831Y260296D01*
X515833D01*
X522830Y254298D02*
X524830D01*
X525829Y255298D01*
Y257297D01*
X524830Y258297D01*
X522830D01*
X521831Y257297D01*
Y255298D01*
X522830Y254298D01*
X528828Y259297D02*
Y258297D01*
X527829D01*
X529828D01*
X528828D01*
Y255298D01*
X529828Y254298D01*
X533827Y259297D02*
Y258297D01*
X532827D01*
X534826D01*
X533827D01*
Y255298D01*
X534826Y254298D01*
X538825D02*
X540824D01*
X541824Y255298D01*
Y257297D01*
X540824Y258297D01*
X538825D01*
X537825Y257297D01*
Y255298D01*
X538825Y254298D01*
X543823D02*
Y258297D01*
X544823D01*
X545823Y257297D01*
Y254298D01*
Y257297D01*
X546823Y258297D01*
X547822Y257297D01*
Y254298D01*
X555820Y260296D02*
Y254298D01*
X559818D01*
X562817Y258297D02*
X564817D01*
X565816Y257297D01*
Y254298D01*
X562817D01*
X561818Y255298D01*
X562817Y256297D01*
X565816D01*
X567816Y258297D02*
Y255298D01*
X568815Y254298D01*
X571814D01*
Y253298D01*
X570815Y252299D01*
X569815D01*
X571814Y254298D02*
Y258297D01*
X576813Y254298D02*
X574813D01*
X573814Y255298D01*
Y257297D01*
X574813Y258297D01*
X576813D01*
X577812Y257297D01*
Y256297D01*
X573814D01*
X579812Y258297D02*
Y254298D01*
Y256297D01*
X580812Y257297D01*
X581811Y258297D01*
X582811D01*
X443856Y245296D02*
X447855D01*
X445855D01*
Y239298D01*
X450853D02*
X452853D01*
X453853Y240298D01*
Y242297D01*
X452853Y243297D01*
X450853D01*
X449854Y242297D01*
Y240298D01*
X450853Y239298D01*
X455852Y237299D02*
Y243297D01*
X458851D01*
X459851Y242297D01*
Y240298D01*
X458851Y239298D01*
X455852D01*
X467848Y245296D02*
Y239298D01*
X471847D01*
X474846Y243297D02*
X476845D01*
X477845Y242297D01*
Y239298D01*
X474846D01*
X473846Y240298D01*
X474846Y241298D01*
X477845D01*
X479844Y243297D02*
Y240298D01*
X480844Y239298D01*
X483843D01*
Y238299D01*
X482843Y237299D01*
X481844D01*
X483843Y239298D02*
Y243297D01*
X488841Y239298D02*
X486842D01*
X485842Y240298D01*
Y242297D01*
X486842Y243297D01*
X488841D01*
X489841Y242297D01*
Y241298D01*
X485842D01*
X491840Y243297D02*
Y239298D01*
Y241298D01*
X492840Y242297D01*
X493840Y243297D01*
X494839D01*
X503836Y242297D02*
X507835D01*
X515833Y245296D02*
Y239298D01*
X518831D01*
X519831Y240298D01*
Y241298D01*
X518831Y242297D01*
X515833D01*
X518831D01*
X519831Y243297D01*
Y244297D01*
X518831Y245296D01*
X515833D01*
X522830Y239298D02*
X524830D01*
X525829Y240298D01*
Y242297D01*
X524830Y243297D01*
X522830D01*
X521831Y242297D01*
Y240298D01*
X522830Y239298D01*
X528828Y244297D02*
Y243297D01*
X527829D01*
X529828D01*
X528828D01*
Y240298D01*
X529828Y239298D01*
X533827Y244297D02*
Y243297D01*
X532827D01*
X534826D01*
X533827D01*
Y240298D01*
X534826Y239298D01*
X538825D02*
X540824D01*
X541824Y240298D01*
Y242297D01*
X540824Y243297D01*
X538825D01*
X537825Y242297D01*
Y240298D01*
X538825Y239298D01*
X543823D02*
Y243297D01*
X544823D01*
X545823Y242297D01*
Y239298D01*
Y242297D01*
X546823Y243297D01*
X547822Y242297D01*
Y239298D01*
X555820Y245296D02*
Y239298D01*
X559818D01*
X562817Y243297D02*
X564817D01*
X565816Y242297D01*
Y239298D01*
X562817D01*
X561818Y240298D01*
X562817Y241298D01*
X565816D01*
X567816Y243297D02*
Y240298D01*
X568815Y239298D01*
X571814D01*
Y238299D01*
X570815Y237299D01*
X569815D01*
X571814Y239298D02*
Y243297D01*
X576813Y239298D02*
X574813D01*
X573814Y240298D01*
Y242297D01*
X574813Y243297D01*
X576813D01*
X577812Y242297D01*
Y241298D01*
X573814D01*
X579812Y243297D02*
Y239298D01*
Y241298D01*
X580812Y242297D01*
X581811Y243297D01*
X582811D01*
X443856Y230296D02*
X447855D01*
X445855D01*
Y224298D01*
X450853D02*
X452853D01*
X453853Y225298D01*
Y227297D01*
X452853Y228297D01*
X450853D01*
X449854Y227297D01*
Y225298D01*
X450853Y224298D01*
X455852Y222299D02*
Y228297D01*
X458851D01*
X459851Y227297D01*
Y225298D01*
X458851Y224298D01*
X455852D01*
X467848Y230296D02*
Y224298D01*
X471847D01*
X474846Y228297D02*
X476845D01*
X477845Y227297D01*
Y224298D01*
X474846D01*
X473846Y225298D01*
X474846Y226297D01*
X477845D01*
X479844Y228297D02*
Y225298D01*
X480844Y224298D01*
X483843D01*
Y223299D01*
X482843Y222299D01*
X481844D01*
X483843Y224298D02*
Y228297D01*
X488841Y224298D02*
X486842D01*
X485842Y225298D01*
Y227297D01*
X486842Y228297D01*
X488841D01*
X489841Y227297D01*
Y226297D01*
X485842D01*
X491840Y228297D02*
Y224298D01*
Y226297D01*
X492840Y227297D01*
X493840Y228297D01*
X494839D01*
X503836Y227297D02*
X507835D01*
X515833Y230296D02*
Y224298D01*
X518831D01*
X519831Y225298D01*
Y226297D01*
X518831Y227297D01*
X515833D01*
X518831D01*
X519831Y228297D01*
Y229297D01*
X518831Y230296D01*
X515833D01*
X522830Y224298D02*
X524830D01*
X525829Y225298D01*
Y227297D01*
X524830Y228297D01*
X522830D01*
X521831Y227297D01*
Y225298D01*
X522830Y224298D01*
X528828Y229297D02*
Y228297D01*
X527829D01*
X529828D01*
X528828D01*
Y225298D01*
X529828Y224298D01*
X533827Y229297D02*
Y228297D01*
X532827D01*
X534826D01*
X533827D01*
Y225298D01*
X534826Y224298D01*
X538825D02*
X540824D01*
X541824Y225298D01*
Y227297D01*
X540824Y228297D01*
X538825D01*
X537825Y227297D01*
Y225298D01*
X538825Y224298D01*
X543823D02*
Y228297D01*
X544823D01*
X545823Y227297D01*
Y224298D01*
Y227297D01*
X546823Y228297D01*
X547822Y227297D01*
Y224298D01*
X555820Y230296D02*
Y224298D01*
X559818D01*
X562817Y228297D02*
X564817D01*
X565816Y227297D01*
Y224298D01*
X562817D01*
X561818Y225298D01*
X562817Y226297D01*
X565816D01*
X567816Y228297D02*
Y225298D01*
X568815Y224298D01*
X571814D01*
Y223299D01*
X570815Y222299D01*
X569815D01*
X571814Y224298D02*
Y228297D01*
X576813Y224298D02*
X574813D01*
X573814Y225298D01*
Y227297D01*
X574813Y228297D01*
X576813D01*
X577812Y227297D01*
Y226297D01*
X573814D01*
X579812Y228297D02*
Y224298D01*
Y226297D01*
X580812Y227297D01*
X581811Y228297D01*
X582811D01*
X443856Y215296D02*
X447855D01*
X445855D01*
Y209298D01*
X450853D02*
X452853D01*
X453853Y210298D01*
Y212297D01*
X452853Y213297D01*
X450853D01*
X449854Y212297D01*
Y210298D01*
X450853Y209298D01*
X455852Y207299D02*
Y213297D01*
X458851D01*
X459851Y212297D01*
Y210298D01*
X458851Y209298D01*
X455852D01*
X467848Y215296D02*
Y209298D01*
X471847D01*
X474846Y213297D02*
X476845D01*
X477845Y212297D01*
Y209298D01*
X474846D01*
X473846Y210298D01*
X474846Y211297D01*
X477845D01*
X479844Y213297D02*
Y210298D01*
X480844Y209298D01*
X483843D01*
Y208298D01*
X482843Y207299D01*
X481844D01*
X483843Y209298D02*
Y213297D01*
X488841Y209298D02*
X486842D01*
X485842Y210298D01*
Y212297D01*
X486842Y213297D01*
X488841D01*
X489841Y212297D01*
Y211297D01*
X485842D01*
X491840Y213297D02*
Y209298D01*
Y211297D01*
X492840Y212297D01*
X493840Y213297D01*
X494839D01*
X503836Y212297D02*
X507835D01*
X515833Y215296D02*
Y209298D01*
X518831D01*
X519831Y210298D01*
Y211297D01*
X518831Y212297D01*
X515833D01*
X518831D01*
X519831Y213297D01*
Y214297D01*
X518831Y215296D01*
X515833D01*
X522830Y209298D02*
X524830D01*
X525829Y210298D01*
Y212297D01*
X524830Y213297D01*
X522830D01*
X521831Y212297D01*
Y210298D01*
X522830Y209298D01*
X528828Y214297D02*
Y213297D01*
X527829D01*
X529828D01*
X528828D01*
Y210298D01*
X529828Y209298D01*
X533827Y214297D02*
Y213297D01*
X532827D01*
X534826D01*
X533827D01*
Y210298D01*
X534826Y209298D01*
X538825D02*
X540824D01*
X541824Y210298D01*
Y212297D01*
X540824Y213297D01*
X538825D01*
X537825Y212297D01*
Y210298D01*
X538825Y209298D01*
X543823D02*
Y213297D01*
X544823D01*
X545823Y212297D01*
Y209298D01*
Y212297D01*
X546823Y213297D01*
X547822Y212297D01*
Y209298D01*
X555820Y215296D02*
Y209298D01*
X559818D01*
X562817Y213297D02*
X564817D01*
X565816Y212297D01*
Y209298D01*
X562817D01*
X561818Y210298D01*
X562817Y211297D01*
X565816D01*
X567816Y213297D02*
Y210298D01*
X568815Y209298D01*
X571814D01*
Y208298D01*
X570815Y207299D01*
X569815D01*
X571814Y209298D02*
Y213297D01*
X576813Y209298D02*
X574813D01*
X573814Y210298D01*
Y212297D01*
X574813Y213297D01*
X576813D01*
X577812Y212297D01*
Y211297D01*
X573814D01*
X579812Y213297D02*
Y209298D01*
Y211297D01*
X580812Y212297D01*
X581811Y213297D01*
X582811D01*
X370476Y284298D02*
Y290296D01*
X373475D01*
X374474Y289297D01*
Y287297D01*
X373475Y286297D01*
X370476D01*
X372475D02*
X374474Y284298D01*
X377473D02*
X379473D01*
X380472Y285298D01*
Y287297D01*
X379473Y288297D01*
X377473D01*
X376474Y287297D01*
Y285298D01*
X377473Y284298D01*
X382472Y288297D02*
Y285298D01*
X383471Y284298D01*
X386470D01*
Y288297D01*
X388470Y284298D02*
Y288297D01*
X391469D01*
X392468Y287297D01*
Y284298D01*
X398466Y290296D02*
Y284298D01*
X395467D01*
X394468Y285298D01*
Y287297D01*
X395467Y288297D01*
X398466D01*
X374474Y274297D02*
X373475Y275296D01*
X371475D01*
X370476Y274297D01*
Y273297D01*
X371475Y272297D01*
X373475D01*
X374474Y271298D01*
Y270298D01*
X373475Y269298D01*
X371475D01*
X370476Y270298D01*
X376474Y269298D02*
X378473D01*
X377473D01*
Y275296D01*
X376474D01*
X382472Y269298D02*
X384471D01*
X385471Y270298D01*
Y272297D01*
X384471Y273297D01*
X382472D01*
X381472Y272297D01*
Y270298D01*
X382472Y269298D01*
X388470Y274297D02*
Y273297D01*
X387470D01*
X389469D01*
X388470D01*
Y270298D01*
X389469Y269298D01*
X374474Y259297D02*
X373475Y260296D01*
X371475D01*
X370476Y259297D01*
Y258297D01*
X371475Y257297D01*
X373475D01*
X374474Y256297D01*
Y255298D01*
X373475Y254298D01*
X371475D01*
X370476Y255298D01*
X376474Y254298D02*
X378473D01*
X377473D01*
Y260296D01*
X376474D01*
X382472Y254298D02*
X384471D01*
X385471Y255298D01*
Y257297D01*
X384471Y258297D01*
X382472D01*
X381472Y257297D01*
Y255298D01*
X382472Y254298D01*
X388470Y259297D02*
Y258297D01*
X387470D01*
X389469D01*
X388470D01*
Y255298D01*
X389469Y254298D01*
X370476Y239298D02*
Y245296D01*
X373475D01*
X374474Y244297D01*
Y242297D01*
X373475Y241298D01*
X370476D01*
X372475D02*
X374474Y239298D01*
X377473D02*
X379473D01*
X380472Y240298D01*
Y242297D01*
X379473Y243297D01*
X377473D01*
X376474Y242297D01*
Y240298D01*
X377473Y239298D01*
X382472Y243297D02*
Y240298D01*
X383471Y239298D01*
X386470D01*
Y243297D01*
X388470Y239298D02*
Y243297D01*
X391469D01*
X392468Y242297D01*
Y239298D01*
X398466Y245296D02*
Y239298D01*
X395467D01*
X394468Y240298D01*
Y242297D01*
X395467Y243297D01*
X398466D01*
X370476Y224298D02*
Y230296D01*
X373475D01*
X374474Y229297D01*
Y227297D01*
X373475Y226297D01*
X370476D01*
X372475D02*
X374474Y224298D01*
X377473D02*
X379473D01*
X380472Y225298D01*
Y227297D01*
X379473Y228297D01*
X377473D01*
X376474Y227297D01*
Y225298D01*
X377473Y224298D01*
X382472Y228297D02*
Y225298D01*
X383471Y224298D01*
X386470D01*
Y228297D01*
X388470Y224298D02*
Y228297D01*
X391469D01*
X392468Y227297D01*
Y224298D01*
X398466Y230296D02*
Y224298D01*
X395467D01*
X394468Y225298D01*
Y227297D01*
X395467Y228297D01*
X398466D01*
X370476Y209298D02*
Y215296D01*
X373475D01*
X374474Y214297D01*
Y212297D01*
X373475Y211297D01*
X370476D01*
X372475D02*
X374474Y209298D01*
X377473D02*
X379473D01*
X380472Y210298D01*
Y212297D01*
X379473Y213297D01*
X377473D01*
X376474Y212297D01*
Y210298D01*
X377473Y209298D01*
X382472Y213297D02*
Y210298D01*
X383471Y209298D01*
X386470D01*
Y213297D01*
X388470Y209298D02*
Y213297D01*
X391469D01*
X392468Y212297D01*
Y209298D01*
X398466Y215296D02*
Y209298D01*
X395467D01*
X394468Y210298D01*
Y212297D01*
X395467Y213297D01*
X398466D01*
X319888Y284298D02*
Y290296D01*
X322887D01*
X323887Y289297D01*
Y287297D01*
X322887Y286297D01*
X319888D01*
X325886Y290296D02*
X329885D01*
X327885D01*
Y284298D01*
X331884Y290296D02*
Y284298D01*
Y287297D01*
X335883D01*
Y290296D01*
Y284298D01*
X319888Y269298D02*
Y275296D01*
X322887D01*
X323887Y274297D01*
Y272297D01*
X322887Y271298D01*
X319888D01*
X325886Y275296D02*
X329885D01*
X327885D01*
Y269298D01*
X331884Y275296D02*
Y269298D01*
Y272297D01*
X335883D01*
Y275296D01*
Y269298D01*
X319888Y254298D02*
Y260296D01*
X322887D01*
X323887Y259297D01*
Y257297D01*
X322887Y256297D01*
X319888D01*
X325886Y260296D02*
X329885D01*
X327885D01*
Y254298D01*
X331884Y260296D02*
Y254298D01*
Y257297D01*
X335883D01*
Y260296D01*
Y254298D01*
X319888Y239298D02*
Y245296D01*
X322887D01*
X323887Y244297D01*
Y242297D01*
X322887Y241298D01*
X319888D01*
X325886Y245296D02*
X329885D01*
X327885D01*
Y239298D01*
X331884Y245296D02*
Y239298D01*
Y242297D01*
X335883D01*
Y245296D01*
Y239298D01*
X319888Y224298D02*
Y230296D01*
X322887D01*
X323887Y229297D01*
Y227297D01*
X322887Y226297D01*
X319888D01*
X325886Y230296D02*
X329885D01*
X327885D01*
Y224298D01*
X331884Y230296D02*
Y224298D01*
Y227297D01*
X335883D01*
Y230296D01*
Y224298D01*
X319888Y209298D02*
Y215296D01*
X322887D01*
X323887Y214297D01*
Y212297D01*
X322887Y211297D01*
X319888D01*
X325886Y215296D02*
X329885D01*
X327885D01*
Y209298D01*
X331884Y215296D02*
Y209298D01*
Y212297D01*
X335883D01*
Y215296D01*
Y209298D01*
X204922Y284298D02*
X206921D01*
X205921D01*
Y290296D01*
X204922Y289297D01*
X213919Y284298D02*
X209920D01*
X213919Y288297D01*
Y289297D01*
X212919Y290296D01*
X210920D01*
X209920Y289297D01*
X215918Y284298D02*
Y285298D01*
X216918D01*
Y284298D01*
X215918D01*
X220916Y289297D02*
X221916Y290296D01*
X223916D01*
X224915Y289297D01*
Y285298D01*
X223916Y284298D01*
X221916D01*
X220916Y285298D01*
Y289297D01*
X226915D02*
X227914Y290296D01*
X229913D01*
X230913Y289297D01*
Y285298D01*
X229913Y284298D01*
X227914D01*
X226915Y285298D01*
Y289297D01*
X232913Y284298D02*
Y288297D01*
X233912D01*
X234912Y287297D01*
Y284298D01*
Y287297D01*
X235912Y288297D01*
X236911Y287297D01*
Y284298D01*
X238911D02*
X240910D01*
X239910D01*
Y288297D01*
X238911D01*
X243909Y284298D02*
X245908D01*
X244909D01*
Y290296D01*
X243909D01*
X256905Y284298D02*
X254906Y286297D01*
Y288297D01*
X256905Y290296D01*
X259904Y289297D02*
X260904Y290296D01*
X262903D01*
X263902Y289297D01*
Y285298D01*
X262903Y284298D01*
X260904D01*
X259904Y285298D01*
Y289297D01*
X265902Y284298D02*
Y285298D01*
X266902D01*
Y284298D01*
X265902D01*
X270900Y289297D02*
X271900Y290296D01*
X273899D01*
X274899Y289297D01*
Y288297D01*
X273899Y287297D01*
X272900D01*
X273899D01*
X274899Y286297D01*
Y285298D01*
X273899Y284298D01*
X271900D01*
X270900Y285298D01*
X276898Y289297D02*
X277898Y290296D01*
X279897D01*
X280897Y289297D01*
Y285298D01*
X279897Y284298D01*
X277898D01*
X276898Y285298D01*
Y289297D01*
X286895Y290296D02*
X282896D01*
Y287297D01*
X284896Y288297D01*
X285895D01*
X286895Y287297D01*
Y285298D01*
X285895Y284298D01*
X283896D01*
X282896Y285298D01*
X288895Y284298D02*
Y288297D01*
X289894D01*
X290894Y287297D01*
Y284298D01*
Y287297D01*
X291894Y288297D01*
X292893Y287297D01*
Y284298D01*
X294893D02*
Y288297D01*
X295892D01*
X296892Y287297D01*
Y284298D01*
Y287297D01*
X297891Y288297D01*
X298891Y287297D01*
Y284298D01*
X300891D02*
X302890Y286297D01*
Y288297D01*
X300891Y290296D01*
X208920Y269298D02*
X204922D01*
X208920Y273297D01*
Y274297D01*
X207921Y275296D01*
X205921D01*
X204922Y274297D01*
X210920D02*
X211919Y275296D01*
X213919D01*
X214918Y274297D01*
Y273297D01*
X213919Y272297D01*
X212919D01*
X213919D01*
X214918Y271298D01*
Y270298D01*
X213919Y269298D01*
X211919D01*
X210920Y270298D01*
X216918Y269298D02*
Y270298D01*
X217917D01*
Y269298D01*
X216918D01*
X225915Y275296D02*
X223916Y274297D01*
X221916Y272297D01*
Y270298D01*
X222916Y269298D01*
X224915D01*
X225915Y270298D01*
Y271298D01*
X224915Y272297D01*
X221916D01*
X231913Y269298D02*
X227914D01*
X231913Y273297D01*
Y274297D01*
X230913Y275296D01*
X228914D01*
X227914Y274297D01*
X233912Y269298D02*
Y273297D01*
X234912D01*
X235912Y272297D01*
Y269298D01*
Y272297D01*
X236911Y273297D01*
X237911Y272297D01*
Y269298D01*
X239910D02*
X241910D01*
X240910D01*
Y273297D01*
X239910D01*
X244909Y269298D02*
X246908D01*
X245908D01*
Y275296D01*
X244909D01*
X257905Y269298D02*
X255905Y271298D01*
Y273297D01*
X257905Y275296D01*
X260904Y274297D02*
X261903Y275296D01*
X263902D01*
X264902Y274297D01*
Y270298D01*
X263902Y269298D01*
X261903D01*
X260904Y270298D01*
Y274297D01*
X266902Y269298D02*
Y270298D01*
X267901D01*
Y269298D01*
X266902D01*
X275899Y275296D02*
X273899Y274297D01*
X271900Y272297D01*
Y270298D01*
X272900Y269298D01*
X274899D01*
X275899Y270298D01*
Y271298D01*
X274899Y272297D01*
X271900D01*
X277898Y274297D02*
X278898Y275296D01*
X280897D01*
X281897Y274297D01*
Y270298D01*
X280897Y269298D01*
X278898D01*
X277898Y270298D01*
Y274297D01*
X283896D02*
X284896Y275296D01*
X286895D01*
X287895Y274297D01*
Y270298D01*
X286895Y269298D01*
X284896D01*
X283896Y270298D01*
Y274297D01*
X289894Y269298D02*
Y273297D01*
X290894D01*
X291894Y272297D01*
Y269298D01*
Y272297D01*
X292893Y273297D01*
X293893Y272297D01*
Y269298D01*
X295892D02*
Y273297D01*
X296892D01*
X297891Y272297D01*
Y269298D01*
Y272297D01*
X298891Y273297D01*
X299891Y272297D01*
Y269298D01*
X301890D02*
X303890Y271298D01*
Y273297D01*
X301890Y275296D01*
X208920Y254298D02*
X204922D01*
X208920Y258297D01*
Y259297D01*
X207921Y260296D01*
X205921D01*
X204922Y259297D01*
X214918Y260296D02*
X210920D01*
Y257297D01*
X212919Y258297D01*
X213919D01*
X214918Y257297D01*
Y255298D01*
X213919Y254298D01*
X211919D01*
X210920Y255298D01*
X216918Y254298D02*
Y255298D01*
X217917D01*
Y254298D01*
X216918D01*
X225915Y260296D02*
X221916D01*
Y257297D01*
X223916Y258297D01*
X224915D01*
X225915Y257297D01*
Y255298D01*
X224915Y254298D01*
X222916D01*
X221916Y255298D01*
X227914D02*
X228914Y254298D01*
X230913D01*
X231913Y255298D01*
Y259297D01*
X230913Y260296D01*
X228914D01*
X227914Y259297D01*
Y258297D01*
X228914Y257297D01*
X231913D01*
X233912Y254298D02*
Y258297D01*
X234912D01*
X235912Y257297D01*
Y254298D01*
Y257297D01*
X236911Y258297D01*
X237911Y257297D01*
Y254298D01*
X239910D02*
X241910D01*
X240910D01*
Y258297D01*
X239910D01*
X244909Y254298D02*
X246908D01*
X245908D01*
Y260296D01*
X244909D01*
X257905Y254298D02*
X255905Y256297D01*
Y258297D01*
X257905Y260296D01*
X260904Y259297D02*
X261903Y260296D01*
X263902D01*
X264902Y259297D01*
Y255298D01*
X263902Y254298D01*
X261903D01*
X260904Y255298D01*
Y259297D01*
X266902Y254298D02*
Y255298D01*
X267901D01*
Y254298D01*
X266902D01*
X275899Y260296D02*
X273899Y259297D01*
X271900Y257297D01*
Y255298D01*
X272900Y254298D01*
X274899D01*
X275899Y255298D01*
Y256297D01*
X274899Y257297D01*
X271900D01*
X281897Y260296D02*
X277898D01*
Y257297D01*
X279897Y258297D01*
X280897D01*
X281897Y257297D01*
Y255298D01*
X280897Y254298D01*
X278898D01*
X277898Y255298D01*
X283896Y259297D02*
X284896Y260296D01*
X286895D01*
X287895Y259297D01*
Y255298D01*
X286895Y254298D01*
X284896D01*
X283896Y255298D01*
Y259297D01*
X289894Y254298D02*
Y258297D01*
X290894D01*
X291894Y257297D01*
Y254298D01*
Y257297D01*
X292893Y258297D01*
X293893Y257297D01*
Y254298D01*
X295892D02*
Y258297D01*
X296892D01*
X297891Y257297D01*
Y254298D01*
Y257297D01*
X298891Y258297D01*
X299891Y257297D01*
Y254298D01*
X301890D02*
X303890Y256297D01*
Y258297D01*
X301890Y260296D01*
X204922Y244297D02*
X205921Y245296D01*
X207921D01*
X208920Y244297D01*
Y243297D01*
X207921Y242297D01*
X206921D01*
X207921D01*
X208920Y241298D01*
Y240298D01*
X207921Y239298D01*
X205921D01*
X204922Y240298D01*
X214918Y245296D02*
X210920D01*
Y242297D01*
X212919Y243297D01*
X213919D01*
X214918Y242297D01*
Y240298D01*
X213919Y239298D01*
X211919D01*
X210920Y240298D01*
X216918Y239298D02*
Y240298D01*
X217917D01*
Y239298D01*
X216918D01*
X224915D02*
Y245296D01*
X221916Y242297D01*
X225915D01*
X227914Y244297D02*
X228914Y245296D01*
X230913D01*
X231913Y244297D01*
Y243297D01*
X230913Y242297D01*
X229913D01*
X230913D01*
X231913Y241298D01*
Y240298D01*
X230913Y239298D01*
X228914D01*
X227914Y240298D01*
X233912Y239298D02*
Y243297D01*
X234912D01*
X235912Y242297D01*
Y239298D01*
Y242297D01*
X236911Y243297D01*
X237911Y242297D01*
Y239298D01*
X239910D02*
X241910D01*
X240910D01*
Y243297D01*
X239910D01*
X244909Y239298D02*
X246908D01*
X245908D01*
Y245296D01*
X244909D01*
X257905Y239298D02*
X255905Y241298D01*
Y243297D01*
X257905Y245296D01*
X260904Y244297D02*
X261903Y245296D01*
X263902D01*
X264902Y244297D01*
Y240298D01*
X263902Y239298D01*
X261903D01*
X260904Y240298D01*
Y244297D01*
X266902Y239298D02*
Y240298D01*
X267901D01*
Y239298D01*
X266902D01*
X271900Y240298D02*
X272900Y239298D01*
X274899D01*
X275899Y240298D01*
Y244297D01*
X274899Y245296D01*
X272900D01*
X271900Y244297D01*
Y243297D01*
X272900Y242297D01*
X275899D01*
X277898Y244297D02*
X278898Y245296D01*
X280897D01*
X281897Y244297D01*
Y240298D01*
X280897Y239298D01*
X278898D01*
X277898Y240298D01*
Y244297D01*
X283896D02*
X284896Y245296D01*
X286895D01*
X287895Y244297D01*
Y240298D01*
X286895Y239298D01*
X284896D01*
X283896Y240298D01*
Y244297D01*
X289894Y239298D02*
Y243297D01*
X290894D01*
X291894Y242297D01*
Y239298D01*
Y242297D01*
X292893Y243297D01*
X293893Y242297D01*
Y239298D01*
X295892D02*
Y243297D01*
X296892D01*
X297891Y242297D01*
Y239298D01*
Y242297D01*
X298891Y243297D01*
X299891Y242297D01*
Y239298D01*
X301890D02*
X303890Y241298D01*
Y243297D01*
X301890Y245296D01*
X204922Y229297D02*
X205921Y230296D01*
X207921D01*
X208920Y229297D01*
Y228297D01*
X207921Y227297D01*
X208920Y226297D01*
Y225298D01*
X207921Y224298D01*
X205921D01*
X204922Y225298D01*
Y226297D01*
X205921Y227297D01*
X204922Y228297D01*
Y229297D01*
X205921Y227297D02*
X207921D01*
X214918Y230296D02*
X212919Y229297D01*
X210920Y227297D01*
Y225298D01*
X211919Y224298D01*
X213919D01*
X214918Y225298D01*
Y226297D01*
X213919Y227297D01*
X210920D01*
X216918Y224298D02*
Y225298D01*
X217917D01*
Y224298D01*
X216918D01*
X225915Y230296D02*
X223916Y229297D01*
X221916Y227297D01*
Y225298D01*
X222916Y224298D01*
X224915D01*
X225915Y225298D01*
Y226297D01*
X224915Y227297D01*
X221916D01*
X227914Y224298D02*
X229913D01*
X228914D01*
Y230296D01*
X227914Y229297D01*
X232913Y224298D02*
Y228297D01*
X233912D01*
X234912Y227297D01*
Y224298D01*
Y227297D01*
X235912Y228297D01*
X236911Y227297D01*
Y224298D01*
X238911D02*
X240910D01*
X239910D01*
Y228297D01*
X238911D01*
X243909Y224298D02*
X245908D01*
X244909D01*
Y230296D01*
X243909D01*
X256905Y224298D02*
X254906Y226297D01*
Y228297D01*
X256905Y230296D01*
X263902Y224298D02*
X259904D01*
X263902Y228297D01*
Y229297D01*
X262903Y230296D01*
X260904D01*
X259904Y229297D01*
X265902Y224298D02*
Y225298D01*
X266902D01*
Y224298D01*
X265902D01*
X274899D02*
X270900D01*
X274899Y228297D01*
Y229297D01*
X273899Y230296D01*
X271900D01*
X270900Y229297D01*
X276898D02*
X277898Y230296D01*
X279897D01*
X280897Y229297D01*
Y225298D01*
X279897Y224298D01*
X277898D01*
X276898Y225298D01*
Y229297D01*
X282896D02*
X283896Y230296D01*
X285895D01*
X286895Y229297D01*
Y225298D01*
X285895Y224298D01*
X283896D01*
X282896Y225298D01*
Y229297D01*
X288895Y224298D02*
Y228297D01*
X289894D01*
X290894Y227297D01*
Y224298D01*
Y227297D01*
X291894Y228297D01*
X292893Y227297D01*
Y224298D01*
X294893D02*
Y228297D01*
X295892D01*
X296892Y227297D01*
Y224298D01*
Y227297D01*
X297891Y228297D01*
X298891Y227297D01*
Y224298D01*
X300891D02*
X302890Y226297D01*
Y228297D01*
X300891Y230296D01*
X204922Y209298D02*
X206921D01*
X205921D01*
Y215296D01*
X204922Y214297D01*
X209920D02*
X210920Y215296D01*
X212919D01*
X213919Y214297D01*
Y210298D01*
X212919Y209298D01*
X210920D01*
X209920Y210298D01*
Y214297D01*
X215918D02*
X216918Y215296D01*
X218917D01*
X219917Y214297D01*
Y210298D01*
X218917Y209298D01*
X216918D01*
X215918Y210298D01*
Y214297D01*
X221916Y209298D02*
Y210298D01*
X222916D01*
Y209298D01*
X221916D01*
X226915Y214297D02*
X227914Y215296D01*
X229913D01*
X230913Y214297D01*
Y210298D01*
X229913Y209298D01*
X227914D01*
X226915Y210298D01*
Y214297D01*
X232913D02*
X233912Y215296D01*
X235912D01*
X236911Y214297D01*
Y210298D01*
X235912Y209298D01*
X233912D01*
X232913Y210298D01*
Y214297D01*
X238911Y209298D02*
Y213297D01*
X239910D01*
X240910Y212297D01*
Y209298D01*
Y212297D01*
X241910Y213297D01*
X242909Y212297D01*
Y209298D01*
X244909D02*
X246908D01*
X245908D01*
Y213297D01*
X244909D01*
X249907Y209298D02*
X251906D01*
X250907D01*
Y215296D01*
X249907D01*
X262903Y209298D02*
X260904Y211297D01*
Y213297D01*
X262903Y215296D01*
X269901Y209298D02*
X265902D01*
X269901Y213297D01*
Y214297D01*
X268901Y215296D01*
X266902D01*
X265902Y214297D01*
X271900Y209298D02*
Y210298D01*
X272900D01*
Y209298D01*
X271900D01*
X280897Y215296D02*
X276898D01*
Y212297D01*
X278898Y213297D01*
X279897D01*
X280897Y212297D01*
Y210298D01*
X279897Y209298D01*
X277898D01*
X276898Y210298D01*
X285895Y209298D02*
Y215296D01*
X282896Y212297D01*
X286895D01*
X288895Y214297D02*
X289894Y215296D01*
X291894D01*
X292893Y214297D01*
Y210298D01*
X291894Y209298D01*
X289894D01*
X288895Y210298D01*
Y214297D01*
X294893Y209298D02*
Y213297D01*
X295892D01*
X296892Y212297D01*
Y209298D01*
Y212297D01*
X297891Y213297D01*
X298891Y212297D01*
Y209298D01*
X300891D02*
Y213297D01*
X301890D01*
X302890Y212297D01*
Y209298D01*
Y212297D01*
X303890Y213297D01*
X304889Y212297D01*
Y209298D01*
X306889D02*
X308888Y211297D01*
Y213297D01*
X306889Y215296D01*
X145937Y194298D02*
X147936D01*
X146937D01*
Y200296D01*
X145937Y199297D01*
X150935D02*
X151935Y200296D01*
X153935D01*
X154934Y199297D01*
Y198297D01*
X153935Y197297D01*
X152935D01*
X153935D01*
X154934Y196298D01*
Y195298D01*
X153935Y194298D01*
X151935D01*
X150935Y195298D01*
X160932Y200296D02*
X156934D01*
Y197297D01*
X158933Y198297D01*
X159933D01*
X160932Y197297D01*
Y195298D01*
X159933Y194298D01*
X157933D01*
X156934Y195298D01*
X168930Y200296D02*
X172928D01*
X170929D01*
Y194298D01*
X175927D02*
X177927D01*
X178927Y195298D01*
Y197297D01*
X177927Y198297D01*
X175927D01*
X174928Y197297D01*
Y195298D01*
X175927Y194298D01*
X181925Y199297D02*
Y198297D01*
X180926D01*
X182925D01*
X181925D01*
Y195298D01*
X182925Y194298D01*
X186924Y198297D02*
X188923D01*
X189923Y197297D01*
Y194298D01*
X186924D01*
X185924Y195298D01*
X186924Y196298D01*
X189923D01*
X191922Y194298D02*
X193922D01*
X192922D01*
Y200296D01*
X191922D01*
X145937Y285298D02*
X146937Y284298D01*
X148936D01*
X149936Y285298D01*
Y289297D01*
X148936Y290296D01*
X146937D01*
X145937Y289297D01*
Y288297D01*
X146937Y287297D01*
X149936D01*
X151935Y289297D02*
X152935Y290296D01*
X154934D01*
X155934Y289297D01*
Y288297D01*
X154934Y287297D01*
X153935D01*
X154934D01*
X155934Y286297D01*
Y285298D01*
X154934Y284298D01*
X152935D01*
X151935Y285298D01*
X149936Y269298D02*
X145937D01*
X149936Y273297D01*
Y274297D01*
X148936Y275296D01*
X146937D01*
X145937Y274297D01*
X149936Y254298D02*
X145937D01*
X149936Y258297D01*
Y259297D01*
X148936Y260296D01*
X146937D01*
X145937Y259297D01*
Y244297D02*
X146937Y245296D01*
X148936D01*
X149936Y244297D01*
Y243297D01*
X148936Y242297D01*
X147936D01*
X148936D01*
X149936Y241298D01*
Y240298D01*
X148936Y239298D01*
X146937D01*
X145937Y240298D01*
X155934Y239298D02*
X151935D01*
X155934Y243297D01*
Y244297D01*
X154934Y245296D01*
X152935D01*
X151935Y244297D01*
X149936Y224298D02*
X145937D01*
X149936Y228297D01*
Y229297D01*
X148936Y230296D01*
X146937D01*
X145937Y229297D01*
X148936Y209298D02*
Y215296D01*
X145937Y212297D01*
X149936D01*
X273897Y171803D02*
X277895D01*
X273897Y173802D02*
X277895D01*
X285893Y169803D02*
Y175801D01*
X288892D01*
X289891Y174802D01*
Y172802D01*
X288892Y171803D01*
X285893D01*
X287892D02*
X289891Y169803D01*
X292890D02*
X294890D01*
X295889Y170803D01*
Y172802D01*
X294890Y173802D01*
X292890D01*
X291891Y172802D01*
Y170803D01*
X292890Y169803D01*
X297889Y173802D02*
Y170803D01*
X298888Y169803D01*
X301887D01*
Y173802D01*
X304887Y174802D02*
Y173802D01*
X303887D01*
X305886D01*
X304887D01*
Y170803D01*
X305886Y169803D01*
X311884D02*
X309885D01*
X308885Y170803D01*
Y172802D01*
X309885Y173802D01*
X311884D01*
X312884Y172802D01*
Y171803D01*
X308885D01*
X318882Y175801D02*
Y169803D01*
X315883D01*
X314883Y170803D01*
Y172802D01*
X315883Y173802D01*
X318882D01*
X326879Y169803D02*
Y175801D01*
X329878D01*
X330878Y174802D01*
Y172802D01*
X329878Y171803D01*
X326879D01*
X333877Y173802D02*
X335876D01*
X336876Y172802D01*
Y169803D01*
X333877D01*
X332877Y170803D01*
X333877Y171803D01*
X336876D01*
X339875Y174802D02*
Y173802D01*
X338876D01*
X340875D01*
X339875D01*
Y170803D01*
X340875Y169803D01*
X343874Y175801D02*
Y169803D01*
Y172802D01*
X344874Y173802D01*
X346873D01*
X347873Y172802D01*
Y169803D01*
X355870Y175801D02*
Y169803D01*
X359869D01*
X364867D02*
X362868D01*
X361868Y170803D01*
Y172802D01*
X362868Y173802D01*
X364867D01*
X365867Y172802D01*
Y171803D01*
X361868D01*
X367866Y169803D02*
Y173802D01*
X370865D01*
X371865Y172802D01*
Y169803D01*
X375864Y167804D02*
X376863D01*
X377863Y168804D01*
Y173802D01*
X374864D01*
X373864Y172802D01*
Y170803D01*
X374864Y169803D01*
X377863D01*
X380862Y174802D02*
Y173802D01*
X379862D01*
X381862D01*
X380862D01*
Y170803D01*
X381862Y169803D01*
X384861Y175801D02*
Y169803D01*
Y172802D01*
X385860Y173802D01*
X387860D01*
X388859Y172802D01*
Y169803D01*
X396857Y172802D02*
X400855D01*
X398856Y174802D02*
Y170803D01*
X408853Y175801D02*
X412852D01*
X410852D01*
Y169803D01*
X415851D02*
X417850D01*
X418850Y170803D01*
Y172802D01*
X417850Y173802D01*
X415851D01*
X414851Y172802D01*
Y170803D01*
X415851Y169803D01*
X421849D02*
X423848D01*
X424848Y170803D01*
Y172802D01*
X423848Y173802D01*
X421849D01*
X420849Y172802D01*
Y170803D01*
X421849Y169803D01*
X426847D02*
X428846D01*
X427847D01*
Y175801D01*
X426847D01*
X441842Y174802D02*
X440842Y175801D01*
X438843D01*
X437844Y174802D01*
Y173802D01*
X438843Y172802D01*
X440842D01*
X441842Y171803D01*
Y170803D01*
X440842Y169803D01*
X438843D01*
X437844Y170803D01*
X443842Y169803D02*
X445841D01*
X444841D01*
Y173802D01*
X443842D01*
X448840D02*
X452839D01*
X448840Y169803D01*
X452839D01*
X457837D02*
X455838D01*
X454838Y170803D01*
Y172802D01*
X455838Y173802D01*
X457837D01*
X458837Y172802D01*
Y171803D01*
X454838D01*
X466834D02*
X470833D01*
X466834Y173802D02*
X470833D01*
X482829Y174802D02*
X481829Y175801D01*
X479830D01*
X478830Y174802D01*
Y173802D01*
X479830Y172802D01*
X481829D01*
X482829Y171803D01*
Y170803D01*
X481829Y169803D01*
X479830D01*
X478830Y170803D01*
X484828Y169803D02*
X486828D01*
X485828D01*
Y175801D01*
X484828D01*
X490826Y169803D02*
X492826D01*
X493825Y170803D01*
Y172802D01*
X492826Y173802D01*
X490826D01*
X489827Y172802D01*
Y170803D01*
X490826Y169803D01*
X496824Y174802D02*
Y173802D01*
X495825D01*
X497824D01*
X496824D01*
Y170803D01*
X497824Y169803D01*
X506821D02*
X508820D01*
X507821D01*
Y175801D01*
X506821D01*
X514819Y169803D02*
X512819D01*
X511820Y170803D01*
Y172802D01*
X512819Y173802D01*
X514819D01*
X515818Y172802D01*
Y171803D01*
X511820D01*
X517818Y169803D02*
Y173802D01*
X520817D01*
X521816Y172802D01*
Y169803D01*
X525815Y167804D02*
X526815D01*
X527814Y168804D01*
Y173802D01*
X524815D01*
X523816Y172802D01*
Y170803D01*
X524815Y169803D01*
X527814D01*
X530813Y174802D02*
Y173802D01*
X529814D01*
X531813D01*
X530813D01*
Y170803D01*
X531813Y169803D01*
X534812Y175801D02*
Y169803D01*
Y172802D01*
X535812Y173802D01*
X537811D01*
X538811Y172802D01*
Y169803D01*
X547808Y173802D02*
X549807D01*
X550807Y172802D01*
Y169803D01*
X547808D01*
X546808Y170803D01*
X547808Y171803D01*
X550807D01*
X552806Y169803D02*
X555805D01*
X556805Y170803D01*
X555805Y171803D01*
X553806D01*
X552806Y172802D01*
X553806Y173802D01*
X556805D01*
X568801Y175801D02*
Y169803D01*
X565802D01*
X564802Y170803D01*
Y172802D01*
X565802Y173802D01*
X568801D01*
X573800Y169803D02*
X571800D01*
X570800Y170803D01*
Y172802D01*
X571800Y173802D01*
X573800D01*
X574799Y172802D01*
Y171803D01*
X570800D01*
X577798Y169803D02*
Y174802D01*
Y172802D01*
X576798D01*
X578798D01*
X577798D01*
Y174802D01*
X578798Y175801D01*
X581797Y169803D02*
X583796D01*
X582797D01*
Y173802D01*
X581797D01*
X586795Y169803D02*
Y173802D01*
X589794D01*
X590794Y172802D01*
Y169803D01*
X595792D02*
X593793D01*
X592793Y170803D01*
Y172802D01*
X593793Y173802D01*
X595792D01*
X596792Y172802D01*
Y171803D01*
X592793D01*
X602790Y175801D02*
Y169803D01*
X599791D01*
X598791Y170803D01*
Y172802D01*
X599791Y173802D01*
X602790D01*
X610787Y169803D02*
X612787D01*
X611787D01*
Y173802D01*
X610787D01*
X615786Y169803D02*
Y173802D01*
X618785D01*
X619785Y172802D01*
Y169803D01*
X628782Y174802D02*
Y173802D01*
X627782D01*
X629781D01*
X628782D01*
Y170803D01*
X629781Y169803D01*
X632780Y175801D02*
Y169803D01*
Y172802D01*
X633780Y173802D01*
X635779D01*
X636779Y172802D01*
Y169803D01*
X641778D02*
X639778D01*
X638778Y170803D01*
Y172802D01*
X639778Y173802D01*
X641778D01*
X642777Y172802D01*
Y171803D01*
X638778D01*
X650775Y169803D02*
Y175801D01*
X653774D01*
X654773Y174802D01*
Y172802D01*
X653774Y171803D01*
X650775D01*
X660771Y174802D02*
X659772Y175801D01*
X657772D01*
X656773Y174802D01*
Y170803D01*
X657772Y169803D01*
X659772D01*
X660771Y170803D01*
X662771Y175801D02*
Y169803D01*
X665770D01*
X666769Y170803D01*
Y171803D01*
X665770Y172802D01*
X662771D01*
X665770D01*
X666769Y173802D01*
Y174802D01*
X665770Y175801D01*
X662771D01*
X674767Y169803D02*
X676766D01*
X675767D01*
Y175801D01*
X674767D01*
X680765Y173802D02*
X682764D01*
X683764Y172802D01*
Y169803D01*
X680765D01*
X679765Y170803D01*
X680765Y171803D01*
X683764D01*
X685763Y173802D02*
Y170803D01*
X686763Y169803D01*
X689762D01*
Y168804D01*
X688762Y167804D01*
X687763D01*
X689762Y169803D02*
Y173802D01*
X692761Y169803D02*
X694760D01*
X695760Y170803D01*
Y172802D01*
X694760Y173802D01*
X692761D01*
X691761Y172802D01*
Y170803D01*
X692761Y169803D01*
X697759Y173802D02*
Y170803D01*
X698759Y169803D01*
X701758D01*
Y173802D01*
X704757Y174802D02*
Y173802D01*
X703757D01*
X705757D01*
X704757D01*
Y170803D01*
X705757Y169803D01*
X308885Y181800D02*
X312884D01*
X308885Y183800D02*
X312884D01*
X324880Y184799D02*
X323880Y185799D01*
X321881D01*
X320881Y184799D01*
Y180800D01*
X321881Y179801D01*
X323880D01*
X324880Y180800D01*
X327879Y183800D02*
X329878D01*
X330878Y182800D01*
Y179801D01*
X327879D01*
X326879Y180800D01*
X327879Y181800D01*
X330878D01*
X332877Y179801D02*
X334877D01*
X333877D01*
Y185799D01*
X332877D01*
X341875Y183800D02*
X338876D01*
X337876Y182800D01*
Y180800D01*
X338876Y179801D01*
X341875D01*
X343874Y183800D02*
Y180800D01*
X344874Y179801D01*
X347873D01*
Y183800D01*
X349872Y179801D02*
X351871D01*
X350872D01*
Y185799D01*
X349872D01*
X355870Y183800D02*
X357869D01*
X358869Y182800D01*
Y179801D01*
X355870D01*
X354870Y180800D01*
X355870Y181800D01*
X358869D01*
X361868Y184799D02*
Y183800D01*
X360868D01*
X362868D01*
X361868D01*
Y180800D01*
X362868Y179801D01*
X368866D02*
X366866D01*
X365867Y180800D01*
Y182800D01*
X366866Y183800D01*
X368866D01*
X369865Y182800D01*
Y181800D01*
X365867D01*
X375864Y185799D02*
Y179801D01*
X372865D01*
X371865Y180800D01*
Y182800D01*
X372865Y183800D01*
X375864D01*
X384861Y179801D02*
Y184799D01*
Y182800D01*
X383861D01*
X385860D01*
X384861D01*
Y184799D01*
X385860Y185799D01*
X388859Y183800D02*
Y179801D01*
Y181800D01*
X389859Y182800D01*
X390859Y183800D01*
X391858D01*
X395857Y179801D02*
X397856D01*
X398856Y180800D01*
Y182800D01*
X397856Y183800D01*
X395857D01*
X394857Y182800D01*
Y180800D01*
X395857Y179801D01*
X400855D02*
Y183800D01*
X401855D01*
X402855Y182800D01*
Y179801D01*
Y182800D01*
X403855Y183800D01*
X404854Y182800D01*
Y179801D01*
X413851Y184799D02*
Y183800D01*
X412852D01*
X414851D01*
X413851D01*
Y180800D01*
X414851Y179801D01*
X418850D02*
X420849D01*
X421849Y180800D01*
Y182800D01*
X420849Y183800D01*
X418850D01*
X417850Y182800D01*
Y180800D01*
X418850Y179801D01*
X424848D02*
X426847D01*
X427847Y180800D01*
Y182800D01*
X426847Y183800D01*
X424848D01*
X423848Y182800D01*
Y180800D01*
X424848Y179801D01*
X429846D02*
X431845D01*
X430846D01*
Y185799D01*
X429846D01*
X440842Y179801D02*
X443842D01*
X444841Y180800D01*
X443842Y181800D01*
X441842D01*
X440842Y182800D01*
X441842Y183800D01*
X444841D01*
X447840Y184799D02*
Y183800D01*
X446841D01*
X448840D01*
X447840D01*
Y180800D01*
X448840Y179801D01*
X452839Y183800D02*
X454838D01*
X455838Y182800D01*
Y179801D01*
X452839D01*
X451839Y180800D01*
X452839Y181800D01*
X455838D01*
X457837Y183800D02*
Y179801D01*
Y181800D01*
X458837Y182800D01*
X459836Y183800D01*
X460836D01*
X464835Y184799D02*
Y183800D01*
X463835D01*
X465834D01*
X464835D01*
Y180800D01*
X465834Y179801D01*
X478830Y183800D02*
X475831D01*
X474831Y182800D01*
Y180800D01*
X475831Y179801D01*
X478830D01*
X483829D02*
X481829D01*
X480830Y180800D01*
Y182800D01*
X481829Y183800D01*
X483829D01*
X484828Y182800D01*
Y181800D01*
X480830D01*
X486828Y179801D02*
Y183800D01*
X489827D01*
X490826Y182800D01*
Y179801D01*
X493825Y184799D02*
Y183800D01*
X492826D01*
X494825D01*
X493825D01*
Y180800D01*
X494825Y179801D01*
X497824Y183800D02*
Y179801D01*
Y181800D01*
X498824Y182800D01*
X499823Y183800D01*
X500823D01*
X506821Y179801D02*
X504822D01*
X503822Y180800D01*
Y182800D01*
X504822Y183800D01*
X506821D01*
X507821Y182800D01*
Y181800D01*
X503822D01*
X515818Y177801D02*
Y183800D01*
X518817D01*
X519817Y182800D01*
Y180800D01*
X518817Y179801D01*
X515818D01*
X522816D02*
X524815D01*
X525815Y180800D01*
Y182800D01*
X524815Y183800D01*
X522816D01*
X521816Y182800D01*
Y180800D01*
X522816Y179801D01*
X527814D02*
X530813D01*
X531813Y180800D01*
X530813Y181800D01*
X528814D01*
X527814Y182800D01*
X528814Y183800D01*
X531813D01*
X533812Y179801D02*
X535812D01*
X534812D01*
Y183800D01*
X533812D01*
X539811Y184799D02*
Y183800D01*
X538811D01*
X540810D01*
X539811D01*
Y180800D01*
X540810Y179801D01*
X543809D02*
X545809D01*
X544809D01*
Y183800D01*
X543809D01*
X549807Y179801D02*
X551807D01*
X552806Y180800D01*
Y182800D01*
X551807Y183800D01*
X549807D01*
X548808Y182800D01*
Y180800D01*
X549807Y179801D01*
X554806D02*
Y183800D01*
X557805D01*
X558804Y182800D01*
Y179801D01*
X567801Y184799D02*
Y183800D01*
X566802D01*
X568801D01*
X567801D01*
Y180800D01*
X568801Y179801D01*
X572800D02*
X574799D01*
X575799Y180800D01*
Y182800D01*
X574799Y183800D01*
X572800D01*
X571800Y182800D01*
Y180800D01*
X572800Y179801D01*
X584796Y184799D02*
Y183800D01*
X583796D01*
X585796D01*
X584796D01*
Y180800D01*
X585796Y179801D01*
X589794D02*
X591794D01*
X592793Y180800D01*
Y182800D01*
X591794Y183800D01*
X589794D01*
X588795Y182800D01*
Y180800D01*
X589794Y179801D01*
X595792D02*
X597792D01*
X598791Y180800D01*
Y182800D01*
X597792Y183800D01*
X595792D01*
X594793Y182800D01*
Y180800D01*
X595792Y179801D01*
X600791D02*
X602790D01*
X601790D01*
Y185799D01*
X600791D01*
X614786Y179801D02*
X612787D01*
X611787Y180800D01*
Y182800D01*
X612787Y183800D01*
X614786D01*
X615786Y182800D01*
Y181800D01*
X611787D01*
X617785Y179801D02*
Y183800D01*
X620784D01*
X621784Y182800D01*
Y179801D01*
X627782Y185799D02*
Y179801D01*
X624783D01*
X623783Y180800D01*
Y182800D01*
X624783Y183800D01*
X627782D01*
X639778D02*
X636779D01*
X635779Y182800D01*
Y180800D01*
X636779Y179801D01*
X639778D01*
X644776D02*
X642777D01*
X641778Y180800D01*
Y182800D01*
X642777Y183800D01*
X644776D01*
X645776Y182800D01*
Y181800D01*
X641778D01*
X647776Y179801D02*
Y183800D01*
X650775D01*
X651774Y182800D01*
Y179801D01*
X654773Y184799D02*
Y183800D01*
X653774D01*
X655773D01*
X654773D01*
Y180800D01*
X655773Y179801D01*
X658772Y183800D02*
Y179801D01*
Y181800D01*
X659772Y182800D01*
X660771Y183800D01*
X661771D01*
X667769Y179801D02*
X665770D01*
X664770Y180800D01*
Y182800D01*
X665770Y183800D01*
X667769D01*
X668769Y182800D01*
Y181800D01*
X664770D01*
X676766Y177801D02*
Y183800D01*
X679765D01*
X680765Y182800D01*
Y180800D01*
X679765Y179801D01*
X676766D01*
X683764D02*
X685763D01*
X686763Y180800D01*
Y182800D01*
X685763Y183800D01*
X683764D01*
X682764Y182800D01*
Y180800D01*
X683764Y179801D01*
X688762D02*
X691761D01*
X692761Y180800D01*
X691761Y181800D01*
X689762D01*
X688762Y182800D01*
X689762Y183800D01*
X692761D01*
X694760Y179801D02*
X696760D01*
X695760D01*
Y183800D01*
X694760D01*
X700758Y184799D02*
Y183800D01*
X699759D01*
X701758D01*
X700758D01*
Y180800D01*
X701758Y179801D01*
X704757D02*
X706756D01*
X705757D01*
Y183800D01*
X704757D01*
X710755Y179801D02*
X712754D01*
X713754Y180800D01*
Y182800D01*
X712754Y183800D01*
X710755D01*
X709756Y182800D01*
Y180800D01*
X710755Y179801D01*
X715754D02*
Y183800D01*
X718753D01*
X719752Y182800D01*
Y179801D01*
X721752D02*
Y180800D01*
X722751D01*
Y179801D01*
X721752D01*
X317877Y94266D02*
Y88268D01*
X321876D01*
X324875Y92267D02*
X326874D01*
X327874Y91267D01*
Y88268D01*
X324875D01*
X323875Y89268D01*
X324875Y90268D01*
X327874D01*
X329873Y92267D02*
Y89268D01*
X330873Y88268D01*
X333872D01*
Y87269D01*
X332872Y86269D01*
X331873D01*
X333872Y88268D02*
Y92267D01*
X338870Y88268D02*
X336871D01*
X335871Y89268D01*
Y91267D01*
X336871Y92267D01*
X338870D01*
X339870Y91267D01*
Y90268D01*
X335871D01*
X341869Y92267D02*
Y88268D01*
Y90268D01*
X342869Y91267D01*
X343869Y92267D01*
X344868D01*
X321876Y28268D02*
X317877D01*
X321876Y32267D01*
Y33267D01*
X320876Y34266D01*
X318877D01*
X317877Y33267D01*
Y52268D02*
X319876D01*
X318877D01*
Y58266D01*
X317877Y57267D01*
X358868Y88268D02*
Y94266D01*
X362867Y88268D01*
Y94266D01*
X365866Y92267D02*
X367865D01*
X368865Y91267D01*
Y88268D01*
X365866D01*
X364866Y89268D01*
X365866Y90268D01*
X368865D01*
X370864Y88268D02*
Y92267D01*
X371864D01*
X372864Y91267D01*
Y88268D01*
Y91267D01*
X373863Y92267D01*
X374863Y91267D01*
Y88268D01*
X379861D02*
X377862D01*
X376862Y89268D01*
Y91267D01*
X377862Y92267D01*
X379861D01*
X380861Y91267D01*
Y90268D01*
X376862D01*
X358868Y10266D02*
Y4268D01*
X361867D01*
X362867Y5268D01*
Y6268D01*
X361867Y7267D01*
X358868D01*
X361867D01*
X362867Y8267D01*
Y9267D01*
X361867Y10266D01*
X358868D01*
X365866Y4268D02*
X367865D01*
X368865Y5268D01*
Y7267D01*
X367865Y8267D01*
X365866D01*
X364866Y7267D01*
Y5268D01*
X365866Y4268D01*
X371864Y9267D02*
Y8267D01*
X370864D01*
X372864D01*
X371864D01*
Y5268D01*
X372864Y4268D01*
X376862Y9267D02*
Y8267D01*
X375863D01*
X377862D01*
X376862D01*
Y5268D01*
X377862Y4268D01*
X381861D02*
X383860D01*
X384860Y5268D01*
Y7267D01*
X383860Y8267D01*
X381861D01*
X380861Y7267D01*
Y5268D01*
X381861Y4268D01*
X386859D02*
Y8267D01*
X387859D01*
X388859Y7267D01*
Y4268D01*
Y7267D01*
X389858Y8267D01*
X390858Y7267D01*
Y4268D01*
X401854Y10266D02*
X399855D01*
X398855Y9267D01*
Y5268D01*
X399855Y4268D01*
X401854D01*
X402854Y5268D01*
Y9267D01*
X401854Y10266D01*
X404853Y8267D02*
X406853Y4268D01*
X408852Y8267D01*
X413850Y4268D02*
X411851D01*
X410851Y5268D01*
Y7267D01*
X411851Y8267D01*
X413850D01*
X414850Y7267D01*
Y6268D01*
X410851D01*
X416850Y8267D02*
Y4268D01*
Y6268D01*
X417849Y7267D01*
X418849Y8267D01*
X419848D01*
X422848Y4268D02*
X424847D01*
X423847D01*
Y10266D01*
X422848D01*
X428846Y8267D02*
X430845D01*
X431845Y7267D01*
Y4268D01*
X428846D01*
X427846Y5268D01*
X428846Y6268D01*
X431845D01*
X433844Y8267D02*
Y5268D01*
X434844Y4268D01*
X437843D01*
Y3269D01*
X436843Y2269D01*
X435843D01*
X437843Y4268D02*
Y8267D01*
X358868Y22266D02*
Y16268D01*
X361867D01*
X362867Y17268D01*
Y18268D01*
X361867Y19267D01*
X358868D01*
X361867D01*
X362867Y20267D01*
Y21267D01*
X361867Y22266D01*
X358868D01*
X365866Y16268D02*
X367865D01*
X368865Y17268D01*
Y19267D01*
X367865Y20267D01*
X365866D01*
X364866Y19267D01*
Y17268D01*
X365866Y16268D01*
X371864Y21267D02*
Y20267D01*
X370864D01*
X372864D01*
X371864D01*
Y17268D01*
X372864Y16268D01*
X376862Y21267D02*
Y20267D01*
X375863D01*
X377862D01*
X376862D01*
Y17268D01*
X377862Y16268D01*
X381861D02*
X383860D01*
X384860Y17268D01*
Y19267D01*
X383860Y20267D01*
X381861D01*
X380861Y19267D01*
Y17268D01*
X381861Y16268D01*
X386859D02*
Y20267D01*
X387859D01*
X388859Y19267D01*
Y16268D01*
Y19267D01*
X389858Y20267D01*
X390858Y19267D01*
Y16268D01*
X402854Y21267D02*
X401854Y22266D01*
X399855D01*
X398855Y21267D01*
Y20267D01*
X399855Y19267D01*
X401854D01*
X402854Y18268D01*
Y17268D01*
X401854Y16268D01*
X399855D01*
X398855Y17268D01*
X405853Y16268D02*
X407852D01*
X408852Y17268D01*
Y19267D01*
X407852Y20267D01*
X405853D01*
X404853Y19267D01*
Y17268D01*
X405853Y16268D01*
X410851D02*
X412851D01*
X411851D01*
Y22266D01*
X410851D01*
X419848D02*
Y16268D01*
X416850D01*
X415850Y17268D01*
Y19267D01*
X416850Y20267D01*
X419848D01*
X424847Y16268D02*
X422848D01*
X421848Y17268D01*
Y19267D01*
X422848Y20267D01*
X424847D01*
X425847Y19267D01*
Y18268D01*
X421848D01*
X427846Y20267D02*
Y16268D01*
Y18268D01*
X428846Y19267D01*
X429845Y20267D01*
X430845D01*
X358868Y34266D02*
Y28268D01*
X361867D01*
X362867Y29268D01*
Y30268D01*
X361867Y31267D01*
X358868D01*
X361867D01*
X362867Y32267D01*
Y33267D01*
X361867Y34266D01*
X358868D01*
X365866Y28268D02*
X367865D01*
X368865Y29268D01*
Y31267D01*
X367865Y32267D01*
X365866D01*
X364866Y31267D01*
Y29268D01*
X365866Y28268D01*
X371864Y33267D02*
Y32267D01*
X370864D01*
X372864D01*
X371864D01*
Y29268D01*
X372864Y28268D01*
X376862Y33267D02*
Y32267D01*
X375863D01*
X377862D01*
X376862D01*
Y29268D01*
X377862Y28268D01*
X381861D02*
X383860D01*
X384860Y29268D01*
Y31267D01*
X383860Y32267D01*
X381861D01*
X380861Y31267D01*
Y29268D01*
X381861Y28268D01*
X386859D02*
Y32267D01*
X387859D01*
X388859Y31267D01*
Y28268D01*
Y31267D01*
X389858Y32267D01*
X390858Y31267D01*
Y28268D01*
X398855Y34266D02*
Y28268D01*
X402854D01*
X405853Y32267D02*
X407852D01*
X408852Y31267D01*
Y28268D01*
X405853D01*
X404853Y29268D01*
X405853Y30268D01*
X408852D01*
X410851Y32267D02*
Y29268D01*
X411851Y28268D01*
X414850D01*
Y27269D01*
X413850Y26269D01*
X412851D01*
X414850Y28268D02*
Y32267D01*
X419848Y28268D02*
X417849D01*
X416850Y29268D01*
Y31267D01*
X417849Y32267D01*
X419848D01*
X420848Y31267D01*
Y30268D01*
X416850D01*
X422848Y32267D02*
Y28268D01*
Y30268D01*
X423847Y31267D01*
X424847Y32267D01*
X425847D01*
X358868Y46266D02*
Y40268D01*
X361867D01*
X362867Y41268D01*
Y45267D01*
X361867Y46266D01*
X358868D01*
X364866Y40268D02*
X366866D01*
X365866D01*
Y44267D01*
X364866D01*
X372864Y40268D02*
X370864D01*
X369865Y41268D01*
Y43267D01*
X370864Y44267D01*
X372864D01*
X373863Y43267D01*
Y42268D01*
X369865D01*
X375863Y40268D02*
X377862D01*
X376862D01*
Y46266D01*
X375863D01*
X383860Y40268D02*
X381861D01*
X380861Y41268D01*
Y43267D01*
X381861Y44267D01*
X383860D01*
X384860Y43267D01*
Y42268D01*
X380861D01*
X390858Y44267D02*
X387859D01*
X386859Y43267D01*
Y41268D01*
X387859Y40268D01*
X390858D01*
X393857Y45267D02*
Y44267D01*
X392857D01*
X394857D01*
X393857D01*
Y41268D01*
X394857Y40268D01*
X397856Y44267D02*
Y40268D01*
Y42268D01*
X398855Y43267D01*
X399855Y44267D01*
X400855D01*
X403854Y40268D02*
X405853D01*
X404853D01*
Y44267D01*
X403854D01*
X412851D02*
X409852D01*
X408852Y43267D01*
Y41268D01*
X409852Y40268D01*
X412851D01*
X420848D02*
X422848D01*
X421848D01*
Y46266D01*
X420848Y45267D01*
X358868Y58266D02*
X362867D01*
X360868D01*
Y52268D01*
X365866D02*
X367865D01*
X368865Y53268D01*
Y55267D01*
X367865Y56267D01*
X365866D01*
X364866Y55267D01*
Y53268D01*
X365866Y52268D01*
X370864Y50269D02*
Y56267D01*
X373863D01*
X374863Y55267D01*
Y53268D01*
X373863Y52268D01*
X370864D01*
X382860Y58266D02*
Y52268D01*
X386859D01*
X389858Y56267D02*
X391858D01*
X392857Y55267D01*
Y52268D01*
X389858D01*
X388859Y53268D01*
X389858Y54268D01*
X392857D01*
X394857Y56267D02*
Y53268D01*
X395856Y52268D01*
X398855D01*
Y51269D01*
X397856Y50269D01*
X396856D01*
X398855Y52268D02*
Y56267D01*
X403854Y52268D02*
X401854D01*
X400855Y53268D01*
Y55267D01*
X401854Y56267D01*
X403854D01*
X404853Y55267D01*
Y54268D01*
X400855D01*
X406853Y56267D02*
Y52268D01*
Y54268D01*
X407852Y55267D01*
X408852Y56267D01*
X409852D01*
X358868Y70266D02*
X362867D01*
X360868D01*
Y64268D01*
X365866D02*
X367865D01*
X368865Y65268D01*
Y67267D01*
X367865Y68267D01*
X365866D01*
X364866Y67267D01*
Y65268D01*
X365866Y64268D01*
X370864Y62269D02*
Y68267D01*
X373863D01*
X374863Y67267D01*
Y65268D01*
X373863Y64268D01*
X370864D01*
X386859Y69267D02*
X385859Y70266D01*
X383860D01*
X382860Y69267D01*
Y68267D01*
X383860Y67267D01*
X385859D01*
X386859Y66268D01*
Y65268D01*
X385859Y64268D01*
X383860D01*
X382860Y65268D01*
X389858Y64268D02*
X391858D01*
X392857Y65268D01*
Y67267D01*
X391858Y68267D01*
X389858D01*
X388859Y67267D01*
Y65268D01*
X389858Y64268D01*
X394857D02*
X396856D01*
X395856D01*
Y70266D01*
X394857D01*
X403854D02*
Y64268D01*
X400855D01*
X399855Y65268D01*
Y67267D01*
X400855Y68267D01*
X403854D01*
X408852Y64268D02*
X406853D01*
X405853Y65268D01*
Y67267D01*
X406853Y68267D01*
X408852D01*
X409852Y67267D01*
Y66268D01*
X405853D01*
X411851Y68267D02*
Y64268D01*
Y66268D01*
X412851Y67267D01*
X413850Y68267D01*
X414850D01*
X358868Y82266D02*
X362867D01*
X360868D01*
Y76268D01*
X365866D02*
X367865D01*
X368865Y77268D01*
Y79267D01*
X367865Y80267D01*
X365866D01*
X364866Y79267D01*
Y77268D01*
X365866Y76268D01*
X370864Y74269D02*
Y80267D01*
X373863D01*
X374863Y79267D01*
Y77268D01*
X373863Y76268D01*
X370864D01*
X385859Y82266D02*
X383860D01*
X382860Y81267D01*
Y77268D01*
X383860Y76268D01*
X385859D01*
X386859Y77268D01*
Y81267D01*
X385859Y82266D01*
X388859Y80267D02*
X390858Y76268D01*
X392857Y80267D01*
X397856Y76268D02*
X395856D01*
X394857Y77268D01*
Y79267D01*
X395856Y80267D01*
X397856D01*
X398855Y79267D01*
Y78268D01*
X394857D01*
X400855Y80267D02*
Y76268D01*
Y78268D01*
X401854Y79267D01*
X402854Y80267D01*
X403854D01*
X406853Y76268D02*
X408852D01*
X407852D01*
Y82266D01*
X406853D01*
X412851Y80267D02*
X414850D01*
X415850Y79267D01*
Y76268D01*
X412851D01*
X411851Y77268D01*
X412851Y78268D01*
X415850D01*
X417849Y80267D02*
Y77268D01*
X418849Y76268D01*
X421848D01*
Y75269D01*
X420848Y74269D01*
X419848D01*
X421848Y76268D02*
Y80267D01*
X451843Y88268D02*
Y94266D01*
X453842Y92267D01*
X455841Y94266D01*
Y88268D01*
X458841Y92267D02*
X460840D01*
X461839Y91267D01*
Y88268D01*
X458841D01*
X457841Y89268D01*
X458841Y90268D01*
X461839D01*
X464839Y93267D02*
Y92267D01*
X463839D01*
X465838D01*
X464839D01*
Y89268D01*
X465838Y88268D01*
X471836D02*
X469837D01*
X468837Y89268D01*
Y91267D01*
X469837Y92267D01*
X471836D01*
X472836Y91267D01*
Y90268D01*
X468837D01*
X474835Y92267D02*
Y88268D01*
Y90268D01*
X475835Y91267D01*
X476835Y92267D01*
X477834D01*
X480833Y88268D02*
X482833D01*
X481833D01*
Y92267D01*
X480833D01*
X486831D02*
X488831D01*
X489830Y91267D01*
Y88268D01*
X486831D01*
X485832Y89268D01*
X486831Y90268D01*
X489830D01*
X491830Y88268D02*
X493829D01*
X492830D01*
Y94266D01*
X491830D01*
X455841Y21267D02*
X454842Y22266D01*
X452842D01*
X451843Y21267D01*
Y20267D01*
X452842Y19267D01*
X454842D01*
X455841Y18268D01*
Y17268D01*
X454842Y16268D01*
X452842D01*
X451843Y17268D01*
X458841Y16268D02*
X460840D01*
X461839Y17268D01*
Y19267D01*
X460840Y20267D01*
X458841D01*
X457841Y19267D01*
Y17268D01*
X458841Y16268D01*
X463839D02*
X465838D01*
X464839D01*
Y22266D01*
X463839D01*
X472836D02*
Y16268D01*
X469837D01*
X468837Y17268D01*
Y19267D01*
X469837Y20267D01*
X472836D01*
X477834Y16268D02*
X475835D01*
X474835Y17268D01*
Y19267D01*
X475835Y20267D01*
X477834D01*
X478834Y19267D01*
Y18268D01*
X474835D01*
X480833Y20267D02*
Y16268D01*
Y18268D01*
X481833Y19267D01*
X482833Y20267D01*
X483832D01*
X492830Y16268D02*
Y22266D01*
X495828D01*
X496828Y21267D01*
Y19267D01*
X495828Y18268D01*
X492830D01*
X494829D02*
X496828Y16268D01*
X501827D02*
X499827D01*
X498828Y17268D01*
Y19267D01*
X499827Y20267D01*
X501827D01*
X502826Y19267D01*
Y18268D01*
X498828D01*
X504826Y16268D02*
X507825D01*
X508824Y17268D01*
X507825Y18268D01*
X505825D01*
X504826Y19267D01*
X505825Y20267D01*
X508824D01*
X510824Y16268D02*
X512823D01*
X511823D01*
Y20267D01*
X510824D01*
X515822Y16268D02*
X518821D01*
X519821Y17268D01*
X518821Y18268D01*
X516822D01*
X515822Y19267D01*
X516822Y20267D01*
X519821D01*
X522820Y21267D02*
Y20267D01*
X521820D01*
X523819D01*
X522820D01*
Y17268D01*
X523819Y16268D01*
X455841Y33267D02*
X454842Y34266D01*
X452842D01*
X451843Y33267D01*
Y29268D01*
X452842Y28268D01*
X454842D01*
X455841Y29268D01*
X458841Y28268D02*
X460840D01*
X461839Y29268D01*
Y31267D01*
X460840Y32267D01*
X458841D01*
X457841Y31267D01*
Y29268D01*
X458841Y28268D01*
X463839Y26269D02*
Y32267D01*
X466838D01*
X467838Y31267D01*
Y29268D01*
X466838Y28268D01*
X463839D01*
X469837Y26269D02*
Y32267D01*
X472836D01*
X473836Y31267D01*
Y29268D01*
X472836Y28268D01*
X469837D01*
X478834D02*
X476835D01*
X475835Y29268D01*
Y31267D01*
X476835Y32267D01*
X478834D01*
X479834Y31267D01*
Y30268D01*
X475835D01*
X481833Y32267D02*
Y28268D01*
Y30268D01*
X482833Y31267D01*
X483832Y32267D01*
X484832D01*
X455841Y46266D02*
X451843D01*
Y43267D01*
X453842D01*
X451843D01*
Y40268D01*
X457841D02*
Y46266D01*
X460840D01*
X461839Y45267D01*
Y43267D01*
X460840Y42268D01*
X457841D01*
X459840D02*
X461839Y40268D01*
X463839Y43267D02*
X467838D01*
X472836Y40268D02*
Y46266D01*
X469837Y43267D01*
X473836D01*
X455841Y57267D02*
X454842Y58266D01*
X452842D01*
X451843Y57267D01*
Y53268D01*
X452842Y52268D01*
X454842D01*
X455841Y53268D01*
X458841Y52268D02*
X460840D01*
X461839Y53268D01*
Y55267D01*
X460840Y56267D01*
X458841D01*
X457841Y55267D01*
Y53268D01*
X458841Y52268D01*
X463839Y50269D02*
Y56267D01*
X466838D01*
X467838Y55267D01*
Y53268D01*
X466838Y52268D01*
X463839D01*
X469837Y50269D02*
Y56267D01*
X472836D01*
X473836Y55267D01*
Y53268D01*
X472836Y52268D01*
X469837D01*
X478834D02*
X476835D01*
X475835Y53268D01*
Y55267D01*
X476835Y56267D01*
X478834D01*
X479834Y55267D01*
Y54268D01*
X475835D01*
X481833Y56267D02*
Y52268D01*
Y54268D01*
X482833Y55267D01*
X483832Y56267D01*
X484832D01*
X455841Y69267D02*
X454842Y70266D01*
X452842D01*
X451843Y69267D01*
Y68267D01*
X452842Y67267D01*
X454842D01*
X455841Y66268D01*
Y65268D01*
X454842Y64268D01*
X452842D01*
X451843Y65268D01*
X458841Y64268D02*
X460840D01*
X461839Y65268D01*
Y67267D01*
X460840Y68267D01*
X458841D01*
X457841Y67267D01*
Y65268D01*
X458841Y64268D01*
X463839D02*
X465838D01*
X464839D01*
Y70266D01*
X463839D01*
X472836D02*
Y64268D01*
X469837D01*
X468837Y65268D01*
Y67267D01*
X469837Y68267D01*
X472836D01*
X477834Y64268D02*
X475835D01*
X474835Y65268D01*
Y67267D01*
X475835Y68267D01*
X477834D01*
X478834Y67267D01*
Y66268D01*
X474835D01*
X480833Y68267D02*
Y64268D01*
Y66268D01*
X481833Y67267D01*
X482833Y68267D01*
X483832D01*
X492830Y64268D02*
Y70266D01*
X495828D01*
X496828Y69267D01*
Y67267D01*
X495828Y66268D01*
X492830D01*
X494829D02*
X496828Y64268D01*
X501827D02*
X499827D01*
X498828Y65268D01*
Y67267D01*
X499827Y68267D01*
X501827D01*
X502826Y67267D01*
Y66268D01*
X498828D01*
X504826Y64268D02*
X507825D01*
X508824Y65268D01*
X507825Y66268D01*
X505825D01*
X504826Y67267D01*
X505825Y68267D01*
X508824D01*
X510824Y64268D02*
X512823D01*
X511823D01*
Y68267D01*
X510824D01*
X515822Y64268D02*
X518821D01*
X519821Y65268D01*
X518821Y66268D01*
X516822D01*
X515822Y67267D01*
X516822Y68267D01*
X519821D01*
X522820Y69267D02*
Y68267D01*
X521820D01*
X523819D01*
X522820D01*
Y65268D01*
X523819Y64268D01*
X537819Y94266D02*
X541818D01*
X539819D01*
Y88268D01*
X543818Y94266D02*
Y88268D01*
Y91267D01*
X544817Y92267D01*
X546816D01*
X547816Y91267D01*
Y88268D01*
X549816D02*
X551815D01*
X550815D01*
Y92267D01*
X549816D01*
X558813D02*
X555814D01*
X554814Y91267D01*
Y89268D01*
X555814Y88268D01*
X558813D01*
X560812D02*
Y94266D01*
Y90268D02*
X563811Y92267D01*
X560812Y90268D02*
X563811Y88268D01*
X566810D02*
Y92267D01*
X569809D01*
X570809Y91267D01*
Y88268D01*
X575807D02*
X573808D01*
X572808Y89268D01*
Y91267D01*
X573808Y92267D01*
X575807D01*
X576807Y91267D01*
Y90268D01*
X572808D01*
X578806Y88268D02*
X581805D01*
X582805Y89268D01*
X581805Y90268D01*
X579806D01*
X578806Y91267D01*
X579806Y92267D01*
X582805D01*
X584804Y88268D02*
X587803D01*
X588803Y89268D01*
X587803Y90268D01*
X585804D01*
X584804Y91267D01*
X585804Y92267D01*
X588803D01*
X537819Y21267D02*
X538819Y22266D01*
X540819D01*
X541818Y21267D01*
Y17268D01*
X540819Y16268D01*
X538819D01*
X537819Y17268D01*
Y21267D01*
X543818Y16268D02*
Y17268D01*
X544817D01*
Y16268D01*
X543818D01*
X551815D02*
Y22266D01*
X548816Y19267D01*
X552815D01*
X554814Y21267D02*
X555814Y22266D01*
X557813D01*
X558813Y21267D01*
Y17268D01*
X557813Y16268D01*
X555814D01*
X554814Y17268D01*
Y21267D01*
X560812Y16268D02*
Y20267D01*
X561812D01*
X562811Y19267D01*
Y16268D01*
Y19267D01*
X563811Y20267D01*
X564811Y19267D01*
Y16268D01*
X566810D02*
X568809D01*
X567810D01*
Y20267D01*
X566810D01*
X571808Y16268D02*
X573808D01*
X572808D01*
Y22266D01*
X571808D01*
X537819Y28268D02*
X539819D01*
X538819D01*
Y34266D01*
X537819Y33267D01*
X542818Y28268D02*
Y29268D01*
X543818D01*
Y28268D01*
X542818D01*
X550815D02*
Y34266D01*
X547816Y31267D01*
X551815D01*
X553814Y33267D02*
X554814Y34266D01*
X556813D01*
X557813Y33267D01*
Y29268D01*
X556813Y28268D01*
X554814D01*
X553814Y29268D01*
Y33267D01*
X559812Y28268D02*
Y32267D01*
X560812D01*
X561812Y31267D01*
Y28268D01*
Y31267D01*
X562811Y32267D01*
X563811Y31267D01*
Y28268D01*
X565810D02*
X567810D01*
X566810D01*
Y32267D01*
X565810D01*
X570809Y28268D02*
X572808D01*
X571808D01*
Y34266D01*
X570809D01*
X541818Y46266D02*
X537819D01*
Y43267D01*
X539819Y44267D01*
X540819D01*
X541818Y43267D01*
Y41268D01*
X540819Y40268D01*
X538819D01*
X537819Y41268D01*
X543818D02*
X544817Y40268D01*
X546816D01*
X547816Y41268D01*
Y45267D01*
X546816Y46266D01*
X544817D01*
X543818Y45267D01*
Y44267D01*
X544817Y43267D01*
X547816D01*
X549816Y40268D02*
Y41268D01*
X550815D01*
Y40268D01*
X549816D01*
X554814Y45267D02*
X555814Y46266D01*
X557813D01*
X558813Y45267D01*
Y41268D01*
X557813Y40268D01*
X555814D01*
X554814Y41268D01*
Y45267D01*
X564811Y46266D02*
X562811Y45267D01*
X560812Y43267D01*
Y41268D01*
X561812Y40268D01*
X563811D01*
X564811Y41268D01*
Y42268D01*
X563811Y43267D01*
X560812D01*
X566810Y40268D02*
Y44267D01*
X567810D01*
X568809Y43267D01*
Y40268D01*
Y43267D01*
X569809Y44267D01*
X570809Y43267D01*
Y40268D01*
X572808D02*
X574808D01*
X573808D01*
Y44267D01*
X572808D01*
X577807Y40268D02*
X579806D01*
X578806D01*
Y46266D01*
X577807D01*
X537819Y52268D02*
X539819D01*
X538819D01*
Y58266D01*
X537819Y57267D01*
X542818Y52268D02*
Y53268D01*
X543818D01*
Y52268D01*
X542818D01*
X550815D02*
Y58266D01*
X547816Y55267D01*
X551815D01*
X553814Y57267D02*
X554814Y58266D01*
X556813D01*
X557813Y57267D01*
Y53268D01*
X556813Y52268D01*
X554814D01*
X553814Y53268D01*
Y57267D01*
X559812Y52268D02*
Y56267D01*
X560812D01*
X561812Y55267D01*
Y52268D01*
Y55267D01*
X562811Y56267D01*
X563811Y55267D01*
Y52268D01*
X565810D02*
X567810D01*
X566810D01*
Y56267D01*
X565810D01*
X570809Y52268D02*
X572808D01*
X571808D01*
Y58266D01*
X570809D01*
X537819Y69267D02*
X538819Y70266D01*
X540819D01*
X541818Y69267D01*
Y65268D01*
X540819Y64268D01*
X538819D01*
X537819Y65268D01*
Y69267D01*
X543818Y64268D02*
Y65268D01*
X544817D01*
Y64268D01*
X543818D01*
X551815D02*
Y70266D01*
X548816Y67267D01*
X552815D01*
X554814Y69267D02*
X555814Y70266D01*
X557813D01*
X558813Y69267D01*
Y65268D01*
X557813Y64268D01*
X555814D01*
X554814Y65268D01*
Y69267D01*
X560812Y64268D02*
Y68267D01*
X561812D01*
X562811Y67267D01*
Y64268D01*
Y67267D01*
X563811Y68267D01*
X564811Y67267D01*
Y64268D01*
X566810D02*
X568809D01*
X567810D01*
Y68267D01*
X566810D01*
X571808Y64268D02*
X573808D01*
X572808D01*
Y70266D01*
X571808D01*
X606802Y93267D02*
X605802Y94266D01*
X603803D01*
X602803Y93267D01*
Y89268D01*
X603803Y88268D01*
X605802D01*
X606802Y89268D01*
X609801Y88268D02*
X611800D01*
X612800Y89268D01*
Y91267D01*
X611800Y92267D01*
X609801D01*
X608801Y91267D01*
Y89268D01*
X609801Y88268D01*
X614799D02*
Y92267D01*
X617798D01*
X618798Y91267D01*
Y88268D01*
X620797D02*
X623796D01*
X624796Y89268D01*
X623796Y90268D01*
X621797D01*
X620797Y91267D01*
X621797Y92267D01*
X624796D01*
X627795Y93267D02*
Y92267D01*
X626795D01*
X628794D01*
X627795D01*
Y89268D01*
X628794Y88268D01*
X632793Y92267D02*
X634793D01*
X635792Y91267D01*
Y88268D01*
X632793D01*
X631794Y89268D01*
X632793Y90268D01*
X635792D01*
X637792Y88268D02*
Y92267D01*
X640791D01*
X641790Y91267D01*
Y88268D01*
X644789Y93267D02*
Y92267D01*
X643790D01*
X645789D01*
X644789D01*
Y89268D01*
X645789Y88268D01*
X602803Y21267D02*
X603803Y22266D01*
X605802D01*
X606802Y21267D01*
Y20267D01*
X605802Y19267D01*
X604802D01*
X605802D01*
X606802Y18268D01*
Y17268D01*
X605802Y16268D01*
X603803D01*
X602803Y17268D01*
X608801Y16268D02*
Y17268D01*
X609801D01*
Y16268D01*
X608801D01*
X617798Y22266D02*
X613799D01*
Y19267D01*
X615799Y20267D01*
X616798D01*
X617798Y19267D01*
Y17268D01*
X616798Y16268D01*
X614799D01*
X613799Y17268D01*
X605802Y40268D02*
Y46266D01*
X602803Y43267D01*
X606802D01*
X608801Y40268D02*
Y41268D01*
X609801D01*
Y40268D01*
X608801D01*
X613799Y45267D02*
X614799Y46266D01*
X616798D01*
X617798Y45267D01*
Y44267D01*
X616798Y43267D01*
X617798Y42268D01*
Y41268D01*
X616798Y40268D01*
X614799D01*
X613799Y41268D01*
Y42268D01*
X614799Y43267D01*
X613799Y44267D01*
Y45267D01*
X614799Y43267D02*
X616798D01*
X602803Y69267D02*
X603803Y70266D01*
X605802D01*
X606802Y69267D01*
Y68267D01*
X605802Y67267D01*
X604802D01*
X605802D01*
X606802Y66268D01*
Y65268D01*
X605802Y64268D01*
X603803D01*
X602803Y65268D01*
X608801Y64268D02*
Y65268D01*
X609801D01*
Y64268D01*
X608801D01*
X617798Y70266D02*
X613799D01*
Y67267D01*
X615799Y68267D01*
X616798D01*
X617798Y67267D01*
Y65268D01*
X616798Y64268D01*
X614799D01*
X613799Y65268D01*
X659789Y94266D02*
Y88268D01*
X662788D01*
X663788Y89268D01*
Y90268D01*
X662788Y91267D01*
X659789D01*
X662788D01*
X663788Y92267D01*
Y93267D01*
X662788Y94266D01*
X659789D01*
X666787Y88268D02*
X668786D01*
X669786Y89268D01*
Y91267D01*
X668786Y92267D01*
X666787D01*
X665787Y91267D01*
Y89268D01*
X666787Y88268D01*
X672785Y92267D02*
X674784D01*
X675784Y91267D01*
Y88268D01*
X672785D01*
X671785Y89268D01*
X672785Y90268D01*
X675784D01*
X677783Y92267D02*
Y88268D01*
Y90268D01*
X678783Y91267D01*
X679783Y92267D01*
X680782D01*
X687780Y94266D02*
Y88268D01*
X684781D01*
X683781Y89268D01*
Y91267D01*
X684781Y92267D01*
X687780D01*
X695777Y94266D02*
Y88268D01*
X699776D01*
X702775Y92267D02*
X704775D01*
X705774Y91267D01*
Y88268D01*
X702775D01*
X701776Y89268D01*
X702775Y90268D01*
X705774D01*
X707773Y92267D02*
Y89268D01*
X708773Y88268D01*
X711772D01*
Y87269D01*
X710773Y86269D01*
X709773D01*
X711772Y88268D02*
Y92267D01*
X716771Y88268D02*
X714771D01*
X713772Y89268D01*
Y91267D01*
X714771Y92267D01*
X716771D01*
X717770Y91267D01*
Y90268D01*
X713772D01*
X719770Y92267D02*
Y88268D01*
Y90268D01*
X720769Y91267D01*
X721769Y92267D01*
X722769D01*
X735765Y93267D02*
X734765Y94266D01*
X732765D01*
X731766Y93267D01*
Y92267D01*
X732765Y91267D01*
X734765D01*
X735765Y90268D01*
Y89268D01*
X734765Y88268D01*
X732765D01*
X731766Y89268D01*
X738764Y93267D02*
Y92267D01*
X737764D01*
X739763D01*
X738764D01*
Y89268D01*
X739763Y88268D01*
X743762Y92267D02*
X745761D01*
X746761Y91267D01*
Y88268D01*
X743762D01*
X742762Y89268D01*
X743762Y90268D01*
X746761D01*
X752759Y92267D02*
X749760D01*
X748760Y91267D01*
Y89268D01*
X749760Y88268D01*
X752759D01*
X754758D02*
Y94266D01*
Y90268D02*
X757757Y92267D01*
X754758Y90268D02*
X757757Y88268D01*
D14*
X0Y10000D02*
G03*
X10000Y0I10000J0D01*
G01*
X190000D02*
G03*
X200000Y10000I0J10000D01*
G01*
Y80000D02*
G03*
X190000Y90000I-10000J0D01*
G01*
X10000D02*
G03*
X0Y80000I0J-10000D01*
G01*
X10000Y0D02*
X190000D01*
X200000Y10000D02*
Y80000D01*
X10000Y90000D02*
X190000D01*
X0Y63000D02*
Y80000D01*
Y63000D02*
X2000Y61000D01*
Y29000D02*
Y61000D01*
X0Y27000D02*
X2000Y29000D01*
X0Y10000D02*
Y27000D01*
D71*
X86350Y294798D02*
X761764D01*
X86350Y204798D02*
X761764D01*
X86350Y189798D02*
X761764D01*
Y309798D01*
X86350D02*
X761764D01*
X86350Y189798D02*
Y309798D01*
X648296Y189798D02*
Y309798D01*
X589311Y189798D02*
Y309798D01*
X439356Y189798D02*
Y309798D01*
X365976Y189798D02*
Y309798D01*
X315388Y189798D02*
Y309798D01*
X200422Y189798D02*
Y309798D01*
X141437Y189798D02*
Y309798D01*
X310877Y85268D02*
X764757D01*
X310877Y97268D02*
X764757D01*
X310877Y1268D02*
Y97268D01*
Y1268D02*
X351868D01*
X310877Y13268D02*
X351868D01*
X310877Y25268D02*
X351868D01*
X310877Y37268D02*
X351868D01*
X310877Y49268D02*
X351868D01*
X310877Y61268D02*
X351868D01*
X310877Y73268D02*
X351868D01*
Y1268D02*
Y97268D01*
Y1268D02*
X444843D01*
X351868Y13268D02*
X444843D01*
X351868Y25268D02*
X444843D01*
X351868Y37268D02*
X444843D01*
X351868Y49268D02*
X444843D01*
X351868Y61268D02*
X444843D01*
X351868Y73268D02*
X444843D01*
Y1268D02*
Y97268D01*
Y1268D02*
X530819D01*
X444843Y13268D02*
X530819D01*
X444843Y25268D02*
X530819D01*
X444843Y37268D02*
X530819D01*
X444843Y49268D02*
X530819D01*
X444843Y61268D02*
X530819D01*
X444843Y73268D02*
X530819D01*
Y1268D02*
Y97268D01*
Y1268D02*
X595803D01*
X530819Y13268D02*
X595803D01*
X530819Y25268D02*
X595803D01*
X530819Y37268D02*
X595803D01*
X530819Y49268D02*
X595803D01*
X530819Y61268D02*
X595803D01*
X530819Y73268D02*
X595803D01*
Y1268D02*
Y97268D01*
Y1268D02*
X652789D01*
X595803Y13268D02*
X652789D01*
X595803Y25268D02*
X652789D01*
X595803Y37268D02*
X652789D01*
X595803Y49268D02*
X652789D01*
X595803Y61268D02*
X652789D01*
X595803Y73268D02*
X652789D01*
Y1268D02*
Y97268D01*
Y1268D02*
X764757D01*
X652789Y13268D02*
X764757D01*
X652789Y25268D02*
X764757D01*
X652789Y37268D02*
X764757D01*
X652789Y49268D02*
X764757D01*
X652789Y61268D02*
X764757D01*
X652789Y73268D02*
X764757D01*
Y1268D02*
Y97268D01*
D85*
X758757Y1268D02*
X764757Y7268D01*
X752757Y1268D02*
X764757Y13268D01*
X746757Y1268D02*
X758757Y13268D01*
X740757Y1268D02*
X752757Y13268D01*
X734757Y1268D02*
X746757Y13268D01*
X728757Y1268D02*
X740757Y13268D01*
X722757Y1268D02*
X734757Y13268D01*
X716757Y1268D02*
X728757Y13268D01*
X710757Y1268D02*
X722757Y13268D01*
X704757Y1268D02*
X716757Y13268D01*
X698757Y1268D02*
X710757Y13268D01*
X692757Y1268D02*
X704757Y13268D01*
X686757Y1268D02*
X698757Y13268D01*
X680757Y1268D02*
X692757Y13268D01*
X674757Y1268D02*
X686757Y13268D01*
X668757Y1268D02*
X680757Y13268D01*
X662757Y1268D02*
X674757Y13268D01*
X656757Y1268D02*
X668757Y13268D01*
X652789Y3300D02*
X662757Y13268D01*
X652789Y9300D02*
X656757Y13268D01*
X758757D02*
X764757Y19268D01*
X752757Y13268D02*
X764757Y25268D01*
X746757Y13268D02*
X758757Y25268D01*
X740757Y13268D02*
X752757Y25268D01*
X734757Y13268D02*
X746757Y25268D01*
X728757Y13268D02*
X740757Y25268D01*
X722757Y13268D02*
X734757Y25268D01*
X716757Y13268D02*
X728757Y25268D01*
X710757Y13268D02*
X722757Y25268D01*
X704757Y13268D02*
X716757Y25268D01*
X698757Y13268D02*
X710757Y25268D01*
X692757Y13268D02*
X704757Y25268D01*
X686757Y13268D02*
X698757Y25268D01*
X680757Y13268D02*
X692757Y25268D01*
X674757Y13268D02*
X686757Y25268D01*
X668757Y13268D02*
X680757Y25268D01*
X662757Y13268D02*
X674757Y25268D01*
X656757Y13268D02*
X668757Y25268D01*
X652789Y15300D02*
X662757Y25268D01*
X652789Y21300D02*
X656757Y25268D01*
X758757D02*
X764757Y31268D01*
X752757Y25268D02*
X764757Y37268D01*
X746757Y25268D02*
X758757Y37268D01*
X740757Y25268D02*
X752757Y37268D01*
X734757Y25268D02*
X746757Y37268D01*
X728757Y25268D02*
X740757Y37268D01*
X722757Y25268D02*
X734757Y37268D01*
X716757Y25268D02*
X728757Y37268D01*
X710757Y25268D02*
X722757Y37268D01*
X704757Y25268D02*
X716757Y37268D01*
X698757Y25268D02*
X710757Y37268D01*
X692757Y25268D02*
X704757Y37268D01*
X686757Y25268D02*
X698757Y37268D01*
X680757Y25268D02*
X692757Y37268D01*
X674757Y25268D02*
X686757Y37268D01*
X668757Y25268D02*
X680757Y37268D01*
X662757Y25268D02*
X674757Y37268D01*
X656757Y25268D02*
X668757Y37268D01*
X652789Y27300D02*
X662757Y37268D01*
X652789Y33300D02*
X656757Y37268D01*
X758757D02*
X764757Y43268D01*
X752757Y37268D02*
X764757Y49268D01*
X746757Y37268D02*
X758757Y49268D01*
X740757Y37268D02*
X752757Y49268D01*
X734757Y37268D02*
X746757Y49268D01*
X728757Y37268D02*
X740757Y49268D01*
X722757Y37268D02*
X734757Y49268D01*
X716757Y37268D02*
X728757Y49268D01*
X710757Y37268D02*
X722757Y49268D01*
X704757Y37268D02*
X716757Y49268D01*
X698757Y37268D02*
X710757Y49268D01*
X692757Y37268D02*
X704757Y49268D01*
X686757Y37268D02*
X698757Y49268D01*
X680757Y37268D02*
X692757Y49268D01*
X674757Y37268D02*
X686757Y49268D01*
X668757Y37268D02*
X680757Y49268D01*
X662757Y37268D02*
X674757Y49268D01*
X656757Y37268D02*
X668757Y49268D01*
X652789Y39300D02*
X662757Y49268D01*
X652789Y45300D02*
X656757Y49268D01*
X758757D02*
X764757Y55268D01*
X752757Y49268D02*
X764757Y61268D01*
X746757Y49268D02*
X758757Y61268D01*
X740757Y49268D02*
X752757Y61268D01*
X734757Y49268D02*
X746757Y61268D01*
X728757Y49268D02*
X740757Y61268D01*
X722757Y49268D02*
X734757Y61268D01*
X716757Y49268D02*
X728757Y61268D01*
X710757Y49268D02*
X722757Y61268D01*
X704757Y49268D02*
X716757Y61268D01*
X698757Y49268D02*
X710757Y61268D01*
X692757Y49268D02*
X704757Y61268D01*
X686757Y49268D02*
X698757Y61268D01*
X680757Y49268D02*
X692757Y61268D01*
X674757Y49268D02*
X686757Y61268D01*
X668757Y49268D02*
X680757Y61268D01*
X662757Y49268D02*
X674757Y61268D01*
X656757Y49268D02*
X668757Y61268D01*
X652789Y51300D02*
X662757Y61268D01*
X652789Y57300D02*
X656757Y61268D01*
X758757D02*
X764757Y67268D01*
X752757Y61268D02*
X764757Y73268D01*
X746757Y61268D02*
X758757Y73268D01*
X740757Y61268D02*
X752757Y73268D01*
X734757Y61268D02*
X746757Y73268D01*
X728757Y61268D02*
X740757Y73268D01*
X722757Y61268D02*
X734757Y73268D01*
X716757Y61268D02*
X728757Y73268D01*
X710757Y61268D02*
X722757Y73268D01*
X704757Y61268D02*
X716757Y73268D01*
X698757Y61268D02*
X710757Y73268D01*
X692757Y61268D02*
X704757Y73268D01*
X686757Y61268D02*
X698757Y73268D01*
X680757Y61268D02*
X692757Y73268D01*
X674757Y61268D02*
X686757Y73268D01*
X668757Y61268D02*
X680757Y73268D01*
X662757Y61268D02*
X674757Y73268D01*
X656757Y61268D02*
X668757Y73268D01*
X652789Y63300D02*
X662757Y73268D01*
X652789Y69300D02*
X656757Y73268D01*
X758757D02*
X764757Y79268D01*
X752757Y73268D02*
X764757Y85268D01*
X746757Y73268D02*
X758757Y85268D01*
X740757Y73268D02*
X752757Y85268D01*
X734757Y73268D02*
X746757Y85268D01*
X728757Y73268D02*
X740757Y85268D01*
X722757Y73268D02*
X734757Y85268D01*
X716757Y73268D02*
X728757Y85268D01*
X710757Y73268D02*
X722757Y85268D01*
X704757Y73268D02*
X716757Y85268D01*
X698757Y73268D02*
X710757Y85268D01*
X692757Y73268D02*
X704757Y85268D01*
X686757Y73268D02*
X698757Y85268D01*
X680757Y73268D02*
X692757Y85268D01*
X674757Y73268D02*
X686757Y85268D01*
X668757Y73268D02*
X680757Y85268D01*
X662757Y73268D02*
X674757Y85268D01*
X656757Y73268D02*
X668757Y85268D01*
X652789Y75300D02*
X662757Y85268D01*
X652789Y81300D02*
X656757Y85268D01*
D87*
X66000Y5000D02*
G03*
X66000Y5000I-1000J0D01*
G01*
X76000D02*
G03*
X76000Y5000I-1000J0D01*
G01*
X56000D02*
G03*
X56000Y5000I-1000J0D01*
G01*
X46000D02*
G03*
X46000Y5000I-1000J0D01*
G01*
X36000D02*
G03*
X36000Y5000I-1000J0D01*
G01*
X26000D02*
G03*
X26000Y5000I-1000J0D01*
G01*
X156000D02*
G03*
X156000Y5000I-1000J0D01*
G01*
X146000D02*
G03*
X146000Y5000I-1000J0D01*
G01*
X176000D02*
G03*
X176000Y5000I-1000J0D01*
G01*
X166000D02*
G03*
X166000Y5000I-1000J0D01*
G01*
X106000D02*
G03*
X106000Y5000I-1000J0D01*
G01*
X86000D02*
G03*
X86000Y5000I-1000J0D01*
G01*
X96000D02*
G03*
X96000Y5000I-1000J0D01*
G01*
X136000D02*
G03*
X136000Y5000I-1000J0D01*
G01*
X116000D02*
G03*
X116000Y5000I-1000J0D01*
G01*
X126000D02*
G03*
X126000Y5000I-1000J0D01*
G01*
X146000Y85000D02*
G03*
X146000Y85000I-1000J0D01*
G01*
X156000D02*
G03*
X156000Y85000I-1000J0D01*
G01*
X136000D02*
G03*
X136000Y85000I-1000J0D01*
G01*
X176000D02*
G03*
X176000Y85000I-1000J0D01*
G01*
X166000D02*
G03*
X166000Y85000I-1000J0D01*
G01*
X106000D02*
G03*
X106000Y85000I-1000J0D01*
G01*
X126000D02*
G03*
X126000Y85000I-1000J0D01*
G01*
X116000D02*
G03*
X116000Y85000I-1000J0D01*
G01*
X96000D02*
G03*
X96000Y85000I-1000J0D01*
G01*
X86000D02*
G03*
X86000Y85000I-1000J0D01*
G01*
X76000D02*
G03*
X76000Y85000I-1000J0D01*
G01*
X66000D02*
G03*
X66000Y85000I-1000J0D01*
G01*
X176000Y15000D02*
G03*
X176000Y15000I-1000J0D01*
G01*
X166000D02*
G03*
X166000Y15000I-1000J0D01*
G01*
X146000D02*
G03*
X146000Y15000I-1000J0D01*
G01*
X156000D02*
G03*
X156000Y15000I-1000J0D01*
G01*
X54000Y37500D02*
Y38000D01*
X54500Y38500D01*
X54000Y39000D02*
X54500Y38500D01*
X54000Y39000D02*
Y39500D01*
X54500D01*
X55000Y39000D01*
X55500Y39500D01*
X56000D01*
Y39000D02*
Y39500D01*
X55500Y38500D02*
X56000Y39000D01*
X55500Y38500D02*
X56000Y38000D01*
Y37500D02*
Y38000D01*
X55500Y37500D02*
X56000D01*
X55000Y38000D02*
X55500Y37500D01*
X54500D02*
X55000Y38000D01*
X54000Y37500D02*
X54500D01*
X57500D02*
Y38000D01*
X58000Y38500D01*
X57500Y39000D02*
X58000Y38500D01*
X57500Y39000D02*
Y39500D01*
X58000D01*
X58500Y39000D01*
X59000Y39500D01*
X59500D01*
Y39000D02*
Y39500D01*
X59000Y38500D02*
X59500Y39000D01*
X59000Y38500D02*
X59500Y38000D01*
Y37500D02*
Y38000D01*
X59000Y37500D02*
X59500D01*
X58500Y38000D02*
X59000Y37500D01*
X58000D02*
X58500Y38000D01*
X57500Y37500D02*
X58000D01*
X33500Y48500D02*
Y49000D01*
X34000Y49500D01*
X33500Y50000D02*
X34000Y49500D01*
X33500Y50000D02*
Y50500D01*
X34000D01*
X34500Y50000D01*
X35000Y50500D01*
X35500D01*
Y50000D02*
Y50500D01*
X35000Y49500D02*
X35500Y50000D01*
X35000Y49500D02*
X35500Y49000D01*
Y48500D02*
Y49000D01*
X35000Y48500D02*
X35500D01*
X34500Y49000D02*
X35000Y48500D01*
X34000D02*
X34500Y49000D01*
X33500Y48500D02*
X34000D01*
X36751D02*
Y49000D01*
X37251Y49500D01*
X36751Y50000D02*
X37251Y49500D01*
X36751Y50000D02*
Y50500D01*
X37251D01*
X37751Y50000D01*
X38251Y50500D01*
X38751D01*
Y50000D02*
Y50500D01*
X38251Y49500D02*
X38751Y50000D01*
X38251Y49500D02*
X38751Y49000D01*
Y48500D02*
Y49000D01*
X38251Y48500D02*
X38751D01*
X37751Y49000D02*
X38251Y48500D01*
X37251D02*
X37751Y49000D01*
X36751Y48500D02*
X37251D01*
X82200Y44400D02*
Y44900D01*
X82700Y45400D01*
X82200Y45900D02*
X82700Y45400D01*
X82200Y45900D02*
Y46400D01*
X82700D01*
X83200Y45900D01*
X83700Y46400D01*
X84200D01*
Y45900D02*
Y46400D01*
X83700Y45400D02*
X84200Y45900D01*
X83700Y45400D02*
X84200Y44900D01*
Y44400D02*
Y44900D01*
X83700Y44400D02*
X84200D01*
X83200Y44900D02*
X83700Y44400D01*
X82700D02*
X83200Y44900D01*
X82200Y44400D02*
X82700D01*
X94199Y47338D02*
Y47838D01*
X94699Y48338D01*
X94199Y48838D02*
X94699Y48338D01*
X94199Y48838D02*
Y49338D01*
X94699D01*
X95199Y48838D01*
X95699Y49338D01*
X96199D01*
Y48838D02*
Y49338D01*
X95699Y48338D02*
X96199Y48838D01*
X95699Y48338D02*
X96199Y47838D01*
Y47338D02*
Y47838D01*
X95699Y47338D02*
X96199D01*
X95199Y47838D02*
X95699Y47338D01*
X94699D02*
X95199Y47838D01*
X94199Y47338D02*
X94699D01*
X94199Y44338D02*
Y44838D01*
X94699Y45338D01*
X94199Y45838D02*
X94699Y45338D01*
X94199Y45838D02*
Y46338D01*
X94699D01*
X95199Y45838D01*
X95699Y46338D01*
X96199D01*
Y45838D02*
Y46338D01*
X95699Y45338D02*
X96199Y45838D01*
X95699Y45338D02*
X96199Y44838D01*
Y44338D02*
Y44838D01*
X95699Y44338D02*
X96199D01*
X95199Y44838D02*
X95699Y44338D01*
X94699D02*
X95199Y44838D01*
X94199Y44338D02*
X94699D01*
X82316Y41255D02*
Y41755D01*
X82816Y42255D01*
X82316Y42755D02*
X82816Y42255D01*
X82316Y42755D02*
Y43255D01*
X82816D01*
X83316Y42755D01*
X83816Y43255D01*
X84316D01*
Y42755D02*
Y43255D01*
X83816Y42255D02*
X84316Y42755D01*
X83816Y42255D02*
X84316Y41755D01*
Y41255D02*
Y41755D01*
X83816Y41255D02*
X84316D01*
X83316Y41755D02*
X83816Y41255D01*
X82816D02*
X83316Y41755D01*
X82316Y41255D02*
X82816D01*
X131800Y47239D02*
Y47739D01*
X132300Y48239D01*
X131800Y48739D02*
X132300Y48239D01*
X131800Y48739D02*
Y49239D01*
X132300D01*
X132800Y48739D01*
X133300Y49239D01*
X133800D01*
Y48739D02*
Y49239D01*
X133300Y48239D02*
X133800Y48739D01*
X133300Y48239D02*
X133800Y47739D01*
Y47239D02*
Y47739D01*
X133300Y47239D02*
X133800D01*
X132800Y47739D02*
X133300Y47239D01*
X132300D02*
X132800Y47739D01*
X131800Y47239D02*
X132300D01*
X128800D02*
Y47739D01*
X129300Y48239D01*
X128800Y48739D02*
X129300Y48239D01*
X128800Y48739D02*
Y49239D01*
X129300D01*
X129800Y48739D01*
X130300Y49239D01*
X130800D01*
Y48739D02*
Y49239D01*
X130300Y48239D02*
X130800Y48739D01*
X130300Y48239D02*
X130800Y47739D01*
Y47239D02*
Y47739D01*
X130300Y47239D02*
X130800D01*
X129800Y47739D02*
X130300Y47239D01*
X129300D02*
X129800Y47739D01*
X128800Y47239D02*
X129300D01*
X50419Y11791D02*
Y12291D01*
X50919Y12791D01*
X50419Y13292D02*
X50919Y12791D01*
X50419Y13292D02*
Y13792D01*
X50919D01*
X51419Y13292D01*
X51919Y13792D01*
X52419D01*
Y13292D02*
Y13792D01*
X51919Y12791D02*
X52419Y13292D01*
X51919Y12791D02*
X52419Y12291D01*
Y11791D02*
Y12291D01*
X51919Y11791D02*
X52419D01*
X51419Y12291D02*
X51919Y11791D01*
X50919D02*
X51419Y12291D01*
X50419Y11791D02*
X50919D01*
X143049Y45100D02*
Y45600D01*
X143549Y46100D01*
X143049Y46600D02*
X143549Y46100D01*
X143049Y46600D02*
Y47100D01*
X143549D01*
X144049Y46600D01*
X144549Y47100D01*
X145049D01*
Y46600D02*
Y47100D01*
X144549Y46100D02*
X145049Y46600D01*
X144549Y46100D02*
X145049Y45600D01*
Y45100D02*
Y45600D01*
X144549Y45100D02*
X145049D01*
X144049Y45600D02*
X144549Y45100D01*
X143549D02*
X144049Y45600D01*
X143049Y45100D02*
X143549D01*
X111000Y43400D02*
Y43900D01*
X111500Y44400D01*
X111000Y44900D02*
X111500Y44400D01*
X111000Y44900D02*
Y45400D01*
X111500D01*
X112000Y44900D01*
X112500Y45400D01*
X113000D01*
Y44900D02*
Y45400D01*
X112500Y44400D02*
X113000Y44900D01*
X112500Y44400D02*
X113000Y43900D01*
Y43400D02*
Y43900D01*
X112500Y43400D02*
X113000D01*
X112000Y43900D02*
X112500Y43400D01*
X111500D02*
X112000Y43900D01*
X111000Y43400D02*
X111500D01*
X120100Y32200D02*
Y32700D01*
X120600Y33200D01*
X120100Y33700D02*
X120600Y33200D01*
X120100Y33700D02*
Y34200D01*
X120600D01*
X121100Y33700D01*
X121600Y34200D01*
X122100D01*
Y33700D02*
Y34200D01*
X121600Y33200D02*
X122100Y33700D01*
X121600Y33200D02*
X122100Y32700D01*
Y32200D02*
Y32700D01*
X121600Y32200D02*
X122100D01*
X121100Y32700D02*
X121600Y32200D01*
X120600D02*
X121100Y32700D01*
X120100Y32200D02*
X120600D01*
X123100D02*
Y32700D01*
X123600Y33200D01*
X123100Y33700D02*
X123600Y33200D01*
X123100Y33700D02*
Y34200D01*
X123600D01*
X124100Y33700D01*
X124600Y34200D01*
X125100D01*
Y33700D02*
Y34200D01*
X124600Y33200D02*
X125100Y33700D01*
X124600Y33200D02*
X125100Y32700D01*
Y32200D02*
Y32700D01*
X124600Y32200D02*
X125100D01*
X124100Y32700D02*
X124600Y32200D01*
X123600D02*
X124100Y32700D01*
X123100Y32200D02*
X123600D01*
X126100D02*
Y32700D01*
X126600Y33200D01*
X126100Y33700D02*
X126600Y33200D01*
X126100Y33700D02*
Y34200D01*
X126600D01*
X127100Y33700D01*
X127600Y34200D01*
X128100D01*
Y33700D02*
Y34200D01*
X127600Y33200D02*
X128100Y33700D01*
X127600Y33200D02*
X128100Y32700D01*
Y32200D02*
Y32700D01*
X127600Y32200D02*
X128100D01*
X127100Y32700D02*
X127600Y32200D01*
X126600D02*
X127100Y32700D01*
X126100Y32200D02*
X126600D01*
X129100D02*
Y32700D01*
X129600Y33200D01*
X129100Y33700D02*
X129600Y33200D01*
X129100Y33700D02*
Y34200D01*
X129600D01*
X130100Y33700D01*
X130600Y34200D01*
X131100D01*
Y33700D02*
Y34200D01*
X130600Y33200D02*
X131100Y33700D01*
X130600Y33200D02*
X131100Y32700D01*
Y32200D02*
Y32700D01*
X130600Y32200D02*
X131100D01*
X130100Y32700D02*
X130600Y32200D01*
X129600D02*
X130100Y32700D01*
X129100Y32200D02*
X129600D01*
X109265Y61212D02*
Y61712D01*
X109766Y62212D01*
X109265Y62712D02*
X109766Y62212D01*
X109265Y62712D02*
Y63212D01*
X109766D01*
X110266Y62712D01*
X110766Y63212D01*
X111266D01*
Y62712D02*
Y63212D01*
X110766Y62212D02*
X111266Y62712D01*
X110766Y62212D02*
X111266Y61712D01*
Y61212D02*
Y61712D01*
X110766Y61212D02*
X111266D01*
X110266Y61712D02*
X110766Y61212D01*
X109766D02*
X110266Y61712D01*
X109265Y61212D02*
X109766D01*
X118773Y55157D02*
Y55657D01*
X119273Y56157D01*
X118773Y56657D02*
X119273Y56157D01*
X118773Y56657D02*
Y57157D01*
X119273D01*
X119773Y56657D01*
X120273Y57157D01*
X120773D01*
Y56657D02*
Y57157D01*
X120273Y56157D02*
X120773Y56657D01*
X120273Y56157D02*
X120773Y55657D01*
Y55157D02*
Y55657D01*
X120273Y55157D02*
X120773D01*
X119773Y55657D02*
X120273Y55157D01*
X119273D02*
X119773Y55657D01*
X118773Y55157D02*
X119273D01*
X115374Y61341D02*
Y61841D01*
X115874Y62341D01*
X115374Y62841D02*
X115874Y62341D01*
X115374Y62841D02*
Y63341D01*
X115874D01*
X116374Y62841D01*
X116874Y63341D01*
X117374D01*
Y62841D02*
Y63341D01*
X116874Y62341D02*
X117374Y62841D01*
X116874Y62341D02*
X117374Y61841D01*
Y61341D02*
Y61841D01*
X116874Y61341D02*
X117374D01*
X116374Y61841D02*
X116874Y61341D01*
X115874D02*
X116374Y61841D01*
X115374Y61341D02*
X115874D01*
X114900Y46900D02*
Y47400D01*
X115400Y47900D01*
X114900Y48400D02*
X115400Y47900D01*
X114900Y48400D02*
Y48900D01*
X115400D01*
X115900Y48400D01*
X116400Y48900D01*
X116900D01*
Y48400D02*
Y48900D01*
X116400Y47900D02*
X116900Y48400D01*
X116400Y47900D02*
X116900Y47400D01*
Y46900D02*
Y47400D01*
X116400Y46900D02*
X116900D01*
X115900Y47400D02*
X116400Y46900D01*
X115400D02*
X115900Y47400D01*
X114900Y46900D02*
X115400D01*
X99333Y76767D02*
Y77267D01*
X99833Y77767D01*
X99333Y78267D02*
X99833Y77767D01*
X99333Y78267D02*
Y78767D01*
X99833D01*
X100333Y78267D01*
X100833Y78767D01*
X101333D01*
Y78267D02*
Y78767D01*
X100833Y77767D02*
X101333Y78267D01*
X100833Y77767D02*
X101333Y77267D01*
Y76767D02*
Y77267D01*
X100833Y76767D02*
X101333D01*
X100333Y77267D02*
X100833Y76767D01*
X99833D02*
X100333Y77267D01*
X99333Y76767D02*
X99833D01*
X143049Y56433D02*
Y56933D01*
X143549Y57433D01*
X143049Y57933D02*
X143549Y57433D01*
X143049Y57933D02*
Y58433D01*
X143549D01*
X144049Y57933D01*
X144549Y58433D01*
X145049D01*
Y57933D02*
Y58433D01*
X144549Y57433D02*
X145049Y57933D01*
X144549Y57433D02*
X145049Y56933D01*
Y56433D02*
Y56933D01*
X144549Y56433D02*
X145049D01*
X144049Y56933D02*
X144549Y56433D01*
X143549D02*
X144049Y56933D01*
X143049Y56433D02*
X143549D01*
X148400Y51395D02*
Y51895D01*
X148900Y52395D01*
X148400Y52895D02*
X148900Y52395D01*
X148400Y52895D02*
Y53395D01*
X148900D01*
X149400Y52895D01*
X149900Y53395D01*
X150400D01*
Y52895D02*
Y53395D01*
X149900Y52395D02*
X150400Y52895D01*
X149900Y52395D02*
X150400Y51895D01*
Y51395D02*
Y51895D01*
X149900Y51395D02*
X150400D01*
X149400Y51895D02*
X149900Y51395D01*
X148900D02*
X149400Y51895D01*
X148400Y51395D02*
X148900D01*
X127900Y59000D02*
Y59500D01*
X128400Y60000D01*
X127900Y60500D02*
X128400Y60000D01*
X127900Y60500D02*
Y61000D01*
X128400D01*
X128900Y60500D01*
X129400Y61000D01*
X129900D01*
Y60500D02*
Y61000D01*
X129400Y60000D02*
X129900Y60500D01*
X129400Y60000D02*
X129900Y59500D01*
Y59000D02*
Y59500D01*
X129400Y59000D02*
X129900D01*
X128900Y59500D02*
X129400Y59000D01*
X128400D02*
X128900Y59500D01*
X127900Y59000D02*
X128400D01*
X127900Y62000D02*
Y62500D01*
X128400Y63000D01*
X127900Y63500D02*
X128400Y63000D01*
X127900Y63500D02*
Y64000D01*
X128400D01*
X128900Y63500D01*
X129400Y64000D01*
X129900D01*
Y63500D02*
Y64000D01*
X129400Y63000D02*
X129900Y63500D01*
X129400Y63000D02*
X129900Y62500D01*
Y62000D02*
Y62500D01*
X129400Y62000D02*
X129900D01*
X128900Y62500D02*
X129400Y62000D01*
X128400D02*
X128900Y62500D01*
X127900Y62000D02*
X128400D01*
X112266Y61212D02*
Y61712D01*
X112766Y62212D01*
X112266Y62712D02*
X112766Y62212D01*
X112266Y62712D02*
Y63212D01*
X112766D01*
X113266Y62712D01*
X113766Y63212D01*
X114266D01*
Y62712D02*
Y63212D01*
X113766Y62212D02*
X114266Y62712D01*
X113766Y62212D02*
X114266Y61712D01*
Y61212D02*
Y61712D01*
X113766Y61212D02*
X114266D01*
X113266Y61712D02*
X113766Y61212D01*
X112766D02*
X113266Y61712D01*
X112266Y61212D02*
X112766D01*
X130200Y80100D02*
Y80600D01*
X130700Y81100D01*
X130200Y81600D02*
X130700Y81100D01*
X130200Y81600D02*
Y82100D01*
X130700D01*
X131200Y81600D01*
X131700Y82100D01*
X132200D01*
Y81600D02*
Y82100D01*
X131700Y81100D02*
X132200Y81600D01*
X131700Y81100D02*
X132200Y80600D01*
Y80100D02*
Y80600D01*
X131700Y80100D02*
X132200D01*
X131200Y80600D02*
X131700Y80100D01*
X130700D02*
X131200Y80600D01*
X130200Y80100D02*
X130700D01*
X127000Y77300D02*
Y77800D01*
X127500Y78300D01*
X127000Y78800D02*
X127500Y78300D01*
X127000Y78800D02*
Y79300D01*
X127500D01*
X128000Y78800D01*
X128500Y79300D01*
X129000D01*
Y78800D02*
Y79300D01*
X128500Y78300D02*
X129000Y78800D01*
X128500Y78300D02*
X129000Y77800D01*
Y77300D02*
Y77800D01*
X128500Y77300D02*
X129000D01*
X128000Y77800D02*
X128500Y77300D01*
X127500D02*
X128000Y77800D01*
X127000Y77300D02*
X127500D01*
X118700Y74800D02*
Y75300D01*
X119200Y75800D01*
X118700Y76300D02*
X119200Y75800D01*
X118700Y76300D02*
Y76800D01*
X119200D01*
X119700Y76300D01*
X120200Y76800D01*
X120700D01*
Y76300D02*
Y76800D01*
X120200Y75800D02*
X120700Y76300D01*
X120200Y75800D02*
X120700Y75300D01*
Y74800D02*
Y75300D01*
X120200Y74800D02*
X120700D01*
X119700Y75300D02*
X120200Y74800D01*
X119200D02*
X119700Y75300D01*
X118700Y74800D02*
X119200D01*
X121600Y72400D02*
Y72900D01*
X122100Y73400D01*
X121600Y73900D02*
X122100Y73400D01*
X121600Y73900D02*
Y74400D01*
X122100D01*
X122600Y73900D01*
X123100Y74400D01*
X123600D01*
Y73900D02*
Y74400D01*
X123100Y73400D02*
X123600Y73900D01*
X123100Y73400D02*
X123600Y72900D01*
Y72400D02*
Y72900D01*
X123100Y72400D02*
X123600D01*
X122600Y72900D02*
X123100Y72400D01*
X122100D02*
X122600Y72900D01*
X121600Y72400D02*
X122100D01*
X148375Y36041D02*
Y36541D01*
X148875Y37041D01*
X148375Y37541D02*
X148875Y37041D01*
X148375Y37541D02*
Y38041D01*
X148875D01*
X149375Y37541D01*
X149875Y38041D01*
X150375D01*
Y37541D02*
Y38041D01*
X149875Y37041D02*
X150375Y37541D01*
X149875Y37041D02*
X150375Y36541D01*
Y36041D02*
Y36541D01*
X149875Y36041D02*
X150375D01*
X149375Y36541D02*
X149875Y36041D01*
X148875D02*
X149375Y36541D01*
X148375Y36041D02*
X148875D01*
X143049Y40300D02*
Y40800D01*
X143549Y41300D01*
X143049Y41800D02*
X143549Y41300D01*
X143049Y41800D02*
Y42300D01*
X143549D01*
X144049Y41800D01*
X144549Y42300D01*
X145049D01*
Y41800D02*
Y42300D01*
X144549Y41300D02*
X145049Y41800D01*
X144549Y41300D02*
X145049Y40800D01*
Y40300D02*
Y40800D01*
X144549Y40300D02*
X145049D01*
X144049Y40800D02*
X144549Y40300D01*
X143549D02*
X144049Y40800D01*
X143049Y40300D02*
X143549D01*
X130400Y14200D02*
Y14700D01*
X130900Y15200D01*
X130400Y15700D02*
X130900Y15200D01*
X130400Y15700D02*
Y16200D01*
X130900D01*
X131400Y15700D01*
X131900Y16200D01*
X132400D01*
Y15700D02*
Y16200D01*
X131900Y15200D02*
X132400Y15700D01*
X131900Y15200D02*
X132400Y14700D01*
Y14200D02*
Y14700D01*
X131900Y14200D02*
X132400D01*
X131400Y14700D02*
X131900Y14200D01*
X130900D02*
X131400Y14700D01*
X130400Y14200D02*
X130900D01*
X130400Y17988D02*
Y18488D01*
X130900Y18988D01*
X130400Y19488D02*
X130900Y18988D01*
X130400Y19488D02*
Y19988D01*
X130900D01*
X131400Y19488D01*
X131900Y19988D01*
X132400D01*
Y19488D02*
Y19988D01*
X131900Y18988D02*
X132400Y19488D01*
X131900Y18988D02*
X132400Y18488D01*
Y17988D02*
Y18488D01*
X131900Y17988D02*
X132400D01*
X131400Y18488D02*
X131900Y17988D01*
X130900D02*
X131400Y18488D01*
X130400Y17988D02*
X130900D01*
X88800Y24500D02*
Y25000D01*
X89300Y25500D01*
X88800Y26000D02*
X89300Y25500D01*
X88800Y26000D02*
Y26500D01*
X89300D01*
X89800Y26000D01*
X90300Y26500D01*
X90800D01*
Y26000D02*
Y26500D01*
X90300Y25500D02*
X90800Y26000D01*
X90300Y25500D02*
X90800Y25000D01*
Y24500D02*
Y25000D01*
X90300Y24500D02*
X90800D01*
X89800Y25000D02*
X90300Y24500D01*
X89300D02*
X89800Y25000D01*
X88800Y24500D02*
X89300D01*
X94565Y24480D02*
Y24980D01*
X95065Y25480D01*
X94565Y25980D02*
X95065Y25480D01*
X94565Y25980D02*
Y26480D01*
X95065D01*
X95565Y25980D01*
X96065Y26480D01*
X96565D01*
Y25980D02*
Y26480D01*
X96065Y25480D02*
X96565Y25980D01*
X96065Y25480D02*
X96565Y24980D01*
Y24480D02*
Y24980D01*
X96065Y24480D02*
X96565D01*
X95565Y24980D02*
X96065Y24480D01*
X95065D02*
X95565Y24980D01*
X94565Y24480D02*
X95065D01*
X105700Y21300D02*
Y21800D01*
X106200Y22300D01*
X105700Y22800D02*
X106200Y22300D01*
X105700Y22800D02*
Y23300D01*
X106200D01*
X106700Y22800D01*
X107200Y23300D01*
X107700D01*
Y22800D02*
Y23300D01*
X107200Y22300D02*
X107700Y22800D01*
X107200Y22300D02*
X107700Y21800D01*
Y21300D02*
Y21800D01*
X107200Y21300D02*
X107700D01*
X106700Y21800D02*
X107200Y21300D01*
X106200D02*
X106700Y21800D01*
X105700Y21300D02*
X106200D01*
X66038Y12843D02*
Y13343D01*
X66538Y13843D01*
X66038Y14343D02*
X66538Y13843D01*
X66038Y14343D02*
Y14843D01*
X66538D01*
X67038Y14343D01*
X67538Y14843D01*
X68038D01*
Y14343D02*
Y14843D01*
X67538Y13843D02*
X68038Y14343D01*
X67538Y13843D02*
X68038Y13343D01*
Y12843D02*
Y13343D01*
X67538Y12843D02*
X68038D01*
X67038Y13343D02*
X67538Y12843D01*
X66538D02*
X67038Y13343D01*
X66038Y12843D02*
X66538D01*
X66000Y16141D02*
Y16641D01*
X66500Y17141D01*
X66000Y17641D02*
X66500Y17141D01*
X66000Y17641D02*
Y18141D01*
X66500D01*
X67000Y17641D01*
X67500Y18141D01*
X68000D01*
Y17641D02*
Y18141D01*
X67500Y17141D02*
X68000Y17641D01*
X67500Y17141D02*
X68000Y16641D01*
Y16141D02*
Y16641D01*
X67500Y16141D02*
X68000D01*
X67000Y16641D02*
X67500Y16141D01*
X66500D02*
X67000Y16641D01*
X66000Y16141D02*
X66500D01*
X66038Y19440D02*
Y19940D01*
X66538Y20440D01*
X66038Y20940D02*
X66538Y20440D01*
X66038Y20940D02*
Y21440D01*
X66538D01*
X67038Y20940D01*
X67538Y21440D01*
X68038D01*
Y20940D02*
Y21440D01*
X67538Y20440D02*
X68038Y20940D01*
X67538Y20440D02*
X68038Y19940D01*
Y19440D02*
Y19940D01*
X67538Y19440D02*
X68038D01*
X67038Y19940D02*
X67538Y19440D01*
X66538D02*
X67038Y19940D01*
X66038Y19440D02*
X66538D01*
X94516Y10500D02*
Y11000D01*
X95016Y11500D01*
X94516Y12000D02*
X95016Y11500D01*
X94516Y12000D02*
Y12500D01*
X95016D01*
X95516Y12000D01*
X96016Y12500D01*
X96516D01*
Y12000D02*
Y12500D01*
X96016Y11500D02*
X96516Y12000D01*
X96016Y11500D02*
X96516Y11000D01*
Y10500D02*
Y11000D01*
X96016Y10500D02*
X96516D01*
X95516Y11000D02*
X96016Y10500D01*
X95016D02*
X95516Y11000D01*
X94516Y10500D02*
X95016D01*
X83075Y13300D02*
Y13800D01*
X83575Y14300D01*
X83075Y14800D02*
X83575Y14300D01*
X83075Y14800D02*
Y15300D01*
X83575D01*
X84075Y14800D01*
X84575Y15300D01*
X85075D01*
Y14800D02*
Y15300D01*
X84575Y14300D02*
X85075Y14800D01*
X84575Y14300D02*
X85075Y13800D01*
Y13300D02*
Y13800D01*
X84575Y13300D02*
X85075D01*
X84075Y13800D02*
X84575Y13300D01*
X83575D02*
X84075Y13800D01*
X83075Y13300D02*
X83575D01*
X71500Y46547D02*
Y47047D01*
X72000Y47547D01*
X71500Y48047D02*
X72000Y47547D01*
X71500Y48047D02*
Y48547D01*
X72000D01*
X72500Y48047D01*
X73000Y48547D01*
X73500D01*
Y48047D02*
Y48547D01*
X73000Y47547D02*
X73500Y48047D01*
X73000Y47547D02*
X73500Y47047D01*
Y46547D02*
Y47047D01*
X73000Y46547D02*
X73500D01*
X72500Y47047D02*
X73000Y46547D01*
X72000D02*
X72500Y47047D01*
X71500Y46547D02*
X72000D01*
X93309Y73339D02*
Y73839D01*
X93809Y74339D01*
X93309Y74839D02*
X93809Y74339D01*
X93309Y74839D02*
Y75339D01*
X93809D01*
X94309Y74839D01*
X94809Y75339D01*
X95309D01*
Y74839D02*
Y75339D01*
X94809Y74339D02*
X95309Y74839D01*
X94809Y74339D02*
X95309Y73839D01*
Y73339D02*
Y73839D01*
X94809Y73339D02*
X95309D01*
X94309Y73839D02*
X94809Y73339D01*
X93809D02*
X94309Y73839D01*
X93309Y73339D02*
X93809D01*
X79300Y57900D02*
Y58400D01*
X79800Y58900D01*
X79300Y59400D02*
X79800Y58900D01*
X79300Y59400D02*
Y59900D01*
X79800D01*
X80300Y59400D01*
X80800Y59900D01*
X81300D01*
Y59400D02*
Y59900D01*
X80800Y58900D02*
X81300Y59400D01*
X80800Y58900D02*
X81300Y58400D01*
Y57900D02*
Y58400D01*
X80800Y57900D02*
X81300D01*
X80300Y58400D02*
X80800Y57900D01*
X79800D02*
X80300Y58400D01*
X79300Y57900D02*
X79800D01*
X71427Y58527D02*
Y59027D01*
X71927Y59527D01*
X71427Y60027D02*
X71927Y59527D01*
X71427Y60027D02*
Y60527D01*
X71927D01*
X72427Y60027D01*
X72927Y60527D01*
X73427D01*
Y60027D02*
Y60527D01*
X72927Y59527D02*
X73427Y60027D01*
X72927Y59527D02*
X73427Y59027D01*
Y58527D02*
Y59027D01*
X72927Y58527D02*
X73427D01*
X72427Y59027D02*
X72927Y58527D01*
X71927D02*
X72427Y59027D01*
X71427Y58527D02*
X71927D01*
X78702Y29900D02*
Y30400D01*
X79203Y30900D01*
X78702Y31400D02*
X79203Y30900D01*
X78702Y31400D02*
Y31900D01*
X79203D01*
X79703Y31400D01*
X80203Y31900D01*
X80703D01*
Y31400D02*
Y31900D01*
X80203Y30900D02*
X80703Y31400D01*
X80203Y30900D02*
X80703Y30400D01*
Y29900D02*
Y30400D01*
X80203Y29900D02*
X80703D01*
X79703Y30400D02*
X80203Y29900D01*
X79203D02*
X79703Y30400D01*
X78702Y29900D02*
X79203D01*
X82111Y36083D02*
Y36583D01*
X82611Y37083D01*
X82111Y37583D02*
X82611Y37083D01*
X82111Y37583D02*
Y38083D01*
X82611D01*
X83111Y37583D01*
X83611Y38083D01*
X84111D01*
Y37583D02*
Y38083D01*
X83611Y37083D02*
X84111Y37583D01*
X83611Y37083D02*
X84111Y36583D01*
Y36083D02*
Y36583D01*
X83611Y36083D02*
X84111D01*
X83111Y36583D02*
X83611Y36083D01*
X82611D02*
X83111Y36583D01*
X82111Y36083D02*
X82611D01*
X78605Y37755D02*
Y38255D01*
X79105Y38755D01*
X78605Y39255D02*
X79105Y38755D01*
X78605Y39255D02*
Y39755D01*
X79105D01*
X79605Y39255D01*
X80105Y39755D01*
X80605D01*
Y39255D02*
Y39755D01*
X80105Y38755D02*
X80605Y39255D01*
X80105Y38755D02*
X80605Y38255D01*
Y37755D02*
Y38255D01*
X80105Y37755D02*
X80605D01*
X79605Y38255D02*
X80105Y37755D01*
X79105D02*
X79605Y38255D01*
X78605Y37755D02*
X79105D01*
X71564Y17673D02*
Y18172D01*
X72064Y18673D01*
X71564Y19173D02*
X72064Y18673D01*
X71564Y19173D02*
Y19672D01*
X72064D01*
X72564Y19173D01*
X73064Y19672D01*
X73564D01*
Y19173D02*
Y19672D01*
X73064Y18673D02*
X73564Y19173D01*
X73064Y18673D02*
X73564Y18172D01*
Y17673D02*
Y18172D01*
X73064Y17673D02*
X73564D01*
X72564Y18172D02*
X73064Y17673D01*
X72064D02*
X72564Y18172D01*
X71564Y17673D02*
X72064D01*
X88932Y78556D02*
Y79056D01*
X89432Y79556D01*
X88932Y80056D02*
X89432Y79556D01*
X88932Y80056D02*
Y80556D01*
X89432D01*
X89932Y80056D01*
X90432Y80556D01*
X90932D01*
Y80056D02*
Y80556D01*
X90432Y79556D02*
X90932Y80056D01*
X90432Y79556D02*
X90932Y79056D01*
Y78556D02*
Y79056D01*
X90432Y78556D02*
X90932D01*
X89932Y79056D02*
X90432Y78556D01*
X89432D02*
X89932Y79056D01*
X88932Y78556D02*
X89432D01*
X153951Y51395D02*
Y51895D01*
X154451Y52395D01*
X153951Y52895D02*
X154451Y52395D01*
X153951Y52895D02*
Y53395D01*
X154451D01*
X154951Y52895D01*
X155451Y53395D01*
X155951D01*
Y52895D02*
Y53395D01*
X155451Y52395D02*
X155951Y52895D01*
X155451Y52395D02*
X155951Y51895D01*
Y51395D02*
Y51895D01*
X155451Y51395D02*
X155951D01*
X154951Y51895D02*
X155451Y51395D01*
X154451D02*
X154951Y51895D01*
X153951Y51395D02*
X154451D01*
X28718Y56436D02*
Y56936D01*
X29218Y57436D01*
X28718Y57936D02*
X29218Y57436D01*
X28718Y57936D02*
Y58436D01*
X29218D01*
X29718Y57936D01*
X30218Y58436D01*
X30718D01*
Y57936D02*
Y58436D01*
X30218Y57436D02*
X30718Y57936D01*
X30218Y57436D02*
X30718Y56936D01*
Y56436D02*
Y56936D01*
X30218Y56436D02*
X30718D01*
X29718Y56936D02*
X30218Y56436D01*
X29218D02*
X29718Y56936D01*
X28718Y56436D02*
X29218D01*
X33500Y59000D02*
Y59500D01*
X34000Y60000D01*
X33500Y60500D02*
X34000Y60000D01*
X33500Y60500D02*
Y61000D01*
X34000D01*
X34500Y60500D01*
X35000Y61000D01*
X35500D01*
Y60500D02*
Y61000D01*
X35000Y60000D02*
X35500Y60500D01*
X35000Y60000D02*
X35500Y59500D01*
Y59000D02*
Y59500D01*
X35000Y59000D02*
X35500D01*
X34500Y59500D02*
X35000Y59000D01*
X34000D02*
X34500Y59500D01*
X33500Y59000D02*
X34000D01*
X33500Y63503D02*
Y64003D01*
X34000Y64503D01*
X33500Y65003D02*
X34000Y64503D01*
X33500Y65003D02*
Y65503D01*
X34000D01*
X34500Y65003D01*
X35000Y65503D01*
X35500D01*
Y65003D02*
Y65503D01*
X35000Y64503D02*
X35500Y65003D01*
X35000Y64503D02*
X35500Y64003D01*
Y63503D02*
Y64003D01*
X35000Y63503D02*
X35500D01*
X34500Y64003D02*
X35000Y63503D01*
X34000D02*
X34500Y64003D01*
X33500Y63503D02*
X34000D01*
X33500Y54158D02*
Y54658D01*
X34000Y55158D01*
X33500Y55658D02*
X34000Y55158D01*
X33500Y55658D02*
Y56158D01*
X34000D01*
X34500Y55658D01*
X35000Y56158D01*
X35500D01*
Y55658D02*
Y56158D01*
X35000Y55158D02*
X35500Y55658D01*
X35000Y55158D02*
X35500Y54658D01*
Y54158D02*
Y54658D01*
X35000Y54158D02*
X35500D01*
X34500Y54658D02*
X35000Y54158D01*
X34000D02*
X34500Y54658D01*
X33500Y54158D02*
X34000D01*
X22839Y30006D02*
Y30506D01*
X23338Y31006D01*
X22839Y31506D02*
X23338Y31006D01*
X22839Y31506D02*
Y32006D01*
X23338D01*
X23839Y31506D01*
X24339Y32006D01*
X24838D01*
Y31506D02*
Y32006D01*
X24339Y31006D02*
X24838Y31506D01*
X24339Y31006D02*
X24838Y30506D01*
Y30006D02*
Y30506D01*
X24339Y30006D02*
X24838D01*
X23839Y30506D02*
X24339Y30006D01*
X23338D02*
X23839Y30506D01*
X22839Y30006D02*
X23338D01*
X35385Y25055D02*
Y25555D01*
X35885Y26055D01*
X35385Y26555D02*
X35885Y26055D01*
X35385Y26555D02*
Y27055D01*
X35885D01*
X36385Y26555D01*
X36885Y27055D01*
X37385D01*
Y26555D02*
Y27055D01*
X36885Y26055D02*
X37385Y26555D01*
X36885Y26055D02*
X37385Y25555D01*
Y25055D02*
Y25555D01*
X36885Y25055D02*
X37385D01*
X36385Y25555D02*
X36885Y25055D01*
X35885D02*
X36385Y25555D01*
X35385Y25055D02*
X35885D01*
X38937Y18968D02*
Y19467D01*
X39437Y19967D01*
X38937Y20468D02*
X39437Y19967D01*
X38937Y20468D02*
Y20967D01*
X39437D01*
X39937Y20468D01*
X40437Y20967D01*
X40937D01*
Y20468D02*
Y20967D01*
X40437Y19967D02*
X40937Y20468D01*
X40437Y19967D02*
X40937Y19467D01*
Y18968D02*
Y19467D01*
X40437Y18968D02*
X40937D01*
X39937Y19467D02*
X40437Y18968D01*
X39437D02*
X39937Y19467D01*
X38937Y18968D02*
X39437D01*
X54664Y11919D02*
Y12419D01*
X55164Y12919D01*
X54664Y13419D02*
X55164Y12919D01*
X54664Y13419D02*
Y13919D01*
X55164D01*
X55664Y13419D01*
X56164Y13919D01*
X56664D01*
Y13419D02*
Y13919D01*
X56164Y12919D02*
X56664Y13419D01*
X56164Y12919D02*
X56664Y12419D01*
Y11919D02*
Y12419D01*
X56164Y11919D02*
X56664D01*
X55664Y12419D02*
X56164Y11919D01*
X55164D02*
X55664Y12419D01*
X54664Y11919D02*
X55164D01*
X73011Y24100D02*
Y24600D01*
X73511Y25100D01*
X73011Y25600D02*
X73511Y25100D01*
X73011Y25600D02*
Y26100D01*
X73511D01*
X74011Y25600D01*
X74511Y26100D01*
X75011D01*
Y25600D02*
Y26100D01*
X74511Y25100D02*
X75011Y25600D01*
X74511Y25100D02*
X75011Y24600D01*
Y24100D02*
Y24600D01*
X74511Y24100D02*
X75011D01*
X74011Y24600D02*
X74511Y24100D01*
X73511D02*
X74011Y24600D01*
X73011Y24100D02*
X73511D01*
X50419Y42240D02*
Y42740D01*
X50919Y43240D01*
X50419Y43740D02*
X50919Y43240D01*
X50419Y43740D02*
Y44240D01*
X50919D01*
X51419Y43740D01*
X51919Y44240D01*
X52419D01*
Y43740D02*
Y44240D01*
X51919Y43240D02*
X52419Y43740D01*
X51919Y43240D02*
X52419Y42740D01*
Y42240D02*
Y42740D01*
X51919Y42240D02*
X52419D01*
X51419Y42740D02*
X51919Y42240D01*
X50919D02*
X51419Y42740D01*
X50419Y42240D02*
X50919D01*
X35560Y85148D02*
Y85648D01*
X36060Y86148D01*
X35560Y86648D02*
X36060Y86148D01*
X35560Y86648D02*
Y87148D01*
X36060D01*
X36560Y86648D01*
X37060Y87148D01*
X37560D01*
Y86648D02*
Y87148D01*
X37060Y86148D02*
X37560Y86648D01*
X37060Y86148D02*
X37560Y85648D01*
Y85148D02*
Y85648D01*
X37060Y85148D02*
X37560D01*
X36560Y85648D02*
X37060Y85148D01*
X36060D02*
X36560Y85648D01*
X35560Y85148D02*
X36060D01*
X35560Y78500D02*
Y79000D01*
X36060Y79500D01*
X35560Y80000D02*
X36060Y79500D01*
X35560Y80000D02*
Y80500D01*
X36060D01*
X36560Y80000D01*
X37060Y80500D01*
X37560D01*
Y80000D02*
Y80500D01*
X37060Y79500D02*
X37560Y80000D01*
X37060Y79500D02*
X37560Y79000D01*
Y78500D02*
Y79000D01*
X37060Y78500D02*
X37560D01*
X36560Y79000D02*
X37060Y78500D01*
X36060D02*
X36560Y79000D01*
X35560Y78500D02*
X36060D01*
X48785D02*
Y79000D01*
X49285Y79500D01*
X48785Y80000D02*
X49285Y79500D01*
X48785Y80000D02*
Y80500D01*
X49285D01*
X49785Y80000D01*
X50285Y80500D01*
X50785D01*
Y80000D02*
Y80500D01*
X50285Y79500D02*
X50785Y80000D01*
X50285Y79500D02*
X50785Y79000D01*
Y78500D02*
Y79000D01*
X50285Y78500D02*
X50785D01*
X49785Y79000D02*
X50285Y78500D01*
X49285D02*
X49785Y79000D01*
X48785Y78500D02*
X49285D01*
X48785Y85148D02*
Y85648D01*
X49285Y86148D01*
X48785Y86648D02*
X49285Y86148D01*
X48785Y86648D02*
Y87148D01*
X49285D01*
X49785Y86648D01*
X50285Y87148D01*
X50785D01*
Y86648D02*
Y87148D01*
X50285Y86148D02*
X50785Y86648D01*
X50285Y86148D02*
X50785Y85648D01*
Y85148D02*
Y85648D01*
X50285Y85148D02*
X50785D01*
X49785Y85648D02*
X50285Y85148D01*
X49285D02*
X49785Y85648D01*
X48785Y85148D02*
X49285D01*
X86475Y52839D02*
Y53339D01*
X86975Y53839D01*
X86475Y54339D02*
X86975Y53839D01*
X86475Y54339D02*
Y54839D01*
X86975D01*
X87475Y54339D01*
X87975Y54839D01*
X88475D01*
Y54339D02*
Y54839D01*
X87975Y53839D02*
X88475Y54339D01*
X87975Y53839D02*
X88475Y53339D01*
Y52839D02*
Y53339D01*
X87975Y52839D02*
X88475D01*
X87475Y53339D02*
X87975Y52839D01*
X86975D02*
X87475Y53339D01*
X86475Y52839D02*
X86975D01*
X93020Y61212D02*
Y61712D01*
X93520Y62212D01*
X93020Y62712D02*
X93520Y62212D01*
X93020Y62712D02*
Y63212D01*
X93520D01*
X94020Y62712D01*
X94520Y63212D01*
X95020D01*
Y62712D02*
Y63212D01*
X94520Y62212D02*
X95020Y62712D01*
X94520Y62212D02*
X95020Y61712D01*
Y61212D02*
Y61712D01*
X94520Y61212D02*
X95020D01*
X94020Y61712D02*
X94520Y61212D01*
X93520D02*
X94020Y61712D01*
X93020Y61212D02*
X93520D01*
X97515Y51395D02*
Y51895D01*
X98015Y52395D01*
X97515Y52895D02*
X98015Y52395D01*
X97515Y52895D02*
Y53395D01*
X98015D01*
X98515Y52895D01*
X99015Y53395D01*
X99515D01*
Y52895D02*
Y53395D01*
X99015Y52395D02*
X99515Y52895D01*
X99015Y52395D02*
X99515Y51895D01*
Y51395D02*
Y51895D01*
X99015Y51395D02*
X99515D01*
X98515Y51895D02*
X99015Y51395D01*
X98015D02*
X98515Y51895D01*
X97515Y51395D02*
X98015D01*
X114400Y51403D02*
Y51903D01*
X114900Y52403D01*
X114400Y52903D02*
X114900Y52403D01*
X114400Y52903D02*
Y53403D01*
X114900D01*
X115400Y52903D01*
X115900Y53403D01*
X116400D01*
Y52903D02*
Y53403D01*
X115900Y52403D02*
X116400Y52903D01*
X115900Y52403D02*
X116400Y51903D01*
Y51403D02*
Y51903D01*
X115900Y51403D02*
X116400D01*
X115400Y51903D02*
X115900Y51403D01*
X114900D02*
X115400Y51903D01*
X114400Y51403D02*
X114900D01*
X88750Y40247D02*
Y40747D01*
X89250Y41247D01*
X88750Y41747D02*
X89250Y41247D01*
X88750Y41747D02*
Y42247D01*
X89250D01*
X89750Y41747D01*
X90250Y42247D01*
X90750D01*
Y41747D02*
Y42247D01*
X90250Y41247D02*
X90750Y41747D01*
X90250Y41247D02*
X90750Y40747D01*
Y40247D02*
Y40747D01*
X90250Y40247D02*
X90750D01*
X89750Y40747D02*
X90250Y40247D01*
X89250D02*
X89750Y40747D01*
X88750Y40247D02*
X89250D01*
X94199D02*
Y40747D01*
X94699Y41247D01*
X94199Y41747D02*
X94699Y41247D01*
X94199Y41747D02*
Y42247D01*
X94699D01*
X95199Y41747D01*
X95699Y42247D01*
X96199D01*
Y41747D02*
Y42247D01*
X95699Y41247D02*
X96199Y41747D01*
X95699Y41247D02*
X96199Y40747D01*
Y40247D02*
Y40747D01*
X95699Y40247D02*
X96199D01*
X95199Y40747D02*
X95699Y40247D01*
X94699D02*
X95199Y40747D01*
X94199Y40247D02*
X94699D01*
X115283Y36054D02*
Y36554D01*
X115783Y37054D01*
X115283Y37554D02*
X115783Y37054D01*
X115283Y37554D02*
Y38054D01*
X115783D01*
X116283Y37554D01*
X116783Y38054D01*
X117283D01*
Y37554D02*
Y38054D01*
X116783Y37054D02*
X117283Y37554D01*
X116783Y37054D02*
X117283Y36554D01*
Y36054D02*
Y36554D01*
X116783Y36054D02*
X117283D01*
X116283Y36554D02*
X116783Y36054D01*
X115783D02*
X116283Y36554D01*
X115283Y36054D02*
X115783D01*
X194000Y69000D02*
Y69500D01*
X194500Y70000D01*
X194000Y70500D02*
X194500Y70000D01*
X194000Y70500D02*
Y71000D01*
X194500D01*
X195000Y70500D01*
X195500Y71000D01*
X196000D01*
Y70500D02*
Y71000D01*
X195500Y70000D02*
X196000Y70500D01*
X195500Y70000D02*
X196000Y69500D01*
Y69000D02*
Y69500D01*
X195500Y69000D02*
X196000D01*
X195000Y69500D02*
X195500Y69000D01*
X194500D02*
X195000Y69500D01*
X194000Y69000D02*
X194500D01*
X194000Y41500D02*
Y42000D01*
X194500Y42500D01*
X194000Y43000D02*
X194500Y42500D01*
X194000Y43000D02*
Y43500D01*
X194500D01*
X195000Y43000D01*
X195500Y43500D01*
X196000D01*
Y43000D02*
Y43500D01*
X195500Y42500D02*
X196000Y43000D01*
X195500Y42500D02*
X196000Y42000D01*
Y41500D02*
Y42000D01*
X195500Y41500D02*
X196000D01*
X195000Y42000D02*
X195500Y41500D01*
X194500D02*
X195000Y42000D01*
X194000Y41500D02*
X194500D01*
X176500D02*
Y42000D01*
X177000Y42500D01*
X176500Y43000D02*
X177000Y42500D01*
X176500Y43000D02*
Y43500D01*
X177000D01*
X177500Y43000D01*
X178000Y43500D01*
X178500D01*
Y43000D02*
Y43500D01*
X178000Y42500D02*
X178500Y43000D01*
X178000Y42500D02*
X178500Y42000D01*
Y41500D02*
Y42000D01*
X178000Y41500D02*
X178500D01*
X177500Y42000D02*
X178000Y41500D01*
X177000D02*
X177500Y42000D01*
X176500Y41500D02*
X177000D01*
X174000Y69000D02*
Y69500D01*
X174500Y70000D01*
X174000Y70500D02*
X174500Y70000D01*
X174000Y70500D02*
Y71000D01*
X174500D01*
X175000Y70500D01*
X175500Y71000D01*
X176000D01*
Y70500D02*
Y71000D01*
X175500Y70000D02*
X176000Y70500D01*
X175500Y70000D02*
X176000Y69500D01*
Y69000D02*
Y69500D01*
X175500Y69000D02*
X176000D01*
X175000Y69500D02*
X175500Y69000D01*
X174500D02*
X175000Y69500D01*
X174000Y69000D02*
X174500D01*
X159000D02*
Y69500D01*
X159500Y70000D01*
X159000Y70500D02*
X159500Y70000D01*
X159000Y70500D02*
Y71000D01*
X159500D01*
X160000Y70500D01*
X160500Y71000D01*
X161000D01*
Y70500D02*
Y71000D01*
X160500Y70000D02*
X161000Y70500D01*
X160500Y70000D02*
X161000Y69500D01*
Y69000D02*
Y69500D01*
X160500Y69000D02*
X161000D01*
X160000Y69500D02*
X160500Y69000D01*
X159500D02*
X160000Y69500D01*
X159000Y69000D02*
X159500D01*
X166500Y54000D02*
Y54500D01*
X167000Y55000D01*
X166500Y55500D02*
X167000Y55000D01*
X166500Y55500D02*
Y56000D01*
X167000D01*
X167500Y55500D01*
X168000Y56000D01*
X168500D01*
Y55500D02*
Y56000D01*
X168000Y55000D02*
X168500Y55500D01*
X168000Y55000D02*
X168500Y54500D01*
Y54000D02*
Y54500D01*
X168000Y54000D02*
X168500D01*
X167500Y54500D02*
X168000Y54000D01*
X167000D02*
X167500Y54500D01*
X166500Y54000D02*
X167000D01*
X179000Y24000D02*
Y24500D01*
X179500Y25000D01*
X179000Y25500D02*
X179500Y25000D01*
X179000Y25500D02*
Y26000D01*
X179500D01*
X180000Y25500D01*
X180500Y26000D01*
X181000D01*
Y25500D02*
Y26000D01*
X180500Y25000D02*
X181000Y25500D01*
X180500Y25000D02*
X181000Y24500D01*
Y24000D02*
Y24500D01*
X180500Y24000D02*
X181000D01*
X180000Y24500D02*
X180500Y24000D01*
X179500D02*
X180000Y24500D01*
X179000Y24000D02*
X179500D01*
X169000Y21500D02*
Y22000D01*
X169500Y22500D01*
X169000Y23000D02*
X169500Y22500D01*
X169000Y23000D02*
Y23500D01*
X169500D01*
X170000Y23000D01*
X170500Y23500D01*
X171000D01*
Y23000D02*
Y23500D01*
X170500Y22500D02*
X171000Y23000D01*
X170500Y22500D02*
X171000Y22000D01*
Y21500D02*
Y22000D01*
X170500Y21500D02*
X171000D01*
X170000Y22000D02*
X170500Y21500D01*
X169500D02*
X170000Y22000D01*
X169000Y21500D02*
X169500D01*
X159000D02*
Y22000D01*
X159500Y22500D01*
X159000Y23000D02*
X159500Y22500D01*
X159000Y23000D02*
Y23500D01*
X159500D01*
X160000Y23000D01*
X160500Y23500D01*
X161000D01*
Y23000D02*
Y23500D01*
X160500Y22500D02*
X161000Y23000D01*
X160500Y22500D02*
X161000Y22000D01*
Y21500D02*
Y22000D01*
X160500Y21500D02*
X161000D01*
X160000Y22000D02*
X160500Y21500D01*
X159500D02*
X160000Y22000D01*
X159000Y21500D02*
X159500D01*
X144000Y69000D02*
Y69500D01*
X144500Y70000D01*
X144000Y70500D02*
X144500Y70000D01*
X144000Y70500D02*
Y71000D01*
X144500D01*
X145000Y70500D01*
X145500Y71000D01*
X146000D01*
Y70500D02*
Y71000D01*
X145500Y70000D02*
X146000Y70500D01*
X145500Y70000D02*
X146000Y69500D01*
Y69000D02*
Y69500D01*
X145500Y69000D02*
X146000D01*
X145000Y69500D02*
X145500Y69000D01*
X144500D02*
X145000Y69500D01*
X144000Y69000D02*
X144500D01*
X79000D02*
Y69500D01*
X79500Y70000D01*
X79000Y70500D02*
X79500Y70000D01*
X79000Y70500D02*
Y71000D01*
X79500D01*
X80000Y70500D01*
X80500Y71000D01*
X81000D01*
Y70500D02*
Y71000D01*
X80500Y70000D02*
X81000Y70500D01*
X80500Y70000D02*
X81000Y69500D01*
Y69000D02*
Y69500D01*
X80500Y69000D02*
X81000D01*
X80000Y69500D02*
X80500Y69000D01*
X79500D02*
X80000Y69500D01*
X79000Y69000D02*
X79500D01*
X21500Y81500D02*
Y82000D01*
X22000Y82500D01*
X21500Y83000D02*
X22000Y82500D01*
X21500Y83000D02*
Y83500D01*
X22000D01*
X22500Y83000D01*
X23000Y83500D01*
X23500D01*
Y83000D02*
Y83500D01*
X23000Y82500D02*
X23500Y83000D01*
X23000Y82500D02*
X23500Y82000D01*
Y81500D02*
Y82000D01*
X23000Y81500D02*
X23500D01*
X22500Y82000D02*
X23000Y81500D01*
X22000D02*
X22500Y82000D01*
X21500Y81500D02*
X22000D01*
X4000Y69000D02*
Y69500D01*
X4500Y70000D01*
X4000Y70500D02*
X4500Y70000D01*
X4000Y70500D02*
Y71000D01*
X4500D01*
X5000Y70500D01*
X5500Y71000D01*
X6000D01*
Y70500D02*
Y71000D01*
X5500Y70000D02*
X6000Y70500D01*
X5500Y70000D02*
X6000Y69500D01*
Y69000D02*
Y69500D01*
X5500Y69000D02*
X6000D01*
X5000Y69500D02*
X5500Y69000D01*
X4500D02*
X5000Y69500D01*
X4000Y69000D02*
X4500D01*
X31500D02*
Y69500D01*
X32000Y70000D01*
X31500Y70500D02*
X32000Y70000D01*
X31500Y70500D02*
Y71000D01*
X32000D01*
X32500Y70500D01*
X33000Y71000D01*
X33500D01*
Y70500D02*
Y71000D01*
X33000Y70000D02*
X33500Y70500D01*
X33000Y70000D02*
X33500Y69500D01*
Y69000D02*
Y69500D01*
X33000Y69000D02*
X33500D01*
X32500Y69500D02*
X33000Y69000D01*
X32000D02*
X32500Y69500D01*
X31500Y69000D02*
X32000D01*
X4000Y19000D02*
Y19500D01*
X4500Y20000D01*
X4000Y20500D02*
X4500Y20000D01*
X4000Y20500D02*
Y21000D01*
X4500D01*
X5000Y20500D01*
X5500Y21000D01*
X6000D01*
Y20500D02*
Y21000D01*
X5500Y20000D02*
X6000Y20500D01*
X5500Y20000D02*
X6000Y19500D01*
Y19000D02*
Y19500D01*
X5500Y19000D02*
X6000D01*
X5000Y19500D02*
X5500Y19000D01*
X4500D02*
X5000Y19500D01*
X4000Y19000D02*
X4500D01*
X19000Y11500D02*
Y12000D01*
X19500Y12500D01*
X19000Y13000D02*
X19500Y12500D01*
X19000Y13000D02*
Y13500D01*
X19500D01*
X20000Y13000D01*
X20500Y13500D01*
X21000D01*
Y13000D02*
Y13500D01*
X20500Y12500D02*
X21000Y13000D01*
X20500Y12500D02*
X21000Y12000D01*
Y11500D02*
Y12000D01*
X20500Y11500D02*
X21000D01*
X20000Y12000D02*
X20500Y11500D01*
X19500D02*
X20000Y12000D01*
X19000Y11500D02*
X19500D01*
X105100Y73300D02*
Y73800D01*
X105600Y74300D01*
X105100Y74800D02*
X105600Y74300D01*
X105100Y74800D02*
Y75300D01*
X105600D01*
X106100Y74800D01*
X106600Y75300D01*
X107100D01*
Y74800D02*
Y75300D01*
X106600Y74300D02*
X107100Y74800D01*
X106600Y74300D02*
X107100Y73800D01*
Y73300D02*
Y73800D01*
X106600Y73300D02*
X107100D01*
X106100Y73800D02*
X106600Y73300D01*
X105600D02*
X106100Y73800D01*
X105100Y73300D02*
X105600D01*
X194000Y19000D02*
Y19500D01*
X194500Y20000D01*
X194000Y20500D02*
X194500Y20000D01*
X194000Y20500D02*
Y21000D01*
X194500D01*
X195000Y20500D01*
X195500Y21000D01*
X196000D01*
Y20500D02*
Y21000D01*
X195500Y20000D02*
X196000Y20500D01*
X195500Y20000D02*
X196000Y19500D01*
Y19000D02*
Y19500D01*
X195500Y19000D02*
X196000D01*
X195000Y19500D02*
X195500Y19000D01*
X194500D02*
X195000Y19500D01*
X194000Y19000D02*
X194500D01*
X100200Y13400D02*
Y13900D01*
X100700Y14400D01*
X100200Y14900D02*
X100700Y14400D01*
X100200Y14900D02*
Y15400D01*
X100700D01*
X101200Y14900D01*
X101700Y15400D01*
X102200D01*
Y14900D02*
Y15400D01*
X101700Y14400D02*
X102200Y14900D01*
X101700Y14400D02*
X102200Y13900D01*
Y13400D02*
Y13900D01*
X101700Y13400D02*
X102200D01*
X101200Y13900D02*
X101700Y13400D01*
X100700D02*
X101200Y13900D01*
X100200Y13400D02*
X100700D01*
X9000Y9000D02*
X10000Y9500D01*
X11000Y9000D01*
X10500Y10000D02*
X11000Y9000D01*
X10500Y10000D02*
X11000Y11000D01*
X10000Y10500D02*
X11000Y11000D01*
X9000D02*
X10000Y10500D01*
X9000Y11000D02*
X9500Y10000D01*
X9000Y9000D02*
X9500Y10000D01*
X189000Y79000D02*
X190000Y79500D01*
X191000Y79000D01*
X190500Y80000D02*
X191000Y79000D01*
X190500Y80000D02*
X191000Y81000D01*
X190000Y80500D02*
X191000Y81000D01*
X189000D02*
X190000Y80500D01*
X189000Y81000D02*
X189500Y80000D01*
X189000Y79000D02*
X189500Y80000D01*
X189000Y9000D02*
X190000Y9500D01*
X191000Y9000D01*
X190500Y10000D02*
X191000Y9000D01*
X190500Y10000D02*
X191000Y11000D01*
X190000Y10500D02*
X191000Y11000D01*
X189000D02*
X190000Y10500D01*
X189000Y11000D02*
X189500Y10000D01*
X189000Y9000D02*
X189500Y10000D01*
X9000Y79000D02*
X10000Y79500D01*
X11000Y79000D01*
X10500Y80000D02*
X11000Y79000D01*
X10500Y80000D02*
X11000Y81000D01*
X10000Y80500D02*
X11000Y81000D01*
X9000D02*
X10000Y80500D01*
X9000Y81000D02*
X9500Y80000D01*
X9000Y79000D02*
X9500Y80000D01*
X21311Y53260D02*
X21811Y52760D01*
X20811Y53260D02*
X21311D01*
X20811D02*
X21311Y53760D01*
X20811Y54260D02*
X21311Y53760D01*
X20811Y54260D02*
X21311D01*
X21811Y54760D01*
X22311Y54260D01*
X22811D01*
X22311Y53760D02*
X22811Y54260D01*
X22311Y53760D02*
X22811Y53260D01*
X22311D02*
X22811D01*
X21811Y52760D02*
X22311Y53260D01*
X21311Y35740D02*
X21811Y35240D01*
X20811Y35740D02*
X21311D01*
X20811D02*
X21311Y36240D01*
X20811Y36740D02*
X21311Y36240D01*
X20811Y36740D02*
X21311D01*
X21811Y37240D01*
X22311Y36740D01*
X22811D01*
X22311Y36240D02*
X22811Y36740D01*
X22311Y36240D02*
X22811Y35740D01*
X22311D02*
X22811D01*
X21811Y35240D02*
X22311Y35740D01*
X10000Y60437D02*
X11000Y62437D01*
X9000D02*
X11000D01*
X9000D02*
X10000Y60437D01*
Y27563D02*
X11000Y29563D01*
X9000D02*
X11000D01*
X9000D02*
X10000Y27563D01*
X120085Y14805D02*
X122085D01*
Y16805D01*
X120085D02*
X122085D01*
X120085Y14805D02*
Y16805D01*
X187585Y53805D02*
X189585D01*
Y55805D01*
X187585D02*
X189585D01*
X187585Y53805D02*
Y55805D01*
D88*
X652796Y299298D02*
Y306496D01*
X656394D01*
X657594Y305296D01*
Y302897D01*
X656394Y301697D01*
X652796D01*
X661193Y304097D02*
X663592D01*
X664792Y302897D01*
Y299298D01*
X661193D01*
X659993Y300498D01*
X661193Y301697D01*
X664792D01*
X671989Y306496D02*
Y299298D01*
X668391D01*
X667191Y300498D01*
Y302897D01*
X668391Y304097D01*
X671989D01*
X686385Y305296D02*
X685185Y306496D01*
X682786D01*
X681586Y305296D01*
Y304097D01*
X682786Y302897D01*
X685185D01*
X686385Y301697D01*
Y300498D01*
X685185Y299298D01*
X682786D01*
X681586Y300498D01*
X688784Y306496D02*
Y299298D01*
Y302897D01*
X689984Y304097D01*
X692383D01*
X693582Y302897D01*
Y299298D01*
X697181Y304097D02*
X699580D01*
X700780Y302897D01*
Y299298D01*
X697181D01*
X695982Y300498D01*
X697181Y301697D01*
X700780D01*
X703179Y296899D02*
Y304097D01*
X706778D01*
X707978Y302897D01*
Y300498D01*
X706778Y299298D01*
X703179D01*
X713976D02*
X711577D01*
X710377Y300498D01*
Y302897D01*
X711577Y304097D01*
X713976D01*
X715175Y302897D01*
Y301697D01*
X710377D01*
X593811Y306496D02*
Y301697D01*
X596210Y299298D01*
X598609Y301697D01*
Y306496D01*
X601009Y299298D02*
X603408D01*
X602208D01*
Y304097D01*
X601009D01*
X608206D02*
X610605D01*
X611805Y302897D01*
Y299298D01*
X608206D01*
X607007Y300498D01*
X608206Y301697D01*
X611805D01*
X614204Y299298D02*
X619003Y304097D01*
X621402Y299298D02*
Y306496D01*
X625001D01*
X626200Y305296D01*
Y302897D01*
X625001Y301697D01*
X621402D01*
X629799Y304097D02*
X632198D01*
X633398Y302897D01*
Y299298D01*
X629799D01*
X628600Y300498D01*
X629799Y301697D01*
X633398D01*
X640596Y306496D02*
Y299298D01*
X636997D01*
X635797Y300498D01*
Y302897D01*
X636997Y304097D01*
X640596D01*
X443856Y306496D02*
Y299298D01*
X447455D01*
X448654Y300498D01*
Y305296D01*
X447455Y306496D01*
X443856D01*
X451053Y304097D02*
Y299298D01*
Y301697D01*
X452253Y302897D01*
X453453Y304097D01*
X454652D01*
X458251Y299298D02*
X460650D01*
X459451D01*
Y304097D01*
X458251D01*
X464249Y299298D02*
X466648D01*
X465449D01*
Y306496D01*
X464249D01*
X470247Y299298D02*
X472646D01*
X471447D01*
Y306496D01*
X470247D01*
X483443D02*
Y299298D01*
X488241D01*
X491840Y304097D02*
X494240D01*
X495439Y302897D01*
Y299298D01*
X491840D01*
X490641Y300498D01*
X491840Y301697D01*
X495439D01*
X497838Y304097D02*
Y300498D01*
X499038Y299298D01*
X502637D01*
Y298099D01*
X501437Y296899D01*
X500238D01*
X502637Y299298D02*
Y304097D01*
X508635Y299298D02*
X506236D01*
X505036Y300498D01*
Y302897D01*
X506236Y304097D01*
X508635D01*
X509834Y302897D01*
Y301697D01*
X505036D01*
X512234Y304097D02*
Y299298D01*
Y301697D01*
X513433Y302897D01*
X514633Y304097D01*
X515833D01*
X526629Y299298D02*
Y306496D01*
X530228D01*
X531427Y305296D01*
Y302897D01*
X530228Y301697D01*
X526629D01*
X535026Y304097D02*
X537426D01*
X538625Y302897D01*
Y299298D01*
X535026D01*
X533827Y300498D01*
X535026Y301697D01*
X538625D01*
X541024Y299298D02*
X543424D01*
X542224D01*
Y304097D01*
X541024D01*
X547022D02*
Y299298D01*
Y301697D01*
X548222Y302897D01*
X549422Y304097D01*
X550621D01*
X370476Y306496D02*
Y299298D01*
Y302897D01*
X375274D01*
Y306496D01*
Y299298D01*
X378873D02*
X381272D01*
X382472Y300498D01*
Y302897D01*
X381272Y304097D01*
X378873D01*
X377673Y302897D01*
Y300498D01*
X378873Y299298D01*
X384871D02*
X387270D01*
X386070D01*
Y306496D01*
X384871D01*
X394468Y299298D02*
X392069D01*
X390869Y300498D01*
Y302897D01*
X392069Y304097D01*
X394468D01*
X395667Y302897D01*
Y301697D01*
X390869D01*
X405264Y306496D02*
X410063D01*
X407663D01*
Y299298D01*
X412462Y304097D02*
Y300498D01*
X413662Y299298D01*
X417260D01*
Y298099D01*
X416061Y296899D01*
X414861D01*
X417260Y299298D02*
Y304097D01*
X419660Y296899D02*
Y304097D01*
X423258D01*
X424458Y302897D01*
Y300498D01*
X423258Y299298D01*
X419660D01*
X430456D02*
X428057D01*
X426857Y300498D01*
Y302897D01*
X428057Y304097D01*
X430456D01*
X431656Y302897D01*
Y301697D01*
X426857D01*
X319888Y299298D02*
Y306496D01*
X323487D01*
X324686Y305296D01*
Y302897D01*
X323487Y301697D01*
X319888D01*
X327086Y299298D02*
X329485D01*
X328285D01*
Y306496D01*
X327086D01*
X334283Y304097D02*
X336683D01*
X337882Y302897D01*
Y299298D01*
X334283D01*
X333084Y300498D01*
X334283Y301697D01*
X337882D01*
X341481Y305296D02*
Y304097D01*
X340281D01*
X342681D01*
X341481D01*
Y300498D01*
X342681Y299298D01*
X349878D02*
X347479D01*
X346279Y300498D01*
Y302897D01*
X347479Y304097D01*
X349878D01*
X351078Y302897D01*
Y301697D01*
X346279D01*
X358276Y306496D02*
Y299298D01*
X354677D01*
X353477Y300498D01*
Y302897D01*
X354677Y304097D01*
X358276D01*
X204922Y306496D02*
Y299298D01*
Y302897D01*
X209720D01*
Y306496D01*
Y299298D01*
X213319D02*
X215718D01*
X216918Y300498D01*
Y302897D01*
X215718Y304097D01*
X213319D01*
X212119Y302897D01*
Y300498D01*
X213319Y299298D01*
X219317D02*
X221716D01*
X220517D01*
Y306496D01*
X219317D01*
X228914Y299298D02*
X226515D01*
X225315Y300498D01*
Y302897D01*
X226515Y304097D01*
X228914D01*
X230114Y302897D01*
Y301697D01*
X225315D01*
X244509Y305296D02*
X243309Y306496D01*
X240910D01*
X239710Y305296D01*
Y304097D01*
X240910Y302897D01*
X243309D01*
X244509Y301697D01*
Y300498D01*
X243309Y299298D01*
X240910D01*
X239710Y300498D01*
X246908Y299298D02*
X249307D01*
X248108D01*
Y304097D01*
X246908D01*
X252906D02*
X257705D01*
X252906Y299298D01*
X257705D01*
X263703D02*
X261303D01*
X260104Y300498D01*
Y302897D01*
X261303Y304097D01*
X263703D01*
X264902Y302897D01*
Y301697D01*
X260104D01*
X150736Y305296D02*
X149536Y306496D01*
X147137D01*
X145937Y305296D01*
Y300498D01*
X147137Y299298D01*
X149536D01*
X150736Y300498D01*
X154334Y299298D02*
X156734D01*
X157933Y300498D01*
Y302897D01*
X156734Y304097D01*
X154334D01*
X153135Y302897D01*
Y300498D01*
X154334Y299298D01*
X160333Y304097D02*
Y300498D01*
X161532Y299298D01*
X165131D01*
Y304097D01*
X167530Y299298D02*
Y304097D01*
X171129D01*
X172329Y302897D01*
Y299298D01*
X175927Y305296D02*
Y304097D01*
X174728D01*
X177127D01*
X175927D01*
Y300498D01*
X177127Y299298D01*
X100148Y305296D02*
X98948Y306496D01*
X96549D01*
X95350Y305296D01*
Y304097D01*
X96549Y302897D01*
X98948D01*
X100148Y301697D01*
Y300498D01*
X98948Y299298D01*
X96549D01*
X95350Y300498D01*
X102547Y304097D02*
Y300498D01*
X103747Y299298D01*
X107346D01*
Y298099D01*
X106146Y296899D01*
X104946D01*
X107346Y299298D02*
Y304097D01*
X109745Y299298D02*
Y304097D01*
X110944D01*
X112144Y302897D01*
Y299298D01*
Y302897D01*
X113344Y304097D01*
X114543Y302897D01*
Y299298D01*
X116943Y306496D02*
Y299298D01*
X120541D01*
X121741Y300498D01*
Y301697D01*
Y302897D01*
X120541Y304097D01*
X116943D01*
X125340Y299298D02*
X127739D01*
X128939Y300498D01*
Y302897D01*
X127739Y304097D01*
X125340D01*
X124140Y302897D01*
Y300498D01*
X125340Y299298D01*
X131338D02*
X133737D01*
X132538D01*
Y306496D01*
X131338D01*
D89*
X198618Y175801D02*
Y169803D01*
Y172802D01*
X202617D01*
Y175801D01*
Y169803D01*
X205616D02*
X207616D01*
X208615Y170803D01*
Y172802D01*
X207616Y173802D01*
X205616D01*
X204617Y172802D01*
Y170803D01*
X205616Y169803D01*
X210615D02*
X212614D01*
X211614D01*
Y175801D01*
X210615D01*
X218612Y169803D02*
X216613D01*
X215613Y170803D01*
Y172802D01*
X216613Y173802D01*
X218612D01*
X219612Y172802D01*
Y171803D01*
X215613D01*
X227609Y175801D02*
Y169803D01*
X231608D01*
X236606D02*
X234607D01*
X233607Y170803D01*
Y172802D01*
X234607Y173802D01*
X236606D01*
X237606Y172802D01*
Y171803D01*
X233607D01*
X239605Y169803D02*
Y173802D01*
X242604D01*
X243604Y172802D01*
Y169803D01*
X247603Y167804D02*
X248602D01*
X249602Y168804D01*
Y173802D01*
X246603D01*
X245603Y172802D01*
Y170803D01*
X246603Y169803D01*
X249602D01*
X252601Y174802D02*
Y173802D01*
X251601D01*
X253601D01*
X252601D01*
Y170803D01*
X253601Y169803D01*
X256600Y175801D02*
Y169803D01*
Y172802D01*
X257599Y173802D01*
X259599D01*
X260598Y172802D01*
Y169803D01*
X198618Y179801D02*
Y185799D01*
X201618D01*
X202617Y184799D01*
Y182800D01*
X201618Y181800D01*
X198618D01*
X200618D02*
X202617Y179801D01*
X205616D02*
X207616D01*
X208615Y180800D01*
Y182800D01*
X207616Y183800D01*
X205616D01*
X204617Y182800D01*
Y180800D01*
X205616Y179801D01*
X210615Y183800D02*
Y180800D01*
X211614Y179801D01*
X214613D01*
Y183800D01*
X217612Y184799D02*
Y183800D01*
X216613D01*
X218612D01*
X217612D01*
Y180800D01*
X218612Y179801D01*
X224610D02*
X222611D01*
X221611Y180800D01*
Y182800D01*
X222611Y183800D01*
X224610D01*
X225610Y182800D01*
Y181800D01*
X221611D01*
X231608Y185799D02*
Y179801D01*
X228609D01*
X227609Y180800D01*
Y182800D01*
X228609Y183800D01*
X231608D01*
X239605Y179801D02*
Y185799D01*
X242604D01*
X243604Y184799D01*
Y182800D01*
X242604Y181800D01*
X239605D01*
X246603Y183800D02*
X248602D01*
X249602Y182800D01*
Y179801D01*
X246603D01*
X245603Y180800D01*
X246603Y181800D01*
X249602D01*
X252601Y184799D02*
Y183800D01*
X251601D01*
X253601D01*
X252601D01*
Y180800D01*
X253601Y179801D01*
X256600Y185799D02*
Y179801D01*
Y182800D01*
X257599Y183800D01*
X259599D01*
X260598Y182800D01*
Y179801D01*
X268596Y185799D02*
Y179801D01*
X272595D01*
X277593D02*
X275594D01*
X274594Y180800D01*
Y182800D01*
X275594Y183800D01*
X277593D01*
X278593Y182800D01*
Y181800D01*
X274594D01*
X280592Y179801D02*
Y183800D01*
X283591D01*
X284591Y182800D01*
Y179801D01*
X288589Y177801D02*
X289589D01*
X290589Y178801D01*
Y183800D01*
X287590D01*
X286590Y182800D01*
Y180800D01*
X287590Y179801D01*
X290589D01*
X293588Y184799D02*
Y183800D01*
X292588D01*
X294587D01*
X293588D01*
Y180800D01*
X294587Y179801D01*
X297586Y185799D02*
Y179801D01*
Y182800D01*
X298586Y183800D01*
X300586D01*
X301585Y182800D01*
Y179801D01*
X99348Y184799D02*
X98349Y185799D01*
X96349D01*
X95350Y184799D01*
Y183800D01*
X96349Y182800D01*
X98349D01*
X99348Y181800D01*
Y180800D01*
X98349Y179801D01*
X96349D01*
X95350Y180800D01*
X101348Y179801D02*
X103347D01*
X102347D01*
Y185799D01*
X101348D01*
X107346Y179801D02*
X109345D01*
X110345Y180800D01*
Y182800D01*
X109345Y183800D01*
X107346D01*
X106346Y182800D01*
Y180800D01*
X107346Y179801D01*
X113344Y184799D02*
Y183800D01*
X112344D01*
X114343D01*
X113344D01*
Y180800D01*
X114343Y179801D01*
X127339Y185799D02*
Y179801D01*
X124340D01*
X123340Y180800D01*
Y182800D01*
X124340Y183800D01*
X127339D01*
X132338Y179801D02*
X130338D01*
X129339Y180800D01*
Y182800D01*
X130338Y183800D01*
X132338D01*
X133337Y182800D01*
Y181800D01*
X129339D01*
X136336Y179801D02*
Y184799D01*
Y182800D01*
X135337D01*
X137336D01*
X136336D01*
Y184799D01*
X137336Y185799D01*
X140335Y179801D02*
X142334D01*
X141335D01*
Y183800D01*
X140335D01*
X145333Y179801D02*
Y183800D01*
X148332D01*
X149332Y182800D01*
Y179801D01*
X151331D02*
X153331D01*
X152331D01*
Y183800D01*
X151331D01*
X157329Y184799D02*
Y183800D01*
X156330D01*
X158329D01*
X157329D01*
Y180800D01*
X158329Y179801D01*
X161328D02*
X163328D01*
X162328D01*
Y183800D01*
X161328D01*
X167326Y179801D02*
X169326D01*
X170325Y180800D01*
Y182800D01*
X169326Y183800D01*
X167326D01*
X166327Y182800D01*
Y180800D01*
X167326Y179801D01*
X172325D02*
Y183800D01*
X175324D01*
X176323Y182800D01*
Y179801D01*
X178323D02*
X181322D01*
X182321Y180800D01*
X181322Y181800D01*
X179322D01*
X178323Y182800D01*
X179322Y183800D01*
X182321D01*
X190319D02*
X191319D01*
Y182800D01*
X190319D01*
Y183800D01*
Y180800D02*
X191319D01*
Y179801D01*
X190319D01*
Y180800D01*
M02*
