G04*
G04 #@! TF.GenerationSoftware,Altium Limited,Altium Designer,20.1.11 (218)*
G04*
G04 Layer_Color=16776960*
%FSLAX25Y25*%
%MOIN*%
G70*
G04*
G04 #@! TF.SameCoordinates,8FD927A0-C605-41AB-96FE-A5BD1A317AAA*
G04*
G04*
G04 #@! TF.FilePolarity,Positive*
G04*
G01*
G75*
%ADD11C,0.01000*%
%ADD12C,0.00472*%
%ADD14C,0.00500*%
%ADD15C,0.00787*%
%ADD16C,0.00394*%
%ADD84C,0.01181*%
%ADD85C,0.00100*%
G36*
X84583Y52838D02*
X86083Y56838D01*
X83083D01*
X84583Y52838D01*
D02*
G37*
G36*
X71367Y27862D02*
X69868D01*
X69871Y27860D01*
X69882Y27846D01*
X69899Y27829D01*
X69918Y27801D01*
X69943Y27771D01*
X69971Y27732D01*
X70001Y27688D01*
X70032Y27638D01*
Y27635D01*
X70034Y27632D01*
X70046Y27616D01*
X70059Y27588D01*
X70076Y27555D01*
X70095Y27516D01*
X70115Y27474D01*
X70134Y27433D01*
X70151Y27391D01*
X69924D01*
Y27394D01*
X69918Y27400D01*
X69915Y27411D01*
X69907Y27425D01*
X69899Y27441D01*
X69888Y27461D01*
X69860Y27508D01*
X69829Y27563D01*
X69791Y27619D01*
X69746Y27677D01*
X69699Y27735D01*
X69696Y27738D01*
X69694Y27740D01*
X69685Y27749D01*
X69677Y27760D01*
X69649Y27785D01*
X69616Y27818D01*
X69577Y27851D01*
X69533Y27887D01*
X69489Y27918D01*
X69442Y27945D01*
Y28098D01*
X71367D01*
Y27862D01*
D02*
G37*
G36*
X70774Y26992D02*
X70791Y26987D01*
X70813Y26979D01*
X70838Y26970D01*
X70868Y26959D01*
X70901Y26945D01*
X70937Y26929D01*
X71015Y26890D01*
X71092Y26840D01*
X71131Y26810D01*
X71170Y26779D01*
X71203Y26746D01*
X71237Y26707D01*
X71239Y26704D01*
X71245Y26699D01*
X71250Y26685D01*
X71262Y26671D01*
X71275Y26649D01*
X71289Y26627D01*
X71303Y26596D01*
X71317Y26566D01*
X71333Y26530D01*
X71347Y26491D01*
X71361Y26449D01*
X71375Y26405D01*
X71386Y26358D01*
X71392Y26308D01*
X71397Y26256D01*
X71400Y26200D01*
Y26170D01*
X71397Y26148D01*
Y26123D01*
X71394Y26092D01*
X71389Y26059D01*
X71383Y26020D01*
X71369Y25940D01*
X71347Y25857D01*
X71317Y25774D01*
X71298Y25735D01*
X71275Y25696D01*
X71273Y25693D01*
X71270Y25688D01*
X71262Y25677D01*
X71250Y25666D01*
X71239Y25649D01*
X71223Y25630D01*
X71203Y25607D01*
X71181Y25585D01*
X71156Y25563D01*
X71131Y25538D01*
X71068Y25488D01*
X70993Y25441D01*
X70910Y25400D01*
X70907D01*
X70899Y25394D01*
X70885Y25391D01*
X70868Y25383D01*
X70846Y25378D01*
X70818Y25369D01*
X70788Y25358D01*
X70755Y25350D01*
X70719Y25342D01*
X70677Y25330D01*
X70591Y25317D01*
X70494Y25306D01*
X70394Y25300D01*
X70392D01*
X70381D01*
X70364D01*
X70345Y25303D01*
X70317D01*
X70289Y25306D01*
X70253Y25308D01*
X70217Y25314D01*
X70137Y25328D01*
X70048Y25347D01*
X69960Y25375D01*
X69874Y25414D01*
X69871Y25416D01*
X69863Y25419D01*
X69852Y25425D01*
X69838Y25436D01*
X69818Y25447D01*
X69796Y25461D01*
X69746Y25497D01*
X69691Y25544D01*
X69635Y25599D01*
X69580Y25663D01*
X69533Y25738D01*
X69530Y25740D01*
X69528Y25749D01*
X69522Y25760D01*
X69514Y25774D01*
X69505Y25796D01*
X69497Y25818D01*
X69486Y25846D01*
X69475Y25876D01*
X69464Y25909D01*
X69453Y25945D01*
X69436Y26023D01*
X69422Y26112D01*
X69417Y26203D01*
Y26231D01*
X69419Y26250D01*
X69422Y26275D01*
X69425Y26305D01*
X69428Y26336D01*
X69436Y26372D01*
X69453Y26447D01*
X69478Y26530D01*
X69494Y26571D01*
X69514Y26610D01*
X69539Y26649D01*
X69564Y26688D01*
X69566Y26691D01*
X69569Y26696D01*
X69577Y26707D01*
X69591Y26721D01*
X69605Y26735D01*
X69624Y26754D01*
X69647Y26774D01*
X69669Y26796D01*
X69696Y26818D01*
X69730Y26840D01*
X69763Y26865D01*
X69799Y26887D01*
X69841Y26907D01*
X69882Y26929D01*
X69926Y26945D01*
X69976Y26962D01*
X70034Y26713D01*
X70032D01*
X70026Y26710D01*
X70015Y26704D01*
X70001Y26699D01*
X69985Y26693D01*
X69962Y26685D01*
X69918Y26663D01*
X69868Y26635D01*
X69818Y26602D01*
X69771Y26560D01*
X69730Y26516D01*
X69724Y26511D01*
X69713Y26494D01*
X69699Y26466D01*
X69680Y26430D01*
X69663Y26383D01*
X69647Y26330D01*
X69635Y26267D01*
X69633Y26197D01*
Y26175D01*
X69635Y26162D01*
Y26142D01*
X69638Y26120D01*
X69647Y26067D01*
X69658Y26009D01*
X69677Y25948D01*
X69705Y25885D01*
X69741Y25826D01*
Y25824D01*
X69746Y25821D01*
X69760Y25801D01*
X69782Y25776D01*
X69816Y25746D01*
X69857Y25710D01*
X69904Y25677D01*
X69962Y25646D01*
X70026Y25618D01*
X70029D01*
X70034Y25616D01*
X70043Y25613D01*
X70057Y25610D01*
X70073Y25605D01*
X70093Y25599D01*
X70140Y25591D01*
X70195Y25580D01*
X70256Y25569D01*
X70323Y25563D01*
X70394Y25560D01*
X70397D01*
X70406D01*
X70419D01*
X70436D01*
X70455Y25563D01*
X70480D01*
X70508Y25566D01*
X70539Y25569D01*
X70605Y25577D01*
X70677Y25591D01*
X70749Y25607D01*
X70821Y25630D01*
X70824D01*
X70829Y25632D01*
X70838Y25638D01*
X70851Y25644D01*
X70885Y25660D01*
X70924Y25685D01*
X70968Y25716D01*
X71015Y25754D01*
X71056Y25799D01*
X71095Y25851D01*
Y25854D01*
X71098Y25859D01*
X71104Y25868D01*
X71109Y25879D01*
X71115Y25893D01*
X71123Y25909D01*
X71140Y25948D01*
X71156Y25998D01*
X71170Y26053D01*
X71181Y26114D01*
X71184Y26178D01*
Y26197D01*
X71181Y26214D01*
Y26234D01*
X71178Y26253D01*
X71167Y26303D01*
X71153Y26361D01*
X71131Y26419D01*
X71101Y26480D01*
X71084Y26511D01*
X71062Y26538D01*
X71059Y26541D01*
X71056Y26544D01*
X71048Y26552D01*
X71040Y26563D01*
X71026Y26574D01*
X71009Y26588D01*
X70993Y26605D01*
X70971Y26618D01*
X70946Y26635D01*
X70918Y26654D01*
X70890Y26671D01*
X70857Y26688D01*
X70821Y26702D01*
X70782Y26715D01*
X70741Y26729D01*
X70696Y26740D01*
X70760Y26995D01*
X70763D01*
X70774Y26992D01*
D02*
G37*
G36*
X59950Y13881D02*
X59975Y13878D01*
X60006Y13875D01*
X60036Y13872D01*
X60072Y13864D01*
X60147Y13847D01*
X60230Y13822D01*
X60272Y13806D01*
X60310Y13786D01*
X60349Y13761D01*
X60388Y13736D01*
X60391Y13734D01*
X60396Y13731D01*
X60407Y13723D01*
X60421Y13709D01*
X60435Y13695D01*
X60454Y13676D01*
X60474Y13653D01*
X60496Y13631D01*
X60518Y13604D01*
X60540Y13570D01*
X60565Y13537D01*
X60587Y13501D01*
X60607Y13460D01*
X60629Y13418D01*
X60646Y13374D01*
X60662Y13324D01*
X60413Y13266D01*
Y13268D01*
X60410Y13274D01*
X60404Y13285D01*
X60399Y13299D01*
X60393Y13316D01*
X60385Y13338D01*
X60363Y13382D01*
X60335Y13432D01*
X60302Y13482D01*
X60260Y13529D01*
X60216Y13570D01*
X60211Y13576D01*
X60194Y13587D01*
X60166Y13601D01*
X60130Y13620D01*
X60083Y13637D01*
X60031Y13653D01*
X59967Y13665D01*
X59898Y13667D01*
X59875D01*
X59861Y13665D01*
X59842D01*
X59820Y13662D01*
X59767Y13653D01*
X59709Y13642D01*
X59648Y13623D01*
X59585Y13595D01*
X59526Y13559D01*
X59524D01*
X59521Y13554D01*
X59501Y13540D01*
X59477Y13518D01*
X59446Y13484D01*
X59410Y13443D01*
X59377Y13396D01*
X59346Y13338D01*
X59319Y13274D01*
Y13271D01*
X59316Y13266D01*
X59313Y13257D01*
X59310Y13243D01*
X59305Y13227D01*
X59299Y13207D01*
X59291Y13160D01*
X59280Y13105D01*
X59269Y13044D01*
X59263Y12978D01*
X59260Y12905D01*
Y12903D01*
Y12894D01*
Y12881D01*
Y12864D01*
X59263Y12845D01*
Y12820D01*
X59266Y12792D01*
X59269Y12762D01*
X59277Y12695D01*
X59291Y12623D01*
X59308Y12551D01*
X59330Y12479D01*
Y12476D01*
X59333Y12471D01*
X59338Y12462D01*
X59344Y12449D01*
X59360Y12415D01*
X59385Y12376D01*
X59416Y12332D01*
X59454Y12285D01*
X59499Y12244D01*
X59551Y12205D01*
X59554D01*
X59560Y12202D01*
X59568Y12196D01*
X59579Y12191D01*
X59593Y12185D01*
X59610Y12177D01*
X59648Y12160D01*
X59698Y12144D01*
X59754Y12130D01*
X59815Y12119D01*
X59878Y12116D01*
X59898D01*
X59914Y12119D01*
X59934D01*
X59953Y12122D01*
X60003Y12133D01*
X60061Y12146D01*
X60119Y12169D01*
X60180Y12199D01*
X60211Y12216D01*
X60238Y12238D01*
X60241Y12241D01*
X60244Y12244D01*
X60252Y12252D01*
X60263Y12260D01*
X60274Y12274D01*
X60288Y12291D01*
X60305Y12307D01*
X60319Y12329D01*
X60335Y12354D01*
X60355Y12382D01*
X60371Y12410D01*
X60388Y12443D01*
X60402Y12479D01*
X60416Y12518D01*
X60429Y12559D01*
X60440Y12604D01*
X60695Y12540D01*
Y12537D01*
X60693Y12526D01*
X60687Y12509D01*
X60679Y12487D01*
X60670Y12462D01*
X60659Y12432D01*
X60646Y12399D01*
X60629Y12363D01*
X60590Y12285D01*
X60540Y12207D01*
X60510Y12169D01*
X60479Y12130D01*
X60446Y12097D01*
X60407Y12063D01*
X60404Y12061D01*
X60399Y12055D01*
X60385Y12050D01*
X60371Y12038D01*
X60349Y12025D01*
X60327Y12011D01*
X60296Y11997D01*
X60266Y11983D01*
X60230Y11966D01*
X60191Y11953D01*
X60150Y11939D01*
X60105Y11925D01*
X60058Y11914D01*
X60008Y11908D01*
X59956Y11903D01*
X59900Y11900D01*
X59870D01*
X59848Y11903D01*
X59823D01*
X59792Y11906D01*
X59759Y11911D01*
X59720Y11917D01*
X59640Y11930D01*
X59557Y11953D01*
X59474Y11983D01*
X59435Y12003D01*
X59396Y12025D01*
X59393Y12027D01*
X59388Y12030D01*
X59377Y12038D01*
X59366Y12050D01*
X59349Y12061D01*
X59330Y12077D01*
X59308Y12097D01*
X59285Y12119D01*
X59263Y12144D01*
X59238Y12169D01*
X59188Y12232D01*
X59141Y12307D01*
X59100Y12390D01*
Y12393D01*
X59094Y12401D01*
X59092Y12415D01*
X59083Y12432D01*
X59078Y12454D01*
X59069Y12482D01*
X59058Y12512D01*
X59050Y12545D01*
X59042Y12581D01*
X59031Y12623D01*
X59017Y12709D01*
X59006Y12806D01*
X59000Y12905D01*
Y12908D01*
Y12919D01*
Y12936D01*
X59003Y12955D01*
Y12983D01*
X59006Y13011D01*
X59008Y13047D01*
X59014Y13083D01*
X59028Y13163D01*
X59047Y13252D01*
X59075Y13340D01*
X59114Y13426D01*
X59116Y13429D01*
X59119Y13437D01*
X59125Y13448D01*
X59136Y13462D01*
X59147Y13482D01*
X59161Y13504D01*
X59197Y13554D01*
X59244Y13609D01*
X59299Y13665D01*
X59363Y13720D01*
X59438Y13767D01*
X59440Y13770D01*
X59449Y13772D01*
X59460Y13778D01*
X59474Y13786D01*
X59496Y13795D01*
X59518Y13803D01*
X59546Y13814D01*
X59576Y13825D01*
X59610Y13836D01*
X59645Y13847D01*
X59723Y13864D01*
X59812Y13878D01*
X59903Y13883D01*
X59931D01*
X59950Y13881D01*
D02*
G37*
G36*
X61593Y13856D02*
X61615Y13853D01*
X61643Y13850D01*
X61673Y13845D01*
X61704Y13839D01*
X61776Y13820D01*
X61848Y13792D01*
X61884Y13775D01*
X61920Y13756D01*
X61953Y13731D01*
X61983Y13703D01*
X61986Y13701D01*
X61992Y13698D01*
X61997Y13687D01*
X62008Y13676D01*
X62022Y13662D01*
X62036Y13642D01*
X62050Y13623D01*
X62067Y13598D01*
X62094Y13545D01*
X62122Y13479D01*
X62133Y13446D01*
X62138Y13407D01*
X62144Y13368D01*
X62147Y13327D01*
Y13321D01*
Y13307D01*
X62144Y13285D01*
X62141Y13254D01*
X62136Y13221D01*
X62125Y13183D01*
X62114Y13141D01*
X62097Y13099D01*
X62094Y13094D01*
X62089Y13080D01*
X62077Y13058D01*
X62061Y13027D01*
X62039Y12994D01*
X62011Y12953D01*
X61978Y12911D01*
X61939Y12864D01*
X61933Y12858D01*
X61920Y12842D01*
X61906Y12828D01*
X61892Y12814D01*
X61875Y12798D01*
X61853Y12775D01*
X61831Y12753D01*
X61803Y12728D01*
X61776Y12700D01*
X61742Y12670D01*
X61706Y12640D01*
X61668Y12604D01*
X61623Y12568D01*
X61579Y12529D01*
X61576Y12526D01*
X61571Y12520D01*
X61560Y12512D01*
X61546Y12501D01*
X61529Y12484D01*
X61510Y12468D01*
X61465Y12432D01*
X61418Y12390D01*
X61374Y12349D01*
X61335Y12313D01*
X61319Y12299D01*
X61305Y12285D01*
X61302Y12282D01*
X61294Y12274D01*
X61283Y12263D01*
X61269Y12246D01*
X61255Y12227D01*
X61238Y12207D01*
X61205Y12160D01*
X62150D01*
Y11933D01*
X60878D01*
Y11936D01*
Y11947D01*
Y11964D01*
X60881Y11986D01*
X60884Y12011D01*
X60889Y12038D01*
X60895Y12066D01*
X60906Y12097D01*
Y12099D01*
X60909Y12102D01*
X60914Y12119D01*
X60925Y12144D01*
X60942Y12177D01*
X60964Y12216D01*
X60992Y12260D01*
X61022Y12304D01*
X61061Y12352D01*
Y12354D01*
X61067Y12357D01*
X61080Y12374D01*
X61105Y12399D01*
X61141Y12435D01*
X61183Y12476D01*
X61235Y12526D01*
X61299Y12581D01*
X61368Y12640D01*
X61371Y12642D01*
X61382Y12651D01*
X61399Y12664D01*
X61418Y12681D01*
X61443Y12703D01*
X61474Y12728D01*
X61504Y12756D01*
X61540Y12786D01*
X61609Y12853D01*
X61679Y12919D01*
X61712Y12953D01*
X61742Y12986D01*
X61770Y13016D01*
X61792Y13047D01*
Y13049D01*
X61798Y13052D01*
X61803Y13061D01*
X61809Y13072D01*
X61828Y13102D01*
X61850Y13138D01*
X61870Y13183D01*
X61889Y13230D01*
X61900Y13282D01*
X61906Y13332D01*
Y13335D01*
Y13338D01*
X61903Y13354D01*
X61900Y13382D01*
X61892Y13412D01*
X61881Y13451D01*
X61861Y13490D01*
X61837Y13529D01*
X61803Y13567D01*
X61798Y13573D01*
X61784Y13584D01*
X61765Y13598D01*
X61734Y13617D01*
X61695Y13634D01*
X61651Y13651D01*
X61598Y13662D01*
X61540Y13665D01*
X61524D01*
X61513Y13662D01*
X61479Y13659D01*
X61440Y13651D01*
X61399Y13640D01*
X61352Y13620D01*
X61308Y13595D01*
X61266Y13562D01*
X61260Y13556D01*
X61249Y13543D01*
X61233Y13520D01*
X61216Y13487D01*
X61197Y13448D01*
X61180Y13399D01*
X61169Y13343D01*
X61164Y13280D01*
X60922Y13304D01*
Y13307D01*
X60925Y13316D01*
Y13329D01*
X60928Y13349D01*
X60934Y13371D01*
X60939Y13396D01*
X60947Y13426D01*
X60956Y13457D01*
X60978Y13523D01*
X61011Y13590D01*
X61031Y13623D01*
X61055Y13656D01*
X61080Y13687D01*
X61108Y13714D01*
X61111Y13717D01*
X61116Y13720D01*
X61125Y13728D01*
X61138Y13736D01*
X61155Y13748D01*
X61174Y13759D01*
X61197Y13772D01*
X61224Y13786D01*
X61255Y13800D01*
X61288Y13814D01*
X61324Y13825D01*
X61363Y13836D01*
X61404Y13845D01*
X61449Y13853D01*
X61496Y13856D01*
X61546Y13858D01*
X61573D01*
X61593Y13856D01*
D02*
G37*
G36*
X55243Y46866D02*
X55265Y46863D01*
X55290Y46858D01*
X55318Y46852D01*
X55348Y46847D01*
X55415Y46825D01*
X55451Y46808D01*
X55484Y46791D01*
X55520Y46769D01*
X55556Y46744D01*
X55592Y46716D01*
X55625Y46683D01*
X55628Y46681D01*
X55634Y46675D01*
X55642Y46664D01*
X55653Y46650D01*
X55667Y46633D01*
X55681Y46611D01*
X55698Y46586D01*
X55711Y46556D01*
X55728Y46525D01*
X55745Y46489D01*
X55759Y46453D01*
X55772Y46412D01*
X55783Y46367D01*
X55792Y46320D01*
X55797Y46273D01*
X55800Y46221D01*
Y46196D01*
X55797Y46179D01*
X55795Y46157D01*
X55792Y46132D01*
X55786Y46104D01*
X55781Y46074D01*
X55764Y46007D01*
X55736Y45938D01*
X55720Y45902D01*
X55700Y45869D01*
X55675Y45836D01*
X55650Y45802D01*
X55648Y45800D01*
X55642Y45794D01*
X55634Y45786D01*
X55623Y45777D01*
X55609Y45764D01*
X55589Y45750D01*
X55570Y45733D01*
X55545Y45717D01*
X55518Y45700D01*
X55490Y45683D01*
X55423Y45653D01*
X55346Y45628D01*
X55304Y45620D01*
X55260Y45614D01*
X55229Y45849D01*
X55232D01*
X55238Y45852D01*
X55249Y45855D01*
X55263Y45858D01*
X55279Y45861D01*
X55299Y45866D01*
X55340Y45880D01*
X55390Y45899D01*
X55437Y45924D01*
X55481Y45952D01*
X55520Y45985D01*
X55523Y45991D01*
X55534Y46002D01*
X55548Y46024D01*
X55562Y46052D01*
X55578Y46085D01*
X55592Y46126D01*
X55603Y46174D01*
X55606Y46224D01*
Y46240D01*
X55603Y46251D01*
X55601Y46282D01*
X55592Y46320D01*
X55578Y46365D01*
X55559Y46412D01*
X55531Y46459D01*
X55493Y46503D01*
X55487Y46509D01*
X55470Y46523D01*
X55445Y46539D01*
X55412Y46561D01*
X55371Y46584D01*
X55324Y46600D01*
X55268Y46614D01*
X55207Y46620D01*
X55204D01*
X55199D01*
X55191D01*
X55180Y46617D01*
X55149Y46614D01*
X55113Y46606D01*
X55069Y46595D01*
X55024Y46575D01*
X54980Y46548D01*
X54939Y46512D01*
X54933Y46506D01*
X54922Y46492D01*
X54905Y46470D01*
X54886Y46439D01*
X54866Y46401D01*
X54850Y46354D01*
X54839Y46301D01*
X54833Y46243D01*
Y46218D01*
X54836Y46198D01*
X54839Y46174D01*
X54844Y46146D01*
X54850Y46113D01*
X54858Y46077D01*
X54650Y46104D01*
Y46118D01*
X54653Y46129D01*
Y46165D01*
X54648Y46196D01*
X54642Y46232D01*
X54634Y46273D01*
X54620Y46320D01*
X54601Y46365D01*
X54576Y46412D01*
Y46415D01*
X54573Y46417D01*
X54562Y46431D01*
X54542Y46451D01*
X54518Y46473D01*
X54482Y46495D01*
X54440Y46514D01*
X54393Y46528D01*
X54365Y46534D01*
X54335D01*
X54332D01*
X54329D01*
X54312D01*
X54290Y46528D01*
X54260Y46523D01*
X54227Y46512D01*
X54191Y46498D01*
X54155Y46475D01*
X54121Y46445D01*
X54119Y46442D01*
X54107Y46428D01*
X54094Y46409D01*
X54077Y46384D01*
X54063Y46351D01*
X54049Y46312D01*
X54038Y46268D01*
X54036Y46218D01*
Y46196D01*
X54041Y46171D01*
X54047Y46138D01*
X54058Y46102D01*
X54071Y46066D01*
X54094Y46027D01*
X54121Y45991D01*
X54124Y45988D01*
X54138Y45977D01*
X54157Y45960D01*
X54185Y45941D01*
X54221Y45921D01*
X54265Y45902D01*
X54318Y45886D01*
X54379Y45875D01*
X54337Y45639D01*
X54335D01*
X54326Y45642D01*
X54315Y45645D01*
X54299Y45647D01*
X54279Y45653D01*
X54257Y45661D01*
X54204Y45678D01*
X54144Y45706D01*
X54083Y45739D01*
X54024Y45780D01*
X53972Y45833D01*
X53969Y45836D01*
X53966Y45841D01*
X53961Y45849D01*
X53952Y45861D01*
X53941Y45875D01*
X53930Y45894D01*
X53919Y45913D01*
X53905Y45938D01*
X53883Y45994D01*
X53861Y46057D01*
X53847Y46132D01*
X53842Y46171D01*
Y46240D01*
X53844Y46271D01*
X53850Y46307D01*
X53858Y46351D01*
X53872Y46401D01*
X53889Y46451D01*
X53911Y46501D01*
Y46503D01*
X53914Y46506D01*
X53922Y46523D01*
X53939Y46548D01*
X53958Y46575D01*
X53986Y46608D01*
X54016Y46642D01*
X54052Y46675D01*
X54094Y46703D01*
X54099Y46705D01*
X54113Y46714D01*
X54138Y46725D01*
X54168Y46739D01*
X54204Y46753D01*
X54246Y46764D01*
X54293Y46772D01*
X54340Y46775D01*
X54346D01*
X54362D01*
X54384Y46772D01*
X54415Y46766D01*
X54451Y46758D01*
X54490Y46744D01*
X54529Y46728D01*
X54567Y46705D01*
X54573Y46703D01*
X54584Y46694D01*
X54603Y46678D01*
X54625Y46656D01*
X54650Y46628D01*
X54678Y46595D01*
X54703Y46556D01*
X54728Y46509D01*
Y46512D01*
X54731Y46517D01*
X54734Y46525D01*
X54736Y46536D01*
X54747Y46567D01*
X54764Y46606D01*
X54786Y46650D01*
X54814Y46694D01*
X54850Y46736D01*
X54891Y46775D01*
X54897Y46777D01*
X54914Y46788D01*
X54941Y46805D01*
X54977Y46822D01*
X55022Y46838D01*
X55074Y46855D01*
X55135Y46866D01*
X55202Y46869D01*
X55204D01*
X55213D01*
X55227D01*
X55243Y46866D01*
D02*
G37*
G36*
X55174Y45393D02*
X55191Y45387D01*
X55213Y45379D01*
X55238Y45370D01*
X55268Y45359D01*
X55301Y45345D01*
X55337Y45329D01*
X55415Y45290D01*
X55493Y45240D01*
X55531Y45210D01*
X55570Y45179D01*
X55603Y45146D01*
X55637Y45107D01*
X55639Y45104D01*
X55645Y45099D01*
X55650Y45085D01*
X55661Y45071D01*
X55675Y45049D01*
X55689Y45027D01*
X55703Y44996D01*
X55717Y44966D01*
X55734Y44930D01*
X55747Y44891D01*
X55761Y44850D01*
X55775Y44805D01*
X55786Y44758D01*
X55792Y44708D01*
X55797Y44656D01*
X55800Y44600D01*
Y44570D01*
X55797Y44548D01*
Y44523D01*
X55795Y44492D01*
X55789Y44459D01*
X55783Y44420D01*
X55769Y44340D01*
X55747Y44257D01*
X55717Y44174D01*
X55698Y44135D01*
X55675Y44096D01*
X55673Y44093D01*
X55670Y44088D01*
X55661Y44077D01*
X55650Y44066D01*
X55639Y44049D01*
X55623Y44030D01*
X55603Y44008D01*
X55581Y43985D01*
X55556Y43963D01*
X55531Y43938D01*
X55468Y43888D01*
X55393Y43841D01*
X55310Y43800D01*
X55307D01*
X55299Y43794D01*
X55285Y43791D01*
X55268Y43783D01*
X55246Y43778D01*
X55218Y43769D01*
X55188Y43758D01*
X55155Y43750D01*
X55119Y43742D01*
X55077Y43731D01*
X54991Y43717D01*
X54894Y43705D01*
X54795Y43700D01*
X54792D01*
X54781D01*
X54764D01*
X54745Y43703D01*
X54717D01*
X54689Y43705D01*
X54653Y43708D01*
X54617Y43714D01*
X54537Y43728D01*
X54448Y43747D01*
X54360Y43775D01*
X54274Y43814D01*
X54271Y43816D01*
X54263Y43819D01*
X54252Y43825D01*
X54238Y43836D01*
X54218Y43847D01*
X54196Y43861D01*
X54146Y43897D01*
X54091Y43944D01*
X54036Y43999D01*
X53980Y44063D01*
X53933Y44138D01*
X53930Y44140D01*
X53927Y44149D01*
X53922Y44160D01*
X53914Y44174D01*
X53905Y44196D01*
X53897Y44218D01*
X53886Y44246D01*
X53875Y44276D01*
X53864Y44309D01*
X53853Y44345D01*
X53836Y44423D01*
X53822Y44512D01*
X53817Y44603D01*
Y44631D01*
X53819Y44650D01*
X53822Y44675D01*
X53825Y44706D01*
X53828Y44736D01*
X53836Y44772D01*
X53853Y44847D01*
X53878Y44930D01*
X53894Y44971D01*
X53914Y45010D01*
X53939Y45049D01*
X53964Y45088D01*
X53966Y45090D01*
X53969Y45096D01*
X53977Y45107D01*
X53991Y45121D01*
X54005Y45135D01*
X54024Y45154D01*
X54047Y45174D01*
X54069Y45196D01*
X54097Y45218D01*
X54130Y45240D01*
X54163Y45265D01*
X54199Y45287D01*
X54241Y45307D01*
X54282Y45329D01*
X54326Y45345D01*
X54376Y45362D01*
X54434Y45113D01*
X54432D01*
X54426Y45110D01*
X54415Y45104D01*
X54401Y45099D01*
X54384Y45093D01*
X54362Y45085D01*
X54318Y45063D01*
X54268Y45035D01*
X54218Y45002D01*
X54171Y44960D01*
X54130Y44916D01*
X54124Y44910D01*
X54113Y44894D01*
X54099Y44866D01*
X54080Y44830D01*
X54063Y44783D01*
X54047Y44730D01*
X54036Y44667D01*
X54033Y44598D01*
Y44575D01*
X54036Y44561D01*
Y44542D01*
X54038Y44520D01*
X54047Y44467D01*
X54058Y44409D01*
X54077Y44348D01*
X54105Y44284D01*
X54141Y44226D01*
Y44223D01*
X54146Y44221D01*
X54160Y44201D01*
X54182Y44176D01*
X54216Y44146D01*
X54257Y44110D01*
X54304Y44077D01*
X54362Y44046D01*
X54426Y44019D01*
X54429D01*
X54434Y44016D01*
X54443Y44013D01*
X54457Y44010D01*
X54473Y44005D01*
X54493Y43999D01*
X54540Y43991D01*
X54595Y43980D01*
X54656Y43969D01*
X54722Y43963D01*
X54795Y43960D01*
X54797D01*
X54806D01*
X54819D01*
X54836D01*
X54855Y43963D01*
X54880D01*
X54908Y43966D01*
X54939Y43969D01*
X55005Y43977D01*
X55077Y43991D01*
X55149Y44008D01*
X55221Y44030D01*
X55224D01*
X55229Y44032D01*
X55238Y44038D01*
X55251Y44043D01*
X55285Y44060D01*
X55324Y44085D01*
X55368Y44115D01*
X55415Y44154D01*
X55457Y44199D01*
X55495Y44251D01*
Y44254D01*
X55498Y44260D01*
X55504Y44268D01*
X55509Y44279D01*
X55515Y44293D01*
X55523Y44309D01*
X55540Y44348D01*
X55556Y44398D01*
X55570Y44453D01*
X55581Y44514D01*
X55584Y44578D01*
Y44598D01*
X55581Y44614D01*
Y44633D01*
X55578Y44653D01*
X55567Y44703D01*
X55554Y44761D01*
X55531Y44819D01*
X55501Y44880D01*
X55484Y44910D01*
X55462Y44938D01*
X55459Y44941D01*
X55457Y44944D01*
X55448Y44952D01*
X55440Y44963D01*
X55426Y44974D01*
X55409Y44988D01*
X55393Y45005D01*
X55371Y45019D01*
X55346Y45035D01*
X55318Y45055D01*
X55290Y45071D01*
X55257Y45088D01*
X55221Y45102D01*
X55182Y45116D01*
X55141Y45129D01*
X55096Y45140D01*
X55160Y45395D01*
X55163D01*
X55174Y45393D01*
D02*
G37*
G36*
X34607Y52300D02*
X35067D01*
Y52065D01*
X34607D01*
Y51231D01*
X34391D01*
X33150Y52109D01*
Y52300D01*
X34391D01*
Y52561D01*
X34607D01*
Y52300D01*
D02*
G37*
G36*
X34474Y51092D02*
X34491Y51087D01*
X34513Y51079D01*
X34538Y51070D01*
X34568Y51059D01*
X34601Y51045D01*
X34637Y51029D01*
X34715Y50990D01*
X34793Y50940D01*
X34831Y50910D01*
X34870Y50879D01*
X34903Y50846D01*
X34936Y50807D01*
X34939Y50804D01*
X34945Y50799D01*
X34950Y50785D01*
X34962Y50771D01*
X34975Y50749D01*
X34989Y50727D01*
X35003Y50696D01*
X35017Y50666D01*
X35034Y50630D01*
X35047Y50591D01*
X35061Y50550D01*
X35075Y50505D01*
X35086Y50458D01*
X35092Y50408D01*
X35097Y50356D01*
X35100Y50300D01*
Y50270D01*
X35097Y50248D01*
Y50223D01*
X35094Y50192D01*
X35089Y50159D01*
X35083Y50120D01*
X35070Y50040D01*
X35047Y49957D01*
X35017Y49874D01*
X34997Y49835D01*
X34975Y49796D01*
X34973Y49793D01*
X34970Y49788D01*
X34962Y49777D01*
X34950Y49766D01*
X34939Y49749D01*
X34923Y49730D01*
X34903Y49707D01*
X34881Y49685D01*
X34856Y49663D01*
X34831Y49638D01*
X34768Y49588D01*
X34693Y49541D01*
X34610Y49500D01*
X34607D01*
X34599Y49494D01*
X34585Y49491D01*
X34568Y49483D01*
X34546Y49478D01*
X34518Y49469D01*
X34488Y49458D01*
X34455Y49450D01*
X34419Y49442D01*
X34377Y49431D01*
X34291Y49417D01*
X34194Y49406D01*
X34095Y49400D01*
X34092D01*
X34081D01*
X34064D01*
X34045Y49403D01*
X34017D01*
X33989Y49406D01*
X33953Y49408D01*
X33917Y49414D01*
X33837Y49428D01*
X33748Y49447D01*
X33660Y49475D01*
X33574Y49514D01*
X33571Y49516D01*
X33563Y49519D01*
X33551Y49525D01*
X33538Y49536D01*
X33518Y49547D01*
X33496Y49561D01*
X33446Y49597D01*
X33391Y49644D01*
X33336Y49699D01*
X33280Y49763D01*
X33233Y49838D01*
X33230Y49840D01*
X33228Y49849D01*
X33222Y49860D01*
X33214Y49874D01*
X33205Y49896D01*
X33197Y49918D01*
X33186Y49946D01*
X33175Y49976D01*
X33164Y50009D01*
X33153Y50045D01*
X33136Y50123D01*
X33122Y50212D01*
X33117Y50303D01*
Y50331D01*
X33119Y50350D01*
X33122Y50375D01*
X33125Y50406D01*
X33128Y50436D01*
X33136Y50472D01*
X33153Y50547D01*
X33178Y50630D01*
X33194Y50671D01*
X33214Y50710D01*
X33239Y50749D01*
X33263Y50788D01*
X33266Y50791D01*
X33269Y50796D01*
X33277Y50807D01*
X33291Y50821D01*
X33305Y50835D01*
X33324Y50854D01*
X33347Y50874D01*
X33369Y50896D01*
X33396Y50918D01*
X33430Y50940D01*
X33463Y50965D01*
X33499Y50987D01*
X33540Y51007D01*
X33582Y51029D01*
X33626Y51045D01*
X33676Y51062D01*
X33734Y50813D01*
X33732D01*
X33726Y50810D01*
X33715Y50804D01*
X33701Y50799D01*
X33685Y50793D01*
X33662Y50785D01*
X33618Y50763D01*
X33568Y50735D01*
X33518Y50702D01*
X33471Y50660D01*
X33430Y50616D01*
X33424Y50611D01*
X33413Y50594D01*
X33399Y50566D01*
X33380Y50530D01*
X33363Y50483D01*
X33347Y50431D01*
X33336Y50367D01*
X33333Y50297D01*
Y50275D01*
X33336Y50261D01*
Y50242D01*
X33338Y50220D01*
X33347Y50167D01*
X33358Y50109D01*
X33377Y50048D01*
X33405Y49984D01*
X33441Y49926D01*
Y49924D01*
X33446Y49921D01*
X33460Y49901D01*
X33482Y49876D01*
X33516Y49846D01*
X33557Y49810D01*
X33604Y49777D01*
X33662Y49746D01*
X33726Y49719D01*
X33729D01*
X33734Y49716D01*
X33743Y49713D01*
X33757Y49710D01*
X33773Y49705D01*
X33792Y49699D01*
X33840Y49691D01*
X33895Y49680D01*
X33956Y49669D01*
X34022Y49663D01*
X34095Y49660D01*
X34097D01*
X34106D01*
X34119D01*
X34136D01*
X34155Y49663D01*
X34180D01*
X34208Y49666D01*
X34238Y49669D01*
X34305Y49677D01*
X34377Y49691D01*
X34449Y49707D01*
X34521Y49730D01*
X34524D01*
X34529Y49732D01*
X34538Y49738D01*
X34552Y49744D01*
X34585Y49760D01*
X34624Y49785D01*
X34668Y49815D01*
X34715Y49854D01*
X34756Y49899D01*
X34795Y49951D01*
Y49954D01*
X34798Y49960D01*
X34804Y49968D01*
X34809Y49979D01*
X34815Y49993D01*
X34823Y50009D01*
X34840Y50048D01*
X34856Y50098D01*
X34870Y50153D01*
X34881Y50214D01*
X34884Y50278D01*
Y50297D01*
X34881Y50314D01*
Y50333D01*
X34878Y50353D01*
X34867Y50403D01*
X34853Y50461D01*
X34831Y50519D01*
X34801Y50580D01*
X34784Y50611D01*
X34762Y50638D01*
X34759Y50641D01*
X34756Y50644D01*
X34748Y50652D01*
X34740Y50663D01*
X34726Y50674D01*
X34709Y50688D01*
X34693Y50705D01*
X34671Y50718D01*
X34646Y50735D01*
X34618Y50755D01*
X34590Y50771D01*
X34557Y50788D01*
X34521Y50802D01*
X34482Y50815D01*
X34441Y50829D01*
X34396Y50840D01*
X34460Y51095D01*
X34463D01*
X34474Y51092D01*
D02*
G37*
G36*
X87450Y39180D02*
X87475Y39178D01*
X87506Y39175D01*
X87536Y39172D01*
X87572Y39164D01*
X87647Y39147D01*
X87730Y39122D01*
X87771Y39106D01*
X87810Y39086D01*
X87849Y39061D01*
X87888Y39037D01*
X87890Y39034D01*
X87896Y39031D01*
X87907Y39023D01*
X87921Y39009D01*
X87935Y38995D01*
X87954Y38976D01*
X87974Y38953D01*
X87996Y38931D01*
X88018Y38904D01*
X88040Y38870D01*
X88065Y38837D01*
X88087Y38801D01*
X88107Y38759D01*
X88129Y38718D01*
X88145Y38674D01*
X88162Y38624D01*
X87913Y38566D01*
Y38568D01*
X87910Y38574D01*
X87904Y38585D01*
X87899Y38599D01*
X87893Y38616D01*
X87885Y38638D01*
X87863Y38682D01*
X87835Y38732D01*
X87802Y38782D01*
X87760Y38829D01*
X87716Y38870D01*
X87710Y38876D01*
X87694Y38887D01*
X87666Y38901D01*
X87630Y38920D01*
X87583Y38937D01*
X87530Y38953D01*
X87467Y38965D01*
X87397Y38967D01*
X87375D01*
X87362Y38965D01*
X87342D01*
X87320Y38962D01*
X87267Y38953D01*
X87209Y38942D01*
X87148Y38923D01*
X87085Y38895D01*
X87026Y38859D01*
X87024D01*
X87021Y38854D01*
X87001Y38840D01*
X86976Y38818D01*
X86946Y38784D01*
X86910Y38743D01*
X86877Y38696D01*
X86846Y38638D01*
X86819Y38574D01*
Y38571D01*
X86816Y38566D01*
X86813Y38557D01*
X86810Y38543D01*
X86805Y38527D01*
X86799Y38507D01*
X86791Y38460D01*
X86780Y38405D01*
X86769Y38344D01*
X86763Y38278D01*
X86760Y38206D01*
Y38203D01*
Y38194D01*
Y38181D01*
Y38164D01*
X86763Y38145D01*
Y38120D01*
X86766Y38092D01*
X86769Y38061D01*
X86777Y37995D01*
X86791Y37923D01*
X86808Y37851D01*
X86830Y37779D01*
Y37776D01*
X86832Y37771D01*
X86838Y37762D01*
X86844Y37749D01*
X86860Y37715D01*
X86885Y37676D01*
X86915Y37632D01*
X86954Y37585D01*
X86999Y37543D01*
X87051Y37505D01*
X87054D01*
X87059Y37502D01*
X87068Y37496D01*
X87079Y37491D01*
X87093Y37485D01*
X87109Y37477D01*
X87148Y37460D01*
X87198Y37444D01*
X87253Y37430D01*
X87314Y37419D01*
X87378Y37416D01*
X87397D01*
X87414Y37419D01*
X87433D01*
X87453Y37422D01*
X87503Y37433D01*
X87561Y37446D01*
X87619Y37469D01*
X87680Y37499D01*
X87710Y37516D01*
X87738Y37538D01*
X87741Y37541D01*
X87744Y37543D01*
X87752Y37552D01*
X87763Y37560D01*
X87774Y37574D01*
X87788Y37591D01*
X87805Y37607D01*
X87818Y37629D01*
X87835Y37654D01*
X87854Y37682D01*
X87871Y37710D01*
X87888Y37743D01*
X87902Y37779D01*
X87915Y37818D01*
X87929Y37859D01*
X87940Y37904D01*
X88195Y37840D01*
Y37837D01*
X88192Y37826D01*
X88187Y37809D01*
X88179Y37787D01*
X88170Y37762D01*
X88159Y37732D01*
X88145Y37699D01*
X88129Y37663D01*
X88090Y37585D01*
X88040Y37508D01*
X88010Y37469D01*
X87979Y37430D01*
X87946Y37397D01*
X87907Y37363D01*
X87904Y37361D01*
X87899Y37355D01*
X87885Y37350D01*
X87871Y37339D01*
X87849Y37325D01*
X87827Y37311D01*
X87796Y37297D01*
X87766Y37283D01*
X87730Y37266D01*
X87691Y37253D01*
X87650Y37239D01*
X87605Y37225D01*
X87558Y37214D01*
X87508Y37208D01*
X87456Y37203D01*
X87400Y37200D01*
X87370D01*
X87348Y37203D01*
X87323D01*
X87292Y37205D01*
X87259Y37211D01*
X87220Y37217D01*
X87140Y37231D01*
X87057Y37253D01*
X86974Y37283D01*
X86935Y37303D01*
X86896Y37325D01*
X86893Y37327D01*
X86888Y37330D01*
X86877Y37339D01*
X86866Y37350D01*
X86849Y37361D01*
X86830Y37377D01*
X86808Y37397D01*
X86785Y37419D01*
X86763Y37444D01*
X86738Y37469D01*
X86688Y37532D01*
X86641Y37607D01*
X86600Y37690D01*
Y37693D01*
X86594Y37701D01*
X86591Y37715D01*
X86583Y37732D01*
X86578Y37754D01*
X86569Y37782D01*
X86558Y37812D01*
X86550Y37845D01*
X86541Y37881D01*
X86531Y37923D01*
X86517Y38009D01*
X86506Y38106D01*
X86500Y38206D01*
Y38208D01*
Y38219D01*
Y38236D01*
X86503Y38255D01*
Y38283D01*
X86506Y38311D01*
X86508Y38347D01*
X86514Y38383D01*
X86528Y38463D01*
X86547Y38552D01*
X86575Y38640D01*
X86614Y38726D01*
X86616Y38729D01*
X86619Y38737D01*
X86625Y38748D01*
X86636Y38762D01*
X86647Y38782D01*
X86661Y38804D01*
X86697Y38854D01*
X86744Y38909D01*
X86799Y38965D01*
X86863Y39020D01*
X86938Y39067D01*
X86940Y39070D01*
X86949Y39072D01*
X86960Y39078D01*
X86974Y39086D01*
X86996Y39095D01*
X87018Y39103D01*
X87046Y39114D01*
X87076Y39125D01*
X87109Y39136D01*
X87145Y39147D01*
X87223Y39164D01*
X87312Y39178D01*
X87403Y39183D01*
X87431D01*
X87450Y39180D01*
D02*
G37*
G36*
X89591Y38901D02*
X88824D01*
X88722Y38383D01*
X88724Y38386D01*
X88730Y38388D01*
X88738Y38394D01*
X88752Y38402D01*
X88769Y38410D01*
X88788Y38422D01*
X88832Y38444D01*
X88888Y38466D01*
X88949Y38485D01*
X89015Y38499D01*
X89048Y38505D01*
X89109D01*
X89126Y38502D01*
X89148Y38499D01*
X89173Y38496D01*
X89201Y38491D01*
X89231Y38482D01*
X89298Y38463D01*
X89334Y38449D01*
X89370Y38430D01*
X89406Y38410D01*
X89442Y38388D01*
X89475Y38361D01*
X89508Y38330D01*
X89511Y38327D01*
X89517Y38322D01*
X89525Y38313D01*
X89536Y38300D01*
X89550Y38280D01*
X89564Y38261D01*
X89580Y38236D01*
X89597Y38208D01*
X89611Y38178D01*
X89627Y38145D01*
X89641Y38106D01*
X89655Y38067D01*
X89666Y38026D01*
X89674Y37978D01*
X89680Y37931D01*
X89683Y37881D01*
Y37879D01*
Y37870D01*
Y37857D01*
X89680Y37837D01*
X89677Y37815D01*
X89674Y37790D01*
X89669Y37760D01*
X89663Y37729D01*
X89647Y37657D01*
X89619Y37582D01*
X89602Y37543D01*
X89580Y37508D01*
X89558Y37469D01*
X89530Y37433D01*
X89528Y37430D01*
X89522Y37422D01*
X89511Y37411D01*
X89497Y37397D01*
X89478Y37380D01*
X89456Y37358D01*
X89428Y37339D01*
X89397Y37316D01*
X89364Y37294D01*
X89325Y37275D01*
X89284Y37255D01*
X89240Y37236D01*
X89192Y37222D01*
X89140Y37211D01*
X89084Y37203D01*
X89026Y37200D01*
X89001D01*
X88982Y37203D01*
X88960Y37205D01*
X88935Y37208D01*
X88904Y37211D01*
X88874Y37219D01*
X88805Y37236D01*
X88735Y37261D01*
X88699Y37278D01*
X88663Y37297D01*
X88630Y37319D01*
X88597Y37344D01*
X88594Y37347D01*
X88589Y37350D01*
X88583Y37361D01*
X88572Y37372D01*
X88558Y37386D01*
X88544Y37402D01*
X88528Y37424D01*
X88514Y37449D01*
X88497Y37474D01*
X88481Y37505D01*
X88450Y37571D01*
X88425Y37649D01*
X88417Y37690D01*
X88411Y37735D01*
X88658Y37754D01*
Y37751D01*
Y37746D01*
X88661Y37737D01*
X88663Y37723D01*
X88672Y37693D01*
X88683Y37652D01*
X88699Y37610D01*
X88722Y37563D01*
X88749Y37521D01*
X88783Y37483D01*
X88788Y37480D01*
X88799Y37469D01*
X88821Y37455D01*
X88852Y37438D01*
X88885Y37422D01*
X88927Y37408D01*
X88974Y37397D01*
X89026Y37394D01*
X89043D01*
X89054Y37397D01*
X89087Y37399D01*
X89126Y37411D01*
X89173Y37424D01*
X89220Y37446D01*
X89270Y37480D01*
X89292Y37499D01*
X89314Y37521D01*
X89317Y37524D01*
X89320Y37527D01*
X89325Y37535D01*
X89334Y37543D01*
X89353Y37574D01*
X89375Y37613D01*
X89395Y37660D01*
X89414Y37718D01*
X89428Y37787D01*
X89433Y37823D01*
Y37862D01*
Y37865D01*
Y37870D01*
Y37881D01*
X89431Y37895D01*
Y37912D01*
X89428Y37931D01*
X89420Y37976D01*
X89406Y38028D01*
X89386Y38081D01*
X89359Y38131D01*
X89320Y38178D01*
Y38181D01*
X89314Y38183D01*
X89301Y38197D01*
X89275Y38217D01*
X89242Y38239D01*
X89198Y38258D01*
X89148Y38278D01*
X89090Y38291D01*
X89057Y38297D01*
X89004D01*
X88982Y38294D01*
X88954Y38291D01*
X88921Y38283D01*
X88888Y38275D01*
X88852Y38261D01*
X88816Y38244D01*
X88813Y38241D01*
X88802Y38236D01*
X88785Y38222D01*
X88763Y38208D01*
X88741Y38189D01*
X88719Y38164D01*
X88694Y38139D01*
X88674Y38109D01*
X88453Y38139D01*
X88638Y39125D01*
X89591D01*
Y38901D01*
D02*
G37*
G36*
X97929Y39156D02*
X97948D01*
X97970Y39153D01*
X98023Y39142D01*
X98081Y39128D01*
X98142Y39106D01*
X98203Y39072D01*
X98233Y39053D01*
X98261Y39031D01*
X98264Y39028D01*
X98267Y39025D01*
X98275Y39017D01*
X98283Y39009D01*
X98297Y38995D01*
X98308Y38978D01*
X98339Y38940D01*
X98369Y38890D01*
X98397Y38829D01*
X98422Y38759D01*
X98438Y38682D01*
X98203Y38663D01*
Y38665D01*
X98200Y38668D01*
X98197Y38685D01*
X98189Y38710D01*
X98178Y38740D01*
X98167Y38773D01*
X98150Y38807D01*
X98131Y38837D01*
X98111Y38862D01*
X98106Y38868D01*
X98095Y38879D01*
X98075Y38895D01*
X98048Y38915D01*
X98012Y38931D01*
X97973Y38948D01*
X97926Y38959D01*
X97876Y38965D01*
X97857D01*
X97835Y38962D01*
X97810Y38956D01*
X97776Y38948D01*
X97743Y38937D01*
X97710Y38923D01*
X97677Y38901D01*
X97671Y38898D01*
X97657Y38887D01*
X97638Y38868D01*
X97613Y38840D01*
X97585Y38807D01*
X97555Y38768D01*
X97527Y38718D01*
X97499Y38663D01*
Y38660D01*
X97497Y38654D01*
X97494Y38646D01*
X97488Y38635D01*
X97486Y38618D01*
X97480Y38599D01*
X97474Y38577D01*
X97469Y38549D01*
X97461Y38519D01*
X97455Y38485D01*
X97449Y38449D01*
X97447Y38410D01*
X97441Y38366D01*
X97438Y38322D01*
X97436Y38272D01*
Y38222D01*
X97438Y38225D01*
X97449Y38241D01*
X97469Y38264D01*
X97494Y38291D01*
X97522Y38325D01*
X97558Y38355D01*
X97596Y38386D01*
X97641Y38413D01*
X97643D01*
X97646Y38416D01*
X97663Y38424D01*
X97688Y38433D01*
X97721Y38447D01*
X97760Y38458D01*
X97804Y38466D01*
X97851Y38474D01*
X97901Y38477D01*
X97923D01*
X97940Y38474D01*
X97962Y38471D01*
X97984Y38469D01*
X98012Y38463D01*
X98040Y38455D01*
X98103Y38435D01*
X98137Y38422D01*
X98170Y38402D01*
X98203Y38383D01*
X98239Y38361D01*
X98272Y38333D01*
X98303Y38302D01*
X98305Y38300D01*
X98311Y38294D01*
X98319Y38286D01*
X98328Y38272D01*
X98342Y38253D01*
X98355Y38233D01*
X98369Y38208D01*
X98386Y38181D01*
X98402Y38150D01*
X98416Y38117D01*
X98430Y38078D01*
X98444Y38039D01*
X98452Y37998D01*
X98461Y37951D01*
X98466Y37904D01*
X98469Y37854D01*
Y37851D01*
Y37845D01*
Y37837D01*
Y37823D01*
X98466Y37807D01*
Y37790D01*
X98458Y37746D01*
X98449Y37693D01*
X98436Y37638D01*
X98416Y37577D01*
X98388Y37519D01*
Y37516D01*
X98386Y37513D01*
X98380Y37505D01*
X98375Y37494D01*
X98358Y37466D01*
X98333Y37430D01*
X98303Y37391D01*
X98267Y37352D01*
X98222Y37314D01*
X98175Y37280D01*
X98172D01*
X98170Y37278D01*
X98161Y37272D01*
X98150Y37269D01*
X98123Y37255D01*
X98087Y37242D01*
X98040Y37225D01*
X97987Y37214D01*
X97929Y37203D01*
X97865Y37200D01*
X97851D01*
X97837Y37203D01*
X97815D01*
X97790Y37205D01*
X97763Y37211D01*
X97729Y37219D01*
X97696Y37228D01*
X97657Y37239D01*
X97619Y37253D01*
X97580Y37269D01*
X97538Y37291D01*
X97499Y37316D01*
X97461Y37344D01*
X97422Y37377D01*
X97386Y37416D01*
X97383Y37419D01*
X97378Y37427D01*
X97369Y37438D01*
X97358Y37458D01*
X97342Y37483D01*
X97328Y37510D01*
X97311Y37546D01*
X97294Y37585D01*
X97275Y37632D01*
X97258Y37685D01*
X97245Y37743D01*
X97231Y37807D01*
X97217Y37879D01*
X97208Y37956D01*
X97203Y38039D01*
X97200Y38128D01*
Y38131D01*
Y38133D01*
Y38142D01*
Y38153D01*
X97203Y38181D01*
Y38219D01*
X97206Y38264D01*
X97211Y38316D01*
X97217Y38375D01*
X97225Y38438D01*
X97236Y38502D01*
X97250Y38571D01*
X97267Y38638D01*
X97286Y38704D01*
X97311Y38768D01*
X97339Y38829D01*
X97369Y38887D01*
X97405Y38937D01*
X97408Y38940D01*
X97413Y38945D01*
X97425Y38956D01*
X97438Y38973D01*
X97455Y38989D01*
X97477Y39006D01*
X97505Y39028D01*
X97533Y39048D01*
X97566Y39067D01*
X97602Y39089D01*
X97643Y39106D01*
X97685Y39125D01*
X97732Y39139D01*
X97782Y39150D01*
X97835Y39156D01*
X97890Y39158D01*
X97912D01*
X97929Y39156D01*
D02*
G37*
G36*
X96250Y39180D02*
X96275Y39178D01*
X96306Y39175D01*
X96336Y39172D01*
X96372Y39164D01*
X96447Y39147D01*
X96530Y39122D01*
X96571Y39106D01*
X96610Y39086D01*
X96649Y39061D01*
X96688Y39037D01*
X96690Y39034D01*
X96696Y39031D01*
X96707Y39023D01*
X96721Y39009D01*
X96735Y38995D01*
X96754Y38976D01*
X96774Y38953D01*
X96796Y38931D01*
X96818Y38904D01*
X96840Y38870D01*
X96865Y38837D01*
X96887Y38801D01*
X96907Y38759D01*
X96929Y38718D01*
X96945Y38674D01*
X96962Y38624D01*
X96713Y38566D01*
Y38568D01*
X96710Y38574D01*
X96704Y38585D01*
X96699Y38599D01*
X96693Y38616D01*
X96685Y38638D01*
X96663Y38682D01*
X96635Y38732D01*
X96602Y38782D01*
X96560Y38829D01*
X96516Y38870D01*
X96510Y38876D01*
X96494Y38887D01*
X96466Y38901D01*
X96430Y38920D01*
X96383Y38937D01*
X96330Y38953D01*
X96267Y38965D01*
X96197Y38967D01*
X96175D01*
X96162Y38965D01*
X96142D01*
X96120Y38962D01*
X96067Y38953D01*
X96009Y38942D01*
X95948Y38923D01*
X95885Y38895D01*
X95826Y38859D01*
X95824D01*
X95821Y38854D01*
X95801Y38840D01*
X95776Y38818D01*
X95746Y38784D01*
X95710Y38743D01*
X95677Y38696D01*
X95646Y38638D01*
X95619Y38574D01*
Y38571D01*
X95616Y38566D01*
X95613Y38557D01*
X95610Y38543D01*
X95605Y38527D01*
X95599Y38507D01*
X95591Y38460D01*
X95580Y38405D01*
X95569Y38344D01*
X95563Y38278D01*
X95560Y38206D01*
Y38203D01*
Y38194D01*
Y38181D01*
Y38164D01*
X95563Y38145D01*
Y38120D01*
X95566Y38092D01*
X95569Y38061D01*
X95577Y37995D01*
X95591Y37923D01*
X95608Y37851D01*
X95630Y37779D01*
Y37776D01*
X95632Y37771D01*
X95638Y37762D01*
X95644Y37749D01*
X95660Y37715D01*
X95685Y37676D01*
X95715Y37632D01*
X95754Y37585D01*
X95799Y37543D01*
X95851Y37505D01*
X95854D01*
X95859Y37502D01*
X95868Y37496D01*
X95879Y37491D01*
X95893Y37485D01*
X95909Y37477D01*
X95948Y37460D01*
X95998Y37444D01*
X96053Y37430D01*
X96114Y37419D01*
X96178Y37416D01*
X96197D01*
X96214Y37419D01*
X96233D01*
X96253Y37422D01*
X96303Y37433D01*
X96361Y37446D01*
X96419Y37469D01*
X96480Y37499D01*
X96510Y37516D01*
X96538Y37538D01*
X96541Y37541D01*
X96544Y37543D01*
X96552Y37552D01*
X96563Y37560D01*
X96574Y37574D01*
X96588Y37591D01*
X96605Y37607D01*
X96618Y37629D01*
X96635Y37654D01*
X96654Y37682D01*
X96671Y37710D01*
X96688Y37743D01*
X96702Y37779D01*
X96715Y37818D01*
X96729Y37859D01*
X96740Y37904D01*
X96995Y37840D01*
Y37837D01*
X96992Y37826D01*
X96987Y37809D01*
X96979Y37787D01*
X96970Y37762D01*
X96959Y37732D01*
X96945Y37699D01*
X96929Y37663D01*
X96890Y37585D01*
X96840Y37508D01*
X96810Y37469D01*
X96779Y37430D01*
X96746Y37397D01*
X96707Y37363D01*
X96704Y37361D01*
X96699Y37355D01*
X96685Y37350D01*
X96671Y37339D01*
X96649Y37325D01*
X96627Y37311D01*
X96596Y37297D01*
X96566Y37283D01*
X96530Y37266D01*
X96491Y37253D01*
X96450Y37239D01*
X96405Y37225D01*
X96358Y37214D01*
X96308Y37208D01*
X96256Y37203D01*
X96200Y37200D01*
X96170D01*
X96148Y37203D01*
X96123D01*
X96092Y37205D01*
X96059Y37211D01*
X96020Y37217D01*
X95940Y37231D01*
X95857Y37253D01*
X95774Y37283D01*
X95735Y37303D01*
X95696Y37325D01*
X95693Y37327D01*
X95688Y37330D01*
X95677Y37339D01*
X95666Y37350D01*
X95649Y37361D01*
X95630Y37377D01*
X95608Y37397D01*
X95585Y37419D01*
X95563Y37444D01*
X95538Y37469D01*
X95488Y37532D01*
X95441Y37607D01*
X95400Y37690D01*
Y37693D01*
X95394Y37701D01*
X95391Y37715D01*
X95383Y37732D01*
X95378Y37754D01*
X95369Y37782D01*
X95358Y37812D01*
X95350Y37845D01*
X95341Y37881D01*
X95331Y37923D01*
X95317Y38009D01*
X95306Y38106D01*
X95300Y38206D01*
Y38208D01*
Y38219D01*
Y38236D01*
X95303Y38255D01*
Y38283D01*
X95306Y38311D01*
X95308Y38347D01*
X95314Y38383D01*
X95328Y38463D01*
X95347Y38552D01*
X95375Y38640D01*
X95414Y38726D01*
X95416Y38729D01*
X95419Y38737D01*
X95425Y38748D01*
X95436Y38762D01*
X95447Y38782D01*
X95461Y38804D01*
X95497Y38854D01*
X95544Y38909D01*
X95599Y38965D01*
X95663Y39020D01*
X95738Y39067D01*
X95740Y39070D01*
X95749Y39072D01*
X95760Y39078D01*
X95774Y39086D01*
X95796Y39095D01*
X95818Y39103D01*
X95846Y39114D01*
X95876Y39125D01*
X95909Y39136D01*
X95945Y39147D01*
X96023Y39164D01*
X96112Y39178D01*
X96203Y39183D01*
X96231D01*
X96250Y39180D01*
D02*
G37*
G36*
X46050Y32547D02*
X46075Y32544D01*
X46106Y32542D01*
X46136Y32539D01*
X46172Y32531D01*
X46247Y32514D01*
X46330Y32489D01*
X46371Y32473D01*
X46410Y32453D01*
X46449Y32428D01*
X46488Y32403D01*
X46490Y32401D01*
X46496Y32398D01*
X46507Y32389D01*
X46521Y32376D01*
X46535Y32362D01*
X46554Y32342D01*
X46574Y32320D01*
X46596Y32298D01*
X46618Y32270D01*
X46640Y32237D01*
X46665Y32204D01*
X46687Y32168D01*
X46707Y32126D01*
X46729Y32085D01*
X46745Y32040D01*
X46762Y31991D01*
X46513Y31932D01*
Y31935D01*
X46510Y31941D01*
X46504Y31952D01*
X46499Y31966D01*
X46493Y31982D01*
X46485Y32004D01*
X46463Y32049D01*
X46435Y32099D01*
X46402Y32148D01*
X46360Y32195D01*
X46316Y32237D01*
X46310Y32243D01*
X46294Y32254D01*
X46266Y32267D01*
X46230Y32287D01*
X46183Y32304D01*
X46130Y32320D01*
X46067Y32331D01*
X45998Y32334D01*
X45975D01*
X45961Y32331D01*
X45942D01*
X45920Y32329D01*
X45867Y32320D01*
X45809Y32309D01*
X45748Y32290D01*
X45684Y32262D01*
X45626Y32226D01*
X45623D01*
X45621Y32220D01*
X45601Y32207D01*
X45576Y32184D01*
X45546Y32151D01*
X45510Y32110D01*
X45477Y32063D01*
X45446Y32004D01*
X45419Y31941D01*
Y31938D01*
X45416Y31932D01*
X45413Y31924D01*
X45410Y31910D01*
X45405Y31894D01*
X45399Y31874D01*
X45391Y31827D01*
X45380Y31772D01*
X45369Y31711D01*
X45363Y31644D01*
X45360Y31572D01*
Y31569D01*
Y31561D01*
Y31547D01*
Y31531D01*
X45363Y31511D01*
Y31486D01*
X45366Y31459D01*
X45369Y31428D01*
X45377Y31362D01*
X45391Y31290D01*
X45408Y31218D01*
X45430Y31146D01*
Y31143D01*
X45432Y31137D01*
X45438Y31129D01*
X45443Y31115D01*
X45460Y31082D01*
X45485Y31043D01*
X45515Y30999D01*
X45554Y30952D01*
X45599Y30910D01*
X45651Y30871D01*
X45654D01*
X45660Y30869D01*
X45668Y30863D01*
X45679Y30858D01*
X45693Y30852D01*
X45709Y30844D01*
X45748Y30827D01*
X45798Y30810D01*
X45853Y30797D01*
X45914Y30786D01*
X45978Y30783D01*
X45998D01*
X46014Y30786D01*
X46033D01*
X46053Y30788D01*
X46103Y30799D01*
X46161Y30813D01*
X46219Y30835D01*
X46280Y30866D01*
X46310Y30882D01*
X46338Y30905D01*
X46341Y30907D01*
X46344Y30910D01*
X46352Y30918D01*
X46363Y30927D01*
X46374Y30941D01*
X46388Y30957D01*
X46405Y30974D01*
X46418Y30996D01*
X46435Y31021D01*
X46455Y31049D01*
X46471Y31076D01*
X46488Y31110D01*
X46502Y31146D01*
X46516Y31185D01*
X46529Y31226D01*
X46540Y31270D01*
X46795Y31207D01*
Y31204D01*
X46793Y31193D01*
X46787Y31176D01*
X46779Y31154D01*
X46770Y31129D01*
X46759Y31099D01*
X46745Y31065D01*
X46729Y31029D01*
X46690Y30952D01*
X46640Y30874D01*
X46610Y30835D01*
X46579Y30797D01*
X46546Y30763D01*
X46507Y30730D01*
X46504Y30727D01*
X46499Y30722D01*
X46485Y30716D01*
X46471Y30705D01*
X46449Y30691D01*
X46427Y30678D01*
X46396Y30664D01*
X46366Y30650D01*
X46330Y30633D01*
X46291Y30619D01*
X46249Y30606D01*
X46205Y30592D01*
X46158Y30581D01*
X46108Y30575D01*
X46056Y30569D01*
X46000Y30567D01*
X45970D01*
X45948Y30569D01*
X45923D01*
X45892Y30572D01*
X45859Y30578D01*
X45820Y30583D01*
X45740Y30597D01*
X45657Y30619D01*
X45574Y30650D01*
X45535Y30669D01*
X45496Y30691D01*
X45493Y30694D01*
X45488Y30697D01*
X45477Y30705D01*
X45466Y30716D01*
X45449Y30727D01*
X45430Y30744D01*
X45408Y30763D01*
X45385Y30786D01*
X45363Y30810D01*
X45338Y30835D01*
X45288Y30899D01*
X45241Y30974D01*
X45200Y31057D01*
Y31060D01*
X45194Y31068D01*
X45191Y31082D01*
X45183Y31099D01*
X45178Y31121D01*
X45169Y31148D01*
X45158Y31179D01*
X45150Y31212D01*
X45142Y31248D01*
X45131Y31290D01*
X45117Y31376D01*
X45105Y31473D01*
X45100Y31572D01*
Y31575D01*
Y31586D01*
Y31603D01*
X45103Y31622D01*
Y31650D01*
X45105Y31677D01*
X45108Y31714D01*
X45114Y31749D01*
X45128Y31830D01*
X45147Y31918D01*
X45175Y32007D01*
X45214Y32093D01*
X45216Y32096D01*
X45219Y32104D01*
X45225Y32115D01*
X45236Y32129D01*
X45247Y32148D01*
X45261Y32171D01*
X45297Y32220D01*
X45344Y32276D01*
X45399Y32331D01*
X45463Y32387D01*
X45538Y32434D01*
X45540Y32436D01*
X45549Y32439D01*
X45560Y32445D01*
X45574Y32453D01*
X45596Y32461D01*
X45618Y32470D01*
X45646Y32481D01*
X45676Y32492D01*
X45709Y32503D01*
X45745Y32514D01*
X45823Y32531D01*
X45912Y32544D01*
X46003Y32550D01*
X46031D01*
X46050Y32547D01*
D02*
G37*
G36*
X49986D02*
X50008D01*
X50061Y32542D01*
X50119Y32533D01*
X50180Y32520D01*
X50247Y32503D01*
X50310Y32481D01*
X50313D01*
X50319Y32478D01*
X50327Y32475D01*
X50338Y32470D01*
X50368Y32453D01*
X50407Y32434D01*
X50449Y32406D01*
X50493Y32373D01*
X50535Y32337D01*
X50573Y32293D01*
X50579Y32287D01*
X50590Y32270D01*
X50607Y32245D01*
X50629Y32209D01*
X50651Y32165D01*
X50676Y32110D01*
X50701Y32049D01*
X50720Y31980D01*
X50490Y31918D01*
Y31921D01*
X50488Y31924D01*
X50485Y31932D01*
X50482Y31944D01*
X50474Y31968D01*
X50463Y32002D01*
X50446Y32040D01*
X50427Y32076D01*
X50407Y32115D01*
X50382Y32148D01*
X50380Y32151D01*
X50371Y32162D01*
X50355Y32176D01*
X50335Y32195D01*
X50310Y32218D01*
X50277Y32240D01*
X50241Y32262D01*
X50200Y32281D01*
X50194Y32284D01*
X50180Y32290D01*
X50155Y32298D01*
X50122Y32309D01*
X50083Y32317D01*
X50039Y32326D01*
X49989Y32331D01*
X49936Y32334D01*
X49906D01*
X49892Y32331D01*
X49876D01*
X49834Y32329D01*
X49787Y32320D01*
X49734Y32312D01*
X49684Y32298D01*
X49635Y32279D01*
X49629Y32276D01*
X49612Y32270D01*
X49590Y32256D01*
X49562Y32243D01*
X49529Y32220D01*
X49493Y32198D01*
X49460Y32171D01*
X49430Y32140D01*
X49427Y32137D01*
X49416Y32126D01*
X49402Y32107D01*
X49385Y32085D01*
X49366Y32057D01*
X49346Y32024D01*
X49327Y31988D01*
X49308Y31949D01*
Y31946D01*
X49305Y31941D01*
X49302Y31932D01*
X49297Y31918D01*
X49291Y31902D01*
X49286Y31883D01*
X49277Y31860D01*
X49272Y31835D01*
X49258Y31777D01*
X49247Y31711D01*
X49238Y31642D01*
X49236Y31564D01*
Y31561D01*
Y31553D01*
Y31539D01*
X49238Y31522D01*
Y31500D01*
X49241Y31473D01*
X49244Y31445D01*
X49247Y31414D01*
X49258Y31345D01*
X49272Y31273D01*
X49294Y31201D01*
X49321Y31132D01*
Y31129D01*
X49327Y31124D01*
X49330Y31115D01*
X49338Y31104D01*
X49358Y31074D01*
X49388Y31035D01*
X49424Y30993D01*
X49468Y30952D01*
X49521Y30913D01*
X49579Y30877D01*
X49582D01*
X49587Y30874D01*
X49596Y30869D01*
X49610Y30863D01*
X49623Y30858D01*
X49643Y30852D01*
X49687Y30835D01*
X49742Y30822D01*
X49804Y30808D01*
X49870Y30797D01*
X49939Y30794D01*
X49967D01*
X49984Y30797D01*
X50000D01*
X50042Y30802D01*
X50091Y30808D01*
X50144Y30819D01*
X50202Y30835D01*
X50261Y30855D01*
X50263D01*
X50269Y30858D01*
X50274Y30860D01*
X50285Y30866D01*
X50316Y30880D01*
X50349Y30896D01*
X50388Y30916D01*
X50429Y30938D01*
X50468Y30963D01*
X50502Y30991D01*
Y31351D01*
X49936D01*
Y31578D01*
X50751D01*
Y30866D01*
X50748Y30863D01*
X50743Y30860D01*
X50731Y30852D01*
X50718Y30841D01*
X50701Y30830D01*
X50682Y30816D01*
X50657Y30799D01*
X50632Y30783D01*
X50573Y30747D01*
X50507Y30708D01*
X50438Y30672D01*
X50363Y30642D01*
X50360D01*
X50355Y30639D01*
X50344Y30636D01*
X50330Y30630D01*
X50310Y30625D01*
X50288Y30617D01*
X50263Y30611D01*
X50238Y30606D01*
X50177Y30592D01*
X50108Y30578D01*
X50033Y30569D01*
X49956Y30567D01*
X49928D01*
X49909Y30569D01*
X49884D01*
X49853Y30572D01*
X49820Y30578D01*
X49784Y30581D01*
X49704Y30597D01*
X49618Y30617D01*
X49529Y30647D01*
X49485Y30664D01*
X49441Y30686D01*
X49438Y30689D01*
X49430Y30691D01*
X49418Y30700D01*
X49402Y30708D01*
X49382Y30722D01*
X49363Y30736D01*
X49310Y30775D01*
X49255Y30824D01*
X49197Y30885D01*
X49141Y30955D01*
X49092Y31035D01*
Y31038D01*
X49086Y31046D01*
X49081Y31057D01*
X49072Y31076D01*
X49064Y31096D01*
X49056Y31124D01*
X49044Y31151D01*
X49033Y31185D01*
X49022Y31220D01*
X49011Y31262D01*
X49003Y31304D01*
X48995Y31348D01*
X48981Y31445D01*
X48975Y31547D01*
Y31550D01*
Y31561D01*
Y31575D01*
X48978Y31594D01*
Y31619D01*
X48981Y31650D01*
X48986Y31680D01*
X48989Y31716D01*
X48997Y31755D01*
X49003Y31797D01*
X49025Y31885D01*
X49053Y31977D01*
X49092Y32068D01*
X49094Y32071D01*
X49097Y32079D01*
X49103Y32090D01*
X49114Y32107D01*
X49125Y32129D01*
X49139Y32151D01*
X49177Y32204D01*
X49224Y32265D01*
X49283Y32323D01*
X49349Y32381D01*
X49388Y32406D01*
X49427Y32431D01*
X49430Y32434D01*
X49438Y32436D01*
X49449Y32442D01*
X49466Y32450D01*
X49488Y32459D01*
X49513Y32470D01*
X49540Y32481D01*
X49574Y32492D01*
X49610Y32503D01*
X49648Y32511D01*
X49690Y32522D01*
X49734Y32531D01*
X49831Y32544D01*
X49881Y32550D01*
X49970D01*
X49986Y32547D01*
D02*
G37*
G36*
X48618Y30600D02*
X48363D01*
Y31503D01*
X47371D01*
Y30600D01*
X47117D01*
Y32517D01*
X47371D01*
Y31730D01*
X48363D01*
Y32517D01*
X48618D01*
Y30600D01*
D02*
G37*
G36*
X67923Y41900D02*
X67687D01*
Y43399D01*
X67685Y43396D01*
X67671Y43385D01*
X67654Y43368D01*
X67627Y43349D01*
X67596Y43324D01*
X67557Y43296D01*
X67513Y43266D01*
X67463Y43235D01*
X67460D01*
X67458Y43232D01*
X67441Y43221D01*
X67413Y43207D01*
X67380Y43191D01*
X67341Y43171D01*
X67300Y43152D01*
X67258Y43133D01*
X67217Y43116D01*
Y43343D01*
X67219D01*
X67225Y43349D01*
X67236Y43352D01*
X67250Y43360D01*
X67266Y43368D01*
X67286Y43379D01*
X67333Y43407D01*
X67388Y43437D01*
X67444Y43476D01*
X67502Y43521D01*
X67560Y43568D01*
X67563Y43570D01*
X67566Y43573D01*
X67574Y43581D01*
X67585Y43590D01*
X67610Y43617D01*
X67643Y43651D01*
X67676Y43689D01*
X67712Y43734D01*
X67743Y43778D01*
X67771Y43825D01*
X67923D01*
Y41900D01*
D02*
G37*
G36*
X65987Y43814D02*
X66042Y43811D01*
X66097Y43806D01*
X66153Y43797D01*
X66200Y43789D01*
X66203D01*
X66208Y43786D01*
X66217D01*
X66228Y43781D01*
X66258Y43773D01*
X66297Y43759D01*
X66341Y43739D01*
X66388Y43714D01*
X66435Y43687D01*
X66480Y43651D01*
X66483Y43648D01*
X66485Y43645D01*
X66494Y43637D01*
X66505Y43628D01*
X66532Y43601D01*
X66566Y43562D01*
X66602Y43515D01*
X66641Y43459D01*
X66676Y43396D01*
X66707Y43324D01*
Y43321D01*
X66710Y43316D01*
X66715Y43304D01*
X66718Y43288D01*
X66726Y43268D01*
X66732Y43246D01*
X66737Y43221D01*
X66746Y43191D01*
X66754Y43160D01*
X66760Y43124D01*
X66773Y43047D01*
X66782Y42961D01*
X66785Y42867D01*
Y42864D01*
Y42858D01*
Y42845D01*
Y42831D01*
X66782Y42811D01*
Y42789D01*
X66779Y42737D01*
X66771Y42676D01*
X66762Y42612D01*
X66748Y42545D01*
X66732Y42479D01*
Y42476D01*
X66729Y42471D01*
X66726Y42462D01*
X66724Y42451D01*
X66712Y42421D01*
X66696Y42382D01*
X66679Y42338D01*
X66657Y42293D01*
X66629Y42246D01*
X66602Y42202D01*
X66599Y42196D01*
X66588Y42183D01*
X66571Y42163D01*
X66549Y42138D01*
X66524Y42110D01*
X66494Y42083D01*
X66463Y42052D01*
X66427Y42027D01*
X66422Y42025D01*
X66411Y42016D01*
X66391Y42005D01*
X66364Y41991D01*
X66330Y41975D01*
X66291Y41961D01*
X66247Y41944D01*
X66197Y41930D01*
X66192D01*
X66183Y41928D01*
X66175Y41925D01*
X66147Y41922D01*
X66109Y41917D01*
X66064Y41911D01*
X66012Y41906D01*
X65953Y41903D01*
X65890Y41900D01*
X65200D01*
Y43817D01*
X65937D01*
X65987Y43814D01*
D02*
G37*
G36*
X151461Y44209D02*
Y44207D01*
Y44198D01*
Y44187D01*
Y44171D01*
X151458Y44148D01*
Y44126D01*
X151453Y44074D01*
X151447Y44013D01*
X151436Y43949D01*
X151419Y43891D01*
X151400Y43835D01*
Y43833D01*
X151397Y43830D01*
X151389Y43813D01*
X151375Y43791D01*
X151356Y43761D01*
X151328Y43730D01*
X151297Y43697D01*
X151259Y43664D01*
X151214Y43636D01*
X151209Y43633D01*
X151192Y43625D01*
X151167Y43614D01*
X151131Y43603D01*
X151087Y43589D01*
X151037Y43578D01*
X150982Y43569D01*
X150921Y43567D01*
X150896D01*
X150879Y43569D01*
X150857Y43572D01*
X150835Y43575D01*
X150777Y43586D01*
X150716Y43603D01*
X150652Y43628D01*
X150619Y43644D01*
X150588Y43664D01*
X150561Y43686D01*
X150533Y43711D01*
X150530Y43714D01*
X150527Y43716D01*
X150522Y43727D01*
X150514Y43738D01*
X150503Y43752D01*
X150491Y43772D01*
X150480Y43794D01*
X150467Y43819D01*
X150455Y43846D01*
X150444Y43880D01*
X150433Y43913D01*
X150422Y43952D01*
X150417Y43993D01*
X150408Y44040D01*
X150406Y44087D01*
Y44140D01*
X150635Y44173D01*
Y44171D01*
Y44165D01*
Y44154D01*
X150638Y44137D01*
X150641Y44121D01*
Y44101D01*
X150649Y44054D01*
X150658Y44004D01*
X150674Y43955D01*
X150691Y43910D01*
X150702Y43891D01*
X150716Y43874D01*
X150719Y43872D01*
X150730Y43863D01*
X150746Y43849D01*
X150768Y43835D01*
X150799Y43819D01*
X150832Y43808D01*
X150874Y43797D01*
X150918Y43794D01*
X150935D01*
X150951Y43797D01*
X150976Y43799D01*
X151001Y43805D01*
X151029Y43810D01*
X151057Y43822D01*
X151084Y43835D01*
X151087Y43838D01*
X151095Y43844D01*
X151106Y43855D01*
X151123Y43866D01*
X151137Y43885D01*
X151153Y43905D01*
X151167Y43927D01*
X151178Y43955D01*
Y43957D01*
X151184Y43968D01*
X151187Y43988D01*
X151192Y44013D01*
X151198Y44046D01*
X151200Y44087D01*
X151206Y44137D01*
Y44196D01*
Y45517D01*
X151461D01*
Y44209D01*
D02*
G37*
G36*
X152666Y43600D02*
X152430D01*
Y45099D01*
X152428Y45096D01*
X152414Y45085D01*
X152397Y45068D01*
X152369Y45049D01*
X152339Y45024D01*
X152300Y44996D01*
X152256Y44966D01*
X152206Y44935D01*
X152203D01*
X152200Y44932D01*
X152184Y44921D01*
X152156Y44907D01*
X152123Y44891D01*
X152084Y44871D01*
X152043Y44852D01*
X152001Y44833D01*
X151960Y44816D01*
Y45043D01*
X151962D01*
X151968Y45049D01*
X151979Y45052D01*
X151993Y45060D01*
X152009Y45068D01*
X152029Y45079D01*
X152076Y45107D01*
X152131Y45137D01*
X152187Y45176D01*
X152245Y45220D01*
X152303Y45268D01*
X152306Y45270D01*
X152308Y45273D01*
X152317Y45281D01*
X152328Y45290D01*
X152353Y45317D01*
X152386Y45351D01*
X152419Y45389D01*
X152455Y45434D01*
X152486Y45478D01*
X152514Y45525D01*
X152666D01*
Y43600D01*
D02*
G37*
G36*
X42355Y72243D02*
Y72240D01*
Y72232D01*
Y72220D01*
Y72204D01*
X42353Y72182D01*
Y72159D01*
X42347Y72107D01*
X42342Y72046D01*
X42331Y71982D01*
X42314Y71924D01*
X42294Y71869D01*
Y71866D01*
X42292Y71863D01*
X42283Y71846D01*
X42270Y71824D01*
X42250Y71794D01*
X42222Y71763D01*
X42192Y71730D01*
X42153Y71697D01*
X42109Y71669D01*
X42103Y71666D01*
X42087Y71658D01*
X42062Y71647D01*
X42026Y71636D01*
X41982Y71622D01*
X41932Y71611D01*
X41876Y71603D01*
X41815Y71600D01*
X41790D01*
X41774Y71603D01*
X41752Y71605D01*
X41729Y71608D01*
X41671Y71619D01*
X41610Y71636D01*
X41547Y71661D01*
X41513Y71678D01*
X41483Y71697D01*
X41455Y71719D01*
X41427Y71744D01*
X41425Y71747D01*
X41422Y71750D01*
X41416Y71761D01*
X41408Y71772D01*
X41397Y71786D01*
X41386Y71805D01*
X41375Y71827D01*
X41361Y71852D01*
X41350Y71880D01*
X41339Y71913D01*
X41328Y71946D01*
X41317Y71985D01*
X41311Y72026D01*
X41303Y72074D01*
X41300Y72121D01*
Y72173D01*
X41530Y72207D01*
Y72204D01*
Y72198D01*
Y72187D01*
X41533Y72171D01*
X41535Y72154D01*
Y72135D01*
X41544Y72088D01*
X41552Y72038D01*
X41569Y71988D01*
X41585Y71943D01*
X41596Y71924D01*
X41610Y71907D01*
X41613Y71905D01*
X41624Y71896D01*
X41641Y71882D01*
X41663Y71869D01*
X41693Y71852D01*
X41727Y71841D01*
X41768Y71830D01*
X41813Y71827D01*
X41829D01*
X41846Y71830D01*
X41871Y71833D01*
X41896Y71838D01*
X41923Y71844D01*
X41951Y71855D01*
X41979Y71869D01*
X41982Y71871D01*
X41990Y71877D01*
X42001Y71888D01*
X42017Y71899D01*
X42031Y71918D01*
X42048Y71938D01*
X42062Y71960D01*
X42073Y71988D01*
Y71991D01*
X42078Y72002D01*
X42081Y72021D01*
X42087Y72046D01*
X42092Y72079D01*
X42095Y72121D01*
X42101Y72171D01*
Y72229D01*
Y73550D01*
X42355D01*
Y72243D01*
D02*
G37*
G36*
X43355Y73556D02*
X43378Y73553D01*
X43405Y73550D01*
X43436Y73545D01*
X43466Y73539D01*
X43538Y73520D01*
X43610Y73492D01*
X43646Y73475D01*
X43682Y73456D01*
X43716Y73431D01*
X43746Y73403D01*
X43749Y73400D01*
X43754Y73398D01*
X43760Y73387D01*
X43771Y73375D01*
X43785Y73362D01*
X43799Y73342D01*
X43813Y73323D01*
X43829Y73298D01*
X43857Y73245D01*
X43885Y73179D01*
X43896Y73146D01*
X43901Y73107D01*
X43907Y73068D01*
X43909Y73027D01*
Y73021D01*
Y73007D01*
X43907Y72985D01*
X43904Y72954D01*
X43898Y72921D01*
X43887Y72882D01*
X43876Y72841D01*
X43860Y72799D01*
X43857Y72794D01*
X43851Y72780D01*
X43840Y72758D01*
X43824Y72727D01*
X43801Y72694D01*
X43774Y72653D01*
X43740Y72611D01*
X43702Y72564D01*
X43696Y72558D01*
X43682Y72542D01*
X43668Y72528D01*
X43655Y72514D01*
X43638Y72497D01*
X43616Y72475D01*
X43594Y72453D01*
X43566Y72428D01*
X43538Y72400D01*
X43505Y72370D01*
X43469Y72339D01*
X43430Y72303D01*
X43386Y72268D01*
X43342Y72229D01*
X43339Y72226D01*
X43333Y72220D01*
X43322Y72212D01*
X43308Y72201D01*
X43292Y72184D01*
X43272Y72168D01*
X43228Y72132D01*
X43181Y72090D01*
X43137Y72049D01*
X43098Y72013D01*
X43081Y71999D01*
X43067Y71985D01*
X43065Y71982D01*
X43056Y71974D01*
X43045Y71963D01*
X43031Y71946D01*
X43018Y71927D01*
X43001Y71907D01*
X42968Y71860D01*
X43912D01*
Y71633D01*
X42641D01*
Y71636D01*
Y71647D01*
Y71664D01*
X42643Y71686D01*
X42646Y71711D01*
X42652Y71738D01*
X42657Y71766D01*
X42669Y71797D01*
Y71799D01*
X42671Y71802D01*
X42677Y71819D01*
X42688Y71844D01*
X42704Y71877D01*
X42727Y71916D01*
X42754Y71960D01*
X42785Y72004D01*
X42824Y72052D01*
Y72054D01*
X42829Y72057D01*
X42843Y72074D01*
X42868Y72099D01*
X42904Y72135D01*
X42946Y72176D01*
X42998Y72226D01*
X43062Y72281D01*
X43131Y72339D01*
X43134Y72342D01*
X43145Y72351D01*
X43161Y72364D01*
X43181Y72381D01*
X43206Y72403D01*
X43236Y72428D01*
X43267Y72456D01*
X43303Y72486D01*
X43372Y72553D01*
X43441Y72619D01*
X43475Y72653D01*
X43505Y72686D01*
X43533Y72716D01*
X43555Y72747D01*
Y72750D01*
X43560Y72752D01*
X43566Y72761D01*
X43571Y72772D01*
X43591Y72802D01*
X43613Y72838D01*
X43632Y72882D01*
X43652Y72930D01*
X43663Y72982D01*
X43668Y73032D01*
Y73035D01*
Y73038D01*
X43666Y73054D01*
X43663Y73082D01*
X43655Y73112D01*
X43644Y73151D01*
X43624Y73190D01*
X43599Y73229D01*
X43566Y73268D01*
X43560Y73273D01*
X43547Y73284D01*
X43527Y73298D01*
X43497Y73317D01*
X43458Y73334D01*
X43414Y73351D01*
X43361Y73362D01*
X43303Y73364D01*
X43286D01*
X43275Y73362D01*
X43242Y73359D01*
X43203Y73351D01*
X43161Y73339D01*
X43114Y73320D01*
X43070Y73295D01*
X43029Y73262D01*
X43023Y73256D01*
X43012Y73243D01*
X42995Y73220D01*
X42979Y73187D01*
X42959Y73148D01*
X42943Y73098D01*
X42932Y73043D01*
X42926Y72979D01*
X42685Y73004D01*
Y73007D01*
X42688Y73015D01*
Y73029D01*
X42691Y73049D01*
X42696Y73071D01*
X42702Y73096D01*
X42710Y73126D01*
X42718Y73157D01*
X42740Y73223D01*
X42774Y73290D01*
X42793Y73323D01*
X42818Y73356D01*
X42843Y73387D01*
X42871Y73414D01*
X42873Y73417D01*
X42879Y73420D01*
X42887Y73428D01*
X42901Y73436D01*
X42918Y73448D01*
X42937Y73459D01*
X42959Y73472D01*
X42987Y73486D01*
X43018Y73500D01*
X43051Y73514D01*
X43087Y73525D01*
X43126Y73536D01*
X43167Y73545D01*
X43211Y73553D01*
X43259Y73556D01*
X43308Y73558D01*
X43336D01*
X43355Y73556D01*
D02*
G37*
G36*
X78633Y62756D02*
X78669Y62750D01*
X78714Y62742D01*
X78763Y62728D01*
X78813Y62711D01*
X78863Y62689D01*
X78866D01*
X78869Y62686D01*
X78885Y62678D01*
X78910Y62661D01*
X78938Y62642D01*
X78971Y62614D01*
X79004Y62584D01*
X79038Y62548D01*
X79065Y62506D01*
X79068Y62501D01*
X79076Y62487D01*
X79088Y62462D01*
X79101Y62432D01*
X79115Y62396D01*
X79126Y62354D01*
X79135Y62307D01*
X79137Y62260D01*
Y62254D01*
Y62238D01*
X79135Y62215D01*
X79129Y62185D01*
X79121Y62149D01*
X79107Y62110D01*
X79090Y62071D01*
X79068Y62033D01*
X79065Y62027D01*
X79057Y62016D01*
X79040Y61997D01*
X79018Y61974D01*
X78991Y61949D01*
X78957Y61922D01*
X78918Y61897D01*
X78871Y61872D01*
X78874D01*
X78880Y61869D01*
X78888Y61866D01*
X78899Y61864D01*
X78930Y61853D01*
X78968Y61836D01*
X79013Y61814D01*
X79057Y61786D01*
X79098Y61750D01*
X79137Y61708D01*
X79140Y61703D01*
X79151Y61686D01*
X79168Y61659D01*
X79184Y61623D01*
X79201Y61578D01*
X79218Y61526D01*
X79229Y61465D01*
X79232Y61398D01*
Y61396D01*
Y61387D01*
Y61373D01*
X79229Y61357D01*
X79226Y61335D01*
X79220Y61310D01*
X79215Y61282D01*
X79209Y61251D01*
X79187Y61185D01*
X79171Y61149D01*
X79154Y61116D01*
X79132Y61080D01*
X79107Y61044D01*
X79079Y61008D01*
X79046Y60975D01*
X79043Y60972D01*
X79038Y60966D01*
X79027Y60958D01*
X79013Y60947D01*
X78996Y60933D01*
X78974Y60919D01*
X78949Y60902D01*
X78918Y60889D01*
X78888Y60872D01*
X78852Y60855D01*
X78816Y60842D01*
X78774Y60828D01*
X78730Y60817D01*
X78683Y60808D01*
X78636Y60803D01*
X78583Y60800D01*
X78558D01*
X78542Y60803D01*
X78520Y60805D01*
X78495Y60808D01*
X78467Y60814D01*
X78436Y60819D01*
X78370Y60836D01*
X78301Y60864D01*
X78265Y60880D01*
X78232Y60900D01*
X78198Y60925D01*
X78165Y60949D01*
X78162Y60952D01*
X78157Y60958D01*
X78148Y60966D01*
X78140Y60977D01*
X78126Y60991D01*
X78112Y61010D01*
X78096Y61030D01*
X78079Y61055D01*
X78063Y61083D01*
X78046Y61110D01*
X78016Y61177D01*
X77991Y61254D01*
X77982Y61296D01*
X77977Y61340D01*
X78212Y61371D01*
Y61368D01*
X78215Y61362D01*
X78218Y61351D01*
X78220Y61337D01*
X78223Y61321D01*
X78229Y61301D01*
X78243Y61260D01*
X78262Y61210D01*
X78287Y61163D01*
X78315Y61119D01*
X78348Y61080D01*
X78353Y61077D01*
X78364Y61066D01*
X78387Y61052D01*
X78414Y61038D01*
X78448Y61022D01*
X78489Y61008D01*
X78536Y60997D01*
X78586Y60994D01*
X78603D01*
X78614Y60997D01*
X78644Y60999D01*
X78683Y61008D01*
X78727Y61022D01*
X78774Y61041D01*
X78821Y61069D01*
X78866Y61107D01*
X78871Y61113D01*
X78885Y61130D01*
X78902Y61155D01*
X78924Y61188D01*
X78946Y61229D01*
X78963Y61276D01*
X78977Y61332D01*
X78982Y61393D01*
Y61396D01*
Y61401D01*
Y61409D01*
X78979Y61420D01*
X78977Y61451D01*
X78968Y61487D01*
X78957Y61531D01*
X78938Y61576D01*
X78910Y61620D01*
X78874Y61661D01*
X78869Y61667D01*
X78855Y61678D01*
X78833Y61695D01*
X78802Y61714D01*
X78763Y61734D01*
X78716Y61750D01*
X78664Y61761D01*
X78606Y61767D01*
X78581D01*
X78561Y61764D01*
X78536Y61761D01*
X78509Y61756D01*
X78475Y61750D01*
X78439Y61742D01*
X78467Y61949D01*
X78481D01*
X78492Y61947D01*
X78528D01*
X78558Y61952D01*
X78594Y61958D01*
X78636Y61966D01*
X78683Y61980D01*
X78727Y61999D01*
X78774Y62024D01*
X78777D01*
X78780Y62027D01*
X78794Y62038D01*
X78813Y62058D01*
X78835Y62082D01*
X78858Y62119D01*
X78877Y62160D01*
X78891Y62207D01*
X78896Y62235D01*
Y62265D01*
Y62268D01*
Y62271D01*
Y62287D01*
X78891Y62310D01*
X78885Y62340D01*
X78874Y62373D01*
X78860Y62409D01*
X78838Y62445D01*
X78808Y62479D01*
X78805Y62481D01*
X78791Y62492D01*
X78772Y62506D01*
X78747Y62523D01*
X78714Y62537D01*
X78675Y62551D01*
X78630Y62562D01*
X78581Y62564D01*
X78558D01*
X78534Y62559D01*
X78500Y62553D01*
X78464Y62542D01*
X78428Y62528D01*
X78389Y62506D01*
X78353Y62479D01*
X78351Y62476D01*
X78340Y62462D01*
X78323Y62443D01*
X78303Y62415D01*
X78284Y62379D01*
X78265Y62335D01*
X78248Y62282D01*
X78237Y62221D01*
X78002Y62262D01*
Y62265D01*
X78004Y62274D01*
X78007Y62285D01*
X78010Y62301D01*
X78016Y62321D01*
X78024Y62343D01*
X78040Y62396D01*
X78068Y62456D01*
X78101Y62517D01*
X78143Y62576D01*
X78196Y62628D01*
X78198Y62631D01*
X78204Y62634D01*
X78212Y62639D01*
X78223Y62648D01*
X78237Y62659D01*
X78256Y62670D01*
X78276Y62681D01*
X78301Y62695D01*
X78356Y62717D01*
X78420Y62739D01*
X78495Y62753D01*
X78534Y62758D01*
X78603D01*
X78633Y62756D01*
D02*
G37*
G36*
X77655Y61443D02*
Y61440D01*
Y61431D01*
Y61420D01*
Y61404D01*
X77653Y61382D01*
Y61360D01*
X77647Y61307D01*
X77641Y61246D01*
X77630Y61182D01*
X77614Y61124D01*
X77594Y61069D01*
Y61066D01*
X77592Y61063D01*
X77583Y61046D01*
X77570Y61024D01*
X77550Y60994D01*
X77522Y60963D01*
X77492Y60930D01*
X77453Y60897D01*
X77409Y60869D01*
X77403Y60866D01*
X77387Y60858D01*
X77362Y60847D01*
X77326Y60836D01*
X77281Y60822D01*
X77232Y60811D01*
X77176Y60803D01*
X77115Y60800D01*
X77090D01*
X77074Y60803D01*
X77052Y60805D01*
X77029Y60808D01*
X76971Y60819D01*
X76910Y60836D01*
X76846Y60861D01*
X76813Y60878D01*
X76783Y60897D01*
X76755Y60919D01*
X76727Y60944D01*
X76725Y60947D01*
X76722Y60949D01*
X76716Y60961D01*
X76708Y60972D01*
X76697Y60986D01*
X76686Y61005D01*
X76675Y61027D01*
X76661Y61052D01*
X76650Y61080D01*
X76639Y61113D01*
X76628Y61146D01*
X76617Y61185D01*
X76611Y61226D01*
X76603Y61274D01*
X76600Y61321D01*
Y61373D01*
X76830Y61407D01*
Y61404D01*
Y61398D01*
Y61387D01*
X76833Y61371D01*
X76836Y61354D01*
Y61335D01*
X76844Y61287D01*
X76852Y61238D01*
X76869Y61188D01*
X76885Y61143D01*
X76896Y61124D01*
X76910Y61107D01*
X76913Y61105D01*
X76924Y61096D01*
X76941Y61083D01*
X76963Y61069D01*
X76993Y61052D01*
X77027Y61041D01*
X77068Y61030D01*
X77113Y61027D01*
X77129D01*
X77146Y61030D01*
X77171Y61033D01*
X77196Y61038D01*
X77223Y61044D01*
X77251Y61055D01*
X77279Y61069D01*
X77281Y61071D01*
X77290Y61077D01*
X77301Y61088D01*
X77317Y61099D01*
X77331Y61119D01*
X77348Y61138D01*
X77362Y61160D01*
X77373Y61188D01*
Y61190D01*
X77378Y61202D01*
X77381Y61221D01*
X77387Y61246D01*
X77392Y61279D01*
X77395Y61321D01*
X77400Y61371D01*
Y61429D01*
Y62750D01*
X77655D01*
Y61443D01*
D02*
G37*
G36*
X40400Y32785D02*
X38901D01*
X38904Y32782D01*
X38915Y32768D01*
X38932Y32752D01*
X38951Y32724D01*
X38976Y32693D01*
X39004Y32655D01*
X39034Y32610D01*
X39065Y32560D01*
Y32558D01*
X39068Y32555D01*
X39079Y32538D01*
X39093Y32511D01*
X39109Y32477D01*
X39129Y32438D01*
X39148Y32397D01*
X39167Y32355D01*
X39184Y32314D01*
X38957D01*
Y32317D01*
X38951Y32322D01*
X38949Y32333D01*
X38940Y32347D01*
X38932Y32364D01*
X38921Y32383D01*
X38893Y32430D01*
X38863Y32486D01*
X38824Y32541D01*
X38780Y32599D01*
X38732Y32657D01*
X38730Y32660D01*
X38727Y32663D01*
X38719Y32671D01*
X38710Y32682D01*
X38683Y32707D01*
X38649Y32740D01*
X38611Y32774D01*
X38566Y32810D01*
X38522Y32840D01*
X38475Y32868D01*
Y33020D01*
X40400D01*
Y32785D01*
D02*
G37*
G36*
Y31668D02*
X40001Y31416D01*
X39998D01*
X39993Y31411D01*
X39985Y31405D01*
X39973Y31397D01*
X39943Y31378D01*
X39904Y31353D01*
X39863Y31322D01*
X39818Y31292D01*
X39777Y31261D01*
X39738Y31234D01*
X39735Y31231D01*
X39724Y31222D01*
X39707Y31209D01*
X39688Y31189D01*
X39647Y31148D01*
X39627Y31126D01*
X39611Y31103D01*
X39608Y31101D01*
X39605Y31095D01*
X39599Y31084D01*
X39591Y31067D01*
X39583Y31051D01*
X39575Y31031D01*
X39561Y30987D01*
Y30984D01*
X39558Y30979D01*
Y30968D01*
X39555Y30954D01*
X39552Y30934D01*
Y30912D01*
X39550Y30882D01*
Y30555D01*
X40400D01*
Y30300D01*
X38483D01*
Y31189D01*
X38486Y31211D01*
Y31236D01*
X38489Y31295D01*
X38497Y31355D01*
X38505Y31422D01*
X38519Y31483D01*
X38528Y31513D01*
X38536Y31538D01*
Y31541D01*
X38539Y31544D01*
X38547Y31560D01*
X38558Y31585D01*
X38577Y31616D01*
X38602Y31649D01*
X38636Y31685D01*
X38674Y31718D01*
X38719Y31751D01*
X38721D01*
X38724Y31754D01*
X38741Y31765D01*
X38769Y31776D01*
X38805Y31793D01*
X38846Y31807D01*
X38896Y31821D01*
X38949Y31829D01*
X39007Y31832D01*
X39009D01*
X39015D01*
X39026D01*
X39040Y31829D01*
X39059D01*
X39079Y31826D01*
X39126Y31815D01*
X39181Y31799D01*
X39239Y31776D01*
X39298Y31743D01*
X39325Y31721D01*
X39353Y31699D01*
X39356Y31696D01*
X39358Y31693D01*
X39367Y31685D01*
X39375Y31674D01*
X39386Y31660D01*
X39397Y31644D01*
X39411Y31621D01*
X39428Y31599D01*
X39442Y31571D01*
X39455Y31541D01*
X39472Y31508D01*
X39486Y31472D01*
X39497Y31430D01*
X39511Y31389D01*
X39519Y31342D01*
X39527Y31292D01*
X39530Y31297D01*
X39536Y31308D01*
X39547Y31325D01*
X39558Y31347D01*
X39588Y31397D01*
X39608Y31422D01*
X39624Y31444D01*
X39630Y31450D01*
X39644Y31463D01*
X39666Y31486D01*
X39694Y31513D01*
X39732Y31544D01*
X39774Y31580D01*
X39824Y31616D01*
X39879Y31655D01*
X40400Y31984D01*
Y31668D01*
D02*
G37*
G36*
X35600Y31901D02*
X35597D01*
X35586D01*
X35570D01*
X35547Y31903D01*
X35522Y31906D01*
X35495Y31912D01*
X35467Y31917D01*
X35437Y31928D01*
X35434D01*
X35431Y31931D01*
X35414Y31936D01*
X35390Y31948D01*
X35356Y31964D01*
X35318Y31986D01*
X35273Y32014D01*
X35229Y32045D01*
X35182Y32083D01*
X35179D01*
X35176Y32089D01*
X35160Y32103D01*
X35135Y32128D01*
X35099Y32164D01*
X35057Y32205D01*
X35007Y32258D01*
X34952Y32322D01*
X34894Y32391D01*
X34891Y32394D01*
X34883Y32405D01*
X34869Y32421D01*
X34852Y32441D01*
X34830Y32466D01*
X34805Y32496D01*
X34777Y32526D01*
X34747Y32563D01*
X34680Y32632D01*
X34614Y32701D01*
X34581Y32734D01*
X34547Y32765D01*
X34517Y32792D01*
X34486Y32815D01*
X34484D01*
X34481Y32820D01*
X34473Y32826D01*
X34462Y32831D01*
X34431Y32851D01*
X34395Y32873D01*
X34351Y32892D01*
X34304Y32912D01*
X34251Y32923D01*
X34201Y32928D01*
X34198D01*
X34196D01*
X34179Y32925D01*
X34151Y32923D01*
X34121Y32914D01*
X34082Y32903D01*
X34043Y32884D01*
X34005Y32859D01*
X33966Y32826D01*
X33960Y32820D01*
X33949Y32806D01*
X33935Y32787D01*
X33916Y32757D01*
X33899Y32718D01*
X33883Y32673D01*
X33872Y32621D01*
X33869Y32563D01*
Y32546D01*
X33872Y32535D01*
X33874Y32502D01*
X33883Y32463D01*
X33894Y32421D01*
X33913Y32374D01*
X33938Y32330D01*
X33971Y32288D01*
X33977Y32283D01*
X33991Y32272D01*
X34013Y32255D01*
X34046Y32239D01*
X34085Y32219D01*
X34135Y32202D01*
X34190Y32191D01*
X34254Y32186D01*
X34229Y31945D01*
X34226D01*
X34218Y31948D01*
X34204D01*
X34185Y31950D01*
X34162Y31956D01*
X34137Y31962D01*
X34107Y31970D01*
X34077Y31978D01*
X34010Y32000D01*
X33944Y32034D01*
X33910Y32053D01*
X33877Y32078D01*
X33847Y32103D01*
X33819Y32130D01*
X33816Y32133D01*
X33813Y32139D01*
X33805Y32147D01*
X33797Y32161D01*
X33786Y32177D01*
X33775Y32197D01*
X33761Y32219D01*
X33747Y32247D01*
X33733Y32277D01*
X33719Y32311D01*
X33708Y32346D01*
X33697Y32385D01*
X33689Y32427D01*
X33680Y32471D01*
X33678Y32518D01*
X33675Y32568D01*
Y32596D01*
X33678Y32615D01*
X33680Y32637D01*
X33683Y32665D01*
X33689Y32695D01*
X33694Y32726D01*
X33714Y32798D01*
X33741Y32870D01*
X33758Y32906D01*
X33777Y32942D01*
X33802Y32975D01*
X33830Y33006D01*
X33833Y33009D01*
X33836Y33014D01*
X33847Y33020D01*
X33858Y33031D01*
X33872Y33044D01*
X33891Y33058D01*
X33910Y33072D01*
X33935Y33089D01*
X33988Y33117D01*
X34054Y33144D01*
X34088Y33155D01*
X34126Y33161D01*
X34165Y33166D01*
X34207Y33169D01*
X34212D01*
X34226D01*
X34248Y33166D01*
X34279Y33164D01*
X34312Y33158D01*
X34351Y33147D01*
X34392Y33136D01*
X34434Y33119D01*
X34439Y33117D01*
X34453Y33111D01*
X34475Y33100D01*
X34506Y33083D01*
X34539Y33061D01*
X34581Y33033D01*
X34622Y33000D01*
X34669Y32961D01*
X34675Y32956D01*
X34692Y32942D01*
X34705Y32928D01*
X34719Y32914D01*
X34736Y32898D01*
X34758Y32876D01*
X34780Y32853D01*
X34805Y32826D01*
X34833Y32798D01*
X34863Y32765D01*
X34894Y32729D01*
X34930Y32690D01*
X34966Y32646D01*
X35004Y32601D01*
X35007Y32599D01*
X35013Y32593D01*
X35021Y32582D01*
X35032Y32568D01*
X35049Y32552D01*
X35065Y32532D01*
X35102Y32488D01*
X35143Y32441D01*
X35185Y32396D01*
X35221Y32358D01*
X35234Y32341D01*
X35248Y32327D01*
X35251Y32324D01*
X35259Y32316D01*
X35270Y32305D01*
X35287Y32291D01*
X35306Y32277D01*
X35326Y32261D01*
X35373Y32227D01*
Y33172D01*
X35600D01*
Y31901D01*
D02*
G37*
G36*
Y31468D02*
X35201Y31216D01*
X35198D01*
X35193Y31211D01*
X35185Y31205D01*
X35173Y31197D01*
X35143Y31178D01*
X35104Y31153D01*
X35063Y31122D01*
X35018Y31092D01*
X34977Y31061D01*
X34938Y31034D01*
X34935Y31031D01*
X34924Y31022D01*
X34908Y31009D01*
X34888Y30989D01*
X34847Y30948D01*
X34827Y30926D01*
X34811Y30903D01*
X34808Y30900D01*
X34805Y30895D01*
X34800Y30884D01*
X34791Y30867D01*
X34783Y30851D01*
X34775Y30831D01*
X34761Y30787D01*
Y30784D01*
X34758Y30779D01*
Y30768D01*
X34755Y30754D01*
X34752Y30734D01*
Y30712D01*
X34750Y30682D01*
Y30355D01*
X35600D01*
Y30100D01*
X33683D01*
Y30989D01*
X33686Y31011D01*
Y31036D01*
X33689Y31095D01*
X33697Y31155D01*
X33705Y31222D01*
X33719Y31283D01*
X33727Y31313D01*
X33736Y31338D01*
Y31341D01*
X33739Y31344D01*
X33747Y31360D01*
X33758Y31385D01*
X33777Y31416D01*
X33802Y31449D01*
X33836Y31485D01*
X33874Y31518D01*
X33919Y31552D01*
X33921D01*
X33924Y31554D01*
X33941Y31565D01*
X33968Y31576D01*
X34005Y31593D01*
X34046Y31607D01*
X34096Y31621D01*
X34149Y31629D01*
X34207Y31632D01*
X34209D01*
X34215D01*
X34226D01*
X34240Y31629D01*
X34259D01*
X34279Y31626D01*
X34326Y31615D01*
X34381Y31599D01*
X34439Y31576D01*
X34498Y31543D01*
X34525Y31521D01*
X34553Y31499D01*
X34556Y31496D01*
X34558Y31493D01*
X34567Y31485D01*
X34575Y31474D01*
X34586Y31460D01*
X34597Y31444D01*
X34611Y31421D01*
X34628Y31399D01*
X34642Y31371D01*
X34655Y31341D01*
X34672Y31308D01*
X34686Y31272D01*
X34697Y31230D01*
X34711Y31189D01*
X34719Y31141D01*
X34727Y31092D01*
X34730Y31097D01*
X34736Y31108D01*
X34747Y31125D01*
X34758Y31147D01*
X34789Y31197D01*
X34808Y31222D01*
X34824Y31244D01*
X34830Y31250D01*
X34844Y31263D01*
X34866Y31286D01*
X34894Y31313D01*
X34933Y31344D01*
X34974Y31380D01*
X35024Y31416D01*
X35079Y31455D01*
X35600Y31784D01*
Y31468D01*
D02*
G37*
G36*
X79000Y46418D02*
X77501D01*
X77504Y46415D01*
X77515Y46402D01*
X77532Y46385D01*
X77551Y46357D01*
X77576Y46327D01*
X77604Y46288D01*
X77634Y46244D01*
X77665Y46194D01*
Y46191D01*
X77668Y46188D01*
X77679Y46172D01*
X77693Y46144D01*
X77709Y46111D01*
X77729Y46072D01*
X77748Y46030D01*
X77767Y45989D01*
X77784Y45947D01*
X77557D01*
Y45950D01*
X77551Y45956D01*
X77548Y45967D01*
X77540Y45981D01*
X77532Y45997D01*
X77521Y46016D01*
X77493Y46064D01*
X77463Y46119D01*
X77424Y46174D01*
X77380Y46233D01*
X77333Y46291D01*
X77330Y46294D01*
X77327Y46296D01*
X77319Y46305D01*
X77310Y46316D01*
X77283Y46341D01*
X77249Y46374D01*
X77211Y46407D01*
X77166Y46443D01*
X77122Y46474D01*
X77075Y46501D01*
Y46654D01*
X79000D01*
Y46418D01*
D02*
G37*
G36*
Y45174D02*
X77496Y44172D01*
X79000D01*
Y43928D01*
X77083D01*
Y44188D01*
X78590Y45194D01*
X77083D01*
Y45438D01*
X79000D01*
Y45174D01*
D02*
G37*
G36*
Y43368D02*
X78601Y43116D01*
X78598D01*
X78593Y43111D01*
X78584Y43105D01*
X78573Y43097D01*
X78543Y43077D01*
X78504Y43053D01*
X78463Y43022D01*
X78418Y42992D01*
X78377Y42961D01*
X78338Y42933D01*
X78335Y42931D01*
X78324Y42922D01*
X78307Y42909D01*
X78288Y42889D01*
X78247Y42848D01*
X78227Y42825D01*
X78211Y42803D01*
X78208Y42801D01*
X78205Y42795D01*
X78199Y42784D01*
X78191Y42767D01*
X78183Y42751D01*
X78175Y42731D01*
X78161Y42687D01*
Y42684D01*
X78158Y42679D01*
Y42668D01*
X78155Y42654D01*
X78152Y42634D01*
Y42612D01*
X78150Y42582D01*
Y42255D01*
X79000D01*
Y42000D01*
X77083D01*
Y42889D01*
X77086Y42911D01*
Y42936D01*
X77089Y42994D01*
X77097Y43055D01*
X77105Y43122D01*
X77119Y43183D01*
X77127Y43213D01*
X77136Y43238D01*
Y43241D01*
X77139Y43244D01*
X77147Y43260D01*
X77158Y43285D01*
X77177Y43316D01*
X77202Y43349D01*
X77236Y43385D01*
X77274Y43418D01*
X77319Y43451D01*
X77321D01*
X77324Y43454D01*
X77341Y43465D01*
X77368Y43476D01*
X77404Y43493D01*
X77446Y43507D01*
X77496Y43521D01*
X77548Y43529D01*
X77607Y43532D01*
X77609D01*
X77615D01*
X77626D01*
X77640Y43529D01*
X77659D01*
X77679Y43526D01*
X77726Y43515D01*
X77781Y43499D01*
X77839Y43476D01*
X77898Y43443D01*
X77925Y43421D01*
X77953Y43399D01*
X77956Y43396D01*
X77959Y43393D01*
X77967Y43385D01*
X77975Y43374D01*
X77986Y43360D01*
X77997Y43343D01*
X78011Y43321D01*
X78028Y43299D01*
X78042Y43271D01*
X78055Y43241D01*
X78072Y43208D01*
X78086Y43172D01*
X78097Y43130D01*
X78111Y43089D01*
X78119Y43042D01*
X78127Y42992D01*
X78130Y42997D01*
X78136Y43008D01*
X78147Y43025D01*
X78158Y43047D01*
X78188Y43097D01*
X78208Y43122D01*
X78224Y43144D01*
X78230Y43150D01*
X78244Y43163D01*
X78266Y43186D01*
X78294Y43213D01*
X78332Y43244D01*
X78374Y43280D01*
X78424Y43316D01*
X78479Y43354D01*
X79000Y43684D01*
Y43368D01*
D02*
G37*
G36*
X96400Y25213D02*
X94901D01*
X94904Y25210D01*
X94915Y25196D01*
X94932Y25180D01*
X94951Y25152D01*
X94976Y25122D01*
X95004Y25083D01*
X95034Y25039D01*
X95065Y24989D01*
Y24986D01*
X95068Y24983D01*
X95079Y24967D01*
X95093Y24939D01*
X95109Y24906D01*
X95129Y24867D01*
X95148Y24825D01*
X95167Y24784D01*
X95184Y24742D01*
X94957D01*
Y24745D01*
X94951Y24751D01*
X94949Y24762D01*
X94940Y24776D01*
X94932Y24792D01*
X94921Y24812D01*
X94893Y24859D01*
X94863Y24914D01*
X94824Y24969D01*
X94779Y25028D01*
X94732Y25086D01*
X94730Y25089D01*
X94727Y25091D01*
X94719Y25100D01*
X94710Y25111D01*
X94683Y25136D01*
X94649Y25169D01*
X94611Y25202D01*
X94566Y25238D01*
X94522Y25269D01*
X94475Y25296D01*
Y25449D01*
X96400D01*
Y25213D01*
D02*
G37*
G36*
X95893Y24307D02*
X95926Y24302D01*
X95965Y24296D01*
X96007Y24285D01*
X96051Y24271D01*
X96095Y24252D01*
X96101Y24249D01*
X96115Y24241D01*
X96134Y24230D01*
X96162Y24213D01*
X96189Y24191D01*
X96220Y24169D01*
X96250Y24141D01*
X96275Y24111D01*
X96278Y24108D01*
X96286Y24097D01*
X96298Y24078D01*
X96309Y24053D01*
X96325Y24022D01*
X96342Y23986D01*
X96356Y23947D01*
X96369Y23900D01*
Y23895D01*
X96375Y23878D01*
X96378Y23850D01*
X96383Y23814D01*
X96389Y23770D01*
X96394Y23717D01*
X96397Y23659D01*
X96400Y23593D01*
Y22861D01*
X94483D01*
Y23615D01*
X94486Y23634D01*
Y23656D01*
X94491Y23706D01*
X94497Y23762D01*
X94508Y23820D01*
X94522Y23878D01*
X94541Y23931D01*
Y23933D01*
X94544Y23936D01*
X94552Y23953D01*
X94566Y23978D01*
X94586Y24005D01*
X94611Y24039D01*
X94641Y24075D01*
X94680Y24108D01*
X94721Y24138D01*
X94727Y24141D01*
X94744Y24149D01*
X94766Y24163D01*
X94799Y24177D01*
X94838Y24191D01*
X94879Y24205D01*
X94926Y24213D01*
X94973Y24216D01*
X94979D01*
X94993D01*
X95018Y24213D01*
X95048Y24208D01*
X95084Y24199D01*
X95123Y24185D01*
X95162Y24169D01*
X95203Y24147D01*
X95209Y24144D01*
X95220Y24136D01*
X95242Y24119D01*
X95264Y24097D01*
X95292Y24069D01*
X95323Y24036D01*
X95350Y23994D01*
X95378Y23947D01*
Y23950D01*
X95381Y23956D01*
X95383Y23964D01*
X95389Y23975D01*
X95400Y24008D01*
X95419Y24047D01*
X95444Y24089D01*
X95475Y24136D01*
X95511Y24177D01*
X95555Y24216D01*
X95561Y24219D01*
X95577Y24230D01*
X95602Y24246D01*
X95635Y24263D01*
X95680Y24280D01*
X95727Y24296D01*
X95782Y24307D01*
X95843Y24310D01*
X95846D01*
X95849D01*
X95865D01*
X95893Y24307D01*
D02*
G37*
G36*
X95918Y22518D02*
X95957Y22512D01*
X96001Y22501D01*
X96048Y22488D01*
X96098Y22465D01*
X96151Y22435D01*
X96153D01*
X96156Y22432D01*
X96173Y22418D01*
X96198Y22399D01*
X96226Y22371D01*
X96259Y22335D01*
X96295Y22291D01*
X96328Y22241D01*
X96359Y22183D01*
Y22180D01*
X96361Y22174D01*
X96364Y22166D01*
X96369Y22155D01*
X96375Y22139D01*
X96383Y22119D01*
X96394Y22075D01*
X96408Y22022D01*
X96422Y21958D01*
X96430Y21889D01*
X96433Y21814D01*
Y21770D01*
X96430Y21748D01*
Y21723D01*
X96428Y21695D01*
X96425Y21662D01*
X96414Y21593D01*
X96403Y21521D01*
X96383Y21449D01*
X96359Y21380D01*
Y21377D01*
X96356Y21371D01*
X96350Y21363D01*
X96345Y21352D01*
X96328Y21318D01*
X96303Y21280D01*
X96270Y21236D01*
X96231Y21188D01*
X96184Y21144D01*
X96131Y21102D01*
X96128D01*
X96123Y21097D01*
X96115Y21094D01*
X96104Y21086D01*
X96090Y21080D01*
X96073Y21072D01*
X96032Y21053D01*
X95979Y21033D01*
X95921Y21017D01*
X95854Y21005D01*
X95785Y21000D01*
X95763Y21238D01*
X95766D01*
X95768D01*
X95777Y21241D01*
X95788D01*
X95813Y21247D01*
X95849Y21255D01*
X95885Y21266D01*
X95926Y21277D01*
X95965Y21296D01*
X96001Y21316D01*
X96004Y21318D01*
X96015Y21327D01*
X96034Y21341D01*
X96054Y21363D01*
X96079Y21391D01*
X96104Y21421D01*
X96128Y21463D01*
X96151Y21507D01*
Y21510D01*
X96153Y21512D01*
X96156Y21521D01*
X96159Y21529D01*
X96167Y21557D01*
X96178Y21593D01*
X96189Y21637D01*
X96198Y21687D01*
X96203Y21742D01*
X96206Y21803D01*
Y21828D01*
X96203Y21856D01*
X96201Y21889D01*
X96195Y21928D01*
X96189Y21972D01*
X96178Y22017D01*
X96165Y22058D01*
X96162Y22064D01*
X96156Y22077D01*
X96145Y22097D01*
X96134Y22122D01*
X96115Y22147D01*
X96095Y22174D01*
X96073Y22202D01*
X96045Y22224D01*
X96043Y22227D01*
X96032Y22233D01*
X96018Y22241D01*
X95996Y22252D01*
X95973Y22263D01*
X95946Y22271D01*
X95915Y22277D01*
X95882Y22280D01*
X95879D01*
X95865D01*
X95849Y22277D01*
X95827Y22274D01*
X95804Y22266D01*
X95777Y22258D01*
X95749Y22244D01*
X95724Y22224D01*
X95721Y22222D01*
X95713Y22213D01*
X95702Y22202D01*
X95685Y22183D01*
X95669Y22161D01*
X95649Y22130D01*
X95630Y22094D01*
X95613Y22053D01*
X95611Y22050D01*
X95608Y22036D01*
X95600Y22014D01*
X95597Y22000D01*
X95591Y21981D01*
X95583Y21961D01*
X95577Y21936D01*
X95569Y21909D01*
X95561Y21875D01*
X95552Y21842D01*
X95541Y21803D01*
X95530Y21759D01*
X95519Y21712D01*
Y21709D01*
X95516Y21701D01*
X95514Y21687D01*
X95508Y21670D01*
X95503Y21648D01*
X95497Y21623D01*
X95480Y21568D01*
X95461Y21507D01*
X95442Y21443D01*
X95422Y21388D01*
X95411Y21363D01*
X95400Y21341D01*
Y21338D01*
X95397Y21335D01*
X95386Y21318D01*
X95372Y21294D01*
X95350Y21266D01*
X95325Y21233D01*
X95295Y21199D01*
X95259Y21166D01*
X95220Y21138D01*
X95214Y21136D01*
X95201Y21127D01*
X95178Y21116D01*
X95151Y21105D01*
X95115Y21094D01*
X95073Y21083D01*
X95029Y21075D01*
X94982Y21072D01*
X94979D01*
X94976D01*
X94968D01*
X94957D01*
X94929Y21078D01*
X94893Y21083D01*
X94852Y21091D01*
X94805Y21105D01*
X94757Y21125D01*
X94710Y21152D01*
X94708D01*
X94705Y21155D01*
X94688Y21169D01*
X94666Y21188D01*
X94638Y21213D01*
X94608Y21247D01*
X94575Y21288D01*
X94544Y21338D01*
X94516Y21393D01*
Y21396D01*
X94514Y21402D01*
X94511Y21410D01*
X94505Y21421D01*
X94500Y21435D01*
X94494Y21454D01*
X94483Y21496D01*
X94472Y21549D01*
X94461Y21609D01*
X94453Y21673D01*
X94450Y21745D01*
Y21781D01*
X94453Y21801D01*
Y21820D01*
X94458Y21873D01*
X94467Y21931D01*
X94480Y21992D01*
X94497Y22058D01*
X94519Y22119D01*
Y22122D01*
X94522Y22127D01*
X94528Y22136D01*
X94533Y22147D01*
X94547Y22174D01*
X94572Y22210D01*
X94599Y22252D01*
X94635Y22294D01*
X94677Y22332D01*
X94724Y22368D01*
X94727D01*
X94730Y22371D01*
X94738Y22377D01*
X94746Y22382D01*
X94774Y22396D01*
X94810Y22413D01*
X94854Y22432D01*
X94907Y22446D01*
X94962Y22460D01*
X95023Y22465D01*
X95043Y22222D01*
X95040D01*
X95034D01*
X95026Y22219D01*
X95012Y22216D01*
X94982Y22208D01*
X94940Y22197D01*
X94896Y22180D01*
X94852Y22155D01*
X94810Y22125D01*
X94771Y22086D01*
X94769Y22080D01*
X94757Y22066D01*
X94741Y22039D01*
X94724Y22003D01*
X94708Y21956D01*
X94691Y21900D01*
X94680Y21831D01*
X94677Y21753D01*
Y21715D01*
X94680Y21698D01*
X94683Y21676D01*
X94688Y21626D01*
X94699Y21571D01*
X94713Y21515D01*
X94735Y21463D01*
X94749Y21440D01*
X94763Y21418D01*
X94766Y21413D01*
X94777Y21402D01*
X94796Y21385D01*
X94818Y21368D01*
X94849Y21349D01*
X94882Y21332D01*
X94921Y21321D01*
X94965Y21316D01*
X94971D01*
X94982D01*
X95001Y21318D01*
X95023Y21324D01*
X95051Y21332D01*
X95079Y21346D01*
X95106Y21363D01*
X95134Y21388D01*
X95137Y21391D01*
X95145Y21404D01*
X95153Y21416D01*
X95159Y21427D01*
X95167Y21443D01*
X95178Y21463D01*
X95187Y21487D01*
X95198Y21515D01*
X95209Y21546D01*
X95223Y21582D01*
X95234Y21621D01*
X95248Y21665D01*
X95259Y21715D01*
X95273Y21770D01*
Y21773D01*
X95275Y21784D01*
X95278Y21801D01*
X95284Y21820D01*
X95289Y21845D01*
X95297Y21875D01*
X95306Y21906D01*
X95314Y21939D01*
X95334Y22011D01*
X95353Y22080D01*
X95364Y22114D01*
X95375Y22144D01*
X95383Y22172D01*
X95394Y22194D01*
Y22197D01*
X95397Y22202D01*
X95403Y22210D01*
X95408Y22222D01*
X95425Y22252D01*
X95447Y22288D01*
X95478Y22330D01*
X95511Y22371D01*
X95550Y22410D01*
X95591Y22443D01*
X95597Y22446D01*
X95611Y22457D01*
X95635Y22468D01*
X95669Y22485D01*
X95707Y22499D01*
X95755Y22512D01*
X95807Y22521D01*
X95863Y22524D01*
X95865D01*
X95868D01*
X95876D01*
X95888D01*
X95918Y22518D01*
D02*
G37*
G36*
X90700Y24529D02*
X90697D01*
X90686D01*
X90670D01*
X90647Y24532D01*
X90622Y24534D01*
X90595Y24540D01*
X90567Y24546D01*
X90537Y24557D01*
X90534D01*
X90531Y24559D01*
X90514Y24565D01*
X90490Y24576D01*
X90456Y24593D01*
X90417Y24615D01*
X90373Y24643D01*
X90329Y24673D01*
X90282Y24712D01*
X90279D01*
X90276Y24717D01*
X90260Y24731D01*
X90235Y24756D01*
X90199Y24792D01*
X90157Y24834D01*
X90107Y24886D01*
X90052Y24950D01*
X89994Y25019D01*
X89991Y25022D01*
X89983Y25033D01*
X89969Y25050D01*
X89952Y25069D01*
X89930Y25094D01*
X89905Y25124D01*
X89877Y25155D01*
X89847Y25191D01*
X89780Y25260D01*
X89714Y25330D01*
X89681Y25363D01*
X89647Y25393D01*
X89617Y25421D01*
X89587Y25443D01*
X89584D01*
X89581Y25449D01*
X89573Y25454D01*
X89561Y25460D01*
X89531Y25479D01*
X89495Y25501D01*
X89451Y25521D01*
X89404Y25540D01*
X89351Y25551D01*
X89301Y25557D01*
X89298D01*
X89296D01*
X89279Y25554D01*
X89251Y25551D01*
X89221Y25543D01*
X89182Y25532D01*
X89143Y25512D01*
X89104Y25487D01*
X89066Y25454D01*
X89060Y25449D01*
X89049Y25435D01*
X89035Y25415D01*
X89016Y25385D01*
X88999Y25346D01*
X88983Y25302D01*
X88972Y25249D01*
X88969Y25191D01*
Y25174D01*
X88972Y25163D01*
X88974Y25130D01*
X88983Y25091D01*
X88994Y25050D01*
X89013Y25003D01*
X89038Y24958D01*
X89071Y24917D01*
X89077Y24911D01*
X89091Y24900D01*
X89113Y24883D01*
X89146Y24867D01*
X89185Y24848D01*
X89235Y24831D01*
X89290Y24820D01*
X89354Y24814D01*
X89329Y24573D01*
X89326D01*
X89318Y24576D01*
X89304D01*
X89284Y24579D01*
X89262Y24584D01*
X89237Y24590D01*
X89207Y24598D01*
X89176Y24607D01*
X89110Y24629D01*
X89043Y24662D01*
X89010Y24681D01*
X88977Y24706D01*
X88947Y24731D01*
X88919Y24759D01*
X88916Y24762D01*
X88913Y24767D01*
X88905Y24776D01*
X88897Y24789D01*
X88886Y24806D01*
X88875Y24825D01*
X88861Y24848D01*
X88847Y24875D01*
X88833Y24906D01*
X88819Y24939D01*
X88808Y24975D01*
X88797Y25014D01*
X88789Y25055D01*
X88780Y25100D01*
X88778Y25147D01*
X88775Y25196D01*
Y25224D01*
X88778Y25244D01*
X88780Y25266D01*
X88783Y25293D01*
X88789Y25324D01*
X88794Y25354D01*
X88814Y25427D01*
X88841Y25499D01*
X88858Y25534D01*
X88877Y25570D01*
X88902Y25604D01*
X88930Y25634D01*
X88933Y25637D01*
X88936Y25642D01*
X88947Y25648D01*
X88958Y25659D01*
X88972Y25673D01*
X88991Y25687D01*
X89010Y25701D01*
X89035Y25717D01*
X89088Y25745D01*
X89154Y25773D01*
X89188Y25784D01*
X89226Y25789D01*
X89265Y25795D01*
X89307Y25798D01*
X89312D01*
X89326D01*
X89348Y25795D01*
X89379Y25792D01*
X89412Y25787D01*
X89451Y25776D01*
X89492Y25764D01*
X89534Y25748D01*
X89539Y25745D01*
X89553Y25739D01*
X89575Y25728D01*
X89606Y25712D01*
X89639Y25690D01*
X89681Y25662D01*
X89722Y25629D01*
X89769Y25590D01*
X89775Y25584D01*
X89791Y25570D01*
X89805Y25557D01*
X89819Y25543D01*
X89836Y25526D01*
X89858Y25504D01*
X89880Y25482D01*
X89905Y25454D01*
X89933Y25427D01*
X89963Y25393D01*
X89994Y25357D01*
X90030Y25318D01*
X90066Y25274D01*
X90104Y25230D01*
X90107Y25227D01*
X90113Y25221D01*
X90121Y25210D01*
X90132Y25196D01*
X90149Y25180D01*
X90165Y25161D01*
X90201Y25116D01*
X90243Y25069D01*
X90285Y25025D01*
X90320Y24986D01*
X90334Y24969D01*
X90348Y24956D01*
X90351Y24953D01*
X90359Y24945D01*
X90370Y24933D01*
X90387Y24920D01*
X90406Y24906D01*
X90426Y24889D01*
X90473Y24856D01*
Y25800D01*
X90700D01*
Y24529D01*
D02*
G37*
G36*
X90193Y24307D02*
X90226Y24302D01*
X90265Y24296D01*
X90307Y24285D01*
X90351Y24271D01*
X90395Y24252D01*
X90401Y24249D01*
X90415Y24241D01*
X90434Y24230D01*
X90462Y24213D01*
X90490Y24191D01*
X90520Y24169D01*
X90550Y24141D01*
X90575Y24111D01*
X90578Y24108D01*
X90586Y24097D01*
X90597Y24078D01*
X90609Y24053D01*
X90625Y24022D01*
X90642Y23986D01*
X90656Y23947D01*
X90670Y23900D01*
Y23895D01*
X90675Y23878D01*
X90678Y23850D01*
X90683Y23814D01*
X90689Y23770D01*
X90694Y23717D01*
X90697Y23659D01*
X90700Y23593D01*
Y22861D01*
X88783D01*
Y23615D01*
X88786Y23634D01*
Y23656D01*
X88792Y23706D01*
X88797Y23762D01*
X88808Y23820D01*
X88822Y23878D01*
X88841Y23931D01*
Y23933D01*
X88844Y23936D01*
X88852Y23953D01*
X88866Y23978D01*
X88886Y24005D01*
X88911Y24039D01*
X88941Y24075D01*
X88980Y24108D01*
X89021Y24138D01*
X89027Y24141D01*
X89043Y24149D01*
X89066Y24163D01*
X89099Y24177D01*
X89138Y24191D01*
X89179Y24205D01*
X89226Y24213D01*
X89274Y24216D01*
X89279D01*
X89293D01*
X89318Y24213D01*
X89348Y24208D01*
X89384Y24199D01*
X89423Y24185D01*
X89462Y24169D01*
X89503Y24147D01*
X89509Y24144D01*
X89520Y24136D01*
X89542Y24119D01*
X89564Y24097D01*
X89592Y24069D01*
X89622Y24036D01*
X89650Y23994D01*
X89678Y23947D01*
Y23950D01*
X89681Y23956D01*
X89683Y23964D01*
X89689Y23975D01*
X89700Y24008D01*
X89719Y24047D01*
X89744Y24089D01*
X89775Y24136D01*
X89811Y24177D01*
X89855Y24216D01*
X89861Y24219D01*
X89877Y24230D01*
X89902Y24246D01*
X89935Y24263D01*
X89980Y24280D01*
X90027Y24296D01*
X90082Y24307D01*
X90143Y24310D01*
X90146D01*
X90149D01*
X90165D01*
X90193Y24307D01*
D02*
G37*
G36*
X90218Y22518D02*
X90257Y22512D01*
X90301Y22501D01*
X90348Y22488D01*
X90398Y22465D01*
X90451Y22435D01*
X90453D01*
X90456Y22432D01*
X90473Y22418D01*
X90498Y22399D01*
X90526Y22371D01*
X90559Y22335D01*
X90595Y22291D01*
X90628Y22241D01*
X90658Y22183D01*
Y22180D01*
X90661Y22174D01*
X90664Y22166D01*
X90670Y22155D01*
X90675Y22139D01*
X90683Y22119D01*
X90694Y22075D01*
X90708Y22022D01*
X90722Y21958D01*
X90731Y21889D01*
X90733Y21814D01*
Y21770D01*
X90731Y21748D01*
Y21723D01*
X90728Y21695D01*
X90725Y21662D01*
X90714Y21593D01*
X90703Y21521D01*
X90683Y21449D01*
X90658Y21380D01*
Y21377D01*
X90656Y21371D01*
X90650Y21363D01*
X90645Y21352D01*
X90628Y21318D01*
X90603Y21280D01*
X90570Y21236D01*
X90531Y21188D01*
X90484Y21144D01*
X90431Y21102D01*
X90429D01*
X90423Y21097D01*
X90415Y21094D01*
X90404Y21086D01*
X90390Y21080D01*
X90373Y21072D01*
X90332Y21053D01*
X90279Y21033D01*
X90221Y21017D01*
X90154Y21005D01*
X90085Y21000D01*
X90063Y21238D01*
X90066D01*
X90068D01*
X90077Y21241D01*
X90088D01*
X90113Y21247D01*
X90149Y21255D01*
X90185Y21266D01*
X90226Y21277D01*
X90265Y21296D01*
X90301Y21316D01*
X90304Y21318D01*
X90315Y21327D01*
X90334Y21341D01*
X90354Y21363D01*
X90379Y21391D01*
X90404Y21421D01*
X90429Y21463D01*
X90451Y21507D01*
Y21510D01*
X90453Y21512D01*
X90456Y21521D01*
X90459Y21529D01*
X90467Y21557D01*
X90478Y21593D01*
X90490Y21637D01*
X90498Y21687D01*
X90503Y21742D01*
X90506Y21803D01*
Y21828D01*
X90503Y21856D01*
X90501Y21889D01*
X90495Y21928D01*
X90490Y21972D01*
X90478Y22017D01*
X90465Y22058D01*
X90462Y22064D01*
X90456Y22077D01*
X90445Y22097D01*
X90434Y22122D01*
X90415Y22147D01*
X90395Y22174D01*
X90373Y22202D01*
X90345Y22224D01*
X90343Y22227D01*
X90332Y22233D01*
X90318Y22241D01*
X90296Y22252D01*
X90273Y22263D01*
X90246Y22271D01*
X90215Y22277D01*
X90182Y22280D01*
X90179D01*
X90165D01*
X90149Y22277D01*
X90127Y22274D01*
X90104Y22266D01*
X90077Y22258D01*
X90049Y22244D01*
X90024Y22224D01*
X90021Y22222D01*
X90013Y22213D01*
X90002Y22202D01*
X89985Y22183D01*
X89969Y22161D01*
X89949Y22130D01*
X89930Y22094D01*
X89913Y22053D01*
X89911Y22050D01*
X89908Y22036D01*
X89899Y22014D01*
X89897Y22000D01*
X89891Y21981D01*
X89883Y21961D01*
X89877Y21936D01*
X89869Y21909D01*
X89861Y21875D01*
X89852Y21842D01*
X89841Y21803D01*
X89830Y21759D01*
X89819Y21712D01*
Y21709D01*
X89816Y21701D01*
X89814Y21687D01*
X89808Y21670D01*
X89802Y21648D01*
X89797Y21623D01*
X89780Y21568D01*
X89761Y21507D01*
X89742Y21443D01*
X89722Y21388D01*
X89711Y21363D01*
X89700Y21341D01*
Y21338D01*
X89697Y21335D01*
X89686Y21318D01*
X89672Y21294D01*
X89650Y21266D01*
X89625Y21233D01*
X89595Y21199D01*
X89559Y21166D01*
X89520Y21138D01*
X89514Y21136D01*
X89501Y21127D01*
X89478Y21116D01*
X89451Y21105D01*
X89415Y21094D01*
X89373Y21083D01*
X89329Y21075D01*
X89282Y21072D01*
X89279D01*
X89276D01*
X89268D01*
X89257D01*
X89229Y21078D01*
X89193Y21083D01*
X89152Y21091D01*
X89104Y21105D01*
X89057Y21125D01*
X89010Y21152D01*
X89008D01*
X89005Y21155D01*
X88988Y21169D01*
X88966Y21188D01*
X88938Y21213D01*
X88908Y21247D01*
X88875Y21288D01*
X88844Y21338D01*
X88816Y21393D01*
Y21396D01*
X88814Y21402D01*
X88811Y21410D01*
X88805Y21421D01*
X88800Y21435D01*
X88794Y21454D01*
X88783Y21496D01*
X88772Y21549D01*
X88761Y21609D01*
X88753Y21673D01*
X88750Y21745D01*
Y21781D01*
X88753Y21801D01*
Y21820D01*
X88758Y21873D01*
X88766Y21931D01*
X88780Y21992D01*
X88797Y22058D01*
X88819Y22119D01*
Y22122D01*
X88822Y22127D01*
X88828Y22136D01*
X88833Y22147D01*
X88847Y22174D01*
X88872Y22210D01*
X88899Y22252D01*
X88936Y22294D01*
X88977Y22332D01*
X89024Y22368D01*
X89027D01*
X89030Y22371D01*
X89038Y22377D01*
X89046Y22382D01*
X89074Y22396D01*
X89110Y22413D01*
X89154Y22432D01*
X89207Y22446D01*
X89262Y22460D01*
X89323Y22465D01*
X89343Y22222D01*
X89340D01*
X89334D01*
X89326Y22219D01*
X89312Y22216D01*
X89282Y22208D01*
X89240Y22197D01*
X89196Y22180D01*
X89152Y22155D01*
X89110Y22125D01*
X89071Y22086D01*
X89069Y22080D01*
X89057Y22066D01*
X89041Y22039D01*
X89024Y22003D01*
X89008Y21956D01*
X88991Y21900D01*
X88980Y21831D01*
X88977Y21753D01*
Y21715D01*
X88980Y21698D01*
X88983Y21676D01*
X88988Y21626D01*
X88999Y21571D01*
X89013Y21515D01*
X89035Y21463D01*
X89049Y21440D01*
X89063Y21418D01*
X89066Y21413D01*
X89077Y21402D01*
X89096Y21385D01*
X89118Y21368D01*
X89149Y21349D01*
X89182Y21332D01*
X89221Y21321D01*
X89265Y21316D01*
X89271D01*
X89282D01*
X89301Y21318D01*
X89323Y21324D01*
X89351Y21332D01*
X89379Y21346D01*
X89406Y21363D01*
X89434Y21388D01*
X89437Y21391D01*
X89445Y21404D01*
X89454Y21416D01*
X89459Y21427D01*
X89467Y21443D01*
X89478Y21463D01*
X89487Y21487D01*
X89498Y21515D01*
X89509Y21546D01*
X89523Y21582D01*
X89534Y21621D01*
X89548Y21665D01*
X89559Y21715D01*
X89573Y21770D01*
Y21773D01*
X89575Y21784D01*
X89578Y21801D01*
X89584Y21820D01*
X89589Y21845D01*
X89597Y21875D01*
X89606Y21906D01*
X89614Y21939D01*
X89634Y22011D01*
X89653Y22080D01*
X89664Y22114D01*
X89675Y22144D01*
X89683Y22172D01*
X89694Y22194D01*
Y22197D01*
X89697Y22202D01*
X89703Y22210D01*
X89708Y22222D01*
X89725Y22252D01*
X89747Y22288D01*
X89778Y22330D01*
X89811Y22371D01*
X89850Y22410D01*
X89891Y22443D01*
X89897Y22446D01*
X89911Y22457D01*
X89935Y22468D01*
X89969Y22485D01*
X90008Y22499D01*
X90055Y22512D01*
X90107Y22521D01*
X90163Y22524D01*
X90165D01*
X90168D01*
X90176D01*
X90188D01*
X90218Y22518D01*
D02*
G37*
G36*
X84576Y25817D02*
X84599Y25814D01*
X84624Y25809D01*
X84651Y25803D01*
X84682Y25798D01*
X84748Y25776D01*
X84784Y25759D01*
X84817Y25742D01*
X84854Y25720D01*
X84890Y25695D01*
X84926Y25668D01*
X84959Y25634D01*
X84961Y25631D01*
X84967Y25626D01*
X84975Y25615D01*
X84986Y25601D01*
X85000Y25584D01*
X85014Y25562D01*
X85031Y25537D01*
X85045Y25507D01*
X85061Y25476D01*
X85078Y25440D01*
X85092Y25404D01*
X85106Y25363D01*
X85117Y25318D01*
X85125Y25271D01*
X85131Y25224D01*
X85133Y25172D01*
Y25147D01*
X85131Y25130D01*
X85128Y25108D01*
X85125Y25083D01*
X85119Y25055D01*
X85114Y25025D01*
X85097Y24958D01*
X85070Y24889D01*
X85053Y24853D01*
X85034Y24820D01*
X85009Y24787D01*
X84984Y24753D01*
X84981Y24751D01*
X84975Y24745D01*
X84967Y24737D01*
X84956Y24728D01*
X84942Y24715D01*
X84923Y24701D01*
X84903Y24684D01*
X84878Y24667D01*
X84851Y24651D01*
X84823Y24634D01*
X84756Y24604D01*
X84679Y24579D01*
X84637Y24570D01*
X84593Y24565D01*
X84563Y24800D01*
X84565D01*
X84571Y24803D01*
X84582Y24806D01*
X84596Y24809D01*
X84613Y24812D01*
X84632Y24817D01*
X84673Y24831D01*
X84723Y24850D01*
X84770Y24875D01*
X84815Y24903D01*
X84854Y24936D01*
X84856Y24942D01*
X84867Y24953D01*
X84881Y24975D01*
X84895Y25003D01*
X84912Y25036D01*
X84926Y25077D01*
X84937Y25124D01*
X84939Y25174D01*
Y25191D01*
X84937Y25202D01*
X84934Y25233D01*
X84926Y25271D01*
X84912Y25316D01*
X84892Y25363D01*
X84864Y25410D01*
X84826Y25454D01*
X84820Y25460D01*
X84804Y25474D01*
X84779Y25490D01*
X84745Y25512D01*
X84704Y25534D01*
X84657Y25551D01*
X84601Y25565D01*
X84540Y25570D01*
X84538D01*
X84532D01*
X84524D01*
X84513Y25568D01*
X84482Y25565D01*
X84446Y25557D01*
X84402Y25546D01*
X84358Y25526D01*
X84313Y25499D01*
X84272Y25462D01*
X84266Y25457D01*
X84255Y25443D01*
X84238Y25421D01*
X84219Y25390D01*
X84200Y25352D01*
X84183Y25305D01*
X84172Y25252D01*
X84167Y25194D01*
Y25169D01*
X84169Y25150D01*
X84172Y25124D01*
X84178Y25097D01*
X84183Y25064D01*
X84191Y25028D01*
X83984Y25055D01*
Y25069D01*
X83987Y25080D01*
Y25116D01*
X83981Y25147D01*
X83975Y25183D01*
X83967Y25224D01*
X83953Y25271D01*
X83934Y25316D01*
X83909Y25363D01*
Y25365D01*
X83906Y25368D01*
X83895Y25382D01*
X83876Y25401D01*
X83851Y25424D01*
X83815Y25446D01*
X83773Y25465D01*
X83726Y25479D01*
X83698Y25485D01*
X83668D01*
X83665D01*
X83662D01*
X83646D01*
X83624Y25479D01*
X83593Y25474D01*
X83560Y25462D01*
X83524Y25449D01*
X83488Y25427D01*
X83455Y25396D01*
X83452Y25393D01*
X83441Y25379D01*
X83427Y25360D01*
X83410Y25335D01*
X83397Y25302D01*
X83383Y25263D01*
X83372Y25219D01*
X83369Y25169D01*
Y25147D01*
X83374Y25122D01*
X83380Y25089D01*
X83391Y25052D01*
X83405Y25016D01*
X83427Y24978D01*
X83455Y24942D01*
X83457Y24939D01*
X83471Y24928D01*
X83491Y24911D01*
X83518Y24892D01*
X83554Y24872D01*
X83599Y24853D01*
X83651Y24836D01*
X83712Y24825D01*
X83671Y24590D01*
X83668D01*
X83660Y24593D01*
X83649Y24596D01*
X83632Y24598D01*
X83613Y24604D01*
X83590Y24612D01*
X83538Y24629D01*
X83477Y24656D01*
X83416Y24690D01*
X83358Y24731D01*
X83305Y24784D01*
X83302Y24787D01*
X83299Y24792D01*
X83294Y24800D01*
X83286Y24812D01*
X83275Y24825D01*
X83263Y24845D01*
X83252Y24864D01*
X83239Y24889D01*
X83216Y24945D01*
X83194Y25008D01*
X83180Y25083D01*
X83175Y25122D01*
Y25191D01*
X83178Y25221D01*
X83183Y25258D01*
X83192Y25302D01*
X83205Y25352D01*
X83222Y25401D01*
X83244Y25451D01*
Y25454D01*
X83247Y25457D01*
X83255Y25474D01*
X83272Y25499D01*
X83291Y25526D01*
X83319Y25559D01*
X83349Y25593D01*
X83385Y25626D01*
X83427Y25654D01*
X83433Y25656D01*
X83446Y25665D01*
X83471Y25676D01*
X83502Y25690D01*
X83538Y25703D01*
X83579Y25714D01*
X83626Y25723D01*
X83674Y25726D01*
X83679D01*
X83696D01*
X83718Y25723D01*
X83748Y25717D01*
X83784Y25709D01*
X83823Y25695D01*
X83862Y25679D01*
X83901Y25656D01*
X83906Y25654D01*
X83917Y25645D01*
X83937Y25629D01*
X83959Y25607D01*
X83984Y25579D01*
X84011Y25546D01*
X84036Y25507D01*
X84061Y25460D01*
Y25462D01*
X84064Y25468D01*
X84067Y25476D01*
X84070Y25487D01*
X84081Y25518D01*
X84097Y25557D01*
X84119Y25601D01*
X84147Y25645D01*
X84183Y25687D01*
X84225Y25726D01*
X84230Y25728D01*
X84247Y25739D01*
X84275Y25756D01*
X84311Y25773D01*
X84355Y25789D01*
X84408Y25806D01*
X84468Y25817D01*
X84535Y25820D01*
X84538D01*
X84546D01*
X84560D01*
X84576Y25817D01*
D02*
G37*
G36*
X84593Y24307D02*
X84626Y24302D01*
X84665Y24296D01*
X84707Y24285D01*
X84751Y24271D01*
X84795Y24252D01*
X84801Y24249D01*
X84815Y24241D01*
X84834Y24230D01*
X84862Y24213D01*
X84890Y24191D01*
X84920Y24169D01*
X84950Y24141D01*
X84975Y24111D01*
X84978Y24108D01*
X84986Y24097D01*
X84997Y24078D01*
X85009Y24053D01*
X85025Y24022D01*
X85042Y23986D01*
X85056Y23947D01*
X85070Y23900D01*
Y23895D01*
X85075Y23878D01*
X85078Y23850D01*
X85083Y23814D01*
X85089Y23770D01*
X85094Y23717D01*
X85097Y23659D01*
X85100Y23593D01*
Y22861D01*
X83183D01*
Y23615D01*
X83186Y23634D01*
Y23656D01*
X83192Y23706D01*
X83197Y23762D01*
X83208Y23820D01*
X83222Y23878D01*
X83241Y23931D01*
Y23933D01*
X83244Y23936D01*
X83252Y23953D01*
X83266Y23978D01*
X83286Y24005D01*
X83311Y24039D01*
X83341Y24075D01*
X83380Y24108D01*
X83421Y24138D01*
X83427Y24141D01*
X83443Y24149D01*
X83466Y24163D01*
X83499Y24177D01*
X83538Y24191D01*
X83579Y24205D01*
X83626Y24213D01*
X83674Y24216D01*
X83679D01*
X83693D01*
X83718Y24213D01*
X83748Y24208D01*
X83784Y24199D01*
X83823Y24185D01*
X83862Y24169D01*
X83903Y24147D01*
X83909Y24144D01*
X83920Y24136D01*
X83942Y24119D01*
X83964Y24097D01*
X83992Y24069D01*
X84022Y24036D01*
X84050Y23994D01*
X84078Y23947D01*
Y23950D01*
X84081Y23956D01*
X84083Y23964D01*
X84089Y23975D01*
X84100Y24008D01*
X84119Y24047D01*
X84144Y24089D01*
X84175Y24136D01*
X84211Y24177D01*
X84255Y24216D01*
X84261Y24219D01*
X84277Y24230D01*
X84302Y24246D01*
X84336Y24263D01*
X84380Y24280D01*
X84427Y24296D01*
X84482Y24307D01*
X84543Y24310D01*
X84546D01*
X84549D01*
X84565D01*
X84593Y24307D01*
D02*
G37*
G36*
X84618Y22518D02*
X84657Y22512D01*
X84701Y22501D01*
X84748Y22488D01*
X84798Y22465D01*
X84851Y22435D01*
X84854D01*
X84856Y22432D01*
X84873Y22418D01*
X84898Y22399D01*
X84926Y22371D01*
X84959Y22335D01*
X84995Y22291D01*
X85028Y22241D01*
X85058Y22183D01*
Y22180D01*
X85061Y22174D01*
X85064Y22166D01*
X85070Y22155D01*
X85075Y22139D01*
X85083Y22119D01*
X85094Y22075D01*
X85108Y22022D01*
X85122Y21958D01*
X85131Y21889D01*
X85133Y21814D01*
Y21770D01*
X85131Y21748D01*
Y21723D01*
X85128Y21695D01*
X85125Y21662D01*
X85114Y21593D01*
X85103Y21521D01*
X85083Y21449D01*
X85058Y21380D01*
Y21377D01*
X85056Y21371D01*
X85050Y21363D01*
X85045Y21352D01*
X85028Y21318D01*
X85003Y21280D01*
X84970Y21236D01*
X84931Y21188D01*
X84884Y21144D01*
X84831Y21102D01*
X84829D01*
X84823Y21097D01*
X84815Y21094D01*
X84804Y21086D01*
X84790Y21080D01*
X84773Y21072D01*
X84732Y21053D01*
X84679Y21033D01*
X84621Y21017D01*
X84554Y21005D01*
X84485Y21000D01*
X84463Y21238D01*
X84466D01*
X84468D01*
X84477Y21241D01*
X84488D01*
X84513Y21247D01*
X84549Y21255D01*
X84585Y21266D01*
X84626Y21277D01*
X84665Y21296D01*
X84701Y21316D01*
X84704Y21318D01*
X84715Y21327D01*
X84734Y21341D01*
X84754Y21363D01*
X84779Y21391D01*
X84804Y21421D01*
X84829Y21463D01*
X84851Y21507D01*
Y21510D01*
X84854Y21512D01*
X84856Y21521D01*
X84859Y21529D01*
X84867Y21557D01*
X84878Y21593D01*
X84890Y21637D01*
X84898Y21687D01*
X84903Y21742D01*
X84906Y21803D01*
Y21828D01*
X84903Y21856D01*
X84901Y21889D01*
X84895Y21928D01*
X84890Y21972D01*
X84878Y22017D01*
X84864Y22058D01*
X84862Y22064D01*
X84856Y22077D01*
X84845Y22097D01*
X84834Y22122D01*
X84815Y22147D01*
X84795Y22174D01*
X84773Y22202D01*
X84745Y22224D01*
X84743Y22227D01*
X84732Y22233D01*
X84718Y22241D01*
X84696Y22252D01*
X84673Y22263D01*
X84646Y22271D01*
X84615Y22277D01*
X84582Y22280D01*
X84579D01*
X84565D01*
X84549Y22277D01*
X84527Y22274D01*
X84504Y22266D01*
X84477Y22258D01*
X84449Y22244D01*
X84424Y22224D01*
X84421Y22222D01*
X84413Y22213D01*
X84402Y22202D01*
X84385Y22183D01*
X84369Y22161D01*
X84349Y22130D01*
X84330Y22094D01*
X84313Y22053D01*
X84311Y22050D01*
X84308Y22036D01*
X84299Y22014D01*
X84297Y22000D01*
X84291Y21981D01*
X84283Y21961D01*
X84277Y21936D01*
X84269Y21909D01*
X84261Y21875D01*
X84252Y21842D01*
X84241Y21803D01*
X84230Y21759D01*
X84219Y21712D01*
Y21709D01*
X84216Y21701D01*
X84214Y21687D01*
X84208Y21670D01*
X84202Y21648D01*
X84197Y21623D01*
X84180Y21568D01*
X84161Y21507D01*
X84142Y21443D01*
X84122Y21388D01*
X84111Y21363D01*
X84100Y21341D01*
Y21338D01*
X84097Y21335D01*
X84086Y21318D01*
X84072Y21294D01*
X84050Y21266D01*
X84025Y21233D01*
X83995Y21199D01*
X83959Y21166D01*
X83920Y21138D01*
X83914Y21136D01*
X83901Y21127D01*
X83878Y21116D01*
X83851Y21105D01*
X83815Y21094D01*
X83773Y21083D01*
X83729Y21075D01*
X83682Y21072D01*
X83679D01*
X83676D01*
X83668D01*
X83657D01*
X83629Y21078D01*
X83593Y21083D01*
X83552Y21091D01*
X83504Y21105D01*
X83457Y21125D01*
X83410Y21152D01*
X83407D01*
X83405Y21155D01*
X83388Y21169D01*
X83366Y21188D01*
X83338Y21213D01*
X83308Y21247D01*
X83275Y21288D01*
X83244Y21338D01*
X83216Y21393D01*
Y21396D01*
X83214Y21402D01*
X83211Y21410D01*
X83205Y21421D01*
X83200Y21435D01*
X83194Y21454D01*
X83183Y21496D01*
X83172Y21549D01*
X83161Y21609D01*
X83153Y21673D01*
X83150Y21745D01*
Y21781D01*
X83153Y21801D01*
Y21820D01*
X83158Y21873D01*
X83166Y21931D01*
X83180Y21992D01*
X83197Y22058D01*
X83219Y22119D01*
Y22122D01*
X83222Y22127D01*
X83227Y22136D01*
X83233Y22147D01*
X83247Y22174D01*
X83272Y22210D01*
X83299Y22252D01*
X83336Y22294D01*
X83377Y22332D01*
X83424Y22368D01*
X83427D01*
X83430Y22371D01*
X83438Y22377D01*
X83446Y22382D01*
X83474Y22396D01*
X83510Y22413D01*
X83554Y22432D01*
X83607Y22446D01*
X83662Y22460D01*
X83723Y22465D01*
X83743Y22222D01*
X83740D01*
X83734D01*
X83726Y22219D01*
X83712Y22216D01*
X83682Y22208D01*
X83640Y22197D01*
X83596Y22180D01*
X83552Y22155D01*
X83510Y22125D01*
X83471Y22086D01*
X83469Y22080D01*
X83457Y22066D01*
X83441Y22039D01*
X83424Y22003D01*
X83407Y21956D01*
X83391Y21900D01*
X83380Y21831D01*
X83377Y21753D01*
Y21715D01*
X83380Y21698D01*
X83383Y21676D01*
X83388Y21626D01*
X83399Y21571D01*
X83413Y21515D01*
X83435Y21463D01*
X83449Y21440D01*
X83463Y21418D01*
X83466Y21413D01*
X83477Y21402D01*
X83496Y21385D01*
X83518Y21368D01*
X83549Y21349D01*
X83582Y21332D01*
X83621Y21321D01*
X83665Y21316D01*
X83671D01*
X83682D01*
X83701Y21318D01*
X83723Y21324D01*
X83751Y21332D01*
X83779Y21346D01*
X83806Y21363D01*
X83834Y21388D01*
X83837Y21391D01*
X83845Y21404D01*
X83854Y21416D01*
X83859Y21427D01*
X83867Y21443D01*
X83878Y21463D01*
X83887Y21487D01*
X83898Y21515D01*
X83909Y21546D01*
X83923Y21582D01*
X83934Y21621D01*
X83948Y21665D01*
X83959Y21715D01*
X83973Y21770D01*
Y21773D01*
X83975Y21784D01*
X83978Y21801D01*
X83984Y21820D01*
X83989Y21845D01*
X83997Y21875D01*
X84006Y21906D01*
X84014Y21939D01*
X84034Y22011D01*
X84053Y22080D01*
X84064Y22114D01*
X84075Y22144D01*
X84083Y22172D01*
X84095Y22194D01*
Y22197D01*
X84097Y22202D01*
X84103Y22210D01*
X84108Y22222D01*
X84125Y22252D01*
X84147Y22288D01*
X84178Y22330D01*
X84211Y22371D01*
X84250Y22410D01*
X84291Y22443D01*
X84297Y22446D01*
X84311Y22457D01*
X84336Y22468D01*
X84369Y22485D01*
X84408Y22499D01*
X84455Y22512D01*
X84507Y22521D01*
X84563Y22524D01*
X84565D01*
X84568D01*
X84576D01*
X84588D01*
X84618Y22518D01*
D02*
G37*
G36*
X101540Y25551D02*
X102000D01*
Y25316D01*
X101540D01*
Y24482D01*
X101324D01*
X100083Y25360D01*
Y25551D01*
X101324D01*
Y25811D01*
X101540D01*
Y25551D01*
D02*
G37*
G36*
X101493Y24307D02*
X101526Y24302D01*
X101565Y24296D01*
X101607Y24285D01*
X101651Y24271D01*
X101695Y24252D01*
X101701Y24249D01*
X101715Y24241D01*
X101734Y24230D01*
X101762Y24213D01*
X101789Y24191D01*
X101820Y24169D01*
X101850Y24141D01*
X101875Y24111D01*
X101878Y24108D01*
X101886Y24097D01*
X101898Y24078D01*
X101909Y24053D01*
X101925Y24022D01*
X101942Y23986D01*
X101956Y23947D01*
X101970Y23900D01*
Y23895D01*
X101975Y23878D01*
X101978Y23850D01*
X101983Y23814D01*
X101989Y23770D01*
X101995Y23717D01*
X101997Y23659D01*
X102000Y23593D01*
Y22861D01*
X100083D01*
Y23615D01*
X100086Y23634D01*
Y23656D01*
X100092Y23706D01*
X100097Y23762D01*
X100108Y23820D01*
X100122Y23878D01*
X100141Y23931D01*
Y23933D01*
X100144Y23936D01*
X100152Y23953D01*
X100166Y23978D01*
X100186Y24005D01*
X100211Y24039D01*
X100241Y24075D01*
X100280Y24108D01*
X100321Y24138D01*
X100327Y24141D01*
X100344Y24149D01*
X100366Y24163D01*
X100399Y24177D01*
X100438Y24191D01*
X100479Y24205D01*
X100526Y24213D01*
X100574Y24216D01*
X100579D01*
X100593D01*
X100618Y24213D01*
X100648Y24208D01*
X100684Y24199D01*
X100723Y24185D01*
X100762Y24169D01*
X100803Y24147D01*
X100809Y24144D01*
X100820Y24136D01*
X100842Y24119D01*
X100864Y24097D01*
X100892Y24069D01*
X100923Y24036D01*
X100950Y23994D01*
X100978Y23947D01*
Y23950D01*
X100981Y23956D01*
X100983Y23964D01*
X100989Y23975D01*
X101000Y24008D01*
X101019Y24047D01*
X101044Y24089D01*
X101075Y24136D01*
X101111Y24177D01*
X101155Y24216D01*
X101161Y24219D01*
X101177Y24230D01*
X101202Y24246D01*
X101235Y24263D01*
X101280Y24280D01*
X101327Y24296D01*
X101382Y24307D01*
X101443Y24310D01*
X101446D01*
X101449D01*
X101465D01*
X101493Y24307D01*
D02*
G37*
G36*
X101518Y22518D02*
X101557Y22512D01*
X101601Y22501D01*
X101648Y22488D01*
X101698Y22465D01*
X101751Y22435D01*
X101753D01*
X101756Y22432D01*
X101773Y22418D01*
X101798Y22399D01*
X101825Y22371D01*
X101859Y22335D01*
X101895Y22291D01*
X101928Y22241D01*
X101959Y22183D01*
Y22180D01*
X101961Y22174D01*
X101964Y22166D01*
X101970Y22155D01*
X101975Y22139D01*
X101983Y22119D01*
X101995Y22075D01*
X102008Y22022D01*
X102022Y21958D01*
X102031Y21889D01*
X102033Y21814D01*
Y21770D01*
X102031Y21748D01*
Y21723D01*
X102028Y21695D01*
X102025Y21662D01*
X102014Y21593D01*
X102003Y21521D01*
X101983Y21449D01*
X101959Y21380D01*
Y21377D01*
X101956Y21371D01*
X101950Y21363D01*
X101945Y21352D01*
X101928Y21318D01*
X101903Y21280D01*
X101870Y21236D01*
X101831Y21188D01*
X101784Y21144D01*
X101731Y21102D01*
X101728D01*
X101723Y21097D01*
X101715Y21094D01*
X101704Y21086D01*
X101690Y21080D01*
X101673Y21072D01*
X101632Y21053D01*
X101579Y21033D01*
X101521Y21017D01*
X101454Y21005D01*
X101385Y21000D01*
X101363Y21238D01*
X101366D01*
X101368D01*
X101377Y21241D01*
X101388D01*
X101413Y21247D01*
X101449Y21255D01*
X101485Y21266D01*
X101526Y21277D01*
X101565Y21296D01*
X101601Y21316D01*
X101604Y21318D01*
X101615Y21327D01*
X101634Y21341D01*
X101654Y21363D01*
X101679Y21391D01*
X101704Y21421D01*
X101728Y21463D01*
X101751Y21507D01*
Y21510D01*
X101753Y21512D01*
X101756Y21521D01*
X101759Y21529D01*
X101767Y21557D01*
X101778Y21593D01*
X101789Y21637D01*
X101798Y21687D01*
X101803Y21742D01*
X101806Y21803D01*
Y21828D01*
X101803Y21856D01*
X101801Y21889D01*
X101795Y21928D01*
X101789Y21972D01*
X101778Y22017D01*
X101765Y22058D01*
X101762Y22064D01*
X101756Y22077D01*
X101745Y22097D01*
X101734Y22122D01*
X101715Y22147D01*
X101695Y22174D01*
X101673Y22202D01*
X101645Y22224D01*
X101643Y22227D01*
X101632Y22233D01*
X101618Y22241D01*
X101596Y22252D01*
X101573Y22263D01*
X101546Y22271D01*
X101515Y22277D01*
X101482Y22280D01*
X101479D01*
X101465D01*
X101449Y22277D01*
X101427Y22274D01*
X101404Y22266D01*
X101377Y22258D01*
X101349Y22244D01*
X101324Y22224D01*
X101321Y22222D01*
X101313Y22213D01*
X101302Y22202D01*
X101285Y22183D01*
X101269Y22161D01*
X101249Y22130D01*
X101230Y22094D01*
X101213Y22053D01*
X101211Y22050D01*
X101208Y22036D01*
X101199Y22014D01*
X101197Y22000D01*
X101191Y21981D01*
X101183Y21961D01*
X101177Y21936D01*
X101169Y21909D01*
X101161Y21875D01*
X101152Y21842D01*
X101141Y21803D01*
X101130Y21759D01*
X101119Y21712D01*
Y21709D01*
X101116Y21701D01*
X101114Y21687D01*
X101108Y21670D01*
X101102Y21648D01*
X101097Y21623D01*
X101080Y21568D01*
X101061Y21507D01*
X101042Y21443D01*
X101022Y21388D01*
X101011Y21363D01*
X101000Y21341D01*
Y21338D01*
X100997Y21335D01*
X100986Y21318D01*
X100972Y21294D01*
X100950Y21266D01*
X100925Y21233D01*
X100895Y21199D01*
X100859Y21166D01*
X100820Y21138D01*
X100814Y21136D01*
X100801Y21127D01*
X100778Y21116D01*
X100751Y21105D01*
X100715Y21094D01*
X100673Y21083D01*
X100629Y21075D01*
X100582Y21072D01*
X100579D01*
X100576D01*
X100568D01*
X100557D01*
X100529Y21078D01*
X100493Y21083D01*
X100452Y21091D01*
X100405Y21105D01*
X100357Y21125D01*
X100310Y21152D01*
X100308D01*
X100305Y21155D01*
X100288Y21169D01*
X100266Y21188D01*
X100238Y21213D01*
X100208Y21247D01*
X100175Y21288D01*
X100144Y21338D01*
X100116Y21393D01*
Y21396D01*
X100114Y21402D01*
X100111Y21410D01*
X100105Y21421D01*
X100100Y21435D01*
X100094Y21454D01*
X100083Y21496D01*
X100072Y21549D01*
X100061Y21609D01*
X100053Y21673D01*
X100050Y21745D01*
Y21781D01*
X100053Y21801D01*
Y21820D01*
X100058Y21873D01*
X100066Y21931D01*
X100080Y21992D01*
X100097Y22058D01*
X100119Y22119D01*
Y22122D01*
X100122Y22127D01*
X100127Y22136D01*
X100133Y22147D01*
X100147Y22174D01*
X100172Y22210D01*
X100199Y22252D01*
X100235Y22294D01*
X100277Y22332D01*
X100324Y22368D01*
X100327D01*
X100330Y22371D01*
X100338Y22377D01*
X100346Y22382D01*
X100374Y22396D01*
X100410Y22413D01*
X100454Y22432D01*
X100507Y22446D01*
X100562Y22460D01*
X100623Y22465D01*
X100643Y22222D01*
X100640D01*
X100634D01*
X100626Y22219D01*
X100612Y22216D01*
X100582Y22208D01*
X100540Y22197D01*
X100496Y22180D01*
X100452Y22155D01*
X100410Y22125D01*
X100371Y22086D01*
X100368Y22080D01*
X100357Y22066D01*
X100341Y22039D01*
X100324Y22003D01*
X100308Y21956D01*
X100291Y21900D01*
X100280Y21831D01*
X100277Y21753D01*
Y21715D01*
X100280Y21698D01*
X100283Y21676D01*
X100288Y21626D01*
X100299Y21571D01*
X100313Y21515D01*
X100335Y21463D01*
X100349Y21440D01*
X100363Y21418D01*
X100366Y21413D01*
X100377Y21402D01*
X100396Y21385D01*
X100418Y21368D01*
X100449Y21349D01*
X100482Y21332D01*
X100521Y21321D01*
X100565Y21316D01*
X100571D01*
X100582D01*
X100601Y21318D01*
X100623Y21324D01*
X100651Y21332D01*
X100679Y21346D01*
X100706Y21363D01*
X100734Y21388D01*
X100737Y21391D01*
X100745Y21404D01*
X100753Y21416D01*
X100759Y21427D01*
X100767Y21443D01*
X100778Y21463D01*
X100787Y21487D01*
X100798Y21515D01*
X100809Y21546D01*
X100823Y21582D01*
X100834Y21621D01*
X100848Y21665D01*
X100859Y21715D01*
X100873Y21770D01*
Y21773D01*
X100875Y21784D01*
X100878Y21801D01*
X100884Y21820D01*
X100889Y21845D01*
X100898Y21875D01*
X100906Y21906D01*
X100914Y21939D01*
X100934Y22011D01*
X100953Y22080D01*
X100964Y22114D01*
X100975Y22144D01*
X100983Y22172D01*
X100995Y22194D01*
Y22197D01*
X100997Y22202D01*
X101003Y22210D01*
X101008Y22222D01*
X101025Y22252D01*
X101047Y22288D01*
X101078Y22330D01*
X101111Y22371D01*
X101150Y22410D01*
X101191Y22443D01*
X101197Y22446D01*
X101211Y22457D01*
X101235Y22468D01*
X101269Y22485D01*
X101307Y22499D01*
X101355Y22512D01*
X101407Y22521D01*
X101463Y22524D01*
X101465D01*
X101468D01*
X101477D01*
X101488D01*
X101518Y22518D01*
D02*
G37*
G36*
X60707Y23209D02*
Y23206D01*
Y23195D01*
Y23181D01*
Y23162D01*
X60704Y23137D01*
Y23109D01*
X60701Y23076D01*
X60699Y23043D01*
X60690Y22968D01*
X60679Y22890D01*
X60663Y22816D01*
X60651Y22780D01*
X60640Y22746D01*
Y22743D01*
X60638Y22738D01*
X60632Y22730D01*
X60627Y22718D01*
X60610Y22688D01*
X60585Y22649D01*
X60552Y22605D01*
X60513Y22561D01*
X60463Y22514D01*
X60402Y22472D01*
X60399D01*
X60394Y22467D01*
X60386Y22464D01*
X60372Y22455D01*
X60355Y22447D01*
X60333Y22439D01*
X60311Y22431D01*
X60283Y22419D01*
X60253Y22408D01*
X60219Y22400D01*
X60183Y22392D01*
X60142Y22383D01*
X60100Y22378D01*
X60056Y22372D01*
X59956Y22367D01*
X59931D01*
X59912Y22369D01*
X59890D01*
X59862Y22372D01*
X59832Y22375D01*
X59801Y22378D01*
X59732Y22389D01*
X59657Y22406D01*
X59585Y22428D01*
X59516Y22458D01*
X59513D01*
X59508Y22464D01*
X59499Y22469D01*
X59488Y22475D01*
X59458Y22497D01*
X59422Y22527D01*
X59380Y22566D01*
X59341Y22611D01*
X59303Y22666D01*
X59272Y22727D01*
Y22730D01*
X59269Y22735D01*
X59267Y22746D01*
X59261Y22760D01*
X59255Y22777D01*
X59250Y22799D01*
X59241Y22824D01*
X59236Y22854D01*
X59231Y22887D01*
X59222Y22923D01*
X59217Y22962D01*
X59211Y23004D01*
X59206Y23051D01*
X59203Y23101D01*
X59200Y23153D01*
Y23209D01*
Y24317D01*
X59455D01*
Y23209D01*
Y23206D01*
Y23198D01*
Y23184D01*
Y23167D01*
X59458Y23148D01*
Y23123D01*
X59460Y23070D01*
X59466Y23009D01*
X59474Y22949D01*
X59485Y22890D01*
X59491Y22865D01*
X59499Y22840D01*
X59502Y22835D01*
X59508Y22821D01*
X59521Y22802D01*
X59538Y22774D01*
X59557Y22746D01*
X59585Y22716D01*
X59618Y22685D01*
X59657Y22660D01*
X59663Y22658D01*
X59676Y22649D01*
X59701Y22641D01*
X59735Y22630D01*
X59773Y22616D01*
X59823Y22608D01*
X59876Y22599D01*
X59934Y22597D01*
X59962D01*
X59978Y22599D01*
X60003D01*
X60028Y22602D01*
X60089Y22613D01*
X60156Y22627D01*
X60219Y22649D01*
X60280Y22680D01*
X60308Y22699D01*
X60333Y22721D01*
X60336Y22724D01*
X60338Y22727D01*
X60344Y22735D01*
X60352Y22746D01*
X60361Y22763D01*
X60372Y22780D01*
X60383Y22804D01*
X60394Y22829D01*
X60405Y22860D01*
X60413Y22896D01*
X60424Y22937D01*
X60433Y22982D01*
X60441Y23032D01*
X60447Y23084D01*
X60452Y23145D01*
Y23209D01*
Y24317D01*
X60707D01*
Y23209D01*
D02*
G37*
G36*
X61920Y22400D02*
X61685D01*
Y23899D01*
X61682Y23896D01*
X61668Y23885D01*
X61651Y23868D01*
X61624Y23849D01*
X61593Y23824D01*
X61554Y23796D01*
X61510Y23766D01*
X61460Y23735D01*
X61458D01*
X61455Y23732D01*
X61438Y23721D01*
X61410Y23707D01*
X61377Y23691D01*
X61338Y23671D01*
X61297Y23652D01*
X61255Y23633D01*
X61214Y23616D01*
Y23843D01*
X61217D01*
X61222Y23849D01*
X61233Y23852D01*
X61247Y23860D01*
X61264Y23868D01*
X61283Y23879D01*
X61330Y23907D01*
X61386Y23937D01*
X61441Y23976D01*
X61499Y24020D01*
X61557Y24068D01*
X61560Y24070D01*
X61563Y24073D01*
X61571Y24081D01*
X61582Y24090D01*
X61607Y24117D01*
X61640Y24151D01*
X61674Y24189D01*
X61710Y24234D01*
X61740Y24278D01*
X61768Y24325D01*
X61920D01*
Y22400D01*
D02*
G37*
G36*
X40907Y41909D02*
Y41906D01*
Y41895D01*
Y41881D01*
Y41862D01*
X40904Y41837D01*
Y41809D01*
X40901Y41776D01*
X40899Y41743D01*
X40890Y41668D01*
X40879Y41590D01*
X40863Y41515D01*
X40852Y41480D01*
X40840Y41446D01*
Y41443D01*
X40838Y41438D01*
X40832Y41430D01*
X40826Y41418D01*
X40810Y41388D01*
X40785Y41349D01*
X40752Y41305D01*
X40713Y41261D01*
X40663Y41214D01*
X40602Y41172D01*
X40599D01*
X40594Y41166D01*
X40586Y41164D01*
X40572Y41155D01*
X40555Y41147D01*
X40533Y41139D01*
X40511Y41131D01*
X40483Y41119D01*
X40453Y41108D01*
X40419Y41100D01*
X40383Y41092D01*
X40342Y41083D01*
X40300Y41078D01*
X40256Y41072D01*
X40156Y41067D01*
X40131D01*
X40112Y41069D01*
X40090D01*
X40062Y41072D01*
X40032Y41075D01*
X40001Y41078D01*
X39932Y41089D01*
X39857Y41105D01*
X39785Y41128D01*
X39716Y41158D01*
X39713D01*
X39707Y41164D01*
X39699Y41169D01*
X39688Y41175D01*
X39658Y41197D01*
X39622Y41227D01*
X39580Y41266D01*
X39541Y41311D01*
X39503Y41366D01*
X39472Y41427D01*
Y41430D01*
X39469Y41435D01*
X39467Y41446D01*
X39461Y41460D01*
X39455Y41477D01*
X39450Y41499D01*
X39442Y41524D01*
X39436Y41554D01*
X39430Y41587D01*
X39422Y41623D01*
X39417Y41662D01*
X39411Y41704D01*
X39406Y41751D01*
X39403Y41801D01*
X39400Y41853D01*
Y41909D01*
Y43017D01*
X39655D01*
Y41909D01*
Y41906D01*
Y41898D01*
Y41884D01*
Y41867D01*
X39658Y41848D01*
Y41823D01*
X39660Y41770D01*
X39666Y41709D01*
X39674Y41649D01*
X39685Y41590D01*
X39691Y41565D01*
X39699Y41540D01*
X39702Y41535D01*
X39707Y41521D01*
X39721Y41502D01*
X39738Y41474D01*
X39757Y41446D01*
X39785Y41416D01*
X39818Y41385D01*
X39857Y41360D01*
X39863Y41358D01*
X39876Y41349D01*
X39901Y41341D01*
X39935Y41330D01*
X39973Y41316D01*
X40023Y41308D01*
X40076Y41299D01*
X40134Y41297D01*
X40162D01*
X40178Y41299D01*
X40203D01*
X40228Y41302D01*
X40289Y41313D01*
X40356Y41327D01*
X40419Y41349D01*
X40480Y41380D01*
X40508Y41399D01*
X40533Y41421D01*
X40536Y41424D01*
X40538Y41427D01*
X40544Y41435D01*
X40552Y41446D01*
X40561Y41463D01*
X40572Y41480D01*
X40583Y41504D01*
X40594Y41529D01*
X40605Y41560D01*
X40613Y41596D01*
X40624Y41637D01*
X40633Y41682D01*
X40641Y41732D01*
X40646Y41784D01*
X40652Y41845D01*
Y41909D01*
Y43017D01*
X40907D01*
Y41909D01*
D02*
G37*
G36*
X41915Y43022D02*
X41937Y43020D01*
X41965Y43017D01*
X41995Y43011D01*
X42026Y43006D01*
X42098Y42986D01*
X42170Y42959D01*
X42206Y42942D01*
X42242Y42923D01*
X42275Y42898D01*
X42306Y42870D01*
X42309Y42867D01*
X42314Y42865D01*
X42320Y42853D01*
X42331Y42842D01*
X42344Y42829D01*
X42358Y42809D01*
X42372Y42790D01*
X42389Y42765D01*
X42417Y42712D01*
X42444Y42646D01*
X42455Y42612D01*
X42461Y42574D01*
X42466Y42535D01*
X42469Y42493D01*
Y42488D01*
Y42474D01*
X42466Y42452D01*
X42464Y42421D01*
X42458Y42388D01*
X42447Y42349D01*
X42436Y42308D01*
X42419Y42266D01*
X42417Y42261D01*
X42411Y42247D01*
X42400Y42225D01*
X42383Y42194D01*
X42361Y42161D01*
X42333Y42119D01*
X42300Y42078D01*
X42261Y42031D01*
X42256Y42025D01*
X42242Y42009D01*
X42228Y41995D01*
X42214Y41981D01*
X42198Y41964D01*
X42175Y41942D01*
X42153Y41920D01*
X42126Y41895D01*
X42098Y41867D01*
X42065Y41837D01*
X42029Y41806D01*
X41990Y41770D01*
X41946Y41734D01*
X41901Y41695D01*
X41899Y41693D01*
X41893Y41687D01*
X41882Y41679D01*
X41868Y41668D01*
X41851Y41651D01*
X41832Y41635D01*
X41788Y41599D01*
X41741Y41557D01*
X41696Y41515D01*
X41658Y41480D01*
X41641Y41466D01*
X41627Y41452D01*
X41624Y41449D01*
X41616Y41441D01*
X41605Y41430D01*
X41591Y41413D01*
X41577Y41394D01*
X41561Y41374D01*
X41527Y41327D01*
X42472D01*
Y41100D01*
X41201D01*
Y41103D01*
Y41114D01*
Y41131D01*
X41203Y41153D01*
X41206Y41178D01*
X41212Y41205D01*
X41217Y41233D01*
X41228Y41263D01*
Y41266D01*
X41231Y41269D01*
X41236Y41286D01*
X41248Y41311D01*
X41264Y41344D01*
X41286Y41383D01*
X41314Y41427D01*
X41344Y41471D01*
X41383Y41518D01*
Y41521D01*
X41389Y41524D01*
X41403Y41540D01*
X41428Y41565D01*
X41464Y41601D01*
X41505Y41643D01*
X41558Y41693D01*
X41622Y41748D01*
X41691Y41806D01*
X41694Y41809D01*
X41705Y41817D01*
X41721Y41831D01*
X41741Y41848D01*
X41766Y41870D01*
X41796Y41895D01*
X41827Y41923D01*
X41862Y41953D01*
X41932Y42020D01*
X42001Y42086D01*
X42034Y42119D01*
X42065Y42153D01*
X42092Y42183D01*
X42115Y42213D01*
Y42216D01*
X42120Y42219D01*
X42126Y42227D01*
X42131Y42239D01*
X42151Y42269D01*
X42173Y42305D01*
X42192Y42349D01*
X42211Y42396D01*
X42223Y42449D01*
X42228Y42499D01*
Y42502D01*
Y42504D01*
X42225Y42521D01*
X42223Y42549D01*
X42214Y42579D01*
X42203Y42618D01*
X42184Y42657D01*
X42159Y42696D01*
X42126Y42734D01*
X42120Y42740D01*
X42106Y42751D01*
X42087Y42765D01*
X42056Y42784D01*
X42018Y42801D01*
X41973Y42817D01*
X41921Y42829D01*
X41862Y42831D01*
X41846D01*
X41835Y42829D01*
X41802Y42826D01*
X41763Y42817D01*
X41721Y42806D01*
X41674Y42787D01*
X41630Y42762D01*
X41588Y42729D01*
X41583Y42723D01*
X41572Y42709D01*
X41555Y42687D01*
X41538Y42654D01*
X41519Y42615D01*
X41502Y42565D01*
X41491Y42510D01*
X41486Y42446D01*
X41245Y42471D01*
Y42474D01*
X41248Y42482D01*
Y42496D01*
X41250Y42516D01*
X41256Y42538D01*
X41261Y42563D01*
X41270Y42593D01*
X41278Y42623D01*
X41300Y42690D01*
X41333Y42757D01*
X41353Y42790D01*
X41378Y42823D01*
X41403Y42853D01*
X41430Y42881D01*
X41433Y42884D01*
X41439Y42887D01*
X41447Y42895D01*
X41461Y42903D01*
X41478Y42914D01*
X41497Y42925D01*
X41519Y42939D01*
X41547Y42953D01*
X41577Y42967D01*
X41611Y42981D01*
X41647Y42992D01*
X41685Y43003D01*
X41727Y43011D01*
X41771Y43020D01*
X41818Y43022D01*
X41868Y43025D01*
X41896D01*
X41915Y43022D01*
D02*
G37*
G36*
X93493Y47756D02*
X93529Y47750D01*
X93573Y47742D01*
X93623Y47728D01*
X93673Y47711D01*
X93723Y47689D01*
X93726D01*
X93728Y47686D01*
X93745Y47678D01*
X93770Y47662D01*
X93798Y47642D01*
X93831Y47614D01*
X93864Y47584D01*
X93897Y47548D01*
X93925Y47506D01*
X93928Y47501D01*
X93936Y47487D01*
X93947Y47462D01*
X93961Y47432D01*
X93975Y47396D01*
X93986Y47354D01*
X93994Y47307D01*
X93997Y47260D01*
Y47254D01*
Y47238D01*
X93994Y47216D01*
X93989Y47185D01*
X93980Y47149D01*
X93967Y47110D01*
X93950Y47071D01*
X93928Y47033D01*
X93925Y47027D01*
X93917Y47016D01*
X93900Y46997D01*
X93878Y46975D01*
X93850Y46950D01*
X93817Y46922D01*
X93778Y46897D01*
X93731Y46872D01*
X93734D01*
X93739Y46869D01*
X93748Y46867D01*
X93759Y46864D01*
X93789Y46853D01*
X93828Y46836D01*
X93872Y46814D01*
X93917Y46786D01*
X93958Y46750D01*
X93997Y46709D01*
X94000Y46703D01*
X94011Y46686D01*
X94028Y46659D01*
X94044Y46623D01*
X94061Y46578D01*
X94077Y46526D01*
X94089Y46465D01*
X94091Y46398D01*
Y46396D01*
Y46387D01*
Y46373D01*
X94089Y46357D01*
X94086Y46335D01*
X94080Y46310D01*
X94075Y46282D01*
X94069Y46251D01*
X94047Y46185D01*
X94030Y46149D01*
X94014Y46116D01*
X93992Y46080D01*
X93967Y46044D01*
X93939Y46008D01*
X93906Y45974D01*
X93903Y45972D01*
X93897Y45966D01*
X93886Y45958D01*
X93872Y45947D01*
X93856Y45933D01*
X93834Y45919D01*
X93809Y45902D01*
X93778Y45889D01*
X93748Y45872D01*
X93712Y45855D01*
X93676Y45842D01*
X93634Y45828D01*
X93590Y45817D01*
X93543Y45808D01*
X93496Y45803D01*
X93443Y45800D01*
X93418D01*
X93402Y45803D01*
X93379Y45806D01*
X93354Y45808D01*
X93327Y45814D01*
X93296Y45819D01*
X93230Y45836D01*
X93161Y45864D01*
X93125Y45880D01*
X93091Y45900D01*
X93058Y45925D01*
X93025Y45950D01*
X93022Y45952D01*
X93017Y45958D01*
X93008Y45966D01*
X93000Y45977D01*
X92986Y45991D01*
X92972Y46011D01*
X92956Y46030D01*
X92939Y46055D01*
X92922Y46083D01*
X92906Y46110D01*
X92875Y46177D01*
X92850Y46254D01*
X92842Y46296D01*
X92836Y46340D01*
X93072Y46371D01*
Y46368D01*
X93075Y46362D01*
X93077Y46351D01*
X93080Y46337D01*
X93083Y46321D01*
X93089Y46301D01*
X93102Y46260D01*
X93122Y46210D01*
X93147Y46163D01*
X93174Y46119D01*
X93208Y46080D01*
X93213Y46077D01*
X93224Y46066D01*
X93247Y46052D01*
X93274Y46038D01*
X93307Y46022D01*
X93349Y46008D01*
X93396Y45997D01*
X93446Y45994D01*
X93463D01*
X93474Y45997D01*
X93504Y46000D01*
X93543Y46008D01*
X93587Y46022D01*
X93634Y46041D01*
X93681Y46069D01*
X93726Y46108D01*
X93731Y46113D01*
X93745Y46130D01*
X93762Y46155D01*
X93784Y46188D01*
X93806Y46229D01*
X93823Y46277D01*
X93836Y46332D01*
X93842Y46393D01*
Y46396D01*
Y46401D01*
Y46409D01*
X93839Y46420D01*
X93836Y46451D01*
X93828Y46487D01*
X93817Y46531D01*
X93798Y46576D01*
X93770Y46620D01*
X93734Y46661D01*
X93728Y46667D01*
X93715Y46678D01*
X93692Y46695D01*
X93662Y46714D01*
X93623Y46733D01*
X93576Y46750D01*
X93524Y46761D01*
X93465Y46767D01*
X93440D01*
X93421Y46764D01*
X93396Y46761D01*
X93368Y46756D01*
X93335Y46750D01*
X93299Y46742D01*
X93327Y46950D01*
X93341D01*
X93352Y46947D01*
X93388D01*
X93418Y46952D01*
X93454Y46958D01*
X93496Y46966D01*
X93543Y46980D01*
X93587Y46999D01*
X93634Y47024D01*
X93637D01*
X93640Y47027D01*
X93654Y47038D01*
X93673Y47058D01*
X93695Y47082D01*
X93717Y47119D01*
X93737Y47160D01*
X93751Y47207D01*
X93756Y47235D01*
Y47265D01*
Y47268D01*
Y47271D01*
Y47287D01*
X93751Y47310D01*
X93745Y47340D01*
X93734Y47373D01*
X93720Y47409D01*
X93698Y47445D01*
X93668Y47479D01*
X93665Y47481D01*
X93651Y47493D01*
X93632Y47506D01*
X93607Y47523D01*
X93573Y47537D01*
X93535Y47551D01*
X93490Y47562D01*
X93440Y47565D01*
X93418D01*
X93393Y47559D01*
X93360Y47553D01*
X93324Y47542D01*
X93288Y47528D01*
X93249Y47506D01*
X93213Y47479D01*
X93211Y47476D01*
X93199Y47462D01*
X93183Y47443D01*
X93163Y47415D01*
X93144Y47379D01*
X93125Y47335D01*
X93108Y47282D01*
X93097Y47221D01*
X92861Y47263D01*
Y47265D01*
X92864Y47274D01*
X92867Y47285D01*
X92870Y47301D01*
X92875Y47321D01*
X92884Y47343D01*
X92900Y47396D01*
X92928Y47456D01*
X92961Y47517D01*
X93003Y47576D01*
X93055Y47628D01*
X93058Y47631D01*
X93064Y47634D01*
X93072Y47639D01*
X93083Y47648D01*
X93097Y47659D01*
X93116Y47670D01*
X93136Y47681D01*
X93161Y47695D01*
X93216Y47717D01*
X93280Y47739D01*
X93354Y47753D01*
X93393Y47758D01*
X93463D01*
X93493Y47756D01*
D02*
G37*
G36*
X92507Y46642D02*
Y46639D01*
Y46628D01*
Y46614D01*
Y46595D01*
X92504Y46570D01*
Y46542D01*
X92501Y46509D01*
X92499Y46476D01*
X92490Y46401D01*
X92479Y46324D01*
X92463Y46249D01*
X92452Y46213D01*
X92440Y46180D01*
Y46177D01*
X92438Y46171D01*
X92432Y46163D01*
X92427Y46152D01*
X92410Y46121D01*
X92385Y46083D01*
X92352Y46038D01*
X92313Y45994D01*
X92263Y45947D01*
X92202Y45905D01*
X92199D01*
X92194Y45900D01*
X92186Y45897D01*
X92172Y45889D01*
X92155Y45880D01*
X92133Y45872D01*
X92111Y45864D01*
X92083Y45853D01*
X92053Y45842D01*
X92019Y45833D01*
X91983Y45825D01*
X91942Y45817D01*
X91900Y45811D01*
X91856Y45806D01*
X91756Y45800D01*
X91731D01*
X91712Y45803D01*
X91690D01*
X91662Y45806D01*
X91632Y45808D01*
X91601Y45811D01*
X91532Y45822D01*
X91457Y45839D01*
X91385Y45861D01*
X91316Y45891D01*
X91313D01*
X91307Y45897D01*
X91299Y45902D01*
X91288Y45908D01*
X91258Y45930D01*
X91222Y45961D01*
X91180Y46000D01*
X91141Y46044D01*
X91102Y46099D01*
X91072Y46160D01*
Y46163D01*
X91069Y46169D01*
X91066Y46180D01*
X91061Y46193D01*
X91055Y46210D01*
X91050Y46232D01*
X91041Y46257D01*
X91036Y46288D01*
X91031Y46321D01*
X91022Y46357D01*
X91017Y46396D01*
X91011Y46437D01*
X91005Y46484D01*
X91003Y46534D01*
X91000Y46587D01*
Y46642D01*
Y47750D01*
X91255D01*
Y46642D01*
Y46639D01*
Y46631D01*
Y46617D01*
Y46601D01*
X91258Y46581D01*
Y46556D01*
X91260Y46504D01*
X91266Y46443D01*
X91274Y46382D01*
X91285Y46324D01*
X91291Y46299D01*
X91299Y46274D01*
X91302Y46268D01*
X91307Y46254D01*
X91321Y46235D01*
X91338Y46207D01*
X91357Y46180D01*
X91385Y46149D01*
X91418Y46119D01*
X91457Y46094D01*
X91463Y46091D01*
X91476Y46083D01*
X91501Y46074D01*
X91535Y46063D01*
X91573Y46049D01*
X91623Y46041D01*
X91676Y46033D01*
X91734Y46030D01*
X91762D01*
X91778Y46033D01*
X91803D01*
X91828Y46036D01*
X91889Y46047D01*
X91956Y46060D01*
X92019Y46083D01*
X92080Y46113D01*
X92108Y46132D01*
X92133Y46155D01*
X92136Y46157D01*
X92138Y46160D01*
X92144Y46169D01*
X92152Y46180D01*
X92161Y46196D01*
X92172Y46213D01*
X92183Y46238D01*
X92194Y46263D01*
X92205Y46293D01*
X92213Y46329D01*
X92224Y46371D01*
X92233Y46415D01*
X92241Y46465D01*
X92247Y46518D01*
X92252Y46578D01*
Y46642D01*
Y47750D01*
X92507D01*
Y46642D01*
D02*
G37*
G36*
X12877Y45145D02*
X12899Y45142D01*
X12924Y45136D01*
X12951Y45131D01*
X12982Y45125D01*
X13048Y45103D01*
X13084Y45086D01*
X13117Y45070D01*
X13153Y45048D01*
X13190Y45023D01*
X13226Y44995D01*
X13259Y44962D01*
X13262Y44959D01*
X13267Y44953D01*
X13275Y44942D01*
X13286Y44928D01*
X13300Y44912D01*
X13314Y44890D01*
X13331Y44865D01*
X13345Y44834D01*
X13361Y44804D01*
X13378Y44768D01*
X13392Y44732D01*
X13406Y44690D01*
X13417Y44646D01*
X13425Y44599D01*
X13431Y44552D01*
X13433Y44499D01*
Y44474D01*
X13431Y44458D01*
X13428Y44435D01*
X13425Y44410D01*
X13419Y44383D01*
X13414Y44352D01*
X13397Y44286D01*
X13370Y44217D01*
X13353Y44181D01*
X13333Y44147D01*
X13309Y44114D01*
X13284Y44081D01*
X13281Y44078D01*
X13275Y44072D01*
X13267Y44064D01*
X13256Y44056D01*
X13242Y44042D01*
X13223Y44028D01*
X13203Y44012D01*
X13178Y43995D01*
X13151Y43978D01*
X13123Y43962D01*
X13057Y43931D01*
X12979Y43906D01*
X12937Y43898D01*
X12893Y43892D01*
X12863Y44128D01*
X12865D01*
X12871Y44131D01*
X12882Y44133D01*
X12896Y44136D01*
X12912Y44139D01*
X12932Y44144D01*
X12973Y44158D01*
X13023Y44178D01*
X13070Y44203D01*
X13115Y44230D01*
X13153Y44264D01*
X13156Y44269D01*
X13167Y44280D01*
X13181Y44302D01*
X13195Y44330D01*
X13212Y44363D01*
X13226Y44405D01*
X13237Y44452D01*
X13239Y44502D01*
Y44519D01*
X13237Y44530D01*
X13234Y44560D01*
X13226Y44599D01*
X13212Y44643D01*
X13192Y44690D01*
X13164Y44737D01*
X13126Y44782D01*
X13120Y44787D01*
X13104Y44801D01*
X13079Y44818D01*
X13045Y44840D01*
X13004Y44862D01*
X12957Y44879D01*
X12901Y44892D01*
X12841Y44898D01*
X12838D01*
X12832D01*
X12824D01*
X12813Y44895D01*
X12782Y44892D01*
X12746Y44884D01*
X12702Y44873D01*
X12658Y44854D01*
X12613Y44826D01*
X12572Y44790D01*
X12566Y44784D01*
X12555Y44771D01*
X12539Y44748D01*
X12519Y44718D01*
X12500Y44679D01*
X12483Y44632D01*
X12472Y44579D01*
X12466Y44521D01*
Y44496D01*
X12469Y44477D01*
X12472Y44452D01*
X12478Y44424D01*
X12483Y44391D01*
X12491Y44355D01*
X12284Y44383D01*
Y44397D01*
X12286Y44408D01*
Y44444D01*
X12281Y44474D01*
X12275Y44510D01*
X12267Y44552D01*
X12253Y44599D01*
X12234Y44643D01*
X12209Y44690D01*
Y44693D01*
X12206Y44696D01*
X12195Y44710D01*
X12176Y44729D01*
X12151Y44751D01*
X12115Y44773D01*
X12073Y44793D01*
X12026Y44807D01*
X11998Y44812D01*
X11968D01*
X11965D01*
X11962D01*
X11946D01*
X11924Y44807D01*
X11893Y44801D01*
X11860Y44790D01*
X11824Y44776D01*
X11788Y44754D01*
X11755Y44723D01*
X11752Y44721D01*
X11741Y44707D01*
X11727Y44688D01*
X11710Y44662D01*
X11697Y44629D01*
X11683Y44590D01*
X11671Y44546D01*
X11669Y44496D01*
Y44474D01*
X11674Y44449D01*
X11680Y44416D01*
X11691Y44380D01*
X11705Y44344D01*
X11727Y44305D01*
X11755Y44269D01*
X11757Y44266D01*
X11771Y44255D01*
X11791Y44239D01*
X11818Y44219D01*
X11854Y44200D01*
X11899Y44181D01*
X11951Y44164D01*
X12012Y44153D01*
X11971Y43917D01*
X11968D01*
X11960Y43920D01*
X11948Y43923D01*
X11932Y43926D01*
X11913Y43931D01*
X11890Y43940D01*
X11838Y43956D01*
X11777Y43984D01*
X11716Y44017D01*
X11658Y44059D01*
X11605Y44111D01*
X11602Y44114D01*
X11599Y44120D01*
X11594Y44128D01*
X11586Y44139D01*
X11575Y44153D01*
X11564Y44172D01*
X11552Y44192D01*
X11539Y44217D01*
X11516Y44272D01*
X11494Y44336D01*
X11480Y44410D01*
X11475Y44449D01*
Y44519D01*
X11478Y44549D01*
X11483Y44585D01*
X11491Y44629D01*
X11505Y44679D01*
X11522Y44729D01*
X11544Y44779D01*
Y44782D01*
X11547Y44784D01*
X11555Y44801D01*
X11572Y44826D01*
X11591Y44854D01*
X11619Y44887D01*
X11649Y44920D01*
X11685Y44953D01*
X11727Y44981D01*
X11733Y44984D01*
X11746Y44992D01*
X11771Y45003D01*
X11802Y45017D01*
X11838Y45031D01*
X11879Y45042D01*
X11926Y45050D01*
X11973Y45053D01*
X11979D01*
X11996D01*
X12018Y45050D01*
X12048Y45045D01*
X12084Y45037D01*
X12123Y45023D01*
X12162Y45006D01*
X12201Y44984D01*
X12206Y44981D01*
X12217Y44973D01*
X12237Y44956D01*
X12259Y44934D01*
X12284Y44906D01*
X12311Y44873D01*
X12336Y44834D01*
X12361Y44787D01*
Y44790D01*
X12364Y44796D01*
X12367Y44804D01*
X12370Y44815D01*
X12381Y44845D01*
X12397Y44884D01*
X12419Y44928D01*
X12447Y44973D01*
X12483Y45014D01*
X12525Y45053D01*
X12530Y45056D01*
X12547Y45067D01*
X12574Y45084D01*
X12611Y45100D01*
X12655Y45117D01*
X12708Y45133D01*
X12768Y45145D01*
X12835Y45147D01*
X12838D01*
X12846D01*
X12860D01*
X12877Y45145D01*
D02*
G37*
G36*
X12082Y43660D02*
X12101Y43657D01*
X12126Y43654D01*
X12154Y43649D01*
X12184Y43643D01*
X12248Y43624D01*
X12281Y43613D01*
X12317Y43596D01*
X12353Y43577D01*
X12386Y43557D01*
X12419Y43532D01*
X12453Y43505D01*
X12455Y43502D01*
X12461Y43496D01*
X12469Y43488D01*
X12478Y43474D01*
X12491Y43458D01*
X12505Y43435D01*
X12522Y43408D01*
X12536Y43377D01*
X12552Y43341D01*
X12569Y43300D01*
X12583Y43255D01*
X12594Y43203D01*
X12605Y43147D01*
X12613Y43086D01*
X12619Y43017D01*
X12622Y42945D01*
Y42455D01*
X13400D01*
Y42200D01*
X11483D01*
Y42987D01*
X11486Y43028D01*
X11489Y43075D01*
X11491Y43125D01*
X11497Y43172D01*
X11502Y43214D01*
Y43219D01*
X11508Y43239D01*
X11514Y43264D01*
X11522Y43297D01*
X11536Y43333D01*
X11552Y43372D01*
X11572Y43413D01*
X11594Y43449D01*
X11597Y43455D01*
X11605Y43466D01*
X11622Y43483D01*
X11641Y43505D01*
X11666Y43530D01*
X11699Y43554D01*
X11735Y43582D01*
X11777Y43604D01*
X11782Y43607D01*
X11796Y43613D01*
X11821Y43624D01*
X11854Y43635D01*
X11893Y43643D01*
X11937Y43654D01*
X11987Y43660D01*
X12040Y43663D01*
X12043D01*
X12051D01*
X12062D01*
X12082Y43660D01*
D02*
G37*
G36*
X34400Y21181D02*
X34420D01*
X34473Y21175D01*
X34531Y21167D01*
X34592Y21153D01*
X34658Y21136D01*
X34719Y21114D01*
X34722D01*
X34727Y21111D01*
X34736Y21106D01*
X34747Y21100D01*
X34775Y21086D01*
X34811Y21061D01*
X34852Y21034D01*
X34894Y20998D01*
X34932Y20956D01*
X34968Y20909D01*
Y20906D01*
X34971Y20904D01*
X34977Y20895D01*
X34982Y20887D01*
X34996Y20859D01*
X35013Y20823D01*
X35032Y20779D01*
X35046Y20726D01*
X35060Y20671D01*
X35065Y20610D01*
X34822Y20591D01*
Y20593D01*
Y20599D01*
X34819Y20607D01*
X34816Y20621D01*
X34808Y20651D01*
X34797Y20693D01*
X34780Y20737D01*
X34755Y20782D01*
X34725Y20823D01*
X34686Y20862D01*
X34680Y20865D01*
X34666Y20876D01*
X34639Y20892D01*
X34603Y20909D01*
X34556Y20926D01*
X34500Y20942D01*
X34431Y20953D01*
X34353Y20956D01*
X34315D01*
X34298Y20953D01*
X34276Y20951D01*
X34226Y20945D01*
X34171Y20934D01*
X34115Y20920D01*
X34063Y20898D01*
X34040Y20884D01*
X34018Y20870D01*
X34013Y20867D01*
X34002Y20856D01*
X33985Y20837D01*
X33968Y20815D01*
X33949Y20784D01*
X33932Y20751D01*
X33921Y20712D01*
X33916Y20668D01*
Y20663D01*
Y20651D01*
X33918Y20632D01*
X33924Y20610D01*
X33932Y20582D01*
X33946Y20554D01*
X33963Y20527D01*
X33988Y20499D01*
X33991Y20496D01*
X34004Y20488D01*
X34016Y20480D01*
X34027Y20474D01*
X34043Y20466D01*
X34063Y20455D01*
X34087Y20447D01*
X34115Y20435D01*
X34146Y20424D01*
X34182Y20411D01*
X34220Y20399D01*
X34265Y20386D01*
X34315Y20374D01*
X34370Y20361D01*
X34373D01*
X34384Y20358D01*
X34400Y20355D01*
X34420Y20349D01*
X34445Y20344D01*
X34475Y20336D01*
X34506Y20327D01*
X34539Y20319D01*
X34611Y20300D01*
X34680Y20280D01*
X34714Y20269D01*
X34744Y20258D01*
X34772Y20250D01*
X34794Y20239D01*
X34797D01*
X34802Y20236D01*
X34811Y20230D01*
X34822Y20225D01*
X34852Y20208D01*
X34888Y20186D01*
X34930Y20156D01*
X34971Y20122D01*
X35010Y20084D01*
X35043Y20042D01*
X35046Y20037D01*
X35057Y20023D01*
X35068Y19998D01*
X35085Y19964D01*
X35099Y19926D01*
X35112Y19879D01*
X35121Y19826D01*
X35124Y19771D01*
Y19768D01*
Y19765D01*
Y19757D01*
Y19746D01*
X35118Y19715D01*
X35112Y19676D01*
X35101Y19632D01*
X35087Y19585D01*
X35065Y19535D01*
X35035Y19482D01*
Y19480D01*
X35032Y19477D01*
X35018Y19460D01*
X34999Y19435D01*
X34971Y19408D01*
X34935Y19375D01*
X34891Y19339D01*
X34841Y19305D01*
X34783Y19275D01*
X34780D01*
X34775Y19272D01*
X34766Y19269D01*
X34755Y19264D01*
X34738Y19258D01*
X34719Y19250D01*
X34675Y19239D01*
X34622Y19225D01*
X34558Y19211D01*
X34489Y19203D01*
X34414Y19200D01*
X34370D01*
X34348Y19203D01*
X34323D01*
X34295Y19206D01*
X34262Y19208D01*
X34193Y19219D01*
X34121Y19230D01*
X34049Y19250D01*
X33979Y19275D01*
X33977D01*
X33971Y19278D01*
X33963Y19283D01*
X33952Y19289D01*
X33918Y19305D01*
X33880Y19330D01*
X33835Y19363D01*
X33788Y19402D01*
X33744Y19449D01*
X33702Y19502D01*
Y19505D01*
X33697Y19510D01*
X33694Y19519D01*
X33686Y19530D01*
X33680Y19544D01*
X33672Y19560D01*
X33653Y19602D01*
X33633Y19654D01*
X33617Y19713D01*
X33606Y19779D01*
X33600Y19848D01*
X33838Y19870D01*
Y19868D01*
Y19865D01*
X33841Y19857D01*
Y19845D01*
X33847Y19820D01*
X33855Y19784D01*
X33866Y19748D01*
X33877Y19707D01*
X33896Y19668D01*
X33916Y19632D01*
X33918Y19629D01*
X33927Y19618D01*
X33941Y19599D01*
X33963Y19579D01*
X33991Y19555D01*
X34021Y19530D01*
X34063Y19505D01*
X34107Y19482D01*
X34110D01*
X34113Y19480D01*
X34121Y19477D01*
X34129Y19474D01*
X34157Y19466D01*
X34193Y19455D01*
X34237Y19444D01*
X34287Y19435D01*
X34342Y19430D01*
X34403Y19427D01*
X34428D01*
X34456Y19430D01*
X34489Y19433D01*
X34528Y19438D01*
X34572Y19444D01*
X34617Y19455D01*
X34658Y19469D01*
X34664Y19471D01*
X34677Y19477D01*
X34697Y19488D01*
X34722Y19499D01*
X34747Y19519D01*
X34775Y19538D01*
X34802Y19560D01*
X34824Y19588D01*
X34827Y19591D01*
X34833Y19602D01*
X34841Y19615D01*
X34852Y19638D01*
X34863Y19660D01*
X34871Y19688D01*
X34877Y19718D01*
X34880Y19751D01*
Y19754D01*
Y19768D01*
X34877Y19784D01*
X34874Y19807D01*
X34866Y19829D01*
X34858Y19857D01*
X34844Y19884D01*
X34824Y19909D01*
X34822Y19912D01*
X34813Y19920D01*
X34802Y19931D01*
X34783Y19948D01*
X34761Y19964D01*
X34730Y19984D01*
X34694Y20003D01*
X34653Y20020D01*
X34650Y20023D01*
X34636Y20026D01*
X34614Y20034D01*
X34600Y20037D01*
X34581Y20042D01*
X34561Y20050D01*
X34536Y20056D01*
X34509Y20064D01*
X34475Y20073D01*
X34442Y20081D01*
X34403Y20092D01*
X34359Y20103D01*
X34312Y20114D01*
X34309D01*
X34301Y20117D01*
X34287Y20120D01*
X34270Y20125D01*
X34248Y20131D01*
X34223Y20136D01*
X34168Y20153D01*
X34107Y20172D01*
X34043Y20192D01*
X33988Y20211D01*
X33963Y20222D01*
X33941Y20233D01*
X33938D01*
X33935Y20236D01*
X33918Y20247D01*
X33894Y20261D01*
X33866Y20283D01*
X33833Y20308D01*
X33799Y20338D01*
X33766Y20374D01*
X33738Y20413D01*
X33736Y20419D01*
X33727Y20433D01*
X33716Y20455D01*
X33705Y20482D01*
X33694Y20518D01*
X33683Y20560D01*
X33675Y20604D01*
X33672Y20651D01*
Y20654D01*
Y20657D01*
Y20665D01*
Y20676D01*
X33678Y20704D01*
X33683Y20740D01*
X33691Y20782D01*
X33705Y20829D01*
X33725Y20876D01*
X33752Y20923D01*
Y20926D01*
X33755Y20929D01*
X33769Y20945D01*
X33788Y20967D01*
X33813Y20995D01*
X33847Y21025D01*
X33888Y21059D01*
X33938Y21089D01*
X33993Y21117D01*
X33996D01*
X34002Y21120D01*
X34010Y21122D01*
X34021Y21128D01*
X34035Y21134D01*
X34054Y21139D01*
X34096Y21150D01*
X34148Y21161D01*
X34209Y21172D01*
X34273Y21181D01*
X34345Y21183D01*
X34381D01*
X34400Y21181D01*
D02*
G37*
G36*
X37237Y19233D02*
X36988D01*
X36586Y20693D01*
Y20696D01*
X36583Y20701D01*
X36581Y20710D01*
X36578Y20723D01*
X36569Y20754D01*
X36561Y20790D01*
X36550Y20829D01*
X36539Y20865D01*
X36531Y20895D01*
X36528Y20909D01*
X36525Y20917D01*
Y20915D01*
X36522Y20912D01*
X36520Y20895D01*
X36514Y20870D01*
X36506Y20840D01*
X36497Y20807D01*
X36486Y20768D01*
X36478Y20729D01*
X36467Y20693D01*
X36062Y19233D01*
X35797D01*
X35295Y21150D01*
X35558D01*
X35844Y19893D01*
Y19890D01*
X35846Y19884D01*
X35849Y19873D01*
X35852Y19859D01*
X35855Y19840D01*
X35860Y19820D01*
X35866Y19796D01*
X35871Y19768D01*
X35885Y19710D01*
X35899Y19643D01*
X35913Y19571D01*
X35927Y19499D01*
Y19502D01*
X35930Y19513D01*
X35935Y19527D01*
X35938Y19549D01*
X35943Y19571D01*
X35952Y19599D01*
X35966Y19660D01*
X35982Y19721D01*
X35988Y19751D01*
X35996Y19779D01*
X36002Y19804D01*
X36007Y19826D01*
X36013Y19843D01*
X36015Y19854D01*
X36378Y21150D01*
X36686D01*
X36957Y20178D01*
Y20175D01*
X36963Y20161D01*
X36968Y20142D01*
X36974Y20117D01*
X36982Y20084D01*
X36993Y20048D01*
X37004Y20006D01*
X37015Y19959D01*
X37029Y19906D01*
X37040Y19854D01*
X37065Y19740D01*
X37090Y19621D01*
X37110Y19499D01*
Y19502D01*
X37112Y19508D01*
Y19519D01*
X37118Y19532D01*
X37121Y19549D01*
X37126Y19568D01*
X37129Y19593D01*
X37137Y19621D01*
X37151Y19682D01*
X37168Y19754D01*
X37184Y19832D01*
X37207Y19917D01*
X37506Y21150D01*
X37763D01*
X37237Y19233D01*
D02*
G37*
G36*
X38791D02*
X38555D01*
Y20732D01*
X38553Y20729D01*
X38539Y20718D01*
X38522Y20701D01*
X38495Y20682D01*
X38464Y20657D01*
X38425Y20629D01*
X38381Y20599D01*
X38331Y20568D01*
X38328D01*
X38326Y20566D01*
X38309Y20554D01*
X38281Y20541D01*
X38248Y20524D01*
X38209Y20505D01*
X38168Y20485D01*
X38126Y20466D01*
X38085Y20449D01*
Y20676D01*
X38087D01*
X38093Y20682D01*
X38104Y20685D01*
X38118Y20693D01*
X38135Y20701D01*
X38154Y20712D01*
X38201Y20740D01*
X38256Y20771D01*
X38312Y20809D01*
X38370Y20854D01*
X38428Y20901D01*
X38431Y20904D01*
X38434Y20906D01*
X38442Y20915D01*
X38453Y20923D01*
X38478Y20951D01*
X38511Y20984D01*
X38544Y21023D01*
X38581Y21067D01*
X38611Y21111D01*
X38639Y21158D01*
X38791D01*
Y19233D01*
D02*
G37*
G36*
X99600Y68879D02*
X98101D01*
X98104Y68876D01*
X98115Y68862D01*
X98132Y68845D01*
X98151Y68818D01*
X98176Y68787D01*
X98204Y68749D01*
X98234Y68704D01*
X98265Y68654D01*
Y68652D01*
X98268Y68649D01*
X98279Y68632D01*
X98293Y68604D01*
X98309Y68571D01*
X98329Y68533D01*
X98348Y68491D01*
X98367Y68449D01*
X98384Y68408D01*
X98157D01*
Y68411D01*
X98151Y68416D01*
X98149Y68427D01*
X98140Y68441D01*
X98132Y68458D01*
X98121Y68477D01*
X98093Y68524D01*
X98063Y68580D01*
X98024Y68635D01*
X97979Y68693D01*
X97932Y68751D01*
X97930Y68754D01*
X97927Y68757D01*
X97919Y68765D01*
X97910Y68776D01*
X97883Y68801D01*
X97849Y68834D01*
X97811Y68868D01*
X97766Y68904D01*
X97722Y68934D01*
X97675Y68962D01*
Y69114D01*
X99600D01*
Y68879D01*
D02*
G37*
G36*
X99337Y67948D02*
X99340Y67943D01*
X99348Y67931D01*
X99359Y67918D01*
X99370Y67901D01*
X99384Y67882D01*
X99401Y67857D01*
X99417Y67832D01*
X99453Y67773D01*
X99492Y67707D01*
X99528Y67638D01*
X99559Y67563D01*
Y67560D01*
X99561Y67555D01*
X99564Y67544D01*
X99569Y67530D01*
X99575Y67510D01*
X99583Y67488D01*
X99589Y67463D01*
X99594Y67438D01*
X99608Y67377D01*
X99622Y67308D01*
X99630Y67233D01*
X99633Y67156D01*
Y67128D01*
X99630Y67109D01*
Y67084D01*
X99628Y67053D01*
X99622Y67020D01*
X99619Y66984D01*
X99603Y66904D01*
X99583Y66818D01*
X99553Y66729D01*
X99536Y66685D01*
X99514Y66641D01*
X99511Y66638D01*
X99509Y66629D01*
X99500Y66618D01*
X99492Y66602D01*
X99478Y66582D01*
X99464Y66563D01*
X99426Y66510D01*
X99376Y66455D01*
X99315Y66397D01*
X99245Y66341D01*
X99165Y66292D01*
X99162D01*
X99154Y66286D01*
X99143Y66281D01*
X99124Y66272D01*
X99104Y66264D01*
X99076Y66256D01*
X99049Y66245D01*
X99015Y66233D01*
X98980Y66222D01*
X98938Y66211D01*
X98896Y66203D01*
X98852Y66195D01*
X98755Y66181D01*
X98653Y66175D01*
X98650D01*
X98639D01*
X98625D01*
X98606Y66178D01*
X98581D01*
X98550Y66181D01*
X98520Y66186D01*
X98484Y66189D01*
X98445Y66197D01*
X98403Y66203D01*
X98315Y66225D01*
X98223Y66253D01*
X98132Y66292D01*
X98129Y66294D01*
X98121Y66297D01*
X98110Y66303D01*
X98093Y66314D01*
X98071Y66325D01*
X98049Y66339D01*
X97996Y66377D01*
X97935Y66425D01*
X97877Y66483D01*
X97819Y66549D01*
X97794Y66588D01*
X97769Y66627D01*
X97766Y66629D01*
X97764Y66638D01*
X97758Y66649D01*
X97750Y66666D01*
X97741Y66688D01*
X97730Y66713D01*
X97719Y66740D01*
X97708Y66774D01*
X97697Y66810D01*
X97689Y66848D01*
X97678Y66890D01*
X97669Y66934D01*
X97655Y67031D01*
X97650Y67081D01*
Y67170D01*
X97653Y67186D01*
Y67208D01*
X97658Y67261D01*
X97667Y67319D01*
X97680Y67380D01*
X97697Y67447D01*
X97719Y67510D01*
Y67513D01*
X97722Y67519D01*
X97725Y67527D01*
X97730Y67538D01*
X97747Y67568D01*
X97766Y67607D01*
X97794Y67649D01*
X97827Y67693D01*
X97863Y67735D01*
X97908Y67773D01*
X97913Y67779D01*
X97930Y67790D01*
X97955Y67807D01*
X97991Y67829D01*
X98035Y67851D01*
X98090Y67876D01*
X98151Y67901D01*
X98220Y67920D01*
X98282Y67690D01*
X98279D01*
X98276Y67688D01*
X98268Y67685D01*
X98257Y67682D01*
X98232Y67674D01*
X98198Y67663D01*
X98160Y67646D01*
X98124Y67627D01*
X98085Y67607D01*
X98052Y67582D01*
X98049Y67580D01*
X98038Y67571D01*
X98024Y67555D01*
X98005Y67535D01*
X97982Y67510D01*
X97960Y67477D01*
X97938Y67441D01*
X97919Y67400D01*
X97916Y67394D01*
X97910Y67380D01*
X97902Y67355D01*
X97891Y67322D01*
X97883Y67283D01*
X97874Y67239D01*
X97869Y67189D01*
X97866Y67136D01*
Y67106D01*
X97869Y67092D01*
Y67076D01*
X97872Y67034D01*
X97880Y66987D01*
X97888Y66934D01*
X97902Y66884D01*
X97921Y66834D01*
X97924Y66829D01*
X97930Y66812D01*
X97944Y66790D01*
X97957Y66763D01*
X97979Y66729D01*
X98002Y66693D01*
X98029Y66660D01*
X98060Y66629D01*
X98063Y66627D01*
X98074Y66616D01*
X98093Y66602D01*
X98115Y66585D01*
X98143Y66566D01*
X98176Y66546D01*
X98212Y66527D01*
X98251Y66508D01*
X98254D01*
X98259Y66505D01*
X98268Y66502D01*
X98282Y66497D01*
X98298Y66491D01*
X98317Y66486D01*
X98340Y66477D01*
X98365Y66472D01*
X98423Y66458D01*
X98489Y66447D01*
X98558Y66438D01*
X98636Y66436D01*
X98639D01*
X98647D01*
X98661D01*
X98678Y66438D01*
X98700D01*
X98727Y66441D01*
X98755Y66444D01*
X98786Y66447D01*
X98855Y66458D01*
X98927Y66472D01*
X98999Y66494D01*
X99068Y66522D01*
X99071D01*
X99076Y66527D01*
X99085Y66530D01*
X99096Y66538D01*
X99126Y66558D01*
X99165Y66588D01*
X99207Y66624D01*
X99248Y66668D01*
X99287Y66721D01*
X99323Y66779D01*
Y66782D01*
X99326Y66787D01*
X99331Y66796D01*
X99337Y66810D01*
X99342Y66823D01*
X99348Y66843D01*
X99365Y66887D01*
X99378Y66943D01*
X99392Y67004D01*
X99403Y67070D01*
X99406Y67139D01*
Y67167D01*
X99403Y67184D01*
Y67200D01*
X99398Y67242D01*
X99392Y67291D01*
X99381Y67344D01*
X99365Y67402D01*
X99345Y67461D01*
Y67463D01*
X99342Y67469D01*
X99340Y67474D01*
X99334Y67485D01*
X99320Y67516D01*
X99304Y67549D01*
X99284Y67588D01*
X99262Y67629D01*
X99237Y67668D01*
X99209Y67702D01*
X98849D01*
Y67136D01*
X98622D01*
Y67951D01*
X99334D01*
X99337Y67948D01*
D02*
G37*
G36*
X99600Y65563D02*
X98697D01*
Y64571D01*
X99600D01*
Y64317D01*
X97683D01*
Y64571D01*
X98470D01*
Y65563D01*
X97683D01*
Y65818D01*
X99600D01*
Y65563D01*
D02*
G37*
G36*
X99007Y63993D02*
X99024Y63987D01*
X99046Y63979D01*
X99071Y63970D01*
X99101Y63959D01*
X99135Y63945D01*
X99171Y63929D01*
X99248Y63890D01*
X99326Y63840D01*
X99365Y63810D01*
X99403Y63779D01*
X99437Y63746D01*
X99470Y63707D01*
X99473Y63704D01*
X99478Y63699D01*
X99484Y63685D01*
X99495Y63671D01*
X99509Y63649D01*
X99522Y63627D01*
X99536Y63596D01*
X99550Y63566D01*
X99567Y63530D01*
X99581Y63491D01*
X99594Y63450D01*
X99608Y63405D01*
X99619Y63358D01*
X99625Y63308D01*
X99630Y63256D01*
X99633Y63200D01*
Y63170D01*
X99630Y63148D01*
Y63123D01*
X99628Y63092D01*
X99622Y63059D01*
X99617Y63020D01*
X99603Y62940D01*
X99581Y62857D01*
X99550Y62774D01*
X99531Y62735D01*
X99509Y62696D01*
X99506Y62693D01*
X99503Y62688D01*
X99495Y62677D01*
X99484Y62666D01*
X99473Y62649D01*
X99456Y62630D01*
X99437Y62608D01*
X99414Y62585D01*
X99389Y62563D01*
X99365Y62538D01*
X99301Y62488D01*
X99226Y62441D01*
X99143Y62400D01*
X99140D01*
X99132Y62394D01*
X99118Y62391D01*
X99101Y62383D01*
X99079Y62378D01*
X99051Y62369D01*
X99021Y62358D01*
X98988Y62350D01*
X98952Y62341D01*
X98910Y62331D01*
X98824Y62317D01*
X98727Y62305D01*
X98628Y62300D01*
X98625D01*
X98614D01*
X98597D01*
X98578Y62303D01*
X98550D01*
X98523Y62305D01*
X98487Y62308D01*
X98450Y62314D01*
X98370Y62328D01*
X98282Y62347D01*
X98193Y62375D01*
X98107Y62414D01*
X98104Y62416D01*
X98096Y62419D01*
X98085Y62425D01*
X98071Y62436D01*
X98052Y62447D01*
X98029Y62461D01*
X97979Y62497D01*
X97924Y62544D01*
X97869Y62599D01*
X97813Y62663D01*
X97766Y62738D01*
X97764Y62740D01*
X97761Y62749D01*
X97755Y62760D01*
X97747Y62774D01*
X97739Y62796D01*
X97730Y62818D01*
X97719Y62846D01*
X97708Y62876D01*
X97697Y62909D01*
X97686Y62945D01*
X97669Y63023D01*
X97655Y63112D01*
X97650Y63203D01*
Y63231D01*
X97653Y63250D01*
X97655Y63275D01*
X97658Y63305D01*
X97661Y63336D01*
X97669Y63372D01*
X97686Y63447D01*
X97711Y63530D01*
X97728Y63571D01*
X97747Y63610D01*
X97772Y63649D01*
X97797Y63688D01*
X97799Y63691D01*
X97802Y63696D01*
X97811Y63707D01*
X97824Y63721D01*
X97838Y63735D01*
X97858Y63754D01*
X97880Y63774D01*
X97902Y63796D01*
X97930Y63818D01*
X97963Y63840D01*
X97996Y63865D01*
X98032Y63887D01*
X98074Y63907D01*
X98115Y63929D01*
X98160Y63945D01*
X98210Y63962D01*
X98268Y63713D01*
X98265D01*
X98259Y63710D01*
X98248Y63704D01*
X98234Y63699D01*
X98218Y63693D01*
X98196Y63685D01*
X98151Y63663D01*
X98101Y63635D01*
X98052Y63602D01*
X98005Y63560D01*
X97963Y63516D01*
X97957Y63511D01*
X97946Y63494D01*
X97932Y63466D01*
X97913Y63430D01*
X97896Y63383D01*
X97880Y63330D01*
X97869Y63267D01*
X97866Y63197D01*
Y63175D01*
X97869Y63161D01*
Y63142D01*
X97872Y63120D01*
X97880Y63067D01*
X97891Y63009D01*
X97910Y62948D01*
X97938Y62884D01*
X97974Y62826D01*
Y62823D01*
X97979Y62821D01*
X97993Y62801D01*
X98016Y62776D01*
X98049Y62746D01*
X98090Y62710D01*
X98137Y62677D01*
X98196Y62646D01*
X98259Y62619D01*
X98262D01*
X98268Y62616D01*
X98276Y62613D01*
X98290Y62610D01*
X98306Y62605D01*
X98326Y62599D01*
X98373Y62591D01*
X98428Y62580D01*
X98489Y62569D01*
X98556Y62563D01*
X98628Y62560D01*
X98630D01*
X98639D01*
X98653D01*
X98669D01*
X98689Y62563D01*
X98714D01*
X98741Y62566D01*
X98772Y62569D01*
X98838Y62577D01*
X98910Y62591D01*
X98982Y62608D01*
X99054Y62630D01*
X99057D01*
X99063Y62632D01*
X99071Y62638D01*
X99085Y62643D01*
X99118Y62660D01*
X99157Y62685D01*
X99201Y62716D01*
X99248Y62754D01*
X99290Y62799D01*
X99329Y62851D01*
Y62854D01*
X99331Y62859D01*
X99337Y62868D01*
X99342Y62879D01*
X99348Y62893D01*
X99356Y62909D01*
X99373Y62948D01*
X99389Y62998D01*
X99403Y63053D01*
X99414Y63114D01*
X99417Y63178D01*
Y63197D01*
X99414Y63214D01*
Y63234D01*
X99412Y63253D01*
X99401Y63303D01*
X99387Y63361D01*
X99365Y63419D01*
X99334Y63480D01*
X99318Y63511D01*
X99295Y63538D01*
X99292Y63541D01*
X99290Y63544D01*
X99281Y63552D01*
X99273Y63563D01*
X99259Y63574D01*
X99243Y63588D01*
X99226Y63605D01*
X99204Y63618D01*
X99179Y63635D01*
X99151Y63655D01*
X99124Y63671D01*
X99090Y63688D01*
X99054Y63702D01*
X99015Y63715D01*
X98974Y63729D01*
X98930Y63740D01*
X98993Y63995D01*
X98996D01*
X99007Y63993D01*
D02*
G37*
G36*
X99693Y75256D02*
X99729Y75250D01*
X99773Y75242D01*
X99823Y75228D01*
X99873Y75211D01*
X99923Y75189D01*
X99926D01*
X99928Y75186D01*
X99945Y75178D01*
X99970Y75161D01*
X99998Y75142D01*
X100031Y75114D01*
X100064Y75084D01*
X100097Y75048D01*
X100125Y75006D01*
X100128Y75001D01*
X100136Y74987D01*
X100147Y74962D01*
X100161Y74932D01*
X100175Y74896D01*
X100186Y74854D01*
X100194Y74807D01*
X100197Y74760D01*
Y74754D01*
Y74738D01*
X100194Y74716D01*
X100189Y74685D01*
X100180Y74649D01*
X100167Y74610D01*
X100150Y74571D01*
X100128Y74533D01*
X100125Y74527D01*
X100117Y74516D01*
X100100Y74497D01*
X100078Y74475D01*
X100050Y74449D01*
X100017Y74422D01*
X99978Y74397D01*
X99931Y74372D01*
X99934D01*
X99940Y74369D01*
X99948Y74366D01*
X99959Y74364D01*
X99989Y74353D01*
X100028Y74336D01*
X100073Y74314D01*
X100117Y74286D01*
X100158Y74250D01*
X100197Y74209D01*
X100200Y74203D01*
X100211Y74186D01*
X100228Y74159D01*
X100244Y74123D01*
X100261Y74078D01*
X100277Y74026D01*
X100288Y73965D01*
X100291Y73898D01*
Y73896D01*
Y73887D01*
Y73873D01*
X100288Y73857D01*
X100286Y73835D01*
X100280Y73810D01*
X100275Y73782D01*
X100269Y73751D01*
X100247Y73685D01*
X100230Y73649D01*
X100214Y73616D01*
X100192Y73580D01*
X100167Y73544D01*
X100139Y73508D01*
X100106Y73475D01*
X100103Y73472D01*
X100097Y73466D01*
X100086Y73458D01*
X100073Y73447D01*
X100056Y73433D01*
X100034Y73419D01*
X100009Y73403D01*
X99978Y73389D01*
X99948Y73372D01*
X99912Y73355D01*
X99876Y73342D01*
X99834Y73328D01*
X99790Y73317D01*
X99743Y73308D01*
X99696Y73303D01*
X99643Y73300D01*
X99618D01*
X99602Y73303D01*
X99579Y73305D01*
X99555Y73308D01*
X99527Y73314D01*
X99496Y73319D01*
X99430Y73336D01*
X99361Y73364D01*
X99325Y73380D01*
X99291Y73400D01*
X99258Y73425D01*
X99225Y73450D01*
X99222Y73452D01*
X99217Y73458D01*
X99208Y73466D01*
X99200Y73477D01*
X99186Y73491D01*
X99172Y73510D01*
X99156Y73530D01*
X99139Y73555D01*
X99122Y73583D01*
X99106Y73610D01*
X99075Y73677D01*
X99050Y73754D01*
X99042Y73796D01*
X99037Y73840D01*
X99272Y73871D01*
Y73868D01*
X99275Y73862D01*
X99278Y73851D01*
X99280Y73837D01*
X99283Y73821D01*
X99289Y73801D01*
X99302Y73760D01*
X99322Y73710D01*
X99347Y73663D01*
X99375Y73619D01*
X99408Y73580D01*
X99413Y73577D01*
X99424Y73566D01*
X99446Y73552D01*
X99474Y73538D01*
X99507Y73522D01*
X99549Y73508D01*
X99596Y73497D01*
X99646Y73494D01*
X99663D01*
X99674Y73497D01*
X99704Y73499D01*
X99743Y73508D01*
X99787Y73522D01*
X99834Y73541D01*
X99881Y73569D01*
X99926Y73607D01*
X99931Y73613D01*
X99945Y73630D01*
X99962Y73655D01*
X99984Y73688D01*
X100006Y73729D01*
X100023Y73776D01*
X100037Y73832D01*
X100042Y73893D01*
Y73896D01*
Y73901D01*
Y73909D01*
X100039Y73921D01*
X100037Y73951D01*
X100028Y73987D01*
X100017Y74031D01*
X99998Y74076D01*
X99970Y74120D01*
X99934Y74161D01*
X99928Y74167D01*
X99915Y74178D01*
X99892Y74195D01*
X99862Y74214D01*
X99823Y74234D01*
X99776Y74250D01*
X99724Y74261D01*
X99665Y74267D01*
X99640D01*
X99621Y74264D01*
X99596Y74261D01*
X99568Y74256D01*
X99535Y74250D01*
X99499Y74242D01*
X99527Y74449D01*
X99541D01*
X99552Y74447D01*
X99588D01*
X99618Y74452D01*
X99654Y74458D01*
X99696Y74466D01*
X99743Y74480D01*
X99787Y74499D01*
X99834Y74524D01*
X99837D01*
X99840Y74527D01*
X99854Y74538D01*
X99873Y74558D01*
X99895Y74582D01*
X99917Y74619D01*
X99937Y74660D01*
X99951Y74707D01*
X99956Y74735D01*
Y74765D01*
Y74768D01*
Y74771D01*
Y74787D01*
X99951Y74810D01*
X99945Y74840D01*
X99934Y74873D01*
X99920Y74909D01*
X99898Y74945D01*
X99867Y74979D01*
X99865Y74981D01*
X99851Y74993D01*
X99831Y75006D01*
X99807Y75023D01*
X99773Y75037D01*
X99735Y75051D01*
X99690Y75062D01*
X99640Y75064D01*
X99618D01*
X99593Y75059D01*
X99560Y75053D01*
X99524Y75042D01*
X99488Y75029D01*
X99449Y75006D01*
X99413Y74979D01*
X99410Y74976D01*
X99399Y74962D01*
X99383Y74943D01*
X99363Y74915D01*
X99344Y74879D01*
X99325Y74835D01*
X99308Y74782D01*
X99297Y74721D01*
X99061Y74763D01*
Y74765D01*
X99064Y74774D01*
X99067Y74785D01*
X99070Y74801D01*
X99075Y74821D01*
X99084Y74843D01*
X99100Y74896D01*
X99128Y74957D01*
X99161Y75017D01*
X99203Y75076D01*
X99255Y75128D01*
X99258Y75131D01*
X99264Y75134D01*
X99272Y75139D01*
X99283Y75148D01*
X99297Y75159D01*
X99316Y75170D01*
X99336Y75181D01*
X99361Y75195D01*
X99416Y75217D01*
X99480Y75239D01*
X99555Y75253D01*
X99593Y75258D01*
X99663D01*
X99693Y75256D01*
D02*
G37*
G36*
X98111Y75247D02*
X98136D01*
X98194Y75244D01*
X98255Y75236D01*
X98322Y75228D01*
X98383Y75214D01*
X98413Y75206D01*
X98438Y75197D01*
X98441D01*
X98444Y75195D01*
X98460Y75186D01*
X98485Y75175D01*
X98516Y75156D01*
X98549Y75131D01*
X98585Y75098D01*
X98618Y75059D01*
X98651Y75015D01*
Y75012D01*
X98654Y75009D01*
X98665Y74993D01*
X98676Y74965D01*
X98693Y74929D01*
X98707Y74887D01*
X98721Y74837D01*
X98729Y74785D01*
X98732Y74726D01*
Y74724D01*
Y74718D01*
Y74707D01*
X98729Y74693D01*
Y74674D01*
X98726Y74655D01*
X98715Y74607D01*
X98699Y74552D01*
X98676Y74494D01*
X98643Y74436D01*
X98621Y74408D01*
X98599Y74380D01*
X98596Y74378D01*
X98593Y74375D01*
X98585Y74366D01*
X98574Y74358D01*
X98560Y74347D01*
X98543Y74336D01*
X98521Y74322D01*
X98499Y74305D01*
X98471Y74292D01*
X98441Y74278D01*
X98408Y74261D01*
X98372Y74247D01*
X98330Y74236D01*
X98289Y74222D01*
X98242Y74214D01*
X98192Y74206D01*
X98197Y74203D01*
X98208Y74198D01*
X98225Y74186D01*
X98247Y74175D01*
X98297Y74145D01*
X98322Y74125D01*
X98344Y74109D01*
X98349Y74103D01*
X98363Y74089D01*
X98386Y74067D01*
X98413Y74040D01*
X98444Y74001D01*
X98480Y73959D01*
X98516Y73909D01*
X98554Y73854D01*
X98884Y73333D01*
X98568D01*
X98316Y73732D01*
Y73735D01*
X98311Y73740D01*
X98305Y73749D01*
X98297Y73760D01*
X98277Y73790D01*
X98253Y73829D01*
X98222Y73871D01*
X98192Y73915D01*
X98161Y73957D01*
X98133Y73995D01*
X98131Y73998D01*
X98122Y74009D01*
X98109Y74026D01*
X98089Y74045D01*
X98048Y74087D01*
X98026Y74106D01*
X98003Y74123D01*
X98001Y74125D01*
X97995Y74128D01*
X97984Y74134D01*
X97967Y74142D01*
X97951Y74150D01*
X97931Y74159D01*
X97887Y74173D01*
X97884D01*
X97879Y74175D01*
X97868D01*
X97854Y74178D01*
X97834Y74181D01*
X97812D01*
X97782Y74184D01*
X97455D01*
Y73333D01*
X97200D01*
Y75250D01*
X98089D01*
X98111Y75247D01*
D02*
G37*
%LPC*%
G36*
X34391Y52065D02*
X33532D01*
X34391Y51461D01*
Y52065D01*
D02*
G37*
G36*
X97854Y38269D02*
X97837D01*
X97826Y38266D01*
X97799Y38264D01*
X97760Y38255D01*
X97718Y38241D01*
X97671Y38219D01*
X97627Y38192D01*
X97583Y38153D01*
X97577Y38147D01*
X97566Y38133D01*
X97546Y38109D01*
X97527Y38073D01*
X97508Y38031D01*
X97488Y37978D01*
X97477Y37920D01*
X97472Y37854D01*
Y37848D01*
Y37834D01*
X97474Y37809D01*
X97477Y37779D01*
X97483Y37743D01*
X97494Y37704D01*
X97505Y37663D01*
X97522Y37621D01*
X97524Y37615D01*
X97533Y37602D01*
X97544Y37582D01*
X97560Y37557D01*
X97580Y37532D01*
X97605Y37502D01*
X97632Y37477D01*
X97666Y37452D01*
X97671Y37449D01*
X97682Y37444D01*
X97702Y37433D01*
X97727Y37424D01*
X97754Y37413D01*
X97787Y37402D01*
X97824Y37397D01*
X97862Y37394D01*
X97876D01*
X97887Y37397D01*
X97915Y37399D01*
X97951Y37408D01*
X97990Y37424D01*
X98034Y37444D01*
X98078Y37474D01*
X98101Y37491D01*
X98120Y37513D01*
Y37516D01*
X98125Y37519D01*
X98137Y37535D01*
X98153Y37563D01*
X98175Y37599D01*
X98195Y37646D01*
X98211Y37701D01*
X98222Y37765D01*
X98228Y37840D01*
Y37843D01*
Y37848D01*
Y37859D01*
X98225Y37873D01*
Y37890D01*
X98222Y37909D01*
X98214Y37953D01*
X98203Y38003D01*
X98184Y38056D01*
X98156Y38106D01*
X98120Y38153D01*
X98114Y38158D01*
X98101Y38172D01*
X98078Y38189D01*
X98048Y38211D01*
X98009Y38233D01*
X97965Y38250D01*
X97912Y38264D01*
X97854Y38269D01*
D02*
G37*
G36*
X65898Y43590D02*
X65455D01*
Y42127D01*
X65909D01*
X65929Y42130D01*
X65970Y42133D01*
X66017Y42136D01*
X66067Y42141D01*
X66117Y42149D01*
X66158Y42160D01*
X66164Y42163D01*
X66178Y42166D01*
X66197Y42174D01*
X66222Y42185D01*
X66250Y42202D01*
X66278Y42219D01*
X66305Y42238D01*
X66333Y42260D01*
X66336Y42266D01*
X66347Y42277D01*
X66364Y42296D01*
X66383Y42324D01*
X66405Y42360D01*
X66430Y42401D01*
X66452Y42448D01*
X66471Y42501D01*
Y42504D01*
X66474Y42509D01*
X66477Y42518D01*
X66480Y42529D01*
X66483Y42543D01*
X66488Y42562D01*
X66494Y42581D01*
X66499Y42604D01*
X66508Y42659D01*
X66516Y42723D01*
X66521Y42795D01*
X66524Y42872D01*
Y42875D01*
Y42886D01*
Y42900D01*
X66521Y42922D01*
Y42947D01*
X66519Y42975D01*
X66516Y43008D01*
X66513Y43041D01*
X66499Y43116D01*
X66483Y43194D01*
X66458Y43266D01*
X66441Y43302D01*
X66424Y43332D01*
Y43335D01*
X66419Y43340D01*
X66413Y43349D01*
X66408Y43360D01*
X66386Y43387D01*
X66358Y43421D01*
X66322Y43457D01*
X66280Y43493D01*
X66233Y43523D01*
X66183Y43548D01*
X66178Y43551D01*
X66164Y43554D01*
X66139Y43562D01*
X66103Y43570D01*
X66059Y43576D01*
X66003Y43584D01*
X65970Y43587D01*
X65934D01*
X65898Y43590D01*
D02*
G37*
G36*
X39009Y31571D02*
X39007D01*
X39004D01*
X38987Y31569D01*
X38962Y31566D01*
X38929Y31560D01*
X38896Y31547D01*
X38857Y31530D01*
X38821Y31505D01*
X38785Y31472D01*
X38782Y31466D01*
X38771Y31452D01*
X38757Y31430D01*
X38741Y31394D01*
X38724Y31353D01*
X38710Y31297D01*
X38699Y31234D01*
X38696Y31159D01*
Y30555D01*
X39331D01*
Y31126D01*
X39328Y31159D01*
X39325Y31198D01*
X39323Y31242D01*
X39317Y31286D01*
X39309Y31330D01*
X39298Y31369D01*
X39295Y31375D01*
X39289Y31386D01*
X39281Y31403D01*
X39270Y31425D01*
X39253Y31450D01*
X39234Y31475D01*
X39209Y31499D01*
X39181Y31519D01*
X39178Y31522D01*
X39167Y31527D01*
X39151Y31536D01*
X39129Y31547D01*
X39104Y31555D01*
X39076Y31563D01*
X39043Y31569D01*
X39009Y31571D01*
D02*
G37*
G36*
X34209Y31371D02*
X34207D01*
X34204D01*
X34187Y31369D01*
X34162Y31366D01*
X34129Y31360D01*
X34096Y31346D01*
X34057Y31330D01*
X34021Y31305D01*
X33985Y31272D01*
X33982Y31266D01*
X33971Y31252D01*
X33957Y31230D01*
X33941Y31194D01*
X33924Y31153D01*
X33910Y31097D01*
X33899Y31034D01*
X33896Y30959D01*
Y30355D01*
X34531D01*
Y30926D01*
X34528Y30959D01*
X34525Y30997D01*
X34523Y31042D01*
X34517Y31086D01*
X34509Y31130D01*
X34498Y31169D01*
X34495Y31175D01*
X34489Y31186D01*
X34481Y31203D01*
X34470Y31225D01*
X34453Y31250D01*
X34434Y31275D01*
X34409Y31299D01*
X34381Y31319D01*
X34378Y31322D01*
X34367Y31327D01*
X34351Y31335D01*
X34329Y31346D01*
X34304Y31355D01*
X34276Y31363D01*
X34243Y31369D01*
X34209Y31371D01*
D02*
G37*
G36*
X77609Y43271D02*
X77607D01*
X77604D01*
X77587Y43269D01*
X77562Y43266D01*
X77529Y43260D01*
X77496Y43246D01*
X77457Y43230D01*
X77421Y43205D01*
X77385Y43172D01*
X77382Y43166D01*
X77371Y43152D01*
X77357Y43130D01*
X77341Y43094D01*
X77324Y43053D01*
X77310Y42997D01*
X77299Y42933D01*
X77297Y42859D01*
Y42255D01*
X77931D01*
Y42825D01*
X77928Y42859D01*
X77925Y42897D01*
X77922Y42942D01*
X77917Y42986D01*
X77909Y43030D01*
X77898Y43069D01*
X77895Y43075D01*
X77889Y43086D01*
X77881Y43102D01*
X77870Y43125D01*
X77853Y43150D01*
X77834Y43174D01*
X77809Y43199D01*
X77781Y43219D01*
X77778Y43222D01*
X77767Y43227D01*
X77751Y43235D01*
X77729Y43246D01*
X77704Y43255D01*
X77676Y43263D01*
X77643Y43269D01*
X77609Y43271D01*
D02*
G37*
G36*
X95843Y24050D02*
X95838D01*
X95827D01*
X95804Y24047D01*
X95780Y24042D01*
X95752Y24036D01*
X95721Y24025D01*
X95691Y24011D01*
X95660Y23992D01*
X95658Y23989D01*
X95647Y23980D01*
X95633Y23969D01*
X95616Y23953D01*
X95597Y23931D01*
X95577Y23903D01*
X95561Y23873D01*
X95547Y23836D01*
X95544Y23831D01*
X95541Y23820D01*
X95536Y23795D01*
X95530Y23765D01*
X95525Y23726D01*
X95519Y23679D01*
X95514Y23620D01*
Y23116D01*
X96173D01*
Y23662D01*
X96170Y23720D01*
X96167Y23745D01*
X96165Y23767D01*
Y23770D01*
X96162Y23781D01*
X96159Y23798D01*
X96153Y23817D01*
X96137Y23864D01*
X96115Y23911D01*
X96112Y23914D01*
X96106Y23922D01*
X96098Y23933D01*
X96087Y23947D01*
X96070Y23961D01*
X96054Y23980D01*
X96032Y23994D01*
X96007Y24011D01*
X96004Y24014D01*
X95996Y24016D01*
X95979Y24022D01*
X95960Y24030D01*
X95937Y24039D01*
X95910Y24044D01*
X95876Y24047D01*
X95843Y24050D01*
D02*
G37*
G36*
X95004Y23967D02*
X94998D01*
X94987D01*
X94971Y23964D01*
X94949Y23961D01*
X94921Y23956D01*
X94893Y23947D01*
X94865Y23936D01*
X94838Y23920D01*
X94835Y23917D01*
X94827Y23911D01*
X94813Y23900D01*
X94799Y23886D01*
X94782Y23867D01*
X94766Y23845D01*
X94749Y23817D01*
X94738Y23787D01*
Y23784D01*
X94732Y23770D01*
X94730Y23751D01*
X94724Y23720D01*
X94719Y23679D01*
X94716Y23631D01*
X94710Y23571D01*
Y23116D01*
X95287D01*
Y23587D01*
X95284Y23623D01*
X95281Y23662D01*
X95278Y23701D01*
X95273Y23740D01*
X95267Y23770D01*
X95264Y23776D01*
X95262Y23787D01*
X95253Y23803D01*
X95242Y23825D01*
X95231Y23848D01*
X95214Y23873D01*
X95192Y23897D01*
X95170Y23917D01*
X95167Y23920D01*
X95159Y23925D01*
X95142Y23933D01*
X95123Y23942D01*
X95101Y23950D01*
X95073Y23958D01*
X95040Y23964D01*
X95004Y23967D01*
D02*
G37*
G36*
X90143Y24050D02*
X90138D01*
X90127D01*
X90104Y24047D01*
X90079Y24042D01*
X90052Y24036D01*
X90021Y24025D01*
X89991Y24011D01*
X89960Y23992D01*
X89958Y23989D01*
X89947Y23980D01*
X89933Y23969D01*
X89916Y23953D01*
X89897Y23931D01*
X89877Y23903D01*
X89861Y23873D01*
X89847Y23836D01*
X89844Y23831D01*
X89841Y23820D01*
X89836Y23795D01*
X89830Y23765D01*
X89825Y23726D01*
X89819Y23679D01*
X89814Y23620D01*
Y23116D01*
X90473D01*
Y23662D01*
X90470Y23720D01*
X90467Y23745D01*
X90465Y23767D01*
Y23770D01*
X90462Y23781D01*
X90459Y23798D01*
X90453Y23817D01*
X90437Y23864D01*
X90415Y23911D01*
X90412Y23914D01*
X90406Y23922D01*
X90398Y23933D01*
X90387Y23947D01*
X90370Y23961D01*
X90354Y23980D01*
X90332Y23994D01*
X90307Y24011D01*
X90304Y24014D01*
X90296Y24016D01*
X90279Y24022D01*
X90260Y24030D01*
X90237Y24039D01*
X90210Y24044D01*
X90176Y24047D01*
X90143Y24050D01*
D02*
G37*
G36*
X89304Y23967D02*
X89298D01*
X89287D01*
X89271Y23964D01*
X89249Y23961D01*
X89221Y23956D01*
X89193Y23947D01*
X89165Y23936D01*
X89138Y23920D01*
X89135Y23917D01*
X89127Y23911D01*
X89113Y23900D01*
X89099Y23886D01*
X89082Y23867D01*
X89066Y23845D01*
X89049Y23817D01*
X89038Y23787D01*
Y23784D01*
X89033Y23770D01*
X89030Y23751D01*
X89024Y23720D01*
X89019Y23679D01*
X89016Y23631D01*
X89010Y23571D01*
Y23116D01*
X89587D01*
Y23587D01*
X89584Y23623D01*
X89581Y23662D01*
X89578Y23701D01*
X89573Y23740D01*
X89567Y23770D01*
X89564Y23776D01*
X89561Y23787D01*
X89553Y23803D01*
X89542Y23825D01*
X89531Y23848D01*
X89514Y23873D01*
X89492Y23897D01*
X89470Y23917D01*
X89467Y23920D01*
X89459Y23925D01*
X89442Y23933D01*
X89423Y23942D01*
X89401Y23950D01*
X89373Y23958D01*
X89340Y23964D01*
X89304Y23967D01*
D02*
G37*
G36*
X84543Y24050D02*
X84538D01*
X84527D01*
X84504Y24047D01*
X84479Y24042D01*
X84452Y24036D01*
X84421Y24025D01*
X84391Y24011D01*
X84360Y23992D01*
X84358Y23989D01*
X84347Y23980D01*
X84333Y23969D01*
X84316Y23953D01*
X84297Y23931D01*
X84277Y23903D01*
X84261Y23873D01*
X84247Y23836D01*
X84244Y23831D01*
X84241Y23820D01*
X84236Y23795D01*
X84230Y23765D01*
X84225Y23726D01*
X84219Y23679D01*
X84214Y23620D01*
Y23116D01*
X84873D01*
Y23662D01*
X84870Y23720D01*
X84867Y23745D01*
X84864Y23767D01*
Y23770D01*
X84862Y23781D01*
X84859Y23798D01*
X84854Y23817D01*
X84837Y23864D01*
X84815Y23911D01*
X84812Y23914D01*
X84806Y23922D01*
X84798Y23933D01*
X84787Y23947D01*
X84770Y23961D01*
X84754Y23980D01*
X84732Y23994D01*
X84707Y24011D01*
X84704Y24014D01*
X84696Y24016D01*
X84679Y24022D01*
X84660Y24030D01*
X84637Y24039D01*
X84610Y24044D01*
X84576Y24047D01*
X84543Y24050D01*
D02*
G37*
G36*
X83704Y23967D02*
X83698D01*
X83687D01*
X83671Y23964D01*
X83649Y23961D01*
X83621Y23956D01*
X83593Y23947D01*
X83565Y23936D01*
X83538Y23920D01*
X83535Y23917D01*
X83527Y23911D01*
X83513Y23900D01*
X83499Y23886D01*
X83482Y23867D01*
X83466Y23845D01*
X83449Y23817D01*
X83438Y23787D01*
Y23784D01*
X83433Y23770D01*
X83430Y23751D01*
X83424Y23720D01*
X83419Y23679D01*
X83416Y23631D01*
X83410Y23571D01*
Y23116D01*
X83987D01*
Y23587D01*
X83984Y23623D01*
X83981Y23662D01*
X83978Y23701D01*
X83973Y23740D01*
X83967Y23770D01*
X83964Y23776D01*
X83961Y23787D01*
X83953Y23803D01*
X83942Y23825D01*
X83931Y23848D01*
X83914Y23873D01*
X83892Y23897D01*
X83870Y23917D01*
X83867Y23920D01*
X83859Y23925D01*
X83842Y23933D01*
X83823Y23942D01*
X83801Y23950D01*
X83773Y23958D01*
X83740Y23964D01*
X83704Y23967D01*
D02*
G37*
G36*
X101324Y25316D02*
X100465D01*
X101324Y24712D01*
Y25316D01*
D02*
G37*
G36*
X101443Y24050D02*
X101438D01*
X101427D01*
X101404Y24047D01*
X101380Y24042D01*
X101352Y24036D01*
X101321Y24025D01*
X101291Y24011D01*
X101260Y23992D01*
X101258Y23989D01*
X101247Y23980D01*
X101233Y23969D01*
X101216Y23953D01*
X101197Y23931D01*
X101177Y23903D01*
X101161Y23873D01*
X101147Y23836D01*
X101144Y23831D01*
X101141Y23820D01*
X101136Y23795D01*
X101130Y23765D01*
X101125Y23726D01*
X101119Y23679D01*
X101114Y23620D01*
Y23116D01*
X101773D01*
Y23662D01*
X101770Y23720D01*
X101767Y23745D01*
X101765Y23767D01*
Y23770D01*
X101762Y23781D01*
X101759Y23798D01*
X101753Y23817D01*
X101737Y23864D01*
X101715Y23911D01*
X101712Y23914D01*
X101706Y23922D01*
X101698Y23933D01*
X101687Y23947D01*
X101670Y23961D01*
X101654Y23980D01*
X101632Y23994D01*
X101607Y24011D01*
X101604Y24014D01*
X101596Y24016D01*
X101579Y24022D01*
X101560Y24030D01*
X101537Y24039D01*
X101510Y24044D01*
X101477Y24047D01*
X101443Y24050D01*
D02*
G37*
G36*
X100604Y23967D02*
X100598D01*
X100587D01*
X100571Y23964D01*
X100549Y23961D01*
X100521Y23956D01*
X100493Y23947D01*
X100465Y23936D01*
X100438Y23920D01*
X100435Y23917D01*
X100427Y23911D01*
X100413Y23900D01*
X100399Y23886D01*
X100382Y23867D01*
X100366Y23845D01*
X100349Y23817D01*
X100338Y23787D01*
Y23784D01*
X100332Y23770D01*
X100330Y23751D01*
X100324Y23720D01*
X100319Y23679D01*
X100316Y23631D01*
X100310Y23571D01*
Y23116D01*
X100886D01*
Y23587D01*
X100884Y23623D01*
X100881Y23662D01*
X100878Y23701D01*
X100873Y23740D01*
X100867Y23770D01*
X100864Y23776D01*
X100862Y23787D01*
X100853Y23803D01*
X100842Y23825D01*
X100831Y23848D01*
X100814Y23873D01*
X100792Y23897D01*
X100770Y23917D01*
X100767Y23920D01*
X100759Y23925D01*
X100742Y23933D01*
X100723Y23942D01*
X100701Y23950D01*
X100673Y23958D01*
X100640Y23964D01*
X100604Y23967D01*
D02*
G37*
G36*
X12048Y43402D02*
X12045D01*
X12043D01*
X12029D01*
X12004Y43399D01*
X11976Y43394D01*
X11946Y43388D01*
X11910Y43377D01*
X11876Y43361D01*
X11843Y43341D01*
X11840Y43339D01*
X11829Y43330D01*
X11816Y43316D01*
X11796Y43300D01*
X11777Y43275D01*
X11760Y43247D01*
X11744Y43217D01*
X11730Y43181D01*
Y43178D01*
X11727Y43167D01*
X11724Y43150D01*
X11719Y43128D01*
X11716Y43095D01*
X11713Y43053D01*
X11710Y43003D01*
Y42455D01*
X12394D01*
Y42970D01*
X12392Y42989D01*
Y43009D01*
X12389Y43031D01*
X12383Y43084D01*
X12372Y43142D01*
X12356Y43200D01*
X12333Y43253D01*
X12320Y43277D01*
X12303Y43297D01*
X12297Y43303D01*
X12286Y43314D01*
X12264Y43330D01*
X12237Y43349D01*
X12201Y43369D01*
X12156Y43386D01*
X12106Y43397D01*
X12048Y43402D01*
D02*
G37*
G36*
X98059Y75037D02*
X97455D01*
Y74402D01*
X98026D01*
X98059Y74405D01*
X98097Y74408D01*
X98142Y74411D01*
X98186Y74416D01*
X98230Y74425D01*
X98269Y74436D01*
X98275Y74439D01*
X98286Y74444D01*
X98303Y74452D01*
X98325Y74463D01*
X98349Y74480D01*
X98374Y74499D01*
X98399Y74524D01*
X98419Y74552D01*
X98422Y74555D01*
X98427Y74566D01*
X98435Y74582D01*
X98447Y74605D01*
X98455Y74630D01*
X98463Y74657D01*
X98469Y74691D01*
X98471Y74724D01*
Y74726D01*
Y74729D01*
X98469Y74746D01*
X98466Y74771D01*
X98460Y74804D01*
X98447Y74837D01*
X98430Y74876D01*
X98405Y74912D01*
X98372Y74948D01*
X98366Y74951D01*
X98352Y74962D01*
X98330Y74976D01*
X98294Y74993D01*
X98253Y75009D01*
X98197Y75023D01*
X98133Y75034D01*
X98059Y75037D01*
D02*
G37*
%LPD*%
D11*
X65999Y46882D02*
G03*
X65999Y46882I-557J0D01*
G01*
D12*
X69226Y24614D02*
Y29023D01*
Y24614D02*
X71667D01*
Y29023D01*
X69226D02*
X71667D01*
X58381Y11699D02*
X62790D01*
X58381D02*
Y14140D01*
X62790D01*
Y11699D02*
Y14140D01*
X53604Y43158D02*
Y47568D01*
Y43158D02*
X56045D01*
Y47568D01*
X53604D02*
X56045D01*
X28497Y54016D02*
X30938D01*
X28497Y49606D02*
X30938D01*
X28497D02*
Y54016D01*
X30938Y49606D02*
Y54016D01*
X85873Y36966D02*
X90282D01*
X85873D02*
Y39407D01*
X90282D01*
Y36966D02*
Y39407D01*
X94667Y36966D02*
X99076D01*
X94667D02*
Y39407D01*
X99076D01*
Y36966D02*
Y39407D01*
X38353Y33751D02*
X40557D01*
X38353Y29578D02*
X40557D01*
X38353D02*
Y33751D01*
X40557Y29578D02*
Y33751D01*
X33566D02*
X35771D01*
X33566Y29578D02*
X35771D01*
X33566D02*
Y33751D01*
X35771Y29578D02*
Y33751D01*
X96475Y73236D02*
X100648D01*
X96475D02*
Y75441D01*
X100648D01*
Y73236D02*
Y75441D01*
D14*
X66538Y24590D02*
G03*
X66538Y22190I0J-1200D01*
G01*
X43001Y37140D02*
G03*
X40601Y37140I-1200J0D01*
G01*
X93700Y42563D02*
G03*
X91300Y42563I-1200J0D01*
G01*
X43925Y29166D02*
X51825D01*
X43925D02*
Y34066D01*
X51825D01*
Y29166D02*
Y34066D01*
X61702Y37905D02*
Y39913D01*
X63867D01*
X61702Y37905D02*
X63867D01*
X61702Y45976D02*
Y47984D01*
X63867D01*
X61702Y45976D02*
X63867D01*
Y36941D02*
X69379D01*
X63867D02*
Y48949D01*
X69379Y36941D02*
Y48949D01*
X63867D02*
X69379D01*
Y41941D02*
X71545D01*
Y43949D01*
X69379D02*
X71545D01*
X58551Y58622D02*
Y88543D01*
X27449Y58622D02*
Y88543D01*
X58551D01*
X27449Y58622D02*
X58551D01*
X90144Y52263D02*
Y72342D01*
X66522Y52263D02*
Y72342D01*
X90144D01*
X66522Y52263D02*
X90144D01*
X75439Y48924D02*
X80557D01*
X75439Y39869D02*
X80557D01*
X75439D02*
Y48924D01*
X80557Y39869D02*
Y48924D01*
X55698Y17090D02*
Y19840D01*
Y17090D02*
X57698D01*
X54338Y19840D02*
X66538D01*
X57698Y17090D02*
Y19840D01*
X54338D02*
Y26940D01*
X55698D02*
X57698D01*
X55698D02*
Y29690D01*
X54338Y26940D02*
X66538D01*
X55698Y19840D02*
X57698D01*
X55698Y29690D02*
X57698D01*
X59438Y26940D02*
Y29690D01*
X57698Y26940D02*
Y29690D01*
X63178Y19840D02*
X65178D01*
X63178Y17090D02*
X65178D01*
X63178D02*
Y19840D01*
X65178Y17090D02*
Y19840D01*
X66538D02*
Y26940D01*
X59438D02*
X61438D01*
Y29690D01*
X59438D02*
X61438D01*
X63178Y26940D02*
Y29690D01*
Y26940D02*
X65178D01*
X63178Y29690D02*
X65178D01*
Y26940D02*
Y29690D01*
X35501Y38500D02*
Y40500D01*
X38251Y37140D02*
Y49340D01*
X35501Y40500D02*
X38251D01*
Y37140D02*
X45351D01*
X35501Y38500D02*
X38251D01*
X35501Y45980D02*
Y47980D01*
Y45980D02*
X38251D01*
Y47980D01*
X35501D02*
X38251D01*
Y49340D02*
X45351D01*
Y38500D02*
Y40500D01*
X38251Y38500D02*
Y40500D01*
X45351Y37140D02*
Y49340D01*
Y40500D02*
X48101D01*
X45351Y38500D02*
X48101D01*
Y40500D01*
X45351Y44240D02*
X48101D01*
X45351Y42240D02*
X48101D01*
X45351D02*
Y44240D01*
Y45980D02*
Y47980D01*
X48101Y42240D02*
Y44240D01*
X45351Y45980D02*
X48101D01*
X45351Y47980D02*
X48101D01*
Y45980D02*
Y47980D01*
X86398Y45024D02*
Y46008D01*
X87972Y42563D02*
Y50437D01*
X86398Y43055D02*
Y44039D01*
Y43055D02*
X87972D01*
X86398Y44039D02*
X87972D01*
Y42563D02*
X97028D01*
X86398Y45024D02*
X87972D01*
Y46008D01*
X86398D02*
X87972D01*
X86398Y46992D02*
Y47976D01*
Y48961D02*
Y49945D01*
Y46992D02*
X87972D01*
X86398Y47976D02*
X87972D01*
Y46992D02*
Y47976D01*
X86398Y48961D02*
X87972D01*
X86398Y49945D02*
X87972D01*
Y48961D02*
Y49945D01*
Y50437D02*
X97028D01*
Y43055D02*
Y44039D01*
X87972Y43055D02*
Y44039D01*
X97028Y42563D02*
Y50437D01*
Y45024D02*
Y46008D01*
Y43055D02*
X98602D01*
X97028Y44039D02*
X98602D01*
Y43055D02*
Y44039D01*
Y45024D02*
Y46008D01*
X97028Y46992D02*
X98602D01*
X97028D02*
Y47976D01*
Y45024D02*
X98602D01*
X97028Y46008D02*
X98602D01*
X97028Y48961D02*
Y49945D01*
X98602Y46992D02*
Y47976D01*
X97028D02*
X98602D01*
X97028Y48961D02*
X98602D01*
X97028Y49945D02*
X98602D01*
Y48961D02*
Y49945D01*
X3110Y25315D02*
Y64685D01*
Y25315D02*
X15413D01*
X3110Y64685D02*
X15413D01*
Y25315D02*
Y33189D01*
X26240D01*
Y56811D01*
X15413D02*
Y64685D01*
Y56811D02*
X26240D01*
X96165Y61805D02*
Y69705D01*
X101065D01*
Y61805D02*
Y69705D01*
X96165Y61805D02*
X101065D01*
D15*
X104679Y86647D02*
X227907D01*
X104679Y2789D02*
Y86647D01*
X227907Y2789D02*
Y86647D01*
X104679Y2789D02*
X227907D01*
X28923Y14591D02*
X44277D01*
X28923Y26009D02*
X44277D01*
X28923Y14591D02*
Y26009D01*
X44277Y14591D02*
Y26009D01*
D16*
X93713Y17636D02*
G03*
X97327Y17636I1807J319D01*
G01*
Y18804D02*
G03*
X93713Y18804I-1807J-319D01*
G01*
X88013Y17596D02*
G03*
X91627Y17596I1807J319D01*
G01*
Y18764D02*
G03*
X88013Y18764I-1807J-319D01*
G01*
X85927Y18766D02*
G03*
X82313Y18766I-1807J-319D01*
G01*
Y17794D02*
G03*
X85927Y17794I1807J319D01*
G01*
X103027Y18766D02*
G03*
X99413Y18766I-1807J-319D01*
G01*
Y17794D02*
G03*
X103027Y17794I1807J319D01*
G01*
X93713Y17636D02*
X95126D01*
X93713Y18804D02*
X95126D01*
Y17636D02*
Y18804D01*
X95914Y17636D02*
Y18804D01*
Y17636D02*
X97327D01*
X95914Y18804D02*
X97327D01*
X88013Y17596D02*
X89426D01*
X88013Y18764D02*
X89426D01*
Y17596D02*
Y18764D01*
X90214Y17596D02*
Y18764D01*
Y17596D02*
X91627D01*
X90214Y18764D02*
X91627D01*
X82313Y18766D02*
X85927D01*
X82313Y17794D02*
X85927D01*
X99413Y18766D02*
X103027D01*
X99413Y17794D02*
X103027D01*
D84*
X51858Y54685D02*
G03*
X51858Y54685I-394J0D01*
G01*
D85*
X63867Y37905D02*
Y39913D01*
X69379Y41941D02*
Y43949D01*
X63867Y45976D02*
Y47984D01*
M02*
