M48
;Layer_Color=9474304
;FILE_FORMAT=2:5
INCH,LZ
;TYPE=PLATED
T1F00S00C0.01181
T2F00S00C0.01968
T5F00S00C0.03543
T6F00S00C0.08661
T7F00S00C0.10827
;TYPE=NON_PLATED
T8F00S00C0.04000
T9F00S00C0.11024
%
T01
X0005078Y0004976
X0025078
X0035078
X0045078
X0055078
X0075078
X0073Y0020416
X00697
X00664
Y0024614
X00697
X0073
X007444Y003251
X0066634Y0038325
X0063061
X0059488
X006187Y002729
X0035078Y0024976
Y0014976
Y0034976
X0025078
X0015078
X0005078
Y0024976
Y0044976
X0015078
X0025078
X0015078Y0054976
X0005078
Y0064976
X0015078
Y0074976
X0005078
X0017178Y0091676
X0017478Y0098776
X00316Y01
X0035088Y0101157
X0035878Y0109176
X0035713Y0112955
X0031545Y01125
X0031516Y0109457
X00459Y0112402
X0058415Y0110409
X0058337Y0101181
Y0098054
X0058415Y0094661
Y0091511
X006607Y008981
X006923Y008974
X0076062Y0086393
X0074958Y0101671
X0042778Y0099676
X0043014Y0095674
X0041278Y0089676
X0038778Y0084976
X0047971Y0085654
X0035078Y0074976
Y0064976
Y0054976
X0045078
Y0064976
X0058415Y00573
X0062775Y0069011
X0062697Y0072835
X00808Y0069
X00914Y00746
X0095078Y0080204
X0090078Y0089976
X0080078
Y0099976
X0090078
Y0109976
X0080078
X0103278Y0112976
X0120197Y01125
X0117421Y0108519
Y009
X0122015Y0087722
X01267Y008999
X01297Y00821
Y00766
Y00645
X01244Y00405
X0136Y00315
X01425
X01395Y0028
X01475Y00235
X0155Y00205
X0155078Y0014976
Y0004976
X0145078
X0135078
X0125078
X0115078
X0105078
X0095078
X0085078
X0082978Y0023176
X0079528Y0024614
X007882Y002808
X0080078Y0038276
X00935Y0018
X0104
X0114Y00165
X01295Y00235
X01605Y0026
X01555Y00315
X01655
X01715
X0169Y00235
X0179
X0175078Y0014976
Y0004976
X0165078
Y0014976
X0185078
X0191178Y0014876
X0195078Y0004976
X0185078
X0205078
X0215078
X0225078
X0227778Y0015076
X0215778
X0232978Y0024976
X0229978Y0037276
X0225Y0048
X0231Y00535
X02122Y00588
X01915Y00586
X01841Y00591
X01958Y00535
Y00427
X01911Y0038
X017735Y003675
X01655Y00425
X01697Y0065
X0172638Y0080905
X0178445
X01665Y0081
X01608Y0080905
X01659Y00875
X0164961Y0096619
X0164978Y0102476
X0175078
X017596Y011012
X01866Y0105213
X01939Y00998
X02005Y00965
X02088
X02005Y01065
X0216535Y0108692
X02204Y01124
X023244Y009075
X01908Y008999
X01746
X01446Y0098622
Y01042
X01407Y01024
X01381Y00959
X0107584Y0096166
X0103721Y0089639
X01096Y00787
X01Y0065
X02355Y00535
X02345Y0048
X02414Y00412
Y00374
X0256296Y003937
X0255Y0048
X0265
X0267578Y0041276
X0274978Y0041176
X02755Y0056835
X0279525Y0056899
X02809Y00631
X02745Y0071
X0264728Y0071021
X02545Y0071
X0255878Y0091376
X0252078Y0093476
X0249378Y0097476
X02548Y00975
X0263078Y0089876
X0265483Y00823
X0273978Y0080576
X027346Y008641
X0280078Y0084976
X0279978Y0093176
X0290078
Y0084976
X0291978Y0104976
X0284878Y0105176
Y0112076
X0265078Y0104976
X0239277Y0113649
X02384Y00871
X02414
Y008405
X02384
Y0081
X02414
X0256398Y002858
X0267878Y0028376
X0264878Y0025276
X02648Y00198
X0249578Y0019976
X0245078Y0004976
X0235078
X0255078
X0275078
X0273978Y0013576
X0290078Y0014976
Y0024976
X0281378Y0028876
X02975Y00303
X0310078Y0024976
X0317098Y002874
X03138Y00323
X0323278Y0034976
X0323478Y0029576
X0330078Y0034976
X0340078
X0350078
Y0024976
Y0014976
Y0004976
X0360078
X0380078
X0360078Y0034976
X0330078Y0014976
X0308228Y0013787
X0301278Y0013776
X0294378Y0007476
X0304978Y0003476
X0306Y0043
X0304Y0048
X0307024Y0054994
X0305478Y00665
X0291978Y0114976
X026894Y016622
X02685Y0173081
X0265078Y0199976
X0255078
X0245078
X0235078
X0275078
X0285078
X0295078
X0305078
X0315078
X0325078
X0335078
X0345078
X0355078
Y0189976
X0345078
X0335078
X0325078
X0315078
X0380078Y0199976
X02472Y016
X0243563Y0159974
X0240131Y0153123
Y0149398
X0230078Y0159976
X0221678Y0145376
X021Y0149398
X02112Y01533
X0207078Y0159776
X0203278Y0157076
X0200078Y0159976
X019Y017
X0185078Y0199976
X0175078
X0165078
X0155078
X0145078
X0135078
X0125078
X0115078
X0105078
X0095078
X0092696Y0193376
X0097716Y018905
X0086578Y0188976
X0080787Y0193276
X0085078Y0199976
X0113878Y0187805
Y0182776
Y0177976
X0109878Y0178576
X0102778Y0168276
X01047Y01653
Y0161667
Y0158033
Y01544
X011932Y0144775
X0129378Y01341
X0140778Y0128676
X01379Y0121653
X0135433Y0116929
X013248
X01446Y0117307
X01475Y0114653
X0164978Y0138376
X0165078Y0147876
X0154878Y0151976
X0141237Y0183982
X0137006
X0132776
Y01889
X0137006
X0141237
X0195078Y0199976
X0205078
Y0189976
X0225078
Y0199976
X0233464Y0121019
X0215578Y0119776
X0212378
X0210178Y0122276
Y0124976
X0196Y0124
X01915Y0116
X0204
X0105578Y0115576
X010341Y01187
X0105177Y0121653
Y0126137
X0094207Y0130517
X0097148Y0133676
X0094285Y0136909
X0090354Y0137421
X0087165Y01451
X0083385Y0148204
X008587Y012075
X009156Y011541
X00701Y011594
X0052426Y0123079
X0052087Y0137153
X0048478Y0137176
X0045578Y0140676
X0055928Y0140437
X0060362Y0139724
X0057189Y0133123
X0036078Y0131676
X0033278Y0134976
X00274Y0136119
Y0133139
Y01391
X00279Y01471
X002515
X00224
X0023078Y0157176
X0029661Y0157259
X003746Y0160307
X0039962
X00508Y01686
X0050478Y0179176
Y0188976
X0044566Y0193276
X0045078Y0199976
X0035078
X0025078
X0005078
Y0169976
X0011505Y015706
X0004015Y0149346
X0017778Y0123376
X0017278Y0115976
X004225Y01187
X0065078Y0158976
X0075078Y0179976
X0074678Y0189076
X0068976Y0193276
X0065078Y0199976
X0055078
X0056574Y0193376
X0062578Y0188976
X0075078Y0199976
X0038378Y0188876
X0035078Y0179976
X0025078Y0169976
T02
X0040716Y00432
X0040713Y0072899
X0066634Y00341
X0079528Y0054176
X0104523Y0075886
X0129724Y0070799
X01401
Y00766
X01497Y00755
Y00696
X01499Y00534
X01444
X0149699Y0047825
X01499Y00424
X01444
X018Y00425
Y0048
Y0054
X01797Y0070799
X0169724
X0199724
X02145Y00725
Y00675
X0219724Y0070799
X0229699Y0047925
X02299Y0042
X0113Y00305
X01085
X0104
X0124124Y0094754
Y0113051
X0109921Y0110236
X0249724Y0070799
X0269724
X02898Y00695
Y00645
Y00745
X02997Y004815
X02798Y0048
X01086Y01427
X00331Y01237
X0038877Y0172205
T05
X019Y002
X02
Y003
X021
X022
X023
Y002
X022
X021
X019Y003
X017Y01
X016
Y011
X017
X028
X029
Y01
X028
X031
Y011
X032
X033
X034
X035
X036
X037
X038
Y01
Y009
Y008
Y007
X037
X036
X035
X034
X033
X032
X031
Y006
Y005
X032
Y006
X033
Y005
X034
Y006
X035
Y005
X036
Y006
X037
Y005
X038
Y006
X037Y008
X036
X035
X034
X033
X032
X031
Y009
X032
Y01
X033
Y009
X034
Y01
X035
Y009
X036
Y01
X037
Y009
X034126Y000748
X033126
X032126
X031126
X030126
X024Y002
Y003
X028Y012
X029
Y013
X028
Y014
X029
Y015
X028
Y016
X029
Y017
X028
X031Y016
X032
Y015
X033
X034
Y014
X035
X036
Y015
X035
X035Y016
X034
X033
X033Y014
X032
X031
Y015
Y013
Y012
X032
X033
X034
X035
X036
X037
X038
Y013
Y014
X037
Y013
X036
X035
X034
X033
X032
X037Y015
X037Y016
X038
X038Y015
X036Y016
X017
Y017
X016
Y016
Y015
X017
Y014
X016
Y013
X017
Y012
X016
X0011417Y013937
Y014937
T06
X0253913Y0126433
X0214913Y0193933
T07
X0015748Y0015748
X0370079
Y0188976
X0015748
T08
X0328224Y002874
T09
X0090551Y0060583
M30
