G04*
G04 #@! TF.GenerationSoftware,Altium Limited,Altium Designer,20.1.11 (218)*
G04*
G04 Layer_Color=32896*
%FSLAX25Y25*%
%MOIN*%
G70*
G04*
G04 #@! TF.SameCoordinates,8DDD7718-E0D7-425E-BE50-D601791E5550*
G04*
G04*
G04 #@! TF.FilePolarity,Positive*
G04*
G01*
G75*
%ADD10C,0.00984*%
%ADD12C,0.01000*%
%ADD15C,0.00787*%
%ADD16C,0.00500*%
G36*
X109724Y43862D02*
X110724Y41362D01*
X108724D01*
X109724Y43862D01*
D02*
G37*
G36*
X83246Y173476D02*
X80901Y171034D01*
X80831Y170367D01*
X80678Y168771D01*
X80567Y167619D01*
X83080Y165024D01*
X82913Y164857D01*
X80540Y167286D01*
X80401Y165801D01*
X80331D01*
Y165232D01*
X79804D01*
Y165801D01*
X78166D01*
X78111Y165690D01*
X78027Y165579D01*
X77916Y165454D01*
X77764Y165343D01*
X77583Y165287D01*
X77417Y165273D01*
X77250D01*
X77125Y165315D01*
X76973Y165371D01*
X76848Y165454D01*
X76750Y165551D01*
X76653Y165690D01*
X76584Y165842D01*
X76542Y165981D01*
X76528Y166106D01*
X76542Y166245D01*
X76570Y166356D01*
X76612Y166467D01*
X76667Y166578D01*
X76736Y166675D01*
X76834Y166772D01*
X76945Y166842D01*
X77042Y166883D01*
X77028Y167008D01*
X74946Y164857D01*
X74779Y165037D01*
X77000Y167341D01*
X76820Y169354D01*
X76695Y170811D01*
X76029D01*
Y171741D01*
X76209D01*
X74516Y173476D01*
X74696Y173643D01*
X76279Y172005D01*
Y172130D01*
X76251Y172158D01*
X76209Y172186D01*
X76168Y172227D01*
X76126Y172269D01*
X76098Y172338D01*
X76084Y172394D01*
X76070Y172463D01*
X76084Y172546D01*
X76112Y172602D01*
X76168Y172699D01*
X76237Y172755D01*
X76334Y172796D01*
X76431Y172810D01*
X76528Y172796D01*
X76612Y172768D01*
X76681Y172727D01*
X76709Y172685D01*
X76778Y172741D01*
X76875Y172810D01*
X77000Y172866D01*
X77181Y172935D01*
X77375Y172991D01*
X77569Y173032D01*
X77777Y173074D01*
X77944Y173088D01*
Y173296D01*
X79277D01*
Y173116D01*
X79388D01*
X79554Y173102D01*
X79735Y173074D01*
X79915Y173046D01*
Y173157D01*
X80484D01*
Y172893D01*
X80554Y172852D01*
X80651Y172810D01*
X80748Y172755D01*
X80831Y172699D01*
X80914Y172630D01*
X80970Y172574D01*
X80998Y172532D01*
X81025Y172477D01*
X81012Y172380D01*
X81345D01*
Y171950D01*
X80984D01*
X80928Y171408D01*
X83080Y173643D01*
X83246Y173476D01*
D02*
G37*
G36*
X82747Y162942D02*
Y162914D01*
Y162858D01*
Y162803D01*
Y162747D01*
Y162692D01*
Y162664D01*
Y162650D01*
Y162428D01*
Y162220D01*
Y162122D01*
Y162053D01*
Y162012D01*
Y161998D01*
Y161748D01*
Y161637D01*
Y161540D01*
Y161456D01*
Y161401D01*
Y161359D01*
Y161345D01*
Y161248D01*
Y161179D01*
Y161123D01*
Y161095D01*
Y161054D01*
X75154D01*
Y161068D01*
Y161095D01*
Y161206D01*
Y161304D01*
Y161331D01*
Y161345D01*
Y161567D01*
Y161776D01*
Y161873D01*
Y161942D01*
Y161984D01*
Y161998D01*
Y162248D01*
Y162358D01*
Y162456D01*
Y162539D01*
Y162594D01*
Y162636D01*
Y162650D01*
Y162747D01*
Y162830D01*
Y162886D01*
Y162914D01*
Y162942D01*
Y162955D01*
X82747D01*
Y162942D01*
D02*
G37*
G36*
X77117Y135755D02*
X76202D01*
Y136412D01*
X76118Y136282D01*
X76035Y136171D01*
X75943Y136070D01*
X75859Y135996D01*
X75795Y135931D01*
X75730Y135885D01*
X75693Y135857D01*
X75684Y135848D01*
X75563Y135783D01*
X75452Y135737D01*
X75341Y135700D01*
X75249Y135681D01*
X75166Y135663D01*
X75101Y135653D01*
X75045D01*
X74934Y135663D01*
X74823Y135681D01*
X74712Y135709D01*
X74611Y135755D01*
X74435Y135848D01*
X74268Y135968D01*
X74139Y136079D01*
X74046Y136181D01*
X74009Y136218D01*
X73982Y136245D01*
X73972Y136264D01*
X73963Y136273D01*
X73880Y136393D01*
X73806Y136523D01*
X73741Y136671D01*
X73686Y136810D01*
X73602Y137106D01*
X73547Y137392D01*
X73528Y137522D01*
X73519Y137642D01*
X73510Y137753D01*
X73501Y137855D01*
X73491Y137929D01*
Y137994D01*
Y138031D01*
Y138040D01*
X73501Y138253D01*
X73510Y138447D01*
X73528Y138632D01*
X73565Y138798D01*
X73593Y138956D01*
X73630Y139104D01*
X73676Y139233D01*
X73713Y139344D01*
X73760Y139455D01*
X73797Y139538D01*
X73843Y139612D01*
X73871Y139677D01*
X73898Y139723D01*
X73926Y139760D01*
X73935Y139779D01*
X73945Y139788D01*
X74028Y139890D01*
X74120Y139982D01*
X74213Y140066D01*
X74305Y140140D01*
X74407Y140195D01*
X74490Y140241D01*
X74666Y140315D01*
X74823Y140362D01*
X74888Y140371D01*
X74944Y140380D01*
X74990Y140389D01*
X75055D01*
X75166Y140380D01*
X75277Y140362D01*
X75378Y140334D01*
X75462Y140306D01*
X75536Y140278D01*
X75591Y140251D01*
X75628Y140232D01*
X75637Y140223D01*
X75739Y140158D01*
X75822Y140084D01*
X75906Y140001D01*
X75980Y139927D01*
X76044Y139862D01*
X76091Y139807D01*
X76118Y139770D01*
X76128Y139751D01*
Y142008D01*
X77117D01*
Y135755D01*
D02*
G37*
G36*
X81853D02*
X80817D01*
Y138114D01*
X79976D01*
X79818Y138123D01*
X79670Y138132D01*
X79541Y138142D01*
X79421Y138160D01*
X79319Y138169D01*
X79217Y138188D01*
X79134Y138206D01*
X79060Y138225D01*
X78995Y138243D01*
X78949Y138253D01*
X78903Y138271D01*
X78866Y138280D01*
X78847Y138290D01*
X78829Y138299D01*
X78690Y138382D01*
X78560Y138475D01*
X78449Y138586D01*
X78357Y138687D01*
X78283Y138780D01*
X78227Y138863D01*
X78190Y138919D01*
X78181Y138928D01*
Y138937D01*
X78098Y139122D01*
X78033Y139307D01*
X77987Y139501D01*
X77950Y139677D01*
X77931Y139834D01*
Y139908D01*
X77922Y139964D01*
Y140010D01*
Y140047D01*
Y140066D01*
Y140075D01*
X77931Y140343D01*
X77968Y140584D01*
X78015Y140787D01*
X78070Y140963D01*
X78107Y141046D01*
X78135Y141111D01*
X78153Y141166D01*
X78181Y141213D01*
X78200Y141250D01*
X78218Y141277D01*
X78227Y141287D01*
Y141296D01*
X78348Y141462D01*
X78468Y141592D01*
X78597Y141703D01*
X78708Y141786D01*
X78819Y141842D01*
X78903Y141888D01*
X78958Y141906D01*
X78967Y141916D01*
X78977D01*
X79041Y141934D01*
X79115Y141943D01*
X79199Y141962D01*
X79291Y141971D01*
X79485Y141990D01*
X79698Y141999D01*
X79883Y142008D01*
X81853D01*
Y135755D01*
D02*
G37*
G36*
X197891Y81866D02*
X197979Y81857D01*
X198063Y81839D01*
X198141Y81815D01*
X198210Y81783D01*
X198280Y81755D01*
X198340Y81718D01*
X198395Y81686D01*
X198441Y81654D01*
X198487Y81617D01*
X198524Y81589D01*
X198552Y81561D01*
X198575Y81534D01*
X198594Y81515D01*
X198603Y81506D01*
X198608Y81501D01*
X198668Y81418D01*
X198719Y81321D01*
X198765Y81219D01*
X198806Y81113D01*
X198839Y81002D01*
X198866Y80891D01*
X198889Y80776D01*
X198908Y80670D01*
X198922Y80563D01*
X198931Y80466D01*
X198940Y80379D01*
X198945Y80305D01*
Y80240D01*
X198950Y80194D01*
Y80175D01*
Y80161D01*
Y80157D01*
Y80152D01*
X198945Y80004D01*
X198936Y79866D01*
X198922Y79736D01*
X198899Y79616D01*
X198876Y79510D01*
X198853Y79413D01*
X198825Y79325D01*
X198792Y79247D01*
X198765Y79182D01*
X198737Y79122D01*
X198714Y79076D01*
X198686Y79034D01*
X198668Y79002D01*
X198654Y78983D01*
X198645Y78970D01*
X198640Y78965D01*
X198580Y78900D01*
X198515Y78845D01*
X198451Y78799D01*
X198386Y78757D01*
X198317Y78720D01*
X198252Y78692D01*
X198187Y78669D01*
X198123Y78651D01*
X198067Y78637D01*
X198012Y78623D01*
X197965Y78614D01*
X197924Y78609D01*
X197887D01*
X197864Y78605D01*
X197841D01*
X197734Y78609D01*
X197637Y78628D01*
X197550Y78646D01*
X197471Y78674D01*
X197411Y78697D01*
X197365Y78720D01*
X197346Y78725D01*
X197333Y78734D01*
X197328Y78738D01*
X197323D01*
X197245Y78794D01*
X197171Y78859D01*
X197111Y78923D01*
X197060Y78988D01*
X197018Y79048D01*
X196991Y79094D01*
X196981Y79113D01*
X196972Y79127D01*
X196967Y79131D01*
Y79136D01*
X196921Y79233D01*
X196889Y79334D01*
X196866Y79427D01*
X196852Y79515D01*
X196838Y79589D01*
Y79616D01*
X196834Y79644D01*
Y79667D01*
Y79681D01*
Y79690D01*
Y79695D01*
X196838Y79778D01*
X196847Y79856D01*
X196861Y79935D01*
X196875Y80004D01*
X196898Y80069D01*
X196921Y80134D01*
X196944Y80189D01*
X196972Y80240D01*
X197000Y80286D01*
X197023Y80328D01*
X197046Y80360D01*
X197069Y80392D01*
X197083Y80415D01*
X197097Y80429D01*
X197106Y80439D01*
X197111Y80443D01*
X197162Y80494D01*
X197217Y80540D01*
X197277Y80577D01*
X197333Y80610D01*
X197388Y80642D01*
X197443Y80665D01*
X197550Y80697D01*
X197596Y80711D01*
X197642Y80721D01*
X197679Y80725D01*
X197716Y80730D01*
X197744Y80734D01*
X197781D01*
X197864Y80730D01*
X197942Y80716D01*
X198016Y80702D01*
X198081Y80683D01*
X198136Y80660D01*
X198178Y80647D01*
X198206Y80633D01*
X198210Y80628D01*
X198215D01*
X198289Y80582D01*
X198354Y80531D01*
X198414Y80480D01*
X198460Y80425D01*
X198501Y80379D01*
X198534Y80342D01*
X198552Y80314D01*
X198557Y80309D01*
Y80392D01*
X198552Y80476D01*
X198548Y80550D01*
X198538Y80624D01*
X198534Y80688D01*
X198524Y80748D01*
X198515Y80804D01*
X198501Y80854D01*
X198492Y80901D01*
X198483Y80938D01*
X198474Y80970D01*
X198469Y80998D01*
X198460Y81016D01*
X198455Y81030D01*
X198451Y81039D01*
Y81044D01*
X198404Y81136D01*
X198358Y81219D01*
X198307Y81284D01*
X198261Y81340D01*
X198220Y81386D01*
X198187Y81418D01*
X198164Y81437D01*
X198155Y81441D01*
X198099Y81478D01*
X198044Y81501D01*
X197988Y81520D01*
X197933Y81534D01*
X197891Y81543D01*
X197855Y81547D01*
X197822D01*
X197739Y81538D01*
X197661Y81520D01*
X197596Y81492D01*
X197536Y81464D01*
X197490Y81432D01*
X197457Y81404D01*
X197439Y81386D01*
X197430Y81376D01*
X197397Y81335D01*
X197365Y81284D01*
X197337Y81229D01*
X197319Y81173D01*
X197300Y81122D01*
X197286Y81081D01*
X197282Y81053D01*
X197277Y81049D01*
Y81044D01*
X196884Y81076D01*
X196912Y81206D01*
X196954Y81321D01*
X197000Y81423D01*
X197051Y81506D01*
X197101Y81571D01*
X197120Y81598D01*
X197143Y81621D01*
X197157Y81635D01*
X197171Y81649D01*
X197175Y81654D01*
X197180Y81658D01*
X197226Y81695D01*
X197277Y81728D01*
X197379Y81783D01*
X197480Y81820D01*
X197577Y81843D01*
X197665Y81862D01*
X197702Y81866D01*
X197734D01*
X197762Y81871D01*
X197799D01*
X197891Y81866D01*
D02*
G37*
G36*
X201990Y80009D02*
Y79917D01*
X201985Y79829D01*
X201980Y79746D01*
X201971Y79667D01*
X201962Y79598D01*
X201953Y79533D01*
X201939Y79473D01*
X201929Y79418D01*
X201920Y79367D01*
X201906Y79325D01*
X201897Y79288D01*
X201888Y79261D01*
X201879Y79238D01*
X201874Y79219D01*
X201869Y79210D01*
Y79205D01*
X201818Y79103D01*
X201754Y79011D01*
X201689Y78937D01*
X201620Y78873D01*
X201560Y78822D01*
X201509Y78785D01*
X201490Y78776D01*
X201477Y78766D01*
X201467Y78757D01*
X201463D01*
X201347Y78706D01*
X201227Y78669D01*
X201102Y78641D01*
X200987Y78623D01*
X200936Y78618D01*
X200885Y78614D01*
X200839Y78609D01*
X200802D01*
X200770Y78605D01*
X200728D01*
X200562Y78614D01*
X200488Y78623D01*
X200419Y78632D01*
X200349Y78646D01*
X200289Y78660D01*
X200234Y78674D01*
X200183Y78692D01*
X200137Y78711D01*
X200100Y78725D01*
X200063Y78738D01*
X200035Y78752D01*
X200012Y78766D01*
X199998Y78771D01*
X199989Y78780D01*
X199984D01*
X199883Y78849D01*
X199800Y78928D01*
X199735Y79002D01*
X199680Y79076D01*
X199638Y79140D01*
X199610Y79191D01*
X199601Y79210D01*
X199592Y79224D01*
X199587Y79233D01*
Y79238D01*
X199569Y79293D01*
X199550Y79353D01*
X199522Y79478D01*
X199504Y79607D01*
X199490Y79732D01*
X199485Y79787D01*
X199481Y79843D01*
Y79889D01*
X199476Y79930D01*
Y79963D01*
Y79986D01*
Y80004D01*
Y80009D01*
Y81857D01*
X199901D01*
Y80009D01*
Y79903D01*
X199910Y79801D01*
X199920Y79713D01*
X199934Y79630D01*
X199947Y79556D01*
X199966Y79487D01*
X199980Y79427D01*
X199998Y79376D01*
X200017Y79334D01*
X200035Y79293D01*
X200054Y79265D01*
X200067Y79238D01*
X200081Y79219D01*
X200091Y79205D01*
X200095Y79201D01*
X200100Y79196D01*
X200142Y79159D01*
X200188Y79127D01*
X200289Y79076D01*
X200396Y79039D01*
X200506Y79016D01*
X200608Y78997D01*
X200650Y78993D01*
X200691D01*
X200719Y78988D01*
X200765D01*
X200862Y78993D01*
X200950Y79006D01*
X201033Y79020D01*
X201098Y79043D01*
X201153Y79062D01*
X201195Y79076D01*
X201218Y79090D01*
X201227Y79094D01*
X201292Y79136D01*
X201347Y79187D01*
X201394Y79238D01*
X201426Y79284D01*
X201453Y79330D01*
X201477Y79362D01*
X201486Y79385D01*
X201490Y79395D01*
X201504Y79436D01*
X201514Y79478D01*
X201532Y79575D01*
X201546Y79676D01*
X201555Y79778D01*
X201560Y79866D01*
Y79907D01*
X201564Y79940D01*
Y79967D01*
Y79991D01*
Y80004D01*
Y80009D01*
Y81857D01*
X201990D01*
Y80009D01*
D02*
G37*
G36*
X253959Y150919D02*
X254038Y150915D01*
X254112Y150901D01*
X254181Y150887D01*
X254245Y150869D01*
X254306Y150850D01*
X254361Y150827D01*
X254412Y150804D01*
X254458Y150781D01*
X254495Y150758D01*
X254527Y150739D01*
X254555Y150721D01*
X254578Y150707D01*
X254592Y150693D01*
X254601Y150688D01*
X254606Y150684D01*
X254652Y150638D01*
X254694Y150587D01*
X254735Y150531D01*
X254768Y150476D01*
X254823Y150365D01*
X254860Y150254D01*
X254874Y150203D01*
X254888Y150153D01*
X254897Y150111D01*
X254906Y150074D01*
X254911Y150042D01*
Y150019D01*
X254915Y150005D01*
Y150000D01*
X254514Y149958D01*
X254504Y150065D01*
X254486Y150157D01*
X254458Y150240D01*
X254426Y150305D01*
X254398Y150360D01*
X254370Y150397D01*
X254352Y150420D01*
X254343Y150430D01*
X254273Y150485D01*
X254199Y150527D01*
X254121Y150559D01*
X254051Y150577D01*
X253987Y150591D01*
X253931Y150596D01*
X253913Y150601D01*
X253885D01*
X253788Y150596D01*
X253700Y150577D01*
X253626Y150550D01*
X253562Y150522D01*
X253511Y150490D01*
X253479Y150467D01*
X253455Y150448D01*
X253446Y150439D01*
X253391Y150374D01*
X253349Y150310D01*
X253317Y150245D01*
X253298Y150180D01*
X253285Y150129D01*
X253280Y150083D01*
X253275Y150055D01*
Y150051D01*
Y150046D01*
X253285Y149963D01*
X253303Y149875D01*
X253335Y149797D01*
X253368Y149723D01*
X253405Y149663D01*
X253437Y149612D01*
X253446Y149593D01*
X253455Y149580D01*
X253465Y149575D01*
Y149570D01*
X253502Y149520D01*
X253548Y149469D01*
X253599Y149413D01*
X253654Y149358D01*
X253770Y149247D01*
X253885Y149136D01*
X253945Y149085D01*
X253996Y149039D01*
X254047Y148997D01*
X254088Y148960D01*
X254121Y148933D01*
X254149Y148910D01*
X254167Y148896D01*
X254172Y148891D01*
X254287Y148794D01*
X254393Y148702D01*
X254481Y148619D01*
X254550Y148549D01*
X254610Y148489D01*
X254652Y148448D01*
X254675Y148420D01*
X254684Y148415D01*
Y148411D01*
X254749Y148332D01*
X254800Y148258D01*
X254846Y148184D01*
X254883Y148120D01*
X254911Y148064D01*
X254929Y148023D01*
X254939Y147995D01*
X254943Y147990D01*
Y147986D01*
X254962Y147935D01*
X254971Y147889D01*
X254980Y147843D01*
X254985Y147801D01*
X254989Y147764D01*
Y147736D01*
Y147718D01*
Y147713D01*
X252869D01*
Y148092D01*
X254444D01*
X254389Y148170D01*
X254361Y148203D01*
X254338Y148235D01*
X254315Y148263D01*
X254296Y148281D01*
X254282Y148295D01*
X254278Y148300D01*
X254255Y148323D01*
X254227Y148346D01*
X254162Y148406D01*
X254088Y148475D01*
X254010Y148545D01*
X253936Y148605D01*
X253904Y148633D01*
X253876Y148660D01*
X253853Y148679D01*
X253834Y148693D01*
X253825Y148702D01*
X253820Y148706D01*
X253747Y148771D01*
X253673Y148831D01*
X253608Y148891D01*
X253548Y148942D01*
X253492Y148993D01*
X253446Y149039D01*
X253400Y149081D01*
X253363Y149118D01*
X253326Y149154D01*
X253298Y149182D01*
X253275Y149205D01*
X253252Y149229D01*
X253229Y149256D01*
X253220Y149265D01*
X253155Y149344D01*
X253100Y149413D01*
X253053Y149483D01*
X253017Y149538D01*
X252989Y149589D01*
X252970Y149626D01*
X252961Y149649D01*
X252957Y149658D01*
X252929Y149727D01*
X252910Y149797D01*
X252892Y149861D01*
X252883Y149917D01*
X252878Y149968D01*
X252873Y150005D01*
Y150028D01*
Y150037D01*
X252878Y150106D01*
X252887Y150171D01*
X252896Y150236D01*
X252915Y150291D01*
X252961Y150402D01*
X253007Y150490D01*
X253035Y150531D01*
X253058Y150564D01*
X253081Y150596D01*
X253104Y150619D01*
X253123Y150638D01*
X253132Y150656D01*
X253141Y150661D01*
X253146Y150665D01*
X253197Y150712D01*
X253252Y150753D01*
X253312Y150785D01*
X253372Y150813D01*
X253492Y150859D01*
X253613Y150892D01*
X253663Y150901D01*
X253714Y150910D01*
X253760Y150915D01*
X253797Y150919D01*
X253830Y150924D01*
X253876D01*
X253959Y150919D01*
D02*
G37*
G36*
X256768Y150956D02*
X256916Y150933D01*
X257045Y150906D01*
X257105Y150887D01*
X257161Y150869D01*
X257211Y150850D01*
X257258Y150832D01*
X257295Y150818D01*
X257332Y150804D01*
X257355Y150790D01*
X257373Y150781D01*
X257387Y150776D01*
X257392Y150772D01*
X257517Y150693D01*
X257623Y150601D01*
X257715Y150508D01*
X257794Y150416D01*
X257854Y150333D01*
X257877Y150296D01*
X257895Y150263D01*
X257914Y150240D01*
X257923Y150222D01*
X257928Y150208D01*
X257932Y150203D01*
X257997Y150060D01*
X258043Y149912D01*
X258075Y149764D01*
X258099Y149630D01*
X258108Y149570D01*
X258112Y149510D01*
X258117Y149464D01*
Y149418D01*
X258122Y149385D01*
Y149358D01*
Y149339D01*
Y149335D01*
X258112Y149168D01*
X258094Y149007D01*
X258071Y148863D01*
X258052Y148794D01*
X258038Y148734D01*
X258025Y148679D01*
X258006Y148628D01*
X257992Y148582D01*
X257983Y148545D01*
X257969Y148517D01*
X257965Y148494D01*
X257955Y148480D01*
Y148475D01*
X257886Y148337D01*
X257807Y148212D01*
X257724Y148106D01*
X257683Y148064D01*
X257646Y148023D01*
X257609Y147986D01*
X257572Y147953D01*
X257540Y147926D01*
X257512Y147907D01*
X257493Y147889D01*
X257475Y147875D01*
X257466Y147870D01*
X257461Y147866D01*
X257396Y147829D01*
X257332Y147796D01*
X257193Y147746D01*
X257054Y147708D01*
X256921Y147685D01*
X256856Y147676D01*
X256800Y147667D01*
X256750Y147662D01*
X256708D01*
X256671Y147658D01*
X256620D01*
X256528Y147662D01*
X256440Y147671D01*
X256357Y147681D01*
X256278Y147699D01*
X256204Y147722D01*
X256135Y147746D01*
X256070Y147769D01*
X256010Y147796D01*
X255960Y147819D01*
X255909Y147843D01*
X255872Y147866D01*
X255835Y147889D01*
X255812Y147907D01*
X255789Y147916D01*
X255779Y147926D01*
X255775Y147930D01*
X255710Y147986D01*
X255655Y148041D01*
X255604Y148106D01*
X255553Y148170D01*
X255470Y148300D01*
X255405Y148429D01*
X255377Y148489D01*
X255354Y148545D01*
X255336Y148595D01*
X255322Y148637D01*
X255308Y148674D01*
X255299Y148702D01*
X255294Y148720D01*
Y148725D01*
X255719Y148831D01*
X255738Y148757D01*
X255761Y148688D01*
X255784Y148623D01*
X255807Y148563D01*
X255835Y148508D01*
X255862Y148462D01*
X255895Y148415D01*
X255923Y148374D01*
X255946Y148337D01*
X255973Y148309D01*
X255996Y148281D01*
X256015Y148258D01*
X256033Y148244D01*
X256047Y148231D01*
X256052Y148226D01*
X256057Y148221D01*
X256103Y148184D01*
X256154Y148157D01*
X256255Y148106D01*
X256352Y148069D01*
X256449Y148046D01*
X256532Y148027D01*
X256565Y148023D01*
X256597D01*
X256625Y148018D01*
X256657D01*
X256763Y148023D01*
X256865Y148041D01*
X256958Y148064D01*
X257041Y148092D01*
X257105Y148120D01*
X257133Y148134D01*
X257156Y148143D01*
X257175Y148152D01*
X257189Y148161D01*
X257198Y148166D01*
X257202D01*
X257290Y148231D01*
X257364Y148300D01*
X257429Y148378D01*
X257480Y148452D01*
X257521Y148517D01*
X257549Y148572D01*
X257558Y148595D01*
X257567Y148609D01*
X257572Y148619D01*
Y148623D01*
X257609Y148743D01*
X257637Y148863D01*
X257660Y148984D01*
X257674Y149094D01*
X257678Y149145D01*
X257683Y149191D01*
Y149233D01*
X257687Y149265D01*
Y149293D01*
Y149316D01*
Y149330D01*
Y149335D01*
X257683Y149455D01*
X257674Y149566D01*
X257655Y149667D01*
X257637Y149760D01*
X257623Y149838D01*
X257613Y149871D01*
X257604Y149898D01*
X257600Y149922D01*
X257595Y149935D01*
X257590Y149945D01*
Y149949D01*
X257544Y150055D01*
X257493Y150153D01*
X257438Y150231D01*
X257378Y150300D01*
X257327Y150356D01*
X257285Y150393D01*
X257253Y150416D01*
X257248Y150425D01*
X257244D01*
X257147Y150485D01*
X257041Y150531D01*
X256939Y150564D01*
X256842Y150582D01*
X256754Y150596D01*
X256717Y150601D01*
X256685D01*
X256662Y150605D01*
X256625D01*
X256509Y150601D01*
X256403Y150582D01*
X256315Y150554D01*
X256237Y150527D01*
X256177Y150494D01*
X256131Y150471D01*
X256103Y150453D01*
X256094Y150443D01*
X256020Y150374D01*
X255950Y150296D01*
X255895Y150213D01*
X255849Y150129D01*
X255812Y150055D01*
X255798Y150019D01*
X255789Y149991D01*
X255779Y149968D01*
X255770Y149949D01*
X255766Y149940D01*
Y149935D01*
X255350Y150032D01*
X255377Y150116D01*
X255405Y150189D01*
X255442Y150259D01*
X255474Y150328D01*
X255511Y150388D01*
X255553Y150443D01*
X255590Y150499D01*
X255627Y150545D01*
X255664Y150582D01*
X255696Y150619D01*
X255729Y150651D01*
X255752Y150674D01*
X255775Y150698D01*
X255793Y150712D01*
X255802Y150716D01*
X255807Y150721D01*
X255872Y150762D01*
X255936Y150804D01*
X256001Y150836D01*
X256070Y150864D01*
X256209Y150906D01*
X256334Y150933D01*
X256394Y150947D01*
X256445Y150952D01*
X256495Y150956D01*
X256537Y150961D01*
X256569Y150966D01*
X256616D01*
X256768Y150956D01*
D02*
G37*
G36*
X252421Y150490D02*
X250854D01*
X250965Y150356D01*
X251072Y150213D01*
X251164Y150074D01*
X251252Y149940D01*
X251289Y149880D01*
X251321Y149825D01*
X251353Y149774D01*
X251377Y149732D01*
X251395Y149695D01*
X251409Y149672D01*
X251418Y149653D01*
X251423Y149649D01*
X251515Y149464D01*
X251598Y149279D01*
X251667Y149104D01*
X251695Y149025D01*
X251723Y148947D01*
X251751Y148877D01*
X251769Y148813D01*
X251788Y148757D01*
X251801Y148711D01*
X251815Y148670D01*
X251825Y148642D01*
X251829Y148623D01*
Y148619D01*
X251875Y148429D01*
X251894Y148337D01*
X251908Y148254D01*
X251922Y148175D01*
X251936Y148097D01*
X251945Y148032D01*
X251954Y147967D01*
X251959Y147912D01*
X251963Y147861D01*
X251968Y147815D01*
Y147778D01*
X251973Y147750D01*
Y147732D01*
Y147718D01*
Y147713D01*
X251571D01*
X251557Y147889D01*
X251534Y148050D01*
X251511Y148198D01*
X251497Y148267D01*
X251483Y148332D01*
X251473Y148388D01*
X251460Y148438D01*
X251450Y148485D01*
X251441Y148522D01*
X251432Y148549D01*
X251427Y148572D01*
X251423Y148586D01*
Y148591D01*
X251353Y148803D01*
X251279Y149002D01*
X251242Y149099D01*
X251205Y149191D01*
X251164Y149275D01*
X251127Y149358D01*
X251095Y149432D01*
X251062Y149496D01*
X251035Y149552D01*
X251011Y149603D01*
X250988Y149644D01*
X250974Y149672D01*
X250965Y149690D01*
X250961Y149695D01*
X250905Y149792D01*
X250850Y149889D01*
X250794Y149977D01*
X250739Y150060D01*
X250688Y150134D01*
X250637Y150208D01*
X250587Y150273D01*
X250545Y150328D01*
X250503Y150383D01*
X250466Y150430D01*
X250429Y150467D01*
X250402Y150499D01*
X250383Y150527D01*
X250365Y150545D01*
X250356Y150554D01*
X250351Y150559D01*
Y150869D01*
X252421D01*
Y150490D01*
D02*
G37*
G36*
X253959Y155447D02*
X254038Y155442D01*
X254112Y155429D01*
X254181Y155415D01*
X254245Y155396D01*
X254306Y155378D01*
X254361Y155354D01*
X254412Y155331D01*
X254458Y155308D01*
X254495Y155285D01*
X254527Y155267D01*
X254555Y155248D01*
X254578Y155234D01*
X254592Y155221D01*
X254601Y155216D01*
X254606Y155211D01*
X254652Y155165D01*
X254694Y155114D01*
X254735Y155059D01*
X254768Y155003D01*
X254823Y154893D01*
X254860Y154782D01*
X254874Y154731D01*
X254888Y154680D01*
X254897Y154638D01*
X254906Y154602D01*
X254911Y154569D01*
Y154546D01*
X254915Y154532D01*
Y154528D01*
X254514Y154486D01*
X254504Y154592D01*
X254486Y154685D01*
X254458Y154768D01*
X254426Y154832D01*
X254398Y154888D01*
X254370Y154925D01*
X254352Y154948D01*
X254343Y154957D01*
X254273Y155013D01*
X254199Y155054D01*
X254121Y155087D01*
X254051Y155105D01*
X253987Y155119D01*
X253931Y155124D01*
X253913Y155128D01*
X253885D01*
X253788Y155124D01*
X253700Y155105D01*
X253626Y155077D01*
X253562Y155050D01*
X253511Y155017D01*
X253479Y154994D01*
X253455Y154976D01*
X253446Y154966D01*
X253391Y154902D01*
X253349Y154837D01*
X253317Y154772D01*
X253298Y154708D01*
X253285Y154657D01*
X253280Y154611D01*
X253275Y154583D01*
Y154578D01*
Y154574D01*
X253285Y154491D01*
X253303Y154403D01*
X253335Y154324D01*
X253368Y154250D01*
X253405Y154190D01*
X253437Y154139D01*
X253446Y154121D01*
X253455Y154107D01*
X253465Y154103D01*
Y154098D01*
X253502Y154047D01*
X253548Y153996D01*
X253599Y153941D01*
X253654Y153885D01*
X253770Y153774D01*
X253885Y153664D01*
X253945Y153613D01*
X253996Y153567D01*
X254047Y153525D01*
X254088Y153488D01*
X254121Y153460D01*
X254149Y153437D01*
X254167Y153423D01*
X254172Y153419D01*
X254287Y153322D01*
X254393Y153229D01*
X254481Y153146D01*
X254550Y153077D01*
X254610Y153017D01*
X254652Y152975D01*
X254675Y152947D01*
X254684Y152943D01*
Y152938D01*
X254749Y152860D01*
X254800Y152786D01*
X254846Y152712D01*
X254883Y152647D01*
X254911Y152592D01*
X254929Y152550D01*
X254939Y152523D01*
X254943Y152518D01*
Y152513D01*
X254962Y152462D01*
X254971Y152416D01*
X254980Y152370D01*
X254985Y152328D01*
X254989Y152292D01*
Y152264D01*
Y152245D01*
Y152241D01*
X252869D01*
Y152620D01*
X254444D01*
X254389Y152698D01*
X254361Y152730D01*
X254338Y152763D01*
X254315Y152790D01*
X254296Y152809D01*
X254282Y152823D01*
X254278Y152827D01*
X254255Y152850D01*
X254227Y152874D01*
X254162Y152934D01*
X254088Y153003D01*
X254010Y153072D01*
X253936Y153132D01*
X253904Y153160D01*
X253876Y153188D01*
X253853Y153206D01*
X253834Y153220D01*
X253825Y153229D01*
X253820Y153234D01*
X253747Y153299D01*
X253673Y153359D01*
X253608Y153419D01*
X253548Y153470D01*
X253492Y153520D01*
X253446Y153567D01*
X253400Y153608D01*
X253363Y153645D01*
X253326Y153682D01*
X253298Y153710D01*
X253275Y153733D01*
X253252Y153756D01*
X253229Y153784D01*
X253220Y153793D01*
X253155Y153872D01*
X253100Y153941D01*
X253053Y154010D01*
X253017Y154066D01*
X252989Y154116D01*
X252970Y154153D01*
X252961Y154176D01*
X252957Y154186D01*
X252929Y154255D01*
X252910Y154324D01*
X252892Y154389D01*
X252883Y154444D01*
X252878Y154495D01*
X252873Y154532D01*
Y154555D01*
Y154564D01*
X252878Y154634D01*
X252887Y154699D01*
X252896Y154763D01*
X252915Y154819D01*
X252961Y154929D01*
X253007Y155017D01*
X253035Y155059D01*
X253058Y155091D01*
X253081Y155124D01*
X253104Y155147D01*
X253123Y155165D01*
X253132Y155184D01*
X253141Y155188D01*
X253146Y155193D01*
X253197Y155239D01*
X253252Y155281D01*
X253312Y155313D01*
X253372Y155341D01*
X253492Y155387D01*
X253613Y155419D01*
X253663Y155429D01*
X253714Y155438D01*
X253760Y155442D01*
X253797Y155447D01*
X253830Y155452D01*
X253876D01*
X253959Y155447D01*
D02*
G37*
G36*
X251409D02*
X251497Y155438D01*
X251580Y155419D01*
X251658Y155396D01*
X251728Y155364D01*
X251797Y155336D01*
X251857Y155299D01*
X251912Y155267D01*
X251959Y155234D01*
X252005Y155198D01*
X252042Y155170D01*
X252069Y155142D01*
X252093Y155114D01*
X252111Y155096D01*
X252120Y155087D01*
X252125Y155082D01*
X252185Y154999D01*
X252236Y154902D01*
X252282Y154800D01*
X252324Y154694D01*
X252356Y154583D01*
X252384Y154472D01*
X252407Y154357D01*
X252425Y154250D01*
X252439Y154144D01*
X252448Y154047D01*
X252458Y153959D01*
X252462Y153885D01*
Y153821D01*
X252467Y153774D01*
Y153756D01*
Y153742D01*
Y153738D01*
Y153733D01*
X252462Y153585D01*
X252453Y153446D01*
X252439Y153317D01*
X252416Y153197D01*
X252393Y153091D01*
X252370Y152994D01*
X252342Y152906D01*
X252310Y152827D01*
X252282Y152763D01*
X252254Y152703D01*
X252231Y152656D01*
X252203Y152615D01*
X252185Y152583D01*
X252171Y152564D01*
X252162Y152550D01*
X252157Y152546D01*
X252097Y152481D01*
X252032Y152426D01*
X251968Y152379D01*
X251903Y152338D01*
X251834Y152301D01*
X251769Y152273D01*
X251705Y152250D01*
X251640Y152231D01*
X251584Y152218D01*
X251529Y152204D01*
X251483Y152194D01*
X251441Y152190D01*
X251404D01*
X251381Y152185D01*
X251358D01*
X251252Y152190D01*
X251155Y152208D01*
X251067Y152227D01*
X250988Y152254D01*
X250928Y152278D01*
X250882Y152301D01*
X250864Y152305D01*
X250850Y152315D01*
X250845Y152319D01*
X250841D01*
X250762Y152375D01*
X250688Y152439D01*
X250628Y152504D01*
X250577Y152569D01*
X250536Y152629D01*
X250508Y152675D01*
X250499Y152693D01*
X250489Y152707D01*
X250485Y152712D01*
Y152717D01*
X250439Y152814D01*
X250406Y152915D01*
X250383Y153008D01*
X250369Y153095D01*
X250356Y153169D01*
Y153197D01*
X250351Y153225D01*
Y153248D01*
Y153262D01*
Y153271D01*
Y153276D01*
X250356Y153359D01*
X250365Y153437D01*
X250379Y153516D01*
X250392Y153585D01*
X250415Y153650D01*
X250439Y153715D01*
X250462Y153770D01*
X250489Y153821D01*
X250517Y153867D01*
X250540Y153909D01*
X250563Y153941D01*
X250587Y153973D01*
X250600Y153996D01*
X250614Y154010D01*
X250623Y154019D01*
X250628Y154024D01*
X250679Y154075D01*
X250734Y154121D01*
X250794Y154158D01*
X250850Y154190D01*
X250905Y154223D01*
X250961Y154246D01*
X251067Y154278D01*
X251113Y154292D01*
X251159Y154301D01*
X251196Y154306D01*
X251233Y154310D01*
X251261Y154315D01*
X251298D01*
X251381Y154310D01*
X251460Y154297D01*
X251534Y154283D01*
X251598Y154264D01*
X251654Y154241D01*
X251695Y154227D01*
X251723Y154213D01*
X251728Y154209D01*
X251732D01*
X251806Y154163D01*
X251871Y154112D01*
X251931Y154061D01*
X251977Y154006D01*
X252019Y153959D01*
X252051Y153922D01*
X252069Y153895D01*
X252074Y153890D01*
Y153973D01*
X252069Y154056D01*
X252065Y154130D01*
X252056Y154204D01*
X252051Y154269D01*
X252042Y154329D01*
X252032Y154384D01*
X252019Y154435D01*
X252009Y154481D01*
X252000Y154518D01*
X251991Y154551D01*
X251986Y154578D01*
X251977Y154597D01*
X251973Y154611D01*
X251968Y154620D01*
Y154625D01*
X251922Y154717D01*
X251875Y154800D01*
X251825Y154865D01*
X251778Y154920D01*
X251737Y154966D01*
X251705Y154999D01*
X251681Y155017D01*
X251672Y155022D01*
X251617Y155059D01*
X251561Y155082D01*
X251506Y155101D01*
X251450Y155114D01*
X251409Y155124D01*
X251372Y155128D01*
X251340D01*
X251256Y155119D01*
X251178Y155101D01*
X251113Y155073D01*
X251053Y155045D01*
X251007Y155013D01*
X250974Y154985D01*
X250956Y154966D01*
X250947Y154957D01*
X250915Y154916D01*
X250882Y154865D01*
X250854Y154809D01*
X250836Y154754D01*
X250817Y154703D01*
X250804Y154662D01*
X250799Y154634D01*
X250794Y154629D01*
Y154625D01*
X250402Y154657D01*
X250429Y154786D01*
X250471Y154902D01*
X250517Y155003D01*
X250568Y155087D01*
X250619Y155151D01*
X250637Y155179D01*
X250660Y155202D01*
X250674Y155216D01*
X250688Y155230D01*
X250693Y155234D01*
X250697Y155239D01*
X250744Y155276D01*
X250794Y155308D01*
X250896Y155364D01*
X250998Y155401D01*
X251095Y155424D01*
X251183Y155442D01*
X251219Y155447D01*
X251252D01*
X251279Y155452D01*
X251316D01*
X251409Y155447D01*
D02*
G37*
G36*
X256768Y155484D02*
X256916Y155461D01*
X257045Y155433D01*
X257105Y155415D01*
X257161Y155396D01*
X257211Y155378D01*
X257258Y155359D01*
X257295Y155345D01*
X257332Y155331D01*
X257355Y155318D01*
X257373Y155308D01*
X257387Y155304D01*
X257392Y155299D01*
X257517Y155221D01*
X257623Y155128D01*
X257715Y155036D01*
X257794Y154943D01*
X257854Y154860D01*
X257877Y154823D01*
X257895Y154791D01*
X257914Y154768D01*
X257923Y154749D01*
X257928Y154736D01*
X257932Y154731D01*
X257997Y154588D01*
X258043Y154440D01*
X258075Y154292D01*
X258099Y154158D01*
X258108Y154098D01*
X258112Y154038D01*
X258117Y153992D01*
Y153946D01*
X258122Y153913D01*
Y153885D01*
Y153867D01*
Y153862D01*
X258112Y153696D01*
X258094Y153534D01*
X258071Y153391D01*
X258052Y153322D01*
X258038Y153262D01*
X258025Y153206D01*
X258006Y153155D01*
X257992Y153109D01*
X257983Y153072D01*
X257969Y153045D01*
X257965Y153022D01*
X257955Y153008D01*
Y153003D01*
X257886Y152864D01*
X257807Y152740D01*
X257724Y152633D01*
X257683Y152592D01*
X257646Y152550D01*
X257609Y152513D01*
X257572Y152481D01*
X257540Y152453D01*
X257512Y152435D01*
X257493Y152416D01*
X257475Y152402D01*
X257466Y152398D01*
X257461Y152393D01*
X257396Y152356D01*
X257332Y152324D01*
X257193Y152273D01*
X257054Y152236D01*
X256921Y152213D01*
X256856Y152204D01*
X256800Y152194D01*
X256750Y152190D01*
X256708D01*
X256671Y152185D01*
X256620D01*
X256528Y152190D01*
X256440Y152199D01*
X256357Y152208D01*
X256278Y152227D01*
X256204Y152250D01*
X256135Y152273D01*
X256070Y152296D01*
X256010Y152324D01*
X255960Y152347D01*
X255909Y152370D01*
X255872Y152393D01*
X255835Y152416D01*
X255812Y152435D01*
X255789Y152444D01*
X255779Y152453D01*
X255775Y152458D01*
X255710Y152513D01*
X255655Y152569D01*
X255604Y152633D01*
X255553Y152698D01*
X255470Y152827D01*
X255405Y152957D01*
X255377Y153017D01*
X255354Y153072D01*
X255336Y153123D01*
X255322Y153165D01*
X255308Y153202D01*
X255299Y153229D01*
X255294Y153248D01*
Y153252D01*
X255719Y153359D01*
X255738Y153285D01*
X255761Y153216D01*
X255784Y153151D01*
X255807Y153091D01*
X255835Y153035D01*
X255862Y152989D01*
X255895Y152943D01*
X255923Y152901D01*
X255946Y152864D01*
X255973Y152837D01*
X255996Y152809D01*
X256015Y152786D01*
X256033Y152772D01*
X256047Y152758D01*
X256052Y152753D01*
X256057Y152749D01*
X256103Y152712D01*
X256154Y152684D01*
X256255Y152633D01*
X256352Y152596D01*
X256449Y152573D01*
X256532Y152555D01*
X256565Y152550D01*
X256597D01*
X256625Y152546D01*
X256657D01*
X256763Y152550D01*
X256865Y152569D01*
X256958Y152592D01*
X257041Y152620D01*
X257105Y152647D01*
X257133Y152661D01*
X257156Y152670D01*
X257175Y152680D01*
X257189Y152689D01*
X257198Y152693D01*
X257202D01*
X257290Y152758D01*
X257364Y152827D01*
X257429Y152906D01*
X257480Y152980D01*
X257521Y153045D01*
X257549Y153100D01*
X257558Y153123D01*
X257567Y153137D01*
X257572Y153146D01*
Y153151D01*
X257609Y153271D01*
X257637Y153391D01*
X257660Y153511D01*
X257674Y153622D01*
X257678Y153673D01*
X257683Y153719D01*
Y153761D01*
X257687Y153793D01*
Y153821D01*
Y153844D01*
Y153858D01*
Y153862D01*
X257683Y153982D01*
X257674Y154093D01*
X257655Y154195D01*
X257637Y154287D01*
X257623Y154366D01*
X257613Y154398D01*
X257604Y154426D01*
X257600Y154449D01*
X257595Y154463D01*
X257590Y154472D01*
Y154477D01*
X257544Y154583D01*
X257493Y154680D01*
X257438Y154759D01*
X257378Y154828D01*
X257327Y154883D01*
X257285Y154920D01*
X257253Y154943D01*
X257248Y154953D01*
X257244D01*
X257147Y155013D01*
X257041Y155059D01*
X256939Y155091D01*
X256842Y155110D01*
X256754Y155124D01*
X256717Y155128D01*
X256685D01*
X256662Y155133D01*
X256625D01*
X256509Y155128D01*
X256403Y155110D01*
X256315Y155082D01*
X256237Y155054D01*
X256177Y155022D01*
X256131Y154999D01*
X256103Y154980D01*
X256094Y154971D01*
X256020Y154902D01*
X255950Y154823D01*
X255895Y154740D01*
X255849Y154657D01*
X255812Y154583D01*
X255798Y154546D01*
X255789Y154518D01*
X255779Y154495D01*
X255770Y154477D01*
X255766Y154467D01*
Y154463D01*
X255350Y154560D01*
X255377Y154643D01*
X255405Y154717D01*
X255442Y154786D01*
X255474Y154856D01*
X255511Y154916D01*
X255553Y154971D01*
X255590Y155026D01*
X255627Y155073D01*
X255664Y155110D01*
X255696Y155147D01*
X255729Y155179D01*
X255752Y155202D01*
X255775Y155225D01*
X255793Y155239D01*
X255802Y155244D01*
X255807Y155248D01*
X255872Y155290D01*
X255936Y155331D01*
X256001Y155364D01*
X256070Y155392D01*
X256209Y155433D01*
X256334Y155461D01*
X256394Y155475D01*
X256445Y155479D01*
X256495Y155484D01*
X256537Y155489D01*
X256569Y155493D01*
X256616D01*
X256768Y155484D01*
D02*
G37*
G36*
X38094Y109813D02*
X40164D01*
Y109494D01*
X38094Y108030D01*
X37734D01*
Y109420D01*
X36967D01*
Y109813D01*
X37734D01*
Y110247D01*
X38094D01*
Y109813D01*
D02*
G37*
G36*
X37346Y106168D02*
X37424Y106223D01*
X37457Y106251D01*
X37489Y106274D01*
X37517Y106297D01*
X37535Y106316D01*
X37549Y106330D01*
X37554Y106334D01*
X37577Y106357D01*
X37600Y106385D01*
X37660Y106450D01*
X37729Y106524D01*
X37799Y106602D01*
X37859Y106676D01*
X37886Y106709D01*
X37914Y106736D01*
X37933Y106759D01*
X37947Y106778D01*
X37956Y106787D01*
X37960Y106792D01*
X38025Y106866D01*
X38085Y106939D01*
X38145Y107004D01*
X38196Y107064D01*
X38247Y107120D01*
X38293Y107166D01*
X38335Y107212D01*
X38372Y107249D01*
X38408Y107286D01*
X38436Y107314D01*
X38459Y107337D01*
X38482Y107360D01*
X38510Y107383D01*
X38519Y107392D01*
X38598Y107457D01*
X38667Y107512D01*
X38737Y107559D01*
X38792Y107596D01*
X38843Y107623D01*
X38880Y107642D01*
X38903Y107651D01*
X38912Y107656D01*
X38981Y107683D01*
X39051Y107702D01*
X39115Y107720D01*
X39171Y107729D01*
X39222Y107734D01*
X39259Y107739D01*
X39282D01*
X39291D01*
X39360Y107734D01*
X39425Y107725D01*
X39489Y107716D01*
X39545Y107697D01*
X39656Y107651D01*
X39744Y107605D01*
X39785Y107577D01*
X39818Y107554D01*
X39850Y107531D01*
X39873Y107508D01*
X39891Y107489D01*
X39910Y107480D01*
X39915Y107471D01*
X39919Y107466D01*
X39965Y107415D01*
X40007Y107360D01*
X40039Y107300D01*
X40067Y107240D01*
X40113Y107120D01*
X40146Y107000D01*
X40155Y106949D01*
X40164Y106898D01*
X40169Y106852D01*
X40173Y106815D01*
X40178Y106782D01*
Y106736D01*
X40173Y106653D01*
X40169Y106574D01*
X40155Y106501D01*
X40141Y106431D01*
X40123Y106367D01*
X40104Y106307D01*
X40081Y106251D01*
X40058Y106200D01*
X40035Y106154D01*
X40012Y106117D01*
X39993Y106085D01*
X39975Y106057D01*
X39961Y106034D01*
X39947Y106020D01*
X39942Y106011D01*
X39938Y106006D01*
X39891Y105960D01*
X39841Y105918D01*
X39785Y105877D01*
X39730Y105844D01*
X39619Y105789D01*
X39508Y105752D01*
X39457Y105738D01*
X39406Y105724D01*
X39365Y105715D01*
X39328Y105706D01*
X39296Y105701D01*
X39272D01*
X39259Y105697D01*
X39254D01*
X39212Y106099D01*
X39319Y106108D01*
X39411Y106126D01*
X39494Y106154D01*
X39559Y106186D01*
X39614Y106214D01*
X39651Y106242D01*
X39674Y106260D01*
X39684Y106270D01*
X39739Y106339D01*
X39781Y106413D01*
X39813Y106491D01*
X39831Y106561D01*
X39845Y106625D01*
X39850Y106681D01*
X39854Y106699D01*
Y106727D01*
X39850Y106824D01*
X39831Y106912D01*
X39804Y106986D01*
X39776Y107050D01*
X39744Y107101D01*
X39720Y107133D01*
X39702Y107157D01*
X39693Y107166D01*
X39628Y107221D01*
X39564Y107263D01*
X39499Y107295D01*
X39434Y107314D01*
X39383Y107327D01*
X39337Y107332D01*
X39309Y107337D01*
X39305D01*
X39300D01*
X39217Y107327D01*
X39129Y107309D01*
X39051Y107277D01*
X38977Y107244D01*
X38917Y107207D01*
X38866Y107175D01*
X38847Y107166D01*
X38833Y107157D01*
X38829Y107147D01*
X38824D01*
X38773Y107110D01*
X38723Y107064D01*
X38667Y107013D01*
X38612Y106958D01*
X38501Y106842D01*
X38390Y106727D01*
X38339Y106667D01*
X38293Y106616D01*
X38251Y106565D01*
X38214Y106524D01*
X38187Y106491D01*
X38164Y106464D01*
X38150Y106445D01*
X38145Y106440D01*
X38048Y106325D01*
X37956Y106219D01*
X37872Y106131D01*
X37803Y106062D01*
X37743Y106002D01*
X37702Y105960D01*
X37674Y105937D01*
X37669Y105928D01*
X37665D01*
X37586Y105863D01*
X37512Y105812D01*
X37438Y105766D01*
X37374Y105729D01*
X37318Y105701D01*
X37277Y105683D01*
X37249Y105674D01*
X37244Y105669D01*
X37240D01*
X37189Y105650D01*
X37143Y105641D01*
X37096Y105632D01*
X37055Y105627D01*
X37018Y105623D01*
X36990D01*
X36972D01*
X36967D01*
Y107743D01*
X37346D01*
Y106168D01*
D02*
G37*
G36*
X38085Y104893D02*
X38011Y104874D01*
X37942Y104851D01*
X37877Y104828D01*
X37817Y104805D01*
X37762Y104777D01*
X37716Y104750D01*
X37669Y104717D01*
X37628Y104690D01*
X37591Y104666D01*
X37563Y104639D01*
X37535Y104616D01*
X37512Y104597D01*
X37498Y104579D01*
X37484Y104565D01*
X37480Y104560D01*
X37475Y104555D01*
X37438Y104509D01*
X37411Y104458D01*
X37360Y104357D01*
X37323Y104260D01*
X37300Y104163D01*
X37281Y104080D01*
X37277Y104047D01*
Y104015D01*
X37272Y103987D01*
Y103955D01*
X37277Y103849D01*
X37295Y103747D01*
X37318Y103655D01*
X37346Y103571D01*
X37374Y103507D01*
X37387Y103479D01*
X37397Y103456D01*
X37406Y103437D01*
X37415Y103424D01*
X37420Y103414D01*
Y103410D01*
X37484Y103322D01*
X37554Y103248D01*
X37632Y103183D01*
X37706Y103133D01*
X37771Y103091D01*
X37826Y103063D01*
X37849Y103054D01*
X37863Y103045D01*
X37872Y103040D01*
X37877D01*
X37997Y103003D01*
X38117Y102975D01*
X38238Y102952D01*
X38348Y102938D01*
X38399Y102934D01*
X38445Y102929D01*
X38487D01*
X38519Y102925D01*
X38547D01*
X38570D01*
X38584D01*
X38589D01*
X38709Y102929D01*
X38820Y102938D01*
X38921Y102957D01*
X39014Y102975D01*
X39092Y102989D01*
X39125Y102999D01*
X39152Y103008D01*
X39175Y103013D01*
X39189Y103017D01*
X39198Y103022D01*
X39203D01*
X39309Y103068D01*
X39406Y103119D01*
X39485Y103174D01*
X39554Y103234D01*
X39610Y103285D01*
X39647Y103327D01*
X39670Y103359D01*
X39679Y103364D01*
Y103368D01*
X39739Y103465D01*
X39785Y103571D01*
X39818Y103673D01*
X39836Y103770D01*
X39850Y103858D01*
X39854Y103895D01*
Y103927D01*
X39859Y103950D01*
Y103987D01*
X39854Y104103D01*
X39836Y104209D01*
X39808Y104297D01*
X39781Y104375D01*
X39748Y104435D01*
X39725Y104482D01*
X39707Y104509D01*
X39697Y104519D01*
X39628Y104593D01*
X39550Y104662D01*
X39466Y104717D01*
X39383Y104763D01*
X39309Y104800D01*
X39272Y104814D01*
X39245Y104824D01*
X39222Y104833D01*
X39203Y104842D01*
X39194Y104847D01*
X39189D01*
X39286Y105262D01*
X39369Y105235D01*
X39443Y105207D01*
X39513Y105170D01*
X39582Y105138D01*
X39642Y105101D01*
X39697Y105059D01*
X39753Y105022D01*
X39799Y104985D01*
X39836Y104948D01*
X39873Y104916D01*
X39905Y104884D01*
X39928Y104860D01*
X39952Y104837D01*
X39965Y104819D01*
X39970Y104810D01*
X39975Y104805D01*
X40016Y104740D01*
X40058Y104676D01*
X40090Y104611D01*
X40118Y104542D01*
X40159Y104403D01*
X40187Y104278D01*
X40201Y104218D01*
X40206Y104167D01*
X40210Y104117D01*
X40215Y104075D01*
X40220Y104043D01*
Y103997D01*
X40210Y103844D01*
X40187Y103696D01*
X40159Y103567D01*
X40141Y103507D01*
X40123Y103451D01*
X40104Y103401D01*
X40086Y103354D01*
X40072Y103317D01*
X40058Y103280D01*
X40044Y103257D01*
X40035Y103239D01*
X40030Y103225D01*
X40025Y103220D01*
X39947Y103096D01*
X39854Y102989D01*
X39762Y102897D01*
X39670Y102818D01*
X39587Y102758D01*
X39550Y102735D01*
X39517Y102717D01*
X39494Y102698D01*
X39476Y102689D01*
X39462Y102684D01*
X39457Y102680D01*
X39314Y102615D01*
X39166Y102569D01*
X39018Y102537D01*
X38884Y102514D01*
X38824Y102504D01*
X38764Y102500D01*
X38718Y102495D01*
X38672D01*
X38640Y102490D01*
X38612D01*
X38593D01*
X38589D01*
X38422Y102500D01*
X38261Y102518D01*
X38117Y102541D01*
X38048Y102560D01*
X37988Y102574D01*
X37933Y102587D01*
X37882Y102606D01*
X37836Y102620D01*
X37799Y102629D01*
X37771Y102643D01*
X37748Y102647D01*
X37734Y102657D01*
X37729D01*
X37591Y102726D01*
X37466Y102805D01*
X37360Y102888D01*
X37318Y102929D01*
X37277Y102966D01*
X37240Y103003D01*
X37207Y103040D01*
X37179Y103073D01*
X37161Y103100D01*
X37143Y103119D01*
X37129Y103137D01*
X37124Y103146D01*
X37119Y103151D01*
X37082Y103216D01*
X37050Y103280D01*
X36999Y103419D01*
X36962Y103558D01*
X36939Y103692D01*
X36930Y103756D01*
X36921Y103812D01*
X36916Y103863D01*
Y103904D01*
X36912Y103941D01*
Y103992D01*
X36916Y104084D01*
X36925Y104172D01*
X36935Y104255D01*
X36953Y104334D01*
X36976Y104408D01*
X36999Y104477D01*
X37023Y104542D01*
X37050Y104602D01*
X37073Y104653D01*
X37096Y104703D01*
X37119Y104740D01*
X37143Y104777D01*
X37161Y104800D01*
X37170Y104824D01*
X37179Y104833D01*
X37184Y104837D01*
X37240Y104902D01*
X37295Y104957D01*
X37360Y105008D01*
X37424Y105059D01*
X37554Y105142D01*
X37683Y105207D01*
X37743Y105235D01*
X37799Y105258D01*
X37849Y105276D01*
X37891Y105290D01*
X37928Y105304D01*
X37956Y105313D01*
X37974Y105318D01*
X37979D01*
X38085Y104893D01*
D02*
G37*
G36*
X24892Y119071D02*
X24970Y119067D01*
X25044Y119053D01*
X25113Y119039D01*
X25178Y119020D01*
X25238Y119002D01*
X25293Y118979D01*
X25344Y118956D01*
X25391Y118933D01*
X25427Y118910D01*
X25460Y118891D01*
X25488Y118873D01*
X25511Y118859D01*
X25525Y118845D01*
X25534Y118840D01*
X25538Y118836D01*
X25585Y118790D01*
X25626Y118739D01*
X25668Y118683D01*
X25700Y118628D01*
X25756Y118517D01*
X25793Y118406D01*
X25806Y118355D01*
X25820Y118304D01*
X25829Y118263D01*
X25839Y118226D01*
X25843Y118194D01*
Y118170D01*
X25848Y118157D01*
Y118152D01*
X25446Y118110D01*
X25437Y118217D01*
X25418Y118309D01*
X25391Y118392D01*
X25358Y118457D01*
X25330Y118512D01*
X25303Y118549D01*
X25284Y118572D01*
X25275Y118582D01*
X25206Y118637D01*
X25132Y118679D01*
X25053Y118711D01*
X24984Y118729D01*
X24919Y118743D01*
X24864Y118748D01*
X24845Y118753D01*
X24818D01*
X24721Y118748D01*
X24633Y118729D01*
X24559Y118702D01*
X24494Y118674D01*
X24443Y118642D01*
X24411Y118619D01*
X24388Y118600D01*
X24379Y118591D01*
X24323Y118526D01*
X24282Y118462D01*
X24249Y118397D01*
X24231Y118332D01*
X24217Y118281D01*
X24213Y118235D01*
X24208Y118207D01*
Y118203D01*
Y118198D01*
X24217Y118115D01*
X24236Y118027D01*
X24268Y117949D01*
X24300Y117875D01*
X24337Y117815D01*
X24370Y117764D01*
X24379Y117745D01*
X24388Y117732D01*
X24397Y117727D01*
Y117722D01*
X24434Y117672D01*
X24480Y117621D01*
X24531Y117565D01*
X24587Y117510D01*
X24702Y117399D01*
X24818Y117288D01*
X24878Y117237D01*
X24929Y117191D01*
X24979Y117149D01*
X25021Y117113D01*
X25053Y117085D01*
X25081Y117062D01*
X25100Y117048D01*
X25104Y117043D01*
X25220Y116946D01*
X25326Y116854D01*
X25414Y116771D01*
X25483Y116701D01*
X25543Y116641D01*
X25585Y116600D01*
X25608Y116572D01*
X25617Y116567D01*
Y116563D01*
X25682Y116484D01*
X25732Y116410D01*
X25779Y116336D01*
X25816Y116272D01*
X25843Y116216D01*
X25862Y116175D01*
X25871Y116147D01*
X25876Y116142D01*
Y116138D01*
X25894Y116087D01*
X25903Y116041D01*
X25913Y115994D01*
X25917Y115953D01*
X25922Y115916D01*
Y115888D01*
Y115870D01*
Y115865D01*
X23801D01*
Y116244D01*
X25377D01*
X25321Y116323D01*
X25293Y116355D01*
X25270Y116387D01*
X25247Y116415D01*
X25229Y116433D01*
X25215Y116447D01*
X25210Y116452D01*
X25187Y116475D01*
X25160Y116498D01*
X25095Y116558D01*
X25021Y116627D01*
X24942Y116697D01*
X24869Y116757D01*
X24836Y116785D01*
X24808Y116812D01*
X24785Y116831D01*
X24767Y116844D01*
X24758Y116854D01*
X24753Y116858D01*
X24679Y116923D01*
X24605Y116983D01*
X24541Y117043D01*
X24480Y117094D01*
X24425Y117145D01*
X24379Y117191D01*
X24333Y117233D01*
X24296Y117270D01*
X24259Y117306D01*
X24231Y117334D01*
X24208Y117357D01*
X24185Y117380D01*
X24162Y117408D01*
X24152Y117417D01*
X24088Y117496D01*
X24032Y117565D01*
X23986Y117634D01*
X23949Y117690D01*
X23921Y117741D01*
X23903Y117778D01*
X23894Y117801D01*
X23889Y117810D01*
X23861Y117879D01*
X23843Y117949D01*
X23824Y118013D01*
X23815Y118069D01*
X23810Y118120D01*
X23806Y118157D01*
Y118180D01*
Y118189D01*
X23810Y118258D01*
X23820Y118323D01*
X23829Y118388D01*
X23847Y118443D01*
X23894Y118554D01*
X23940Y118642D01*
X23968Y118683D01*
X23991Y118716D01*
X24014Y118748D01*
X24037Y118771D01*
X24055Y118790D01*
X24065Y118808D01*
X24074Y118813D01*
X24079Y118817D01*
X24129Y118863D01*
X24185Y118905D01*
X24245Y118937D01*
X24305Y118965D01*
X24425Y119011D01*
X24545Y119044D01*
X24596Y119053D01*
X24647Y119062D01*
X24693Y119067D01*
X24730Y119071D01*
X24762Y119076D01*
X24808D01*
X24892Y119071D01*
D02*
G37*
G36*
X27701Y119108D02*
X27848Y119085D01*
X27978Y119058D01*
X28038Y119039D01*
X28093Y119020D01*
X28144Y119002D01*
X28190Y118984D01*
X28227Y118970D01*
X28264Y118956D01*
X28287Y118942D01*
X28306Y118933D01*
X28320Y118928D01*
X28324Y118923D01*
X28449Y118845D01*
X28555Y118753D01*
X28648Y118660D01*
X28726Y118568D01*
X28786Y118485D01*
X28809Y118448D01*
X28828Y118415D01*
X28846Y118392D01*
X28856Y118374D01*
X28860Y118360D01*
X28865Y118355D01*
X28929Y118212D01*
X28976Y118064D01*
X29008Y117916D01*
X29031Y117782D01*
X29040Y117722D01*
X29045Y117662D01*
X29050Y117616D01*
Y117570D01*
X29054Y117537D01*
Y117510D01*
Y117491D01*
Y117487D01*
X29045Y117320D01*
X29026Y117159D01*
X29003Y117016D01*
X28985Y116946D01*
X28971Y116886D01*
X28957Y116831D01*
X28939Y116780D01*
X28925Y116734D01*
X28916Y116697D01*
X28902Y116669D01*
X28897Y116646D01*
X28888Y116632D01*
Y116627D01*
X28819Y116489D01*
X28740Y116364D01*
X28657Y116258D01*
X28615Y116216D01*
X28578Y116175D01*
X28541Y116138D01*
X28504Y116105D01*
X28472Y116078D01*
X28444Y116059D01*
X28426Y116041D01*
X28407Y116027D01*
X28398Y116022D01*
X28394Y116017D01*
X28329Y115981D01*
X28264Y115948D01*
X28126Y115897D01*
X27987Y115860D01*
X27853Y115837D01*
X27788Y115828D01*
X27733Y115819D01*
X27682Y115814D01*
X27641D01*
X27604Y115810D01*
X27553D01*
X27460Y115814D01*
X27373Y115823D01*
X27289Y115833D01*
X27211Y115851D01*
X27137Y115874D01*
X27068Y115897D01*
X27003Y115920D01*
X26943Y115948D01*
X26892Y115971D01*
X26841Y115994D01*
X26804Y116017D01*
X26767Y116041D01*
X26744Y116059D01*
X26721Y116068D01*
X26712Y116078D01*
X26707Y116082D01*
X26643Y116138D01*
X26587Y116193D01*
X26536Y116258D01*
X26485Y116323D01*
X26402Y116452D01*
X26338Y116581D01*
X26310Y116641D01*
X26287Y116697D01*
X26268Y116747D01*
X26254Y116789D01*
X26241Y116826D01*
X26231Y116854D01*
X26227Y116872D01*
Y116877D01*
X26652Y116983D01*
X26670Y116909D01*
X26693Y116840D01*
X26717Y116775D01*
X26740Y116715D01*
X26767Y116660D01*
X26795Y116613D01*
X26827Y116567D01*
X26855Y116526D01*
X26878Y116489D01*
X26906Y116461D01*
X26929Y116433D01*
X26948Y116410D01*
X26966Y116396D01*
X26980Y116383D01*
X26985Y116378D01*
X26989Y116373D01*
X27035Y116336D01*
X27086Y116309D01*
X27188Y116258D01*
X27285Y116221D01*
X27382Y116198D01*
X27465Y116179D01*
X27497Y116175D01*
X27530D01*
X27557Y116170D01*
X27590D01*
X27696Y116175D01*
X27798Y116193D01*
X27890Y116216D01*
X27973Y116244D01*
X28038Y116272D01*
X28065Y116286D01*
X28089Y116295D01*
X28107Y116304D01*
X28121Y116313D01*
X28130Y116318D01*
X28135D01*
X28223Y116383D01*
X28297Y116452D01*
X28361Y116530D01*
X28412Y116604D01*
X28454Y116669D01*
X28481Y116724D01*
X28491Y116747D01*
X28500Y116761D01*
X28504Y116771D01*
Y116775D01*
X28541Y116895D01*
X28569Y117016D01*
X28592Y117136D01*
X28606Y117246D01*
X28611Y117297D01*
X28615Y117343D01*
Y117385D01*
X28620Y117417D01*
Y117445D01*
Y117468D01*
Y117482D01*
Y117487D01*
X28615Y117607D01*
X28606Y117718D01*
X28588Y117819D01*
X28569Y117912D01*
X28555Y117990D01*
X28546Y118023D01*
X28537Y118050D01*
X28532Y118073D01*
X28528Y118087D01*
X28523Y118096D01*
Y118101D01*
X28477Y118207D01*
X28426Y118304D01*
X28370Y118383D01*
X28310Y118452D01*
X28260Y118508D01*
X28218Y118545D01*
X28186Y118568D01*
X28181Y118577D01*
X28176D01*
X28079Y118637D01*
X27973Y118683D01*
X27872Y118716D01*
X27775Y118734D01*
X27687Y118748D01*
X27650Y118753D01*
X27617D01*
X27594Y118757D01*
X27557D01*
X27442Y118753D01*
X27336Y118734D01*
X27248Y118706D01*
X27169Y118679D01*
X27109Y118646D01*
X27063Y118623D01*
X27035Y118605D01*
X27026Y118596D01*
X26952Y118526D01*
X26883Y118448D01*
X26827Y118365D01*
X26781Y118281D01*
X26744Y118207D01*
X26730Y118170D01*
X26721Y118143D01*
X26712Y118120D01*
X26703Y118101D01*
X26698Y118092D01*
Y118087D01*
X26282Y118184D01*
X26310Y118268D01*
X26338Y118341D01*
X26375Y118411D01*
X26407Y118480D01*
X26444Y118540D01*
X26485Y118596D01*
X26522Y118651D01*
X26559Y118697D01*
X26596Y118734D01*
X26629Y118771D01*
X26661Y118803D01*
X26684Y118826D01*
X26707Y118850D01*
X26726Y118863D01*
X26735Y118868D01*
X26740Y118873D01*
X26804Y118914D01*
X26869Y118956D01*
X26934Y118988D01*
X27003Y119016D01*
X27141Y119058D01*
X27266Y119085D01*
X27326Y119099D01*
X27377Y119104D01*
X27428Y119108D01*
X27470Y119113D01*
X27502Y119118D01*
X27548D01*
X27701Y119108D01*
D02*
G37*
G36*
X42846Y110257D02*
X42920D01*
X42994Y110252D01*
X43059Y110243D01*
X43124Y110239D01*
X43179Y110234D01*
X43230Y110225D01*
X43276Y110220D01*
X43318Y110211D01*
X43350Y110206D01*
X43378Y110202D01*
X43401Y110197D01*
X43415Y110192D01*
X43424Y110188D01*
X43429D01*
X43530Y110160D01*
X43622Y110128D01*
X43701Y110091D01*
X43770Y110063D01*
X43830Y110031D01*
X43872Y110012D01*
X43895Y109994D01*
X43904Y109989D01*
X43974Y109938D01*
X44034Y109887D01*
X44085Y109832D01*
X44131Y109781D01*
X44163Y109735D01*
X44186Y109698D01*
X44200Y109675D01*
X44205Y109670D01*
Y109666D01*
X44242Y109592D01*
X44265Y109513D01*
X44283Y109439D01*
X44297Y109370D01*
X44306Y109310D01*
X44311Y109259D01*
Y109218D01*
X44302Y109093D01*
X44283Y108977D01*
X44251Y108880D01*
X44219Y108797D01*
X44181Y108728D01*
X44168Y108700D01*
X44149Y108677D01*
X44140Y108659D01*
X44131Y108645D01*
X44122Y108640D01*
Y108635D01*
X44048Y108552D01*
X43960Y108483D01*
X43872Y108423D01*
X43789Y108377D01*
X43710Y108340D01*
X43678Y108321D01*
X43646Y108312D01*
X43622Y108303D01*
X43604Y108293D01*
X43595Y108289D01*
X43590D01*
X43521Y108270D01*
X43452Y108252D01*
X43299Y108224D01*
X43147Y108201D01*
X43003Y108187D01*
X42934Y108183D01*
X42874Y108178D01*
X42819D01*
X42768Y108173D01*
X42731D01*
X42698D01*
X42680D01*
X42675D01*
X42514Y108178D01*
X42361Y108187D01*
X42223Y108201D01*
X42093Y108224D01*
X41973Y108247D01*
X41867Y108275D01*
X41770Y108303D01*
X41687Y108330D01*
X41613Y108358D01*
X41548Y108390D01*
X41493Y108414D01*
X41451Y108437D01*
X41414Y108460D01*
X41391Y108474D01*
X41377Y108483D01*
X41373Y108487D01*
X41317Y108538D01*
X41266Y108594D01*
X41220Y108654D01*
X41183Y108714D01*
X41151Y108774D01*
X41123Y108834D01*
X41105Y108894D01*
X41086Y108949D01*
X41072Y109005D01*
X41063Y109056D01*
X41054Y109102D01*
X41049Y109139D01*
X41045Y109171D01*
Y109218D01*
X41054Y109342D01*
X41072Y109458D01*
X41105Y109555D01*
X41137Y109638D01*
X41169Y109707D01*
X41188Y109730D01*
X41202Y109753D01*
X41211Y109772D01*
X41220Y109786D01*
X41229Y109790D01*
Y109795D01*
X41308Y109878D01*
X41391Y109947D01*
X41484Y110008D01*
X41567Y110054D01*
X41645Y110091D01*
X41677Y110109D01*
X41710Y110118D01*
X41733Y110128D01*
X41751Y110137D01*
X41761Y110142D01*
X41765D01*
X41835Y110165D01*
X41904Y110183D01*
X42052Y110211D01*
X42204Y110234D01*
X42352Y110248D01*
X42417Y110252D01*
X42477Y110257D01*
X42532D01*
X42583Y110262D01*
X42620D01*
X42652D01*
X42671D01*
X42675D01*
X42763D01*
X42846Y110257D01*
D02*
G37*
G36*
X44311Y106912D02*
X44232Y106866D01*
X44158Y106815D01*
X44085Y106755D01*
X44020Y106700D01*
X43964Y106644D01*
X43918Y106603D01*
X43904Y106584D01*
X43891Y106570D01*
X43886Y106566D01*
X43881Y106561D01*
X43803Y106464D01*
X43729Y106367D01*
X43664Y106274D01*
X43613Y106182D01*
X43567Y106104D01*
X43549Y106071D01*
X43535Y106044D01*
X43521Y106020D01*
X43516Y106002D01*
X43507Y105993D01*
Y105988D01*
X43128D01*
X43156Y106057D01*
X43188Y106127D01*
X43221Y106196D01*
X43253Y106261D01*
X43281Y106316D01*
X43304Y106362D01*
X43322Y106390D01*
X43327Y106395D01*
Y106399D01*
X43378Y106482D01*
X43429Y106556D01*
X43475Y106621D01*
X43516Y106672D01*
X43549Y106718D01*
X43576Y106746D01*
X43595Y106769D01*
X43599Y106773D01*
X41100D01*
Y107166D01*
X44311D01*
Y106912D01*
D02*
G37*
G36*
X42218Y104902D02*
X42144Y104884D01*
X42075Y104861D01*
X42010Y104838D01*
X41950Y104815D01*
X41895Y104787D01*
X41848Y104759D01*
X41802Y104727D01*
X41761Y104699D01*
X41724Y104676D01*
X41696Y104648D01*
X41668Y104625D01*
X41645Y104607D01*
X41631Y104588D01*
X41617Y104574D01*
X41613Y104570D01*
X41608Y104565D01*
X41571Y104519D01*
X41543Y104468D01*
X41493Y104367D01*
X41456Y104270D01*
X41433Y104172D01*
X41414Y104089D01*
X41410Y104057D01*
Y104025D01*
X41405Y103997D01*
Y103964D01*
X41410Y103858D01*
X41428Y103757D01*
X41451Y103664D01*
X41479Y103581D01*
X41507Y103516D01*
X41520Y103489D01*
X41530Y103466D01*
X41539Y103447D01*
X41548Y103433D01*
X41553Y103424D01*
Y103419D01*
X41617Y103332D01*
X41687Y103258D01*
X41765Y103193D01*
X41839Y103142D01*
X41904Y103101D01*
X41959Y103073D01*
X41982Y103064D01*
X41996Y103054D01*
X42006Y103050D01*
X42010D01*
X42130Y103013D01*
X42250Y102985D01*
X42371Y102962D01*
X42481Y102948D01*
X42532Y102944D01*
X42578Y102939D01*
X42620D01*
X42652Y102934D01*
X42680D01*
X42703D01*
X42717D01*
X42722D01*
X42842Y102939D01*
X42953Y102948D01*
X43054Y102967D01*
X43147Y102985D01*
X43225Y102999D01*
X43257Y103008D01*
X43285Y103017D01*
X43308Y103022D01*
X43322Y103027D01*
X43332Y103031D01*
X43336D01*
X43442Y103077D01*
X43539Y103128D01*
X43618Y103184D01*
X43687Y103244D01*
X43743Y103295D01*
X43780Y103336D01*
X43803Y103369D01*
X43812Y103373D01*
Y103378D01*
X43872Y103475D01*
X43918Y103581D01*
X43951Y103683D01*
X43969Y103780D01*
X43983Y103867D01*
X43988Y103904D01*
Y103937D01*
X43992Y103960D01*
Y103997D01*
X43988Y104112D01*
X43969Y104219D01*
X43941Y104306D01*
X43914Y104385D01*
X43881Y104445D01*
X43858Y104491D01*
X43840Y104519D01*
X43830Y104528D01*
X43761Y104602D01*
X43683Y104671D01*
X43599Y104727D01*
X43516Y104773D01*
X43442Y104810D01*
X43405Y104824D01*
X43378Y104833D01*
X43355Y104842D01*
X43336Y104852D01*
X43327Y104856D01*
X43322D01*
X43419Y105272D01*
X43502Y105244D01*
X43576Y105217D01*
X43646Y105180D01*
X43715Y105147D01*
X43775Y105110D01*
X43830Y105069D01*
X43886Y105032D01*
X43932Y104995D01*
X43969Y104958D01*
X44006Y104926D01*
X44038Y104893D01*
X44061Y104870D01*
X44085Y104847D01*
X44098Y104829D01*
X44103Y104819D01*
X44108Y104815D01*
X44149Y104750D01*
X44191Y104685D01*
X44223Y104621D01*
X44251Y104551D01*
X44292Y104413D01*
X44320Y104288D01*
X44334Y104228D01*
X44339Y104177D01*
X44343Y104126D01*
X44348Y104085D01*
X44352Y104052D01*
Y104006D01*
X44343Y103854D01*
X44320Y103706D01*
X44292Y103577D01*
X44274Y103516D01*
X44256Y103461D01*
X44237Y103410D01*
X44219Y103364D01*
X44205Y103327D01*
X44191Y103290D01*
X44177Y103267D01*
X44168Y103248D01*
X44163Y103235D01*
X44158Y103230D01*
X44080Y103105D01*
X43988Y102999D01*
X43895Y102907D01*
X43803Y102828D01*
X43720Y102768D01*
X43683Y102745D01*
X43650Y102726D01*
X43627Y102708D01*
X43609Y102699D01*
X43595Y102694D01*
X43590Y102689D01*
X43447Y102625D01*
X43299Y102578D01*
X43151Y102546D01*
X43017Y102523D01*
X42957Y102514D01*
X42897Y102509D01*
X42851Y102505D01*
X42805D01*
X42772Y102500D01*
X42745D01*
X42726D01*
X42722D01*
X42555Y102509D01*
X42394Y102528D01*
X42250Y102551D01*
X42181Y102569D01*
X42121Y102583D01*
X42066Y102597D01*
X42015Y102615D01*
X41969Y102629D01*
X41932Y102639D01*
X41904Y102653D01*
X41881Y102657D01*
X41867Y102666D01*
X41862D01*
X41724Y102736D01*
X41599Y102814D01*
X41493Y102897D01*
X41451Y102939D01*
X41410Y102976D01*
X41373Y103013D01*
X41340Y103050D01*
X41313Y103082D01*
X41294Y103110D01*
X41276Y103128D01*
X41262Y103147D01*
X41257Y103156D01*
X41252Y103161D01*
X41216Y103225D01*
X41183Y103290D01*
X41132Y103429D01*
X41095Y103567D01*
X41072Y103701D01*
X41063Y103766D01*
X41054Y103821D01*
X41049Y103872D01*
Y103914D01*
X41045Y103951D01*
Y104001D01*
X41049Y104094D01*
X41058Y104182D01*
X41068Y104265D01*
X41086Y104343D01*
X41109Y104417D01*
X41132Y104487D01*
X41155Y104551D01*
X41183Y104611D01*
X41206Y104662D01*
X41229Y104713D01*
X41252Y104750D01*
X41276Y104787D01*
X41294Y104810D01*
X41303Y104833D01*
X41313Y104842D01*
X41317Y104847D01*
X41373Y104912D01*
X41428Y104967D01*
X41493Y105018D01*
X41557Y105069D01*
X41687Y105152D01*
X41816Y105217D01*
X41876Y105244D01*
X41932Y105267D01*
X41982Y105286D01*
X42024Y105300D01*
X42061Y105314D01*
X42089Y105323D01*
X42107Y105327D01*
X42112D01*
X42218Y104902D01*
D02*
G37*
G36*
X323217Y39416D02*
X323268Y39342D01*
X323328Y39268D01*
X323383Y39203D01*
X323439Y39148D01*
X323480Y39102D01*
X323499Y39088D01*
X323512Y39074D01*
X323517Y39069D01*
X323522Y39065D01*
X323619Y38986D01*
X323716Y38912D01*
X323808Y38848D01*
X323901Y38797D01*
X323979Y38750D01*
X324011Y38732D01*
X324039Y38718D01*
X324062Y38704D01*
X324081Y38700D01*
X324090Y38690D01*
X324095D01*
Y38312D01*
X324025Y38339D01*
X323956Y38372D01*
X323887Y38404D01*
X323822Y38436D01*
X323766Y38464D01*
X323720Y38487D01*
X323693Y38506D01*
X323688Y38510D01*
X323683D01*
X323600Y38561D01*
X323526Y38612D01*
X323462Y38658D01*
X323411Y38700D01*
X323364Y38732D01*
X323337Y38760D01*
X323314Y38778D01*
X323309Y38783D01*
Y36283D01*
X322916D01*
Y39494D01*
X323170D01*
X323217Y39416D01*
D02*
G37*
G36*
X327232Y36283D02*
X326806D01*
Y37392D01*
X326284Y37896D01*
X325148Y36283D01*
X324589D01*
X325989Y38182D01*
X324649Y39480D01*
X325226D01*
X326806Y37891D01*
Y39480D01*
X327232D01*
Y36283D01*
D02*
G37*
G36*
X330951D02*
X330544D01*
Y39005D01*
X329620Y36283D01*
X329241D01*
X328308Y38958D01*
Y36283D01*
X327901D01*
Y39480D01*
X328470D01*
X329237Y37254D01*
X329278Y37133D01*
X329310Y37032D01*
X329343Y36944D01*
X329366Y36870D01*
X329384Y36815D01*
X329398Y36773D01*
X329403Y36750D01*
X329408Y36741D01*
X329426Y36805D01*
X329449Y36879D01*
X329477Y36958D01*
X329500Y37036D01*
X329523Y37106D01*
X329541Y37161D01*
X329551Y37184D01*
X329555Y37198D01*
X329560Y37207D01*
Y37212D01*
X330318Y39480D01*
X330951D01*
Y36283D01*
D02*
G37*
G36*
X304354Y22932D02*
X304405Y22858D01*
X304465Y22784D01*
X304520Y22719D01*
X304576Y22664D01*
X304617Y22618D01*
X304636Y22604D01*
X304649Y22590D01*
X304654Y22585D01*
X304659Y22581D01*
X304756Y22502D01*
X304853Y22428D01*
X304945Y22364D01*
X305038Y22313D01*
X305116Y22267D01*
X305148Y22248D01*
X305176Y22234D01*
X305199Y22220D01*
X305218Y22216D01*
X305227Y22207D01*
X305232D01*
Y21828D01*
X305162Y21856D01*
X305093Y21888D01*
X305024Y21920D01*
X304959Y21953D01*
X304904Y21980D01*
X304857Y22003D01*
X304830Y22022D01*
X304825Y22027D01*
X304820D01*
X304737Y22077D01*
X304663Y22128D01*
X304599Y22174D01*
X304548Y22216D01*
X304502Y22248D01*
X304474Y22276D01*
X304451Y22294D01*
X304446Y22299D01*
Y19800D01*
X304053D01*
Y23010D01*
X304308D01*
X304354Y22932D01*
D02*
G37*
G36*
X302007Y23006D02*
X302095Y22997D01*
X302178Y22978D01*
X302256Y22955D01*
X302326Y22923D01*
X302395Y22895D01*
X302455Y22858D01*
X302510Y22826D01*
X302557Y22793D01*
X302603Y22756D01*
X302640Y22729D01*
X302667Y22701D01*
X302691Y22673D01*
X302709Y22655D01*
X302718Y22646D01*
X302723Y22641D01*
X302783Y22558D01*
X302834Y22461D01*
X302880Y22359D01*
X302922Y22253D01*
X302954Y22142D01*
X302982Y22031D01*
X303005Y21916D01*
X303023Y21809D01*
X303037Y21703D01*
X303046Y21606D01*
X303056Y21518D01*
X303060Y21444D01*
Y21380D01*
X303065Y21334D01*
Y21315D01*
Y21301D01*
Y21296D01*
Y21292D01*
X303060Y21144D01*
X303051Y21005D01*
X303037Y20876D01*
X303014Y20756D01*
X302991Y20650D01*
X302968Y20553D01*
X302940Y20465D01*
X302908Y20386D01*
X302880Y20322D01*
X302852Y20262D01*
X302829Y20215D01*
X302801Y20174D01*
X302783Y20142D01*
X302769Y20123D01*
X302760Y20109D01*
X302755Y20105D01*
X302695Y20040D01*
X302630Y19984D01*
X302566Y19938D01*
X302501Y19897D01*
X302432Y19860D01*
X302367Y19832D01*
X302303Y19809D01*
X302238Y19790D01*
X302182Y19776D01*
X302127Y19763D01*
X302081Y19753D01*
X302039Y19749D01*
X302002D01*
X301979Y19744D01*
X301956D01*
X301850Y19749D01*
X301753Y19767D01*
X301665Y19786D01*
X301586Y19814D01*
X301526Y19837D01*
X301480Y19860D01*
X301462Y19864D01*
X301448Y19874D01*
X301443Y19878D01*
X301439D01*
X301360Y19934D01*
X301286Y19998D01*
X301226Y20063D01*
X301175Y20128D01*
X301134Y20188D01*
X301106Y20234D01*
X301097Y20252D01*
X301087Y20266D01*
X301083Y20271D01*
Y20276D01*
X301037Y20372D01*
X301004Y20474D01*
X300981Y20567D01*
X300967Y20654D01*
X300954Y20728D01*
Y20756D01*
X300949Y20784D01*
Y20807D01*
Y20821D01*
Y20830D01*
Y20834D01*
X300954Y20918D01*
X300963Y20996D01*
X300977Y21075D01*
X300990Y21144D01*
X301013Y21209D01*
X301037Y21273D01*
X301060Y21329D01*
X301087Y21380D01*
X301115Y21426D01*
X301138Y21467D01*
X301161Y21500D01*
X301185Y21532D01*
X301198Y21555D01*
X301212Y21569D01*
X301221Y21578D01*
X301226Y21583D01*
X301277Y21634D01*
X301332Y21680D01*
X301392Y21717D01*
X301448Y21749D01*
X301503Y21782D01*
X301559Y21805D01*
X301665Y21837D01*
X301711Y21851D01*
X301757Y21860D01*
X301794Y21865D01*
X301831Y21869D01*
X301859Y21874D01*
X301896D01*
X301979Y21869D01*
X302058Y21856D01*
X302132Y21842D01*
X302196Y21823D01*
X302252Y21800D01*
X302293Y21786D01*
X302321Y21772D01*
X302326Y21768D01*
X302330D01*
X302404Y21722D01*
X302469Y21671D01*
X302529Y21620D01*
X302575Y21565D01*
X302617Y21518D01*
X302649Y21481D01*
X302667Y21454D01*
X302672Y21449D01*
Y21532D01*
X302667Y21615D01*
X302663Y21689D01*
X302654Y21763D01*
X302649Y21828D01*
X302640Y21888D01*
X302630Y21943D01*
X302617Y21994D01*
X302607Y22040D01*
X302598Y22077D01*
X302589Y22110D01*
X302584Y22137D01*
X302575Y22156D01*
X302571Y22170D01*
X302566Y22179D01*
Y22184D01*
X302520Y22276D01*
X302473Y22359D01*
X302423Y22424D01*
X302376Y22479D01*
X302335Y22525D01*
X302303Y22558D01*
X302279Y22576D01*
X302270Y22581D01*
X302215Y22618D01*
X302159Y22641D01*
X302104Y22659D01*
X302048Y22673D01*
X302007Y22682D01*
X301970Y22687D01*
X301938D01*
X301854Y22678D01*
X301776Y22659D01*
X301711Y22632D01*
X301651Y22604D01*
X301605Y22572D01*
X301573Y22544D01*
X301554Y22525D01*
X301545Y22516D01*
X301513Y22475D01*
X301480Y22424D01*
X301452Y22368D01*
X301434Y22313D01*
X301415Y22262D01*
X301402Y22220D01*
X301397Y22193D01*
X301392Y22188D01*
Y22184D01*
X301000Y22216D01*
X301027Y22345D01*
X301069Y22461D01*
X301115Y22562D01*
X301166Y22646D01*
X301217Y22710D01*
X301235Y22738D01*
X301258Y22761D01*
X301272Y22775D01*
X301286Y22789D01*
X301291Y22793D01*
X301295Y22798D01*
X301342Y22835D01*
X301392Y22867D01*
X301494Y22923D01*
X301596Y22960D01*
X301693Y22983D01*
X301781Y23001D01*
X301817Y23006D01*
X301850D01*
X301877Y23010D01*
X301914D01*
X302007Y23006D01*
D02*
G37*
G36*
X307366Y23043D02*
X307514Y23020D01*
X307643Y22992D01*
X307703Y22974D01*
X307759Y22955D01*
X307810Y22937D01*
X307856Y22918D01*
X307893Y22904D01*
X307930Y22890D01*
X307953Y22877D01*
X307971Y22867D01*
X307985Y22863D01*
X307990Y22858D01*
X308115Y22780D01*
X308221Y22687D01*
X308313Y22595D01*
X308392Y22502D01*
X308452Y22419D01*
X308475Y22382D01*
X308493Y22350D01*
X308512Y22327D01*
X308521Y22308D01*
X308526Y22294D01*
X308530Y22290D01*
X308595Y22147D01*
X308641Y21999D01*
X308674Y21851D01*
X308697Y21717D01*
X308706Y21657D01*
X308711Y21597D01*
X308715Y21551D01*
Y21504D01*
X308720Y21472D01*
Y21444D01*
Y21426D01*
Y21421D01*
X308711Y21255D01*
X308692Y21093D01*
X308669Y20950D01*
X308650Y20881D01*
X308636Y20821D01*
X308623Y20765D01*
X308604Y20714D01*
X308590Y20668D01*
X308581Y20631D01*
X308567Y20604D01*
X308563Y20580D01*
X308553Y20567D01*
Y20562D01*
X308484Y20423D01*
X308405Y20299D01*
X308322Y20192D01*
X308281Y20151D01*
X308244Y20109D01*
X308207Y20072D01*
X308170Y20040D01*
X308138Y20012D01*
X308110Y19994D01*
X308091Y19975D01*
X308073Y19961D01*
X308064Y19957D01*
X308059Y19952D01*
X307994Y19915D01*
X307930Y19883D01*
X307791Y19832D01*
X307652Y19795D01*
X307519Y19772D01*
X307454Y19763D01*
X307398Y19753D01*
X307348Y19749D01*
X307306D01*
X307269Y19744D01*
X307218D01*
X307126Y19749D01*
X307038Y19758D01*
X306955Y19767D01*
X306876Y19786D01*
X306802Y19809D01*
X306733Y19832D01*
X306668Y19855D01*
X306608Y19883D01*
X306557Y19906D01*
X306507Y19929D01*
X306470Y19952D01*
X306433Y19975D01*
X306410Y19994D01*
X306387Y20003D01*
X306377Y20012D01*
X306373Y20017D01*
X306308Y20072D01*
X306253Y20128D01*
X306202Y20192D01*
X306151Y20257D01*
X306068Y20386D01*
X306003Y20516D01*
X305975Y20576D01*
X305952Y20631D01*
X305934Y20682D01*
X305920Y20724D01*
X305906Y20761D01*
X305897Y20788D01*
X305892Y20807D01*
Y20811D01*
X306317Y20918D01*
X306336Y20844D01*
X306359Y20775D01*
X306382Y20710D01*
X306405Y20650D01*
X306433Y20594D01*
X306460Y20548D01*
X306493Y20502D01*
X306521Y20460D01*
X306544Y20423D01*
X306571Y20396D01*
X306594Y20368D01*
X306613Y20345D01*
X306631Y20331D01*
X306645Y20317D01*
X306650Y20312D01*
X306655Y20308D01*
X306701Y20271D01*
X306752Y20243D01*
X306853Y20192D01*
X306950Y20155D01*
X307047Y20132D01*
X307130Y20114D01*
X307163Y20109D01*
X307195D01*
X307223Y20105D01*
X307255D01*
X307361Y20109D01*
X307463Y20128D01*
X307556Y20151D01*
X307639Y20178D01*
X307703Y20206D01*
X307731Y20220D01*
X307754Y20229D01*
X307773Y20238D01*
X307786Y20248D01*
X307796Y20252D01*
X307800D01*
X307888Y20317D01*
X307962Y20386D01*
X308027Y20465D01*
X308078Y20539D01*
X308119Y20604D01*
X308147Y20659D01*
X308156Y20682D01*
X308165Y20696D01*
X308170Y20705D01*
Y20710D01*
X308207Y20830D01*
X308235Y20950D01*
X308258Y21070D01*
X308272Y21181D01*
X308276Y21232D01*
X308281Y21278D01*
Y21320D01*
X308285Y21352D01*
Y21380D01*
Y21403D01*
Y21417D01*
Y21421D01*
X308281Y21541D01*
X308272Y21652D01*
X308253Y21754D01*
X308235Y21846D01*
X308221Y21925D01*
X308211Y21957D01*
X308202Y21985D01*
X308198Y22008D01*
X308193Y22022D01*
X308188Y22031D01*
Y22036D01*
X308142Y22142D01*
X308091Y22239D01*
X308036Y22318D01*
X307976Y22387D01*
X307925Y22442D01*
X307884Y22479D01*
X307851Y22502D01*
X307846Y22512D01*
X307842D01*
X307745Y22572D01*
X307639Y22618D01*
X307537Y22650D01*
X307440Y22669D01*
X307352Y22682D01*
X307315Y22687D01*
X307283D01*
X307260Y22692D01*
X307223D01*
X307107Y22687D01*
X307001Y22669D01*
X306913Y22641D01*
X306835Y22613D01*
X306775Y22581D01*
X306729Y22558D01*
X306701Y22539D01*
X306692Y22530D01*
X306618Y22461D01*
X306548Y22382D01*
X306493Y22299D01*
X306447Y22216D01*
X306410Y22142D01*
X306396Y22105D01*
X306387Y22077D01*
X306377Y22054D01*
X306368Y22036D01*
X306364Y22027D01*
Y22022D01*
X305948Y22119D01*
X305975Y22202D01*
X306003Y22276D01*
X306040Y22345D01*
X306072Y22415D01*
X306109Y22475D01*
X306151Y22530D01*
X306188Y22585D01*
X306225Y22632D01*
X306262Y22669D01*
X306294Y22706D01*
X306327Y22738D01*
X306350Y22761D01*
X306373Y22784D01*
X306391Y22798D01*
X306400Y22803D01*
X306405Y22807D01*
X306470Y22849D01*
X306534Y22890D01*
X306599Y22923D01*
X306668Y22951D01*
X306807Y22992D01*
X306932Y23020D01*
X306992Y23034D01*
X307043Y23038D01*
X307094Y23043D01*
X307135Y23047D01*
X307167Y23052D01*
X307214D01*
X307366Y23043D01*
D02*
G37*
G36*
X304227Y26911D02*
X304278Y26837D01*
X304338Y26763D01*
X304394Y26698D01*
X304449Y26643D01*
X304491Y26597D01*
X304509Y26583D01*
X304523Y26569D01*
X304528Y26564D01*
X304532Y26560D01*
X304629Y26481D01*
X304726Y26407D01*
X304819Y26343D01*
X304911Y26292D01*
X304990Y26246D01*
X305022Y26227D01*
X305050Y26213D01*
X305073Y26199D01*
X305091Y26195D01*
X305101Y26186D01*
X305105D01*
Y25807D01*
X305036Y25834D01*
X304967Y25867D01*
X304897Y25899D01*
X304833Y25931D01*
X304777Y25959D01*
X304731Y25982D01*
X304703Y26001D01*
X304699Y26005D01*
X304694D01*
X304611Y26056D01*
X304537Y26107D01*
X304472Y26153D01*
X304421Y26195D01*
X304375Y26227D01*
X304348Y26255D01*
X304325Y26273D01*
X304320Y26278D01*
Y23778D01*
X303927D01*
Y26989D01*
X304181D01*
X304227Y26911D01*
D02*
G37*
G36*
X307240Y27022D02*
X307388Y26999D01*
X307517Y26971D01*
X307577Y26952D01*
X307632Y26934D01*
X307683Y26915D01*
X307729Y26897D01*
X307766Y26883D01*
X307803Y26869D01*
X307826Y26855D01*
X307845Y26846D01*
X307859Y26842D01*
X307863Y26837D01*
X307988Y26758D01*
X308094Y26666D01*
X308187Y26574D01*
X308265Y26481D01*
X308325Y26398D01*
X308348Y26361D01*
X308367Y26329D01*
X308385Y26306D01*
X308395Y26287D01*
X308399Y26273D01*
X308404Y26269D01*
X308469Y26125D01*
X308515Y25978D01*
X308547Y25830D01*
X308570Y25696D01*
X308579Y25636D01*
X308584Y25576D01*
X308589Y25530D01*
Y25483D01*
X308593Y25451D01*
Y25423D01*
Y25405D01*
Y25400D01*
X308584Y25234D01*
X308566Y25072D01*
X308543Y24929D01*
X308524Y24860D01*
X308510Y24800D01*
X308496Y24744D01*
X308478Y24693D01*
X308464Y24647D01*
X308455Y24610D01*
X308441Y24582D01*
X308436Y24559D01*
X308427Y24545D01*
Y24541D01*
X308358Y24402D01*
X308279Y24277D01*
X308196Y24171D01*
X308155Y24130D01*
X308118Y24088D01*
X308081Y24051D01*
X308044Y24019D01*
X308011Y23991D01*
X307983Y23972D01*
X307965Y23954D01*
X307947Y23940D01*
X307937Y23936D01*
X307933Y23931D01*
X307868Y23894D01*
X307803Y23862D01*
X307665Y23811D01*
X307526Y23774D01*
X307392Y23751D01*
X307328Y23742D01*
X307272Y23732D01*
X307221Y23728D01*
X307180D01*
X307143Y23723D01*
X307092D01*
X306999Y23728D01*
X306912Y23737D01*
X306828Y23746D01*
X306750Y23765D01*
X306676Y23788D01*
X306607Y23811D01*
X306542Y23834D01*
X306482Y23862D01*
X306431Y23885D01*
X306380Y23908D01*
X306343Y23931D01*
X306307Y23954D01*
X306283Y23972D01*
X306260Y23982D01*
X306251Y23991D01*
X306246Y23996D01*
X306182Y24051D01*
X306126Y24106D01*
X306076Y24171D01*
X306025Y24236D01*
X305942Y24365D01*
X305877Y24495D01*
X305849Y24555D01*
X305826Y24610D01*
X305807Y24661D01*
X305794Y24702D01*
X305780Y24739D01*
X305771Y24767D01*
X305766Y24786D01*
Y24790D01*
X306191Y24896D01*
X306209Y24823D01*
X306233Y24753D01*
X306256Y24689D01*
X306279Y24629D01*
X306307Y24573D01*
X306334Y24527D01*
X306366Y24481D01*
X306394Y24439D01*
X306417Y24402D01*
X306445Y24374D01*
X306468Y24347D01*
X306487Y24324D01*
X306505Y24310D01*
X306519Y24296D01*
X306524Y24291D01*
X306528Y24287D01*
X306574Y24250D01*
X306625Y24222D01*
X306727Y24171D01*
X306824Y24134D01*
X306921Y24111D01*
X307004Y24093D01*
X307036Y24088D01*
X307069D01*
X307097Y24083D01*
X307129D01*
X307235Y24088D01*
X307337Y24106D01*
X307429Y24130D01*
X307512Y24157D01*
X307577Y24185D01*
X307605Y24199D01*
X307628Y24208D01*
X307646Y24217D01*
X307660Y24227D01*
X307669Y24231D01*
X307674D01*
X307762Y24296D01*
X307836Y24365D01*
X307900Y24444D01*
X307951Y24518D01*
X307993Y24582D01*
X308020Y24638D01*
X308030Y24661D01*
X308039Y24675D01*
X308044Y24684D01*
Y24689D01*
X308081Y24809D01*
X308108Y24929D01*
X308131Y25049D01*
X308145Y25160D01*
X308150Y25211D01*
X308155Y25257D01*
Y25299D01*
X308159Y25331D01*
Y25359D01*
Y25382D01*
Y25396D01*
Y25400D01*
X308155Y25520D01*
X308145Y25631D01*
X308127Y25733D01*
X308108Y25825D01*
X308094Y25904D01*
X308085Y25936D01*
X308076Y25964D01*
X308071Y25987D01*
X308067Y26001D01*
X308062Y26010D01*
Y26015D01*
X308016Y26121D01*
X307965Y26218D01*
X307910Y26296D01*
X307850Y26366D01*
X307799Y26421D01*
X307757Y26458D01*
X307725Y26481D01*
X307720Y26490D01*
X307716D01*
X307619Y26550D01*
X307512Y26597D01*
X307411Y26629D01*
X307314Y26647D01*
X307226Y26661D01*
X307189Y26666D01*
X307157D01*
X307134Y26671D01*
X307097D01*
X306981Y26666D01*
X306875Y26647D01*
X306787Y26620D01*
X306708Y26592D01*
X306648Y26560D01*
X306602Y26537D01*
X306574Y26518D01*
X306565Y26509D01*
X306491Y26440D01*
X306422Y26361D01*
X306366Y26278D01*
X306320Y26195D01*
X306283Y26121D01*
X306270Y26084D01*
X306260Y26056D01*
X306251Y26033D01*
X306242Y26015D01*
X306237Y26005D01*
Y26001D01*
X305821Y26098D01*
X305849Y26181D01*
X305877Y26255D01*
X305914Y26324D01*
X305946Y26393D01*
X305983Y26454D01*
X306025Y26509D01*
X306062Y26564D01*
X306099Y26610D01*
X306136Y26647D01*
X306168Y26684D01*
X306200Y26717D01*
X306223Y26740D01*
X306246Y26763D01*
X306265Y26777D01*
X306274Y26781D01*
X306279Y26786D01*
X306343Y26828D01*
X306408Y26869D01*
X306473Y26902D01*
X306542Y26929D01*
X306681Y26971D01*
X306805Y26999D01*
X306866Y27013D01*
X306916Y27017D01*
X306967Y27022D01*
X307009Y27026D01*
X307041Y27031D01*
X307087D01*
X307240Y27022D01*
D02*
G37*
G36*
X302892Y26555D02*
X301326D01*
X301437Y26421D01*
X301543Y26278D01*
X301636Y26139D01*
X301723Y26005D01*
X301760Y25945D01*
X301793Y25890D01*
X301825Y25839D01*
X301848Y25797D01*
X301867Y25760D01*
X301881Y25737D01*
X301890Y25719D01*
X301894Y25714D01*
X301987Y25530D01*
X302070Y25345D01*
X302139Y25169D01*
X302167Y25091D01*
X302195Y25012D01*
X302222Y24943D01*
X302241Y24878D01*
X302259Y24823D01*
X302273Y24776D01*
X302287Y24735D01*
X302296Y24707D01*
X302301Y24689D01*
Y24684D01*
X302347Y24495D01*
X302366Y24402D01*
X302379Y24319D01*
X302393Y24240D01*
X302407Y24162D01*
X302416Y24097D01*
X302426Y24033D01*
X302430Y23977D01*
X302435Y23926D01*
X302439Y23880D01*
Y23843D01*
X302444Y23815D01*
Y23797D01*
Y23783D01*
Y23778D01*
X302042D01*
X302028Y23954D01*
X302005Y24116D01*
X301982Y24264D01*
X301968Y24333D01*
X301954Y24398D01*
X301945Y24453D01*
X301931Y24504D01*
X301922Y24550D01*
X301913Y24587D01*
X301904Y24615D01*
X301899Y24638D01*
X301894Y24652D01*
Y24656D01*
X301825Y24869D01*
X301751Y25067D01*
X301714Y25164D01*
X301677Y25257D01*
X301636Y25340D01*
X301599Y25423D01*
X301566Y25497D01*
X301534Y25562D01*
X301506Y25617D01*
X301483Y25668D01*
X301460Y25710D01*
X301446Y25737D01*
X301437Y25756D01*
X301432Y25760D01*
X301377Y25857D01*
X301322Y25954D01*
X301266Y26042D01*
X301211Y26125D01*
X301160Y26199D01*
X301109Y26273D01*
X301058Y26338D01*
X301017Y26393D01*
X300975Y26449D01*
X300938Y26495D01*
X300901Y26532D01*
X300873Y26564D01*
X300855Y26592D01*
X300836Y26610D01*
X300827Y26620D01*
X300822Y26624D01*
Y26934D01*
X302892D01*
Y26555D01*
D02*
G37*
G36*
X195573Y151344D02*
X195698Y151320D01*
X195805Y151284D01*
X195897Y151247D01*
X195939Y151223D01*
X195971Y151205D01*
X196003Y151187D01*
X196026Y151168D01*
X196045Y151154D01*
X196059Y151145D01*
X196068Y151140D01*
X196072Y151136D01*
X196160Y151048D01*
X196230Y150951D01*
X196285Y150849D01*
X196331Y150748D01*
X196359Y150660D01*
X196373Y150623D01*
X196382Y150591D01*
X196387Y150563D01*
X196391Y150544D01*
X196396Y150530D01*
Y150526D01*
X196003Y150457D01*
X195985Y150558D01*
X195957Y150646D01*
X195925Y150720D01*
X195892Y150780D01*
X195860Y150826D01*
X195832Y150858D01*
X195814Y150882D01*
X195809Y150886D01*
X195749Y150932D01*
X195684Y150969D01*
X195624Y150992D01*
X195564Y151011D01*
X195509Y151020D01*
X195467Y151029D01*
X195430D01*
X195347Y151025D01*
X195273Y151006D01*
X195209Y150983D01*
X195153Y150960D01*
X195112Y150932D01*
X195079Y150909D01*
X195056Y150891D01*
X195051Y150886D01*
X195001Y150831D01*
X194964Y150771D01*
X194941Y150711D01*
X194922Y150655D01*
X194913Y150604D01*
X194904Y150567D01*
Y150540D01*
Y150535D01*
Y150530D01*
Y150480D01*
X194913Y150433D01*
X194936Y150355D01*
X194968Y150286D01*
X195005Y150225D01*
X195042Y150184D01*
X195074Y150152D01*
X195098Y150133D01*
X195102Y150128D01*
X195107D01*
X195185Y150087D01*
X195259Y150055D01*
X195338Y150031D01*
X195407Y150018D01*
X195467Y150008D01*
X195518Y149999D01*
X195578D01*
X195597Y150004D01*
X195620D01*
X195666Y149657D01*
X195606Y149671D01*
X195550Y149680D01*
X195504Y149690D01*
X195463Y149694D01*
X195430Y149699D01*
X195389D01*
X195292Y149690D01*
X195204Y149671D01*
X195125Y149643D01*
X195061Y149611D01*
X195010Y149579D01*
X194973Y149551D01*
X194950Y149532D01*
X194941Y149523D01*
X194880Y149454D01*
X194834Y149380D01*
X194802Y149306D01*
X194783Y149232D01*
X194770Y149172D01*
X194765Y149121D01*
X194760Y149103D01*
Y149089D01*
Y149080D01*
Y149075D01*
X194770Y148974D01*
X194793Y148881D01*
X194820Y148802D01*
X194857Y148733D01*
X194894Y148678D01*
X194922Y148636D01*
X194945Y148609D01*
X194954Y148599D01*
X195028Y148535D01*
X195107Y148488D01*
X195185Y148456D01*
X195259Y148433D01*
X195324Y148419D01*
X195375Y148415D01*
X195393Y148410D01*
X195421D01*
X195504Y148415D01*
X195583Y148433D01*
X195652Y148456D01*
X195707Y148484D01*
X195754Y148507D01*
X195791Y148530D01*
X195809Y148548D01*
X195818Y148553D01*
X195874Y148618D01*
X195920Y148692D01*
X195962Y148770D01*
X195994Y148853D01*
X196017Y148923D01*
X196026Y148955D01*
X196031Y148983D01*
X196036Y149006D01*
X196040Y149024D01*
X196045Y149033D01*
Y149038D01*
X196437Y148987D01*
X196428Y148913D01*
X196414Y148844D01*
X196373Y148715D01*
X196322Y148604D01*
X196294Y148558D01*
X196266Y148512D01*
X196239Y148470D01*
X196211Y148438D01*
X196188Y148405D01*
X196165Y148382D01*
X196151Y148364D01*
X196137Y148350D01*
X196128Y148340D01*
X196123Y148336D01*
X196068Y148294D01*
X196012Y148253D01*
X195957Y148220D01*
X195897Y148193D01*
X195781Y148146D01*
X195670Y148119D01*
X195620Y148109D01*
X195573Y148100D01*
X195532Y148096D01*
X195495Y148091D01*
X195467Y148086D01*
X195426D01*
X195338Y148091D01*
X195259Y148100D01*
X195181Y148114D01*
X195107Y148133D01*
X195038Y148156D01*
X194977Y148179D01*
X194918Y148207D01*
X194867Y148234D01*
X194816Y148257D01*
X194774Y148285D01*
X194737Y148308D01*
X194710Y148331D01*
X194686Y148350D01*
X194668Y148364D01*
X194659Y148373D01*
X194654Y148378D01*
X194599Y148433D01*
X194553Y148493D01*
X194511Y148553D01*
X194474Y148613D01*
X194446Y148669D01*
X194419Y148729D01*
X194381Y148839D01*
X194372Y148890D01*
X194363Y148936D01*
X194354Y148978D01*
X194349Y149015D01*
X194345Y149043D01*
Y149066D01*
Y149080D01*
Y149084D01*
X194349Y149195D01*
X194368Y149297D01*
X194395Y149385D01*
X194423Y149459D01*
X194451Y149519D01*
X194479Y149565D01*
X194497Y149593D01*
X194502Y149602D01*
X194566Y149671D01*
X194636Y149731D01*
X194710Y149777D01*
X194783Y149814D01*
X194848Y149842D01*
X194899Y149861D01*
X194918Y149865D01*
X194931Y149870D01*
X194941Y149874D01*
X194945D01*
X194867Y149916D01*
X194802Y149958D01*
X194746Y150004D01*
X194700Y150045D01*
X194663Y150082D01*
X194636Y150115D01*
X194622Y150133D01*
X194617Y150142D01*
X194580Y150207D01*
X194553Y150272D01*
X194529Y150336D01*
X194516Y150396D01*
X194506Y150447D01*
X194502Y150484D01*
Y150512D01*
Y150521D01*
X194506Y150600D01*
X194520Y150678D01*
X194539Y150748D01*
X194562Y150808D01*
X194585Y150858D01*
X194603Y150900D01*
X194617Y150923D01*
X194622Y150932D01*
X194668Y151002D01*
X194723Y151062D01*
X194779Y151112D01*
X194834Y151159D01*
X194880Y151191D01*
X194922Y151219D01*
X194950Y151233D01*
X194954Y151237D01*
X194959D01*
X195042Y151274D01*
X195125Y151302D01*
X195209Y151325D01*
X195282Y151339D01*
X195343Y151348D01*
X195393Y151353D01*
X195509D01*
X195573Y151344D01*
D02*
G37*
G36*
X192982Y151348D02*
X193060Y151344D01*
X193134Y151330D01*
X193203Y151316D01*
X193268Y151297D01*
X193328Y151279D01*
X193384Y151256D01*
X193434Y151233D01*
X193481Y151210D01*
X193518Y151187D01*
X193550Y151168D01*
X193578Y151149D01*
X193601Y151136D01*
X193615Y151122D01*
X193624Y151117D01*
X193629Y151112D01*
X193675Y151066D01*
X193716Y151015D01*
X193758Y150960D01*
X193790Y150905D01*
X193846Y150794D01*
X193883Y150683D01*
X193896Y150632D01*
X193910Y150581D01*
X193920Y150540D01*
X193929Y150503D01*
X193933Y150470D01*
Y150447D01*
X193938Y150433D01*
Y150429D01*
X193536Y150387D01*
X193527Y150494D01*
X193508Y150586D01*
X193481Y150669D01*
X193448Y150734D01*
X193421Y150789D01*
X193393Y150826D01*
X193374Y150849D01*
X193365Y150858D01*
X193296Y150914D01*
X193222Y150955D01*
X193143Y150988D01*
X193074Y151006D01*
X193009Y151020D01*
X192954Y151025D01*
X192936Y151029D01*
X192908D01*
X192811Y151025D01*
X192723Y151006D01*
X192649Y150979D01*
X192584Y150951D01*
X192534Y150918D01*
X192501Y150895D01*
X192478Y150877D01*
X192469Y150868D01*
X192413Y150803D01*
X192372Y150738D01*
X192340Y150674D01*
X192321Y150609D01*
X192307Y150558D01*
X192303Y150512D01*
X192298Y150484D01*
Y150480D01*
Y150475D01*
X192307Y150392D01*
X192326Y150304D01*
X192358Y150225D01*
X192390Y150152D01*
X192427Y150092D01*
X192460Y150041D01*
X192469Y150022D01*
X192478Y150008D01*
X192487Y150004D01*
Y149999D01*
X192524Y149948D01*
X192570Y149898D01*
X192621Y149842D01*
X192677Y149787D01*
X192792Y149676D01*
X192908Y149565D01*
X192968Y149514D01*
X193019Y149468D01*
X193070Y149426D01*
X193111Y149389D01*
X193143Y149362D01*
X193171Y149338D01*
X193190Y149325D01*
X193194Y149320D01*
X193310Y149223D01*
X193416Y149131D01*
X193504Y149047D01*
X193573Y148978D01*
X193633Y148918D01*
X193675Y148877D01*
X193698Y148849D01*
X193707Y148844D01*
Y148839D01*
X193772Y148761D01*
X193823Y148687D01*
X193869Y148613D01*
X193906Y148548D01*
X193933Y148493D01*
X193952Y148451D01*
X193961Y148424D01*
X193966Y148419D01*
Y148415D01*
X193984Y148364D01*
X193993Y148317D01*
X194003Y148271D01*
X194007Y148230D01*
X194012Y148193D01*
Y148165D01*
Y148146D01*
Y148142D01*
X191891D01*
Y148521D01*
X193467D01*
X193411Y148599D01*
X193384Y148632D01*
X193360Y148664D01*
X193337Y148692D01*
X193319Y148710D01*
X193305Y148724D01*
X193300Y148729D01*
X193277Y148752D01*
X193250Y148775D01*
X193185Y148835D01*
X193111Y148904D01*
X193033Y148974D01*
X192959Y149033D01*
X192926Y149061D01*
X192898Y149089D01*
X192875Y149108D01*
X192857Y149121D01*
X192848Y149131D01*
X192843Y149135D01*
X192769Y149200D01*
X192695Y149260D01*
X192631Y149320D01*
X192570Y149371D01*
X192515Y149422D01*
X192469Y149468D01*
X192423Y149509D01*
X192386Y149546D01*
X192349Y149583D01*
X192321Y149611D01*
X192298Y149634D01*
X192275Y149657D01*
X192252Y149685D01*
X192243Y149694D01*
X192178Y149773D01*
X192122Y149842D01*
X192076Y149911D01*
X192039Y149967D01*
X192011Y150018D01*
X191993Y150055D01*
X191984Y150078D01*
X191979Y150087D01*
X191951Y150156D01*
X191933Y150225D01*
X191914Y150290D01*
X191905Y150346D01*
X191901Y150396D01*
X191896Y150433D01*
Y150457D01*
Y150466D01*
X191901Y150535D01*
X191910Y150600D01*
X191919Y150664D01*
X191938Y150720D01*
X191984Y150831D01*
X192030Y150918D01*
X192058Y150960D01*
X192081Y150992D01*
X192104Y151025D01*
X192127Y151048D01*
X192146Y151066D01*
X192155Y151085D01*
X192164Y151089D01*
X192169Y151094D01*
X192219Y151140D01*
X192275Y151182D01*
X192335Y151214D01*
X192395Y151242D01*
X192515Y151288D01*
X192635Y151320D01*
X192686Y151330D01*
X192737Y151339D01*
X192783Y151344D01*
X192820Y151348D01*
X192852Y151353D01*
X192898D01*
X192982Y151348D01*
D02*
G37*
G36*
X198276Y151385D02*
X198424Y151362D01*
X198553Y151334D01*
X198614Y151316D01*
X198669Y151297D01*
X198720Y151279D01*
X198766Y151260D01*
X198803Y151247D01*
X198840Y151233D01*
X198863Y151219D01*
X198881Y151210D01*
X198895Y151205D01*
X198900Y151200D01*
X199025Y151122D01*
X199131Y151029D01*
X199223Y150937D01*
X199302Y150845D01*
X199362Y150761D01*
X199385Y150724D01*
X199404Y150692D01*
X199422Y150669D01*
X199431Y150651D01*
X199436Y150637D01*
X199440Y150632D01*
X199505Y150489D01*
X199551Y150341D01*
X199584Y150193D01*
X199607Y150059D01*
X199616Y149999D01*
X199621Y149939D01*
X199625Y149893D01*
Y149847D01*
X199630Y149814D01*
Y149787D01*
Y149768D01*
Y149764D01*
X199621Y149597D01*
X199602Y149435D01*
X199579Y149292D01*
X199561Y149223D01*
X199547Y149163D01*
X199533Y149108D01*
X199514Y149057D01*
X199501Y149010D01*
X199491Y148974D01*
X199477Y148946D01*
X199473Y148923D01*
X199463Y148909D01*
Y148904D01*
X199394Y148766D01*
X199316Y148641D01*
X199232Y148535D01*
X199191Y148493D01*
X199154Y148451D01*
X199117Y148415D01*
X199080Y148382D01*
X199048Y148354D01*
X199020Y148336D01*
X199002Y148317D01*
X198983Y148304D01*
X198974Y148299D01*
X198969Y148294D01*
X198905Y148257D01*
X198840Y148225D01*
X198701Y148174D01*
X198563Y148137D01*
X198429Y148114D01*
X198364Y148105D01*
X198309Y148096D01*
X198258Y148091D01*
X198216D01*
X198179Y148086D01*
X198128D01*
X198036Y148091D01*
X197948Y148100D01*
X197865Y148109D01*
X197786Y148128D01*
X197713Y148151D01*
X197643Y148174D01*
X197579Y148197D01*
X197519Y148225D01*
X197468Y148248D01*
X197417Y148271D01*
X197380Y148294D01*
X197343Y148317D01*
X197320Y148336D01*
X197297Y148345D01*
X197287Y148354D01*
X197283Y148359D01*
X197218Y148415D01*
X197163Y148470D01*
X197112Y148535D01*
X197061Y148599D01*
X196978Y148729D01*
X196913Y148858D01*
X196886Y148918D01*
X196862Y148974D01*
X196844Y149024D01*
X196830Y149066D01*
X196816Y149103D01*
X196807Y149131D01*
X196802Y149149D01*
Y149154D01*
X197228Y149260D01*
X197246Y149186D01*
X197269Y149117D01*
X197292Y149052D01*
X197315Y148992D01*
X197343Y148936D01*
X197371Y148890D01*
X197403Y148844D01*
X197431Y148802D01*
X197454Y148766D01*
X197482Y148738D01*
X197505Y148710D01*
X197523Y148687D01*
X197542Y148673D01*
X197555Y148659D01*
X197560Y148655D01*
X197565Y148650D01*
X197611Y148613D01*
X197662Y148585D01*
X197763Y148535D01*
X197860Y148498D01*
X197957Y148475D01*
X198041Y148456D01*
X198073Y148451D01*
X198105D01*
X198133Y148447D01*
X198165D01*
X198272Y148451D01*
X198373Y148470D01*
X198466Y148493D01*
X198549Y148521D01*
X198614Y148548D01*
X198641Y148562D01*
X198664Y148572D01*
X198683Y148581D01*
X198697Y148590D01*
X198706Y148595D01*
X198711D01*
X198798Y148659D01*
X198872Y148729D01*
X198937Y148807D01*
X198988Y148881D01*
X199029Y148946D01*
X199057Y149001D01*
X199066Y149024D01*
X199075Y149038D01*
X199080Y149047D01*
Y149052D01*
X199117Y149172D01*
X199145Y149292D01*
X199168Y149412D01*
X199182Y149523D01*
X199186Y149574D01*
X199191Y149620D01*
Y149662D01*
X199196Y149694D01*
Y149722D01*
Y149745D01*
Y149759D01*
Y149764D01*
X199191Y149884D01*
X199182Y149995D01*
X199163Y150096D01*
X199145Y150189D01*
X199131Y150267D01*
X199122Y150299D01*
X199112Y150327D01*
X199108Y150350D01*
X199103Y150364D01*
X199099Y150373D01*
Y150378D01*
X199052Y150484D01*
X199002Y150581D01*
X198946Y150660D01*
X198886Y150729D01*
X198835Y150785D01*
X198794Y150821D01*
X198761Y150845D01*
X198757Y150854D01*
X198752D01*
X198655Y150914D01*
X198549Y150960D01*
X198447Y150992D01*
X198350Y151011D01*
X198262Y151025D01*
X198225Y151029D01*
X198193D01*
X198170Y151034D01*
X198133D01*
X198018Y151029D01*
X197911Y151011D01*
X197823Y150983D01*
X197745Y150955D01*
X197685Y150923D01*
X197639Y150900D01*
X197611Y150882D01*
X197602Y150872D01*
X197528Y150803D01*
X197459Y150724D01*
X197403Y150641D01*
X197357Y150558D01*
X197320Y150484D01*
X197306Y150447D01*
X197297Y150419D01*
X197287Y150396D01*
X197278Y150378D01*
X197274Y150369D01*
Y150364D01*
X196858Y150461D01*
X196886Y150544D01*
X196913Y150618D01*
X196950Y150688D01*
X196983Y150757D01*
X197020Y150817D01*
X197061Y150872D01*
X197098Y150928D01*
X197135Y150974D01*
X197172Y151011D01*
X197204Y151048D01*
X197237Y151080D01*
X197260Y151103D01*
X197283Y151126D01*
X197301Y151140D01*
X197311Y151145D01*
X197315Y151149D01*
X197380Y151191D01*
X197445Y151233D01*
X197509Y151265D01*
X197579Y151293D01*
X197717Y151334D01*
X197842Y151362D01*
X197902Y151376D01*
X197953Y151381D01*
X198004Y151385D01*
X198045Y151390D01*
X198077Y151394D01*
X198124D01*
X198276Y151385D01*
D02*
G37*
G36*
X195696Y155404D02*
X195821Y155381D01*
X195928Y155344D01*
X196020Y155307D01*
X196062Y155284D01*
X196094Y155265D01*
X196126Y155247D01*
X196149Y155228D01*
X196168Y155214D01*
X196182Y155205D01*
X196191Y155201D01*
X196195Y155196D01*
X196283Y155108D01*
X196353Y155011D01*
X196408Y154910D01*
X196454Y154808D01*
X196482Y154720D01*
X196496Y154683D01*
X196505Y154651D01*
X196510Y154623D01*
X196514Y154605D01*
X196519Y154591D01*
Y154586D01*
X196126Y154517D01*
X196108Y154618D01*
X196080Y154706D01*
X196048Y154780D01*
X196015Y154840D01*
X195983Y154886D01*
X195955Y154919D01*
X195937Y154942D01*
X195932Y154946D01*
X195872Y154993D01*
X195807Y155030D01*
X195747Y155053D01*
X195687Y155071D01*
X195632Y155080D01*
X195590Y155090D01*
X195553D01*
X195470Y155085D01*
X195396Y155067D01*
X195332Y155043D01*
X195276Y155020D01*
X195235Y154993D01*
X195202Y154970D01*
X195179Y154951D01*
X195175Y154946D01*
X195124Y154891D01*
X195087Y154831D01*
X195064Y154771D01*
X195045Y154715D01*
X195036Y154665D01*
X195027Y154628D01*
Y154600D01*
Y154595D01*
Y154591D01*
Y154540D01*
X195036Y154494D01*
X195059Y154415D01*
X195091Y154346D01*
X195128Y154286D01*
X195165Y154244D01*
X195198Y154212D01*
X195221Y154193D01*
X195225Y154189D01*
X195230D01*
X195308Y154147D01*
X195382Y154115D01*
X195461Y154092D01*
X195530Y154078D01*
X195590Y154069D01*
X195641Y154059D01*
X195701D01*
X195720Y154064D01*
X195743D01*
X195789Y153718D01*
X195729Y153731D01*
X195673Y153741D01*
X195627Y153750D01*
X195586Y153754D01*
X195553Y153759D01*
X195512D01*
X195415Y153750D01*
X195327Y153731D01*
X195248Y153704D01*
X195184Y153671D01*
X195133Y153639D01*
X195096Y153611D01*
X195073Y153593D01*
X195064Y153584D01*
X195003Y153514D01*
X194957Y153440D01*
X194925Y153366D01*
X194906Y153293D01*
X194893Y153232D01*
X194888Y153182D01*
X194883Y153163D01*
Y153149D01*
Y153140D01*
Y153135D01*
X194893Y153034D01*
X194916Y152941D01*
X194943Y152863D01*
X194980Y152794D01*
X195017Y152738D01*
X195045Y152697D01*
X195068Y152669D01*
X195078Y152659D01*
X195151Y152595D01*
X195230Y152549D01*
X195308Y152516D01*
X195382Y152493D01*
X195447Y152479D01*
X195498Y152475D01*
X195516Y152470D01*
X195544D01*
X195627Y152475D01*
X195706Y152493D01*
X195775Y152516D01*
X195831Y152544D01*
X195877Y152567D01*
X195914Y152590D01*
X195932Y152609D01*
X195941Y152613D01*
X195997Y152678D01*
X196043Y152752D01*
X196085Y152831D01*
X196117Y152914D01*
X196140Y152983D01*
X196149Y153015D01*
X196154Y153043D01*
X196159Y153066D01*
X196163Y153085D01*
X196168Y153094D01*
Y153098D01*
X196561Y153048D01*
X196551Y152974D01*
X196537Y152904D01*
X196496Y152775D01*
X196445Y152664D01*
X196417Y152618D01*
X196389Y152572D01*
X196362Y152530D01*
X196334Y152498D01*
X196311Y152465D01*
X196288Y152442D01*
X196274Y152424D01*
X196260Y152410D01*
X196251Y152401D01*
X196246Y152396D01*
X196191Y152355D01*
X196135Y152313D01*
X196080Y152281D01*
X196020Y152253D01*
X195904Y152207D01*
X195794Y152179D01*
X195743Y152170D01*
X195696Y152161D01*
X195655Y152156D01*
X195618Y152151D01*
X195590Y152147D01*
X195549D01*
X195461Y152151D01*
X195382Y152161D01*
X195304Y152174D01*
X195230Y152193D01*
X195161Y152216D01*
X195101Y152239D01*
X195041Y152267D01*
X194990Y152295D01*
X194939Y152318D01*
X194897Y152345D01*
X194860Y152368D01*
X194833Y152392D01*
X194809Y152410D01*
X194791Y152424D01*
X194782Y152433D01*
X194777Y152438D01*
X194722Y152493D01*
X194676Y152553D01*
X194634Y152613D01*
X194597Y152673D01*
X194569Y152729D01*
X194542Y152789D01*
X194505Y152900D01*
X194495Y152951D01*
X194486Y152997D01*
X194477Y153038D01*
X194472Y153075D01*
X194468Y153103D01*
Y153126D01*
Y153140D01*
Y153145D01*
X194472Y153255D01*
X194491Y153357D01*
X194518Y153445D01*
X194546Y153519D01*
X194574Y153579D01*
X194602Y153625D01*
X194620Y153653D01*
X194625Y153662D01*
X194689Y153731D01*
X194759Y153791D01*
X194833Y153838D01*
X194906Y153875D01*
X194971Y153902D01*
X195022Y153921D01*
X195041Y153925D01*
X195054Y153930D01*
X195064Y153935D01*
X195068D01*
X194990Y153976D01*
X194925Y154018D01*
X194870Y154064D01*
X194823Y154106D01*
X194786Y154143D01*
X194759Y154175D01*
X194745Y154193D01*
X194740Y154203D01*
X194703Y154267D01*
X194676Y154332D01*
X194652Y154397D01*
X194639Y154457D01*
X194629Y154508D01*
X194625Y154544D01*
Y154572D01*
Y154581D01*
X194629Y154660D01*
X194643Y154738D01*
X194662Y154808D01*
X194685Y154868D01*
X194708Y154919D01*
X194726Y154960D01*
X194740Y154983D01*
X194745Y154993D01*
X194791Y155062D01*
X194846Y155122D01*
X194902Y155173D01*
X194957Y155219D01*
X195003Y155251D01*
X195045Y155279D01*
X195073Y155293D01*
X195078Y155298D01*
X195082D01*
X195165Y155334D01*
X195248Y155362D01*
X195332Y155385D01*
X195405Y155399D01*
X195466Y155408D01*
X195516Y155413D01*
X195632D01*
X195696Y155404D01*
D02*
G37*
G36*
X193211D02*
X193336Y155381D01*
X193442Y155344D01*
X193534Y155307D01*
X193576Y155284D01*
X193608Y155265D01*
X193641Y155247D01*
X193664Y155228D01*
X193682Y155214D01*
X193696Y155205D01*
X193705Y155201D01*
X193710Y155196D01*
X193798Y155108D01*
X193867Y155011D01*
X193922Y154910D01*
X193969Y154808D01*
X193996Y154720D01*
X194010Y154683D01*
X194019Y154651D01*
X194024Y154623D01*
X194029Y154605D01*
X194033Y154591D01*
Y154586D01*
X193641Y154517D01*
X193622Y154618D01*
X193594Y154706D01*
X193562Y154780D01*
X193530Y154840D01*
X193497Y154886D01*
X193470Y154919D01*
X193451Y154942D01*
X193447Y154946D01*
X193386Y154993D01*
X193322Y155030D01*
X193262Y155053D01*
X193202Y155071D01*
X193146Y155080D01*
X193105Y155090D01*
X193068D01*
X192985Y155085D01*
X192911Y155067D01*
X192846Y155043D01*
X192791Y155020D01*
X192749Y154993D01*
X192717Y154970D01*
X192693Y154951D01*
X192689Y154946D01*
X192638Y154891D01*
X192601Y154831D01*
X192578Y154771D01*
X192560Y154715D01*
X192550Y154665D01*
X192541Y154628D01*
Y154600D01*
Y154595D01*
Y154591D01*
Y154540D01*
X192550Y154494D01*
X192573Y154415D01*
X192606Y154346D01*
X192643Y154286D01*
X192680Y154244D01*
X192712Y154212D01*
X192735Y154193D01*
X192740Y154189D01*
X192744D01*
X192823Y154147D01*
X192897Y154115D01*
X192975Y154092D01*
X193045Y154078D01*
X193105Y154069D01*
X193156Y154059D01*
X193216D01*
X193234Y154064D01*
X193257D01*
X193303Y153718D01*
X193243Y153731D01*
X193188Y153741D01*
X193142Y153750D01*
X193100Y153754D01*
X193068Y153759D01*
X193026D01*
X192929Y153750D01*
X192841Y153731D01*
X192763Y153704D01*
X192698Y153671D01*
X192647Y153639D01*
X192610Y153611D01*
X192587Y153593D01*
X192578Y153584D01*
X192518Y153514D01*
X192472Y153440D01*
X192439Y153366D01*
X192421Y153293D01*
X192407Y153232D01*
X192403Y153182D01*
X192398Y153163D01*
Y153149D01*
Y153140D01*
Y153135D01*
X192407Y153034D01*
X192430Y152941D01*
X192458Y152863D01*
X192495Y152794D01*
X192532Y152738D01*
X192560Y152697D01*
X192583Y152669D01*
X192592Y152659D01*
X192666Y152595D01*
X192744Y152549D01*
X192823Y152516D01*
X192897Y152493D01*
X192962Y152479D01*
X193012Y152475D01*
X193031Y152470D01*
X193059D01*
X193142Y152475D01*
X193220Y152493D01*
X193289Y152516D01*
X193345Y152544D01*
X193391Y152567D01*
X193428Y152590D01*
X193447Y152609D01*
X193456Y152613D01*
X193511Y152678D01*
X193558Y152752D01*
X193599Y152831D01*
X193631Y152914D01*
X193655Y152983D01*
X193664Y153015D01*
X193668Y153043D01*
X193673Y153066D01*
X193678Y153085D01*
X193682Y153094D01*
Y153098D01*
X194075Y153048D01*
X194066Y152974D01*
X194052Y152904D01*
X194010Y152775D01*
X193959Y152664D01*
X193932Y152618D01*
X193904Y152572D01*
X193876Y152530D01*
X193849Y152498D01*
X193825Y152465D01*
X193802Y152442D01*
X193789Y152424D01*
X193775Y152410D01*
X193765Y152401D01*
X193761Y152396D01*
X193705Y152355D01*
X193650Y152313D01*
X193594Y152281D01*
X193534Y152253D01*
X193419Y152207D01*
X193308Y152179D01*
X193257Y152170D01*
X193211Y152161D01*
X193169Y152156D01*
X193132Y152151D01*
X193105Y152147D01*
X193063D01*
X192975Y152151D01*
X192897Y152161D01*
X192818Y152174D01*
X192744Y152193D01*
X192675Y152216D01*
X192615Y152239D01*
X192555Y152267D01*
X192504Y152295D01*
X192453Y152318D01*
X192412Y152345D01*
X192375Y152368D01*
X192347Y152392D01*
X192324Y152410D01*
X192306Y152424D01*
X192296Y152433D01*
X192292Y152438D01*
X192236Y152493D01*
X192190Y152553D01*
X192148Y152613D01*
X192111Y152673D01*
X192084Y152729D01*
X192056Y152789D01*
X192019Y152900D01*
X192010Y152951D01*
X192000Y152997D01*
X191991Y153038D01*
X191987Y153075D01*
X191982Y153103D01*
Y153126D01*
Y153140D01*
Y153145D01*
X191987Y153255D01*
X192005Y153357D01*
X192033Y153445D01*
X192061Y153519D01*
X192088Y153579D01*
X192116Y153625D01*
X192134Y153653D01*
X192139Y153662D01*
X192204Y153731D01*
X192273Y153791D01*
X192347Y153838D01*
X192421Y153875D01*
X192486Y153902D01*
X192536Y153921D01*
X192555Y153925D01*
X192569Y153930D01*
X192578Y153935D01*
X192583D01*
X192504Y153976D01*
X192439Y154018D01*
X192384Y154064D01*
X192338Y154106D01*
X192301Y154143D01*
X192273Y154175D01*
X192259Y154193D01*
X192255Y154203D01*
X192218Y154267D01*
X192190Y154332D01*
X192167Y154397D01*
X192153Y154457D01*
X192144Y154508D01*
X192139Y154544D01*
Y154572D01*
Y154581D01*
X192144Y154660D01*
X192158Y154738D01*
X192176Y154808D01*
X192199Y154868D01*
X192222Y154919D01*
X192241Y154960D01*
X192255Y154983D01*
X192259Y154993D01*
X192306Y155062D01*
X192361Y155122D01*
X192416Y155173D01*
X192472Y155219D01*
X192518Y155251D01*
X192560Y155279D01*
X192587Y155293D01*
X192592Y155298D01*
X192596D01*
X192680Y155334D01*
X192763Y155362D01*
X192846Y155385D01*
X192920Y155399D01*
X192980Y155408D01*
X193031Y155413D01*
X193146D01*
X193211Y155404D01*
D02*
G37*
G36*
X198399Y155445D02*
X198547Y155422D01*
X198676Y155395D01*
X198737Y155376D01*
X198792Y155358D01*
X198843Y155339D01*
X198889Y155321D01*
X198926Y155307D01*
X198963Y155293D01*
X198986Y155279D01*
X199004Y155270D01*
X199018Y155265D01*
X199023Y155261D01*
X199148Y155182D01*
X199254Y155090D01*
X199346Y154997D01*
X199425Y154905D01*
X199485Y154822D01*
X199508Y154785D01*
X199527Y154752D01*
X199545Y154729D01*
X199554Y154711D01*
X199559Y154697D01*
X199564Y154692D01*
X199628Y154549D01*
X199674Y154401D01*
X199707Y154253D01*
X199730Y154120D01*
X199739Y154059D01*
X199744Y153999D01*
X199748Y153953D01*
Y153907D01*
X199753Y153875D01*
Y153847D01*
Y153828D01*
Y153824D01*
X199744Y153657D01*
X199725Y153496D01*
X199702Y153352D01*
X199684Y153283D01*
X199670Y153223D01*
X199656Y153168D01*
X199637Y153117D01*
X199624Y153071D01*
X199614Y153034D01*
X199600Y153006D01*
X199596Y152983D01*
X199587Y152969D01*
Y152964D01*
X199517Y152826D01*
X199439Y152701D01*
X199356Y152595D01*
X199314Y152553D01*
X199277Y152512D01*
X199240Y152475D01*
X199203Y152442D01*
X199171Y152415D01*
X199143Y152396D01*
X199125Y152378D01*
X199106Y152364D01*
X199097Y152359D01*
X199092Y152355D01*
X199028Y152318D01*
X198963Y152285D01*
X198824Y152234D01*
X198686Y152198D01*
X198552Y152174D01*
X198487Y152165D01*
X198432Y152156D01*
X198381Y152151D01*
X198339D01*
X198302Y152147D01*
X198251D01*
X198159Y152151D01*
X198071Y152161D01*
X197988Y152170D01*
X197909Y152188D01*
X197836Y152211D01*
X197766Y152234D01*
X197702Y152258D01*
X197642Y152285D01*
X197591Y152308D01*
X197540Y152331D01*
X197503Y152355D01*
X197466Y152378D01*
X197443Y152396D01*
X197420Y152405D01*
X197411Y152415D01*
X197406Y152419D01*
X197341Y152475D01*
X197286Y152530D01*
X197235Y152595D01*
X197184Y152659D01*
X197101Y152789D01*
X197036Y152918D01*
X197009Y152978D01*
X196985Y153034D01*
X196967Y153085D01*
X196953Y153126D01*
X196939Y153163D01*
X196930Y153191D01*
X196925Y153209D01*
Y153214D01*
X197351Y153320D01*
X197369Y153246D01*
X197392Y153177D01*
X197415Y153112D01*
X197438Y153052D01*
X197466Y152997D01*
X197494Y152951D01*
X197526Y152904D01*
X197554Y152863D01*
X197577Y152826D01*
X197605Y152798D01*
X197628Y152770D01*
X197646Y152747D01*
X197665Y152734D01*
X197678Y152720D01*
X197683Y152715D01*
X197688Y152710D01*
X197734Y152673D01*
X197785Y152646D01*
X197886Y152595D01*
X197983Y152558D01*
X198081Y152535D01*
X198164Y152516D01*
X198196Y152512D01*
X198228D01*
X198256Y152507D01*
X198288D01*
X198395Y152512D01*
X198496Y152530D01*
X198589Y152553D01*
X198672Y152581D01*
X198737Y152609D01*
X198764Y152623D01*
X198787Y152632D01*
X198806Y152641D01*
X198820Y152650D01*
X198829Y152655D01*
X198834D01*
X198921Y152720D01*
X198995Y152789D01*
X199060Y152867D01*
X199111Y152941D01*
X199152Y153006D01*
X199180Y153061D01*
X199189Y153085D01*
X199198Y153098D01*
X199203Y153108D01*
Y153112D01*
X199240Y153232D01*
X199268Y153352D01*
X199291Y153473D01*
X199305Y153584D01*
X199309Y153634D01*
X199314Y153681D01*
Y153722D01*
X199319Y153754D01*
Y153782D01*
Y153805D01*
Y153819D01*
Y153824D01*
X199314Y153944D01*
X199305Y154055D01*
X199286Y154156D01*
X199268Y154249D01*
X199254Y154327D01*
X199245Y154360D01*
X199235Y154387D01*
X199231Y154411D01*
X199226Y154424D01*
X199222Y154434D01*
Y154438D01*
X199175Y154544D01*
X199125Y154641D01*
X199069Y154720D01*
X199009Y154789D01*
X198958Y154845D01*
X198917Y154882D01*
X198884Y154905D01*
X198880Y154914D01*
X198875D01*
X198778Y154974D01*
X198672Y155020D01*
X198570Y155053D01*
X198473Y155071D01*
X198385Y155085D01*
X198348Y155090D01*
X198316D01*
X198293Y155094D01*
X198256D01*
X198141Y155090D01*
X198034Y155071D01*
X197947Y155043D01*
X197868Y155016D01*
X197808Y154983D01*
X197762Y154960D01*
X197734Y154942D01*
X197725Y154933D01*
X197651Y154863D01*
X197582Y154785D01*
X197526Y154702D01*
X197480Y154618D01*
X197443Y154544D01*
X197429Y154508D01*
X197420Y154480D01*
X197411Y154457D01*
X197401Y154438D01*
X197397Y154429D01*
Y154424D01*
X196981Y154521D01*
X197009Y154605D01*
X197036Y154678D01*
X197073Y154748D01*
X197106Y154817D01*
X197143Y154877D01*
X197184Y154933D01*
X197221Y154988D01*
X197258Y155034D01*
X197295Y155071D01*
X197327Y155108D01*
X197360Y155140D01*
X197383Y155164D01*
X197406Y155187D01*
X197424Y155201D01*
X197434Y155205D01*
X197438Y155210D01*
X197503Y155251D01*
X197568Y155293D01*
X197632Y155325D01*
X197702Y155353D01*
X197840Y155395D01*
X197965Y155422D01*
X198025Y155436D01*
X198076Y155441D01*
X198127Y155445D01*
X198168Y155450D01*
X198201Y155455D01*
X198247D01*
X198399Y155445D01*
D02*
G37*
G36*
X224159Y158387D02*
X224284Y158364D01*
X224390Y158327D01*
X224483Y158290D01*
X224524Y158267D01*
X224556Y158249D01*
X224589Y158230D01*
X224612Y158212D01*
X224630Y158198D01*
X224644Y158189D01*
X224654Y158184D01*
X224658Y158179D01*
X224746Y158092D01*
X224815Y157995D01*
X224871Y157893D01*
X224917Y157791D01*
X224945Y157704D01*
X224958Y157667D01*
X224968Y157634D01*
X224972Y157607D01*
X224977Y157588D01*
X224981Y157574D01*
Y157570D01*
X224589Y157500D01*
X224570Y157602D01*
X224543Y157690D01*
X224510Y157764D01*
X224478Y157824D01*
X224446Y157870D01*
X224418Y157902D01*
X224399Y157925D01*
X224395Y157930D01*
X224335Y157976D01*
X224270Y158013D01*
X224210Y158036D01*
X224150Y158055D01*
X224095Y158064D01*
X224053Y158073D01*
X224016D01*
X223933Y158069D01*
X223859Y158050D01*
X223794Y158027D01*
X223739Y158004D01*
X223697Y157976D01*
X223665Y157953D01*
X223642Y157935D01*
X223637Y157930D01*
X223586Y157875D01*
X223549Y157815D01*
X223526Y157755D01*
X223508Y157699D01*
X223499Y157648D01*
X223489Y157611D01*
Y157583D01*
Y157579D01*
Y157574D01*
Y157524D01*
X223499Y157477D01*
X223522Y157399D01*
X223554Y157329D01*
X223591Y157269D01*
X223628Y157228D01*
X223660Y157195D01*
X223683Y157177D01*
X223688Y157172D01*
X223693D01*
X223771Y157131D01*
X223845Y157098D01*
X223924Y157075D01*
X223993Y157062D01*
X224053Y157052D01*
X224104Y157043D01*
X224164D01*
X224182Y157048D01*
X224205D01*
X224252Y156701D01*
X224191Y156715D01*
X224136Y156724D01*
X224090Y156734D01*
X224048Y156738D01*
X224016Y156743D01*
X223974D01*
X223877Y156734D01*
X223790Y156715D01*
X223711Y156687D01*
X223646Y156655D01*
X223595Y156623D01*
X223559Y156595D01*
X223535Y156576D01*
X223526Y156567D01*
X223466Y156498D01*
X223420Y156424D01*
X223388Y156350D01*
X223369Y156276D01*
X223355Y156216D01*
X223351Y156165D01*
X223346Y156147D01*
Y156133D01*
Y156124D01*
Y156119D01*
X223355Y156017D01*
X223378Y155925D01*
X223406Y155846D01*
X223443Y155777D01*
X223480Y155722D01*
X223508Y155680D01*
X223531Y155652D01*
X223540Y155643D01*
X223614Y155578D01*
X223693Y155532D01*
X223771Y155500D01*
X223845Y155477D01*
X223910Y155463D01*
X223960Y155458D01*
X223979Y155454D01*
X224007D01*
X224090Y155458D01*
X224168Y155477D01*
X224238Y155500D01*
X224293Y155528D01*
X224339Y155551D01*
X224376Y155574D01*
X224395Y155592D01*
X224404Y155597D01*
X224460Y155662D01*
X224506Y155736D01*
X224547Y155814D01*
X224580Y155897D01*
X224603Y155966D01*
X224612Y155999D01*
X224617Y156027D01*
X224621Y156050D01*
X224626Y156068D01*
X224630Y156077D01*
Y156082D01*
X225023Y156031D01*
X225014Y155957D01*
X225000Y155888D01*
X224958Y155759D01*
X224908Y155648D01*
X224880Y155602D01*
X224852Y155555D01*
X224825Y155514D01*
X224797Y155481D01*
X224774Y155449D01*
X224750Y155426D01*
X224737Y155408D01*
X224723Y155394D01*
X224714Y155384D01*
X224709Y155380D01*
X224654Y155338D01*
X224598Y155297D01*
X224543Y155264D01*
X224483Y155237D01*
X224367Y155190D01*
X224256Y155163D01*
X224205Y155153D01*
X224159Y155144D01*
X224118Y155140D01*
X224081Y155135D01*
X224053Y155130D01*
X224011D01*
X223924Y155135D01*
X223845Y155144D01*
X223766Y155158D01*
X223693Y155176D01*
X223623Y155200D01*
X223563Y155223D01*
X223503Y155250D01*
X223452Y155278D01*
X223401Y155301D01*
X223360Y155329D01*
X223323Y155352D01*
X223295Y155375D01*
X223272Y155394D01*
X223254Y155408D01*
X223244Y155417D01*
X223240Y155421D01*
X223184Y155477D01*
X223138Y155537D01*
X223097Y155597D01*
X223060Y155657D01*
X223032Y155712D01*
X223004Y155772D01*
X222967Y155883D01*
X222958Y155934D01*
X222949Y155980D01*
X222939Y156022D01*
X222935Y156059D01*
X222930Y156087D01*
Y156110D01*
Y156124D01*
Y156128D01*
X222935Y156239D01*
X222953Y156341D01*
X222981Y156429D01*
X223009Y156502D01*
X223037Y156562D01*
X223064Y156609D01*
X223083Y156636D01*
X223087Y156646D01*
X223152Y156715D01*
X223221Y156775D01*
X223295Y156821D01*
X223369Y156858D01*
X223434Y156886D01*
X223485Y156904D01*
X223503Y156909D01*
X223517Y156914D01*
X223526Y156918D01*
X223531D01*
X223452Y156960D01*
X223388Y157001D01*
X223332Y157048D01*
X223286Y157089D01*
X223249Y157126D01*
X223221Y157159D01*
X223207Y157177D01*
X223203Y157186D01*
X223166Y157251D01*
X223138Y157316D01*
X223115Y157380D01*
X223101Y157440D01*
X223092Y157491D01*
X223087Y157528D01*
Y157556D01*
Y157565D01*
X223092Y157644D01*
X223106Y157722D01*
X223124Y157791D01*
X223147Y157852D01*
X223170Y157902D01*
X223189Y157944D01*
X223203Y157967D01*
X223207Y157976D01*
X223254Y158045D01*
X223309Y158106D01*
X223364Y158156D01*
X223420Y158203D01*
X223466Y158235D01*
X223508Y158263D01*
X223535Y158276D01*
X223540Y158281D01*
X223545D01*
X223628Y158318D01*
X223711Y158346D01*
X223794Y158369D01*
X223868Y158383D01*
X223928Y158392D01*
X223979Y158397D01*
X224095D01*
X224159Y158387D01*
D02*
G37*
G36*
X227846Y155186D02*
X227421D01*
Y156484D01*
X226603D01*
X226483Y156489D01*
X226367Y156498D01*
X226266Y156512D01*
X226173Y156530D01*
X226086Y156549D01*
X226012Y156572D01*
X225942Y156599D01*
X225882Y156627D01*
X225832Y156650D01*
X225785Y156678D01*
X225748Y156701D01*
X225721Y156724D01*
X225698Y156738D01*
X225684Y156752D01*
X225675Y156761D01*
X225670Y156766D01*
X225624Y156821D01*
X225582Y156877D01*
X225550Y156932D01*
X225518Y156992D01*
X225490Y157052D01*
X225471Y157108D01*
X225439Y157214D01*
X225430Y157265D01*
X225420Y157311D01*
X225416Y157352D01*
X225411Y157385D01*
X225407Y157417D01*
Y157436D01*
Y157450D01*
Y157454D01*
X225411Y157542D01*
X225420Y157625D01*
X225439Y157699D01*
X225453Y157764D01*
X225471Y157819D01*
X225490Y157861D01*
X225499Y157884D01*
X225504Y157893D01*
X225541Y157962D01*
X225587Y158022D01*
X225628Y158078D01*
X225670Y158119D01*
X225707Y158152D01*
X225735Y158179D01*
X225753Y158193D01*
X225762Y158198D01*
X225822Y158235D01*
X225892Y158267D01*
X225956Y158295D01*
X226016Y158318D01*
X226072Y158332D01*
X226113Y158341D01*
X226146Y158351D01*
X226155D01*
X226224Y158360D01*
X226303Y158369D01*
X226386Y158374D01*
X226465Y158378D01*
X226534Y158383D01*
X227846D01*
Y155186D01*
D02*
G37*
%LPC*%
G36*
X79027Y173060D02*
X78180D01*
Y172921D01*
X79027D01*
Y173060D01*
D02*
G37*
G36*
X79277Y172866D02*
Y172685D01*
X77944D01*
Y172838D01*
X77666Y172796D01*
X77417Y172741D01*
X77209Y172685D01*
X77042Y172602D01*
X76917Y172532D01*
X76820Y172435D01*
Y172380D01*
X79915D01*
Y172782D01*
X79721Y172824D01*
X79513Y172852D01*
X79277Y172866D01*
D02*
G37*
G36*
X80248Y172921D02*
X80151D01*
Y172602D01*
X80248D01*
Y172921D01*
D02*
G37*
G36*
X80484Y172616D02*
Y172380D01*
X80776D01*
Y172422D01*
X80706Y172491D01*
X80623Y172546D01*
X80484Y172616D01*
D02*
G37*
G36*
X76459Y172574D02*
X76445D01*
X76376Y172560D01*
X76334Y172519D01*
X76320Y172463D01*
Y172449D01*
X76334Y172380D01*
X76376Y172352D01*
X76431Y172338D01*
X76445D01*
X76515Y172352D01*
X76542Y172394D01*
X76556Y172435D01*
Y172449D01*
X76542Y172519D01*
X76501Y172560D01*
X76459Y172574D01*
D02*
G37*
G36*
X76736Y171505D02*
X76279D01*
Y171047D01*
X76736D01*
Y171505D01*
D02*
G37*
G36*
X79068Y170464D02*
X77819D01*
Y170381D01*
X79068D01*
Y170464D01*
D02*
G37*
G36*
X80734Y171950D02*
X76848D01*
X76875Y171741D01*
X76973D01*
Y171297D01*
X77556Y170700D01*
X79304D01*
Y170145D01*
X78097D01*
X78902Y169312D01*
X80665Y171144D01*
X80734Y171950D01*
D02*
G37*
G36*
X80623Y170756D02*
X79068Y169146D01*
X80345Y167827D01*
X80623Y170756D01*
D02*
G37*
G36*
X76973Y170950D02*
Y170811D01*
X76945D01*
X77222Y167577D01*
X78735Y169146D01*
X77764Y170145D01*
X77556D01*
Y170353D01*
X76973Y170950D01*
D02*
G37*
G36*
X78902Y168965D02*
X77250Y167258D01*
X77278Y166953D01*
X77389Y166967D01*
X77514Y166953D01*
X77666Y166911D01*
X77819Y166842D01*
X77930Y166758D01*
X78027Y166661D01*
X78124Y166523D01*
X78194Y166356D01*
X78236Y166175D01*
X78222Y166051D01*
X80179D01*
X80318Y167508D01*
X78902Y168965D01*
D02*
G37*
G36*
X77458Y166536D02*
X77389D01*
X77250Y166523D01*
X77153Y166467D01*
X77070Y166411D01*
X77028Y166328D01*
X77000Y166259D01*
X76973Y166189D01*
Y166134D01*
Y166120D01*
X76986Y165981D01*
X77042Y165884D01*
X77097Y165801D01*
X77181Y165759D01*
X77250Y165731D01*
X77320Y165717D01*
X77375Y165704D01*
X77389D01*
X77528Y165717D01*
X77625Y165773D01*
X77708Y165842D01*
X77750Y165912D01*
X77777Y165995D01*
X77791Y166051D01*
X77805Y166106D01*
Y166120D01*
X77791Y166259D01*
X77736Y166356D01*
X77666Y166439D01*
X77597Y166481D01*
X77514Y166509D01*
X77458Y166536D01*
D02*
G37*
G36*
X80095Y165801D02*
X80040D01*
Y165468D01*
X80095D01*
Y165801D01*
D02*
G37*
%LPD*%
G36*
X77486Y166384D02*
X77556Y166356D01*
X77597Y166314D01*
X77625Y166259D01*
X77666Y166162D01*
Y166134D01*
Y166120D01*
X77653Y166023D01*
X77625Y165953D01*
X77583Y165912D01*
X77528Y165884D01*
X77431Y165842D01*
X77389D01*
X77292Y165856D01*
X77222Y165884D01*
X77181Y165926D01*
X77139Y165981D01*
X77111Y166078D01*
Y166106D01*
Y166120D01*
X77125Y166217D01*
X77153Y166287D01*
X77195Y166328D01*
X77250Y166370D01*
X77347Y166398D01*
X77389D01*
X77486Y166384D01*
D02*
G37*
%LPC*%
G36*
X77403Y166162D02*
X77361D01*
X77347Y166148D01*
Y166134D01*
Y166120D01*
Y166092D01*
X77361Y166078D01*
X77389D01*
X77417Y166092D01*
X77431Y166106D01*
Y166120D01*
X77417Y166148D01*
X77403Y166162D01*
D02*
G37*
G36*
X75341Y139474D02*
X75323D01*
X75193Y139455D01*
X75082Y139418D01*
X74981Y139363D01*
X74897Y139298D01*
X74833Y139233D01*
X74777Y139178D01*
X74749Y139141D01*
X74740Y139122D01*
X74694Y139057D01*
X74657Y138974D01*
X74601Y138808D01*
X74555Y138613D01*
X74527Y138438D01*
X74509Y138271D01*
Y138197D01*
X74500Y138132D01*
Y138077D01*
Y138040D01*
Y138012D01*
Y138003D01*
X74509Y137744D01*
X74537Y137531D01*
X74574Y137346D01*
X74611Y137189D01*
X74657Y137078D01*
X74694Y136995D01*
X74722Y136948D01*
X74731Y136930D01*
X74823Y136819D01*
X74916Y136736D01*
X75008Y136680D01*
X75092Y136643D01*
X75175Y136615D01*
X75230Y136606D01*
X75267Y136597D01*
X75286D01*
X75369Y136606D01*
X75443Y136625D01*
X75517Y136643D01*
X75582Y136680D01*
X75637Y136708D01*
X75684Y136726D01*
X75711Y136745D01*
X75721Y136754D01*
X75795Y136819D01*
X75859Y136893D01*
X75906Y136967D01*
X75952Y137041D01*
X75989Y137115D01*
X76017Y137170D01*
X76026Y137207D01*
X76035Y137217D01*
X76072Y137346D01*
X76091Y137494D01*
X76109Y137642D01*
X76128Y137781D01*
Y137910D01*
X76137Y138021D01*
Y138058D01*
Y138086D01*
Y138105D01*
Y138114D01*
X76128Y138354D01*
X76100Y138558D01*
X76063Y138734D01*
X76017Y138882D01*
X75980Y138993D01*
X75943Y139067D01*
X75915Y139113D01*
X75906Y139131D01*
X75813Y139242D01*
X75711Y139326D01*
X75619Y139390D01*
X75526Y139427D01*
X75443Y139455D01*
X75378Y139464D01*
X75341Y139474D01*
D02*
G37*
G36*
X80817Y140954D02*
X80096D01*
X80003Y140944D01*
X79911D01*
X79763Y140935D01*
X79652Y140917D01*
X79569Y140907D01*
X79513Y140889D01*
X79485Y140880D01*
X79476D01*
X79402Y140843D01*
X79337Y140806D01*
X79282Y140750D01*
X79226Y140704D01*
X79189Y140658D01*
X79162Y140621D01*
X79143Y140593D01*
X79134Y140584D01*
X79088Y140500D01*
X79051Y140408D01*
X79032Y140325D01*
X79014Y140241D01*
X79004Y140167D01*
X78995Y140112D01*
Y140075D01*
Y140056D01*
X79004Y139945D01*
X79014Y139844D01*
X79041Y139760D01*
X79060Y139686D01*
X79088Y139622D01*
X79115Y139575D01*
X79125Y139548D01*
X79134Y139538D01*
X79189Y139464D01*
X79245Y139400D01*
X79300Y139353D01*
X79356Y139307D01*
X79402Y139279D01*
X79439Y139261D01*
X79467Y139242D01*
X79476D01*
X79569Y139215D01*
X79680Y139196D01*
X79809Y139187D01*
X79939Y139178D01*
X80059Y139168D01*
X80817D01*
Y140954D01*
D02*
G37*
G36*
X197887Y80388D02*
X197859D01*
X197762Y80379D01*
X197674Y80356D01*
X197600Y80328D01*
X197536Y80291D01*
X197485Y80254D01*
X197448Y80226D01*
X197425Y80203D01*
X197416Y80194D01*
X197356Y80115D01*
X197309Y80032D01*
X197277Y79944D01*
X197259Y79861D01*
X197245Y79787D01*
X197240Y79755D01*
Y79727D01*
X197236Y79704D01*
Y79686D01*
Y79676D01*
Y79672D01*
X197245Y79547D01*
X197263Y79441D01*
X197291Y79348D01*
X197323Y79270D01*
X197360Y79210D01*
X197388Y79163D01*
X197406Y79136D01*
X197416Y79131D01*
Y79127D01*
X197448Y79090D01*
X197485Y79062D01*
X197559Y79011D01*
X197633Y78979D01*
X197697Y78951D01*
X197757Y78937D01*
X197804Y78932D01*
X197822Y78928D01*
X197845D01*
X197910Y78932D01*
X197970Y78942D01*
X198026Y78960D01*
X198072Y78979D01*
X198113Y78993D01*
X198146Y79011D01*
X198164Y79020D01*
X198173Y79025D01*
X198229Y79066D01*
X198275Y79108D01*
X198317Y79159D01*
X198349Y79201D01*
X198377Y79242D01*
X198395Y79274D01*
X198409Y79298D01*
X198414Y79307D01*
X198441Y79376D01*
X198460Y79445D01*
X198478Y79510D01*
X198487Y79570D01*
X198492Y79621D01*
X198497Y79663D01*
Y79686D01*
Y79695D01*
X198487Y79806D01*
X198469Y79903D01*
X198437Y79991D01*
X198404Y80060D01*
X198372Y80120D01*
X198340Y80161D01*
X198321Y80185D01*
X198312Y80194D01*
X198238Y80259D01*
X198164Y80305D01*
X198086Y80342D01*
X198016Y80365D01*
X197952Y80379D01*
X197905Y80383D01*
X197887Y80388D01*
D02*
G37*
G36*
X251404Y153969D02*
X251377D01*
X251279Y153959D01*
X251192Y153936D01*
X251118Y153909D01*
X251053Y153872D01*
X251002Y153835D01*
X250965Y153807D01*
X250942Y153784D01*
X250933Y153774D01*
X250873Y153696D01*
X250827Y153613D01*
X250794Y153525D01*
X250776Y153442D01*
X250762Y153368D01*
X250757Y153336D01*
Y153308D01*
X250753Y153285D01*
Y153266D01*
Y153257D01*
Y153252D01*
X250762Y153128D01*
X250781Y153022D01*
X250808Y152929D01*
X250841Y152850D01*
X250877Y152790D01*
X250905Y152744D01*
X250924Y152717D01*
X250933Y152712D01*
Y152707D01*
X250965Y152670D01*
X251002Y152643D01*
X251076Y152592D01*
X251150Y152559D01*
X251215Y152532D01*
X251275Y152518D01*
X251321Y152513D01*
X251340Y152509D01*
X251363D01*
X251427Y152513D01*
X251487Y152523D01*
X251543Y152541D01*
X251589Y152559D01*
X251631Y152573D01*
X251663Y152592D01*
X251681Y152601D01*
X251691Y152606D01*
X251746Y152647D01*
X251792Y152689D01*
X251834Y152740D01*
X251866Y152781D01*
X251894Y152823D01*
X251912Y152855D01*
X251926Y152878D01*
X251931Y152887D01*
X251959Y152957D01*
X251977Y153026D01*
X251996Y153091D01*
X252005Y153151D01*
X252009Y153202D01*
X252014Y153243D01*
Y153266D01*
Y153276D01*
X252005Y153386D01*
X251986Y153483D01*
X251954Y153571D01*
X251922Y153640D01*
X251889Y153701D01*
X251857Y153742D01*
X251838Y153765D01*
X251829Y153774D01*
X251755Y153839D01*
X251681Y153885D01*
X251603Y153922D01*
X251534Y153946D01*
X251469Y153959D01*
X251423Y153964D01*
X251404Y153969D01*
D02*
G37*
G36*
X39527Y109420D02*
X38094D01*
Y108413D01*
X39527Y109420D01*
D02*
G37*
G36*
X42749Y109860D02*
X42708D01*
X42685D01*
X42680D01*
X42675D01*
X42532D01*
X42403Y109850D01*
X42287Y109841D01*
X42176Y109832D01*
X42084Y109818D01*
X41996Y109800D01*
X41922Y109781D01*
X41853Y109767D01*
X41798Y109749D01*
X41751Y109730D01*
X41710Y109716D01*
X41677Y109698D01*
X41654Y109689D01*
X41640Y109679D01*
X41631Y109670D01*
X41627D01*
X41581Y109633D01*
X41543Y109596D01*
X41507Y109559D01*
X41479Y109522D01*
X41433Y109444D01*
X41400Y109375D01*
X41382Y109310D01*
X41373Y109264D01*
X41368Y109245D01*
Y109218D01*
X41373Y109167D01*
X41377Y109121D01*
X41410Y109033D01*
X41451Y108954D01*
X41497Y108885D01*
X41543Y108834D01*
X41585Y108792D01*
X41617Y108769D01*
X41622Y108760D01*
X41627D01*
X41682Y108728D01*
X41747Y108700D01*
X41821Y108672D01*
X41899Y108654D01*
X41982Y108635D01*
X42070Y108622D01*
X42250Y108598D01*
X42333Y108589D01*
X42412Y108584D01*
X42486Y108580D01*
X42546D01*
X42601Y108575D01*
X42643D01*
X42666D01*
X42675D01*
X42819Y108580D01*
X42948Y108584D01*
X43068Y108594D01*
X43179Y108608D01*
X43276Y108622D01*
X43364Y108640D01*
X43442Y108659D01*
X43512Y108677D01*
X43572Y108695D01*
X43622Y108709D01*
X43664Y108728D01*
X43701Y108742D01*
X43724Y108756D01*
X43743Y108765D01*
X43752Y108774D01*
X43756D01*
X43798Y108806D01*
X43835Y108839D01*
X43863Y108876D01*
X43891Y108913D01*
X43932Y108986D01*
X43960Y109056D01*
X43974Y109116D01*
X43983Y109167D01*
X43988Y109185D01*
Y109213D01*
X43983Y109264D01*
X43978Y109315D01*
X43964Y109361D01*
X43946Y109402D01*
X43904Y109481D01*
X43858Y109550D01*
X43807Y109601D01*
X43766Y109643D01*
X43747Y109656D01*
X43733Y109666D01*
X43729Y109675D01*
X43724D01*
X43669Y109707D01*
X43604Y109735D01*
X43530Y109763D01*
X43452Y109781D01*
X43368Y109800D01*
X43281Y109813D01*
X43105Y109837D01*
X43017Y109846D01*
X42939Y109850D01*
X42865Y109855D01*
X42805D01*
X42749Y109860D01*
D02*
G37*
G36*
X302002Y21528D02*
X301975D01*
X301877Y21518D01*
X301790Y21495D01*
X301716Y21467D01*
X301651Y21430D01*
X301600Y21394D01*
X301563Y21366D01*
X301540Y21343D01*
X301531Y21334D01*
X301471Y21255D01*
X301425Y21172D01*
X301392Y21084D01*
X301374Y21001D01*
X301360Y20927D01*
X301355Y20895D01*
Y20867D01*
X301351Y20844D01*
Y20825D01*
Y20816D01*
Y20811D01*
X301360Y20687D01*
X301378Y20580D01*
X301406Y20488D01*
X301439Y20410D01*
X301476Y20349D01*
X301503Y20303D01*
X301522Y20276D01*
X301531Y20271D01*
Y20266D01*
X301563Y20229D01*
X301600Y20202D01*
X301674Y20151D01*
X301748Y20118D01*
X301813Y20091D01*
X301873Y20077D01*
X301919Y20072D01*
X301938Y20068D01*
X301961D01*
X302025Y20072D01*
X302085Y20082D01*
X302141Y20100D01*
X302187Y20118D01*
X302229Y20132D01*
X302261Y20151D01*
X302279Y20160D01*
X302289Y20165D01*
X302344Y20206D01*
X302390Y20248D01*
X302432Y20299D01*
X302464Y20340D01*
X302492Y20382D01*
X302510Y20414D01*
X302524Y20437D01*
X302529Y20446D01*
X302557Y20516D01*
X302575Y20585D01*
X302594Y20650D01*
X302603Y20710D01*
X302607Y20761D01*
X302612Y20802D01*
Y20825D01*
Y20834D01*
X302603Y20945D01*
X302584Y21042D01*
X302552Y21130D01*
X302520Y21200D01*
X302487Y21260D01*
X302455Y21301D01*
X302436Y21324D01*
X302427Y21334D01*
X302353Y21398D01*
X302279Y21444D01*
X302201Y21481D01*
X302132Y21504D01*
X302067Y21518D01*
X302021Y21523D01*
X302002Y21528D01*
D02*
G37*
G36*
X227421Y158004D02*
X226506D01*
X226423Y157999D01*
X226354Y157995D01*
X226298Y157990D01*
X226261Y157981D01*
X226234Y157976D01*
X226215Y157972D01*
X226210D01*
X226150Y157949D01*
X226100Y157921D01*
X226053Y157893D01*
X226012Y157861D01*
X225984Y157828D01*
X225961Y157805D01*
X225947Y157787D01*
X225942Y157782D01*
X225910Y157727D01*
X225882Y157671D01*
X225864Y157611D01*
X225855Y157560D01*
X225846Y157514D01*
X225841Y157473D01*
Y157450D01*
Y157445D01*
Y157440D01*
X225850Y157343D01*
X225869Y157260D01*
X225896Y157186D01*
X225929Y157126D01*
X225961Y157080D01*
X225989Y157043D01*
X226007Y157025D01*
X226016Y157015D01*
X226049Y156988D01*
X226090Y156965D01*
X226178Y156928D01*
X226275Y156900D01*
X226372Y156881D01*
X226460Y156872D01*
X226497Y156867D01*
X226529D01*
X226562Y156863D01*
X227421D01*
Y158004D01*
D02*
G37*
%LPD*%
D10*
X320550Y36717D02*
G03*
X320550Y36717I-492J0D01*
G01*
D12*
X84053Y138953D02*
G03*
X84053Y138953I-6000J0D01*
G01*
X73953Y135053D02*
X81853Y142953D01*
D15*
X326413Y23524D02*
X332318D01*
X326413Y33957D02*
X332318D01*
Y23524D02*
Y26378D01*
Y31102D02*
Y33957D01*
D16*
X303543Y69205D02*
X305709D01*
Y49520D02*
Y69205D01*
X303543Y49520D02*
X305709D01*
X103740D02*
X105905D01*
X103740D02*
Y69205D01*
X105905D01*
M02*
