G04*
G04 #@! TF.GenerationSoftware,Altium Limited,Altium Designer,20.1.11 (218)*
G04*
G04 Layer_Color=16711935*
%FSLAX25Y25*%
%MOIN*%
G70*
G04*
G04 #@! TF.SameCoordinates,8DDD7718-E0D7-425E-BE50-D601791E5550*
G04*
G04*
G04 #@! TF.FilePolarity,Negative*
G04*
G01*
G75*
%ADD47C,0.01587*%
G04:AMPARAMS|DCode=49|XSize=33.98mil|YSize=30.84mil|CornerRadius=9.71mil|HoleSize=0mil|Usage=FLASHONLY|Rotation=180.000|XOffset=0mil|YOffset=0mil|HoleType=Round|Shape=RoundedRectangle|*
%AMROUNDEDRECTD49*
21,1,0.03398,0.01142,0,0,180.0*
21,1,0.01457,0.03084,0,0,180.0*
1,1,0.01942,-0.00728,0.00571*
1,1,0.01942,0.00728,0.00571*
1,1,0.01942,0.00728,-0.00571*
1,1,0.01942,-0.00728,-0.00571*
%
%ADD49ROUNDEDRECTD49*%
G04:AMPARAMS|DCode=57|XSize=33.98mil|YSize=30.84mil|CornerRadius=9.71mil|HoleSize=0mil|Usage=FLASHONLY|Rotation=270.000|XOffset=0mil|YOffset=0mil|HoleType=Round|Shape=RoundedRectangle|*
%AMROUNDEDRECTD57*
21,1,0.03398,0.01142,0,0,270.0*
21,1,0.01457,0.03084,0,0,270.0*
1,1,0.01942,-0.00571,-0.00728*
1,1,0.01942,-0.00571,0.00728*
1,1,0.01942,0.00571,0.00728*
1,1,0.01942,0.00571,-0.00728*
%
%ADD57ROUNDEDRECTD57*%
%ADD67C,0.09843*%
%ADD68C,0.06312*%
%ADD69C,0.06706*%
%ADD70C,0.25210*%
%ADD71R,0.06706X0.06706*%
%ADD72C,0.04000*%
%ADD73C,0.17335*%
G04:AMPARAMS|DCode=74|XSize=82.8mil|YSize=67.06mil|CornerRadius=18.76mil|HoleSize=0mil|Usage=FLASHONLY|Rotation=0.000|XOffset=0mil|YOffset=0mil|HoleType=Round|Shape=RoundedRectangle|*
%AMROUNDEDRECTD74*
21,1,0.08280,0.02953,0,0,0.0*
21,1,0.04528,0.06706,0,0,0.0*
1,1,0.03753,0.02264,-0.01476*
1,1,0.03753,-0.02264,-0.01476*
1,1,0.03753,-0.02264,0.01476*
1,1,0.03753,0.02264,0.01476*
%
%ADD74ROUNDEDRECTD74*%
%ADD75O,0.05524X0.04343*%
%ADD76R,0.06706X0.06706*%
%ADD84C,0.02000*%
%ADD108R,0.02055X0.02362*%
%ADD112R,0.04737X0.06942*%
G04:AMPARAMS|DCode=113|XSize=14.17mil|YSize=47.64mil|CornerRadius=4.63mil|HoleSize=0mil|Usage=FLASHONLY|Rotation=270.000|XOffset=0mil|YOffset=0mil|HoleType=Round|Shape=RoundedRectangle|*
%AMROUNDEDRECTD113*
21,1,0.01417,0.03839,0,0,270.0*
21,1,0.00492,0.04764,0,0,270.0*
1,1,0.00925,-0.01919,-0.00246*
1,1,0.00925,-0.01919,0.00246*
1,1,0.00925,0.01919,0.00246*
1,1,0.00925,0.01919,-0.00246*
%
%ADD113ROUNDEDRECTD113*%
%ADD114C,0.03162*%
D47*
X328224Y25740D02*
D03*
X328224Y31740D02*
D03*
D49*
X31500Y119229D02*
D03*
X42655Y116299D02*
D03*
X38900Y116329D02*
D03*
Y112471D02*
D03*
X42655Y112441D02*
D03*
X31500Y115371D02*
D03*
D57*
X312244Y20965D02*
D03*
Y25235D02*
D03*
X247344Y153128D02*
D03*
X247344Y149388D02*
D03*
X203062Y149384D02*
D03*
X203161Y153322D02*
D03*
X207019D02*
D03*
X206921Y149384D02*
D03*
X243486Y149388D02*
D03*
X243486Y153128D02*
D03*
X316102Y25235D02*
D03*
Y20965D02*
D03*
D67*
X12500Y167539D02*
D03*
X10236Y39409D02*
D03*
X372500Y35039D02*
D03*
D68*
X90551Y60583D02*
D03*
D69*
X350000Y150000D02*
D03*
X360000D02*
D03*
X370000D02*
D03*
X350000Y140000D02*
D03*
X360000D02*
D03*
X370000D02*
D03*
X380000D02*
D03*
X350000Y160000D02*
D03*
X360000D02*
D03*
X370000D02*
D03*
X380000D02*
D03*
X290000Y110000D02*
D03*
X280000Y100000D02*
D03*
X290000D02*
D03*
X170000D02*
D03*
X160000D02*
D03*
X170000Y110000D02*
D03*
X380000Y130000D02*
D03*
Y90000D02*
D03*
Y50000D02*
D03*
Y70000D02*
D03*
Y110000D02*
D03*
Y150000D02*
D03*
X301260Y7480D02*
D03*
X230000Y20000D02*
D03*
Y30000D02*
D03*
X11417Y149370D02*
D03*
X310000Y60000D02*
D03*
Y80000D02*
D03*
Y160000D02*
D03*
X240000Y20000D02*
D03*
Y30000D02*
D03*
X220000D02*
D03*
Y20000D02*
D03*
X200000Y30000D02*
D03*
X210000D02*
D03*
X200000Y20000D02*
D03*
X210000D02*
D03*
X190000Y30000D02*
D03*
X321260Y7480D02*
D03*
X331260D02*
D03*
X311260D02*
D03*
X330000Y160000D02*
D03*
X340000D02*
D03*
X320000D02*
D03*
X330000Y150000D02*
D03*
X340000D02*
D03*
X310000D02*
D03*
X320000D02*
D03*
X310000Y120000D02*
D03*
Y110000D02*
D03*
X320000Y120000D02*
D03*
Y110000D02*
D03*
X330000Y120000D02*
D03*
Y110000D02*
D03*
X340000Y120000D02*
D03*
Y110000D02*
D03*
X350000Y120000D02*
D03*
Y110000D02*
D03*
X360000Y120000D02*
D03*
Y110000D02*
D03*
X370000Y120000D02*
D03*
Y110000D02*
D03*
X380000Y120000D02*
D03*
X310000Y70000D02*
D03*
X320000Y80000D02*
D03*
Y70000D02*
D03*
X330000Y80000D02*
D03*
Y70000D02*
D03*
X340000Y80000D02*
D03*
Y70000D02*
D03*
X350000Y80000D02*
D03*
Y70000D02*
D03*
X360000Y80000D02*
D03*
Y70000D02*
D03*
X370000Y80000D02*
D03*
Y70000D02*
D03*
X380000Y80000D02*
D03*
X310000Y50000D02*
D03*
X320000Y60000D02*
D03*
Y50000D02*
D03*
X330000Y60000D02*
D03*
Y50000D02*
D03*
X340000Y60000D02*
D03*
Y50000D02*
D03*
X350000Y60000D02*
D03*
Y50000D02*
D03*
X360000Y60000D02*
D03*
Y50000D02*
D03*
X370000Y60000D02*
D03*
Y50000D02*
D03*
X380000Y60000D02*
D03*
X310000Y100000D02*
D03*
Y90000D02*
D03*
X320000Y100000D02*
D03*
Y90000D02*
D03*
X330000Y100000D02*
D03*
Y90000D02*
D03*
X340000Y100000D02*
D03*
Y90000D02*
D03*
X350000Y100000D02*
D03*
Y90000D02*
D03*
X360000Y100000D02*
D03*
Y90000D02*
D03*
X370000Y100000D02*
D03*
Y90000D02*
D03*
X380000Y100000D02*
D03*
X310000Y140000D02*
D03*
Y130000D02*
D03*
X320000Y140000D02*
D03*
Y130000D02*
D03*
X330000Y140000D02*
D03*
Y130000D02*
D03*
X340000Y140000D02*
D03*
Y130000D02*
D03*
X350000D02*
D03*
X360000D02*
D03*
X370000D02*
D03*
X170000Y170000D02*
D03*
X160000Y160000D02*
D03*
X170000D02*
D03*
X160000Y150000D02*
D03*
X170000D02*
D03*
X160000Y140000D02*
D03*
X170000D02*
D03*
X160000Y130000D02*
D03*
X170000D02*
D03*
X160000Y120000D02*
D03*
X170000D02*
D03*
X160000Y110000D02*
D03*
X280000D02*
D03*
X290000Y120000D02*
D03*
X280000D02*
D03*
X290000Y130000D02*
D03*
X280000D02*
D03*
X290000Y140000D02*
D03*
X280000D02*
D03*
X290000Y150000D02*
D03*
X280000D02*
D03*
X290000Y160000D02*
D03*
X280000D02*
D03*
X290000Y170000D02*
D03*
D70*
X15748Y188976D02*
D03*
X370079Y15748D02*
D03*
Y188976D02*
D03*
X15748Y15748D02*
D03*
D71*
X11417Y139370D02*
D03*
X160000Y170000D02*
D03*
X280000D02*
D03*
D72*
X328224Y28740D02*
D03*
D73*
X253913Y126433D02*
D03*
X214913Y193933D02*
D03*
D74*
X11024Y87303D02*
D03*
Y120177D02*
D03*
D75*
X22835Y94980D02*
D03*
Y112500D02*
D03*
D76*
X190000Y20000D02*
D03*
X341260Y7480D02*
D03*
D84*
X331224Y28740D02*
G03*
X331224Y28740I-3000J0D01*
G01*
D108*
X323295Y32283D02*
D03*
X320058D02*
D03*
Y25197D02*
D03*
X323295D02*
D03*
X320058Y28740D02*
D03*
D112*
X299724Y70799D02*
D03*
X289724D02*
D03*
X279724D02*
D03*
X269724D02*
D03*
X259724D02*
D03*
X249724D02*
D03*
X239724D02*
D03*
X229724D02*
D03*
X219724D02*
D03*
X209724D02*
D03*
X199724D02*
D03*
X189724D02*
D03*
X179724D02*
D03*
X169724D02*
D03*
X159724D02*
D03*
X149724D02*
D03*
X139724D02*
D03*
X129724D02*
D03*
X119724D02*
D03*
X109724D02*
D03*
X299724Y47925D02*
D03*
X289724D02*
D03*
X279724D02*
D03*
X269724D02*
D03*
X259724D02*
D03*
X249724D02*
D03*
X239724D02*
D03*
X229724D02*
D03*
X219724D02*
D03*
X209724D02*
D03*
X199724D02*
D03*
X189724D02*
D03*
X179724D02*
D03*
X169724D02*
D03*
X159724D02*
D03*
X149724D02*
D03*
X139724D02*
D03*
X129724D02*
D03*
X119724D02*
D03*
X109724D02*
D03*
D113*
X214154Y137587D02*
D03*
Y141524D02*
D03*
Y135618D02*
D03*
Y139555D02*
D03*
X235846Y133650D02*
D03*
X214154Y127744D02*
D03*
X235846Y125776D02*
D03*
X214154D02*
D03*
X235846Y123807D02*
D03*
X214154D02*
D03*
X235846Y127744D02*
D03*
X214154Y133650D02*
D03*
X235846Y135618D02*
D03*
Y137587D02*
D03*
Y139555D02*
D03*
Y141524D02*
D03*
X214154Y143492D02*
D03*
X235846D02*
D03*
X214154Y145461D02*
D03*
X235846D02*
D03*
X214154Y147429D02*
D03*
X235846D02*
D03*
X214154Y149398D02*
D03*
X235846D02*
D03*
Y151366D02*
D03*
X214154D02*
D03*
X235846Y131681D02*
D03*
Y129713D02*
D03*
X214154Y131681D02*
D03*
Y129713D02*
D03*
D114*
X269724Y70799D02*
D03*
X249724D02*
D03*
X214500Y72500D02*
D03*
Y67500D02*
D03*
X219724Y70799D02*
D03*
X199724D02*
D03*
X179700D02*
D03*
X169724D02*
D03*
X129724D02*
D03*
X289800Y64500D02*
D03*
X299700Y48150D02*
D03*
X279800Y48000D02*
D03*
X144400Y53400D02*
D03*
X289800Y69500D02*
D03*
Y74500D02*
D03*
X229900Y42000D02*
D03*
X229699Y47925D02*
D03*
X180000Y42500D02*
D03*
Y48000D02*
D03*
Y54000D02*
D03*
X144400Y42400D02*
D03*
X149900Y53400D02*
D03*
Y42400D02*
D03*
M02*
