G04*
G04 #@! TF.GenerationSoftware,Altium Limited,Altium Designer,20.1.11 (218)*
G04*
G04 Layer_Physical_Order=1*
G04 Layer_Color=255*
%FSLAX25Y25*%
%MOIN*%
G70*
G04*
G04 #@! TF.SameCoordinates,8DDD7718-E0D7-425E-BE50-D601791E5550*
G04*
G04*
G04 #@! TF.FilePolarity,Positive*
G04*
G01*
G75*
%ADD10C,0.00984*%
%ADD11C,0.02362*%
%ADD12C,0.01000*%
%ADD15C,0.00787*%
G04:AMPARAMS|DCode=19|XSize=24.41mil|YSize=22.44mil|CornerRadius=5.61mil|HoleSize=0mil|Usage=FLASHONLY|Rotation=0.000|XOffset=0mil|YOffset=0mil|HoleType=Round|Shape=RoundedRectangle|*
%AMROUNDEDRECTD19*
21,1,0.02441,0.01122,0,0,0.0*
21,1,0.01319,0.02244,0,0,0.0*
1,1,0.01122,0.00659,-0.00561*
1,1,0.01122,-0.00659,-0.00561*
1,1,0.01122,-0.00659,0.00561*
1,1,0.01122,0.00659,0.00561*
%
%ADD19ROUNDEDRECTD19*%
%ADD20R,0.02559X0.04724*%
%ADD21O,0.01181X0.07087*%
%ADD22O,0.07087X0.01181*%
G04:AMPARAMS|DCode=23|XSize=24.41mil|YSize=22.44mil|CornerRadius=5.61mil|HoleSize=0mil|Usage=FLASHONLY|Rotation=90.000|XOffset=0mil|YOffset=0mil|HoleType=Round|Shape=RoundedRectangle|*
%AMROUNDEDRECTD23*
21,1,0.02441,0.01122,0,0,90.0*
21,1,0.01319,0.02244,0,0,90.0*
1,1,0.01122,0.00561,0.00659*
1,1,0.01122,0.00561,-0.00659*
1,1,0.01122,-0.00561,-0.00659*
1,1,0.01122,-0.00561,0.00659*
%
%ADD23ROUNDEDRECTD23*%
G04:AMPARAMS|DCode=24|XSize=25.98mil|YSize=22.84mil|CornerRadius=5.71mil|HoleSize=0mil|Usage=FLASHONLY|Rotation=180.000|XOffset=0mil|YOffset=0mil|HoleType=Round|Shape=RoundedRectangle|*
%AMROUNDEDRECTD24*
21,1,0.02598,0.01142,0,0,180.0*
21,1,0.01457,0.02284,0,0,180.0*
1,1,0.01142,-0.00728,0.00571*
1,1,0.01142,0.00728,0.00571*
1,1,0.01142,0.00728,-0.00571*
1,1,0.01142,-0.00728,-0.00571*
%
%ADD24ROUNDEDRECTD24*%
%ADD25R,0.04528X0.02953*%
%ADD26R,0.03740X0.05512*%
G04:AMPARAMS|DCode=27|XSize=44.49mil|YSize=96.06mil|CornerRadius=11.12mil|HoleSize=0mil|Usage=FLASHONLY|Rotation=0.000|XOffset=0mil|YOffset=0mil|HoleType=Round|Shape=RoundedRectangle|*
%AMROUNDEDRECTD27*
21,1,0.04449,0.07382,0,0,0.0*
21,1,0.02224,0.09606,0,0,0.0*
1,1,0.02224,0.01112,-0.03691*
1,1,0.02224,-0.01112,-0.03691*
1,1,0.02224,-0.01112,0.03691*
1,1,0.02224,0.01112,0.03691*
%
%ADD27ROUNDEDRECTD27*%
%ADD28R,0.01654X0.00866*%
G04:AMPARAMS|DCode=29|XSize=15.75mil|YSize=53.15mil|CornerRadius=3.94mil|HoleSize=0mil|Usage=FLASHONLY|Rotation=270.000|XOffset=0mil|YOffset=0mil|HoleType=Round|Shape=RoundedRectangle|*
%AMROUNDEDRECTD29*
21,1,0.01575,0.04528,0,0,270.0*
21,1,0.00787,0.05315,0,0,270.0*
1,1,0.00787,-0.02264,-0.00394*
1,1,0.00787,-0.02264,0.00394*
1,1,0.00787,0.02264,0.00394*
1,1,0.00787,0.02264,-0.00394*
%
%ADD29ROUNDEDRECTD29*%
%ADD30R,0.04646X0.02402*%
G04:AMPARAMS|DCode=31|XSize=39.37mil|YSize=55.12mil|CornerRadius=9.84mil|HoleSize=0mil|Usage=FLASHONLY|Rotation=90.000|XOffset=0mil|YOffset=0mil|HoleType=Round|Shape=RoundedRectangle|*
%AMROUNDEDRECTD31*
21,1,0.03937,0.03543,0,0,90.0*
21,1,0.01968,0.05512,0,0,90.0*
1,1,0.01968,0.01772,0.00984*
1,1,0.01968,0.01772,-0.00984*
1,1,0.01968,-0.01772,-0.00984*
1,1,0.01968,-0.01772,0.00984*
%
%ADD31ROUNDEDRECTD31*%
G04:AMPARAMS|DCode=32|XSize=25.98mil|YSize=22.84mil|CornerRadius=5.71mil|HoleSize=0mil|Usage=FLASHONLY|Rotation=270.000|XOffset=0mil|YOffset=0mil|HoleType=Round|Shape=RoundedRectangle|*
%AMROUNDEDRECTD32*
21,1,0.02598,0.01142,0,0,270.0*
21,1,0.01457,0.02284,0,0,270.0*
1,1,0.01142,-0.00571,-0.00728*
1,1,0.01142,-0.00571,0.00728*
1,1,0.01142,0.00571,0.00728*
1,1,0.01142,0.00571,-0.00728*
%
%ADD32ROUNDEDRECTD32*%
G04:AMPARAMS|DCode=33|XSize=17.72mil|YSize=47.24mil|CornerRadius=1.95mil|HoleSize=0mil|Usage=FLASHONLY|Rotation=0.000|XOffset=0mil|YOffset=0mil|HoleType=Round|Shape=RoundedRectangle|*
%AMROUNDEDRECTD33*
21,1,0.01772,0.04335,0,0,0.0*
21,1,0.01382,0.04724,0,0,0.0*
1,1,0.00390,0.00691,-0.02167*
1,1,0.00390,-0.00691,-0.02167*
1,1,0.00390,-0.00691,0.02167*
1,1,0.00390,0.00691,0.02167*
%
%ADD33ROUNDEDRECTD33*%
%ADD34R,0.03937X0.01300*%
%ADD35R,0.03543X0.02559*%
%ADD36R,0.03937X0.00984*%
%ADD37R,0.02362X0.05315*%
%ADD38R,0.02756X0.02559*%
%ADD39R,0.04724X0.07874*%
G04:AMPARAMS|DCode=40|XSize=46.26mil|YSize=74.8mil|CornerRadius=11.57mil|HoleSize=0mil|Usage=FLASHONLY|Rotation=90.000|XOffset=0mil|YOffset=0mil|HoleType=Round|Shape=RoundedRectangle|*
%AMROUNDEDRECTD40*
21,1,0.04626,0.05167,0,0,90.0*
21,1,0.02313,0.07480,0,0,90.0*
1,1,0.02313,0.02584,0.01157*
1,1,0.02313,0.02584,-0.01157*
1,1,0.02313,-0.02584,-0.01157*
1,1,0.02313,-0.02584,0.01157*
%
%ADD40ROUNDEDRECTD40*%
G04:AMPARAMS|DCode=41|XSize=70.87mil|YSize=74.8mil|CornerRadius=17.72mil|HoleSize=0mil|Usage=FLASHONLY|Rotation=270.000|XOffset=0mil|YOffset=0mil|HoleType=Round|Shape=RoundedRectangle|*
%AMROUNDEDRECTD41*
21,1,0.07087,0.03937,0,0,270.0*
21,1,0.03543,0.07480,0,0,270.0*
1,1,0.03543,-0.01968,-0.01772*
1,1,0.03543,-0.01968,0.01772*
1,1,0.03543,0.01968,0.01772*
1,1,0.03543,0.01968,-0.01772*
%
%ADD41ROUNDEDRECTD41*%
%ADD72C,0.04000*%
%ADD78C,0.00600*%
%ADD79C,0.00787*%
%ADD80C,0.03937*%
%ADD81C,0.01968*%
%ADD82C,0.03937*%
%ADD83C,0.00800*%
%ADD84C,0.02000*%
%ADD85C,0.01181*%
%ADD86C,0.01378*%
%ADD87C,0.03150*%
%ADD88C,0.01102*%
%ADD89C,0.00591*%
%ADD90R,0.10000X0.08500*%
%ADD91R,0.06000X0.15000*%
%ADD92R,0.09500X0.06000*%
%ADD93R,0.06000X0.16500*%
%ADD94R,0.06000X0.11500*%
%ADD95R,0.05500X0.13000*%
%ADD96R,0.14500X0.05000*%
%ADD97C,0.05512*%
%ADD98C,0.05906*%
%ADD99C,0.24410*%
%ADD100R,0.05906X0.05906*%
%ADD101C,0.16535*%
G04:AMPARAMS|DCode=102|XSize=74.8mil|YSize=59.06mil|CornerRadius=14.76mil|HoleSize=0mil|Usage=FLASHONLY|Rotation=0.000|XOffset=0mil|YOffset=0mil|HoleType=Round|Shape=RoundedRectangle|*
%AMROUNDEDRECTD102*
21,1,0.07480,0.02953,0,0,0.0*
21,1,0.04528,0.05906,0,0,0.0*
1,1,0.02953,0.02264,-0.01476*
1,1,0.02953,-0.02264,-0.01476*
1,1,0.02953,-0.02264,0.01476*
1,1,0.02953,0.02264,0.01476*
%
%ADD102ROUNDEDRECTD102*%
%ADD103O,0.04724X0.03543*%
%ADD104R,0.05906X0.05906*%
%ADD105C,0.02362*%
G36*
X384354Y160654D02*
X383854Y160605D01*
X383671Y161521D01*
X382810Y162810D01*
X381521Y163672D01*
X381443Y163687D01*
Y164320D01*
X381823Y164574D01*
X382156Y165072D01*
X382273Y165659D01*
Y166781D01*
X382156Y167369D01*
X381823Y167867D01*
Y168353D01*
X382156Y168851D01*
X382273Y169439D01*
Y170561D01*
X382156Y171149D01*
X381823Y171647D01*
X381325Y171979D01*
X380737Y172096D01*
X379912D01*
X375843Y176165D01*
X375550Y176361D01*
X375518Y176850D01*
X375540Y176923D01*
X377450Y177944D01*
X379461Y179594D01*
X381111Y181605D01*
X382337Y183899D01*
X383092Y186388D01*
X383298Y188476D01*
X356859D01*
X357065Y186388D01*
X357820Y183899D01*
X359046Y181605D01*
X360696Y179594D01*
X362707Y177944D01*
X364352Y177065D01*
X364227Y176565D01*
X321245D01*
X303745Y194065D01*
X303302Y194361D01*
X302780Y194465D01*
X238100D01*
X237578Y194361D01*
X237135Y194065D01*
X223935Y180865D01*
X150975D01*
X150453Y180761D01*
X150010Y180465D01*
X140439Y170894D01*
X139977Y171085D01*
Y179547D01*
X143027Y179547D01*
X143750Y179847D01*
X144768Y180864D01*
X145068Y181587D01*
X145067Y190381D01*
X144913Y190753D01*
X144768Y191104D01*
X143734Y192138D01*
X143734Y192138D01*
X143734Y192138D01*
X143383Y192283D01*
X143011Y192437D01*
X143011Y192437D01*
X143011Y192437D01*
X130827Y192437D01*
X130104Y192138D01*
X129527Y192052D01*
X125847Y195733D01*
X124883Y196377D01*
X123746Y196603D01*
X109338D01*
X108201Y196377D01*
X107238Y195733D01*
X103561Y192056D01*
X102917Y191092D01*
X102691Y189955D01*
Y183804D01*
X102616Y183427D01*
Y175140D01*
Y172205D01*
X102842Y171068D01*
X103486Y170104D01*
X105417Y168173D01*
X105396Y167780D01*
X104934Y167421D01*
X104700Y167468D01*
X103870Y167303D01*
X103167Y166833D01*
X103055Y166665D01*
X97636D01*
X94281Y170020D01*
X94344Y170663D01*
X94363Y170676D01*
X94696Y171174D01*
X94813Y171762D01*
Y172884D01*
X94696Y173471D01*
X94363Y173969D01*
Y174456D01*
X94696Y174954D01*
X94813Y175541D01*
Y176663D01*
X94696Y177251D01*
X94585Y177417D01*
Y179076D01*
X95143Y179187D01*
X95781Y179613D01*
X96207Y180251D01*
X96357Y181004D01*
Y182972D01*
X96207Y183725D01*
X95781Y184363D01*
X95143Y184790D01*
X94390Y184939D01*
X90847D01*
X90094Y184790D01*
X89456Y184363D01*
X89029Y183725D01*
X88880Y182972D01*
Y181004D01*
X89029Y180251D01*
X89456Y179613D01*
X90094Y179187D01*
X90651Y179076D01*
Y177417D01*
X90540Y177251D01*
X90423Y176663D01*
Y175541D01*
X90540Y174954D01*
X90873Y174456D01*
Y173969D01*
X90540Y173471D01*
X90423Y172884D01*
Y171762D01*
X90535Y171203D01*
X90513Y171172D01*
X90053Y170977D01*
X87860Y173170D01*
X87418Y173466D01*
X86895Y173570D01*
X82642D01*
X82507Y173772D01*
X82454Y174111D01*
Y174338D01*
X82787Y174836D01*
X82903Y175423D01*
Y176545D01*
X82787Y177133D01*
X82676Y177299D01*
Y179076D01*
X83233Y179187D01*
X83871Y179613D01*
X84298Y180251D01*
X84447Y181004D01*
Y182972D01*
X84298Y183725D01*
X83871Y184363D01*
X83233Y184790D01*
X82480Y184939D01*
X78937D01*
X78184Y184790D01*
X77546Y184363D01*
X77120Y183725D01*
X76970Y182972D01*
Y181004D01*
X77120Y180251D01*
X77546Y179613D01*
X78184Y179187D01*
X78742Y179076D01*
Y177299D01*
X78631Y177133D01*
X78514Y176545D01*
Y175423D01*
X78631Y174836D01*
X78964Y174338D01*
Y173851D01*
X78631Y173353D01*
X78514Y172766D01*
Y171644D01*
X78547Y171475D01*
X78230Y171089D01*
X71964D01*
X71092Y171960D01*
Y172785D01*
X70976Y173373D01*
X70643Y173871D01*
Y174357D01*
X70976Y174855D01*
X71092Y175443D01*
Y176565D01*
X70976Y177153D01*
X70865Y177319D01*
Y179076D01*
X71422Y179187D01*
X72060Y179613D01*
X72487Y180251D01*
X72636Y181004D01*
Y182972D01*
X72487Y183725D01*
X72060Y184363D01*
X71422Y184790D01*
X70669Y184939D01*
X67126D01*
X66373Y184790D01*
X65735Y184363D01*
X65309Y183725D01*
X65159Y182972D01*
Y181004D01*
X65309Y180251D01*
X65735Y179613D01*
X66373Y179187D01*
X66931Y179076D01*
Y177319D01*
X66820Y177153D01*
X66703Y176565D01*
Y175443D01*
X66820Y174855D01*
X67153Y174357D01*
Y173871D01*
X66820Y173373D01*
X66703Y172785D01*
Y171663D01*
X66820Y171076D01*
X67153Y170578D01*
X67651Y170245D01*
X68238Y170128D01*
X68813D01*
X68935Y169965D01*
X68684Y169465D01*
X61264D01*
X58691Y172038D01*
Y172766D01*
X58574Y173353D01*
X58241Y173851D01*
Y174338D01*
X58574Y174836D01*
X58691Y175423D01*
Y176545D01*
X58574Y177133D01*
X58463Y177299D01*
Y179076D01*
X59020Y179187D01*
X59658Y179613D01*
X60085Y180251D01*
X60235Y181004D01*
Y182972D01*
X60085Y183725D01*
X59658Y184363D01*
X59020Y184790D01*
X58268Y184939D01*
X54724D01*
X53972Y184790D01*
X53334Y184363D01*
X52907Y183725D01*
X52758Y182972D01*
Y181004D01*
X52907Y180251D01*
X52949Y180188D01*
X53200Y179800D01*
X53200D01*
X53200Y179800D01*
Y177367D01*
X52700Y177099D01*
X51968Y177588D01*
X50800Y177821D01*
X49632Y177588D01*
X49043Y177195D01*
X48300D01*
Y180500D01*
X48300D01*
X48160Y180670D01*
X48227Y181004D01*
Y182972D01*
X48077Y183725D01*
X47651Y184363D01*
X47012Y184790D01*
X46260Y184939D01*
X42717D01*
X41964Y184790D01*
X41326Y184363D01*
X40899Y183725D01*
X40750Y182972D01*
Y181004D01*
X40899Y180251D01*
X41326Y179613D01*
X41964Y179187D01*
X42717Y179037D01*
X43123D01*
Y177806D01*
X42743Y177552D01*
X42410Y177054D01*
X42293Y176467D01*
Y175345D01*
X42410Y174757D01*
X42494Y174632D01*
X42226Y174132D01*
X41093D01*
X40978Y174305D01*
X40014Y174949D01*
X38877Y175175D01*
X37740Y174949D01*
X36777Y174305D01*
X36133Y173342D01*
X35907Y172205D01*
X36133Y171068D01*
X36777Y170104D01*
X37740Y169460D01*
X38877Y169234D01*
X40014Y169460D01*
X40978Y170104D01*
X41041Y170198D01*
X43163D01*
X43241Y170147D01*
X43829Y170030D01*
X45148D01*
X45735Y170147D01*
X46233Y170479D01*
X46566Y170977D01*
X46683Y171565D01*
Y172687D01*
X46566Y173275D01*
X46233Y173773D01*
Y173999D01*
X46287Y174338D01*
X46371Y174465D01*
X47498D01*
X47869Y173965D01*
X47836Y173798D01*
X47897Y173488D01*
X47895Y173487D01*
X47979Y173064D01*
X48020Y173003D01*
X48641Y172074D01*
X49435Y171543D01*
Y170245D01*
X49267Y170133D01*
X48797Y169430D01*
X48632Y168600D01*
X48797Y167771D01*
X48998Y167471D01*
X48731Y166971D01*
X32000D01*
X30863Y166744D01*
X29900Y166100D01*
X27200Y163400D01*
X26556Y162437D01*
X26353Y161419D01*
X24967Y160033D01*
X24497Y159329D01*
X24332Y158500D01*
X24332Y158500D01*
Y152977D01*
X20879Y152977D01*
X20155Y152677D01*
X15736Y148258D01*
X15275Y148504D01*
X15348Y148870D01*
X11917D01*
Y145439D01*
X12283Y145512D01*
X12530Y145051D01*
X12099Y144621D01*
X6467Y144621D01*
X5744Y144322D01*
X4198Y142776D01*
X3898Y142053D01*
X3898Y134060D01*
X4198Y133337D01*
X5684Y131851D01*
X6407Y131551D01*
X17166Y131551D01*
X17890Y131851D01*
X18980Y132941D01*
X19480Y132734D01*
X19480Y122538D01*
X19607Y122231D01*
X19436Y121977D01*
X19236Y121820D01*
X18626Y121941D01*
X18626Y121941D01*
X15699D01*
X15568Y122598D01*
X15033Y123399D01*
X14232Y123934D01*
X13287Y124122D01*
X8760D01*
X7815Y123934D01*
X7014Y123399D01*
X6479Y122598D01*
X6291Y121653D01*
Y118701D01*
X6419Y118056D01*
X6297Y117443D01*
Y115130D01*
X6460Y114310D01*
X6925Y113615D01*
X7620Y113151D01*
X7914Y113092D01*
X7975Y112720D01*
X7960Y112575D01*
X7097Y111998D01*
X6496Y111099D01*
X6285Y110039D01*
Y106496D01*
X6496Y105436D01*
X7097Y104538D01*
X7874Y104018D01*
X7906Y103892D01*
Y103588D01*
X7874Y103462D01*
X7097Y102943D01*
X6496Y102044D01*
X6285Y100984D01*
Y97441D01*
X6496Y96381D01*
X7097Y95482D01*
X7960Y94906D01*
X7975Y94760D01*
X7914Y94388D01*
X7620Y94330D01*
X6925Y93865D01*
X6460Y93170D01*
X6297Y92350D01*
Y90037D01*
X6419Y89424D01*
X6291Y88779D01*
Y85827D01*
X6479Y84882D01*
X7014Y84081D01*
X7815Y83546D01*
X8760Y83358D01*
X13287D01*
X14232Y83546D01*
X15033Y84081D01*
X15568Y84882D01*
X15619Y85136D01*
X18027D01*
X18027Y85136D01*
X18857Y85300D01*
X19560Y85770D01*
X24111Y90321D01*
X24581Y91025D01*
X24680Y91522D01*
X25231Y91732D01*
X25689Y91426D01*
X26518Y91261D01*
X29305D01*
X29541Y91214D01*
X30859D01*
X31447Y91331D01*
X31945Y91663D01*
X32278Y92162D01*
X32395Y92749D01*
Y93871D01*
X32278Y94459D01*
X31945Y94957D01*
X31447Y95290D01*
X31153Y95348D01*
X31029Y95431D01*
X30200Y95596D01*
X27416D01*
X26725Y96287D01*
X26022Y96757D01*
X25426Y96876D01*
X25384Y96939D01*
X24485Y97539D01*
X23425Y97750D01*
X22244D01*
X21184Y97539D01*
X20286Y96939D01*
X19685Y96040D01*
X19474Y94980D01*
X19685Y93920D01*
X20286Y93022D01*
X20173Y92515D01*
X17129Y89471D01*
X16031D01*
X15714Y89857D01*
X15750Y90037D01*
Y92350D01*
X15587Y93170D01*
X15122Y93865D01*
X14427Y94330D01*
X14133Y94388D01*
X14072Y94760D01*
X14087Y94906D01*
X14951Y95482D01*
X15551Y96381D01*
X15762Y97441D01*
Y100984D01*
X15551Y102044D01*
X14951Y102943D01*
X14173Y103462D01*
X14141Y103588D01*
Y103892D01*
X14173Y104018D01*
X14951Y104538D01*
X15551Y105436D01*
X15762Y106496D01*
Y110039D01*
X15551Y111099D01*
X14951Y111998D01*
X14087Y112575D01*
X14072Y112720D01*
X14133Y113092D01*
X14427Y113151D01*
X15122Y113615D01*
X15587Y114310D01*
X15750Y115130D01*
Y117443D01*
X15884Y117606D01*
X17729D01*
X20298Y115036D01*
X20286Y114459D01*
X19685Y113560D01*
X19474Y112500D01*
X19685Y111440D01*
X19941Y111058D01*
X19705Y110617D01*
X19291D01*
X18769Y110513D01*
X18326Y110217D01*
X18030Y109774D01*
X17927Y109252D01*
Y108465D01*
X18030Y107942D01*
X18273Y107579D01*
X18030Y107215D01*
X17927Y106693D01*
Y105905D01*
X18030Y105383D01*
X18273Y105020D01*
X18030Y104656D01*
X17927Y104134D01*
Y103347D01*
X18030Y102824D01*
X18273Y102461D01*
X18030Y102097D01*
X17927Y101575D01*
Y100787D01*
X18030Y100265D01*
X18326Y99822D01*
X18769Y99527D01*
X19291Y99423D01*
X23819D01*
X24341Y99527D01*
X24784Y99822D01*
X25080Y100265D01*
X25184Y100787D01*
Y101575D01*
X25106Y101965D01*
X25129Y102479D01*
X25571Y102775D01*
X25732Y102935D01*
X28449D01*
Y101347D01*
X29289D01*
Y100946D01*
X29393Y100424D01*
X29488Y100281D01*
X29432Y100000D01*
X29597Y99171D01*
X30067Y98467D01*
X30770Y97997D01*
X31600Y97832D01*
X32430Y97997D01*
X33133Y98467D01*
X33603Y99171D01*
X33768Y100000D01*
X33603Y100830D01*
X33133Y101533D01*
X32430Y102003D01*
X32018Y102084D01*
Y102686D01*
X32478Y102922D01*
X34551D01*
Y102935D01*
X35662D01*
X36184Y103039D01*
X36627Y103335D01*
X36987Y103695D01*
X39310D01*
X39517Y103195D01*
X34677Y98355D01*
X34370Y97896D01*
X34015Y97825D01*
X33514Y97490D01*
X33178Y96989D01*
X33061Y96398D01*
Y94941D01*
X33178Y94349D01*
X33191Y94332D01*
Y92873D01*
X33178Y92855D01*
X33061Y92264D01*
Y90807D01*
X33178Y90216D01*
X33191Y90198D01*
Y89035D01*
X32815D01*
Y84587D01*
X37461D01*
Y89035D01*
X37124D01*
Y90139D01*
X37176Y90216D01*
X37293Y90807D01*
Y92264D01*
X37176Y92855D01*
X37124Y92932D01*
Y94273D01*
X37176Y94349D01*
X37293Y94941D01*
Y96398D01*
X37281Y96461D01*
Y96644D01*
X41670Y101034D01*
X49208D01*
X49409Y100994D01*
X55315D01*
X55914Y101113D01*
X56422Y101452D01*
X56761Y101960D01*
X56880Y102559D01*
X56761Y103158D01*
X56504Y103543D01*
X56761Y103928D01*
X56880Y104528D01*
X56761Y105127D01*
X56504Y105512D01*
X56761Y105897D01*
X56880Y106496D01*
X56761Y107095D01*
X56504Y107480D01*
X56761Y107866D01*
X56880Y108465D01*
X56761Y109064D01*
X56422Y109572D01*
X55914Y109911D01*
X55315Y110030D01*
X49409D01*
X49208Y109990D01*
X47017D01*
X46866Y110490D01*
X47433Y110869D01*
X47473Y110928D01*
X48945D01*
X49409Y110836D01*
X55315D01*
X55914Y110955D01*
X56422Y111295D01*
X56761Y111802D01*
X56880Y112402D01*
X56761Y113001D01*
X56504Y113386D01*
X56761Y113771D01*
X56880Y114370D01*
X56761Y114969D01*
X56504Y115354D01*
X56761Y115740D01*
X56880Y116339D01*
X56761Y116938D01*
X56422Y117446D01*
X55914Y117785D01*
X55315Y117904D01*
X49409D01*
X48874Y117798D01*
X47452D01*
X47345Y117957D01*
Y118443D01*
X47678Y118941D01*
X47795Y119529D01*
Y120651D01*
X47678Y121238D01*
X47345Y121737D01*
X47069Y121921D01*
Y122830D01*
X47816D01*
Y127361D01*
X48821Y128366D01*
X50226D01*
X50341Y128193D01*
X50840Y127860D01*
X51427Y127743D01*
X52746D01*
X53334Y127860D01*
X53832Y128193D01*
X54165Y128691D01*
X54282Y129278D01*
Y130400D01*
X54165Y130988D01*
X53832Y131486D01*
Y131972D01*
X54165Y132470D01*
X54282Y133058D01*
Y134180D01*
X54165Y134767D01*
X53832Y135266D01*
X53788Y135873D01*
X54089Y136324D01*
X54254Y137153D01*
X54089Y137983D01*
X53619Y138686D01*
X52916Y139156D01*
X52087Y139321D01*
X51257Y139156D01*
X50554Y138686D01*
X50084Y137983D01*
X49919Y137153D01*
X50084Y136324D01*
X50385Y135873D01*
X50341Y135266D01*
X50009Y134767D01*
X49892Y134180D01*
Y133058D01*
X50009Y132470D01*
X50341Y131972D01*
Y131764D01*
X50180Y131313D01*
X48211D01*
X47647Y131200D01*
X47169Y130881D01*
X45733Y129444D01*
X43367D01*
Y122830D01*
X44123D01*
Y121915D01*
X43855Y121737D01*
X43522Y121238D01*
X43405Y120651D01*
Y119529D01*
X43522Y118941D01*
X43855Y118443D01*
Y117957D01*
X43522Y117459D01*
X43405Y116871D01*
Y116250D01*
X41023D01*
Y120482D01*
X40094D01*
Y122830D01*
X40336D01*
Y129444D01*
X38606D01*
X38219Y129703D01*
X37460Y129854D01*
X34443D01*
X34420Y129869D01*
X33828Y129987D01*
X32372D01*
X31780Y129869D01*
X31279Y129534D01*
X30944Y129033D01*
X30840Y128512D01*
X30340Y128561D01*
X30340Y142136D01*
X30041Y142859D01*
X28583Y144316D01*
X28591Y144468D01*
X28611Y144534D01*
X28763Y144843D01*
X29422Y145116D01*
X29636Y145330D01*
X30098Y145139D01*
Y143681D01*
X36634D01*
Y144944D01*
X36639Y144957D01*
X36639Y157092D01*
X36780Y157303D01*
X36821Y157364D01*
X36905Y157787D01*
X37112Y158209D01*
X37460Y158140D01*
X38290Y158305D01*
X38474Y158428D01*
X38948D01*
X39132Y158305D01*
X39962Y158140D01*
X40791Y158305D01*
X40976Y158428D01*
X41400D01*
X41758Y158188D01*
Y148209D01*
Y146057D01*
X41258Y145789D01*
X41110Y145888D01*
X40523Y146005D01*
X39401D01*
X38813Y145888D01*
X38315Y145555D01*
X37982Y145057D01*
X37865Y144470D01*
Y143666D01*
X37069Y142870D01*
X36750Y142392D01*
X36638Y141828D01*
Y140468D01*
X35887D01*
Y133854D01*
X44076D01*
Y140468D01*
X39584D01*
Y141218D01*
X39982Y141615D01*
X40523D01*
X41110Y141732D01*
X41608Y142065D01*
X42094D01*
X42592Y141732D01*
X43180Y141615D01*
X44302D01*
X44890Y141732D01*
X45388Y142065D01*
X45721Y142563D01*
X45838Y143151D01*
Y144470D01*
X45724Y145040D01*
Y146226D01*
X49262D01*
X49833Y146112D01*
X51152D01*
X51672Y146216D01*
X53271D01*
X53281Y146209D01*
X53868Y146093D01*
X55187D01*
X55775Y146209D01*
X55799Y146226D01*
X56831D01*
Y146004D01*
X57643D01*
Y144605D01*
X57588Y144331D01*
Y142874D01*
X57706Y142283D01*
X58041Y141781D01*
X58542Y141446D01*
X59134Y141329D01*
X60276D01*
X60867Y141446D01*
X61368Y141781D01*
X61435Y141881D01*
X61935Y141729D01*
Y135398D01*
X61435Y135101D01*
X61004Y135187D01*
X59547D01*
X59007Y135080D01*
X58087D01*
X58019Y135125D01*
X57189Y135290D01*
X56360Y135125D01*
X55657Y134655D01*
X55187Y133952D01*
X55022Y133123D01*
X55187Y132293D01*
X55657Y131590D01*
X56360Y131120D01*
X57189Y130955D01*
X57988Y131114D01*
X58735D01*
Y129459D01*
X58671Y129134D01*
Y123228D01*
X58790Y122629D01*
X59129Y122121D01*
X59637Y121782D01*
X60236Y121663D01*
X60835Y121782D01*
X61221Y122039D01*
X61606Y121782D01*
X62205Y121663D01*
X62804Y121782D01*
X63189Y122039D01*
X63574Y121782D01*
X64173Y121663D01*
X64772Y121782D01*
X65158Y122039D01*
X65543Y121782D01*
X66142Y121663D01*
X66741Y121782D01*
X67126Y122039D01*
X67511Y121782D01*
X68110Y121663D01*
X68709Y121782D01*
X69095Y122039D01*
X69480Y121782D01*
X70079Y121663D01*
X70678Y121782D01*
X71063Y122039D01*
X71448Y121782D01*
X72047Y121663D01*
X72646Y121782D01*
X73032Y122039D01*
X73417Y121782D01*
X74016Y121663D01*
X74615Y121782D01*
X75000Y122039D01*
X75385Y121782D01*
X75984Y121663D01*
X76583Y121782D01*
X76968Y122039D01*
X77354Y121782D01*
X77953Y121663D01*
X78552Y121782D01*
X78937Y122039D01*
X79322Y121782D01*
X79921Y121663D01*
X80520Y121782D01*
X80905Y122039D01*
X81291Y121782D01*
X81890Y121663D01*
X82489Y121782D01*
X82874Y122039D01*
X83259Y121782D01*
X83858Y121663D01*
X84457Y121782D01*
X84965Y122121D01*
X85305Y122629D01*
X85424Y123228D01*
Y129134D01*
X85305Y129733D01*
X84965Y130241D01*
X84457Y130580D01*
X83858Y130699D01*
X83259Y130580D01*
X82874Y130323D01*
X82489Y130580D01*
X81890Y130699D01*
X81291Y130580D01*
X81065Y130430D01*
X80703Y130616D01*
X80708Y131130D01*
X81034Y131348D01*
X81369Y131850D01*
X81486Y132441D01*
Y133898D01*
X81369Y134489D01*
X81353Y134512D01*
Y135856D01*
X81370Y135880D01*
X81487Y136472D01*
Y137928D01*
X81370Y138520D01*
X81353Y138544D01*
Y149079D01*
X83274Y150999D01*
X86400D01*
X86517Y150882D01*
X86639Y150800D01*
X86721Y150678D01*
X91370Y146029D01*
X92333Y145386D01*
X93470Y145159D01*
X105671D01*
Y142910D01*
X105630Y142700D01*
X105671Y142490D01*
Y138107D01*
X105897Y136970D01*
X106541Y136006D01*
X106951Y135597D01*
Y128111D01*
X106451Y127843D01*
X106007Y128140D01*
X105177Y128305D01*
X104348Y128140D01*
X103644Y127670D01*
X103605Y127611D01*
X95525D01*
X94961Y127498D01*
X94483Y127179D01*
X91791Y124487D01*
X91329Y124679D01*
Y129134D01*
X91272Y129424D01*
Y131436D01*
X91785Y131779D01*
X91785Y131779D01*
X91935Y131879D01*
X92269Y132380D01*
X92387Y132972D01*
Y134428D01*
X92321Y134760D01*
Y136538D01*
X92357Y136592D01*
X92522Y137421D01*
X92357Y138251D01*
X91887Y138954D01*
X91184Y139424D01*
X90354Y139589D01*
X89648Y139448D01*
X89536Y139512D01*
X89164Y139832D01*
X89282Y140423D01*
Y141880D01*
X89164Y142471D01*
X89148Y142495D01*
Y144241D01*
X89168Y144271D01*
X89333Y145100D01*
X89168Y145930D01*
X88698Y146633D01*
X87995Y147103D01*
X87165Y147268D01*
X86336Y147103D01*
X85633Y146633D01*
X85163Y145930D01*
X84998Y145100D01*
X85163Y144271D01*
X85182Y144241D01*
Y142495D01*
X85167Y142471D01*
X85049Y141880D01*
Y140423D01*
X85167Y139832D01*
X85182Y139808D01*
Y135630D01*
X85333Y134871D01*
X85763Y134228D01*
X86330Y133849D01*
Y129638D01*
X86230Y129134D01*
Y123228D01*
X86349Y122629D01*
X86688Y122121D01*
X87196Y121782D01*
X87795Y121663D01*
X88375Y121778D01*
X88413Y121753D01*
X88670Y121366D01*
X84717Y117413D01*
X71673D01*
X71633Y117473D01*
X70929Y117943D01*
X70100Y118108D01*
X69270Y117943D01*
X68567Y117473D01*
X68097Y116770D01*
X67932Y115940D01*
X68097Y115111D01*
X68567Y114407D01*
X69270Y113937D01*
X70100Y113772D01*
X70929Y113937D01*
X71622Y114400D01*
X71683Y114403D01*
X71974Y114381D01*
X72167Y113897D01*
X64035Y105765D01*
X63739Y105322D01*
X63635Y104800D01*
Y93126D01*
X60654Y90144D01*
X56036D01*
X55914Y90226D01*
X55315Y90345D01*
X49409D01*
X48810Y90226D01*
X48303Y89886D01*
X47963Y89379D01*
X47844Y88779D01*
X47963Y88180D01*
X48303Y87673D01*
X48810Y87333D01*
X49409Y87214D01*
X53470D01*
X53661Y86752D01*
X52735Y85826D01*
X52439Y85383D01*
X52335Y84861D01*
Y66303D01*
X52439Y65781D01*
X52735Y65338D01*
X61888Y56185D01*
X61697Y55723D01*
X55300Y55723D01*
X54577Y55423D01*
X51363Y52210D01*
X51064Y51487D01*
X51064Y32592D01*
X51363Y31868D01*
X53877Y29355D01*
X54600Y29055D01*
X63724Y29055D01*
X63761Y29000D01*
X63761Y7900D01*
X63948Y7448D01*
X63948Y7448D01*
X65577Y5819D01*
X66029Y5632D01*
X73352D01*
X73804Y5819D01*
X75318Y7333D01*
X75411Y7558D01*
X75506Y7784D01*
X75540Y28999D01*
X75540Y29000D01*
X75540Y29000D01*
X75447Y29224D01*
X75354Y29451D01*
X75353Y29452D01*
X75353Y29452D01*
X75127Y29546D01*
X74902Y29639D01*
X74901Y29639D01*
X74901Y29639D01*
X73391D01*
X73113Y30055D01*
X73123Y30078D01*
X73123Y35301D01*
X73357Y35435D01*
X73623Y35485D01*
X89573Y19535D01*
X90016Y19239D01*
X90538Y19135D01*
X91146D01*
X91459Y18635D01*
X91332Y18000D01*
X91205Y17873D01*
X90600Y17993D01*
X88376D01*
X87573Y17833D01*
X86893Y17379D01*
X86438Y16698D01*
X86279Y15896D01*
Y8514D01*
X86438Y7711D01*
X86893Y7031D01*
X87573Y6576D01*
X88376Y6416D01*
X90600D01*
X91403Y6576D01*
X92084Y7031D01*
X92538Y7711D01*
X92698Y8514D01*
Y15268D01*
X93302Y15872D01*
X93500Y15832D01*
X94330Y15997D01*
X95033Y16467D01*
X95503Y17170D01*
X95668Y18000D01*
X95541Y18635D01*
X95854Y19135D01*
X101646D01*
X101959Y18635D01*
X101858Y18131D01*
X101483Y17886D01*
X101354Y17843D01*
X100600Y17993D01*
X98376D01*
X97573Y17833D01*
X96893Y17379D01*
X96438Y16698D01*
X96279Y15896D01*
Y8514D01*
X96438Y7711D01*
X96893Y7031D01*
X97573Y6576D01*
X98376Y6416D01*
X100600D01*
X101403Y6576D01*
X102084Y7031D01*
X102538Y7711D01*
X102698Y8514D01*
Y14884D01*
X103047Y15117D01*
X103802Y15872D01*
X104000Y15832D01*
X104830Y15997D01*
X105533Y16467D01*
X106003Y17170D01*
X106168Y18000D01*
X106041Y18635D01*
X106354Y19135D01*
X107027D01*
X107778Y18384D01*
X107613Y17841D01*
X107573Y17833D01*
X106893Y17379D01*
X106438Y16698D01*
X106279Y15896D01*
Y8514D01*
X106438Y7711D01*
X106893Y7031D01*
X107573Y6576D01*
X108376Y6416D01*
X110600D01*
X111403Y6576D01*
X112083Y7031D01*
X112538Y7711D01*
X112698Y8514D01*
Y14238D01*
X113110Y14494D01*
X113198Y14492D01*
X114000Y14332D01*
X114830Y14497D01*
X115533Y14967D01*
X115779Y15335D01*
X116279Y15183D01*
Y8514D01*
X116438Y7711D01*
X116893Y7031D01*
X117573Y6576D01*
X118376Y6416D01*
X120600D01*
X121403Y6576D01*
X122083Y7031D01*
X122538Y7711D01*
X122698Y8514D01*
Y10238D01*
X126279D01*
Y8514D01*
X126438Y7711D01*
X126893Y7031D01*
X127573Y6576D01*
X128376Y6416D01*
X130600D01*
X131403Y6576D01*
X132083Y7031D01*
X132538Y7711D01*
X132698Y8514D01*
Y15896D01*
X132538Y16698D01*
X132083Y17379D01*
X131403Y17833D01*
X130859Y17942D01*
Y21851D01*
X131033Y21967D01*
X131503Y22670D01*
X131668Y23500D01*
X131562Y24030D01*
X132023Y24276D01*
X147800Y8500D01*
X148763Y7856D01*
X149900Y7630D01*
X236100D01*
X237237Y7856D01*
X238200Y8500D01*
X242100Y12400D01*
X242744Y13363D01*
X242970Y14500D01*
Y17430D01*
X243363Y18017D01*
X243954D01*
X247192Y14779D01*
X247836Y14349D01*
X248594Y14198D01*
X251019D01*
X251042Y14182D01*
X251634Y14065D01*
X251674D01*
X253355Y12384D01*
X253998Y11954D01*
X254757Y11804D01*
X269252D01*
X270011Y11954D01*
X270654Y12384D01*
X272872Y14602D01*
X273302Y15245D01*
X273452Y16004D01*
Y16398D01*
X274128D01*
Y16161D01*
X274232Y15639D01*
X274528Y15196D01*
X275354Y14370D01*
X275797Y14074D01*
X276319Y13970D01*
X280690D01*
X281212Y14074D01*
X281655Y14370D01*
X283367Y16082D01*
X283663Y16524D01*
X283766Y17047D01*
Y23977D01*
X283663Y24499D01*
X283367Y24942D01*
X279165Y29144D01*
Y31249D01*
X284251D01*
Y31479D01*
X284344D01*
X284866Y31583D01*
X285309Y31878D01*
X287965Y34535D01*
X288261Y34978D01*
X288365Y35500D01*
Y46538D01*
X288261Y47060D01*
X287965Y47503D01*
X286765Y48703D01*
Y60954D01*
X286800Y60977D01*
X292800D01*
X293523Y61277D01*
X293823Y62000D01*
Y77000D01*
X293523Y77723D01*
X292800Y78023D01*
X286800D01*
X286077Y77723D01*
X285777Y77000D01*
Y71806D01*
X285315Y71615D01*
X278265Y78665D01*
X277822Y78961D01*
X277300Y79065D01*
X248259D01*
X247925Y79565D01*
X248023Y79800D01*
Y85145D01*
X249835D01*
Y83181D01*
X254283D01*
Y89795D01*
X249835D01*
Y87875D01*
X248023D01*
Y88300D01*
X247723Y89023D01*
X247716Y89048D01*
X247778Y89141D01*
X247895Y89729D01*
Y90851D01*
X247868Y90988D01*
Y99383D01*
X250517Y102032D01*
X255761D01*
X257312Y100482D01*
Y97572D01*
X257312Y97572D01*
X257315Y97557D01*
Y94205D01*
X261764D01*
Y94205D01*
X262253Y94179D01*
X263572Y92861D01*
X263634Y92545D01*
X263969Y92043D01*
X264471Y91708D01*
X265062Y91591D01*
X265454D01*
X265712Y91539D01*
X265712Y91539D01*
X266295D01*
X267095Y90740D01*
Y88787D01*
X266709Y88581D01*
X266595Y88573D01*
X266044Y88683D01*
X264922D01*
X264334Y88566D01*
X263836Y88233D01*
X263582Y87853D01*
X261764D01*
Y89795D01*
X257315D01*
Y83181D01*
X261764D01*
Y85123D01*
X263582D01*
X263836Y84743D01*
X264118Y84555D01*
Y83945D01*
X263950Y83833D01*
X263480Y83130D01*
X263315Y82300D01*
X263480Y81471D01*
X263950Y80767D01*
X264653Y80297D01*
X265483Y80132D01*
X266312Y80297D01*
X267015Y80767D01*
X267485Y81471D01*
X267650Y82300D01*
X267485Y83130D01*
X267015Y83833D01*
X266847Y83945D01*
Y84555D01*
X267050Y84690D01*
X267389Y84743D01*
X267616D01*
X268114Y84410D01*
X268701Y84293D01*
X269240D01*
X269302Y84281D01*
X269302Y84281D01*
X269491D01*
X269684Y84243D01*
X269684Y84243D01*
X273460D01*
X274289Y84408D01*
X274992Y84878D01*
X275462Y85581D01*
X275627Y86410D01*
X275462Y87240D01*
X274992Y87943D01*
X274289Y88413D01*
X273460Y88578D01*
X271430D01*
Y91638D01*
X271265Y92467D01*
X270795Y93171D01*
X270795Y93171D01*
X268726Y95240D01*
X268022Y95710D01*
X267193Y95875D01*
X267193Y95875D01*
X266688D01*
X264260Y98303D01*
X263557Y98773D01*
X262727Y98938D01*
X262727Y98938D01*
X261764D01*
Y100819D01*
X261647D01*
Y101380D01*
X261647Y101380D01*
X261482Y102209D01*
X261012Y102912D01*
X261012Y102912D01*
X258192Y105733D01*
X257489Y106203D01*
X256659Y106368D01*
X256659Y106368D01*
X249619D01*
X248789Y106203D01*
X248086Y105733D01*
X248086Y105733D01*
X244167Y101814D01*
X243697Y101111D01*
X243532Y100281D01*
X243532Y100281D01*
Y90988D01*
X243505Y90851D01*
Y89729D01*
X243509Y89709D01*
X243192Y89323D01*
X237000D01*
X236277Y89023D01*
X235977Y88300D01*
Y79800D01*
X236075Y79565D01*
X235741Y79065D01*
X218358D01*
X218309Y79565D01*
X218713Y79645D01*
X219156Y79941D01*
X240242Y101027D01*
X240538Y101470D01*
X240642Y101992D01*
Y112004D01*
X240810Y112116D01*
X241280Y112819D01*
X241436Y113604D01*
X241860Y113871D01*
X241871Y113876D01*
X245012Y110735D01*
X245455Y110439D01*
X245977Y110335D01*
X271584D01*
X272106Y110439D01*
X272549Y110735D01*
X275308Y113494D01*
X277352D01*
X277498Y113015D01*
X277190Y112810D01*
X276328Y111521D01*
X276026Y110000D01*
X276328Y108479D01*
X277190Y107190D01*
X278479Y106328D01*
X280000Y106026D01*
X281521Y106328D01*
X282810Y107190D01*
X283671Y108479D01*
X283974Y110000D01*
X283671Y111521D01*
X282810Y112810D01*
X282503Y113015D01*
X282648Y113494D01*
X284859D01*
X285381Y113598D01*
X285824Y113894D01*
X288347Y116417D01*
X288479Y116329D01*
X290000Y116026D01*
X291521Y116329D01*
X292810Y117190D01*
X292945Y117392D01*
X293424Y117247D01*
Y112852D01*
X292945Y112707D01*
X292850Y112850D01*
X291542Y113723D01*
X290500Y113931D01*
Y110000D01*
Y106069D01*
X291542Y106277D01*
X292850Y107150D01*
X292945Y107293D01*
X293424Y107148D01*
Y102852D01*
X292945Y102707D01*
X292850Y102850D01*
X291542Y103723D01*
X290500Y103931D01*
Y100000D01*
Y96069D01*
X291542Y96277D01*
X292850Y97150D01*
X293092Y97513D01*
X293669Y97477D01*
X293824Y97246D01*
X296735Y94335D01*
Y63165D01*
X290535Y56965D01*
X290239Y56522D01*
X290135Y56000D01*
Y41500D01*
X290239Y40978D01*
X290535Y40535D01*
X298035Y33035D01*
X298478Y32739D01*
X299000Y32635D01*
X311189D01*
X311632Y32300D01*
X311797Y31471D01*
X312267Y30767D01*
X312435Y30655D01*
Y25212D01*
X312539Y24690D01*
X312835Y24247D01*
X314935Y22147D01*
Y9895D01*
X314435Y9744D01*
X314070Y10290D01*
X312781Y11152D01*
X311260Y11454D01*
X309739Y11152D01*
X308450Y10290D01*
X307588Y9001D01*
X307286Y7480D01*
X307588Y5959D01*
X308450Y4670D01*
X309739Y3809D01*
X311260Y3506D01*
X312781Y3809D01*
X314070Y4670D01*
X314435Y5217D01*
X314747Y5183D01*
X314950Y5088D01*
X315039Y4640D01*
X315335Y4197D01*
X317559Y1973D01*
X317351Y1473D01*
X287855D01*
Y10413D01*
X281241D01*
Y1473D01*
X265807D01*
Y10413D01*
X259193D01*
Y1473D01*
X1473D01*
Y82385D01*
X3937D01*
X4501Y82497D01*
X4979Y82817D01*
X5298Y83294D01*
X5410Y83858D01*
Y124409D01*
X5298Y124973D01*
X4979Y125451D01*
X4501Y125770D01*
X3937Y125883D01*
X1473D01*
Y203251D01*
X212029D01*
X212129Y202751D01*
X210267Y201980D01*
X208343Y200504D01*
X206866Y198579D01*
X205938Y196338D01*
X205621Y193933D01*
X205938Y191528D01*
X206866Y189287D01*
X208343Y187363D01*
X210267Y185886D01*
X212508Y184958D01*
X214913Y184641D01*
X217318Y184958D01*
X219559Y185886D01*
X221484Y187363D01*
X222961Y189287D01*
X223889Y191528D01*
X224205Y193933D01*
X223889Y196338D01*
X222961Y198579D01*
X221484Y200504D01*
X219559Y201980D01*
X217698Y202751D01*
X217798Y203251D01*
X384354D01*
Y160654D01*
D02*
G37*
G36*
X144045Y190381D02*
X144045Y181587D01*
X143027Y180570D01*
X130827Y180570D01*
X130827Y191414D01*
X143011Y191414D01*
X144045Y190381D01*
D02*
G37*
G36*
X51280Y176740D02*
X51560Y176640D01*
X52100Y176310D01*
X52420Y175980D01*
X52646Y175619D01*
X52770Y175220D01*
X52700Y175020D01*
X52493Y174902D01*
X49099D01*
X48810Y175200D01*
X48961Y175666D01*
X49130Y175920D01*
X49420Y176210D01*
X49650Y176420D01*
X50040Y176650D01*
X50410Y176760D01*
X51280Y176740D01*
D02*
G37*
G36*
X52790Y173800D02*
X52639Y173334D01*
X52470Y173080D01*
X52180Y172790D01*
X51950Y172580D01*
X51560Y172350D01*
X51190Y172240D01*
X50320Y172260D01*
X50040Y172360D01*
X49500Y172690D01*
X49180Y173020D01*
X48954Y173381D01*
X48830Y173780D01*
X48900Y173980D01*
X49107Y174098D01*
X52501D01*
X52790Y173800D01*
D02*
G37*
G36*
X283244Y173810D02*
X283244Y167381D01*
X282846Y166983D01*
X275760D01*
X275454Y166922D01*
X274142D01*
X272292Y168772D01*
X261332D01*
X258959Y166399D01*
Y155544D01*
X255415Y152000D01*
X246492D01*
X246492Y153846D01*
X246846Y154200D01*
X251224Y154200D01*
X254423Y157399D01*
X254423Y169626D01*
X259397Y174600D01*
X282454D01*
X283244Y173810D01*
D02*
G37*
G36*
X41400Y159067D02*
X31800D01*
Y160000D01*
X33467Y161667D01*
X41400D01*
Y159067D01*
D02*
G37*
G36*
X377883Y170265D02*
Y169439D01*
X378000Y168851D01*
X378333Y168353D01*
Y167867D01*
X378000Y167369D01*
X377883Y166781D01*
Y165659D01*
X378000Y165072D01*
X378333Y164574D01*
X378713Y164320D01*
Y163718D01*
X378479Y163672D01*
X377190Y162810D01*
X376328Y161521D01*
X376026Y160000D01*
X376328Y158479D01*
X377190Y157190D01*
X378479Y156328D01*
X380000Y156026D01*
X381521Y156328D01*
X382810Y157190D01*
X383671Y158479D01*
X383854Y159395D01*
X384354Y159345D01*
Y150937D01*
X383854Y150888D01*
X383723Y151542D01*
X382850Y152850D01*
X381542Y153723D01*
X380500Y153931D01*
Y150000D01*
X380000D01*
Y149500D01*
X376069D01*
X376277Y148458D01*
X377150Y147150D01*
X378214Y146439D01*
X378063Y145939D01*
X371937D01*
X371786Y146439D01*
X372850Y147150D01*
X373723Y148458D01*
X373931Y149500D01*
X366069D01*
X366277Y148458D01*
X367150Y147150D01*
X368214Y146439D01*
X368063Y145939D01*
X361937D01*
X361786Y146439D01*
X362850Y147150D01*
X363723Y148458D01*
X363931Y149500D01*
X360000D01*
Y150000D01*
X359500D01*
Y153931D01*
X358458Y153723D01*
X357165Y152859D01*
X356928Y152904D01*
X356665Y152984D01*
Y157115D01*
X357143Y157260D01*
X357190Y157190D01*
X358479Y156328D01*
X360000Y156026D01*
X361521Y156328D01*
X362810Y157190D01*
X363671Y158479D01*
X363974Y160000D01*
X363671Y161521D01*
X362810Y162810D01*
X361521Y163672D01*
X361365Y163702D01*
Y164320D01*
X361745Y164574D01*
X362078Y165072D01*
X362195Y165659D01*
Y166781D01*
X362078Y167369D01*
X361745Y167867D01*
Y168353D01*
X362078Y168851D01*
X362195Y169439D01*
Y170561D01*
X362078Y171149D01*
X361887Y171435D01*
X362145Y171935D01*
X366135D01*
X367805Y170265D01*
Y169439D01*
X367922Y168851D01*
X368255Y168353D01*
Y167867D01*
X367922Y167369D01*
X367805Y166781D01*
Y165659D01*
X367922Y165072D01*
X368255Y164574D01*
X368635Y164320D01*
Y163702D01*
X368479Y163672D01*
X367190Y162810D01*
X366329Y161521D01*
X366026Y160000D01*
X366329Y158479D01*
X367190Y157190D01*
X368479Y156328D01*
X370000Y156026D01*
X371521Y156328D01*
X372810Y157190D01*
X373672Y158479D01*
X373974Y160000D01*
X373672Y161521D01*
X372810Y162810D01*
X371521Y163672D01*
X371365Y163702D01*
Y164320D01*
X371745Y164574D01*
X372078Y165072D01*
X372195Y165659D01*
Y166781D01*
X372078Y167369D01*
X371745Y167867D01*
Y168353D01*
X372078Y168851D01*
X372195Y169439D01*
Y170561D01*
X372078Y171149D01*
X371745Y171647D01*
X371247Y171979D01*
X370659Y172096D01*
X369834D01*
X368557Y173373D01*
X368748Y173835D01*
X374313D01*
X377883Y170265D01*
D02*
G37*
G36*
X208977Y169741D02*
X208977Y155283D01*
X208404D01*
X208343Y155324D01*
X207752Y155441D01*
X206295D01*
X205704Y155324D01*
X205202Y154989D01*
X204867Y154488D01*
X204750Y153896D01*
Y152754D01*
X204867Y152163D01*
X205056Y151881D01*
X204791Y151381D01*
X203237D01*
X184324Y170294D01*
X184186Y170983D01*
X183630Y171817D01*
X183389Y171977D01*
X183541Y172477D01*
X206241D01*
X208977Y169741D01*
D02*
G37*
G36*
X112600Y189508D02*
X112345Y189338D01*
X111875Y188635D01*
X111710Y187805D01*
X111875Y186976D01*
X112345Y186272D01*
X112600Y186102D01*
Y184479D01*
X112345Y184308D01*
X111875Y183605D01*
X111710Y182776D01*
X111875Y181946D01*
X112345Y181243D01*
X113048Y180773D01*
X113878Y180608D01*
X114708Y180773D01*
X114737Y180793D01*
X115283D01*
X115550Y180293D01*
X115530Y180263D01*
X115413Y179675D01*
Y178553D01*
X115530Y177966D01*
X115863Y177468D01*
X116361Y177135D01*
X116475Y177112D01*
X116499Y177085D01*
X116665Y176565D01*
X116456Y176252D01*
X116338Y175661D01*
Y174204D01*
X116456Y173613D01*
X116791Y173111D01*
X116789Y172765D01*
X116471Y172290D01*
X116360Y171729D01*
Y171063D01*
X116261Y171022D01*
X115900Y170150D01*
Y165815D01*
X116261Y164943D01*
X117134Y164582D01*
X118516D01*
X119104Y164826D01*
X119693Y164582D01*
X121075D01*
X121947Y164943D01*
X122309Y165815D01*
Y170150D01*
X121997Y170902D01*
X123056Y171961D01*
X123376Y172439D01*
X123442Y172769D01*
X123475Y172776D01*
X123977Y173111D01*
X124312Y173613D01*
X124429Y174204D01*
Y175185D01*
X124700Y175590D01*
X124812Y176154D01*
Y177286D01*
X125084Y177468D01*
X125417Y177966D01*
X125533Y178553D01*
Y179675D01*
X125417Y180263D01*
X125415Y180264D01*
X125626Y180697D01*
X126123Y180776D01*
X126662Y180417D01*
X127798Y180191D01*
X128935Y180417D01*
X129342Y180689D01*
X129860Y180433D01*
X130104Y179847D01*
X130827Y179547D01*
X134036Y179547D01*
Y159516D01*
X124934Y150414D01*
X117077Y150376D01*
X116722Y150729D01*
Y153285D01*
X116829Y153329D01*
X117190Y154201D01*
Y158536D01*
X116829Y159408D01*
X115957Y159770D01*
X114575D01*
X113986Y159526D01*
X113398Y159770D01*
X112016D01*
X111612Y160039D01*
Y164312D01*
X112016Y164582D01*
X113398D01*
X114270Y164943D01*
X114631Y165815D01*
Y167689D01*
X114690Y167983D01*
X114631Y168276D01*
Y170150D01*
X114270Y171022D01*
X113398Y171384D01*
X112300D01*
Y172826D01*
X112727Y173111D01*
X113062Y173613D01*
X113179Y174204D01*
Y175661D01*
X113062Y176252D01*
X112727Y176753D01*
X112225Y177088D01*
X111634Y177206D01*
X110492D01*
X109901Y177088D01*
X109642Y176915D01*
X108557D01*
Y183125D01*
X108632Y183502D01*
Y188725D01*
X110569Y190662D01*
X112600D01*
Y189508D01*
D02*
G37*
G36*
X300241Y170112D02*
X300241Y148690D01*
X299742Y148483D01*
X297259Y150965D01*
X296817Y151261D01*
X296294Y151365D01*
X293703D01*
X293671Y151521D01*
X292810Y152810D01*
X291521Y153672D01*
X291000Y153775D01*
Y156225D01*
X291521Y156328D01*
X292810Y157190D01*
X293671Y158479D01*
X293974Y160000D01*
X293671Y161521D01*
X292810Y162810D01*
X291521Y163672D01*
X291000Y163775D01*
Y166225D01*
X291521Y166329D01*
X292810Y167190D01*
X293671Y168479D01*
X293974Y170000D01*
X293671Y171521D01*
X292810Y172810D01*
X291521Y173671D01*
X290000Y173974D01*
X288479Y173671D01*
X287190Y172810D01*
X286329Y171521D01*
X286026Y170000D01*
X286220Y169024D01*
X284767Y167571D01*
X284267Y167778D01*
X284267Y173810D01*
X283967Y174533D01*
X283177Y175323D01*
X282454Y175623D01*
X259397D01*
X258674Y175323D01*
X253700Y170349D01*
X253400Y169626D01*
X253400Y157823D01*
X250800Y155223D01*
X247999Y155223D01*
X247913Y155240D01*
X246457D01*
X245865Y155122D01*
X245842Y155106D01*
X244827D01*
X244803Y155122D01*
X244212Y155240D01*
X242755D01*
X242164Y155122D01*
X242140Y155106D01*
X240990D01*
X240960Y155126D01*
X240131Y155291D01*
X239301Y155126D01*
X238598Y154656D01*
X238128Y153953D01*
X237963Y153123D01*
X237564Y152839D01*
X232677D01*
X232495Y152803D01*
X229764D01*
Y148794D01*
X229529D01*
X229007Y148690D01*
X228564Y148394D01*
X223513Y143343D01*
X223284Y143000D01*
X220236D01*
Y147882D01*
X223812Y147882D01*
X224535Y148182D01*
X227308Y150954D01*
X227607Y151677D01*
X227607Y160459D01*
X245725Y178576D01*
X291778Y178576D01*
X300241Y170112D01*
D02*
G37*
G36*
X35800Y158400D02*
X36000Y158200D01*
X36000Y144957D01*
X35708Y144665D01*
X31000D01*
X31000Y147000D01*
X32200Y148200D01*
X32200Y157607D01*
X32153Y157681D01*
X32030Y158080D01*
X32100Y158280D01*
X32200Y158337D01*
Y158400D01*
X35800Y158400D01*
D02*
G37*
G36*
X30043Y151954D02*
X30043Y147183D01*
X28699Y145839D01*
X21776Y145839D01*
X18626Y142690D01*
X18626Y134034D01*
X17166Y132574D01*
X6407Y132574D01*
X4921Y134060D01*
X4921Y142053D01*
X6467Y143598D01*
X12523Y143598D01*
X20879Y151954D01*
X30043Y151954D01*
D02*
G37*
G36*
X157547Y153049D02*
X157190Y152810D01*
X156328Y151521D01*
X156026Y150000D01*
X156328Y148479D01*
X157190Y147190D01*
X158479Y146328D01*
X160000Y146026D01*
X161521Y146328D01*
X162810Y147190D01*
X163672Y148479D01*
X163846Y149354D01*
X165771Y151279D01*
X166231Y151033D01*
X166026Y150000D01*
X166329Y148479D01*
X167190Y147190D01*
X167559Y146943D01*
X167414Y146465D01*
X165100D01*
X164578Y146361D01*
X164135Y146065D01*
X161653Y143583D01*
X161521Y143672D01*
X160000Y143974D01*
X158479Y143672D01*
X157190Y142810D01*
X156328Y141521D01*
X156026Y140000D01*
X156328Y138479D01*
X157190Y137190D01*
X158479Y136328D01*
X160000Y136026D01*
X161521Y136328D01*
X162810Y137190D01*
X163672Y138479D01*
X163974Y140000D01*
X163672Y141521D01*
X163583Y141653D01*
X165665Y143735D01*
X167675D01*
X167826Y143235D01*
X167190Y142810D01*
X166329Y141521D01*
X166026Y140000D01*
X166329Y138479D01*
X166994Y137483D01*
X166727Y136983D01*
X165618D01*
X165096Y136879D01*
X164653Y136583D01*
X161653Y133583D01*
X161521Y133671D01*
X160000Y133974D01*
X158479Y133671D01*
X157190Y132810D01*
X156328Y131521D01*
X156298Y131365D01*
X146200D01*
X145678Y131261D01*
X145235Y130965D01*
X138059Y123790D01*
X137900Y123821D01*
X137298Y123701D01*
X136798Y124030D01*
Y138773D01*
X151552Y153527D01*
X157402D01*
X157547Y153049D01*
D02*
G37*
G36*
X382100Y145300D02*
X383100Y144300D01*
X383100Y135900D01*
X382200Y135000D01*
X358000D01*
X356900Y136100D01*
X356900Y144300D01*
X357900Y145300D01*
X382100Y145300D01*
D02*
G37*
G36*
X379148Y133861D02*
X378458Y133723D01*
X377150Y132850D01*
X376277Y131542D01*
X376069Y130500D01*
X380000D01*
Y130000D01*
X380500D01*
Y126069D01*
X381542Y126277D01*
X382850Y127150D01*
X383723Y128458D01*
X383854Y129112D01*
X384354Y129063D01*
Y120655D01*
X383854Y120605D01*
X383671Y121521D01*
X382810Y122810D01*
X381521Y123671D01*
X380000Y123974D01*
X378479Y123671D01*
X377190Y122810D01*
X376328Y121521D01*
X376026Y120000D01*
X376328Y118479D01*
X377190Y117190D01*
X378479Y116329D01*
X380000Y116026D01*
X381521Y116329D01*
X382810Y117190D01*
X383671Y118479D01*
X383854Y119395D01*
X384354Y119345D01*
Y110937D01*
X383854Y110888D01*
X383723Y111542D01*
X382850Y112850D01*
X381542Y113723D01*
X380500Y113931D01*
Y110000D01*
Y106069D01*
X381542Y106277D01*
X382850Y107150D01*
X383723Y108458D01*
X383854Y109112D01*
X384354Y109063D01*
Y100655D01*
X383854Y100605D01*
X383671Y101521D01*
X382810Y102810D01*
X381521Y103672D01*
X380000Y103974D01*
X378479Y103672D01*
X377190Y102810D01*
X376328Y101521D01*
X376026Y100000D01*
X376328Y98479D01*
X377190Y97190D01*
X378479Y96329D01*
X380000Y96026D01*
X381521Y96329D01*
X382810Y97190D01*
X383671Y98479D01*
X383854Y99395D01*
X384354Y99345D01*
Y90937D01*
X383854Y90888D01*
X383723Y91542D01*
X382850Y92850D01*
X381542Y93723D01*
X380500Y93931D01*
Y90000D01*
Y86069D01*
X381542Y86277D01*
X382850Y87150D01*
X383723Y88458D01*
X383854Y89112D01*
X384354Y89063D01*
Y80655D01*
X383854Y80605D01*
X383671Y81521D01*
X382810Y82810D01*
X381521Y83671D01*
X380000Y83974D01*
X378479Y83671D01*
X377190Y82810D01*
X376328Y81521D01*
X376026Y80000D01*
X376328Y78479D01*
X377190Y77190D01*
X378479Y76328D01*
X380000Y76026D01*
X381521Y76328D01*
X382810Y77190D01*
X383671Y78479D01*
X383854Y79395D01*
X384354Y79345D01*
Y70937D01*
X383854Y70888D01*
X383723Y71542D01*
X382850Y72850D01*
X381542Y73723D01*
X380500Y73931D01*
Y70000D01*
Y66069D01*
X381542Y66277D01*
X382850Y67150D01*
X383723Y68458D01*
X383854Y69112D01*
X384354Y69063D01*
Y60655D01*
X383854Y60605D01*
X383671Y61521D01*
X382810Y62810D01*
X381521Y63671D01*
X380000Y63974D01*
X378479Y63671D01*
X377190Y62810D01*
X376328Y61521D01*
X376026Y60000D01*
X376328Y58479D01*
X377190Y57190D01*
X378479Y56328D01*
X380000Y56026D01*
X381521Y56328D01*
X382810Y57190D01*
X383671Y58479D01*
X383854Y59395D01*
X384354Y59345D01*
Y50937D01*
X383854Y50888D01*
X383723Y51542D01*
X382850Y52850D01*
X381542Y53723D01*
X380500Y53931D01*
Y50000D01*
Y46069D01*
X381542Y46277D01*
X382850Y47150D01*
X383723Y48458D01*
X383854Y49112D01*
X384354Y49063D01*
Y1473D01*
X327890D01*
X327683Y1973D01*
X329607Y3897D01*
X329739Y3809D01*
X331260Y3506D01*
X332781Y3809D01*
X334070Y4670D01*
X334931Y5959D01*
X335234Y7480D01*
X334931Y9001D01*
X334070Y10290D01*
X332781Y11152D01*
X331260Y11454D01*
X329739Y11152D01*
X328450Y10290D01*
X327588Y9001D01*
X327286Y7480D01*
X327588Y5959D01*
X327677Y5827D01*
X325714Y3865D01*
X323726D01*
X323581Y4343D01*
X324070Y4670D01*
X324931Y5959D01*
X325234Y7480D01*
X324931Y9001D01*
X324070Y10290D01*
X322781Y11152D01*
X322625Y11183D01*
Y24579D01*
X322521Y25101D01*
X322225Y25544D01*
X319227Y28542D01*
X319266Y28740D01*
X319101Y29570D01*
X318631Y30273D01*
X318463Y30385D01*
Y32902D01*
X318359Y33424D01*
X318063Y33867D01*
X315757Y36173D01*
X315948Y36635D01*
X332200D01*
X339895Y28940D01*
Y11378D01*
X337362D01*
Y3583D01*
X345158D01*
Y11378D01*
X342625D01*
Y29506D01*
X342521Y30028D01*
X342225Y30471D01*
X333731Y38965D01*
X333288Y39261D01*
X332766Y39365D01*
X301565D01*
X296865Y44065D01*
Y52435D01*
X303965Y59535D01*
X304261Y59978D01*
X304365Y60500D01*
Y64131D01*
X304865Y64454D01*
X305478Y64332D01*
X305676Y64372D01*
X306313Y63735D01*
X306756Y63439D01*
X307122Y63366D01*
X307268Y62862D01*
X307190Y62810D01*
X306329Y61521D01*
X306026Y60000D01*
X306329Y58479D01*
X306887Y57644D01*
X306656Y57089D01*
X306194Y56997D01*
X305491Y56527D01*
X305021Y55823D01*
X304856Y54994D01*
X305021Y54164D01*
X305491Y53461D01*
X306194Y52991D01*
X306649Y52901D01*
X306879Y52345D01*
X306329Y51521D01*
X306026Y50000D01*
X306329Y48479D01*
X307190Y47190D01*
X308479Y46328D01*
X310000Y46026D01*
X311521Y46328D01*
X312810Y47190D01*
X313671Y48479D01*
X313974Y50000D01*
X313671Y51521D01*
X312810Y52810D01*
X312300Y53151D01*
X312445Y53629D01*
X317554D01*
X317700Y53151D01*
X317190Y52810D01*
X316329Y51521D01*
X316026Y50000D01*
X316329Y48479D01*
X317190Y47190D01*
X318479Y46328D01*
X320000Y46026D01*
X321521Y46328D01*
X322810Y47190D01*
X323672Y48479D01*
X323974Y50000D01*
X323672Y51521D01*
X322810Y52810D01*
X322300Y53151D01*
X322446Y53629D01*
X327554D01*
X327700Y53151D01*
X327190Y52810D01*
X326328Y51521D01*
X326026Y50000D01*
X326328Y48479D01*
X327190Y47190D01*
X328479Y46328D01*
X330000Y46026D01*
X331521Y46328D01*
X332810Y47190D01*
X333671Y48479D01*
X333974Y50000D01*
X333671Y51521D01*
X332810Y52810D01*
X332300Y53151D01*
X332446Y53629D01*
X337555D01*
X337700Y53151D01*
X337190Y52810D01*
X336329Y51521D01*
X336026Y50000D01*
X336329Y48479D01*
X337190Y47190D01*
X338479Y46328D01*
X340000Y46026D01*
X341521Y46328D01*
X342810Y47190D01*
X343671Y48479D01*
X343974Y50000D01*
X343671Y51521D01*
X342810Y52810D01*
X342300Y53151D01*
X342445Y53629D01*
X342994D01*
X343516Y53733D01*
X343959Y54029D01*
X345765Y55835D01*
X346061Y56278D01*
X346165Y56800D01*
Y57824D01*
X346665Y57976D01*
X347190Y57190D01*
X348479Y56328D01*
X350000Y56026D01*
X351521Y56328D01*
X352810Y57190D01*
X353435Y58126D01*
X353935Y57974D01*
Y52026D01*
X353435Y51874D01*
X352810Y52810D01*
X351521Y53671D01*
X350000Y53974D01*
X348479Y53671D01*
X347190Y52810D01*
X346328Y51521D01*
X346026Y50000D01*
X346328Y48479D01*
X347190Y47190D01*
X348479Y46328D01*
X350000Y46026D01*
X351359Y46296D01*
X351605Y45836D01*
X350135Y44365D01*
X307645D01*
X307533Y44533D01*
X306830Y45003D01*
X306000Y45168D01*
X305170Y45003D01*
X304467Y44533D01*
X303997Y43830D01*
X303832Y43000D01*
X303997Y42171D01*
X304467Y41467D01*
X305170Y40997D01*
X306000Y40832D01*
X306830Y40997D01*
X307533Y41467D01*
X307645Y41635D01*
X350700D01*
X351222Y41739D01*
X351665Y42035D01*
X356265Y46635D01*
X356561Y47078D01*
X356585Y47196D01*
X357115Y47302D01*
X357190Y47190D01*
X358479Y46328D01*
X360000Y46026D01*
X361521Y46328D01*
X362810Y47190D01*
X363671Y48479D01*
X363974Y50000D01*
X363671Y51521D01*
X362810Y52810D01*
X361521Y53671D01*
X360000Y53974D01*
X358479Y53671D01*
X357190Y52810D01*
X357143Y52740D01*
X356665Y52885D01*
Y57115D01*
X357143Y57260D01*
X357190Y57190D01*
X358479Y56328D01*
X360000Y56026D01*
X361521Y56328D01*
X362810Y57190D01*
X363671Y58479D01*
X363974Y60000D01*
X363671Y61521D01*
X362810Y62810D01*
X361521Y63671D01*
X360000Y63974D01*
X358479Y63671D01*
X357190Y62810D01*
X357143Y62740D01*
X356665Y62885D01*
Y67115D01*
X357143Y67260D01*
X357190Y67190D01*
X358479Y66329D01*
X360000Y66026D01*
X361521Y66329D01*
X362810Y67190D01*
X363671Y68479D01*
X363974Y70000D01*
X363671Y71521D01*
X362810Y72810D01*
X361521Y73672D01*
X360000Y73974D01*
X358479Y73672D01*
X357190Y72810D01*
X357143Y72740D01*
X356665Y72885D01*
Y77115D01*
X357143Y77260D01*
X357190Y77190D01*
X358479Y76328D01*
X360000Y76026D01*
X361521Y76328D01*
X362810Y77190D01*
X363671Y78479D01*
X363974Y80000D01*
X363671Y81521D01*
X362810Y82810D01*
X361521Y83671D01*
X360000Y83974D01*
X358479Y83671D01*
X357190Y82810D01*
X357143Y82740D01*
X356665Y82885D01*
Y87115D01*
X357143Y87260D01*
X357190Y87190D01*
X358479Y86329D01*
X360000Y86026D01*
X361521Y86329D01*
X362810Y87190D01*
X363671Y88479D01*
X363974Y90000D01*
X363671Y91521D01*
X362810Y92810D01*
X361521Y93672D01*
X360000Y93974D01*
X358479Y93672D01*
X357190Y92810D01*
X357143Y92740D01*
X356665Y92885D01*
Y97115D01*
X357143Y97260D01*
X357190Y97190D01*
X358479Y96329D01*
X360000Y96026D01*
X361521Y96329D01*
X362810Y97190D01*
X363671Y98479D01*
X363974Y100000D01*
X363671Y101521D01*
X362810Y102810D01*
X361521Y103672D01*
X360000Y103974D01*
X358479Y103672D01*
X357190Y102810D01*
X357143Y102740D01*
X356665Y102885D01*
Y107115D01*
X357143Y107260D01*
X357190Y107190D01*
X358479Y106328D01*
X360000Y106026D01*
X361521Y106328D01*
X362810Y107190D01*
X363671Y108479D01*
X363974Y110000D01*
X363671Y111521D01*
X362810Y112810D01*
X361521Y113672D01*
X360000Y113974D01*
X358479Y113672D01*
X357190Y112810D01*
X357143Y112740D01*
X356665Y112885D01*
Y117115D01*
X357143Y117260D01*
X357190Y117190D01*
X358479Y116329D01*
X360000Y116026D01*
X361521Y116329D01*
X362810Y117190D01*
X363671Y118479D01*
X363974Y120000D01*
X363671Y121521D01*
X362810Y122810D01*
X361521Y123671D01*
X360000Y123974D01*
X358479Y123671D01*
X357190Y122810D01*
X357143Y122740D01*
X356665Y122885D01*
Y127115D01*
X357143Y127260D01*
X357190Y127190D01*
X358479Y126329D01*
X360000Y126026D01*
X361521Y126329D01*
X362810Y127190D01*
X363671Y128479D01*
X363974Y130000D01*
X363671Y131521D01*
X362810Y132810D01*
X361521Y133671D01*
X360569Y133861D01*
X360618Y134361D01*
X369382D01*
X369431Y133861D01*
X368479Y133671D01*
X367190Y132810D01*
X366329Y131521D01*
X366026Y130000D01*
X366329Y128479D01*
X367190Y127190D01*
X368479Y126329D01*
X370000Y126026D01*
X371521Y126329D01*
X372810Y127190D01*
X373672Y128479D01*
X373974Y130000D01*
X373672Y131521D01*
X372810Y132810D01*
X371521Y133671D01*
X370569Y133861D01*
X370618Y134361D01*
X379099D01*
X379148Y133861D01*
D02*
G37*
G36*
X325461Y167054D02*
X325461Y118037D01*
X321957Y114534D01*
X308290Y114616D01*
X306628Y116279D01*
X306661Y121800D01*
X308202Y123341D01*
X311690Y123341D01*
X314100Y125751D01*
X314100Y166415D01*
X294742Y185773D01*
X241672Y185773D01*
X220606Y164706D01*
X220606Y152210D01*
X219281Y150900D01*
X211600D01*
X210000Y152500D01*
X210000Y170164D01*
X206664Y173500D01*
X171735D01*
X171018Y173797D01*
X170000Y173931D01*
X168983Y173797D01*
X168265Y173500D01*
X165552D01*
X164562Y172510D01*
Y167473D01*
X161089Y164000D01*
X155300D01*
X153566Y164000D01*
X153566Y176066D01*
X155120Y177620D01*
X226140Y177620D01*
X239260Y190740D01*
X301775Y190740D01*
X325461Y167054D01*
D02*
G37*
G36*
X103644Y120121D02*
X104348Y119651D01*
X105177Y119486D01*
X106007Y119651D01*
X106451Y119948D01*
X106951Y119680D01*
Y111597D01*
X106564Y111280D01*
X106528Y111287D01*
X105072D01*
X104480Y111170D01*
X103979Y110835D01*
X103644Y110333D01*
X103600Y110111D01*
X103458Y110083D01*
X102980Y109763D01*
X102719Y109502D01*
X102122Y109612D01*
X102029Y109821D01*
X102037Y109834D01*
X102156Y110433D01*
X102037Y111032D01*
X101779Y111417D01*
X102037Y111802D01*
X102156Y112402D01*
X102037Y113001D01*
X101779Y113386D01*
X102037Y113771D01*
X102156Y114370D01*
X102037Y114969D01*
X101698Y115477D01*
X101190Y115816D01*
X100591Y115936D01*
X94685D01*
X94086Y115816D01*
X93578Y115477D01*
X93239Y114969D01*
X93120Y114370D01*
X93239Y113771D01*
X93496Y113386D01*
X93239Y113001D01*
X93120Y112402D01*
X93239Y111802D01*
X93496Y111417D01*
X93239Y111032D01*
X93120Y110433D01*
X93239Y109834D01*
X93496Y109449D01*
X93239Y109064D01*
X93120Y108465D01*
X93239Y107866D01*
X93496Y107480D01*
X93239Y107095D01*
X93120Y106496D01*
X93239Y105897D01*
X93496Y105512D01*
X93239Y105127D01*
X93120Y104528D01*
X93239Y103928D01*
X93496Y103543D01*
X93239Y103158D01*
X93120Y102559D01*
X93239Y101960D01*
X93496Y101575D01*
X93239Y101190D01*
X93120Y100591D01*
X93239Y99992D01*
X93496Y99606D01*
X93239Y99221D01*
X93120Y98622D01*
X93239Y98023D01*
X93496Y97638D01*
X93239Y97253D01*
X93120Y96653D01*
X93239Y96055D01*
X93496Y95669D01*
X93239Y95284D01*
X93120Y94685D01*
X93239Y94086D01*
X93578Y93578D01*
X94086Y93239D01*
X94685Y93120D01*
X100591D01*
X101190Y93239D01*
X101698Y93578D01*
X101950Y93956D01*
X107870Y93956D01*
Y91622D01*
X102422Y86174D01*
X101778Y85211D01*
X101552Y84074D01*
Y75886D01*
X101778Y74749D01*
X102422Y73785D01*
X103386Y73141D01*
X104523Y72915D01*
X105660Y73141D01*
X106623Y73785D01*
X107267Y74749D01*
X107493Y75886D01*
Y82844D01*
X114816Y90166D01*
X115271Y89914D01*
X115419Y89170D01*
X115889Y88467D01*
X116057Y88355D01*
Y87579D01*
X116160Y87056D01*
X116456Y86614D01*
X118535Y84535D01*
X118978Y84239D01*
X119500Y84135D01*
X149435D01*
X158535Y75035D01*
X158978Y74739D01*
X159500Y74635D01*
X210914D01*
X211399Y74135D01*
X211399Y66329D01*
X208935Y63865D01*
X187800D01*
X187278Y63761D01*
X186835Y63465D01*
X184548Y61178D01*
X184100Y61268D01*
X183271Y61103D01*
X182567Y60633D01*
X182455Y60465D01*
X173665D01*
X173474Y60927D01*
X180544Y67997D01*
X180837Y68055D01*
X181800Y68699D01*
X182444Y69662D01*
X182670Y70799D01*
X182444Y71936D01*
X181800Y72900D01*
X180837Y73544D01*
X179700Y73770D01*
X178563Y73544D01*
X177600Y72900D01*
X176956Y71936D01*
X176730Y70799D01*
X176956Y69662D01*
X177514Y68827D01*
X171052Y62365D01*
X118565D01*
X110465Y70465D01*
X110022Y70761D01*
X109500Y70865D01*
X90951D01*
X90799Y71365D01*
X91312Y71707D01*
X92195Y72591D01*
X92229Y72597D01*
X92933Y73067D01*
X93403Y73770D01*
X93568Y74600D01*
X93403Y75429D01*
X92933Y76133D01*
X92229Y76603D01*
X91400Y76768D01*
X91122Y77222D01*
X91210Y77354D01*
X91329Y77953D01*
Y83858D01*
X91210Y84457D01*
X90871Y84965D01*
X90363Y85305D01*
X89764Y85424D01*
X89165Y85305D01*
X88779Y85047D01*
X88394Y85305D01*
X87795Y85424D01*
X87196Y85305D01*
X86811Y85047D01*
X86426Y85305D01*
X85827Y85424D01*
X85228Y85305D01*
X84842Y85047D01*
X84457Y85305D01*
X83858Y85424D01*
X83259Y85305D01*
X82874Y85047D01*
X82489Y85305D01*
X81890Y85424D01*
X81291Y85305D01*
X80905Y85047D01*
X80520Y85305D01*
X79921Y85424D01*
X79322Y85305D01*
X78937Y85047D01*
X78552Y85305D01*
X77953Y85424D01*
X77354Y85305D01*
X76846Y84965D01*
X76506Y84457D01*
X76387Y83858D01*
Y77953D01*
X76506Y77354D01*
X76846Y76846D01*
X77354Y76506D01*
X77953Y76387D01*
X78552Y76506D01*
X78937Y76764D01*
X79322Y76506D01*
X79921Y76387D01*
X80520Y76506D01*
X80905Y76764D01*
X81291Y76506D01*
X81890Y76387D01*
X82489Y76506D01*
X82874Y76764D01*
X83259Y76506D01*
X83858Y76387D01*
X84457Y76506D01*
X84842Y76764D01*
X85228Y76506D01*
X85827Y76387D01*
X85936Y76409D01*
X86322Y76092D01*
Y74888D01*
X86092Y74734D01*
X85757Y74233D01*
X85640Y73642D01*
Y72185D01*
X85757Y71594D01*
X85962Y71287D01*
X85888Y70827D01*
X85795Y70706D01*
X85435Y70465D01*
X83355Y68385D01*
X82894Y68632D01*
X82968Y69000D01*
X82803Y69829D01*
X82333Y70533D01*
X81630Y71003D01*
X80800Y71168D01*
X79971Y71003D01*
X79267Y70533D01*
X79155Y70365D01*
X76844D01*
X76645Y70662D01*
Y71149D01*
X76978Y71647D01*
X77095Y72234D01*
Y73356D01*
X76978Y73944D01*
X76645Y74442D01*
X76265Y74696D01*
Y74726D01*
X76161Y75248D01*
X75865Y75691D01*
X75380Y76176D01*
Y77232D01*
X75462Y77354D01*
X75581Y77953D01*
Y83858D01*
X75462Y84457D01*
X75123Y84965D01*
X74615Y85305D01*
X74016Y85424D01*
X73912Y85403D01*
X73412Y85813D01*
Y98194D01*
X74760Y99542D01*
X74958Y99503D01*
X75788Y99668D01*
X76491Y100138D01*
X76961Y100841D01*
X77126Y101671D01*
X76961Y102500D01*
X76491Y103203D01*
X75788Y103673D01*
X74958Y103838D01*
X74129Y103673D01*
X73425Y103203D01*
X72956Y102500D01*
X72790Y101671D01*
X72830Y101473D01*
X71082Y99725D01*
X70786Y99282D01*
X70682Y98760D01*
Y87216D01*
X70221Y87025D01*
X69104Y88141D01*
X68662Y88437D01*
X68139Y88540D01*
X63563D01*
X63372Y89002D01*
X65965Y91596D01*
X66261Y92038D01*
X66365Y92561D01*
Y104235D01*
X74725Y112595D01*
X86212D01*
X86734Y112699D01*
X87177Y112995D01*
X92640Y118458D01*
X92917Y118371D01*
X93132Y118243D01*
X93239Y117708D01*
X93578Y117200D01*
X94086Y116861D01*
X94685Y116742D01*
X100591D01*
X101190Y116861D01*
X101698Y117200D01*
X102037Y117708D01*
X102156Y118307D01*
X102037Y118906D01*
X101698Y119414D01*
X101190Y119753D01*
X101012Y119789D01*
X101061Y120289D01*
X103532D01*
X103644Y120121D01*
D02*
G37*
G36*
X214409Y126307D02*
X218935D01*
Y116865D01*
X215570Y113500D01*
X215274Y113058D01*
X215171Y112535D01*
Y110337D01*
X215003Y110225D01*
X214533Y109522D01*
X214368Y108692D01*
X214533Y107863D01*
X215003Y107160D01*
X215706Y106690D01*
X216078Y106616D01*
X216243Y106073D01*
X211335Y101165D01*
X195545D01*
X195433Y101333D01*
X194729Y101803D01*
X193900Y101968D01*
X193070Y101803D01*
X192367Y101333D01*
X191897Y100629D01*
X191732Y99800D01*
X191897Y98971D01*
X192367Y98267D01*
X193070Y97797D01*
X193900Y97632D01*
X194729Y97797D01*
X195433Y98267D01*
X195545Y98435D01*
X211900D01*
X212150Y98230D01*
Y96924D01*
X210066Y94840D01*
X171876D01*
X171353Y94736D01*
X170911Y94441D01*
X166098Y89628D01*
X165900Y89668D01*
X165070Y89503D01*
X164367Y89033D01*
X164298Y88929D01*
X160561D01*
X150726Y98764D01*
X150918Y99226D01*
X154382D01*
X154904Y99330D01*
X155347Y99625D01*
X155503Y99782D01*
X156046Y99618D01*
X156277Y98458D01*
X157150Y97150D01*
X158458Y96277D01*
X159500Y96069D01*
Y100000D01*
X160000D01*
Y100500D01*
X163931D01*
X163723Y101542D01*
X162850Y102850D01*
X162103Y103349D01*
X162255Y103849D01*
X167745D01*
X167897Y103349D01*
X167150Y102850D01*
X166277Y101542D01*
X166069Y100500D01*
X170000D01*
X173931D01*
X173723Y101542D01*
X172850Y102850D01*
X172103Y103349D01*
X172255Y103849D01*
X184955D01*
X185067Y103681D01*
X185770Y103211D01*
X186600Y103046D01*
X187429Y103211D01*
X188133Y103681D01*
X188603Y104384D01*
X188768Y105213D01*
X188603Y106043D01*
X188133Y106746D01*
X187429Y107216D01*
X186600Y107381D01*
X185770Y107216D01*
X185067Y106746D01*
X184955Y106578D01*
X172855D01*
X172710Y107057D01*
X172850Y107150D01*
X173723Y108458D01*
X173931Y109500D01*
X170000D01*
Y110500D01*
X173931D01*
X173723Y111542D01*
X172895Y112782D01*
X173035Y113282D01*
X181253D01*
X181253Y113282D01*
X181778Y113386D01*
X182223Y113683D01*
X194912Y126373D01*
X214409D01*
Y126307D01*
D02*
G37*
G36*
X27643Y143810D02*
X29317Y142136D01*
X29317Y123147D01*
X32892Y119572D01*
X32892Y108984D01*
X31995Y108087D01*
X20039Y108087D01*
X20019Y109283D01*
X20369Y109640D01*
X24746Y109640D01*
X26218Y111112D01*
X26218Y116823D01*
X20503Y122538D01*
X20503Y142203D01*
X22110Y143810D01*
X27643Y143810D01*
D02*
G37*
G36*
X151866Y111839D02*
X152120Y111670D01*
X152410Y111380D01*
X152620Y111150D01*
X152850Y110760D01*
X152960Y110390D01*
X152940Y109520D01*
X152840Y109240D01*
X152510Y108700D01*
X152180Y108380D01*
X151819Y108153D01*
X151420Y108030D01*
X151220Y108100D01*
X151102Y108307D01*
Y111701D01*
X151400Y111990D01*
X151866Y111839D01*
D02*
G37*
G36*
X150380Y111900D02*
X150498Y111693D01*
Y108299D01*
X150200Y108010D01*
X149734Y108161D01*
X149480Y108330D01*
X149190Y108620D01*
X148980Y108850D01*
X148750Y109240D01*
X148640Y109610D01*
X148660Y110480D01*
X148760Y110760D01*
X149090Y111300D01*
X149420Y111620D01*
X149781Y111846D01*
X150180Y111970D01*
X150380Y111900D01*
D02*
G37*
G36*
X151966Y106039D02*
X152220Y105870D01*
X152510Y105580D01*
X152720Y105350D01*
X152950Y104960D01*
X153060Y104590D01*
X153040Y103720D01*
X152940Y103440D01*
X152610Y102900D01*
X152280Y102580D01*
X151919Y102354D01*
X151520Y102230D01*
X151320Y102300D01*
X151202Y102507D01*
Y105901D01*
X151500Y106190D01*
X151966Y106039D01*
D02*
G37*
G36*
X150280Y106100D02*
X150398Y105893D01*
Y102499D01*
X150100Y102210D01*
X149634Y102361D01*
X149380Y102530D01*
X149090Y102820D01*
X148880Y103050D01*
X148650Y103440D01*
X148540Y103810D01*
X148560Y104680D01*
X148660Y104960D01*
X148990Y105500D01*
X149320Y105820D01*
X149681Y106046D01*
X150080Y106170D01*
X150280Y106100D01*
D02*
G37*
G36*
X235997Y125672D02*
Y115563D01*
X236101Y115041D01*
X236397Y114598D01*
X237149Y113847D01*
X237109Y113649D01*
X237274Y112819D01*
X237744Y112116D01*
X237912Y112004D01*
Y102557D01*
X233275Y97920D01*
X230531D01*
X230465Y98000D01*
Y126307D01*
X235363D01*
X235997Y125672D01*
D02*
G37*
G36*
X157281Y88349D02*
X157501Y87939D01*
X157501D01*
X157501Y87939D01*
X157500Y83138D01*
X157000Y82930D01*
X151244Y88687D01*
X150801Y88982D01*
X150278Y89086D01*
X129198D01*
X128787Y89586D01*
X128868Y89990D01*
X128703Y90819D01*
X128233Y91523D01*
X127530Y91992D01*
X126700Y92157D01*
X126246Y92067D01*
X126051Y92538D01*
X126224Y92654D01*
X126868Y93618D01*
X127094Y94754D01*
X126868Y95891D01*
X126290Y96757D01*
X126453Y97257D01*
X142955D01*
X143067Y97089D01*
X143771Y96619D01*
X144600Y96454D01*
X145430Y96619D01*
X146133Y97089D01*
X146245Y97257D01*
X148373D01*
X157281Y88349D01*
D02*
G37*
G36*
X305500Y172860D02*
X305500Y105840D01*
X307481Y103859D01*
X311467Y103859D01*
X313220Y102106D01*
X313220Y98120D01*
X311500Y96400D01*
X307367Y96400D01*
X301264Y102503D01*
X301264Y170536D01*
X292201Y179599D01*
X245301Y179599D01*
X226585Y160882D01*
X226585Y151677D01*
X223812Y148905D01*
X217676Y148905D01*
X217323Y149258D01*
X217323Y149893D01*
X217344Y149897D01*
X220478Y149900D01*
X222195Y151618D01*
X222195Y164007D01*
X242345Y184157D01*
X294203D01*
X305500Y172860D01*
D02*
G37*
G36*
X161280Y87670D02*
X161560Y87570D01*
X162100Y87240D01*
X162420Y86910D01*
X162646Y86549D01*
X162770Y86150D01*
X162700Y85950D01*
X162493Y85832D01*
X159099D01*
X158810Y86130D01*
X158961Y86596D01*
X159130Y86850D01*
X159420Y87140D01*
X159650Y87350D01*
X160040Y87580D01*
X160410Y87690D01*
X161280Y87670D01*
D02*
G37*
G36*
X162790Y84730D02*
X162639Y84264D01*
X162470Y84010D01*
X162180Y83720D01*
X161950Y83510D01*
X161560Y83280D01*
X161190Y83170D01*
X160320Y83190D01*
X160040Y83290D01*
X159500Y83620D01*
X159180Y83950D01*
X158953Y84311D01*
X158830Y84710D01*
X158900Y84910D01*
X159107Y85028D01*
X162501D01*
X162790Y84730D01*
D02*
G37*
G36*
X222500Y68100D02*
X218900Y64500D01*
X212038Y64500D01*
X212038Y74600D01*
X222500Y74600D01*
Y68100D01*
D02*
G37*
G36*
X231743Y56173D02*
X231198Y55628D01*
X231000Y55668D01*
X230170Y55503D01*
X229467Y55033D01*
X228997Y54330D01*
X228832Y53500D01*
X228997Y52671D01*
X229467Y51967D01*
X230170Y51497D01*
X231000Y51332D01*
X231830Y51497D01*
X232533Y51967D01*
X232991Y52653D01*
X233102Y52671D01*
X233398D01*
X233509Y52653D01*
X233967Y51967D01*
X234670Y51497D01*
X235500Y51332D01*
X236330Y51497D01*
X237033Y51967D01*
X237145Y52135D01*
X237935D01*
X247635Y42435D01*
Y37000D01*
X247739Y36478D01*
X248035Y36035D01*
X253047Y31023D01*
X253489Y30727D01*
X254012Y30623D01*
X254730D01*
X254881Y30123D01*
X254865Y30112D01*
X254395Y29409D01*
X254230Y28580D01*
X254395Y27750D01*
X254865Y27047D01*
X255568Y26577D01*
X256398Y26412D01*
X256828Y26498D01*
X259158D01*
X259383Y26347D01*
X259970Y26230D01*
X261289D01*
X261877Y26347D01*
X262375Y26680D01*
X262708Y27178D01*
X262825Y27766D01*
Y28888D01*
X262708Y29475D01*
X262375Y29974D01*
Y30460D01*
X262708Y30958D01*
X262811Y31479D01*
X266536D01*
Y31249D01*
X271794D01*
Y29989D01*
X270347Y28543D01*
X269986Y28003D01*
X269860Y27365D01*
Y27121D01*
X269852Y27116D01*
X269517Y26615D01*
X269399Y26024D01*
Y24567D01*
X269492Y24102D01*
X269429Y23602D01*
X269429D01*
X269429Y23602D01*
Y16768D01*
X268430Y15769D01*
X255578D01*
X254636Y16712D01*
Y16752D01*
X254518Y17343D01*
X254183Y17845D01*
X253682Y18180D01*
X253091Y18297D01*
X251634D01*
X251042Y18180D01*
X251019Y18164D01*
X249416D01*
X246178Y21402D01*
X245534Y21832D01*
X244776Y21983D01*
X243363D01*
X242810Y22810D01*
X241521Y23672D01*
X240000Y23974D01*
X238479Y23672D01*
X237190Y22810D01*
X236329Y21521D01*
X236026Y20000D01*
X236329Y18479D01*
X237030Y17430D01*
Y15730D01*
X234870Y13570D01*
X151130D01*
X132100Y32600D01*
X131300Y33135D01*
X131452Y33635D01*
X171835D01*
X182235Y23235D01*
X182678Y22939D01*
X183200Y22835D01*
X186102D01*
Y16102D01*
X193898D01*
Y22835D01*
X195235D01*
X196417Y21653D01*
X196328Y21521D01*
X196026Y20000D01*
X196328Y18479D01*
X197190Y17190D01*
X198479Y16329D01*
X200000Y16026D01*
X201521Y16329D01*
X202810Y17190D01*
X203672Y18479D01*
X203974Y20000D01*
X203672Y21521D01*
X202810Y22810D01*
X201521Y23672D01*
X200195Y23935D01*
X200244Y24435D01*
X203635D01*
X206417Y21653D01*
X206329Y21521D01*
X206026Y20000D01*
X206329Y18479D01*
X207190Y17190D01*
X208479Y16329D01*
X210000Y16026D01*
X211521Y16329D01*
X212810Y17190D01*
X213671Y18479D01*
X213974Y20000D01*
X213671Y21521D01*
X212810Y22810D01*
X211521Y23672D01*
X210000Y23974D01*
X208479Y23672D01*
X208347Y23583D01*
X205165Y26765D01*
X204722Y27061D01*
X204200Y27165D01*
X203395D01*
X203127Y27665D01*
X203672Y28479D01*
X203974Y30000D01*
X203672Y31521D01*
X202810Y32810D01*
X201521Y33672D01*
X201365Y33702D01*
Y35935D01*
X208135Y42705D01*
X208635Y42498D01*
Y33702D01*
X208479Y33672D01*
X207190Y32810D01*
X206329Y31521D01*
X206026Y30000D01*
X206329Y28479D01*
X207190Y27190D01*
X208479Y26329D01*
X210000Y26026D01*
X211521Y26329D01*
X212810Y27190D01*
X213671Y28479D01*
X213974Y30000D01*
X213671Y31521D01*
X212810Y32810D01*
X211521Y33672D01*
X211365Y33702D01*
Y42435D01*
X218173Y49243D01*
X218635Y49052D01*
Y33702D01*
X218479Y33672D01*
X217190Y32810D01*
X216329Y31521D01*
X216026Y30000D01*
X216329Y28479D01*
X217190Y27190D01*
X218479Y26329D01*
X220000Y26026D01*
X221521Y26329D01*
X222810Y27190D01*
X223672Y28479D01*
X223974Y30000D01*
X223672Y31521D01*
X222810Y32810D01*
X221521Y33672D01*
X221365Y33702D01*
Y49504D01*
X228496Y56635D01*
X231552D01*
X231743Y56173D01*
D02*
G37*
G36*
X251035Y52035D02*
X251478Y51739D01*
X252000Y51635D01*
X274235D01*
X277002Y48868D01*
X276830Y48000D01*
X277056Y46863D01*
X277700Y45900D01*
X278663Y45256D01*
X279800Y45030D01*
X280937Y45256D01*
X281900Y45900D01*
X282191Y46335D01*
X282770Y46300D01*
X284135Y44935D01*
Y42200D01*
X283635Y42151D01*
X283554Y42560D01*
X283219Y43061D01*
X282717Y43396D01*
X282126Y43514D01*
X280984D01*
X280393Y43396D01*
X279891Y43061D01*
X279556Y42560D01*
X279439Y41969D01*
Y40512D01*
X279556Y39920D01*
X279889Y39422D01*
Y38446D01*
X274968D01*
X274330Y38320D01*
X273790Y37958D01*
X272825Y36994D01*
X272363Y37185D01*
Y38375D01*
X266847D01*
X266802Y38603D01*
X266467Y39105D01*
X265965Y39440D01*
X265374Y39557D01*
X264229D01*
X264143Y39574D01*
X262884D01*
X262825Y39634D01*
Y40049D01*
X262708Y40637D01*
X262375Y41135D01*
X261877Y41468D01*
X261289Y41585D01*
X259970D01*
X259383Y41468D01*
X259187Y41337D01*
X257179D01*
X257126Y41373D01*
X256296Y41538D01*
X255467Y41373D01*
X254764Y40903D01*
X254294Y40200D01*
X254129Y39370D01*
X254294Y38541D01*
X254764Y37837D01*
X255158Y37574D01*
X255007Y37073D01*
X253857D01*
X252165Y38765D01*
Y44200D01*
X252061Y44722D01*
X251765Y45165D01*
X240757Y56173D01*
X240948Y56635D01*
X246435D01*
X251035Y52035D01*
D02*
G37*
G36*
X82335Y40456D02*
Y40205D01*
X82439Y39683D01*
X82735Y39240D01*
X87940Y34035D01*
X88383Y33739D01*
X88906Y33635D01*
X100290D01*
X100568Y33220D01*
X100477Y33000D01*
Y28000D01*
X100777Y27277D01*
X101500Y26977D01*
X116000D01*
X116723Y27277D01*
X116828Y27529D01*
X128770D01*
X130276Y26023D01*
X130030Y25562D01*
X129500Y25668D01*
X128671Y25503D01*
X127967Y25033D01*
X127497Y24329D01*
X127332Y23500D01*
X127497Y22670D01*
X127967Y21967D01*
X128129Y21859D01*
Y17944D01*
X127573Y17833D01*
X126893Y17379D01*
X126438Y16698D01*
X126279Y15896D01*
Y14172D01*
X122698D01*
Y15896D01*
X122538Y16698D01*
X122083Y17379D01*
X121403Y17833D01*
X120853Y17943D01*
Y19348D01*
X120749Y19871D01*
X120453Y20313D01*
X117802Y22965D01*
X117359Y23261D01*
X116837Y23365D01*
X91592D01*
X77265Y37692D01*
Y40085D01*
X77765Y40396D01*
X78376Y40275D01*
X80600D01*
X81403Y40434D01*
X81835Y40723D01*
X82335Y40456D01*
D02*
G37*
G36*
X282261Y68412D02*
Y65278D01*
X281820Y65042D01*
X281730Y65103D01*
X280900Y65268D01*
X280070Y65103D01*
X279367Y64633D01*
X279255Y64465D01*
X276410D01*
X275887Y64361D01*
X275445Y64065D01*
X271644Y60265D01*
X254841D01*
X250641Y64465D01*
X250198Y64761D01*
X249676Y64865D01*
X223500D01*
X222978Y64761D01*
X222535Y64465D01*
X191653Y33583D01*
X191521Y33672D01*
X190000Y33974D01*
X188479Y33672D01*
X187190Y32810D01*
X186328Y31521D01*
X186026Y30000D01*
X186328Y28479D01*
X186873Y27665D01*
X186605Y27165D01*
X184765D01*
X174465Y37465D01*
X174022Y37761D01*
X173500Y37865D01*
X90220D01*
X86665Y41420D01*
Y54861D01*
X87113Y55082D01*
X87295Y54943D01*
X88866Y54292D01*
X90551Y54070D01*
X92237Y54292D01*
X93807Y54943D01*
X95156Y55978D01*
X96191Y57327D01*
X96842Y58897D01*
X97064Y60583D01*
X96842Y62268D01*
X96191Y63839D01*
X95156Y65188D01*
X93921Y66135D01*
X94052Y66635D01*
X97934D01*
X98202Y66135D01*
X97997Y65829D01*
X97832Y65000D01*
X97997Y64170D01*
X98467Y63467D01*
X99171Y62997D01*
X100000Y62832D01*
X100830Y62997D01*
X101533Y63467D01*
X101645Y63635D01*
X107269D01*
X114873Y56032D01*
X115316Y55736D01*
X115838Y55632D01*
X117871D01*
X118187Y55132D01*
X118123Y54812D01*
Y51801D01*
X117573Y51692D01*
X116893Y51237D01*
X116438Y50557D01*
X116279Y49754D01*
Y42372D01*
X116438Y41569D01*
X116893Y40889D01*
X117573Y40434D01*
X118376Y40275D01*
X120600D01*
X121403Y40434D01*
X122083Y40889D01*
X122538Y41569D01*
X122698Y42372D01*
Y49754D01*
X122538Y50557D01*
X122083Y51237D01*
X121403Y51692D01*
X120853Y51801D01*
Y54246D01*
X122239Y55632D01*
X156491D01*
Y51508D01*
X162908D01*
Y54955D01*
X163408Y55162D01*
X164635Y53935D01*
Y49500D01*
X164739Y48978D01*
X165035Y48535D01*
X166610Y46960D01*
X167052Y46664D01*
X167575Y46560D01*
X171254D01*
Y44342D01*
X168892D01*
Y39500D01*
X175309D01*
Y43977D01*
X175977D01*
Y40000D01*
X176277Y39277D01*
X177000Y38977D01*
X183000D01*
X183723Y39277D01*
X184023Y40000D01*
Y56446D01*
X184034Y56516D01*
X184363Y56985D01*
X184930Y57097D01*
X185633Y57567D01*
X186103Y58271D01*
X186252Y59022D01*
X188365Y61135D01*
X209500D01*
X210022Y61239D01*
X210465Y61535D01*
X212791Y63861D01*
X218900Y63861D01*
X219352Y64048D01*
X222952Y67648D01*
X223139Y68100D01*
Y74600D01*
X223163Y74635D01*
X276038D01*
X282261Y68412D01*
D02*
G37*
G36*
X72100Y52306D02*
X72100Y30078D01*
X54600Y30078D01*
X52087Y32592D01*
X52087Y51487D01*
X55300Y54700D01*
X69706Y54700D01*
X72100Y52306D01*
D02*
G37*
G36*
X74866Y7785D02*
X73352Y6271D01*
X66029D01*
X64400Y7900D01*
X64400Y29000D01*
X74901Y29000D01*
X74866Y7785D01*
D02*
G37*
%LPC*%
G36*
X370579Y202196D02*
Y189476D01*
X383298D01*
X383092Y191565D01*
X382337Y194054D01*
X381111Y196348D01*
X379461Y198359D01*
X377450Y200009D01*
X375156Y201235D01*
X372667Y201990D01*
X370579Y202196D01*
D02*
G37*
G36*
X369579D02*
X367490Y201990D01*
X365001Y201235D01*
X362707Y200009D01*
X360696Y198359D01*
X359046Y196348D01*
X357820Y194054D01*
X357065Y191565D01*
X356859Y189476D01*
X369579D01*
Y202196D01*
D02*
G37*
G36*
X16248D02*
Y189476D01*
X28967D01*
X28762Y191565D01*
X28007Y194054D01*
X26781Y196348D01*
X25130Y198359D01*
X23120Y200009D01*
X20826Y201235D01*
X18337Y201990D01*
X16248Y202196D01*
D02*
G37*
G36*
X15248D02*
X13160Y201990D01*
X10670Y201235D01*
X8376Y200009D01*
X6366Y198359D01*
X4716Y196348D01*
X3489Y194054D01*
X2734Y191565D01*
X2529Y189476D01*
X15248D01*
Y202196D01*
D02*
G37*
G36*
X28967Y188476D02*
X16248D01*
Y175757D01*
X18337Y175963D01*
X20826Y176718D01*
X23120Y177944D01*
X25130Y179594D01*
X26781Y181605D01*
X28007Y183899D01*
X28762Y186388D01*
X28967Y188476D01*
D02*
G37*
G36*
X15248D02*
X2529D01*
X2734Y186388D01*
X3489Y183899D01*
X4716Y181605D01*
X6366Y179594D01*
X8376Y177944D01*
X10670Y176718D01*
X13160Y175963D01*
X15248Y175757D01*
Y188476D01*
D02*
G37*
G36*
X12500Y172504D02*
X11195Y172332D01*
X9978Y171828D01*
X8934Y171027D01*
X8133Y169982D01*
X7629Y168766D01*
X7457Y167461D01*
X7629Y166155D01*
X8133Y164939D01*
X8934Y163895D01*
X9978Y163093D01*
X11195Y162589D01*
X12500Y162417D01*
X13805Y162589D01*
X15022Y163093D01*
X16066Y163895D01*
X16868Y164939D01*
X17371Y166155D01*
X17543Y167461D01*
X17371Y168766D01*
X16868Y169982D01*
X16066Y171027D01*
X15022Y171828D01*
X13805Y172332D01*
X12500Y172504D01*
D02*
G37*
G36*
X11917Y153301D02*
Y149870D01*
X15348D01*
X15141Y150912D01*
X14267Y152220D01*
X12960Y153094D01*
X11917Y153301D01*
D02*
G37*
G36*
X10917Y153301D02*
X9875Y153094D01*
X8568Y152220D01*
X7694Y150912D01*
X7487Y149870D01*
X10917D01*
Y153301D01*
D02*
G37*
G36*
Y148870D02*
X7487D01*
X7694Y147828D01*
X8568Y146520D01*
X9875Y145647D01*
X10917Y145439D01*
Y148870D01*
D02*
G37*
G36*
X289500Y113931D02*
X288458Y113723D01*
X287150Y112850D01*
X286277Y111542D01*
X286069Y110500D01*
X289500D01*
Y113931D01*
D02*
G37*
G36*
Y109500D02*
X286069D01*
X286277Y108458D01*
X287150Y107150D01*
X288458Y106277D01*
X289500Y106069D01*
Y109500D01*
D02*
G37*
G36*
X280500Y103931D02*
Y100500D01*
X283931D01*
X283723Y101542D01*
X282850Y102850D01*
X281542Y103723D01*
X280500Y103931D01*
D02*
G37*
G36*
X289500Y103931D02*
X288458Y103723D01*
X287150Y102850D01*
X286277Y101542D01*
X286069Y100500D01*
X289500D01*
Y103931D01*
D02*
G37*
G36*
X279500D02*
X278458Y103723D01*
X277150Y102850D01*
X276277Y101542D01*
X276069Y100500D01*
X279500D01*
Y103931D01*
D02*
G37*
G36*
X55315Y98219D02*
X49409D01*
X48945Y98127D01*
X46672D01*
X46108Y98015D01*
X45768Y97787D01*
X45172D01*
X44580Y97670D01*
X44549Y97648D01*
X43886D01*
X43843Y97677D01*
X43014Y97842D01*
X42184Y97677D01*
X41481Y97207D01*
X41011Y96504D01*
X40846Y95674D01*
X41011Y94844D01*
X41481Y94141D01*
X42184Y93671D01*
X43014Y93506D01*
X43843Y93671D01*
X44113Y93578D01*
X44267Y93038D01*
X43213Y91984D01*
X42882Y91489D01*
X42766Y90905D01*
Y88744D01*
X42628Y88652D01*
X42293Y88151D01*
X42175Y87559D01*
Y86102D01*
X42293Y85511D01*
X42628Y85010D01*
X42746Y84930D01*
Y83335D01*
X42605Y83241D01*
X42119D01*
X41621Y83574D01*
X41034Y83691D01*
X39911D01*
X39598Y83629D01*
X39421Y83664D01*
X39421Y83664D01*
X37461D01*
Y83720D01*
X32815D01*
Y79272D01*
X37461D01*
Y79328D01*
X38524D01*
X38546Y79306D01*
Y74898D01*
X37969Y74035D01*
X37743Y72899D01*
Y21078D01*
X37969Y19941D01*
X38613Y18978D01*
X47486Y10104D01*
X48450Y9460D01*
X49587Y9234D01*
X56279D01*
Y8514D01*
X56438Y7711D01*
X56893Y7031D01*
X57573Y6576D01*
X58376Y6416D01*
X60600D01*
X61403Y6576D01*
X62084Y7031D01*
X62538Y7711D01*
X62698Y8514D01*
Y15896D01*
X62538Y16698D01*
X62084Y17379D01*
X61403Y17833D01*
X60600Y17993D01*
X58376D01*
X57573Y17833D01*
X56893Y17379D01*
X56438Y16698D01*
X56279Y15896D01*
Y15175D01*
X50817D01*
X43684Y22308D01*
Y43188D01*
X43686Y43200D01*
X43684Y43212D01*
Y72899D01*
X43458Y74035D01*
X42881Y74898D01*
Y79011D01*
X43381Y79363D01*
X43691Y79301D01*
X44813D01*
X45401Y79418D01*
X45899Y79751D01*
X46231Y80249D01*
X46348Y80837D01*
Y82156D01*
X46231Y82743D01*
X45899Y83241D01*
X45797Y83309D01*
Y84904D01*
X45955Y85010D01*
X46290Y85511D01*
X46408Y86102D01*
Y87559D01*
X46290Y88151D01*
X45955Y88652D01*
X45817Y88744D01*
Y90274D01*
X46734Y91191D01*
X49208D01*
X49409Y91151D01*
X55315D01*
X55914Y91270D01*
X56422Y91610D01*
X56761Y92117D01*
X56880Y92716D01*
X56761Y93316D01*
X56422Y93823D01*
X55914Y94163D01*
X55315Y94282D01*
X49409D01*
X49208Y94242D01*
X48434D01*
X48132Y94698D01*
X48279Y95180D01*
X48945D01*
X49409Y95088D01*
X55315D01*
X55914Y95207D01*
X56422Y95547D01*
X56761Y96055D01*
X56880Y96653D01*
X56761Y97253D01*
X56422Y97760D01*
X55914Y98100D01*
X55315Y98219D01*
D02*
G37*
G36*
X283931Y99500D02*
X280500D01*
Y96069D01*
X281542Y96277D01*
X282850Y97150D01*
X283723Y98458D01*
X283931Y99500D01*
D02*
G37*
G36*
X289500D02*
X286069D01*
X286277Y98458D01*
X287150Y97150D01*
X288458Y96277D01*
X289500Y96069D01*
Y99500D01*
D02*
G37*
G36*
X279500D02*
X276069D01*
X276277Y98458D01*
X277150Y97150D01*
X278458Y96277D01*
X279500Y96069D01*
Y99500D01*
D02*
G37*
G36*
X10236Y44374D02*
X8931Y44202D01*
X7715Y43698D01*
X6670Y42897D01*
X5869Y41852D01*
X5365Y40636D01*
X5193Y39331D01*
X5365Y38026D01*
X5869Y36809D01*
X6670Y35765D01*
X7715Y34963D01*
X8931Y34459D01*
X10236Y34288D01*
X11541Y34459D01*
X12758Y34963D01*
X13802Y35765D01*
X14604Y36809D01*
X15108Y38026D01*
X15279Y39331D01*
X15108Y40636D01*
X14604Y41852D01*
X13802Y42897D01*
X12758Y43698D01*
X11541Y44202D01*
X10236Y44374D01*
D02*
G37*
G36*
X16248Y28967D02*
Y16248D01*
X28967D01*
X28762Y18337D01*
X28007Y20826D01*
X26781Y23120D01*
X25130Y25130D01*
X23120Y26781D01*
X20826Y28007D01*
X18337Y28762D01*
X16248Y28967D01*
D02*
G37*
G36*
X15248D02*
X13160Y28762D01*
X10670Y28007D01*
X8376Y26781D01*
X6366Y25130D01*
X4716Y23120D01*
X3489Y20826D01*
X2734Y18337D01*
X2529Y16248D01*
X15248D01*
Y28967D01*
D02*
G37*
G36*
X308799Y19203D02*
X307658D01*
X307066Y19085D01*
X306565Y18750D01*
X306230Y18249D01*
X306112Y17658D01*
Y16201D01*
X306230Y15609D01*
X306245Y15586D01*
Y14645D01*
X306226Y14616D01*
X306061Y13787D01*
X306226Y12957D01*
X306696Y12254D01*
X307399Y11784D01*
X308228Y11619D01*
X309058Y11784D01*
X309761Y12254D01*
X310231Y12957D01*
X310396Y13787D01*
X310231Y14616D01*
X310211Y14646D01*
Y15586D01*
X310227Y15609D01*
X310345Y16201D01*
Y17658D01*
X310227Y18249D01*
X309892Y18750D01*
X309391Y19085D01*
X308799Y19203D01*
D02*
G37*
G36*
X301760Y11411D02*
Y7980D01*
X305191D01*
X304983Y9023D01*
X304110Y10330D01*
X302802Y11204D01*
X301760Y11411D01*
D02*
G37*
G36*
X300760Y11411D02*
X299717Y11204D01*
X298410Y10330D01*
X297536Y9023D01*
X297329Y7980D01*
X300760D01*
Y11411D01*
D02*
G37*
G36*
X79528Y26781D02*
X78698Y26617D01*
X77995Y26147D01*
X77525Y25443D01*
X77360Y24614D01*
X77525Y23784D01*
X77995Y23081D01*
X78123Y22995D01*
Y17943D01*
X77573Y17833D01*
X76893Y17379D01*
X76438Y16698D01*
X76279Y15896D01*
Y8514D01*
X76438Y7711D01*
X76893Y7031D01*
X77573Y6576D01*
X78376Y6416D01*
X80600D01*
X81403Y6576D01*
X82083Y7031D01*
X82538Y7711D01*
X82698Y8514D01*
Y15896D01*
X82538Y16698D01*
X82083Y17379D01*
X81403Y17833D01*
X80853Y17943D01*
Y22943D01*
X81060Y23081D01*
X81530Y23784D01*
X81695Y24614D01*
X81530Y25443D01*
X81060Y26147D01*
X80357Y26617D01*
X79528Y26781D01*
D02*
G37*
G36*
X305191Y6980D02*
X301760D01*
Y3550D01*
X302802Y3757D01*
X304110Y4631D01*
X304983Y5938D01*
X305191Y6980D01*
D02*
G37*
G36*
X300760D02*
X297329D01*
X297536Y5938D01*
X298410Y4631D01*
X299717Y3757D01*
X300760Y3550D01*
Y6980D01*
D02*
G37*
G36*
X28967Y15248D02*
X16248D01*
Y2529D01*
X18337Y2734D01*
X20826Y3489D01*
X23120Y4716D01*
X25130Y6366D01*
X26781Y8376D01*
X28007Y10670D01*
X28762Y13160D01*
X28967Y15248D01*
D02*
G37*
G36*
X15248D02*
X2529D01*
X2734Y13160D01*
X3489Y10670D01*
X4716Y8376D01*
X6366Y6366D01*
X8376Y4716D01*
X10670Y3489D01*
X13160Y2734D01*
X15248Y2529D01*
Y15248D01*
D02*
G37*
G36*
X379500Y153931D02*
X378458Y153723D01*
X377150Y152850D01*
X376277Y151542D01*
X376069Y150500D01*
X379500D01*
Y153931D01*
D02*
G37*
G36*
X370500D02*
Y150500D01*
X373931D01*
X373723Y151542D01*
X372850Y152850D01*
X371542Y153723D01*
X370500Y153931D01*
D02*
G37*
G36*
X369500D02*
X368458Y153723D01*
X367150Y152850D01*
X366277Y151542D01*
X366069Y150500D01*
X369500D01*
Y153931D01*
D02*
G37*
G36*
X360500D02*
Y150500D01*
X363931D01*
X363723Y151542D01*
X362850Y152850D01*
X361542Y153723D01*
X360500Y153931D01*
D02*
G37*
G36*
X379500Y129500D02*
X376069D01*
X376277Y128458D01*
X377150Y127150D01*
X378458Y126277D01*
X379500Y126069D01*
Y129500D01*
D02*
G37*
G36*
X370000Y123974D02*
X368479Y123671D01*
X367190Y122810D01*
X366329Y121521D01*
X366026Y120000D01*
X366329Y118479D01*
X367190Y117190D01*
X368479Y116329D01*
X370000Y116026D01*
X371521Y116329D01*
X372810Y117190D01*
X373672Y118479D01*
X373974Y120000D01*
X373672Y121521D01*
X372810Y122810D01*
X371521Y123671D01*
X370000Y123974D01*
D02*
G37*
G36*
X379500Y113931D02*
X378458Y113723D01*
X377150Y112850D01*
X376277Y111542D01*
X376069Y110500D01*
X379500D01*
Y113931D01*
D02*
G37*
G36*
Y109500D02*
X376069D01*
X376277Y108458D01*
X377150Y107150D01*
X378458Y106277D01*
X379500Y106069D01*
Y109500D01*
D02*
G37*
G36*
X370000Y113974D02*
X368479Y113672D01*
X367190Y112810D01*
X366329Y111521D01*
X366026Y110000D01*
X366329Y108479D01*
X367190Y107190D01*
X368479Y106328D01*
X370000Y106026D01*
X371521Y106328D01*
X372810Y107190D01*
X373672Y108479D01*
X373974Y110000D01*
X373672Y111521D01*
X372810Y112810D01*
X371521Y113672D01*
X370000Y113974D01*
D02*
G37*
G36*
Y103974D02*
X368479Y103672D01*
X367190Y102810D01*
X366329Y101521D01*
X366026Y100000D01*
X366329Y98479D01*
X367190Y97190D01*
X368479Y96329D01*
X370000Y96026D01*
X371521Y96329D01*
X372810Y97190D01*
X373672Y98479D01*
X373974Y100000D01*
X373672Y101521D01*
X372810Y102810D01*
X371521Y103672D01*
X370000Y103974D01*
D02*
G37*
G36*
X379500Y93931D02*
X378458Y93723D01*
X377150Y92850D01*
X376277Y91542D01*
X376069Y90500D01*
X379500D01*
Y93931D01*
D02*
G37*
G36*
Y89500D02*
X376069D01*
X376277Y88458D01*
X377150Y87150D01*
X378458Y86277D01*
X379500Y86069D01*
Y89500D01*
D02*
G37*
G36*
X370000Y93974D02*
X368479Y93672D01*
X367190Y92810D01*
X366329Y91521D01*
X366026Y90000D01*
X366329Y88479D01*
X367190Y87190D01*
X368479Y86329D01*
X370000Y86026D01*
X371521Y86329D01*
X372810Y87190D01*
X373672Y88479D01*
X373974Y90000D01*
X373672Y91521D01*
X372810Y92810D01*
X371521Y93672D01*
X370000Y93974D01*
D02*
G37*
G36*
Y83974D02*
X368479Y83671D01*
X367190Y82810D01*
X366329Y81521D01*
X366026Y80000D01*
X366329Y78479D01*
X367190Y77190D01*
X368479Y76328D01*
X370000Y76026D01*
X371521Y76328D01*
X372810Y77190D01*
X373672Y78479D01*
X373974Y80000D01*
X373672Y81521D01*
X372810Y82810D01*
X371521Y83671D01*
X370000Y83974D01*
D02*
G37*
G36*
X379500Y73931D02*
X378458Y73723D01*
X377150Y72850D01*
X376277Y71542D01*
X376069Y70500D01*
X379500D01*
Y73931D01*
D02*
G37*
G36*
Y69500D02*
X376069D01*
X376277Y68458D01*
X377150Y67150D01*
X378458Y66277D01*
X379500Y66069D01*
Y69500D01*
D02*
G37*
G36*
X370000Y73974D02*
X368479Y73672D01*
X367190Y72810D01*
X366329Y71521D01*
X366026Y70000D01*
X366329Y68479D01*
X367190Y67190D01*
X368479Y66329D01*
X370000Y66026D01*
X371521Y66329D01*
X372810Y67190D01*
X373672Y68479D01*
X373974Y70000D01*
X373672Y71521D01*
X372810Y72810D01*
X371521Y73672D01*
X370000Y73974D01*
D02*
G37*
G36*
Y63974D02*
X368479Y63671D01*
X367190Y62810D01*
X366329Y61521D01*
X366026Y60000D01*
X366329Y58479D01*
X367190Y57190D01*
X368479Y56328D01*
X370000Y56026D01*
X371521Y56328D01*
X372810Y57190D01*
X373672Y58479D01*
X373974Y60000D01*
X373672Y61521D01*
X372810Y62810D01*
X371521Y63671D01*
X370000Y63974D01*
D02*
G37*
G36*
X379500Y53931D02*
X378458Y53723D01*
X377150Y52850D01*
X376277Y51542D01*
X376069Y50500D01*
X379500D01*
Y53931D01*
D02*
G37*
G36*
Y49500D02*
X376069D01*
X376277Y48458D01*
X377150Y47150D01*
X378458Y46277D01*
X379500Y46069D01*
Y49500D01*
D02*
G37*
G36*
X370000Y53974D02*
X368479Y53671D01*
X367190Y52810D01*
X366329Y51521D01*
X366026Y50000D01*
X366329Y48479D01*
X367190Y47190D01*
X368479Y46328D01*
X370000Y46026D01*
X371521Y46328D01*
X372810Y47190D01*
X373672Y48479D01*
X373974Y50000D01*
X373672Y51521D01*
X372810Y52810D01*
X371521Y53671D01*
X370000Y53974D01*
D02*
G37*
G36*
X372500Y40043D02*
X371195Y39871D01*
X369978Y39367D01*
X368934Y38566D01*
X368132Y37522D01*
X367629Y36305D01*
X367457Y35000D01*
X367629Y33695D01*
X368132Y32478D01*
X368934Y31434D01*
X369978Y30632D01*
X371195Y30129D01*
X372500Y29957D01*
X373805Y30129D01*
X375022Y30632D01*
X376066Y31434D01*
X376868Y32478D01*
X377371Y33695D01*
X377543Y35000D01*
X377371Y36305D01*
X376868Y37522D01*
X376066Y38566D01*
X375022Y39367D01*
X373805Y39871D01*
X372500Y40043D01*
D02*
G37*
G36*
X328224Y31743D02*
X327075Y31514D01*
X326101Y30863D01*
X325450Y29889D01*
X325221Y28740D01*
X325450Y27591D01*
X326101Y26617D01*
X327075Y25966D01*
X328224Y25738D01*
X329373Y25966D01*
X330347Y26617D01*
X330998Y27591D01*
X331226Y28740D01*
X330998Y29889D01*
X330347Y30863D01*
X329373Y31514D01*
X328224Y31743D01*
D02*
G37*
G36*
X370579Y28967D02*
Y16248D01*
X383298D01*
X383092Y18337D01*
X382337Y20826D01*
X381111Y23120D01*
X379461Y25130D01*
X377450Y26781D01*
X375156Y28007D01*
X372667Y28762D01*
X370579Y28967D01*
D02*
G37*
G36*
X369579D02*
X367490Y28762D01*
X365001Y28007D01*
X362707Y26781D01*
X360696Y25130D01*
X359046Y23120D01*
X357820Y20826D01*
X357065Y18337D01*
X356859Y16248D01*
X369579D01*
Y28967D01*
D02*
G37*
G36*
X383298Y15248D02*
X370579D01*
Y2529D01*
X372667Y2734D01*
X375156Y3489D01*
X377450Y4716D01*
X379461Y6366D01*
X381111Y8376D01*
X382337Y10670D01*
X383092Y13160D01*
X383298Y15248D01*
D02*
G37*
G36*
X369579D02*
X356859D01*
X357065Y13160D01*
X357820Y10670D01*
X359046Y8376D01*
X360696Y6366D01*
X362707Y4716D01*
X365001Y3489D01*
X367490Y2734D01*
X369579Y2529D01*
Y15248D01*
D02*
G37*
G36*
X320000Y163931D02*
X318983Y163797D01*
X318034Y163405D01*
X317220Y162780D01*
X316595Y161966D01*
X316203Y161018D01*
X316069Y160000D01*
X316203Y158983D01*
X316595Y158034D01*
X317220Y157220D01*
X318034Y156595D01*
X318983Y156203D01*
X320000Y156069D01*
X321018Y156203D01*
X321966Y156595D01*
X322780Y157220D01*
X323405Y158034D01*
X323797Y158983D01*
X323931Y160000D01*
X323797Y161018D01*
X323405Y161966D01*
X322780Y162780D01*
X321966Y163405D01*
X321018Y163797D01*
X320000Y163931D01*
D02*
G37*
G36*
Y153931D02*
X318983Y153797D01*
X318034Y153405D01*
X317220Y152780D01*
X316595Y151966D01*
X316203Y151017D01*
X316069Y150000D01*
X316203Y148983D01*
X316595Y148034D01*
X317220Y147220D01*
X318034Y146595D01*
X318983Y146203D01*
X320000Y146069D01*
X321018Y146203D01*
X321966Y146595D01*
X322780Y147220D01*
X323405Y148034D01*
X323797Y148983D01*
X323931Y150000D01*
X323797Y151017D01*
X323405Y151966D01*
X322780Y152780D01*
X321966Y153405D01*
X321018Y153797D01*
X320000Y153931D01*
D02*
G37*
G36*
Y143931D02*
X318983Y143797D01*
X318034Y143405D01*
X317220Y142780D01*
X316595Y141966D01*
X316203Y141017D01*
X316069Y140000D01*
X316203Y138982D01*
X316595Y138034D01*
X317220Y137220D01*
X318034Y136595D01*
X318983Y136203D01*
X320000Y136069D01*
X321018Y136203D01*
X321966Y136595D01*
X322780Y137220D01*
X323405Y138034D01*
X323797Y138982D01*
X323931Y140000D01*
X323797Y141017D01*
X323405Y141966D01*
X322780Y142780D01*
X321966Y143405D01*
X321018Y143797D01*
X320000Y143931D01*
D02*
G37*
G36*
Y133931D02*
X318983Y133797D01*
X318034Y133405D01*
X317220Y132780D01*
X316595Y131966D01*
X316203Y131017D01*
X316069Y130000D01*
X316203Y128982D01*
X316595Y128034D01*
X317220Y127220D01*
X318034Y126595D01*
X318983Y126203D01*
X320000Y126069D01*
X321018Y126203D01*
X321966Y126595D01*
X322780Y127220D01*
X323405Y128034D01*
X323797Y128982D01*
X323931Y130000D01*
X323797Y131017D01*
X323405Y131966D01*
X322780Y132780D01*
X321966Y133405D01*
X321018Y133797D01*
X320000Y133931D01*
D02*
G37*
G36*
Y123931D02*
X318983Y123797D01*
X318034Y123405D01*
X317220Y122780D01*
X316595Y121966D01*
X316203Y121018D01*
X316069Y120000D01*
X316203Y118983D01*
X316595Y118034D01*
X317220Y117220D01*
X318034Y116595D01*
X318983Y116203D01*
X320000Y116069D01*
X321018Y116203D01*
X321966Y116595D01*
X322780Y117220D01*
X323405Y118034D01*
X323797Y118983D01*
X323931Y120000D01*
X323797Y121018D01*
X323405Y121966D01*
X322780Y122780D01*
X321966Y123405D01*
X321018Y123797D01*
X320000Y123931D01*
D02*
G37*
G36*
X100591Y92313D02*
X94685D01*
X94086Y92194D01*
X93578Y91855D01*
X93239Y91347D01*
X93120Y90748D01*
X93239Y90149D01*
X93496Y89764D01*
X93239Y89379D01*
X93120Y88779D01*
X93239Y88180D01*
X93578Y87673D01*
X94086Y87333D01*
X94685Y87214D01*
X100591D01*
X101190Y87333D01*
X101698Y87673D01*
X102037Y88180D01*
X102156Y88779D01*
X102037Y89379D01*
X101779Y89764D01*
X102037Y90149D01*
X102156Y90748D01*
X102037Y91347D01*
X101698Y91855D01*
X101190Y92194D01*
X100591Y92313D01*
D02*
G37*
G36*
X152700Y79023D02*
X146700D01*
X145977Y78723D01*
X145677Y78000D01*
Y66500D01*
X145977Y65777D01*
X146700Y65477D01*
X152700D01*
X153423Y65777D01*
X153723Y66500D01*
Y78000D01*
X153423Y78723D01*
X152700Y79023D01*
D02*
G37*
G36*
X142700Y80523D02*
X137200D01*
X136477Y80223D01*
X136177Y79500D01*
Y66500D01*
X136477Y65777D01*
X137200Y65477D01*
X142700D01*
X143423Y65777D01*
X143723Y66500D01*
Y79500D01*
X143423Y80223D01*
X142700Y80523D01*
D02*
G37*
G36*
X173931Y99500D02*
X170500D01*
Y96069D01*
X171542Y96277D01*
X172850Y97150D01*
X173723Y98458D01*
X173931Y99500D01*
D02*
G37*
G36*
X163931D02*
X160500D01*
Y96069D01*
X161542Y96277D01*
X162850Y97150D01*
X163723Y98458D01*
X163931Y99500D01*
D02*
G37*
G36*
X169500D02*
X166069D01*
X166277Y98458D01*
X167150Y97150D01*
X168458Y96277D01*
X169500Y96069D01*
Y99500D01*
D02*
G37*
G36*
X242743Y43368D02*
X235928D01*
X235476Y43181D01*
X235289Y42729D01*
Y38347D01*
X235246Y38130D01*
Y36673D01*
X235289Y36456D01*
Y35827D01*
X235476Y35375D01*
X235928Y35188D01*
X236491D01*
X236791Y35128D01*
X237933D01*
X238234Y35188D01*
X243760D01*
X244212Y35375D01*
X244399Y35827D01*
Y41713D01*
X244212Y42165D01*
X243196Y43181D01*
X242743Y43368D01*
D02*
G37*
G36*
X230500Y33931D02*
Y30500D01*
X233931D01*
X233723Y31542D01*
X232850Y32850D01*
X231542Y33723D01*
X230500Y33931D01*
D02*
G37*
G36*
X229500D02*
X228458Y33723D01*
X227150Y32850D01*
X226277Y31542D01*
X226069Y30500D01*
X229500D01*
Y33931D01*
D02*
G37*
G36*
X233931Y29500D02*
X230500D01*
Y26069D01*
X231542Y26277D01*
X232850Y27150D01*
X233723Y28458D01*
X233931Y29500D01*
D02*
G37*
G36*
X229500D02*
X226069D01*
X226277Y28458D01*
X227150Y27150D01*
X228458Y26277D01*
X229500Y26069D01*
Y29500D01*
D02*
G37*
G36*
X240000Y33974D02*
X238479Y33672D01*
X237190Y32810D01*
X236329Y31521D01*
X236026Y30000D01*
X236329Y28479D01*
X237190Y27190D01*
X238479Y26329D01*
X240000Y26026D01*
X241521Y26329D01*
X242810Y27190D01*
X243671Y28479D01*
X243974Y30000D01*
X243671Y31521D01*
X242810Y32810D01*
X241521Y33672D01*
X240000Y33974D01*
D02*
G37*
G36*
X230500Y23931D02*
Y20500D01*
X233931D01*
X233723Y21542D01*
X232850Y22850D01*
X231542Y23723D01*
X230500Y23931D01*
D02*
G37*
G36*
X229500D02*
X228458Y23723D01*
X227150Y22850D01*
X226277Y21542D01*
X226069Y20500D01*
X229500D01*
Y23931D01*
D02*
G37*
G36*
X233931Y19500D02*
X230500D01*
Y16069D01*
X231542Y16277D01*
X232850Y17150D01*
X233723Y18458D01*
X233931Y19500D01*
D02*
G37*
G36*
X229500D02*
X226069D01*
X226277Y18458D01*
X227150Y17150D01*
X228458Y16277D01*
X229500Y16069D01*
Y19500D01*
D02*
G37*
G36*
X220000Y23974D02*
X218479Y23672D01*
X217190Y22810D01*
X216329Y21521D01*
X216026Y20000D01*
X216329Y18479D01*
X217190Y17190D01*
X218479Y16329D01*
X220000Y16026D01*
X221521Y16329D01*
X222810Y17190D01*
X223672Y18479D01*
X223974Y20000D01*
X223672Y21521D01*
X222810Y22810D01*
X221521Y23672D01*
X220000Y23974D01*
D02*
G37*
%LPD*%
G36*
X243760Y41713D02*
Y35827D01*
X235928D01*
Y42729D01*
X242743D01*
X243760Y41713D01*
D02*
G37*
%LPC*%
G36*
X162908Y44342D02*
X156491D01*
Y39500D01*
X162908D01*
Y44342D01*
D02*
G37*
%LPD*%
D10*
X117944Y179232D02*
X118455Y178721D01*
Y174932D02*
Y178721D01*
X117608Y179232D02*
X117944D01*
X118455Y174932D02*
X118455Y174932D01*
X118455Y172359D02*
Y174932D01*
X117825Y171729D02*
X118455Y172359D01*
X117825Y167983D02*
Y171729D01*
X210000Y149398D02*
X210000Y149398D01*
X217323D01*
X217323Y149398D01*
X87165Y135630D02*
X87795Y135000D01*
Y126181D02*
Y135000D01*
D11*
X39421Y81496D02*
X40713Y80204D01*
X35138Y81496D02*
X39421D01*
X40713Y72899D02*
Y80204D01*
X26500Y149700D02*
Y158500D01*
X29300Y161300D01*
X267193Y93707D02*
X269262Y91638D01*
Y86488D02*
Y91638D01*
X265791Y93707D02*
X267193D01*
X265712D02*
X265791D01*
X265672Y93747D02*
X265712Y93707D01*
X265672Y93747D02*
Y93825D01*
X262727Y96771D02*
X265672Y93825D01*
X259639Y96771D02*
X262727D01*
X259540Y96869D02*
X259639Y96771D01*
X259540Y96869D02*
Y97512D01*
X259479Y97572D02*
X259540Y97512D01*
X259479Y97572D02*
Y101380D01*
X249619Y104200D02*
X256659D01*
X259479Y101380D01*
X245700Y100281D02*
X249619Y104200D01*
X245700Y90290D02*
Y100281D01*
X269684Y86410D02*
X273460D01*
X269645Y86449D02*
X269684Y86410D01*
X269302Y86449D02*
X269645D01*
X269262Y86488D02*
X269302Y86449D01*
X11024Y87303D02*
X18027D01*
X22578Y91854D02*
Y94724D01*
X18027Y87303D02*
X22578Y91854D01*
Y94724D02*
X22835Y94980D01*
X11427Y119774D02*
X18626D01*
X22676Y115724D01*
Y112659D02*
Y115724D01*
Y112659D02*
X22835Y112500D01*
X11024Y120177D02*
X11427Y119774D01*
X23061Y94754D02*
X25192D01*
X26518Y93428D02*
X30200D01*
X25192Y94754D02*
X26518Y93428D01*
X22835Y94980D02*
X23061Y94754D01*
D12*
X87795Y72953D02*
Y80905D01*
Y72913D02*
Y72953D01*
X140700Y102400D02*
Y104400D01*
X146300Y110000D02*
X148883D01*
X140700Y104400D02*
X146300Y110000D01*
X148883D02*
X149570D01*
X85327Y115940D02*
X95525Y126137D01*
X70100Y115940D02*
X85327D01*
X260630Y39370D02*
X261005D01*
X264646Y37598D02*
X264745D01*
X265563Y36781D01*
X52348Y118321D02*
X52362Y118307D01*
X52348Y118321D02*
Y123103D01*
X97638Y116339D02*
X97672Y116304D01*
X102495D02*
X105748Y113051D01*
X97672Y116304D02*
X102495D01*
X105748Y113051D02*
X105905D01*
X85827Y126181D02*
Y132539D01*
X85236Y133130D02*
X85827Y132539D01*
X83228Y133169D02*
X84984D01*
X85024Y133130D02*
X85236D01*
X84984Y133169D02*
X85024Y133130D01*
X83228Y133169D02*
Y137284D01*
X83268Y137323D01*
Y141112D01*
X83307Y141152D01*
X65000Y155111D02*
Y159000D01*
X65688Y154423D02*
Y154423D01*
Y154423D02*
X67363Y152748D01*
X68217D01*
X65000Y155111D02*
X65688Y154423D01*
X68217Y152748D02*
X68996Y151969D01*
X75999Y126196D02*
Y132141D01*
X66142Y72894D02*
Y80905D01*
X87795D02*
X87795Y80905D01*
X121604Y193584D02*
X121653Y193632D01*
X105586Y175140D02*
X105793Y174932D01*
X108642Y167932D02*
X108693Y167983D01*
X105351Y108721D02*
X105800Y109171D01*
X104022Y108721D02*
X105351D01*
X101796Y106496D02*
X104022Y108721D01*
X97638Y106496D02*
X101796D01*
X107562Y96144D02*
X107584Y96166D01*
X95525Y126137D02*
X105177D01*
X211200Y153300D02*
X211800D01*
X213734Y151366D01*
X39962Y143679D02*
Y143810D01*
X38111Y141828D02*
X39962Y143679D01*
X38111Y137161D02*
Y141828D01*
X213734Y151366D02*
X217323D01*
X52087Y133619D02*
Y137153D01*
X232677Y151366D02*
X238373D01*
X240131Y153123D01*
X122015Y173003D02*
Y174634D01*
X120384Y171372D02*
X122015Y173003D01*
Y174634D02*
X122313Y174932D01*
X120384Y167983D02*
Y171372D01*
X122313Y174932D02*
Y175128D01*
X123339Y176154D01*
Y179232D01*
X232677Y149398D02*
X240131D01*
X60209Y126209D02*
Y133071D01*
X45708Y95689D02*
X46672Y96653D01*
X60209Y126209D02*
X60236Y126181D01*
X48211Y129839D02*
X52087D01*
X45592Y127220D02*
X46371Y128000D01*
X46371D01*
X48211Y129839D01*
X45592Y126137D02*
Y127220D01*
X45596Y120094D02*
X45600Y120090D01*
X45596Y120094D02*
Y126133D01*
X45592Y126137D02*
X45596Y126133D01*
X52348Y116324D02*
X52362Y116339D01*
X45614Y116324D02*
X52348D01*
X45600Y116310D02*
X45614Y116324D01*
X45900Y112402D02*
X52362D01*
X261005Y39370D02*
X262274Y38101D01*
X264143D01*
X264646Y37598D01*
X265563Y36781D02*
X269450D01*
X105020Y96122D02*
X105042Y96144D01*
X104523Y96619D02*
X105020Y96122D01*
X97672Y96619D02*
X104523D01*
X97638Y96653D02*
X97672Y96619D01*
X89798Y132574D02*
X90394Y133169D01*
X89798Y126216D02*
Y132574D01*
X89764Y126181D02*
X89798Y126216D01*
X52087Y155709D02*
X59547D01*
X50492Y154114D02*
X52087Y155709D01*
X50492Y151988D02*
Y154114D01*
X54528Y151969D02*
X59547D01*
X45512Y95689D02*
X45708D01*
X46672Y96653D02*
X52362D01*
D15*
X111682Y16500D02*
X114000D01*
X109488Y14306D02*
X111682Y16500D01*
X166500Y81000D02*
X172700Y87200D01*
X213000D01*
X129488Y12205D02*
X129494Y12211D01*
Y23494D01*
X129500Y23500D01*
X119488Y12205D02*
Y19348D01*
X116837Y22000D02*
X119488Y19348D01*
X91027Y22000D02*
X116837D01*
X75900Y37127D02*
X91027Y22000D01*
X91264Y16171D02*
X91671D01*
X93500Y18000D01*
X89488Y14395D02*
X91264Y16171D01*
X89488Y12205D02*
Y14395D01*
X107592Y20500D02*
X109488Y18604D01*
X74522Y36516D02*
X90538Y20500D01*
X107592D01*
X109488Y14306D02*
Y18604D01*
Y12205D02*
Y14306D01*
X99488Y12205D02*
Y14306D01*
X102082Y16082D02*
X104000Y18000D01*
X99488Y14306D02*
X101264Y16082D01*
X102082D01*
X293500Y42500D02*
Y54500D01*
X301000Y38000D02*
X332766D01*
X295500Y43500D02*
Y53000D01*
X299000Y34000D02*
X312197D01*
X291500Y41500D02*
Y56000D01*
Y41500D02*
X299000Y34000D01*
X293500Y42500D02*
X300000Y36000D01*
X314000D01*
X295500Y43500D02*
X301000Y38000D01*
X295500Y53000D02*
X303000Y60500D01*
X291500Y56000D02*
X298100Y62600D01*
X293500Y54500D02*
X300500Y61500D01*
X150975Y179500D02*
X224500D01*
X238100Y193100D02*
X302780D01*
X224500Y179500D02*
X238100Y193100D01*
X140778Y169303D02*
X150975Y179500D01*
X119500Y85500D02*
X150000D01*
X159500Y76000D02*
X276603D01*
X150000Y85500D02*
X159500Y76000D01*
X122015Y87722D02*
X150278D01*
X160300Y77700D02*
X277300D01*
X150278Y87722D02*
X160300Y77700D01*
X209500Y62500D02*
X214500Y67500D01*
X187800Y62500D02*
X209500D01*
X171617Y61000D02*
X179617Y69000D01*
X118000Y61000D02*
X171617D01*
X272210Y58900D02*
X276410Y63100D01*
X280900D01*
X285400Y48138D02*
Y69600D01*
X277300Y77700D02*
X285400Y69600D01*
Y48138D02*
X287000Y46538D01*
X285500Y36500D02*
Y45500D01*
X283626Y47374D02*
Y68977D01*
Y47374D02*
X285500Y45500D01*
X287000Y35500D02*
Y46538D01*
X276603Y76000D02*
X283626Y68977D01*
X97900Y158100D02*
X104800D01*
X254276Y58900D02*
X272210D01*
X249676Y63500D02*
X254276Y58900D01*
X283932Y34932D02*
X285500Y36500D01*
X274800Y53000D02*
X279800Y48000D01*
X252000Y53000D02*
X274800D01*
X211900Y99800D02*
X223100Y111000D01*
X193900Y99800D02*
X211900D01*
X223100Y111000D02*
Y139300D01*
X220876Y141524D02*
X223100Y139300D01*
X217323Y141524D02*
X220876D01*
X117207Y59100D02*
X184100D01*
X184400D01*
X187800Y62500D01*
X85300Y40854D02*
Y55700D01*
X66228Y60584D02*
X80417D01*
X85300Y55700D01*
X83700Y40205D02*
Y54800D01*
X79300Y59200D02*
X83700Y54800D01*
X65446Y59200D02*
X79300D01*
X121674Y56997D02*
X163503D01*
X115838D02*
X121674D01*
X119488Y46063D02*
Y54812D01*
X121674Y56997D01*
X107835Y65000D02*
X115838Y56997D01*
X167575Y47925D02*
X174069D01*
X166000Y49500D02*
X167575Y47925D01*
X166000Y49500D02*
Y54500D01*
X163503Y56997D02*
X166000Y54500D01*
X350700Y43000D02*
X355300Y47600D01*
X306000Y43000D02*
X350700D01*
X277295Y54669D02*
X279525Y56899D01*
X252863Y54669D02*
X277295D01*
X247738Y59794D02*
X252863Y54669D01*
X275335Y57000D02*
X275500Y56835D01*
X253500Y57000D02*
X275335D01*
X300500Y61500D02*
Y96000D01*
X303000Y60500D02*
Y97000D01*
X332766Y38000D02*
X341260Y29506D01*
X317098Y28740D02*
Y32902D01*
X314000Y36000D02*
X317098Y32902D01*
X312197Y34000D02*
X313800Y32397D01*
Y25212D02*
Y32397D01*
X298100Y62600D02*
Y94900D01*
X223500Y63500D02*
X249676D01*
X281338Y32844D02*
X284344D01*
X278643D02*
X281338D01*
X284344D02*
X287000Y35500D01*
X281338Y34812D02*
X281458Y34932D01*
X283932D01*
X278012Y34812D02*
X281338D01*
X190000Y30000D02*
X223500Y63500D01*
X225282Y61782D02*
X248718D01*
X253500Y57000D01*
X200000Y36500D02*
X225282Y61782D01*
X307024Y54994D02*
X342994D01*
X344800Y56800D02*
Y167800D01*
X342994Y54994D02*
X344800Y56800D01*
X247000Y58000D02*
X252000Y53000D01*
X210000Y43000D02*
X226794Y59794D01*
X247738D01*
X227931Y58000D02*
X247000D01*
X220000Y50069D02*
X227931Y58000D01*
X239000Y56000D02*
X250800Y44200D01*
X233500Y56000D02*
X239000D01*
X231000Y53500D02*
X233500Y56000D01*
X220000Y30000D02*
Y50069D01*
X231000Y53500D02*
Y53500D01*
X250800Y38200D02*
Y44200D01*
X190000Y30000D02*
Y30000D01*
X200000Y30000D02*
Y36500D01*
X210000Y30000D02*
Y43000D01*
X249000Y37000D02*
Y43000D01*
X254012Y31988D02*
X261063D01*
X249000Y37000D02*
X254012Y31988D01*
X253291Y35709D02*
X260819D01*
X250800Y38200D02*
X253291Y35709D01*
X238500Y53500D02*
X249000Y43000D01*
X235500Y53500D02*
X238500D01*
X109500Y69500D02*
X118000Y61000D01*
X86400Y69500D02*
X109500D01*
X108307Y68000D02*
X117207Y59100D01*
X80778Y63878D02*
X86400Y69500D01*
X81603Y62303D02*
X87300Y68000D01*
X108307D01*
X117421Y87579D02*
X119500Y85500D01*
X117421Y87579D02*
Y90000D01*
X126690D02*
X126700Y89990D01*
X117421Y90000D02*
X126690D01*
X172400Y35000D02*
X183200Y24200D01*
X83700Y40205D02*
X88906Y35000D01*
X172400D01*
X173500Y36500D02*
X184200Y25800D01*
X85300Y40854D02*
X89654Y36500D01*
X173500D01*
X100000Y65000D02*
X107835D01*
X178445Y80905D02*
X178446Y80906D01*
X218191D01*
X237362Y115563D02*
X239277Y113649D01*
Y101992D02*
Y113649D01*
X218191Y80906D02*
X239277Y101992D01*
X237362Y115563D02*
Y126238D01*
X260819Y35709D02*
X261716Y34812D01*
X269450D01*
X171876Y93476D02*
X210631D01*
X165900Y87500D02*
X171876Y93476D01*
X164653Y114653D02*
X170000Y120000D01*
X147500Y114653D02*
X164653D01*
X97638Y100591D02*
X133438D01*
X147500Y114653D01*
X97638Y102559D02*
X129852D01*
X144600Y117307D01*
X146200Y130000D02*
X160000D01*
X137900Y121700D02*
X146200Y130000D01*
X144600Y98622D02*
X148938D01*
X97638D02*
X144600D01*
Y104200D02*
X149470D01*
X92626Y169744D02*
Y172323D01*
X163256Y125100D02*
X167177Y129021D01*
X129488Y106560D02*
X148028Y125100D01*
X163256D01*
X162838Y120000D02*
X167838Y125000D01*
X160000Y120000D02*
X162838D01*
X167838Y125000D02*
X182036D01*
X86212Y113960D02*
X93906Y121653D01*
X74160Y113960D02*
X86212D01*
X65000Y104800D02*
X74160Y113960D01*
X380078Y160078D02*
Y166220D01*
X380000Y160000D02*
X380078Y160078D01*
X370000Y160000D02*
Y166220D01*
X360000Y160000D02*
Y166220D01*
X350000Y160000D02*
Y166220D01*
X129378Y134100D02*
Y144576D01*
X140778Y155976D01*
Y169303D01*
X302780Y193100D02*
X320680Y175200D01*
X374878D01*
X380070Y170000D02*
X380078D01*
X379251Y170819D02*
X380070Y170000D01*
X379251Y170819D02*
Y170827D01*
X374878Y175200D02*
X379251Y170827D01*
X369992Y170000D02*
X370000D01*
X369173Y170819D02*
X369992Y170000D01*
X369173Y170819D02*
Y170827D01*
X366700Y173300D02*
X369173Y170827D01*
X339100Y173300D02*
X366700D01*
X335100Y169300D02*
X339100Y173300D01*
X335100Y68400D02*
Y169300D01*
X331400Y64700D02*
X335100Y68400D01*
X305478Y66500D02*
X307278Y64700D01*
X331400D01*
X357300Y170000D02*
X360000D01*
X355300Y168000D02*
X357300Y170000D01*
X355300Y47600D02*
Y168000D01*
X347000Y170000D02*
X350000D01*
X344800Y167800D02*
X347000Y170000D01*
X97300Y161800D02*
X104700D01*
X129378Y106670D02*
Y134100D01*
Y106670D02*
X129488Y106560D01*
X132480Y116929D02*
Y141516D01*
X150965Y160000D01*
X135433Y116929D02*
Y139338D01*
X150987Y154892D01*
X165618Y135618D02*
X217323D01*
X160000Y130000D02*
X165618Y135618D01*
X120197Y112500D02*
Y139882D01*
X117421Y108519D02*
Y137994D01*
X115650Y144429D02*
X120197Y139882D01*
X169021Y129021D02*
X170000Y130000D01*
X167177Y129021D02*
X169021D01*
X97638Y104528D02*
X127456D01*
X129488Y106560D01*
X75900Y37127D02*
Y55084D01*
X74522Y36516D02*
Y54514D01*
X72636Y56400D02*
X74522Y54514D01*
X63603Y56400D02*
X72636D01*
X53700Y66303D02*
X63603Y56400D01*
X56800Y65433D02*
X64432Y57801D01*
X73184D01*
X56800Y65433D02*
Y84700D01*
X53700Y66303D02*
Y84861D01*
X56015Y87176D01*
X68139D01*
X70079Y85236D01*
Y80905D02*
Y85236D01*
X56800Y84700D02*
X57700Y85600D01*
X210631Y93476D02*
X224478Y107322D01*
X190800Y90000D02*
X210700D01*
X226100Y105400D02*
Y130900D01*
X210700Y90000D02*
X226100Y105400D01*
X213000Y87200D02*
X227600Y101800D01*
Y129700D01*
X232677Y131681D02*
X239019D01*
X176232Y84500D02*
X215600D01*
X232677Y127744D02*
X235856D01*
X237362Y126238D01*
X228850Y133650D02*
X232677D01*
X226100Y130900D02*
X228850Y133650D01*
X229581Y131681D02*
X232677D01*
X227600Y129700D02*
X229581Y131681D01*
X232579Y129614D02*
X232677Y129713D01*
X230314Y129614D02*
X232579D01*
X229100Y128400D02*
X230314Y129614D01*
X232677Y129713D02*
X237887D01*
X215600Y84500D02*
X229100Y98000D01*
X224478Y107322D02*
Y142378D01*
X217323Y139555D02*
X220145D01*
X229529Y147429D02*
X232677D01*
X224478Y142378D02*
X229529Y147429D01*
X216535Y112535D02*
X220300Y116300D01*
X170000Y130000D02*
X182700D01*
X186350Y133650D02*
X193979D01*
X182700Y130000D02*
X186350Y133650D01*
X188717Y131681D02*
X217323D01*
X182036Y125000D02*
X188717Y131681D01*
X193979Y133650D02*
X217323D01*
X193979Y133650D02*
X193979Y133650D01*
X24606Y106299D02*
X25031Y105875D01*
X21555Y106299D02*
X24606D01*
X25031Y105875D02*
X30220D01*
X35010D02*
X35631Y106496D01*
X52362D01*
X30220Y105875D02*
X35010D01*
X33505Y102686D02*
X35010Y101181D01*
X32819Y102686D02*
X33505D01*
X32779Y102725D02*
X32819Y102686D01*
X35010Y101181D02*
X35010D01*
X216535Y108692D02*
Y112535D01*
X220451Y112400D02*
X221700Y113649D01*
X220400Y112400D02*
X220451D01*
X217323Y137587D02*
X217421Y137488D01*
X186213Y137587D02*
X217323D01*
X219839Y137488D02*
X220300Y137027D01*
X221700Y113649D02*
Y138000D01*
X220145Y139555D02*
X221700Y138000D01*
X195800Y24200D02*
X200000Y20000D01*
X184200Y25800D02*
X204200D01*
X210000Y20000D01*
X74916Y69000D02*
X80800D01*
X74900Y69016D02*
X74916Y69000D01*
X220300Y116300D02*
Y137027D01*
X217421Y137488D02*
X219839D01*
X188945Y139555D02*
X217323D01*
X159004Y105213D02*
X186600D01*
X259540Y86488D02*
X265483D01*
Y82300D02*
Y86488D01*
X245700Y86510D02*
X252038D01*
X252060Y86488D01*
X245600Y86410D02*
X245700Y86510D01*
X93906Y121653D02*
X105177D01*
X65000Y92561D02*
Y104800D01*
X104700Y154400D02*
X104800D01*
X98300D02*
X104700D01*
X150198Y100591D02*
X154382D01*
X159004Y105213D01*
X149470Y101318D02*
Y104200D01*
Y101318D02*
X150198Y100591D01*
X148938Y98622D02*
X160800Y86760D01*
X74900Y72795D02*
Y74726D01*
X74016Y75610D02*
Y80905D01*
Y75610D02*
X74900Y74726D01*
X79488Y12205D02*
Y24575D01*
X79528Y24614D01*
X190790Y89990D02*
X190800Y90000D01*
X174600Y89990D02*
X190790D01*
X183200Y24200D02*
X195800D01*
X74892Y63878D02*
X80778D01*
X73184Y57801D02*
X75900Y55084D01*
X64098Y80981D02*
Y84902D01*
X57700Y85600D02*
X63400D01*
X64098Y80981D02*
X64173Y80905D01*
X63400Y85600D02*
X64098Y84902D01*
X58337Y66309D02*
X65446Y59200D01*
X59715Y67096D02*
X66228Y60584D01*
X59715Y74164D02*
X62205Y76654D01*
X58337Y66309D02*
Y74734D01*
X62205Y76654D02*
Y80905D01*
X58337Y74734D02*
X60236Y76634D01*
X73386Y62303D02*
X81603D01*
X70079Y65610D02*
X73386Y62303D01*
X60236Y76634D02*
Y80905D01*
X59715Y67096D02*
Y74164D01*
X44488Y175906D02*
X44526Y175868D01*
X44488Y175906D02*
X44488Y175906D01*
X44488Y175906D02*
Y181988D01*
Y175906D02*
X44488D01*
X44488D02*
X44564Y175830D01*
X50800D01*
Y168600D02*
Y173170D01*
X182039Y164961D02*
X200112Y146888D01*
X211924D02*
X212466Y147429D01*
X200112Y146888D02*
X211924D01*
X172638Y80905D02*
X176232Y84500D01*
X229100Y98000D02*
Y128400D01*
X112303Y143112D02*
Y148130D01*
Y143112D02*
X117421Y137994D01*
X115650Y144429D02*
Y148130D01*
X115458Y148322D02*
X115650Y148130D01*
X61219Y88779D02*
X65000Y92561D01*
X52362Y88779D02*
X61219D01*
X326279Y2500D02*
X331260Y7480D01*
X318962Y2500D02*
X326279D01*
X316300Y5162D02*
X318962Y2500D01*
X294789Y98211D02*
Y138400D01*
Y98211D02*
X298100Y94900D01*
X297000Y99500D02*
Y141630D01*
Y99500D02*
X300500Y96000D01*
X299100Y100900D02*
Y147194D01*
Y100900D02*
X303000Y97000D01*
X60699Y168100D02*
X84600D01*
X56595Y172205D02*
X60699Y168100D01*
X84600D02*
X98300Y154400D01*
X71398Y169724D02*
X86276D01*
X97900Y158100D01*
X80709Y172205D02*
X86895D01*
X97300Y161800D01*
X68898Y172224D02*
X71398Y169724D01*
X76800Y141200D02*
Y153400D01*
X74213Y154055D02*
X74221Y154047D01*
X76153D01*
X76800Y153400D01*
X66142Y130542D02*
X76800Y141200D01*
X66142Y126181D02*
Y130542D01*
X64961Y131861D02*
Y152078D01*
X64173Y126181D02*
Y131073D01*
X64961Y131861D01*
X63300Y132500D02*
Y150700D01*
X62205Y126181D02*
Y131405D01*
X63300Y132500D01*
X62039Y151961D02*
X63300Y150700D01*
X59547Y151969D02*
X59554Y151961D01*
X62039D01*
X59547Y155709D02*
X61330D01*
X64961Y152078D01*
X35662Y104300D02*
X36421Y105060D01*
X30220Y104300D02*
X35662D01*
X48425Y104528D02*
X52362D01*
X47893Y105060D02*
X48425Y104528D01*
X36421Y105060D02*
X47893D01*
X279430Y20000D02*
Y24270D01*
X275900Y27800D02*
Y32700D01*
Y27800D02*
X279430Y24270D01*
X275900Y32700D02*
X278012Y34812D01*
X277800Y28578D02*
X282402Y23977D01*
X277800Y32000D02*
X278643Y32844D01*
X277800Y28578D02*
Y32000D01*
X30654Y100946D02*
Y102686D01*
Y100946D02*
X31600Y100000D01*
X30614Y102725D02*
X30654Y102686D01*
X30220Y102725D02*
X30614D01*
X92626Y169744D02*
X97070Y165300D01*
X104700D01*
X316300Y5162D02*
Y22712D01*
X313800Y25212D02*
X316300Y22712D01*
X293952Y144678D02*
X297000Y141630D01*
X296294Y150000D02*
X299100Y147194D01*
X341260Y7480D02*
Y29506D01*
X293185Y140003D02*
X294789Y138400D01*
X290003Y140003D02*
X293185D01*
X290000Y140000D02*
X290003Y140003D01*
X288410Y144678D02*
X293952D01*
X284134Y140402D02*
X288410Y144678D01*
X280000Y140000D02*
X280402Y140402D01*
X284134D01*
X290000Y150000D02*
X296294D01*
X321260Y7480D02*
Y24579D01*
X317098Y28740D02*
X321260Y24579D01*
X164961Y164961D02*
X182039D01*
X182100Y160000D02*
X196639Y145461D01*
X170000Y160000D02*
X182100D01*
X196639Y145461D02*
X217323D01*
X183400Y145100D02*
X188945Y139555D01*
X160000Y140000D02*
X165100Y145100D01*
X183400D01*
X170000Y120000D02*
X181800D01*
X191513Y129713D01*
X217323D01*
X170000Y140000D02*
X183800D01*
X186213Y137587D01*
X194108Y143492D02*
X217323D01*
X167739Y155177D02*
X182423D01*
X194108Y143492D01*
X191476Y141524D02*
X217323D01*
X170000Y150000D02*
X183000D01*
X191476Y141524D01*
X212466Y147429D02*
X217323D01*
X239019Y131681D02*
X240962Y129738D01*
Y119234D02*
Y129738D01*
X237887Y129713D02*
X239277Y128323D01*
Y118400D02*
Y128323D01*
X275900Y125100D02*
X285100D01*
X247218Y115600D02*
X266400D01*
X275900Y125100D01*
X246596Y113600D02*
X269100D01*
X275500Y120000D02*
X280000D01*
X269100Y113600D02*
X275500Y120000D01*
X245977Y111700D02*
X271584D01*
X274743Y114859D02*
X284859D01*
X271584Y111700D02*
X274743Y114859D01*
X242743Y120075D02*
X247218Y115600D01*
X240962Y119234D02*
X246596Y113600D01*
X239277Y118400D02*
X245977Y111700D01*
X242743Y120075D02*
Y131009D01*
X240103Y133650D02*
X242743Y131009D01*
X232677Y133650D02*
X240103D01*
X232775Y135716D02*
X265888D01*
X271604Y130000D01*
X232677Y135618D02*
X232775Y135716D01*
X271604Y130000D02*
X280000D01*
X232677Y139555D02*
X279555D01*
X280000Y140000D01*
X238000Y147000D02*
X262650D01*
X237571Y147429D02*
X238000Y147000D01*
X262650D02*
X275650Y160000D01*
X266012Y145461D02*
X275571Y155020D01*
X232677Y145461D02*
X266012D01*
X232677Y147429D02*
X237571D01*
X232677Y143492D02*
X267705D01*
X274213Y150000D01*
X268987Y141524D02*
X272562Y145098D01*
X232677Y141524D02*
X268987D01*
X269795Y137587D02*
X272342Y135039D01*
X232677Y137587D02*
X269795D01*
X272342Y135039D02*
X285039D01*
X290000Y140000D01*
X275650Y160000D02*
X280000D01*
X275571Y155020D02*
X285020D01*
X25166Y104300D02*
X30220D01*
X24606Y103740D02*
X25166Y104300D01*
X21555Y103740D02*
X24606D01*
X285100Y125100D02*
X290000Y130000D01*
X72047Y98760D02*
X74958Y101671D01*
X282402Y17047D02*
Y23977D01*
X280690Y15335D02*
X282402Y17047D01*
X276319Y15335D02*
X280690D01*
X150965Y160000D02*
X160000D01*
X150987Y154892D02*
X162729D01*
X72047Y66723D02*
X74892Y63878D01*
X162729Y154892D02*
X166858Y159021D01*
X169021D01*
X170000Y160000D01*
X162562Y150000D02*
X167739Y155177D01*
X160000Y150000D02*
X162562D01*
X56496Y172205D02*
X56595D01*
X72047Y80905D02*
Y98760D01*
X92618Y172323D02*
X92626D01*
X70079Y65610D02*
Y73917D01*
X68110Y75886D02*
X70079Y73917D01*
X68110Y75886D02*
Y80905D01*
X72047Y66723D02*
Y80905D01*
X160000Y160000D02*
X164961Y164961D01*
X284859Y114859D02*
X290000Y120000D01*
X274213Y150000D02*
X280000D01*
X272562Y145098D02*
X285098D01*
X290000Y150000D01*
X285020Y155020D02*
X290000Y160000D01*
X275493Y16161D02*
X276319Y15335D01*
X275493Y16161D02*
Y20000D01*
X261063Y31988D02*
X261918Y32844D01*
X269450D01*
D19*
X123339Y182894D02*
D03*
Y179114D02*
D03*
X117608Y182894D02*
D03*
Y179114D02*
D03*
X30200Y97090D02*
D03*
Y93310D02*
D03*
X380078Y170000D02*
D03*
Y166220D02*
D03*
X370000Y170000D02*
D03*
Y166220D02*
D03*
X360000Y170000D02*
D03*
Y166220D02*
D03*
X350000Y170000D02*
D03*
Y166220D02*
D03*
X74900Y69016D02*
D03*
Y72795D02*
D03*
X245700Y90290D02*
D03*
X54528Y148189D02*
D03*
X50492Y148209D02*
D03*
Y151988D02*
D03*
X54528Y151969D02*
D03*
X52087Y129839D02*
D03*
Y133619D02*
D03*
X45600Y120090D02*
D03*
Y116310D02*
D03*
X92618Y172323D02*
D03*
Y176102D02*
D03*
X80709Y172205D02*
D03*
Y175984D02*
D03*
X68898Y172224D02*
D03*
Y176004D02*
D03*
X56496Y172205D02*
D03*
Y175984D02*
D03*
X260630Y32106D02*
D03*
Y28327D02*
D03*
Y35709D02*
D03*
Y39488D02*
D03*
X245700Y86510D02*
D03*
X44488Y172126D02*
D03*
Y175906D02*
D03*
X74213Y154055D02*
D03*
Y150276D02*
D03*
D20*
X45592Y137161D02*
D03*
X41851D02*
D03*
X38111D02*
D03*
X38111Y126137D02*
D03*
X45592D02*
D03*
X252059Y86488D02*
D03*
X255799D02*
D03*
X259539D02*
D03*
X259539Y97512D02*
D03*
X252059D02*
D03*
D21*
X60236Y126181D02*
D03*
X62205D02*
D03*
X64173D02*
D03*
X66142D02*
D03*
X68110D02*
D03*
X70079D02*
D03*
X72047D02*
D03*
X74016D02*
D03*
X75984D02*
D03*
X77953D02*
D03*
X79921D02*
D03*
X81890D02*
D03*
X83858D02*
D03*
X85827D02*
D03*
X87795D02*
D03*
X89764D02*
D03*
Y80905D02*
D03*
X87795D02*
D03*
X85827D02*
D03*
X83858D02*
D03*
X81890D02*
D03*
X79921D02*
D03*
X77953D02*
D03*
X75984D02*
D03*
X74016D02*
D03*
X72047D02*
D03*
X70079D02*
D03*
X68110D02*
D03*
X66142D02*
D03*
X64173D02*
D03*
X62205D02*
D03*
X60236D02*
D03*
D22*
X97638Y118307D02*
D03*
Y116339D02*
D03*
Y114370D02*
D03*
Y112402D02*
D03*
Y110433D02*
D03*
Y108465D02*
D03*
Y106496D02*
D03*
Y104528D02*
D03*
Y102559D02*
D03*
Y100591D02*
D03*
Y98622D02*
D03*
Y96653D02*
D03*
Y94685D02*
D03*
Y92716D02*
D03*
Y90748D02*
D03*
Y88779D02*
D03*
X52362D02*
D03*
Y90748D02*
D03*
Y92716D02*
D03*
Y94685D02*
D03*
Y96653D02*
D03*
Y98622D02*
D03*
Y100591D02*
D03*
Y102559D02*
D03*
Y104528D02*
D03*
Y106496D02*
D03*
Y108465D02*
D03*
Y110433D02*
D03*
Y112402D02*
D03*
Y114370D02*
D03*
Y116339D02*
D03*
Y118307D02*
D03*
D23*
X265483Y86488D02*
D03*
X269262D02*
D03*
X38583Y109252D02*
D03*
X121604Y187805D02*
D03*
X40472Y81496D02*
D03*
X108642Y148130D02*
D03*
X119311D02*
D03*
X43741Y143810D02*
D03*
X72854Y159843D02*
D03*
X69075D02*
D03*
X39962Y143810D02*
D03*
X42362Y109252D02*
D03*
X115532Y148130D02*
D03*
X112421D02*
D03*
X44252Y81496D02*
D03*
X117825Y187805D02*
D03*
D24*
X265791Y93707D02*
D03*
Y89849D02*
D03*
X207024Y153325D02*
D03*
Y157183D02*
D03*
X268940Y159691D02*
D03*
X23031Y154193D02*
D03*
X60276Y136929D02*
D03*
X45900Y99529D02*
D03*
X66142Y69035D02*
D03*
X247185Y156982D02*
D03*
X252362Y20039D02*
D03*
X105020Y92264D02*
D03*
X264646Y41299D02*
D03*
X243484Y156982D02*
D03*
X105800Y113029D02*
D03*
X33100Y131729D02*
D03*
X268940Y163549D02*
D03*
X23031Y150335D02*
D03*
X66142Y72894D02*
D03*
X252362Y16181D02*
D03*
X105800Y109171D02*
D03*
X33100Y127871D02*
D03*
X243484Y153123D02*
D03*
X264646Y37441D02*
D03*
X105020Y96122D02*
D03*
X247185Y153123D02*
D03*
X45900Y95671D02*
D03*
X60276Y133071D02*
D03*
D25*
X172101Y41921D02*
D03*
X159699D02*
D03*
Y53929D02*
D03*
X172101D02*
D03*
D26*
X157731Y47925D02*
D03*
X174069D02*
D03*
D27*
X99488Y12205D02*
D03*
X109488D02*
D03*
X129488D02*
D03*
Y46063D02*
D03*
X109488D02*
D03*
X99488D02*
D03*
X89488D02*
D03*
X59488Y12205D02*
D03*
X69488D02*
D03*
X79488D02*
D03*
X89488D02*
D03*
X119488D02*
D03*
Y46063D02*
D03*
X79488D02*
D03*
X69488D02*
D03*
X59488D02*
D03*
D28*
X30220Y105875D02*
D03*
X32779D02*
D03*
Y102725D02*
D03*
Y104300D02*
D03*
X30220Y102725D02*
D03*
Y104300D02*
D03*
D29*
X21555Y106299D02*
D03*
Y98622D02*
D03*
Y101181D02*
D03*
Y108858D02*
D03*
Y103740D02*
D03*
D30*
X33366Y138622D02*
D03*
Y145827D02*
D03*
X25295Y142224D02*
D03*
D31*
X44488Y189075D02*
D03*
X92618Y189075D02*
D03*
X80709Y189075D02*
D03*
X68898D02*
D03*
X56496Y189075D02*
D03*
Y181988D02*
D03*
X68898Y181988D02*
D03*
X80709D02*
D03*
X92618Y181988D02*
D03*
X44488Y181988D02*
D03*
D32*
X29567Y154429D02*
D03*
X83228Y133169D02*
D03*
X83898Y72913D02*
D03*
X39035Y91535D02*
D03*
X267657Y25295D02*
D03*
X233504Y37402D02*
D03*
X114921Y174932D02*
D03*
X304370Y16929D02*
D03*
X94129Y133700D02*
D03*
X83229Y137200D02*
D03*
X39035Y95669D02*
D03*
X55847Y143602D02*
D03*
X277697Y41240D02*
D03*
X40433Y86831D02*
D03*
X83307Y141152D02*
D03*
X79370Y133169D02*
D03*
X87756Y72913D02*
D03*
X271516Y25295D02*
D03*
X237362Y37402D02*
D03*
X111063Y174932D02*
D03*
X79371Y137200D02*
D03*
X59705Y143602D02*
D03*
X281555Y41240D02*
D03*
X87165Y141152D02*
D03*
X44291Y86831D02*
D03*
X35177Y95669D02*
D03*
X90271Y133700D02*
D03*
X308228Y16929D02*
D03*
X118455Y174932D02*
D03*
X122313D02*
D03*
X35177Y91535D02*
D03*
X33425Y154429D02*
D03*
D33*
X115266Y167983D02*
D03*
X117825Y156369D02*
D03*
X120384D02*
D03*
X112707Y167983D02*
D03*
X115266Y156369D02*
D03*
X112707D02*
D03*
X117825Y167983D02*
D03*
X120384D02*
D03*
D34*
X281338Y30875D02*
D03*
X269450D02*
D03*
X281338Y36781D02*
D03*
X269450Y32844D02*
D03*
Y34812D02*
D03*
Y36781D02*
D03*
X281338Y32844D02*
D03*
Y34812D02*
D03*
D35*
X68996Y151969D02*
D03*
X59547Y148228D02*
D03*
X68996D02*
D03*
Y155709D02*
D03*
X59547D02*
D03*
Y151969D02*
D03*
D36*
X232677Y123807D02*
D03*
Y125776D02*
D03*
X217323D02*
D03*
Y123807D02*
D03*
Y137587D02*
D03*
Y127744D02*
D03*
Y129713D02*
D03*
Y131681D02*
D03*
Y133650D02*
D03*
Y135618D02*
D03*
Y139555D02*
D03*
Y141524D02*
D03*
Y143492D02*
D03*
Y145461D02*
D03*
Y147429D02*
D03*
Y149398D02*
D03*
Y151366D02*
D03*
X232677Y141524D02*
D03*
Y139555D02*
D03*
Y135618D02*
D03*
Y143492D02*
D03*
Y149398D02*
D03*
Y147429D02*
D03*
Y145461D02*
D03*
Y137587D02*
D03*
Y127744D02*
D03*
Y133650D02*
D03*
Y131681D02*
D03*
Y129713D02*
D03*
Y151366D02*
D03*
D37*
X267618Y20000D02*
D03*
X271555D02*
D03*
X275493D02*
D03*
X279430D02*
D03*
D38*
X35138Y81496D02*
D03*
X38700Y118257D02*
D03*
Y112943D02*
D03*
X35138Y86811D02*
D03*
D39*
X262500Y5531D02*
D03*
X284548D02*
D03*
D40*
X11024Y91194D02*
D03*
Y116286D02*
D03*
D41*
Y99213D02*
D03*
Y108268D02*
D03*
D72*
X328224Y28740D02*
D03*
D78*
X148883Y110000D02*
G03*
X150198Y108305I1750J0D01*
G01*
Y111695D02*
G03*
X148883Y110000I435J-1695D01*
G01*
X152717D02*
G03*
X151402Y111695I-1750J0D01*
G01*
Y108305D02*
G03*
X152130Y108692I-435J1695D01*
G01*
D02*
G03*
X152717Y110000I-1163J1308D01*
G01*
X150098Y105895D02*
G03*
X150098Y102505I435J-1695D01*
G01*
X151502D02*
G03*
X151502Y105895I-435J1695D01*
G01*
X159105Y84728D02*
G03*
X162495Y84728I1695J435D01*
G01*
Y86132D02*
G03*
X159105Y86132I-1695J-435D01*
G01*
X52495Y175202D02*
G03*
X49105Y175202I-1695J-435D01*
G01*
Y173798D02*
G03*
X52495Y173798I1695J435D01*
G01*
X35695Y159502D02*
G03*
X32305Y159502I-1695J-435D01*
G01*
Y158098D02*
G03*
X35695Y158098I1695J435D01*
G01*
D79*
X149570Y110000D02*
D03*
X152030D02*
D03*
X152130Y104200D02*
D03*
X149470D02*
D03*
X160800Y86760D02*
D03*
Y84100D02*
D03*
X50800Y173170D02*
D03*
Y175830D02*
D03*
X34000Y157470D02*
D03*
Y160130D02*
D03*
D80*
X10236Y39370D02*
D03*
X372500Y35039D02*
D03*
X12500Y167500D02*
D03*
X269724Y70799D02*
D03*
X249724D02*
D03*
X214500Y72500D02*
D03*
Y67500D02*
D03*
X219724Y70799D02*
D03*
X199724D02*
D03*
X179700D02*
D03*
X169724D02*
D03*
X129724D02*
D03*
X289800Y64500D02*
D03*
X299700Y48150D02*
D03*
X279800Y48000D02*
D03*
X149700Y75500D02*
D03*
Y69600D02*
D03*
X140100Y70799D02*
D03*
Y76600D02*
D03*
X144400Y53400D02*
D03*
X289800Y69500D02*
D03*
Y74500D02*
D03*
X229900Y42000D02*
D03*
X229699Y47925D02*
D03*
X180000Y42500D02*
D03*
Y48000D02*
D03*
Y54000D02*
D03*
X144400Y42400D02*
D03*
X149900Y53400D02*
D03*
Y42400D02*
D03*
X149699Y47825D02*
D03*
X113000Y30500D02*
D03*
X108500D02*
D03*
X104000D02*
D03*
X124124Y113051D02*
D03*
X109921Y110236D02*
D03*
X40713Y72899D02*
D03*
X33100Y123700D02*
D03*
X108600Y142700D02*
D03*
X40716Y43200D02*
D03*
X104523Y75886D02*
D03*
X124124Y94754D02*
D03*
X79528Y54176D02*
D03*
X38877Y172205D02*
D03*
X66634Y34100D02*
D03*
D81*
X119488Y12205D02*
X129488D01*
X256296Y39370D02*
X260630D01*
X38877Y172205D02*
X38917Y172165D01*
X44449D01*
X68996Y155709D02*
X72559D01*
X73976Y154291D01*
Y154193D02*
Y154291D01*
Y154193D02*
X74114Y154055D01*
X74213D01*
X90354Y133209D02*
Y137421D01*
X43014Y95674D02*
X43021Y95682D01*
X45504D01*
X45512Y95689D01*
X35157Y91535D02*
Y95650D01*
X79488Y46063D02*
X79508Y46083D01*
X256398Y28580D02*
X256504D01*
X256619Y28465D01*
X260610D01*
X260630Y28445D01*
X35157Y86831D02*
Y91535D01*
X35138Y86811D02*
X35157Y86831D01*
Y95650D02*
X35177Y95669D01*
X90354Y133209D02*
X90394Y133169D01*
X44449Y172165D02*
X44488Y172126D01*
X72067Y148228D02*
X74114Y150276D01*
X68996Y148228D02*
X72067D01*
X74114Y150276D02*
X74213D01*
X68996Y155709D02*
X69035Y155748D01*
Y159803D01*
X69075Y159843D01*
X92618Y176102D02*
Y181988D01*
X80709Y175984D02*
Y181988D01*
X68898Y176004D02*
Y181988D01*
X56496Y175984D02*
Y181988D01*
D82*
X149900Y10600D02*
X236100D01*
X240000Y14500D02*
Y20000D01*
X236100Y10600D02*
X240000Y14500D01*
X108642Y138107D02*
Y148130D01*
X40713Y21078D02*
Y72899D01*
X113000Y30500D02*
X130000D01*
X124124Y145403D02*
X137006Y158286D01*
Y183982D01*
X124124Y113051D02*
Y145403D01*
X49587Y12205D02*
X59488D01*
X109921Y110236D02*
Y136827D01*
X40713Y21078D02*
X49587Y12205D01*
X105586Y172205D02*
X108642Y169149D01*
X105661Y183502D02*
Y189955D01*
X109338Y193632D01*
X127798Y183161D02*
Y189580D01*
X123746Y193632D02*
X127798Y189580D01*
X109338Y193632D02*
X121653D01*
X123746D01*
X105586Y172205D02*
Y175140D01*
Y183427D01*
X108642Y148130D02*
Y167932D01*
Y169149D01*
Y138107D02*
X109921Y136827D01*
X72663Y164000D02*
X77600D01*
X93470Y148130D02*
X108642D01*
X77600Y164000D02*
X88617Y152982D01*
X88822Y152778D02*
X93470Y148130D01*
X29300Y161300D02*
X32000Y164000D01*
X43886D01*
X72663D01*
X130000Y30500D02*
X149900Y10600D01*
X104523Y75886D02*
Y84074D01*
X115203Y94754D02*
X124124D01*
X104523Y84074D02*
X115203Y94754D01*
X137006Y183982D02*
Y188900D01*
X11024Y91194D02*
Y99213D01*
Y108268D01*
Y116286D01*
D83*
X160800Y80905D02*
Y84100D01*
X149470Y104200D02*
X152130D01*
X160800Y84100D02*
Y86760D01*
X50800Y173170D02*
Y175830D01*
X34000Y157470D02*
Y160130D01*
X152717Y110000D02*
X160000D01*
X194344Y127744D02*
X217323D01*
X181253Y114653D02*
X194344Y127744D01*
X168661Y114653D02*
X181253D01*
X164008Y110000D02*
X168661Y114653D01*
X160000Y110000D02*
X164008D01*
X152130Y108692D02*
Y109900D01*
Y104200D02*
Y108692D01*
X152030Y110000D02*
X152130Y109900D01*
D84*
X271469Y19954D02*
X271535Y20019D01*
X252362Y16181D02*
X252520D01*
X248594D02*
X252362D01*
X79370Y133169D02*
Y149900D01*
X59528Y148209D02*
X59626Y148110D01*
X105748Y109193D02*
X108878D01*
X87795Y72953D02*
X87898Y73055D01*
X87756Y72913D02*
X87795Y72953D01*
X91400Y74600D02*
Y74600D01*
X87898Y73055D02*
Y73109D01*
X89909D01*
X91400Y74600D01*
X244776Y20000D02*
X248594Y16181D01*
X240000Y20000D02*
X244776D01*
X268940Y163549D02*
Y166220D01*
X266148Y159691D02*
X268940D01*
X255855Y149398D02*
X266148Y159691D01*
X268940D02*
X270451D01*
X275760Y165000D01*
X45584Y137153D02*
X45592Y137161D01*
X45584Y133284D02*
Y137153D01*
X44029Y131729D02*
X45584Y133284D01*
X33100Y131729D02*
X44029D01*
X33344Y135217D02*
Y138600D01*
X33366Y138622D01*
X247202Y159983D02*
X247218Y160000D01*
X247202Y156998D02*
Y159983D01*
X247185Y156982D02*
X247202Y156998D01*
X243485Y159999D02*
X243486Y160000D01*
X243485Y156983D02*
Y159999D01*
X243484Y156982D02*
X243485Y156983D01*
X55850Y140461D02*
X55855Y140457D01*
X55850Y140461D02*
Y143598D01*
X55847Y143602D02*
X55850Y143598D01*
X60280Y139744D02*
X60284Y139748D01*
X60280Y136933D02*
Y139744D01*
X60276Y136929D02*
X60280Y136933D01*
X62697Y69035D02*
X66142D01*
X35800Y109200D02*
X38531D01*
X38583Y109252D01*
X35800Y109200D02*
X35800Y109200D01*
X23016Y154209D02*
X23031Y154193D01*
X23016Y154209D02*
Y157084D01*
X29583Y157283D02*
X29600Y157300D01*
X29567Y154429D02*
X29583Y154446D01*
X45595Y137157D02*
X48421D01*
X45592Y137161D02*
X45595Y137157D01*
X48421D02*
X48425Y137153D01*
X23000Y157100D02*
X23016Y157084D01*
X29583Y154446D02*
Y157283D01*
X54547Y148209D02*
X59528D01*
X54528Y148189D02*
X54547Y148209D01*
X54518Y148199D02*
X54528Y148189D01*
X50502Y148199D02*
X54518D01*
X50492Y148209D02*
X50502Y148199D01*
X59626Y143681D02*
X59705Y143602D01*
X59626Y143681D02*
Y148110D01*
X75999Y132141D02*
X77027Y133169D01*
X79370D01*
X43741Y148209D02*
X50492D01*
X108878Y109193D02*
X109921Y110236D01*
X105586Y183427D02*
X105661Y183502D01*
X123343Y182780D02*
X127417D01*
X123339Y182776D02*
X123343Y182780D01*
X121604Y187805D02*
Y193584D01*
X105793Y174932D02*
X111063D01*
X108693Y167983D02*
X112707D01*
X119316Y144779D02*
X119320Y144775D01*
X119316Y144779D02*
Y148125D01*
X119311Y148130D02*
X119316Y148125D01*
X127417Y182780D02*
X127798Y183161D01*
X241399Y37401D02*
X241400Y37400D01*
X237363Y37401D02*
X241399D01*
X237362Y37402D02*
X237363Y37401D01*
X38111Y126137D02*
Y127220D01*
X37460Y127871D02*
X38111Y127220D01*
X33100Y127871D02*
X37460D01*
X38602Y118257D02*
X38700D01*
X38111Y118748D02*
X38602Y118257D01*
X38111Y118748D02*
Y126137D01*
X33100Y123700D02*
Y127871D01*
X72663Y164000D02*
X72854Y163809D01*
Y159843D02*
Y163809D01*
X43741Y163855D02*
X43886Y164000D01*
X43741Y143810D02*
Y148209D01*
Y163855D01*
X88617Y152982D02*
X88822Y152778D01*
X82453Y152982D02*
X88617D01*
X79370Y149900D02*
X82453Y152982D01*
X62697Y72835D02*
X62726Y72864D01*
X66112D01*
X66142Y72894D01*
X87756Y72913D02*
X87795D01*
X254757Y13787D02*
X269252D01*
X252661Y15882D02*
X254757Y13787D01*
X252661Y15882D02*
Y16039D01*
X252520Y16181D02*
X252661Y16039D01*
X269252Y13787D02*
X271469Y16004D01*
Y19954D01*
X105042Y96144D02*
X107562D01*
X181813Y170000D02*
X202415Y149398D01*
X210000D01*
X207049Y153300D02*
X211200D01*
X87165Y141152D02*
X87165Y141152D01*
Y145100D01*
X87165Y141152D02*
X87165Y141151D01*
X87165Y145100D02*
X87165Y145100D01*
X35720Y112949D02*
X38694D01*
X38700Y112943D01*
X35713Y112955D02*
X35720Y112949D01*
X113878Y187805D02*
X117825D01*
X113878Y182776D02*
X117608D01*
X207024Y153325D02*
X207049Y153300D01*
X243484Y153123D02*
X247185D01*
X308228Y16929D02*
X308228Y16929D01*
Y13787D02*
Y16929D01*
Y13787D02*
X308228Y13787D01*
X240131Y149398D02*
X255855D01*
X275760Y165000D02*
X285000D01*
X240131Y153123D02*
X243484D01*
X285000Y165000D02*
X290000Y170000D01*
X57189Y133123D02*
X57215Y133097D01*
X60250D01*
X60276Y133071D01*
X87165Y135630D02*
Y141151D01*
D85*
X120177Y156576D02*
X120384Y156369D01*
X117825D02*
X120089D01*
X120177Y156457D01*
Y156576D01*
X46713Y100591D02*
X52362D01*
X45669Y99547D02*
X46713Y100591D01*
X46595Y98622D02*
X52362D01*
X45669Y99547D02*
X46595Y98622D01*
X45512Y99547D02*
X45669D01*
X45089Y99124D02*
X45512Y99547D01*
D86*
X281555Y36931D02*
Y41240D01*
X281405Y36781D02*
X281555Y36931D01*
X271516Y25295D02*
X271535Y25276D01*
Y20019D02*
Y25276D01*
X273460Y29299D02*
Y35272D01*
X274968Y36781D02*
X281338D01*
X281405D01*
X271526Y25305D02*
Y27365D01*
X271516Y25295D02*
X271526Y25305D01*
Y27365D02*
X273460Y29299D01*
Y35272D02*
X274968Y36781D01*
D87*
X79508Y46083D02*
Y54157D01*
X79528Y54176D01*
X170000Y170000D02*
X181813D01*
D88*
X41038Y102559D02*
X52362D01*
X35756Y97276D02*
X41038Y102559D01*
X35177Y95669D02*
X35756Y96248D01*
Y97276D01*
X42362Y109252D02*
X42362Y109252D01*
X45079D01*
X45866Y108465D01*
X52362D01*
X44272Y86811D02*
X44291Y86831D01*
X44272Y81516D02*
Y86811D01*
X44252Y81496D02*
X44272Y81516D01*
X44291Y86831D02*
Y90905D01*
X46102Y92716D01*
X52362D01*
D89*
X115458Y148322D02*
Y156177D01*
X115266Y156369D02*
X115458Y156177D01*
X112303Y148130D02*
X112505Y148332D01*
Y156167D01*
X112707Y156369D01*
D90*
X242000Y84050D02*
D03*
D91*
X289800Y69500D02*
D03*
D92*
X177250Y48000D02*
D03*
D93*
X180000Y48250D02*
D03*
D94*
X149700Y72250D02*
D03*
D95*
X139950Y73000D02*
D03*
D96*
X108750Y30500D02*
D03*
D97*
X90551Y60583D02*
D03*
D98*
X350000Y150000D02*
D03*
X360000D02*
D03*
X370000D02*
D03*
X350000Y140000D02*
D03*
X360000D02*
D03*
X370000D02*
D03*
X380000D02*
D03*
X350000Y160000D02*
D03*
X360000D02*
D03*
X370000D02*
D03*
X380000D02*
D03*
X290000Y110000D02*
D03*
X280000Y100000D02*
D03*
X290000D02*
D03*
X170000D02*
D03*
X160000D02*
D03*
X170000Y110000D02*
D03*
X380000Y130000D02*
D03*
Y90000D02*
D03*
Y50000D02*
D03*
Y70000D02*
D03*
Y110000D02*
D03*
Y150000D02*
D03*
X301260Y7480D02*
D03*
X230000Y20000D02*
D03*
Y30000D02*
D03*
X11417Y149370D02*
D03*
X310000Y60000D02*
D03*
Y80000D02*
D03*
Y160000D02*
D03*
X240000Y20000D02*
D03*
Y30000D02*
D03*
X220000D02*
D03*
Y20000D02*
D03*
X200000Y30000D02*
D03*
X210000D02*
D03*
X200000Y20000D02*
D03*
X210000D02*
D03*
X190000Y30000D02*
D03*
X321260Y7480D02*
D03*
X331260D02*
D03*
X311260D02*
D03*
X330000Y160000D02*
D03*
X340000D02*
D03*
X320000D02*
D03*
X330000Y150000D02*
D03*
X340000D02*
D03*
X310000D02*
D03*
X320000D02*
D03*
X310000Y120000D02*
D03*
Y110000D02*
D03*
X320000Y120000D02*
D03*
Y110000D02*
D03*
X330000Y120000D02*
D03*
Y110000D02*
D03*
X340000Y120000D02*
D03*
Y110000D02*
D03*
X350000Y120000D02*
D03*
Y110000D02*
D03*
X360000Y120000D02*
D03*
Y110000D02*
D03*
X370000Y120000D02*
D03*
Y110000D02*
D03*
X380000Y120000D02*
D03*
X310000Y70000D02*
D03*
X320000Y80000D02*
D03*
Y70000D02*
D03*
X330000Y80000D02*
D03*
Y70000D02*
D03*
X340000Y80000D02*
D03*
Y70000D02*
D03*
X350000Y80000D02*
D03*
Y70000D02*
D03*
X360000Y80000D02*
D03*
Y70000D02*
D03*
X370000Y80000D02*
D03*
Y70000D02*
D03*
X380000Y80000D02*
D03*
X310000Y50000D02*
D03*
X320000Y60000D02*
D03*
Y50000D02*
D03*
X330000Y60000D02*
D03*
Y50000D02*
D03*
X340000Y60000D02*
D03*
Y50000D02*
D03*
X350000Y60000D02*
D03*
Y50000D02*
D03*
X360000Y60000D02*
D03*
Y50000D02*
D03*
X370000Y60000D02*
D03*
Y50000D02*
D03*
X380000Y60000D02*
D03*
X310000Y100000D02*
D03*
Y90000D02*
D03*
X320000Y100000D02*
D03*
Y90000D02*
D03*
X330000Y100000D02*
D03*
Y90000D02*
D03*
X340000Y100000D02*
D03*
Y90000D02*
D03*
X350000Y100000D02*
D03*
Y90000D02*
D03*
X360000Y100000D02*
D03*
Y90000D02*
D03*
X370000Y100000D02*
D03*
Y90000D02*
D03*
X380000Y100000D02*
D03*
X310000Y140000D02*
D03*
Y130000D02*
D03*
X320000Y140000D02*
D03*
Y130000D02*
D03*
X330000Y140000D02*
D03*
Y130000D02*
D03*
X340000Y140000D02*
D03*
Y130000D02*
D03*
X350000D02*
D03*
X360000D02*
D03*
X370000D02*
D03*
X170000Y170000D02*
D03*
X160000Y160000D02*
D03*
X170000D02*
D03*
X160000Y150000D02*
D03*
X170000D02*
D03*
X160000Y140000D02*
D03*
X170000D02*
D03*
X160000Y130000D02*
D03*
X170000D02*
D03*
X160000Y120000D02*
D03*
X170000D02*
D03*
X160000Y110000D02*
D03*
X280000D02*
D03*
X290000Y120000D02*
D03*
X280000D02*
D03*
X290000Y130000D02*
D03*
X280000D02*
D03*
X290000Y140000D02*
D03*
X280000D02*
D03*
X290000Y150000D02*
D03*
X280000D02*
D03*
X290000Y160000D02*
D03*
X280000D02*
D03*
X290000Y170000D02*
D03*
D99*
X15748Y188976D02*
D03*
X370079Y15748D02*
D03*
Y188976D02*
D03*
X15748Y15748D02*
D03*
D100*
X11417Y139370D02*
D03*
X160000Y170000D02*
D03*
X280000D02*
D03*
D101*
X253913Y126433D02*
D03*
X214913Y193933D02*
D03*
D102*
X11024Y87303D02*
D03*
Y120177D02*
D03*
D103*
X22835Y94980D02*
D03*
Y112500D02*
D03*
D104*
X190000Y20000D02*
D03*
X341260Y7480D02*
D03*
D105*
X114000Y16500D02*
D03*
X129500Y23500D02*
D03*
X166500Y81000D02*
D03*
X139500Y28000D02*
D03*
X93500Y18000D02*
D03*
X104000D02*
D03*
X160800Y80905D02*
D03*
X225000Y48000D02*
D03*
X234500D02*
D03*
X304000D02*
D03*
X264728Y71021D02*
D03*
X254500Y71000D02*
D03*
X274500D02*
D03*
X280900Y63100D02*
D03*
X238400Y87100D02*
D03*
X241400D02*
D03*
X200500Y96500D02*
D03*
X193900Y99800D02*
D03*
X184100Y59100D02*
D03*
X138100Y95900D02*
D03*
X109600Y78700D02*
D03*
X200500Y106500D02*
D03*
X196000Y124000D02*
D03*
X204000Y116000D02*
D03*
X191500D02*
D03*
X195800Y53500D02*
D03*
X191100Y38000D02*
D03*
X195800Y42700D02*
D03*
X191500Y58600D02*
D03*
X124400Y40500D02*
D03*
X212200Y58800D02*
D03*
X165500Y42500D02*
D03*
X155500Y31500D02*
D03*
X147500Y23500D02*
D03*
X169000D02*
D03*
X171500Y31500D02*
D03*
X165500D02*
D03*
X160500Y26000D02*
D03*
X155000Y20500D02*
D03*
X142500Y31500D02*
D03*
X136000D02*
D03*
X279525Y56899D02*
D03*
X275500Y56835D02*
D03*
X238400Y84050D02*
D03*
X241400D02*
D03*
Y81000D02*
D03*
X238400D02*
D03*
X306000Y43000D02*
D03*
X297500Y30300D02*
D03*
X307024Y54994D02*
D03*
X231000Y53500D02*
D03*
X129700Y82100D02*
D03*
Y76600D02*
D03*
X126700Y89990D02*
D03*
X100000Y65000D02*
D03*
X91400Y74600D02*
D03*
X178445Y80905D02*
D03*
X239277Y113649D02*
D03*
X235500Y53500D02*
D03*
X165900Y87500D02*
D03*
X140700Y102400D02*
D03*
X147500Y114653D02*
D03*
X144600Y117307D02*
D03*
X137900Y121653D02*
D03*
X144600Y98622D02*
D03*
Y104200D02*
D03*
X232440Y90750D02*
D03*
X69230Y89740D02*
D03*
X66070Y89810D02*
D03*
X91560Y115410D02*
D03*
X85870Y120750D02*
D03*
X70100Y115940D02*
D03*
X42250Y118700D02*
D03*
X103410D02*
D03*
X61870Y27290D02*
D03*
X78820Y28080D02*
D03*
X175960Y110120D02*
D03*
X169700Y65000D02*
D03*
X177350Y36750D02*
D03*
X74440Y32510D02*
D03*
X58415Y57300D02*
D03*
X268940Y166220D02*
D03*
X164961Y96619D02*
D03*
X233464Y121019D02*
D03*
X305478Y66500D02*
D03*
X129378Y134100D02*
D03*
X165078Y147876D02*
D03*
X129700Y64500D02*
D03*
X113878Y177976D02*
D03*
X109878Y178576D02*
D03*
X65078Y158976D02*
D03*
X60362Y139724D02*
D03*
X55928Y140437D02*
D03*
X83385Y148204D02*
D03*
X97148Y133676D02*
D03*
X94207Y130517D02*
D03*
X94285Y136909D02*
D03*
X103721Y89639D02*
D03*
X76062Y86393D02*
D03*
X52426Y123079D02*
D03*
X58415Y110409D02*
D03*
X58337Y101181D02*
D03*
Y98054D02*
D03*
X58415Y94661D02*
D03*
Y91511D02*
D03*
X47971Y85654D02*
D03*
X41278Y89676D02*
D03*
X42778Y99676D02*
D03*
X35088Y101157D02*
D03*
X35878Y109176D02*
D03*
X44566Y193276D02*
D03*
X56574Y193376D02*
D03*
X68976Y193276D02*
D03*
X80787D02*
D03*
X92696Y193376D02*
D03*
X97716Y189050D02*
D03*
X86578Y188976D02*
D03*
X74678Y189076D02*
D03*
X62578Y188976D02*
D03*
X50478D02*
D03*
X38378Y188876D02*
D03*
X164978Y102476D02*
D03*
X175078D02*
D03*
X254800Y97500D02*
D03*
X249378Y97476D02*
D03*
X252078Y93476D02*
D03*
X255878Y91376D02*
D03*
X263078Y89876D02*
D03*
X279978Y93176D02*
D03*
X290078D02*
D03*
X291978Y104976D02*
D03*
Y114976D02*
D03*
X284878Y112076D02*
D03*
Y105176D02*
D03*
X210178Y124976D02*
D03*
Y122276D02*
D03*
X207078Y159776D02*
D03*
X203278Y157076D02*
D03*
X215578Y119776D02*
D03*
X212378D02*
D03*
X105578Y115576D02*
D03*
X103278Y112976D02*
D03*
X62775Y69011D02*
D03*
X4015Y149346D02*
D03*
X11505Y157060D02*
D03*
X38778Y84976D02*
D03*
X17478Y98776D02*
D03*
X17178Y91676D02*
D03*
X17278Y115976D02*
D03*
X17778Y123376D02*
D03*
X80078Y38276D02*
D03*
X82978Y23176D02*
D03*
X229978Y37276D02*
D03*
X232978Y24976D02*
D03*
X227778Y15076D02*
D03*
X249578Y19976D02*
D03*
X264878Y25276D02*
D03*
X267878Y28376D02*
D03*
X264800Y19800D02*
D03*
X281378Y28876D02*
D03*
X294378Y7476D02*
D03*
X301278Y13776D02*
D03*
X304978Y3476D02*
D03*
X243563Y159974D02*
D03*
X23078Y157176D02*
D03*
X29661Y157259D02*
D03*
X5078Y199976D02*
D03*
X25078D02*
D03*
X35078D02*
D03*
X45078D02*
D03*
X55078D02*
D03*
X65078D02*
D03*
X75078D02*
D03*
X85078D02*
D03*
X95078D02*
D03*
X105078D02*
D03*
X115078D02*
D03*
X125078D02*
D03*
X135078D02*
D03*
X145078D02*
D03*
X155078D02*
D03*
X165078D02*
D03*
X175078D02*
D03*
X185078D02*
D03*
X195078D02*
D03*
X205078D02*
D03*
X225078D02*
D03*
X235078D02*
D03*
X245078D02*
D03*
X255078D02*
D03*
X265078D02*
D03*
X275078D02*
D03*
X285078D02*
D03*
X295078D02*
D03*
X305078D02*
D03*
X315078D02*
D03*
X325078D02*
D03*
X335078D02*
D03*
X345078D02*
D03*
X355078D02*
D03*
X380078D02*
D03*
X355078Y189976D02*
D03*
X345078D02*
D03*
X335078D02*
D03*
X325078D02*
D03*
X315078D02*
D03*
X225078D02*
D03*
X205078D02*
D03*
X35078Y179976D02*
D03*
X5078Y169976D02*
D03*
X25078D02*
D03*
X75078Y179976D02*
D03*
X5078Y4976D02*
D03*
X25078D02*
D03*
X35078D02*
D03*
X45078D02*
D03*
X55078D02*
D03*
X75078D02*
D03*
X85078D02*
D03*
X95078D02*
D03*
X105078D02*
D03*
X115078D02*
D03*
X125078D02*
D03*
X135078D02*
D03*
X145078D02*
D03*
X155078D02*
D03*
X165078D02*
D03*
X175078D02*
D03*
X185078D02*
D03*
X195078D02*
D03*
X205078D02*
D03*
X215078D02*
D03*
X225078D02*
D03*
X235078D02*
D03*
X245078D02*
D03*
X255078D02*
D03*
X275078D02*
D03*
X380078D02*
D03*
X360078D02*
D03*
X350078D02*
D03*
Y14976D02*
D03*
Y24976D02*
D03*
Y34976D02*
D03*
X360078D02*
D03*
X340078D02*
D03*
X330078D02*
D03*
Y14976D02*
D03*
X310078Y24976D02*
D03*
X290078D02*
D03*
Y14976D02*
D03*
X155078D02*
D03*
X165078D02*
D03*
X175078D02*
D03*
X185078D02*
D03*
X179000Y23500D02*
D03*
X35078Y14976D02*
D03*
Y24976D02*
D03*
Y34976D02*
D03*
X25078D02*
D03*
X15078D02*
D03*
X5078D02*
D03*
Y24976D02*
D03*
Y44976D02*
D03*
X15078D02*
D03*
X25078D02*
D03*
X15078Y54976D02*
D03*
X5078D02*
D03*
Y64976D02*
D03*
X15078D02*
D03*
Y74976D02*
D03*
X5078D02*
D03*
X35078Y54976D02*
D03*
Y64976D02*
D03*
Y74976D02*
D03*
X45078Y64976D02*
D03*
Y54976D02*
D03*
X80078Y89976D02*
D03*
X90078D02*
D03*
Y99976D02*
D03*
X80078D02*
D03*
X90078Y109976D02*
D03*
X80078D02*
D03*
X265078Y104976D02*
D03*
X290078Y84976D02*
D03*
X280078D02*
D03*
X230078Y159976D02*
D03*
X190000Y170000D02*
D03*
X200078Y159976D02*
D03*
X50478Y179176D02*
D03*
X102778Y168276D02*
D03*
X140778Y128676D02*
D03*
X154878Y151976D02*
D03*
X164978Y138376D02*
D03*
X221678Y145376D02*
D03*
X247200Y160000D02*
D03*
X208800Y96500D02*
D03*
X215778Y15076D02*
D03*
X191178Y14876D02*
D03*
X95078Y80204D02*
D03*
X274978Y41176D02*
D03*
X267578Y41276D02*
D03*
X265000Y48000D02*
D03*
X323278Y34976D02*
D03*
X323478Y29576D02*
D03*
X45578Y140676D02*
D03*
X48478Y137176D02*
D03*
X33278Y134976D02*
D03*
X36078Y131676D02*
D03*
X273978Y13576D02*
D03*
Y80576D02*
D03*
X255000Y48000D02*
D03*
X241400Y37400D02*
D03*
X22400Y147100D02*
D03*
X25150D02*
D03*
X27900D02*
D03*
X119320Y144775D02*
D03*
X241400Y41200D02*
D03*
X62697Y72835D02*
D03*
X37460Y160307D02*
D03*
X39962D02*
D03*
X273460Y86410D02*
D03*
X216535Y108692D02*
D03*
X220400Y112400D02*
D03*
X186600Y105213D02*
D03*
X132480Y116929D02*
D03*
X80800Y69000D02*
D03*
X107584Y96166D02*
D03*
X117421Y108519D02*
D03*
Y90000D02*
D03*
X122015Y87722D02*
D03*
X265483Y82300D02*
D03*
X105177Y126137D02*
D03*
X79528Y24614D02*
D03*
X69700D02*
D03*
X66400D02*
D03*
X73000D02*
D03*
X174600Y89990D02*
D03*
X190800D02*
D03*
X172638Y80905D02*
D03*
X211200Y153300D02*
D03*
X137006Y183982D02*
D03*
X87165Y145100D02*
D03*
X35713Y112955D02*
D03*
X27400Y136119D02*
D03*
Y133139D02*
D03*
X50800Y168600D02*
D03*
X31600Y100000D02*
D03*
X66634Y38325D02*
D03*
X63061D02*
D03*
X59488D02*
D03*
X141237Y183982D02*
D03*
Y188900D02*
D03*
X137006D02*
D03*
X132776Y183982D02*
D03*
Y188900D02*
D03*
X268500Y173081D02*
D03*
X113878Y187805D02*
D03*
Y182776D02*
D03*
X73000Y20416D02*
D03*
X104700Y154400D02*
D03*
Y158033D02*
D03*
Y161667D02*
D03*
Y165300D02*
D03*
X69700Y20416D02*
D03*
X66400D02*
D03*
X308228Y13787D02*
D03*
X313800Y32300D02*
D03*
X52087Y137153D02*
D03*
X317098Y28740D02*
D03*
X210000Y149398D02*
D03*
X240131Y149398D02*
D03*
Y153123D02*
D03*
X57189Y133123D02*
D03*
X27400Y139100D02*
D03*
X31545Y112500D02*
D03*
X31516Y109457D02*
D03*
X45900Y112402D02*
D03*
X43014Y95674D02*
D03*
X74958Y101671D02*
D03*
X120197Y112500D02*
D03*
X135433Y116929D02*
D03*
X105177Y121653D02*
D03*
X256296Y39370D02*
D03*
X256398Y28580D02*
D03*
X90354Y137421D02*
D03*
M02*
