G04*
G04 #@! TF.GenerationSoftware,Altium Limited,Altium Designer,20.1.11 (218)*
G04*
G04 Layer_Color=128*
%FSLAX25Y25*%
%MOIN*%
G70*
G04*
G04 #@! TF.SameCoordinates,8DDD7718-E0D7-425E-BE50-D601791E5550*
G04*
G04*
G04 #@! TF.FilePolarity,Positive*
G04*
G01*
G75*
%ADD12C,0.01000*%
G04:AMPARAMS|DCode=24|XSize=25.98mil|YSize=22.84mil|CornerRadius=5.71mil|HoleSize=0mil|Usage=FLASHONLY|Rotation=180.000|XOffset=0mil|YOffset=0mil|HoleType=Round|Shape=RoundedRectangle|*
%AMROUNDEDRECTD24*
21,1,0.02598,0.01142,0,0,180.0*
21,1,0.01457,0.02284,0,0,180.0*
1,1,0.01142,-0.00728,0.00571*
1,1,0.01142,0.00728,0.00571*
1,1,0.01142,0.00728,-0.00571*
1,1,0.01142,-0.00728,-0.00571*
%
%ADD24ROUNDEDRECTD24*%
G04:AMPARAMS|DCode=32|XSize=25.98mil|YSize=22.84mil|CornerRadius=5.71mil|HoleSize=0mil|Usage=FLASHONLY|Rotation=270.000|XOffset=0mil|YOffset=0mil|HoleType=Round|Shape=RoundedRectangle|*
%AMROUNDEDRECTD32*
21,1,0.02598,0.01142,0,0,270.0*
21,1,0.01457,0.02284,0,0,270.0*
1,1,0.01142,-0.00571,-0.00728*
1,1,0.01142,-0.00571,0.00728*
1,1,0.01142,0.00571,0.00728*
1,1,0.01142,0.00571,-0.00728*
%
%ADD32ROUNDEDRECTD32*%
%ADD79C,0.00787*%
%ADD106R,0.03937X0.06142*%
G04:AMPARAMS|DCode=107|XSize=9.84mil|YSize=43.31mil|CornerRadius=2.46mil|HoleSize=0mil|Usage=FLASHONLY|Rotation=270.000|XOffset=0mil|YOffset=0mil|HoleType=Round|Shape=RoundedRectangle|*
%AMROUNDEDRECTD107*
21,1,0.00984,0.03839,0,0,270.0*
21,1,0.00492,0.04331,0,0,270.0*
1,1,0.00492,-0.01919,-0.00246*
1,1,0.00492,-0.01919,0.00246*
1,1,0.00492,0.01919,0.00246*
1,1,0.00492,0.01919,-0.00246*
%
%ADD107ROUNDEDRECTD107*%
%ADD108R,0.02055X0.02362*%
D12*
X331224Y28740D02*
G03*
X331224Y28740I-3000J0D01*
G01*
D24*
X31500Y119229D02*
D03*
X42655Y116299D02*
D03*
X38900Y116329D02*
D03*
Y112471D02*
D03*
X42655Y112441D02*
D03*
X31500Y115371D02*
D03*
D32*
X312244Y20965D02*
D03*
Y25235D02*
D03*
X247344Y153128D02*
D03*
X247344Y149388D02*
D03*
X203062Y149384D02*
D03*
X203161Y153322D02*
D03*
X207019D02*
D03*
X206921Y149384D02*
D03*
X243486Y149388D02*
D03*
X243486Y153128D02*
D03*
X316102Y25235D02*
D03*
Y20965D02*
D03*
D79*
X328224Y25740D02*
D03*
X328224Y31740D02*
D03*
D106*
X299724Y70799D02*
D03*
X289724D02*
D03*
X279724D02*
D03*
X269724D02*
D03*
X259724D02*
D03*
X249724D02*
D03*
X239724D02*
D03*
X229724D02*
D03*
X219724D02*
D03*
X209724D02*
D03*
X199724D02*
D03*
X189724D02*
D03*
X179724D02*
D03*
X169724D02*
D03*
X159724D02*
D03*
X149724D02*
D03*
X139724D02*
D03*
X129724D02*
D03*
X119724D02*
D03*
X109724D02*
D03*
X299724Y47925D02*
D03*
X289724D02*
D03*
X279724D02*
D03*
X269724D02*
D03*
X259724D02*
D03*
X249724D02*
D03*
X239724D02*
D03*
X229724D02*
D03*
X219724D02*
D03*
X209724D02*
D03*
X199724D02*
D03*
X189724D02*
D03*
X179724D02*
D03*
X169724D02*
D03*
X159724D02*
D03*
X149724D02*
D03*
X139724D02*
D03*
X129724D02*
D03*
X119724D02*
D03*
X109724D02*
D03*
D107*
X214154Y137587D02*
D03*
Y141524D02*
D03*
Y135618D02*
D03*
Y139555D02*
D03*
X235846Y133650D02*
D03*
X214154Y127744D02*
D03*
X235846Y125776D02*
D03*
X214154D02*
D03*
X235846Y123807D02*
D03*
X214154D02*
D03*
X235846Y127744D02*
D03*
X214154Y133650D02*
D03*
X235846Y135618D02*
D03*
Y137587D02*
D03*
Y139555D02*
D03*
Y141524D02*
D03*
X214154Y143492D02*
D03*
X235846D02*
D03*
X214154Y145461D02*
D03*
X235846D02*
D03*
X214154Y147429D02*
D03*
X235846D02*
D03*
X214154Y149398D02*
D03*
X235846D02*
D03*
Y151366D02*
D03*
X214154D02*
D03*
X235846Y131681D02*
D03*
Y129713D02*
D03*
X214154Y131681D02*
D03*
Y129713D02*
D03*
D108*
X323295Y32283D02*
D03*
X320058D02*
D03*
Y25197D02*
D03*
X323295D02*
D03*
X320058Y28740D02*
D03*
M02*
