G04*
G04 #@! TF.GenerationSoftware,Altium Limited,Altium Designer,20.1.11 (218)*
G04*
G04 Layer_Color=128*
%FSLAX25Y25*%
%MOIN*%
G70*
G04*
G04 #@! TF.SameCoordinates,8DDD7718-E0D7-425E-BE50-D601791E5550*
G04*
G04*
G04 #@! TF.FilePolarity,Positive*
G04*
G01*
G75*
%ADD116C,0.00200*%
D116*
X85039Y60583D02*
X96063D01*
X90551Y55071D02*
Y66094D01*
X348228Y150000D02*
X351772D01*
X350000Y148228D02*
Y151772D01*
X358228Y150000D02*
X361772D01*
X360000Y148228D02*
Y151772D01*
X368228Y150000D02*
X371772D01*
X370000Y148228D02*
Y151772D01*
X348228Y140000D02*
X351772D01*
X350000Y138228D02*
Y141772D01*
X358228Y140000D02*
X361772D01*
X360000Y138228D02*
Y141772D01*
X368228Y140000D02*
X371772D01*
X370000Y138228D02*
Y141772D01*
X378228Y140000D02*
X381772D01*
X380000Y138228D02*
Y141772D01*
X348228Y160000D02*
X351772D01*
X350000Y158228D02*
Y161772D01*
X358228Y160000D02*
X361772D01*
X360000Y158228D02*
Y161772D01*
X368228Y160000D02*
X371772D01*
X370000Y158228D02*
Y161772D01*
X378228Y160000D02*
X381772D01*
X380000Y158228D02*
Y161772D01*
X10335Y188976D02*
X21161D01*
X15748Y183563D02*
Y194390D01*
X288228Y110000D02*
X291772D01*
X290000Y108228D02*
Y111772D01*
X278228Y100000D02*
X281772D01*
X280000Y98228D02*
Y101772D01*
X288228Y100000D02*
X291772D01*
X290000Y98228D02*
Y101772D01*
X168228Y100000D02*
X171772D01*
X170000Y98228D02*
Y101772D01*
X158228Y100000D02*
X161772D01*
X160000Y98228D02*
Y101772D01*
X168228Y110000D02*
X171772D01*
X170000Y108228D02*
Y111772D01*
X364665Y15748D02*
X375492D01*
X370079Y10335D02*
Y21161D01*
X364665Y188976D02*
X375492D01*
X370079Y183563D02*
Y194390D01*
X378228Y130000D02*
X381772D01*
X380000Y128228D02*
Y131772D01*
X378228Y90000D02*
X381772D01*
X380000Y88228D02*
Y91772D01*
X378228Y50000D02*
X381772D01*
X380000Y48228D02*
Y51772D01*
X378228Y70000D02*
X381772D01*
X380000Y68228D02*
Y71772D01*
X378228Y110000D02*
X381772D01*
X380000Y108228D02*
Y111772D01*
X378228Y150000D02*
X381772D01*
X380000Y148228D02*
Y151772D01*
X299488Y7480D02*
X303031D01*
X301260Y5709D02*
Y9252D01*
X228228Y20000D02*
X231772D01*
X230000Y18228D02*
Y21772D01*
X228228Y30000D02*
X231772D01*
X230000Y28228D02*
Y31772D01*
X10335Y15748D02*
X21161D01*
X15748Y10335D02*
Y21161D01*
X9646Y149370D02*
X13189D01*
X11417Y147598D02*
Y151142D01*
X308228Y60000D02*
X311772D01*
X310000Y58228D02*
Y61772D01*
X308228Y80000D02*
X311772D01*
X310000Y78228D02*
Y81772D01*
X308228Y160000D02*
X311772D01*
X310000Y158228D02*
Y161772D01*
X238228Y20000D02*
X241772D01*
X240000Y18228D02*
Y21772D01*
X238228Y30000D02*
X241772D01*
X240000Y28228D02*
Y31772D01*
X9646Y139370D02*
X13189D01*
X11417Y137598D02*
Y141142D01*
X326224Y28740D02*
X330224D01*
X328224Y26740D02*
Y30740D01*
X249583Y126433D02*
X258244D01*
X253913Y122102D02*
Y130764D01*
X210583Y193933D02*
X219244D01*
X214913Y189602D02*
Y198264D01*
X9843Y87303D02*
X12205D01*
X11024Y86122D02*
Y88484D01*
X9843Y120177D02*
X12205D01*
X11024Y118996D02*
Y121358D01*
X21555Y94980D02*
X24114D01*
X22835Y93701D02*
Y96260D01*
X21555Y112500D02*
X24114D01*
X22835Y111221D02*
Y113779D01*
X218228Y30000D02*
X221772D01*
X220000Y28228D02*
Y31772D01*
X218228Y20000D02*
X221772D01*
X220000Y18228D02*
Y21772D01*
X198228Y30000D02*
X201772D01*
X200000Y28228D02*
Y31772D01*
X208228Y30000D02*
X211772D01*
X210000Y28228D02*
Y31772D01*
X198228Y20000D02*
X201772D01*
X200000Y18228D02*
Y21772D01*
X208228Y20000D02*
X211772D01*
X210000Y18228D02*
Y21772D01*
X188228Y30000D02*
X191772D01*
X190000Y28228D02*
Y31772D01*
X188228Y20000D02*
X191772D01*
X190000Y18228D02*
Y21772D01*
X319488Y7480D02*
X323031D01*
X321260Y5709D02*
Y9252D01*
X329488Y7480D02*
X333032D01*
X331260Y5709D02*
Y9252D01*
X309488Y7480D02*
X313032D01*
X311260Y5709D02*
Y9252D01*
X339488Y7480D02*
X343032D01*
X341260Y5709D02*
Y9252D01*
X328228Y160000D02*
X331772D01*
X330000Y158228D02*
Y161772D01*
X338228Y160000D02*
X341772D01*
X340000Y158228D02*
Y161772D01*
X318228Y160000D02*
X321772D01*
X320000Y158228D02*
Y161772D01*
X328228Y150000D02*
X331772D01*
X330000Y148228D02*
Y151772D01*
X338228Y150000D02*
X341772D01*
X340000Y148228D02*
Y151772D01*
X308228Y150000D02*
X311772D01*
X310000Y148228D02*
Y151772D01*
X318228Y150000D02*
X321772D01*
X320000Y148228D02*
Y151772D01*
X308228Y120000D02*
X311772D01*
X310000Y118228D02*
Y121772D01*
X308228Y110000D02*
X311772D01*
X310000Y108228D02*
Y111772D01*
X318228Y120000D02*
X321772D01*
X320000Y118228D02*
Y121772D01*
X318228Y110000D02*
X321772D01*
X320000Y108228D02*
Y111772D01*
X328228Y120000D02*
X331772D01*
X330000Y118228D02*
Y121772D01*
X328228Y110000D02*
X331772D01*
X330000Y108228D02*
Y111772D01*
X338228Y120000D02*
X341772D01*
X340000Y118228D02*
Y121772D01*
X338228Y110000D02*
X341772D01*
X340000Y108228D02*
Y111772D01*
X348228Y120000D02*
X351772D01*
X350000Y118228D02*
Y121772D01*
X348228Y110000D02*
X351772D01*
X350000Y108228D02*
Y111772D01*
X358228Y120000D02*
X361772D01*
X360000Y118228D02*
Y121772D01*
X358228Y110000D02*
X361772D01*
X360000Y108228D02*
Y111772D01*
X368228Y120000D02*
X371772D01*
X370000Y118228D02*
Y121772D01*
X368228Y110000D02*
X371772D01*
X370000Y108228D02*
Y111772D01*
X378228Y120000D02*
X381772D01*
X380000Y118228D02*
Y121772D01*
X308228Y70000D02*
X311772D01*
X310000Y68228D02*
Y71772D01*
X318228Y80000D02*
X321772D01*
X320000Y78228D02*
Y81772D01*
X318228Y70000D02*
X321772D01*
X320000Y68228D02*
Y71772D01*
X328228Y80000D02*
X331772D01*
X330000Y78228D02*
Y81772D01*
X328228Y70000D02*
X331772D01*
X330000Y68228D02*
Y71772D01*
X338228Y80000D02*
X341772D01*
X340000Y78228D02*
Y81772D01*
X338228Y70000D02*
X341772D01*
X340000Y68228D02*
Y71772D01*
X348228Y80000D02*
X351772D01*
X350000Y78228D02*
Y81772D01*
X348228Y70000D02*
X351772D01*
X350000Y68228D02*
Y71772D01*
X358228Y80000D02*
X361772D01*
X360000Y78228D02*
Y81772D01*
X358228Y70000D02*
X361772D01*
X360000Y68228D02*
Y71772D01*
X368228Y80000D02*
X371772D01*
X370000Y78228D02*
Y81772D01*
X368228Y70000D02*
X371772D01*
X370000Y68228D02*
Y71772D01*
X378228Y80000D02*
X381772D01*
X380000Y78228D02*
Y81772D01*
X308228Y50000D02*
X311772D01*
X310000Y48228D02*
Y51772D01*
X318228Y60000D02*
X321772D01*
X320000Y58228D02*
Y61772D01*
X318228Y50000D02*
X321772D01*
X320000Y48228D02*
Y51772D01*
X328228Y60000D02*
X331772D01*
X330000Y58228D02*
Y61772D01*
X328228Y50000D02*
X331772D01*
X330000Y48228D02*
Y51772D01*
X338228Y60000D02*
X341772D01*
X340000Y58228D02*
Y61772D01*
X338228Y50000D02*
X341772D01*
X340000Y48228D02*
Y51772D01*
X348228Y60000D02*
X351772D01*
X350000Y58228D02*
Y61772D01*
X348228Y50000D02*
X351772D01*
X350000Y48228D02*
Y51772D01*
X358228Y60000D02*
X361772D01*
X360000Y58228D02*
Y61772D01*
X358228Y50000D02*
X361772D01*
X360000Y48228D02*
Y51772D01*
X368228Y60000D02*
X371772D01*
X370000Y58228D02*
Y61772D01*
X368228Y50000D02*
X371772D01*
X370000Y48228D02*
Y51772D01*
X378228Y60000D02*
X381772D01*
X380000Y58228D02*
Y61772D01*
X308228Y100000D02*
X311772D01*
X310000Y98228D02*
Y101772D01*
X308228Y90000D02*
X311772D01*
X310000Y88228D02*
Y91772D01*
X318228Y100000D02*
X321772D01*
X320000Y98228D02*
Y101772D01*
X318228Y90000D02*
X321772D01*
X320000Y88228D02*
Y91772D01*
X328228Y100000D02*
X331772D01*
X330000Y98228D02*
Y101772D01*
X328228Y90000D02*
X331772D01*
X330000Y88228D02*
Y91772D01*
X338228Y100000D02*
X341772D01*
X340000Y98228D02*
Y101772D01*
X338228Y90000D02*
X341772D01*
X340000Y88228D02*
Y91772D01*
X348228Y100000D02*
X351772D01*
X350000Y98228D02*
Y101772D01*
X348228Y90000D02*
X351772D01*
X350000Y88228D02*
Y91772D01*
X358228Y100000D02*
X361772D01*
X360000Y98228D02*
Y101772D01*
X358228Y90000D02*
X361772D01*
X360000Y88228D02*
Y91772D01*
X368228Y100000D02*
X371772D01*
X370000Y98228D02*
Y101772D01*
X368228Y90000D02*
X371772D01*
X370000Y88228D02*
Y91772D01*
X378228Y100000D02*
X381772D01*
X380000Y98228D02*
Y101772D01*
X308228Y140000D02*
X311772D01*
X310000Y138228D02*
Y141772D01*
X308228Y130000D02*
X311772D01*
X310000Y128228D02*
Y131772D01*
X318228Y140000D02*
X321772D01*
X320000Y138228D02*
Y141772D01*
X318228Y130000D02*
X321772D01*
X320000Y128228D02*
Y131772D01*
X328228Y140000D02*
X331772D01*
X330000Y138228D02*
Y141772D01*
X328228Y130000D02*
X331772D01*
X330000Y128228D02*
Y131772D01*
X338228Y140000D02*
X341772D01*
X340000Y138228D02*
Y141772D01*
X338228Y130000D02*
X341772D01*
X340000Y128228D02*
Y131772D01*
X348228Y130000D02*
X351772D01*
X350000Y128228D02*
Y131772D01*
X358228Y130000D02*
X361772D01*
X360000Y128228D02*
Y131772D01*
X368228Y130000D02*
X371772D01*
X370000Y128228D02*
Y131772D01*
X158228Y170000D02*
X161772D01*
X160000Y168228D02*
Y171772D01*
X168228Y170000D02*
X171772D01*
X170000Y168228D02*
Y171772D01*
X158228Y160000D02*
X161772D01*
X160000Y158228D02*
Y161772D01*
X168228Y160000D02*
X171772D01*
X170000Y158228D02*
Y161772D01*
X158228Y150000D02*
X161772D01*
X160000Y148228D02*
Y151772D01*
X168228Y150000D02*
X171772D01*
X170000Y148228D02*
Y151772D01*
X158228Y140000D02*
X161772D01*
X160000Y138228D02*
Y141772D01*
X168228Y140000D02*
X171772D01*
X170000Y138228D02*
Y141772D01*
X158228Y130000D02*
X161772D01*
X160000Y128228D02*
Y131772D01*
X168228Y130000D02*
X171772D01*
X170000Y128228D02*
Y131772D01*
X158228Y120000D02*
X161772D01*
X160000Y118228D02*
Y121772D01*
X168228Y120000D02*
X171772D01*
X170000Y118228D02*
Y121772D01*
X158228Y110000D02*
X161772D01*
X160000Y108228D02*
Y111772D01*
X278228Y110000D02*
X281772D01*
X280000Y108228D02*
Y111772D01*
X288228Y120000D02*
X291772D01*
X290000Y118228D02*
Y121772D01*
X278228Y120000D02*
X281772D01*
X280000Y118228D02*
Y121772D01*
X288228Y130000D02*
X291772D01*
X290000Y128228D02*
Y131772D01*
X278228Y130000D02*
X281772D01*
X280000Y128228D02*
Y131772D01*
X288228Y140000D02*
X291772D01*
X290000Y138228D02*
Y141772D01*
X278228Y140000D02*
X281772D01*
X280000Y138228D02*
Y141772D01*
X288228Y150000D02*
X291772D01*
X290000Y148228D02*
Y151772D01*
X278228Y150000D02*
X281772D01*
X280000Y148228D02*
Y151772D01*
X288228Y160000D02*
X291772D01*
X290000Y158228D02*
Y161772D01*
X278228Y160000D02*
X281772D01*
X280000Y158228D02*
Y161772D01*
X288228Y170000D02*
X291772D01*
X290000Y168228D02*
Y171772D01*
X278228Y170000D02*
X281772D01*
X280000Y168228D02*
Y171772D01*
X113409Y16500D02*
X114591D01*
X114000Y15910D02*
Y17090D01*
X128909Y23500D02*
X130091D01*
X129500Y22909D02*
Y24091D01*
X165909Y81000D02*
X167091D01*
X166500Y80409D02*
Y81590D01*
X138909Y28000D02*
X140091D01*
X139500Y27409D02*
Y28591D01*
X92909Y18000D02*
X94090D01*
X93500Y17410D02*
Y18590D01*
X103409Y18000D02*
X104591D01*
X104000Y17410D02*
Y18590D01*
X160209Y80905D02*
X161391D01*
X160800Y80315D02*
Y81496D01*
X224410Y48000D02*
X225590D01*
X225000Y47409D02*
Y48591D01*
X233910Y48000D02*
X235090D01*
X234500Y47409D02*
Y48591D01*
X303410Y48000D02*
X304591D01*
X304000Y47409D02*
Y48591D01*
X264137Y71021D02*
X265318D01*
X264728Y70431D02*
Y71612D01*
X253909Y71000D02*
X255090D01*
X254500Y70410D02*
Y71591D01*
X273909Y71000D02*
X275091D01*
X274500Y70410D02*
Y71591D01*
X268740Y70799D02*
X270709D01*
X269724Y69815D02*
Y71784D01*
X248740Y70799D02*
X250709D01*
X249724Y69815D02*
Y71784D01*
X213516Y72500D02*
X215484D01*
X214500Y71516D02*
Y73484D01*
X213516Y67500D02*
X215484D01*
X214500Y66516D02*
Y68484D01*
X218740Y70799D02*
X220709D01*
X219724Y69815D02*
Y71784D01*
X198740Y70799D02*
X200709D01*
X199724Y69815D02*
Y71784D01*
X178716Y70799D02*
X180684D01*
X179700Y69815D02*
Y71784D01*
X168740Y70799D02*
X170709D01*
X169724Y69815D02*
Y71784D01*
X128740Y70799D02*
X130709D01*
X129724Y69815D02*
Y71784D01*
X280310Y63100D02*
X281490D01*
X280900Y62510D02*
Y63691D01*
X288816Y64500D02*
X290784D01*
X289800Y63516D02*
Y65484D01*
X298716Y48150D02*
X300684D01*
X299700Y47166D02*
Y49134D01*
X278816Y48000D02*
X280784D01*
X279800Y47016D02*
Y48984D01*
X237809Y87100D02*
X238990D01*
X238400Y86510D02*
Y87691D01*
X240809Y87100D02*
X241990D01*
X241400Y86510D02*
Y87691D01*
X199909Y96500D02*
X201091D01*
X200500Y95910D02*
Y97091D01*
X193309Y99800D02*
X194491D01*
X193900Y99209D02*
Y100391D01*
X183509Y59100D02*
X184691D01*
X184100Y58509D02*
Y59690D01*
X148716Y75500D02*
X150684D01*
X149700Y74516D02*
Y76484D01*
X148716Y69600D02*
X150684D01*
X149700Y68616D02*
Y70584D01*
X137509Y95900D02*
X138691D01*
X138100Y95310D02*
Y96491D01*
X139116Y70799D02*
X141084D01*
X140100Y69815D02*
Y71784D01*
X139116Y76600D02*
X141084D01*
X140100Y75616D02*
Y77584D01*
X109009Y78700D02*
X110191D01*
X109600Y78110D02*
Y79290D01*
X199909Y106500D02*
X201091D01*
X200500Y105909D02*
Y107091D01*
X195409Y124000D02*
X196591D01*
X196000Y123409D02*
Y124591D01*
X203409Y116000D02*
X204591D01*
X204000Y115409D02*
Y116591D01*
X190909Y116000D02*
X192091D01*
X191500Y115409D02*
Y116591D01*
X195209Y53500D02*
X196391D01*
X195800Y52909D02*
Y54090D01*
X190509Y38000D02*
X191691D01*
X191100Y37409D02*
Y38591D01*
X195209Y42700D02*
X196391D01*
X195800Y42109D02*
Y43291D01*
X190909Y58600D02*
X192091D01*
X191500Y58009D02*
Y59190D01*
X123809Y40500D02*
X124991D01*
X124400Y39909D02*
Y41091D01*
X211610Y58800D02*
X212790D01*
X212200Y58210D02*
Y59390D01*
X164909Y42500D02*
X166091D01*
X165500Y41909D02*
Y43091D01*
X154909Y31500D02*
X156091D01*
X155500Y30909D02*
Y32091D01*
X146909Y23500D02*
X148091D01*
X147500Y22909D02*
Y24091D01*
X168409Y23500D02*
X169591D01*
X169000Y22909D02*
Y24091D01*
X170909Y31500D02*
X172091D01*
X171500Y30909D02*
Y32091D01*
X164909Y31500D02*
X166091D01*
X165500Y30909D02*
Y32091D01*
X159909Y26000D02*
X161091D01*
X160500Y25409D02*
Y26591D01*
X154409Y20500D02*
X155591D01*
X155000Y19909D02*
Y21091D01*
X143416Y53400D02*
X145384D01*
X144400Y52416D02*
Y54384D01*
X141909Y31500D02*
X143091D01*
X142500Y30909D02*
Y32091D01*
X135409Y31500D02*
X136591D01*
X136000Y30909D02*
Y32091D01*
X278935Y56899D02*
X280116D01*
X279525Y56309D02*
Y57490D01*
X274909Y56835D02*
X276091D01*
X275500Y56244D02*
Y57425D01*
X237809Y84050D02*
X238990D01*
X238400Y83460D02*
Y84641D01*
X240809Y84050D02*
X241990D01*
X241400Y83460D02*
Y84641D01*
X240809Y81000D02*
X241990D01*
X241400Y80409D02*
Y81590D01*
X237809Y81000D02*
X238990D01*
X238400Y80409D02*
Y81590D01*
X305410Y43000D02*
X306591D01*
X306000Y42409D02*
Y43591D01*
X296909Y30300D02*
X298091D01*
X297500Y29709D02*
Y30891D01*
X288816Y69500D02*
X290784D01*
X289800Y68516D02*
Y70484D01*
X288816Y74500D02*
X290784D01*
X289800Y73516D02*
Y75484D01*
X306433Y54994D02*
X307614D01*
X307024Y54403D02*
Y55584D01*
X230410Y53500D02*
X231591D01*
X231000Y52909D02*
Y54090D01*
X228916Y42000D02*
X230884D01*
X229900Y41016D02*
Y42984D01*
X228715Y47925D02*
X230683D01*
X229699Y46941D02*
Y48909D01*
X179016Y42500D02*
X180984D01*
X180000Y41516D02*
Y43484D01*
X179016Y48000D02*
X180984D01*
X180000Y47016D02*
Y48984D01*
X179016Y54000D02*
X180984D01*
X180000Y53016D02*
Y54984D01*
X143416Y42400D02*
X145384D01*
X144400Y41416D02*
Y43384D01*
X148916Y53400D02*
X150884D01*
X149900Y52416D02*
Y54384D01*
X148916Y42400D02*
X150884D01*
X149900Y41416D02*
Y43384D01*
X148715Y47825D02*
X150683D01*
X149699Y46841D02*
Y48809D01*
X129109Y82100D02*
X130291D01*
X129700Y81510D02*
Y82691D01*
X129109Y76600D02*
X130291D01*
X129700Y76010D02*
Y77191D01*
X126109Y89990D02*
X127291D01*
X126700Y89399D02*
Y90580D01*
X112016Y30500D02*
X113984D01*
X113000Y29516D02*
Y31484D01*
X107516Y30500D02*
X109484D01*
X108500Y29516D02*
Y31484D01*
X103016Y30500D02*
X104984D01*
X104000Y29516D02*
Y31484D01*
X99410Y65000D02*
X100591D01*
X100000Y64410D02*
Y65591D01*
X90810Y74600D02*
X91991D01*
X91400Y74010D02*
Y75191D01*
X177854Y80905D02*
X179035D01*
X178445Y80315D02*
Y81496D01*
X238686Y113649D02*
X239867D01*
X239277Y113058D02*
Y114239D01*
X234910Y53500D02*
X236090D01*
X235500Y52909D02*
Y54090D01*
X165309Y87500D02*
X166491D01*
X165900Y86910D02*
Y88090D01*
X140109Y102400D02*
X141291D01*
X140700Y101810D02*
Y102991D01*
X146909Y114653D02*
X148091D01*
X147500Y114062D02*
Y115244D01*
X144009Y117307D02*
X145191D01*
X144600Y116717D02*
Y117898D01*
X137309Y121653D02*
X138491D01*
X137900Y121063D02*
Y122244D01*
X144009Y98622D02*
X145191D01*
X144600Y98032D02*
Y99213D01*
X144009Y104200D02*
X145191D01*
X144600Y103609D02*
Y104791D01*
X231849Y90750D02*
X233031D01*
X232440Y90159D02*
Y91341D01*
X68639Y89740D02*
X69821D01*
X69230Y89149D02*
Y90331D01*
X65479Y89810D02*
X66661D01*
X66070Y89219D02*
Y90400D01*
X90969Y115410D02*
X92150D01*
X91560Y114820D02*
Y116000D01*
X85279Y120750D02*
X86461D01*
X85870Y120159D02*
Y121341D01*
X69510Y115940D02*
X70691D01*
X70100Y115349D02*
Y116531D01*
X41659Y118700D02*
X42841D01*
X42250Y118109D02*
Y119291D01*
X102820Y118700D02*
X104000D01*
X103410Y118109D02*
Y119291D01*
X61279Y27290D02*
X62461D01*
X61870Y26700D02*
Y27880D01*
X78229Y28080D02*
X79411D01*
X78820Y27489D02*
Y28670D01*
X175370Y110120D02*
X176550D01*
X175960Y109529D02*
Y110711D01*
X169109Y65000D02*
X170291D01*
X169700Y64410D02*
Y65591D01*
X176759Y36750D02*
X177941D01*
X177350Y36159D02*
Y37341D01*
X73849Y32510D02*
X75031D01*
X74440Y31920D02*
Y33101D01*
X57824Y57300D02*
X59005D01*
X58415Y56709D02*
Y57890D01*
X268349Y166220D02*
X269531D01*
X268940Y165630D02*
Y166811D01*
X164370Y96619D02*
X165551D01*
X164961Y96028D02*
Y97210D01*
X232874Y121019D02*
X234055D01*
X233464Y120429D02*
Y121610D01*
X304887Y66500D02*
X306068D01*
X305478Y65909D02*
Y67090D01*
X128787Y134100D02*
X129969D01*
X129378Y133509D02*
Y134691D01*
X123140Y113051D02*
X125108D01*
X124124Y112067D02*
Y114035D01*
X164487Y147876D02*
X165668D01*
X165078Y147285D02*
Y148466D01*
X129109Y64500D02*
X130291D01*
X129700Y63910D02*
Y65091D01*
X113287Y177976D02*
X114469D01*
X113878Y177385D02*
Y178566D01*
X109287Y178576D02*
X110468D01*
X109878Y177985D02*
Y179166D01*
X64487Y158976D02*
X65668D01*
X65078Y158385D02*
Y159566D01*
X59772Y139724D02*
X60953D01*
X60362Y139133D02*
Y140314D01*
X55338Y140437D02*
X56519D01*
X55928Y139846D02*
Y141027D01*
X82794Y148204D02*
X83976D01*
X83385Y147613D02*
Y148794D01*
X96558Y133676D02*
X97739D01*
X97148Y133085D02*
Y134266D01*
X93616Y130517D02*
X94798D01*
X94207Y129927D02*
Y131108D01*
X93695Y136909D02*
X94876D01*
X94285Y136319D02*
Y137499D01*
X103131Y89639D02*
X104312D01*
X103721Y89049D02*
Y90230D01*
X75472Y86393D02*
X76653D01*
X76062Y85802D02*
Y86984D01*
X51835Y123079D02*
X53017D01*
X52426Y122488D02*
Y123669D01*
X57824Y110409D02*
X59005D01*
X58415Y109818D02*
Y110999D01*
X57746Y101181D02*
X58927D01*
X58337Y100591D02*
Y101772D01*
X57746Y98054D02*
X58927D01*
X58337Y97464D02*
Y98645D01*
X57824Y94661D02*
X59005D01*
X58415Y94070D02*
Y95251D01*
X57824Y91511D02*
X59005D01*
X58415Y90921D02*
Y92102D01*
X47381Y85654D02*
X48562D01*
X47971Y85064D02*
Y86245D01*
X40687Y89676D02*
X41868D01*
X41278Y89085D02*
Y90266D01*
X42187Y99676D02*
X43369D01*
X42778Y99085D02*
Y100266D01*
X34497Y101157D02*
X35678D01*
X35088Y100566D02*
Y101747D01*
X35287Y109176D02*
X36468D01*
X35878Y108585D02*
Y109766D01*
X43976Y193276D02*
X45157D01*
X44566Y192685D02*
Y193866D01*
X55984Y193376D02*
X57165D01*
X56574Y192785D02*
Y193966D01*
X68385Y193276D02*
X69566D01*
X68976Y192685D02*
Y193866D01*
X80196Y193276D02*
X81377D01*
X80787Y192685D02*
Y193866D01*
X92106Y193376D02*
X93287D01*
X92696Y192785D02*
Y193966D01*
X97125Y189050D02*
X98306D01*
X97716Y188460D02*
Y189641D01*
X85987Y188976D02*
X87169D01*
X86578Y188385D02*
Y189566D01*
X74087Y189076D02*
X75269D01*
X74678Y188485D02*
Y189666D01*
X61987Y188976D02*
X63169D01*
X62578Y188385D02*
Y189566D01*
X49887Y188976D02*
X51069D01*
X50478Y188385D02*
Y189566D01*
X37787Y188876D02*
X38969D01*
X38378Y188285D02*
Y189466D01*
X164387Y102476D02*
X165568D01*
X164978Y101885D02*
Y103066D01*
X174487Y102476D02*
X175669D01*
X175078Y101885D02*
Y103066D01*
X254209Y97500D02*
X255391D01*
X254800Y96909D02*
Y98090D01*
X248787Y97476D02*
X249969D01*
X249378Y96885D02*
Y98066D01*
X251487Y93476D02*
X252668D01*
X252078Y92885D02*
Y94066D01*
X255287Y91376D02*
X256469D01*
X255878Y90785D02*
Y91966D01*
X262487Y89876D02*
X263668D01*
X263078Y89285D02*
Y90466D01*
X279387Y93176D02*
X280569D01*
X279978Y92585D02*
Y93766D01*
X289487Y93176D02*
X290669D01*
X290078Y92585D02*
Y93766D01*
X291387Y104976D02*
X292568D01*
X291978Y104385D02*
Y105566D01*
X291387Y114976D02*
X292568D01*
X291978Y114385D02*
Y115566D01*
X284287Y112076D02*
X285469D01*
X284878Y111485D02*
Y112666D01*
X284287Y105176D02*
X285469D01*
X284878Y104585D02*
Y105766D01*
X209587Y124976D02*
X210769D01*
X210178Y124385D02*
Y125566D01*
X209587Y122276D02*
X210769D01*
X210178Y121685D02*
Y122866D01*
X206487Y159776D02*
X207668D01*
X207078Y159185D02*
Y160366D01*
X202687Y157076D02*
X203869D01*
X203278Y156485D02*
Y157666D01*
X214987Y119776D02*
X216168D01*
X215578Y119185D02*
Y120366D01*
X211787Y119776D02*
X212968D01*
X212378Y119185D02*
Y120366D01*
X104987Y115576D02*
X106168D01*
X105578Y114985D02*
Y116166D01*
X102687Y112976D02*
X103868D01*
X103278Y112385D02*
Y113566D01*
X62184Y69011D02*
X63365D01*
X62775Y68420D02*
Y69602D01*
X3424Y149346D02*
X4606D01*
X4015Y148755D02*
Y149936D01*
X10915Y157060D02*
X12096D01*
X11505Y156469D02*
Y157650D01*
X38187Y84976D02*
X39369D01*
X38778Y84385D02*
Y85566D01*
X16887Y98776D02*
X18068D01*
X17478Y98185D02*
Y99366D01*
X16587Y91676D02*
X17768D01*
X17178Y91085D02*
Y92266D01*
X16687Y115976D02*
X17868D01*
X17278Y115385D02*
Y116566D01*
X17187Y123376D02*
X18369D01*
X17778Y122785D02*
Y123966D01*
X79487Y38276D02*
X80668D01*
X80078Y37685D02*
Y38866D01*
X82387Y23176D02*
X83569D01*
X82978Y22585D02*
Y23766D01*
X229387Y37276D02*
X230569D01*
X229978Y36685D02*
Y37866D01*
X232387Y24976D02*
X233569D01*
X232978Y24385D02*
Y25566D01*
X227187Y15076D02*
X228368D01*
X227778Y14485D02*
Y15666D01*
X248987Y19976D02*
X250168D01*
X249578Y19385D02*
Y20566D01*
X264287Y25276D02*
X265469D01*
X264878Y24685D02*
Y25866D01*
X267287Y28376D02*
X268468D01*
X267878Y27785D02*
Y28966D01*
X264210Y19800D02*
X265390D01*
X264800Y19209D02*
Y20391D01*
X280787Y28876D02*
X281968D01*
X281378Y28285D02*
Y29466D01*
X293787Y7476D02*
X294969D01*
X294378Y6885D02*
Y8066D01*
X300687Y13776D02*
X301869D01*
X301278Y13185D02*
Y14366D01*
X304387Y3476D02*
X305569D01*
X304978Y2885D02*
Y4066D01*
X242972Y159974D02*
X244153D01*
X243563Y159384D02*
Y160565D01*
X22487Y157176D02*
X23668D01*
X23078Y156585D02*
Y157766D01*
X29071Y157259D02*
X30252D01*
X29661Y156668D02*
Y157850D01*
X4487Y199976D02*
X5669D01*
X5078Y199385D02*
Y200566D01*
X24487Y199976D02*
X25668D01*
X25078Y199385D02*
Y200566D01*
X34487Y199976D02*
X35669D01*
X35078Y199385D02*
Y200566D01*
X44487Y199976D02*
X45669D01*
X45078Y199385D02*
Y200566D01*
X54487Y199976D02*
X55668D01*
X55078Y199385D02*
Y200566D01*
X64487Y199976D02*
X65668D01*
X65078Y199385D02*
Y200566D01*
X74487Y199976D02*
X75669D01*
X75078Y199385D02*
Y200566D01*
X84487Y199976D02*
X85668D01*
X85078Y199385D02*
Y200566D01*
X94487Y199976D02*
X95669D01*
X95078Y199385D02*
Y200566D01*
X104487Y199976D02*
X105668D01*
X105078Y199385D02*
Y200566D01*
X114487Y199976D02*
X115668D01*
X115078Y199385D02*
Y200566D01*
X124487Y199976D02*
X125669D01*
X125078Y199385D02*
Y200566D01*
X134487Y199976D02*
X135669D01*
X135078Y199385D02*
Y200566D01*
X144487Y199976D02*
X145668D01*
X145078Y199385D02*
Y200566D01*
X154487Y199976D02*
X155668D01*
X155078Y199385D02*
Y200566D01*
X164487Y199976D02*
X165668D01*
X165078Y199385D02*
Y200566D01*
X174487Y199976D02*
X175669D01*
X175078Y199385D02*
Y200566D01*
X184487Y199976D02*
X185669D01*
X185078Y199385D02*
Y200566D01*
X194487Y199976D02*
X195668D01*
X195078Y199385D02*
Y200566D01*
X204487Y199976D02*
X205668D01*
X205078Y199385D02*
Y200566D01*
X224487Y199976D02*
X225669D01*
X225078Y199385D02*
Y200566D01*
X234487Y199976D02*
X235668D01*
X235078Y199385D02*
Y200566D01*
X244487Y199976D02*
X245669D01*
X245078Y199385D02*
Y200566D01*
X254487Y199976D02*
X255668D01*
X255078Y199385D02*
Y200566D01*
X264487Y199976D02*
X265669D01*
X265078Y199385D02*
Y200566D01*
X274487Y199976D02*
X275669D01*
X275078Y199385D02*
Y200566D01*
X284487Y199976D02*
X285668D01*
X285078Y199385D02*
Y200566D01*
X294487Y199976D02*
X295669D01*
X295078Y199385D02*
Y200566D01*
X304487Y199976D02*
X305668D01*
X305078Y199385D02*
Y200566D01*
X314487Y199976D02*
X315669D01*
X315078Y199385D02*
Y200566D01*
X324487Y199976D02*
X325669D01*
X325078Y199385D02*
Y200566D01*
X334487Y199976D02*
X335668D01*
X335078Y199385D02*
Y200566D01*
X344487Y199976D02*
X345669D01*
X345078Y199385D02*
Y200566D01*
X354487Y199976D02*
X355668D01*
X355078Y199385D02*
Y200566D01*
X379487Y199976D02*
X380668D01*
X380078Y199385D02*
Y200566D01*
X354487Y189976D02*
X355668D01*
X355078Y189385D02*
Y190566D01*
X344487Y189976D02*
X345669D01*
X345078Y189385D02*
Y190566D01*
X334487Y189976D02*
X335668D01*
X335078Y189385D02*
Y190566D01*
X324487Y189976D02*
X325669D01*
X325078Y189385D02*
Y190566D01*
X314487Y189976D02*
X315669D01*
X315078Y189385D02*
Y190566D01*
X224487Y189976D02*
X225669D01*
X225078Y189385D02*
Y190566D01*
X204487Y189976D02*
X205668D01*
X205078Y189385D02*
Y190566D01*
X34487Y179976D02*
X35669D01*
X35078Y179385D02*
Y180566D01*
X4487Y169976D02*
X5669D01*
X5078Y169385D02*
Y170566D01*
X24487Y169976D02*
X25668D01*
X25078Y169385D02*
Y170566D01*
X74487Y179976D02*
X75669D01*
X75078Y179385D02*
Y180566D01*
X4487Y4976D02*
X5669D01*
X5078Y4385D02*
Y5566D01*
X24487Y4976D02*
X25668D01*
X25078Y4385D02*
Y5566D01*
X34487Y4976D02*
X35669D01*
X35078Y4385D02*
Y5566D01*
X44487Y4976D02*
X45669D01*
X45078Y4385D02*
Y5566D01*
X54487Y4976D02*
X55668D01*
X55078Y4385D02*
Y5566D01*
X74487Y4976D02*
X75669D01*
X75078Y4385D02*
Y5566D01*
X84487Y4976D02*
X85668D01*
X85078Y4385D02*
Y5566D01*
X94487Y4976D02*
X95669D01*
X95078Y4385D02*
Y5566D01*
X104487Y4976D02*
X105668D01*
X105078Y4385D02*
Y5566D01*
X114487Y4976D02*
X115668D01*
X115078Y4385D02*
Y5566D01*
X124487Y4976D02*
X125669D01*
X125078Y4385D02*
Y5566D01*
X134487Y4976D02*
X135669D01*
X135078Y4385D02*
Y5566D01*
X144487Y4976D02*
X145668D01*
X145078Y4385D02*
Y5566D01*
X154487Y4976D02*
X155668D01*
X155078Y4385D02*
Y5566D01*
X164487Y4976D02*
X165668D01*
X165078Y4385D02*
Y5566D01*
X174487Y4976D02*
X175669D01*
X175078Y4385D02*
Y5566D01*
X184487Y4976D02*
X185669D01*
X185078Y4385D02*
Y5566D01*
X194487Y4976D02*
X195668D01*
X195078Y4385D02*
Y5566D01*
X204487Y4976D02*
X205668D01*
X205078Y4385D02*
Y5566D01*
X214487Y4976D02*
X215669D01*
X215078Y4385D02*
Y5566D01*
X224487Y4976D02*
X225669D01*
X225078Y4385D02*
Y5566D01*
X234487Y4976D02*
X235668D01*
X235078Y4385D02*
Y5566D01*
X244487Y4976D02*
X245669D01*
X245078Y4385D02*
Y5566D01*
X254487Y4976D02*
X255668D01*
X255078Y4385D02*
Y5566D01*
X274487Y4976D02*
X275669D01*
X275078Y4385D02*
Y5566D01*
X379487Y4976D02*
X380668D01*
X380078Y4385D02*
Y5566D01*
X359487Y4976D02*
X360668D01*
X360078Y4385D02*
Y5566D01*
X349487Y4976D02*
X350669D01*
X350078Y4385D02*
Y5566D01*
X349487Y14976D02*
X350669D01*
X350078Y14385D02*
Y15566D01*
X349487Y24976D02*
X350669D01*
X350078Y24385D02*
Y25566D01*
X349487Y34976D02*
X350669D01*
X350078Y34385D02*
Y35566D01*
X359487Y34976D02*
X360668D01*
X360078Y34385D02*
Y35566D01*
X339487Y34976D02*
X340669D01*
X340078Y34385D02*
Y35566D01*
X329487Y34976D02*
X330668D01*
X330078Y34385D02*
Y35566D01*
X329487Y14976D02*
X330668D01*
X330078Y14385D02*
Y15566D01*
X309487Y24976D02*
X310668D01*
X310078Y24385D02*
Y25566D01*
X289487Y24976D02*
X290669D01*
X290078Y24385D02*
Y25566D01*
X289487Y14976D02*
X290669D01*
X290078Y14385D02*
Y15566D01*
X154487Y14976D02*
X155668D01*
X155078Y14385D02*
Y15566D01*
X164487Y14976D02*
X165668D01*
X165078Y14385D02*
Y15566D01*
X174487Y14976D02*
X175669D01*
X175078Y14385D02*
Y15566D01*
X184487Y14976D02*
X185669D01*
X185078Y14385D02*
Y15566D01*
X178409Y23500D02*
X179591D01*
X179000Y22909D02*
Y24091D01*
X34487Y14976D02*
X35669D01*
X35078Y14385D02*
Y15566D01*
X34487Y24976D02*
X35669D01*
X35078Y24385D02*
Y25566D01*
X34487Y34976D02*
X35669D01*
X35078Y34385D02*
Y35566D01*
X24487Y34976D02*
X25668D01*
X25078Y34385D02*
Y35566D01*
X14487Y34976D02*
X15668D01*
X15078Y34385D02*
Y35566D01*
X4487Y34976D02*
X5669D01*
X5078Y34385D02*
Y35566D01*
X4487Y24976D02*
X5669D01*
X5078Y24385D02*
Y25566D01*
X4487Y44976D02*
X5669D01*
X5078Y44385D02*
Y45566D01*
X14487Y44976D02*
X15668D01*
X15078Y44385D02*
Y45566D01*
X24487Y44976D02*
X25668D01*
X25078Y44385D02*
Y45566D01*
X14487Y54976D02*
X15668D01*
X15078Y54385D02*
Y55566D01*
X4487Y54976D02*
X5669D01*
X5078Y54385D02*
Y55566D01*
X4487Y64976D02*
X5669D01*
X5078Y64385D02*
Y65566D01*
X14487Y64976D02*
X15668D01*
X15078Y64385D02*
Y65566D01*
X14487Y74976D02*
X15668D01*
X15078Y74385D02*
Y75566D01*
X4487Y74976D02*
X5669D01*
X5078Y74385D02*
Y75566D01*
X34487Y54976D02*
X35669D01*
X35078Y54385D02*
Y55566D01*
X34487Y64976D02*
X35669D01*
X35078Y64385D02*
Y65566D01*
X34487Y74976D02*
X35669D01*
X35078Y74385D02*
Y75566D01*
X44487Y64976D02*
X45669D01*
X45078Y64385D02*
Y65566D01*
X44487Y54976D02*
X45669D01*
X45078Y54385D02*
Y55566D01*
X79487Y89976D02*
X80668D01*
X80078Y89385D02*
Y90566D01*
X89487Y89976D02*
X90668D01*
X90078Y89385D02*
Y90566D01*
X89487Y99976D02*
X90668D01*
X90078Y99385D02*
Y100566D01*
X79487Y99976D02*
X80668D01*
X80078Y99385D02*
Y100566D01*
X89487Y109976D02*
X90668D01*
X90078Y109385D02*
Y110566D01*
X79487Y109976D02*
X80668D01*
X80078Y109385D02*
Y110566D01*
X264487Y104976D02*
X265669D01*
X265078Y104385D02*
Y105566D01*
X289487Y84976D02*
X290669D01*
X290078Y84385D02*
Y85566D01*
X279487Y84976D02*
X280668D01*
X280078Y84385D02*
Y85566D01*
X229487Y159976D02*
X230668D01*
X230078Y159385D02*
Y160566D01*
X189409Y170000D02*
X190591D01*
X190000Y169409D02*
Y170591D01*
X199487Y159976D02*
X200669D01*
X200078Y159385D02*
Y160566D01*
X49887Y179176D02*
X51069D01*
X50478Y178585D02*
Y179766D01*
X102187Y168276D02*
X103368D01*
X102778Y167685D02*
Y168866D01*
X140187Y128676D02*
X141368D01*
X140778Y128085D02*
Y129266D01*
X154287Y151976D02*
X155468D01*
X154878Y151385D02*
Y152566D01*
X164387Y138376D02*
X165568D01*
X164978Y137785D02*
Y138966D01*
X221087Y145376D02*
X222269D01*
X221678Y144785D02*
Y145966D01*
X246609Y160000D02*
X247791D01*
X247200Y159409D02*
Y160591D01*
X208209Y96500D02*
X209390D01*
X208800Y95910D02*
Y97091D01*
X215187Y15076D02*
X216369D01*
X215778Y14485D02*
Y15666D01*
X190587Y14876D02*
X191769D01*
X191178Y14285D02*
Y15466D01*
X94487Y80204D02*
X95669D01*
X95078Y79614D02*
Y80795D01*
X274387Y41176D02*
X275569D01*
X274978Y40585D02*
Y41766D01*
X266987Y41276D02*
X268168D01*
X267578Y40685D02*
Y41866D01*
X264409Y48000D02*
X265591D01*
X265000Y47409D02*
Y48591D01*
X322687Y34976D02*
X323868D01*
X323278Y34385D02*
Y35566D01*
X322887Y29576D02*
X324068D01*
X323478Y28985D02*
Y30166D01*
X44987Y140676D02*
X46169D01*
X45578Y140085D02*
Y141266D01*
X47887Y137176D02*
X49068D01*
X48478Y136585D02*
Y137766D01*
X32687Y134976D02*
X33869D01*
X33278Y134385D02*
Y135566D01*
X35487Y131676D02*
X36669D01*
X36078Y131085D02*
Y132266D01*
X273387Y13576D02*
X274569D01*
X273978Y12985D02*
Y14166D01*
X273387Y80576D02*
X274569D01*
X273978Y79985D02*
Y81166D01*
X254410Y48000D02*
X255591D01*
X255000Y47409D02*
Y48591D01*
X108937Y110236D02*
X110906D01*
X109921Y109252D02*
Y111221D01*
X39729Y72899D02*
X41698D01*
X40713Y71914D02*
Y73883D01*
X240809Y37400D02*
X241990D01*
X241400Y36809D02*
Y37991D01*
X21810Y147100D02*
X22990D01*
X22400Y146509D02*
Y147691D01*
X24559Y147100D02*
X25741D01*
X25150Y146509D02*
Y147691D01*
X27309Y147100D02*
X28491D01*
X27900Y146509D02*
Y147691D01*
X118730Y144775D02*
X119911D01*
X119320Y144184D02*
Y145365D01*
X240809Y41200D02*
X241990D01*
X241400Y40609D02*
Y41791D01*
X32116Y123700D02*
X34084D01*
X33100Y122716D02*
Y124684D01*
X107616Y142700D02*
X109584D01*
X108600Y141716D02*
Y143684D01*
X62106Y72835D02*
X63287D01*
X62697Y72244D02*
Y73425D01*
X36870Y160307D02*
X38051D01*
X37460Y159717D02*
Y160898D01*
X39371Y160307D02*
X40552D01*
X39962Y159717D02*
Y160898D01*
X39732Y43200D02*
X41700D01*
X40716Y42216D02*
Y44184D01*
X272869Y86410D02*
X274050D01*
X273460Y85820D02*
Y87001D01*
X215945Y108692D02*
X217126D01*
X216535Y108102D02*
Y109283D01*
X219810Y112400D02*
X220990D01*
X220400Y111809D02*
Y112991D01*
X186009Y105213D02*
X187191D01*
X186600Y104623D02*
Y105804D01*
X131890Y116929D02*
X133071D01*
X132480Y116339D02*
Y117520D01*
X80209Y69000D02*
X81391D01*
X80800Y68410D02*
Y69591D01*
X106993Y96166D02*
X108175D01*
X107584Y95576D02*
Y96757D01*
X103539Y75886D02*
X105507D01*
X104523Y74902D02*
Y76870D01*
X123140Y94754D02*
X125108D01*
X124124Y93770D02*
Y95739D01*
X116831Y108519D02*
X118012D01*
X117421Y107928D02*
Y109109D01*
X116831Y90000D02*
X118012D01*
X117421Y89410D02*
Y90591D01*
X121424Y87722D02*
X122605D01*
X122015Y87131D02*
Y88312D01*
X264892Y82300D02*
X266073D01*
X265483Y81709D02*
Y82890D01*
X104587Y126137D02*
X105768D01*
X105177Y125547D02*
Y126728D01*
X78937Y24614D02*
X80118D01*
X79528Y24023D02*
Y25205D01*
X69109Y24614D02*
X70290D01*
X69700Y24023D02*
Y25205D01*
X65810Y24614D02*
X66991D01*
X66400Y24023D02*
Y25205D01*
X72409Y24614D02*
X73590D01*
X73000Y24023D02*
Y25205D01*
X174009Y89990D02*
X175191D01*
X174600Y89399D02*
Y90580D01*
X190209Y89990D02*
X191391D01*
X190800Y89399D02*
Y90580D01*
X78543Y54176D02*
X80512D01*
X79528Y53192D02*
Y55161D01*
X172047Y80905D02*
X173228D01*
X172638Y80315D02*
Y81496D01*
X37893Y172205D02*
X39861D01*
X38877Y171221D02*
Y173189D01*
X210610Y153300D02*
X211790D01*
X211200Y152709D02*
Y153891D01*
X136416Y183982D02*
X137597D01*
X137006Y183391D02*
Y184573D01*
X86575Y145100D02*
X87756D01*
X87165Y144509D02*
Y145691D01*
X35123Y112955D02*
X36304D01*
X35713Y112365D02*
Y113546D01*
X26809Y136119D02*
X27991D01*
X27400Y135529D02*
Y136710D01*
X26809Y133139D02*
X27991D01*
X27400Y132548D02*
Y133729D01*
X50209Y168600D02*
X51390D01*
X50800Y168009D02*
Y169191D01*
X31009Y100000D02*
X32191D01*
X31600Y99410D02*
Y100591D01*
X65650Y34100D02*
X67618D01*
X66634Y33116D02*
Y35084D01*
X66043Y38325D02*
X67224D01*
X66634Y37734D02*
Y38916D01*
X62471Y38325D02*
X63652D01*
X63061Y37734D02*
Y38916D01*
X58898Y38325D02*
X60079D01*
X59488Y37734D02*
Y38916D01*
X140646Y183982D02*
X141827D01*
X141237Y183391D02*
Y184573D01*
X140646Y188900D02*
X141827D01*
X141237Y188309D02*
Y189491D01*
X136416Y188900D02*
X137597D01*
X137006Y188309D02*
Y189491D01*
X132185Y183982D02*
X133366D01*
X132776Y183391D02*
Y184573D01*
X132185Y188900D02*
X133366D01*
X132776Y188309D02*
Y189491D01*
X267910Y173081D02*
X269091D01*
X268500Y172490D02*
Y173671D01*
X113287Y187805D02*
X114469D01*
X113878Y187215D02*
Y188396D01*
X113287Y182776D02*
X114469D01*
X113878Y182185D02*
Y183366D01*
X72409Y20416D02*
X73590D01*
X73000Y19825D02*
Y21006D01*
X104109Y154400D02*
X105291D01*
X104700Y153809D02*
Y154991D01*
X104109Y158033D02*
X105291D01*
X104700Y157443D02*
Y158624D01*
X104109Y161667D02*
X105291D01*
X104700Y161076D02*
Y162257D01*
X104109Y165300D02*
X105291D01*
X104700Y164709D02*
Y165891D01*
X69109Y20416D02*
X70290D01*
X69700Y19825D02*
Y21006D01*
X65810Y20416D02*
X66991D01*
X66400Y19825D02*
Y21006D01*
X307638Y13787D02*
X308819D01*
X308228Y13196D02*
Y14377D01*
X313210Y32300D02*
X314390D01*
X313800Y31709D02*
Y32891D01*
X51496Y137153D02*
X52677D01*
X52087Y136563D02*
Y137744D01*
X316508Y28740D02*
X317689D01*
X317098Y28150D02*
Y29331D01*
X209409Y149398D02*
X210591D01*
X210000Y148807D02*
Y149988D01*
X239540Y149398D02*
X240721D01*
X240131Y148807D02*
Y149988D01*
X239540Y153123D02*
X240721D01*
X240131Y152533D02*
Y153714D01*
X56599Y133123D02*
X57780D01*
X57189Y132532D02*
Y133713D01*
X26809Y139100D02*
X27991D01*
X27400Y138509D02*
Y139691D01*
X30955Y112500D02*
X32136D01*
X31545Y111909D02*
Y113091D01*
X30926Y109457D02*
X32107D01*
X31516Y108866D02*
Y110047D01*
X45309Y112402D02*
X46491D01*
X45900Y111811D02*
Y112992D01*
X42423Y95674D02*
X43604D01*
X43014Y95083D02*
Y96264D01*
X74367Y101671D02*
X75549D01*
X74958Y101080D02*
Y102261D01*
X119606Y112500D02*
X120787D01*
X120197Y111909D02*
Y113091D01*
X134843Y116929D02*
X136024D01*
X135433Y116339D02*
Y117520D01*
X104587Y121653D02*
X105768D01*
X105177Y121063D02*
Y122244D01*
X255706Y39370D02*
X256887D01*
X256296Y38780D02*
Y39961D01*
X255807Y28580D02*
X256988D01*
X256398Y27989D02*
Y29170D01*
X89764Y137421D02*
X90945D01*
X90354Y136831D02*
Y138012D01*
M02*
