%TF.GenerationSoftware,Altium Limited,Altium Designer,20.1.11 (218)*%
G04 Layer_Physical_Order=4*
G04 Layer_Color=16440176*
%FSLAX26Y26*%
%MOIN*%
%TF.SameCoordinates,F1652399-7491-40A6-9504-01A14B245E9D*%
%TF.FilePolarity,Positive*%
%TF.FileFunction,Copper,L4,Inr,Signal*%
%TF.Part,Single*%
G01*
G75*
%TA.AperFunction,Conductor*%
%ADD38C,0.005000*%
%ADD49C,0.019000*%
%TA.AperFunction,ComponentPad*%
%ADD62C,0.040000*%
%TA.AperFunction,ViaPad*%
%ADD64C,0.165000*%
%ADD65C,0.017716*%
%TA.AperFunction,NonConductor*%
%ADD66C,0.009842*%
G36*
X830428Y752959D02*
X826463Y750310D01*
X825384Y748695D01*
X819716Y748179D01*
X815132Y751242D01*
X809724Y752318D01*
X804317Y751242D01*
X799733Y748179D01*
X796670Y743595D01*
X795595Y738188D01*
X796670Y732781D01*
X799733Y728197D01*
X804317Y725134D01*
X809724Y724058D01*
X815132Y725134D01*
X819716Y728197D01*
X825385Y727683D01*
X826463Y726070D01*
X830428Y723421D01*
Y702959D01*
X826463Y700310D01*
X825384Y698695D01*
X819716Y698179D01*
X815132Y701242D01*
X809724Y702318D01*
X804317Y701242D01*
X799733Y698179D01*
X796670Y693595D01*
X795595Y688188D01*
X796670Y682781D01*
X799733Y678197D01*
X804317Y675134D01*
X809724Y674058D01*
X815132Y675134D01*
X819716Y678197D01*
X825385Y677683D01*
X826463Y676070D01*
X830428Y673421D01*
Y652959D01*
X826463Y650310D01*
X825384Y648695D01*
X819716Y648179D01*
X815132Y651242D01*
X809724Y652318D01*
X804317Y651242D01*
X799733Y648179D01*
X796670Y643595D01*
X795595Y638188D01*
X796670Y632781D01*
X799733Y628197D01*
X804317Y625134D01*
X809724Y624058D01*
X815132Y625134D01*
X819716Y628197D01*
X825385Y627683D01*
X826463Y626070D01*
X830428Y623421D01*
Y602959D01*
X826463Y600310D01*
X825384Y598695D01*
X819716Y598179D01*
X815132Y601242D01*
X809724Y602318D01*
X804317Y601242D01*
X799733Y598179D01*
X796670Y593595D01*
X795595Y588188D01*
X796670Y582781D01*
X799733Y578197D01*
X804317Y575134D01*
X809724Y574058D01*
X815132Y575134D01*
X819716Y578197D01*
X825385Y577683D01*
X826463Y576070D01*
X830428Y573421D01*
Y552959D01*
X826463Y550310D01*
X825384Y548695D01*
X819716Y548179D01*
X815132Y551242D01*
X809724Y552318D01*
X804317Y551242D01*
X799733Y548179D01*
X796670Y543595D01*
X795595Y538188D01*
X796670Y532781D01*
X799733Y528197D01*
X804317Y525134D01*
X809724Y524058D01*
X815132Y525134D01*
X819716Y528197D01*
X825385Y527683D01*
X826463Y526070D01*
X830428Y523421D01*
Y502959D01*
X826463Y500310D01*
X825384Y498695D01*
X819716Y498179D01*
X815132Y501242D01*
X809724Y502318D01*
X804317Y501242D01*
X799733Y498179D01*
X796670Y493595D01*
X795595Y488188D01*
X796670Y482781D01*
X799733Y478197D01*
X804317Y475134D01*
X809724Y474058D01*
X815132Y475134D01*
X819716Y478197D01*
X825385Y477683D01*
X826463Y476070D01*
X830428Y473421D01*
Y452959D01*
X826463Y450310D01*
X825384Y448695D01*
X819716Y448179D01*
X815132Y451242D01*
X809724Y452318D01*
X804317Y451242D01*
X799733Y448179D01*
X796670Y443595D01*
X795595Y438188D01*
X790879Y437265D01*
X787816Y441849D01*
X783232Y444912D01*
X777824Y445988D01*
X772417Y444912D01*
X767833Y441849D01*
X764770Y437265D01*
X763695Y431858D01*
X764770Y426451D01*
X767833Y421867D01*
X772417Y418804D01*
X777824Y417728D01*
X783232Y418804D01*
X787816Y421867D01*
X790879Y426451D01*
X791954Y431858D01*
X796670Y432781D01*
X799733Y428197D01*
X804317Y425134D01*
X809724Y424058D01*
X815132Y425134D01*
X819716Y428197D01*
X825385Y427683D01*
X826463Y426070D01*
X830428Y423421D01*
Y402959D01*
X826463Y400310D01*
X825384Y398695D01*
X819716Y398179D01*
X815132Y401242D01*
X809724Y402318D01*
X804317Y401242D01*
X799733Y398179D01*
X798167Y395835D01*
X769980D01*
X723407Y442407D01*
X720926Y444065D01*
X718000Y444647D01*
X619366D01*
X616440Y444065D01*
X613959Y442407D01*
X612190Y440638D01*
X609424Y441188D01*
X604017Y440112D01*
X599433Y437049D01*
X596370Y432465D01*
X595295Y427058D01*
X596370Y421651D01*
X599433Y417067D01*
X604017Y414004D01*
X609424Y412928D01*
X614832Y414004D01*
X619416Y417067D01*
X622479Y421651D01*
X623554Y427058D01*
X625438Y429353D01*
X708530D01*
X710047Y424353D01*
X708009Y422991D01*
X704946Y418407D01*
X703870Y413000D01*
X704946Y407593D01*
X708009Y403009D01*
X712593Y399946D01*
X718000Y398870D01*
X723407Y399946D01*
X727991Y403009D01*
X730440Y406674D01*
X735902Y408284D01*
X761405Y382781D01*
X763886Y381123D01*
X766812Y380541D01*
X794163D01*
X795067Y379273D01*
X792491Y374273D01*
X704715D01*
X701505Y379273D01*
X702159Y382560D01*
X701083Y387967D01*
X698020Y392551D01*
X693436Y395614D01*
X688029Y396690D01*
X682622Y395614D01*
X678038Y392551D01*
X674975Y387967D01*
X673899Y382560D01*
X674553Y379273D01*
X671344Y374273D01*
X540212D01*
X523414Y391070D01*
X523414Y417414D01*
X583000Y477000D01*
X583000Y546260D01*
X602341Y565601D01*
X676664Y565601D01*
X695177Y547088D01*
X709908Y547088D01*
X710077Y542158D01*
Y540016D01*
X707733Y538449D01*
X704670Y533865D01*
X699178Y531881D01*
X698832Y532112D01*
X693424Y533188D01*
X688017Y532112D01*
X683433Y529049D01*
X680370Y524465D01*
X679295Y519058D01*
X680370Y513651D01*
X683433Y509067D01*
X683691Y508895D01*
Y502881D01*
X683433Y502709D01*
X680370Y498125D01*
X679295Y492718D01*
X680370Y487311D01*
X683433Y482727D01*
X685528Y481327D01*
Y475449D01*
X683433Y474049D01*
X680370Y469465D01*
X679295Y464058D01*
X680370Y458651D01*
X683433Y454067D01*
X688017Y451004D01*
X693424Y449928D01*
X698832Y451004D01*
X703416Y454067D01*
X706479Y458651D01*
X707554Y464058D01*
X706479Y469465D01*
X703416Y474049D01*
X701321Y475449D01*
Y481327D01*
X703416Y482727D01*
X706479Y487311D01*
X707554Y492718D01*
X706479Y498125D01*
X703416Y502709D01*
X703158Y502881D01*
Y508895D01*
X703416Y509067D01*
X706479Y513651D01*
X711971Y515635D01*
X712317Y515404D01*
X717724Y514328D01*
X723132Y515404D01*
X727716Y518467D01*
X730779Y523051D01*
X731854Y528458D01*
X730779Y533865D01*
X727716Y538449D01*
X725371Y540016D01*
Y563276D01*
X725177Y564254D01*
X725251Y564327D01*
X729782Y566733D01*
X733117Y564504D01*
X738524Y563428D01*
X743932Y564504D01*
X748516Y567567D01*
X751578Y572151D01*
X752654Y577558D01*
X751578Y582965D01*
X748516Y587549D01*
X743932Y590612D01*
X738524Y591688D01*
X733117Y590612D01*
X728533Y587549D01*
X725470Y582965D01*
X724395Y577558D01*
X725156Y573729D01*
X720548Y571266D01*
X709908Y581906D01*
Y583092D01*
X683311Y609688D01*
X615498Y609688D01*
X581516Y643669D01*
Y676023D01*
X582991Y677009D01*
X586054Y681593D01*
X586350Y683078D01*
X602343Y699072D01*
Y700353D01*
X705428D01*
X708355Y700935D01*
X710836Y702593D01*
X736494Y728252D01*
X738152Y730732D01*
X738734Y733659D01*
Y737100D01*
X742119Y738516D01*
X743734Y738866D01*
X748017Y736004D01*
X753424Y734928D01*
X758832Y736004D01*
X763416Y739067D01*
X766479Y743651D01*
X767554Y749058D01*
X766479Y754465D01*
X763416Y759049D01*
X758832Y762112D01*
X753424Y763188D01*
X748017Y762112D01*
X743734Y759250D01*
X742119Y759600D01*
X738734Y761016D01*
Y811913D01*
X738519Y812996D01*
X742859Y816110D01*
X743017Y816004D01*
X748424Y814928D01*
X753832Y816004D01*
X758416Y819067D01*
X761479Y823651D01*
X762554Y829058D01*
X761479Y834465D01*
X758416Y839049D01*
X753832Y842112D01*
X748424Y843188D01*
X743017Y842112D01*
X738433Y839049D01*
X735370Y834465D01*
X734295Y829058D01*
X734907Y825978D01*
X730299Y823515D01*
X717537Y836277D01*
X719183Y841702D01*
X720407Y841946D01*
X724991Y845009D01*
X728054Y849593D01*
X729130Y855000D01*
X728054Y860407D01*
X724991Y864991D01*
X720407Y868054D01*
X715000Y869130D01*
X709593Y868054D01*
X704647Y870763D01*
Y938802D01*
X709647Y940318D01*
X710483Y939067D01*
X715067Y936004D01*
X720474Y934928D01*
X725882Y936004D01*
X730466Y939067D01*
X733529Y943651D01*
X734604Y949058D01*
X733529Y954465D01*
X730466Y959049D01*
X725882Y962112D01*
X720474Y963188D01*
X715067Y962112D01*
X710483Y959049D01*
X709647Y957798D01*
X704647Y959314D01*
Y1126955D01*
X704065Y1129882D01*
X702407Y1132362D01*
X649632Y1185138D01*
X647151Y1186795D01*
X644225Y1187377D01*
X201254D01*
X201254Y1187377D01*
X198327Y1186795D01*
X195846Y1185138D01*
X195846Y1185137D01*
X127268Y1116559D01*
X124503Y1117109D01*
X119096Y1116034D01*
X114512Y1112971D01*
X111449Y1108387D01*
X110982Y1106040D01*
X110094Y1105730D01*
X105779Y1105512D01*
X103416Y1109049D01*
X98832Y1112112D01*
X93424Y1113188D01*
X88017Y1112112D01*
X83433Y1109049D01*
X80370Y1104465D01*
X79295Y1099058D01*
X80370Y1093651D01*
X83433Y1089067D01*
X88017Y1086004D01*
X93424Y1084928D01*
X98832Y1086004D01*
X103416Y1089067D01*
X106478Y1093651D01*
X106945Y1095997D01*
X107833Y1096308D01*
X112148Y1096525D01*
X114512Y1092988D01*
X119096Y1089925D01*
X124503Y1088850D01*
X129910Y1089925D01*
X134494Y1092988D01*
X137557Y1097572D01*
X138632Y1102979D01*
X138082Y1105745D01*
X204421Y1172083D01*
X641057D01*
X689353Y1123788D01*
Y846000D01*
X689935Y843074D01*
X691593Y840593D01*
X723440Y808745D01*
Y769339D01*
X718440Y767822D01*
X716991Y769991D01*
X712407Y773054D01*
X707000Y774130D01*
X701593Y773054D01*
X697009Y769991D01*
X693946Y765407D01*
X692870Y760000D01*
X693946Y754593D01*
X697009Y750009D01*
X701593Y746946D01*
X707000Y745870D01*
X712407Y746946D01*
X716991Y750009D01*
X718440Y752178D01*
X723440Y750661D01*
Y736826D01*
X702261Y715647D01*
X605879D01*
X602344Y719183D01*
X602344Y748570D01*
X603696Y750593D01*
X604771Y756000D01*
X603696Y761407D01*
X600633Y765991D01*
X596049Y769054D01*
X590642Y770130D01*
X585235Y769054D01*
X583446Y767859D01*
X571000Y780304D01*
X571000Y799078D01*
X618342Y846353D01*
X624000D01*
X626926Y846935D01*
X629407Y848593D01*
X650731Y869917D01*
X650732Y869917D01*
X652389Y872398D01*
X652971Y875324D01*
X652971Y875325D01*
Y880933D01*
X664611Y892556D01*
X664611Y1017940D01*
X528551Y1154000D01*
X306000Y1154000D01*
X202389Y1050389D01*
X196964Y1052035D01*
X196478Y1054475D01*
X193416Y1059059D01*
X188832Y1062122D01*
X183424Y1063198D01*
X178017Y1062122D01*
X173433Y1059059D01*
X170370Y1054475D01*
X169295Y1049068D01*
X169356Y1048758D01*
X168834Y1047891D01*
X165024Y1044910D01*
X161414Y1045628D01*
X156007Y1044552D01*
X151423Y1041489D01*
X148360Y1036905D01*
X147285Y1031498D01*
X148360Y1026091D01*
X151423Y1021507D01*
X156007Y1018444D01*
X161414Y1017368D01*
X164398Y1017962D01*
X168850Y1014462D01*
X169000Y1014167D01*
Y925000D01*
X137534Y893534D01*
X137534Y688466D01*
X168082Y657917D01*
X249152Y657917D01*
X258676Y648220D01*
X258676Y623918D01*
X197147Y562239D01*
X96137D01*
X37201Y621175D01*
Y626630D01*
X39546Y628197D01*
X42608Y632781D01*
X43684Y638188D01*
X42608Y643595D01*
X39546Y648179D01*
X34962Y651242D01*
X29554Y652318D01*
X24147Y651242D01*
X19563Y648179D01*
X19560Y648175D01*
X13547D01*
X12120Y650310D01*
X8156Y652959D01*
Y673421D01*
X12120Y676070D01*
X13160Y677625D01*
X19101Y677734D01*
X23897Y674529D01*
X29554Y673404D01*
X85824D01*
X86004Y673440D01*
X87971Y669885D01*
X88260Y668790D01*
X85370Y664465D01*
X84295Y659058D01*
X85370Y653651D01*
X88433Y649067D01*
X93017Y646004D01*
X98424Y644928D01*
X103832Y646004D01*
X108416Y649067D01*
X111478Y653651D01*
X112554Y659058D01*
X111478Y664465D01*
X108416Y669049D01*
X103832Y672112D01*
X98463Y673180D01*
X98340Y673367D01*
X96431Y677411D01*
X96434Y677890D01*
X101008Y682464D01*
X104213Y687260D01*
X105338Y692918D01*
X104213Y698576D01*
X101008Y703372D01*
X96212Y706577D01*
X90554Y707702D01*
X84897Y706577D01*
X80100Y703372D01*
X79701Y702972D01*
X29554D01*
X23897Y701847D01*
X19101Y698642D01*
X13161Y698753D01*
X12120Y700310D01*
X8156Y702959D01*
Y723421D01*
X12120Y726070D01*
X13546Y728203D01*
X19559D01*
X19563Y728197D01*
X24147Y725134D01*
X29554Y724058D01*
X34962Y725134D01*
X39546Y728197D01*
X42608Y732781D01*
X43684Y738188D01*
X42608Y743595D01*
X39546Y748179D01*
X34962Y751242D01*
X29554Y752318D01*
X24147Y751242D01*
X19563Y748179D01*
X19560Y748175D01*
X13547D01*
X12120Y750310D01*
X8156Y752959D01*
Y773421D01*
X12120Y776070D01*
X13546Y778203D01*
X19559D01*
X19563Y778197D01*
X24147Y775134D01*
X29554Y774058D01*
X34962Y775134D01*
X39546Y778197D01*
X42608Y782781D01*
X43684Y788188D01*
X42608Y793595D01*
X39546Y798179D01*
X34962Y801242D01*
X29554Y802318D01*
X24147Y801242D01*
X19563Y798179D01*
X19560Y798175D01*
X13547D01*
X12120Y800310D01*
X8156Y802959D01*
Y1224128D01*
X830428D01*
Y752959D01*
D02*
G37*
%LPC*%
G36*
X151574Y1188188D02*
X146167Y1187112D01*
X141583Y1184049D01*
X138520Y1179465D01*
X137445Y1174058D01*
X138520Y1168651D01*
X141583Y1164067D01*
X146167Y1161004D01*
X151574Y1159928D01*
X156982Y1161004D01*
X161566Y1164067D01*
X164629Y1168651D01*
X165704Y1174058D01*
X164629Y1179465D01*
X161566Y1184049D01*
X156982Y1187112D01*
X151574Y1188188D01*
D02*
G37*
G36*
X100394D02*
X94987Y1187112D01*
X90403Y1184049D01*
X87340Y1179465D01*
X86265Y1174058D01*
X87340Y1168651D01*
X90403Y1164067D01*
X94987Y1161004D01*
X100394Y1159928D01*
X105802Y1161004D01*
X110386Y1164067D01*
X113448Y1168651D01*
X114524Y1174058D01*
X113448Y1179465D01*
X110386Y1184049D01*
X105802Y1187112D01*
X100394Y1188188D01*
D02*
G37*
G36*
X648278Y1117130D02*
X642871Y1116054D01*
X638287Y1112991D01*
X635224Y1108407D01*
X634149Y1103000D01*
X635224Y1097593D01*
X638287Y1093009D01*
X642871Y1089946D01*
X648278Y1088870D01*
X653686Y1089946D01*
X658270Y1093009D01*
X661332Y1097593D01*
X662408Y1103000D01*
X661332Y1108407D01*
X658270Y1112991D01*
X653686Y1116054D01*
X648278Y1117130D01*
D02*
G37*
G36*
X183424Y1108188D02*
X178017Y1107112D01*
X173433Y1104049D01*
X170370Y1099465D01*
X169295Y1094058D01*
X170370Y1088651D01*
X173433Y1084067D01*
X178017Y1081004D01*
X183424Y1079928D01*
X188832Y1081004D01*
X193416Y1084067D01*
X196478Y1088651D01*
X197554Y1094058D01*
X196478Y1099465D01*
X193416Y1104049D01*
X188832Y1107112D01*
X183424Y1108188D01*
D02*
G37*
G36*
X805714Y1035468D02*
X800307Y1034392D01*
X795723Y1031329D01*
X792660Y1026745D01*
X791585Y1021338D01*
X792660Y1015931D01*
X795723Y1011347D01*
X800307Y1008284D01*
X805714Y1007208D01*
X811122Y1008284D01*
X815706Y1011347D01*
X818769Y1015931D01*
X819844Y1021338D01*
X818769Y1026745D01*
X815706Y1031329D01*
X811122Y1034392D01*
X805714Y1035468D01*
D02*
G37*
G36*
X38000Y1022130D02*
X32593Y1021054D01*
X28009Y1017991D01*
X24946Y1013407D01*
X23870Y1008000D01*
X24946Y1002593D01*
X28009Y998009D01*
X32593Y994946D01*
X38000Y993870D01*
X43407Y994946D01*
X47991Y998009D01*
X51054Y1002593D01*
X52130Y1008000D01*
X51054Y1013407D01*
X47991Y1017991D01*
X43407Y1021054D01*
X38000Y1022130D01*
D02*
G37*
G36*
X763784Y963548D02*
X758377Y962472D01*
X753793Y959409D01*
X750730Y954825D01*
X749655Y949418D01*
X750730Y944011D01*
X753793Y939427D01*
X758377Y936364D01*
X763784Y935288D01*
X769192Y936364D01*
X773776Y939427D01*
X776838Y944011D01*
X777914Y949418D01*
X776838Y954825D01*
X773776Y959409D01*
X769192Y962472D01*
X763784Y963548D01*
D02*
G37*
G36*
X117899Y966403D02*
X112491Y965328D01*
X107907Y962265D01*
X104844Y957681D01*
X103769Y952274D01*
X104844Y946866D01*
X107016Y943617D01*
X107539Y940119D01*
X106988Y936884D01*
X104770Y933565D01*
X103695Y928158D01*
X104770Y922751D01*
X107833Y918167D01*
X112417Y915104D01*
X117824Y914028D01*
X123232Y915104D01*
X127816Y918167D01*
X130879Y922751D01*
X131954Y928158D01*
X130879Y933565D01*
X128185Y937596D01*
X127890Y942283D01*
X130953Y946866D01*
X132028Y952274D01*
X130953Y957681D01*
X127890Y962265D01*
X123306Y965328D01*
X117899Y966403D01*
D02*
G37*
G36*
X35748Y920898D02*
X30340Y919822D01*
X25756Y916759D01*
X22694Y912175D01*
X21618Y906768D01*
X22694Y901361D01*
X25756Y896777D01*
X30340Y893714D01*
X35748Y892638D01*
X41155Y893714D01*
X45739Y896777D01*
X48802Y901361D01*
X49877Y906768D01*
X48802Y912175D01*
X45739Y916759D01*
X41155Y919822D01*
X35748Y920898D01*
D02*
G37*
G36*
X775584Y866498D02*
X770177Y865422D01*
X765593Y862359D01*
X762530Y857775D01*
X761455Y852368D01*
X762530Y846961D01*
X765593Y842377D01*
X770177Y839314D01*
X775584Y838238D01*
X780992Y839314D01*
X785576Y842377D01*
X788639Y846961D01*
X789714Y852368D01*
X788639Y857775D01*
X785576Y862359D01*
X780992Y865422D01*
X775584Y866498D01*
D02*
G37*
G36*
X31134Y885468D02*
X25727Y884392D01*
X21143Y881329D01*
X18080Y876745D01*
X17005Y871338D01*
X18080Y865931D01*
X21143Y861347D01*
X25727Y858284D01*
X31134Y857208D01*
X36542Y858284D01*
X37216Y858735D01*
X40821Y855130D01*
X40370Y854455D01*
X39295Y849048D01*
X40370Y843641D01*
X43433Y839057D01*
X48017Y835994D01*
X53424Y834918D01*
X58832Y835994D01*
X63416Y839057D01*
X66478Y843641D01*
X67554Y849048D01*
X66478Y854455D01*
X63416Y859039D01*
X58832Y862102D01*
X53424Y863178D01*
X48017Y862102D01*
X47343Y861651D01*
X43738Y865256D01*
X44188Y865931D01*
X45264Y871338D01*
X44188Y876745D01*
X41126Y881329D01*
X36542Y884392D01*
X31134Y885468D01*
D02*
G37*
G36*
X93424Y844838D02*
X88017Y843762D01*
X83433Y840699D01*
X80370Y836115D01*
X79295Y830708D01*
X80370Y825301D01*
X83433Y820717D01*
X88017Y817654D01*
X93424Y816578D01*
X98832Y817654D01*
X103416Y820717D01*
X106478Y825301D01*
X107554Y830708D01*
X106478Y836115D01*
X103416Y840699D01*
X98832Y843762D01*
X93424Y844838D01*
D02*
G37*
G36*
X658424Y833188D02*
X653017Y832112D01*
X648433Y829049D01*
X645370Y824465D01*
X644295Y819058D01*
X645370Y813651D01*
X648433Y809067D01*
X653017Y806004D01*
X658424Y804928D01*
X663832Y806004D01*
X668416Y809067D01*
X671479Y813651D01*
X672554Y819058D01*
X671479Y824465D01*
X668416Y829049D01*
X663832Y832112D01*
X658424Y833188D01*
D02*
G37*
G36*
X90554Y797598D02*
X85147Y796522D01*
X80563Y793459D01*
X77500Y788875D01*
X76425Y783468D01*
X77500Y778061D01*
X80563Y773477D01*
X85147Y770414D01*
X90554Y769338D01*
X95962Y770414D01*
X100546Y773477D01*
X103609Y778061D01*
X104684Y783468D01*
X103609Y788875D01*
X100546Y793459D01*
X95962Y796522D01*
X90554Y797598D01*
D02*
G37*
G36*
X650473Y774548D02*
X640718Y772607D01*
X632449Y767082D01*
X626923Y758812D01*
X624983Y749058D01*
X626923Y739303D01*
X632449Y731034D01*
X640718Y725509D01*
X650473Y723568D01*
X660227Y725509D01*
X668497Y731034D01*
X674022Y739303D01*
X675962Y749058D01*
X674022Y758812D01*
X668497Y767082D01*
X660227Y772607D01*
X650473Y774548D01*
D02*
G37*
G36*
X752994Y727758D02*
X747587Y726682D01*
X743003Y723619D01*
X739940Y719035D01*
X738865Y713628D01*
X739940Y708221D01*
X743003Y703637D01*
X747587Y700574D01*
X752994Y699498D01*
X758402Y700574D01*
X762986Y703637D01*
X766048Y708221D01*
X767124Y713628D01*
X766048Y719035D01*
X762986Y723619D01*
X758402Y726682D01*
X752994Y727758D01*
D02*
G37*
G36*
X768424Y678188D02*
X763017Y677112D01*
X758433Y674049D01*
X755370Y669465D01*
X754295Y664058D01*
X755370Y658651D01*
X758433Y654067D01*
X763017Y651004D01*
X768424Y649928D01*
X773832Y651004D01*
X778416Y654067D01*
X781479Y658651D01*
X782554Y664058D01*
X781479Y669465D01*
X778416Y674049D01*
X773832Y677112D01*
X768424Y678188D01*
D02*
G37*
G36*
X691144Y653188D02*
X685737Y652112D01*
X681153Y649049D01*
X678090Y644465D01*
X677015Y639058D01*
X678090Y633651D01*
X681153Y629067D01*
X685737Y626004D01*
X691144Y624928D01*
X696552Y626004D01*
X701136Y629067D01*
X704198Y633651D01*
X705274Y639058D01*
X704198Y644465D01*
X701136Y649049D01*
X696552Y652112D01*
X691144Y653188D01*
D02*
G37*
G36*
X633424Y678178D02*
X628017Y677102D01*
X623433Y674039D01*
X620370Y669455D01*
X619295Y664048D01*
X620370Y658641D01*
X623433Y654057D01*
X628017Y650994D01*
X633424Y649918D01*
X635996Y650430D01*
X637002Y650630D01*
X638953Y645920D01*
X638136Y645374D01*
X636153Y644049D01*
X633090Y639465D01*
X632015Y634058D01*
X633090Y628651D01*
X636153Y624067D01*
X640737Y621004D01*
X646144Y619928D01*
X651552Y621004D01*
X656136Y624067D01*
X659198Y628651D01*
X660274Y634058D01*
X659198Y639465D01*
X656136Y644049D01*
X651552Y647112D01*
X646144Y648188D01*
X643573Y647676D01*
X642567Y647476D01*
X640616Y652186D01*
X641433Y652732D01*
X643416Y654057D01*
X646479Y658641D01*
X647554Y664048D01*
X646479Y669455D01*
X643416Y674039D01*
X638832Y677102D01*
X633424Y678178D01*
D02*
G37*
G36*
X185034Y643588D02*
X179627Y642512D01*
X175043Y639449D01*
X171980Y634865D01*
X170905Y629458D01*
X171980Y624051D01*
X175043Y619467D01*
X179627Y616404D01*
X185034Y615328D01*
X190442Y616404D01*
X195026Y619467D01*
X198089Y624051D01*
X199164Y629458D01*
X198089Y634865D01*
X195026Y639449D01*
X190442Y642512D01*
X185034Y643588D01*
D02*
G37*
G36*
X773024Y593588D02*
X767617Y592512D01*
X763033Y589449D01*
X759970Y584865D01*
X758895Y579458D01*
X759970Y574051D01*
X763033Y569467D01*
X767617Y566404D01*
X773024Y565328D01*
X778432Y566404D01*
X783016Y569467D01*
X786078Y574051D01*
X787154Y579458D01*
X786078Y584865D01*
X783016Y589449D01*
X778432Y592512D01*
X773024Y593588D01*
D02*
G37*
G36*
X622724Y492088D02*
X617317Y491012D01*
X612733Y487949D01*
X609670Y483365D01*
X608595Y477958D01*
X609670Y472551D01*
X612733Y467967D01*
X617317Y464904D01*
X622724Y463828D01*
X628132Y464904D01*
X632716Y467967D01*
X635779Y472551D01*
X636854Y477958D01*
X635779Y483365D01*
X632716Y487949D01*
X628132Y491012D01*
X622724Y492088D01*
D02*
G37*
G36*
X742424Y511188D02*
X737017Y510112D01*
X732433Y507049D01*
X729370Y502465D01*
X728295Y497058D01*
X729370Y491651D01*
X731520Y488433D01*
X732092Y485048D01*
X731520Y481663D01*
X729370Y478445D01*
X728295Y473038D01*
X729370Y467631D01*
X732433Y463047D01*
X733050Y456621D01*
X732010Y455065D01*
X730935Y449658D01*
X732010Y444251D01*
X735073Y439667D01*
X739657Y436604D01*
X745064Y435528D01*
X750472Y436604D01*
X755056Y439667D01*
X758119Y444251D01*
X759194Y449658D01*
X758119Y455065D01*
X755056Y459649D01*
X754439Y466075D01*
X755479Y467631D01*
X756554Y473038D01*
X755479Y478445D01*
X753328Y481663D01*
X752757Y485048D01*
X753328Y488433D01*
X755479Y491651D01*
X756554Y497058D01*
X755479Y502465D01*
X752416Y507049D01*
X747832Y510112D01*
X742424Y511188D01*
D02*
G37*
G36*
X563424Y421188D02*
X558017Y420112D01*
X553433Y417049D01*
X550370Y412465D01*
X549295Y407058D01*
X550370Y401651D01*
X553433Y397067D01*
X558017Y394004D01*
X563424Y392928D01*
X568832Y394004D01*
X573416Y397067D01*
X576479Y401651D01*
X577554Y407058D01*
X576479Y412465D01*
X573416Y417049D01*
X568832Y420112D01*
X563424Y421188D01*
D02*
G37*
G36*
X627424Y409188D02*
X622017Y408112D01*
X617433Y405049D01*
X614370Y400465D01*
X613295Y395058D01*
X614370Y389651D01*
X617433Y385067D01*
X622017Y382004D01*
X627424Y380928D01*
X632832Y382004D01*
X637416Y385067D01*
X640479Y389651D01*
X641554Y395058D01*
X640479Y400465D01*
X637416Y405049D01*
X632832Y408112D01*
X627424Y409188D01*
D02*
G37*
%LPD*%
D38*
X175970Y669029D02*
X264753D01*
X154642Y690358D02*
Y791265D01*
Y690358D02*
X175970Y669029D01*
X274824Y620824D02*
Y658958D01*
X94562Y553000D02*
X207000D01*
X274824Y620824D01*
X29554Y618008D02*
X94562Y553000D01*
X276056Y42000D02*
X295557Y22500D01*
X92000Y42000D02*
X276056D01*
X48424Y85576D02*
X92000Y42000D01*
X48424Y85576D02*
Y193468D01*
X767314Y256158D02*
X809724Y213748D01*
Y188188D02*
Y213748D01*
X609424Y427058D02*
X619366Y437000D01*
X718000D01*
X766812Y388188D01*
X681000Y600000D02*
X717724Y563276D01*
Y528458D02*
Y563276D01*
X572000Y641000D02*
Y657000D01*
X556000Y673000D02*
Y699000D01*
Y673000D02*
X572000Y657000D01*
Y641000D02*
X613000Y600000D01*
X330287Y742000D02*
X336287Y748000D01*
X327000Y742000D02*
X330287D01*
X336287Y748000D02*
X395002D01*
X87371Y204815D02*
X121186D01*
X130534Y195466D01*
X86614Y204058D02*
X87371Y204815D01*
X782005Y365908D02*
X809724Y338188D01*
X524274Y365908D02*
X782005D01*
X296379Y422945D02*
Y469840D01*
X296352Y466986D02*
Y507286D01*
X314124Y525058D01*
X296379Y422945D02*
X335324Y384000D01*
X574358Y480358D02*
Y597000D01*
X478000Y384000D02*
X574358Y480358D01*
X335324Y384000D02*
X478000D01*
X188424Y685388D02*
X188754D01*
X201000Y697634D01*
X161000Y871000D02*
X201000Y831000D01*
Y697634D02*
Y831000D01*
X161000Y871000D02*
Y906142D01*
X177000Y1012000D02*
X310734Y1145734D01*
X177000Y922142D02*
Y1012000D01*
X310734Y1145734D02*
X372028D01*
X161000Y906142D02*
X177000Y922142D01*
X372028Y1145734D02*
X393704Y1124058D01*
X590642Y756000D02*
X591000Y755642D01*
X590642Y708000D02*
X705428D01*
X591000Y734000D02*
Y755642D01*
X574000Y738000D02*
Y765490D01*
X517000Y681000D02*
X574000Y738000D01*
X563000Y776490D02*
X574000Y765490D01*
X556000Y699000D02*
X591000Y734000D01*
X59424Y92718D02*
X98142Y54000D01*
X59424Y92718D02*
Y127058D01*
X98142Y54000D02*
X274866D01*
X295557Y22500D02*
X565847D01*
X274866Y54000D02*
X310924Y90058D01*
X265386Y76000D02*
X296662Y107276D01*
X157484Y102516D02*
X184000Y76000D01*
X157484Y102516D02*
Y120078D01*
X184000Y76000D02*
X265386D01*
X95424Y94576D02*
X125000Y65000D01*
X269000D02*
X308000Y104000D01*
X125000Y65000D02*
X269000D01*
X95424Y94576D02*
Y129058D01*
X140824Y141448D02*
Y226824D01*
X160068Y246068D02*
X253424D01*
X140824Y226824D02*
X160068Y246068D01*
X165354Y204058D02*
X182354Y221058D01*
X160382Y259000D02*
X231966D01*
X250224Y277258D01*
X79424Y339958D02*
X160382Y259000D01*
X254424Y179058D02*
X320884D01*
X358826Y217000D02*
X529366D01*
X320884Y179058D02*
X358826Y217000D01*
X529366D02*
X534064Y221698D01*
X308000Y104000D02*
Y131000D01*
X358058Y181058D02*
X582424D01*
X308000Y131000D02*
X358058Y181058D01*
X364058Y204058D02*
X582424D01*
X296662Y107276D02*
Y136662D01*
X364058Y204058D01*
X310924Y90058D02*
X337424D01*
X565847Y22500D02*
X601424Y58077D01*
X494424Y336058D02*
X524274Y365908D01*
X766812Y388188D02*
X809724D01*
X212599Y685388D02*
Y833544D01*
X264753Y669029D02*
X274824Y658958D01*
X289000Y573182D02*
X312124Y550058D01*
X601424Y58077D02*
Y117058D01*
X602324Y857324D02*
Y945758D01*
X588724Y959358D02*
X602324Y945758D01*
X644225Y1179730D02*
X697000Y1126955D01*
X124503Y1102979D02*
X201254Y1179730D01*
X644225D01*
X697000Y846000D02*
Y1126955D01*
X731087Y733659D02*
Y811913D01*
X697000Y846000D02*
X731087Y811913D01*
X705428Y708000D02*
X731087Y733659D01*
X171000Y875142D02*
X212599Y833544D01*
X171000Y875142D02*
Y902000D01*
X29554Y618008D02*
Y638188D01*
X57519Y541986D02*
X213592D01*
X291724Y620119D02*
Y666724D01*
X213592Y541986D02*
X291724Y620119D01*
X29554Y588188D02*
X46924Y570818D01*
Y531392D02*
Y570818D01*
Y452428D02*
Y531392D01*
X57519Y541986D01*
X504424Y446058D02*
Y548576D01*
X188000Y1007000D02*
X218458Y1037458D01*
X188000Y919000D02*
Y1007000D01*
X218458Y1037458D02*
X330624D01*
X171000Y902000D02*
X188000Y919000D01*
X614000Y854000D02*
X624000D01*
X645324Y875324D02*
Y957658D01*
X624000Y854000D02*
X645324Y875324D01*
X489000Y564000D02*
X504424Y548576D01*
X477693Y437817D02*
Y525667D01*
X486284Y534258D01*
X389066Y450934D02*
X390000Y450000D01*
X389066Y450934D02*
Y653066D01*
X527000Y638000D02*
X559000D01*
X617242Y579758D02*
X667324D01*
X559000Y638000D02*
X617242Y579758D01*
X613000Y600000D02*
X681000D01*
X517000Y648000D02*
Y681000D01*
X563000Y803000D02*
X614000Y854000D01*
X563000Y776490D02*
Y803000D01*
X492000Y747000D02*
X602324Y857324D01*
X492000Y611045D02*
Y747000D01*
X481000Y728686D02*
Y751000D01*
X568000Y838000D02*
Y972771D01*
X481000Y751000D02*
X568000Y838000D01*
X517000Y648000D02*
X527000Y638000D01*
X552000Y277482D02*
Y331000D01*
X570378Y349378D02*
X698674D01*
X552000Y331000D02*
X570378Y349378D01*
X552000Y277482D02*
X581424Y248058D01*
X327000Y687190D02*
Y742000D01*
X315810Y676000D02*
X327000Y687190D01*
X301000Y676000D02*
X315810D01*
X395002Y748000D02*
X416292Y769290D01*
X291724Y666724D02*
X301000Y676000D01*
X449000Y868858D02*
X467142Y887000D01*
X313000Y611000D02*
X449000Y747000D01*
Y868858D01*
X310924Y592558D02*
X460000Y741634D01*
Y828000D02*
X485000Y853000D01*
X460000Y741634D02*
Y828000D01*
X308324Y629458D02*
X309458D01*
X438000Y872000D02*
X463000Y897000D01*
X309458Y629458D02*
X438000Y758000D01*
Y872000D01*
X470000Y734000D02*
Y755000D01*
X389066Y653066D02*
X470000Y734000D01*
Y755000D02*
X546035Y831035D01*
X419140Y666826D02*
X481000Y728686D01*
X492000Y611045D02*
X527564Y575481D01*
X396812Y906188D02*
X427000Y876000D01*
Y765000D02*
Y876000D01*
X390000Y728000D02*
X427000Y765000D01*
X416292Y769290D02*
Y871708D01*
X378424Y909576D02*
X416292Y871708D01*
X561424Y979346D02*
X568000Y972771D01*
X561424Y979346D02*
Y982058D01*
X546035Y831035D02*
Y895368D01*
X419140Y531774D02*
Y666826D01*
X485000Y853000D02*
Y868000D01*
X301000Y611000D02*
X313000D01*
X289000Y599000D02*
X301000Y611000D01*
X289000Y573182D02*
Y599000D01*
X485000Y868000D02*
X494000Y877000D01*
X506186D01*
X467142Y887000D02*
X502000D01*
X520534Y905534D01*
X506186Y877000D02*
X531000Y901814D01*
X520534Y905534D02*
Y959248D01*
X543000Y971000D02*
Y992734D01*
X531000Y901814D02*
Y959000D01*
X543000Y971000D01*
Y992734D02*
X559324Y1009058D01*
X463000Y897000D02*
X495766D01*
X510534Y911768D01*
X318794Y656794D02*
X390000Y728000D01*
X308674Y656794D02*
X318794D01*
X390000Y728000D02*
X390000D01*
X510534Y911768D02*
Y954848D01*
X396812Y906188D02*
Y985658D01*
X378424Y909576D02*
Y1034058D01*
X286917Y691366D02*
X287216D01*
X450416Y1073416D02*
X569584D01*
X628000Y1015000D01*
Y974982D02*
X645324Y957658D01*
X628000Y974982D02*
Y1015000D01*
X432424Y112058D02*
Y125424D01*
X438000Y131000D02*
X573066D01*
X432424Y125424D02*
X438000Y131000D01*
X573066D02*
X577066Y135000D01*
X609166D02*
X618424Y144258D01*
X577066Y135000D02*
X609166D01*
X227000Y751282D02*
X286917Y691366D01*
X227000Y924484D02*
X243574Y941058D01*
X227000Y751282D02*
Y924484D01*
X588724Y985458D02*
X599783Y996516D01*
Y1015834D01*
X564616Y1051000D02*
X599783Y1015834D01*
X457000Y1051000D02*
X564616D01*
X446358Y1006859D02*
X473424Y1033925D01*
X446358Y982000D02*
Y1006859D01*
X430000Y988776D02*
Y1053000D01*
X450416Y1073416D01*
X588724Y959358D02*
Y985458D01*
X463684Y979298D02*
X463704Y979278D01*
Y978958D02*
Y979278D01*
X436000Y971642D02*
X446358Y982000D01*
X423224Y971642D02*
X436000D01*
X413642Y981224D02*
X423224Y971642D01*
X413642Y981224D02*
Y1007441D01*
X395724Y1025358D02*
X413642Y1007441D01*
X486424Y978958D02*
X510534Y954848D01*
X463684Y989518D02*
X471524Y997358D01*
X463684Y979298D02*
Y989518D01*
X717000Y305000D02*
X726058Y314058D01*
X684166Y305000D02*
X717000D01*
X726058Y314058D02*
X783854D01*
X657224Y278058D02*
X684166Y305000D01*
X783854Y314058D02*
X809724Y288188D01*
X403698Y164698D02*
X589724D01*
X391424Y94058D02*
Y152424D01*
X403698Y164698D01*
X320558Y225558D02*
X392058Y297058D01*
X246924Y225558D02*
X320558D01*
X392058Y297058D02*
X491224D01*
X48424Y193468D02*
X124014Y269058D01*
X130534Y146168D02*
Y195466D01*
X59424Y127058D02*
X87884Y155518D01*
X603424Y208758D02*
X660944Y266278D01*
X771345D02*
X771464Y266158D01*
X660944Y266278D02*
X771345D01*
X781754Y266158D02*
X809724Y238188D01*
X771464Y266158D02*
X781754D01*
X46924Y452428D02*
X79424Y419928D01*
X293824Y941058D02*
X332000Y979234D01*
Y1002534D02*
X350924Y1021458D01*
X332000Y979234D02*
Y1002534D01*
X243574Y941058D02*
X293824D01*
X393424Y336058D02*
X494424D01*
X374424Y355058D02*
X393424Y336058D01*
X559324Y1009058D02*
X583424D01*
X387224Y1050858D02*
X395724Y1042358D01*
Y1025358D02*
Y1042358D01*
X666524Y256158D02*
X767314D01*
X618424Y208058D02*
X666524Y256158D01*
X618424Y144258D02*
Y208058D01*
X505924Y973858D02*
X520534Y959248D01*
X505924Y973858D02*
Y984458D01*
X493024Y997358D02*
X505924Y984458D01*
X471524Y997358D02*
X493024D01*
X181424Y355058D02*
X374424D01*
X615114Y244458D02*
Y244568D01*
X592354Y221698D02*
X615114Y244458D01*
X534064Y221698D02*
X592354D01*
X241424Y192058D02*
X254424Y179058D01*
X215434Y192058D02*
X241424D01*
X178894Y155518D02*
X215434Y192058D01*
X157484Y155518D02*
X178894D01*
X361424Y1050858D02*
X387224D01*
X350924Y1040358D02*
X361424Y1050858D01*
X350924Y1021458D02*
Y1040358D01*
X79424Y339958D02*
Y419928D01*
X250224Y277258D02*
Y337758D01*
X404444Y81038D02*
X450464D01*
X391424Y94058D02*
X404444Y81038D01*
X589724Y164698D02*
X603424Y178398D01*
Y208758D01*
X112174Y120078D02*
X119454D01*
X140824Y141448D01*
X121424Y137058D02*
X130534Y146168D01*
X103424Y137058D02*
X121424D01*
X95424Y129058D02*
X103424Y137058D01*
X87884Y155518D02*
X114174D01*
X182354Y221058D02*
X203424D01*
X213424Y211058D01*
X232424D01*
X246924Y225558D01*
X491224Y297058D02*
X556584Y231698D01*
X588204D01*
X597784Y241278D01*
Y276918D01*
X608324Y287458D01*
X626424D01*
X635824Y278058D01*
X657224D01*
D49*
X29554Y688188D02*
X85824D01*
X90554Y692918D01*
D62*
X650473Y749058D02*
D03*
D64*
X708424Y164058D02*
D03*
X318424Y839058D02*
D03*
D65*
X496558Y1033925D02*
D03*
X111000Y188456D02*
D03*
X185034Y629458D02*
D03*
X314124Y525058D02*
D03*
X574358Y597000D02*
D03*
X219424Y277058D02*
D03*
X296352Y466986D02*
D03*
X557642Y747067D02*
D03*
X188424Y685388D02*
D03*
X393704Y1124058D02*
D03*
X524924Y987058D02*
D03*
X233724Y636158D02*
D03*
X274824Y658958D02*
D03*
X105000Y525628D02*
D03*
X98424Y659058D02*
D03*
X590642Y708000D02*
D03*
Y756000D02*
D03*
X534925Y739000D02*
D03*
X165354Y204058D02*
D03*
X328000Y42000D02*
D03*
X311000Y67000D02*
D03*
X212599Y685388D02*
D03*
X312124Y550058D02*
D03*
X326002Y491991D02*
D03*
X547000Y112000D02*
D03*
X601424Y117058D02*
D03*
X619094Y911418D02*
D03*
X585584Y919058D02*
D03*
X399934Y776066D02*
D03*
X745064Y449658D02*
D03*
X743000Y348000D02*
D03*
X688029Y382560D02*
D03*
X718000Y413000D02*
D03*
X90554Y692918D02*
D03*
X124503Y1102979D02*
D03*
X183424Y1094058D02*
D03*
X161414Y1031498D02*
D03*
X207000Y979000D02*
D03*
X495000Y808000D02*
D03*
X541283Y597345D02*
D03*
X504424Y446058D02*
D03*
X541642Y531775D02*
D03*
X350424Y523426D02*
D03*
X486284Y534258D02*
D03*
X355524Y490058D02*
D03*
X154642Y791265D02*
D03*
X619094Y875988D02*
D03*
X489000Y564000D02*
D03*
X527000Y638000D02*
D03*
X477693Y437817D02*
D03*
X390000Y450000D02*
D03*
X409276Y437980D02*
D03*
X405424Y492058D02*
D03*
X610714Y634058D02*
D03*
X573000Y687000D02*
D03*
X707000Y760000D02*
D03*
X582642Y791067D02*
D03*
X658424Y844058D02*
D03*
X667324Y579758D02*
D03*
X691144Y639058D02*
D03*
X183424Y1049068D02*
D03*
X362204Y1124058D02*
D03*
X277124Y434358D02*
D03*
X622724Y477958D02*
D03*
X327000Y742000D02*
D03*
X542030Y655034D02*
D03*
X527564Y575481D02*
D03*
X308324Y629458D02*
D03*
X502000Y860000D02*
D03*
X546035Y895368D02*
D03*
X468580Y865304D02*
D03*
X436000Y894000D02*
D03*
X523424Y849048D02*
D03*
X308674Y656794D02*
D03*
X470584Y919928D02*
D03*
X308000Y704000D02*
D03*
X301000Y728000D02*
D03*
X524000Y550000D02*
D03*
X494174Y919008D02*
D03*
X512000Y735000D02*
D03*
X466000Y553000D02*
D03*
X419140Y531774D02*
D03*
X422424Y509058D02*
D03*
X275594Y407748D02*
D03*
X197724Y491058D02*
D03*
X310924Y592558D02*
D03*
X287216Y691366D02*
D03*
X29554Y138188D02*
D03*
Y238188D02*
D03*
Y288188D02*
D03*
Y388188D02*
D03*
Y438188D02*
D03*
Y538188D02*
D03*
Y638188D02*
D03*
Y688188D02*
D03*
Y788188D02*
D03*
X31134Y871338D02*
D03*
X38000Y1008000D02*
D03*
X114174Y155518D02*
D03*
X112174Y120078D02*
D03*
X86614Y204058D02*
D03*
X112924Y354558D02*
D03*
X93424Y444058D02*
D03*
X90554Y783468D02*
D03*
X117824Y928158D02*
D03*
X117899Y952274D02*
D03*
X93424Y1099058D02*
D03*
X100394Y1174058D02*
D03*
X157484Y155518D02*
D03*
Y120078D02*
D03*
X195264Y204058D02*
D03*
X188424Y279058D02*
D03*
X181424Y355058D02*
D03*
X153424Y354058D02*
D03*
X195000Y522000D02*
D03*
X200714Y881348D02*
D03*
X157508Y930492D02*
D03*
X275594Y113348D02*
D03*
X274424Y148058D02*
D03*
X251424Y155058D02*
D03*
X255424Y206698D02*
D03*
X251974Y919058D02*
D03*
X253424Y993458D02*
D03*
X333424Y114058D02*
D03*
X330624Y1037458D02*
D03*
X338424Y1080058D02*
D03*
X362424Y1079058D02*
D03*
X425204Y59058D02*
D03*
X401574Y236228D02*
D03*
X440944D02*
D03*
X401574Y314968D02*
D03*
Y275598D02*
D03*
X440944Y314968D02*
D03*
Y275598D02*
D03*
X401574Y354968D02*
D03*
X440944D02*
D03*
X414524Y919058D02*
D03*
X437824Y919958D02*
D03*
X412424Y1033058D02*
D03*
X443135Y1124830D02*
D03*
X480314Y236228D02*
D03*
Y314968D02*
D03*
Y275598D02*
D03*
Y354968D02*
D03*
X473424Y1033925D02*
D03*
X558624Y147858D02*
D03*
X601924Y152658D02*
D03*
X582424Y204058D02*
D03*
X598424Y305118D02*
D03*
X581774Y324808D02*
D03*
Y285438D02*
D03*
X583424Y1009058D02*
D03*
X637424Y55118D02*
D03*
X636424Y78058D02*
D03*
X649424Y295058D02*
D03*
X646144Y634058D02*
D03*
X648278Y1103000D02*
D03*
X732424Y47058D02*
D03*
X746424Y296058D02*
D03*
X742424Y473038D02*
D03*
X717724Y528458D02*
D03*
X752994Y713628D02*
D03*
X715000Y855000D02*
D03*
X763784Y949418D02*
D03*
X720474Y949058D02*
D03*
X809724Y138188D02*
D03*
Y238188D02*
D03*
Y288188D02*
D03*
Y388188D02*
D03*
Y438188D02*
D03*
Y538188D02*
D03*
Y638188D02*
D03*
Y688188D02*
D03*
Y788188D02*
D03*
X805714Y1021338D02*
D03*
X29554Y188188D02*
D03*
Y88188D02*
D03*
X39499Y31500D02*
D03*
X29554Y488188D02*
D03*
Y338188D02*
D03*
Y738188D02*
D03*
Y588188D02*
D03*
X35748Y906768D02*
D03*
X76384Y104058D02*
D03*
X124014Y269058D02*
D03*
X93424Y830708D02*
D03*
X188424Y99058D02*
D03*
X233424Y174058D02*
D03*
X253424Y246068D02*
D03*
X250224Y337758D02*
D03*
X273424Y1064058D02*
D03*
X275704Y984058D02*
D03*
X232284Y979058D02*
D03*
X337424Y90058D02*
D03*
X353741Y982601D02*
D03*
X432424Y112058D02*
D03*
X408623D02*
D03*
X396812Y985658D02*
D03*
X430000Y988776D02*
D03*
X472424Y88058D02*
D03*
X495796Y87953D02*
D03*
X486424Y978958D02*
D03*
X509000Y1134000D02*
D03*
X486284Y1138492D02*
D03*
X582424Y181058D02*
D03*
X581424Y248058D02*
D03*
X563424Y407058D02*
D03*
X560424Y430058D02*
D03*
X561424Y982058D02*
D03*
X658424Y819058D02*
D03*
X633424Y664048D02*
D03*
X648424Y989048D02*
D03*
X742424Y497058D02*
D03*
X753424Y749058D02*
D03*
X748424Y829058D02*
D03*
X738524Y577558D02*
D03*
X809724Y188188D02*
D03*
Y88188D02*
D03*
Y488188D02*
D03*
Y338188D02*
D03*
Y738188D02*
D03*
Y588188D02*
D03*
X805714Y1056778D02*
D03*
X803424Y989058D02*
D03*
Y909058D02*
D03*
X228424Y124018D02*
D03*
X225424Y229058D02*
D03*
X53424Y849048D02*
D03*
X151574Y1174058D02*
D03*
X367424Y84648D02*
D03*
X450464Y81038D02*
D03*
X530000Y70000D02*
D03*
X368114Y114178D02*
D03*
X548424Y919058D02*
D03*
X530424Y1034058D02*
D03*
X378424D02*
D03*
X530000Y1121000D02*
D03*
X615114Y244568D02*
D03*
X621424Y315058D02*
D03*
X696954Y284088D02*
D03*
X773399Y297208D02*
D03*
X627424Y395058D02*
D03*
X693424Y464058D02*
D03*
Y519058D02*
D03*
X775584Y852368D02*
D03*
X783424Y1079068D02*
D03*
X63424Y504058D02*
D03*
X66924Y269058D02*
D03*
X468504Y112208D02*
D03*
X311024Y984058D02*
D03*
X463704Y978958D02*
D03*
X465757Y1126892D02*
D03*
X457000Y1051000D02*
D03*
X693424Y492718D02*
D03*
X614924Y268858D02*
D03*
X609424Y427058D02*
D03*
X698674Y349378D02*
D03*
X692874Y327408D02*
D03*
X777824Y431858D02*
D03*
X773024Y579458D02*
D03*
X768424Y664058D02*
D03*
X606931Y978431D02*
D03*
D66*
X-373806Y-271744D02*
Y-358330D01*
X-316082D01*
X-287220D02*
Y-300606D01*
X-258358Y-271744D01*
X-229496Y-300606D01*
Y-358330D01*
Y-315037D01*
X-287220D01*
X-200634Y-271744D02*
Y-286175D01*
X-171772Y-315037D01*
X-142910Y-286175D01*
Y-271744D01*
X-171772Y-315037D02*
Y-358330D01*
X-56323Y-271744D02*
X-114047D01*
Y-358330D01*
X-56323D01*
X-114047Y-315037D02*
X-85185D01*
X-27461Y-358330D02*
Y-271744D01*
X15832D01*
X30263Y-286175D01*
Y-315037D01*
X15832Y-329468D01*
X-27461D01*
X1401D02*
X30263Y-358330D01*
X189004D02*
Y-271744D01*
X145711Y-315037D01*
X203435D01*
X318884D02*
X376608D01*
X492056Y-358330D02*
Y-271744D01*
X520918Y-300606D01*
X549780Y-271744D01*
Y-358330D01*
X578642Y-271744D02*
X607504D01*
X593073D01*
Y-358330D01*
X578642D01*
X607504D01*
X650797Y-271744D02*
Y-358330D01*
X694091D01*
X708521Y-343899D01*
Y-286175D01*
X694091Y-271744D01*
X650797D01*
X737384D02*
Y-358330D01*
X795108D01*
X823970D02*
Y-300606D01*
X852832Y-271744D01*
X881694Y-300606D01*
Y-358330D01*
Y-315037D01*
X823970D01*
X910556Y-271744D02*
Y-286175D01*
X939418Y-315037D01*
X968280Y-286175D01*
Y-271744D01*
X939418Y-315037D02*
Y-358330D01*
X1054866Y-271744D02*
X997142D01*
Y-358330D01*
X1054866D01*
X997142Y-315037D02*
X1026004D01*
X1083728Y-358330D02*
Y-271744D01*
X1127022D01*
X1141453Y-286175D01*
Y-315037D01*
X1127022Y-329468D01*
X1083728D01*
X1112591D02*
X1141453Y-358330D01*
X1314625D02*
X1256901D01*
X1314625Y-300606D01*
Y-286175D01*
X1300194Y-271744D01*
X1271332D01*
X1256901Y-286175D01*
%TF.MD5,91c01e9f4bcb3d23553a5b8b41c72f62*%
M02*
