%TF.GenerationSoftware,Altium Limited,Altium Designer,20.1.11 (218)*%
G04 Layer_Color=0*
%FSLAX26Y26*%
%MOIN*%
%TF.SameCoordinates,F1652399-7491-40A6-9504-01A14B245E9D*%
%TF.FilePolarity,Positive*%
%TF.FileFunction,Plated,1,6,PTH,Drill*%
%TF.Part,Single*%
G01*
G75*
%TA.AperFunction,ComponentDrill*%
%ADD134C,0.023622*%
%TA.AperFunction,OtherDrill,Pad Free-2 (708.424mil,164.058mil)*%
%ADD135C,0.085000*%
%TA.AperFunction,OtherDrill,Pad Free-1 (318.424mil,839.058mil)*%
%ADD136C,0.085000*%
%TA.AperFunction,ViaDrill,NotFilled*%
%ADD137C,0.007874*%
D134*
X0Y88190D02*
D03*
Y138190D02*
D03*
Y188190D02*
D03*
Y238190D02*
D03*
Y288190D02*
D03*
Y338190D02*
D03*
Y388190D02*
D03*
Y438190D02*
D03*
Y488190D02*
D03*
Y538190D02*
D03*
Y588190D02*
D03*
Y638190D02*
D03*
Y688190D02*
D03*
Y738190D02*
D03*
Y788190D02*
D03*
X838583Y88190D02*
D03*
Y138190D02*
D03*
Y188190D02*
D03*
Y238190D02*
D03*
Y288190D02*
D03*
Y338190D02*
D03*
Y388190D02*
D03*
Y438190D02*
D03*
Y488190D02*
D03*
Y538190D02*
D03*
Y588190D02*
D03*
Y638190D02*
D03*
Y688190D02*
D03*
Y738190D02*
D03*
Y788190D02*
D03*
D135*
X708424Y164058D02*
D03*
D136*
X318424Y839058D02*
D03*
D137*
X496558Y1033925D02*
D03*
X111000Y188456D02*
D03*
X185034Y629458D02*
D03*
X314124Y525058D02*
D03*
X574358Y597000D02*
D03*
X219424Y277058D02*
D03*
X296352Y466986D02*
D03*
X557642Y747067D02*
D03*
X188424Y685388D02*
D03*
X393704Y1124058D02*
D03*
X524924Y987058D02*
D03*
X233724Y636158D02*
D03*
X274824Y658958D02*
D03*
X105000Y525628D02*
D03*
X98424Y659058D02*
D03*
X590642Y708000D02*
D03*
Y756000D02*
D03*
X534925Y739000D02*
D03*
X165354Y204058D02*
D03*
X328000Y42000D02*
D03*
X311000Y67000D02*
D03*
X212599Y685388D02*
D03*
X312124Y550058D02*
D03*
X326002Y491991D02*
D03*
X547000Y112000D02*
D03*
X601424Y117058D02*
D03*
X619094Y911418D02*
D03*
X585584Y919058D02*
D03*
X399934Y776066D02*
D03*
X745064Y449658D02*
D03*
X743000Y348000D02*
D03*
X688029Y382560D02*
D03*
X718000Y413000D02*
D03*
X90554Y692918D02*
D03*
X124503Y1102979D02*
D03*
X183424Y1094058D02*
D03*
X161414Y1031498D02*
D03*
X207000Y979000D02*
D03*
X495000Y808000D02*
D03*
X541283Y597345D02*
D03*
X504424Y446058D02*
D03*
X541642Y531775D02*
D03*
X350424Y523426D02*
D03*
X486284Y534258D02*
D03*
X355524Y490058D02*
D03*
X154642Y791265D02*
D03*
X619094Y875988D02*
D03*
X489000Y564000D02*
D03*
X527000Y638000D02*
D03*
X477693Y437817D02*
D03*
X390000Y450000D02*
D03*
X409276Y437980D02*
D03*
X405424Y492058D02*
D03*
X610714Y634058D02*
D03*
X573000Y687000D02*
D03*
X707000Y760000D02*
D03*
X582642Y791067D02*
D03*
X658424Y844058D02*
D03*
X667324Y579758D02*
D03*
X691144Y639058D02*
D03*
X183424Y1049068D02*
D03*
X362204Y1124058D02*
D03*
X277124Y434358D02*
D03*
X622724Y477958D02*
D03*
X327000Y742000D02*
D03*
X542030Y655034D02*
D03*
X527564Y575481D02*
D03*
X308324Y629458D02*
D03*
X502000Y860000D02*
D03*
X546035Y895368D02*
D03*
X468580Y865304D02*
D03*
X436000Y894000D02*
D03*
X523424Y849048D02*
D03*
X308674Y656794D02*
D03*
X470584Y919928D02*
D03*
X308000Y704000D02*
D03*
X301000Y728000D02*
D03*
X524000Y550000D02*
D03*
X494174Y919008D02*
D03*
X512000Y735000D02*
D03*
X466000Y553000D02*
D03*
X419140Y531774D02*
D03*
X422424Y509058D02*
D03*
X275594Y407748D02*
D03*
X197724Y491058D02*
D03*
X310924Y592558D02*
D03*
X287216Y691366D02*
D03*
X29554Y138188D02*
D03*
Y238188D02*
D03*
Y288188D02*
D03*
Y388188D02*
D03*
Y438188D02*
D03*
Y538188D02*
D03*
Y638188D02*
D03*
Y688188D02*
D03*
Y788188D02*
D03*
X31134Y871338D02*
D03*
X38000Y1008000D02*
D03*
X114174Y155518D02*
D03*
X112174Y120078D02*
D03*
X86614Y204058D02*
D03*
X112924Y354558D02*
D03*
X93424Y444058D02*
D03*
X90554Y783468D02*
D03*
X117824Y928158D02*
D03*
X117899Y952274D02*
D03*
X93424Y1099058D02*
D03*
X100394Y1174058D02*
D03*
X157484Y155518D02*
D03*
Y120078D02*
D03*
X195264Y204058D02*
D03*
X188424Y279058D02*
D03*
X181424Y355058D02*
D03*
X153424Y354058D02*
D03*
X195000Y522000D02*
D03*
X200714Y881348D02*
D03*
X157508Y930492D02*
D03*
X275594Y113348D02*
D03*
X274424Y148058D02*
D03*
X251424Y155058D02*
D03*
X255424Y206698D02*
D03*
X251974Y919058D02*
D03*
X253424Y993458D02*
D03*
X333424Y114058D02*
D03*
X330624Y1037458D02*
D03*
X338424Y1080058D02*
D03*
X362424Y1079058D02*
D03*
X425204Y59058D02*
D03*
X401574Y236228D02*
D03*
X440944D02*
D03*
X401574Y314968D02*
D03*
Y275598D02*
D03*
X440944Y314968D02*
D03*
Y275598D02*
D03*
X401574Y354968D02*
D03*
X440944D02*
D03*
X414524Y919058D02*
D03*
X437824Y919958D02*
D03*
X412424Y1033058D02*
D03*
X443135Y1124830D02*
D03*
X480314Y236228D02*
D03*
Y314968D02*
D03*
Y275598D02*
D03*
Y354968D02*
D03*
X473424Y1033925D02*
D03*
X558624Y147858D02*
D03*
X601924Y152658D02*
D03*
X582424Y204058D02*
D03*
X598424Y305118D02*
D03*
X581774Y324808D02*
D03*
Y285438D02*
D03*
X583424Y1009058D02*
D03*
X637424Y55118D02*
D03*
X636424Y78058D02*
D03*
X649424Y295058D02*
D03*
X646144Y634058D02*
D03*
X648278Y1103000D02*
D03*
X732424Y47058D02*
D03*
X746424Y296058D02*
D03*
X742424Y473038D02*
D03*
X717724Y528458D02*
D03*
X752994Y713628D02*
D03*
X715000Y855000D02*
D03*
X763784Y949418D02*
D03*
X720474Y949058D02*
D03*
X809724Y138188D02*
D03*
Y238188D02*
D03*
Y288188D02*
D03*
Y388188D02*
D03*
Y438188D02*
D03*
Y538188D02*
D03*
Y638188D02*
D03*
Y688188D02*
D03*
Y788188D02*
D03*
X805714Y1021338D02*
D03*
X29554Y188188D02*
D03*
Y88188D02*
D03*
X39499Y31500D02*
D03*
X29554Y488188D02*
D03*
Y338188D02*
D03*
Y738188D02*
D03*
Y588188D02*
D03*
X35748Y906768D02*
D03*
X76384Y104058D02*
D03*
X124014Y269058D02*
D03*
X93424Y830708D02*
D03*
X188424Y99058D02*
D03*
X233424Y174058D02*
D03*
X253424Y246068D02*
D03*
X250224Y337758D02*
D03*
X273424Y1064058D02*
D03*
X275704Y984058D02*
D03*
X232284Y979058D02*
D03*
X337424Y90058D02*
D03*
X353741Y982601D02*
D03*
X432424Y112058D02*
D03*
X408623D02*
D03*
X396812Y985658D02*
D03*
X430000Y988776D02*
D03*
X472424Y88058D02*
D03*
X495796Y87953D02*
D03*
X486424Y978958D02*
D03*
X509000Y1134000D02*
D03*
X486284Y1138492D02*
D03*
X582424Y181058D02*
D03*
X581424Y248058D02*
D03*
X563424Y407058D02*
D03*
X560424Y430058D02*
D03*
X561424Y982058D02*
D03*
X658424Y819058D02*
D03*
X633424Y664048D02*
D03*
X648424Y989048D02*
D03*
X742424Y497058D02*
D03*
X753424Y749058D02*
D03*
X748424Y829058D02*
D03*
X738524Y577558D02*
D03*
X809724Y188188D02*
D03*
Y88188D02*
D03*
Y488188D02*
D03*
Y338188D02*
D03*
Y738188D02*
D03*
Y588188D02*
D03*
X805714Y1056778D02*
D03*
X803424Y989058D02*
D03*
Y909058D02*
D03*
X228424Y124018D02*
D03*
X225424Y229058D02*
D03*
X53424Y849048D02*
D03*
X151574Y1174058D02*
D03*
X367424Y84648D02*
D03*
X450464Y81038D02*
D03*
X530000Y70000D02*
D03*
X368114Y114178D02*
D03*
X548424Y919058D02*
D03*
X530424Y1034058D02*
D03*
X378424D02*
D03*
X530000Y1121000D02*
D03*
X615114Y244568D02*
D03*
X621424Y315058D02*
D03*
X696954Y284088D02*
D03*
X773399Y297208D02*
D03*
X627424Y395058D02*
D03*
X693424Y464058D02*
D03*
Y519058D02*
D03*
X775584Y852368D02*
D03*
X783424Y1079068D02*
D03*
X63424Y504058D02*
D03*
X66924Y269058D02*
D03*
X468504Y112208D02*
D03*
X311024Y984058D02*
D03*
X463704Y978958D02*
D03*
X465757Y1126892D02*
D03*
X457000Y1051000D02*
D03*
X693424Y492718D02*
D03*
X614924Y268858D02*
D03*
X609424Y427058D02*
D03*
X698674Y349378D02*
D03*
X692874Y327408D02*
D03*
X777824Y431858D02*
D03*
X773024Y579458D02*
D03*
X768424Y664058D02*
D03*
X606931Y978431D02*
D03*
%TF.MD5,00d7e110fb3cc688a0faa1290eb642e9*%
M02*
