%TF.GenerationSoftware,Altium Limited,Altium Designer,20.1.11 (218)*%
G04 Layer_Color=2752767*
%FSLAX26Y26*%
%MOIN*%
%TF.SameCoordinates,F1652399-7491-40A6-9504-01A14B245E9D*%
%TF.FilePolarity,Positive*%
%TF.FileFunction,Drawing*%
%TF.Part,Single*%
G01*
G75*
%TA.AperFunction,NonConductor*%
%ADD61C,0.010000*%
%ADD124C,0.015000*%
%ADD138C,0.003333*%
%ADD139C,0.016000*%
D61*
X2895395Y-1480000D02*
X2928728Y-1463333D01*
X2962061Y-1480000D01*
X2945395Y-1446667D02*
X2962061Y-1480000D01*
X2945395Y-1446667D02*
X2962061Y-1413333D01*
X2928728Y-1430000D02*
X2962061Y-1413333D01*
X2895395D02*
X2928728Y-1430000D01*
X2895395Y-1413333D02*
X2912061Y-1446667D01*
X2895395Y-1480000D02*
X2912061Y-1446667D01*
X2895395Y-1630000D02*
X2962061D01*
Y-1563333D01*
X2895395D02*
X2962061D01*
X2895395Y-1630000D02*
Y-1563333D01*
X2912061Y-1763333D02*
X2928728Y-1780000D01*
X2895395Y-1763333D02*
X2912061D01*
X2895395D02*
X2912061Y-1746667D01*
X2895395Y-1730000D02*
X2912061Y-1746667D01*
X2895395Y-1730000D02*
X2912061D01*
X2928728Y-1713333D01*
X2945395Y-1730000D01*
X2962061D01*
X2945395Y-1746667D02*
X2962061Y-1730000D01*
X2945395Y-1746667D02*
X2962061Y-1763333D01*
X2945395D02*
X2962061D01*
X2928728Y-1780000D02*
X2945395Y-1763333D01*
X2895395Y-1913333D02*
X2912061D01*
X2895395D02*
Y-1880000D01*
X2912061D01*
Y-1863333D01*
X2945395D01*
Y-1880000D02*
Y-1863333D01*
Y-1880000D02*
X2962061D01*
Y-1913333D02*
Y-1880000D01*
X2945395Y-1913333D02*
X2962061D01*
X2945395Y-1930000D02*
Y-1913333D01*
X2912061Y-1930000D02*
X2945395D01*
X2912061D02*
Y-1913333D01*
X2928728Y-2080000D02*
X2962061Y-2013333D01*
X2895395D02*
X2962061D01*
X2895395D02*
X2928728Y-2080000D01*
X8460077Y-1480000D02*
Y-1420019D01*
X8490067D01*
X8500064Y-1430016D01*
Y-1450010D01*
X8490067Y-1460006D01*
X8460077D01*
X8480070D02*
X8500064Y-1480000D01*
X8530054D02*
X8550048D01*
X8560045Y-1470003D01*
Y-1450010D01*
X8550048Y-1440013D01*
X8530054D01*
X8520058Y-1450010D01*
Y-1470003D01*
X8530054Y-1480000D01*
X8580038Y-1440013D02*
Y-1470003D01*
X8590035Y-1480000D01*
X8620025D01*
Y-1440013D01*
X8640019Y-1480000D02*
Y-1440013D01*
X8670009D01*
X8680006Y-1450010D01*
Y-1480000D01*
X8739986Y-1420019D02*
Y-1480000D01*
X8709996D01*
X8699999Y-1470003D01*
Y-1450010D01*
X8709996Y-1440013D01*
X8739986D01*
X8789970Y-1480000D02*
X8769977D01*
X8759980Y-1470003D01*
Y-1450010D01*
X8769977Y-1440013D01*
X8789970D01*
X8799967Y-1450010D01*
Y-1460006D01*
X8759980D01*
X8859948Y-1420019D02*
Y-1480000D01*
X8829957D01*
X8819960Y-1470003D01*
Y-1450010D01*
X8829957Y-1440013D01*
X8859948D01*
X8460077Y-1630000D02*
Y-1570019D01*
X8490067D01*
X8500064Y-1580016D01*
Y-1600010D01*
X8490067Y-1610006D01*
X8460077D01*
X8480070D02*
X8500064Y-1630000D01*
X8530054D02*
X8550048D01*
X8560045Y-1620003D01*
Y-1600010D01*
X8550048Y-1590013D01*
X8530054D01*
X8520058Y-1600010D01*
Y-1620003D01*
X8530054Y-1630000D01*
X8580038Y-1590013D02*
Y-1620003D01*
X8590035Y-1630000D01*
X8620025D01*
Y-1590013D01*
X8640019Y-1630000D02*
Y-1590013D01*
X8670009D01*
X8680006Y-1600010D01*
Y-1630000D01*
X8739986Y-1570019D02*
Y-1630000D01*
X8709996D01*
X8699999Y-1620003D01*
Y-1600010D01*
X8709996Y-1590013D01*
X8739986D01*
X8789970Y-1630000D02*
X8769977D01*
X8759980Y-1620003D01*
Y-1600010D01*
X8769977Y-1590013D01*
X8789970D01*
X8799967Y-1600010D01*
Y-1610006D01*
X8759980D01*
X8859948Y-1570019D02*
Y-1630000D01*
X8829957D01*
X8819960Y-1620003D01*
Y-1600010D01*
X8829957Y-1590013D01*
X8859948D01*
X8460077Y-1780000D02*
Y-1720019D01*
X8490067D01*
X8500064Y-1730016D01*
Y-1750010D01*
X8490067Y-1760006D01*
X8460077D01*
X8480070D02*
X8500064Y-1780000D01*
X8530054D02*
X8550048D01*
X8560045Y-1770003D01*
Y-1750010D01*
X8550048Y-1740013D01*
X8530054D01*
X8520058Y-1750010D01*
Y-1770003D01*
X8530054Y-1780000D01*
X8580038Y-1740013D02*
Y-1770003D01*
X8590035Y-1780000D01*
X8620025D01*
Y-1740013D01*
X8640019Y-1780000D02*
Y-1740013D01*
X8670009D01*
X8680006Y-1750010D01*
Y-1780000D01*
X8739986Y-1720019D02*
Y-1780000D01*
X8709996D01*
X8699999Y-1770003D01*
Y-1750010D01*
X8709996Y-1740013D01*
X8739986D01*
X8789970Y-1780000D02*
X8769977D01*
X8759980Y-1770003D01*
Y-1750010D01*
X8769977Y-1740013D01*
X8789970D01*
X8799967Y-1750010D01*
Y-1760006D01*
X8759980D01*
X8859948Y-1720019D02*
Y-1780000D01*
X8829957D01*
X8819960Y-1770003D01*
Y-1750010D01*
X8829957Y-1740013D01*
X8859948D01*
X8939922Y-1780000D02*
Y-1720019D01*
X8969912D01*
X8979909Y-1730016D01*
Y-1750010D01*
X8969912Y-1760006D01*
X8939922D01*
X8959915D02*
X8979909Y-1780000D01*
X9029893D02*
X9009899D01*
X8999902Y-1770003D01*
Y-1750010D01*
X9009899Y-1740013D01*
X9029893D01*
X9039889Y-1750010D01*
Y-1760006D01*
X8999902D01*
X9099870Y-1740013D02*
X9069880D01*
X9059883Y-1750010D01*
Y-1770003D01*
X9069880Y-1780000D01*
X9099870D01*
X9129860Y-1730016D02*
Y-1740013D01*
X9119863D01*
X9139857D01*
X9129860D01*
Y-1770003D01*
X9139857Y-1780000D01*
X9179844Y-1740013D02*
X9199838D01*
X9209834Y-1750010D01*
Y-1780000D01*
X9179844D01*
X9169847Y-1770003D01*
X9179844Y-1760006D01*
X9209834D01*
X9229828Y-1780000D02*
Y-1740013D01*
X9259818D01*
X9269815Y-1750010D01*
Y-1780000D01*
X9309802Y-1799994D02*
X9319799D01*
X9329796Y-1789997D01*
Y-1740013D01*
X9299805D01*
X9289808Y-1750010D01*
Y-1770003D01*
X9299805Y-1780000D01*
X9329796D01*
X9349789D02*
X9369783D01*
X9359786D01*
Y-1720019D01*
X9349789D01*
X9429763Y-1780000D02*
X9409770D01*
X9399773Y-1770003D01*
Y-1750010D01*
X9409770Y-1740013D01*
X9429763D01*
X9439760Y-1750010D01*
Y-1760006D01*
X9399773D01*
X8460077Y-1930000D02*
Y-1870019D01*
X8490067D01*
X8500064Y-1880016D01*
Y-1900010D01*
X8490067Y-1910006D01*
X8460077D01*
X8480070D02*
X8500064Y-1930000D01*
X8530054D02*
X8550048D01*
X8560045Y-1920003D01*
Y-1900010D01*
X8550048Y-1890013D01*
X8530054D01*
X8520058Y-1900010D01*
Y-1920003D01*
X8530054Y-1930000D01*
X8580038Y-1890013D02*
Y-1920003D01*
X8590035Y-1930000D01*
X8620025D01*
Y-1890013D01*
X8640019Y-1930000D02*
Y-1890013D01*
X8670009D01*
X8680006Y-1900010D01*
Y-1930000D01*
X8739986Y-1870019D02*
Y-1930000D01*
X8709996D01*
X8699999Y-1920003D01*
Y-1900010D01*
X8709996Y-1890013D01*
X8739986D01*
X8789970Y-1930000D02*
X8769977D01*
X8759980Y-1920003D01*
Y-1900010D01*
X8769977Y-1890013D01*
X8789970D01*
X8799967Y-1900010D01*
Y-1910006D01*
X8759980D01*
X8859948Y-1870019D02*
Y-1930000D01*
X8829957D01*
X8819960Y-1920003D01*
Y-1900010D01*
X8829957Y-1890013D01*
X8859948D01*
X8460077Y-2080000D02*
Y-2020019D01*
X8490067D01*
X8500064Y-2030016D01*
Y-2050010D01*
X8490067Y-2060006D01*
X8460077D01*
X8480070D02*
X8500064Y-2080000D01*
X8530054D02*
X8550048D01*
X8560045Y-2070003D01*
Y-2050010D01*
X8550048Y-2040013D01*
X8530054D01*
X8520058Y-2050010D01*
Y-2070003D01*
X8530054Y-2080000D01*
X8580038Y-2040013D02*
Y-2070003D01*
X8590035Y-2080000D01*
X8620025D01*
Y-2040013D01*
X8640019Y-2080000D02*
Y-2040013D01*
X8670009D01*
X8680006Y-2050010D01*
Y-2080000D01*
X8739986Y-2020019D02*
Y-2080000D01*
X8709996D01*
X8699999Y-2070003D01*
Y-2050010D01*
X8709996Y-2040013D01*
X8739986D01*
X8789970Y-2080000D02*
X8769977D01*
X8759980Y-2070003D01*
Y-2050010D01*
X8769977Y-2040013D01*
X8789970D01*
X8799967Y-2050010D01*
Y-2060006D01*
X8759980D01*
X8859948Y-2020019D02*
Y-2080000D01*
X8829957D01*
X8819960Y-2070003D01*
Y-2050010D01*
X8829957Y-2040013D01*
X8859948D01*
X7870228Y-1420019D02*
Y-1460006D01*
X7890222Y-1480000D01*
X7910215Y-1460006D01*
Y-1420019D01*
X7930209Y-1480000D02*
X7950202D01*
X7940206D01*
Y-1440013D01*
X7930209D01*
X7990190D02*
X8010183D01*
X8020180Y-1450010D01*
Y-1480000D01*
X7990190D01*
X7980193Y-1470003D01*
X7990190Y-1460006D01*
X8020180D01*
X7870228Y-1570019D02*
Y-1610006D01*
X7890222Y-1630000D01*
X7910215Y-1610006D01*
Y-1570019D01*
X7930209Y-1630000D02*
X7950202D01*
X7940206D01*
Y-1590013D01*
X7930209D01*
X7990190D02*
X8010183D01*
X8020180Y-1600010D01*
Y-1630000D01*
X7990190D01*
X7980193Y-1620003D01*
X7990190Y-1610006D01*
X8020180D01*
X7870228Y-1780000D02*
Y-1720019D01*
X7900219D01*
X7910215Y-1730016D01*
Y-1750010D01*
X7900219Y-1760006D01*
X7870228D01*
X7940206Y-1740013D02*
X7960199D01*
X7970196Y-1750010D01*
Y-1780000D01*
X7940206D01*
X7930209Y-1770003D01*
X7940206Y-1760006D01*
X7970196D01*
X8030177Y-1720019D02*
Y-1780000D01*
X8000186D01*
X7990190Y-1770003D01*
Y-1750010D01*
X8000186Y-1740013D01*
X8030177D01*
X7870228Y-1930000D02*
Y-1870019D01*
X7900219D01*
X7910215Y-1880016D01*
Y-1900010D01*
X7900219Y-1910006D01*
X7870228D01*
X7940206Y-1890013D02*
X7960199D01*
X7970196Y-1900010D01*
Y-1930000D01*
X7940206D01*
X7930209Y-1920003D01*
X7940206Y-1910006D01*
X7970196D01*
X8030177Y-1870019D02*
Y-1930000D01*
X8000186D01*
X7990190Y-1920003D01*
Y-1900010D01*
X8000186Y-1890013D01*
X8030177D01*
X7870228Y-2080000D02*
Y-2020019D01*
X7900219D01*
X7910215Y-2030016D01*
Y-2050010D01*
X7900219Y-2060006D01*
X7870228D01*
X7940206Y-2040013D02*
X7960199D01*
X7970196Y-2050010D01*
Y-2080000D01*
X7940206D01*
X7930209Y-2070003D01*
X7940206Y-2060006D01*
X7970196D01*
X8030177Y-2020019D02*
Y-2080000D01*
X8000186D01*
X7990190Y-2070003D01*
Y-2050010D01*
X8000186Y-2040013D01*
X8030177D01*
X6370678Y-1420019D02*
X6410665D01*
X6390671D01*
Y-1480000D01*
X6440655D02*
X6460649D01*
X6470645Y-1470003D01*
Y-1450010D01*
X6460649Y-1440013D01*
X6440655D01*
X6430658Y-1450010D01*
Y-1470003D01*
X6440655Y-1480000D01*
X6490639Y-1499994D02*
Y-1440013D01*
X6520629D01*
X6530626Y-1450010D01*
Y-1470003D01*
X6520629Y-1480000D01*
X6490639D01*
X6610600Y-1420019D02*
Y-1480000D01*
X6650587D01*
X6680578Y-1440013D02*
X6700571D01*
X6710568Y-1450010D01*
Y-1480000D01*
X6680578D01*
X6670581Y-1470003D01*
X6680578Y-1460006D01*
X6710568D01*
X6730561Y-1440013D02*
Y-1470003D01*
X6740558Y-1480000D01*
X6770548D01*
Y-1489997D01*
X6760552Y-1499994D01*
X6750555D01*
X6770548Y-1480000D02*
Y-1440013D01*
X6820532Y-1480000D02*
X6800539D01*
X6790542Y-1470003D01*
Y-1450010D01*
X6800539Y-1440013D01*
X6820532D01*
X6830529Y-1450010D01*
Y-1460006D01*
X6790542D01*
X6850523Y-1440013D02*
Y-1480000D01*
Y-1460006D01*
X6860519Y-1450010D01*
X6870516Y-1440013D01*
X6880513D01*
X6970484Y-1450010D02*
X7010471D01*
X7090445Y-1420019D02*
Y-1480000D01*
X7120435D01*
X7130432Y-1470003D01*
Y-1460006D01*
X7120435Y-1450010D01*
X7090445D01*
X7120435D01*
X7130432Y-1440013D01*
Y-1430016D01*
X7120435Y-1420019D01*
X7090445D01*
X7160422Y-1480000D02*
X7180416D01*
X7190413Y-1470003D01*
Y-1450010D01*
X7180416Y-1440013D01*
X7160422D01*
X7150426Y-1450010D01*
Y-1470003D01*
X7160422Y-1480000D01*
X7220403Y-1430016D02*
Y-1440013D01*
X7210406D01*
X7230400D01*
X7220403D01*
Y-1470003D01*
X7230400Y-1480000D01*
X7270387Y-1430016D02*
Y-1440013D01*
X7260390D01*
X7280383D01*
X7270387D01*
Y-1470003D01*
X7280383Y-1480000D01*
X7320371D02*
X7340364D01*
X7350361Y-1470003D01*
Y-1450010D01*
X7340364Y-1440013D01*
X7320371D01*
X7310374Y-1450010D01*
Y-1470003D01*
X7320371Y-1480000D01*
X7370354D02*
Y-1440013D01*
X7380351D01*
X7390348Y-1450010D01*
Y-1480000D01*
Y-1450010D01*
X7400345Y-1440013D01*
X7410342Y-1450010D01*
Y-1480000D01*
X7490316Y-1420019D02*
Y-1480000D01*
X7530303D01*
X7560293Y-1440013D02*
X7580287D01*
X7590283Y-1450010D01*
Y-1480000D01*
X7560293D01*
X7550296Y-1470003D01*
X7560293Y-1460006D01*
X7590283D01*
X7610277Y-1440013D02*
Y-1470003D01*
X7620274Y-1480000D01*
X7650264D01*
Y-1489997D01*
X7640267Y-1499994D01*
X7630270D01*
X7650264Y-1480000D02*
Y-1440013D01*
X7700248Y-1480000D02*
X7680254D01*
X7670257Y-1470003D01*
Y-1450010D01*
X7680254Y-1440013D01*
X7700248D01*
X7710244Y-1450010D01*
Y-1460006D01*
X7670257D01*
X7730238Y-1440013D02*
Y-1480000D01*
Y-1460006D01*
X7740235Y-1450010D01*
X7750231Y-1440013D01*
X7760228D01*
X6370678Y-1570019D02*
X6410665D01*
X6390671D01*
Y-1630000D01*
X6440655D02*
X6460649D01*
X6470645Y-1620003D01*
Y-1600010D01*
X6460649Y-1590013D01*
X6440655D01*
X6430658Y-1600010D01*
Y-1620003D01*
X6440655Y-1630000D01*
X6490639Y-1649994D02*
Y-1590013D01*
X6520629D01*
X6530626Y-1600010D01*
Y-1620003D01*
X6520629Y-1630000D01*
X6490639D01*
X6610600Y-1570019D02*
Y-1630000D01*
X6650587D01*
X6680578Y-1590013D02*
X6700571D01*
X6710568Y-1600010D01*
Y-1630000D01*
X6680578D01*
X6670581Y-1620003D01*
X6680578Y-1610006D01*
X6710568D01*
X6730561Y-1590013D02*
Y-1620003D01*
X6740558Y-1630000D01*
X6770548D01*
Y-1639997D01*
X6760552Y-1649994D01*
X6750555D01*
X6770548Y-1630000D02*
Y-1590013D01*
X6820532Y-1630000D02*
X6800539D01*
X6790542Y-1620003D01*
Y-1600010D01*
X6800539Y-1590013D01*
X6820532D01*
X6830529Y-1600010D01*
Y-1610006D01*
X6790542D01*
X6850523Y-1590013D02*
Y-1630000D01*
Y-1610006D01*
X6860519Y-1600010D01*
X6870516Y-1590013D01*
X6880513D01*
X6970484Y-1600010D02*
X7010471D01*
X7090445Y-1570019D02*
Y-1630000D01*
X7120435D01*
X7130432Y-1620003D01*
Y-1610006D01*
X7120435Y-1600010D01*
X7090445D01*
X7120435D01*
X7130432Y-1590013D01*
Y-1580016D01*
X7120435Y-1570019D01*
X7090445D01*
X7160422Y-1630000D02*
X7180416D01*
X7190413Y-1620003D01*
Y-1600010D01*
X7180416Y-1590013D01*
X7160422D01*
X7150426Y-1600010D01*
Y-1620003D01*
X7160422Y-1630000D01*
X7220403Y-1580016D02*
Y-1590013D01*
X7210406D01*
X7230400D01*
X7220403D01*
Y-1620003D01*
X7230400Y-1630000D01*
X7270387Y-1580016D02*
Y-1590013D01*
X7260390D01*
X7280383D01*
X7270387D01*
Y-1620003D01*
X7280383Y-1630000D01*
X7320371D02*
X7340364D01*
X7350361Y-1620003D01*
Y-1600010D01*
X7340364Y-1590013D01*
X7320371D01*
X7310374Y-1600010D01*
Y-1620003D01*
X7320371Y-1630000D01*
X7370354D02*
Y-1590013D01*
X7380351D01*
X7390348Y-1600010D01*
Y-1630000D01*
Y-1600010D01*
X7400345Y-1590013D01*
X7410342Y-1600010D01*
Y-1630000D01*
X7490316Y-1570019D02*
Y-1630000D01*
X7530303D01*
X7560293Y-1590013D02*
X7580287D01*
X7590283Y-1600010D01*
Y-1630000D01*
X7560293D01*
X7550296Y-1620003D01*
X7560293Y-1610006D01*
X7590283D01*
X7610277Y-1590013D02*
Y-1620003D01*
X7620274Y-1630000D01*
X7650264D01*
Y-1639997D01*
X7640267Y-1649994D01*
X7630270D01*
X7650264Y-1630000D02*
Y-1590013D01*
X7700248Y-1630000D02*
X7680254D01*
X7670257Y-1620003D01*
Y-1600010D01*
X7680254Y-1590013D01*
X7700248D01*
X7710244Y-1600010D01*
Y-1610006D01*
X7670257D01*
X7730238Y-1590013D02*
Y-1630000D01*
Y-1610006D01*
X7740235Y-1600010D01*
X7750231Y-1590013D01*
X7760228D01*
X6370678Y-1720019D02*
X6410665D01*
X6390671D01*
Y-1780000D01*
X6440655D02*
X6460649D01*
X6470645Y-1770003D01*
Y-1750010D01*
X6460649Y-1740013D01*
X6440655D01*
X6430658Y-1750010D01*
Y-1770003D01*
X6440655Y-1780000D01*
X6490639Y-1799994D02*
Y-1740013D01*
X6520629D01*
X6530626Y-1750010D01*
Y-1770003D01*
X6520629Y-1780000D01*
X6490639D01*
X6610600Y-1720019D02*
Y-1780000D01*
X6650587D01*
X6680578Y-1740013D02*
X6700571D01*
X6710568Y-1750010D01*
Y-1780000D01*
X6680578D01*
X6670581Y-1770003D01*
X6680578Y-1760006D01*
X6710568D01*
X6730561Y-1740013D02*
Y-1770003D01*
X6740558Y-1780000D01*
X6770548D01*
Y-1789997D01*
X6760552Y-1799994D01*
X6750555D01*
X6770548Y-1780000D02*
Y-1740013D01*
X6820532Y-1780000D02*
X6800539D01*
X6790542Y-1770003D01*
Y-1750010D01*
X6800539Y-1740013D01*
X6820532D01*
X6830529Y-1750010D01*
Y-1760006D01*
X6790542D01*
X6850523Y-1740013D02*
Y-1780000D01*
Y-1760006D01*
X6860519Y-1750010D01*
X6870516Y-1740013D01*
X6880513D01*
X6970484Y-1750010D02*
X7010471D01*
X7090445Y-1720019D02*
Y-1780000D01*
X7120435D01*
X7130432Y-1770003D01*
Y-1760006D01*
X7120435Y-1750010D01*
X7090445D01*
X7120435D01*
X7130432Y-1740013D01*
Y-1730016D01*
X7120435Y-1720019D01*
X7090445D01*
X7160422Y-1780000D02*
X7180416D01*
X7190413Y-1770003D01*
Y-1750010D01*
X7180416Y-1740013D01*
X7160422D01*
X7150426Y-1750010D01*
Y-1770003D01*
X7160422Y-1780000D01*
X7220403Y-1730016D02*
Y-1740013D01*
X7210406D01*
X7230400D01*
X7220403D01*
Y-1770003D01*
X7230400Y-1780000D01*
X7270387Y-1730016D02*
Y-1740013D01*
X7260390D01*
X7280383D01*
X7270387D01*
Y-1770003D01*
X7280383Y-1780000D01*
X7320371D02*
X7340364D01*
X7350361Y-1770003D01*
Y-1750010D01*
X7340364Y-1740013D01*
X7320371D01*
X7310374Y-1750010D01*
Y-1770003D01*
X7320371Y-1780000D01*
X7370354D02*
Y-1740013D01*
X7380351D01*
X7390348Y-1750010D01*
Y-1780000D01*
Y-1750010D01*
X7400345Y-1740013D01*
X7410342Y-1750010D01*
Y-1780000D01*
X7490316Y-1720019D02*
Y-1780000D01*
X7530303D01*
X7560293Y-1740013D02*
X7580287D01*
X7590283Y-1750010D01*
Y-1780000D01*
X7560293D01*
X7550296Y-1770003D01*
X7560293Y-1760006D01*
X7590283D01*
X7610277Y-1740013D02*
Y-1770003D01*
X7620274Y-1780000D01*
X7650264D01*
Y-1789997D01*
X7640267Y-1799994D01*
X7630270D01*
X7650264Y-1780000D02*
Y-1740013D01*
X7700248Y-1780000D02*
X7680254D01*
X7670257Y-1770003D01*
Y-1750010D01*
X7680254Y-1740013D01*
X7700248D01*
X7710244Y-1750010D01*
Y-1760006D01*
X7670257D01*
X7730238Y-1740013D02*
Y-1780000D01*
Y-1760006D01*
X7740235Y-1750010D01*
X7750231Y-1740013D01*
X7760228D01*
X6370678Y-1870019D02*
X6410665D01*
X6390671D01*
Y-1930000D01*
X6440655D02*
X6460649D01*
X6470645Y-1920003D01*
Y-1900010D01*
X6460649Y-1890013D01*
X6440655D01*
X6430658Y-1900010D01*
Y-1920003D01*
X6440655Y-1930000D01*
X6490639Y-1949994D02*
Y-1890013D01*
X6520629D01*
X6530626Y-1900010D01*
Y-1920003D01*
X6520629Y-1930000D01*
X6490639D01*
X6610600Y-1870019D02*
Y-1930000D01*
X6650587D01*
X6680578Y-1890013D02*
X6700571D01*
X6710568Y-1900010D01*
Y-1930000D01*
X6680578D01*
X6670581Y-1920003D01*
X6680578Y-1910006D01*
X6710568D01*
X6730561Y-1890013D02*
Y-1920003D01*
X6740558Y-1930000D01*
X6770548D01*
Y-1939997D01*
X6760552Y-1949994D01*
X6750555D01*
X6770548Y-1930000D02*
Y-1890013D01*
X6820532Y-1930000D02*
X6800539D01*
X6790542Y-1920003D01*
Y-1900010D01*
X6800539Y-1890013D01*
X6820532D01*
X6830529Y-1900010D01*
Y-1910006D01*
X6790542D01*
X6850523Y-1890013D02*
Y-1930000D01*
Y-1910006D01*
X6860519Y-1900010D01*
X6870516Y-1890013D01*
X6880513D01*
X6970484Y-1900010D02*
X7010471D01*
X7090445Y-1870019D02*
Y-1930000D01*
X7120435D01*
X7130432Y-1920003D01*
Y-1910006D01*
X7120435Y-1900010D01*
X7090445D01*
X7120435D01*
X7130432Y-1890013D01*
Y-1880016D01*
X7120435Y-1870019D01*
X7090445D01*
X7160422Y-1930000D02*
X7180416D01*
X7190413Y-1920003D01*
Y-1900010D01*
X7180416Y-1890013D01*
X7160422D01*
X7150426Y-1900010D01*
Y-1920003D01*
X7160422Y-1930000D01*
X7220403Y-1880016D02*
Y-1890013D01*
X7210406D01*
X7230400D01*
X7220403D01*
Y-1920003D01*
X7230400Y-1930000D01*
X7270387Y-1880016D02*
Y-1890013D01*
X7260390D01*
X7280383D01*
X7270387D01*
Y-1920003D01*
X7280383Y-1930000D01*
X7320371D02*
X7340364D01*
X7350361Y-1920003D01*
Y-1900010D01*
X7340364Y-1890013D01*
X7320371D01*
X7310374Y-1900010D01*
Y-1920003D01*
X7320371Y-1930000D01*
X7370354D02*
Y-1890013D01*
X7380351D01*
X7390348Y-1900010D01*
Y-1930000D01*
Y-1900010D01*
X7400345Y-1890013D01*
X7410342Y-1900010D01*
Y-1930000D01*
X7490316Y-1870019D02*
Y-1930000D01*
X7530303D01*
X7560293Y-1890013D02*
X7580287D01*
X7590283Y-1900010D01*
Y-1930000D01*
X7560293D01*
X7550296Y-1920003D01*
X7560293Y-1910006D01*
X7590283D01*
X7610277Y-1890013D02*
Y-1920003D01*
X7620274Y-1930000D01*
X7650264D01*
Y-1939997D01*
X7640267Y-1949994D01*
X7630270D01*
X7650264Y-1930000D02*
Y-1890013D01*
X7700248Y-1930000D02*
X7680254D01*
X7670257Y-1920003D01*
Y-1900010D01*
X7680254Y-1890013D01*
X7700248D01*
X7710244Y-1900010D01*
Y-1910006D01*
X7670257D01*
X7730238Y-1890013D02*
Y-1930000D01*
Y-1910006D01*
X7740235Y-1900010D01*
X7750231Y-1890013D01*
X7760228D01*
X6370678Y-2020019D02*
X6410665D01*
X6390671D01*
Y-2080000D01*
X6440655D02*
X6460649D01*
X6470645Y-2070003D01*
Y-2050010D01*
X6460649Y-2040013D01*
X6440655D01*
X6430658Y-2050010D01*
Y-2070003D01*
X6440655Y-2080000D01*
X6490639Y-2099994D02*
Y-2040013D01*
X6520629D01*
X6530626Y-2050010D01*
Y-2070003D01*
X6520629Y-2080000D01*
X6490639D01*
X6610600Y-2020019D02*
Y-2080000D01*
X6650587D01*
X6680578Y-2040013D02*
X6700571D01*
X6710568Y-2050010D01*
Y-2080000D01*
X6680578D01*
X6670581Y-2070003D01*
X6680578Y-2060006D01*
X6710568D01*
X6730561Y-2040013D02*
Y-2070003D01*
X6740558Y-2080000D01*
X6770548D01*
Y-2089997D01*
X6760552Y-2099994D01*
X6750555D01*
X6770548Y-2080000D02*
Y-2040013D01*
X6820532Y-2080000D02*
X6800539D01*
X6790542Y-2070003D01*
Y-2050010D01*
X6800539Y-2040013D01*
X6820532D01*
X6830529Y-2050010D01*
Y-2060006D01*
X6790542D01*
X6850523Y-2040013D02*
Y-2080000D01*
Y-2060006D01*
X6860519Y-2050010D01*
X6870516Y-2040013D01*
X6880513D01*
X6970484Y-2050010D02*
X7010471D01*
X7090445Y-2020019D02*
Y-2080000D01*
X7120435D01*
X7130432Y-2070003D01*
Y-2060006D01*
X7120435Y-2050010D01*
X7090445D01*
X7120435D01*
X7130432Y-2040013D01*
Y-2030016D01*
X7120435Y-2020019D01*
X7090445D01*
X7160422Y-2080000D02*
X7180416D01*
X7190413Y-2070003D01*
Y-2050010D01*
X7180416Y-2040013D01*
X7160422D01*
X7150426Y-2050010D01*
Y-2070003D01*
X7160422Y-2080000D01*
X7220403Y-2030016D02*
Y-2040013D01*
X7210406D01*
X7230400D01*
X7220403D01*
Y-2070003D01*
X7230400Y-2080000D01*
X7270387Y-2030016D02*
Y-2040013D01*
X7260390D01*
X7280383D01*
X7270387D01*
Y-2070003D01*
X7280383Y-2080000D01*
X7320371D02*
X7340364D01*
X7350361Y-2070003D01*
Y-2050010D01*
X7340364Y-2040013D01*
X7320371D01*
X7310374Y-2050010D01*
Y-2070003D01*
X7320371Y-2080000D01*
X7370354D02*
Y-2040013D01*
X7380351D01*
X7390348Y-2050010D01*
Y-2080000D01*
Y-2050010D01*
X7400345Y-2040013D01*
X7410342Y-2050010D01*
Y-2080000D01*
X7490316Y-2020019D02*
Y-2080000D01*
X7530303D01*
X7560293Y-2040013D02*
X7580287D01*
X7590283Y-2050010D01*
Y-2080000D01*
X7560293D01*
X7550296Y-2070003D01*
X7560293Y-2060006D01*
X7590283D01*
X7610277Y-2040013D02*
Y-2070003D01*
X7620274Y-2080000D01*
X7650264D01*
Y-2089997D01*
X7640267Y-2099994D01*
X7630270D01*
X7650264Y-2080000D02*
Y-2040013D01*
X7700248Y-2080000D02*
X7680254D01*
X7670257Y-2070003D01*
Y-2050010D01*
X7680254Y-2040013D01*
X7700248D01*
X7710244Y-2050010D01*
Y-2060006D01*
X7670257D01*
X7730238Y-2040013D02*
Y-2080000D01*
Y-2060006D01*
X7740235Y-2050010D01*
X7750231Y-2040013D01*
X7760228D01*
X5636876Y-1480000D02*
Y-1420019D01*
X5666866D01*
X5676863Y-1430016D01*
Y-1450010D01*
X5666866Y-1460006D01*
X5636876D01*
X5656869D02*
X5676863Y-1480000D01*
X5706853D02*
X5726847D01*
X5736843Y-1470003D01*
Y-1450010D01*
X5726847Y-1440013D01*
X5706853D01*
X5696856Y-1450010D01*
Y-1470003D01*
X5706853Y-1480000D01*
X5756837Y-1440013D02*
Y-1470003D01*
X5766834Y-1480000D01*
X5796824D01*
Y-1440013D01*
X5816818Y-1480000D02*
Y-1440013D01*
X5846808D01*
X5856805Y-1450010D01*
Y-1480000D01*
X5916785Y-1420019D02*
Y-1480000D01*
X5886795D01*
X5876798Y-1470003D01*
Y-1450010D01*
X5886795Y-1440013D01*
X5916785D01*
X5636876Y-1630000D02*
Y-1570019D01*
X5666866D01*
X5676863Y-1580016D01*
Y-1600010D01*
X5666866Y-1610006D01*
X5636876D01*
X5656869D02*
X5676863Y-1630000D01*
X5706853D02*
X5726847D01*
X5736843Y-1620003D01*
Y-1600010D01*
X5726847Y-1590013D01*
X5706853D01*
X5696856Y-1600010D01*
Y-1620003D01*
X5706853Y-1630000D01*
X5756837Y-1590013D02*
Y-1620003D01*
X5766834Y-1630000D01*
X5796824D01*
Y-1590013D01*
X5816818Y-1630000D02*
Y-1590013D01*
X5846808D01*
X5856805Y-1600010D01*
Y-1630000D01*
X5916785Y-1570019D02*
Y-1630000D01*
X5886795D01*
X5876798Y-1620003D01*
Y-1600010D01*
X5886795Y-1590013D01*
X5916785D01*
X5636876Y-1780000D02*
Y-1720019D01*
X5666866D01*
X5676863Y-1730016D01*
Y-1750010D01*
X5666866Y-1760006D01*
X5636876D01*
X5656869D02*
X5676863Y-1780000D01*
X5706853D02*
X5726847D01*
X5736843Y-1770003D01*
Y-1750010D01*
X5726847Y-1740013D01*
X5706853D01*
X5696856Y-1750010D01*
Y-1770003D01*
X5706853Y-1780000D01*
X5756837Y-1740013D02*
Y-1770003D01*
X5766834Y-1780000D01*
X5796824D01*
Y-1740013D01*
X5816818Y-1780000D02*
Y-1740013D01*
X5846808D01*
X5856805Y-1750010D01*
Y-1780000D01*
X5916785Y-1720019D02*
Y-1780000D01*
X5886795D01*
X5876798Y-1770003D01*
Y-1750010D01*
X5886795Y-1740013D01*
X5916785D01*
X5636876Y-1930000D02*
Y-1870019D01*
X5666866D01*
X5676863Y-1880016D01*
Y-1900010D01*
X5666866Y-1910006D01*
X5636876D01*
X5656869D02*
X5676863Y-1930000D01*
X5706853D02*
X5726847D01*
X5736843Y-1920003D01*
Y-1900010D01*
X5726847Y-1890013D01*
X5706853D01*
X5696856Y-1900010D01*
Y-1920003D01*
X5706853Y-1930000D01*
X5756837Y-1890013D02*
Y-1920003D01*
X5766834Y-1930000D01*
X5796824D01*
Y-1890013D01*
X5816818Y-1930000D02*
Y-1890013D01*
X5846808D01*
X5856805Y-1900010D01*
Y-1930000D01*
X5916785Y-1870019D02*
Y-1930000D01*
X5886795D01*
X5876798Y-1920003D01*
Y-1900010D01*
X5886795Y-1890013D01*
X5916785D01*
X5636876Y-2080000D02*
Y-2020019D01*
X5666866D01*
X5676863Y-2030016D01*
Y-2050010D01*
X5666866Y-2060006D01*
X5636876D01*
X5656869D02*
X5676863Y-2080000D01*
X5706853D02*
X5726847D01*
X5736843Y-2070003D01*
Y-2050010D01*
X5726847Y-2040013D01*
X5706853D01*
X5696856Y-2050010D01*
Y-2070003D01*
X5706853Y-2080000D01*
X5756837Y-2040013D02*
Y-2070003D01*
X5766834Y-2080000D01*
X5796824D01*
Y-2040013D01*
X5816818Y-2080000D02*
Y-2040013D01*
X5846808D01*
X5856805Y-2050010D01*
Y-2080000D01*
X5916785Y-2020019D02*
Y-2080000D01*
X5886795D01*
X5876798Y-2070003D01*
Y-2050010D01*
X5886795Y-2040013D01*
X5916785D01*
X5131000Y-1480000D02*
Y-1420019D01*
X5160990D01*
X5170987Y-1430016D01*
Y-1450010D01*
X5160990Y-1460006D01*
X5131000D01*
X5190981Y-1420019D02*
X5230968D01*
X5210974D01*
Y-1480000D01*
X5250961Y-1420019D02*
Y-1480000D01*
Y-1450010D01*
X5290948D01*
Y-1420019D01*
Y-1480000D01*
X5131000Y-1630000D02*
Y-1570019D01*
X5160990D01*
X5170987Y-1580016D01*
Y-1600010D01*
X5160990Y-1610006D01*
X5131000D01*
X5190981Y-1570019D02*
X5230968D01*
X5210974D01*
Y-1630000D01*
X5250961Y-1570019D02*
Y-1630000D01*
Y-1600010D01*
X5290948D01*
Y-1570019D01*
Y-1630000D01*
X5131000Y-1780000D02*
Y-1720019D01*
X5160990D01*
X5170987Y-1730016D01*
Y-1750010D01*
X5160990Y-1760006D01*
X5131000D01*
X5190981Y-1720019D02*
X5230968D01*
X5210974D01*
Y-1780000D01*
X5250961Y-1720019D02*
Y-1780000D01*
Y-1750010D01*
X5290948D01*
Y-1720019D01*
Y-1780000D01*
X5131000Y-1930000D02*
Y-1870019D01*
X5170987Y-1930000D01*
Y-1870019D01*
X5190981Y-1930000D02*
Y-1870019D01*
X5220971D01*
X5230968Y-1880016D01*
Y-1900010D01*
X5220971Y-1910006D01*
X5190981D01*
X5250961Y-1870019D02*
X5290948D01*
X5270955D01*
Y-1930000D01*
X5310942Y-1870019D02*
Y-1930000D01*
Y-1900010D01*
X5350929D01*
Y-1870019D01*
Y-1930000D01*
X5131000Y-2080000D02*
Y-2020019D01*
X5160990D01*
X5170987Y-2030016D01*
Y-2050010D01*
X5160990Y-2060006D01*
X5131000D01*
X5190981Y-2020019D02*
X5230968D01*
X5210974D01*
Y-2080000D01*
X5250961Y-2020019D02*
Y-2080000D01*
Y-2050010D01*
X5290948D01*
Y-2020019D01*
Y-2080000D01*
X4031320Y-1420019D02*
X4071307D01*
Y-1430016D01*
X4031320Y-1470003D01*
Y-1480000D01*
X4091301D02*
Y-1470003D01*
X4101298D01*
Y-1480000D01*
X4091301D01*
X4141285Y-1430016D02*
X4151282Y-1420019D01*
X4171275D01*
X4181272Y-1430016D01*
Y-1440013D01*
X4171275Y-1450010D01*
X4181272Y-1460006D01*
Y-1470003D01*
X4171275Y-1480000D01*
X4151282D01*
X4141285Y-1470003D01*
Y-1460006D01*
X4151282Y-1450010D01*
X4141285Y-1440013D01*
Y-1430016D01*
X4151282Y-1450010D02*
X4171275D01*
X4201265Y-1420019D02*
X4241252D01*
Y-1430016D01*
X4201265Y-1470003D01*
Y-1480000D01*
X4261246D02*
Y-1440013D01*
X4271243D01*
X4281239Y-1450010D01*
Y-1480000D01*
Y-1450010D01*
X4291236Y-1440013D01*
X4301233Y-1450010D01*
Y-1480000D01*
X4321226D02*
X4341220D01*
X4331223D01*
Y-1440013D01*
X4321226D01*
X4371210Y-1480000D02*
X4391204D01*
X4381207D01*
Y-1420019D01*
X4371210D01*
X4501168Y-1480000D02*
X4481175Y-1460006D01*
Y-1440013D01*
X4501168Y-1420019D01*
X4531158Y-1430016D02*
X4541155Y-1420019D01*
X4561149D01*
X4571146Y-1430016D01*
Y-1470003D01*
X4561149Y-1480000D01*
X4541155D01*
X4531158Y-1470003D01*
Y-1430016D01*
X4591139Y-1480000D02*
Y-1470003D01*
X4601136D01*
Y-1480000D01*
X4591139D01*
X4681110D02*
X4641123D01*
X4681110Y-1440013D01*
Y-1430016D01*
X4671113Y-1420019D01*
X4651120D01*
X4641123Y-1430016D01*
X4701104D02*
X4711100Y-1420019D01*
X4731094D01*
X4741091Y-1430016D01*
Y-1470003D01*
X4731094Y-1480000D01*
X4711100D01*
X4701104Y-1470003D01*
Y-1430016D01*
X4761084D02*
X4771081Y-1420019D01*
X4791074D01*
X4801071Y-1430016D01*
Y-1470003D01*
X4791074Y-1480000D01*
X4771081D01*
X4761084Y-1470003D01*
Y-1430016D01*
X4821065Y-1480000D02*
Y-1440013D01*
X4831061D01*
X4841058Y-1450010D01*
Y-1480000D01*
Y-1450010D01*
X4851055Y-1440013D01*
X4861052Y-1450010D01*
Y-1480000D01*
X4881045D02*
Y-1440013D01*
X4891042D01*
X4901039Y-1450010D01*
Y-1480000D01*
Y-1450010D01*
X4911036Y-1440013D01*
X4921032Y-1450010D01*
Y-1480000D01*
X4941026D02*
X4961019Y-1460006D01*
Y-1440013D01*
X4941026Y-1420019D01*
X4031320Y-1570019D02*
X4071307D01*
Y-1580016D01*
X4031320Y-1620003D01*
Y-1630000D01*
X4091301D02*
Y-1620003D01*
X4101298D01*
Y-1630000D01*
X4091301D01*
X4141285Y-1580016D02*
X4151282Y-1570019D01*
X4171275D01*
X4181272Y-1580016D01*
Y-1590013D01*
X4171275Y-1600010D01*
X4181272Y-1610006D01*
Y-1620003D01*
X4171275Y-1630000D01*
X4151282D01*
X4141285Y-1620003D01*
Y-1610006D01*
X4151282Y-1600010D01*
X4141285Y-1590013D01*
Y-1580016D01*
X4151282Y-1600010D02*
X4171275D01*
X4201265Y-1570019D02*
X4241252D01*
Y-1580016D01*
X4201265Y-1620003D01*
Y-1630000D01*
X4261246D02*
Y-1590013D01*
X4271243D01*
X4281239Y-1600010D01*
Y-1630000D01*
Y-1600010D01*
X4291236Y-1590013D01*
X4301233Y-1600010D01*
Y-1630000D01*
X4321226D02*
X4341220D01*
X4331223D01*
Y-1590013D01*
X4321226D01*
X4371210Y-1630000D02*
X4391204D01*
X4381207D01*
Y-1570019D01*
X4371210D01*
X4501168Y-1630000D02*
X4481175Y-1610006D01*
Y-1590013D01*
X4501168Y-1570019D01*
X4531158Y-1580016D02*
X4541155Y-1570019D01*
X4561149D01*
X4571146Y-1580016D01*
Y-1620003D01*
X4561149Y-1630000D01*
X4541155D01*
X4531158Y-1620003D01*
Y-1580016D01*
X4591139Y-1630000D02*
Y-1620003D01*
X4601136D01*
Y-1630000D01*
X4591139D01*
X4681110D02*
X4641123D01*
X4681110Y-1590013D01*
Y-1580016D01*
X4671113Y-1570019D01*
X4651120D01*
X4641123Y-1580016D01*
X4701104D02*
X4711100Y-1570019D01*
X4731094D01*
X4741091Y-1580016D01*
Y-1620003D01*
X4731094Y-1630000D01*
X4711100D01*
X4701104Y-1620003D01*
Y-1580016D01*
X4761084D02*
X4771081Y-1570019D01*
X4791074D01*
X4801071Y-1580016D01*
Y-1620003D01*
X4791074Y-1630000D01*
X4771081D01*
X4761084Y-1620003D01*
Y-1580016D01*
X4821065Y-1630000D02*
Y-1590013D01*
X4831061D01*
X4841058Y-1600010D01*
Y-1630000D01*
Y-1600010D01*
X4851055Y-1590013D01*
X4861052Y-1600010D01*
Y-1630000D01*
X4881045D02*
Y-1590013D01*
X4891042D01*
X4901039Y-1600010D01*
Y-1630000D01*
Y-1600010D01*
X4911036Y-1590013D01*
X4921032Y-1600010D01*
Y-1630000D01*
X4941026D02*
X4961019Y-1610006D01*
Y-1590013D01*
X4941026Y-1570019D01*
X4071307Y-1780000D02*
X4031320D01*
X4071307Y-1740013D01*
Y-1730016D01*
X4061311Y-1720019D01*
X4041317D01*
X4031320Y-1730016D01*
X4091301D02*
X4101298Y-1720019D01*
X4121291D01*
X4131288Y-1730016D01*
Y-1740013D01*
X4121291Y-1750010D01*
X4111294D01*
X4121291D01*
X4131288Y-1760006D01*
Y-1770003D01*
X4121291Y-1780000D01*
X4101298D01*
X4091301Y-1770003D01*
X4151282Y-1780000D02*
Y-1770003D01*
X4161278D01*
Y-1780000D01*
X4151282D01*
X4241252Y-1720019D02*
X4221259Y-1730016D01*
X4201265Y-1750010D01*
Y-1770003D01*
X4211262Y-1780000D01*
X4231256D01*
X4241252Y-1770003D01*
Y-1760006D01*
X4231256Y-1750010D01*
X4201265D01*
X4301233Y-1780000D02*
X4261246D01*
X4301233Y-1740013D01*
Y-1730016D01*
X4291236Y-1720019D01*
X4271243D01*
X4261246Y-1730016D01*
X4321226Y-1780000D02*
Y-1740013D01*
X4331223D01*
X4341220Y-1750010D01*
Y-1780000D01*
Y-1750010D01*
X4351217Y-1740013D01*
X4361214Y-1750010D01*
Y-1780000D01*
X4381207D02*
X4401201D01*
X4391204D01*
Y-1740013D01*
X4381207D01*
X4431191Y-1780000D02*
X4451184D01*
X4441188D01*
Y-1720019D01*
X4431191D01*
X4561149Y-1780000D02*
X4541155Y-1760006D01*
Y-1740013D01*
X4561149Y-1720019D01*
X4591139Y-1730016D02*
X4601136Y-1720019D01*
X4621129D01*
X4631126Y-1730016D01*
Y-1770003D01*
X4621129Y-1780000D01*
X4601136D01*
X4591139Y-1770003D01*
Y-1730016D01*
X4651120Y-1780000D02*
Y-1770003D01*
X4661117D01*
Y-1780000D01*
X4651120D01*
X4741091Y-1720019D02*
X4721097Y-1730016D01*
X4701104Y-1750010D01*
Y-1770003D01*
X4711100Y-1780000D01*
X4731094D01*
X4741091Y-1770003D01*
Y-1760006D01*
X4731094Y-1750010D01*
X4701104D01*
X4761084Y-1730016D02*
X4771081Y-1720019D01*
X4791074D01*
X4801071Y-1730016D01*
Y-1770003D01*
X4791074Y-1780000D01*
X4771081D01*
X4761084Y-1770003D01*
Y-1730016D01*
X4821065D02*
X4831061Y-1720019D01*
X4851055D01*
X4861052Y-1730016D01*
Y-1770003D01*
X4851055Y-1780000D01*
X4831061D01*
X4821065Y-1770003D01*
Y-1730016D01*
X4881045Y-1780000D02*
Y-1740013D01*
X4891042D01*
X4901039Y-1750010D01*
Y-1780000D01*
Y-1750010D01*
X4911036Y-1740013D01*
X4921032Y-1750010D01*
Y-1780000D01*
X4941026D02*
Y-1740013D01*
X4951023D01*
X4961019Y-1750010D01*
Y-1780000D01*
Y-1750010D01*
X4971016Y-1740013D01*
X4981013Y-1750010D01*
Y-1780000D01*
X5001007D02*
X5021000Y-1760006D01*
Y-1740013D01*
X5001007Y-1720019D01*
X4061311Y-1930000D02*
Y-1870019D01*
X4031320Y-1900010D01*
X4071307D01*
X4091301Y-1880016D02*
X4101298Y-1870019D01*
X4121291D01*
X4131288Y-1880016D01*
Y-1920003D01*
X4121291Y-1930000D01*
X4101298D01*
X4091301Y-1920003D01*
Y-1880016D01*
X4151282Y-1930000D02*
Y-1920003D01*
X4161278D01*
Y-1930000D01*
X4151282D01*
X4201265Y-1880016D02*
X4211262Y-1870019D01*
X4231256D01*
X4241252Y-1880016D01*
Y-1920003D01*
X4231256Y-1930000D01*
X4211262D01*
X4201265Y-1920003D01*
Y-1880016D01*
X4261246D02*
X4271243Y-1870019D01*
X4291236D01*
X4301233Y-1880016D01*
Y-1920003D01*
X4291236Y-1930000D01*
X4271243D01*
X4261246Y-1920003D01*
Y-1880016D01*
X4321226Y-1930000D02*
Y-1890013D01*
X4331223D01*
X4341220Y-1900010D01*
Y-1930000D01*
Y-1900010D01*
X4351217Y-1890013D01*
X4361214Y-1900010D01*
Y-1930000D01*
X4381207D02*
X4401201D01*
X4391204D01*
Y-1890013D01*
X4381207D01*
X4431191Y-1930000D02*
X4451184D01*
X4441188D01*
Y-1870019D01*
X4431191D01*
X4561149Y-1930000D02*
X4541155Y-1910006D01*
Y-1890013D01*
X4561149Y-1870019D01*
X4591139Y-1930000D02*
X4611133D01*
X4601136D01*
Y-1870019D01*
X4591139Y-1880016D01*
X4641123Y-1930000D02*
Y-1920003D01*
X4651120D01*
Y-1930000D01*
X4641123D01*
X4691107Y-1880016D02*
X4701104Y-1870019D01*
X4721097D01*
X4731094Y-1880016D01*
Y-1920003D01*
X4721097Y-1930000D01*
X4701104D01*
X4691107Y-1920003D01*
Y-1880016D01*
X4751087Y-1930000D02*
X4771081D01*
X4761084D01*
Y-1870019D01*
X4751087Y-1880016D01*
X4841058Y-1870019D02*
X4821065Y-1880016D01*
X4801071Y-1900010D01*
Y-1920003D01*
X4811068Y-1930000D01*
X4831061D01*
X4841058Y-1920003D01*
Y-1910006D01*
X4831061Y-1900010D01*
X4801071D01*
X4861052Y-1930000D02*
Y-1890013D01*
X4871048D01*
X4881045Y-1900010D01*
Y-1930000D01*
Y-1900010D01*
X4891042Y-1890013D01*
X4901039Y-1900010D01*
Y-1930000D01*
X4921032D02*
Y-1890013D01*
X4931029D01*
X4941026Y-1900010D01*
Y-1930000D01*
Y-1900010D01*
X4951023Y-1890013D01*
X4961019Y-1900010D01*
Y-1930000D01*
X4981013D02*
X5001006Y-1910006D01*
Y-1890013D01*
X4981013Y-1870019D01*
X4031320Y-2030016D02*
X4041317Y-2020019D01*
X4061311D01*
X4071307Y-2030016D01*
Y-2040013D01*
X4061311Y-2050010D01*
X4071307Y-2060006D01*
Y-2070003D01*
X4061311Y-2080000D01*
X4041317D01*
X4031320Y-2070003D01*
Y-2060006D01*
X4041317Y-2050010D01*
X4031320Y-2040013D01*
Y-2030016D01*
X4041317Y-2050010D02*
X4061311D01*
X4131288Y-2020019D02*
X4091301D01*
Y-2050010D01*
X4111294Y-2040013D01*
X4121291D01*
X4131288Y-2050010D01*
Y-2070003D01*
X4121291Y-2080000D01*
X4101298D01*
X4091301Y-2070003D01*
X4151282Y-2080000D02*
Y-2070003D01*
X4161278D01*
Y-2080000D01*
X4151282D01*
X4201265Y-2030016D02*
X4211262Y-2020019D01*
X4231256D01*
X4241252Y-2030016D01*
Y-2070003D01*
X4231256Y-2080000D01*
X4211262D01*
X4201265Y-2070003D01*
Y-2030016D01*
X4261246D02*
X4271243Y-2020019D01*
X4291236D01*
X4301233Y-2030016D01*
Y-2070003D01*
X4291236Y-2080000D01*
X4271243D01*
X4261246Y-2070003D01*
Y-2030016D01*
X4321226Y-2080000D02*
Y-2040013D01*
X4331223D01*
X4341220Y-2050010D01*
Y-2080000D01*
Y-2050010D01*
X4351217Y-2040013D01*
X4361214Y-2050010D01*
Y-2080000D01*
X4381207D02*
X4401201D01*
X4391204D01*
Y-2040013D01*
X4381207D01*
X4431191Y-2080000D02*
X4451184D01*
X4441188D01*
Y-2020019D01*
X4431191D01*
X4561149Y-2080000D02*
X4541155Y-2060006D01*
Y-2040013D01*
X4561149Y-2020019D01*
X4631126Y-2080000D02*
X4591139D01*
X4631126Y-2040013D01*
Y-2030016D01*
X4621129Y-2020019D01*
X4601136D01*
X4591139Y-2030016D01*
X4651120Y-2080000D02*
Y-2070003D01*
X4661117D01*
Y-2080000D01*
X4651120D01*
X4701104D02*
X4721097D01*
X4711100D01*
Y-2020019D01*
X4701104Y-2030016D01*
X4791074Y-2020019D02*
X4751087D01*
Y-2050010D01*
X4771081Y-2040013D01*
X4781078D01*
X4791074Y-2050010D01*
Y-2070003D01*
X4781078Y-2080000D01*
X4761084D01*
X4751087Y-2070003D01*
X4811068D02*
X4821065Y-2080000D01*
X4841058D01*
X4851055Y-2070003D01*
Y-2030016D01*
X4841058Y-2020019D01*
X4821065D01*
X4811068Y-2030016D01*
Y-2040013D01*
X4821065Y-2050010D01*
X4851055D01*
X4871048Y-2080000D02*
Y-2040013D01*
X4881045D01*
X4891042Y-2050010D01*
Y-2080000D01*
Y-2050010D01*
X4901039Y-2040013D01*
X4911036Y-2050010D01*
Y-2080000D01*
X4931029D02*
Y-2040013D01*
X4941026D01*
X4951023Y-2050010D01*
Y-2080000D01*
Y-2050010D01*
X4961019Y-2040013D01*
X4971016Y-2050010D01*
Y-2080000D01*
X4991010D02*
X5011003Y-2060006D01*
Y-2040013D01*
X4991010Y-2020019D01*
X3471466Y-2230000D02*
X3431479D01*
X3471466Y-2190013D01*
Y-2180016D01*
X3461469Y-2170019D01*
X3441476D01*
X3431479Y-2180016D01*
X3491459Y-2220003D02*
X3501456Y-2230000D01*
X3521450D01*
X3531447Y-2220003D01*
Y-2180016D01*
X3521450Y-2170019D01*
X3501456D01*
X3491459Y-2180016D01*
Y-2190013D01*
X3501456Y-2200010D01*
X3531447D01*
X3591427Y-2170019D02*
X3551440D01*
Y-2200010D01*
X3571434Y-2190013D01*
X3581430D01*
X3591427Y-2200010D01*
Y-2220003D01*
X3581430Y-2230000D01*
X3561437D01*
X3551440Y-2220003D01*
X3671401Y-2170019D02*
X3711388D01*
X3691395D01*
Y-2230000D01*
X3741379D02*
X3761372D01*
X3771369Y-2220003D01*
Y-2200010D01*
X3761372Y-2190013D01*
X3741379D01*
X3731382Y-2200010D01*
Y-2220003D01*
X3741379Y-2230000D01*
X3801359Y-2180016D02*
Y-2190013D01*
X3791362D01*
X3811356D01*
X3801359D01*
Y-2220003D01*
X3811356Y-2230000D01*
X3851343Y-2190013D02*
X3871336D01*
X3881333Y-2200010D01*
Y-2230000D01*
X3851343D01*
X3841346Y-2220003D01*
X3851343Y-2210006D01*
X3881333D01*
X3901327Y-2230000D02*
X3921320D01*
X3911324D01*
Y-2170019D01*
X3901327D01*
X3431479Y-1430016D02*
X3441476Y-1420019D01*
X3461469D01*
X3471466Y-1430016D01*
Y-1440013D01*
X3461469Y-1450010D01*
X3451472D01*
X3461469D01*
X3471466Y-1460006D01*
Y-1470003D01*
X3461469Y-1480000D01*
X3441476D01*
X3431479Y-1470003D01*
X3491459Y-1430016D02*
X3501456Y-1420019D01*
X3521450D01*
X3531447Y-1430016D01*
Y-1470003D01*
X3521450Y-1480000D01*
X3501456D01*
X3491459Y-1470003D01*
Y-1430016D01*
X3471466Y-1630000D02*
X3431479D01*
X3471466Y-1590013D01*
Y-1580016D01*
X3461469Y-1570019D01*
X3441476D01*
X3431479Y-1580016D01*
X3491459D02*
X3501456Y-1570019D01*
X3521450D01*
X3531447Y-1580016D01*
Y-1590013D01*
X3521450Y-1600010D01*
X3511453D01*
X3521450D01*
X3531447Y-1610006D01*
Y-1620003D01*
X3521450Y-1630000D01*
X3501456D01*
X3491459Y-1620003D01*
X3591427Y-1630000D02*
X3551440D01*
X3591427Y-1590013D01*
Y-1580016D01*
X3581430Y-1570019D01*
X3561437D01*
X3551440Y-1580016D01*
X3431479Y-1730016D02*
X3441476Y-1720019D01*
X3461469D01*
X3471466Y-1730016D01*
Y-1740013D01*
X3461469Y-1750010D01*
X3451472D01*
X3461469D01*
X3471466Y-1760006D01*
Y-1770003D01*
X3461469Y-1780000D01*
X3441476D01*
X3431479Y-1770003D01*
X3491459Y-1730016D02*
X3501456Y-1720019D01*
X3521450D01*
X3531447Y-1730016D01*
Y-1770003D01*
X3521450Y-1780000D01*
X3501456D01*
X3491459Y-1770003D01*
Y-1730016D01*
X3431479Y-1930000D02*
X3451472D01*
X3441476D01*
Y-1870019D01*
X3431479Y-1880016D01*
X3471466Y-2080000D02*
X3431479D01*
X3471466Y-2040013D01*
Y-2030016D01*
X3461469Y-2020019D01*
X3441476D01*
X3431479Y-2030016D01*
D124*
X2835603Y-1375000D02*
X9549760D01*
X2835603Y-2125000D02*
X9549760D01*
X2835603Y-2275000D02*
X9549760D01*
Y-1225000D01*
X2835603D02*
X9549760D01*
X2835603Y-2275000D02*
Y-1225000D01*
X8415077Y-2275000D02*
Y-1225000D01*
X7825228Y-2275000D02*
Y-1225000D01*
X6325678Y-2275000D02*
Y-1225000D01*
X5591876Y-2275000D02*
Y-1225000D01*
X5086000Y-2275000D02*
Y-1225000D01*
X3986320Y-2275000D02*
Y-1225000D01*
X3386479Y-2275000D02*
Y-1225000D01*
D138*
X590265Y961764D02*
X623598D01*
Y995097D01*
X590265D02*
X623598D01*
X590265Y961764D02*
Y995097D01*
X751758Y647391D02*
X785091D01*
Y680725D01*
X751758D02*
X785091D01*
X751758Y647391D02*
Y680725D01*
X756358Y562791D02*
X789691D01*
Y596125D01*
X756358D02*
X789691D01*
X756358Y562791D02*
Y596125D01*
X761158Y415191D02*
X794491D01*
Y448525D01*
X761158D02*
X794491D01*
X761158Y415191D02*
Y448525D01*
X676208Y310741D02*
X709541D01*
Y344075D01*
X676208D02*
X709541D01*
X676208Y310741D02*
Y344075D01*
X682008Y332711D02*
X715341D01*
Y366045D01*
X682008D02*
X715341D01*
X682008Y332711D02*
Y366045D01*
X592758Y410391D02*
X626091D01*
Y443725D01*
X592758D02*
X626091D01*
X592758Y410391D02*
Y443725D01*
X598258Y252191D02*
X631591D01*
Y285525D01*
X598258D02*
X631591D01*
X598258Y252191D02*
Y285525D01*
X676758Y476051D02*
X710091D01*
Y509385D01*
X676758D02*
X710091D01*
X676758Y476051D02*
Y509385D01*
X440333Y1034333D02*
X473667D01*
Y1067667D01*
X440333D02*
X473667D01*
X440333Y1034333D02*
Y1067667D01*
X449091Y1110225D02*
X465757Y1118558D01*
X482424Y1110225D01*
X474091Y1126892D02*
X482424Y1110225D01*
X474091Y1126892D02*
X482424Y1143558D01*
X465757Y1135225D02*
X482424Y1143558D01*
X449091D02*
X465757Y1135225D01*
X449091Y1143558D02*
X457424Y1126892D01*
X449091Y1110225D02*
X457424Y1126892D01*
X447038Y962291D02*
X480371D01*
Y995625D01*
X447038D02*
X480371D01*
X447038Y962291D02*
Y995625D01*
X294358Y967391D02*
X327691D01*
Y1000725D01*
X294358D02*
X327691D01*
X294358Y967391D02*
Y1000725D01*
X451838Y95541D02*
X485171D01*
Y128875D01*
X451838D02*
X485171D01*
X451838Y95541D02*
Y128875D01*
X50258Y252391D02*
X83591D01*
Y285725D01*
X50258D02*
X83591D01*
X50258Y252391D02*
Y285725D01*
X46758Y487391D02*
X80091D01*
Y520725D01*
X46758D02*
X80091D01*
X46758Y487391D02*
Y520725D01*
X766758Y1062401D02*
X800091D01*
Y1095735D01*
X766758D02*
X800091D01*
X766758Y1062401D02*
Y1095735D01*
X758918Y835701D02*
X792251D01*
Y869035D01*
X758918D02*
X792251D01*
X758918Y835701D02*
Y869035D01*
X676758Y502391D02*
X710091D01*
Y535725D01*
X676758D02*
X710091D01*
X676758Y502391D02*
Y535725D01*
Y447391D02*
X710091D01*
Y480725D01*
X676758D02*
X710091D01*
X676758Y447391D02*
Y480725D01*
X610758Y378391D02*
X644091D01*
Y411725D01*
X610758D02*
X644091D01*
X610758Y378391D02*
Y411725D01*
X756732Y280541D02*
X790066D01*
Y313875D01*
X756732D02*
X790066D01*
X756732Y280541D02*
Y313875D01*
X680288Y267421D02*
X713621D01*
Y300755D01*
X680288D02*
X713621D01*
X680288Y267421D02*
Y300755D01*
X604758Y298391D02*
X638091D01*
Y331725D01*
X604758D02*
X638091D01*
X604758Y298391D02*
Y331725D01*
X598448Y227901D02*
X631781D01*
Y261235D01*
X598448D02*
X631781D01*
X598448Y227901D02*
Y261235D01*
X513333Y1104333D02*
X530000Y1112667D01*
X546667Y1104333D01*
X538333Y1121000D02*
X546667Y1104333D01*
X538333Y1121000D02*
X546667Y1137667D01*
X530000Y1129333D02*
X546667Y1137667D01*
X513333D02*
X530000Y1129333D01*
X513333Y1137667D02*
X521667Y1121000D01*
X513333Y1104333D02*
X521667Y1121000D01*
X361758Y1017391D02*
X395091D01*
Y1050725D01*
X361758D02*
X395091D01*
X361758Y1017391D02*
Y1050725D01*
X513758Y1017391D02*
X547091D01*
Y1050725D01*
X513758D02*
X547091D01*
X513758Y1017391D02*
Y1050725D01*
X531758Y902391D02*
X565091D01*
Y935725D01*
X531758D02*
X565091D01*
X531758Y902391D02*
Y935725D01*
X351448Y97511D02*
X384781D01*
Y130845D01*
X351448D02*
X384781D01*
X351448Y97511D02*
Y130845D01*
X513333Y53333D02*
X546667D01*
Y86667D01*
X513333D02*
X546667D01*
X513333Y53333D02*
Y86667D01*
X433798Y64371D02*
X467131D01*
Y97705D01*
X433798D02*
X467131D01*
X433798Y64371D02*
Y97705D01*
X350758Y67981D02*
X384091D01*
Y101315D01*
X350758D02*
X384091D01*
X350758Y67981D02*
Y101315D01*
X134908Y1157391D02*
X168241D01*
Y1190725D01*
X134908D02*
X168241D01*
X134908Y1157391D02*
Y1190725D01*
X36758Y832381D02*
X70091D01*
Y865715D01*
X36758D02*
X70091D01*
X36758Y832381D02*
Y865715D01*
X208758Y212391D02*
X242091D01*
Y245725D01*
X208758D02*
X242091D01*
X208758Y212391D02*
Y245725D01*
X211758Y107351D02*
X245091D01*
Y140685D01*
X211758D02*
X245091D01*
X211758Y107351D02*
Y140685D01*
X786758Y892391D02*
X820091D01*
Y925725D01*
X786758D02*
X820091D01*
X786758Y892391D02*
Y925725D01*
Y972391D02*
X820091D01*
Y1005725D01*
X786758D02*
X820091D01*
X786758Y972391D02*
Y1005725D01*
X789048Y1040111D02*
X822381D01*
Y1073445D01*
X789048D02*
X822381D01*
X789048Y1040111D02*
Y1073445D01*
X793058Y571521D02*
X826391D01*
Y604855D01*
X793058D02*
X826391D01*
X793058Y571521D02*
Y604855D01*
Y721521D02*
X826391D01*
Y754855D01*
X793058D02*
X826391D01*
X793058Y721521D02*
Y754855D01*
Y321521D02*
X826391D01*
Y354855D01*
X793058D02*
X826391D01*
X793058Y321521D02*
Y354855D01*
Y471521D02*
X826391D01*
Y504855D01*
X793058D02*
X826391D01*
X793058Y471521D02*
Y504855D01*
Y71521D02*
X826391D01*
Y104855D01*
X793058D02*
X826391D01*
X793058Y71521D02*
Y104855D01*
Y171521D02*
X826391D01*
Y204855D01*
X793058D02*
X826391D01*
X793058Y171521D02*
Y204855D01*
X721858Y560891D02*
X755191D01*
Y594225D01*
X721858D02*
X755191D01*
X721858Y560891D02*
Y594225D01*
X731758Y812391D02*
X765091D01*
Y845725D01*
X731758D02*
X765091D01*
X731758Y812391D02*
Y845725D01*
X736758Y732391D02*
X770091D01*
Y765725D01*
X736758D02*
X770091D01*
X736758Y732391D02*
Y765725D01*
X725758Y480391D02*
X759091D01*
Y513725D01*
X725758D02*
X759091D01*
X725758Y480391D02*
Y513725D01*
X631758Y972381D02*
X665091D01*
Y1005715D01*
X631758D02*
X665091D01*
X631758Y972381D02*
Y1005715D01*
X616758Y647381D02*
X650091D01*
Y680715D01*
X616758D02*
X650091D01*
X616758Y647381D02*
Y680715D01*
X641758Y802391D02*
X675091D01*
Y835725D01*
X641758D02*
X675091D01*
X641758Y802391D02*
Y835725D01*
X544758Y965391D02*
X578091D01*
Y998725D01*
X544758D02*
X578091D01*
X544758Y965391D02*
Y998725D01*
X543758Y413391D02*
X577091D01*
Y446725D01*
X543758D02*
X577091D01*
X543758Y413391D02*
Y446725D01*
X546758Y390391D02*
X580091D01*
Y423725D01*
X546758D02*
X580091D01*
X546758Y390391D02*
Y423725D01*
X564758Y231391D02*
X598091D01*
Y264725D01*
X564758D02*
X598091D01*
X564758Y231391D02*
Y264725D01*
X565758Y164391D02*
X599091D01*
Y197725D01*
X565758D02*
X599091D01*
X565758Y164391D02*
Y197725D01*
X469617Y1121825D02*
X486284Y1130158D01*
X502950Y1121825D01*
X494617Y1138492D02*
X502950Y1121825D01*
X494617Y1138492D02*
X502950Y1155158D01*
X486284Y1146825D02*
X502950Y1155158D01*
X469617D02*
X486284Y1146825D01*
X469617Y1155158D02*
X477950Y1138492D01*
X469617Y1121825D02*
X477950Y1138492D01*
X492333Y1117333D02*
X509000Y1125667D01*
X525667Y1117333D01*
X517333Y1134000D02*
X525667Y1117333D01*
X517333Y1134000D02*
X525667Y1150667D01*
X509000Y1142333D02*
X525667Y1150667D01*
X492333D02*
X509000Y1142333D01*
X492333Y1150667D02*
X500667Y1134000D01*
X492333Y1117333D02*
X500667Y1134000D01*
X469758Y962291D02*
X503091D01*
Y995625D01*
X469758D02*
X503091D01*
X469758Y962291D02*
Y995625D01*
X479129Y71286D02*
X512462D01*
Y104619D01*
X479129D02*
X512462D01*
X479129Y71286D02*
Y104619D01*
X455758Y71391D02*
X489091D01*
Y104725D01*
X455758D02*
X489091D01*
X455758Y71391D02*
Y104725D01*
X413333Y972109D02*
X446667D01*
Y1005442D01*
X413333D02*
X446667D01*
X413333Y972109D02*
Y1005442D01*
X380145Y968991D02*
X413478D01*
Y1002325D01*
X380145D02*
X413478D01*
X380145Y968991D02*
Y1002325D01*
X391956Y95391D02*
X425289D01*
Y128725D01*
X391956D02*
X425289D01*
X391956Y95391D02*
Y128725D01*
X415758Y95391D02*
X449091D01*
Y128725D01*
X415758D02*
X449091D01*
X415758Y95391D02*
Y128725D01*
X337074Y965935D02*
X370408D01*
Y999268D01*
X337074D02*
X370408D01*
X337074Y965935D02*
Y999268D01*
X320758Y73391D02*
X354091D01*
Y106725D01*
X320758D02*
X354091D01*
X320758Y73391D02*
Y106725D01*
X215618Y962391D02*
X248951D01*
Y995725D01*
X215618D02*
X248951D01*
X215618Y962391D02*
Y995725D01*
X259038Y967391D02*
X292371D01*
Y1000725D01*
X259038D02*
X292371D01*
X259038Y967391D02*
Y1000725D01*
X256758Y1047391D02*
X290091D01*
Y1080725D01*
X256758D02*
X290091D01*
X256758Y1047391D02*
Y1080725D01*
X233558Y321091D02*
X266891D01*
Y354425D01*
X233558D02*
X266891D01*
X233558Y321091D02*
Y354425D01*
X236758Y229401D02*
X270091D01*
Y262735D01*
X236758D02*
X270091D01*
X236758Y229401D02*
Y262735D01*
X216758Y157391D02*
X250091D01*
Y190725D01*
X216758D02*
X250091D01*
X216758Y157391D02*
Y190725D01*
X171758Y82391D02*
X205091D01*
Y115725D01*
X171758D02*
X205091D01*
X171758Y82391D02*
Y115725D01*
X76758Y814041D02*
X110091D01*
Y847375D01*
X76758D02*
X110091D01*
X76758Y814041D02*
Y847375D01*
X107348Y252391D02*
X140681D01*
Y285725D01*
X107348D02*
X140681D01*
X107348Y252391D02*
Y285725D01*
X59718Y87391D02*
X93051D01*
Y120725D01*
X59718D02*
X93051D01*
X59718Y87391D02*
Y120725D01*
X19081Y890101D02*
X52414D01*
Y923435D01*
X19081D02*
X52414D01*
X19081Y890101D02*
Y923435D01*
X12888Y571521D02*
X46221D01*
Y604855D01*
X12888D02*
X46221D01*
X12888Y571521D02*
Y604855D01*
Y721521D02*
X46221D01*
Y754855D01*
X12888D02*
X46221D01*
X12888Y721521D02*
Y754855D01*
Y321521D02*
X46221D01*
Y354855D01*
X12888D02*
X46221D01*
X12888Y321521D02*
Y354855D01*
Y471521D02*
X46221D01*
Y504855D01*
X12888D02*
X46221D01*
X12888Y471521D02*
Y504855D01*
X22833Y14833D02*
X39499Y23166D01*
X56166Y14833D01*
X47833Y31500D02*
X56166Y14833D01*
X47833Y31500D02*
X56166Y48166D01*
X39499Y39833D02*
X56166Y48166D01*
X22833D02*
X39499Y39833D01*
X22833Y48166D02*
X31166Y31500D01*
X22833Y14833D02*
X31166Y31500D01*
X12888Y71521D02*
X46221D01*
Y104855D01*
X12888D02*
X46221D01*
X12888Y71521D02*
Y104855D01*
Y171521D02*
X46221D01*
Y204855D01*
X12888D02*
X46221D01*
X12888Y171521D02*
Y204855D01*
X789048Y1004671D02*
X822381D01*
Y1038005D01*
X789048D02*
X822381D01*
X789048Y1004671D02*
Y1038005D01*
X793058Y771521D02*
X826391D01*
Y804855D01*
X793058D02*
X826391D01*
X793058Y771521D02*
Y804855D01*
Y671521D02*
X826391D01*
Y704855D01*
X793058D02*
X826391D01*
X793058Y671521D02*
Y704855D01*
Y621521D02*
X826391D01*
Y654855D01*
X793058D02*
X826391D01*
X793058Y621521D02*
Y654855D01*
Y521521D02*
X826391D01*
Y554855D01*
X793058D02*
X826391D01*
X793058Y521521D02*
Y554855D01*
Y421521D02*
X826391D01*
Y454855D01*
X793058D02*
X826391D01*
X793058Y421521D02*
Y454855D01*
Y371521D02*
X826391D01*
Y404855D01*
X793058D02*
X826391D01*
X793058Y371521D02*
Y404855D01*
Y271521D02*
X826391D01*
Y304855D01*
X793058D02*
X826391D01*
X793058Y271521D02*
Y304855D01*
Y221521D02*
X826391D01*
Y254855D01*
X793058D02*
X826391D01*
X793058Y221521D02*
Y254855D01*
Y121521D02*
X826391D01*
Y154855D01*
X793058D02*
X826391D01*
X793058Y121521D02*
Y154855D01*
X703808Y932391D02*
X737141D01*
Y965725D01*
X703808D02*
X737141D01*
X703808Y932391D02*
Y965725D01*
X747118Y932751D02*
X780451D01*
Y966085D01*
X747118D02*
X780451D01*
X747118Y932751D02*
Y966085D01*
X698333Y838333D02*
X731667D01*
Y871667D01*
X698333D02*
X731667D01*
X698333Y838333D02*
Y871667D01*
X736328Y696961D02*
X769661D01*
Y730295D01*
X736328D02*
X769661D01*
X736328Y696961D02*
Y730295D01*
X701058Y511791D02*
X734391D01*
Y545125D01*
X701058D02*
X734391D01*
X701058Y511791D02*
Y545125D01*
X725758Y456371D02*
X759091D01*
Y489705D01*
X725758D02*
X759091D01*
X725758Y456371D02*
Y489705D01*
X729758Y279391D02*
X763091D01*
Y312725D01*
X729758D02*
X763091D01*
X729758Y279391D02*
Y312725D01*
X715758Y30391D02*
X749091D01*
Y63725D01*
X715758D02*
X749091D01*
X715758Y30391D02*
Y63725D01*
X631612Y1086333D02*
X648278Y1094667D01*
X664945Y1086333D01*
X656612Y1103000D02*
X664945Y1086333D01*
X656612Y1103000D02*
X664945Y1119667D01*
X648278Y1111333D02*
X664945Y1119667D01*
X631612D02*
X648278Y1111333D01*
X631612Y1119667D02*
X639945Y1103000D01*
X631612Y1086333D02*
X639945Y1103000D01*
X629478Y617391D02*
X662811D01*
Y650725D01*
X629478D02*
X662811D01*
X629478Y617391D02*
Y650725D01*
X632758Y278391D02*
X666091D01*
Y311725D01*
X632758D02*
X666091D01*
X632758Y278391D02*
Y311725D01*
X619758Y61391D02*
X653091D01*
Y94725D01*
X619758D02*
X653091D01*
X619758Y61391D02*
Y94725D01*
X620758Y38451D02*
X654091D01*
Y71785D01*
X620758D02*
X654091D01*
X620758Y38451D02*
Y71785D01*
X566758Y992391D02*
X600091D01*
Y1025725D01*
X566758D02*
X600091D01*
X566758Y992391D02*
Y1025725D01*
X565108Y268771D02*
X598441D01*
Y302105D01*
X565108D02*
X598441D01*
X565108Y268771D02*
Y302105D01*
Y308141D02*
X598441D01*
Y341475D01*
X565108D02*
X598441D01*
X565108Y308141D02*
Y341475D01*
X581758Y288451D02*
X615091D01*
Y321785D01*
X581758D02*
X615091D01*
X581758Y288451D02*
Y321785D01*
X565758Y187391D02*
X599091D01*
Y220725D01*
X565758D02*
X599091D01*
X565758Y187391D02*
Y220725D01*
X585258Y135991D02*
X618591D01*
Y169325D01*
X585258D02*
X618591D01*
X585258Y135991D02*
Y169325D01*
X541958Y131191D02*
X575291D01*
Y164525D01*
X541958D02*
X575291D01*
X541958Y131191D02*
Y164525D01*
X456758Y1017259D02*
X490091D01*
Y1050592D01*
X456758D02*
X490091D01*
X456758Y1017259D02*
Y1050592D01*
X463648Y338301D02*
X496981D01*
Y371635D01*
X463648D02*
X496981D01*
X463648Y338301D02*
Y371635D01*
Y258931D02*
X496981D01*
Y292265D01*
X463648D02*
X496981D01*
X463648Y258931D02*
Y292265D01*
Y298301D02*
X496981D01*
Y331635D01*
X463648D02*
X496981D01*
X463648Y298301D02*
Y331635D01*
Y219561D02*
X496981D01*
Y252895D01*
X463648D02*
X496981D01*
X463648Y219561D02*
Y252895D01*
X426468Y1108163D02*
X443135Y1116497D01*
X459801Y1108163D01*
X451468Y1124830D02*
X459801Y1108163D01*
X451468Y1124830D02*
X459801Y1141497D01*
X443135Y1133163D02*
X459801Y1141497D01*
X426468D02*
X443135Y1133163D01*
X426468Y1141497D02*
X434801Y1124830D01*
X426468Y1108163D02*
X434801Y1124830D01*
X395758Y1016391D02*
X429091D01*
Y1049725D01*
X395758D02*
X429091D01*
X395758Y1016391D02*
Y1049725D01*
X421158Y903291D02*
X454491D01*
Y936625D01*
X421158D02*
X454491D01*
X421158Y903291D02*
Y936625D01*
X397858Y902391D02*
X431191D01*
Y935725D01*
X397858D02*
X431191D01*
X397858Y902391D02*
Y935725D01*
X424278Y338301D02*
X457611D01*
Y371635D01*
X424278D02*
X457611D01*
X424278Y338301D02*
Y371635D01*
X384908Y338301D02*
X418241D01*
Y371635D01*
X384908D02*
X418241D01*
X384908Y338301D02*
Y371635D01*
X424278Y258931D02*
X457611D01*
Y292265D01*
X424278D02*
X457611D01*
X424278Y258931D02*
Y292265D01*
Y298301D02*
X457611D01*
Y331635D01*
X424278D02*
X457611D01*
X424278Y298301D02*
Y331635D01*
X384908Y258931D02*
X418241D01*
Y292265D01*
X384908D02*
X418241D01*
X384908Y258931D02*
Y292265D01*
Y298301D02*
X418241D01*
Y331635D01*
X384908D02*
X418241D01*
X384908Y298301D02*
Y331635D01*
X424278Y219561D02*
X457611D01*
Y252895D01*
X424278D02*
X457611D01*
X424278Y219561D02*
Y252895D01*
X384908Y219561D02*
X418241D01*
Y252895D01*
X384908D02*
X418241D01*
X384908Y219561D02*
Y252895D01*
X408538Y42391D02*
X441871D01*
Y75725D01*
X408538D02*
X441871D01*
X408538Y42391D02*
Y75725D01*
X345758Y1062391D02*
X379091D01*
Y1095725D01*
X345758D02*
X379091D01*
X345758Y1062391D02*
Y1095725D01*
X321758Y1063391D02*
X355091D01*
Y1096725D01*
X321758D02*
X355091D01*
X321758Y1063391D02*
Y1096725D01*
X313958Y1020791D02*
X347291D01*
Y1054125D01*
X313958D02*
X347291D01*
X313958Y1020791D02*
Y1054125D01*
X316758Y97391D02*
X350091D01*
Y130725D01*
X316758D02*
X350091D01*
X316758Y97391D02*
Y130725D01*
X236758Y976791D02*
X270091D01*
Y1010125D01*
X236758D02*
X270091D01*
X236758Y976791D02*
Y1010125D01*
X235308Y902391D02*
X268641D01*
Y935725D01*
X235308D02*
X268641D01*
X235308Y902391D02*
Y935725D01*
X238758Y190031D02*
X272091D01*
Y223365D01*
X238758D02*
X272091D01*
X238758Y190031D02*
Y223365D01*
X234758Y138391D02*
X268091D01*
Y171725D01*
X234758D02*
X268091D01*
X234758Y138391D02*
Y171725D01*
X257758Y131391D02*
X291091D01*
Y164725D01*
X257758D02*
X291091D01*
X257758Y131391D02*
Y164725D01*
X258928Y96681D02*
X292261D01*
Y130015D01*
X258928D02*
X292261D01*
X258928Y96681D02*
Y130015D01*
X140842Y913825D02*
X174175D01*
Y947158D01*
X140842D02*
X174175D01*
X140842Y913825D02*
Y947158D01*
X184048Y864681D02*
X217381D01*
Y898015D01*
X184048D02*
X217381D01*
X184048Y864681D02*
Y898015D01*
X178333Y505333D02*
X211667D01*
Y538667D01*
X178333D02*
X211667D01*
X178333Y505333D02*
Y538667D01*
X136758Y337391D02*
X170091D01*
Y370725D01*
X136758D02*
X170091D01*
X136758Y337391D02*
Y370725D01*
X164758Y338391D02*
X198091D01*
Y371725D01*
X164758D02*
X198091D01*
X164758Y338391D02*
Y371725D01*
X171758Y262391D02*
X205091D01*
Y295725D01*
X171758D02*
X205091D01*
X171758Y262391D02*
Y295725D01*
X178598Y187391D02*
X211931D01*
Y220725D01*
X178598D02*
X211931D01*
X178598Y187391D02*
Y220725D01*
X140818Y103411D02*
X174151D01*
Y136745D01*
X140818D02*
X174151D01*
X140818Y103411D02*
Y136745D01*
Y138851D02*
X174151D01*
Y172185D01*
X140818D02*
X174151D01*
X140818Y138851D02*
Y172185D01*
X83728Y1157391D02*
X117061D01*
Y1190725D01*
X83728D02*
X117061D01*
X83728Y1157391D02*
Y1190725D01*
X76758Y1082391D02*
X110091D01*
Y1115725D01*
X76758D02*
X110091D01*
X76758Y1082391D02*
Y1115725D01*
X101232Y935607D02*
X134565D01*
Y968940D01*
X101232D02*
X134565D01*
X101232Y935607D02*
Y968940D01*
X101158Y911491D02*
X134491D01*
Y944825D01*
X101158D02*
X134491D01*
X101158Y911491D02*
Y944825D01*
X73888Y766801D02*
X107221D01*
Y800135D01*
X73888D02*
X107221D01*
X73888Y766801D02*
Y800135D01*
X76758Y427391D02*
X110091D01*
Y460725D01*
X76758D02*
X110091D01*
X76758Y427391D02*
Y460725D01*
X96258Y337891D02*
X129591D01*
Y371225D01*
X96258D02*
X129591D01*
X96258Y337891D02*
Y371225D01*
X69948Y187391D02*
X103281D01*
Y220725D01*
X69948D02*
X103281D01*
X69948Y187391D02*
Y220725D01*
X95508Y103411D02*
X128841D01*
Y136745D01*
X95508D02*
X128841D01*
X95508Y103411D02*
Y136745D01*
X97508Y138851D02*
X130841D01*
Y172185D01*
X97508D02*
X130841D01*
X97508Y138851D02*
Y172185D01*
X21333Y991333D02*
X54667D01*
Y1024667D01*
X21333D02*
X54667D01*
X21333Y991333D02*
Y1024667D01*
X14468Y854671D02*
X47801D01*
Y888005D01*
X14468D02*
X47801D01*
X14468Y854671D02*
Y888005D01*
X12888Y771521D02*
X46221D01*
Y804855D01*
X12888D02*
X46221D01*
X12888Y771521D02*
Y804855D01*
Y671521D02*
X46221D01*
Y704855D01*
X12888D02*
X46221D01*
X12888Y671521D02*
Y704855D01*
Y621521D02*
X46221D01*
Y654855D01*
X12888D02*
X46221D01*
X12888Y621521D02*
Y654855D01*
Y521521D02*
X46221D01*
Y554855D01*
X12888D02*
X46221D01*
X12888Y521521D02*
Y554855D01*
Y421521D02*
X46221D01*
Y454855D01*
X12888D02*
X46221D01*
X12888Y421521D02*
Y454855D01*
Y371521D02*
X46221D01*
Y404855D01*
X12888D02*
X46221D01*
X12888Y371521D02*
Y404855D01*
Y271521D02*
X46221D01*
Y304855D01*
X12888D02*
X46221D01*
X12888Y271521D02*
Y304855D01*
Y221521D02*
X46221D01*
Y254855D01*
X12888D02*
X46221D01*
X12888Y221521D02*
Y254855D01*
Y121521D02*
X46221D01*
Y154855D01*
X12888D02*
X46221D01*
X12888Y121521D02*
Y154855D01*
X270549Y674699D02*
X303882D01*
Y708032D01*
X270549D02*
X303882D01*
X270549Y674699D02*
Y708032D01*
X294258Y575891D02*
X327591D01*
Y609225D01*
X294258D02*
X327591D01*
X294258Y575891D02*
Y609225D01*
X181058Y474391D02*
X214391D01*
Y507725D01*
X181058D02*
X214391D01*
X181058Y474391D02*
Y507725D01*
X258928Y391081D02*
X292261D01*
Y424415D01*
X258928D02*
X292261D01*
X258928Y391081D02*
Y424415D01*
X405758Y492391D02*
X439091D01*
Y525725D01*
X405758D02*
X439091D01*
X405758Y492391D02*
Y525725D01*
X402474Y515108D02*
X435807D01*
Y548441D01*
X402474D02*
X435807D01*
X402474Y515108D02*
Y548441D01*
X449333Y536333D02*
X466000Y544667D01*
X482667Y536333D01*
X474333Y553000D02*
X482667Y536333D01*
X474333Y553000D02*
X482667Y569667D01*
X466000Y561333D02*
X482667Y569667D01*
X449333D02*
X466000Y561333D01*
X449333Y569667D02*
X457667Y553000D01*
X449333Y536333D02*
X457667Y553000D01*
X495333Y718333D02*
X512000Y726667D01*
X528667Y718333D01*
X520333Y735000D02*
X528667Y718333D01*
X520333Y735000D02*
X528667Y751667D01*
X512000Y743333D02*
X528667Y751667D01*
X495333D02*
X512000Y743333D01*
X495333Y751667D02*
X503667Y735000D01*
X495333Y718333D02*
X503667Y735000D01*
X477508Y902341D02*
X510841D01*
Y935675D01*
X477508D02*
X510841D01*
X477508Y902341D02*
Y935675D01*
X507333Y533333D02*
X540667D01*
Y566667D01*
X507333D02*
X540667D01*
X507333Y533333D02*
Y566667D01*
X284333Y711333D02*
X317667D01*
Y744667D01*
X284333D02*
X317667D01*
X284333Y711333D02*
Y744667D01*
X291333Y687333D02*
X308000Y695667D01*
X324667Y687333D01*
X316333Y704000D02*
X324667Y687333D01*
X316333Y704000D02*
X324667Y720667D01*
X308000Y712333D02*
X324667Y720667D01*
X291333D02*
X308000Y712333D01*
X291333Y720667D02*
X299667Y704000D01*
X291333Y687333D02*
X299667Y704000D01*
X453918Y903261D02*
X487251D01*
Y936595D01*
X453918D02*
X487251D01*
X453918Y903261D02*
Y936595D01*
X292008Y640127D02*
X325341D01*
Y673460D01*
X292008D02*
X325341D01*
X292008Y640127D02*
Y673460D01*
X506758Y832381D02*
X523424Y840715D01*
X540091Y832381D01*
X531758Y849048D02*
X540091Y832381D01*
X531758Y849048D02*
X540091Y865715D01*
X523424Y857381D02*
X540091Y865715D01*
X506758D02*
X523424Y857381D01*
X506758Y865715D02*
X515091Y849048D01*
X506758Y832381D02*
X515091Y849048D01*
X419333Y877333D02*
X452667D01*
Y910667D01*
X419333D02*
X452667D01*
X419333Y877333D02*
Y910667D01*
X451913Y848637D02*
X468580Y856971D01*
X485247Y848637D01*
X476913Y865304D02*
X485247Y848637D01*
X476913Y865304D02*
X485247Y881970D01*
X468580Y873637D02*
X485247Y881970D01*
X451913D02*
X468580Y873637D01*
X451913Y881970D02*
X460247Y865304D01*
X451913Y848637D02*
X460247Y865304D01*
X529368Y878701D02*
X562701D01*
Y912034D01*
X529368D02*
X562701D01*
X529368Y878701D02*
Y912034D01*
X485333Y843333D02*
X502000Y851667D01*
X518667Y843333D01*
X510333Y860000D02*
X518667Y843333D01*
X510333Y860000D02*
X518667Y876667D01*
X502000Y868333D02*
X518667Y876667D01*
X485333D02*
X502000Y868333D01*
X485333Y876667D02*
X493667Y860000D01*
X485333Y843333D02*
X493667Y860000D01*
X291658Y612791D02*
X324991D01*
Y646125D01*
X291658D02*
X324991D01*
X291658Y612791D02*
Y646125D01*
X510898Y558814D02*
X527564Y567148D01*
X544231Y558814D01*
X535898Y575481D02*
X544231Y558814D01*
X535898Y575481D02*
X544231Y592148D01*
X527564Y583814D02*
X544231Y592148D01*
X510898D02*
X527564Y583814D01*
X510898Y592148D02*
X519231Y575481D01*
X510898Y558814D02*
X519231Y575481D01*
X525363Y638367D02*
X542030Y646700D01*
X558696Y638367D01*
X550363Y655034D02*
X558696Y638367D01*
X550363Y655034D02*
X558696Y671700D01*
X542030Y663367D02*
X558696Y671700D01*
X525363D02*
X542030Y663367D01*
X525363Y671700D02*
X533696Y655034D01*
X525363Y638367D02*
X533696Y655034D01*
X310333Y725333D02*
X343667D01*
Y758667D01*
X310333D02*
X343667D01*
X310333Y725333D02*
Y758667D01*
X606058Y461291D02*
X639391D01*
Y494625D01*
X606058D02*
X639391D01*
X606058Y461291D02*
Y494625D01*
X260458Y417691D02*
X293791D01*
Y451025D01*
X260458D02*
X293791D01*
X260458Y417691D02*
Y451025D01*
X345538Y1107391D02*
X378871D01*
Y1140725D01*
X345538D02*
X378871D01*
X345538Y1107391D02*
Y1140725D01*
X166758Y1032401D02*
X200091D01*
Y1065735D01*
X166758D02*
X200091D01*
X166758Y1032401D02*
Y1065735D01*
X674478Y622391D02*
X707811D01*
Y655725D01*
X674478D02*
X707811D01*
X674478Y622391D02*
Y655725D01*
X650658Y563091D02*
X683991D01*
Y596425D01*
X650658D02*
X683991D01*
X650658Y563091D02*
Y596425D01*
X641758Y827391D02*
X675091D01*
Y860725D01*
X641758D02*
X675091D01*
X641758Y827391D02*
Y860725D01*
X565975Y774400D02*
X599308D01*
Y807734D01*
X565975D02*
X599308D01*
X565975Y774400D02*
Y807734D01*
X690333Y743333D02*
X707000Y751667D01*
X723667Y743333D01*
X715333Y760000D02*
X723667Y743333D01*
X715333Y760000D02*
X723667Y776667D01*
X707000Y768333D02*
X723667Y776667D01*
X690333D02*
X707000Y768333D01*
X690333Y776667D02*
X698667Y760000D01*
X690333Y743333D02*
X698667Y760000D01*
X556333Y670333D02*
X573000Y678667D01*
X589667Y670333D01*
X581333Y687000D02*
X589667Y670333D01*
X581333Y687000D02*
X589667Y703667D01*
X573000Y695333D02*
X589667Y703667D01*
X556333D02*
X573000Y695333D01*
X556333Y703667D02*
X564667Y687000D01*
X556333Y670333D02*
X564667Y687000D01*
X594048Y617391D02*
X627381D01*
Y650725D01*
X594048D02*
X627381D01*
X594048Y617391D02*
Y650725D01*
X388758Y475391D02*
X422091D01*
Y508725D01*
X388758D02*
X422091D01*
X388758Y475391D02*
Y508725D01*
X392610Y421314D02*
X425943D01*
Y454647D01*
X392610D02*
X425943D01*
X392610Y421314D02*
Y454647D01*
X373333Y433333D02*
X406667D01*
Y466667D01*
X373333D02*
X406667D01*
X373333Y433333D02*
Y466667D01*
X461026Y421150D02*
X494359D01*
Y454483D01*
X461026D02*
X494359D01*
X461026Y421150D02*
Y454483D01*
X510333Y621333D02*
X527000Y629667D01*
X543667Y621333D01*
X535333Y638000D02*
X543667Y621333D01*
X535333Y638000D02*
X543667Y654667D01*
X527000Y646333D02*
X543667Y654667D01*
X510333D02*
X527000Y646333D01*
X510333Y654667D02*
X518667Y638000D01*
X510333Y621333D02*
X518667Y638000D01*
X472333Y547333D02*
X505667D01*
Y580667D01*
X472333D02*
X505667D01*
X472333Y547333D02*
Y580667D01*
X602428Y859321D02*
X635761D01*
Y892655D01*
X602428D02*
X635761D01*
X602428Y859321D02*
Y892655D01*
X137975Y774598D02*
X171308D01*
Y807932D01*
X137975D02*
X171308D01*
X137975Y774598D02*
Y807932D01*
X338858Y473391D02*
X372191D01*
Y506725D01*
X338858D02*
X372191D01*
X338858Y473391D02*
Y506725D01*
X469617Y517591D02*
X502950D01*
Y550925D01*
X469617D02*
X502950D01*
X469617Y517591D02*
Y550925D01*
X333758Y506760D02*
X367091D01*
Y540093D01*
X333758D02*
X367091D01*
X333758Y506760D02*
Y540093D01*
X524975Y515108D02*
X541642Y523441D01*
X558308Y515108D01*
X549975Y531775D02*
X558308Y515108D01*
X549975Y531775D02*
X558308Y548441D01*
X541642Y540108D02*
X558308Y548441D01*
X524975D02*
X541642Y540108D01*
X524975Y548441D02*
X533308Y531775D01*
X524975Y515108D02*
X533308Y531775D01*
X487758Y429391D02*
X521091D01*
Y462725D01*
X487758D02*
X521091D01*
X487758Y429391D02*
Y462725D01*
X524617Y580679D02*
X541283Y589012D01*
X557950Y580679D01*
X549617Y597345D02*
X557950Y580679D01*
X549617Y597345D02*
X557950Y614012D01*
X541283Y605679D02*
X557950Y614012D01*
X524617D02*
X541283Y605679D01*
X524617Y614012D02*
X532950Y597345D01*
X524617Y580679D02*
X532950Y597345D01*
X478333Y791333D02*
X495000Y799667D01*
X511667Y791333D01*
X503333Y808000D02*
X511667Y791333D01*
X503333Y808000D02*
X511667Y824667D01*
X495000Y816333D02*
X511667Y824667D01*
X478333D02*
X495000Y816333D01*
X478333Y824667D02*
X486667Y808000D01*
X478333Y791333D02*
X486667Y808000D01*
X190333Y962333D02*
X223667D01*
Y995667D01*
X190333D02*
X223667D01*
X190333Y962333D02*
Y995667D01*
X144748Y1014831D02*
X178081D01*
Y1048165D01*
X144748D02*
X178081D01*
X144748Y1014831D02*
Y1048165D01*
X166758Y1077391D02*
X200091D01*
Y1110725D01*
X166758D02*
X200091D01*
X166758Y1077391D02*
Y1110725D01*
X107836Y1086313D02*
X141169D01*
Y1119646D01*
X107836D02*
X141169D01*
X107836Y1086313D02*
Y1119646D01*
X73888Y676251D02*
X107221D01*
Y709585D01*
X73888D02*
X107221D01*
X73888Y676251D02*
Y709585D01*
X701333Y396333D02*
X734667D01*
Y429667D01*
X701333D02*
X734667D01*
X701333Y396333D02*
Y429667D01*
X671363Y365894D02*
X704696D01*
Y399227D01*
X671363D02*
X704696D01*
X671363Y365894D02*
Y399227D01*
X726333Y331333D02*
X759667D01*
Y364667D01*
X726333D02*
X759667D01*
X726333Y331333D02*
Y364667D01*
X728398Y432991D02*
X761731D01*
Y466325D01*
X728398D02*
X761731D01*
X728398Y432991D02*
Y466325D01*
X383267Y759399D02*
X416601D01*
Y792733D01*
X383267D02*
X416601D01*
X383267Y759399D02*
Y792733D01*
X568918Y902391D02*
X602251D01*
Y935725D01*
X568918D02*
X602251D01*
X568918Y902391D02*
Y935725D01*
X602428Y894751D02*
X635761D01*
Y928085D01*
X602428D02*
X635761D01*
X602428Y894751D02*
Y928085D01*
X584758Y100391D02*
X618091D01*
Y133725D01*
X584758D02*
X618091D01*
X584758Y100391D02*
Y133725D01*
X530333Y95333D02*
X563667D01*
Y128667D01*
X530333D02*
X563667D01*
X530333Y95333D02*
Y128667D01*
X309335Y475324D02*
X342668D01*
Y508657D01*
X309335D02*
X342668D01*
X309335Y475324D02*
Y508657D01*
X295458Y533391D02*
X328791D01*
Y566725D01*
X295458D02*
X328791D01*
X295458Y533391D02*
Y566725D01*
X195932Y668721D02*
X212599Y677054D01*
X229265Y668721D01*
X220932Y685388D02*
X229265Y668721D01*
X220932Y685388D02*
X229265Y702054D01*
X212599Y693721D02*
X229265Y702054D01*
X195932D02*
X212599Y693721D01*
X195932Y702054D02*
X204265Y685388D01*
X195932Y668721D02*
X204265Y685388D01*
X294333Y50333D02*
X327667D01*
Y83667D01*
X294333D02*
X327667D01*
X294333Y50333D02*
Y83667D01*
X311333Y25333D02*
X344667D01*
Y58667D01*
X311333D02*
X344667D01*
X311333Y25333D02*
Y58667D01*
X148688Y187391D02*
X182021D01*
Y220725D01*
X148688D02*
X182021D01*
X148688Y187391D02*
Y220725D01*
X518259Y722333D02*
X534925Y730667D01*
X551592Y722333D01*
X543259Y739000D02*
X551592Y722333D01*
X543259Y739000D02*
X551592Y755667D01*
X534925Y747333D02*
X551592Y755667D01*
X518259D02*
X534925Y747333D01*
X518259Y755667D02*
X526592Y739000D01*
X518259Y722333D02*
X526592Y739000D01*
X573975Y739333D02*
X590642Y747667D01*
X607308Y739333D01*
X598975Y756000D02*
X607308Y739333D01*
X598975Y756000D02*
X607308Y772667D01*
X590642Y764333D02*
X607308Y772667D01*
X573975D02*
X590642Y764333D01*
X573975Y772667D02*
X582308Y756000D01*
X573975Y739333D02*
X582308Y756000D01*
X573975Y691333D02*
X607308D01*
Y724667D01*
X573975D02*
X607308D01*
X573975Y691333D02*
Y724667D01*
X81758Y642391D02*
X115091D01*
Y675725D01*
X81758D02*
X115091D01*
X81758Y642391D02*
Y675725D01*
X88333Y508962D02*
X105000Y517295D01*
X121667Y508962D01*
X113333Y525628D02*
X121667Y508962D01*
X113333Y525628D02*
X121667Y542295D01*
X105000Y533961D02*
X121667Y542295D01*
X88333D02*
X105000Y533961D01*
X88333Y542295D02*
X96667Y525628D01*
X88333Y508962D02*
X96667Y525628D01*
X258158Y642291D02*
X291491D01*
Y675625D01*
X258158D02*
X291491D01*
X258158Y642291D02*
Y675625D01*
X217058Y619491D02*
X250391D01*
Y652825D01*
X217058D02*
X250391D01*
X217058Y619491D02*
Y652825D01*
X508258Y970391D02*
X541591D01*
Y1003725D01*
X508258D02*
X541591D01*
X508258Y970391D02*
Y1003725D01*
X377038Y1107391D02*
X410371D01*
Y1140725D01*
X377038D02*
X410371D01*
X377038Y1107391D02*
Y1140725D01*
X171758Y668721D02*
X188424Y677054D01*
X205091Y668721D01*
X196758Y685388D02*
X205091Y668721D01*
X196758Y685388D02*
X205091Y702054D01*
X188424Y693721D02*
X205091Y702054D01*
X171758D02*
X188424Y693721D01*
X171758Y702054D02*
X180091Y685388D01*
X171758Y668721D02*
X180091Y685388D01*
X540975Y730400D02*
X557642Y738734D01*
X574308Y730400D01*
X565975Y747067D02*
X574308Y730400D01*
X565975Y747067D02*
X574308Y763734D01*
X557642Y755400D02*
X574308Y763734D01*
X540975D02*
X557642Y755400D01*
X540975Y763734D02*
X549308Y747067D01*
X540975Y730400D02*
X549308Y747067D01*
X279686Y450319D02*
X313019D01*
Y483652D01*
X279686D02*
X313019D01*
X279686Y450319D02*
Y483652D01*
X202758Y260391D02*
X236091D01*
Y293725D01*
X202758D02*
X236091D01*
X202758Y260391D02*
Y293725D01*
X557692Y580333D02*
X574358Y588667D01*
X591025Y580333D01*
X582692Y597000D02*
X591025Y580333D01*
X582692Y597000D02*
X591025Y613667D01*
X574358Y605333D02*
X591025Y613667D01*
X557692D02*
X574358Y605333D01*
X557692Y613667D02*
X566025Y597000D01*
X557692Y580333D02*
X566025Y597000D01*
X297458Y508391D02*
X330791D01*
Y541725D01*
X297458D02*
X330791D01*
X297458Y508391D02*
Y541725D01*
X168368Y612791D02*
X185034Y621125D01*
X201701Y612791D01*
X193368Y629458D02*
X201701Y612791D01*
X193368Y629458D02*
X201701Y646125D01*
X185034Y637791D02*
X201701Y646125D01*
X168368D02*
X185034Y637791D01*
X168368Y646125D02*
X176701Y629458D01*
X168368Y612791D02*
X176701Y629458D01*
X94333Y171790D02*
X111000Y180123D01*
X127667Y171790D01*
X119333Y188456D02*
X127667Y171790D01*
X119333Y188456D02*
X127667Y205123D01*
X111000Y196790D02*
X127667Y205123D01*
X94333D02*
X111000Y196790D01*
X94333Y205123D02*
X102667Y188456D01*
X94333Y171790D02*
X102667Y188456D01*
X479891Y1017258D02*
X513224D01*
Y1050591D01*
X479891D02*
X513224D01*
X479891Y1017258D02*
Y1050591D01*
X318424Y822391D02*
X335091Y855725D01*
X301758D02*
X335091D01*
X301758D02*
X318424Y822391D01*
X708424Y147391D02*
X725091Y180725D01*
X691758D02*
X725091D01*
X691758D02*
X708424Y147391D01*
X830250Y779856D02*
X838583Y771523D01*
X821916Y779856D02*
X830250D01*
X821916D02*
X830250Y788190D01*
X821916Y796523D02*
X830250Y788190D01*
X821916Y796523D02*
X830250D01*
X838583Y804856D01*
X846916Y796523D01*
X855250D01*
X846916Y788190D02*
X855250Y796523D01*
X846916Y788190D02*
X855250Y779856D01*
X846916D02*
X855250D01*
X838583Y771523D02*
X846916Y779856D01*
X830250Y729856D02*
X838583Y721523D01*
X821916Y729856D02*
X830250D01*
X821916D02*
X830250Y738190D01*
X821916Y746523D02*
X830250Y738190D01*
X821916Y746523D02*
X830250D01*
X838583Y754856D01*
X846916Y746523D01*
X855250D01*
X846916Y738190D02*
X855250Y746523D01*
X846916Y738190D02*
X855250Y729856D01*
X846916D02*
X855250D01*
X838583Y721523D02*
X846916Y729856D01*
X830250Y679856D02*
X838583Y671523D01*
X821916Y679856D02*
X830250D01*
X821916D02*
X830250Y688190D01*
X821916Y696523D02*
X830250Y688190D01*
X821916Y696523D02*
X830250D01*
X838583Y704856D01*
X846916Y696523D01*
X855250D01*
X846916Y688190D02*
X855250Y696523D01*
X846916Y688190D02*
X855250Y679856D01*
X846916D02*
X855250D01*
X838583Y671523D02*
X846916Y679856D01*
X830250Y629856D02*
X838583Y621523D01*
X821916Y629856D02*
X830250D01*
X821916D02*
X830250Y638190D01*
X821916Y646523D02*
X830250Y638190D01*
X821916Y646523D02*
X830250D01*
X838583Y654856D01*
X846916Y646523D01*
X855250D01*
X846916Y638190D02*
X855250Y646523D01*
X846916Y638190D02*
X855250Y629856D01*
X846916D02*
X855250D01*
X838583Y621523D02*
X846916Y629856D01*
X830250Y579856D02*
X838583Y571523D01*
X821916Y579856D02*
X830250D01*
X821916D02*
X830250Y588190D01*
X821916Y596523D02*
X830250Y588190D01*
X821916Y596523D02*
X830250D01*
X838583Y604856D01*
X846916Y596523D01*
X855250D01*
X846916Y588190D02*
X855250Y596523D01*
X846916Y588190D02*
X855250Y579856D01*
X846916D02*
X855250D01*
X838583Y571523D02*
X846916Y579856D01*
X830250Y529856D02*
X838583Y521523D01*
X821916Y529856D02*
X830250D01*
X821916D02*
X830250Y538190D01*
X821916Y546523D02*
X830250Y538190D01*
X821916Y546523D02*
X830250D01*
X838583Y554856D01*
X846916Y546523D01*
X855250D01*
X846916Y538190D02*
X855250Y546523D01*
X846916Y538190D02*
X855250Y529856D01*
X846916D02*
X855250D01*
X838583Y521523D02*
X846916Y529856D01*
X830250Y479856D02*
X838583Y471523D01*
X821916Y479856D02*
X830250D01*
X821916D02*
X830250Y488190D01*
X821916Y496523D02*
X830250Y488190D01*
X821916Y496523D02*
X830250D01*
X838583Y504856D01*
X846916Y496523D01*
X855250D01*
X846916Y488190D02*
X855250Y496523D01*
X846916Y488190D02*
X855250Y479856D01*
X846916D02*
X855250D01*
X838583Y471523D02*
X846916Y479856D01*
X830250Y429856D02*
X838583Y421523D01*
X821916Y429856D02*
X830250D01*
X821916D02*
X830250Y438190D01*
X821916Y446523D02*
X830250Y438190D01*
X821916Y446523D02*
X830250D01*
X838583Y454856D01*
X846916Y446523D01*
X855250D01*
X846916Y438190D02*
X855250Y446523D01*
X846916Y438190D02*
X855250Y429856D01*
X846916D02*
X855250D01*
X838583Y421523D02*
X846916Y429856D01*
X830250Y379856D02*
X838583Y371523D01*
X821916Y379856D02*
X830250D01*
X821916D02*
X830250Y388190D01*
X821916Y396523D02*
X830250Y388190D01*
X821916Y396523D02*
X830250D01*
X838583Y404856D01*
X846916Y396523D01*
X855250D01*
X846916Y388190D02*
X855250Y396523D01*
X846916Y388190D02*
X855250Y379856D01*
X846916D02*
X855250D01*
X838583Y371523D02*
X846916Y379856D01*
X830250Y329856D02*
X838583Y321523D01*
X821916Y329856D02*
X830250D01*
X821916D02*
X830250Y338190D01*
X821916Y346523D02*
X830250Y338190D01*
X821916Y346523D02*
X830250D01*
X838583Y354856D01*
X846916Y346523D01*
X855250D01*
X846916Y338190D02*
X855250Y346523D01*
X846916Y338190D02*
X855250Y329856D01*
X846916D02*
X855250D01*
X838583Y321523D02*
X846916Y329856D01*
X830250Y279856D02*
X838583Y271523D01*
X821916Y279856D02*
X830250D01*
X821916D02*
X830250Y288190D01*
X821916Y296523D02*
X830250Y288190D01*
X821916Y296523D02*
X830250D01*
X838583Y304856D01*
X846916Y296523D01*
X855250D01*
X846916Y288190D02*
X855250Y296523D01*
X846916Y288190D02*
X855250Y279856D01*
X846916D02*
X855250D01*
X838583Y271523D02*
X846916Y279856D01*
X830250Y229857D02*
X838583Y221523D01*
X821916Y229857D02*
X830250D01*
X821916D02*
X830250Y238190D01*
X821916Y246523D02*
X830250Y238190D01*
X821916Y246523D02*
X830250D01*
X838583Y254856D01*
X846916Y246523D01*
X855250D01*
X846916Y238190D02*
X855250Y246523D01*
X846916Y238190D02*
X855250Y229857D01*
X846916D02*
X855250D01*
X838583Y221523D02*
X846916Y229857D01*
X830250Y179857D02*
X838583Y171523D01*
X821916Y179857D02*
X830250D01*
X821916D02*
X830250Y188190D01*
X821916Y196523D02*
X830250Y188190D01*
X821916Y196523D02*
X830250D01*
X838583Y204856D01*
X846916Y196523D01*
X855250D01*
X846916Y188190D02*
X855250Y196523D01*
X846916Y188190D02*
X855250Y179857D01*
X846916D02*
X855250D01*
X838583Y171523D02*
X846916Y179857D01*
X830250Y129857D02*
X838583Y121523D01*
X821916Y129857D02*
X830250D01*
X821916D02*
X830250Y138190D01*
X821916Y146523D02*
X830250Y138190D01*
X821916Y146523D02*
X830250D01*
X838583Y154856D01*
X846916Y146523D01*
X855250D01*
X846916Y138190D02*
X855250Y146523D01*
X846916Y138190D02*
X855250Y129857D01*
X846916D02*
X855250D01*
X838583Y121523D02*
X846916Y129857D01*
X830250Y79856D02*
X838583Y71523D01*
X821916Y79856D02*
X830250D01*
X821916D02*
X830250Y88190D01*
X821916Y96523D02*
X830250Y88190D01*
X821916Y96523D02*
X830250D01*
X838583Y104856D01*
X846916Y96523D01*
X855250D01*
X846916Y88190D02*
X855250Y96523D01*
X846916Y88190D02*
X855250Y79856D01*
X846916D02*
X855250D01*
X838583Y71523D02*
X846916Y79856D01*
X-8333Y779856D02*
X0Y771523D01*
X-16666Y779856D02*
X-8333D01*
X-16666D02*
X-8333Y788190D01*
X-16666Y796523D02*
X-8333Y788190D01*
X-16666Y796523D02*
X-8333D01*
X0Y804856D01*
X8334Y796523D01*
X16667D01*
X8334Y788190D02*
X16667Y796523D01*
X8334Y788190D02*
X16667Y779856D01*
X8334D02*
X16667D01*
X0Y771523D02*
X8334Y779856D01*
X-8333Y729856D02*
X0Y721523D01*
X-16666Y729856D02*
X-8333D01*
X-16666D02*
X-8333Y738190D01*
X-16666Y746523D02*
X-8333Y738190D01*
X-16666Y746523D02*
X-8333D01*
X0Y754856D01*
X8334Y746523D01*
X16667D01*
X8334Y738190D02*
X16667Y746523D01*
X8334Y738190D02*
X16667Y729856D01*
X8334D02*
X16667D01*
X0Y721523D02*
X8334Y729856D01*
X-8333Y679856D02*
X0Y671523D01*
X-16666Y679856D02*
X-8333D01*
X-16666D02*
X-8333Y688190D01*
X-16666Y696523D02*
X-8333Y688190D01*
X-16666Y696523D02*
X-8333D01*
X0Y704856D01*
X8334Y696523D01*
X16667D01*
X8334Y688190D02*
X16667Y696523D01*
X8334Y688190D02*
X16667Y679856D01*
X8334D02*
X16667D01*
X0Y671523D02*
X8334Y679856D01*
X-8333Y629856D02*
X0Y621523D01*
X-16666Y629856D02*
X-8333D01*
X-16666D02*
X-8333Y638190D01*
X-16666Y646523D02*
X-8333Y638190D01*
X-16666Y646523D02*
X-8333D01*
X0Y654856D01*
X8334Y646523D01*
X16667D01*
X8334Y638190D02*
X16667Y646523D01*
X8334Y638190D02*
X16667Y629856D01*
X8334D02*
X16667D01*
X0Y621523D02*
X8334Y629856D01*
X-8333Y579856D02*
X0Y571523D01*
X-16666Y579856D02*
X-8333D01*
X-16666D02*
X-8333Y588190D01*
X-16666Y596523D02*
X-8333Y588190D01*
X-16666Y596523D02*
X-8333D01*
X0Y604856D01*
X8334Y596523D01*
X16667D01*
X8334Y588190D02*
X16667Y596523D01*
X8334Y588190D02*
X16667Y579856D01*
X8334D02*
X16667D01*
X0Y571523D02*
X8334Y579856D01*
X-8333Y529856D02*
X0Y521523D01*
X-16666Y529856D02*
X-8333D01*
X-16666D02*
X-8333Y538190D01*
X-16666Y546523D02*
X-8333Y538190D01*
X-16666Y546523D02*
X-8333D01*
X0Y554856D01*
X8334Y546523D01*
X16667D01*
X8334Y538190D02*
X16667Y546523D01*
X8334Y538190D02*
X16667Y529856D01*
X8334D02*
X16667D01*
X0Y521523D02*
X8334Y529856D01*
X-8333Y479856D02*
X0Y471523D01*
X-16666Y479856D02*
X-8333D01*
X-16666D02*
X-8333Y488190D01*
X-16666Y496523D02*
X-8333Y488190D01*
X-16666Y496523D02*
X-8333D01*
X0Y504856D01*
X8334Y496523D01*
X16667D01*
X8334Y488190D02*
X16667Y496523D01*
X8334Y488190D02*
X16667Y479856D01*
X8334D02*
X16667D01*
X0Y471523D02*
X8334Y479856D01*
X-8333Y429856D02*
X0Y421523D01*
X-16666Y429856D02*
X-8333D01*
X-16666D02*
X-8333Y438190D01*
X-16666Y446523D02*
X-8333Y438190D01*
X-16666Y446523D02*
X-8333D01*
X0Y454856D01*
X8334Y446523D01*
X16667D01*
X8334Y438190D02*
X16667Y446523D01*
X8334Y438190D02*
X16667Y429856D01*
X8334D02*
X16667D01*
X0Y421523D02*
X8334Y429856D01*
X-8333Y379856D02*
X0Y371523D01*
X-16666Y379856D02*
X-8333D01*
X-16666D02*
X-8333Y388190D01*
X-16666Y396523D02*
X-8333Y388190D01*
X-16666Y396523D02*
X-8333D01*
X0Y404856D01*
X8334Y396523D01*
X16667D01*
X8334Y388190D02*
X16667Y396523D01*
X8334Y388190D02*
X16667Y379856D01*
X8334D02*
X16667D01*
X0Y371523D02*
X8334Y379856D01*
X-8333Y329856D02*
X0Y321523D01*
X-16666Y329856D02*
X-8333D01*
X-16666D02*
X-8333Y338190D01*
X-16666Y346523D02*
X-8333Y338190D01*
X-16666Y346523D02*
X-8333D01*
X0Y354856D01*
X8334Y346523D01*
X16667D01*
X8334Y338190D02*
X16667Y346523D01*
X8334Y338190D02*
X16667Y329856D01*
X8334D02*
X16667D01*
X0Y321523D02*
X8334Y329856D01*
X-8333Y279856D02*
X0Y271523D01*
X-16666Y279856D02*
X-8333D01*
X-16666D02*
X-8333Y288190D01*
X-16666Y296523D02*
X-8333Y288190D01*
X-16666Y296523D02*
X-8333D01*
X0Y304856D01*
X8334Y296523D01*
X16667D01*
X8334Y288190D02*
X16667Y296523D01*
X8334Y288190D02*
X16667Y279856D01*
X8334D02*
X16667D01*
X0Y271523D02*
X8334Y279856D01*
X-8333Y229857D02*
X0Y221523D01*
X-16666Y229857D02*
X-8333D01*
X-16666D02*
X-8333Y238190D01*
X-16666Y246523D02*
X-8333Y238190D01*
X-16666Y246523D02*
X-8333D01*
X0Y254856D01*
X8334Y246523D01*
X16667D01*
X8334Y238190D02*
X16667Y246523D01*
X8334Y238190D02*
X16667Y229857D01*
X8334D02*
X16667D01*
X0Y221523D02*
X8334Y229857D01*
X-8333Y179857D02*
X0Y171523D01*
X-16666Y179857D02*
X-8333D01*
X-16666D02*
X-8333Y188190D01*
X-16666Y196523D02*
X-8333Y188190D01*
X-16666Y196523D02*
X-8333D01*
X0Y204856D01*
X8334Y196523D01*
X16667D01*
X8334Y188190D02*
X16667Y196523D01*
X8334Y188190D02*
X16667Y179857D01*
X8334D02*
X16667D01*
X0Y171523D02*
X8334Y179857D01*
X-8333Y129857D02*
X0Y121523D01*
X-16666Y129857D02*
X-8333D01*
X-16666D02*
X-8333Y138190D01*
X-16666Y146523D02*
X-8333Y138190D01*
X-16666Y146523D02*
X-8333D01*
X0Y154856D01*
X8334Y146523D01*
X16667D01*
X8334Y138190D02*
X16667Y146523D01*
X8334Y138190D02*
X16667Y129857D01*
X8334D02*
X16667D01*
X0Y121523D02*
X8334Y129857D01*
X-8333Y79856D02*
X0Y71523D01*
X-16666Y79856D02*
X-8333D01*
X-16666D02*
X-8333Y88190D01*
X-16666Y96523D02*
X-8333Y88190D01*
X-16666Y96523D02*
X-8333D01*
X0Y104856D01*
X8334Y96523D01*
X16667D01*
X8334Y88190D02*
X16667Y96523D01*
X8334Y88190D02*
X16667Y79856D01*
X8334D02*
X16667D01*
X0Y71523D02*
X8334Y79856D01*
X633806Y740725D02*
X642139D01*
X633806D02*
Y757391D01*
X642139D01*
Y765725D01*
X658806D01*
Y757391D02*
Y765725D01*
Y757391D02*
X667139D01*
Y740725D02*
Y757391D01*
X658806Y740725D02*
X667139D01*
X658806Y732391D02*
Y740725D01*
X642139Y732391D02*
X658806D01*
X642139D02*
Y740725D01*
D139*
X8460077Y-1330000D02*
Y-1258023D01*
X8496065D01*
X8508061Y-1270019D01*
Y-1294012D01*
X8496065Y-1306008D01*
X8460077D01*
X8544050Y-1282015D02*
X8568042D01*
X8580038Y-1294012D01*
Y-1330000D01*
X8544050D01*
X8532054Y-1318004D01*
X8544050Y-1306008D01*
X8580038D01*
X8652015Y-1258023D02*
Y-1330000D01*
X8616026D01*
X8604030Y-1318004D01*
Y-1294012D01*
X8616026Y-1282015D01*
X8652015D01*
X8795968Y-1270019D02*
X8783972Y-1258023D01*
X8759980D01*
X8747984Y-1270019D01*
Y-1282015D01*
X8759980Y-1294012D01*
X8783972D01*
X8795968Y-1306008D01*
Y-1318004D01*
X8783972Y-1330000D01*
X8759980D01*
X8747984Y-1318004D01*
X8819960Y-1258023D02*
Y-1330000D01*
Y-1294012D01*
X8831957Y-1282015D01*
X8855949D01*
X8867945Y-1294012D01*
Y-1330000D01*
X8903933Y-1282015D02*
X8927925D01*
X8939922Y-1294012D01*
Y-1330000D01*
X8903933D01*
X8891937Y-1318004D01*
X8903933Y-1306008D01*
X8939922D01*
X8963914Y-1353992D02*
Y-1282015D01*
X8999902D01*
X9011898Y-1294012D01*
Y-1318004D01*
X8999902Y-1330000D01*
X8963914D01*
X9071879D02*
X9047887D01*
X9035890Y-1318004D01*
Y-1294012D01*
X9047887Y-1282015D01*
X9071879D01*
X9083875Y-1294012D01*
Y-1306008D01*
X9035890D01*
X7870228Y-1258023D02*
Y-1306008D01*
X7894221Y-1330000D01*
X7918213Y-1306008D01*
Y-1258023D01*
X7942205Y-1330000D02*
X7966197D01*
X7954201D01*
Y-1282015D01*
X7942205D01*
X8014182D02*
X8038174D01*
X8050170Y-1294012D01*
Y-1330000D01*
X8014182D01*
X8002186Y-1318004D01*
X8014182Y-1306008D01*
X8050170D01*
X8074162Y-1330000D02*
X8122147Y-1282015D01*
X8146139Y-1330000D02*
Y-1258023D01*
X8182127D01*
X8194123Y-1270019D01*
Y-1294012D01*
X8182127Y-1306008D01*
X8146139D01*
X8230112Y-1282015D02*
X8254104D01*
X8266100Y-1294012D01*
Y-1330000D01*
X8230112D01*
X8218116Y-1318004D01*
X8230112Y-1306008D01*
X8266100D01*
X8338077Y-1258023D02*
Y-1330000D01*
X8302088D01*
X8290092Y-1318004D01*
Y-1294012D01*
X8302088Y-1282015D01*
X8338077D01*
X6370678Y-1258023D02*
Y-1330000D01*
X6406666D01*
X6418662Y-1318004D01*
Y-1270019D01*
X6406666Y-1258023D01*
X6370678D01*
X6442654Y-1282015D02*
Y-1330000D01*
Y-1306008D01*
X6454651Y-1294012D01*
X6466647Y-1282015D01*
X6478643D01*
X6514631Y-1330000D02*
X6538623D01*
X6526627D01*
Y-1282015D01*
X6514631D01*
X6574612Y-1330000D02*
X6598604D01*
X6586608D01*
Y-1258023D01*
X6574612D01*
X6634592Y-1330000D02*
X6658585D01*
X6646588D01*
Y-1258023D01*
X6634592D01*
X6766550D02*
Y-1330000D01*
X6814534D01*
X6850523Y-1282015D02*
X6874515D01*
X6886511Y-1294012D01*
Y-1330000D01*
X6850523D01*
X6838526Y-1318004D01*
X6850523Y-1306008D01*
X6886511D01*
X6910503Y-1282015D02*
Y-1318004D01*
X6922499Y-1330000D01*
X6958488D01*
Y-1341996D01*
X6946492Y-1353992D01*
X6934495D01*
X6958488Y-1330000D02*
Y-1282015D01*
X7018468Y-1330000D02*
X6994476D01*
X6982480Y-1318004D01*
Y-1294012D01*
X6994476Y-1282015D01*
X7018468D01*
X7030464Y-1294012D01*
Y-1306008D01*
X6982480D01*
X7054457Y-1282015D02*
Y-1330000D01*
Y-1306008D01*
X7066453Y-1294012D01*
X7078449Y-1282015D01*
X7090445D01*
X7198410Y-1330000D02*
Y-1258023D01*
X7234398D01*
X7246394Y-1270019D01*
Y-1294012D01*
X7234398Y-1306008D01*
X7198410D01*
X7282383Y-1282015D02*
X7306375D01*
X7318371Y-1294012D01*
Y-1330000D01*
X7282383D01*
X7270387Y-1318004D01*
X7282383Y-1306008D01*
X7318371D01*
X7342363Y-1330000D02*
X7366355D01*
X7354359D01*
Y-1282015D01*
X7342363D01*
X7402344D02*
Y-1330000D01*
Y-1306008D01*
X7414340Y-1294012D01*
X7426336Y-1282015D01*
X7438332D01*
X5636876Y-1258023D02*
Y-1330000D01*
Y-1294012D01*
X5684860D01*
Y-1258023D01*
Y-1330000D01*
X5720849D02*
X5744841D01*
X5756837Y-1318004D01*
Y-1294012D01*
X5744841Y-1282015D01*
X5720849D01*
X5708852Y-1294012D01*
Y-1318004D01*
X5720849Y-1330000D01*
X5780829D02*
X5804821D01*
X5792825D01*
Y-1258023D01*
X5780829D01*
X5876798Y-1330000D02*
X5852806D01*
X5840810Y-1318004D01*
Y-1294012D01*
X5852806Y-1282015D01*
X5876798D01*
X5888794Y-1294012D01*
Y-1306008D01*
X5840810D01*
X5984763Y-1258023D02*
X6032748D01*
X6008755D01*
Y-1330000D01*
X6056740Y-1282015D02*
Y-1318004D01*
X6068736Y-1330000D01*
X6104724D01*
Y-1341996D01*
X6092728Y-1353992D01*
X6080732D01*
X6104724Y-1330000D02*
Y-1282015D01*
X6128717Y-1353992D02*
Y-1282015D01*
X6164705D01*
X6176701Y-1294012D01*
Y-1318004D01*
X6164705Y-1330000D01*
X6128717D01*
X6236682D02*
X6212689D01*
X6200693Y-1318004D01*
Y-1294012D01*
X6212689Y-1282015D01*
X6236682D01*
X6248678Y-1294012D01*
Y-1306008D01*
X6200693D01*
X5131000Y-1330000D02*
Y-1258023D01*
X5166988D01*
X5178984Y-1270019D01*
Y-1294012D01*
X5166988Y-1306008D01*
X5131000D01*
X5202977Y-1330000D02*
X5226969D01*
X5214973D01*
Y-1258023D01*
X5202977D01*
X5274953Y-1282015D02*
X5298946D01*
X5310942Y-1294012D01*
Y-1330000D01*
X5274953D01*
X5262957Y-1318004D01*
X5274953Y-1306008D01*
X5310942D01*
X5346930Y-1270019D02*
Y-1282015D01*
X5334934D01*
X5358926D01*
X5346930D01*
Y-1318004D01*
X5358926Y-1330000D01*
X5430903D02*
X5406911D01*
X5394915Y-1318004D01*
Y-1294012D01*
X5406911Y-1282015D01*
X5430903D01*
X5442899Y-1294012D01*
Y-1306008D01*
X5394915D01*
X5514876Y-1258023D02*
Y-1330000D01*
X5478887D01*
X5466891Y-1318004D01*
Y-1294012D01*
X5478887Y-1282015D01*
X5514876D01*
X4031320Y-1258023D02*
Y-1330000D01*
Y-1294012D01*
X4079305D01*
Y-1258023D01*
Y-1330000D01*
X4115293D02*
X4139285D01*
X4151282Y-1318004D01*
Y-1294012D01*
X4139285Y-1282015D01*
X4115293D01*
X4103297Y-1294012D01*
Y-1318004D01*
X4115293Y-1330000D01*
X4175274D02*
X4199266D01*
X4187270D01*
Y-1258023D01*
X4175274D01*
X4271243Y-1330000D02*
X4247250D01*
X4235254Y-1318004D01*
Y-1294012D01*
X4247250Y-1282015D01*
X4271243D01*
X4283239Y-1294012D01*
Y-1306008D01*
X4235254D01*
X4427192Y-1270019D02*
X4415196Y-1258023D01*
X4391204D01*
X4379208Y-1270019D01*
Y-1282015D01*
X4391204Y-1294012D01*
X4415196D01*
X4427192Y-1306008D01*
Y-1318004D01*
X4415196Y-1330000D01*
X4391204D01*
X4379208Y-1318004D01*
X4451184Y-1330000D02*
X4475177D01*
X4463181D01*
Y-1282015D01*
X4451184D01*
X4511165D02*
X4559150D01*
X4511165Y-1330000D01*
X4559150D01*
X4619130D02*
X4595138D01*
X4583142Y-1318004D01*
Y-1294012D01*
X4595138Y-1282015D01*
X4619130D01*
X4631126Y-1294012D01*
Y-1306008D01*
X4583142D01*
X3479463Y-1270019D02*
X3467467Y-1258023D01*
X3443475D01*
X3431479Y-1270019D01*
Y-1318004D01*
X3443475Y-1330000D01*
X3467467D01*
X3479463Y-1318004D01*
X3515452Y-1330000D02*
X3539444D01*
X3551440Y-1318004D01*
Y-1294012D01*
X3539444Y-1282015D01*
X3515452D01*
X3503456Y-1294012D01*
Y-1318004D01*
X3515452Y-1330000D01*
X3575432Y-1282015D02*
Y-1318004D01*
X3587428Y-1330000D01*
X3623417D01*
Y-1282015D01*
X3647409Y-1330000D02*
Y-1282015D01*
X3683397D01*
X3695393Y-1294012D01*
Y-1330000D01*
X3731382Y-1270019D02*
Y-1282015D01*
X3719386D01*
X3743378D01*
X3731382D01*
Y-1318004D01*
X3743378Y-1330000D01*
X2973588Y-1270019D02*
X2961591Y-1258023D01*
X2937599D01*
X2925603Y-1270019D01*
Y-1282015D01*
X2937599Y-1294012D01*
X2961591D01*
X2973588Y-1306008D01*
Y-1318004D01*
X2961591Y-1330000D01*
X2937599D01*
X2925603Y-1318004D01*
X2997580Y-1282015D02*
Y-1318004D01*
X3009576Y-1330000D01*
X3045564D01*
Y-1341996D01*
X3033568Y-1353992D01*
X3021572D01*
X3045564Y-1330000D02*
Y-1282015D01*
X3069557Y-1330000D02*
Y-1282015D01*
X3081553D01*
X3093549Y-1294012D01*
Y-1330000D01*
Y-1294012D01*
X3105545Y-1282015D01*
X3117541Y-1294012D01*
Y-1330000D01*
X3141533Y-1258023D02*
Y-1330000D01*
X3177522D01*
X3189518Y-1318004D01*
Y-1306008D01*
Y-1294012D01*
X3177522Y-1282015D01*
X3141533D01*
X3225506Y-1330000D02*
X3249498D01*
X3261494Y-1318004D01*
Y-1294012D01*
X3249498Y-1282015D01*
X3225506D01*
X3213510Y-1294012D01*
Y-1318004D01*
X3225506Y-1330000D01*
X3285487D02*
X3309479D01*
X3297483D01*
Y-1258023D01*
X3285487D01*
%TF.MD5,edb43a96321e00122149158db8566d96*%
M02*
