%TF.GenerationSoftware,Altium Limited,Altium Designer,20.1.11 (218)*%
G04 Layer_Color=16711935*
%FSLAX26Y26*%
%MOIN*%
%TF.SameCoordinates,F1652399-7491-40A6-9504-01A14B245E9D*%
%TF.FilePolarity,Negative*%
%TF.FileFunction,Soldermask,Bot*%
%TF.Part,Single*%
G01*
G75*
%TA.AperFunction,ComponentPad*%
%ADD62C,0.040000*%
%TA.AperFunction,NonConductor*%
%ADD66C,0.009842*%
%TA.AperFunction,SMDPad,CuDef*%
%ADD71R,0.020551X0.023622*%
%TA.AperFunction,NonConductor*%
%ADD82C,0.020000*%
%TA.AperFunction,SMDPad,CuDef*%
%ADD83R,0.048307X0.091614*%
%ADD84R,0.056181X0.125079*%
%ADD85R,0.016811X0.036496*%
%ADD86C,0.012874*%
%ADD87C,0.045370*%
%ADD88R,0.036102X0.015236*%
%ADD89R,0.015236X0.036102*%
%ADD90R,0.111299X0.107362*%
G04:AMPARAMS|DCode=91|XSize=25.984mil|YSize=24.016mil|CornerRadius=6.988mil|HoleSize=0mil|Usage=FLASHONLY|Rotation=0.000|XOffset=0mil|YOffset=0mil|HoleType=Round|Shape=RoundedRectangle|*
%AMROUNDEDRECTD91*
21,1,0.025984,0.010040,0,0,0.0*
21,1,0.012008,0.024016,0,0,0.0*
1,1,0.013976,0.006004,-0.005020*
1,1,0.013976,-0.006004,-0.005020*
1,1,0.013976,-0.006004,0.005020*
1,1,0.013976,0.006004,0.005020*
%
%ADD91ROUNDEDRECTD91*%
G04:AMPARAMS|DCode=92|XSize=25.984mil|YSize=24.016mil|CornerRadius=6.988mil|HoleSize=0mil|Usage=FLASHONLY|Rotation=90.000|XOffset=0mil|YOffset=0mil|HoleType=Round|Shape=RoundedRectangle|*
%AMROUNDEDRECTD92*
21,1,0.025984,0.010040,0,0,90.0*
21,1,0.012008,0.024016,0,0,90.0*
1,1,0.013976,0.005020,0.006004*
1,1,0.013976,0.005020,-0.006004*
1,1,0.013976,-0.005020,-0.006004*
1,1,0.013976,-0.005020,0.006004*
%
%ADD92ROUNDEDRECTD92*%
G04:AMPARAMS|DCode=93|XSize=14.173mil|YSize=47.638mil|CornerRadius=4.626mil|HoleSize=0mil|Usage=FLASHONLY|Rotation=270.000|XOffset=0mil|YOffset=0mil|HoleType=Round|Shape=RoundedRectangle|*
%AMROUNDEDRECTD93*
21,1,0.014173,0.038386,0,0,270.0*
21,1,0.004921,0.047638,0,0,270.0*
1,1,0.009252,-0.019193,-0.002461*
1,1,0.009252,-0.019193,0.002461*
1,1,0.009252,0.019193,0.002461*
1,1,0.009252,0.019193,-0.002461*
%
%ADD93ROUNDEDRECTD93*%
%ADD94C,0.078740*%
%TA.AperFunction,ComponentPad*%
G04:AMPARAMS|DCode=95|XSize=30.591mil|YSize=75.866mil|CornerRadius=8.898mil|HoleSize=0mil|Usage=FLASHONLY|Rotation=270.000|XOffset=0mil|YOffset=0mil|HoleType=Round|Shape=RoundedRectangle|*
%AMROUNDEDRECTD95*
21,1,0.030591,0.058071,0,0,270.0*
21,1,0.012795,0.075866,0,0,270.0*
1,1,0.017795,-0.029035,-0.006398*
1,1,0.017795,-0.029035,0.006398*
1,1,0.017795,0.029035,0.006398*
1,1,0.017795,0.029035,-0.006398*
%
%ADD95ROUNDEDRECTD95*%
%TA.AperFunction,ViaPad*%
%ADD96C,0.170000*%
D62*
X650473Y749058D02*
D03*
D66*
X-325000Y-270414D02*
Y-357000D01*
X-281707D01*
X-267276Y-342569D01*
Y-328138D01*
X-281707Y-313707D01*
X-325000D01*
X-281707D01*
X-267276Y-299276D01*
Y-284845D01*
X-281707Y-270414D01*
X-325000D01*
X-195121D02*
X-223983D01*
X-238414Y-284845D01*
Y-342569D01*
X-223983Y-357000D01*
X-195121D01*
X-180690Y-342569D01*
Y-284845D01*
X-195121Y-270414D01*
X-151828D02*
X-94103D01*
X-122966D01*
Y-357000D01*
X-65241Y-270414D02*
X-7517D01*
X-36379D01*
Y-357000D01*
X64638Y-270414D02*
X35776D01*
X21345Y-284845D01*
Y-342569D01*
X35776Y-357000D01*
X64638D01*
X79069Y-342569D01*
Y-284845D01*
X64638Y-270414D01*
X107931Y-357000D02*
Y-270414D01*
X136793Y-299276D01*
X165655Y-270414D01*
Y-357000D01*
X338827Y-284845D02*
X324397Y-270414D01*
X295534D01*
X281103Y-284845D01*
Y-299276D01*
X295534Y-313707D01*
X324397D01*
X338827Y-328138D01*
Y-342569D01*
X324397Y-357000D01*
X295534D01*
X281103Y-342569D01*
X410983Y-270414D02*
X382121D01*
X367690Y-284845D01*
Y-342569D01*
X382121Y-357000D01*
X410983D01*
X425414Y-342569D01*
Y-284845D01*
X410983Y-270414D01*
X454276D02*
Y-357000D01*
X512000D01*
X540862Y-270414D02*
Y-357000D01*
X584155D01*
X598586Y-342569D01*
Y-284845D01*
X584155Y-270414D01*
X540862D01*
X685172D02*
X627448D01*
Y-357000D01*
X685172D01*
X627448Y-313707D02*
X656310D01*
X714034Y-357000D02*
Y-270414D01*
X757327D01*
X771759Y-284845D01*
Y-313707D01*
X757327Y-328138D01*
X714034D01*
X742896D02*
X771759Y-357000D01*
X887207D02*
Y-270414D01*
X916069Y-299276D01*
X944931Y-270414D01*
Y-357000D01*
X973793D02*
Y-299276D01*
X1002655Y-270414D01*
X1031517Y-299276D01*
Y-357000D01*
Y-313707D01*
X973793D01*
X1118103Y-284845D02*
X1103672Y-270414D01*
X1074810D01*
X1060379Y-284845D01*
Y-299276D01*
X1074810Y-313707D01*
X1103672D01*
X1118103Y-328138D01*
Y-342569D01*
X1103672Y-357000D01*
X1074810D01*
X1060379Y-342569D01*
X1146965Y-270414D02*
Y-357000D01*
Y-328138D01*
X1204689Y-270414D01*
X1161396Y-313707D01*
X1204689Y-357000D01*
D71*
X732126Y713625D02*
D03*
Y784491D02*
D03*
X699764D02*
D03*
Y713625D02*
D03*
X732126Y749058D02*
D03*
D82*
X680473D02*
G03*
X680473Y749058I-30000J0D01*
G01*
D83*
X763779Y1007875D02*
D03*
X74802D02*
D03*
D84*
X720472Y1024607D02*
D03*
X118109D02*
D03*
D85*
X645669Y948820D02*
D03*
X625984D02*
D03*
X606298D02*
D03*
X586613D02*
D03*
X566928D02*
D03*
X547243D02*
D03*
X527558D02*
D03*
X507873D02*
D03*
X488188D02*
D03*
X468503D02*
D03*
X448818D02*
D03*
X429133D02*
D03*
X409448D02*
D03*
X389763D02*
D03*
X370078D02*
D03*
X350393D02*
D03*
X330708D02*
D03*
X311023D02*
D03*
X291338D02*
D03*
X271653D02*
D03*
X251968D02*
D03*
X232283D02*
D03*
X212598D02*
D03*
X192913D02*
D03*
D86*
X650472Y719058D02*
D03*
X650473Y779058D02*
D03*
D87*
X724424Y378018D02*
D03*
X377948Y47248D02*
D03*
X185034D02*
D03*
X474404D02*
D03*
X281491D02*
D03*
X570861D02*
D03*
X763774D02*
D03*
X667317D02*
D03*
X529000Y808000D02*
D03*
D88*
X341733Y614173D02*
D03*
Y633859D02*
D03*
Y653543D02*
D03*
Y673229D02*
D03*
Y692913D02*
D03*
Y712599D02*
D03*
X496851D02*
D03*
Y692913D02*
D03*
Y673229D02*
D03*
Y653543D02*
D03*
Y633859D02*
D03*
Y614173D02*
D03*
D89*
X370079Y740945D02*
D03*
X389765D02*
D03*
X409449D02*
D03*
X429135D02*
D03*
X448819D02*
D03*
X468505D02*
D03*
Y585827D02*
D03*
X448819D02*
D03*
X429135D02*
D03*
X409449D02*
D03*
X389765D02*
D03*
X370079D02*
D03*
D90*
X419291Y663385D02*
D03*
D91*
X469000Y808284D02*
D03*
Y843716D02*
D03*
X431000Y808284D02*
D03*
Y843716D02*
D03*
X542000Y712716D02*
D03*
Y677284D02*
D03*
D92*
X691141Y664048D02*
D03*
X655708D02*
D03*
X721141Y829048D02*
D03*
X685708D02*
D03*
D93*
X310828Y196852D02*
D03*
Y216536D02*
D03*
X527756Y196852D02*
D03*
Y216536D02*
D03*
X310828Y413386D02*
D03*
X527756D02*
D03*
Y393702D02*
D03*
X310828D02*
D03*
X527756Y374016D02*
D03*
X310828D02*
D03*
X527756Y354332D02*
D03*
X310828D02*
D03*
X527756Y334646D02*
D03*
X310828D02*
D03*
X527756Y314962D02*
D03*
X310828D02*
D03*
X527756Y295276D02*
D03*
X310828D02*
D03*
X527756Y275592D02*
D03*
X310828D02*
D03*
X527756Y255906D02*
D03*
X310828D02*
D03*
X527756Y236222D02*
D03*
X310828D02*
D03*
X527756Y177166D02*
D03*
X310828D02*
D03*
X527756Y157482D02*
D03*
X310828D02*
D03*
X527756Y137796D02*
D03*
X310828D02*
D03*
D94*
X86000Y889000D02*
D03*
X747000Y899000D02*
D03*
X90554Y47248D02*
D03*
D95*
X0Y88190D02*
D03*
Y138190D02*
D03*
Y188190D02*
D03*
Y238190D02*
D03*
Y288190D02*
D03*
Y338190D02*
D03*
Y388190D02*
D03*
Y438190D02*
D03*
Y488190D02*
D03*
Y538190D02*
D03*
Y588190D02*
D03*
Y638190D02*
D03*
Y688190D02*
D03*
Y738190D02*
D03*
Y788190D02*
D03*
X838583Y88190D02*
D03*
Y138190D02*
D03*
Y188190D02*
D03*
Y238190D02*
D03*
Y288190D02*
D03*
Y338190D02*
D03*
Y388190D02*
D03*
Y438190D02*
D03*
Y488190D02*
D03*
Y538190D02*
D03*
Y588190D02*
D03*
Y638190D02*
D03*
Y688190D02*
D03*
Y738190D02*
D03*
Y788190D02*
D03*
D96*
X708424Y164058D02*
D03*
X318424Y839058D02*
D03*
%TF.MD5,c0d5015ae88db6e948152e47e7bb81e4*%
M02*
