%TF.GenerationSoftware,Altium Limited,Altium Designer,20.1.11 (218)*%
G04 Layer_Color=255*
%FSLAX26Y26*%
%MOIN*%
%TF.SameCoordinates,F1652399-7491-40A6-9504-01A14B245E9D*%
%TF.FilePolarity,Positive*%
%TF.FileFunction,Pads,Bot*%
%TF.Part,Single*%
G01*
G75*
%TA.AperFunction,SMDPad,CuDef*%
G04:AMPARAMS|DCode=14|XSize=22.047mil|YSize=20.079mil|CornerRadius=5.02mil|HoleSize=0mil|Usage=FLASHONLY|Rotation=180.000|XOffset=0mil|YOffset=0mil|HoleType=Round|Shape=RoundedRectangle|*
%AMROUNDEDRECTD14*
21,1,0.022047,0.010040,0,0,180.0*
21,1,0.012008,0.020079,0,0,180.0*
1,1,0.010039,-0.006004,0.005020*
1,1,0.010039,0.006004,0.005020*
1,1,0.010039,0.006004,-0.005020*
1,1,0.010039,-0.006004,-0.005020*
%
%ADD14ROUNDEDRECTD14*%
G04:AMPARAMS|DCode=21|XSize=22.047mil|YSize=20.079mil|CornerRadius=5.02mil|HoleSize=0mil|Usage=FLASHONLY|Rotation=90.000|XOffset=0mil|YOffset=0mil|HoleType=Round|Shape=RoundedRectangle|*
%AMROUNDEDRECTD21*
21,1,0.022047,0.010040,0,0,90.0*
21,1,0.012008,0.020079,0,0,90.0*
1,1,0.010039,0.005020,0.006004*
1,1,0.010039,0.005020,-0.006004*
1,1,0.010039,-0.005020,-0.006004*
1,1,0.010039,-0.005020,0.006004*
%
%ADD21ROUNDEDRECTD21*%
%ADD36C,0.039370*%
%TA.AperFunction,ComponentPad*%
%ADD62C,0.040000*%
%TA.AperFunction,ViaPad*%
%ADD64C,0.165000*%
%TA.AperFunction,SMDPad,CuDef*%
%ADD67R,0.043307X0.086614*%
%ADD68R,0.051181X0.120079*%
%ADD69R,0.011811X0.031496*%
%ADD70C,0.007874*%
%ADD71R,0.020551X0.023622*%
%ADD72R,0.031102X0.010236*%
%ADD73R,0.010236X0.031102*%
%ADD74R,0.106299X0.102362*%
G04:AMPARAMS|DCode=75|XSize=9.842mil|YSize=43.307mil|CornerRadius=2.461mil|HoleSize=0mil|Usage=FLASHONLY|Rotation=270.000|XOffset=0mil|YOffset=0mil|HoleType=Round|Shape=RoundedRectangle|*
%AMROUNDEDRECTD75*
21,1,0.009842,0.038386,0,0,270.0*
21,1,0.004921,0.043307,0,0,270.0*
1,1,0.004921,-0.019193,-0.002461*
1,1,0.004921,-0.019193,0.002461*
1,1,0.004921,0.019193,0.002461*
1,1,0.004921,0.019193,-0.002461*
%
%ADD75ROUNDEDRECTD75*%
%TA.AperFunction,ComponentPad*%
G04:AMPARAMS|DCode=78|XSize=25.591mil|YSize=70.866mil|CornerRadius=6.398mil|HoleSize=0mil|Usage=FLASHONLY|Rotation=270.000|XOffset=0mil|YOffset=0mil|HoleType=Round|Shape=RoundedRectangle|*
%AMROUNDEDRECTD78*
21,1,0.025591,0.058071,0,0,270.0*
21,1,0.012795,0.070866,0,0,270.0*
1,1,0.012795,-0.029035,-0.006398*
1,1,0.012795,-0.029035,0.006398*
1,1,0.012795,0.029035,0.006398*
1,1,0.012795,0.029035,-0.006398*
%
%ADD78ROUNDEDRECTD78*%
D14*
X469000Y808284D02*
D03*
Y843716D02*
D03*
X431000Y808284D02*
D03*
Y843716D02*
D03*
X542000Y712716D02*
D03*
Y677284D02*
D03*
D21*
X691141Y664048D02*
D03*
X655708D02*
D03*
X721141Y829048D02*
D03*
X685708D02*
D03*
D36*
X724424Y378018D02*
D03*
X86000Y889000D02*
D03*
X377948Y47248D02*
D03*
X185034D02*
D03*
X474404D02*
D03*
X281491D02*
D03*
X570861D02*
D03*
X763774D02*
D03*
X667317D02*
D03*
X529000Y808000D02*
D03*
X747000Y899000D02*
D03*
X90554Y47248D02*
D03*
D62*
X650473Y749058D02*
D03*
D64*
X708424Y164058D02*
D03*
X318424Y839058D02*
D03*
D67*
X763779Y1007875D02*
D03*
X74802D02*
D03*
D68*
X720472Y1024607D02*
D03*
X118109D02*
D03*
D69*
X645669Y948820D02*
D03*
X625984D02*
D03*
X606298D02*
D03*
X586613D02*
D03*
X566928D02*
D03*
X547243D02*
D03*
X527558D02*
D03*
X507873D02*
D03*
X488188D02*
D03*
X468503D02*
D03*
X448818D02*
D03*
X429133D02*
D03*
X409448D02*
D03*
X389763D02*
D03*
X370078D02*
D03*
X350393D02*
D03*
X330708D02*
D03*
X311023D02*
D03*
X291338D02*
D03*
X271653D02*
D03*
X251968D02*
D03*
X232283D02*
D03*
X212598D02*
D03*
X192913D02*
D03*
D70*
X650472Y719058D02*
D03*
X650473Y779058D02*
D03*
D71*
X732126Y713625D02*
D03*
Y784491D02*
D03*
X699764D02*
D03*
Y713625D02*
D03*
X732126Y749058D02*
D03*
D72*
X341733Y614173D02*
D03*
Y633859D02*
D03*
Y653543D02*
D03*
Y673229D02*
D03*
Y692913D02*
D03*
Y712599D02*
D03*
X496851D02*
D03*
Y692913D02*
D03*
Y673229D02*
D03*
Y653543D02*
D03*
Y633859D02*
D03*
Y614173D02*
D03*
D73*
X370079Y740945D02*
D03*
X389765D02*
D03*
X409449D02*
D03*
X429135D02*
D03*
X448819D02*
D03*
X468505D02*
D03*
Y585827D02*
D03*
X448819D02*
D03*
X429135D02*
D03*
X409449D02*
D03*
X389765D02*
D03*
X370079D02*
D03*
D74*
X419291Y663385D02*
D03*
D75*
X310828Y196852D02*
D03*
Y216536D02*
D03*
X527756Y196852D02*
D03*
Y216536D02*
D03*
X310828Y413386D02*
D03*
X527756D02*
D03*
Y393702D02*
D03*
X310828D02*
D03*
X527756Y374016D02*
D03*
X310828D02*
D03*
X527756Y354332D02*
D03*
X310828D02*
D03*
X527756Y334646D02*
D03*
X310828D02*
D03*
X527756Y314962D02*
D03*
X310828D02*
D03*
X527756Y295276D02*
D03*
X310828D02*
D03*
X527756Y275592D02*
D03*
X310828D02*
D03*
X527756Y255906D02*
D03*
X310828D02*
D03*
X527756Y236222D02*
D03*
X310828D02*
D03*
X527756Y177166D02*
D03*
X310828D02*
D03*
X527756Y157482D02*
D03*
X310828D02*
D03*
X527756Y137796D02*
D03*
X310828D02*
D03*
D78*
X0Y88190D02*
D03*
Y138190D02*
D03*
Y188190D02*
D03*
Y238190D02*
D03*
Y288190D02*
D03*
Y338190D02*
D03*
Y388190D02*
D03*
Y438190D02*
D03*
Y488190D02*
D03*
Y538190D02*
D03*
Y588190D02*
D03*
Y638190D02*
D03*
Y688190D02*
D03*
Y738190D02*
D03*
Y788190D02*
D03*
X838583Y88190D02*
D03*
Y138190D02*
D03*
Y188190D02*
D03*
Y238190D02*
D03*
Y288190D02*
D03*
Y338190D02*
D03*
Y388190D02*
D03*
Y438190D02*
D03*
Y488190D02*
D03*
Y538190D02*
D03*
Y588190D02*
D03*
Y638190D02*
D03*
Y688190D02*
D03*
Y738190D02*
D03*
Y788190D02*
D03*
%TF.MD5,ce52edc0efd77d4851cfdfdf8011ff42*%
M02*
