%TF.GenerationSoftware,Altium Limited,Altium Designer,20.1.11 (218)*%
G04 Layer_Color=128*
%FSLAX26Y26*%
%MOIN*%
%TF.SameCoordinates,F1652399-7491-40A6-9504-01A14B245E9D*%
%TF.FilePolarity,Positive*%
%TF.FileFunction,Paste,Bot*%
%TF.Part,Single*%
G01*
G75*
%TA.AperFunction,SMDPad,CuDef*%
G04:AMPARAMS|DCode=14|XSize=22.047mil|YSize=20.079mil|CornerRadius=5.02mil|HoleSize=0mil|Usage=FLASHONLY|Rotation=180.000|XOffset=0mil|YOffset=0mil|HoleType=Round|Shape=RoundedRectangle|*
%AMROUNDEDRECTD14*
21,1,0.022047,0.010040,0,0,180.0*
21,1,0.012008,0.020079,0,0,180.0*
1,1,0.010039,-0.006004,0.005020*
1,1,0.010039,0.006004,0.005020*
1,1,0.010039,0.006004,-0.005020*
1,1,0.010039,-0.006004,-0.005020*
%
%ADD14ROUNDEDRECTD14*%
G04:AMPARAMS|DCode=21|XSize=22.047mil|YSize=20.079mil|CornerRadius=5.02mil|HoleSize=0mil|Usage=FLASHONLY|Rotation=90.000|XOffset=0mil|YOffset=0mil|HoleType=Round|Shape=RoundedRectangle|*
%AMROUNDEDRECTD21*
21,1,0.022047,0.010040,0,0,90.0*
21,1,0.012008,0.020079,0,0,90.0*
1,1,0.010039,0.005020,0.006004*
1,1,0.010039,0.005020,-0.006004*
1,1,0.010039,-0.005020,-0.006004*
1,1,0.010039,-0.005020,0.006004*
%
%ADD21ROUNDEDRECTD21*%
%TA.AperFunction,NonConductor*%
%ADD61C,0.010000*%
%ADD66C,0.009842*%
%TA.AperFunction,SMDPad,CuDef*%
%ADD67R,0.043307X0.086614*%
%ADD68R,0.051181X0.120079*%
%ADD69R,0.011811X0.031496*%
%ADD70C,0.007874*%
%ADD71R,0.020551X0.023622*%
%ADD72R,0.031102X0.010236*%
%ADD73R,0.010236X0.031102*%
%ADD74R,0.106299X0.102362*%
G04:AMPARAMS|DCode=75|XSize=9.842mil|YSize=43.307mil|CornerRadius=2.461mil|HoleSize=0mil|Usage=FLASHONLY|Rotation=270.000|XOffset=0mil|YOffset=0mil|HoleType=Round|Shape=RoundedRectangle|*
%AMROUNDEDRECTD75*
21,1,0.009842,0.038386,0,0,270.0*
21,1,0.004921,0.043307,0,0,270.0*
1,1,0.004921,-0.019193,-0.002461*
1,1,0.004921,-0.019193,0.002461*
1,1,0.004921,0.019193,0.002461*
1,1,0.004921,0.019193,-0.002461*
%
%ADD75ROUNDEDRECTD75*%
G36*
X376331Y622441D02*
X414173D01*
Y658262D01*
X376331D01*
Y622441D01*
D02*
G37*
G36*
X376332Y668504D02*
X414173D01*
Y704375D01*
X376332D01*
Y668504D01*
D02*
G37*
G36*
X424416Y622441D02*
X462205D01*
Y658261D01*
X424416D01*
Y622441D01*
D02*
G37*
G36*
X424410Y668504D02*
X462205D01*
Y704337D01*
X424410D01*
Y668504D01*
D02*
G37*
D14*
X469000Y808284D02*
D03*
Y843716D02*
D03*
X431000Y808284D02*
D03*
Y843716D02*
D03*
X542000Y712716D02*
D03*
Y677284D02*
D03*
D21*
X691141Y664048D02*
D03*
X655708D02*
D03*
X721141Y829048D02*
D03*
X685708D02*
D03*
D61*
X680473Y749058D02*
G03*
X680473Y749058I-30000J0D01*
G01*
D66*
X-336000Y-264414D02*
Y-351000D01*
X-292707D01*
X-278276Y-336569D01*
Y-322138D01*
X-292707Y-307707D01*
X-336000D01*
X-292707D01*
X-278276Y-293276D01*
Y-278845D01*
X-292707Y-264414D01*
X-336000D01*
X-206121D02*
X-234983D01*
X-249414Y-278845D01*
Y-336569D01*
X-234983Y-351000D01*
X-206121D01*
X-191690Y-336569D01*
Y-278845D01*
X-206121Y-264414D01*
X-162828D02*
X-105103D01*
X-133965D01*
Y-351000D01*
X-76241Y-264414D02*
X-18517D01*
X-47379D01*
Y-351000D01*
X53638Y-264414D02*
X24776D01*
X10345Y-278845D01*
Y-336569D01*
X24776Y-351000D01*
X53638D01*
X68069Y-336569D01*
Y-278845D01*
X53638Y-264414D01*
X96931Y-351000D02*
Y-264414D01*
X125793Y-293276D01*
X154655Y-264414D01*
Y-351000D01*
X270103D02*
Y-264414D01*
X313397D01*
X327827Y-278845D01*
Y-307707D01*
X313397Y-322138D01*
X270103D01*
X356690Y-351000D02*
Y-293276D01*
X385552Y-264414D01*
X414414Y-293276D01*
Y-351000D01*
Y-307707D01*
X356690D01*
X501000Y-278845D02*
X486569Y-264414D01*
X457707D01*
X443276Y-278845D01*
Y-293276D01*
X457707Y-307707D01*
X486569D01*
X501000Y-322138D01*
Y-336569D01*
X486569Y-351000D01*
X457707D01*
X443276Y-336569D01*
X529862Y-264414D02*
X587586D01*
X558724D01*
Y-351000D01*
X674172Y-264414D02*
X616448D01*
Y-351000D01*
X674172D01*
X616448Y-307707D02*
X645310D01*
X789621Y-351000D02*
Y-264414D01*
X818483Y-293276D01*
X847345Y-264414D01*
Y-351000D01*
X876207D02*
Y-293276D01*
X905069Y-264414D01*
X933931Y-293276D01*
Y-351000D01*
Y-307707D01*
X876207D01*
X1020517Y-278845D02*
X1006086Y-264414D01*
X977224D01*
X962793Y-278845D01*
Y-293276D01*
X977224Y-307707D01*
X1006086D01*
X1020517Y-322138D01*
Y-336569D01*
X1006086Y-351000D01*
X977224D01*
X962793Y-336569D01*
X1049379Y-264414D02*
Y-351000D01*
Y-322138D01*
X1107103Y-264414D01*
X1063810Y-307707D01*
X1107103Y-351000D01*
D67*
X763779Y1007875D02*
D03*
X74802D02*
D03*
D68*
X720472Y1024607D02*
D03*
X118109D02*
D03*
D69*
X645669Y948820D02*
D03*
X625984D02*
D03*
X606298D02*
D03*
X586613D02*
D03*
X566928D02*
D03*
X547243D02*
D03*
X527558D02*
D03*
X507873D02*
D03*
X488188D02*
D03*
X468503D02*
D03*
X448818D02*
D03*
X429133D02*
D03*
X409448D02*
D03*
X389763D02*
D03*
X370078D02*
D03*
X350393D02*
D03*
X330708D02*
D03*
X311023D02*
D03*
X291338D02*
D03*
X271653D02*
D03*
X251968D02*
D03*
X232283D02*
D03*
X212598D02*
D03*
X192913D02*
D03*
D70*
X650472Y719058D02*
D03*
X650473Y779058D02*
D03*
D71*
X732126Y713625D02*
D03*
Y784491D02*
D03*
X699764D02*
D03*
Y713625D02*
D03*
X732126Y749058D02*
D03*
D72*
X341733Y614173D02*
D03*
Y633859D02*
D03*
Y653543D02*
D03*
Y673229D02*
D03*
Y692913D02*
D03*
Y712599D02*
D03*
X496851D02*
D03*
Y692913D02*
D03*
Y673229D02*
D03*
Y653543D02*
D03*
Y633859D02*
D03*
Y614173D02*
D03*
D73*
X370079Y740945D02*
D03*
X389765D02*
D03*
X409449D02*
D03*
X429135D02*
D03*
X448819D02*
D03*
X468505D02*
D03*
Y585827D02*
D03*
X448819D02*
D03*
X429135D02*
D03*
X409449D02*
D03*
X389765D02*
D03*
X370079D02*
D03*
D74*
X419291Y663385D02*
D03*
D75*
X310828Y196852D02*
D03*
Y216536D02*
D03*
X527756Y196852D02*
D03*
Y216536D02*
D03*
X310828Y413386D02*
D03*
X527756D02*
D03*
Y393702D02*
D03*
X310828D02*
D03*
X527756Y374016D02*
D03*
X310828D02*
D03*
X527756Y354332D02*
D03*
X310828D02*
D03*
X527756Y334646D02*
D03*
X310828D02*
D03*
X527756Y314962D02*
D03*
X310828D02*
D03*
X527756Y295276D02*
D03*
X310828D02*
D03*
X527756Y275592D02*
D03*
X310828D02*
D03*
X527756Y255906D02*
D03*
X310828D02*
D03*
X527756Y236222D02*
D03*
X310828D02*
D03*
X527756Y177166D02*
D03*
X310828D02*
D03*
X527756Y157482D02*
D03*
X310828D02*
D03*
X527756Y137796D02*
D03*
X310828D02*
D03*
%TF.MD5,5bcb1be129d41a88292a4181e0d076ca*%
M02*
