%TF.GenerationSoftware,Altium Limited,Altium Designer,20.1.11 (218)*%
G04 Layer_Physical_Order=3*
G04 Layer_Color=36540*
%FSLAX26Y26*%
%MOIN*%
%TF.SameCoordinates,F1652399-7491-40A6-9504-01A14B245E9D*%
%TF.FilePolarity,Positive*%
%TF.FileFunction,Copper,L3,Inr,Signal*%
%TF.Part,Single*%
G01*
G75*
%TA.AperFunction,Conductor*%
%ADD38C,0.005000*%
%ADD44C,0.015000*%
%TA.AperFunction,ComponentPad*%
%ADD62C,0.040000*%
%TA.AperFunction,ViaPad*%
%ADD64C,0.165000*%
%ADD65C,0.017716*%
%TA.AperFunction,NonConductor*%
%ADD66C,0.009842*%
G36*
X75806Y795051D02*
X75805Y535917D01*
X92840Y518883D01*
X95009Y515637D01*
X98255Y513468D01*
X136587Y475136D01*
X259984Y475136D01*
X295009Y440111D01*
X295009Y394033D01*
X279276Y378301D01*
X102301Y378301D01*
X56000Y332000D01*
Y277653D01*
X53870Y274465D01*
X52795Y269058D01*
X53870Y263651D01*
X56000Y260463D01*
X56000Y150408D01*
X126950Y79458D01*
X324115D01*
X350078Y53495D01*
Y8156D01*
X8156D01*
Y73421D01*
X12120Y76070D01*
X13546Y78203D01*
X19559D01*
X19563Y78197D01*
X24147Y75134D01*
X29554Y74058D01*
X34962Y75134D01*
X39546Y78197D01*
X42608Y82781D01*
X43684Y88188D01*
X42608Y93595D01*
X39546Y98179D01*
X34962Y101242D01*
X29554Y102318D01*
X24147Y101242D01*
X19563Y98179D01*
X19560Y98175D01*
X13547D01*
X12120Y100310D01*
X8156Y102959D01*
Y123421D01*
X12120Y126070D01*
X13546Y128203D01*
X19559D01*
X19563Y128197D01*
X24147Y125134D01*
X29554Y124058D01*
X34962Y125134D01*
X39546Y128197D01*
X42608Y132781D01*
X43684Y138188D01*
X42608Y143595D01*
X39546Y148179D01*
X34962Y151242D01*
X29554Y152318D01*
X24147Y151242D01*
X19563Y148179D01*
X19560Y148175D01*
X13547D01*
X12120Y150310D01*
X8156Y152959D01*
Y173421D01*
X12120Y176070D01*
X13546Y178203D01*
X19559D01*
X19563Y178197D01*
X24147Y175134D01*
X29554Y174058D01*
X34962Y175134D01*
X39546Y178197D01*
X42608Y182781D01*
X43684Y188188D01*
X42608Y193595D01*
X39546Y198179D01*
X34962Y201242D01*
X29554Y202318D01*
X24147Y201242D01*
X19563Y198179D01*
X19560Y198175D01*
X13547D01*
X12120Y200310D01*
X8156Y202959D01*
Y223421D01*
X12120Y226070D01*
X13546Y228203D01*
X19559D01*
X19563Y228197D01*
X24147Y225134D01*
X29554Y224058D01*
X34962Y225134D01*
X39546Y228197D01*
X42608Y232781D01*
X43684Y238188D01*
X42608Y243595D01*
X39546Y248179D01*
X34962Y251242D01*
X29554Y252318D01*
X24147Y251242D01*
X19563Y248179D01*
X19560Y248175D01*
X13547D01*
X12120Y250310D01*
X8156Y252959D01*
Y273421D01*
X12120Y276070D01*
X13546Y278203D01*
X19559D01*
X19563Y278197D01*
X24147Y275134D01*
X29554Y274058D01*
X34962Y275134D01*
X39546Y278197D01*
X42608Y282781D01*
X43684Y288188D01*
X42608Y293595D01*
X39546Y298179D01*
X34962Y301242D01*
X29554Y302318D01*
X24147Y301242D01*
X19563Y298179D01*
X19560Y298175D01*
X13547D01*
X12120Y300310D01*
X8156Y302959D01*
Y323421D01*
X12120Y326070D01*
X13546Y328203D01*
X19559D01*
X19563Y328197D01*
X24147Y325134D01*
X29554Y324058D01*
X34962Y325134D01*
X39546Y328197D01*
X42608Y332781D01*
X43684Y338188D01*
X42608Y343595D01*
X39546Y348179D01*
X34962Y351242D01*
X29554Y352318D01*
X24147Y351242D01*
X19563Y348179D01*
X19560Y348175D01*
X13547D01*
X12120Y350310D01*
X8156Y352959D01*
Y373421D01*
X12120Y376070D01*
X13546Y378203D01*
X19559D01*
X19563Y378197D01*
X24147Y375134D01*
X29554Y374058D01*
X34962Y375134D01*
X39546Y378197D01*
X42608Y382781D01*
X43684Y388188D01*
X42608Y393595D01*
X39546Y398179D01*
X34962Y401242D01*
X29554Y402318D01*
X24147Y401242D01*
X19563Y398179D01*
X19560Y398175D01*
X13547D01*
X12120Y400310D01*
X8156Y402959D01*
Y423421D01*
X12120Y426070D01*
X13546Y428203D01*
X19559D01*
X19563Y428197D01*
X24147Y425134D01*
X29554Y424058D01*
X34962Y425134D01*
X39546Y428197D01*
X42608Y432781D01*
X43684Y438188D01*
X42608Y443595D01*
X39546Y448179D01*
X34962Y451242D01*
X29554Y452318D01*
X24147Y451242D01*
X19563Y448179D01*
X19560Y448175D01*
X13547D01*
X12120Y450310D01*
X8156Y452959D01*
Y473421D01*
X12120Y476070D01*
X13546Y478203D01*
X19559D01*
X19563Y478197D01*
X24147Y475134D01*
X29554Y474058D01*
X34962Y475134D01*
X39546Y478197D01*
X42608Y482781D01*
X43684Y488188D01*
X42608Y493595D01*
X39546Y498179D01*
X34962Y501242D01*
X29554Y502318D01*
X24147Y501242D01*
X19563Y498179D01*
X19560Y498175D01*
X13547D01*
X12120Y500310D01*
X8156Y502959D01*
Y523421D01*
X12120Y526070D01*
X13546Y528203D01*
X19559D01*
X19563Y528197D01*
X24147Y525134D01*
X29554Y524058D01*
X34962Y525134D01*
X39546Y528197D01*
X42608Y532781D01*
X43684Y538188D01*
X42608Y543595D01*
X39546Y548179D01*
X34962Y551242D01*
X29554Y552318D01*
X24147Y551242D01*
X19563Y548179D01*
X19560Y548175D01*
X13547D01*
X12120Y550310D01*
X8156Y552959D01*
Y573421D01*
X12120Y576070D01*
X13546Y578203D01*
X19559D01*
X19563Y578197D01*
X24147Y575134D01*
X29554Y574058D01*
X34962Y575134D01*
X39546Y578197D01*
X42608Y582781D01*
X43684Y588188D01*
X42608Y593595D01*
X39546Y598179D01*
X34962Y601242D01*
X29554Y602318D01*
X24147Y601242D01*
X19563Y598179D01*
X19560Y598175D01*
X13547D01*
X12120Y600310D01*
X8156Y602959D01*
Y623421D01*
X12120Y626070D01*
X13546Y628203D01*
X19559D01*
X19563Y628197D01*
X24147Y625134D01*
X29554Y624058D01*
X34962Y625134D01*
X39546Y628197D01*
X42608Y632781D01*
X43684Y638188D01*
X42608Y643595D01*
X39546Y648179D01*
X34962Y651242D01*
X29554Y652318D01*
X24147Y651242D01*
X19563Y648179D01*
X19560Y648175D01*
X13547D01*
X12120Y650310D01*
X8156Y652959D01*
Y673421D01*
X12120Y676070D01*
X13546Y678203D01*
X19559D01*
X19563Y678197D01*
X24147Y675134D01*
X29554Y674058D01*
X34962Y675134D01*
X39546Y678197D01*
X42608Y682781D01*
X43684Y688188D01*
X42608Y693595D01*
X39546Y698179D01*
X34962Y701242D01*
X29554Y702318D01*
X24147Y701242D01*
X19563Y698179D01*
X19560Y698175D01*
X13547D01*
X12120Y700310D01*
X8156Y702959D01*
Y723421D01*
X12120Y726070D01*
X13546Y728203D01*
X19559D01*
X19563Y728197D01*
X24147Y725134D01*
X29554Y724058D01*
X34962Y725134D01*
X39546Y728197D01*
X42608Y732781D01*
X43684Y738188D01*
X42608Y743595D01*
X39546Y748179D01*
X34962Y751242D01*
X29554Y752318D01*
X24147Y751242D01*
X19563Y748179D01*
X19560Y748175D01*
X13547D01*
X12120Y750310D01*
X8156Y752959D01*
Y822532D01*
X48324D01*
X75806Y795051D01*
D02*
G37*
%LPC*%
G36*
X63424Y518188D02*
X58017Y517112D01*
X53433Y514049D01*
X50370Y509465D01*
X49295Y504058D01*
X50370Y498651D01*
X53433Y494067D01*
X58017Y491004D01*
X63424Y489928D01*
X68832Y491004D01*
X73416Y494067D01*
X76478Y498651D01*
X77554Y504058D01*
X76478Y509465D01*
X73416Y514049D01*
X68832Y517112D01*
X63424Y518188D01*
D02*
G37*
G36*
X275594Y421878D02*
X270187Y420802D01*
X265603Y417739D01*
X262540Y413155D01*
X261465Y407748D01*
X262540Y402341D01*
X265603Y397757D01*
X270187Y394694D01*
X275594Y393618D01*
X281002Y394694D01*
X285586Y397757D01*
X288649Y402341D01*
X289724Y407748D01*
X288649Y413155D01*
X285586Y417739D01*
X281002Y420802D01*
X275594Y421878D01*
D02*
G37*
G36*
X328000Y56130D02*
X322593Y55054D01*
X318009Y51991D01*
X314946Y47407D01*
X313870Y42000D01*
X314946Y36593D01*
X318009Y32009D01*
X322593Y28946D01*
X328000Y27870D01*
X333407Y28946D01*
X337991Y32009D01*
X341054Y36593D01*
X342130Y42000D01*
X341054Y47407D01*
X337991Y51991D01*
X333407Y55054D01*
X328000Y56130D01*
D02*
G37*
%LPD*%
D38*
X758724Y387638D02*
Y435998D01*
X745064Y449658D02*
X758724Y435998D01*
X369000Y674000D02*
X455000Y760000D01*
Y813000D02*
X502000Y860000D01*
X455000Y760000D02*
Y813000D01*
X433000Y769000D02*
Y860000D01*
X381000Y717000D02*
X433000Y769000D01*
Y860000D02*
X456000Y883000D01*
X324000Y717000D02*
X381000D01*
X289866Y674000D02*
X369000D01*
X473424Y1033925D02*
Y1047424D01*
X485576Y1059576D02*
X624749D01*
X473424Y1047424D02*
X485576Y1059576D01*
X624749D02*
X674000Y1010324D01*
X534925Y783925D02*
X598000Y847000D01*
X626000D02*
X674000Y895000D01*
X598000Y847000D02*
X626000D01*
X534925Y739000D02*
Y783925D01*
X489000Y564000D02*
Y768000D01*
X568000Y847000D02*
Y940754D01*
X489000Y768000D02*
X568000Y847000D01*
X153424Y327058D02*
X181424Y355058D01*
X153424Y230881D02*
Y327058D01*
X111000Y188456D02*
X153424Y230881D01*
X162000Y593000D02*
Y658963D01*
X188424Y685388D01*
X162000Y593000D02*
X263000Y492000D01*
X298000D01*
X330175Y459825D01*
Y355277D02*
Y459825D01*
X219424Y277058D02*
X251956D01*
X330175Y355277D01*
X269000Y508000D02*
X322641D01*
X212599Y564402D02*
Y685388D01*
Y564402D02*
X269000Y508000D01*
X187931Y525628D02*
X191559Y522000D01*
X195000D01*
X105000Y525628D02*
X187931D01*
X274824Y658958D02*
X289866Y674000D01*
X534925Y695233D02*
X564000Y666158D01*
X534925Y695233D02*
Y739000D01*
X276942Y525058D02*
X314124D01*
X322641Y508000D02*
X332776Y518135D01*
X498424Y223424D02*
Y308358D01*
X476424Y166576D02*
Y201424D01*
X498424Y223424D01*
X460424Y152576D02*
Y366058D01*
X485424Y101058D02*
Y127576D01*
X460424Y152576D02*
X485424Y127576D01*
X495796Y87953D02*
Y147204D01*
X476424Y166576D02*
X495796Y147204D01*
X498424Y308358D02*
X564824Y374758D01*
X530642Y268031D02*
X548048Y285438D01*
X520642Y100383D02*
Y291265D01*
X510642Y299275D02*
X569224Y357858D01*
X520642Y100383D02*
X530000Y91024D01*
X520642Y291265D02*
X573134Y343758D01*
X530642Y105224D02*
Y268031D01*
X510642Y96240D02*
Y299275D01*
Y96240D02*
X516000Y90882D01*
X530642Y105224D02*
X580748Y55118D01*
X408623Y99746D02*
X445903Y62466D01*
X408623Y99746D02*
Y112058D01*
X696942Y47058D02*
X732424D01*
X609842Y134158D02*
X696942Y47058D01*
X591824Y134158D02*
X609842D01*
X591224Y117058D02*
X601424D01*
X554434Y175448D02*
Y221068D01*
Y175448D02*
X575124Y154758D01*
X554434Y221068D02*
X581424Y248058D01*
X557552Y268858D02*
X614924D01*
X542266Y141082D02*
Y253572D01*
X557552Y268858D01*
X548048Y285438D02*
X581774D01*
X648800Y278254D02*
X657720D01*
X615114Y244568D02*
X648800Y278254D01*
X657720D02*
X669752Y290285D01*
X504758Y514758D02*
X524000Y534000D01*
Y550000D01*
X473017Y514758D02*
X504758D01*
X493000Y484000D02*
X521000D01*
X558000Y521000D02*
Y605164D01*
X521000Y484000D02*
X558000Y521000D01*
X423424Y414424D02*
X493000Y484000D01*
X313000Y728000D02*
X324000Y717000D01*
X301000Y728000D02*
X313000D01*
X503000Y631642D02*
Y726000D01*
X512000Y735000D02*
Y735000D01*
X503000Y726000D02*
X512000Y735000D01*
X503000Y631642D02*
X516642Y618000D01*
X568000Y940754D02*
X605677Y978431D01*
X674000Y895000D02*
Y1010324D01*
X612357Y1209785D02*
X690000Y1132142D01*
Y696683D02*
Y1132142D01*
X728724Y459338D02*
X742424Y473038D01*
X728724Y456458D02*
Y459338D01*
X728704Y456438D02*
X728724Y456458D01*
X728704Y442878D02*
Y456438D01*
Y442878D02*
X747024Y424558D01*
X713224Y444208D02*
X734358Y423074D01*
Y366592D02*
Y423074D01*
X713224Y444208D02*
Y499458D01*
X747024Y378658D02*
Y424558D01*
X725642Y337041D02*
Y357875D01*
X699458Y310858D02*
X725642Y337041D01*
X680224Y310858D02*
X699458D01*
X725642Y357875D02*
X734358Y366592D01*
X704388Y375784D02*
Y389336D01*
X675424Y418299D02*
Y524758D01*
X694801Y366198D02*
X704388Y375784D01*
X675424Y418299D02*
X704388Y389336D01*
X657624Y382558D02*
X688027D01*
X663164Y366198D02*
X694801D01*
X688027Y382558D02*
X688029Y382560D01*
X693424Y414442D02*
X715033Y392833D01*
Y342602D02*
Y392833D01*
X693424Y414442D02*
Y464058D01*
X692874Y327408D02*
X699838D01*
X715033Y342602D01*
X93424Y1022576D02*
X222000Y894000D01*
Y792710D02*
X255000Y759710D01*
X222000Y792710D02*
Y894000D01*
X93424Y1022576D02*
Y1099058D01*
X423424Y157288D02*
Y414424D01*
X516642Y618000D02*
X545164D01*
X558000Y605164D01*
X460424Y366058D02*
X593000Y498634D01*
X332776Y536418D02*
X349357Y553000D01*
X434774D01*
X332776Y518135D02*
Y536418D01*
X434774Y553000D02*
X473017Y514758D01*
X527000Y638000D02*
X559000D01*
X409276Y437980D02*
X443424Y472129D01*
X716000Y769000D02*
X762782D01*
X707000Y760000D02*
X716000Y769000D01*
X423424Y157288D02*
X468504Y112208D01*
X733000Y663934D02*
X770124Y701058D01*
X733000Y624000D02*
X755924Y601076D01*
X733000Y624000D02*
Y663934D01*
X755924Y560868D02*
Y601076D01*
X720824Y571176D02*
Y681458D01*
X752994Y713628D01*
X690000Y696683D02*
X708424Y678259D01*
X781124Y685058D02*
Y750658D01*
Y685058D02*
X791624Y674558D01*
Y556288D02*
Y674558D01*
Y556288D02*
X809724Y538188D01*
X762782Y769000D02*
X781124Y750658D01*
X640724Y343758D02*
X663164Y366198D01*
X655024Y522558D02*
X708424Y575958D01*
Y678259D01*
X720824Y571176D02*
X761724Y530276D01*
X593000Y498634D02*
Y604000D01*
Y443483D02*
Y479000D01*
X606000Y492000D02*
Y610258D01*
X593000Y479000D02*
X606000Y492000D01*
X593000Y443483D02*
X609424Y427058D01*
Y427058D02*
Y427058D01*
X564000Y652258D02*
X606000Y610258D01*
X564000Y652258D02*
Y666158D01*
X559000Y638000D02*
X593000Y604000D01*
X255000Y547000D02*
X276942Y525058D01*
X255000Y547000D02*
Y759710D01*
X437824Y919958D02*
X456000Y901782D01*
Y883000D02*
Y901782D01*
X419140Y531774D02*
X434282D01*
X443424Y522632D01*
Y472129D02*
Y522632D01*
X614924Y268858D02*
X628224Y282158D01*
Y297858D02*
X657774Y327408D01*
X628224Y282158D02*
Y297858D01*
X232284Y1003318D02*
X241524Y1012558D01*
X232284Y979058D02*
Y1003318D01*
X430000Y1032127D02*
Y1079000D01*
X419000Y1090000D02*
Y1137000D01*
Y1090000D02*
X430000Y1079000D01*
X689924Y539258D02*
X706924D01*
X717724Y528458D01*
X693624Y519058D02*
X713224Y499458D01*
X693424Y519058D02*
X693624D01*
X675424Y524758D02*
X689924Y539258D01*
X761724Y486188D02*
Y530276D01*
X440642Y1078642D02*
X486296Y1124296D01*
X440642Y1039358D02*
Y1078642D01*
Y1039358D02*
X486424Y993576D01*
X430000Y1032127D02*
X463704Y998423D01*
X419000Y1137000D02*
X436850Y1154850D01*
X486296Y1124296D02*
Y1138479D01*
X486284Y1138492D02*
X486296Y1138479D01*
X605677Y978431D02*
X606931D01*
X187301Y1209785D02*
X612357D01*
X486424Y978958D02*
Y993576D01*
X463704Y978958D02*
Y998423D01*
X436850Y1154850D02*
X497067D01*
X509000Y1134000D02*
Y1142917D01*
X497067Y1154850D02*
X509000Y1142917D01*
X270385Y966243D02*
X407467D01*
X430000Y988776D01*
X151574Y1174058D02*
X187301Y1209785D01*
X253424Y983204D02*
X270385Y966243D01*
X253424Y983204D02*
Y993458D01*
X241524Y1012558D02*
X391924D01*
X773399Y297208D02*
X773504Y297313D01*
Y372858D01*
X516000Y82000D02*
Y90882D01*
X496466Y62466D02*
X516000Y82000D01*
X445903Y62466D02*
X496466D01*
X530000Y70000D02*
Y91024D01*
X580748Y55118D02*
X637424D01*
X605290Y78058D02*
X636424D01*
X542266Y141082D02*
X605290Y78058D01*
X669752Y290285D02*
Y300385D01*
X680224Y310858D01*
X680594Y286028D02*
Y294610D01*
X686842Y300858D01*
X615624Y221058D02*
X680594Y286028D01*
X686842Y300858D02*
X713443D01*
X601924Y189058D02*
X696954Y284088D01*
X718243Y296058D02*
X746424D01*
X713443Y300858D02*
X718243Y296058D01*
X761724Y311358D02*
Y363958D01*
X746424Y296058D02*
X761724Y311358D01*
X391924Y1012558D02*
X412424Y1033058D01*
X715000Y835682D02*
Y855000D01*
X575124Y133158D02*
X591224Y117058D01*
X575124Y133158D02*
Y154758D01*
X753424Y749058D02*
X770124Y732358D01*
Y701058D02*
Y732358D01*
X755924Y560868D02*
X809724Y507068D01*
Y488188D02*
Y507068D01*
X573134Y343758D02*
X640724D01*
X472424Y88058D02*
X485424Y101058D01*
X792424Y705488D02*
X809724Y688188D01*
X792424Y705488D02*
Y758258D01*
X761724Y486188D02*
X809724Y438188D01*
X655024Y448158D02*
Y522558D01*
X581624Y374758D02*
X655024Y448158D01*
X564824Y374758D02*
X581624D01*
X657774Y327408D02*
X692874D01*
X582424Y161658D02*
Y181058D01*
Y161658D02*
X585564Y158518D01*
Y140418D02*
Y158518D01*
Y140418D02*
X591824Y134158D01*
X632924Y357858D02*
X657624Y382558D01*
X569224Y357858D02*
X632924D01*
X601924Y152658D02*
Y189058D01*
X747024Y378658D02*
X761724Y363958D01*
X599424Y221058D02*
X615624D01*
X582424Y204058D02*
X599424Y221058D01*
X758724Y387638D02*
X773504Y372858D01*
X715000Y835682D02*
X792424Y758258D01*
D44*
X386137Y912863D02*
Y945426D01*
X405000Y894000D02*
X436000D01*
X386137Y912863D02*
X405000Y894000D01*
X136172Y1079172D02*
X238000Y1181000D01*
X570278D02*
X648278Y1103000D01*
X238000Y1181000D02*
X570278D01*
X136172Y1015249D02*
Y1079172D01*
X386137Y945426D02*
X485388D01*
X494174Y919008D02*
Y936639D01*
X485388Y945426D02*
X494174Y936639D01*
X251974Y945426D02*
X386137D01*
X251974Y919058D02*
Y945426D01*
X205995D02*
X251974D01*
X136172Y1015249D02*
X205995Y945426D01*
D62*
X650473Y749058D02*
D03*
D64*
X708424Y164058D02*
D03*
X318424Y839058D02*
D03*
D65*
X496558Y1033925D02*
D03*
X111000Y188456D02*
D03*
X185034Y629458D02*
D03*
X314124Y525058D02*
D03*
X574358Y597000D02*
D03*
X219424Y277058D02*
D03*
X296352Y466986D02*
D03*
X557642Y747067D02*
D03*
X188424Y685388D02*
D03*
X393704Y1124058D02*
D03*
X524924Y987058D02*
D03*
X233724Y636158D02*
D03*
X274824Y658958D02*
D03*
X105000Y525628D02*
D03*
X98424Y659058D02*
D03*
X590642Y708000D02*
D03*
Y756000D02*
D03*
X534925Y739000D02*
D03*
X165354Y204058D02*
D03*
X328000Y42000D02*
D03*
X311000Y67000D02*
D03*
X212599Y685388D02*
D03*
X312124Y550058D02*
D03*
X326002Y491991D02*
D03*
X547000Y112000D02*
D03*
X601424Y117058D02*
D03*
X619094Y911418D02*
D03*
X585584Y919058D02*
D03*
X399934Y776066D02*
D03*
X745064Y449658D02*
D03*
X743000Y348000D02*
D03*
X688029Y382560D02*
D03*
X718000Y413000D02*
D03*
X90554Y692918D02*
D03*
X124503Y1102979D02*
D03*
X183424Y1094058D02*
D03*
X161414Y1031498D02*
D03*
X207000Y979000D02*
D03*
X495000Y808000D02*
D03*
X541283Y597345D02*
D03*
X504424Y446058D02*
D03*
X541642Y531775D02*
D03*
X350424Y523426D02*
D03*
X486284Y534258D02*
D03*
X355524Y490058D02*
D03*
X154642Y791265D02*
D03*
X619094Y875988D02*
D03*
X489000Y564000D02*
D03*
X527000Y638000D02*
D03*
X477693Y437817D02*
D03*
X390000Y450000D02*
D03*
X409276Y437980D02*
D03*
X405424Y492058D02*
D03*
X610714Y634058D02*
D03*
X573000Y687000D02*
D03*
X707000Y760000D02*
D03*
X582642Y791067D02*
D03*
X658424Y844058D02*
D03*
X667324Y579758D02*
D03*
X691144Y639058D02*
D03*
X183424Y1049068D02*
D03*
X362204Y1124058D02*
D03*
X277124Y434358D02*
D03*
X622724Y477958D02*
D03*
X327000Y742000D02*
D03*
X542030Y655034D02*
D03*
X527564Y575481D02*
D03*
X308324Y629458D02*
D03*
X502000Y860000D02*
D03*
X546035Y895368D02*
D03*
X468580Y865304D02*
D03*
X436000Y894000D02*
D03*
X523424Y849048D02*
D03*
X308674Y656794D02*
D03*
X470584Y919928D02*
D03*
X308000Y704000D02*
D03*
X301000Y728000D02*
D03*
X524000Y550000D02*
D03*
X494174Y919008D02*
D03*
X512000Y735000D02*
D03*
X466000Y553000D02*
D03*
X419140Y531774D02*
D03*
X422424Y509058D02*
D03*
X275594Y407748D02*
D03*
X197724Y491058D02*
D03*
X310924Y592558D02*
D03*
X287216Y691366D02*
D03*
X29554Y138188D02*
D03*
Y238188D02*
D03*
Y288188D02*
D03*
Y388188D02*
D03*
Y438188D02*
D03*
Y538188D02*
D03*
Y638188D02*
D03*
Y688188D02*
D03*
Y788188D02*
D03*
X31134Y871338D02*
D03*
X38000Y1008000D02*
D03*
X114174Y155518D02*
D03*
X112174Y120078D02*
D03*
X86614Y204058D02*
D03*
X112924Y354558D02*
D03*
X93424Y444058D02*
D03*
X90554Y783468D02*
D03*
X117824Y928158D02*
D03*
X117899Y952274D02*
D03*
X93424Y1099058D02*
D03*
X100394Y1174058D02*
D03*
X157484Y155518D02*
D03*
Y120078D02*
D03*
X195264Y204058D02*
D03*
X188424Y279058D02*
D03*
X181424Y355058D02*
D03*
X153424Y354058D02*
D03*
X195000Y522000D02*
D03*
X200714Y881348D02*
D03*
X157508Y930492D02*
D03*
X275594Y113348D02*
D03*
X274424Y148058D02*
D03*
X251424Y155058D02*
D03*
X255424Y206698D02*
D03*
X251974Y919058D02*
D03*
X253424Y993458D02*
D03*
X333424Y114058D02*
D03*
X330624Y1037458D02*
D03*
X338424Y1080058D02*
D03*
X362424Y1079058D02*
D03*
X425204Y59058D02*
D03*
X401574Y236228D02*
D03*
X440944D02*
D03*
X401574Y314968D02*
D03*
Y275598D02*
D03*
X440944Y314968D02*
D03*
Y275598D02*
D03*
X401574Y354968D02*
D03*
X440944D02*
D03*
X414524Y919058D02*
D03*
X437824Y919958D02*
D03*
X412424Y1033058D02*
D03*
X443135Y1124830D02*
D03*
X480314Y236228D02*
D03*
Y314968D02*
D03*
Y275598D02*
D03*
Y354968D02*
D03*
X473424Y1033925D02*
D03*
X558624Y147858D02*
D03*
X601924Y152658D02*
D03*
X582424Y204058D02*
D03*
X598424Y305118D02*
D03*
X581774Y324808D02*
D03*
Y285438D02*
D03*
X583424Y1009058D02*
D03*
X637424Y55118D02*
D03*
X636424Y78058D02*
D03*
X649424Y295058D02*
D03*
X646144Y634058D02*
D03*
X648278Y1103000D02*
D03*
X732424Y47058D02*
D03*
X746424Y296058D02*
D03*
X742424Y473038D02*
D03*
X717724Y528458D02*
D03*
X752994Y713628D02*
D03*
X715000Y855000D02*
D03*
X763784Y949418D02*
D03*
X720474Y949058D02*
D03*
X809724Y138188D02*
D03*
Y238188D02*
D03*
Y288188D02*
D03*
Y388188D02*
D03*
Y438188D02*
D03*
Y538188D02*
D03*
Y638188D02*
D03*
Y688188D02*
D03*
Y788188D02*
D03*
X805714Y1021338D02*
D03*
X29554Y188188D02*
D03*
Y88188D02*
D03*
X39499Y31500D02*
D03*
X29554Y488188D02*
D03*
Y338188D02*
D03*
Y738188D02*
D03*
Y588188D02*
D03*
X35748Y906768D02*
D03*
X76384Y104058D02*
D03*
X124014Y269058D02*
D03*
X93424Y830708D02*
D03*
X188424Y99058D02*
D03*
X233424Y174058D02*
D03*
X253424Y246068D02*
D03*
X250224Y337758D02*
D03*
X273424Y1064058D02*
D03*
X275704Y984058D02*
D03*
X232284Y979058D02*
D03*
X337424Y90058D02*
D03*
X353741Y982601D02*
D03*
X432424Y112058D02*
D03*
X408623D02*
D03*
X396812Y985658D02*
D03*
X430000Y988776D02*
D03*
X472424Y88058D02*
D03*
X495796Y87953D02*
D03*
X486424Y978958D02*
D03*
X509000Y1134000D02*
D03*
X486284Y1138492D02*
D03*
X582424Y181058D02*
D03*
X581424Y248058D02*
D03*
X563424Y407058D02*
D03*
X560424Y430058D02*
D03*
X561424Y982058D02*
D03*
X658424Y819058D02*
D03*
X633424Y664048D02*
D03*
X648424Y989048D02*
D03*
X742424Y497058D02*
D03*
X753424Y749058D02*
D03*
X748424Y829058D02*
D03*
X738524Y577558D02*
D03*
X809724Y188188D02*
D03*
Y88188D02*
D03*
Y488188D02*
D03*
Y338188D02*
D03*
Y738188D02*
D03*
Y588188D02*
D03*
X805714Y1056778D02*
D03*
X803424Y989058D02*
D03*
Y909058D02*
D03*
X228424Y124018D02*
D03*
X225424Y229058D02*
D03*
X53424Y849048D02*
D03*
X151574Y1174058D02*
D03*
X367424Y84648D02*
D03*
X450464Y81038D02*
D03*
X530000Y70000D02*
D03*
X368114Y114178D02*
D03*
X548424Y919058D02*
D03*
X530424Y1034058D02*
D03*
X378424D02*
D03*
X530000Y1121000D02*
D03*
X615114Y244568D02*
D03*
X621424Y315058D02*
D03*
X696954Y284088D02*
D03*
X773399Y297208D02*
D03*
X627424Y395058D02*
D03*
X693424Y464058D02*
D03*
Y519058D02*
D03*
X775584Y852368D02*
D03*
X783424Y1079068D02*
D03*
X63424Y504058D02*
D03*
X66924Y269058D02*
D03*
X468504Y112208D02*
D03*
X311024Y984058D02*
D03*
X463704Y978958D02*
D03*
X465757Y1126892D02*
D03*
X457000Y1051000D02*
D03*
X693424Y492718D02*
D03*
X614924Y268858D02*
D03*
X609424Y427058D02*
D03*
X698674Y349378D02*
D03*
X692874Y327408D02*
D03*
X777824Y431858D02*
D03*
X773024Y579458D02*
D03*
X768424Y664058D02*
D03*
X606931Y978431D02*
D03*
D66*
X-373806Y-267743D02*
Y-354330D01*
X-316082D01*
X-287219D02*
Y-296606D01*
X-258357Y-267743D01*
X-229495Y-296606D01*
Y-354330D01*
Y-311037D01*
X-287219D01*
X-200633Y-267743D02*
Y-282175D01*
X-171771Y-311037D01*
X-142909Y-282175D01*
Y-267743D01*
X-171771Y-311037D02*
Y-354330D01*
X-56323Y-267743D02*
X-114047D01*
Y-354330D01*
X-56323D01*
X-114047Y-311037D02*
X-85185D01*
X-27461Y-354330D02*
Y-267743D01*
X15832D01*
X30263Y-282175D01*
Y-311037D01*
X15832Y-325468D01*
X-27461D01*
X1401D02*
X30263Y-354330D01*
X145712Y-282175D02*
X160143Y-267743D01*
X189005D01*
X203436Y-282175D01*
Y-296606D01*
X189005Y-311037D01*
X174574D01*
X189005D01*
X203436Y-325468D01*
Y-339899D01*
X189005Y-354330D01*
X160143D01*
X145712Y-339899D01*
X318884Y-311037D02*
X376608D01*
X492056Y-354330D02*
Y-267743D01*
X520918Y-296606D01*
X549780Y-267743D01*
Y-354330D01*
X578643Y-267743D02*
X607505D01*
X593074D01*
Y-354330D01*
X578643D01*
X607505D01*
X650798Y-267743D02*
Y-354330D01*
X694091D01*
X708522Y-339899D01*
Y-282175D01*
X694091Y-267743D01*
X650798D01*
X737384D02*
Y-354330D01*
X795108D01*
X823970D02*
Y-296606D01*
X852832Y-267743D01*
X881694Y-296606D01*
Y-354330D01*
Y-311037D01*
X823970D01*
X910556Y-267743D02*
Y-282175D01*
X939418Y-311037D01*
X968280Y-282175D01*
Y-267743D01*
X939418Y-311037D02*
Y-354330D01*
X1054867Y-267743D02*
X997143D01*
Y-354330D01*
X1054867D01*
X997143Y-311037D02*
X1026005D01*
X1083729Y-354330D02*
Y-267743D01*
X1127022D01*
X1141453Y-282175D01*
Y-311037D01*
X1127022Y-325468D01*
X1083729D01*
X1112591D02*
X1141453Y-354330D01*
X1256901D02*
X1285763D01*
X1271332D01*
Y-267743D01*
X1256901Y-282175D01*
%TF.MD5,25d674ad3b52a6c836aca443ed2ad339*%
M02*
