%TF.GenerationSoftware,Altium Limited,Altium Designer,20.1.11 (218)*%
G04 Layer_Color=8421504*
%FSLAX26Y26*%
%MOIN*%
%TF.SameCoordinates,F1652399-7491-40A6-9504-01A14B245E9D*%
%TF.FilePolarity,Positive*%
%TF.FileFunction,Paste,Top*%
%TF.Part,Single*%
G01*
G75*
%TA.AperFunction,SMDPad,CuDef*%
%ADD10R,0.035039X0.011811*%
%ADD11R,0.007874X0.062992*%
%ADD12R,0.039370X0.055118*%
G04:AMPARAMS|DCode=13|XSize=27.559mil|YSize=20.079mil|CornerRadius=5.02mil|HoleSize=0mil|Usage=FLASHONLY|Rotation=90.000|XOffset=0mil|YOffset=0mil|HoleType=Round|Shape=RoundedRectangle|*
%AMROUNDEDRECTD13*
21,1,0.027559,0.010040,0,0,90.0*
21,1,0.017520,0.020079,0,0,90.0*
1,1,0.010039,0.005020,0.008760*
1,1,0.010039,0.005020,-0.008760*
1,1,0.010039,-0.005020,-0.008760*
1,1,0.010039,-0.005020,0.008760*
%
%ADD13ROUNDEDRECTD13*%
G04:AMPARAMS|DCode=14|XSize=22.047mil|YSize=20.079mil|CornerRadius=5.02mil|HoleSize=0mil|Usage=FLASHONLY|Rotation=180.000|XOffset=0mil|YOffset=0mil|HoleType=Round|Shape=RoundedRectangle|*
%AMROUNDEDRECTD14*
21,1,0.022047,0.010040,0,0,180.0*
21,1,0.012008,0.020079,0,0,180.0*
1,1,0.010039,-0.006004,0.005020*
1,1,0.010039,0.006004,0.005020*
1,1,0.010039,0.006004,-0.005020*
1,1,0.010039,-0.006004,-0.005020*
%
%ADD14ROUNDEDRECTD14*%
G04:AMPARAMS|DCode=15|XSize=25.591mil|YSize=15.748mil|CornerRadius=3.937mil|HoleSize=0mil|Usage=FLASHONLY|Rotation=180.000|XOffset=0mil|YOffset=0mil|HoleType=Round|Shape=RoundedRectangle|*
%AMROUNDEDRECTD15*
21,1,0.025591,0.007874,0,0,180.0*
21,1,0.017717,0.015748,0,0,180.0*
1,1,0.007874,-0.008858,0.003937*
1,1,0.007874,0.008858,0.003937*
1,1,0.007874,0.008858,-0.003937*
1,1,0.007874,-0.008858,-0.003937*
%
%ADD15ROUNDEDRECTD15*%
G04:AMPARAMS|DCode=16|XSize=25.591mil|YSize=11.811mil|CornerRadius=2.953mil|HoleSize=0mil|Usage=FLASHONLY|Rotation=180.000|XOffset=0mil|YOffset=0mil|HoleType=Round|Shape=RoundedRectangle|*
%AMROUNDEDRECTD16*
21,1,0.025591,0.005905,0,0,180.0*
21,1,0.019685,0.011811,0,0,180.0*
1,1,0.005906,-0.009842,0.002953*
1,1,0.005906,0.009842,0.002953*
1,1,0.005906,0.009842,-0.002953*
1,1,0.005906,-0.009842,-0.002953*
%
%ADD16ROUNDEDRECTD16*%
G04:AMPARAMS|DCode=17|XSize=25.591mil|YSize=19.685mil|CornerRadius=1.968mil|HoleSize=0mil|Usage=FLASHONLY|Rotation=90.000|XOffset=0mil|YOffset=0mil|HoleType=Round|Shape=RoundedRectangle|*
%AMROUNDEDRECTD17*
21,1,0.025591,0.015748,0,0,90.0*
21,1,0.021654,0.019685,0,0,90.0*
1,1,0.003937,0.007874,0.010827*
1,1,0.003937,0.007874,-0.010827*
1,1,0.003937,-0.007874,-0.010827*
1,1,0.003937,-0.007874,0.010827*
%
%ADD17ROUNDEDRECTD17*%
%ADD18R,0.021654X0.015748*%
G04:AMPARAMS|DCode=19|XSize=27.559mil|YSize=20.079mil|CornerRadius=5.02mil|HoleSize=0mil|Usage=FLASHONLY|Rotation=180.000|XOffset=0mil|YOffset=0mil|HoleType=Round|Shape=RoundedRectangle|*
%AMROUNDEDRECTD19*
21,1,0.027559,0.010040,0,0,180.0*
21,1,0.017520,0.020079,0,0,180.0*
1,1,0.010039,-0.008760,0.005020*
1,1,0.010039,0.008760,0.005020*
1,1,0.010039,0.008760,-0.005020*
1,1,0.010039,-0.008760,-0.005020*
%
%ADD19ROUNDEDRECTD19*%
G04:AMPARAMS|DCode=20|XSize=15.748mil|YSize=25.591mil|CornerRadius=1.968mil|HoleSize=0mil|Usage=FLASHONLY|Rotation=180.000|XOffset=0mil|YOffset=0mil|HoleType=Round|Shape=RoundedRectangle|*
%AMROUNDEDRECTD20*
21,1,0.015748,0.021654,0,0,180.0*
21,1,0.011811,0.025591,0,0,180.0*
1,1,0.003937,-0.005906,0.010827*
1,1,0.003937,0.005906,0.010827*
1,1,0.003937,0.005906,-0.010827*
1,1,0.003937,-0.005906,-0.010827*
%
%ADD20ROUNDEDRECTD20*%
G04:AMPARAMS|DCode=21|XSize=22.047mil|YSize=20.079mil|CornerRadius=5.02mil|HoleSize=0mil|Usage=FLASHONLY|Rotation=90.000|XOffset=0mil|YOffset=0mil|HoleType=Round|Shape=RoundedRectangle|*
%AMROUNDEDRECTD21*
21,1,0.022047,0.010040,0,0,90.0*
21,1,0.012008,0.020079,0,0,90.0*
1,1,0.010039,0.005020,0.006004*
1,1,0.010039,0.005020,-0.006004*
1,1,0.010039,-0.005020,-0.006004*
1,1,0.010039,-0.005020,0.006004*
%
%ADD21ROUNDEDRECTD21*%
%ADD22R,0.039370X0.013000*%
%ADD23R,0.013000X0.039370*%
%ADD24R,0.059055X0.059055*%
%ADD25R,0.185039X0.185039*%
%ADD26O,0.037402X0.009842*%
%ADD27O,0.009842X0.037402*%
G04:AMPARAMS|DCode=28|XSize=9.842mil|YSize=25.591mil|CornerRadius=1.23mil|HoleSize=0mil|Usage=FLASHONLY|Rotation=0.000|XOffset=0mil|YOffset=0mil|HoleType=Round|Shape=RoundedRectangle|*
%AMROUNDEDRECTD28*
21,1,0.009842,0.023130,0,0,0.0*
21,1,0.007382,0.025591,0,0,0.0*
1,1,0.002461,0.003691,-0.011565*
1,1,0.002461,-0.003691,-0.011565*
1,1,0.002461,-0.003691,0.011565*
1,1,0.002461,0.003691,0.011565*
%
%ADD28ROUNDEDRECTD28*%
G04:AMPARAMS|DCode=29|XSize=9.842mil|YSize=25.591mil|CornerRadius=1.23mil|HoleSize=0mil|Usage=FLASHONLY|Rotation=90.000|XOffset=0mil|YOffset=0mil|HoleType=Round|Shape=RoundedRectangle|*
%AMROUNDEDRECTD29*
21,1,0.009842,0.023130,0,0,90.0*
21,1,0.007382,0.025591,0,0,90.0*
1,1,0.002461,0.011565,0.003691*
1,1,0.002461,0.011565,-0.003691*
1,1,0.002461,-0.011565,-0.003691*
1,1,0.002461,-0.011565,0.003691*
%
%ADD29ROUNDEDRECTD29*%
G04:AMPARAMS|DCode=30|XSize=9.449mil|YSize=17.716mil|CornerRadius=2.362mil|HoleSize=0mil|Usage=FLASHONLY|Rotation=180.000|XOffset=0mil|YOffset=0mil|HoleType=Round|Shape=RoundedRectangle|*
%AMROUNDEDRECTD30*
21,1,0.009449,0.012992,0,0,180.0*
21,1,0.004724,0.017716,0,0,180.0*
1,1,0.004724,-0.002362,0.006496*
1,1,0.004724,0.002362,0.006496*
1,1,0.004724,0.002362,-0.006496*
1,1,0.004724,-0.002362,-0.006496*
%
%ADD30ROUNDEDRECTD30*%
G04:AMPARAMS|DCode=31|XSize=19.685mil|YSize=18.504mil|CornerRadius=4.626mil|HoleSize=0mil|Usage=FLASHONLY|Rotation=180.000|XOffset=0mil|YOffset=0mil|HoleType=Round|Shape=RoundedRectangle|*
%AMROUNDEDRECTD31*
21,1,0.019685,0.009252,0,0,180.0*
21,1,0.010433,0.018504,0,0,180.0*
1,1,0.009252,-0.005216,0.004626*
1,1,0.009252,0.005216,0.004626*
1,1,0.009252,0.005216,-0.004626*
1,1,0.009252,-0.005216,-0.004626*
%
%ADD31ROUNDEDRECTD31*%
G04:AMPARAMS|DCode=32|XSize=39.37mil|YSize=35.433mil|CornerRadius=4.429mil|HoleSize=0mil|Usage=FLASHONLY|Rotation=90.000|XOffset=0mil|YOffset=0mil|HoleType=Round|Shape=RoundedRectangle|*
%AMROUNDEDRECTD32*
21,1,0.039370,0.026575,0,0,90.0*
21,1,0.030512,0.035433,0,0,90.0*
1,1,0.008858,0.013287,0.015256*
1,1,0.008858,0.013287,-0.015256*
1,1,0.008858,-0.013287,-0.015256*
1,1,0.008858,-0.013287,0.015256*
%
%ADD32ROUNDEDRECTD32*%
G04:AMPARAMS|DCode=33|XSize=25.591mil|YSize=15.748mil|CornerRadius=3.937mil|HoleSize=0mil|Usage=FLASHONLY|Rotation=90.000|XOffset=0mil|YOffset=0mil|HoleType=Round|Shape=RoundedRectangle|*
%AMROUNDEDRECTD33*
21,1,0.025591,0.007874,0,0,90.0*
21,1,0.017717,0.015748,0,0,90.0*
1,1,0.007874,0.003937,0.008858*
1,1,0.007874,0.003937,-0.008858*
1,1,0.007874,-0.003937,-0.008858*
1,1,0.007874,-0.003937,0.008858*
%
%ADD33ROUNDEDRECTD33*%
G04:AMPARAMS|DCode=34|XSize=25.591mil|YSize=11.811mil|CornerRadius=2.953mil|HoleSize=0mil|Usage=FLASHONLY|Rotation=90.000|XOffset=0mil|YOffset=0mil|HoleType=Round|Shape=RoundedRectangle|*
%AMROUNDEDRECTD34*
21,1,0.025591,0.005905,0,0,90.0*
21,1,0.019685,0.011811,0,0,90.0*
1,1,0.005906,0.002953,0.009842*
1,1,0.005906,0.002953,-0.009842*
1,1,0.005906,-0.002953,-0.009842*
1,1,0.005906,-0.002953,0.009842*
%
%ADD34ROUNDEDRECTD34*%
%ADD35R,0.015748X0.015748*%
%TA.AperFunction,NonConductor*%
%ADD66C,0.009842*%
D10*
X661694Y372800D02*
D03*
Y353116D02*
D03*
Y333430D02*
D03*
Y313746D02*
D03*
X773504D02*
D03*
Y333430D02*
D03*
Y353116D02*
D03*
Y372800D02*
D03*
X661694Y512405D02*
D03*
Y492721D02*
D03*
Y473035D02*
D03*
Y453351D02*
D03*
X773504D02*
D03*
Y473035D02*
D03*
Y492721D02*
D03*
Y512405D02*
D03*
D11*
X717600Y343274D02*
D03*
Y482879D02*
D03*
D12*
X109598Y583693D02*
D03*
X147000Y670307D02*
D03*
X184402Y583693D02*
D03*
D13*
X205713Y1094058D02*
D03*
X241146D02*
D03*
Y1049068D02*
D03*
X205713D02*
D03*
X280703Y954058D02*
D03*
X316136D02*
D03*
X721146Y829058D02*
D03*
X685713D02*
D03*
X482286Y38468D02*
D03*
X446853D02*
D03*
X478346Y505908D02*
D03*
X442913D02*
D03*
X656573Y410198D02*
D03*
X692006D02*
D03*
X165547Y528023D02*
D03*
X130114D02*
D03*
D14*
X783424Y1021341D02*
D03*
Y1056774D02*
D03*
X648424Y1046770D02*
D03*
Y1011337D02*
D03*
X66924Y594490D02*
D03*
Y559057D02*
D03*
X618434Y336346D02*
D03*
Y371779D02*
D03*
X68894Y795277D02*
D03*
Y830710D02*
D03*
X53424Y871337D02*
D03*
Y906769D02*
D03*
X431000Y843716D02*
D03*
Y808284D02*
D03*
X523424Y826779D02*
D03*
Y791346D02*
D03*
X558424D02*
D03*
Y826779D02*
D03*
X397414Y547769D02*
D03*
Y512337D02*
D03*
X469000Y808284D02*
D03*
Y843716D02*
D03*
X775584Y875986D02*
D03*
Y911419D02*
D03*
X178424Y881346D02*
D03*
Y916779D02*
D03*
X647634Y875986D02*
D03*
Y911419D02*
D03*
X66924Y444887D02*
D03*
Y480320D02*
D03*
D15*
X610233Y33467D02*
D03*
Y96459D02*
D03*
X566926Y33467D02*
D03*
Y96459D02*
D03*
D16*
X610233Y74805D02*
D03*
Y55120D02*
D03*
X566926D02*
D03*
Y74805D02*
D03*
D17*
X593424Y498612D02*
D03*
Y569478D02*
D03*
D18*
X740004Y1009378D02*
D03*
Y1029064D02*
D03*
Y1048748D02*
D03*
X686854D02*
D03*
Y1009378D02*
D03*
X737204Y872048D02*
D03*
Y891734D02*
D03*
Y911418D02*
D03*
X684054D02*
D03*
Y872048D02*
D03*
X141024Y867048D02*
D03*
Y886734D02*
D03*
Y906418D02*
D03*
X87874D02*
D03*
Y867048D02*
D03*
D19*
X768424Y606346D02*
D03*
Y641779D02*
D03*
X66924Y665360D02*
D03*
Y629927D02*
D03*
X573000Y621284D02*
D03*
Y656716D02*
D03*
D20*
X100394Y1150597D02*
D03*
X151575D02*
D03*
Y1069889D02*
D03*
X125984D02*
D03*
X100394D02*
D03*
D21*
X350713Y954058D02*
D03*
X386146D02*
D03*
X500703Y949058D02*
D03*
X536136D02*
D03*
X646146Y609068D02*
D03*
X610713D02*
D03*
X743188Y410198D02*
D03*
X778621D02*
D03*
X366886Y469478D02*
D03*
X331453D02*
D03*
X311026Y84648D02*
D03*
X275593D02*
D03*
X479408Y470478D02*
D03*
X514841D02*
D03*
X507873Y505908D02*
D03*
X543306D02*
D03*
X743188Y553748D02*
D03*
X778621D02*
D03*
X446851Y470478D02*
D03*
X411418D02*
D03*
X389768Y84648D02*
D03*
X425201D02*
D03*
X390541Y35438D02*
D03*
X355108D02*
D03*
X580703Y454058D02*
D03*
X616136D02*
D03*
D22*
X76383Y124020D02*
D03*
Y143706D02*
D03*
Y163390D02*
D03*
Y183076D02*
D03*
X195265D02*
D03*
Y163390D02*
D03*
Y143706D02*
D03*
Y124020D02*
D03*
D23*
X66930Y237804D02*
D03*
X86616D02*
D03*
X106300D02*
D03*
X125986D02*
D03*
X145670D02*
D03*
Y392120D02*
D03*
X125986D02*
D03*
X106300D02*
D03*
X86616D02*
D03*
X66930D02*
D03*
X165356Y237804D02*
D03*
X185040D02*
D03*
X165356Y392120D02*
D03*
X185040D02*
D03*
D24*
X228348Y738190D02*
D03*
X90552D02*
D03*
D25*
X419292Y275592D02*
D03*
D26*
X286418Y167324D02*
D03*
Y187008D02*
D03*
Y206694D02*
D03*
Y226378D02*
D03*
Y246064D02*
D03*
Y265748D02*
D03*
Y285434D02*
D03*
Y305120D02*
D03*
Y324804D02*
D03*
Y344490D02*
D03*
Y364174D02*
D03*
Y383860D02*
D03*
X552166D02*
D03*
Y364174D02*
D03*
Y344490D02*
D03*
Y324804D02*
D03*
Y305120D02*
D03*
Y285434D02*
D03*
Y265748D02*
D03*
Y246064D02*
D03*
Y226378D02*
D03*
Y206694D02*
D03*
Y187008D02*
D03*
Y167324D02*
D03*
D27*
X311024Y408466D02*
D03*
X330710D02*
D03*
X350394D02*
D03*
X370080D02*
D03*
X389764D02*
D03*
X409450D02*
D03*
X429134D02*
D03*
X448820D02*
D03*
X468504D02*
D03*
X488190D02*
D03*
X507874D02*
D03*
X527560D02*
D03*
Y142718D02*
D03*
X507874D02*
D03*
X488190D02*
D03*
X468504D02*
D03*
X448820D02*
D03*
X429134D02*
D03*
X409450D02*
D03*
X389764D02*
D03*
X370080D02*
D03*
X350394D02*
D03*
X330710D02*
D03*
X311024D02*
D03*
D28*
X458663Y732284D02*
D03*
X438977D02*
D03*
X419293D02*
D03*
X399607D02*
D03*
X379923D02*
D03*
Y594490D02*
D03*
X399607D02*
D03*
X419293D02*
D03*
X438977D02*
D03*
X458663D02*
D03*
D29*
X354331Y633860D02*
D03*
Y653544D02*
D03*
Y673230D02*
D03*
Y692914D02*
D03*
Y712600D02*
D03*
Y732284D02*
D03*
Y614174D02*
D03*
Y594490D02*
D03*
X484253Y732284D02*
D03*
Y712600D02*
D03*
Y594490D02*
D03*
Y614174D02*
D03*
Y633860D02*
D03*
Y653544D02*
D03*
Y673230D02*
D03*
Y692914D02*
D03*
D30*
X425197Y1103347D02*
D03*
X440945D02*
D03*
X456693D02*
D03*
X472442D02*
D03*
X488190D02*
D03*
X503938D02*
D03*
X519686D02*
D03*
X409450D02*
D03*
X393702D02*
D03*
X377954D02*
D03*
X362205D02*
D03*
X346457D02*
D03*
X425197Y1010827D02*
D03*
X440945D02*
D03*
X456693D02*
D03*
X472442D02*
D03*
X488190D02*
D03*
X503938D02*
D03*
X519686D02*
D03*
X409450D02*
D03*
X393702D02*
D03*
X377954D02*
D03*
X362205D02*
D03*
X346457D02*
D03*
D31*
X316930Y1012009D02*
D03*
Y1102167D02*
D03*
X549213D02*
D03*
Y1012009D02*
D03*
D32*
X192914Y816930D02*
D03*
X125986D02*
D03*
D33*
X116143Y440950D02*
D03*
X179136D02*
D03*
X116143Y484257D02*
D03*
X179136D02*
D03*
X167326Y74806D02*
D03*
X104333D02*
D03*
X167326Y31500D02*
D03*
X104333D02*
D03*
D34*
X157482Y440950D02*
D03*
X137797D02*
D03*
Y484257D02*
D03*
X157482D02*
D03*
X125987Y74806D02*
D03*
X145672D02*
D03*
Y31500D02*
D03*
X125987D02*
D03*
D35*
X267715Y609047D02*
D03*
Y585425D02*
D03*
X244093D02*
D03*
Y609047D02*
D03*
D66*
X-188000Y-271414D02*
X-130276D01*
X-159138D01*
Y-358000D01*
X-58121Y-271414D02*
X-86983D01*
X-101414Y-285845D01*
Y-343569D01*
X-86983Y-358000D01*
X-58121D01*
X-43690Y-343569D01*
Y-285845D01*
X-58121Y-271414D01*
X-14828Y-358000D02*
Y-271414D01*
X28465D01*
X42897Y-285845D01*
Y-314707D01*
X28465Y-329138D01*
X-14828D01*
X158345Y-358000D02*
Y-271414D01*
X201638D01*
X216069Y-285845D01*
Y-314707D01*
X201638Y-329138D01*
X158345D01*
X244931Y-358000D02*
Y-300276D01*
X273793Y-271414D01*
X302655Y-300276D01*
Y-358000D01*
Y-314707D01*
X244931D01*
X389241Y-285845D02*
X374810Y-271414D01*
X345948D01*
X331517Y-285845D01*
Y-300276D01*
X345948Y-314707D01*
X374810D01*
X389241Y-329138D01*
Y-343569D01*
X374810Y-358000D01*
X345948D01*
X331517Y-343569D01*
X418103Y-271414D02*
X475827D01*
X446966D01*
Y-358000D01*
X562414Y-271414D02*
X504690D01*
Y-358000D01*
X562414D01*
X504690Y-314707D02*
X533552D01*
X677862Y-358000D02*
Y-271414D01*
X706724Y-300276D01*
X735586Y-271414D01*
Y-358000D01*
X764448D02*
Y-300276D01*
X793310Y-271414D01*
X822172Y-300276D01*
Y-358000D01*
Y-314707D01*
X764448D01*
X908759Y-285845D02*
X894327Y-271414D01*
X865465D01*
X851034Y-285845D01*
Y-300276D01*
X865465Y-314707D01*
X894327D01*
X908759Y-329138D01*
Y-343569D01*
X894327Y-358000D01*
X865465D01*
X851034Y-343569D01*
X937621Y-271414D02*
Y-358000D01*
Y-329138D01*
X995345Y-271414D01*
X952052Y-314707D01*
X995345Y-358000D01*
%TF.MD5,fcedef6f1e3553e555d157ef9f746758*%
M02*
