G04*
G04 #@! TF.GenerationSoftware,Altium Limited,Altium Designer,20.1.11 (218)*
G04*
G04 Layer_Physical_Order=1*
G04 Layer_Color=255*
%FSLAX25Y25*%
%MOIN*%
G70*
G04*
G04 #@! TF.SameCoordinates,8FD927A0-C605-41AB-96FE-A5BD1A317AAA*
G04*
G04*
G04 #@! TF.FilePolarity,Positive*
G04*
G01*
G75*
%ADD10C,0.00600*%
%ADD11C,0.01000*%
G04:AMPARAMS|DCode=17|XSize=23.23mil|YSize=25.2mil|CornerRadius=5.92mil|HoleSize=0mil|Usage=FLASHONLY|Rotation=270.000|XOffset=0mil|YOffset=0mil|HoleType=Round|Shape=RoundedRectangle|*
%AMROUNDEDRECTD17*
21,1,0.02323,0.01335,0,0,270.0*
21,1,0.01138,0.02520,0,0,270.0*
1,1,0.01185,-0.00668,-0.00569*
1,1,0.01185,-0.00668,0.00569*
1,1,0.01185,0.00668,0.00569*
1,1,0.01185,0.00668,-0.00569*
%
%ADD17ROUNDEDRECTD17*%
G04:AMPARAMS|DCode=18|XSize=23.23mil|YSize=25.2mil|CornerRadius=5.92mil|HoleSize=0mil|Usage=FLASHONLY|Rotation=180.000|XOffset=0mil|YOffset=0mil|HoleType=Round|Shape=RoundedRectangle|*
%AMROUNDEDRECTD18*
21,1,0.02323,0.01335,0,0,180.0*
21,1,0.01138,0.02520,0,0,180.0*
1,1,0.01185,-0.00569,0.00668*
1,1,0.01185,0.00569,0.00668*
1,1,0.01185,0.00569,-0.00668*
1,1,0.01185,-0.00569,-0.00668*
%
%ADD18ROUNDEDRECTD18*%
%ADD19R,0.03150X0.04900*%
%ADD20R,0.03500X0.03200*%
%ADD21R,0.00984X0.03937*%
%ADD22R,0.05906X0.13386*%
%ADD23R,0.03937X0.13780*%
%ADD24R,0.02362X0.05315*%
%ADD25R,0.04724X0.07874*%
G04:AMPARAMS|DCode=26|XSize=19.68mil|YSize=23.62mil|CornerRadius=5.12mil|HoleSize=0mil|Usage=FLASHONLY|Rotation=270.000|XOffset=0mil|YOffset=0mil|HoleType=Round|Shape=RoundedRectangle|*
%AMROUNDEDRECTD26*
21,1,0.01968,0.01339,0,0,270.0*
21,1,0.00945,0.02362,0,0,270.0*
1,1,0.01024,-0.00669,-0.00472*
1,1,0.01024,-0.00669,0.00472*
1,1,0.01024,0.00669,0.00472*
1,1,0.01024,0.00669,-0.00472*
%
%ADD26ROUNDEDRECTD26*%
G04:AMPARAMS|DCode=27|XSize=25.59mil|YSize=15.75mil|CornerRadius=3.94mil|HoleSize=0mil|Usage=FLASHONLY|Rotation=0.000|XOffset=0mil|YOffset=0mil|HoleType=Round|Shape=RoundedRectangle|*
%AMROUNDEDRECTD27*
21,1,0.02559,0.00787,0,0,0.0*
21,1,0.01772,0.01575,0,0,0.0*
1,1,0.00787,0.00886,-0.00394*
1,1,0.00787,-0.00886,-0.00394*
1,1,0.00787,-0.00886,0.00394*
1,1,0.00787,0.00886,0.00394*
%
%ADD27ROUNDEDRECTD27*%
G04:AMPARAMS|DCode=28|XSize=25.59mil|YSize=11.81mil|CornerRadius=2.95mil|HoleSize=0mil|Usage=FLASHONLY|Rotation=0.000|XOffset=0mil|YOffset=0mil|HoleType=Round|Shape=RoundedRectangle|*
%AMROUNDEDRECTD28*
21,1,0.02559,0.00591,0,0,0.0*
21,1,0.01968,0.01181,0,0,0.0*
1,1,0.00591,0.00984,-0.00295*
1,1,0.00591,-0.00984,-0.00295*
1,1,0.00591,-0.00984,0.00295*
1,1,0.00591,0.00984,0.00295*
%
%ADD28ROUNDEDRECTD28*%
%ADD29C,0.03937*%
%ADD30R,0.02000X0.05200*%
%ADD31R,0.05200X0.02000*%
%ADD32R,0.02975X0.00784*%
G04:AMPARAMS|DCode=33|XSize=46.26mil|YSize=74.8mil|CornerRadius=11.57mil|HoleSize=0mil|Usage=FLASHONLY|Rotation=90.000|XOffset=0mil|YOffset=0mil|HoleType=Round|Shape=RoundedRectangle|*
%AMROUNDEDRECTD33*
21,1,0.04626,0.05167,0,0,90.0*
21,1,0.02313,0.07480,0,0,90.0*
1,1,0.02313,0.02584,0.01157*
1,1,0.02313,0.02584,-0.01157*
1,1,0.02313,-0.02584,-0.01157*
1,1,0.02313,-0.02584,0.01157*
%
%ADD33ROUNDEDRECTD33*%
G04:AMPARAMS|DCode=34|XSize=70.87mil|YSize=74.8mil|CornerRadius=17.72mil|HoleSize=0mil|Usage=FLASHONLY|Rotation=270.000|XOffset=0mil|YOffset=0mil|HoleType=Round|Shape=RoundedRectangle|*
%AMROUNDEDRECTD34*
21,1,0.07087,0.03937,0,0,270.0*
21,1,0.03543,0.07480,0,0,270.0*
1,1,0.03543,-0.01968,-0.01772*
1,1,0.03543,-0.01968,0.01772*
1,1,0.03543,0.01968,0.01772*
1,1,0.03543,0.01968,-0.01772*
%
%ADD34ROUNDEDRECTD34*%
G04:AMPARAMS|DCode=35|XSize=15.75mil|YSize=53.15mil|CornerRadius=3.94mil|HoleSize=0mil|Usage=FLASHONLY|Rotation=270.000|XOffset=0mil|YOffset=0mil|HoleType=Round|Shape=RoundedRectangle|*
%AMROUNDEDRECTD35*
21,1,0.01575,0.04528,0,0,270.0*
21,1,0.00787,0.05315,0,0,270.0*
1,1,0.00787,-0.02264,-0.00394*
1,1,0.00787,-0.02264,0.00394*
1,1,0.00787,0.02264,0.00394*
1,1,0.00787,0.02264,-0.00394*
%
%ADD35ROUNDEDRECTD35*%
%ADD36R,0.04528X0.02953*%
%ADD37R,0.03740X0.05512*%
%ADD38R,0.04900X0.03150*%
G04:AMPARAMS|DCode=39|XSize=19.68mil|YSize=23.62mil|CornerRadius=5.12mil|HoleSize=0mil|Usage=FLASHONLY|Rotation=180.000|XOffset=0mil|YOffset=0mil|HoleType=Round|Shape=RoundedRectangle|*
%AMROUNDEDRECTD39*
21,1,0.01968,0.01339,0,0,180.0*
21,1,0.00945,0.02362,0,0,180.0*
1,1,0.01024,-0.00472,0.00669*
1,1,0.01024,0.00472,0.00669*
1,1,0.01024,0.00472,-0.00669*
1,1,0.01024,-0.00472,-0.00669*
%
%ADD39ROUNDEDRECTD39*%
%ADD67C,0.00787*%
%ADD68C,0.00200*%
%ADD69C,0.00800*%
%ADD70C,0.02000*%
%ADD71C,0.01500*%
%ADD72R,0.09700X0.02000*%
%ADD73R,0.11500X0.04500*%
%ADD74C,0.05906*%
%ADD75R,0.05906X0.05906*%
%ADD76C,0.13000*%
G04:AMPARAMS|DCode=77|XSize=74.8mil|YSize=59.06mil|CornerRadius=14.76mil|HoleSize=0mil|Usage=FLASHONLY|Rotation=0.000|XOffset=0mil|YOffset=0mil|HoleType=Round|Shape=RoundedRectangle|*
%AMROUNDEDRECTD77*
21,1,0.07480,0.02953,0,0,0.0*
21,1,0.04528,0.05906,0,0,0.0*
1,1,0.02953,0.02264,-0.01476*
1,1,0.02953,-0.02264,-0.01476*
1,1,0.02953,-0.02264,0.01476*
1,1,0.02953,0.02264,0.01476*
%
%ADD77ROUNDEDRECTD77*%
%ADD78O,0.04724X0.03543*%
%ADD79C,0.02400*%
G36*
X189678Y89223D02*
X190000Y89159D01*
X190484Y89121D01*
X191789Y88993D01*
X193509Y88471D01*
X195094Y87624D01*
X196484Y86484D01*
X197624Y85094D01*
X198471Y83509D01*
X198993Y81789D01*
X199121Y80484D01*
X199159Y80000D01*
X199223Y79678D01*
X199363Y79469D01*
Y10531D01*
X199223Y10322D01*
X199159Y10000D01*
X199121Y9516D01*
X198993Y8211D01*
X198471Y6491D01*
X197624Y4906D01*
X196484Y3516D01*
X195094Y2376D01*
X193509Y1529D01*
X191789Y1007D01*
X190484Y879D01*
X190000Y841D01*
X189678Y777D01*
X189469Y637D01*
X10531D01*
X10322Y777D01*
X10000Y841D01*
X9516Y879D01*
X8211Y1007D01*
X6491Y1529D01*
X4906Y2376D01*
X3516Y3516D01*
X2376Y4906D01*
X1529Y6491D01*
X1007Y8211D01*
X879Y9516D01*
X841Y10000D01*
X777Y10322D01*
X637Y10531D01*
Y26736D01*
X2451Y28549D01*
X2451Y28549D01*
X2589Y28756D01*
X2637Y29000D01*
X2637Y29000D01*
Y61000D01*
X2637Y61000D01*
X2589Y61244D01*
X2451Y61451D01*
X2451Y61451D01*
X637Y63264D01*
Y79469D01*
X777Y79678D01*
X841Y80000D01*
X879Y80484D01*
X1007Y81789D01*
X1529Y83509D01*
X2376Y85094D01*
X3516Y86484D01*
X4906Y87624D01*
X6491Y88471D01*
X8211Y88993D01*
X9516Y89121D01*
X10000Y89159D01*
X10322Y89223D01*
X10531Y89363D01*
X59980D01*
Y77022D01*
X59278Y76320D01*
X44000Y76320D01*
X43610Y76242D01*
X43279Y76021D01*
X43058Y75690D01*
X42980Y75300D01*
X42980Y48500D01*
X40520D01*
Y51200D01*
X40442Y51590D01*
X40221Y51921D01*
X39890Y52142D01*
X39500Y52220D01*
X25058Y52220D01*
X24754Y52720D01*
X24907Y53088D01*
X24943Y53360D01*
X18679D01*
X18715Y53088D01*
X18868Y52720D01*
X18564Y52220D01*
X17000D01*
X16610Y52142D01*
X16279Y51921D01*
X16058Y51590D01*
X15980Y51200D01*
Y49200D01*
X16058Y48810D01*
X16279Y48479D01*
X16610Y48258D01*
X17000Y48180D01*
X17068D01*
X17255Y47953D01*
Y47165D01*
X17332Y46778D01*
X17551Y46449D01*
Y46110D01*
X17332Y45781D01*
X17255Y45394D01*
Y44606D01*
X17332Y44219D01*
X17551Y43890D01*
Y43551D01*
X17332Y43222D01*
X17255Y42835D01*
Y42047D01*
X17332Y41660D01*
X17551Y41331D01*
X17880Y41111D01*
X18268Y41034D01*
X22795D01*
X23183Y41111D01*
X23512Y41331D01*
X23731Y41660D01*
X23799Y42000D01*
X24859D01*
Y41137D01*
X24937Y40747D01*
X25158Y40416D01*
X26470Y39104D01*
X26356Y38828D01*
X26267Y38158D01*
X26356Y37487D01*
X26615Y36862D01*
X27026Y36326D01*
X27563Y35914D01*
X28188Y35655D01*
X28858Y35567D01*
X29529Y35655D01*
X30154Y35914D01*
X30690Y36326D01*
X31102Y36862D01*
X31361Y37487D01*
X31449Y38158D01*
X31361Y38828D01*
X31102Y39453D01*
X30690Y39990D01*
X30154Y40401D01*
X29529Y40660D01*
X29000Y40730D01*
Y41658D01*
X29529Y41728D01*
X30154Y41986D01*
X30690Y42398D01*
X31102Y42935D01*
X31336Y43500D01*
X32758D01*
X33479Y42779D01*
X33810Y42558D01*
X34200Y42480D01*
X39500Y42480D01*
X39500Y42480D01*
Y41100D01*
X33501D01*
Y37900D01*
X35681D01*
Y35694D01*
X35030Y35043D01*
X33999D01*
X33566Y34956D01*
X33198Y34710D01*
X32952Y34343D01*
X32866Y33909D01*
Y32964D01*
X32952Y32530D01*
X33198Y32162D01*
X33566Y31917D01*
X33999Y31830D01*
X35338D01*
X35772Y31917D01*
X36140Y32162D01*
X36330Y32447D01*
X37794D01*
X37984Y32162D01*
X38345Y31921D01*
X38352Y31883D01*
Y31446D01*
X38345Y31408D01*
X37984Y31167D01*
X37738Y30799D01*
X37652Y30366D01*
Y29421D01*
X37738Y28987D01*
X37984Y28619D01*
X38352Y28374D01*
X38786Y28287D01*
X39937D01*
Y24228D01*
X45665D01*
Y28380D01*
X46088Y28566D01*
X46507D01*
Y34666D01*
X43134D01*
X42814Y35166D01*
X42876Y35482D01*
Y45000D01*
X43902D01*
X44000Y44980D01*
X59578D01*
X60279Y44279D01*
X60610Y44058D01*
X61000Y43980D01*
X64300Y43980D01*
X64690Y44058D01*
X65021Y44279D01*
X65242Y44610D01*
X65320Y45000D01*
X65320Y63770D01*
X70271D01*
Y72844D01*
X66439D01*
X66248Y73306D01*
X70221Y77279D01*
X70442Y77610D01*
X70520Y78000D01*
X70520Y89363D01*
X189469D01*
X189678Y89223D01*
D02*
G37*
G36*
X69500Y78000D02*
X64300Y72800D01*
X64300Y45000D01*
X61000Y45000D01*
X60000Y46000D01*
X44000D01*
X44000Y75300D01*
X59700Y75300D01*
X61000Y76600D01*
Y89363D01*
X69500D01*
X69500Y78000D01*
D02*
G37*
G36*
X20962Y51200D02*
X21220Y51166D01*
X22402D01*
X22660Y51200D01*
X39500Y51200D01*
Y43500D01*
X34200Y43500D01*
X28500Y49200D01*
X17000D01*
Y51200D01*
X20962D01*
D02*
G37*
%LPC*%
G36*
X135000Y88785D02*
X134020Y88656D01*
X133107Y88278D01*
X132324Y87677D01*
X131722Y86893D01*
X131344Y85980D01*
X131215Y85000D01*
X131344Y84020D01*
X131616Y83362D01*
X131257Y82924D01*
X131200Y82935D01*
X130498Y82796D01*
X129902Y82398D01*
X129504Y81802D01*
X129365Y81100D01*
X129504Y80398D01*
X129902Y79802D01*
X130331Y79516D01*
Y65000D01*
X129164D01*
X128918Y65300D01*
Y76748D01*
X129298Y77002D01*
X129696Y77598D01*
X129835Y78300D01*
X129696Y79002D01*
X129298Y79598D01*
X128702Y79996D01*
X128000Y80135D01*
X127298Y79996D01*
X126702Y79598D01*
X126637Y79500D01*
X125918D01*
Y81336D01*
X125980Y81344D01*
X126893Y81722D01*
X127676Y82323D01*
X128278Y83107D01*
X128656Y84020D01*
X128785Y85000D01*
X128656Y85980D01*
X128278Y86893D01*
X127676Y87677D01*
X126893Y88278D01*
X125980Y88656D01*
X125000Y88785D01*
X124020Y88656D01*
X123107Y88278D01*
X122324Y87677D01*
X121722Y86893D01*
X121344Y85980D01*
X121215Y85000D01*
X121344Y84020D01*
X121722Y83107D01*
X122324Y82323D01*
X123107Y81722D01*
X124020Y81344D01*
X124082Y81336D01*
Y75176D01*
X123582Y74908D01*
X123302Y75096D01*
X122600Y75235D01*
X121898Y75096D01*
X121456Y75402D01*
X121535Y75800D01*
X121396Y76502D01*
X120998Y77098D01*
X120402Y77496D01*
X119700Y77635D01*
X118998Y77496D01*
X118402Y77098D01*
X118004Y76502D01*
X117865Y75800D01*
X118004Y75098D01*
X118402Y74502D01*
X118782Y74248D01*
Y64500D01*
X117291D01*
Y73626D01*
X117222Y73977D01*
X117023Y74275D01*
X108240Y83058D01*
X108278Y83107D01*
X108656Y84020D01*
X108785Y85000D01*
X108656Y85980D01*
X108278Y86893D01*
X107676Y87677D01*
X106893Y88278D01*
X105980Y88656D01*
X105000Y88785D01*
X104020Y88656D01*
X103107Y88278D01*
X102323Y87677D01*
X101722Y86893D01*
X101344Y85980D01*
X101215Y85000D01*
X101344Y84020D01*
X101722Y83107D01*
X102323Y82323D01*
X102592Y82118D01*
X102422Y81618D01*
X99680D01*
X98240Y83058D01*
X98278Y83107D01*
X98656Y84020D01*
X98785Y85000D01*
X98656Y85980D01*
X98278Y86893D01*
X97676Y87677D01*
X96893Y88278D01*
X95980Y88656D01*
X95000Y88785D01*
X94020Y88656D01*
X93107Y88278D01*
X92323Y87677D01*
X91722Y86893D01*
X91344Y85980D01*
X91215Y85000D01*
X91344Y84020D01*
X91722Y83107D01*
X92323Y82323D01*
X93107Y81722D01*
X94020Y81344D01*
X95000Y81215D01*
X95980Y81344D01*
X96893Y81722D01*
X96942Y81760D01*
X98300Y80402D01*
Y76200D01*
X94865D01*
X94400Y76200D01*
X93941Y76101D01*
X93833Y76079D01*
X93607Y76034D01*
X93011Y75636D01*
X92614Y75041D01*
X92474Y74339D01*
X92614Y73636D01*
X93011Y73041D01*
X93607Y72643D01*
X94309Y72503D01*
X94400Y72500D01*
X94400Y72500D01*
X99416D01*
Y71473D01*
X95565D01*
Y67124D01*
X101664D01*
Y68381D01*
X107226D01*
X109348Y66258D01*
Y63763D01*
X108968Y63509D01*
X108570Y62914D01*
X108430Y62212D01*
X108570Y61509D01*
X108807Y61154D01*
X108540Y60654D01*
X92088D01*
X90793Y61949D01*
X90495Y62148D01*
X90144Y62218D01*
X74200D01*
X73849Y62148D01*
X73551Y61949D01*
X72876Y61273D01*
X72427Y61362D01*
X71725Y61223D01*
X71130Y60825D01*
X70732Y60229D01*
X70592Y59527D01*
X70732Y58825D01*
X71130Y58230D01*
X71510Y57976D01*
Y57095D01*
X70646D01*
Y50580D01*
X74208D01*
Y50580D01*
X74583D01*
Y50580D01*
X75400D01*
Y48954D01*
X74947D01*
X74794Y48923D01*
X73680D01*
X73202Y49242D01*
X72500Y49382D01*
X71798Y49242D01*
X71202Y48844D01*
X70804Y48249D01*
X70665Y47547D01*
X70770Y47020D01*
X70466Y46520D01*
X68000D01*
X67610Y46442D01*
X67279Y46221D01*
X67058Y45890D01*
X66980Y45500D01*
Y33422D01*
X66578Y33020D01*
X63000D01*
X62610Y32942D01*
X62279Y32721D01*
X62058Y32390D01*
X61980Y32000D01*
Y25122D01*
X58728D01*
X58298Y25290D01*
Y31690D01*
X55098D01*
Y25290D01*
X55150D01*
X55578Y25100D01*
X55664Y24671D01*
X55907Y24307D01*
X57007Y23207D01*
X57007Y23207D01*
X57371Y22964D01*
X57800Y22878D01*
X59670D01*
X59980Y22500D01*
Y11052D01*
X59607Y10679D01*
X52394D01*
X52246Y11179D01*
X52716Y11494D01*
X53114Y12089D01*
X53254Y12791D01*
X53114Y13494D01*
X52716Y14089D01*
X52121Y14487D01*
X51419Y14627D01*
X50716Y14487D01*
X50121Y14089D01*
X49723Y13494D01*
X49583Y12791D01*
X49441Y12618D01*
X45665D01*
Y16372D01*
X39937D01*
Y12618D01*
X35608D01*
X35257Y12548D01*
X34959Y12349D01*
X29610Y7000D01*
X28196D01*
X27676Y7677D01*
X26893Y8278D01*
X25980Y8656D01*
X25918Y8664D01*
Y16462D01*
X25961Y16944D01*
X30901D01*
Y23656D01*
X25961D01*
Y21210D01*
X25649Y21148D01*
X25351Y20949D01*
X24351Y19949D01*
X24152Y19651D01*
X24082Y19300D01*
Y8664D01*
X24020Y8656D01*
X23107Y8278D01*
X22323Y7677D01*
X21722Y6893D01*
X21344Y5980D01*
X21215Y5000D01*
X21344Y4020D01*
X21722Y3107D01*
X22323Y2324D01*
X23107Y1722D01*
X24020Y1344D01*
X25000Y1215D01*
X25980Y1344D01*
X26893Y1722D01*
X27676Y2324D01*
X28278Y3107D01*
X28648Y4000D01*
X31352D01*
X31722Y3107D01*
X32324Y2324D01*
X33107Y1722D01*
X34020Y1344D01*
X35000Y1215D01*
X35980Y1344D01*
X36893Y1722D01*
X37677Y2324D01*
X38278Y3107D01*
X38656Y4020D01*
X38785Y5000D01*
X38656Y5980D01*
X38442Y6496D01*
X39873Y7926D01*
X41885D01*
X42132Y7426D01*
X41722Y6893D01*
X41344Y5980D01*
X41215Y5000D01*
X41344Y4020D01*
X41722Y3107D01*
X42323Y2324D01*
X43107Y1722D01*
X44020Y1344D01*
X45000Y1215D01*
X45980Y1344D01*
X46893Y1722D01*
X47677Y2324D01*
X48278Y3107D01*
X48656Y4020D01*
X48785Y5000D01*
X48656Y5980D01*
X48278Y6893D01*
X47868Y7426D01*
X48115Y7926D01*
X51885D01*
X52131Y7426D01*
X51722Y6893D01*
X51344Y5980D01*
X51267Y5400D01*
X55000D01*
X58732D01*
X58656Y5980D01*
X58278Y6893D01*
X57868Y7426D01*
X58115Y7926D01*
X60177D01*
X60704Y8031D01*
X61150Y8330D01*
X62301Y9480D01*
X68500D01*
X68890Y9558D01*
X69221Y9779D01*
X69442Y10110D01*
X69520Y10500D01*
Y22500D01*
X69442Y22890D01*
X69221Y23221D01*
X68890Y23442D01*
X68500Y23520D01*
X67000D01*
Y25058D01*
X68122Y26180D01*
X72500D01*
X72890Y26258D01*
X73221Y26479D01*
X73442Y26810D01*
X73520Y27200D01*
Y31200D01*
X74596D01*
X74859Y30805D01*
X75738Y29927D01*
X76185Y29628D01*
X76711Y29524D01*
X78500D01*
Y26774D01*
X75951Y24226D01*
X75752Y23928D01*
X75682Y23577D01*
Y13080D01*
X68953Y6350D01*
X68462Y6448D01*
X68278Y6893D01*
X67677Y7677D01*
X66893Y8278D01*
X65980Y8656D01*
X65000Y8785D01*
X64020Y8656D01*
X63107Y8278D01*
X62323Y7677D01*
X61722Y6893D01*
X61344Y5980D01*
X61215Y5000D01*
X61344Y4020D01*
X61722Y3107D01*
X62323Y2324D01*
X63107Y1722D01*
X64020Y1344D01*
X65000Y1215D01*
X65980Y1344D01*
X66893Y1722D01*
X67677Y2324D01*
X68278Y3107D01*
X68648Y4000D01*
X71352D01*
X71722Y3107D01*
X72324Y2324D01*
X73107Y1722D01*
X74020Y1344D01*
X75000Y1215D01*
X75980Y1344D01*
X76893Y1722D01*
X77676Y2324D01*
X78278Y3107D01*
X78656Y4020D01*
X78785Y5000D01*
X78656Y5980D01*
X78278Y6893D01*
X78240Y6942D01*
X78449Y7151D01*
X78648Y7449D01*
X78718Y7800D01*
Y9331D01*
X79180Y9523D01*
X81760Y6942D01*
X81722Y6893D01*
X81344Y5980D01*
X81215Y5000D01*
X81344Y4020D01*
X81722Y3107D01*
X82323Y2324D01*
X83107Y1722D01*
X84020Y1344D01*
X85000Y1215D01*
X85980Y1344D01*
X86893Y1722D01*
X87677Y2324D01*
X88278Y3107D01*
X88656Y4020D01*
X88785Y5000D01*
X88656Y5980D01*
X88278Y6893D01*
X87677Y7677D01*
X87278Y7982D01*
X87448Y8482D01*
X90220D01*
X91760Y6942D01*
X91722Y6893D01*
X91344Y5980D01*
X91215Y5000D01*
X91344Y4020D01*
X91722Y3107D01*
X92323Y2324D01*
X93107Y1722D01*
X94020Y1344D01*
X95000Y1215D01*
X95980Y1344D01*
X96893Y1722D01*
X97676Y2324D01*
X98278Y3107D01*
X98656Y4020D01*
X98785Y5000D01*
X98656Y5980D01*
X98278Y6893D01*
X97676Y7677D01*
X96893Y8278D01*
X95980Y8656D01*
X95000Y8785D01*
X94020Y8656D01*
X93107Y8278D01*
X93058Y8240D01*
X91249Y10049D01*
X90951Y10248D01*
X90600Y10318D01*
X82680D01*
X81118Y11880D01*
Y15300D01*
X82023D01*
X82339Y14800D01*
X82240Y14300D01*
X82379Y13598D01*
X82777Y13002D01*
X83373Y12604D01*
X84075Y12465D01*
X84777Y12604D01*
X85373Y13002D01*
X85771Y13598D01*
X85910Y14300D01*
X85811Y14800D01*
X86127Y15300D01*
X86931D01*
X87079Y15079D01*
X87410Y14858D01*
X87800Y14780D01*
X94140D01*
Y12680D01*
X93821Y12202D01*
X93681Y11500D01*
X93821Y10798D01*
X94218Y10202D01*
X94814Y9804D01*
X95516Y9665D01*
X96218Y9804D01*
X96315Y9869D01*
X102997D01*
X103621Y9993D01*
X104151Y10346D01*
X117673Y23869D01*
X145500D01*
X146124Y23993D01*
X146653Y24347D01*
X152453Y30147D01*
X152807Y30676D01*
X152931Y31300D01*
Y35116D01*
X152807Y35740D01*
X152453Y36269D01*
X151093Y37630D01*
X151070Y37743D01*
X150673Y38339D01*
X150077Y38737D01*
X149375Y38876D01*
X148672Y38737D01*
X148077Y38339D01*
X147959Y38163D01*
X147110D01*
Y39610D01*
X145426D01*
Y40120D01*
X145745Y40598D01*
X145885Y41300D01*
X145745Y42002D01*
X145347Y42598D01*
X144752Y42996D01*
X144049Y43135D01*
X143347Y42996D01*
X142752Y42598D01*
X142354Y42002D01*
X142214Y41300D01*
X142354Y40598D01*
X142673Y40120D01*
Y39610D01*
X141025D01*
X140960Y39939D01*
X140761Y40237D01*
X134700Y46298D01*
Y49827D01*
X142928D01*
Y48849D01*
X142778Y48624D01*
X142673Y48097D01*
Y47280D01*
X142354Y46802D01*
X142214Y46100D01*
X142354Y45398D01*
X142752Y44802D01*
X143347Y44404D01*
X144049Y44265D01*
X144752Y44404D01*
X145347Y44802D01*
X145745Y45398D01*
X145885Y46100D01*
X145745Y46802D01*
X145426Y47280D01*
Y48097D01*
X145321Y48624D01*
X145171Y48849D01*
Y49827D01*
X147110D01*
Y50600D01*
X149200D01*
X149400Y50560D01*
X150102Y50700D01*
X150698Y51098D01*
X151096Y51693D01*
X151235Y52395D01*
X151096Y53098D01*
X150698Y53693D01*
X150102Y54091D01*
X149400Y54231D01*
X148743Y54100D01*
X147110D01*
Y54964D01*
X145885D01*
Y57433D01*
X145745Y58135D01*
X145347Y58730D01*
X144752Y59128D01*
X144049Y59268D01*
X143347Y59128D01*
X142752Y58730D01*
X142354Y58135D01*
X142247Y57600D01*
X141030D01*
Y61982D01*
X150533D01*
X158585Y53930D01*
Y32753D01*
X148950Y23118D01*
X140742D01*
X140391Y23048D01*
X140094Y22849D01*
X137151Y19906D01*
X132952D01*
X132698Y20286D01*
X132102Y20684D01*
X131400Y20824D01*
X130698Y20684D01*
X130102Y20286D01*
X129704Y19691D01*
X129565Y18988D01*
X129704Y18286D01*
X130102Y17691D01*
X130579Y17372D01*
X130613Y17238D01*
Y16951D01*
X130579Y16816D01*
X130102Y16498D01*
X129704Y15902D01*
X129565Y15200D01*
X129704Y14498D01*
X130102Y13902D01*
X130698Y13504D01*
X131400Y13365D01*
X132102Y13504D01*
X132698Y13902D01*
X132952Y14282D01*
X134100D01*
Y12975D01*
X134082Y12886D01*
Y8664D01*
X134020Y8656D01*
X133107Y8278D01*
X132324Y7677D01*
X131722Y6893D01*
X131344Y5980D01*
X131215Y5000D01*
X131344Y4020D01*
X131722Y3107D01*
X132324Y2324D01*
X133107Y1722D01*
X134020Y1344D01*
X135000Y1215D01*
X135980Y1344D01*
X136893Y1722D01*
X137677Y2324D01*
X138278Y3107D01*
X138656Y4020D01*
X138785Y5000D01*
X138656Y5980D01*
X138278Y6893D01*
X137677Y7677D01*
X136893Y8278D01*
X135980Y8656D01*
X135918Y8664D01*
Y12506D01*
X139612Y16200D01*
X140894D01*
X140962Y16166D01*
X141307Y15700D01*
X141268Y15400D01*
X145000D01*
X148732D01*
X148656Y15980D01*
X148278Y16893D01*
X148000Y17255D01*
Y18882D01*
X150324D01*
X150675Y18952D01*
X150973Y19151D01*
X162552Y30730D01*
X162751Y31027D01*
X162821Y31379D01*
Y55304D01*
X162751Y55655D01*
X162552Y55953D01*
X152556Y65949D01*
X152258Y66148D01*
X151907Y66218D01*
X139470D01*
X139118Y66148D01*
X138821Y65949D01*
X136372Y63500D01*
X135132D01*
Y81232D01*
X135980Y81344D01*
X136893Y81722D01*
X137677Y82323D01*
X138278Y83107D01*
X138656Y84020D01*
X138785Y85000D01*
X138656Y85980D01*
X138278Y86893D01*
X137677Y87677D01*
X136893Y88278D01*
X135980Y88656D01*
X135000Y88785D01*
D02*
G37*
G36*
X175000D02*
X174020Y88656D01*
X173107Y88278D01*
X172324Y87677D01*
X171722Y86893D01*
X171344Y85980D01*
X171215Y85000D01*
X171344Y84020D01*
X171722Y83107D01*
X172324Y82323D01*
X173107Y81722D01*
X174020Y81344D01*
X175000Y81215D01*
X175980Y81344D01*
X176893Y81722D01*
X177676Y82323D01*
X178278Y83107D01*
X178656Y84020D01*
X178785Y85000D01*
X178656Y85980D01*
X178278Y86893D01*
X177676Y87677D01*
X176893Y88278D01*
X175980Y88656D01*
X175000Y88785D01*
D02*
G37*
G36*
X165000D02*
X164020Y88656D01*
X163107Y88278D01*
X162323Y87677D01*
X161722Y86893D01*
X161344Y85980D01*
X161215Y85000D01*
X161344Y84020D01*
X161722Y83107D01*
X162323Y82323D01*
X163107Y81722D01*
X164020Y81344D01*
X165000Y81215D01*
X165980Y81344D01*
X166893Y81722D01*
X167676Y82323D01*
X168278Y83107D01*
X168656Y84020D01*
X168785Y85000D01*
X168656Y85980D01*
X168278Y86893D01*
X167676Y87677D01*
X166893Y88278D01*
X165980Y88656D01*
X165000Y88785D01*
D02*
G37*
G36*
X155000D02*
X154020Y88656D01*
X153107Y88278D01*
X152323Y87677D01*
X151722Y86893D01*
X151344Y85980D01*
X151215Y85000D01*
X151344Y84020D01*
X151722Y83107D01*
X152323Y82323D01*
X153107Y81722D01*
X154020Y81344D01*
X155000Y81215D01*
X155980Y81344D01*
X156893Y81722D01*
X157676Y82323D01*
X158278Y83107D01*
X158656Y84020D01*
X158785Y85000D01*
X158656Y85980D01*
X158278Y86893D01*
X157676Y87677D01*
X156893Y88278D01*
X155980Y88656D01*
X155000Y88785D01*
D02*
G37*
G36*
X145000D02*
X144020Y88656D01*
X143107Y88278D01*
X142324Y87677D01*
X141722Y86893D01*
X141344Y85980D01*
X141215Y85000D01*
X141344Y84020D01*
X141722Y83107D01*
X142324Y82323D01*
X143107Y81722D01*
X144020Y81344D01*
X145000Y81215D01*
X145980Y81344D01*
X146893Y81722D01*
X147677Y82323D01*
X148278Y83107D01*
X148656Y84020D01*
X148785Y85000D01*
X148656Y85980D01*
X148278Y86893D01*
X147677Y87677D01*
X146893Y88278D01*
X145980Y88656D01*
X145000Y88785D01*
D02*
G37*
G36*
X115000D02*
X114020Y88656D01*
X113107Y88278D01*
X112323Y87677D01*
X111722Y86893D01*
X111344Y85980D01*
X111215Y85000D01*
X111344Y84020D01*
X111722Y83107D01*
X112323Y82323D01*
X113107Y81722D01*
X114020Y81344D01*
X115000Y81215D01*
X115980Y81344D01*
X116893Y81722D01*
X117676Y82323D01*
X118278Y83107D01*
X118656Y84020D01*
X118785Y85000D01*
X118656Y85980D01*
X118278Y86893D01*
X117676Y87677D01*
X116893Y88278D01*
X115980Y88656D01*
X115000Y88785D01*
D02*
G37*
G36*
X85000D02*
X84020Y88656D01*
X83107Y88278D01*
X82323Y87677D01*
X81722Y86893D01*
X81344Y85980D01*
X81215Y85000D01*
X81344Y84020D01*
X81722Y83107D01*
X82323Y82323D01*
X83107Y81722D01*
X84020Y81344D01*
X85000Y81215D01*
X85980Y81344D01*
X86893Y81722D01*
X87677Y82323D01*
X88278Y83107D01*
X88656Y84020D01*
X88785Y85000D01*
X88656Y85980D01*
X88278Y86893D01*
X87677Y87677D01*
X86893Y88278D01*
X85980Y88656D01*
X85000Y88785D01*
D02*
G37*
G36*
X75000D02*
X74020Y88656D01*
X73107Y88278D01*
X72324Y87677D01*
X71722Y86893D01*
X71344Y85980D01*
X71215Y85000D01*
X71344Y84020D01*
X71722Y83107D01*
X72324Y82323D01*
X73107Y81722D01*
X74020Y81344D01*
X75000Y81215D01*
X75980Y81344D01*
X76893Y81722D01*
X77676Y82323D01*
X78278Y83107D01*
X78656Y84020D01*
X78785Y85000D01*
X78656Y85980D01*
X78278Y86893D01*
X77676Y87677D01*
X76893Y88278D01*
X75980Y88656D01*
X75000Y88785D01*
D02*
G37*
G36*
X190400Y87296D02*
Y80400D01*
X197296D01*
X197194Y81431D01*
X196777Y82807D01*
X196099Y84075D01*
X195187Y85187D01*
X194075Y86099D01*
X192807Y86777D01*
X191431Y87194D01*
X190400Y87296D01*
D02*
G37*
G36*
X10400D02*
Y80400D01*
X17296D01*
X17194Y81431D01*
X16777Y82807D01*
X16099Y84075D01*
X15187Y85187D01*
X14075Y86099D01*
X12807Y86777D01*
X11431Y87194D01*
X10400Y87296D01*
D02*
G37*
G36*
X189600D02*
X188569Y87194D01*
X187193Y86777D01*
X185925Y86099D01*
X184813Y85187D01*
X183901Y84075D01*
X183223Y82807D01*
X182806Y81431D01*
X182704Y80400D01*
X189600D01*
Y87296D01*
D02*
G37*
G36*
X9600D02*
X8569Y87194D01*
X7193Y86777D01*
X5925Y86099D01*
X4813Y85187D01*
X3901Y84075D01*
X3223Y82807D01*
X2806Y81431D01*
X2704Y80400D01*
X9600D01*
Y87296D01*
D02*
G37*
G36*
X197296Y79600D02*
X190400D01*
Y72704D01*
X191431Y72806D01*
X192807Y73223D01*
X194075Y73901D01*
X195187Y74813D01*
X196099Y75925D01*
X196777Y77193D01*
X197194Y78569D01*
X197296Y79600D01*
D02*
G37*
G36*
X17296D02*
X10400D01*
Y72704D01*
X11431Y72806D01*
X12807Y73223D01*
X14075Y73901D01*
X15187Y74813D01*
X16099Y75925D01*
X16777Y77193D01*
X17194Y78569D01*
X17296Y79600D01*
D02*
G37*
G36*
X189600D02*
X182704D01*
X182806Y78569D01*
X183223Y77193D01*
X183901Y75925D01*
X184813Y74813D01*
X185925Y73901D01*
X187193Y73223D01*
X188569Y72806D01*
X189600Y72704D01*
Y79600D01*
D02*
G37*
G36*
X9600D02*
X2704D01*
X2806Y78569D01*
X3223Y77193D01*
X3901Y75925D01*
X4813Y74813D01*
X5925Y73901D01*
X7193Y73223D01*
X8569Y72806D01*
X9600Y72704D01*
Y79600D01*
D02*
G37*
G36*
X92319Y72844D02*
X86395D01*
Y63770D01*
X92319D01*
Y72844D01*
D02*
G37*
G36*
X19685Y71972D02*
X18380Y71800D01*
X17164Y71297D01*
X16119Y70495D01*
X15317Y69451D01*
X14814Y68234D01*
X14642Y66929D01*
X14814Y65624D01*
X15317Y64408D01*
X16119Y63363D01*
X17164Y62562D01*
X18380Y62058D01*
X19685Y61886D01*
X20990Y62058D01*
X22207Y62562D01*
X23251Y63363D01*
X24053Y64408D01*
X24556Y65624D01*
X24728Y66929D01*
X24556Y68234D01*
X24053Y69451D01*
X23251Y70495D01*
X22207Y71297D01*
X20990Y71800D01*
X19685Y71972D01*
D02*
G37*
G36*
X12264Y65234D02*
X10400D01*
Y61837D01*
X14585D01*
Y62913D01*
X14408Y63802D01*
X13905Y64555D01*
X13152Y65058D01*
X12264Y65234D01*
D02*
G37*
G36*
X9600D02*
X7736D01*
X6848Y65058D01*
X6095Y64555D01*
X5592Y63802D01*
X5415Y62913D01*
Y61837D01*
X9600D01*
Y65234D01*
D02*
G37*
G36*
X14585Y61037D02*
X10400D01*
Y57640D01*
X12264D01*
X13152Y57816D01*
X13905Y58319D01*
X14408Y59072D01*
X14585Y59961D01*
Y61037D01*
D02*
G37*
G36*
X9600D02*
X5415D01*
Y59961D01*
X5592Y59072D01*
X6095Y58319D01*
X6848Y57816D01*
X7736Y57640D01*
X9600D01*
Y61037D01*
D02*
G37*
G36*
X22402Y56354D02*
X22211D01*
Y54160D01*
X24943D01*
X24907Y54431D01*
X24648Y55057D01*
X24236Y55594D01*
X23698Y56006D01*
X23073Y56265D01*
X22402Y56354D01*
D02*
G37*
G36*
X21411D02*
X21220D01*
X20549Y56265D01*
X19924Y56006D01*
X19386Y55594D01*
X18974Y55057D01*
X18715Y54431D01*
X18679Y54160D01*
X21411D01*
Y56354D01*
D02*
G37*
G36*
X188585Y62140D02*
X187154Y61999D01*
X185778Y61582D01*
X184509Y60904D01*
X183398Y59992D01*
X182486Y58880D01*
X181808Y57612D01*
X181390Y56236D01*
X181249Y54805D01*
X181390Y53374D01*
X181808Y51998D01*
X182486Y50730D01*
X183398Y49618D01*
X184509Y48706D01*
X185778Y48028D01*
X187154Y47611D01*
X188585Y47469D01*
X190016Y47611D01*
X191392Y48028D01*
X192660Y48706D01*
X193772Y49618D01*
X194684Y50730D01*
X195362Y51998D01*
X195779Y53374D01*
X195920Y54805D01*
X195779Y56236D01*
X195362Y57612D01*
X194684Y58880D01*
X193772Y59992D01*
X192660Y60904D01*
X191392Y61582D01*
X190016Y61999D01*
X188585Y62140D01*
D02*
G37*
G36*
X65000Y42020D02*
X53500D01*
X53110Y41942D01*
X52779Y41721D01*
X52558Y41390D01*
X52480Y41000D01*
Y40500D01*
X50933D01*
X50527Y40772D01*
X50101Y40856D01*
Y41100D01*
X43701D01*
Y37900D01*
X49654D01*
X50042Y37511D01*
Y34666D01*
X49244D01*
Y28566D01*
X53593D01*
Y34666D01*
X52795D01*
Y35213D01*
X53295Y35521D01*
X53500Y35480D01*
X65000D01*
X65390Y35558D01*
X65721Y35779D01*
X65942Y36110D01*
X66020Y36500D01*
Y41000D01*
X65942Y41390D01*
X65721Y41721D01*
X65390Y41942D01*
X65000Y42020D01*
D02*
G37*
G36*
X22402Y38834D02*
X22211D01*
Y36640D01*
X24943D01*
X24907Y36911D01*
X24648Y37537D01*
X24236Y38074D01*
X23698Y38486D01*
X23073Y38746D01*
X22402Y38834D01*
D02*
G37*
G36*
X21411D02*
X21220D01*
X20549Y38746D01*
X19924Y38486D01*
X19386Y38074D01*
X18974Y37537D01*
X18715Y36911D01*
X18679Y36640D01*
X21411D01*
Y38834D01*
D02*
G37*
G36*
X24943Y35840D02*
X22211D01*
Y33646D01*
X22402D01*
X23073Y33735D01*
X23698Y33994D01*
X24236Y34406D01*
X24648Y34943D01*
X24907Y35569D01*
X24943Y35840D01*
D02*
G37*
G36*
X21411D02*
X18679D01*
X18715Y35569D01*
X18974Y34943D01*
X19386Y34406D01*
X19924Y33994D01*
X20549Y33735D01*
X21220Y33646D01*
X21411D01*
Y35840D01*
D02*
G37*
G36*
X12264Y32360D02*
X10400D01*
Y28963D01*
X14585D01*
Y30039D01*
X14408Y30928D01*
X13905Y31681D01*
X13152Y32184D01*
X12264Y32360D01*
D02*
G37*
G36*
X9600D02*
X7736D01*
X6848Y32184D01*
X6095Y31681D01*
X5592Y30928D01*
X5415Y30039D01*
Y28963D01*
X9600D01*
Y32360D01*
D02*
G37*
G36*
X14585Y28163D02*
X10400D01*
Y24766D01*
X12264D01*
X13152Y24942D01*
X13905Y25445D01*
X14408Y26198D01*
X14585Y27087D01*
Y28163D01*
D02*
G37*
G36*
X9600D02*
X5415D01*
Y27087D01*
X5592Y26198D01*
X6095Y25445D01*
X6848Y24942D01*
X7736Y24766D01*
X9600D01*
Y28163D01*
D02*
G37*
G36*
X190961Y34661D02*
X189656Y34489D01*
X188440Y33985D01*
X187395Y33183D01*
X186594Y32139D01*
X186090Y30923D01*
X185918Y29617D01*
X186090Y28312D01*
X186594Y27096D01*
X187395Y26051D01*
X188440Y25250D01*
X189656Y24746D01*
X190961Y24574D01*
X192266Y24746D01*
X193483Y25250D01*
X194527Y26051D01*
X195329Y27096D01*
X195833Y28312D01*
X196004Y29617D01*
X195833Y30923D01*
X195329Y32139D01*
X194527Y33183D01*
X193483Y33985D01*
X192266Y34489D01*
X190961Y34661D01*
D02*
G37*
G36*
X33263Y28380D02*
X27535D01*
Y24228D01*
X33263D01*
Y28380D01*
D02*
G37*
G36*
X19685Y28054D02*
X18380Y27883D01*
X17164Y27379D01*
X16119Y26577D01*
X15317Y25533D01*
X14814Y24317D01*
X14642Y23011D01*
X14814Y21706D01*
X15317Y20490D01*
X16119Y19445D01*
X17164Y18644D01*
X18380Y18140D01*
X19685Y17968D01*
X20990Y18140D01*
X22207Y18644D01*
X23251Y19445D01*
X24053Y20490D01*
X24556Y21706D01*
X24728Y23011D01*
X24556Y24317D01*
X24053Y25533D01*
X23251Y26577D01*
X22207Y27379D01*
X20990Y27883D01*
X19685Y28054D01*
D02*
G37*
G36*
X58298Y21490D02*
X55098D01*
Y15090D01*
X58298D01*
Y21490D01*
D02*
G37*
G36*
X33263Y16372D02*
X27535D01*
Y12220D01*
X33263D01*
Y16372D01*
D02*
G37*
G36*
X148732Y14600D02*
X145400D01*
Y11268D01*
X145980Y11344D01*
X146893Y11722D01*
X147677Y12324D01*
X148278Y13107D01*
X148656Y14020D01*
X148732Y14600D01*
D02*
G37*
G36*
X144600D02*
X141268D01*
X141344Y14020D01*
X141722Y13107D01*
X142324Y12324D01*
X143107Y11722D01*
X144020Y11344D01*
X144600Y11268D01*
Y14600D01*
D02*
G37*
G36*
X178753Y18753D02*
X171247D01*
Y11247D01*
X178753D01*
Y18753D01*
D02*
G37*
G36*
X165000Y18785D02*
X164020Y18656D01*
X163107Y18278D01*
X162323Y17676D01*
X161722Y16893D01*
X161344Y15980D01*
X161215Y15000D01*
X161344Y14020D01*
X161722Y13107D01*
X162323Y12324D01*
X163107Y11722D01*
X164020Y11344D01*
X165000Y11215D01*
X165980Y11344D01*
X166893Y11722D01*
X167676Y12324D01*
X168278Y13107D01*
X168656Y14020D01*
X168785Y15000D01*
X168656Y15980D01*
X168278Y16893D01*
X167676Y17676D01*
X166893Y18278D01*
X165980Y18656D01*
X165000Y18785D01*
D02*
G37*
G36*
X155000D02*
X154020Y18656D01*
X153107Y18278D01*
X152323Y17676D01*
X151722Y16893D01*
X151344Y15980D01*
X151215Y15000D01*
X151344Y14020D01*
X151722Y13107D01*
X152323Y12324D01*
X153107Y11722D01*
X154020Y11344D01*
X155000Y11215D01*
X155980Y11344D01*
X156893Y11722D01*
X157676Y12324D01*
X158278Y13107D01*
X158656Y14020D01*
X158785Y15000D01*
X158656Y15980D01*
X158278Y16893D01*
X157676Y17676D01*
X156893Y18278D01*
X155980Y18656D01*
X155000Y18785D01*
D02*
G37*
G36*
X190400Y17296D02*
Y10400D01*
X197296D01*
X197194Y11431D01*
X196777Y12807D01*
X196099Y14075D01*
X195187Y15187D01*
X194075Y16099D01*
X192807Y16777D01*
X191431Y17194D01*
X190400Y17296D01*
D02*
G37*
G36*
X10400D02*
Y10400D01*
X17296D01*
X17194Y11431D01*
X16777Y12807D01*
X16099Y14075D01*
X15187Y15187D01*
X14075Y16099D01*
X12807Y16777D01*
X11431Y17194D01*
X10400Y17296D01*
D02*
G37*
G36*
X189600D02*
X188569Y17194D01*
X187193Y16777D01*
X185925Y16099D01*
X184813Y15187D01*
X183901Y14075D01*
X183223Y12807D01*
X182806Y11431D01*
X182704Y10400D01*
X189600D01*
Y17296D01*
D02*
G37*
G36*
X9600D02*
X8569Y17194D01*
X7193Y16777D01*
X5925Y16099D01*
X4813Y15187D01*
X3901Y14075D01*
X3223Y12807D01*
X2806Y11431D01*
X2704Y10400D01*
X9600D01*
Y17296D01*
D02*
G37*
G36*
X178753Y8753D02*
X175400D01*
Y5400D01*
X178753D01*
Y8753D01*
D02*
G37*
G36*
X174600D02*
X171247D01*
Y5400D01*
X174600D01*
Y8753D01*
D02*
G37*
G36*
X197296Y9600D02*
X190400D01*
Y2704D01*
X191431Y2806D01*
X192807Y3223D01*
X194075Y3901D01*
X195187Y4813D01*
X196099Y5925D01*
X196777Y7193D01*
X197194Y8569D01*
X197296Y9600D01*
D02*
G37*
G36*
X17296D02*
X10400D01*
Y2704D01*
X11431Y2806D01*
X12807Y3223D01*
X14075Y3901D01*
X15187Y4813D01*
X16099Y5925D01*
X16777Y7193D01*
X17194Y8569D01*
X17296Y9600D01*
D02*
G37*
G36*
X9600D02*
X2704D01*
X2806Y8569D01*
X3223Y7193D01*
X3901Y5925D01*
X4813Y4813D01*
X5925Y3901D01*
X7193Y3223D01*
X8569Y2806D01*
X9600Y2704D01*
Y9600D01*
D02*
G37*
G36*
X189600D02*
X182704D01*
X182806Y8569D01*
X183223Y7193D01*
X183901Y5925D01*
X184813Y4813D01*
X185925Y3901D01*
X187193Y3223D01*
X188569Y2806D01*
X189600Y2704D01*
Y9600D01*
D02*
G37*
G36*
X58732Y4600D02*
X55400D01*
Y1268D01*
X55980Y1344D01*
X56893Y1722D01*
X57677Y2324D01*
X58278Y3107D01*
X58656Y4020D01*
X58732Y4600D01*
D02*
G37*
G36*
X54600D02*
X51267D01*
X51344Y4020D01*
X51722Y3107D01*
X52324Y2324D01*
X53107Y1722D01*
X54020Y1344D01*
X54600Y1268D01*
Y4600D01*
D02*
G37*
G36*
X178753D02*
X175400D01*
Y1247D01*
X178753D01*
Y4600D01*
D02*
G37*
G36*
X174600D02*
X171247D01*
Y1247D01*
X174600D01*
Y4600D01*
D02*
G37*
G36*
X165000Y8785D02*
X164020Y8656D01*
X163107Y8278D01*
X162323Y7677D01*
X161722Y6893D01*
X161344Y5980D01*
X161215Y5000D01*
X161344Y4020D01*
X161722Y3107D01*
X162323Y2324D01*
X163107Y1722D01*
X164020Y1344D01*
X165000Y1215D01*
X165980Y1344D01*
X166893Y1722D01*
X167676Y2324D01*
X168278Y3107D01*
X168656Y4020D01*
X168785Y5000D01*
X168656Y5980D01*
X168278Y6893D01*
X167676Y7677D01*
X166893Y8278D01*
X165980Y8656D01*
X165000Y8785D01*
D02*
G37*
G36*
X155000D02*
X154020Y8656D01*
X153107Y8278D01*
X152323Y7677D01*
X151722Y6893D01*
X151344Y5980D01*
X151215Y5000D01*
X151344Y4020D01*
X151722Y3107D01*
X152323Y2324D01*
X153107Y1722D01*
X154020Y1344D01*
X155000Y1215D01*
X155980Y1344D01*
X156893Y1722D01*
X157676Y2324D01*
X158278Y3107D01*
X158656Y4020D01*
X158785Y5000D01*
X158656Y5980D01*
X158278Y6893D01*
X157676Y7677D01*
X156893Y8278D01*
X155980Y8656D01*
X155000Y8785D01*
D02*
G37*
G36*
X145000D02*
X144020Y8656D01*
X143107Y8278D01*
X142324Y7677D01*
X141722Y6893D01*
X141344Y5980D01*
X141215Y5000D01*
X141344Y4020D01*
X141722Y3107D01*
X142324Y2324D01*
X143107Y1722D01*
X144020Y1344D01*
X145000Y1215D01*
X145980Y1344D01*
X146893Y1722D01*
X147677Y2324D01*
X148278Y3107D01*
X148656Y4020D01*
X148785Y5000D01*
X148656Y5980D01*
X148278Y6893D01*
X147677Y7677D01*
X146893Y8278D01*
X145980Y8656D01*
X145000Y8785D01*
D02*
G37*
G36*
X121085Y23140D02*
X119654Y22999D01*
X118278Y22582D01*
X117009Y21904D01*
X115898Y20992D01*
X114986Y19880D01*
X114308Y18612D01*
X113890Y17236D01*
X113749Y15805D01*
X113890Y14374D01*
X114308Y12998D01*
X114986Y11730D01*
X115898Y10618D01*
X117009Y9706D01*
X118278Y9028D01*
X119654Y8610D01*
X121085Y8469D01*
X122516Y8610D01*
X122905Y8728D01*
X123107Y8278D01*
X122324Y7677D01*
X121722Y6893D01*
X121344Y5980D01*
X121215Y5000D01*
X121344Y4020D01*
X121722Y3107D01*
X122324Y2324D01*
X123107Y1722D01*
X124020Y1344D01*
X125000Y1215D01*
X125980Y1344D01*
X126893Y1722D01*
X127676Y2324D01*
X128278Y3107D01*
X128656Y4020D01*
X128785Y5000D01*
X128656Y5980D01*
X128278Y6893D01*
X127676Y7677D01*
X126893Y8278D01*
X125980Y8656D01*
X125000Y8785D01*
X124334Y8698D01*
X124179Y9181D01*
X125160Y9706D01*
X126272Y10618D01*
X127184Y11730D01*
X127862Y12998D01*
X128279Y14374D01*
X128420Y15805D01*
X128279Y17236D01*
X127862Y18612D01*
X127184Y19880D01*
X126272Y20992D01*
X125160Y21904D01*
X123892Y22582D01*
X122516Y22999D01*
X121085Y23140D01*
D02*
G37*
G36*
X115000Y8785D02*
X114020Y8656D01*
X113107Y8278D01*
X112323Y7677D01*
X111722Y6893D01*
X111344Y5980D01*
X111215Y5000D01*
X111344Y4020D01*
X111722Y3107D01*
X112323Y2324D01*
X113107Y1722D01*
X114020Y1344D01*
X115000Y1215D01*
X115980Y1344D01*
X116893Y1722D01*
X117676Y2324D01*
X118278Y3107D01*
X118656Y4020D01*
X118785Y5000D01*
X118656Y5980D01*
X118278Y6893D01*
X117676Y7677D01*
X116893Y8278D01*
X115980Y8656D01*
X115000Y8785D01*
D02*
G37*
G36*
X105000D02*
X104020Y8656D01*
X103107Y8278D01*
X102323Y7677D01*
X101722Y6893D01*
X101344Y5980D01*
X101215Y5000D01*
X101344Y4020D01*
X101722Y3107D01*
X102323Y2324D01*
X103107Y1722D01*
X104020Y1344D01*
X105000Y1215D01*
X105980Y1344D01*
X106893Y1722D01*
X107676Y2324D01*
X108278Y3107D01*
X108656Y4020D01*
X108785Y5000D01*
X108656Y5980D01*
X108278Y6893D01*
X107676Y7677D01*
X106893Y8278D01*
X105980Y8656D01*
X105000Y8785D01*
D02*
G37*
%LPD*%
G36*
X112348Y74654D02*
Y64453D01*
X111183D01*
Y66638D01*
X111113Y66990D01*
X110914Y67287D01*
X108255Y69947D01*
X107957Y70146D01*
X107606Y70216D01*
X101664D01*
Y71473D01*
X101251D01*
Y72630D01*
X101607Y72868D01*
X101853Y73236D01*
X101939Y73669D01*
Y75008D01*
X101853Y75442D01*
X101799Y75522D01*
X101563Y75925D01*
Y76424D01*
X101631Y76469D01*
X102029Y77065D01*
X102169Y77767D01*
X102029Y78469D01*
X101631Y79065D01*
X101563Y79110D01*
Y79782D01*
X107220D01*
X112348Y74654D01*
D02*
G37*
G36*
X90814Y59333D02*
X91036Y59048D01*
X90814Y58650D01*
X89578Y57414D01*
X89379Y57116D01*
X89309Y56765D01*
Y49354D01*
X88431Y48476D01*
X84398D01*
Y48433D01*
X81915D01*
X81766Y48657D01*
X81437Y48876D01*
X81049Y48954D01*
X79600D01*
Y50580D01*
X82083D01*
Y57095D01*
X81678D01*
Y57722D01*
X81996Y58198D01*
X82135Y58900D01*
X81996Y59602D01*
X81808Y59882D01*
X82076Y60382D01*
X89764D01*
X90814Y59333D01*
D02*
G37*
G36*
X118145Y56959D02*
X118078Y56859D01*
X117938Y56157D01*
X118078Y55454D01*
X118476Y54859D01*
X119071Y54461D01*
X119773Y54321D01*
X120476Y54461D01*
X120804Y54680D01*
X121304Y54413D01*
Y49827D01*
X128105D01*
X128362Y49327D01*
X128104Y48941D01*
X127965Y48239D01*
X128104Y47536D01*
X128156Y47459D01*
X127921Y47018D01*
X118080D01*
X117646Y47452D01*
X117735Y47900D01*
X117596Y48602D01*
X117198Y49198D01*
X116602Y49596D01*
X115900Y49735D01*
X115198Y49596D01*
X114602Y49198D01*
X114204Y48602D01*
X114065Y47900D01*
X114204Y47198D01*
X113811Y46887D01*
X112549Y48149D01*
X112251Y48348D01*
X111900Y48418D01*
X100602D01*
Y48476D01*
X97006D01*
X96894Y49040D01*
X96496Y49635D01*
X95901Y50033D01*
X95199Y50173D01*
X94496Y50033D01*
X93901Y49635D01*
X93503Y49040D01*
X93363Y48338D01*
X93503Y47635D01*
X93901Y47040D01*
Y46635D01*
X93503Y46040D01*
X93363Y45338D01*
X93503Y44635D01*
X93901Y44040D01*
X94496Y43642D01*
X95199Y43503D01*
X95200Y43501D01*
Y43500D01*
X96428D01*
Y42555D01*
X96700D01*
Y36350D01*
X96271Y35920D01*
X88200D01*
Y38900D01*
X88180D01*
X88096Y39320D01*
X87900Y39613D01*
Y42555D01*
X88572D01*
Y46567D01*
X88737D01*
X89088Y46637D01*
X89386Y46835D01*
X90876Y48325D01*
X91075Y48623D01*
X91145Y48974D01*
Y56385D01*
X92142Y57382D01*
X117000D01*
X117089Y57400D01*
X117909D01*
X118145Y56959D01*
D02*
G37*
G36*
X121304Y35202D02*
X121100Y35035D01*
X120398Y34896D01*
X119802Y34498D01*
X119404Y33902D01*
X119265Y33200D01*
X119404Y32498D01*
X119658Y32118D01*
X119397Y31618D01*
X110200D01*
Y33099D01*
X116283Y39182D01*
X121304D01*
Y35202D01*
D02*
G37*
G36*
X72500Y27200D02*
X67700D01*
X65500Y25000D01*
X63000D01*
Y32000D01*
X67000D01*
X68000Y33000D01*
Y45500D01*
X72500D01*
X72500Y27200D01*
D02*
G37*
G36*
X101700Y20420D02*
X101980Y20320D01*
X102520Y19990D01*
X102840Y19660D01*
X103067Y19299D01*
X103190Y18900D01*
X103120Y18700D01*
X99295Y18700D01*
X99203Y18795D01*
X99381Y19346D01*
X99550Y19600D01*
X99840Y19890D01*
X100070Y20100D01*
X100460Y20330D01*
X100830Y20440D01*
X101700Y20420D01*
D02*
G37*
G36*
X84600D02*
X84880Y20320D01*
X85420Y19990D01*
X85740Y19660D01*
X85966Y19299D01*
X86090Y18900D01*
X86020Y18700D01*
X82195Y18700D01*
X82103Y18795D01*
X82281Y19346D01*
X82450Y19600D01*
X82740Y19890D01*
X82970Y20100D01*
X83360Y20330D01*
X83730Y20440D01*
X84600Y20420D01*
D02*
G37*
G36*
X96000Y20460D02*
X96280Y20360D01*
X96820Y20030D01*
X97140Y19700D01*
X97366Y19339D01*
X97490Y18940D01*
X97420Y18740D01*
X97213Y18622D01*
X93819D01*
X93530Y18920D01*
X93681Y19386D01*
X93850Y19640D01*
X94140Y19930D01*
X94370Y20140D01*
X94760Y20370D01*
X95130Y20480D01*
X96000Y20460D01*
D02*
G37*
G36*
X90300Y20420D02*
X90580Y20320D01*
X91120Y19990D01*
X91440Y19660D01*
X91667Y19299D01*
X91790Y18900D01*
X91720Y18700D01*
X91513Y18582D01*
X88119D01*
X87830Y18880D01*
X87981Y19346D01*
X88150Y19600D01*
X88440Y19890D01*
X88670Y20100D01*
X89060Y20330D01*
X89430Y20440D01*
X90300Y20420D01*
D02*
G37*
G36*
X111000Y28547D02*
X106561Y24108D01*
X105998Y23996D01*
X105402Y23598D01*
X105004Y23002D01*
X104865Y22300D01*
X105004Y21598D01*
X105402Y21002D01*
X105998Y20604D01*
X106700Y20465D01*
X107402Y20604D01*
X107998Y21002D01*
X108396Y21598D01*
X108508Y22161D01*
X113470Y27124D01*
X115500D01*
Y26310D01*
X102321Y13131D01*
X96892D01*
Y14780D01*
X97500D01*
X97890Y14858D01*
X98221Y15079D01*
X98442Y15410D01*
X98520Y15800D01*
Y17413D01*
X98765Y17645D01*
X98841Y17690D01*
X98926Y17714D01*
X99020Y17735D01*
X99093Y17720D01*
X99259Y17685D01*
X99320Y17860D01*
X103145Y17860D01*
X103237Y17765D01*
X103214Y17691D01*
X103343Y17725D01*
X103510Y17758D01*
X103534Y17774D01*
X103562Y17781D01*
X103699Y17884D01*
X103841Y17979D01*
X103857Y18003D01*
X103880Y18021D01*
X103967Y18168D01*
X104062Y18310D01*
X104068Y18338D01*
X104082Y18363D01*
X104116Y18460D01*
X104182Y18558D01*
X104267Y18987D01*
X104208Y19285D01*
X104226Y19290D01*
X103928Y20010D01*
X103431Y20658D01*
X102783Y21155D01*
X102138Y21422D01*
Y23340D01*
X108580Y29782D01*
X111000D01*
Y28547D01*
D02*
G37*
G36*
X86045Y17860D02*
X86137Y17765D01*
X85959Y17214D01*
X85790Y16960D01*
X85500Y16670D01*
X85270Y16460D01*
X84880Y16230D01*
X84510Y16120D01*
X83640Y16140D01*
X83360Y16240D01*
X82820Y16570D01*
X82500Y16900D01*
X82274Y17261D01*
X82150Y17660D01*
X82220Y17860D01*
X86045Y17860D01*
D02*
G37*
G36*
X97510Y17520D02*
X97359Y17054D01*
X97190Y16800D01*
X96900Y16510D01*
X96670Y16300D01*
X96280Y16070D01*
X95910Y15960D01*
X95040Y15980D01*
X94760Y16080D01*
X94220Y16410D01*
X93900Y16740D01*
X93673Y17101D01*
X93550Y17500D01*
X93620Y17700D01*
X93827Y17818D01*
X97221D01*
X97510Y17520D01*
D02*
G37*
G36*
X91810Y17480D02*
X91659Y17014D01*
X91490Y16760D01*
X91200Y16470D01*
X90970Y16260D01*
X90580Y16030D01*
X90210Y15920D01*
X89340Y15940D01*
X89060Y16040D01*
X88520Y16370D01*
X88200Y16700D01*
X87973Y17061D01*
X87850Y17460D01*
X87920Y17660D01*
X88127Y17778D01*
X91521D01*
X91810Y17480D01*
D02*
G37*
G36*
X68500Y10500D02*
X61000D01*
Y22500D01*
X68500D01*
Y10500D01*
D02*
G37*
D10*
X93825Y17518D02*
G03*
X97215Y17518I1695J435D01*
G01*
Y18922D02*
G03*
X93825Y18922I-1695J-435D01*
G01*
X88125Y17478D02*
G03*
X91515Y17478I1695J435D01*
G01*
Y18882D02*
G03*
X88125Y18882I-1695J-435D01*
G01*
X86046Y18987D02*
G03*
X85814Y19510I-1926J-540D01*
G01*
D02*
G03*
X82194Y18987I-1694J-1063D01*
G01*
X84120Y16113D02*
G03*
X86046Y17573I0J2000D01*
G01*
X82194D02*
G03*
X84120Y16113I1926J540D01*
G01*
X103146Y18987D02*
G03*
X101220Y20447I-1926J-540D01*
G01*
D02*
G03*
X99294Y18987I0J-2000D01*
G01*
X102914Y17050D02*
G03*
X103146Y17573I-1694J1063D01*
G01*
X101220Y16113D02*
G03*
X102914Y17050I0J2000D01*
G01*
X99294Y17573D02*
G03*
X101220Y16113I1926J540D01*
G01*
X79605Y38755D02*
X79884Y39034D01*
Y40968D01*
X80164Y41247D01*
X74200Y61300D02*
X90144D01*
X72427Y53838D02*
Y59527D01*
X74200Y61300D01*
X91707Y59737D02*
X116740D01*
X90144Y61300D02*
X91707Y59737D01*
X116740D02*
X119700Y62697D01*
X80200Y11500D02*
X82300Y9400D01*
X90600D01*
X80200Y11500D02*
Y22085D01*
X79000Y11000D02*
X85000Y5000D01*
X79000Y22583D02*
X86117Y29700D01*
X85000Y5000D02*
Y5000D01*
X79000Y11000D02*
Y22583D01*
X90600Y9400D02*
X95000Y5000D01*
X51405Y12791D02*
X51419D01*
X50314Y11700D02*
X51405Y12791D01*
X35608Y11700D02*
X50314D01*
X65000Y5000D02*
X68900D01*
X76600Y12700D02*
Y23577D01*
X68900Y5000D02*
X76600Y12700D01*
X101220Y20447D02*
Y23720D01*
X108200Y30700D01*
X138300D01*
X86615Y28500D02*
X104303D01*
X115903Y40100D01*
X129800D01*
X77800Y23080D02*
X85620Y30900D01*
X85123Y32100D02*
X102800D01*
X103300Y30900D02*
X114900Y42500D01*
X86117Y29700D02*
X103800D01*
X102800Y32100D02*
X114400Y43700D01*
X85620Y30900D02*
X103300D01*
X103800Y29700D02*
X108644Y34544D01*
X80200Y22085D02*
X86615Y28500D01*
X76600Y23577D02*
X85123Y32100D01*
X75000Y5000D02*
X77800Y7800D01*
Y23080D01*
X101220Y19510D02*
Y20447D01*
X131400Y18988D02*
X137531D01*
X140742Y22200D01*
X149330D01*
X141239Y21000D02*
X149827D01*
X131400Y15200D02*
X135439D01*
X141239Y21000D01*
X149330Y22200D02*
X159503Y32373D01*
X139470Y65300D02*
X151907D01*
X139967Y64100D02*
X151410D01*
X135000Y12886D02*
X141914Y19800D01*
X161903Y31379D02*
Y55304D01*
X150324Y19800D02*
X161903Y31379D01*
X141914Y19800D02*
X150324D01*
X160703Y31876D02*
Y54807D01*
X149827Y21000D02*
X160703Y31876D01*
X151410Y64100D02*
X160703Y54807D01*
X151907Y65300D02*
X161903Y55304D01*
X135000Y5000D02*
Y12886D01*
X142081Y34481D02*
Y37041D01*
X138300Y30700D02*
X142081Y34481D01*
X122600Y63900D02*
Y73400D01*
X117000Y58300D02*
X122600Y63900D01*
X119700Y62697D02*
Y75800D01*
X125000Y64400D02*
Y85000D01*
X120300Y59700D02*
X125000Y64400D01*
X128000Y65300D02*
Y78300D01*
X122400Y59700D02*
X128000Y65300D01*
X131248Y59329D02*
Y81051D01*
X128301Y56382D02*
X131248Y59329D01*
X131200Y81100D02*
X131248Y81051D01*
X113266Y62212D02*
Y75034D01*
X126333Y57433D02*
X128900Y60000D01*
X124364Y58464D02*
X128900Y63000D01*
X140112Y62549D02*
X140464Y62900D01*
X140112Y52395D02*
Y62549D01*
X100333Y74339D02*
Y77767D01*
X99300Y80700D02*
X107600D01*
X113266Y75034D01*
X105000Y85000D02*
X116374Y73626D01*
Y62341D02*
X116374Y62341D01*
X116374Y62341D02*
Y73626D01*
X95000Y85000D02*
X99300Y80700D01*
X117700Y46100D02*
X133600D01*
X115900Y47900D02*
X117700Y46100D01*
X120300Y56508D02*
Y59700D01*
X119773Y56157D02*
X120125Y56508D01*
X120300D01*
X122400Y52400D02*
Y59700D01*
X122396Y52395D02*
X122400Y52400D01*
X99059Y69298D02*
X107606D01*
X98615D02*
X99059D01*
X110266Y62212D02*
Y66638D01*
X107606Y69298D02*
X110266Y66638D01*
X91762Y58300D02*
X117000D01*
X130100Y33200D02*
Y33200D01*
X128493Y34807D02*
Y36849D01*
Y34807D02*
X130100Y33200D01*
X128301Y37041D02*
X128493Y36849D01*
X124100Y33200D02*
X124364Y33464D01*
Y37041D01*
X122396Y34496D02*
Y37041D01*
X121100Y33200D02*
X122396Y34496D01*
X126333Y34383D02*
Y37041D01*
Y34383D02*
X127100Y33616D01*
Y33200D02*
Y33616D01*
X159503Y32373D02*
Y54310D01*
X150913Y62900D02*
X159503Y54310D01*
X140464Y62900D02*
X150913D01*
X136175Y52395D02*
Y62006D01*
X139470Y65300D01*
X138144Y52395D02*
Y62277D01*
X139967Y64100D01*
X108644Y34544D02*
Y34544D01*
X115400Y41300D01*
X130500D01*
X110884Y45516D02*
X112000Y44400D01*
X114900Y42500D02*
X131300D01*
X114400Y43700D02*
X132100D01*
X98515Y45516D02*
X110884D01*
X114500Y44900D02*
X132800D01*
X111900Y47500D02*
X114500Y44900D01*
X98531Y47500D02*
X111900D01*
X28908Y5000D02*
X35608Y11700D01*
X25000Y5000D02*
Y19300D01*
X26000Y20300D02*
X28431D01*
X25000Y19300D02*
X26000Y20300D01*
X25000Y5000D02*
X28908D01*
X86485Y47484D02*
X88737D01*
X90227Y48974D02*
Y56765D01*
X88737Y47484D02*
X90227Y48974D01*
Y56765D02*
X91762Y58300D01*
X79703Y47515D02*
X86454D01*
X100333Y70573D02*
Y74339D01*
X99059Y69298D02*
X100333Y70573D01*
X124364Y52395D02*
Y58464D01*
X126333Y52395D02*
Y57433D01*
X128301Y52395D02*
Y56382D01*
X134215Y52403D02*
Y84215D01*
X134207Y52395D02*
X134215Y52403D01*
X133600Y46100D02*
X140112Y39588D01*
Y37041D02*
Y39588D01*
X138142Y37043D02*
Y39558D01*
X132800Y44900D02*
X138142Y39558D01*
Y37043D02*
X138144Y37041D01*
X132100Y43700D02*
X136175Y39625D01*
Y37041D02*
Y39625D01*
X129800Y48239D02*
Y48726D01*
X130270Y49196D02*
Y52395D01*
X129800Y48726D02*
X130270Y49196D01*
X132238Y48801D02*
Y52395D01*
Y48801D02*
X132800Y48239D01*
X131300Y42500D02*
X134207Y39593D01*
X130500Y41300D02*
X132238Y39562D01*
X129800Y40100D02*
X130270Y39630D01*
X95376Y45516D02*
X98515D01*
Y47484D02*
X98531Y47500D01*
X134207Y37041D02*
Y39593D01*
X132238Y37041D02*
Y39562D01*
X130270Y37041D02*
Y39630D01*
X134215Y84215D02*
X135000Y85000D01*
X82064Y43122D02*
X82931Y42255D01*
X83316D01*
X95199Y45338D02*
X95376Y45516D01*
X96382Y47484D02*
X98515D01*
X95528Y48338D02*
X96382Y47484D01*
X95199Y48338D02*
X95528D01*
X80454Y43122D02*
X82064D01*
X80164Y43413D02*
X80454Y43122D01*
X83191Y45391D02*
X83316Y45516D01*
X86485D01*
X80164Y45381D02*
X80173Y45391D01*
X83191D01*
X86454Y47515D02*
X86485Y47484D01*
X76364Y50854D02*
X79703Y47515D01*
X76364Y50854D02*
Y53838D01*
D11*
X80301Y53839D02*
X80302Y53838D01*
X80300Y58900D02*
X80301Y58899D01*
X144049Y37041D02*
Y39558D01*
Y34391D02*
Y37041D01*
X146018D02*
X149375D01*
X146018Y52395D02*
X147900D01*
X142081D02*
Y55003D01*
X144049Y48097D02*
Y52395D01*
X75833Y45381D02*
Y47547D01*
Y41247D02*
Y43413D01*
X64178Y28490D02*
X64250Y28418D01*
Y25000D02*
Y28418D01*
X63250Y24000D02*
X64250Y25000D01*
X56700Y25100D02*
X57800Y24000D01*
X63250D01*
X56698Y28490D02*
X56700Y28488D01*
Y25100D02*
Y28488D01*
X98515Y41243D02*
Y43547D01*
X86485Y41247D02*
Y43547D01*
D17*
X70447Y25145D02*
D03*
Y28492D02*
D03*
X54825Y43690D02*
D03*
Y47036D02*
D03*
X29718Y50138D02*
D03*
Y53484D02*
D03*
D18*
X58912Y12919D02*
D03*
X62259D02*
D03*
X86404Y38187D02*
D03*
X89750D02*
D03*
X95199D02*
D03*
X98545D02*
D03*
D19*
X51419Y31616D02*
D03*
X44332D02*
D03*
D20*
X62903Y38909D02*
D03*
Y46980D02*
D03*
X70344Y42945D02*
D03*
D21*
X132238Y52395D02*
D03*
X118459D02*
D03*
X120427D02*
D03*
X122396D02*
D03*
X124364D02*
D03*
X126333D02*
D03*
X128301D02*
D03*
X130270D02*
D03*
X134207D02*
D03*
X136175D02*
D03*
X138144D02*
D03*
X140112D02*
D03*
X142081D02*
D03*
X144049D02*
D03*
X146018D02*
D03*
X136175Y37041D02*
D03*
X134207D02*
D03*
X130270D02*
D03*
X138144D02*
D03*
X144049D02*
D03*
X142081D02*
D03*
X140112D02*
D03*
X120427D02*
D03*
X118459D02*
D03*
X132238D02*
D03*
X122396D02*
D03*
X128301D02*
D03*
X126333D02*
D03*
X124364D02*
D03*
X146018D02*
D03*
D22*
X56189Y82638D02*
D03*
X29811D02*
D03*
D23*
X46937Y60000D02*
D03*
X39063D02*
D03*
D24*
X72427Y53838D02*
D03*
X76364D02*
D03*
X80302D02*
D03*
X84239D02*
D03*
D25*
X67309Y68307D02*
D03*
X89357D02*
D03*
D26*
X39455Y29893D02*
D03*
Y33437D02*
D03*
X34669Y29893D02*
D03*
Y33437D02*
D03*
D27*
X75833Y41247D02*
D03*
Y47547D02*
D03*
X80164Y41247D02*
D03*
Y47547D02*
D03*
D28*
X75833Y43413D02*
D03*
Y45381D02*
D03*
X80164Y43413D02*
D03*
Y45381D02*
D03*
D29*
X28858Y38158D02*
D03*
X190961Y29657D02*
D03*
X28858Y44230D02*
D03*
X19685Y66969D02*
D03*
Y23051D02*
D03*
D30*
X56698Y18290D02*
D03*
Y28490D02*
D03*
X64178Y18290D02*
D03*
X60438Y28490D02*
D03*
X64178D02*
D03*
D31*
X36701Y39500D02*
D03*
Y46980D02*
D03*
X46901Y39500D02*
D03*
Y43240D02*
D03*
Y46980D02*
D03*
D32*
X86485Y43547D02*
D03*
Y45516D02*
D03*
Y47484D02*
D03*
Y49453D02*
D03*
X98515Y43547D02*
D03*
Y45516D02*
D03*
Y47484D02*
D03*
Y49453D02*
D03*
D33*
X10000Y32454D02*
D03*
Y57546D02*
D03*
D34*
Y49528D02*
D03*
Y40472D02*
D03*
D35*
X20531Y42441D02*
D03*
Y39882D02*
D03*
Y47559D02*
D03*
Y50118D02*
D03*
Y45000D02*
D03*
D36*
X30399Y14296D02*
D03*
Y26304D02*
D03*
X42801Y14296D02*
D03*
Y26304D02*
D03*
D37*
X28431Y20300D02*
D03*
X44769D02*
D03*
D38*
X98615Y62212D02*
D03*
Y69298D02*
D03*
D39*
X96790Y74339D02*
D03*
X100333D02*
D03*
D67*
X95520Y16890D02*
D03*
Y19550D02*
D03*
X89820Y16850D02*
D03*
Y19510D02*
D03*
D68*
X84120Y17050D02*
D03*
Y19510D02*
D03*
X101220Y17050D02*
D03*
Y19510D02*
D03*
D69*
X95520Y16890D02*
Y19550D01*
X89820Y16850D02*
Y19510D01*
X20531Y45000D02*
X23500D01*
X25879Y41137D02*
Y42621D01*
Y41137D02*
X28858Y38158D01*
X23500Y45000D02*
X25879Y42621D01*
X20531Y47559D02*
X25529D01*
X28858Y44230D01*
X36701Y35272D02*
Y39500D01*
X34866Y33437D02*
X36701Y35272D01*
X34669Y33437D02*
X34866D01*
D70*
X101200Y14400D02*
Y16093D01*
X101220Y16113D01*
Y17050D01*
X95516Y11500D02*
X102997D01*
X116997Y25500D02*
X145500D01*
X102997Y11500D02*
X116997Y25500D01*
X151300Y31300D02*
Y35116D01*
X145500Y25500D02*
X151300Y31300D01*
X95516Y16886D02*
X95520Y16890D01*
X149375Y37041D02*
X151300Y35116D01*
D71*
X62131Y11257D02*
Y12791D01*
X39303Y9303D02*
X60177D01*
X62131Y11257D01*
X106700Y22300D02*
X112900Y28500D01*
X140700D02*
X144049Y31849D01*
X112900Y28500D02*
X140700D01*
X85399Y37083D02*
X86404Y38088D01*
X83111Y37083D02*
X85399D01*
X86404Y38088D02*
Y38187D01*
X86485Y38268D01*
X75833Y31779D02*
X76711Y30900D01*
X79703D01*
X75833Y31779D02*
Y41247D01*
X79703Y30900D02*
X83346Y34544D01*
X96841D01*
X80301Y53839D02*
Y58899D01*
X94309Y74339D02*
X96790D01*
X72500Y47547D02*
X75833D01*
X84120Y14345D02*
Y17050D01*
X84075Y14300D02*
X84120Y14345D01*
X95516Y11500D02*
Y16886D01*
X96841Y34544D02*
X98515Y36218D01*
Y38157D01*
X98545Y38187D01*
X95565Y19595D02*
Y25480D01*
X95520Y19550D02*
X95565Y19595D01*
X85814Y19510D02*
X89820D01*
Y25480D01*
X89800Y25500D02*
X89820Y25480D01*
X84120Y19510D02*
X85814D01*
X144049Y39558D02*
Y41300D01*
Y31849D02*
Y34391D01*
X147900Y52395D02*
X149400D01*
X142081Y55464D02*
X144049Y57433D01*
X144049D01*
X142081Y55003D02*
Y55464D01*
X144049Y46100D02*
Y48097D01*
X35000Y5000D02*
X39303Y9303D01*
X62131Y12791D02*
X62259Y12919D01*
X98515Y38217D02*
X98545Y38187D01*
X98515Y38217D02*
Y41243D01*
X86485Y38268D02*
Y41247D01*
X51419Y31616D02*
Y38081D01*
X50000Y39500D02*
X51419Y38081D01*
X46901Y39500D02*
X50000D01*
X46901Y39500D02*
X46901Y39500D01*
X39455Y29893D02*
X43484D01*
X44332Y30741D01*
Y31616D01*
X36951Y46730D02*
X40170D01*
X41500Y35482D02*
Y45400D01*
X40170Y46730D02*
X41500Y45400D01*
X39886Y33868D02*
X41500Y35482D01*
X36701Y46980D02*
X36951Y46730D01*
X39455Y33437D02*
X39652D01*
X39886Y33671D01*
Y33868D01*
D72*
X92650Y16800D02*
D03*
D73*
X59250Y38750D02*
D03*
D74*
X155000Y15000D02*
D03*
X145000D02*
D03*
X165000D02*
D03*
X75000Y85000D02*
D03*
X85000D02*
D03*
X95000D02*
D03*
X115000D02*
D03*
X125000D02*
D03*
X105000D02*
D03*
X165000D02*
D03*
X175000D02*
D03*
X135000D02*
D03*
X155000D02*
D03*
X145000D02*
D03*
X125000Y5000D02*
D03*
X115000D02*
D03*
X135000D02*
D03*
X95000D02*
D03*
X85000D02*
D03*
X105000D02*
D03*
X165000D02*
D03*
X145000D02*
D03*
X155000D02*
D03*
X25000D02*
D03*
X35000D02*
D03*
X45000D02*
D03*
X55000D02*
D03*
X75000D02*
D03*
X65000D02*
D03*
D75*
X175000Y15000D02*
D03*
X65000Y85000D02*
D03*
X175000Y5000D02*
D03*
D76*
X188585Y54805D02*
D03*
X121085Y15805D02*
D03*
X10000Y80000D02*
D03*
X190000Y10000D02*
D03*
Y80000D02*
D03*
X10000Y10000D02*
D03*
D77*
Y28563D02*
D03*
Y61437D02*
D03*
D78*
X21811Y36240D02*
D03*
Y53760D02*
D03*
D79*
X101200Y14400D02*
D03*
X195000Y20000D02*
D03*
X106100Y74300D02*
D03*
X20000Y12500D02*
D03*
X5000Y20000D02*
D03*
X32500Y70000D02*
D03*
X5000D02*
D03*
X22500Y82500D02*
D03*
X80000Y70000D02*
D03*
X145000D02*
D03*
X160000Y22500D02*
D03*
X170000D02*
D03*
X180000Y25000D02*
D03*
X167500Y55000D02*
D03*
X160000Y70000D02*
D03*
X175000D02*
D03*
X177500Y42500D02*
D03*
X195000D02*
D03*
Y70000D02*
D03*
X116283Y37054D02*
D03*
X95199Y41247D02*
D03*
X89750D02*
D03*
X115400Y52403D02*
D03*
X98515Y52395D02*
D03*
X94020Y62212D02*
D03*
X87475Y53839D02*
D03*
X49785Y86148D02*
D03*
Y79500D02*
D03*
X36560D02*
D03*
Y86148D02*
D03*
X51419Y43240D02*
D03*
X74011Y25100D02*
D03*
X55664Y12919D02*
D03*
X39937Y19967D02*
D03*
X36385Y26055D02*
D03*
X23839Y31006D02*
D03*
X34500Y55158D02*
D03*
Y64503D02*
D03*
Y60000D02*
D03*
X29718Y57436D02*
D03*
X154951Y52395D02*
D03*
X89932Y79556D02*
D03*
X72564Y18673D02*
D03*
X79605Y38755D02*
D03*
X83111Y37083D02*
D03*
X79703Y30900D02*
D03*
X72427Y59527D02*
D03*
X80300Y58900D02*
D03*
X94309Y74339D02*
D03*
X72500Y47547D02*
D03*
X84075Y14300D02*
D03*
X95516Y11500D02*
D03*
X67038Y20440D02*
D03*
X67000Y17141D02*
D03*
X67038Y13843D02*
D03*
X106700Y22300D02*
D03*
X95565Y25480D02*
D03*
X89800Y25500D02*
D03*
X131400Y18988D02*
D03*
Y15200D02*
D03*
X144049Y41300D02*
D03*
X149375Y37041D02*
D03*
X122600Y73400D02*
D03*
X119700Y75800D02*
D03*
X128000Y78300D02*
D03*
X131200Y81100D02*
D03*
X113266Y62212D02*
D03*
X128900Y63000D02*
D03*
Y60000D02*
D03*
X149400Y52395D02*
D03*
X144049Y57433D02*
D03*
X100333Y77767D02*
D03*
X115900Y47900D02*
D03*
X116374Y62341D02*
D03*
X119773Y56157D02*
D03*
X110266Y62212D02*
D03*
X130100Y33200D02*
D03*
X127100D02*
D03*
X124100D02*
D03*
X121100D02*
D03*
X112000Y44400D02*
D03*
X144049Y46100D02*
D03*
X51419Y12791D02*
D03*
X129800Y48239D02*
D03*
X132800D02*
D03*
X83316Y42255D02*
D03*
X95199Y45338D02*
D03*
Y48338D02*
D03*
X83200Y45400D02*
D03*
X37751Y49500D02*
D03*
X34500D02*
D03*
X58500Y38500D02*
D03*
X55000D02*
D03*
M02*
