G04*
G04 #@! TF.GenerationSoftware,Altium Limited,Altium Designer,20.1.11 (218)*
G04*
G04 Layer_Color=16711935*
%FSLAX25Y25*%
%MOIN*%
G70*
G04*
G04 #@! TF.SameCoordinates,8DDD7718-E0D7-425E-BE50-D601791E5550*
G04*
G04*
G04 #@! TF.FilePolarity,Positive*
G04*
G01*
G75*
%ADD14C,0.00394*%
%ADD15C,0.00787*%
%ADD16C,0.00500*%
%ADD115C,0.00197*%
G36*
X109724Y44362D02*
X110724Y41862D01*
X108724D01*
X109724Y44362D01*
D02*
G37*
G36*
X322575Y30131D02*
X322616Y30072D01*
X322664Y30013D01*
X322709Y29961D01*
X322753Y29917D01*
X322786Y29880D01*
X322801Y29869D01*
X322812Y29857D01*
X322816Y29854D01*
X322819Y29850D01*
X322897Y29787D01*
X322975Y29728D01*
X323049Y29676D01*
X323123Y29635D01*
X323186Y29598D01*
X323212Y29584D01*
X323234Y29572D01*
X323252Y29561D01*
X323267Y29558D01*
X323275Y29550D01*
X323278D01*
Y29247D01*
X323223Y29269D01*
X323167Y29295D01*
X323112Y29321D01*
X323060Y29347D01*
X323016Y29369D01*
X322979Y29388D01*
X322956Y29402D01*
X322953Y29406D01*
X322949D01*
X322882Y29447D01*
X322823Y29487D01*
X322771Y29524D01*
X322731Y29558D01*
X322694Y29584D01*
X322672Y29606D01*
X322653Y29621D01*
X322649Y29624D01*
Y27623D01*
X322335D01*
Y30194D01*
X322538D01*
X322575Y30131D01*
D02*
G37*
G36*
X325791Y27623D02*
X325450D01*
Y28511D01*
X325032Y28914D01*
X324122Y27623D01*
X323674D01*
X324795Y29143D01*
X323722Y30183D01*
X324185D01*
X325450Y28910D01*
Y30183D01*
X325791D01*
Y27623D01*
D02*
G37*
G36*
X328769D02*
X328444D01*
Y29802D01*
X327703Y27623D01*
X327400D01*
X326653Y29765D01*
Y27623D01*
X326327D01*
Y30183D01*
X326782D01*
X327396Y28400D01*
X327430Y28303D01*
X327456Y28222D01*
X327482Y28152D01*
X327500Y28093D01*
X327515Y28048D01*
X327526Y28015D01*
X327530Y27996D01*
X327533Y27989D01*
X327548Y28041D01*
X327567Y28100D01*
X327589Y28163D01*
X327607Y28226D01*
X327626Y28281D01*
X327641Y28326D01*
X327648Y28344D01*
X327652Y28355D01*
X327655Y28363D01*
Y28366D01*
X328262Y30183D01*
X328769D01*
Y27623D01*
D02*
G37*
G36*
X30503Y123245D02*
X30566Y123290D01*
X30592Y123312D01*
X30618Y123330D01*
X30640Y123349D01*
X30655Y123364D01*
X30666Y123375D01*
X30670Y123378D01*
X30688Y123397D01*
X30707Y123419D01*
X30755Y123471D01*
X30810Y123530D01*
X30866Y123593D01*
X30914Y123652D01*
X30936Y123678D01*
X30959Y123700D01*
X30973Y123719D01*
X30984Y123734D01*
X30992Y123741D01*
X30996Y123745D01*
X31047Y123804D01*
X31095Y123863D01*
X31144Y123915D01*
X31184Y123963D01*
X31225Y124007D01*
X31262Y124044D01*
X31295Y124081D01*
X31325Y124111D01*
X31354Y124141D01*
X31377Y124163D01*
X31395Y124181D01*
X31414Y124200D01*
X31436Y124218D01*
X31443Y124226D01*
X31506Y124277D01*
X31562Y124322D01*
X31617Y124359D01*
X31661Y124389D01*
X31702Y124411D01*
X31732Y124425D01*
X31750Y124433D01*
X31758Y124437D01*
X31813Y124459D01*
X31869Y124474D01*
X31920Y124488D01*
X31965Y124496D01*
X32006Y124499D01*
X32035Y124503D01*
X32054D01*
X32061D01*
X32117Y124499D01*
X32168Y124492D01*
X32220Y124485D01*
X32265Y124470D01*
X32353Y124433D01*
X32424Y124396D01*
X32457Y124374D01*
X32483Y124355D01*
X32509Y124337D01*
X32527Y124318D01*
X32542Y124303D01*
X32557Y124296D01*
X32561Y124289D01*
X32564Y124285D01*
X32601Y124244D01*
X32635Y124200D01*
X32660Y124152D01*
X32683Y124104D01*
X32720Y124007D01*
X32746Y123911D01*
X32753Y123871D01*
X32760Y123830D01*
X32764Y123793D01*
X32768Y123763D01*
X32772Y123737D01*
Y123700D01*
X32768Y123634D01*
X32764Y123571D01*
X32753Y123512D01*
X32742Y123456D01*
X32727Y123404D01*
X32712Y123356D01*
X32694Y123312D01*
X32675Y123271D01*
X32657Y123234D01*
X32638Y123205D01*
X32623Y123179D01*
X32609Y123156D01*
X32598Y123138D01*
X32587Y123127D01*
X32583Y123119D01*
X32579Y123116D01*
X32542Y123079D01*
X32501Y123045D01*
X32457Y123012D01*
X32413Y122986D01*
X32324Y122942D01*
X32235Y122912D01*
X32194Y122901D01*
X32154Y122890D01*
X32120Y122883D01*
X32091Y122875D01*
X32065Y122871D01*
X32046D01*
X32035Y122868D01*
X32032D01*
X31998Y123190D01*
X32083Y123197D01*
X32157Y123212D01*
X32224Y123234D01*
X32276Y123260D01*
X32320Y123282D01*
X32350Y123304D01*
X32368Y123319D01*
X32376Y123327D01*
X32420Y123382D01*
X32453Y123441D01*
X32479Y123504D01*
X32494Y123560D01*
X32505Y123611D01*
X32509Y123656D01*
X32513Y123671D01*
Y123693D01*
X32509Y123771D01*
X32494Y123841D01*
X32472Y123900D01*
X32450Y123952D01*
X32424Y123993D01*
X32405Y124019D01*
X32390Y124037D01*
X32383Y124044D01*
X32331Y124089D01*
X32279Y124122D01*
X32228Y124148D01*
X32176Y124163D01*
X32135Y124174D01*
X32098Y124178D01*
X32076Y124181D01*
X32072D01*
X32068D01*
X32002Y124174D01*
X31932Y124159D01*
X31869Y124133D01*
X31809Y124107D01*
X31761Y124078D01*
X31721Y124052D01*
X31706Y124044D01*
X31695Y124037D01*
X31691Y124030D01*
X31687D01*
X31647Y124000D01*
X31606Y123963D01*
X31562Y123922D01*
X31517Y123878D01*
X31428Y123785D01*
X31340Y123693D01*
X31299Y123645D01*
X31262Y123604D01*
X31229Y123563D01*
X31199Y123530D01*
X31177Y123504D01*
X31158Y123482D01*
X31147Y123467D01*
X31144Y123463D01*
X31066Y123371D01*
X30992Y123286D01*
X30925Y123216D01*
X30870Y123160D01*
X30822Y123112D01*
X30788Y123079D01*
X30766Y123060D01*
X30762Y123053D01*
X30759D01*
X30696Y123001D01*
X30637Y122960D01*
X30577Y122923D01*
X30526Y122894D01*
X30481Y122871D01*
X30448Y122857D01*
X30426Y122849D01*
X30422Y122846D01*
X30418D01*
X30378Y122831D01*
X30341Y122823D01*
X30304Y122816D01*
X30270Y122812D01*
X30241Y122809D01*
X30218D01*
X30204D01*
X30200D01*
Y124507D01*
X30503D01*
Y123245D01*
D02*
G37*
G36*
X31095Y122224D02*
X31036Y122209D01*
X30981Y122191D01*
X30929Y122172D01*
X30881Y122154D01*
X30836Y122132D01*
X30799Y122109D01*
X30762Y122083D01*
X30729Y122061D01*
X30700Y122043D01*
X30677Y122020D01*
X30655Y122002D01*
X30637Y121987D01*
X30626Y121972D01*
X30614Y121961D01*
X30611Y121958D01*
X30607Y121954D01*
X30577Y121917D01*
X30555Y121876D01*
X30514Y121795D01*
X30485Y121717D01*
X30466Y121639D01*
X30452Y121573D01*
X30448Y121547D01*
Y121521D01*
X30444Y121499D01*
Y121473D01*
X30448Y121388D01*
X30463Y121306D01*
X30481Y121232D01*
X30503Y121166D01*
X30526Y121114D01*
X30537Y121092D01*
X30544Y121073D01*
X30551Y121058D01*
X30559Y121047D01*
X30563Y121040D01*
Y121036D01*
X30614Y120966D01*
X30670Y120907D01*
X30733Y120855D01*
X30792Y120814D01*
X30844Y120781D01*
X30888Y120759D01*
X30907Y120751D01*
X30918Y120744D01*
X30925Y120740D01*
X30929D01*
X31025Y120711D01*
X31121Y120688D01*
X31218Y120670D01*
X31306Y120659D01*
X31347Y120655D01*
X31384Y120651D01*
X31417D01*
X31443Y120648D01*
X31465D01*
X31484D01*
X31495D01*
X31499D01*
X31595Y120651D01*
X31684Y120659D01*
X31765Y120674D01*
X31839Y120688D01*
X31902Y120700D01*
X31928Y120707D01*
X31950Y120714D01*
X31969Y120718D01*
X31980Y120722D01*
X31987Y120726D01*
X31991D01*
X32076Y120763D01*
X32154Y120803D01*
X32217Y120848D01*
X32272Y120896D01*
X32316Y120936D01*
X32346Y120970D01*
X32364Y120996D01*
X32372Y120999D01*
Y121003D01*
X32420Y121081D01*
X32457Y121166D01*
X32483Y121247D01*
X32498Y121325D01*
X32509Y121395D01*
X32513Y121425D01*
Y121451D01*
X32516Y121469D01*
Y121499D01*
X32513Y121591D01*
X32498Y121676D01*
X32476Y121747D01*
X32453Y121810D01*
X32427Y121858D01*
X32409Y121895D01*
X32394Y121917D01*
X32387Y121924D01*
X32331Y121984D01*
X32268Y122039D01*
X32202Y122083D01*
X32135Y122120D01*
X32076Y122150D01*
X32046Y122161D01*
X32024Y122169D01*
X32006Y122176D01*
X31991Y122183D01*
X31983Y122187D01*
X31980D01*
X32057Y122520D01*
X32124Y122498D01*
X32183Y122476D01*
X32239Y122446D01*
X32294Y122420D01*
X32342Y122390D01*
X32387Y122357D01*
X32431Y122328D01*
X32468Y122298D01*
X32498Y122268D01*
X32527Y122242D01*
X32553Y122217D01*
X32572Y122198D01*
X32590Y122180D01*
X32601Y122165D01*
X32605Y122157D01*
X32609Y122154D01*
X32642Y122102D01*
X32675Y122050D01*
X32701Y121998D01*
X32723Y121943D01*
X32757Y121832D01*
X32779Y121732D01*
X32790Y121684D01*
X32794Y121643D01*
X32797Y121602D01*
X32801Y121569D01*
X32805Y121543D01*
Y121506D01*
X32797Y121384D01*
X32779Y121266D01*
X32757Y121162D01*
X32742Y121114D01*
X32727Y121070D01*
X32712Y121029D01*
X32697Y120992D01*
X32686Y120962D01*
X32675Y120933D01*
X32664Y120914D01*
X32657Y120899D01*
X32653Y120888D01*
X32649Y120885D01*
X32587Y120785D01*
X32513Y120700D01*
X32438Y120626D01*
X32364Y120563D01*
X32298Y120515D01*
X32268Y120496D01*
X32242Y120481D01*
X32224Y120466D01*
X32209Y120459D01*
X32198Y120455D01*
X32194Y120452D01*
X32080Y120400D01*
X31961Y120363D01*
X31843Y120337D01*
X31736Y120318D01*
X31687Y120311D01*
X31639Y120307D01*
X31602Y120304D01*
X31565D01*
X31539Y120300D01*
X31517D01*
X31502D01*
X31499D01*
X31365Y120307D01*
X31236Y120322D01*
X31121Y120341D01*
X31066Y120355D01*
X31018Y120367D01*
X30973Y120378D01*
X30933Y120393D01*
X30896Y120404D01*
X30866Y120411D01*
X30844Y120422D01*
X30825Y120426D01*
X30814Y120433D01*
X30810D01*
X30700Y120489D01*
X30600Y120552D01*
X30514Y120618D01*
X30481Y120651D01*
X30448Y120681D01*
X30418Y120711D01*
X30392Y120740D01*
X30370Y120766D01*
X30355Y120788D01*
X30341Y120803D01*
X30329Y120818D01*
X30326Y120825D01*
X30322Y120829D01*
X30292Y120881D01*
X30267Y120933D01*
X30226Y121044D01*
X30196Y121155D01*
X30178Y121262D01*
X30170Y121314D01*
X30163Y121358D01*
X30159Y121399D01*
Y121432D01*
X30156Y121462D01*
Y121502D01*
X30159Y121576D01*
X30167Y121647D01*
X30174Y121713D01*
X30189Y121776D01*
X30207Y121835D01*
X30226Y121891D01*
X30244Y121943D01*
X30267Y121991D01*
X30285Y122032D01*
X30304Y122072D01*
X30322Y122102D01*
X30341Y122132D01*
X30355Y122150D01*
X30363Y122169D01*
X30370Y122176D01*
X30374Y122180D01*
X30418Y122231D01*
X30463Y122276D01*
X30514Y122317D01*
X30566Y122357D01*
X30670Y122424D01*
X30773Y122476D01*
X30822Y122498D01*
X30866Y122516D01*
X30907Y122531D01*
X30940Y122542D01*
X30970Y122553D01*
X30992Y122561D01*
X31007Y122564D01*
X31010D01*
X31095Y122224D01*
D02*
G37*
G36*
X224047Y138764D02*
X224147Y138746D01*
X224232Y138716D01*
X224306Y138686D01*
X224340Y138668D01*
X224366Y138653D01*
X224392Y138638D01*
X224410Y138623D01*
X224425Y138612D01*
X224436Y138605D01*
X224443Y138601D01*
X224447Y138598D01*
X224517Y138527D01*
X224573Y138450D01*
X224617Y138368D01*
X224654Y138287D01*
X224676Y138216D01*
X224688Y138187D01*
X224695Y138161D01*
X224699Y138139D01*
X224702Y138124D01*
X224706Y138113D01*
Y138109D01*
X224392Y138054D01*
X224377Y138135D01*
X224355Y138205D01*
X224329Y138265D01*
X224303Y138313D01*
X224277Y138350D01*
X224255Y138376D01*
X224240Y138394D01*
X224236Y138398D01*
X224188Y138435D01*
X224136Y138464D01*
X224088Y138483D01*
X224040Y138498D01*
X223996Y138505D01*
X223962Y138513D01*
X223933D01*
X223866Y138509D01*
X223807Y138494D01*
X223755Y138476D01*
X223711Y138457D01*
X223677Y138435D01*
X223652Y138416D01*
X223633Y138401D01*
X223629Y138398D01*
X223589Y138353D01*
X223559Y138305D01*
X223540Y138257D01*
X223526Y138213D01*
X223518Y138172D01*
X223511Y138143D01*
Y138120D01*
Y138117D01*
Y138113D01*
Y138072D01*
X223518Y138035D01*
X223537Y137972D01*
X223563Y137917D01*
X223592Y137869D01*
X223622Y137835D01*
X223648Y137810D01*
X223666Y137795D01*
X223670Y137791D01*
X223674D01*
X223737Y137758D01*
X223796Y137732D01*
X223859Y137713D01*
X223914Y137702D01*
X223962Y137695D01*
X224003Y137687D01*
X224051D01*
X224066Y137691D01*
X224084D01*
X224121Y137414D01*
X224073Y137425D01*
X224029Y137432D01*
X223992Y137440D01*
X223959Y137443D01*
X223933Y137447D01*
X223899D01*
X223822Y137440D01*
X223751Y137425D01*
X223689Y137402D01*
X223637Y137377D01*
X223596Y137351D01*
X223566Y137329D01*
X223548Y137314D01*
X223540Y137306D01*
X223492Y137251D01*
X223455Y137192D01*
X223429Y137132D01*
X223415Y137073D01*
X223404Y137025D01*
X223400Y136984D01*
X223396Y136970D01*
Y136959D01*
Y136951D01*
Y136947D01*
X223404Y136866D01*
X223422Y136792D01*
X223444Y136729D01*
X223474Y136674D01*
X223503Y136629D01*
X223526Y136596D01*
X223544Y136574D01*
X223552Y136566D01*
X223611Y136514D01*
X223674Y136477D01*
X223737Y136452D01*
X223796Y136433D01*
X223848Y136422D01*
X223888Y136418D01*
X223903Y136415D01*
X223925D01*
X223992Y136418D01*
X224055Y136433D01*
X224110Y136452D01*
X224155Y136474D01*
X224192Y136492D01*
X224221Y136511D01*
X224236Y136526D01*
X224243Y136529D01*
X224288Y136581D01*
X224325Y136640D01*
X224358Y136703D01*
X224384Y136770D01*
X224403Y136825D01*
X224410Y136851D01*
X224414Y136873D01*
X224417Y136892D01*
X224421Y136907D01*
X224425Y136914D01*
Y136918D01*
X224739Y136877D01*
X224732Y136818D01*
X224721Y136762D01*
X224688Y136659D01*
X224647Y136570D01*
X224625Y136533D01*
X224602Y136496D01*
X224580Y136463D01*
X224558Y136437D01*
X224539Y136411D01*
X224521Y136392D01*
X224510Y136378D01*
X224499Y136366D01*
X224491Y136359D01*
X224488Y136355D01*
X224443Y136322D01*
X224399Y136289D01*
X224355Y136263D01*
X224306Y136241D01*
X224214Y136204D01*
X224125Y136181D01*
X224084Y136174D01*
X224047Y136167D01*
X224014Y136163D01*
X223985Y136159D01*
X223962Y136156D01*
X223929D01*
X223859Y136159D01*
X223796Y136167D01*
X223733Y136178D01*
X223674Y136193D01*
X223618Y136211D01*
X223570Y136230D01*
X223522Y136252D01*
X223481Y136274D01*
X223441Y136293D01*
X223407Y136315D01*
X223378Y136333D01*
X223356Y136352D01*
X223337Y136366D01*
X223322Y136378D01*
X223315Y136385D01*
X223311Y136389D01*
X223267Y136433D01*
X223230Y136481D01*
X223196Y136529D01*
X223167Y136577D01*
X223145Y136622D01*
X223122Y136670D01*
X223093Y136759D01*
X223085Y136799D01*
X223078Y136836D01*
X223071Y136870D01*
X223067Y136899D01*
X223063Y136922D01*
Y136940D01*
Y136951D01*
Y136955D01*
X223067Y137044D01*
X223082Y137125D01*
X223104Y137195D01*
X223126Y137255D01*
X223148Y137303D01*
X223170Y137340D01*
X223185Y137362D01*
X223189Y137369D01*
X223241Y137425D01*
X223296Y137473D01*
X223356Y137510D01*
X223415Y137539D01*
X223466Y137562D01*
X223507Y137576D01*
X223522Y137580D01*
X223533Y137584D01*
X223540Y137587D01*
X223544D01*
X223481Y137621D01*
X223429Y137654D01*
X223385Y137691D01*
X223348Y137724D01*
X223319Y137754D01*
X223296Y137780D01*
X223285Y137795D01*
X223282Y137802D01*
X223252Y137854D01*
X223230Y137906D01*
X223211Y137958D01*
X223200Y138006D01*
X223193Y138046D01*
X223189Y138076D01*
Y138098D01*
Y138105D01*
X223193Y138168D01*
X223204Y138231D01*
X223219Y138287D01*
X223237Y138335D01*
X223256Y138376D01*
X223270Y138409D01*
X223282Y138427D01*
X223285Y138435D01*
X223322Y138490D01*
X223367Y138538D01*
X223411Y138579D01*
X223455Y138616D01*
X223492Y138642D01*
X223526Y138664D01*
X223548Y138675D01*
X223552Y138679D01*
X223555D01*
X223622Y138709D01*
X223689Y138731D01*
X223755Y138749D01*
X223814Y138760D01*
X223862Y138768D01*
X223903Y138771D01*
X223996D01*
X224047Y138764D01*
D02*
G37*
G36*
X227000Y136200D02*
X226660D01*
Y137240D01*
X226005D01*
X225908Y137243D01*
X225816Y137251D01*
X225735Y137262D01*
X225661Y137277D01*
X225590Y137292D01*
X225531Y137310D01*
X225476Y137332D01*
X225428Y137354D01*
X225387Y137373D01*
X225350Y137395D01*
X225320Y137414D01*
X225298Y137432D01*
X225279Y137443D01*
X225268Y137454D01*
X225261Y137462D01*
X225257Y137465D01*
X225220Y137510D01*
X225187Y137554D01*
X225161Y137599D01*
X225135Y137647D01*
X225113Y137695D01*
X225098Y137739D01*
X225072Y137824D01*
X225065Y137865D01*
X225058Y137902D01*
X225054Y137935D01*
X225050Y137961D01*
X225046Y137987D01*
Y138002D01*
Y138013D01*
Y138017D01*
X225050Y138087D01*
X225058Y138154D01*
X225072Y138213D01*
X225083Y138265D01*
X225098Y138309D01*
X225113Y138342D01*
X225120Y138361D01*
X225124Y138368D01*
X225154Y138424D01*
X225191Y138472D01*
X225224Y138516D01*
X225257Y138549D01*
X225287Y138575D01*
X225309Y138598D01*
X225324Y138609D01*
X225331Y138612D01*
X225379Y138642D01*
X225435Y138668D01*
X225487Y138690D01*
X225535Y138709D01*
X225579Y138720D01*
X225612Y138727D01*
X225638Y138734D01*
X225646D01*
X225701Y138742D01*
X225764Y138749D01*
X225831Y138753D01*
X225894Y138757D01*
X225949Y138760D01*
X227000D01*
Y136200D01*
D02*
G37*
G36*
X198651Y155064D02*
X198751Y155046D01*
X198836Y155016D01*
X198910Y154986D01*
X198944Y154968D01*
X198970Y154953D01*
X198995Y154938D01*
X199014Y154923D01*
X199029Y154912D01*
X199040Y154905D01*
X199047Y154901D01*
X199051Y154898D01*
X199121Y154827D01*
X199177Y154750D01*
X199221Y154668D01*
X199258Y154587D01*
X199280Y154516D01*
X199292Y154487D01*
X199299Y154461D01*
X199303Y154439D01*
X199306Y154424D01*
X199310Y154413D01*
Y154409D01*
X198995Y154354D01*
X198981Y154435D01*
X198959Y154505D01*
X198933Y154565D01*
X198907Y154613D01*
X198881Y154650D01*
X198859Y154676D01*
X198844Y154694D01*
X198840Y154698D01*
X198792Y154735D01*
X198740Y154764D01*
X198692Y154783D01*
X198644Y154798D01*
X198600Y154805D01*
X198566Y154813D01*
X198537D01*
X198470Y154809D01*
X198411Y154794D01*
X198359Y154776D01*
X198315Y154757D01*
X198281Y154735D01*
X198256Y154716D01*
X198237Y154701D01*
X198233Y154698D01*
X198193Y154653D01*
X198163Y154605D01*
X198144Y154557D01*
X198130Y154513D01*
X198122Y154472D01*
X198115Y154443D01*
Y154420D01*
Y154417D01*
Y154413D01*
Y154372D01*
X198122Y154335D01*
X198141Y154272D01*
X198167Y154217D01*
X198196Y154169D01*
X198226Y154135D01*
X198252Y154110D01*
X198270Y154095D01*
X198274Y154091D01*
X198278D01*
X198341Y154058D01*
X198400Y154032D01*
X198463Y154013D01*
X198518Y154002D01*
X198566Y153995D01*
X198607Y153987D01*
X198655D01*
X198670Y153991D01*
X198688D01*
X198725Y153714D01*
X198677Y153725D01*
X198633Y153732D01*
X198596Y153740D01*
X198563Y153743D01*
X198537Y153747D01*
X198503D01*
X198426Y153740D01*
X198355Y153725D01*
X198293Y153702D01*
X198241Y153677D01*
X198200Y153651D01*
X198170Y153629D01*
X198152Y153614D01*
X198144Y153606D01*
X198096Y153551D01*
X198059Y153492D01*
X198033Y153432D01*
X198019Y153373D01*
X198008Y153325D01*
X198004Y153284D01*
X198000Y153270D01*
Y153259D01*
Y153251D01*
Y153247D01*
X198008Y153166D01*
X198026Y153092D01*
X198048Y153029D01*
X198078Y152974D01*
X198108Y152929D01*
X198130Y152896D01*
X198148Y152874D01*
X198156Y152866D01*
X198215Y152814D01*
X198278Y152778D01*
X198341Y152752D01*
X198400Y152733D01*
X198452Y152722D01*
X198492Y152718D01*
X198507Y152715D01*
X198529D01*
X198596Y152718D01*
X198659Y152733D01*
X198714Y152752D01*
X198759Y152774D01*
X198796Y152792D01*
X198825Y152811D01*
X198840Y152826D01*
X198847Y152829D01*
X198892Y152881D01*
X198929Y152940D01*
X198962Y153003D01*
X198988Y153070D01*
X199007Y153125D01*
X199014Y153151D01*
X199018Y153173D01*
X199021Y153192D01*
X199025Y153207D01*
X199029Y153214D01*
Y153218D01*
X199343Y153177D01*
X199336Y153118D01*
X199325Y153062D01*
X199292Y152959D01*
X199251Y152870D01*
X199229Y152833D01*
X199206Y152796D01*
X199184Y152763D01*
X199162Y152737D01*
X199144Y152711D01*
X199125Y152692D01*
X199114Y152678D01*
X199103Y152666D01*
X199095Y152659D01*
X199092Y152655D01*
X199047Y152622D01*
X199003Y152589D01*
X198959Y152563D01*
X198910Y152541D01*
X198818Y152504D01*
X198729Y152481D01*
X198688Y152474D01*
X198651Y152467D01*
X198618Y152463D01*
X198589Y152459D01*
X198566Y152456D01*
X198533D01*
X198463Y152459D01*
X198400Y152467D01*
X198337Y152478D01*
X198278Y152493D01*
X198222Y152511D01*
X198174Y152530D01*
X198126Y152552D01*
X198085Y152574D01*
X198045Y152593D01*
X198011Y152615D01*
X197982Y152633D01*
X197959Y152652D01*
X197941Y152666D01*
X197926Y152678D01*
X197919Y152685D01*
X197915Y152689D01*
X197871Y152733D01*
X197834Y152781D01*
X197800Y152829D01*
X197771Y152877D01*
X197749Y152922D01*
X197726Y152970D01*
X197697Y153059D01*
X197689Y153099D01*
X197682Y153136D01*
X197675Y153170D01*
X197671Y153199D01*
X197667Y153221D01*
Y153240D01*
Y153251D01*
Y153255D01*
X197671Y153344D01*
X197686Y153425D01*
X197708Y153495D01*
X197730Y153554D01*
X197752Y153603D01*
X197775Y153640D01*
X197789Y153662D01*
X197793Y153669D01*
X197845Y153725D01*
X197900Y153773D01*
X197959Y153810D01*
X198019Y153839D01*
X198071Y153862D01*
X198111Y153876D01*
X198126Y153880D01*
X198137Y153884D01*
X198144Y153887D01*
X198148D01*
X198085Y153921D01*
X198033Y153954D01*
X197989Y153991D01*
X197952Y154024D01*
X197923Y154054D01*
X197900Y154080D01*
X197889Y154095D01*
X197886Y154102D01*
X197856Y154154D01*
X197834Y154206D01*
X197815Y154258D01*
X197804Y154306D01*
X197797Y154346D01*
X197793Y154376D01*
Y154398D01*
Y154405D01*
X197797Y154468D01*
X197808Y154531D01*
X197823Y154587D01*
X197841Y154635D01*
X197860Y154676D01*
X197874Y154709D01*
X197886Y154727D01*
X197889Y154735D01*
X197926Y154790D01*
X197971Y154838D01*
X198015Y154879D01*
X198059Y154916D01*
X198096Y154942D01*
X198130Y154964D01*
X198152Y154975D01*
X198156Y154979D01*
X198159D01*
X198226Y155009D01*
X198293Y155031D01*
X198359Y155049D01*
X198418Y155060D01*
X198466Y155068D01*
X198507Y155071D01*
X198600D01*
X198651Y155064D01*
D02*
G37*
G36*
X196661D02*
X196761Y155046D01*
X196846Y155016D01*
X196920Y154986D01*
X196953Y154968D01*
X196979Y154953D01*
X197005Y154938D01*
X197023Y154923D01*
X197038Y154912D01*
X197049Y154905D01*
X197057Y154901D01*
X197060Y154898D01*
X197131Y154827D01*
X197186Y154750D01*
X197231Y154668D01*
X197268Y154587D01*
X197290Y154516D01*
X197301Y154487D01*
X197308Y154461D01*
X197312Y154439D01*
X197316Y154424D01*
X197319Y154413D01*
Y154409D01*
X197005Y154354D01*
X196990Y154435D01*
X196968Y154505D01*
X196942Y154565D01*
X196916Y154613D01*
X196890Y154650D01*
X196868Y154676D01*
X196853Y154694D01*
X196850Y154698D01*
X196801Y154735D01*
X196750Y154764D01*
X196702Y154783D01*
X196653Y154798D01*
X196609Y154805D01*
X196576Y154813D01*
X196546D01*
X196479Y154809D01*
X196420Y154794D01*
X196369Y154776D01*
X196324Y154757D01*
X196291Y154735D01*
X196265Y154716D01*
X196246Y154701D01*
X196243Y154698D01*
X196202Y154653D01*
X196172Y154605D01*
X196154Y154557D01*
X196139Y154513D01*
X196132Y154472D01*
X196124Y154443D01*
Y154420D01*
Y154417D01*
Y154413D01*
Y154372D01*
X196132Y154335D01*
X196150Y154272D01*
X196176Y154217D01*
X196206Y154169D01*
X196235Y154135D01*
X196261Y154110D01*
X196280Y154095D01*
X196283Y154091D01*
X196287D01*
X196350Y154058D01*
X196409Y154032D01*
X196472Y154013D01*
X196528Y154002D01*
X196576Y153995D01*
X196616Y153987D01*
X196665D01*
X196679Y153991D01*
X196698D01*
X196735Y153714D01*
X196687Y153725D01*
X196642Y153732D01*
X196605Y153740D01*
X196572Y153743D01*
X196546Y153747D01*
X196513D01*
X196435Y153740D01*
X196365Y153725D01*
X196302Y153702D01*
X196250Y153677D01*
X196209Y153651D01*
X196180Y153629D01*
X196161Y153614D01*
X196154Y153606D01*
X196106Y153551D01*
X196069Y153492D01*
X196043Y153432D01*
X196028Y153373D01*
X196017Y153325D01*
X196013Y153284D01*
X196010Y153270D01*
Y153259D01*
Y153251D01*
Y153247D01*
X196017Y153166D01*
X196036Y153092D01*
X196058Y153029D01*
X196087Y152974D01*
X196117Y152929D01*
X196139Y152896D01*
X196158Y152874D01*
X196165Y152866D01*
X196224Y152814D01*
X196287Y152778D01*
X196350Y152752D01*
X196409Y152733D01*
X196461Y152722D01*
X196502Y152718D01*
X196517Y152715D01*
X196539D01*
X196605Y152718D01*
X196668Y152733D01*
X196724Y152752D01*
X196768Y152774D01*
X196805Y152792D01*
X196835Y152811D01*
X196850Y152826D01*
X196857Y152829D01*
X196901Y152881D01*
X196938Y152940D01*
X196972Y153003D01*
X196997Y153070D01*
X197016Y153125D01*
X197023Y153151D01*
X197027Y153173D01*
X197031Y153192D01*
X197035Y153207D01*
X197038Y153214D01*
Y153218D01*
X197353Y153177D01*
X197345Y153118D01*
X197334Y153062D01*
X197301Y152959D01*
X197260Y152870D01*
X197238Y152833D01*
X197216Y152796D01*
X197194Y152763D01*
X197171Y152737D01*
X197153Y152711D01*
X197134Y152692D01*
X197123Y152678D01*
X197112Y152666D01*
X197105Y152659D01*
X197101Y152655D01*
X197057Y152622D01*
X197012Y152589D01*
X196968Y152563D01*
X196920Y152541D01*
X196827Y152504D01*
X196739Y152481D01*
X196698Y152474D01*
X196661Y152467D01*
X196627Y152463D01*
X196598Y152459D01*
X196576Y152456D01*
X196542D01*
X196472Y152459D01*
X196409Y152467D01*
X196346Y152478D01*
X196287Y152493D01*
X196232Y152511D01*
X196184Y152530D01*
X196135Y152552D01*
X196095Y152574D01*
X196054Y152593D01*
X196021Y152615D01*
X195991Y152633D01*
X195969Y152652D01*
X195950Y152666D01*
X195936Y152678D01*
X195928Y152685D01*
X195924Y152689D01*
X195880Y152733D01*
X195843Y152781D01*
X195810Y152829D01*
X195780Y152877D01*
X195758Y152922D01*
X195736Y152970D01*
X195706Y153059D01*
X195699Y153099D01*
X195691Y153136D01*
X195684Y153170D01*
X195680Y153199D01*
X195677Y153221D01*
Y153240D01*
Y153251D01*
Y153255D01*
X195680Y153344D01*
X195695Y153425D01*
X195717Y153495D01*
X195739Y153554D01*
X195762Y153603D01*
X195784Y153640D01*
X195799Y153662D01*
X195802Y153669D01*
X195854Y153725D01*
X195910Y153773D01*
X195969Y153810D01*
X196028Y153839D01*
X196080Y153862D01*
X196121Y153876D01*
X196135Y153880D01*
X196147Y153884D01*
X196154Y153887D01*
X196158D01*
X196095Y153921D01*
X196043Y153954D01*
X195999Y153991D01*
X195961Y154024D01*
X195932Y154054D01*
X195910Y154080D01*
X195899Y154095D01*
X195895Y154102D01*
X195865Y154154D01*
X195843Y154206D01*
X195825Y154258D01*
X195814Y154306D01*
X195806Y154346D01*
X195802Y154376D01*
Y154398D01*
Y154405D01*
X195806Y154468D01*
X195817Y154531D01*
X195832Y154587D01*
X195851Y154635D01*
X195869Y154676D01*
X195884Y154709D01*
X195895Y154727D01*
X195899Y154735D01*
X195936Y154790D01*
X195980Y154838D01*
X196024Y154879D01*
X196069Y154916D01*
X196106Y154942D01*
X196139Y154964D01*
X196161Y154975D01*
X196165Y154979D01*
X196169D01*
X196235Y155009D01*
X196302Y155031D01*
X196369Y155049D01*
X196428Y155060D01*
X196476Y155068D01*
X196517Y155071D01*
X196609D01*
X196661Y155064D01*
D02*
G37*
G36*
X200816Y155097D02*
X200934Y155079D01*
X201038Y155057D01*
X201086Y155042D01*
X201130Y155027D01*
X201171Y155012D01*
X201208Y154998D01*
X201238Y154986D01*
X201267Y154975D01*
X201286Y154964D01*
X201301Y154957D01*
X201312Y154953D01*
X201315Y154949D01*
X201415Y154886D01*
X201500Y154813D01*
X201574Y154738D01*
X201637Y154665D01*
X201685Y154598D01*
X201704Y154568D01*
X201719Y154542D01*
X201733Y154524D01*
X201741Y154509D01*
X201745Y154498D01*
X201748Y154494D01*
X201800Y154380D01*
X201837Y154261D01*
X201863Y154143D01*
X201882Y154035D01*
X201889Y153987D01*
X201893Y153939D01*
X201896Y153902D01*
Y153865D01*
X201900Y153839D01*
Y153817D01*
Y153802D01*
Y153799D01*
X201893Y153665D01*
X201878Y153536D01*
X201859Y153421D01*
X201845Y153366D01*
X201833Y153318D01*
X201822Y153273D01*
X201807Y153233D01*
X201796Y153196D01*
X201789Y153166D01*
X201778Y153144D01*
X201774Y153125D01*
X201767Y153114D01*
Y153111D01*
X201711Y152999D01*
X201648Y152900D01*
X201582Y152814D01*
X201549Y152781D01*
X201519Y152748D01*
X201489Y152718D01*
X201460Y152692D01*
X201434Y152670D01*
X201412Y152655D01*
X201397Y152641D01*
X201382Y152629D01*
X201375Y152626D01*
X201371Y152622D01*
X201319Y152593D01*
X201267Y152567D01*
X201156Y152526D01*
X201045Y152496D01*
X200938Y152478D01*
X200886Y152470D01*
X200842Y152463D01*
X200801Y152459D01*
X200768D01*
X200738Y152456D01*
X200697D01*
X200623Y152459D01*
X200553Y152467D01*
X200487Y152474D01*
X200424Y152489D01*
X200364Y152507D01*
X200309Y152526D01*
X200257Y152544D01*
X200209Y152567D01*
X200168Y152585D01*
X200128Y152604D01*
X200098Y152622D01*
X200068Y152641D01*
X200050Y152655D01*
X200031Y152663D01*
X200024Y152670D01*
X200020Y152674D01*
X199969Y152718D01*
X199924Y152763D01*
X199883Y152814D01*
X199843Y152866D01*
X199776Y152970D01*
X199724Y153074D01*
X199702Y153122D01*
X199684Y153166D01*
X199669Y153207D01*
X199658Y153240D01*
X199647Y153270D01*
X199639Y153292D01*
X199636Y153307D01*
Y153310D01*
X199976Y153395D01*
X199991Y153336D01*
X200009Y153281D01*
X200028Y153229D01*
X200046Y153181D01*
X200068Y153136D01*
X200091Y153099D01*
X200117Y153062D01*
X200139Y153029D01*
X200157Y152999D01*
X200180Y152977D01*
X200198Y152955D01*
X200213Y152937D01*
X200228Y152926D01*
X200239Y152914D01*
X200242Y152911D01*
X200246Y152907D01*
X200283Y152877D01*
X200324Y152855D01*
X200405Y152814D01*
X200483Y152785D01*
X200561Y152766D01*
X200627Y152752D01*
X200653Y152748D01*
X200679D01*
X200701Y152744D01*
X200727D01*
X200812Y152748D01*
X200894Y152763D01*
X200968Y152781D01*
X201034Y152803D01*
X201086Y152826D01*
X201108Y152837D01*
X201127Y152844D01*
X201142Y152851D01*
X201153Y152859D01*
X201160Y152863D01*
X201164D01*
X201234Y152914D01*
X201293Y152970D01*
X201345Y153033D01*
X201386Y153092D01*
X201419Y153144D01*
X201441Y153188D01*
X201449Y153207D01*
X201456Y153218D01*
X201460Y153225D01*
Y153229D01*
X201489Y153325D01*
X201512Y153421D01*
X201530Y153517D01*
X201541Y153606D01*
X201545Y153647D01*
X201549Y153684D01*
Y153717D01*
X201552Y153743D01*
Y153765D01*
Y153784D01*
Y153795D01*
Y153799D01*
X201549Y153895D01*
X201541Y153984D01*
X201526Y154065D01*
X201512Y154139D01*
X201500Y154202D01*
X201493Y154228D01*
X201486Y154250D01*
X201482Y154269D01*
X201478Y154280D01*
X201474Y154287D01*
Y154291D01*
X201437Y154376D01*
X201397Y154454D01*
X201352Y154516D01*
X201304Y154572D01*
X201264Y154616D01*
X201230Y154646D01*
X201204Y154665D01*
X201201Y154672D01*
X201197D01*
X201119Y154720D01*
X201034Y154757D01*
X200953Y154783D01*
X200875Y154798D01*
X200805Y154809D01*
X200775Y154813D01*
X200749D01*
X200731Y154816D01*
X200701D01*
X200609Y154813D01*
X200524Y154798D01*
X200453Y154776D01*
X200390Y154753D01*
X200342Y154727D01*
X200305Y154709D01*
X200283Y154694D01*
X200276Y154687D01*
X200217Y154631D01*
X200161Y154568D01*
X200117Y154502D01*
X200080Y154435D01*
X200050Y154376D01*
X200039Y154346D01*
X200031Y154324D01*
X200024Y154306D01*
X200017Y154291D01*
X200013Y154283D01*
Y154280D01*
X199680Y154357D01*
X199702Y154424D01*
X199724Y154483D01*
X199754Y154539D01*
X199780Y154594D01*
X199810Y154642D01*
X199843Y154687D01*
X199872Y154731D01*
X199902Y154768D01*
X199932Y154798D01*
X199958Y154827D01*
X199983Y154853D01*
X200002Y154872D01*
X200020Y154890D01*
X200035Y154901D01*
X200043Y154905D01*
X200046Y154909D01*
X200098Y154942D01*
X200150Y154975D01*
X200202Y155001D01*
X200257Y155023D01*
X200368Y155057D01*
X200468Y155079D01*
X200516Y155090D01*
X200557Y155094D01*
X200598Y155097D01*
X200631Y155101D01*
X200657Y155105D01*
X200694D01*
X200816Y155097D01*
D02*
G37*
G36*
X198551Y150764D02*
X198651Y150746D01*
X198736Y150716D01*
X198810Y150686D01*
X198844Y150668D01*
X198870Y150653D01*
X198896Y150638D01*
X198914Y150624D01*
X198929Y150612D01*
X198940Y150605D01*
X198947Y150601D01*
X198951Y150598D01*
X199021Y150527D01*
X199077Y150450D01*
X199121Y150368D01*
X199158Y150287D01*
X199180Y150216D01*
X199191Y150187D01*
X199199Y150161D01*
X199203Y150139D01*
X199206Y150124D01*
X199210Y150113D01*
Y150109D01*
X198896Y150054D01*
X198881Y150135D01*
X198858Y150205D01*
X198833Y150265D01*
X198807Y150313D01*
X198781Y150350D01*
X198759Y150376D01*
X198744Y150394D01*
X198740Y150398D01*
X198692Y150435D01*
X198640Y150464D01*
X198592Y150483D01*
X198544Y150498D01*
X198500Y150505D01*
X198466Y150513D01*
X198437D01*
X198370Y150509D01*
X198311Y150494D01*
X198259Y150476D01*
X198215Y150457D01*
X198181Y150435D01*
X198155Y150416D01*
X198137Y150401D01*
X198133Y150398D01*
X198093Y150353D01*
X198063Y150305D01*
X198045Y150257D01*
X198030Y150213D01*
X198022Y150172D01*
X198015Y150143D01*
Y150120D01*
Y150117D01*
Y150113D01*
Y150072D01*
X198022Y150035D01*
X198041Y149972D01*
X198067Y149917D01*
X198096Y149869D01*
X198126Y149835D01*
X198152Y149810D01*
X198170Y149795D01*
X198174Y149791D01*
X198178D01*
X198241Y149758D01*
X198300Y149732D01*
X198363Y149713D01*
X198418Y149702D01*
X198466Y149695D01*
X198507Y149687D01*
X198555D01*
X198570Y149691D01*
X198588D01*
X198625Y149414D01*
X198577Y149425D01*
X198533Y149432D01*
X198496Y149440D01*
X198463Y149443D01*
X198437Y149447D01*
X198403D01*
X198326Y149440D01*
X198255Y149425D01*
X198193Y149402D01*
X198141Y149377D01*
X198100Y149351D01*
X198070Y149328D01*
X198052Y149314D01*
X198045Y149306D01*
X197996Y149251D01*
X197959Y149192D01*
X197933Y149132D01*
X197919Y149073D01*
X197908Y149025D01*
X197904Y148984D01*
X197900Y148970D01*
Y148959D01*
Y148951D01*
Y148947D01*
X197908Y148866D01*
X197926Y148792D01*
X197948Y148729D01*
X197978Y148674D01*
X198008Y148629D01*
X198030Y148596D01*
X198048Y148574D01*
X198056Y148566D01*
X198115Y148514D01*
X198178Y148477D01*
X198241Y148452D01*
X198300Y148433D01*
X198352Y148422D01*
X198392Y148418D01*
X198407Y148415D01*
X198429D01*
X198496Y148418D01*
X198559Y148433D01*
X198614Y148452D01*
X198659Y148474D01*
X198696Y148492D01*
X198725Y148511D01*
X198740Y148526D01*
X198748Y148529D01*
X198792Y148581D01*
X198829Y148640D01*
X198862Y148703D01*
X198888Y148770D01*
X198907Y148825D01*
X198914Y148851D01*
X198918Y148873D01*
X198921Y148892D01*
X198925Y148907D01*
X198929Y148914D01*
Y148918D01*
X199243Y148877D01*
X199236Y148818D01*
X199225Y148762D01*
X199191Y148659D01*
X199151Y148570D01*
X199129Y148533D01*
X199106Y148496D01*
X199084Y148463D01*
X199062Y148437D01*
X199044Y148411D01*
X199025Y148392D01*
X199014Y148378D01*
X199003Y148366D01*
X198995Y148359D01*
X198992Y148355D01*
X198947Y148322D01*
X198903Y148289D01*
X198858Y148263D01*
X198810Y148241D01*
X198718Y148204D01*
X198629Y148181D01*
X198588Y148174D01*
X198551Y148167D01*
X198518Y148163D01*
X198488Y148159D01*
X198466Y148156D01*
X198433D01*
X198363Y148159D01*
X198300Y148167D01*
X198237Y148178D01*
X198178Y148193D01*
X198122Y148211D01*
X198074Y148230D01*
X198026Y148252D01*
X197985Y148274D01*
X197945Y148293D01*
X197911Y148315D01*
X197882Y148333D01*
X197860Y148352D01*
X197841Y148366D01*
X197826Y148378D01*
X197819Y148385D01*
X197815Y148389D01*
X197771Y148433D01*
X197734Y148481D01*
X197700Y148529D01*
X197671Y148577D01*
X197649Y148622D01*
X197626Y148670D01*
X197597Y148759D01*
X197589Y148799D01*
X197582Y148836D01*
X197575Y148870D01*
X197571Y148899D01*
X197567Y148922D01*
Y148940D01*
Y148951D01*
Y148955D01*
X197571Y149044D01*
X197586Y149125D01*
X197608Y149195D01*
X197630Y149255D01*
X197652Y149303D01*
X197675Y149340D01*
X197689Y149362D01*
X197693Y149369D01*
X197745Y149425D01*
X197800Y149473D01*
X197860Y149510D01*
X197919Y149539D01*
X197970Y149562D01*
X198011Y149576D01*
X198026Y149580D01*
X198037Y149584D01*
X198045Y149588D01*
X198048D01*
X197985Y149621D01*
X197933Y149654D01*
X197889Y149691D01*
X197852Y149724D01*
X197822Y149754D01*
X197800Y149780D01*
X197789Y149795D01*
X197785Y149802D01*
X197756Y149854D01*
X197734Y149906D01*
X197715Y149958D01*
X197704Y150006D01*
X197697Y150046D01*
X197693Y150076D01*
Y150098D01*
Y150106D01*
X197697Y150168D01*
X197708Y150231D01*
X197723Y150287D01*
X197741Y150335D01*
X197760Y150376D01*
X197774Y150409D01*
X197785Y150427D01*
X197789Y150435D01*
X197826Y150490D01*
X197871Y150538D01*
X197915Y150579D01*
X197959Y150616D01*
X197996Y150642D01*
X198030Y150664D01*
X198052Y150675D01*
X198056Y150679D01*
X198059D01*
X198126Y150709D01*
X198193Y150731D01*
X198259Y150749D01*
X198318Y150760D01*
X198366Y150768D01*
X198407Y150771D01*
X198500D01*
X198551Y150764D01*
D02*
G37*
G36*
X196476Y150768D02*
X196539Y150764D01*
X196598Y150753D01*
X196653Y150742D01*
X196705Y150727D01*
X196753Y150712D01*
X196798Y150694D01*
X196838Y150675D01*
X196875Y150657D01*
X196905Y150638D01*
X196931Y150624D01*
X196953Y150609D01*
X196971Y150598D01*
X196983Y150586D01*
X196990Y150583D01*
X196994Y150579D01*
X197031Y150542D01*
X197064Y150501D01*
X197097Y150457D01*
X197123Y150413D01*
X197168Y150324D01*
X197197Y150235D01*
X197208Y150194D01*
X197219Y150154D01*
X197227Y150120D01*
X197234Y150091D01*
X197238Y150065D01*
Y150046D01*
X197242Y150035D01*
Y150031D01*
X196920Y149998D01*
X196912Y150083D01*
X196897Y150157D01*
X196875Y150224D01*
X196849Y150276D01*
X196827Y150320D01*
X196805Y150350D01*
X196790Y150368D01*
X196783Y150376D01*
X196727Y150420D01*
X196668Y150453D01*
X196605Y150479D01*
X196550Y150494D01*
X196498Y150505D01*
X196453Y150509D01*
X196439Y150513D01*
X196416D01*
X196339Y150509D01*
X196268Y150494D01*
X196209Y150472D01*
X196158Y150450D01*
X196117Y150424D01*
X196091Y150405D01*
X196072Y150390D01*
X196065Y150383D01*
X196021Y150331D01*
X195987Y150279D01*
X195961Y150228D01*
X195947Y150176D01*
X195935Y150135D01*
X195932Y150098D01*
X195928Y150076D01*
Y150072D01*
Y150068D01*
X195935Y150002D01*
X195950Y149932D01*
X195976Y149869D01*
X196002Y149810D01*
X196032Y149761D01*
X196058Y149721D01*
X196065Y149706D01*
X196072Y149695D01*
X196080Y149691D01*
Y149687D01*
X196109Y149647D01*
X196146Y149606D01*
X196187Y149562D01*
X196231Y149517D01*
X196324Y149428D01*
X196416Y149340D01*
X196465Y149299D01*
X196505Y149262D01*
X196546Y149229D01*
X196579Y149199D01*
X196605Y149177D01*
X196627Y149158D01*
X196642Y149147D01*
X196646Y149144D01*
X196738Y149066D01*
X196824Y148992D01*
X196894Y148925D01*
X196949Y148870D01*
X196997Y148822D01*
X197031Y148788D01*
X197049Y148766D01*
X197057Y148762D01*
Y148759D01*
X197108Y148696D01*
X197149Y148637D01*
X197186Y148577D01*
X197216Y148526D01*
X197238Y148481D01*
X197253Y148448D01*
X197260Y148426D01*
X197264Y148422D01*
Y148418D01*
X197279Y148378D01*
X197286Y148341D01*
X197293Y148304D01*
X197297Y148270D01*
X197301Y148241D01*
Y148219D01*
Y148204D01*
Y148200D01*
X195603D01*
Y148503D01*
X196864D01*
X196820Y148566D01*
X196798Y148592D01*
X196779Y148618D01*
X196761Y148640D01*
X196746Y148655D01*
X196735Y148666D01*
X196731Y148670D01*
X196713Y148688D01*
X196690Y148707D01*
X196639Y148755D01*
X196579Y148811D01*
X196516Y148866D01*
X196457Y148914D01*
X196431Y148936D01*
X196409Y148959D01*
X196391Y148973D01*
X196376Y148984D01*
X196368Y148992D01*
X196365Y148995D01*
X196306Y149047D01*
X196246Y149095D01*
X196195Y149144D01*
X196146Y149184D01*
X196102Y149225D01*
X196065Y149262D01*
X196028Y149295D01*
X195998Y149325D01*
X195969Y149354D01*
X195947Y149377D01*
X195928Y149395D01*
X195910Y149414D01*
X195891Y149436D01*
X195884Y149443D01*
X195832Y149506D01*
X195788Y149562D01*
X195750Y149617D01*
X195721Y149662D01*
X195699Y149702D01*
X195684Y149732D01*
X195677Y149750D01*
X195673Y149758D01*
X195651Y149813D01*
X195636Y149869D01*
X195621Y149920D01*
X195614Y149965D01*
X195610Y150006D01*
X195606Y150035D01*
Y150054D01*
Y150061D01*
X195610Y150117D01*
X195617Y150168D01*
X195625Y150220D01*
X195640Y150265D01*
X195677Y150353D01*
X195713Y150424D01*
X195736Y150457D01*
X195754Y150483D01*
X195773Y150509D01*
X195791Y150527D01*
X195806Y150542D01*
X195813Y150557D01*
X195821Y150561D01*
X195825Y150564D01*
X195865Y150601D01*
X195910Y150635D01*
X195958Y150661D01*
X196006Y150683D01*
X196102Y150720D01*
X196198Y150746D01*
X196239Y150753D01*
X196280Y150760D01*
X196317Y150764D01*
X196346Y150768D01*
X196372Y150771D01*
X196409D01*
X196476Y150768D01*
D02*
G37*
G36*
X200716Y150797D02*
X200834Y150779D01*
X200938Y150757D01*
X200986Y150742D01*
X201030Y150727D01*
X201071Y150712D01*
X201108Y150698D01*
X201138Y150686D01*
X201167Y150675D01*
X201186Y150664D01*
X201201Y150657D01*
X201212Y150653D01*
X201215Y150649D01*
X201315Y150586D01*
X201400Y150513D01*
X201474Y150438D01*
X201537Y150364D01*
X201585Y150298D01*
X201604Y150268D01*
X201619Y150242D01*
X201634Y150224D01*
X201641Y150209D01*
X201645Y150198D01*
X201648Y150194D01*
X201700Y150080D01*
X201737Y149961D01*
X201763Y149843D01*
X201782Y149735D01*
X201789Y149687D01*
X201793Y149639D01*
X201796Y149602D01*
Y149565D01*
X201800Y149539D01*
Y149517D01*
Y149502D01*
Y149499D01*
X201793Y149365D01*
X201778Y149236D01*
X201759Y149121D01*
X201745Y149066D01*
X201733Y149018D01*
X201722Y148973D01*
X201708Y148933D01*
X201696Y148896D01*
X201689Y148866D01*
X201678Y148844D01*
X201674Y148825D01*
X201667Y148814D01*
Y148811D01*
X201611Y148699D01*
X201548Y148600D01*
X201482Y148514D01*
X201448Y148481D01*
X201419Y148448D01*
X201389Y148418D01*
X201360Y148392D01*
X201334Y148370D01*
X201312Y148355D01*
X201297Y148341D01*
X201282Y148329D01*
X201275Y148326D01*
X201271Y148322D01*
X201219Y148293D01*
X201167Y148267D01*
X201056Y148226D01*
X200945Y148196D01*
X200838Y148178D01*
X200786Y148170D01*
X200742Y148163D01*
X200701Y148159D01*
X200668D01*
X200638Y148156D01*
X200598D01*
X200523Y148159D01*
X200453Y148167D01*
X200387Y148174D01*
X200324Y148189D01*
X200265Y148207D01*
X200209Y148226D01*
X200157Y148244D01*
X200109Y148267D01*
X200068Y148285D01*
X200028Y148304D01*
X199998Y148322D01*
X199969Y148341D01*
X199950Y148355D01*
X199932Y148363D01*
X199924Y148370D01*
X199920Y148374D01*
X199869Y148418D01*
X199824Y148463D01*
X199784Y148514D01*
X199743Y148566D01*
X199676Y148670D01*
X199624Y148774D01*
X199602Y148822D01*
X199584Y148866D01*
X199569Y148907D01*
X199558Y148940D01*
X199547Y148970D01*
X199539Y148992D01*
X199536Y149007D01*
Y149010D01*
X199876Y149095D01*
X199891Y149036D01*
X199909Y148981D01*
X199928Y148929D01*
X199946Y148881D01*
X199969Y148836D01*
X199991Y148799D01*
X200017Y148762D01*
X200039Y148729D01*
X200057Y148699D01*
X200079Y148677D01*
X200098Y148655D01*
X200113Y148637D01*
X200128Y148626D01*
X200139Y148614D01*
X200142Y148611D01*
X200146Y148607D01*
X200183Y148577D01*
X200224Y148555D01*
X200305Y148514D01*
X200383Y148485D01*
X200461Y148466D01*
X200527Y148452D01*
X200553Y148448D01*
X200579D01*
X200601Y148444D01*
X200627D01*
X200712Y148448D01*
X200794Y148463D01*
X200868Y148481D01*
X200934Y148503D01*
X200986Y148526D01*
X201008Y148537D01*
X201027Y148544D01*
X201042Y148551D01*
X201053Y148559D01*
X201060Y148563D01*
X201064D01*
X201134Y148614D01*
X201193Y148670D01*
X201245Y148733D01*
X201286Y148792D01*
X201319Y148844D01*
X201341Y148888D01*
X201349Y148907D01*
X201356Y148918D01*
X201360Y148925D01*
Y148929D01*
X201389Y149025D01*
X201412Y149121D01*
X201430Y149217D01*
X201441Y149306D01*
X201445Y149347D01*
X201448Y149384D01*
Y149417D01*
X201452Y149443D01*
Y149465D01*
Y149484D01*
Y149495D01*
Y149499D01*
X201448Y149595D01*
X201441Y149684D01*
X201426Y149765D01*
X201412Y149839D01*
X201400Y149902D01*
X201393Y149928D01*
X201386Y149950D01*
X201382Y149969D01*
X201378Y149980D01*
X201375Y149987D01*
Y149991D01*
X201338Y150076D01*
X201297Y150154D01*
X201252Y150216D01*
X201204Y150272D01*
X201164Y150316D01*
X201130Y150346D01*
X201104Y150364D01*
X201101Y150372D01*
X201097D01*
X201019Y150420D01*
X200934Y150457D01*
X200853Y150483D01*
X200775Y150498D01*
X200705Y150509D01*
X200675Y150513D01*
X200649D01*
X200631Y150516D01*
X200601D01*
X200509Y150513D01*
X200424Y150498D01*
X200353Y150476D01*
X200290Y150453D01*
X200242Y150427D01*
X200205Y150409D01*
X200183Y150394D01*
X200176Y150387D01*
X200116Y150331D01*
X200061Y150268D01*
X200017Y150202D01*
X199980Y150135D01*
X199950Y150076D01*
X199939Y150046D01*
X199932Y150024D01*
X199924Y150006D01*
X199917Y149991D01*
X199913Y149983D01*
Y149980D01*
X199580Y150057D01*
X199602Y150124D01*
X199624Y150183D01*
X199654Y150239D01*
X199680Y150294D01*
X199709Y150342D01*
X199743Y150387D01*
X199772Y150431D01*
X199802Y150468D01*
X199832Y150498D01*
X199857Y150527D01*
X199883Y150553D01*
X199902Y150572D01*
X199920Y150590D01*
X199935Y150601D01*
X199943Y150605D01*
X199946Y150609D01*
X199998Y150642D01*
X200050Y150675D01*
X200102Y150701D01*
X200157Y150723D01*
X200268Y150757D01*
X200368Y150779D01*
X200416Y150790D01*
X200457Y150794D01*
X200498Y150797D01*
X200531Y150801D01*
X200557Y150805D01*
X200594D01*
X200716Y150797D01*
D02*
G37*
G36*
X251566Y150568D02*
X251629Y150564D01*
X251688Y150553D01*
X251744Y150542D01*
X251796Y150527D01*
X251844Y150512D01*
X251888Y150494D01*
X251929Y150475D01*
X251966Y150457D01*
X251995Y150438D01*
X252021Y150424D01*
X252044Y150409D01*
X252062Y150398D01*
X252073Y150387D01*
X252081Y150383D01*
X252084Y150379D01*
X252121Y150342D01*
X252155Y150301D01*
X252188Y150257D01*
X252214Y150213D01*
X252258Y150124D01*
X252288Y150035D01*
X252299Y149994D01*
X252310Y149954D01*
X252317Y149920D01*
X252325Y149891D01*
X252328Y149865D01*
Y149846D01*
X252332Y149835D01*
Y149831D01*
X252010Y149798D01*
X252003Y149883D01*
X251988Y149957D01*
X251966Y150024D01*
X251940Y150076D01*
X251918Y150120D01*
X251896Y150150D01*
X251881Y150168D01*
X251873Y150176D01*
X251818Y150220D01*
X251759Y150253D01*
X251696Y150279D01*
X251640Y150294D01*
X251589Y150305D01*
X251544Y150309D01*
X251529Y150312D01*
X251507D01*
X251429Y150309D01*
X251359Y150294D01*
X251300Y150272D01*
X251248Y150250D01*
X251207Y150224D01*
X251182Y150205D01*
X251163Y150190D01*
X251156Y150183D01*
X251111Y150131D01*
X251078Y150079D01*
X251052Y150028D01*
X251037Y149976D01*
X251026Y149935D01*
X251022Y149898D01*
X251019Y149876D01*
Y149872D01*
Y149869D01*
X251026Y149802D01*
X251041Y149732D01*
X251067Y149669D01*
X251093Y149609D01*
X251122Y149561D01*
X251148Y149521D01*
X251156Y149506D01*
X251163Y149495D01*
X251170Y149491D01*
Y149487D01*
X251200Y149447D01*
X251237Y149406D01*
X251278Y149362D01*
X251322Y149317D01*
X251415Y149228D01*
X251507Y149140D01*
X251555Y149099D01*
X251596Y149062D01*
X251637Y149029D01*
X251670Y148999D01*
X251696Y148977D01*
X251718Y148958D01*
X251733Y148947D01*
X251736Y148943D01*
X251829Y148866D01*
X251914Y148792D01*
X251984Y148725D01*
X252040Y148670D01*
X252088Y148622D01*
X252121Y148588D01*
X252140Y148566D01*
X252147Y148562D01*
Y148559D01*
X252199Y148496D01*
X252240Y148437D01*
X252277Y148377D01*
X252306Y148326D01*
X252328Y148281D01*
X252343Y148248D01*
X252351Y148226D01*
X252354Y148222D01*
Y148218D01*
X252369Y148178D01*
X252377Y148141D01*
X252384Y148104D01*
X252388Y148070D01*
X252391Y148041D01*
Y148019D01*
Y148004D01*
Y148000D01*
X250693D01*
Y148303D01*
X251955D01*
X251910Y148366D01*
X251888Y148392D01*
X251870Y148418D01*
X251851Y148440D01*
X251836Y148455D01*
X251825Y148466D01*
X251822Y148470D01*
X251803Y148488D01*
X251781Y148507D01*
X251729Y148555D01*
X251670Y148610D01*
X251607Y148666D01*
X251548Y148714D01*
X251522Y148736D01*
X251500Y148758D01*
X251481Y148773D01*
X251466Y148784D01*
X251459Y148792D01*
X251455Y148795D01*
X251396Y148847D01*
X251337Y148895D01*
X251285Y148943D01*
X251237Y148984D01*
X251193Y149025D01*
X251156Y149062D01*
X251119Y149095D01*
X251089Y149125D01*
X251059Y149154D01*
X251037Y149177D01*
X251019Y149195D01*
X251000Y149214D01*
X250982Y149236D01*
X250974Y149243D01*
X250922Y149306D01*
X250878Y149362D01*
X250841Y149417D01*
X250812Y149461D01*
X250789Y149502D01*
X250775Y149532D01*
X250767Y149550D01*
X250763Y149558D01*
X250741Y149613D01*
X250726Y149669D01*
X250712Y149721D01*
X250704Y149765D01*
X250700Y149806D01*
X250697Y149835D01*
Y149854D01*
Y149861D01*
X250700Y149917D01*
X250708Y149968D01*
X250715Y150020D01*
X250730Y150065D01*
X250767Y150153D01*
X250804Y150224D01*
X250826Y150257D01*
X250845Y150283D01*
X250863Y150309D01*
X250882Y150327D01*
X250897Y150342D01*
X250904Y150357D01*
X250911Y150361D01*
X250915Y150364D01*
X250956Y150401D01*
X251000Y150435D01*
X251048Y150461D01*
X251096Y150483D01*
X251193Y150520D01*
X251289Y150546D01*
X251329Y150553D01*
X251370Y150560D01*
X251407Y150564D01*
X251437Y150568D01*
X251463Y150572D01*
X251500D01*
X251566Y150568D01*
D02*
G37*
G36*
X253816Y150597D02*
X253934Y150579D01*
X254038Y150557D01*
X254086Y150542D01*
X254130Y150527D01*
X254171Y150512D01*
X254208Y150497D01*
X254238Y150486D01*
X254267Y150475D01*
X254286Y150464D01*
X254301Y150457D01*
X254312Y150453D01*
X254315Y150449D01*
X254415Y150387D01*
X254500Y150312D01*
X254574Y150239D01*
X254637Y150164D01*
X254685Y150098D01*
X254704Y150068D01*
X254719Y150042D01*
X254733Y150024D01*
X254741Y150009D01*
X254745Y149998D01*
X254748Y149994D01*
X254800Y149880D01*
X254837Y149761D01*
X254863Y149643D01*
X254882Y149536D01*
X254889Y149487D01*
X254893Y149439D01*
X254896Y149402D01*
Y149365D01*
X254900Y149339D01*
Y149317D01*
Y149302D01*
Y149299D01*
X254893Y149165D01*
X254878Y149036D01*
X254859Y148921D01*
X254844Y148866D01*
X254833Y148818D01*
X254822Y148773D01*
X254807Y148733D01*
X254796Y148696D01*
X254789Y148666D01*
X254778Y148644D01*
X254774Y148625D01*
X254767Y148614D01*
Y148610D01*
X254711Y148500D01*
X254648Y148400D01*
X254582Y148314D01*
X254549Y148281D01*
X254519Y148248D01*
X254489Y148218D01*
X254460Y148192D01*
X254434Y148170D01*
X254412Y148155D01*
X254397Y148141D01*
X254382Y148129D01*
X254375Y148126D01*
X254371Y148122D01*
X254319Y148092D01*
X254267Y148067D01*
X254156Y148026D01*
X254045Y147996D01*
X253938Y147978D01*
X253886Y147970D01*
X253842Y147963D01*
X253801Y147959D01*
X253768D01*
X253738Y147956D01*
X253697D01*
X253624Y147959D01*
X253553Y147967D01*
X253487Y147974D01*
X253424Y147989D01*
X253364Y148007D01*
X253309Y148026D01*
X253257Y148044D01*
X253209Y148067D01*
X253168Y148085D01*
X253128Y148104D01*
X253098Y148122D01*
X253068Y148141D01*
X253050Y148155D01*
X253031Y148163D01*
X253024Y148170D01*
X253020Y148174D01*
X252969Y148218D01*
X252924Y148263D01*
X252884Y148314D01*
X252843Y148366D01*
X252776Y148470D01*
X252724Y148574D01*
X252702Y148622D01*
X252684Y148666D01*
X252669Y148707D01*
X252658Y148740D01*
X252647Y148770D01*
X252639Y148792D01*
X252636Y148807D01*
Y148810D01*
X252976Y148895D01*
X252991Y148836D01*
X253009Y148781D01*
X253028Y148729D01*
X253046Y148681D01*
X253068Y148636D01*
X253091Y148599D01*
X253117Y148562D01*
X253139Y148529D01*
X253157Y148500D01*
X253180Y148477D01*
X253198Y148455D01*
X253213Y148437D01*
X253228Y148425D01*
X253239Y148414D01*
X253242Y148411D01*
X253246Y148407D01*
X253283Y148377D01*
X253324Y148355D01*
X253405Y148314D01*
X253483Y148285D01*
X253561Y148266D01*
X253627Y148252D01*
X253653Y148248D01*
X253679D01*
X253701Y148244D01*
X253727D01*
X253812Y148248D01*
X253894Y148263D01*
X253968Y148281D01*
X254034Y148303D01*
X254086Y148326D01*
X254108Y148337D01*
X254127Y148344D01*
X254141Y148352D01*
X254153Y148359D01*
X254160Y148363D01*
X254164D01*
X254234Y148414D01*
X254293Y148470D01*
X254345Y148533D01*
X254386Y148592D01*
X254419Y148644D01*
X254441Y148688D01*
X254449Y148707D01*
X254456Y148718D01*
X254460Y148725D01*
Y148729D01*
X254489Y148825D01*
X254511Y148921D01*
X254530Y149018D01*
X254541Y149106D01*
X254545Y149147D01*
X254549Y149184D01*
Y149217D01*
X254552Y149243D01*
Y149265D01*
Y149284D01*
Y149295D01*
Y149299D01*
X254549Y149395D01*
X254541Y149484D01*
X254526Y149565D01*
X254511Y149639D01*
X254500Y149702D01*
X254493Y149728D01*
X254486Y149750D01*
X254482Y149769D01*
X254478Y149780D01*
X254474Y149787D01*
Y149791D01*
X254437Y149876D01*
X254397Y149954D01*
X254352Y150016D01*
X254304Y150072D01*
X254264Y150116D01*
X254230Y150146D01*
X254204Y150164D01*
X254201Y150172D01*
X254197D01*
X254119Y150220D01*
X254034Y150257D01*
X253953Y150283D01*
X253875Y150298D01*
X253805Y150309D01*
X253775Y150312D01*
X253749D01*
X253731Y150316D01*
X253701D01*
X253609Y150312D01*
X253524Y150298D01*
X253453Y150276D01*
X253390Y150253D01*
X253342Y150227D01*
X253305Y150209D01*
X253283Y150194D01*
X253276Y150187D01*
X253217Y150131D01*
X253161Y150068D01*
X253117Y150002D01*
X253080Y149935D01*
X253050Y149876D01*
X253039Y149846D01*
X253031Y149824D01*
X253024Y149806D01*
X253017Y149791D01*
X253013Y149783D01*
Y149780D01*
X252680Y149857D01*
X252702Y149924D01*
X252724Y149983D01*
X252754Y150039D01*
X252780Y150094D01*
X252810Y150142D01*
X252843Y150187D01*
X252872Y150231D01*
X252902Y150268D01*
X252932Y150298D01*
X252958Y150327D01*
X252983Y150353D01*
X253002Y150372D01*
X253020Y150390D01*
X253035Y150401D01*
X253043Y150405D01*
X253046Y150409D01*
X253098Y150442D01*
X253150Y150475D01*
X253202Y150501D01*
X253257Y150523D01*
X253368Y150557D01*
X253468Y150579D01*
X253516Y150590D01*
X253557Y150594D01*
X253598Y150597D01*
X253631Y150601D01*
X253657Y150605D01*
X253694D01*
X253816Y150597D01*
D02*
G37*
G36*
X250334Y150224D02*
X249080D01*
X249169Y150116D01*
X249254Y150002D01*
X249328Y149891D01*
X249398Y149783D01*
X249428Y149735D01*
X249454Y149691D01*
X249480Y149650D01*
X249498Y149617D01*
X249513Y149587D01*
X249524Y149569D01*
X249531Y149554D01*
X249535Y149550D01*
X249609Y149402D01*
X249676Y149254D01*
X249731Y149114D01*
X249753Y149051D01*
X249776Y148988D01*
X249798Y148932D01*
X249813Y148881D01*
X249827Y148836D01*
X249838Y148799D01*
X249850Y148766D01*
X249857Y148744D01*
X249861Y148729D01*
Y148725D01*
X249898Y148574D01*
X249912Y148500D01*
X249923Y148433D01*
X249935Y148370D01*
X249946Y148307D01*
X249953Y148255D01*
X249960Y148204D01*
X249964Y148159D01*
X249968Y148118D01*
X249972Y148081D01*
Y148052D01*
X249975Y148030D01*
Y148015D01*
Y148004D01*
Y148000D01*
X249653D01*
X249642Y148141D01*
X249624Y148270D01*
X249605Y148389D01*
X249594Y148444D01*
X249583Y148496D01*
X249576Y148540D01*
X249565Y148581D01*
X249557Y148618D01*
X249550Y148647D01*
X249542Y148670D01*
X249539Y148688D01*
X249535Y148699D01*
Y148703D01*
X249480Y148873D01*
X249420Y149032D01*
X249391Y149110D01*
X249361Y149184D01*
X249328Y149251D01*
X249298Y149317D01*
X249272Y149376D01*
X249246Y149428D01*
X249224Y149473D01*
X249206Y149513D01*
X249187Y149547D01*
X249176Y149569D01*
X249169Y149584D01*
X249165Y149587D01*
X249121Y149665D01*
X249076Y149743D01*
X249032Y149813D01*
X248987Y149880D01*
X248947Y149939D01*
X248906Y149998D01*
X248865Y150050D01*
X248832Y150094D01*
X248799Y150139D01*
X248769Y150176D01*
X248740Y150205D01*
X248717Y150231D01*
X248703Y150253D01*
X248688Y150268D01*
X248680Y150276D01*
X248677Y150279D01*
Y150527D01*
X250334D01*
Y150224D01*
D02*
G37*
G36*
X251466Y154468D02*
X251529Y154464D01*
X251588Y154453D01*
X251644Y154442D01*
X251696Y154427D01*
X251744Y154412D01*
X251788Y154394D01*
X251829Y154375D01*
X251866Y154357D01*
X251895Y154338D01*
X251921Y154323D01*
X251944Y154309D01*
X251962Y154298D01*
X251973Y154287D01*
X251981Y154283D01*
X251984Y154279D01*
X252021Y154242D01*
X252055Y154201D01*
X252088Y154157D01*
X252114Y154113D01*
X252158Y154024D01*
X252188Y153935D01*
X252199Y153894D01*
X252210Y153854D01*
X252217Y153820D01*
X252225Y153791D01*
X252228Y153765D01*
Y153746D01*
X252232Y153735D01*
Y153732D01*
X251910Y153698D01*
X251903Y153783D01*
X251888Y153857D01*
X251866Y153924D01*
X251840Y153976D01*
X251818Y154020D01*
X251796Y154050D01*
X251781Y154068D01*
X251773Y154076D01*
X251718Y154120D01*
X251659Y154153D01*
X251596Y154179D01*
X251540Y154194D01*
X251488Y154205D01*
X251444Y154209D01*
X251429Y154212D01*
X251407D01*
X251329Y154209D01*
X251259Y154194D01*
X251200Y154172D01*
X251148Y154150D01*
X251107Y154124D01*
X251081Y154105D01*
X251063Y154090D01*
X251056Y154083D01*
X251011Y154031D01*
X250978Y153979D01*
X250952Y153928D01*
X250937Y153876D01*
X250926Y153835D01*
X250922Y153798D01*
X250919Y153776D01*
Y153772D01*
Y153769D01*
X250926Y153702D01*
X250941Y153632D01*
X250967Y153569D01*
X250993Y153509D01*
X251022Y153461D01*
X251048Y153421D01*
X251056Y153406D01*
X251063Y153395D01*
X251070Y153391D01*
Y153387D01*
X251100Y153347D01*
X251137Y153306D01*
X251178Y153262D01*
X251222Y153217D01*
X251315Y153128D01*
X251407Y153040D01*
X251455Y152999D01*
X251496Y152962D01*
X251537Y152929D01*
X251570Y152899D01*
X251596Y152877D01*
X251618Y152858D01*
X251633Y152847D01*
X251637Y152843D01*
X251729Y152766D01*
X251814Y152692D01*
X251884Y152625D01*
X251940Y152570D01*
X251988Y152522D01*
X252021Y152488D01*
X252040Y152466D01*
X252047Y152462D01*
Y152459D01*
X252099Y152396D01*
X252140Y152337D01*
X252177Y152277D01*
X252206Y152226D01*
X252228Y152181D01*
X252243Y152148D01*
X252251Y152126D01*
X252254Y152122D01*
Y152118D01*
X252269Y152078D01*
X252277Y152041D01*
X252284Y152004D01*
X252288Y151970D01*
X252291Y151941D01*
Y151918D01*
Y151904D01*
Y151900D01*
X250593D01*
Y152203D01*
X251855D01*
X251810Y152266D01*
X251788Y152292D01*
X251770Y152318D01*
X251751Y152340D01*
X251736Y152355D01*
X251725Y152366D01*
X251722Y152370D01*
X251703Y152388D01*
X251681Y152407D01*
X251629Y152455D01*
X251570Y152510D01*
X251507Y152566D01*
X251448Y152614D01*
X251422Y152636D01*
X251400Y152658D01*
X251381Y152673D01*
X251366Y152684D01*
X251359Y152692D01*
X251355Y152696D01*
X251296Y152747D01*
X251237Y152795D01*
X251185Y152843D01*
X251137Y152884D01*
X251093Y152925D01*
X251056Y152962D01*
X251019Y152995D01*
X250989Y153025D01*
X250959Y153054D01*
X250937Y153077D01*
X250919Y153095D01*
X250900Y153114D01*
X250882Y153136D01*
X250874Y153143D01*
X250822Y153206D01*
X250778Y153262D01*
X250741Y153317D01*
X250711Y153361D01*
X250689Y153402D01*
X250675Y153432D01*
X250667Y153450D01*
X250663Y153458D01*
X250641Y153513D01*
X250626Y153569D01*
X250612Y153621D01*
X250604Y153665D01*
X250601Y153706D01*
X250597Y153735D01*
Y153754D01*
Y153761D01*
X250601Y153817D01*
X250608Y153868D01*
X250615Y153920D01*
X250630Y153965D01*
X250667Y154053D01*
X250704Y154124D01*
X250726Y154157D01*
X250745Y154183D01*
X250763Y154209D01*
X250782Y154227D01*
X250797Y154242D01*
X250804Y154257D01*
X250811Y154261D01*
X250815Y154264D01*
X250856Y154301D01*
X250900Y154335D01*
X250948Y154360D01*
X250996Y154383D01*
X251093Y154420D01*
X251189Y154446D01*
X251230Y154453D01*
X251270Y154460D01*
X251307Y154464D01*
X251337Y154468D01*
X251363Y154472D01*
X251400D01*
X251466Y154468D01*
D02*
G37*
G36*
X249424D02*
X249494Y154460D01*
X249561Y154446D01*
X249624Y154427D01*
X249679Y154401D01*
X249735Y154379D01*
X249783Y154349D01*
X249827Y154323D01*
X249864Y154298D01*
X249901Y154268D01*
X249931Y154246D01*
X249953Y154224D01*
X249972Y154201D01*
X249986Y154187D01*
X249994Y154179D01*
X249997Y154175D01*
X250045Y154109D01*
X250086Y154031D01*
X250123Y153950D01*
X250156Y153865D01*
X250182Y153776D01*
X250205Y153687D01*
X250223Y153595D01*
X250238Y153509D01*
X250249Y153424D01*
X250256Y153347D01*
X250264Y153276D01*
X250268Y153217D01*
Y153165D01*
X250271Y153128D01*
Y153114D01*
Y153103D01*
Y153099D01*
Y153095D01*
X250268Y152977D01*
X250260Y152866D01*
X250249Y152762D01*
X250231Y152666D01*
X250212Y152581D01*
X250194Y152503D01*
X250171Y152433D01*
X250145Y152370D01*
X250123Y152318D01*
X250101Y152270D01*
X250082Y152233D01*
X250060Y152200D01*
X250045Y152174D01*
X250034Y152159D01*
X250027Y152148D01*
X250023Y152144D01*
X249975Y152092D01*
X249923Y152048D01*
X249872Y152011D01*
X249820Y151978D01*
X249764Y151948D01*
X249712Y151926D01*
X249661Y151907D01*
X249609Y151893D01*
X249565Y151882D01*
X249520Y151870D01*
X249483Y151863D01*
X249450Y151859D01*
X249420D01*
X249402Y151856D01*
X249383D01*
X249298Y151859D01*
X249220Y151874D01*
X249150Y151889D01*
X249087Y151911D01*
X249039Y151930D01*
X249002Y151948D01*
X248987Y151952D01*
X248976Y151959D01*
X248973Y151963D01*
X248969D01*
X248906Y152007D01*
X248847Y152059D01*
X248799Y152111D01*
X248758Y152163D01*
X248725Y152211D01*
X248702Y152248D01*
X248695Y152263D01*
X248688Y152274D01*
X248684Y152277D01*
Y152281D01*
X248647Y152359D01*
X248621Y152440D01*
X248603Y152514D01*
X248591Y152585D01*
X248580Y152644D01*
Y152666D01*
X248577Y152688D01*
Y152707D01*
Y152718D01*
Y152725D01*
Y152729D01*
X248580Y152795D01*
X248588Y152858D01*
X248599Y152921D01*
X248610Y152977D01*
X248628Y153029D01*
X248647Y153080D01*
X248665Y153125D01*
X248688Y153165D01*
X248710Y153202D01*
X248728Y153236D01*
X248747Y153262D01*
X248765Y153287D01*
X248776Y153306D01*
X248787Y153317D01*
X248795Y153324D01*
X248799Y153328D01*
X248839Y153369D01*
X248884Y153406D01*
X248932Y153436D01*
X248976Y153461D01*
X249021Y153487D01*
X249065Y153506D01*
X249150Y153532D01*
X249187Y153543D01*
X249224Y153550D01*
X249254Y153554D01*
X249283Y153558D01*
X249306Y153561D01*
X249335D01*
X249402Y153558D01*
X249465Y153547D01*
X249524Y153535D01*
X249576Y153521D01*
X249620Y153502D01*
X249653Y153491D01*
X249675Y153480D01*
X249679Y153476D01*
X249683D01*
X249742Y153439D01*
X249794Y153399D01*
X249842Y153358D01*
X249879Y153313D01*
X249912Y153276D01*
X249938Y153247D01*
X249953Y153225D01*
X249957Y153221D01*
Y153287D01*
X249953Y153354D01*
X249949Y153413D01*
X249942Y153472D01*
X249938Y153524D01*
X249931Y153572D01*
X249923Y153617D01*
X249912Y153657D01*
X249905Y153694D01*
X249898Y153724D01*
X249890Y153750D01*
X249886Y153772D01*
X249879Y153787D01*
X249875Y153798D01*
X249872Y153805D01*
Y153809D01*
X249835Y153883D01*
X249798Y153950D01*
X249757Y154002D01*
X249720Y154046D01*
X249687Y154083D01*
X249661Y154109D01*
X249642Y154124D01*
X249635Y154127D01*
X249590Y154157D01*
X249546Y154175D01*
X249502Y154190D01*
X249457Y154201D01*
X249424Y154209D01*
X249394Y154212D01*
X249368D01*
X249302Y154205D01*
X249239Y154190D01*
X249187Y154168D01*
X249139Y154146D01*
X249102Y154120D01*
X249076Y154098D01*
X249061Y154083D01*
X249054Y154076D01*
X249028Y154042D01*
X249002Y154002D01*
X248980Y153957D01*
X248965Y153913D01*
X248950Y153872D01*
X248939Y153839D01*
X248936Y153817D01*
X248932Y153813D01*
Y153809D01*
X248617Y153835D01*
X248639Y153939D01*
X248673Y154031D01*
X248710Y154113D01*
X248750Y154179D01*
X248791Y154231D01*
X248806Y154253D01*
X248825Y154272D01*
X248836Y154283D01*
X248847Y154294D01*
X248850Y154298D01*
X248854Y154301D01*
X248891Y154331D01*
X248932Y154357D01*
X249013Y154401D01*
X249095Y154431D01*
X249172Y154449D01*
X249243Y154464D01*
X249272Y154468D01*
X249298D01*
X249320Y154472D01*
X249350D01*
X249424Y154468D01*
D02*
G37*
G36*
X253716Y154497D02*
X253834Y154479D01*
X253938Y154457D01*
X253986Y154442D01*
X254030Y154427D01*
X254071Y154412D01*
X254108Y154397D01*
X254138Y154386D01*
X254167Y154375D01*
X254186Y154364D01*
X254201Y154357D01*
X254212Y154353D01*
X254215Y154349D01*
X254315Y154287D01*
X254400Y154212D01*
X254474Y154139D01*
X254537Y154065D01*
X254585Y153998D01*
X254604Y153968D01*
X254619Y153942D01*
X254633Y153924D01*
X254641Y153909D01*
X254645Y153898D01*
X254648Y153894D01*
X254700Y153780D01*
X254737Y153661D01*
X254763Y153543D01*
X254782Y153436D01*
X254789Y153387D01*
X254793Y153339D01*
X254796Y153302D01*
Y153265D01*
X254800Y153239D01*
Y153217D01*
Y153202D01*
Y153199D01*
X254793Y153066D01*
X254778Y152936D01*
X254759Y152821D01*
X254745Y152766D01*
X254733Y152718D01*
X254722Y152673D01*
X254708Y152633D01*
X254696Y152596D01*
X254689Y152566D01*
X254678Y152544D01*
X254674Y152525D01*
X254667Y152514D01*
Y152510D01*
X254611Y152400D01*
X254548Y152300D01*
X254482Y152215D01*
X254449Y152181D01*
X254419Y152148D01*
X254389Y152118D01*
X254360Y152092D01*
X254334Y152070D01*
X254312Y152055D01*
X254297Y152041D01*
X254282Y152030D01*
X254275Y152026D01*
X254271Y152022D01*
X254219Y151992D01*
X254167Y151967D01*
X254056Y151926D01*
X253945Y151896D01*
X253838Y151878D01*
X253786Y151870D01*
X253742Y151863D01*
X253701Y151859D01*
X253668D01*
X253638Y151856D01*
X253597D01*
X253523Y151859D01*
X253453Y151867D01*
X253387Y151874D01*
X253324Y151889D01*
X253264Y151907D01*
X253209Y151926D01*
X253157Y151944D01*
X253109Y151967D01*
X253068Y151985D01*
X253028Y152004D01*
X252998Y152022D01*
X252969Y152041D01*
X252950Y152055D01*
X252931Y152063D01*
X252924Y152070D01*
X252920Y152074D01*
X252869Y152118D01*
X252824Y152163D01*
X252783Y152215D01*
X252743Y152266D01*
X252676Y152370D01*
X252624Y152473D01*
X252602Y152522D01*
X252584Y152566D01*
X252569Y152607D01*
X252558Y152640D01*
X252547Y152670D01*
X252539Y152692D01*
X252536Y152707D01*
Y152710D01*
X252876Y152795D01*
X252891Y152736D01*
X252909Y152681D01*
X252928Y152629D01*
X252946Y152581D01*
X252969Y152536D01*
X252991Y152499D01*
X253017Y152462D01*
X253039Y152429D01*
X253057Y152400D01*
X253080Y152377D01*
X253098Y152355D01*
X253113Y152337D01*
X253128Y152325D01*
X253139Y152314D01*
X253142Y152311D01*
X253146Y152307D01*
X253183Y152277D01*
X253224Y152255D01*
X253305Y152215D01*
X253383Y152185D01*
X253461Y152166D01*
X253527Y152152D01*
X253553Y152148D01*
X253579D01*
X253601Y152144D01*
X253627D01*
X253712Y152148D01*
X253794Y152163D01*
X253868Y152181D01*
X253934Y152203D01*
X253986Y152226D01*
X254008Y152237D01*
X254027Y152244D01*
X254042Y152252D01*
X254053Y152259D01*
X254060Y152263D01*
X254064D01*
X254134Y152314D01*
X254193Y152370D01*
X254245Y152433D01*
X254286Y152492D01*
X254319Y152544D01*
X254341Y152588D01*
X254349Y152607D01*
X254356Y152618D01*
X254360Y152625D01*
Y152629D01*
X254389Y152725D01*
X254412Y152821D01*
X254430Y152918D01*
X254441Y153006D01*
X254445Y153047D01*
X254449Y153084D01*
Y153117D01*
X254452Y153143D01*
Y153165D01*
Y153184D01*
Y153195D01*
Y153199D01*
X254449Y153295D01*
X254441Y153384D01*
X254426Y153465D01*
X254412Y153539D01*
X254400Y153602D01*
X254393Y153628D01*
X254386Y153650D01*
X254382Y153669D01*
X254378Y153680D01*
X254375Y153687D01*
Y153691D01*
X254338Y153776D01*
X254297Y153854D01*
X254252Y153917D01*
X254204Y153972D01*
X254164Y154016D01*
X254130Y154046D01*
X254104Y154065D01*
X254101Y154072D01*
X254097D01*
X254019Y154120D01*
X253934Y154157D01*
X253853Y154183D01*
X253775Y154198D01*
X253705Y154209D01*
X253675Y154212D01*
X253649D01*
X253631Y154216D01*
X253601D01*
X253509Y154212D01*
X253424Y154198D01*
X253353Y154175D01*
X253290Y154153D01*
X253242Y154127D01*
X253205Y154109D01*
X253183Y154094D01*
X253176Y154087D01*
X253116Y154031D01*
X253061Y153968D01*
X253017Y153902D01*
X252980Y153835D01*
X252950Y153776D01*
X252939Y153746D01*
X252931Y153724D01*
X252924Y153706D01*
X252917Y153691D01*
X252913Y153683D01*
Y153680D01*
X252580Y153757D01*
X252602Y153824D01*
X252624Y153883D01*
X252654Y153939D01*
X252680Y153994D01*
X252710Y154042D01*
X252743Y154087D01*
X252772Y154131D01*
X252802Y154168D01*
X252832Y154198D01*
X252857Y154227D01*
X252883Y154253D01*
X252902Y154272D01*
X252920Y154290D01*
X252935Y154301D01*
X252943Y154305D01*
X252946Y154309D01*
X252998Y154342D01*
X253050Y154375D01*
X253102Y154401D01*
X253157Y154423D01*
X253268Y154457D01*
X253368Y154479D01*
X253416Y154490D01*
X253457Y154494D01*
X253498Y154497D01*
X253531Y154501D01*
X253557Y154505D01*
X253594D01*
X253716Y154497D01*
D02*
G37*
G36*
X38403Y123364D02*
X40060D01*
Y123109D01*
X38403Y121936D01*
X38114D01*
Y123050D01*
X37500D01*
Y123364D01*
X38114D01*
Y123712D01*
X38403D01*
Y123364D01*
D02*
G37*
G36*
X37803Y120445D02*
X37866Y120490D01*
X37892Y120512D01*
X37918Y120530D01*
X37940Y120549D01*
X37955Y120564D01*
X37966Y120575D01*
X37970Y120578D01*
X37988Y120597D01*
X38007Y120619D01*
X38055Y120671D01*
X38111Y120730D01*
X38166Y120793D01*
X38214Y120852D01*
X38236Y120878D01*
X38258Y120900D01*
X38273Y120919D01*
X38284Y120934D01*
X38292Y120941D01*
X38296Y120945D01*
X38347Y121004D01*
X38395Y121063D01*
X38443Y121115D01*
X38484Y121163D01*
X38525Y121207D01*
X38562Y121244D01*
X38595Y121281D01*
X38625Y121311D01*
X38654Y121341D01*
X38677Y121363D01*
X38695Y121381D01*
X38714Y121400D01*
X38736Y121418D01*
X38743Y121426D01*
X38806Y121477D01*
X38862Y121522D01*
X38917Y121559D01*
X38961Y121589D01*
X39002Y121611D01*
X39032Y121625D01*
X39050Y121633D01*
X39058Y121637D01*
X39113Y121659D01*
X39169Y121674D01*
X39220Y121688D01*
X39265Y121696D01*
X39306Y121700D01*
X39335Y121703D01*
X39354D01*
X39361D01*
X39417Y121700D01*
X39468Y121692D01*
X39520Y121685D01*
X39565Y121670D01*
X39653Y121633D01*
X39724Y121596D01*
X39757Y121574D01*
X39783Y121555D01*
X39809Y121537D01*
X39827Y121518D01*
X39842Y121503D01*
X39857Y121496D01*
X39861Y121489D01*
X39864Y121485D01*
X39901Y121444D01*
X39935Y121400D01*
X39961Y121352D01*
X39983Y121304D01*
X40020Y121207D01*
X40046Y121111D01*
X40053Y121071D01*
X40060Y121030D01*
X40064Y120993D01*
X40068Y120963D01*
X40071Y120937D01*
Y120900D01*
X40068Y120834D01*
X40064Y120771D01*
X40053Y120712D01*
X40042Y120656D01*
X40027Y120604D01*
X40012Y120556D01*
X39994Y120512D01*
X39975Y120471D01*
X39957Y120434D01*
X39938Y120405D01*
X39924Y120379D01*
X39909Y120356D01*
X39898Y120338D01*
X39887Y120327D01*
X39883Y120319D01*
X39879Y120316D01*
X39842Y120279D01*
X39801Y120245D01*
X39757Y120212D01*
X39713Y120186D01*
X39624Y120142D01*
X39535Y120112D01*
X39494Y120101D01*
X39454Y120090D01*
X39420Y120083D01*
X39391Y120075D01*
X39365Y120071D01*
X39346D01*
X39335Y120068D01*
X39331D01*
X39298Y120390D01*
X39383Y120397D01*
X39457Y120412D01*
X39524Y120434D01*
X39576Y120460D01*
X39620Y120482D01*
X39650Y120504D01*
X39668Y120519D01*
X39676Y120527D01*
X39720Y120582D01*
X39753Y120641D01*
X39779Y120704D01*
X39794Y120760D01*
X39805Y120811D01*
X39809Y120856D01*
X39812Y120871D01*
Y120893D01*
X39809Y120971D01*
X39794Y121041D01*
X39772Y121100D01*
X39750Y121152D01*
X39724Y121193D01*
X39705Y121219D01*
X39690Y121237D01*
X39683Y121244D01*
X39631Y121289D01*
X39579Y121322D01*
X39528Y121348D01*
X39476Y121363D01*
X39435Y121374D01*
X39398Y121378D01*
X39376Y121381D01*
X39372D01*
X39369D01*
X39302Y121374D01*
X39232Y121359D01*
X39169Y121333D01*
X39110Y121307D01*
X39061Y121278D01*
X39021Y121252D01*
X39006Y121244D01*
X38995Y121237D01*
X38991Y121230D01*
X38987D01*
X38947Y121200D01*
X38906Y121163D01*
X38862Y121122D01*
X38817Y121078D01*
X38728Y120985D01*
X38640Y120893D01*
X38599Y120845D01*
X38562Y120804D01*
X38529Y120763D01*
X38499Y120730D01*
X38477Y120704D01*
X38458Y120682D01*
X38447Y120667D01*
X38443Y120663D01*
X38366Y120571D01*
X38292Y120486D01*
X38225Y120416D01*
X38170Y120360D01*
X38122Y120312D01*
X38088Y120279D01*
X38066Y120260D01*
X38062Y120253D01*
X38059D01*
X37996Y120201D01*
X37937Y120160D01*
X37877Y120123D01*
X37826Y120094D01*
X37781Y120071D01*
X37748Y120057D01*
X37726Y120049D01*
X37722Y120046D01*
X37718D01*
X37678Y120031D01*
X37641Y120023D01*
X37604Y120016D01*
X37570Y120012D01*
X37541Y120009D01*
X37519D01*
X37504D01*
X37500D01*
Y121707D01*
X37803D01*
Y120445D01*
D02*
G37*
G36*
X38395Y119424D02*
X38336Y119409D01*
X38281Y119391D01*
X38229Y119372D01*
X38181Y119354D01*
X38136Y119332D01*
X38099Y119309D01*
X38062Y119283D01*
X38029Y119261D01*
X37999Y119243D01*
X37977Y119220D01*
X37955Y119202D01*
X37937Y119187D01*
X37925Y119172D01*
X37914Y119161D01*
X37911Y119158D01*
X37907Y119154D01*
X37877Y119117D01*
X37855Y119076D01*
X37815Y118995D01*
X37785Y118917D01*
X37766Y118839D01*
X37752Y118773D01*
X37748Y118747D01*
Y118721D01*
X37744Y118699D01*
Y118673D01*
X37748Y118588D01*
X37763Y118506D01*
X37781Y118432D01*
X37803Y118366D01*
X37826Y118314D01*
X37837Y118292D01*
X37844Y118273D01*
X37852Y118259D01*
X37859Y118247D01*
X37863Y118240D01*
Y118236D01*
X37914Y118166D01*
X37970Y118107D01*
X38033Y118055D01*
X38092Y118014D01*
X38144Y117981D01*
X38188Y117959D01*
X38207Y117951D01*
X38218Y117944D01*
X38225Y117940D01*
X38229D01*
X38325Y117911D01*
X38421Y117888D01*
X38517Y117870D01*
X38606Y117859D01*
X38647Y117855D01*
X38684Y117851D01*
X38717D01*
X38743Y117848D01*
X38765D01*
X38784D01*
X38795D01*
X38799D01*
X38895Y117851D01*
X38984Y117859D01*
X39065Y117874D01*
X39139Y117888D01*
X39202Y117900D01*
X39228Y117907D01*
X39250Y117914D01*
X39269Y117918D01*
X39280Y117922D01*
X39287Y117926D01*
X39291D01*
X39376Y117963D01*
X39454Y118003D01*
X39516Y118048D01*
X39572Y118096D01*
X39616Y118136D01*
X39646Y118170D01*
X39665Y118196D01*
X39672Y118199D01*
Y118203D01*
X39720Y118281D01*
X39757Y118366D01*
X39783Y118447D01*
X39798Y118525D01*
X39809Y118595D01*
X39812Y118625D01*
Y118651D01*
X39816Y118669D01*
Y118699D01*
X39812Y118791D01*
X39798Y118876D01*
X39775Y118947D01*
X39753Y119010D01*
X39727Y119058D01*
X39709Y119095D01*
X39694Y119117D01*
X39687Y119124D01*
X39631Y119184D01*
X39568Y119239D01*
X39502Y119283D01*
X39435Y119320D01*
X39376Y119350D01*
X39346Y119361D01*
X39324Y119369D01*
X39306Y119376D01*
X39291Y119383D01*
X39283Y119387D01*
X39280D01*
X39357Y119720D01*
X39424Y119698D01*
X39483Y119676D01*
X39539Y119646D01*
X39594Y119620D01*
X39642Y119590D01*
X39687Y119557D01*
X39731Y119528D01*
X39768Y119498D01*
X39798Y119468D01*
X39827Y119442D01*
X39853Y119417D01*
X39872Y119398D01*
X39890Y119380D01*
X39901Y119365D01*
X39905Y119357D01*
X39909Y119354D01*
X39942Y119302D01*
X39975Y119250D01*
X40001Y119198D01*
X40023Y119143D01*
X40057Y119032D01*
X40079Y118932D01*
X40090Y118884D01*
X40094Y118843D01*
X40097Y118802D01*
X40101Y118769D01*
X40105Y118743D01*
Y118706D01*
X40097Y118584D01*
X40079Y118466D01*
X40057Y118362D01*
X40042Y118314D01*
X40027Y118270D01*
X40012Y118229D01*
X39998Y118192D01*
X39986Y118162D01*
X39975Y118133D01*
X39964Y118114D01*
X39957Y118099D01*
X39953Y118088D01*
X39949Y118085D01*
X39887Y117985D01*
X39812Y117900D01*
X39739Y117826D01*
X39665Y117763D01*
X39598Y117715D01*
X39568Y117696D01*
X39542Y117681D01*
X39524Y117666D01*
X39509Y117659D01*
X39498Y117655D01*
X39494Y117652D01*
X39380Y117600D01*
X39261Y117563D01*
X39143Y117537D01*
X39035Y117518D01*
X38987Y117511D01*
X38939Y117507D01*
X38902Y117504D01*
X38865D01*
X38839Y117500D01*
X38817D01*
X38802D01*
X38799D01*
X38666Y117507D01*
X38536Y117522D01*
X38421Y117541D01*
X38366Y117555D01*
X38318Y117567D01*
X38273Y117578D01*
X38233Y117593D01*
X38196Y117604D01*
X38166Y117611D01*
X38144Y117622D01*
X38125Y117626D01*
X38114Y117633D01*
X38111D01*
X37999Y117689D01*
X37900Y117752D01*
X37815Y117818D01*
X37781Y117851D01*
X37748Y117881D01*
X37718Y117911D01*
X37692Y117940D01*
X37670Y117966D01*
X37655Y117988D01*
X37641Y118003D01*
X37630Y118018D01*
X37626Y118025D01*
X37622Y118029D01*
X37593Y118081D01*
X37567Y118133D01*
X37526Y118244D01*
X37496Y118355D01*
X37478Y118462D01*
X37470Y118514D01*
X37463Y118558D01*
X37459Y118599D01*
Y118632D01*
X37456Y118662D01*
Y118702D01*
X37459Y118777D01*
X37467Y118847D01*
X37474Y118913D01*
X37489Y118976D01*
X37507Y119035D01*
X37526Y119091D01*
X37544Y119143D01*
X37567Y119191D01*
X37585Y119232D01*
X37604Y119272D01*
X37622Y119302D01*
X37641Y119332D01*
X37655Y119350D01*
X37663Y119369D01*
X37670Y119376D01*
X37674Y119380D01*
X37718Y119431D01*
X37763Y119476D01*
X37815Y119517D01*
X37866Y119557D01*
X37970Y119624D01*
X38074Y119676D01*
X38122Y119698D01*
X38166Y119716D01*
X38207Y119731D01*
X38240Y119742D01*
X38270Y119753D01*
X38292Y119761D01*
X38307Y119764D01*
X38310D01*
X38395Y119424D01*
D02*
G37*
G36*
X307103Y26809D02*
X307144Y26749D01*
X307192Y26690D01*
X307237Y26638D01*
X307281Y26594D01*
X307314Y26557D01*
X307329Y26546D01*
X307340Y26535D01*
X307344Y26531D01*
X307348Y26527D01*
X307425Y26465D01*
X307503Y26405D01*
X307577Y26353D01*
X307651Y26313D01*
X307714Y26276D01*
X307740Y26261D01*
X307762Y26250D01*
X307781Y26239D01*
X307795Y26235D01*
X307803Y26228D01*
X307806D01*
Y25924D01*
X307751Y25947D01*
X307696Y25972D01*
X307640Y25998D01*
X307588Y26024D01*
X307544Y26046D01*
X307507Y26065D01*
X307485Y26080D01*
X307481Y26083D01*
X307477D01*
X307411Y26124D01*
X307351Y26165D01*
X307300Y26202D01*
X307259Y26235D01*
X307222Y26261D01*
X307200Y26283D01*
X307181Y26298D01*
X307177Y26302D01*
Y24300D01*
X306863D01*
Y26871D01*
X307066D01*
X307103Y26809D01*
D02*
G37*
G36*
X309516Y26897D02*
X309634Y26879D01*
X309738Y26857D01*
X309786Y26842D01*
X309830Y26827D01*
X309871Y26812D01*
X309908Y26798D01*
X309938Y26786D01*
X309967Y26775D01*
X309986Y26764D01*
X310001Y26757D01*
X310012Y26753D01*
X310015Y26749D01*
X310115Y26686D01*
X310200Y26612D01*
X310274Y26539D01*
X310337Y26465D01*
X310385Y26398D01*
X310404Y26368D01*
X310419Y26342D01*
X310434Y26324D01*
X310441Y26309D01*
X310445Y26298D01*
X310448Y26294D01*
X310500Y26180D01*
X310537Y26061D01*
X310563Y25943D01*
X310581Y25835D01*
X310589Y25787D01*
X310593Y25739D01*
X310596Y25702D01*
Y25665D01*
X310600Y25639D01*
Y25617D01*
Y25602D01*
Y25599D01*
X310593Y25466D01*
X310578Y25336D01*
X310559Y25221D01*
X310544Y25166D01*
X310533Y25118D01*
X310522Y25073D01*
X310507Y25033D01*
X310496Y24996D01*
X310489Y24966D01*
X310478Y24944D01*
X310474Y24925D01*
X310467Y24914D01*
Y24911D01*
X310411Y24800D01*
X310348Y24700D01*
X310282Y24614D01*
X310248Y24581D01*
X310219Y24548D01*
X310189Y24518D01*
X310160Y24492D01*
X310134Y24470D01*
X310112Y24455D01*
X310097Y24441D01*
X310082Y24430D01*
X310075Y24426D01*
X310071Y24422D01*
X310019Y24393D01*
X309967Y24367D01*
X309856Y24326D01*
X309745Y24296D01*
X309638Y24278D01*
X309586Y24270D01*
X309542Y24263D01*
X309501Y24259D01*
X309468D01*
X309438Y24256D01*
X309398D01*
X309324Y24259D01*
X309253Y24267D01*
X309187Y24274D01*
X309124Y24289D01*
X309065Y24307D01*
X309009Y24326D01*
X308957Y24344D01*
X308909Y24367D01*
X308868Y24385D01*
X308828Y24404D01*
X308798Y24422D01*
X308769Y24441D01*
X308750Y24455D01*
X308732Y24463D01*
X308724Y24470D01*
X308720Y24474D01*
X308669Y24518D01*
X308624Y24563D01*
X308583Y24614D01*
X308543Y24666D01*
X308476Y24770D01*
X308424Y24873D01*
X308402Y24922D01*
X308384Y24966D01*
X308369Y25007D01*
X308358Y25040D01*
X308347Y25070D01*
X308339Y25092D01*
X308336Y25107D01*
Y25110D01*
X308676Y25195D01*
X308691Y25136D01*
X308709Y25081D01*
X308728Y25029D01*
X308746Y24981D01*
X308769Y24936D01*
X308791Y24899D01*
X308817Y24862D01*
X308839Y24829D01*
X308857Y24800D01*
X308879Y24777D01*
X308898Y24755D01*
X308913Y24737D01*
X308928Y24725D01*
X308939Y24714D01*
X308942Y24711D01*
X308946Y24707D01*
X308983Y24677D01*
X309024Y24655D01*
X309105Y24614D01*
X309183Y24585D01*
X309261Y24566D01*
X309327Y24552D01*
X309353Y24548D01*
X309379D01*
X309401Y24544D01*
X309427D01*
X309512Y24548D01*
X309594Y24563D01*
X309668Y24581D01*
X309734Y24603D01*
X309786Y24626D01*
X309808Y24637D01*
X309827Y24644D01*
X309841Y24652D01*
X309853Y24659D01*
X309860Y24663D01*
X309864D01*
X309934Y24714D01*
X309993Y24770D01*
X310045Y24833D01*
X310086Y24892D01*
X310119Y24944D01*
X310141Y24988D01*
X310149Y25007D01*
X310156Y25018D01*
X310160Y25025D01*
Y25029D01*
X310189Y25125D01*
X310211Y25221D01*
X310230Y25317D01*
X310241Y25406D01*
X310245Y25447D01*
X310248Y25484D01*
Y25517D01*
X310252Y25543D01*
Y25565D01*
Y25584D01*
Y25595D01*
Y25599D01*
X310248Y25695D01*
X310241Y25784D01*
X310226Y25865D01*
X310211Y25939D01*
X310200Y26002D01*
X310193Y26028D01*
X310186Y26050D01*
X310182Y26069D01*
X310178Y26080D01*
X310174Y26087D01*
Y26091D01*
X310138Y26176D01*
X310097Y26254D01*
X310052Y26316D01*
X310004Y26372D01*
X309964Y26416D01*
X309930Y26446D01*
X309904Y26465D01*
X309901Y26472D01*
X309897D01*
X309819Y26520D01*
X309734Y26557D01*
X309653Y26583D01*
X309575Y26598D01*
X309505Y26609D01*
X309475Y26612D01*
X309449D01*
X309431Y26616D01*
X309401D01*
X309309Y26612D01*
X309224Y26598D01*
X309153Y26575D01*
X309090Y26553D01*
X309042Y26527D01*
X309005Y26509D01*
X308983Y26494D01*
X308976Y26487D01*
X308916Y26431D01*
X308861Y26368D01*
X308817Y26302D01*
X308780Y26235D01*
X308750Y26176D01*
X308739Y26146D01*
X308732Y26124D01*
X308724Y26106D01*
X308717Y26091D01*
X308713Y26083D01*
Y26080D01*
X308380Y26157D01*
X308402Y26224D01*
X308424Y26283D01*
X308454Y26339D01*
X308480Y26394D01*
X308509Y26442D01*
X308543Y26487D01*
X308572Y26531D01*
X308602Y26568D01*
X308632Y26598D01*
X308658Y26627D01*
X308683Y26653D01*
X308702Y26672D01*
X308720Y26690D01*
X308735Y26701D01*
X308743Y26705D01*
X308746Y26709D01*
X308798Y26742D01*
X308850Y26775D01*
X308902Y26801D01*
X308957Y26823D01*
X309068Y26857D01*
X309168Y26879D01*
X309216Y26890D01*
X309257Y26894D01*
X309298Y26897D01*
X309331Y26901D01*
X309357Y26905D01*
X309394D01*
X309516Y26897D01*
D02*
G37*
G36*
X306034Y26524D02*
X304780D01*
X304869Y26416D01*
X304954Y26302D01*
X305028Y26191D01*
X305098Y26083D01*
X305128Y26035D01*
X305154Y25991D01*
X305180Y25950D01*
X305198Y25917D01*
X305213Y25887D01*
X305224Y25869D01*
X305231Y25854D01*
X305235Y25850D01*
X305309Y25702D01*
X305376Y25554D01*
X305431Y25414D01*
X305453Y25351D01*
X305475Y25288D01*
X305498Y25232D01*
X305512Y25181D01*
X305527Y25136D01*
X305538Y25099D01*
X305550Y25066D01*
X305557Y25044D01*
X305561Y25029D01*
Y25025D01*
X305598Y24873D01*
X305612Y24800D01*
X305624Y24733D01*
X305635Y24670D01*
X305646Y24607D01*
X305653Y24555D01*
X305661Y24503D01*
X305664Y24459D01*
X305668Y24418D01*
X305672Y24381D01*
Y24352D01*
X305675Y24330D01*
Y24315D01*
Y24304D01*
Y24300D01*
X305353D01*
X305342Y24441D01*
X305324Y24570D01*
X305305Y24689D01*
X305294Y24744D01*
X305283Y24796D01*
X305276Y24840D01*
X305265Y24881D01*
X305257Y24918D01*
X305250Y24948D01*
X305242Y24970D01*
X305239Y24988D01*
X305235Y24999D01*
Y25003D01*
X305180Y25173D01*
X305120Y25332D01*
X305091Y25410D01*
X305061Y25484D01*
X305028Y25551D01*
X304998Y25617D01*
X304972Y25676D01*
X304946Y25728D01*
X304924Y25773D01*
X304906Y25813D01*
X304887Y25847D01*
X304876Y25869D01*
X304869Y25884D01*
X304865Y25887D01*
X304821Y25965D01*
X304776Y26043D01*
X304732Y26113D01*
X304687Y26180D01*
X304647Y26239D01*
X304606Y26298D01*
X304565Y26350D01*
X304532Y26394D01*
X304499Y26439D01*
X304469Y26476D01*
X304439Y26505D01*
X304417Y26531D01*
X304402Y26553D01*
X304388Y26568D01*
X304380Y26575D01*
X304377Y26579D01*
Y26827D01*
X306034D01*
Y26524D01*
D02*
G37*
G36*
X307204Y22209D02*
X307244Y22149D01*
X307292Y22090D01*
X307337Y22038D01*
X307381Y21994D01*
X307414Y21957D01*
X307429Y21946D01*
X307440Y21935D01*
X307444Y21931D01*
X307448Y21927D01*
X307525Y21865D01*
X307603Y21805D01*
X307677Y21754D01*
X307751Y21713D01*
X307814Y21676D01*
X307840Y21661D01*
X307862Y21650D01*
X307881Y21639D01*
X307895Y21635D01*
X307903Y21628D01*
X307907D01*
Y21324D01*
X307851Y21347D01*
X307796Y21372D01*
X307740Y21398D01*
X307688Y21424D01*
X307644Y21446D01*
X307607Y21465D01*
X307585Y21480D01*
X307581Y21483D01*
X307577D01*
X307511Y21524D01*
X307451Y21565D01*
X307400Y21602D01*
X307359Y21635D01*
X307322Y21661D01*
X307300Y21683D01*
X307281Y21698D01*
X307277Y21702D01*
Y19700D01*
X306963D01*
Y22272D01*
X307167D01*
X307204Y22209D01*
D02*
G37*
G36*
X305324Y22268D02*
X305394Y22260D01*
X305461Y22246D01*
X305524Y22227D01*
X305579Y22201D01*
X305635Y22179D01*
X305683Y22149D01*
X305727Y22124D01*
X305764Y22098D01*
X305801Y22068D01*
X305831Y22046D01*
X305853Y22024D01*
X305872Y22001D01*
X305886Y21987D01*
X305894Y21979D01*
X305897Y21975D01*
X305945Y21909D01*
X305986Y21831D01*
X306023Y21750D01*
X306056Y21665D01*
X306082Y21576D01*
X306105Y21487D01*
X306123Y21395D01*
X306138Y21309D01*
X306149Y21224D01*
X306156Y21147D01*
X306164Y21076D01*
X306168Y21017D01*
Y20965D01*
X306171Y20928D01*
Y20914D01*
Y20902D01*
Y20899D01*
Y20895D01*
X306168Y20777D01*
X306160Y20666D01*
X306149Y20562D01*
X306131Y20466D01*
X306112Y20381D01*
X306094Y20303D01*
X306071Y20233D01*
X306045Y20170D01*
X306023Y20118D01*
X306001Y20070D01*
X305982Y20033D01*
X305960Y20000D01*
X305945Y19974D01*
X305934Y19959D01*
X305927Y19948D01*
X305923Y19944D01*
X305875Y19892D01*
X305823Y19848D01*
X305772Y19811D01*
X305720Y19778D01*
X305664Y19748D01*
X305612Y19726D01*
X305561Y19707D01*
X305509Y19693D01*
X305465Y19681D01*
X305420Y19670D01*
X305383Y19663D01*
X305350Y19659D01*
X305320D01*
X305302Y19656D01*
X305283D01*
X305198Y19659D01*
X305120Y19674D01*
X305050Y19689D01*
X304987Y19711D01*
X304939Y19730D01*
X304902Y19748D01*
X304887Y19752D01*
X304876Y19759D01*
X304872Y19763D01*
X304869D01*
X304806Y19807D01*
X304747Y19859D01*
X304699Y19911D01*
X304658Y19963D01*
X304625Y20011D01*
X304602Y20048D01*
X304595Y20063D01*
X304588Y20074D01*
X304584Y20077D01*
Y20081D01*
X304547Y20159D01*
X304521Y20240D01*
X304503Y20314D01*
X304491Y20384D01*
X304480Y20444D01*
Y20466D01*
X304477Y20488D01*
Y20507D01*
Y20518D01*
Y20525D01*
Y20529D01*
X304480Y20595D01*
X304488Y20658D01*
X304499Y20721D01*
X304510Y20777D01*
X304528Y20829D01*
X304547Y20880D01*
X304565Y20925D01*
X304588Y20965D01*
X304610Y21002D01*
X304628Y21036D01*
X304647Y21062D01*
X304665Y21088D01*
X304676Y21106D01*
X304688Y21117D01*
X304695Y21125D01*
X304699Y21128D01*
X304739Y21169D01*
X304784Y21206D01*
X304832Y21236D01*
X304876Y21261D01*
X304921Y21287D01*
X304965Y21306D01*
X305050Y21332D01*
X305087Y21343D01*
X305124Y21350D01*
X305154Y21354D01*
X305183Y21358D01*
X305205Y21361D01*
X305235D01*
X305302Y21358D01*
X305365Y21347D01*
X305424Y21335D01*
X305476Y21321D01*
X305520Y21302D01*
X305553Y21291D01*
X305575Y21280D01*
X305579Y21276D01*
X305583D01*
X305642Y21239D01*
X305694Y21199D01*
X305742Y21158D01*
X305779Y21113D01*
X305812Y21076D01*
X305838Y21047D01*
X305853Y21025D01*
X305857Y21021D01*
Y21088D01*
X305853Y21154D01*
X305849Y21213D01*
X305842Y21272D01*
X305838Y21324D01*
X305831Y21372D01*
X305823Y21417D01*
X305812Y21457D01*
X305805Y21495D01*
X305798Y21524D01*
X305790Y21550D01*
X305786Y21572D01*
X305779Y21587D01*
X305775Y21598D01*
X305772Y21606D01*
Y21609D01*
X305735Y21683D01*
X305698Y21750D01*
X305657Y21802D01*
X305620Y21846D01*
X305587Y21883D01*
X305561Y21909D01*
X305542Y21924D01*
X305535Y21927D01*
X305490Y21957D01*
X305446Y21975D01*
X305402Y21990D01*
X305357Y22001D01*
X305324Y22009D01*
X305294Y22013D01*
X305268D01*
X305202Y22005D01*
X305139Y21990D01*
X305087Y21968D01*
X305039Y21946D01*
X305002Y21920D01*
X304976Y21898D01*
X304961Y21883D01*
X304954Y21876D01*
X304928Y21842D01*
X304902Y21802D01*
X304880Y21757D01*
X304865Y21713D01*
X304850Y21672D01*
X304839Y21639D01*
X304836Y21617D01*
X304832Y21613D01*
Y21609D01*
X304517Y21635D01*
X304539Y21739D01*
X304573Y21831D01*
X304610Y21913D01*
X304650Y21979D01*
X304691Y22031D01*
X304706Y22053D01*
X304725Y22072D01*
X304736Y22083D01*
X304747Y22094D01*
X304750Y22098D01*
X304754Y22101D01*
X304791Y22131D01*
X304832Y22157D01*
X304913Y22201D01*
X304995Y22231D01*
X305072Y22249D01*
X305143Y22264D01*
X305172Y22268D01*
X305198D01*
X305220Y22272D01*
X305250D01*
X305324Y22268D01*
D02*
G37*
G36*
X309616Y22297D02*
X309734Y22279D01*
X309838Y22257D01*
X309886Y22242D01*
X309930Y22227D01*
X309971Y22212D01*
X310008Y22197D01*
X310038Y22186D01*
X310067Y22175D01*
X310086Y22164D01*
X310101Y22157D01*
X310112Y22153D01*
X310115Y22149D01*
X310215Y22086D01*
X310300Y22013D01*
X310374Y21938D01*
X310437Y21865D01*
X310485Y21798D01*
X310504Y21768D01*
X310519Y21742D01*
X310533Y21724D01*
X310541Y21709D01*
X310545Y21698D01*
X310548Y21694D01*
X310600Y21580D01*
X310637Y21461D01*
X310663Y21343D01*
X310682Y21236D01*
X310689Y21187D01*
X310693Y21139D01*
X310696Y21102D01*
Y21065D01*
X310700Y21039D01*
Y21017D01*
Y21002D01*
Y20999D01*
X310693Y20865D01*
X310678Y20736D01*
X310659Y20621D01*
X310645Y20566D01*
X310633Y20518D01*
X310622Y20473D01*
X310608Y20433D01*
X310596Y20396D01*
X310589Y20366D01*
X310578Y20344D01*
X310574Y20325D01*
X310567Y20314D01*
Y20311D01*
X310511Y20200D01*
X310448Y20100D01*
X310382Y20015D01*
X310349Y19981D01*
X310319Y19948D01*
X310289Y19918D01*
X310260Y19892D01*
X310234Y19870D01*
X310212Y19855D01*
X310197Y19841D01*
X310182Y19829D01*
X310175Y19826D01*
X310171Y19822D01*
X310119Y19793D01*
X310067Y19767D01*
X309956Y19726D01*
X309845Y19696D01*
X309738Y19678D01*
X309686Y19670D01*
X309642Y19663D01*
X309601Y19659D01*
X309568D01*
X309538Y19656D01*
X309497D01*
X309423Y19659D01*
X309353Y19667D01*
X309287Y19674D01*
X309224Y19689D01*
X309165Y19707D01*
X309109Y19726D01*
X309057Y19744D01*
X309009Y19767D01*
X308968Y19785D01*
X308928Y19804D01*
X308898Y19822D01*
X308869Y19841D01*
X308850Y19855D01*
X308832Y19863D01*
X308824Y19870D01*
X308820Y19874D01*
X308769Y19918D01*
X308724Y19963D01*
X308683Y20015D01*
X308643Y20066D01*
X308576Y20170D01*
X308524Y20274D01*
X308502Y20322D01*
X308484Y20366D01*
X308469Y20407D01*
X308458Y20440D01*
X308447Y20470D01*
X308439Y20492D01*
X308436Y20507D01*
Y20510D01*
X308776Y20595D01*
X308791Y20536D01*
X308809Y20481D01*
X308828Y20429D01*
X308846Y20381D01*
X308869Y20336D01*
X308891Y20299D01*
X308917Y20262D01*
X308939Y20229D01*
X308957Y20200D01*
X308980Y20177D01*
X308998Y20155D01*
X309013Y20137D01*
X309028Y20125D01*
X309039Y20114D01*
X309042Y20111D01*
X309046Y20107D01*
X309083Y20077D01*
X309124Y20055D01*
X309205Y20015D01*
X309283Y19985D01*
X309361Y19966D01*
X309427Y19952D01*
X309453Y19948D01*
X309479D01*
X309501Y19944D01*
X309527D01*
X309612Y19948D01*
X309694Y19963D01*
X309768Y19981D01*
X309834Y20003D01*
X309886Y20026D01*
X309908Y20037D01*
X309927Y20044D01*
X309942Y20052D01*
X309953Y20059D01*
X309960Y20063D01*
X309964D01*
X310034Y20114D01*
X310093Y20170D01*
X310145Y20233D01*
X310186Y20292D01*
X310219Y20344D01*
X310241Y20388D01*
X310249Y20407D01*
X310256Y20418D01*
X310260Y20425D01*
Y20429D01*
X310289Y20525D01*
X310312Y20621D01*
X310330Y20718D01*
X310341Y20806D01*
X310345Y20847D01*
X310349Y20884D01*
Y20917D01*
X310352Y20943D01*
Y20965D01*
Y20984D01*
Y20995D01*
Y20999D01*
X310349Y21095D01*
X310341Y21184D01*
X310326Y21265D01*
X310312Y21339D01*
X310300Y21402D01*
X310293Y21428D01*
X310286Y21450D01*
X310282Y21469D01*
X310278Y21480D01*
X310275Y21487D01*
Y21491D01*
X310238Y21576D01*
X310197Y21654D01*
X310152Y21716D01*
X310104Y21772D01*
X310064Y21816D01*
X310030Y21846D01*
X310004Y21865D01*
X310001Y21872D01*
X309997D01*
X309919Y21920D01*
X309834Y21957D01*
X309753Y21983D01*
X309675Y21998D01*
X309605Y22009D01*
X309575Y22013D01*
X309549D01*
X309531Y22016D01*
X309501D01*
X309409Y22013D01*
X309324Y21998D01*
X309253Y21975D01*
X309190Y21953D01*
X309142Y21927D01*
X309105Y21909D01*
X309083Y21894D01*
X309076Y21887D01*
X309016Y21831D01*
X308961Y21768D01*
X308917Y21702D01*
X308880Y21635D01*
X308850Y21576D01*
X308839Y21546D01*
X308832Y21524D01*
X308824Y21506D01*
X308817Y21491D01*
X308813Y21483D01*
Y21480D01*
X308480Y21557D01*
X308502Y21624D01*
X308524Y21683D01*
X308554Y21739D01*
X308580Y21794D01*
X308610Y21842D01*
X308643Y21887D01*
X308672Y21931D01*
X308702Y21968D01*
X308732Y21998D01*
X308757Y22027D01*
X308783Y22053D01*
X308802Y22072D01*
X308820Y22090D01*
X308835Y22101D01*
X308843Y22105D01*
X308846Y22109D01*
X308898Y22142D01*
X308950Y22175D01*
X309002Y22201D01*
X309057Y22223D01*
X309168Y22257D01*
X309268Y22279D01*
X309316Y22290D01*
X309357Y22294D01*
X309398Y22297D01*
X309431Y22301D01*
X309457Y22305D01*
X309494D01*
X309616Y22297D01*
D02*
G37*
G36*
X42799Y123712D02*
X42858D01*
X42917Y123709D01*
X42969Y123701D01*
X43021Y123697D01*
X43065Y123694D01*
X43106Y123686D01*
X43143Y123683D01*
X43176Y123675D01*
X43202Y123672D01*
X43224Y123668D01*
X43243Y123664D01*
X43254Y123661D01*
X43261Y123657D01*
X43265D01*
X43346Y123635D01*
X43420Y123609D01*
X43483Y123579D01*
X43539Y123557D01*
X43587Y123531D01*
X43620Y123516D01*
X43639Y123501D01*
X43646Y123498D01*
X43701Y123457D01*
X43749Y123416D01*
X43790Y123372D01*
X43827Y123331D01*
X43853Y123294D01*
X43872Y123265D01*
X43883Y123246D01*
X43886Y123242D01*
Y123239D01*
X43916Y123179D01*
X43935Y123117D01*
X43949Y123057D01*
X43960Y123002D01*
X43968Y122954D01*
X43971Y122913D01*
Y122880D01*
X43964Y122780D01*
X43949Y122687D01*
X43923Y122610D01*
X43898Y122543D01*
X43868Y122488D01*
X43857Y122465D01*
X43842Y122447D01*
X43835Y122432D01*
X43827Y122421D01*
X43820Y122417D01*
Y122414D01*
X43761Y122347D01*
X43690Y122292D01*
X43620Y122243D01*
X43553Y122206D01*
X43490Y122177D01*
X43465Y122162D01*
X43439Y122155D01*
X43420Y122147D01*
X43405Y122140D01*
X43398Y122136D01*
X43394D01*
X43339Y122121D01*
X43283Y122107D01*
X43161Y122084D01*
X43039Y122066D01*
X42924Y122055D01*
X42869Y122051D01*
X42821Y122047D01*
X42776D01*
X42736Y122044D01*
X42706D01*
X42680D01*
X42665D01*
X42662D01*
X42532Y122047D01*
X42410Y122055D01*
X42299Y122066D01*
X42195Y122084D01*
X42099Y122103D01*
X42014Y122125D01*
X41936Y122147D01*
X41870Y122169D01*
X41811Y122192D01*
X41759Y122218D01*
X41715Y122236D01*
X41681Y122255D01*
X41652Y122273D01*
X41633Y122284D01*
X41622Y122292D01*
X41618Y122295D01*
X41574Y122336D01*
X41533Y122380D01*
X41496Y122428D01*
X41467Y122476D01*
X41441Y122525D01*
X41418Y122573D01*
X41404Y122621D01*
X41389Y122665D01*
X41378Y122710D01*
X41370Y122750D01*
X41363Y122787D01*
X41359Y122817D01*
X41356Y122843D01*
Y122880D01*
X41363Y122980D01*
X41378Y123072D01*
X41404Y123150D01*
X41430Y123216D01*
X41456Y123272D01*
X41470Y123291D01*
X41481Y123309D01*
X41489Y123324D01*
X41496Y123335D01*
X41504Y123339D01*
Y123342D01*
X41567Y123409D01*
X41633Y123464D01*
X41707Y123512D01*
X41774Y123549D01*
X41837Y123579D01*
X41862Y123594D01*
X41888Y123601D01*
X41907Y123609D01*
X41922Y123616D01*
X41929Y123620D01*
X41933D01*
X41988Y123638D01*
X42044Y123653D01*
X42162Y123675D01*
X42284Y123694D01*
X42403Y123705D01*
X42454Y123709D01*
X42503Y123712D01*
X42547D01*
X42588Y123716D01*
X42617D01*
X42643D01*
X42658D01*
X42662D01*
X42732D01*
X42799Y123712D01*
D02*
G37*
G36*
X43971Y121034D02*
X43909Y120996D01*
X43849Y120956D01*
X43790Y120908D01*
X43738Y120863D01*
X43694Y120819D01*
X43657Y120786D01*
X43646Y120771D01*
X43635Y120760D01*
X43631Y120756D01*
X43627Y120752D01*
X43565Y120675D01*
X43505Y120597D01*
X43453Y120523D01*
X43413Y120449D01*
X43376Y120386D01*
X43361Y120360D01*
X43350Y120338D01*
X43339Y120319D01*
X43335Y120305D01*
X43328Y120297D01*
Y120293D01*
X43024D01*
X43047Y120349D01*
X43072Y120405D01*
X43098Y120460D01*
X43124Y120512D01*
X43146Y120556D01*
X43165Y120593D01*
X43180Y120615D01*
X43183Y120619D01*
Y120623D01*
X43224Y120689D01*
X43265Y120749D01*
X43302Y120800D01*
X43335Y120841D01*
X43361Y120878D01*
X43383Y120900D01*
X43398Y120919D01*
X43402Y120923D01*
X41400D01*
Y121237D01*
X43971D01*
Y121034D01*
D02*
G37*
G36*
X42295Y119424D02*
X42236Y119409D01*
X42181Y119391D01*
X42129Y119372D01*
X42081Y119354D01*
X42036Y119332D01*
X41999Y119309D01*
X41962Y119283D01*
X41929Y119261D01*
X41899Y119243D01*
X41877Y119220D01*
X41855Y119202D01*
X41837Y119187D01*
X41826Y119172D01*
X41814Y119161D01*
X41811Y119158D01*
X41807Y119154D01*
X41777Y119117D01*
X41755Y119076D01*
X41715Y118995D01*
X41685Y118917D01*
X41666Y118839D01*
X41652Y118773D01*
X41648Y118747D01*
Y118721D01*
X41644Y118699D01*
Y118673D01*
X41648Y118588D01*
X41663Y118506D01*
X41681Y118432D01*
X41703Y118366D01*
X41726Y118314D01*
X41737Y118292D01*
X41744Y118273D01*
X41752Y118259D01*
X41759Y118247D01*
X41763Y118240D01*
Y118236D01*
X41814Y118166D01*
X41870Y118107D01*
X41933Y118055D01*
X41992Y118014D01*
X42044Y117981D01*
X42088Y117959D01*
X42107Y117951D01*
X42118Y117944D01*
X42125Y117940D01*
X42129D01*
X42225Y117911D01*
X42321Y117888D01*
X42417Y117870D01*
X42506Y117859D01*
X42547Y117855D01*
X42584Y117851D01*
X42617D01*
X42643Y117848D01*
X42665D01*
X42684D01*
X42695D01*
X42699D01*
X42795Y117851D01*
X42884Y117859D01*
X42965Y117874D01*
X43039Y117888D01*
X43102Y117900D01*
X43128Y117907D01*
X43150Y117914D01*
X43169Y117918D01*
X43180Y117922D01*
X43187Y117926D01*
X43191D01*
X43276Y117963D01*
X43354Y118003D01*
X43417Y118048D01*
X43472Y118096D01*
X43516Y118136D01*
X43546Y118170D01*
X43565Y118196D01*
X43572Y118199D01*
Y118203D01*
X43620Y118281D01*
X43657Y118366D01*
X43683Y118447D01*
X43698Y118525D01*
X43709Y118595D01*
X43712Y118625D01*
Y118651D01*
X43716Y118669D01*
Y118699D01*
X43712Y118791D01*
X43698Y118876D01*
X43676Y118947D01*
X43653Y119010D01*
X43627Y119058D01*
X43609Y119095D01*
X43594Y119117D01*
X43587Y119124D01*
X43531Y119184D01*
X43468Y119239D01*
X43402Y119283D01*
X43335Y119320D01*
X43276Y119350D01*
X43246Y119361D01*
X43224Y119369D01*
X43206Y119376D01*
X43191Y119383D01*
X43183Y119387D01*
X43180D01*
X43257Y119720D01*
X43324Y119698D01*
X43383Y119676D01*
X43439Y119646D01*
X43494Y119620D01*
X43542Y119590D01*
X43587Y119557D01*
X43631Y119528D01*
X43668Y119498D01*
X43698Y119468D01*
X43727Y119442D01*
X43753Y119417D01*
X43772Y119398D01*
X43790Y119380D01*
X43801Y119365D01*
X43805Y119357D01*
X43809Y119354D01*
X43842Y119302D01*
X43875Y119250D01*
X43901Y119198D01*
X43923Y119143D01*
X43957Y119032D01*
X43979Y118932D01*
X43990Y118884D01*
X43994Y118843D01*
X43997Y118802D01*
X44001Y118769D01*
X44005Y118743D01*
Y118706D01*
X43997Y118584D01*
X43979Y118466D01*
X43957Y118362D01*
X43942Y118314D01*
X43927Y118270D01*
X43912Y118229D01*
X43898Y118192D01*
X43886Y118162D01*
X43875Y118133D01*
X43864Y118114D01*
X43857Y118099D01*
X43853Y118088D01*
X43849Y118085D01*
X43786Y117985D01*
X43712Y117900D01*
X43639Y117826D01*
X43565Y117763D01*
X43498Y117715D01*
X43468Y117696D01*
X43442Y117681D01*
X43424Y117666D01*
X43409Y117659D01*
X43398Y117655D01*
X43394Y117652D01*
X43280Y117600D01*
X43161Y117563D01*
X43043Y117537D01*
X42935Y117518D01*
X42887Y117511D01*
X42839Y117507D01*
X42802Y117504D01*
X42765D01*
X42739Y117500D01*
X42717D01*
X42702D01*
X42699D01*
X42566Y117507D01*
X42436Y117522D01*
X42321Y117541D01*
X42266Y117555D01*
X42218Y117567D01*
X42173Y117578D01*
X42133Y117593D01*
X42096Y117604D01*
X42066Y117611D01*
X42044Y117622D01*
X42025Y117626D01*
X42014Y117633D01*
X42011D01*
X41899Y117689D01*
X41800Y117752D01*
X41715Y117818D01*
X41681Y117851D01*
X41648Y117881D01*
X41618Y117911D01*
X41592Y117940D01*
X41570Y117966D01*
X41555Y117988D01*
X41541Y118003D01*
X41530Y118018D01*
X41526Y118025D01*
X41522Y118029D01*
X41493Y118081D01*
X41467Y118133D01*
X41426Y118244D01*
X41396Y118355D01*
X41378Y118462D01*
X41370Y118514D01*
X41363Y118558D01*
X41359Y118599D01*
Y118632D01*
X41356Y118662D01*
Y118702D01*
X41359Y118777D01*
X41367Y118847D01*
X41374Y118913D01*
X41389Y118976D01*
X41407Y119035D01*
X41426Y119091D01*
X41444Y119143D01*
X41467Y119191D01*
X41485Y119232D01*
X41504Y119272D01*
X41522Y119302D01*
X41541Y119332D01*
X41555Y119350D01*
X41563Y119369D01*
X41570Y119376D01*
X41574Y119380D01*
X41618Y119431D01*
X41663Y119476D01*
X41715Y119517D01*
X41766Y119557D01*
X41870Y119624D01*
X41974Y119676D01*
X42022Y119698D01*
X42066Y119716D01*
X42107Y119731D01*
X42140Y119742D01*
X42170Y119753D01*
X42192Y119761D01*
X42207Y119764D01*
X42210D01*
X42295Y119424D01*
D02*
G37*
%LPC*%
G36*
X226660Y138457D02*
X225927D01*
X225860Y138453D01*
X225805Y138450D01*
X225761Y138446D01*
X225731Y138438D01*
X225709Y138435D01*
X225694Y138431D01*
X225690D01*
X225642Y138413D01*
X225601Y138390D01*
X225564Y138368D01*
X225531Y138342D01*
X225509Y138316D01*
X225490Y138298D01*
X225479Y138283D01*
X225476Y138279D01*
X225450Y138235D01*
X225428Y138191D01*
X225413Y138143D01*
X225405Y138102D01*
X225398Y138065D01*
X225394Y138031D01*
Y138013D01*
Y138009D01*
Y138006D01*
X225402Y137928D01*
X225416Y137861D01*
X225439Y137802D01*
X225465Y137754D01*
X225490Y137717D01*
X225513Y137687D01*
X225527Y137673D01*
X225535Y137665D01*
X225561Y137643D01*
X225594Y137625D01*
X225664Y137595D01*
X225742Y137573D01*
X225820Y137558D01*
X225890Y137550D01*
X225920Y137547D01*
X225945D01*
X225971Y137543D01*
X226660D01*
Y138457D01*
D02*
G37*
G36*
X249420Y153284D02*
X249398D01*
X249320Y153276D01*
X249250Y153258D01*
X249191Y153236D01*
X249139Y153206D01*
X249098Y153176D01*
X249069Y153154D01*
X249050Y153136D01*
X249043Y153128D01*
X248995Y153066D01*
X248958Y152999D01*
X248932Y152929D01*
X248917Y152862D01*
X248906Y152803D01*
X248902Y152777D01*
Y152755D01*
X248899Y152736D01*
Y152721D01*
Y152714D01*
Y152710D01*
X248906Y152610D01*
X248921Y152525D01*
X248943Y152451D01*
X248969Y152388D01*
X248998Y152340D01*
X249021Y152303D01*
X249035Y152281D01*
X249043Y152277D01*
Y152274D01*
X249069Y152244D01*
X249098Y152222D01*
X249158Y152181D01*
X249217Y152155D01*
X249269Y152133D01*
X249317Y152122D01*
X249354Y152118D01*
X249368Y152115D01*
X249387D01*
X249439Y152118D01*
X249487Y152126D01*
X249531Y152140D01*
X249568Y152155D01*
X249602Y152166D01*
X249627Y152181D01*
X249642Y152189D01*
X249650Y152192D01*
X249694Y152226D01*
X249731Y152259D01*
X249764Y152300D01*
X249790Y152333D01*
X249812Y152366D01*
X249827Y152392D01*
X249838Y152411D01*
X249842Y152418D01*
X249864Y152473D01*
X249879Y152529D01*
X249894Y152581D01*
X249901Y152629D01*
X249905Y152670D01*
X249909Y152703D01*
Y152721D01*
Y152729D01*
X249901Y152818D01*
X249886Y152895D01*
X249861Y152966D01*
X249835Y153021D01*
X249809Y153069D01*
X249783Y153103D01*
X249768Y153121D01*
X249761Y153128D01*
X249701Y153180D01*
X249642Y153217D01*
X249579Y153247D01*
X249524Y153265D01*
X249472Y153276D01*
X249435Y153280D01*
X249420Y153284D01*
D02*
G37*
G36*
X39550Y123050D02*
X38403D01*
Y122243D01*
X39550Y123050D01*
D02*
G37*
G36*
X305320Y21084D02*
X305298D01*
X305220Y21076D01*
X305150Y21058D01*
X305091Y21036D01*
X305039Y21006D01*
X304998Y20977D01*
X304969Y20954D01*
X304950Y20936D01*
X304943Y20928D01*
X304895Y20865D01*
X304858Y20799D01*
X304832Y20729D01*
X304817Y20662D01*
X304806Y20603D01*
X304802Y20577D01*
Y20555D01*
X304799Y20536D01*
Y20521D01*
Y20514D01*
Y20510D01*
X304806Y20410D01*
X304821Y20325D01*
X304843Y20251D01*
X304869Y20188D01*
X304898Y20140D01*
X304921Y20103D01*
X304935Y20081D01*
X304943Y20077D01*
Y20074D01*
X304969Y20044D01*
X304998Y20022D01*
X305058Y19981D01*
X305117Y19955D01*
X305169Y19933D01*
X305217Y19922D01*
X305254Y19918D01*
X305268Y19915D01*
X305287D01*
X305339Y19918D01*
X305387Y19926D01*
X305431Y19940D01*
X305468Y19955D01*
X305502Y19966D01*
X305527Y19981D01*
X305542Y19989D01*
X305550Y19992D01*
X305594Y20026D01*
X305631Y20059D01*
X305664Y20100D01*
X305690Y20133D01*
X305712Y20166D01*
X305727Y20192D01*
X305738Y20211D01*
X305742Y20218D01*
X305764Y20274D01*
X305779Y20329D01*
X305794Y20381D01*
X305801Y20429D01*
X305805Y20470D01*
X305809Y20503D01*
Y20521D01*
Y20529D01*
X305801Y20618D01*
X305786Y20695D01*
X305761Y20766D01*
X305735Y20821D01*
X305709Y20869D01*
X305683Y20902D01*
X305668Y20921D01*
X305661Y20928D01*
X305601Y20980D01*
X305542Y21017D01*
X305479Y21047D01*
X305424Y21065D01*
X305372Y21076D01*
X305335Y21080D01*
X305320Y21084D01*
D02*
G37*
G36*
X42721Y123394D02*
X42688D01*
X42669D01*
X42665D01*
X42662D01*
X42547D01*
X42443Y123387D01*
X42351Y123379D01*
X42262Y123372D01*
X42188Y123361D01*
X42118Y123346D01*
X42059Y123331D01*
X42003Y123320D01*
X41959Y123305D01*
X41922Y123291D01*
X41888Y123279D01*
X41862Y123265D01*
X41844Y123257D01*
X41833Y123250D01*
X41826Y123242D01*
X41822D01*
X41785Y123213D01*
X41755Y123183D01*
X41726Y123154D01*
X41703Y123124D01*
X41666Y123061D01*
X41640Y123006D01*
X41626Y122954D01*
X41618Y122917D01*
X41615Y122902D01*
Y122880D01*
X41618Y122839D01*
X41622Y122802D01*
X41648Y122732D01*
X41681Y122669D01*
X41718Y122613D01*
X41755Y122573D01*
X41789Y122539D01*
X41814Y122521D01*
X41818Y122513D01*
X41822D01*
X41866Y122488D01*
X41918Y122465D01*
X41977Y122443D01*
X42040Y122428D01*
X42107Y122414D01*
X42177Y122403D01*
X42321Y122384D01*
X42388Y122377D01*
X42451Y122373D01*
X42510Y122369D01*
X42558D01*
X42603Y122365D01*
X42636D01*
X42654D01*
X42662D01*
X42776Y122369D01*
X42880Y122373D01*
X42976Y122380D01*
X43065Y122391D01*
X43143Y122403D01*
X43213Y122417D01*
X43276Y122432D01*
X43331Y122447D01*
X43380Y122462D01*
X43420Y122473D01*
X43453Y122488D01*
X43483Y122499D01*
X43502Y122510D01*
X43516Y122517D01*
X43524Y122525D01*
X43527D01*
X43561Y122550D01*
X43590Y122576D01*
X43613Y122606D01*
X43635Y122636D01*
X43668Y122695D01*
X43690Y122750D01*
X43701Y122798D01*
X43709Y122839D01*
X43712Y122854D01*
Y122876D01*
X43709Y122917D01*
X43705Y122958D01*
X43694Y122994D01*
X43679Y123028D01*
X43646Y123091D01*
X43609Y123146D01*
X43568Y123187D01*
X43535Y123220D01*
X43520Y123231D01*
X43509Y123239D01*
X43505Y123246D01*
X43502D01*
X43457Y123272D01*
X43405Y123294D01*
X43346Y123316D01*
X43283Y123331D01*
X43217Y123346D01*
X43146Y123357D01*
X43006Y123376D01*
X42935Y123383D01*
X42873Y123387D01*
X42813Y123390D01*
X42765D01*
X42721Y123394D01*
D02*
G37*
%LPD*%
D14*
X207106Y152290D02*
Y154353D01*
X203074Y152290D02*
Y154353D01*
Y152290D02*
X207106D01*
X203074Y154353D02*
X207106D01*
X207007Y148353D02*
Y150416D01*
X202976Y148353D02*
Y150416D01*
Y148353D02*
X207007D01*
X202976Y150416D02*
X207007D01*
X243400Y148356D02*
Y150419D01*
X247431Y148356D02*
Y150419D01*
X243400D02*
X247431D01*
X243400Y148356D02*
X247431D01*
X243400Y152097D02*
Y154160D01*
X247431Y152097D02*
Y154160D01*
X243400D02*
X247431D01*
X243400Y152097D02*
X247431D01*
X37868Y112384D02*
X39931D01*
X37868Y116416D02*
X39931D01*
X37868Y112384D02*
Y116416D01*
X39931Y112384D02*
Y116416D01*
X316189Y24203D02*
Y26266D01*
X312158Y24203D02*
Y26266D01*
Y24203D02*
X316189D01*
X312158Y26266D02*
X316189D01*
Y19933D02*
Y21996D01*
X312158Y19933D02*
Y21996D01*
Y19933D02*
X316189D01*
X312158Y21996D02*
X316189D01*
X41623Y112354D02*
X43686D01*
X41623Y116386D02*
X43686D01*
X41623Y112354D02*
Y116386D01*
X43686Y112354D02*
Y116386D01*
X30468Y115284D02*
X32531D01*
X30468Y119316D02*
X32531D01*
X30468Y115284D02*
Y119316D01*
X32531Y115284D02*
Y119316D01*
D15*
X317948Y22933D02*
Y34547D01*
X332909Y22933D02*
Y34547D01*
X317948D02*
X332909D01*
X317948Y22933D02*
X332909D01*
D16*
X305709Y49520D02*
Y69205D01*
X103740Y49520D02*
X305709D01*
X103740D02*
Y69205D01*
X305709D01*
D115*
X210500Y121587D02*
X239500D01*
X210500D02*
Y153587D01*
X239500D01*
Y121587D02*
Y153587D01*
M02*
