G04*
G04 #@! TF.GenerationSoftware,Altium Limited,Altium Designer,20.1.11 (218)*
G04*
G04 Layer_Color=8388736*
%FSLAX25Y25*%
%MOIN*%
G70*
G04*
G04 #@! TF.SameCoordinates,8DDD7718-E0D7-425E-BE50-D601791E5550*
G04*
G04*
G04 #@! TF.FilePolarity,Negative*
G04*
G01*
G75*
%ADD12C,0.01000*%
%ADD42C,0.02400*%
G04:AMPARAMS|DCode=43|XSize=32.41mil|YSize=30.44mil|CornerRadius=9.61mil|HoleSize=0mil|Usage=FLASHONLY|Rotation=0.000|XOffset=0mil|YOffset=0mil|HoleType=Round|Shape=RoundedRectangle|*
%AMROUNDEDRECTD43*
21,1,0.03241,0.01122,0,0,0.0*
21,1,0.01319,0.03044,0,0,0.0*
1,1,0.01922,0.00659,-0.00561*
1,1,0.01922,-0.00659,-0.00561*
1,1,0.01922,-0.00659,0.00561*
1,1,0.01922,0.00659,0.00561*
%
%ADD43ROUNDEDRECTD43*%
%ADD44R,0.03359X0.05524*%
%ADD45O,0.01581X0.07487*%
%ADD46O,0.07487X0.01581*%
%ADD47C,0.01587*%
G04:AMPARAMS|DCode=48|XSize=32.41mil|YSize=30.44mil|CornerRadius=9.61mil|HoleSize=0mil|Usage=FLASHONLY|Rotation=90.000|XOffset=0mil|YOffset=0mil|HoleType=Round|Shape=RoundedRectangle|*
%AMROUNDEDRECTD48*
21,1,0.03241,0.01122,0,0,90.0*
21,1,0.01319,0.03044,0,0,90.0*
1,1,0.01922,0.00561,0.00659*
1,1,0.01922,0.00561,-0.00659*
1,1,0.01922,-0.00561,-0.00659*
1,1,0.01922,-0.00561,0.00659*
%
%ADD48ROUNDEDRECTD48*%
G04:AMPARAMS|DCode=49|XSize=33.98mil|YSize=30.84mil|CornerRadius=9.71mil|HoleSize=0mil|Usage=FLASHONLY|Rotation=180.000|XOffset=0mil|YOffset=0mil|HoleType=Round|Shape=RoundedRectangle|*
%AMROUNDEDRECTD49*
21,1,0.03398,0.01142,0,0,180.0*
21,1,0.01457,0.03084,0,0,180.0*
1,1,0.01942,-0.00728,0.00571*
1,1,0.01942,0.00728,0.00571*
1,1,0.01942,0.00728,-0.00571*
1,1,0.01942,-0.00728,-0.00571*
%
%ADD49ROUNDEDRECTD49*%
%ADD50R,0.05328X0.03753*%
%ADD51R,0.04540X0.06312*%
G04:AMPARAMS|DCode=52|XSize=52.49mil|YSize=104.06mil|CornerRadius=15.12mil|HoleSize=0mil|Usage=FLASHONLY|Rotation=0.000|XOffset=0mil|YOffset=0mil|HoleType=Round|Shape=RoundedRectangle|*
%AMROUNDEDRECTD52*
21,1,0.05249,0.07382,0,0,0.0*
21,1,0.02224,0.10406,0,0,0.0*
1,1,0.03024,0.01112,-0.03691*
1,1,0.03024,-0.01112,-0.03691*
1,1,0.03024,-0.01112,0.03691*
1,1,0.03024,0.01112,0.03691*
%
%ADD52ROUNDEDRECTD52*%
%ADD53R,0.02054X0.01266*%
G04:AMPARAMS|DCode=54|XSize=19.75mil|YSize=57.15mil|CornerRadius=5.94mil|HoleSize=0mil|Usage=FLASHONLY|Rotation=270.000|XOffset=0mil|YOffset=0mil|HoleType=Round|Shape=RoundedRectangle|*
%AMROUNDEDRECTD54*
21,1,0.01975,0.04528,0,0,270.0*
21,1,0.00787,0.05715,0,0,270.0*
1,1,0.01187,-0.02264,-0.00394*
1,1,0.01187,-0.02264,0.00394*
1,1,0.01187,0.02264,0.00394*
1,1,0.01187,0.02264,-0.00394*
%
%ADD54ROUNDEDRECTD54*%
%ADD55R,0.05446X0.03202*%
G04:AMPARAMS|DCode=56|XSize=47.37mil|YSize=63.12mil|CornerRadius=13.84mil|HoleSize=0mil|Usage=FLASHONLY|Rotation=90.000|XOffset=0mil|YOffset=0mil|HoleType=Round|Shape=RoundedRectangle|*
%AMROUNDEDRECTD56*
21,1,0.04737,0.03543,0,0,90.0*
21,1,0.01968,0.06312,0,0,90.0*
1,1,0.02769,0.01772,0.00984*
1,1,0.02769,0.01772,-0.00984*
1,1,0.02769,-0.01772,-0.00984*
1,1,0.02769,-0.01772,0.00984*
%
%ADD56ROUNDEDRECTD56*%
G04:AMPARAMS|DCode=57|XSize=33.98mil|YSize=30.84mil|CornerRadius=9.71mil|HoleSize=0mil|Usage=FLASHONLY|Rotation=270.000|XOffset=0mil|YOffset=0mil|HoleType=Round|Shape=RoundedRectangle|*
%AMROUNDEDRECTD57*
21,1,0.03398,0.01142,0,0,270.0*
21,1,0.01457,0.03084,0,0,270.0*
1,1,0.01942,-0.00571,-0.00728*
1,1,0.01942,-0.00571,0.00728*
1,1,0.01942,0.00571,0.00728*
1,1,0.01942,0.00571,-0.00728*
%
%ADD57ROUNDEDRECTD57*%
G04:AMPARAMS|DCode=58|XSize=21.72mil|YSize=51.24mil|CornerRadius=3.95mil|HoleSize=0mil|Usage=FLASHONLY|Rotation=0.000|XOffset=0mil|YOffset=0mil|HoleType=Round|Shape=RoundedRectangle|*
%AMROUNDEDRECTD58*
21,1,0.02172,0.04335,0,0,0.0*
21,1,0.01382,0.05124,0,0,0.0*
1,1,0.00790,0.00691,-0.02167*
1,1,0.00790,-0.00691,-0.02167*
1,1,0.00790,-0.00691,0.02167*
1,1,0.00790,0.00691,0.02167*
%
%ADD58ROUNDEDRECTD58*%
%ADD59R,0.04337X0.01700*%
%ADD60R,0.03943X0.02959*%
%ADD61R,0.04337X0.01384*%
%ADD62R,0.03162X0.06115*%
%ADD63R,0.03556X0.03359*%
%ADD64R,0.05524X0.08674*%
G04:AMPARAMS|DCode=65|XSize=54.26mil|YSize=82.8mil|CornerRadius=15.57mil|HoleSize=0mil|Usage=FLASHONLY|Rotation=90.000|XOffset=0mil|YOffset=0mil|HoleType=Round|Shape=RoundedRectangle|*
%AMROUNDEDRECTD65*
21,1,0.05426,0.05167,0,0,90.0*
21,1,0.02313,0.08280,0,0,90.0*
1,1,0.03113,0.02584,0.01157*
1,1,0.03113,0.02584,-0.01157*
1,1,0.03113,-0.02584,-0.01157*
1,1,0.03113,-0.02584,0.01157*
%
%ADD65ROUNDEDRECTD65*%
G04:AMPARAMS|DCode=66|XSize=78.87mil|YSize=82.8mil|CornerRadius=21.72mil|HoleSize=0mil|Usage=FLASHONLY|Rotation=270.000|XOffset=0mil|YOffset=0mil|HoleType=Round|Shape=RoundedRectangle|*
%AMROUNDEDRECTD66*
21,1,0.07887,0.03937,0,0,270.0*
21,1,0.03543,0.08280,0,0,270.0*
1,1,0.04343,-0.01968,-0.01772*
1,1,0.04343,-0.01968,0.01772*
1,1,0.04343,0.01968,0.01772*
1,1,0.04343,0.01968,-0.01772*
%
%ADD66ROUNDEDRECTD66*%
%ADD67C,0.09843*%
%ADD68C,0.06312*%
%ADD69C,0.06706*%
%ADD70C,0.25210*%
%ADD71R,0.06706X0.06706*%
%ADD72C,0.04000*%
%ADD73C,0.17335*%
G04:AMPARAMS|DCode=74|XSize=82.8mil|YSize=67.06mil|CornerRadius=18.76mil|HoleSize=0mil|Usage=FLASHONLY|Rotation=0.000|XOffset=0mil|YOffset=0mil|HoleType=Round|Shape=RoundedRectangle|*
%AMROUNDEDRECTD74*
21,1,0.08280,0.02953,0,0,0.0*
21,1,0.04528,0.06706,0,0,0.0*
1,1,0.03753,0.02264,-0.01476*
1,1,0.03753,-0.02264,-0.01476*
1,1,0.03753,-0.02264,0.01476*
1,1,0.03753,0.02264,0.01476*
%
%ADD74ROUNDEDRECTD74*%
%ADD75O,0.05524X0.04343*%
%ADD76R,0.06706X0.06706*%
%ADD77C,0.04737*%
D12*
X330724Y28740D02*
G03*
X330724Y28740I-2500J0D01*
G01*
D42*
X151910Y110000D02*
G03*
X151910Y110000I-1100J0D01*
G01*
X152010Y104200D02*
G03*
X152010Y104200I-1100J0D01*
G01*
X151790D02*
G03*
X151790Y104200I-1100J0D01*
G01*
X161900Y85540D02*
G03*
X161900Y85540I-1100J0D01*
G01*
Y85320D02*
G03*
X161900Y85320I-1100J0D01*
G01*
X51900Y174390D02*
G03*
X51900Y174390I-1100J0D01*
G01*
Y174610D02*
G03*
X51900Y174610I-1100J0D01*
G01*
X35100Y158690D02*
G03*
X35100Y158690I-1100J0D01*
G01*
Y158910D02*
G03*
X35100Y158910I-1100J0D01*
G01*
D43*
X123339Y182894D02*
D03*
Y179114D02*
D03*
X117608Y182894D02*
D03*
Y179114D02*
D03*
X30200Y97090D02*
D03*
Y93310D02*
D03*
X380078Y170000D02*
D03*
Y166220D02*
D03*
X370000Y170000D02*
D03*
Y166220D02*
D03*
X360000Y170000D02*
D03*
Y166220D02*
D03*
X350000Y170000D02*
D03*
Y166220D02*
D03*
X74900Y69016D02*
D03*
Y72795D02*
D03*
X245700Y90290D02*
D03*
X54528Y148189D02*
D03*
X50492Y148209D02*
D03*
Y151988D02*
D03*
X54528Y151969D02*
D03*
X52087Y129839D02*
D03*
Y133619D02*
D03*
X45600Y120090D02*
D03*
Y116310D02*
D03*
X92618Y172323D02*
D03*
Y176102D02*
D03*
X80709Y172205D02*
D03*
Y175984D02*
D03*
X68898Y172224D02*
D03*
Y176004D02*
D03*
X56496Y172205D02*
D03*
Y175984D02*
D03*
X260630Y32106D02*
D03*
Y28327D02*
D03*
Y35709D02*
D03*
Y39488D02*
D03*
X245700Y86510D02*
D03*
X44488Y172126D02*
D03*
Y175906D02*
D03*
X74213Y154055D02*
D03*
Y150276D02*
D03*
D44*
X45592Y137161D02*
D03*
X41851D02*
D03*
X38111D02*
D03*
X38111Y126137D02*
D03*
X45592D02*
D03*
X252059Y86488D02*
D03*
X255799D02*
D03*
X259539D02*
D03*
X259539Y97512D02*
D03*
X252059D02*
D03*
D45*
X60236Y126181D02*
D03*
X62205D02*
D03*
X64173D02*
D03*
X66142D02*
D03*
X68110D02*
D03*
X70079D02*
D03*
X72047D02*
D03*
X74016D02*
D03*
X75984D02*
D03*
X77953D02*
D03*
X79921D02*
D03*
X81890D02*
D03*
X83858D02*
D03*
X85827D02*
D03*
X87795D02*
D03*
X89764D02*
D03*
Y80905D02*
D03*
X87795D02*
D03*
X85827D02*
D03*
X83858D02*
D03*
X81890D02*
D03*
X79921D02*
D03*
X77953D02*
D03*
X75984D02*
D03*
X74016D02*
D03*
X72047D02*
D03*
X70079D02*
D03*
X68110D02*
D03*
X66142D02*
D03*
X64173D02*
D03*
X62205D02*
D03*
X60236D02*
D03*
D46*
X97638Y118307D02*
D03*
Y116339D02*
D03*
Y114370D02*
D03*
Y112402D02*
D03*
Y110433D02*
D03*
Y108465D02*
D03*
Y106496D02*
D03*
Y104528D02*
D03*
Y102559D02*
D03*
Y100591D02*
D03*
Y98622D02*
D03*
Y96653D02*
D03*
Y94685D02*
D03*
Y92716D02*
D03*
Y90748D02*
D03*
Y88779D02*
D03*
X52362D02*
D03*
Y90748D02*
D03*
Y92716D02*
D03*
Y94685D02*
D03*
Y96653D02*
D03*
Y98622D02*
D03*
Y100591D02*
D03*
Y102559D02*
D03*
Y104528D02*
D03*
Y106496D02*
D03*
Y108465D02*
D03*
Y110433D02*
D03*
Y112402D02*
D03*
Y114370D02*
D03*
Y116339D02*
D03*
Y118307D02*
D03*
D47*
X149570Y110000D02*
D03*
X152030D02*
D03*
X152130Y104200D02*
D03*
X149470D02*
D03*
X160800Y86760D02*
D03*
Y84100D02*
D03*
X50800Y173170D02*
D03*
Y175830D02*
D03*
X34000Y157470D02*
D03*
Y160130D02*
D03*
D48*
X265483Y86488D02*
D03*
X269262D02*
D03*
X38583Y109252D02*
D03*
X121604Y187805D02*
D03*
X40472Y81496D02*
D03*
X108642Y148130D02*
D03*
X119311D02*
D03*
X43741Y143810D02*
D03*
X72854Y159843D02*
D03*
X69075D02*
D03*
X39962Y143810D02*
D03*
X42362Y109252D02*
D03*
X115532Y148130D02*
D03*
X112421D02*
D03*
X44252Y81496D02*
D03*
X117825Y187805D02*
D03*
D49*
X265791Y93707D02*
D03*
Y89849D02*
D03*
X207024Y153325D02*
D03*
Y157183D02*
D03*
X268940Y159691D02*
D03*
X23031Y154193D02*
D03*
X60276Y136929D02*
D03*
X45900Y99529D02*
D03*
X66142Y69035D02*
D03*
X247185Y156982D02*
D03*
X252362Y20039D02*
D03*
X105020Y92264D02*
D03*
X264646Y41299D02*
D03*
X243484Y156982D02*
D03*
X105800Y113029D02*
D03*
X33100Y131729D02*
D03*
X268940Y163549D02*
D03*
X23031Y150335D02*
D03*
X66142Y72894D02*
D03*
X252362Y16181D02*
D03*
X105800Y109171D02*
D03*
X33100Y127871D02*
D03*
X243484Y153123D02*
D03*
X264646Y37441D02*
D03*
X105020Y96122D02*
D03*
X247185Y153123D02*
D03*
X45900Y95671D02*
D03*
X60276Y133071D02*
D03*
D50*
X172101Y41921D02*
D03*
X159699D02*
D03*
Y53929D02*
D03*
X172101D02*
D03*
D51*
X157731Y47925D02*
D03*
X174069D02*
D03*
D52*
X99488Y12205D02*
D03*
X109488D02*
D03*
X129488D02*
D03*
Y46063D02*
D03*
X109488D02*
D03*
X99488D02*
D03*
X89488D02*
D03*
X59488Y12205D02*
D03*
X69488D02*
D03*
X79488D02*
D03*
X89488D02*
D03*
X119488D02*
D03*
Y46063D02*
D03*
X79488D02*
D03*
X69488D02*
D03*
X59488D02*
D03*
D53*
X30220Y105875D02*
D03*
X32779D02*
D03*
Y102725D02*
D03*
Y104300D02*
D03*
X30220Y102725D02*
D03*
Y104300D02*
D03*
D54*
X21555Y106299D02*
D03*
Y98622D02*
D03*
Y101181D02*
D03*
Y108858D02*
D03*
Y103740D02*
D03*
D55*
X33366Y138622D02*
D03*
Y145827D02*
D03*
X25295Y142224D02*
D03*
D56*
X44488Y189075D02*
D03*
X92618Y189075D02*
D03*
X80709Y189075D02*
D03*
X68898D02*
D03*
X56496Y189075D02*
D03*
Y181988D02*
D03*
X68898Y181988D02*
D03*
X80709D02*
D03*
X92618Y181988D02*
D03*
X44488Y181988D02*
D03*
D57*
X29567Y154429D02*
D03*
X83228Y133169D02*
D03*
X83898Y72913D02*
D03*
X39035Y91535D02*
D03*
X267657Y25295D02*
D03*
X233504Y37402D02*
D03*
X114921Y174932D02*
D03*
X304370Y16929D02*
D03*
X94129Y133700D02*
D03*
X83229Y137200D02*
D03*
X39035Y95669D02*
D03*
X55847Y143602D02*
D03*
X277697Y41240D02*
D03*
X40433Y86831D02*
D03*
X83307Y141152D02*
D03*
X79370Y133169D02*
D03*
X87756Y72913D02*
D03*
X271516Y25295D02*
D03*
X237362Y37402D02*
D03*
X111063Y174932D02*
D03*
X79371Y137200D02*
D03*
X59705Y143602D02*
D03*
X281555Y41240D02*
D03*
X87165Y141152D02*
D03*
X44291Y86831D02*
D03*
X35177Y95669D02*
D03*
X90271Y133700D02*
D03*
X308228Y16929D02*
D03*
X118455Y174932D02*
D03*
X122313D02*
D03*
X35177Y91535D02*
D03*
X33425Y154429D02*
D03*
D58*
X115266Y167983D02*
D03*
X117825Y156369D02*
D03*
X120384D02*
D03*
X112707Y167983D02*
D03*
X115266Y156369D02*
D03*
X112707D02*
D03*
X117825Y167983D02*
D03*
X120384D02*
D03*
D59*
X281338Y30875D02*
D03*
X269450D02*
D03*
X281338Y36781D02*
D03*
X269450Y32844D02*
D03*
Y34812D02*
D03*
Y36781D02*
D03*
X281338Y32844D02*
D03*
Y34812D02*
D03*
D60*
X68996Y151969D02*
D03*
X59547Y148228D02*
D03*
X68996D02*
D03*
Y155709D02*
D03*
X59547D02*
D03*
Y151969D02*
D03*
D61*
X232677Y123807D02*
D03*
Y125776D02*
D03*
X217323D02*
D03*
Y123807D02*
D03*
Y137587D02*
D03*
Y127744D02*
D03*
Y129713D02*
D03*
Y131681D02*
D03*
Y133650D02*
D03*
Y135618D02*
D03*
Y139555D02*
D03*
Y141524D02*
D03*
Y143492D02*
D03*
Y145461D02*
D03*
Y147429D02*
D03*
Y149398D02*
D03*
Y151366D02*
D03*
X232677Y141524D02*
D03*
Y139555D02*
D03*
Y135618D02*
D03*
Y143492D02*
D03*
Y149398D02*
D03*
Y147429D02*
D03*
Y145461D02*
D03*
Y137587D02*
D03*
Y127744D02*
D03*
Y133650D02*
D03*
Y131681D02*
D03*
Y129713D02*
D03*
Y151366D02*
D03*
D62*
X267618Y20000D02*
D03*
X271555D02*
D03*
X275493D02*
D03*
X279430D02*
D03*
D63*
X35138Y81496D02*
D03*
X38700Y118257D02*
D03*
Y112943D02*
D03*
X35138Y86811D02*
D03*
D64*
X262500Y5531D02*
D03*
X284548D02*
D03*
D65*
X11024Y91194D02*
D03*
Y116286D02*
D03*
D66*
Y99213D02*
D03*
Y108268D02*
D03*
D67*
X10236Y39370D02*
D03*
X372500Y35039D02*
D03*
X12500Y167500D02*
D03*
D68*
X90551Y60583D02*
D03*
D69*
X350000Y150000D02*
D03*
X360000D02*
D03*
X370000D02*
D03*
X350000Y140000D02*
D03*
X360000D02*
D03*
X370000D02*
D03*
X380000D02*
D03*
X350000Y160000D02*
D03*
X360000D02*
D03*
X370000D02*
D03*
X380000D02*
D03*
X290000Y110000D02*
D03*
X280000Y100000D02*
D03*
X290000D02*
D03*
X170000D02*
D03*
X160000D02*
D03*
X170000Y110000D02*
D03*
X380000Y130000D02*
D03*
Y90000D02*
D03*
Y50000D02*
D03*
Y70000D02*
D03*
Y110000D02*
D03*
Y150000D02*
D03*
X301260Y7480D02*
D03*
X230000Y20000D02*
D03*
Y30000D02*
D03*
X11417Y149370D02*
D03*
X310000Y60000D02*
D03*
Y80000D02*
D03*
Y160000D02*
D03*
X240000Y20000D02*
D03*
Y30000D02*
D03*
X220000D02*
D03*
Y20000D02*
D03*
X200000Y30000D02*
D03*
X210000D02*
D03*
X200000Y20000D02*
D03*
X210000D02*
D03*
X190000Y30000D02*
D03*
X321260Y7480D02*
D03*
X331260D02*
D03*
X311260D02*
D03*
X330000Y160000D02*
D03*
X340000D02*
D03*
X320000D02*
D03*
X330000Y150000D02*
D03*
X340000D02*
D03*
X310000D02*
D03*
X320000D02*
D03*
X310000Y120000D02*
D03*
Y110000D02*
D03*
X320000Y120000D02*
D03*
Y110000D02*
D03*
X330000Y120000D02*
D03*
Y110000D02*
D03*
X340000Y120000D02*
D03*
Y110000D02*
D03*
X350000Y120000D02*
D03*
Y110000D02*
D03*
X360000Y120000D02*
D03*
Y110000D02*
D03*
X370000Y120000D02*
D03*
Y110000D02*
D03*
X380000Y120000D02*
D03*
X310000Y70000D02*
D03*
X320000Y80000D02*
D03*
Y70000D02*
D03*
X330000Y80000D02*
D03*
Y70000D02*
D03*
X340000Y80000D02*
D03*
Y70000D02*
D03*
X350000Y80000D02*
D03*
Y70000D02*
D03*
X360000Y80000D02*
D03*
Y70000D02*
D03*
X370000Y80000D02*
D03*
Y70000D02*
D03*
X380000Y80000D02*
D03*
X310000Y50000D02*
D03*
X320000Y60000D02*
D03*
Y50000D02*
D03*
X330000Y60000D02*
D03*
Y50000D02*
D03*
X340000Y60000D02*
D03*
Y50000D02*
D03*
X350000Y60000D02*
D03*
Y50000D02*
D03*
X360000Y60000D02*
D03*
Y50000D02*
D03*
X370000Y60000D02*
D03*
Y50000D02*
D03*
X380000Y60000D02*
D03*
X310000Y100000D02*
D03*
Y90000D02*
D03*
X320000Y100000D02*
D03*
Y90000D02*
D03*
X330000Y100000D02*
D03*
Y90000D02*
D03*
X340000Y100000D02*
D03*
Y90000D02*
D03*
X350000Y100000D02*
D03*
Y90000D02*
D03*
X360000Y100000D02*
D03*
Y90000D02*
D03*
X370000Y100000D02*
D03*
Y90000D02*
D03*
X380000Y100000D02*
D03*
X310000Y140000D02*
D03*
Y130000D02*
D03*
X320000Y140000D02*
D03*
Y130000D02*
D03*
X330000Y140000D02*
D03*
Y130000D02*
D03*
X340000Y140000D02*
D03*
Y130000D02*
D03*
X350000D02*
D03*
X360000D02*
D03*
X370000D02*
D03*
X170000Y170000D02*
D03*
X160000Y160000D02*
D03*
X170000D02*
D03*
X160000Y150000D02*
D03*
X170000D02*
D03*
X160000Y140000D02*
D03*
X170000D02*
D03*
X160000Y130000D02*
D03*
X170000D02*
D03*
X160000Y120000D02*
D03*
X170000D02*
D03*
X160000Y110000D02*
D03*
X280000D02*
D03*
X290000Y120000D02*
D03*
X280000D02*
D03*
X290000Y130000D02*
D03*
X280000D02*
D03*
X290000Y140000D02*
D03*
X280000D02*
D03*
X290000Y150000D02*
D03*
X280000D02*
D03*
X290000Y160000D02*
D03*
X280000D02*
D03*
X290000Y170000D02*
D03*
D70*
X15748Y188976D02*
D03*
X370079Y15748D02*
D03*
Y188976D02*
D03*
X15748Y15748D02*
D03*
D71*
X11417Y139370D02*
D03*
X160000Y170000D02*
D03*
X280000D02*
D03*
D72*
X328224Y28740D02*
D03*
D73*
X253913Y126433D02*
D03*
X214913Y193933D02*
D03*
D74*
X11024Y87303D02*
D03*
Y120177D02*
D03*
D75*
X22835Y94980D02*
D03*
Y112500D02*
D03*
D76*
X190000Y20000D02*
D03*
X341260Y7480D02*
D03*
D77*
X269724Y70799D02*
D03*
X249724D02*
D03*
X214500Y72500D02*
D03*
Y67500D02*
D03*
X219724Y70799D02*
D03*
X199724D02*
D03*
X179700D02*
D03*
X169724D02*
D03*
X129724D02*
D03*
X289800Y64500D02*
D03*
X299700Y48150D02*
D03*
X279800Y48000D02*
D03*
X144400Y53400D02*
D03*
X289800Y69500D02*
D03*
Y74500D02*
D03*
X229900Y42000D02*
D03*
X229699Y47925D02*
D03*
X180000Y42500D02*
D03*
Y48000D02*
D03*
Y54000D02*
D03*
X144400Y42400D02*
D03*
X149900Y53400D02*
D03*
Y42400D02*
D03*
M02*
