%TF.GenerationSoftware,Altium Limited,Altium Designer,20.1.11 (218)*%
G04 Layer_Color=16711935*
%FSLAX26Y26*%
%MOIN*%
%TF.SameCoordinates,F1652399-7491-40A6-9504-01A14B245E9D*%
%TF.FilePolarity,Positive*%
%TF.FileFunction,Other,AssemBOT*%
%TF.Part,Single*%
G01*
G75*
%TA.AperFunction,NonConductor*%
%ADD79C,0.007874*%
%ADD80C,0.003937*%
%ADD123C,0.001968*%
G36*
X649066Y760679D02*
X649467Y760097D01*
X649940Y759514D01*
X650377Y759005D01*
X650814Y758568D01*
X651141Y758204D01*
X651287Y758095D01*
X651396Y757986D01*
X651432Y757949D01*
X651469Y757913D01*
X652233Y757294D01*
X652998Y756712D01*
X653726Y756202D01*
X654454Y755802D01*
X655072Y755438D01*
X655327Y755292D01*
X655546Y755183D01*
X655728Y755074D01*
X655873Y755037D01*
X655946Y754964D01*
X655982D01*
Y751980D01*
X655436Y752198D01*
X654890Y752453D01*
X654344Y752708D01*
X653835Y752962D01*
X653398Y753181D01*
X653034Y753363D01*
X652816Y753508D01*
X652779Y753545D01*
X652743D01*
X652088Y753945D01*
X651505Y754346D01*
X650996Y754710D01*
X650595Y755037D01*
X650231Y755292D01*
X650013Y755510D01*
X649831Y755656D01*
X649794Y755692D01*
Y736000D01*
X646700D01*
Y761298D01*
X648702D01*
X649066Y760679D01*
D02*
G37*
G36*
X680698Y736000D02*
X677349D01*
Y744736D01*
X673236Y748704D01*
X664282Y736000D01*
X659877D01*
X670906Y750960D01*
X660350Y761189D01*
X664900D01*
X677349Y748667D01*
Y761189D01*
X680698D01*
Y736000D01*
D02*
G37*
G36*
X710000D02*
X706797D01*
Y757440D01*
X699517Y736000D01*
X696532D01*
X689179Y757076D01*
Y736000D01*
X685976D01*
Y761189D01*
X690453D01*
X696496Y743644D01*
X696823Y742698D01*
X697078Y741897D01*
X697333Y741205D01*
X697515Y740623D01*
X697660Y740186D01*
X697770Y739858D01*
X697806Y739676D01*
X697842Y739604D01*
X697988Y740113D01*
X698170Y740696D01*
X698388Y741314D01*
X698570Y741933D01*
X698752Y742479D01*
X698898Y742916D01*
X698971Y743098D01*
X699007Y743207D01*
X699044Y743280D01*
Y743316D01*
X705013Y761189D01*
X710000D01*
Y736000D01*
D02*
G37*
G36*
X437999Y661872D02*
Y661144D01*
X437963Y660452D01*
X437926Y659797D01*
X437854Y659178D01*
X437781Y658632D01*
X437708Y658123D01*
X437599Y657650D01*
X437526Y657213D01*
X437453Y656812D01*
X437344Y656485D01*
X437271Y656194D01*
X437198Y655975D01*
X437126Y655793D01*
X437089Y655648D01*
X437053Y655575D01*
Y655538D01*
X436652Y654738D01*
X436143Y654010D01*
X435633Y653427D01*
X435087Y652918D01*
X434614Y652517D01*
X434214Y652226D01*
X434068Y652153D01*
X433959Y652080D01*
X433886Y652008D01*
X433850D01*
X432940Y651607D01*
X431993Y651316D01*
X431010Y651098D01*
X430100Y650952D01*
X429700Y650916D01*
X429300Y650879D01*
X428936Y650843D01*
X428644D01*
X428390Y650806D01*
X428062D01*
X426752Y650879D01*
X426169Y650952D01*
X425623Y651025D01*
X425077Y651134D01*
X424604Y651243D01*
X424167Y651352D01*
X423767Y651498D01*
X423403Y651644D01*
X423112Y651753D01*
X422820Y651862D01*
X422602Y651971D01*
X422420Y652080D01*
X422311Y652117D01*
X422238Y652190D01*
X422202D01*
X421401Y652736D01*
X420746Y653354D01*
X420236Y653937D01*
X419799Y654519D01*
X419472Y655029D01*
X419253Y655429D01*
X419180Y655575D01*
X419108Y655684D01*
X419071Y655757D01*
Y655793D01*
X418926Y656230D01*
X418780Y656703D01*
X418562Y657686D01*
X418416Y658705D01*
X418307Y659688D01*
X418270Y660125D01*
X418234Y660562D01*
Y660926D01*
X418198Y661253D01*
Y661508D01*
Y661690D01*
Y661836D01*
Y661872D01*
Y676432D01*
X421546D01*
Y661872D01*
Y661035D01*
X421619Y660234D01*
X421692Y659542D01*
X421801Y658887D01*
X421910Y658305D01*
X422056Y657759D01*
X422165Y657286D01*
X422311Y656885D01*
X422456Y656558D01*
X422602Y656230D01*
X422748Y656012D01*
X422857Y655793D01*
X422966Y655648D01*
X423039Y655538D01*
X423075Y655502D01*
X423112Y655466D01*
X423439Y655174D01*
X423803Y654920D01*
X424604Y654519D01*
X425441Y654228D01*
X426315Y654046D01*
X427116Y653900D01*
X427443Y653864D01*
X427771D01*
X427989Y653828D01*
X428353D01*
X429118Y653864D01*
X429809Y653973D01*
X430464Y654082D01*
X430974Y654264D01*
X431411Y654410D01*
X431738Y654519D01*
X431920Y654628D01*
X431993Y654665D01*
X432503Y654992D01*
X432940Y655393D01*
X433304Y655793D01*
X433558Y656157D01*
X433777Y656521D01*
X433959Y656776D01*
X434032Y656958D01*
X434068Y657031D01*
X434177Y657358D01*
X434250Y657686D01*
X434396Y658450D01*
X434505Y659251D01*
X434578Y660052D01*
X434614Y660744D01*
Y661071D01*
X434650Y661326D01*
Y661544D01*
Y661726D01*
Y661836D01*
Y661872D01*
Y676432D01*
X437999D01*
Y661872D01*
D02*
G37*
G36*
X414958Y660125D02*
Y657286D01*
X404002D01*
Y651243D01*
X400908D01*
Y657286D01*
X397486D01*
Y660125D01*
X400908D01*
Y676432D01*
X403419D01*
X414958Y660125D01*
D02*
G37*
G36*
X481874Y851282D02*
X481255Y850918D01*
X480672Y850518D01*
X480090Y850045D01*
X479580Y849608D01*
X479144Y849171D01*
X478780Y848843D01*
X478670Y848698D01*
X478561Y848589D01*
X478525Y848552D01*
X478488Y848516D01*
X477870Y847751D01*
X477287Y846987D01*
X476778Y846259D01*
X476377Y845531D01*
X476013Y844912D01*
X475868Y844657D01*
X475758Y844439D01*
X475649Y844257D01*
X475613Y844111D01*
X475540Y844039D01*
Y844002D01*
X472555D01*
X472774Y844548D01*
X473028Y845094D01*
X473283Y845640D01*
X473538Y846150D01*
X473756Y846587D01*
X473938Y846951D01*
X474084Y847169D01*
X474120Y847205D01*
Y847242D01*
X474521Y847897D01*
X474921Y848479D01*
X475285Y848989D01*
X475613Y849389D01*
X475868Y849753D01*
X476086Y849972D01*
X476232Y850154D01*
X476268Y850190D01*
X456576D01*
Y853284D01*
X481874D01*
Y851282D01*
D02*
G37*
G36*
Y831699D02*
X481255Y831335D01*
X480672Y830935D01*
X480090Y830461D01*
X479580Y830025D01*
X479144Y829588D01*
X478780Y829260D01*
X478670Y829115D01*
X478561Y829005D01*
X478525Y828969D01*
X478488Y828933D01*
X477870Y828168D01*
X477287Y827404D01*
X476778Y826676D01*
X476377Y825948D01*
X476013Y825329D01*
X475868Y825074D01*
X475758Y824856D01*
X475649Y824674D01*
X475613Y824528D01*
X475540Y824455D01*
Y824419D01*
X472555D01*
X472774Y824965D01*
X473028Y825511D01*
X473283Y826057D01*
X473538Y826567D01*
X473756Y827003D01*
X473938Y827367D01*
X474084Y827586D01*
X474120Y827622D01*
Y827659D01*
X474521Y828314D01*
X474921Y828896D01*
X475285Y829406D01*
X475613Y829806D01*
X475868Y830170D01*
X476086Y830389D01*
X476232Y830571D01*
X476268Y830607D01*
X456576D01*
Y833701D01*
X481874D01*
Y831699D01*
D02*
G37*
G36*
X465384Y815865D02*
X464802Y815719D01*
X464256Y815537D01*
X463746Y815355D01*
X463273Y815173D01*
X462836Y814955D01*
X462472Y814737D01*
X462108Y814482D01*
X461781Y814263D01*
X461490Y814081D01*
X461271Y813863D01*
X461053Y813681D01*
X460871Y813535D01*
X460762Y813390D01*
X460652Y813281D01*
X460616Y813244D01*
X460580Y813208D01*
X460288Y812844D01*
X460070Y812443D01*
X459670Y811643D01*
X459378Y810878D01*
X459196Y810114D01*
X459051Y809459D01*
X459014Y809204D01*
Y808949D01*
X458978Y808731D01*
Y808476D01*
X459014Y807639D01*
X459160Y806838D01*
X459342Y806110D01*
X459560Y805455D01*
X459779Y804945D01*
X459888Y804727D01*
X459961Y804545D01*
X460034Y804399D01*
X460106Y804290D01*
X460143Y804217D01*
Y804181D01*
X460652Y803489D01*
X461198Y802907D01*
X461817Y802397D01*
X462400Y801997D01*
X462909Y801669D01*
X463346Y801451D01*
X463528Y801378D01*
X463637Y801305D01*
X463710Y801269D01*
X463746D01*
X464693Y800977D01*
X465639Y800759D01*
X466586Y800577D01*
X467459Y800468D01*
X467860Y800431D01*
X468224Y800395D01*
X468551D01*
X468806Y800359D01*
X469024D01*
X469206D01*
X469316D01*
X469352D01*
X470298Y800395D01*
X471172Y800468D01*
X471973Y800613D01*
X472701Y800759D01*
X473320Y800868D01*
X473574Y800941D01*
X473793Y801014D01*
X473975Y801050D01*
X474084Y801087D01*
X474157Y801123D01*
X474193D01*
X475030Y801487D01*
X475795Y801887D01*
X476414Y802324D01*
X476960Y802797D01*
X477396Y803198D01*
X477688Y803525D01*
X477870Y803780D01*
X477942Y803817D01*
Y803853D01*
X478416Y804617D01*
X478780Y805455D01*
X479034Y806255D01*
X479180Y807020D01*
X479289Y807711D01*
X479326Y808003D01*
Y808257D01*
X479362Y808439D01*
Y808731D01*
X479326Y809641D01*
X479180Y810478D01*
X478962Y811169D01*
X478743Y811788D01*
X478488Y812261D01*
X478306Y812625D01*
X478161Y812844D01*
X478088Y812917D01*
X477542Y813499D01*
X476923Y814045D01*
X476268Y814482D01*
X475613Y814846D01*
X475030Y815137D01*
X474739Y815246D01*
X474521Y815319D01*
X474339Y815392D01*
X474193Y815465D01*
X474120Y815501D01*
X474084D01*
X474848Y818777D01*
X475504Y818559D01*
X476086Y818340D01*
X476632Y818049D01*
X477178Y817794D01*
X477651Y817503D01*
X478088Y817175D01*
X478525Y816884D01*
X478889Y816593D01*
X479180Y816302D01*
X479471Y816047D01*
X479726Y815792D01*
X479908Y815610D01*
X480090Y815428D01*
X480199Y815283D01*
X480236Y815210D01*
X480272Y815173D01*
X480600Y814664D01*
X480927Y814154D01*
X481182Y813645D01*
X481400Y813099D01*
X481728Y812007D01*
X481946Y811024D01*
X482056Y810551D01*
X482092Y810150D01*
X482128Y809750D01*
X482165Y809422D01*
X482201Y809167D01*
Y808803D01*
X482128Y807602D01*
X481946Y806437D01*
X481728Y805418D01*
X481582Y804945D01*
X481437Y804508D01*
X481291Y804108D01*
X481146Y803744D01*
X481036Y803453D01*
X480927Y803161D01*
X480818Y802979D01*
X480745Y802834D01*
X480709Y802725D01*
X480672Y802688D01*
X480054Y801705D01*
X479326Y800868D01*
X478598Y800140D01*
X477870Y799521D01*
X477214Y799048D01*
X476923Y798866D01*
X476668Y798721D01*
X476486Y798575D01*
X476341Y798502D01*
X476232Y798466D01*
X476195Y798429D01*
X475067Y797920D01*
X473902Y797556D01*
X472737Y797301D01*
X471682Y797119D01*
X471208Y797046D01*
X470735Y797010D01*
X470371Y796973D01*
X470007D01*
X469752Y796937D01*
X469534D01*
X469388D01*
X469352D01*
X468042Y797010D01*
X466768Y797155D01*
X465639Y797337D01*
X465093Y797483D01*
X464620Y797592D01*
X464183Y797701D01*
X463783Y797847D01*
X463419Y797956D01*
X463128Y798029D01*
X462909Y798138D01*
X462727Y798175D01*
X462618Y798247D01*
X462582D01*
X461490Y798793D01*
X460507Y799412D01*
X459670Y800067D01*
X459342Y800395D01*
X459014Y800686D01*
X458723Y800977D01*
X458468Y801269D01*
X458250Y801523D01*
X458104Y801742D01*
X457959Y801887D01*
X457850Y802033D01*
X457813Y802106D01*
X457777Y802142D01*
X457486Y802652D01*
X457231Y803161D01*
X456830Y804253D01*
X456539Y805345D01*
X456357Y806401D01*
X456284Y806911D01*
X456212Y807347D01*
X456175Y807748D01*
Y808075D01*
X456139Y808367D01*
Y808767D01*
X456175Y809495D01*
X456248Y810187D01*
X456321Y810842D01*
X456466Y811461D01*
X456648Y812043D01*
X456830Y812589D01*
X457012Y813099D01*
X457231Y813572D01*
X457413Y813972D01*
X457595Y814373D01*
X457777Y814664D01*
X457959Y814955D01*
X458104Y815137D01*
X458177Y815319D01*
X458250Y815392D01*
X458286Y815428D01*
X458723Y815938D01*
X459160Y816375D01*
X459670Y816775D01*
X460179Y817175D01*
X461198Y817831D01*
X462218Y818340D01*
X462691Y818559D01*
X463128Y818741D01*
X463528Y818886D01*
X463856Y818995D01*
X464147Y819105D01*
X464365Y819177D01*
X464511Y819214D01*
X464547D01*
X465384Y815865D01*
D02*
G37*
G36*
X432335Y856053D02*
X432917D01*
X433500Y856016D01*
X434009Y855943D01*
X434519Y855907D01*
X434956Y855871D01*
X435356Y855798D01*
X435720Y855761D01*
X436048Y855689D01*
X436302Y855652D01*
X436521Y855616D01*
X436703Y855579D01*
X436812Y855543D01*
X436885Y855507D01*
X436921D01*
X437722Y855288D01*
X438450Y855033D01*
X439069Y854742D01*
X439615Y854524D01*
X440088Y854269D01*
X440416Y854123D01*
X440598Y853978D01*
X440670Y853941D01*
X441216Y853541D01*
X441690Y853141D01*
X442090Y852704D01*
X442454Y852303D01*
X442709Y851939D01*
X442891Y851648D01*
X443000Y851466D01*
X443036Y851430D01*
Y851393D01*
X443328Y850811D01*
X443510Y850192D01*
X443655Y849610D01*
X443764Y849064D01*
X443837Y848591D01*
X443874Y848190D01*
Y847863D01*
X443801Y846880D01*
X443655Y845970D01*
X443400Y845205D01*
X443146Y844550D01*
X442854Y844004D01*
X442745Y843786D01*
X442600Y843604D01*
X442527Y843458D01*
X442454Y843349D01*
X442381Y843313D01*
Y843276D01*
X441799Y842621D01*
X441107Y842075D01*
X440416Y841602D01*
X439760Y841238D01*
X439142Y840947D01*
X438887Y840801D01*
X438632Y840728D01*
X438450Y840655D01*
X438304Y840583D01*
X438232Y840546D01*
X438195D01*
X437649Y840401D01*
X437103Y840255D01*
X435902Y840037D01*
X434701Y839855D01*
X433572Y839745D01*
X433026Y839709D01*
X432553Y839673D01*
X432116D01*
X431716Y839636D01*
X431425D01*
X431170D01*
X431024D01*
X430988D01*
X429714Y839673D01*
X428513Y839745D01*
X427421Y839855D01*
X426402Y840037D01*
X425455Y840219D01*
X424618Y840437D01*
X423854Y840655D01*
X423198Y840874D01*
X422616Y841092D01*
X422106Y841347D01*
X421670Y841529D01*
X421342Y841711D01*
X421051Y841893D01*
X420869Y842002D01*
X420760Y842075D01*
X420723Y842111D01*
X420286Y842512D01*
X419886Y842949D01*
X419522Y843422D01*
X419231Y843895D01*
X418976Y844368D01*
X418758Y844841D01*
X418612Y845315D01*
X418466Y845751D01*
X418357Y846188D01*
X418284Y846589D01*
X418212Y846953D01*
X418175Y847244D01*
X418139Y847499D01*
Y847863D01*
X418212Y848845D01*
X418357Y849755D01*
X418612Y850520D01*
X418867Y851175D01*
X419122Y851721D01*
X419267Y851903D01*
X419376Y852085D01*
X419449Y852231D01*
X419522Y852340D01*
X419595Y852376D01*
Y852413D01*
X420214Y853068D01*
X420869Y853614D01*
X421597Y854087D01*
X422252Y854451D01*
X422871Y854742D01*
X423126Y854888D01*
X423380Y854961D01*
X423562Y855033D01*
X423708Y855106D01*
X423781Y855143D01*
X423817D01*
X424363Y855325D01*
X424909Y855470D01*
X426074Y855689D01*
X427275Y855871D01*
X428440Y855980D01*
X428950Y856016D01*
X429423Y856053D01*
X429860D01*
X430260Y856089D01*
X430551D01*
X430806D01*
X430952D01*
X430988D01*
X431680D01*
X432335Y856053D01*
D02*
G37*
G36*
X443874Y829699D02*
X443255Y829335D01*
X442672Y828935D01*
X442090Y828461D01*
X441580Y828025D01*
X441144Y827588D01*
X440780Y827260D01*
X440670Y827115D01*
X440561Y827005D01*
X440525Y826969D01*
X440488Y826933D01*
X439870Y826168D01*
X439287Y825404D01*
X438778Y824676D01*
X438377Y823948D01*
X438013Y823329D01*
X437868Y823074D01*
X437758Y822856D01*
X437649Y822674D01*
X437613Y822528D01*
X437540Y822455D01*
Y822419D01*
X434555D01*
X434774Y822965D01*
X435028Y823511D01*
X435283Y824057D01*
X435538Y824567D01*
X435756Y825003D01*
X435938Y825367D01*
X436084Y825586D01*
X436120Y825622D01*
Y825659D01*
X436521Y826314D01*
X436921Y826896D01*
X437285Y827406D01*
X437613Y827806D01*
X437868Y828170D01*
X438086Y828389D01*
X438232Y828571D01*
X438268Y828607D01*
X418576D01*
Y831701D01*
X443874D01*
Y829699D01*
D02*
G37*
G36*
X427384Y813865D02*
X426802Y813719D01*
X426256Y813537D01*
X425746Y813355D01*
X425273Y813173D01*
X424836Y812955D01*
X424472Y812737D01*
X424108Y812482D01*
X423781Y812263D01*
X423490Y812081D01*
X423271Y811863D01*
X423053Y811681D01*
X422871Y811535D01*
X422762Y811390D01*
X422652Y811281D01*
X422616Y811244D01*
X422580Y811208D01*
X422288Y810844D01*
X422070Y810443D01*
X421670Y809643D01*
X421378Y808878D01*
X421196Y808114D01*
X421051Y807459D01*
X421014Y807204D01*
Y806949D01*
X420978Y806731D01*
Y806476D01*
X421014Y805639D01*
X421160Y804838D01*
X421342Y804110D01*
X421560Y803455D01*
X421779Y802945D01*
X421888Y802727D01*
X421961Y802545D01*
X422034Y802399D01*
X422106Y802290D01*
X422143Y802217D01*
Y802181D01*
X422652Y801489D01*
X423198Y800907D01*
X423817Y800397D01*
X424400Y799997D01*
X424909Y799669D01*
X425346Y799451D01*
X425528Y799378D01*
X425637Y799305D01*
X425710Y799269D01*
X425746D01*
X426693Y798977D01*
X427639Y798759D01*
X428586Y798577D01*
X429459Y798468D01*
X429860Y798431D01*
X430224Y798395D01*
X430551D01*
X430806Y798359D01*
X431024D01*
X431206D01*
X431316D01*
X431352D01*
X432298Y798395D01*
X433172Y798468D01*
X433973Y798613D01*
X434701Y798759D01*
X435320Y798868D01*
X435574Y798941D01*
X435793Y799014D01*
X435975Y799050D01*
X436084Y799087D01*
X436157Y799123D01*
X436193D01*
X437030Y799487D01*
X437795Y799887D01*
X438414Y800324D01*
X438960Y800797D01*
X439396Y801198D01*
X439688Y801525D01*
X439870Y801780D01*
X439942Y801817D01*
Y801853D01*
X440416Y802617D01*
X440780Y803455D01*
X441034Y804255D01*
X441180Y805020D01*
X441289Y805711D01*
X441326Y806003D01*
Y806257D01*
X441362Y806439D01*
Y806731D01*
X441326Y807641D01*
X441180Y808478D01*
X440962Y809169D01*
X440743Y809788D01*
X440488Y810261D01*
X440306Y810625D01*
X440161Y810844D01*
X440088Y810917D01*
X439542Y811499D01*
X438923Y812045D01*
X438268Y812482D01*
X437613Y812846D01*
X437030Y813137D01*
X436739Y813246D01*
X436521Y813319D01*
X436339Y813392D01*
X436193Y813465D01*
X436120Y813501D01*
X436084D01*
X436848Y816777D01*
X437504Y816559D01*
X438086Y816340D01*
X438632Y816049D01*
X439178Y815794D01*
X439651Y815503D01*
X440088Y815175D01*
X440525Y814884D01*
X440889Y814593D01*
X441180Y814302D01*
X441471Y814047D01*
X441726Y813792D01*
X441908Y813610D01*
X442090Y813428D01*
X442199Y813283D01*
X442236Y813210D01*
X442272Y813173D01*
X442600Y812664D01*
X442927Y812154D01*
X443182Y811645D01*
X443400Y811099D01*
X443728Y810007D01*
X443946Y809024D01*
X444056Y808551D01*
X444092Y808150D01*
X444128Y807750D01*
X444165Y807422D01*
X444201Y807167D01*
Y806803D01*
X444128Y805602D01*
X443946Y804437D01*
X443728Y803418D01*
X443582Y802945D01*
X443437Y802508D01*
X443291Y802108D01*
X443146Y801744D01*
X443036Y801453D01*
X442927Y801161D01*
X442818Y800979D01*
X442745Y800834D01*
X442709Y800725D01*
X442672Y800688D01*
X442054Y799705D01*
X441326Y798868D01*
X440598Y798140D01*
X439870Y797521D01*
X439214Y797048D01*
X438923Y796866D01*
X438668Y796721D01*
X438486Y796575D01*
X438341Y796502D01*
X438232Y796466D01*
X438195Y796429D01*
X437067Y795920D01*
X435902Y795556D01*
X434737Y795301D01*
X433682Y795119D01*
X433208Y795046D01*
X432735Y795010D01*
X432371Y794973D01*
X432007D01*
X431752Y794937D01*
X431534D01*
X431388D01*
X431352D01*
X430042Y795010D01*
X428768Y795155D01*
X427639Y795337D01*
X427093Y795483D01*
X426620Y795592D01*
X426183Y795701D01*
X425783Y795847D01*
X425419Y795956D01*
X425128Y796029D01*
X424909Y796138D01*
X424727Y796175D01*
X424618Y796247D01*
X424582D01*
X423490Y796793D01*
X422507Y797412D01*
X421670Y798067D01*
X421342Y798395D01*
X421014Y798686D01*
X420723Y798977D01*
X420468Y799269D01*
X420250Y799523D01*
X420104Y799742D01*
X419959Y799887D01*
X419850Y800033D01*
X419813Y800106D01*
X419777Y800142D01*
X419486Y800652D01*
X419231Y801161D01*
X418830Y802253D01*
X418539Y803345D01*
X418357Y804401D01*
X418284Y804911D01*
X418212Y805347D01*
X418175Y805748D01*
Y806075D01*
X418139Y806367D01*
Y806767D01*
X418175Y807495D01*
X418248Y808187D01*
X418321Y808842D01*
X418466Y809461D01*
X418648Y810043D01*
X418830Y810589D01*
X419012Y811099D01*
X419231Y811572D01*
X419413Y811972D01*
X419595Y812373D01*
X419777Y812664D01*
X419959Y812955D01*
X420104Y813137D01*
X420177Y813319D01*
X420250Y813392D01*
X420286Y813428D01*
X420723Y813938D01*
X421160Y814375D01*
X421670Y814775D01*
X422179Y815175D01*
X423198Y815831D01*
X424218Y816340D01*
X424691Y816559D01*
X425128Y816741D01*
X425528Y816886D01*
X425856Y816995D01*
X426147Y817105D01*
X426365Y817177D01*
X426511Y817214D01*
X426547D01*
X427384Y813865D01*
D02*
G37*
G36*
X672204Y676262D02*
X672822Y676225D01*
X673405Y676116D01*
X673951Y676007D01*
X674460Y675861D01*
X674934Y675716D01*
X675370Y675534D01*
X675771Y675352D01*
X676135Y675170D01*
X676426Y674988D01*
X676681Y674842D01*
X676899Y674696D01*
X677081Y674587D01*
X677190Y674478D01*
X677263Y674442D01*
X677300Y674405D01*
X677664Y674041D01*
X677991Y673641D01*
X678319Y673204D01*
X678574Y672767D01*
X679010Y671894D01*
X679302Y671020D01*
X679411Y670620D01*
X679520Y670219D01*
X679593Y669892D01*
X679666Y669600D01*
X679702Y669346D01*
Y669164D01*
X679738Y669054D01*
Y669018D01*
X676572Y668690D01*
X676499Y669528D01*
X676353Y670256D01*
X676135Y670911D01*
X675880Y671420D01*
X675662Y671857D01*
X675443Y672148D01*
X675298Y672330D01*
X675225Y672403D01*
X674679Y672840D01*
X674096Y673168D01*
X673478Y673422D01*
X672932Y673568D01*
X672422Y673677D01*
X671985Y673714D01*
X671840Y673750D01*
X671621D01*
X670857Y673714D01*
X670165Y673568D01*
X669583Y673350D01*
X669073Y673131D01*
X668673Y672876D01*
X668418Y672694D01*
X668236Y672549D01*
X668163Y672476D01*
X667726Y671966D01*
X667399Y671457D01*
X667144Y670947D01*
X666998Y670438D01*
X666889Y670037D01*
X666853Y669673D01*
X666816Y669455D01*
Y669418D01*
Y669382D01*
X666889Y668727D01*
X667035Y668035D01*
X667290Y667416D01*
X667544Y666834D01*
X667836Y666361D01*
X668090Y665960D01*
X668163Y665815D01*
X668236Y665706D01*
X668309Y665669D01*
Y665633D01*
X668600Y665232D01*
X668964Y664832D01*
X669364Y664395D01*
X669801Y663958D01*
X670711Y663085D01*
X671621Y662211D01*
X672094Y661811D01*
X672495Y661447D01*
X672895Y661119D01*
X673223Y660828D01*
X673478Y660610D01*
X673696Y660428D01*
X673842Y660318D01*
X673878Y660282D01*
X674788Y659518D01*
X675625Y658790D01*
X676317Y658134D01*
X676863Y657588D01*
X677336Y657115D01*
X677664Y656788D01*
X677846Y656569D01*
X677918Y656533D01*
Y656496D01*
X678428Y655878D01*
X678828Y655295D01*
X679192Y654713D01*
X679484Y654203D01*
X679702Y653766D01*
X679848Y653439D01*
X679920Y653220D01*
X679957Y653184D01*
Y653148D01*
X680102Y652747D01*
X680175Y652383D01*
X680248Y652019D01*
X680284Y651692D01*
X680321Y651400D01*
Y651182D01*
Y651036D01*
Y651000D01*
X663613D01*
Y653985D01*
X676026D01*
X675589Y654604D01*
X675370Y654858D01*
X675188Y655113D01*
X675006Y655332D01*
X674861Y655477D01*
X674752Y655586D01*
X674715Y655623D01*
X674533Y655805D01*
X674315Y655987D01*
X673805Y656460D01*
X673223Y657006D01*
X672604Y657552D01*
X672022Y658025D01*
X671767Y658244D01*
X671548Y658462D01*
X671366Y658608D01*
X671221Y658717D01*
X671148Y658790D01*
X671112Y658826D01*
X670529Y659336D01*
X669947Y659809D01*
X669437Y660282D01*
X668964Y660682D01*
X668527Y661083D01*
X668163Y661447D01*
X667799Y661774D01*
X667508Y662066D01*
X667217Y662357D01*
X666998Y662575D01*
X666816Y662757D01*
X666634Y662939D01*
X666452Y663158D01*
X666380Y663230D01*
X665870Y663849D01*
X665433Y664395D01*
X665069Y664941D01*
X664778Y665378D01*
X664560Y665778D01*
X664414Y666070D01*
X664341Y666252D01*
X664305Y666324D01*
X664086Y666870D01*
X663941Y667416D01*
X663795Y667926D01*
X663722Y668363D01*
X663686Y668763D01*
X663650Y669054D01*
Y669236D01*
Y669309D01*
X663686Y669855D01*
X663759Y670365D01*
X663832Y670874D01*
X663977Y671311D01*
X664341Y672185D01*
X664705Y672876D01*
X664924Y673204D01*
X665106Y673459D01*
X665288Y673714D01*
X665470Y673896D01*
X665615Y674041D01*
X665688Y674187D01*
X665761Y674223D01*
X665797Y674260D01*
X666198Y674624D01*
X666634Y674951D01*
X667108Y675206D01*
X667581Y675424D01*
X668527Y675788D01*
X669474Y676043D01*
X669874Y676116D01*
X670274Y676189D01*
X670638Y676225D01*
X670930Y676262D01*
X671184Y676298D01*
X671548D01*
X672204Y676262D01*
D02*
G37*
G36*
X659755Y662903D02*
X656843Y662502D01*
X656588Y662903D01*
X656260Y663230D01*
X655969Y663558D01*
X655678Y663813D01*
X655387Y663995D01*
X655168Y664177D01*
X655023Y664250D01*
X654986Y664286D01*
X654513Y664504D01*
X654040Y664686D01*
X653603Y664796D01*
X653166Y664905D01*
X652802Y664941D01*
X652511Y664978D01*
X651820D01*
X651383Y664905D01*
X650618Y664723D01*
X649963Y664468D01*
X649381Y664213D01*
X648944Y663922D01*
X648616Y663667D01*
X648434Y663485D01*
X648362Y663449D01*
Y663412D01*
X647852Y662794D01*
X647488Y662138D01*
X647233Y661447D01*
X647051Y660755D01*
X646942Y660173D01*
X646906Y659918D01*
Y659700D01*
X646869Y659518D01*
Y659372D01*
Y659299D01*
Y659263D01*
Y658753D01*
X646942Y658280D01*
X647124Y657370D01*
X647379Y656606D01*
X647634Y655987D01*
X647925Y655477D01*
X648180Y655077D01*
X648289Y654968D01*
X648362Y654858D01*
X648398Y654822D01*
X648434Y654786D01*
X648726Y654494D01*
X649017Y654240D01*
X649672Y653803D01*
X650291Y653512D01*
X650910Y653330D01*
X651419Y653184D01*
X651856Y653148D01*
X652002Y653111D01*
X652220D01*
X652912Y653148D01*
X653530Y653293D01*
X654076Y653475D01*
X654513Y653694D01*
X654914Y653912D01*
X655205Y654094D01*
X655350Y654240D01*
X655423Y654276D01*
X655860Y654786D01*
X656224Y655332D01*
X656515Y655950D01*
X656734Y656496D01*
X656879Y657042D01*
X656988Y657443D01*
X657025Y657625D01*
X657061Y657734D01*
Y657807D01*
Y657843D01*
X660301Y657588D01*
X660228Y657006D01*
X660119Y656460D01*
X659791Y655441D01*
X659391Y654567D01*
X659172Y654167D01*
X658954Y653839D01*
X658772Y653512D01*
X658554Y653220D01*
X658372Y653002D01*
X658190Y652820D01*
X658044Y652674D01*
X657971Y652529D01*
X657898Y652492D01*
X657862Y652456D01*
X657425Y652128D01*
X656988Y651837D01*
X656515Y651582D01*
X656042Y651364D01*
X655132Y651036D01*
X654222Y650818D01*
X653822Y650709D01*
X653421Y650672D01*
X653094Y650636D01*
X652802Y650600D01*
X652548Y650563D01*
X652220D01*
X651456Y650600D01*
X650728Y650709D01*
X650036Y650854D01*
X649417Y651036D01*
X648835Y651291D01*
X648289Y651546D01*
X647779Y651801D01*
X647342Y652092D01*
X646942Y652383D01*
X646578Y652638D01*
X646287Y652929D01*
X646032Y653148D01*
X645850Y653330D01*
X645704Y653475D01*
X645632Y653584D01*
X645595Y653621D01*
X645231Y654094D01*
X644940Y654604D01*
X644649Y655077D01*
X644430Y655586D01*
X644066Y656569D01*
X643848Y657516D01*
X643775Y657916D01*
X643702Y658316D01*
X643666Y658644D01*
X643630Y658935D01*
X643593Y659190D01*
Y659372D01*
Y659481D01*
Y659518D01*
X643630Y660173D01*
X643702Y660792D01*
X643812Y661410D01*
X643957Y661956D01*
X644139Y662466D01*
X644321Y662976D01*
X644540Y663412D01*
X644722Y663813D01*
X644940Y664177D01*
X645158Y664504D01*
X645340Y664759D01*
X645522Y665014D01*
X645668Y665196D01*
X645777Y665305D01*
X645850Y665378D01*
X645886Y665414D01*
X646323Y665815D01*
X646760Y666179D01*
X647233Y666470D01*
X647706Y666725D01*
X648180Y666980D01*
X648653Y667162D01*
X649526Y667416D01*
X649927Y667526D01*
X650291Y667598D01*
X650618Y667635D01*
X650910Y667671D01*
X651128Y667708D01*
X651929D01*
X652366Y667635D01*
X653239Y667453D01*
X654040Y667198D01*
X654768Y666907D01*
X655350Y666616D01*
X655605Y666470D01*
X655824Y666361D01*
X656006Y666252D01*
X656115Y666179D01*
X656188Y666142D01*
X656224Y666106D01*
X654877Y672913D01*
X644794D01*
Y675861D01*
X657316D01*
X659755Y662903D01*
D02*
G37*
G36*
X694335Y676553D02*
X695500Y676371D01*
X696519Y676152D01*
X696992Y676007D01*
X697429Y675861D01*
X697829Y675716D01*
X698193Y675570D01*
X698484Y675461D01*
X698776Y675352D01*
X698958Y675242D01*
X699103Y675170D01*
X699212Y675133D01*
X699249Y675097D01*
X700232Y674478D01*
X701069Y673750D01*
X701797Y673022D01*
X702416Y672294D01*
X702889Y671639D01*
X703071Y671348D01*
X703216Y671093D01*
X703362Y670911D01*
X703435Y670765D01*
X703471Y670656D01*
X703508Y670620D01*
X704017Y669491D01*
X704381Y668326D01*
X704636Y667162D01*
X704818Y666106D01*
X704891Y665633D01*
X704927Y665160D01*
X704964Y664796D01*
Y664432D01*
X705000Y664177D01*
Y663958D01*
Y663813D01*
Y663776D01*
X704927Y662466D01*
X704782Y661192D01*
X704600Y660064D01*
X704454Y659518D01*
X704345Y659044D01*
X704236Y658608D01*
X704090Y658207D01*
X703981Y657843D01*
X703908Y657552D01*
X703799Y657334D01*
X703762Y657152D01*
X703690Y657042D01*
Y657006D01*
X703144Y655914D01*
X702525Y654931D01*
X701870Y654094D01*
X701542Y653766D01*
X701251Y653439D01*
X700960Y653148D01*
X700668Y652893D01*
X700414Y652674D01*
X700195Y652529D01*
X700050Y652383D01*
X699904Y652274D01*
X699831Y652238D01*
X699795Y652201D01*
X699285Y651910D01*
X698776Y651655D01*
X697684Y651255D01*
X696592Y650964D01*
X695536Y650782D01*
X695026Y650709D01*
X694590Y650636D01*
X694189Y650600D01*
X693862D01*
X693570Y650563D01*
X693170D01*
X692442Y650600D01*
X691750Y650672D01*
X691095Y650745D01*
X690476Y650891D01*
X689894Y651073D01*
X689348Y651255D01*
X688838Y651437D01*
X688365Y651655D01*
X687965Y651837D01*
X687564Y652019D01*
X687273Y652201D01*
X686982Y652383D01*
X686800Y652529D01*
X686618Y652602D01*
X686545Y652674D01*
X686509Y652711D01*
X685999Y653148D01*
X685562Y653584D01*
X685162Y654094D01*
X684762Y654604D01*
X684106Y655623D01*
X683597Y656642D01*
X683378Y657115D01*
X683196Y657552D01*
X683051Y657952D01*
X682942Y658280D01*
X682832Y658571D01*
X682760Y658790D01*
X682723Y658935D01*
Y658972D01*
X686072Y659809D01*
X686218Y659226D01*
X686400Y658680D01*
X686582Y658171D01*
X686764Y657698D01*
X686982Y657261D01*
X687200Y656897D01*
X687455Y656533D01*
X687674Y656205D01*
X687856Y655914D01*
X688074Y655696D01*
X688256Y655477D01*
X688402Y655295D01*
X688547Y655186D01*
X688656Y655077D01*
X688693Y655040D01*
X688729Y655004D01*
X689093Y654713D01*
X689494Y654494D01*
X690294Y654094D01*
X691059Y653803D01*
X691823Y653621D01*
X692478Y653475D01*
X692733Y653439D01*
X692988D01*
X693206Y653402D01*
X693461D01*
X694298Y653439D01*
X695099Y653584D01*
X695827Y653766D01*
X696482Y653985D01*
X696992Y654203D01*
X697210Y654312D01*
X697392Y654385D01*
X697538Y654458D01*
X697647Y654531D01*
X697720Y654567D01*
X697756D01*
X698448Y655077D01*
X699030Y655623D01*
X699540Y656242D01*
X699940Y656824D01*
X700268Y657334D01*
X700486Y657770D01*
X700559Y657952D01*
X700632Y658062D01*
X700668Y658134D01*
Y658171D01*
X700960Y659117D01*
X701178Y660064D01*
X701360Y661010D01*
X701469Y661884D01*
X701506Y662284D01*
X701542Y662648D01*
Y662976D01*
X701578Y663230D01*
Y663449D01*
Y663631D01*
Y663740D01*
Y663776D01*
X701542Y664723D01*
X701469Y665596D01*
X701324Y666397D01*
X701178Y667125D01*
X701069Y667744D01*
X700996Y667999D01*
X700923Y668217D01*
X700887Y668399D01*
X700850Y668508D01*
X700814Y668581D01*
Y668618D01*
X700450Y669455D01*
X700050Y670219D01*
X699613Y670838D01*
X699140Y671384D01*
X698739Y671821D01*
X698412Y672112D01*
X698157Y672294D01*
X698120Y672367D01*
X698084D01*
X697320Y672840D01*
X696482Y673204D01*
X695682Y673459D01*
X694917Y673604D01*
X694226Y673714D01*
X693934Y673750D01*
X693680D01*
X693498Y673786D01*
X693206D01*
X692296Y673750D01*
X691459Y673604D01*
X690768Y673386D01*
X690149Y673168D01*
X689676Y672913D01*
X689312Y672731D01*
X689093Y672585D01*
X689020Y672512D01*
X688438Y671966D01*
X687892Y671348D01*
X687455Y670692D01*
X687091Y670037D01*
X686800Y669455D01*
X686691Y669164D01*
X686618Y668945D01*
X686545Y668763D01*
X686472Y668618D01*
X686436Y668545D01*
Y668508D01*
X683160Y669273D01*
X683378Y669928D01*
X683597Y670510D01*
X683888Y671056D01*
X684143Y671602D01*
X684434Y672076D01*
X684762Y672512D01*
X685053Y672949D01*
X685344Y673313D01*
X685635Y673604D01*
X685890Y673896D01*
X686145Y674150D01*
X686327Y674332D01*
X686509Y674514D01*
X686654Y674624D01*
X686727Y674660D01*
X686764Y674696D01*
X687273Y675024D01*
X687783Y675352D01*
X688292Y675606D01*
X688838Y675825D01*
X689930Y676152D01*
X690913Y676371D01*
X691386Y676480D01*
X691787Y676516D01*
X692187Y676553D01*
X692515Y676589D01*
X692770Y676626D01*
X693134D01*
X694335Y676553D01*
D02*
G37*
G36*
X683458Y841225D02*
X684440Y841043D01*
X685278Y840752D01*
X686006Y840461D01*
X686333Y840279D01*
X686588Y840133D01*
X686843Y839988D01*
X687025Y839842D01*
X687170Y839733D01*
X687280Y839660D01*
X687352Y839624D01*
X687389Y839587D01*
X688080Y838896D01*
X688626Y838131D01*
X689063Y837330D01*
X689427Y836530D01*
X689646Y835838D01*
X689755Y835547D01*
X689828Y835292D01*
X689864Y835074D01*
X689900Y834928D01*
X689937Y834819D01*
Y834782D01*
X686843Y834236D01*
X686697Y835037D01*
X686479Y835729D01*
X686224Y836311D01*
X685969Y836784D01*
X685714Y837148D01*
X685496Y837403D01*
X685350Y837585D01*
X685314Y837622D01*
X684841Y837986D01*
X684331Y838277D01*
X683858Y838459D01*
X683385Y838604D01*
X682948Y838677D01*
X682620Y838750D01*
X682329D01*
X681674Y838714D01*
X681092Y838568D01*
X680582Y838386D01*
X680145Y838204D01*
X679818Y837986D01*
X679563Y837804D01*
X679381Y837658D01*
X679344Y837622D01*
X678944Y837185D01*
X678653Y836712D01*
X678471Y836238D01*
X678325Y835802D01*
X678252Y835401D01*
X678180Y835110D01*
Y834892D01*
Y834855D01*
Y834819D01*
Y834418D01*
X678252Y834054D01*
X678434Y833436D01*
X678689Y832890D01*
X678980Y832416D01*
X679272Y832089D01*
X679526Y831834D01*
X679708Y831688D01*
X679745Y831652D01*
X679781D01*
X680400Y831324D01*
X680982Y831070D01*
X681601Y830888D01*
X682147Y830778D01*
X682620Y830706D01*
X683021Y830633D01*
X683494D01*
X683640Y830669D01*
X683822D01*
X684186Y827939D01*
X683712Y828048D01*
X683276Y828121D01*
X682912Y828194D01*
X682584Y828230D01*
X682329Y828267D01*
X682002D01*
X681237Y828194D01*
X680546Y828048D01*
X679927Y827830D01*
X679417Y827575D01*
X679017Y827320D01*
X678726Y827102D01*
X678544Y826956D01*
X678471Y826884D01*
X677998Y826338D01*
X677634Y825755D01*
X677379Y825173D01*
X677233Y824590D01*
X677124Y824117D01*
X677088Y823717D01*
X677051Y823571D01*
Y823462D01*
Y823389D01*
Y823353D01*
X677124Y822552D01*
X677306Y821824D01*
X677524Y821205D01*
X677816Y820659D01*
X678107Y820222D01*
X678325Y819895D01*
X678507Y819676D01*
X678580Y819604D01*
X679162Y819094D01*
X679781Y818730D01*
X680400Y818475D01*
X680982Y818293D01*
X681492Y818184D01*
X681892Y818148D01*
X682038Y818111D01*
X682256D01*
X682912Y818148D01*
X683530Y818293D01*
X684076Y818475D01*
X684513Y818694D01*
X684877Y818876D01*
X685168Y819058D01*
X685314Y819203D01*
X685387Y819240D01*
X685824Y819749D01*
X686188Y820332D01*
X686515Y820950D01*
X686770Y821606D01*
X686952Y822152D01*
X687025Y822406D01*
X687061Y822625D01*
X687098Y822807D01*
X687134Y822952D01*
X687170Y823025D01*
Y823062D01*
X690264Y822661D01*
X690192Y822079D01*
X690082Y821533D01*
X689755Y820514D01*
X689354Y819640D01*
X689136Y819276D01*
X688918Y818912D01*
X688699Y818584D01*
X688481Y818330D01*
X688299Y818075D01*
X688117Y817893D01*
X688008Y817747D01*
X687898Y817638D01*
X687826Y817565D01*
X687789Y817529D01*
X687352Y817201D01*
X686916Y816874D01*
X686479Y816619D01*
X686006Y816400D01*
X685096Y816036D01*
X684222Y815818D01*
X683822Y815745D01*
X683458Y815672D01*
X683130Y815636D01*
X682839Y815600D01*
X682620Y815563D01*
X682293D01*
X681601Y815600D01*
X680982Y815672D01*
X680364Y815782D01*
X679781Y815927D01*
X679235Y816109D01*
X678762Y816291D01*
X678289Y816510D01*
X677888Y816728D01*
X677488Y816910D01*
X677160Y817128D01*
X676869Y817310D01*
X676651Y817492D01*
X676469Y817638D01*
X676323Y817747D01*
X676250Y817820D01*
X676214Y817856D01*
X675777Y818293D01*
X675413Y818766D01*
X675086Y819240D01*
X674794Y819713D01*
X674576Y820150D01*
X674358Y820623D01*
X674066Y821496D01*
X673994Y821897D01*
X673921Y822261D01*
X673848Y822588D01*
X673812Y822880D01*
X673775Y823098D01*
Y823280D01*
Y823389D01*
Y823426D01*
X673812Y824299D01*
X673957Y825100D01*
X674176Y825792D01*
X674394Y826374D01*
X674612Y826847D01*
X674831Y827211D01*
X674976Y827430D01*
X675013Y827502D01*
X675522Y828048D01*
X676068Y828522D01*
X676651Y828886D01*
X677233Y829177D01*
X677743Y829395D01*
X678143Y829541D01*
X678289Y829577D01*
X678398Y829614D01*
X678471Y829650D01*
X678507D01*
X677888Y829978D01*
X677379Y830305D01*
X676942Y830669D01*
X676578Y830997D01*
X676287Y831288D01*
X676068Y831543D01*
X675959Y831688D01*
X675923Y831761D01*
X675632Y832271D01*
X675413Y832780D01*
X675231Y833290D01*
X675122Y833763D01*
X675049Y834164D01*
X675013Y834455D01*
Y834673D01*
Y834746D01*
X675049Y835365D01*
X675158Y835984D01*
X675304Y836530D01*
X675486Y837003D01*
X675668Y837403D01*
X675814Y837731D01*
X675923Y837913D01*
X675959Y837986D01*
X676323Y838532D01*
X676760Y839005D01*
X677197Y839405D01*
X677634Y839769D01*
X677998Y840024D01*
X678325Y840242D01*
X678544Y840352D01*
X678580Y840388D01*
X678616D01*
X679272Y840679D01*
X679927Y840898D01*
X680582Y841080D01*
X681164Y841189D01*
X681638Y841262D01*
X682038Y841298D01*
X682948D01*
X683458Y841225D01*
D02*
G37*
G36*
X700602Y840679D02*
X701002Y840097D01*
X701476Y839514D01*
X701912Y839005D01*
X702349Y838568D01*
X702677Y838204D01*
X702822Y838095D01*
X702932Y837986D01*
X702968Y837949D01*
X703004Y837913D01*
X703769Y837294D01*
X704533Y836712D01*
X705261Y836202D01*
X705989Y835802D01*
X706608Y835438D01*
X706863Y835292D01*
X707081Y835183D01*
X707263Y835074D01*
X707409Y835037D01*
X707482Y834964D01*
X707518D01*
Y831980D01*
X706972Y832198D01*
X706426Y832453D01*
X705880Y832708D01*
X705370Y832962D01*
X704934Y833181D01*
X704570Y833363D01*
X704351Y833508D01*
X704315Y833545D01*
X704278D01*
X703623Y833945D01*
X703041Y834346D01*
X702531Y834710D01*
X702131Y835037D01*
X701767Y835292D01*
X701548Y835510D01*
X701366Y835656D01*
X701330Y835692D01*
Y816000D01*
X698236D01*
Y841298D01*
X700238D01*
X700602Y840679D01*
D02*
G37*
G36*
X724335Y841553D02*
X725500Y841371D01*
X726519Y841152D01*
X726992Y841007D01*
X727429Y840861D01*
X727829Y840716D01*
X728193Y840570D01*
X728484Y840461D01*
X728776Y840352D01*
X728958Y840242D01*
X729103Y840170D01*
X729212Y840133D01*
X729249Y840097D01*
X730232Y839478D01*
X731069Y838750D01*
X731797Y838022D01*
X732416Y837294D01*
X732889Y836639D01*
X733071Y836348D01*
X733216Y836093D01*
X733362Y835911D01*
X733435Y835765D01*
X733471Y835656D01*
X733508Y835620D01*
X734017Y834491D01*
X734381Y833326D01*
X734636Y832162D01*
X734818Y831106D01*
X734891Y830633D01*
X734927Y830160D01*
X734964Y829796D01*
Y829432D01*
X735000Y829177D01*
Y828958D01*
Y828813D01*
Y828776D01*
X734927Y827466D01*
X734782Y826192D01*
X734600Y825064D01*
X734454Y824518D01*
X734345Y824044D01*
X734236Y823608D01*
X734090Y823207D01*
X733981Y822843D01*
X733908Y822552D01*
X733799Y822334D01*
X733762Y822152D01*
X733690Y822042D01*
Y822006D01*
X733144Y820914D01*
X732525Y819931D01*
X731870Y819094D01*
X731542Y818766D01*
X731251Y818439D01*
X730960Y818148D01*
X730668Y817893D01*
X730414Y817674D01*
X730195Y817529D01*
X730050Y817383D01*
X729904Y817274D01*
X729831Y817238D01*
X729795Y817201D01*
X729285Y816910D01*
X728776Y816655D01*
X727684Y816255D01*
X726592Y815964D01*
X725536Y815782D01*
X725026Y815709D01*
X724590Y815636D01*
X724189Y815600D01*
X723862D01*
X723570Y815563D01*
X723170D01*
X722442Y815600D01*
X721750Y815672D01*
X721095Y815745D01*
X720476Y815891D01*
X719894Y816073D01*
X719348Y816255D01*
X718838Y816437D01*
X718365Y816655D01*
X717965Y816837D01*
X717564Y817019D01*
X717273Y817201D01*
X716982Y817383D01*
X716800Y817529D01*
X716618Y817602D01*
X716545Y817674D01*
X716509Y817711D01*
X715999Y818148D01*
X715562Y818584D01*
X715162Y819094D01*
X714762Y819604D01*
X714106Y820623D01*
X713597Y821642D01*
X713378Y822115D01*
X713196Y822552D01*
X713051Y822952D01*
X712942Y823280D01*
X712832Y823571D01*
X712760Y823790D01*
X712723Y823935D01*
Y823972D01*
X716072Y824809D01*
X716218Y824226D01*
X716400Y823680D01*
X716582Y823171D01*
X716764Y822698D01*
X716982Y822261D01*
X717200Y821897D01*
X717455Y821533D01*
X717674Y821205D01*
X717856Y820914D01*
X718074Y820696D01*
X718256Y820477D01*
X718402Y820295D01*
X718547Y820186D01*
X718656Y820077D01*
X718693Y820040D01*
X718729Y820004D01*
X719093Y819713D01*
X719494Y819494D01*
X720294Y819094D01*
X721059Y818803D01*
X721823Y818621D01*
X722478Y818475D01*
X722733Y818439D01*
X722988D01*
X723206Y818402D01*
X723461D01*
X724298Y818439D01*
X725099Y818584D01*
X725827Y818766D01*
X726482Y818985D01*
X726992Y819203D01*
X727210Y819312D01*
X727392Y819385D01*
X727538Y819458D01*
X727647Y819531D01*
X727720Y819567D01*
X727756D01*
X728448Y820077D01*
X729030Y820623D01*
X729540Y821242D01*
X729940Y821824D01*
X730268Y822334D01*
X730486Y822770D01*
X730559Y822952D01*
X730632Y823062D01*
X730668Y823134D01*
Y823171D01*
X730960Y824117D01*
X731178Y825064D01*
X731360Y826010D01*
X731469Y826884D01*
X731506Y827284D01*
X731542Y827648D01*
Y827976D01*
X731578Y828230D01*
Y828449D01*
Y828631D01*
Y828740D01*
Y828776D01*
X731542Y829723D01*
X731469Y830596D01*
X731324Y831397D01*
X731178Y832125D01*
X731069Y832744D01*
X730996Y832999D01*
X730923Y833217D01*
X730887Y833399D01*
X730850Y833508D01*
X730814Y833581D01*
Y833618D01*
X730450Y834455D01*
X730050Y835219D01*
X729613Y835838D01*
X729140Y836384D01*
X728739Y836821D01*
X728412Y837112D01*
X728157Y837294D01*
X728120Y837367D01*
X728084D01*
X727320Y837840D01*
X726482Y838204D01*
X725682Y838459D01*
X724917Y838604D01*
X724226Y838714D01*
X723934Y838750D01*
X723680D01*
X723498Y838786D01*
X723206D01*
X722296Y838750D01*
X721459Y838604D01*
X720768Y838386D01*
X720149Y838168D01*
X719676Y837913D01*
X719312Y837731D01*
X719093Y837585D01*
X719020Y837512D01*
X718438Y836966D01*
X717892Y836348D01*
X717455Y835692D01*
X717091Y835037D01*
X716800Y834455D01*
X716691Y834164D01*
X716618Y833945D01*
X716545Y833763D01*
X716472Y833618D01*
X716436Y833545D01*
Y833508D01*
X713160Y834273D01*
X713378Y834928D01*
X713597Y835510D01*
X713888Y836056D01*
X714143Y836602D01*
X714434Y837076D01*
X714762Y837512D01*
X715053Y837949D01*
X715344Y838313D01*
X715635Y838604D01*
X715890Y838896D01*
X716145Y839150D01*
X716327Y839332D01*
X716509Y839514D01*
X716654Y839624D01*
X716727Y839660D01*
X716764Y839696D01*
X717273Y840024D01*
X717783Y840352D01*
X718292Y840606D01*
X718838Y840825D01*
X719930Y841152D01*
X720913Y841371D01*
X721386Y841480D01*
X721787Y841516D01*
X722187Y841553D01*
X722515Y841589D01*
X722770Y841626D01*
X723134D01*
X724335Y841553D01*
D02*
G37*
G36*
X532560Y712500D02*
X533179Y712936D01*
X533434Y713155D01*
X533689Y713337D01*
X533907Y713519D01*
X534053Y713664D01*
X534162Y713774D01*
X534198Y713810D01*
X534380Y713992D01*
X534562Y714210D01*
X535036Y714720D01*
X535582Y715302D01*
X536128Y715921D01*
X536601Y716504D01*
X536819Y716758D01*
X537038Y716977D01*
X537183Y717159D01*
X537292Y717304D01*
X537365Y717377D01*
X537402Y717414D01*
X537911Y717996D01*
X538384Y718578D01*
X538858Y719088D01*
X539258Y719561D01*
X539658Y719998D01*
X540022Y720362D01*
X540350Y720726D01*
X540641Y721017D01*
X540932Y721308D01*
X541151Y721527D01*
X541333Y721709D01*
X541515Y721891D01*
X541733Y722073D01*
X541806Y722146D01*
X542425Y722655D01*
X542971Y723092D01*
X543517Y723456D01*
X543954Y723747D01*
X544354Y723966D01*
X544645Y724111D01*
X544827Y724184D01*
X544900Y724220D01*
X545446Y724439D01*
X545992Y724584D01*
X546502Y724730D01*
X546938Y724803D01*
X547339Y724839D01*
X547630Y724876D01*
X547812D01*
X547885D01*
X548431Y724839D01*
X548940Y724766D01*
X549450Y724694D01*
X549887Y724548D01*
X550760Y724184D01*
X551452Y723820D01*
X551780Y723602D01*
X552034Y723420D01*
X552289Y723238D01*
X552471Y723056D01*
X552617Y722910D01*
X552762Y722837D01*
X552799Y722764D01*
X552835Y722728D01*
X553199Y722328D01*
X553527Y721891D01*
X553782Y721418D01*
X554000Y720944D01*
X554364Y719998D01*
X554619Y719052D01*
X554692Y718651D01*
X554764Y718251D01*
X554801Y717887D01*
X554837Y717596D01*
X554874Y717341D01*
Y716977D01*
X554837Y716322D01*
X554801Y715703D01*
X554692Y715120D01*
X554582Y714574D01*
X554437Y714065D01*
X554291Y713592D01*
X554109Y713155D01*
X553927Y712754D01*
X553745Y712390D01*
X553563Y712099D01*
X553418Y711844D01*
X553272Y711626D01*
X553163Y711444D01*
X553054Y711335D01*
X553017Y711262D01*
X552981Y711226D01*
X552617Y710862D01*
X552216Y710534D01*
X551780Y710206D01*
X551343Y709952D01*
X550469Y709515D01*
X549596Y709224D01*
X549195Y709114D01*
X548795Y709005D01*
X548467Y708932D01*
X548176Y708860D01*
X547921Y708823D01*
X547739D01*
X547630Y708787D01*
X547594D01*
X547266Y711954D01*
X548103Y712026D01*
X548831Y712172D01*
X549486Y712390D01*
X549996Y712645D01*
X550433Y712864D01*
X550724Y713082D01*
X550906Y713228D01*
X550979Y713300D01*
X551416Y713846D01*
X551743Y714429D01*
X551998Y715048D01*
X552144Y715594D01*
X552253Y716103D01*
X552289Y716540D01*
X552326Y716686D01*
Y716904D01*
X552289Y717668D01*
X552144Y718360D01*
X551925Y718942D01*
X551707Y719452D01*
X551452Y719852D01*
X551270Y720107D01*
X551124Y720289D01*
X551052Y720362D01*
X550542Y720799D01*
X550032Y721126D01*
X549523Y721381D01*
X549013Y721527D01*
X548613Y721636D01*
X548249Y721672D01*
X548030Y721709D01*
X547994D01*
X547958D01*
X547302Y721636D01*
X546611Y721490D01*
X545992Y721236D01*
X545410Y720981D01*
X544936Y720690D01*
X544536Y720435D01*
X544390Y720362D01*
X544281Y720289D01*
X544245Y720216D01*
X544208D01*
X543808Y719925D01*
X543408Y719561D01*
X542971Y719161D01*
X542534Y718724D01*
X541660Y717814D01*
X540787Y716904D01*
X540386Y716431D01*
X540022Y716030D01*
X539695Y715630D01*
X539404Y715302D01*
X539185Y715048D01*
X539003Y714829D01*
X538894Y714684D01*
X538858Y714647D01*
X538093Y713737D01*
X537365Y712900D01*
X536710Y712208D01*
X536164Y711662D01*
X535691Y711189D01*
X535363Y710862D01*
X535145Y710680D01*
X535108Y710607D01*
X535072D01*
X534453Y710097D01*
X533871Y709697D01*
X533288Y709333D01*
X532779Y709042D01*
X532342Y708823D01*
X532014Y708678D01*
X531796Y708605D01*
X531760Y708568D01*
X531723D01*
X531323Y708423D01*
X530959Y708350D01*
X530595Y708277D01*
X530267Y708241D01*
X529976Y708204D01*
X529758D01*
X529612D01*
X529576D01*
Y724912D01*
X532560D01*
Y712500D01*
D02*
G37*
G36*
X554874Y698704D02*
X554255Y698340D01*
X553672Y697940D01*
X553090Y697466D01*
X552580Y697030D01*
X552144Y696593D01*
X551780Y696265D01*
X551670Y696120D01*
X551561Y696010D01*
X551525Y695974D01*
X551488Y695938D01*
X550870Y695173D01*
X550287Y694409D01*
X549778Y693681D01*
X549377Y692953D01*
X549013Y692334D01*
X548868Y692079D01*
X548758Y691861D01*
X548649Y691679D01*
X548613Y691533D01*
X548540Y691460D01*
Y691424D01*
X545555D01*
X545774Y691970D01*
X546028Y692516D01*
X546283Y693062D01*
X546538Y693572D01*
X546756Y694008D01*
X546938Y694372D01*
X547084Y694591D01*
X547120Y694627D01*
Y694664D01*
X547521Y695319D01*
X547921Y695901D01*
X548285Y696411D01*
X548613Y696811D01*
X548868Y697175D01*
X549086Y697394D01*
X549232Y697576D01*
X549268Y697612D01*
X529576D01*
Y700706D01*
X554874D01*
Y698704D01*
D02*
G37*
G36*
X538384Y682870D02*
X537802Y682724D01*
X537256Y682542D01*
X536746Y682360D01*
X536273Y682178D01*
X535836Y681960D01*
X535472Y681742D01*
X535108Y681487D01*
X534781Y681268D01*
X534490Y681086D01*
X534271Y680868D01*
X534053Y680686D01*
X533871Y680540D01*
X533762Y680395D01*
X533652Y680286D01*
X533616Y680249D01*
X533580Y680213D01*
X533288Y679849D01*
X533070Y679448D01*
X532670Y678648D01*
X532378Y677883D01*
X532196Y677119D01*
X532051Y676464D01*
X532014Y676209D01*
Y675954D01*
X531978Y675736D01*
Y675481D01*
X532014Y674644D01*
X532160Y673843D01*
X532342Y673115D01*
X532560Y672460D01*
X532779Y671950D01*
X532888Y671732D01*
X532961Y671550D01*
X533034Y671404D01*
X533106Y671295D01*
X533143Y671222D01*
Y671186D01*
X533652Y670494D01*
X534198Y669912D01*
X534817Y669402D01*
X535400Y669002D01*
X535909Y668674D01*
X536346Y668456D01*
X536528Y668383D01*
X536637Y668310D01*
X536710Y668274D01*
X536746D01*
X537693Y667982D01*
X538639Y667764D01*
X539586Y667582D01*
X540459Y667473D01*
X540860Y667436D01*
X541224Y667400D01*
X541551D01*
X541806Y667364D01*
X542024D01*
X542206D01*
X542316D01*
X542352D01*
X543298Y667400D01*
X544172Y667473D01*
X544973Y667618D01*
X545701Y667764D01*
X546320Y667873D01*
X546574Y667946D01*
X546793Y668019D01*
X546975Y668055D01*
X547084Y668092D01*
X547157Y668128D01*
X547193D01*
X548030Y668492D01*
X548795Y668892D01*
X549414Y669329D01*
X549960Y669802D01*
X550396Y670203D01*
X550688Y670530D01*
X550870Y670785D01*
X550942Y670822D01*
Y670858D01*
X551416Y671622D01*
X551780Y672460D01*
X552034Y673260D01*
X552180Y674025D01*
X552289Y674716D01*
X552326Y675008D01*
Y675262D01*
X552362Y675444D01*
Y675736D01*
X552326Y676646D01*
X552180Y677483D01*
X551962Y678174D01*
X551743Y678793D01*
X551488Y679266D01*
X551306Y679630D01*
X551161Y679849D01*
X551088Y679922D01*
X550542Y680504D01*
X549923Y681050D01*
X549268Y681487D01*
X548613Y681851D01*
X548030Y682142D01*
X547739Y682251D01*
X547521Y682324D01*
X547339Y682397D01*
X547193Y682470D01*
X547120Y682506D01*
X547084D01*
X547848Y685782D01*
X548504Y685564D01*
X549086Y685345D01*
X549632Y685054D01*
X550178Y684799D01*
X550651Y684508D01*
X551088Y684180D01*
X551525Y683889D01*
X551889Y683598D01*
X552180Y683307D01*
X552471Y683052D01*
X552726Y682797D01*
X552908Y682615D01*
X553090Y682433D01*
X553199Y682288D01*
X553236Y682215D01*
X553272Y682178D01*
X553600Y681669D01*
X553927Y681159D01*
X554182Y680650D01*
X554400Y680104D01*
X554728Y679012D01*
X554946Y678029D01*
X555056Y677556D01*
X555092Y677155D01*
X555128Y676755D01*
X555165Y676427D01*
X555201Y676172D01*
Y675808D01*
X555128Y674607D01*
X554946Y673442D01*
X554728Y672423D01*
X554582Y671950D01*
X554437Y671513D01*
X554291Y671113D01*
X554146Y670749D01*
X554036Y670458D01*
X553927Y670166D01*
X553818Y669984D01*
X553745Y669839D01*
X553709Y669730D01*
X553672Y669693D01*
X553054Y668710D01*
X552326Y667873D01*
X551598Y667145D01*
X550870Y666526D01*
X550214Y666053D01*
X549923Y665871D01*
X549668Y665726D01*
X549486Y665580D01*
X549341Y665507D01*
X549232Y665471D01*
X549195Y665434D01*
X548067Y664925D01*
X546902Y664561D01*
X545737Y664306D01*
X544682Y664124D01*
X544208Y664051D01*
X543735Y664015D01*
X543371Y663978D01*
X543007D01*
X542752Y663942D01*
X542534D01*
X542388D01*
X542352D01*
X541042Y664015D01*
X539768Y664160D01*
X538639Y664342D01*
X538093Y664488D01*
X537620Y664597D01*
X537183Y664706D01*
X536783Y664852D01*
X536419Y664961D01*
X536128Y665034D01*
X535909Y665143D01*
X535727Y665180D01*
X535618Y665252D01*
X535582D01*
X534490Y665798D01*
X533507Y666417D01*
X532670Y667072D01*
X532342Y667400D01*
X532014Y667691D01*
X531723Y667982D01*
X531468Y668274D01*
X531250Y668528D01*
X531104Y668747D01*
X530959Y668892D01*
X530850Y669038D01*
X530813Y669111D01*
X530777Y669147D01*
X530486Y669657D01*
X530231Y670166D01*
X529830Y671258D01*
X529539Y672350D01*
X529357Y673406D01*
X529284Y673916D01*
X529212Y674352D01*
X529175Y674753D01*
Y675080D01*
X529139Y675372D01*
Y675772D01*
X529175Y676500D01*
X529248Y677192D01*
X529321Y677847D01*
X529466Y678466D01*
X529648Y679048D01*
X529830Y679594D01*
X530012Y680104D01*
X530231Y680577D01*
X530413Y680977D01*
X530595Y681378D01*
X530777Y681669D01*
X530959Y681960D01*
X531104Y682142D01*
X531177Y682324D01*
X531250Y682397D01*
X531286Y682433D01*
X531723Y682943D01*
X532160Y683380D01*
X532670Y683780D01*
X533179Y684180D01*
X534198Y684836D01*
X535218Y685345D01*
X535691Y685564D01*
X536128Y685746D01*
X536528Y685891D01*
X536856Y686000D01*
X537147Y686110D01*
X537365Y686182D01*
X537511Y686219D01*
X537547D01*
X538384Y682870D01*
D02*
G37*
G36*
X416967Y291010D02*
X417586Y290974D01*
X418168Y290865D01*
X418714Y290756D01*
X419224Y290610D01*
X419697Y290464D01*
X420134Y290283D01*
X420534Y290101D01*
X420898Y289918D01*
X421189Y289736D01*
X421444Y289591D01*
X421662Y289445D01*
X421844Y289336D01*
X421954Y289227D01*
X422026Y289190D01*
X422063Y289154D01*
X422427Y288790D01*
X422754Y288390D01*
X423082Y287953D01*
X423337Y287516D01*
X423774Y286642D01*
X424065Y285769D01*
X424174Y285368D01*
X424283Y284968D01*
X424356Y284640D01*
X424429Y284349D01*
X424465Y284094D01*
Y283913D01*
X424502Y283803D01*
Y283767D01*
X421335Y283439D01*
X421262Y284276D01*
X421116Y285005D01*
X420898Y285660D01*
X420643Y286169D01*
X420425Y286606D01*
X420206Y286897D01*
X420061Y287079D01*
X419988Y287152D01*
X419442Y287589D01*
X418860Y287916D01*
X418241Y288171D01*
X417695Y288317D01*
X417185Y288426D01*
X416748Y288462D01*
X416603Y288499D01*
X416384D01*
X415620Y288462D01*
X414928Y288317D01*
X414346Y288099D01*
X413836Y287880D01*
X413436Y287625D01*
X413181Y287443D01*
X412999Y287298D01*
X412926Y287225D01*
X412490Y286715D01*
X412162Y286206D01*
X411907Y285696D01*
X411762Y285187D01*
X411652Y284786D01*
X411616Y284422D01*
X411580Y284204D01*
Y284167D01*
Y284131D01*
X411652Y283476D01*
X411798Y282784D01*
X412053Y282165D01*
X412308Y281583D01*
X412599Y281110D01*
X412854Y280709D01*
X412926Y280564D01*
X412999Y280454D01*
X413072Y280418D01*
Y280382D01*
X413363Y279981D01*
X413727Y279581D01*
X414128Y279144D01*
X414564Y278707D01*
X415474Y277834D01*
X416384Y276960D01*
X416858Y276560D01*
X417258Y276196D01*
X417658Y275868D01*
X417986Y275577D01*
X418241Y275358D01*
X418459Y275176D01*
X418605Y275067D01*
X418641Y275031D01*
X419551Y274267D01*
X420388Y273538D01*
X421080Y272883D01*
X421626Y272337D01*
X422099Y271864D01*
X422427Y271536D01*
X422609Y271318D01*
X422682Y271282D01*
Y271245D01*
X423191Y270627D01*
X423592Y270044D01*
X423956Y269462D01*
X424247Y268952D01*
X424465Y268515D01*
X424611Y268188D01*
X424684Y267969D01*
X424720Y267933D01*
Y267897D01*
X424866Y267496D01*
X424938Y267132D01*
X425011Y266768D01*
X425048Y266440D01*
X425084Y266149D01*
Y265931D01*
Y265785D01*
Y265749D01*
X408376D01*
Y268734D01*
X420789D01*
X420352Y269353D01*
X420134Y269607D01*
X419952Y269862D01*
X419770Y270080D01*
X419624Y270226D01*
X419515Y270335D01*
X419478Y270372D01*
X419296Y270554D01*
X419078Y270736D01*
X418568Y271209D01*
X417986Y271755D01*
X417367Y272301D01*
X416785Y272774D01*
X416530Y272993D01*
X416312Y273211D01*
X416130Y273356D01*
X415984Y273466D01*
X415911Y273538D01*
X415875Y273575D01*
X415292Y274084D01*
X414710Y274558D01*
X414200Y275031D01*
X413727Y275431D01*
X413290Y275832D01*
X412926Y276196D01*
X412562Y276523D01*
X412271Y276815D01*
X411980Y277106D01*
X411762Y277324D01*
X411580Y277506D01*
X411398Y277688D01*
X411216Y277906D01*
X411143Y277979D01*
X410633Y278598D01*
X410196Y279144D01*
X409832Y279690D01*
X409541Y280127D01*
X409323Y280527D01*
X409177Y280818D01*
X409104Y281000D01*
X409068Y281073D01*
X408850Y281619D01*
X408704Y282165D01*
X408558Y282675D01*
X408486Y283112D01*
X408449Y283512D01*
X408413Y283803D01*
Y283985D01*
Y284058D01*
X408449Y284604D01*
X408522Y285114D01*
X408595Y285623D01*
X408740Y286060D01*
X409104Y286934D01*
X409468Y287625D01*
X409687Y287953D01*
X409869Y288208D01*
X410051Y288462D01*
X410233Y288644D01*
X410378Y288790D01*
X410451Y288936D01*
X410524Y288972D01*
X410560Y289009D01*
X410961Y289373D01*
X411398Y289700D01*
X411871Y289955D01*
X412344Y290173D01*
X413290Y290537D01*
X414237Y290792D01*
X414637Y290865D01*
X415038Y290938D01*
X415402Y290974D01*
X415693Y291010D01*
X415948Y291047D01*
X416312D01*
X416967Y291010D01*
D02*
G37*
G36*
X446851Y265749D02*
X443502D01*
Y275977D01*
X437060D01*
X436113Y276014D01*
X435203Y276087D01*
X434402Y276196D01*
X433674Y276341D01*
X432983Y276487D01*
X432400Y276669D01*
X431854Y276887D01*
X431381Y277106D01*
X430981Y277288D01*
X430617Y277506D01*
X430326Y277688D01*
X430107Y277870D01*
X429925Y277979D01*
X429816Y278089D01*
X429743Y278161D01*
X429707Y278198D01*
X429343Y278635D01*
X429015Y279071D01*
X428760Y279508D01*
X428506Y279981D01*
X428287Y280454D01*
X428142Y280891D01*
X427887Y281728D01*
X427814Y282129D01*
X427741Y282493D01*
X427705Y282820D01*
X427668Y283075D01*
X427632Y283330D01*
Y283476D01*
Y283585D01*
Y283621D01*
X427668Y284313D01*
X427741Y284968D01*
X427887Y285550D01*
X427996Y286060D01*
X428142Y286497D01*
X428287Y286825D01*
X428360Y287007D01*
X428396Y287079D01*
X428688Y287625D01*
X429052Y288099D01*
X429379Y288535D01*
X429707Y288863D01*
X429998Y289118D01*
X430216Y289336D01*
X430362Y289445D01*
X430435Y289482D01*
X430908Y289773D01*
X431454Y290028D01*
X431964Y290246D01*
X432437Y290428D01*
X432874Y290537D01*
X433201Y290610D01*
X433456Y290683D01*
X433529D01*
X434075Y290756D01*
X434694Y290829D01*
X435349Y290865D01*
X435968Y290901D01*
X436514Y290938D01*
X446851D01*
Y265749D01*
D02*
G37*
%LPC*%
G36*
X404002Y671409D02*
Y660125D01*
X411937D01*
X404002Y671409D01*
D02*
G37*
G36*
X431570Y852922D02*
X431243D01*
X431061D01*
X431024D01*
X430988D01*
X429860D01*
X428840Y852849D01*
X427930Y852777D01*
X427057Y852704D01*
X426329Y852595D01*
X425637Y852449D01*
X425055Y852303D01*
X424509Y852194D01*
X424072Y852049D01*
X423708Y851903D01*
X423380Y851794D01*
X423126Y851648D01*
X422944Y851575D01*
X422834Y851503D01*
X422762Y851430D01*
X422725D01*
X422361Y851139D01*
X422070Y850847D01*
X421779Y850556D01*
X421560Y850265D01*
X421196Y849646D01*
X420942Y849100D01*
X420796Y848591D01*
X420723Y848227D01*
X420687Y848081D01*
Y847863D01*
X420723Y847462D01*
X420760Y847098D01*
X421014Y846407D01*
X421342Y845788D01*
X421706Y845242D01*
X422070Y844841D01*
X422398Y844514D01*
X422652Y844332D01*
X422689Y844259D01*
X422725D01*
X423162Y844004D01*
X423672Y843786D01*
X424254Y843567D01*
X424873Y843422D01*
X425528Y843276D01*
X426220Y843167D01*
X427639Y842985D01*
X428294Y842912D01*
X428913Y842876D01*
X429496Y842839D01*
X429969D01*
X430406Y842803D01*
X430733D01*
X430915D01*
X430988D01*
X432116Y842839D01*
X433136Y842876D01*
X434082Y842949D01*
X434956Y843058D01*
X435720Y843167D01*
X436412Y843313D01*
X437030Y843458D01*
X437576Y843604D01*
X438050Y843749D01*
X438450Y843859D01*
X438778Y844004D01*
X439069Y844113D01*
X439251Y844223D01*
X439396Y844295D01*
X439469Y844368D01*
X439506D01*
X439833Y844623D01*
X440124Y844878D01*
X440343Y845169D01*
X440561Y845460D01*
X440889Y846043D01*
X441107Y846589D01*
X441216Y847062D01*
X441289Y847462D01*
X441326Y847608D01*
Y847826D01*
X441289Y848227D01*
X441253Y848627D01*
X441144Y848991D01*
X440998Y849319D01*
X440670Y849937D01*
X440306Y850483D01*
X439906Y850884D01*
X439578Y851211D01*
X439433Y851321D01*
X439324Y851393D01*
X439287Y851466D01*
X439251D01*
X438814Y851721D01*
X438304Y851939D01*
X437722Y852158D01*
X437103Y852303D01*
X436448Y852449D01*
X435756Y852558D01*
X434373Y852740D01*
X433682Y852813D01*
X433063Y852849D01*
X432480Y852886D01*
X432007D01*
X431570Y852922D01*
D02*
G37*
G36*
X443502Y287953D02*
X436295D01*
X435640Y287916D01*
X435094Y287880D01*
X434657Y287844D01*
X434366Y287771D01*
X434148Y287735D01*
X434002Y287698D01*
X433966D01*
X433492Y287516D01*
X433092Y287298D01*
X432728Y287079D01*
X432400Y286825D01*
X432182Y286570D01*
X432000Y286388D01*
X431891Y286242D01*
X431854Y286206D01*
X431600Y285769D01*
X431381Y285332D01*
X431236Y284859D01*
X431163Y284459D01*
X431090Y284094D01*
X431054Y283767D01*
Y283585D01*
Y283548D01*
Y283512D01*
X431126Y282748D01*
X431272Y282092D01*
X431490Y281510D01*
X431745Y281037D01*
X432000Y280673D01*
X432218Y280382D01*
X432364Y280236D01*
X432437Y280163D01*
X432692Y279945D01*
X433019Y279763D01*
X433711Y279472D01*
X434475Y279253D01*
X435240Y279108D01*
X435931Y279035D01*
X436222Y278998D01*
X436477D01*
X436732Y278962D01*
X443502D01*
Y287953D01*
D02*
G37*
%LPD*%
D79*
X333228Y573386D02*
G03*
X333228Y573386I-3937J0D01*
G01*
X753229Y690987D02*
Y807129D01*
X603622Y690987D02*
Y807129D01*
Y690987D02*
X753229D01*
X603622Y807129D02*
X753229D01*
D80*
X484748Y794504D02*
Y857496D01*
X453252D02*
X484748D01*
X453252Y794504D02*
Y857496D01*
Y794504D02*
X484748D01*
X446748D02*
Y857496D01*
X415252D02*
X446748D01*
X415252Y794504D02*
Y857496D01*
Y794504D02*
X446748D01*
X641928Y679796D02*
X704920D01*
X641928Y648300D02*
Y679796D01*
Y648300D02*
X704920D01*
Y679796D01*
X671928Y844796D02*
X734920D01*
X671928Y813300D02*
Y844796D01*
Y813300D02*
X734920D01*
Y844796D01*
X526252Y663504D02*
Y726496D01*
Y663504D02*
X557748D01*
Y726496D01*
X526252D02*
X557748D01*
D123*
X316143Y560237D02*
X522441D01*
Y766535D01*
X316143D02*
X522441D01*
X316143Y560237D02*
Y766535D01*
X564292Y115591D02*
Y435591D01*
X274292D02*
X564292D01*
X274292Y115591D02*
Y435591D01*
Y115591D02*
X564292D01*
%TF.MD5,b5384a48dd9f9d1575946911e4ca2358*%
M02*
