%TF.GenerationSoftware,Altium Limited,Altium Designer,20.1.11 (218)*%
G04 Layer_Physical_Order=1*
G04 Layer_Color=255*
%FSLAX26Y26*%
%MOIN*%
%TF.SameCoordinates,F1652399-7491-40A6-9504-01A14B245E9D*%
%TF.FilePolarity,Positive*%
%TF.FileFunction,Copper,L1,Top,Signal*%
%TF.Part,Single*%
G01*
G75*
%TA.AperFunction,SMDPad,CuDef*%
%ADD10R,0.035039X0.011811*%
%ADD11R,0.007874X0.062992*%
%ADD12R,0.039370X0.055118*%
G04:AMPARAMS|DCode=13|XSize=27.559mil|YSize=20.079mil|CornerRadius=5.02mil|HoleSize=0mil|Usage=FLASHONLY|Rotation=90.000|XOffset=0mil|YOffset=0mil|HoleType=Round|Shape=RoundedRectangle|*
%AMROUNDEDRECTD13*
21,1,0.027559,0.010040,0,0,90.0*
21,1,0.017520,0.020079,0,0,90.0*
1,1,0.010039,0.005020,0.008760*
1,1,0.010039,0.005020,-0.008760*
1,1,0.010039,-0.005020,-0.008760*
1,1,0.010039,-0.005020,0.008760*
%
%ADD13ROUNDEDRECTD13*%
G04:AMPARAMS|DCode=14|XSize=22.047mil|YSize=20.079mil|CornerRadius=5.02mil|HoleSize=0mil|Usage=FLASHONLY|Rotation=180.000|XOffset=0mil|YOffset=0mil|HoleType=Round|Shape=RoundedRectangle|*
%AMROUNDEDRECTD14*
21,1,0.022047,0.010040,0,0,180.0*
21,1,0.012008,0.020079,0,0,180.0*
1,1,0.010039,-0.006004,0.005020*
1,1,0.010039,0.006004,0.005020*
1,1,0.010039,0.006004,-0.005020*
1,1,0.010039,-0.006004,-0.005020*
%
%ADD14ROUNDEDRECTD14*%
G04:AMPARAMS|DCode=15|XSize=25.591mil|YSize=15.748mil|CornerRadius=3.937mil|HoleSize=0mil|Usage=FLASHONLY|Rotation=180.000|XOffset=0mil|YOffset=0mil|HoleType=Round|Shape=RoundedRectangle|*
%AMROUNDEDRECTD15*
21,1,0.025591,0.007874,0,0,180.0*
21,1,0.017717,0.015748,0,0,180.0*
1,1,0.007874,-0.008858,0.003937*
1,1,0.007874,0.008858,0.003937*
1,1,0.007874,0.008858,-0.003937*
1,1,0.007874,-0.008858,-0.003937*
%
%ADD15ROUNDEDRECTD15*%
G04:AMPARAMS|DCode=16|XSize=25.591mil|YSize=11.811mil|CornerRadius=2.953mil|HoleSize=0mil|Usage=FLASHONLY|Rotation=180.000|XOffset=0mil|YOffset=0mil|HoleType=Round|Shape=RoundedRectangle|*
%AMROUNDEDRECTD16*
21,1,0.025591,0.005905,0,0,180.0*
21,1,0.019685,0.011811,0,0,180.0*
1,1,0.005906,-0.009842,0.002953*
1,1,0.005906,0.009842,0.002953*
1,1,0.005906,0.009842,-0.002953*
1,1,0.005906,-0.009842,-0.002953*
%
%ADD16ROUNDEDRECTD16*%
G04:AMPARAMS|DCode=17|XSize=25.591mil|YSize=19.685mil|CornerRadius=1.968mil|HoleSize=0mil|Usage=FLASHONLY|Rotation=90.000|XOffset=0mil|YOffset=0mil|HoleType=Round|Shape=RoundedRectangle|*
%AMROUNDEDRECTD17*
21,1,0.025591,0.015748,0,0,90.0*
21,1,0.021654,0.019685,0,0,90.0*
1,1,0.003937,0.007874,0.010827*
1,1,0.003937,0.007874,-0.010827*
1,1,0.003937,-0.007874,-0.010827*
1,1,0.003937,-0.007874,0.010827*
%
%ADD17ROUNDEDRECTD17*%
%ADD18R,0.021654X0.015748*%
G04:AMPARAMS|DCode=19|XSize=27.559mil|YSize=20.079mil|CornerRadius=5.02mil|HoleSize=0mil|Usage=FLASHONLY|Rotation=180.000|XOffset=0mil|YOffset=0mil|HoleType=Round|Shape=RoundedRectangle|*
%AMROUNDEDRECTD19*
21,1,0.027559,0.010040,0,0,180.0*
21,1,0.017520,0.020079,0,0,180.0*
1,1,0.010039,-0.008760,0.005020*
1,1,0.010039,0.008760,0.005020*
1,1,0.010039,0.008760,-0.005020*
1,1,0.010039,-0.008760,-0.005020*
%
%ADD19ROUNDEDRECTD19*%
G04:AMPARAMS|DCode=20|XSize=15.748mil|YSize=25.591mil|CornerRadius=1.968mil|HoleSize=0mil|Usage=FLASHONLY|Rotation=180.000|XOffset=0mil|YOffset=0mil|HoleType=Round|Shape=RoundedRectangle|*
%AMROUNDEDRECTD20*
21,1,0.015748,0.021654,0,0,180.0*
21,1,0.011811,0.025591,0,0,180.0*
1,1,0.003937,-0.005906,0.010827*
1,1,0.003937,0.005906,0.010827*
1,1,0.003937,0.005906,-0.010827*
1,1,0.003937,-0.005906,-0.010827*
%
%ADD20ROUNDEDRECTD20*%
G04:AMPARAMS|DCode=21|XSize=22.047mil|YSize=20.079mil|CornerRadius=5.02mil|HoleSize=0mil|Usage=FLASHONLY|Rotation=90.000|XOffset=0mil|YOffset=0mil|HoleType=Round|Shape=RoundedRectangle|*
%AMROUNDEDRECTD21*
21,1,0.022047,0.010040,0,0,90.0*
21,1,0.012008,0.020079,0,0,90.0*
1,1,0.010039,0.005020,0.006004*
1,1,0.010039,0.005020,-0.006004*
1,1,0.010039,-0.005020,-0.006004*
1,1,0.010039,-0.005020,0.006004*
%
%ADD21ROUNDEDRECTD21*%
%ADD22R,0.039370X0.013000*%
%ADD23R,0.013000X0.039370*%
%ADD24R,0.059055X0.059055*%
%ADD25R,0.185039X0.185039*%
%ADD26O,0.037402X0.009842*%
%ADD27O,0.009842X0.037402*%
G04:AMPARAMS|DCode=28|XSize=9.842mil|YSize=25.591mil|CornerRadius=1.23mil|HoleSize=0mil|Usage=FLASHONLY|Rotation=0.000|XOffset=0mil|YOffset=0mil|HoleType=Round|Shape=RoundedRectangle|*
%AMROUNDEDRECTD28*
21,1,0.009842,0.023130,0,0,0.0*
21,1,0.007382,0.025591,0,0,0.0*
1,1,0.002461,0.003691,-0.011565*
1,1,0.002461,-0.003691,-0.011565*
1,1,0.002461,-0.003691,0.011565*
1,1,0.002461,0.003691,0.011565*
%
%ADD28ROUNDEDRECTD28*%
G04:AMPARAMS|DCode=29|XSize=9.842mil|YSize=25.591mil|CornerRadius=1.23mil|HoleSize=0mil|Usage=FLASHONLY|Rotation=90.000|XOffset=0mil|YOffset=0mil|HoleType=Round|Shape=RoundedRectangle|*
%AMROUNDEDRECTD29*
21,1,0.009842,0.023130,0,0,90.0*
21,1,0.007382,0.025591,0,0,90.0*
1,1,0.002461,0.011565,0.003691*
1,1,0.002461,0.011565,-0.003691*
1,1,0.002461,-0.011565,-0.003691*
1,1,0.002461,-0.011565,0.003691*
%
%ADD29ROUNDEDRECTD29*%
G04:AMPARAMS|DCode=30|XSize=9.449mil|YSize=17.716mil|CornerRadius=2.362mil|HoleSize=0mil|Usage=FLASHONLY|Rotation=180.000|XOffset=0mil|YOffset=0mil|HoleType=Round|Shape=RoundedRectangle|*
%AMROUNDEDRECTD30*
21,1,0.009449,0.012992,0,0,180.0*
21,1,0.004724,0.017716,0,0,180.0*
1,1,0.004724,-0.002362,0.006496*
1,1,0.004724,0.002362,0.006496*
1,1,0.004724,0.002362,-0.006496*
1,1,0.004724,-0.002362,-0.006496*
%
%ADD30ROUNDEDRECTD30*%
G04:AMPARAMS|DCode=31|XSize=19.685mil|YSize=18.504mil|CornerRadius=4.626mil|HoleSize=0mil|Usage=FLASHONLY|Rotation=180.000|XOffset=0mil|YOffset=0mil|HoleType=Round|Shape=RoundedRectangle|*
%AMROUNDEDRECTD31*
21,1,0.019685,0.009252,0,0,180.0*
21,1,0.010433,0.018504,0,0,180.0*
1,1,0.009252,-0.005216,0.004626*
1,1,0.009252,0.005216,0.004626*
1,1,0.009252,0.005216,-0.004626*
1,1,0.009252,-0.005216,-0.004626*
%
%ADD31ROUNDEDRECTD31*%
G04:AMPARAMS|DCode=32|XSize=39.37mil|YSize=35.433mil|CornerRadius=4.429mil|HoleSize=0mil|Usage=FLASHONLY|Rotation=90.000|XOffset=0mil|YOffset=0mil|HoleType=Round|Shape=RoundedRectangle|*
%AMROUNDEDRECTD32*
21,1,0.039370,0.026575,0,0,90.0*
21,1,0.030512,0.035433,0,0,90.0*
1,1,0.008858,0.013287,0.015256*
1,1,0.008858,0.013287,-0.015256*
1,1,0.008858,-0.013287,-0.015256*
1,1,0.008858,-0.013287,0.015256*
%
%ADD32ROUNDEDRECTD32*%
G04:AMPARAMS|DCode=33|XSize=25.591mil|YSize=15.748mil|CornerRadius=3.937mil|HoleSize=0mil|Usage=FLASHONLY|Rotation=90.000|XOffset=0mil|YOffset=0mil|HoleType=Round|Shape=RoundedRectangle|*
%AMROUNDEDRECTD33*
21,1,0.025591,0.007874,0,0,90.0*
21,1,0.017717,0.015748,0,0,90.0*
1,1,0.007874,0.003937,0.008858*
1,1,0.007874,0.003937,-0.008858*
1,1,0.007874,-0.003937,-0.008858*
1,1,0.007874,-0.003937,0.008858*
%
%ADD33ROUNDEDRECTD33*%
G04:AMPARAMS|DCode=34|XSize=25.591mil|YSize=11.811mil|CornerRadius=2.953mil|HoleSize=0mil|Usage=FLASHONLY|Rotation=90.000|XOffset=0mil|YOffset=0mil|HoleType=Round|Shape=RoundedRectangle|*
%AMROUNDEDRECTD34*
21,1,0.025591,0.005905,0,0,90.0*
21,1,0.019685,0.011811,0,0,90.0*
1,1,0.005906,0.002953,0.009842*
1,1,0.005906,0.002953,-0.009842*
1,1,0.005906,-0.002953,-0.009842*
1,1,0.005906,-0.002953,0.009842*
%
%ADD34ROUNDEDRECTD34*%
%ADD35R,0.015748X0.015748*%
%ADD36C,0.039370*%
%TA.AperFunction,Conductor*%
%ADD37C,0.008000*%
%ADD38C,0.005000*%
%ADD39C,0.019685*%
%ADD40C,0.015750*%
%ADD41C,0.010000*%
%ADD42C,0.019680*%
%ADD43C,0.012000*%
%ADD44C,0.015000*%
%ADD45C,0.009240*%
%ADD46C,0.013780*%
%ADD47C,0.009840*%
%ADD48C,0.020000*%
%ADD49C,0.019000*%
%ADD50C,0.011810*%
%ADD51C,0.019080*%
%ADD52C,0.025000*%
%ADD53C,0.006000*%
%ADD54C,0.007870*%
%ADD55C,0.009842*%
%ADD56C,0.022050*%
%ADD57C,0.008840*%
%ADD58C,0.014750*%
%ADD59C,0.005910*%
%ADD60C,0.010810*%
%TA.AperFunction,NonConductor*%
%ADD61C,0.010000*%
%TA.AperFunction,ComponentPad*%
%ADD62C,0.040000*%
G04:AMPARAMS|DCode=63|XSize=31.496mil|YSize=70.866mil|CornerRadius=7.874mil|HoleSize=0mil|Usage=FLASHONLY|Rotation=270.000|XOffset=0mil|YOffset=0mil|HoleType=Round|Shape=RoundedRectangle|*
%AMROUNDEDRECTD63*
21,1,0.031496,0.055118,0,0,270.0*
21,1,0.015748,0.070866,0,0,270.0*
1,1,0.015748,-0.027559,-0.007874*
1,1,0.015748,-0.027559,0.007874*
1,1,0.015748,0.027559,0.007874*
1,1,0.015748,0.027559,-0.007874*
%
%ADD63ROUNDEDRECTD63*%
%TA.AperFunction,ViaPad*%
%ADD64C,0.165000*%
%ADD65C,0.017716*%
D10*
X661694Y372800D02*
D03*
Y353116D02*
D03*
Y333430D02*
D03*
Y313746D02*
D03*
X773504D02*
D03*
Y333430D02*
D03*
Y353116D02*
D03*
Y372800D02*
D03*
X661694Y512405D02*
D03*
Y492721D02*
D03*
Y473035D02*
D03*
Y453351D02*
D03*
X773504D02*
D03*
Y473035D02*
D03*
Y492721D02*
D03*
Y512405D02*
D03*
D11*
X717600Y343274D02*
D03*
Y482879D02*
D03*
D12*
X109598Y583693D02*
D03*
X147000Y670307D02*
D03*
X184402Y583693D02*
D03*
D13*
X205713Y1094058D02*
D03*
X241146D02*
D03*
Y1049068D02*
D03*
X205713D02*
D03*
X280703Y954058D02*
D03*
X316136D02*
D03*
X721146Y829058D02*
D03*
X685713D02*
D03*
X482286Y38468D02*
D03*
X446853D02*
D03*
X478346Y505908D02*
D03*
X442913D02*
D03*
X656573Y410198D02*
D03*
X692006D02*
D03*
X165547Y528023D02*
D03*
X130114D02*
D03*
D14*
X783424Y1021341D02*
D03*
Y1056774D02*
D03*
X648424Y1046770D02*
D03*
Y1011337D02*
D03*
X66924Y594490D02*
D03*
Y559057D02*
D03*
X618434Y336346D02*
D03*
Y371779D02*
D03*
X68894Y795277D02*
D03*
Y830710D02*
D03*
X53424Y871337D02*
D03*
Y906769D02*
D03*
X431000Y843716D02*
D03*
Y808284D02*
D03*
X523424Y826779D02*
D03*
Y791346D02*
D03*
X558424D02*
D03*
Y826779D02*
D03*
X397414Y547769D02*
D03*
Y512337D02*
D03*
X469000Y808284D02*
D03*
Y843716D02*
D03*
X775584Y875986D02*
D03*
Y911419D02*
D03*
X178424Y881346D02*
D03*
Y916779D02*
D03*
X647634Y875986D02*
D03*
Y911419D02*
D03*
X66924Y444887D02*
D03*
Y480320D02*
D03*
D15*
X610233Y33467D02*
D03*
Y96459D02*
D03*
X566926Y33467D02*
D03*
Y96459D02*
D03*
D16*
X610233Y74805D02*
D03*
Y55120D02*
D03*
X566926D02*
D03*
Y74805D02*
D03*
D17*
X593424Y498612D02*
D03*
Y569478D02*
D03*
D18*
X740004Y1009378D02*
D03*
Y1029064D02*
D03*
Y1048748D02*
D03*
X686854D02*
D03*
Y1009378D02*
D03*
X737204Y872048D02*
D03*
Y891734D02*
D03*
Y911418D02*
D03*
X684054D02*
D03*
Y872048D02*
D03*
X141024Y867048D02*
D03*
Y886734D02*
D03*
Y906418D02*
D03*
X87874D02*
D03*
Y867048D02*
D03*
D19*
X768424Y606346D02*
D03*
Y641779D02*
D03*
X66924Y665360D02*
D03*
Y629927D02*
D03*
X573000Y621284D02*
D03*
Y656716D02*
D03*
D20*
X100394Y1150597D02*
D03*
X151575D02*
D03*
Y1069889D02*
D03*
X125984D02*
D03*
X100394D02*
D03*
D21*
X350713Y954058D02*
D03*
X386146D02*
D03*
X500703Y949058D02*
D03*
X536136D02*
D03*
X646146Y609068D02*
D03*
X610713D02*
D03*
X743188Y410198D02*
D03*
X778621D02*
D03*
X366886Y469478D02*
D03*
X331453D02*
D03*
X311026Y84648D02*
D03*
X275593D02*
D03*
X479408Y470478D02*
D03*
X514841D02*
D03*
X507873Y505908D02*
D03*
X543306D02*
D03*
X743188Y553748D02*
D03*
X778621D02*
D03*
X446851Y470478D02*
D03*
X411418D02*
D03*
X389768Y84648D02*
D03*
X425201D02*
D03*
X390541Y35438D02*
D03*
X355108D02*
D03*
X580703Y454058D02*
D03*
X616136D02*
D03*
D22*
X76383Y124020D02*
D03*
Y143706D02*
D03*
Y163390D02*
D03*
Y183076D02*
D03*
X195265D02*
D03*
Y163390D02*
D03*
Y143706D02*
D03*
Y124020D02*
D03*
D23*
X66930Y237804D02*
D03*
X86616D02*
D03*
X106300D02*
D03*
X125986D02*
D03*
X145670D02*
D03*
Y392120D02*
D03*
X125986D02*
D03*
X106300D02*
D03*
X86616D02*
D03*
X66930D02*
D03*
X165356Y237804D02*
D03*
X185040D02*
D03*
X165356Y392120D02*
D03*
X185040D02*
D03*
D24*
X228348Y738190D02*
D03*
X90552D02*
D03*
D25*
X419292Y275592D02*
D03*
D26*
X286418Y167324D02*
D03*
Y187008D02*
D03*
Y206694D02*
D03*
Y226378D02*
D03*
Y246064D02*
D03*
Y265748D02*
D03*
Y285434D02*
D03*
Y305120D02*
D03*
Y324804D02*
D03*
Y344490D02*
D03*
Y364174D02*
D03*
Y383860D02*
D03*
X552166D02*
D03*
Y364174D02*
D03*
Y344490D02*
D03*
Y324804D02*
D03*
Y305120D02*
D03*
Y285434D02*
D03*
Y265748D02*
D03*
Y246064D02*
D03*
Y226378D02*
D03*
Y206694D02*
D03*
Y187008D02*
D03*
Y167324D02*
D03*
D27*
X311024Y408466D02*
D03*
X330710D02*
D03*
X350394D02*
D03*
X370080D02*
D03*
X389764D02*
D03*
X409450D02*
D03*
X429134D02*
D03*
X448820D02*
D03*
X468504D02*
D03*
X488190D02*
D03*
X507874D02*
D03*
X527560D02*
D03*
Y142718D02*
D03*
X507874D02*
D03*
X488190D02*
D03*
X468504D02*
D03*
X448820D02*
D03*
X429134D02*
D03*
X409450D02*
D03*
X389764D02*
D03*
X370080D02*
D03*
X350394D02*
D03*
X330710D02*
D03*
X311024D02*
D03*
D28*
X458663Y732284D02*
D03*
X438977D02*
D03*
X419293D02*
D03*
X399607D02*
D03*
X379923D02*
D03*
Y594490D02*
D03*
X399607D02*
D03*
X419293D02*
D03*
X438977D02*
D03*
X458663D02*
D03*
D29*
X354331Y633860D02*
D03*
Y653544D02*
D03*
Y673230D02*
D03*
Y692914D02*
D03*
Y712600D02*
D03*
Y732284D02*
D03*
Y614174D02*
D03*
Y594490D02*
D03*
X484253Y732284D02*
D03*
Y712600D02*
D03*
Y594490D02*
D03*
Y614174D02*
D03*
Y633860D02*
D03*
Y653544D02*
D03*
Y673230D02*
D03*
Y692914D02*
D03*
D30*
X425197Y1103347D02*
D03*
X440945D02*
D03*
X456693D02*
D03*
X472442D02*
D03*
X488190D02*
D03*
X503938D02*
D03*
X519686D02*
D03*
X409450D02*
D03*
X393702D02*
D03*
X377954D02*
D03*
X362205D02*
D03*
X346457D02*
D03*
X425197Y1010827D02*
D03*
X440945D02*
D03*
X456693D02*
D03*
X472442D02*
D03*
X488190D02*
D03*
X503938D02*
D03*
X519686D02*
D03*
X409450D02*
D03*
X393702D02*
D03*
X377954D02*
D03*
X362205D02*
D03*
X346457D02*
D03*
D31*
X316930Y1012009D02*
D03*
Y1102167D02*
D03*
X549213D02*
D03*
Y1012009D02*
D03*
D32*
X192914Y816930D02*
D03*
X125986D02*
D03*
D33*
X116143Y440950D02*
D03*
X179136D02*
D03*
X116143Y484257D02*
D03*
X179136D02*
D03*
X167326Y74806D02*
D03*
X104333D02*
D03*
X167326Y31500D02*
D03*
X104333D02*
D03*
D34*
X157482Y440950D02*
D03*
X137797D02*
D03*
Y484257D02*
D03*
X157482D02*
D03*
X125987Y74806D02*
D03*
X145672D02*
D03*
Y31500D02*
D03*
X125987D02*
D03*
D35*
X267715Y609047D02*
D03*
Y585425D02*
D03*
X244093D02*
D03*
Y609047D02*
D03*
D36*
X237000Y43000D02*
D03*
X47244Y1161417D02*
D03*
X778424D02*
D03*
D37*
X488190Y1010827D02*
X488914Y1011551D01*
Y1023651D01*
X496558Y1031295D01*
Y1033925D01*
X362424Y1079058D02*
X370424D01*
X338424Y1080058D02*
Y1087058D01*
X346454Y1095088D01*
Y1103348D01*
X519684Y1023318D02*
X530424Y1034058D01*
X519684Y1010828D02*
Y1023318D01*
X370424Y1079058D02*
X377954Y1086588D01*
Y1103348D01*
D38*
X181424Y355058D02*
Y388504D01*
Y354282D02*
Y355058D01*
X76383Y183076D02*
X102197D01*
X107577Y188456D01*
X111000D01*
X181424Y388504D02*
X185040Y392120D01*
X185034D02*
Y415428D01*
X157484Y422307D02*
Y440948D01*
Y422307D02*
X160413Y419378D01*
X181084D01*
X185034Y415428D01*
X296352Y456604D02*
X330710Y422245D01*
X296352Y456604D02*
Y466986D01*
X330710Y408466D02*
Y422245D01*
X350394Y408468D02*
Y421098D01*
X313624Y457868D02*
Y472848D01*
Y457868D02*
X350394Y421098D01*
X297766Y535700D02*
X322837Y560771D01*
X573000Y621284D02*
X574358Y619925D01*
Y597000D02*
Y619925D01*
X515716Y621284D02*
X573000D01*
X503140Y633860D02*
X515716Y621284D01*
X484253Y633860D02*
X503140D01*
X219424Y277058D02*
X230734Y265748D01*
X286424D01*
X558000Y738866D02*
Y746709D01*
X557642Y747067D02*
X558000Y746709D01*
X531734Y712600D02*
X558000Y738866D01*
X484253Y712600D02*
X531734D01*
X393704Y1103348D02*
Y1124058D01*
X66924Y594488D02*
Y629928D01*
X527642Y693000D02*
X590642Y756000D01*
X590821D02*
X611000Y776179D01*
Y824758D01*
X590642Y756000D02*
X590821D01*
X484339Y693000D02*
X527642D01*
X568000Y708000D02*
X590642D01*
X409444Y999948D02*
Y1010827D01*
Y1030078D01*
X559358Y772358D02*
X587067D01*
X544000Y757000D02*
X559358Y772358D01*
X507406Y865406D02*
X548527D01*
X599000Y814933D01*
Y784291D02*
Y814933D01*
X587067Y772358D02*
X599000Y784291D01*
X557758Y878000D02*
X611000Y824758D01*
X533000Y673000D02*
X568000Y708000D01*
X165354Y204058D02*
Y309058D01*
X157484Y120078D02*
Y125988D01*
Y104336D02*
Y120078D01*
X610234Y96458D02*
Y108248D01*
X601424Y117058D02*
X610234Y108248D01*
X585584Y919058D02*
X625000Y958474D01*
X37814Y629928D02*
X66924D01*
X29554Y638188D02*
X37814Y629928D01*
X489378Y878000D02*
X557758D01*
X715162Y835042D02*
X721146Y829058D01*
X715000Y842827D02*
Y855000D01*
Y842827D02*
X715162Y842666D01*
Y835042D02*
Y842666D01*
X726674Y866674D02*
X731830D01*
X715000Y855000D02*
X715000D01*
X726674Y866674D01*
X731830D02*
X737204Y872048D01*
X745064Y449658D02*
X748754Y453348D01*
X749414D01*
X745433Y350433D02*
X770822D01*
X773504Y353116D01*
X734424Y339424D02*
X745433Y350433D01*
X734424Y308058D02*
Y339424D01*
X746424Y328290D02*
X751562Y333428D01*
X746424Y296058D02*
Y328290D01*
X751562Y333428D02*
X773504D01*
X673309Y372800D02*
X680635Y380127D01*
X661694Y372800D02*
X673309D01*
X680635Y380127D02*
X685596D01*
X688029Y382560D01*
X527564Y575481D02*
Y588436D01*
X501822Y614178D02*
X527564Y588436D01*
Y575481D02*
X543045Y560000D01*
X507874Y423556D02*
X510296Y425977D01*
X533301Y449334D02*
X536459Y452493D01*
X493924Y435558D02*
X504424Y446058D01*
X510296Y426329D02*
X533301Y449334D01*
X507874Y408468D02*
Y423556D01*
X510296Y425977D02*
Y426329D01*
X533301Y449334D02*
X533301D01*
X536459Y452493D02*
X542859D01*
X297766Y488706D02*
X313624Y472848D01*
X297766Y488706D02*
Y535700D01*
X455800Y534258D02*
X486284D01*
X481279Y564000D02*
X489000D01*
X511456Y653544D02*
X527000Y638000D01*
X458663Y586616D02*
X481279Y564000D01*
X475260Y435384D02*
X477693Y437817D01*
X475260Y428076D02*
Y435384D01*
X468504Y421320D02*
X475260Y428076D01*
X493924Y429558D02*
Y435558D01*
X488194Y423828D02*
X493924Y429558D01*
X409363Y408559D02*
X409454Y408468D01*
X409363Y408559D02*
Y437893D01*
X409276Y437980D02*
X409363Y437893D01*
X390000Y408702D02*
Y478716D01*
X498000Y757000D02*
X544000D01*
X362204Y1103348D02*
Y1124058D01*
X327000Y742000D02*
X336712Y732288D01*
X301000Y728000D02*
X317724D01*
X333124Y712600D01*
X336712Y732288D02*
X354324D01*
X543045Y560000D02*
X556000D01*
X574924Y541076D01*
X511206Y562794D02*
X524000Y550000D01*
X511206Y562794D02*
Y585286D01*
X502002Y594490D02*
X511206Y585286D01*
X294424Y615558D02*
X308324Y629458D01*
X285924Y547558D02*
X310924Y572558D01*
Y592558D01*
X332544Y614178D01*
X322837Y560771D02*
Y575481D01*
X341844Y594488D01*
X354324D01*
X502000Y860000D02*
X507406Y865406D01*
X546035Y895368D02*
X546125Y895458D01*
X562194D01*
X454226Y913152D02*
X489378Y878000D01*
X284424Y634548D02*
X306670Y656794D01*
X308674D01*
X454224Y916779D02*
X454226Y916778D01*
Y913152D02*
Y916778D01*
X454224Y916779D02*
Y932758D01*
X333124Y712600D02*
X354331D01*
X300716Y728000D02*
X301000D01*
X215224Y642508D02*
X300716Y728000D01*
X215224Y475488D02*
Y642508D01*
X287216Y691366D02*
X287216D01*
X305429Y673152D01*
X354253D01*
X354331Y673230D01*
X484483Y673000D02*
X533000D01*
X739714Y606348D02*
X791564D01*
X484253Y743253D02*
X498000Y757000D01*
X484253Y732284D02*
Y743253D01*
Y692914D02*
X484339Y693000D01*
X484253Y673230D02*
X484483Y673000D01*
X574924Y493558D02*
Y541076D01*
X484254Y614178D02*
X501822D01*
X564424Y498058D02*
Y537434D01*
X524000Y550000D02*
X551858D01*
X564424Y537434D01*
X484253Y594490D02*
X502002D01*
X484253Y653544D02*
X511456D01*
X542859Y452493D02*
X551524Y461158D01*
Y485158D01*
X562124Y456948D02*
Y480758D01*
X574924Y493558D01*
X551524Y485158D02*
X564424Y498058D01*
X527564Y422388D02*
X562124Y456948D01*
X458663Y586616D02*
Y594490D01*
X438974Y551084D02*
X455800Y534258D01*
X419140Y531774D02*
X419140Y531775D01*
Y594334D01*
X419294Y594488D01*
X438974Y551084D02*
Y594488D01*
X334066Y542300D02*
X379924Y588158D01*
X334066Y516182D02*
Y542300D01*
Y516182D02*
X343790Y506458D01*
X362259D01*
X285924Y479858D02*
Y547558D01*
X275324Y487148D02*
Y551758D01*
X265024Y492288D02*
Y555648D01*
X279424Y473358D02*
X285924Y479858D01*
X279424Y457068D02*
Y473358D01*
X269374Y453008D02*
Y481198D01*
X258924Y457488D02*
Y486188D01*
X249194Y447758D02*
X258924Y457488D01*
X248724Y462288D02*
Y492148D01*
X239194Y452758D02*
X248724Y462288D01*
X254224Y497648D02*
Y560958D01*
X244094Y504928D02*
Y585428D01*
X236924Y497758D02*
X244094Y504928D01*
X294424Y570858D02*
Y615558D01*
X275324Y551758D02*
X294424Y570858D01*
X284424Y575048D02*
Y634548D01*
X265024Y555648D02*
X284424Y575048D01*
X279424Y457068D02*
X311024Y425468D01*
X259224Y399138D02*
Y442858D01*
X249194Y386638D02*
Y447758D01*
X239194Y376948D02*
Y452758D01*
X229194Y330078D02*
Y457858D01*
X219194Y319878D02*
Y464718D01*
X209194Y311688D02*
Y469458D01*
X192914Y440948D02*
X199194Y434668D01*
Y342898D02*
Y434668D01*
X259224Y442858D02*
X269374Y453008D01*
X236924Y465588D02*
Y497758D01*
X229194Y457858D02*
X236924Y465588D01*
X225724Y471248D02*
Y604358D01*
X219194Y464718D02*
X225724Y471248D01*
X209194Y469458D02*
X215224Y475488D01*
X125984Y392120D02*
Y419618D01*
Y364561D02*
Y392120D01*
X112924Y354558D02*
X115982D01*
X125984Y364561D01*
X167324Y74808D02*
Y94496D01*
X157484Y104336D02*
X167324Y94496D01*
X153424Y340424D02*
Y357126D01*
X148678Y335678D02*
X153424Y340424D01*
X95644Y335678D02*
X148678D01*
X686774Y512408D02*
X693424Y519058D01*
X441555Y1123251D02*
X443135Y1124830D01*
X440945Y1103347D02*
X441555Y1103957D01*
Y1123251D01*
X465757Y1143757D02*
X479000Y1157000D01*
X465757Y1123450D02*
Y1143757D01*
X324000Y1062000D02*
X446000D01*
X457000Y1051000D01*
Y1011134D02*
Y1051000D01*
X456693Y1010827D02*
X457000Y1011134D01*
X472933Y1033434D02*
X473424Y1033925D01*
X472933Y1011318D02*
Y1033434D01*
X423000Y1073000D02*
X537000D01*
X410000Y1086000D02*
X423000Y1073000D01*
X537000D02*
X567066Y1042934D01*
X410000Y1086000D02*
Y1102796D01*
X567066Y1002870D02*
Y1042934D01*
X561424Y997229D02*
X567066Y1002870D01*
X561424Y982058D02*
Y997229D01*
X470217Y1105571D02*
X472442Y1103347D01*
X470217Y1105571D02*
Y1118991D01*
X465757Y1123450D02*
X470217Y1118991D01*
X292000Y1030000D02*
X324000Y1062000D01*
X344224Y1051058D02*
X421424D01*
X330624Y1037458D02*
X344224Y1051058D01*
X421424D02*
X440944Y1031538D01*
X378424Y1034058D02*
X393704Y1018778D01*
Y1010828D02*
Y1018778D01*
X292000Y1003082D02*
Y1030000D01*
Y1003082D02*
X311024Y984058D01*
X479000Y1157000D02*
X554000D01*
X486284Y1138492D02*
X486296Y1138479D01*
Y1105240D02*
Y1138479D01*
X554000Y1157000D02*
X610000Y1101000D01*
Y1004634D02*
Y1101000D01*
X569226Y963860D02*
X610000Y1004634D01*
X562194Y895458D02*
X569226Y902490D01*
Y963860D01*
X425197Y1135585D02*
X458612Y1169000D01*
X563000D02*
X625000Y1107000D01*
X458612Y1169000D02*
X563000D01*
X625000Y958474D02*
Y1107000D01*
X521910Y1105571D02*
Y1111515D01*
X530000Y1119605D01*
Y1121000D01*
X519686Y1103347D02*
X521910Y1105571D01*
X503938Y1103347D02*
Y1125496D01*
X509000Y1130559D01*
Y1134000D01*
X486296Y1105240D02*
X488190Y1103347D01*
X425239Y996978D02*
X430000Y992217D01*
X425194Y1010828D02*
X425239Y1010783D01*
Y996978D02*
Y1010783D01*
X430000Y988776D02*
Y992217D01*
X413642Y973341D02*
Y995751D01*
Y973341D02*
X454224Y932758D01*
X409444Y999948D02*
X413642Y995751D01*
X425197Y1103347D02*
Y1135585D01*
X467568Y1085415D02*
X542585D01*
X583424Y1044576D01*
X458918Y1094065D02*
X467568Y1085415D01*
X583424Y1009058D02*
Y1044576D01*
X472442Y1010827D02*
X472933Y1011318D01*
X458918Y1094065D02*
Y1101123D01*
X456693Y1103347D02*
X458918Y1101123D01*
X409450Y1103347D02*
X410000Y1102796D01*
X741754Y265458D02*
X773504Y297208D01*
X495796Y87953D02*
X495901Y88058D01*
X496424D01*
X527564Y72436D02*
Y142718D01*
Y72436D02*
X530000Y70000D01*
X651424Y372798D02*
X661694D01*
X409444Y1030078D02*
X412424Y1033058D01*
X145664Y364886D02*
Y392118D01*
Y364886D02*
X153424Y357126D01*
X472424Y88058D02*
X488194Y103828D01*
Y142718D01*
X507874Y99508D02*
Y142718D01*
X496424Y88058D02*
X507874Y99508D01*
X609424Y394371D02*
Y427058D01*
X579228Y364174D02*
X609424Y394371D01*
X552166Y364174D02*
X579228D01*
X468504Y408466D02*
Y421320D01*
X389764Y408466D02*
X390000Y408702D01*
X362259Y506458D02*
X390000Y478716D01*
X308324Y629458D02*
X322767D01*
X327167Y633858D02*
X354324D01*
X322767Y629458D02*
X327167Y633858D01*
X327167Y658798D02*
X332421Y653544D01*
X308674Y658798D02*
X327167D01*
X332421Y653544D02*
X354331D01*
X647424Y401048D02*
X656574Y410198D01*
X647424Y376798D02*
Y401048D01*
X661694Y473038D02*
X684444D01*
X661694Y512408D02*
X686774D01*
X684444Y473038D02*
X693424Y464058D01*
X661694Y492718D02*
X693424D01*
X527564Y408468D02*
Y422388D01*
X440944Y1010828D02*
Y1031538D01*
X330714Y116768D02*
Y142718D01*
Y116768D02*
X333424Y114058D01*
X253424Y246068D02*
X286424D01*
X76384Y143708D02*
X102354D01*
X112174Y133888D01*
Y120078D02*
Y133888D01*
X228104Y226378D02*
X286424D01*
X225424Y229058D02*
X228104Y226378D01*
X274504Y383858D02*
X286424D01*
X259224Y399138D02*
X274504Y383858D01*
X269374Y481198D02*
X275324Y487148D01*
X552164Y324808D02*
X581774D01*
X429134Y115348D02*
Y142718D01*
Y115348D02*
X432424Y112058D01*
X791564Y606348D02*
X809724Y588188D01*
X686854Y333428D02*
X692874Y327408D01*
X661694Y333428D02*
X686854D01*
X311024Y408468D02*
Y425468D01*
X106294Y361188D02*
Y392118D01*
Y361188D02*
X112924Y354558D01*
X370084Y116148D02*
Y142718D01*
X368114Y114178D02*
X370084Y116148D01*
X581774Y285438D02*
X628154D01*
X637534Y276058D01*
X657724D01*
X682424Y300758D01*
X727124D01*
X734424Y308058D01*
X241144Y1005738D02*
Y1049068D01*
Y1005738D02*
X253424Y993458D01*
X647424Y376798D02*
X651424Y372798D01*
X209194Y311688D02*
X235444Y285438D01*
X286424D01*
X125634Y867048D02*
X141024D01*
X117824Y874858D02*
X125634Y867048D01*
X117824Y874858D02*
Y928158D01*
X552164Y305118D02*
X598424D01*
X610234Y55118D02*
X637424D01*
X271654Y344488D02*
X286424D01*
X239194Y376948D02*
X271654Y344488D01*
X248724Y492148D02*
X254224Y497648D01*
Y560958D02*
X267714Y574448D01*
Y585428D01*
X596924Y226378D02*
X615114Y244568D01*
X552164Y226378D02*
X596924D01*
X659234Y265458D02*
X741754D01*
X600424Y206648D02*
X659234Y265458D01*
X600424Y191058D02*
Y206648D01*
X590424Y181058D02*
X600424Y191058D01*
X582424Y181058D02*
X590424D01*
X241144Y1094058D02*
X258424D01*
X273424Y1079058D01*
Y1064058D02*
Y1079058D01*
X175194Y143708D02*
X195264D01*
X157484Y125988D02*
X175194Y143708D01*
X145664Y74808D02*
Y91808D01*
X140574Y96898D02*
X145664Y91808D01*
X140574Y96898D02*
Y138608D01*
X157484Y155518D01*
X379924Y588158D02*
Y594488D01*
X697504Y349378D02*
X698674D01*
X693764Y353118D02*
X697504Y349378D01*
X661694Y353118D02*
X693764D01*
X86614Y344708D02*
X95644Y335678D01*
X468504Y112208D02*
Y142718D01*
X116144Y438788D02*
Y440948D01*
X86614Y409258D02*
X116144Y438788D01*
X86614Y344708D02*
Y409258D01*
X246374Y187008D02*
X286424D01*
X233424Y174058D02*
X246374Y187008D01*
X552164Y246068D02*
X579434D01*
X581424Y248058D01*
X104334Y112238D02*
X112174Y120078D01*
X104334Y74808D02*
Y112238D01*
X488194Y408468D02*
Y423828D01*
X332544Y614178D02*
X354324D01*
X337424Y90058D02*
X350394Y103028D01*
Y142718D01*
X165354Y309058D02*
X199194Y342898D01*
X179134Y440948D02*
X192914D01*
X230414Y609048D02*
X244094D01*
X225724Y604358D02*
X230414Y609048D01*
X219194Y319878D02*
X233954Y305118D01*
X286424D01*
X611814Y265748D02*
X614924Y268858D01*
X552164Y265748D02*
X611814D01*
X271654Y364178D02*
X286424D01*
X249194Y386638D02*
X271654Y364178D01*
X258924Y486188D02*
X265024Y492288D01*
X124014Y269058D02*
X125984Y267088D01*
Y237808D02*
Y267088D01*
X633174Y74808D02*
X636424Y78058D01*
X610234Y74808D02*
X633174D01*
X552164Y285438D02*
X581774D01*
X229194Y330078D02*
X238514Y320758D01*
X263814D01*
X267864Y324808D01*
X286424D01*
X86614Y204058D02*
Y237808D01*
X76384Y163388D02*
X106304D01*
X114174Y155518D01*
X137794Y431428D02*
Y440948D01*
X125984Y419618D02*
X137794Y431428D01*
X251424Y155058D02*
X263694Y167328D01*
X286424D01*
X255424Y206698D02*
X286424D01*
X125984Y74808D02*
Y96608D01*
X129034Y99658D01*
Y140648D01*
X114174Y155518D02*
X129034Y140648D01*
X610234Y33468D02*
X718834D01*
X732424Y47058D01*
X717724Y528458D02*
Y584358D01*
X739714Y606348D01*
X157484Y155518D02*
X165354Y163388D01*
X195264D01*
D39*
X184402Y583693D02*
X185034Y584326D01*
Y629458D01*
X165547Y528023D02*
X165744Y528220D01*
Y557161D01*
X184402Y575819D01*
Y583693D01*
D40*
X233724Y636158D02*
X258124D01*
X267714Y609048D02*
Y626568D01*
X258124Y636158D02*
X267714Y626568D01*
X641734Y911418D02*
X684054D01*
X425204Y59058D02*
Y84648D01*
D41*
X127719Y525628D02*
X130114Y528023D01*
X105000Y525628D02*
X127719D01*
X66924Y665358D02*
X92124D01*
X98424Y659058D01*
X130114Y528023D02*
Y555303D01*
X109598Y575819D02*
X130114Y555303D01*
X109598Y575819D02*
Y583693D01*
X559131Y99333D02*
X562006Y96458D01*
X547000Y112000D02*
Y112000D01*
X559131Y99333D02*
Y99869D01*
X566924Y33468D02*
Y96458D01*
X547000Y112000D02*
X559131Y99869D01*
X146581Y909292D02*
Y920775D01*
X141024Y906418D02*
X143707D01*
X146581Y909292D01*
Y920775D02*
X156297Y930492D01*
X183424Y1094058D02*
X205714D01*
X183424Y1049068D02*
X205714D01*
X308000Y704000D02*
X308000D01*
X319086Y692914D01*
X354331D01*
X370993Y692993D02*
X379844Y701844D01*
X354410Y692993D02*
X370993D01*
X379844Y701844D02*
Y732205D01*
X379923Y732284D01*
X354331Y692914D02*
X354410Y692993D01*
X500704Y949058D02*
X506024Y954378D01*
X537401Y771307D02*
X557440Y791346D01*
X489969Y771307D02*
X537401D01*
X458663Y740001D02*
X489969Y771307D01*
X458663Y732284D02*
Y740001D01*
X557440Y791346D02*
X558424D01*
X353221Y983039D02*
X362205Y992024D01*
X353221Y982082D02*
Y983039D01*
X366884Y470478D02*
X370084Y467278D01*
X156297Y930492D02*
X157508D01*
X562006Y96458D02*
X566924D01*
X389764Y84651D02*
Y142718D01*
Y84651D02*
X389768Y84648D01*
X448820Y439554D02*
X473733Y464467D01*
X474370D01*
X479408Y469505D01*
Y470478D01*
X479404Y469501D02*
X479408Y469505D01*
Y470478D01*
X448820Y408466D02*
Y439554D01*
X429134Y408466D02*
Y451767D01*
X446851Y469483D01*
Y470478D01*
X370084Y422167D02*
Y467278D01*
X377954Y974669D02*
X386144Y966478D01*
X377954Y974669D02*
Y1010827D01*
X362205Y992024D02*
Y1010827D01*
X316136Y954058D02*
Y957788D01*
X330294Y971946D02*
Y985855D01*
X316136Y957788D02*
X330294Y971946D01*
X346457Y1002018D02*
Y1010827D01*
X330294Y985855D02*
X346457Y1002018D01*
X63424Y504058D02*
X66924Y507558D01*
Y559058D01*
X526024Y33468D02*
X566924D01*
X521024Y38468D02*
X526024Y33468D01*
X482284Y38468D02*
X521024D01*
X66924Y237808D02*
Y269058D01*
X399604Y569238D02*
Y594488D01*
X93424Y444058D02*
Y474058D01*
X103624Y484258D01*
X116144D01*
X503934Y990948D02*
Y1010828D01*
Y990948D02*
X506024Y988858D01*
Y954378D02*
Y988858D01*
X763224Y989058D02*
X803424D01*
X742904Y1009378D02*
X763224Y989058D01*
X740004Y1009378D02*
X742904D01*
X185034Y237808D02*
Y275668D01*
X188424Y279058D01*
D42*
X147000Y670307D02*
Y765392D01*
X129321Y783071D02*
X147000Y765392D01*
X129321Y783071D02*
Y813591D01*
X125984Y816928D02*
X129321Y813591D01*
X355090Y35420D02*
X355108Y35438D01*
X334580Y35420D02*
X355090D01*
X328000Y42000D02*
X334580Y35420D01*
X311000Y67000D02*
X311024Y67024D01*
X619094Y911418D02*
X641734D01*
X90554Y692918D02*
Y783468D01*
X619094Y875988D02*
X647634D01*
X311024Y67024D02*
Y84648D01*
X66789Y480455D02*
Y500694D01*
X63424Y504058D02*
X66789Y500694D01*
Y480455D02*
X66924Y480320D01*
X775584Y852368D02*
Y875988D01*
Y911418D02*
X801064D01*
X803424Y909058D01*
X275594Y84648D02*
Y113348D01*
X192914Y773618D02*
X228344Y738188D01*
X192914Y773618D02*
Y816928D01*
X68894Y795278D02*
X78744D01*
X90554Y783468D01*
X618434Y318048D02*
X621424Y315058D01*
X618434Y318048D02*
Y336348D01*
D43*
X386144Y947438D02*
Y966478D01*
X692004Y410198D02*
X694806Y413000D01*
X718000D01*
X658424Y844058D02*
X670714D01*
X685714Y829058D01*
X768424Y641778D02*
Y664058D01*
X76384Y104058D02*
Y124018D01*
X195264Y183078D02*
Y204058D01*
X740004Y1048748D02*
X748914D01*
X756944Y1056778D01*
X386144Y947438D02*
X414524Y919058D01*
X737204Y911418D02*
X775584D01*
X740004Y1029058D02*
X760724D01*
X710624Y891738D02*
X737204D01*
X616844Y453348D02*
X661694D01*
X616134Y454058D02*
X616844Y453348D01*
X161944Y881348D02*
X178424D01*
X156554Y886738D02*
X161944Y881348D01*
X141024Y886738D02*
X156554D01*
X778624Y410198D02*
Y431058D01*
X777824Y431858D02*
X778624Y431058D01*
X195264Y124018D02*
X228424D01*
X388424Y85988D02*
X389764Y84648D01*
D44*
X331437Y470478D02*
X331454D01*
X326002Y491255D02*
Y491991D01*
X328913Y473002D02*
X331437Y470478D01*
X326002Y491255D02*
X328913Y488344D01*
Y473002D02*
Y488344D01*
X718000Y413000D02*
X741370D01*
X743184Y411186D01*
Y380668D02*
Y411186D01*
X542161Y507053D02*
X543306Y505908D01*
X542161Y507053D02*
Y531255D01*
X541642Y531775D02*
X542161Y531255D01*
X350424Y523426D02*
X352593D01*
X376934Y547768D01*
X355524Y490058D02*
X366884Y478698D01*
Y470478D02*
Y478698D01*
X397414Y500068D02*
Y512338D01*
Y500068D02*
X405424Y492058D01*
X558424Y791348D02*
X558566Y791207D01*
X582502D01*
X582642Y791067D01*
X616134Y454058D02*
Y471368D01*
X622724Y477958D01*
X468580Y865304D02*
X468790Y865094D01*
Y843927D02*
X469000Y843716D01*
X468790Y843927D02*
Y865094D01*
X523424Y826779D02*
Y849048D01*
X431000Y843716D02*
X469000D01*
X540766Y503369D02*
X543306Y505908D01*
X514841Y470478D02*
Y471462D01*
X540766Y497388D01*
Y503369D01*
X523424Y826779D02*
X558424D01*
X422424Y509058D02*
X425574Y505908D01*
X397414Y547768D02*
X399604Y549958D01*
X376934Y547768D02*
X397414D01*
X743184Y524288D02*
Y572898D01*
X104333Y31500D02*
X125987D01*
X39499D02*
X104333D01*
X646144Y609068D02*
Y634058D01*
X609309Y344488D02*
X617449Y336348D01*
X618434D01*
X590424Y344488D02*
X609309D01*
X479404Y469501D02*
Y504848D01*
X442913Y475400D02*
Y505908D01*
Y475400D02*
X446851Y471462D01*
Y470478D02*
Y471462D01*
X425574Y505908D02*
X442913D01*
X350713Y954058D02*
X353221Y956566D01*
Y982082D01*
X585424Y397868D02*
Y424058D01*
X778624Y553748D02*
Y573858D01*
X773024Y579458D02*
X778624Y573858D01*
X738524Y577558D02*
X743184Y572898D01*
Y524288D02*
X748564Y518908D01*
X68894Y830708D02*
X93424D01*
X188424Y39058D02*
Y99058D01*
X180864Y31498D02*
X188424Y39058D01*
X167324Y31498D02*
X180864D01*
X399604Y549958D02*
Y569238D01*
X411414Y470478D02*
Y485068D01*
X405424Y491058D02*
X411414Y485068D01*
X405424Y491058D02*
Y492058D01*
X478344Y505908D02*
X479404Y504848D01*
X311024Y84648D02*
Y117058D01*
X280704Y954058D02*
Y979058D01*
X275704Y984058D02*
X280704Y979058D01*
X178424Y881348D02*
X200714D01*
D45*
X465520Y804803D02*
X469000Y808284D01*
X419594Y746594D02*
X465520Y792520D01*
Y804803D01*
X399607Y732284D02*
Y749607D01*
X430826Y780826D02*
Y781174D01*
X399607Y749607D02*
X430826Y780826D01*
X481440Y786174D02*
X518252D01*
X438974Y743708D02*
X481440Y786174D01*
X518252D02*
X523424Y791346D01*
X419293Y732284D02*
X419594Y732585D01*
Y746594D01*
X438974Y732288D02*
Y743708D01*
D46*
X431000Y781348D02*
Y808284D01*
X430826Y781174D02*
X431000Y781348D01*
D47*
X125984Y1069888D02*
Y1101498D01*
X124503Y1102979D02*
X125984Y1101498D01*
X116144Y484258D02*
X157484D01*
X573814Y344488D02*
X590424D01*
X151574Y1150598D02*
Y1174058D01*
X311024Y117058D02*
Y142718D01*
X100394Y1150598D02*
Y1174058D01*
X66924Y392118D02*
Y444888D01*
X93424Y1099058D02*
X100394Y1092088D01*
Y1069888D02*
Y1092088D01*
X151574Y1041338D02*
Y1069888D01*
Y1041338D02*
X161414Y1031498D01*
D48*
X494756Y808244D02*
X495000Y808000D01*
X469039Y808244D02*
X494756D01*
X610714Y609069D02*
Y634058D01*
X610673Y609029D02*
X610714Y609069D01*
X573000Y656716D02*
Y687000D01*
X593424Y569478D02*
Y576314D01*
X610673Y593563D02*
Y609029D01*
X593424Y576314D02*
X610673Y593563D01*
X469000Y808284D02*
X469039Y808244D01*
X177440Y916779D02*
X178424D01*
X171851Y922369D02*
X177440Y916779D01*
X171851Y922369D02*
Y922576D01*
X163936Y930492D02*
X171851Y922576D01*
X157508Y930492D02*
X163936D01*
X650403Y1048748D02*
X686854D01*
X648424Y1046770D02*
X650403Y1048748D01*
X627424Y379785D02*
Y395058D01*
X618434Y371779D02*
X619419D01*
X627424Y379785D01*
D49*
X494174Y941545D02*
X500703Y948074D01*
X494174Y919008D02*
Y941545D01*
X580704Y471328D02*
X593424Y484048D01*
Y498608D01*
X580704Y454058D02*
Y471328D01*
X500703Y948074D02*
Y949058D01*
X536134Y931348D02*
X548424Y919058D01*
X536134Y931348D02*
Y949058D01*
X92594Y444888D02*
X93424Y444058D01*
X66924Y444888D02*
X92594D01*
X367424Y84648D02*
X389764D01*
X53424Y906768D02*
X73874D01*
X74224Y906418D01*
X585424Y424058D02*
Y449338D01*
X580704Y454058D02*
X585424Y449338D01*
D50*
X185934Y491058D02*
X197724D01*
X748564Y518908D02*
X755084Y512408D01*
X773504D01*
X179134Y484258D02*
X185934Y491058D01*
X647634Y875988D02*
X663384Y891738D01*
X710624D01*
X145664Y31498D02*
X167324D01*
X743184Y380668D02*
X751064Y372798D01*
X773504D01*
D51*
X648424Y989048D02*
Y1011338D01*
X35748Y906768D02*
X53424D01*
X783424Y1056778D02*
X805714D01*
X783424Y1021338D02*
X805714D01*
X783424Y1056778D02*
Y1079068D01*
X53424Y849048D02*
Y871338D01*
X31134D02*
X53424D01*
D52*
X648278Y1103000D02*
X648424Y1102854D01*
Y1046770D02*
Y1102854D01*
D53*
X773504Y297208D02*
Y313748D01*
X773399Y297208D02*
X773504D01*
X742424Y473038D02*
X773504D01*
X742424Y497058D02*
X746764Y492718D01*
X749414Y453348D02*
X773504D01*
X746764Y492718D02*
X773504D01*
X552164Y187008D02*
X576474D01*
X582424Y181058D01*
X552164Y206698D02*
X579784D01*
X582424Y204058D01*
X590724Y163858D02*
X601924Y152658D01*
X567624Y163858D02*
X590724D01*
X564154Y167328D02*
X567624Y163858D01*
X552164Y167328D02*
X564154D01*
D54*
X408623Y112058D02*
X409073Y112508D01*
Y142337D01*
X409454Y142718D01*
D55*
X571416Y383860D02*
X585424Y397868D01*
X552166Y383860D02*
X571416D01*
D56*
X478344Y505908D02*
X507874D01*
D57*
X552164Y344488D02*
X573814D01*
D58*
X74224Y906418D02*
X87874D01*
X756944Y1056778D02*
X783424D01*
X760724Y1029058D02*
X768444Y1021338D01*
X783424D01*
D59*
X446854Y38468D02*
Y56208D01*
X450464Y59818D01*
Y81038D01*
X448824Y119658D02*
Y142718D01*
Y119658D02*
X450464Y118018D01*
Y81038D02*
Y118018D01*
X390544Y35438D02*
X443824D01*
X446854Y38468D01*
D60*
X649424Y295058D02*
Y309058D01*
X654114Y313748D01*
X661694D01*
D61*
X-373806Y-267744D02*
Y-354330D01*
X-316082D01*
X-287220D02*
Y-296606D01*
X-258358Y-267744D01*
X-229496Y-296606D01*
Y-354330D01*
Y-311037D01*
X-287220D01*
X-200634Y-267744D02*
Y-282175D01*
X-171772Y-311037D01*
X-142910Y-282175D01*
Y-267744D01*
X-171772Y-311037D02*
Y-354330D01*
X-56323Y-267744D02*
X-114047D01*
Y-354330D01*
X-56323D01*
X-114047Y-311037D02*
X-85185D01*
X-27461Y-354330D02*
Y-267744D01*
X15832D01*
X30263Y-282175D01*
Y-311037D01*
X15832Y-325468D01*
X-27461D01*
X1401D02*
X30263Y-354330D01*
X145711D02*
X174573D01*
X160142D01*
Y-267744D01*
X145711Y-282175D01*
X304453Y-311037D02*
X362177D01*
X477625Y-267744D02*
X535349D01*
X506487D01*
Y-354330D01*
X607504Y-267744D02*
X578642D01*
X564211Y-282175D01*
Y-339899D01*
X578642Y-354330D01*
X607504D01*
X621935Y-339899D01*
Y-282175D01*
X607504Y-267744D01*
X650797Y-354330D02*
Y-267744D01*
X694091D01*
X708521Y-282175D01*
Y-311037D01*
X694091Y-325468D01*
X650797D01*
X823970Y-267744D02*
Y-354330D01*
X881694D01*
X910556D02*
Y-296606D01*
X939418Y-267744D01*
X968280Y-296606D01*
Y-354330D01*
Y-311037D01*
X910556D01*
X997142Y-267744D02*
Y-282175D01*
X1026004Y-311037D01*
X1054866Y-282175D01*
Y-267744D01*
X1026004Y-311037D02*
Y-354330D01*
X1141453Y-267744D02*
X1083728D01*
Y-354330D01*
X1141453D01*
X1083728Y-311037D02*
X1112591D01*
X1170315Y-354330D02*
Y-267744D01*
X1213608D01*
X1228039Y-282175D01*
Y-311037D01*
X1213608Y-325468D01*
X1170315D01*
X1199177D02*
X1228039Y-354330D01*
D62*
X650473Y749058D02*
D03*
D63*
X0Y88190D02*
D03*
Y138190D02*
D03*
Y188190D02*
D03*
Y238190D02*
D03*
Y288190D02*
D03*
Y338190D02*
D03*
Y388190D02*
D03*
Y438190D02*
D03*
Y488190D02*
D03*
Y538190D02*
D03*
Y588190D02*
D03*
Y638190D02*
D03*
Y688190D02*
D03*
Y738190D02*
D03*
Y788190D02*
D03*
X838583Y88190D02*
D03*
Y138190D02*
D03*
Y188190D02*
D03*
Y238190D02*
D03*
Y288190D02*
D03*
Y338190D02*
D03*
Y388190D02*
D03*
Y438190D02*
D03*
Y488190D02*
D03*
Y538190D02*
D03*
Y588190D02*
D03*
Y638190D02*
D03*
Y688190D02*
D03*
Y738190D02*
D03*
Y788190D02*
D03*
D64*
X708424Y164058D02*
D03*
X318424Y839058D02*
D03*
D65*
X496558Y1033925D02*
D03*
X111000Y188456D02*
D03*
X185034Y629458D02*
D03*
X314124Y525058D02*
D03*
X574358Y597000D02*
D03*
X219424Y277058D02*
D03*
X296352Y466986D02*
D03*
X557642Y747067D02*
D03*
X188424Y685388D02*
D03*
X393704Y1124058D02*
D03*
X524924Y987058D02*
D03*
X233724Y636158D02*
D03*
X274824Y658958D02*
D03*
X105000Y525628D02*
D03*
X98424Y659058D02*
D03*
X590642Y708000D02*
D03*
Y756000D02*
D03*
X534925Y739000D02*
D03*
X165354Y204058D02*
D03*
X328000Y42000D02*
D03*
X311000Y67000D02*
D03*
X212599Y685388D02*
D03*
X312124Y550058D02*
D03*
X326002Y491991D02*
D03*
X547000Y112000D02*
D03*
X601424Y117058D02*
D03*
X619094Y911418D02*
D03*
X585584Y919058D02*
D03*
X399934Y776066D02*
D03*
X745064Y449658D02*
D03*
X743000Y348000D02*
D03*
X688029Y382560D02*
D03*
X718000Y413000D02*
D03*
X90554Y692918D02*
D03*
X124503Y1102979D02*
D03*
X183424Y1094058D02*
D03*
X161414Y1031498D02*
D03*
X207000Y979000D02*
D03*
X495000Y808000D02*
D03*
X541283Y597345D02*
D03*
X504424Y446058D02*
D03*
X541642Y531775D02*
D03*
X350424Y523426D02*
D03*
X486284Y534258D02*
D03*
X355524Y490058D02*
D03*
X154642Y791265D02*
D03*
X619094Y875988D02*
D03*
X489000Y564000D02*
D03*
X527000Y638000D02*
D03*
X477693Y437817D02*
D03*
X390000Y450000D02*
D03*
X409276Y437980D02*
D03*
X405424Y492058D02*
D03*
X610714Y634058D02*
D03*
X573000Y687000D02*
D03*
X707000Y760000D02*
D03*
X582642Y791067D02*
D03*
X658424Y844058D02*
D03*
X667324Y579758D02*
D03*
X691144Y639058D02*
D03*
X183424Y1049068D02*
D03*
X362204Y1124058D02*
D03*
X277124Y434358D02*
D03*
X622724Y477958D02*
D03*
X327000Y742000D02*
D03*
X542030Y655034D02*
D03*
X527564Y575481D02*
D03*
X308324Y629458D02*
D03*
X502000Y860000D02*
D03*
X546035Y895368D02*
D03*
X468580Y865304D02*
D03*
X436000Y894000D02*
D03*
X523424Y849048D02*
D03*
X308674Y656794D02*
D03*
X470584Y919928D02*
D03*
X308000Y704000D02*
D03*
X301000Y728000D02*
D03*
X524000Y550000D02*
D03*
X494174Y919008D02*
D03*
X512000Y735000D02*
D03*
X466000Y553000D02*
D03*
X419140Y531774D02*
D03*
X422424Y509058D02*
D03*
X275594Y407748D02*
D03*
X197724Y491058D02*
D03*
X310924Y592558D02*
D03*
X287216Y691366D02*
D03*
X29554Y138188D02*
D03*
Y238188D02*
D03*
Y288188D02*
D03*
Y388188D02*
D03*
Y438188D02*
D03*
Y538188D02*
D03*
Y638188D02*
D03*
Y688188D02*
D03*
Y788188D02*
D03*
X31134Y871338D02*
D03*
X38000Y1008000D02*
D03*
X114174Y155518D02*
D03*
X112174Y120078D02*
D03*
X86614Y204058D02*
D03*
X112924Y354558D02*
D03*
X93424Y444058D02*
D03*
X90554Y783468D02*
D03*
X117824Y928158D02*
D03*
X117899Y952274D02*
D03*
X93424Y1099058D02*
D03*
X100394Y1174058D02*
D03*
X157484Y155518D02*
D03*
Y120078D02*
D03*
X195264Y204058D02*
D03*
X188424Y279058D02*
D03*
X181424Y355058D02*
D03*
X153424Y354058D02*
D03*
X195000Y522000D02*
D03*
X200714Y881348D02*
D03*
X157508Y930492D02*
D03*
X275594Y113348D02*
D03*
X274424Y148058D02*
D03*
X251424Y155058D02*
D03*
X255424Y206698D02*
D03*
X251974Y919058D02*
D03*
X253424Y993458D02*
D03*
X333424Y114058D02*
D03*
X330624Y1037458D02*
D03*
X338424Y1080058D02*
D03*
X362424Y1079058D02*
D03*
X425204Y59058D02*
D03*
X401574Y236228D02*
D03*
X440944D02*
D03*
X401574Y314968D02*
D03*
Y275598D02*
D03*
X440944Y314968D02*
D03*
Y275598D02*
D03*
X401574Y354968D02*
D03*
X440944D02*
D03*
X414524Y919058D02*
D03*
X437824Y919958D02*
D03*
X412424Y1033058D02*
D03*
X443135Y1124830D02*
D03*
X480314Y236228D02*
D03*
Y314968D02*
D03*
Y275598D02*
D03*
Y354968D02*
D03*
X473424Y1033925D02*
D03*
X558624Y147858D02*
D03*
X601924Y152658D02*
D03*
X582424Y204058D02*
D03*
X598424Y305118D02*
D03*
X581774Y324808D02*
D03*
Y285438D02*
D03*
X583424Y1009058D02*
D03*
X637424Y55118D02*
D03*
X636424Y78058D02*
D03*
X649424Y295058D02*
D03*
X646144Y634058D02*
D03*
X648278Y1103000D02*
D03*
X732424Y47058D02*
D03*
X746424Y296058D02*
D03*
X742424Y473038D02*
D03*
X717724Y528458D02*
D03*
X752994Y713628D02*
D03*
X715000Y855000D02*
D03*
X763784Y949418D02*
D03*
X720474Y949058D02*
D03*
X809724Y138188D02*
D03*
Y238188D02*
D03*
Y288188D02*
D03*
Y388188D02*
D03*
Y438188D02*
D03*
Y538188D02*
D03*
Y638188D02*
D03*
Y688188D02*
D03*
Y788188D02*
D03*
X805714Y1021338D02*
D03*
X29554Y188188D02*
D03*
Y88188D02*
D03*
X39499Y31500D02*
D03*
X29554Y488188D02*
D03*
Y338188D02*
D03*
Y738188D02*
D03*
Y588188D02*
D03*
X35748Y906768D02*
D03*
X76384Y104058D02*
D03*
X124014Y269058D02*
D03*
X93424Y830708D02*
D03*
X188424Y99058D02*
D03*
X233424Y174058D02*
D03*
X253424Y246068D02*
D03*
X250224Y337758D02*
D03*
X273424Y1064058D02*
D03*
X275704Y984058D02*
D03*
X232284Y979058D02*
D03*
X337424Y90058D02*
D03*
X353741Y982601D02*
D03*
X432424Y112058D02*
D03*
X408623D02*
D03*
X396812Y985658D02*
D03*
X430000Y988776D02*
D03*
X472424Y88058D02*
D03*
X495796Y87953D02*
D03*
X486424Y978958D02*
D03*
X509000Y1134000D02*
D03*
X486284Y1138492D02*
D03*
X582424Y181058D02*
D03*
X581424Y248058D02*
D03*
X563424Y407058D02*
D03*
X560424Y430058D02*
D03*
X561424Y982058D02*
D03*
X658424Y819058D02*
D03*
X633424Y664048D02*
D03*
X648424Y989048D02*
D03*
X742424Y497058D02*
D03*
X753424Y749058D02*
D03*
X748424Y829058D02*
D03*
X738524Y577558D02*
D03*
X809724Y188188D02*
D03*
Y88188D02*
D03*
Y488188D02*
D03*
Y338188D02*
D03*
Y738188D02*
D03*
Y588188D02*
D03*
X805714Y1056778D02*
D03*
X803424Y989058D02*
D03*
Y909058D02*
D03*
X228424Y124018D02*
D03*
X225424Y229058D02*
D03*
X53424Y849048D02*
D03*
X151574Y1174058D02*
D03*
X367424Y84648D02*
D03*
X450464Y81038D02*
D03*
X530000Y70000D02*
D03*
X368114Y114178D02*
D03*
X548424Y919058D02*
D03*
X530424Y1034058D02*
D03*
X378424D02*
D03*
X530000Y1121000D02*
D03*
X615114Y244568D02*
D03*
X621424Y315058D02*
D03*
X696954Y284088D02*
D03*
X773399Y297208D02*
D03*
X627424Y395058D02*
D03*
X693424Y464058D02*
D03*
Y519058D02*
D03*
X775584Y852368D02*
D03*
X783424Y1079068D02*
D03*
X63424Y504058D02*
D03*
X66924Y269058D02*
D03*
X468504Y112208D02*
D03*
X311024Y984058D02*
D03*
X463704Y978958D02*
D03*
X465757Y1126892D02*
D03*
X457000Y1051000D02*
D03*
X693424Y492718D02*
D03*
X614924Y268858D02*
D03*
X609424Y427058D02*
D03*
X698674Y349378D02*
D03*
X692874Y327408D02*
D03*
X777824Y431858D02*
D03*
X773024Y579458D02*
D03*
X768424Y664058D02*
D03*
X606931Y978431D02*
D03*
%TF.MD5,df4e5274575d5fce122a347a09fbee80*%
M02*
