%TF.GenerationSoftware,Altium Limited,Altium Designer,20.1.11 (218)*%
G04 Layer_Physical_Order=6*
G04 Layer_Color=16711680*
%FSLAX26Y26*%
%MOIN*%
%TF.SameCoordinates,F1652399-7491-40A6-9504-01A14B245E9D*%
%TF.FilePolarity,Positive*%
%TF.FileFunction,Copper,L6,Bot,Signal*%
%TF.Part,Single*%
G01*
G75*
%TA.AperFunction,SMDPad,CuDef*%
G04:AMPARAMS|DCode=14|XSize=22.047mil|YSize=20.079mil|CornerRadius=5.02mil|HoleSize=0mil|Usage=FLASHONLY|Rotation=180.000|XOffset=0mil|YOffset=0mil|HoleType=Round|Shape=RoundedRectangle|*
%AMROUNDEDRECTD14*
21,1,0.022047,0.010040,0,0,180.0*
21,1,0.012008,0.020079,0,0,180.0*
1,1,0.010039,-0.006004,0.005020*
1,1,0.010039,0.006004,0.005020*
1,1,0.010039,0.006004,-0.005020*
1,1,0.010039,-0.006004,-0.005020*
%
%ADD14ROUNDEDRECTD14*%
G04:AMPARAMS|DCode=21|XSize=22.047mil|YSize=20.079mil|CornerRadius=5.02mil|HoleSize=0mil|Usage=FLASHONLY|Rotation=90.000|XOffset=0mil|YOffset=0mil|HoleType=Round|Shape=RoundedRectangle|*
%AMROUNDEDRECTD21*
21,1,0.022047,0.010040,0,0,90.0*
21,1,0.012008,0.020079,0,0,90.0*
1,1,0.010039,0.005020,0.006004*
1,1,0.010039,0.005020,-0.006004*
1,1,0.010039,-0.005020,-0.006004*
1,1,0.010039,-0.005020,0.006004*
%
%ADD21ROUNDEDRECTD21*%
%ADD36C,0.039370*%
%TA.AperFunction,Conductor*%
%ADD37C,0.008000*%
%ADD38C,0.005000*%
%ADD41C,0.010000*%
%ADD42C,0.019680*%
%ADD43C,0.012000*%
%ADD44C,0.015000*%
%ADD47C,0.009840*%
%ADD48C,0.020000*%
%ADD49C,0.019000*%
%ADD50C,0.011810*%
%ADD53C,0.006000*%
%ADD57C,0.008840*%
%ADD60C,0.010810*%
%TA.AperFunction,NonConductor*%
%ADD61C,0.010000*%
%TA.AperFunction,ComponentPad*%
%ADD62C,0.040000*%
%TA.AperFunction,ViaPad*%
%ADD64C,0.165000*%
%ADD65C,0.017716*%
%TA.AperFunction,SMDPad,CuDef*%
%ADD67R,0.043307X0.086614*%
%ADD68R,0.051181X0.120079*%
%ADD69R,0.011811X0.031496*%
%ADD70C,0.007874*%
%ADD71R,0.020551X0.023622*%
%ADD72R,0.031102X0.010236*%
%ADD73R,0.010236X0.031102*%
%ADD74R,0.106299X0.102362*%
G04:AMPARAMS|DCode=75|XSize=9.842mil|YSize=43.307mil|CornerRadius=2.461mil|HoleSize=0mil|Usage=FLASHONLY|Rotation=270.000|XOffset=0mil|YOffset=0mil|HoleType=Round|Shape=RoundedRectangle|*
%AMROUNDEDRECTD75*
21,1,0.009842,0.038386,0,0,270.0*
21,1,0.004921,0.043307,0,0,270.0*
1,1,0.004921,-0.019193,-0.002461*
1,1,0.004921,-0.019193,0.002461*
1,1,0.004921,0.019193,0.002461*
1,1,0.004921,0.019193,-0.002461*
%
%ADD75ROUNDEDRECTD75*%
%TA.AperFunction,Conductor*%
%ADD76C,0.017000*%
%ADD77C,0.023620*%
%TA.AperFunction,ComponentPad*%
G04:AMPARAMS|DCode=78|XSize=25.591mil|YSize=70.866mil|CornerRadius=6.398mil|HoleSize=0mil|Usage=FLASHONLY|Rotation=270.000|XOffset=0mil|YOffset=0mil|HoleType=Round|Shape=RoundedRectangle|*
%AMROUNDEDRECTD78*
21,1,0.025591,0.058071,0,0,270.0*
21,1,0.012795,0.070866,0,0,270.0*
1,1,0.012795,-0.029035,-0.006398*
1,1,0.012795,-0.029035,0.006398*
1,1,0.012795,0.029035,0.006398*
1,1,0.012795,0.029035,-0.006398*
%
%ADD78ROUNDEDRECTD78*%
D14*
X469000Y808284D02*
D03*
Y843716D02*
D03*
X431000Y808284D02*
D03*
Y843716D02*
D03*
X542000Y712716D02*
D03*
Y677284D02*
D03*
D21*
X691141Y664048D02*
D03*
X655708D02*
D03*
X721141Y829048D02*
D03*
X685708D02*
D03*
D36*
X724424Y378018D02*
D03*
X86000Y889000D02*
D03*
X377948Y47248D02*
D03*
X185034D02*
D03*
X474404D02*
D03*
X281491D02*
D03*
X570861D02*
D03*
X763774D02*
D03*
X667317D02*
D03*
X529000Y808000D02*
D03*
X747000Y899000D02*
D03*
X90554Y47248D02*
D03*
D37*
X527754Y413388D02*
X543754D01*
X560424Y430058D01*
X527754Y137798D02*
X548564D01*
X558624Y147858D01*
Y148858D01*
X549994Y157488D02*
X558624Y148858D01*
X527754Y157488D02*
X549994D01*
D38*
X771930Y267458D02*
X792000Y287528D01*
Y320464D02*
X809724Y338188D01*
X792000Y287528D02*
Y320464D01*
X557642Y747067D02*
X557933Y747358D01*
Y859067D01*
X524924Y987058D02*
X549719Y1011853D01*
Y1059140D01*
X530859Y1078000D02*
X549719Y1059140D01*
X439762Y1078000D02*
X530859D01*
X516024Y900976D02*
Y919976D01*
Y900976D02*
X557933Y859067D01*
X507874Y928126D02*
Y948819D01*
Y928126D02*
X516024Y919976D01*
X507874Y948820D02*
Y970008D01*
X507874Y948819D02*
X507874Y948820D01*
X393704Y1124058D02*
X439762Y1078000D01*
X507874Y970008D02*
X524924Y987058D01*
X195000Y522000D02*
Y564000D01*
X254000Y623000D01*
Y677955D01*
X267411Y691366D01*
X287216D01*
X293904Y492568D02*
X420424Y366048D01*
X195000Y522000D02*
X224432Y492568D01*
X293904D01*
X125000Y458192D02*
Y593000D01*
X79812Y638188D02*
X125000Y593000D01*
Y458192D02*
X228854Y354338D01*
X64812Y538188D02*
X85000Y518000D01*
Y479572D02*
X153424Y411148D01*
X85000Y479572D02*
Y518000D01*
X29554Y538188D02*
X64812D01*
X29554Y638188D02*
X79812D01*
X593000Y664244D02*
X607000Y678244D01*
X585214Y865868D02*
X607000Y844082D01*
Y678244D02*
Y844082D01*
X509929Y763996D02*
X534925Y739000D01*
X450996Y763996D02*
X509929D01*
X448819Y761819D02*
X450996Y763996D01*
X29554Y188188D02*
X64904Y188188D01*
X80994Y172098D02*
X178902D01*
X64904Y188188D02*
X64904D01*
X80994Y172098D01*
X198942Y174058D02*
X233424D01*
X144382Y184888D02*
X188112D01*
X198942Y174058D01*
X196942Y154058D02*
X250424D01*
X178902Y172098D02*
X196942Y154058D01*
X233424Y174058D02*
X253058D01*
X29554Y238188D02*
X91082D01*
X144382Y184888D01*
X176722Y329000D02*
X231482D01*
X245514Y314968D01*
X153424Y352298D02*
X176722Y329000D01*
X310828Y295278D02*
X337204D01*
X244814D02*
X310828D01*
X29554Y473346D02*
Y488188D01*
X133424Y347576D02*
Y369476D01*
X29554Y473346D02*
X133424Y369476D01*
X310828Y314968D02*
X345504D01*
X245514D02*
X310828D01*
X437649Y400351D02*
X459424Y378576D01*
X373642Y430358D02*
X403649Y400351D01*
X437649D01*
X393934Y470436D02*
X442592D01*
X452323Y406159D02*
Y460705D01*
Y406159D02*
X504144Y354338D01*
X442592Y470436D02*
X452323Y460705D01*
X385000Y479370D02*
X393934Y470436D01*
X413170Y981696D02*
Y992434D01*
Y981696D02*
X423224Y971642D01*
X426460Y951492D02*
X431820Y946132D01*
X423224Y971642D02*
X423224D01*
X426460Y951492D02*
Y968406D01*
X423224Y971642D02*
X426460Y968406D01*
X585214Y918688D02*
X585584Y919058D01*
X585214Y865868D02*
Y918688D01*
X761424Y419576D02*
Y461424D01*
Y419576D02*
X770000Y411000D01*
X761424Y461424D02*
X788188Y488188D01*
X809724D01*
X730866Y318000D02*
X759000D01*
X784000Y343000D02*
Y412464D01*
X759000Y318000D02*
X784000Y343000D01*
X696954Y284088D02*
X730866Y318000D01*
X784000Y412464D02*
X809724Y438188D01*
X749776Y331642D02*
X770000Y351866D01*
Y411000D01*
X743000Y348000D02*
X758000Y363000D01*
X721824Y439471D02*
X758000Y403295D01*
Y363000D02*
Y403295D01*
X721824Y439471D02*
Y476458D01*
X688029Y382560D02*
X719882D01*
X724424Y378018D01*
X724708Y331642D02*
X749776D01*
X699124Y306058D02*
X724708Y331642D01*
X671524Y470818D02*
X693424Y492718D01*
X671524Y375358D02*
X697504Y349378D01*
X671524Y375358D02*
Y470818D01*
X697504Y349378D02*
X698674D01*
X154642Y791265D02*
Y792841D01*
X139000Y808482D02*
X154642Y792841D01*
X385000Y479370D02*
Y560000D01*
X389765Y564765D02*
Y585827D01*
X385000Y560000D02*
X389765Y564765D01*
X527756Y334648D02*
X566964D01*
X471834D02*
X527756D01*
X370079Y563921D02*
X373642Y560358D01*
Y430358D02*
Y560358D01*
X370079Y563921D02*
Y585827D01*
X504144Y354338D02*
X571714D01*
X699764Y784491D02*
X707000Y777255D01*
Y760000D02*
Y777255D01*
X590824Y503258D02*
X667324Y579758D01*
X431631Y1023265D02*
Y1054631D01*
X413000Y1004634D02*
X431631Y1023265D01*
X362204Y1124058D02*
X431631Y1054631D01*
X549058Y509058D02*
X593000Y553000D01*
X511483Y509058D02*
X549058D01*
X593000Y553000D02*
Y664244D01*
X545915Y895368D02*
X546035D01*
X527564Y913718D02*
X545915Y895368D01*
X486284Y534258D02*
X511483Y509058D01*
X508658Y735000D02*
X512000D01*
X448819Y740945D02*
Y761819D01*
X502713Y740945D02*
X508658Y735000D01*
X468505Y740945D02*
X502713D01*
X318624Y1122624D02*
X357000Y1161000D01*
X318624Y1067758D02*
Y1122624D01*
X357000Y1161000D02*
X519000D01*
X443135Y1108658D02*
X454792Y1097000D01*
X569000D01*
X443135Y1108658D02*
Y1124830D01*
X569000Y1097000D02*
X606931Y1059069D01*
Y978431D02*
Y1059069D01*
X139000Y935117D02*
X166000Y962117D01*
X139000Y808482D02*
Y935117D01*
X166000Y962117D02*
Y981000D01*
X117825Y928158D02*
X146734Y957068D01*
X146808D02*
X151202Y961461D01*
Y961535D02*
X156000Y966333D01*
X117824Y928158D02*
X117825D01*
X151202Y961461D02*
Y961535D01*
X146734Y957068D02*
X146808D01*
X156000Y966333D02*
Y988000D01*
X606304Y948818D02*
Y979058D01*
X347000Y1179000D02*
X611000D01*
X156000Y988000D02*
X347000Y1179000D01*
X611000D02*
X673824Y1116176D01*
X519000Y1161000D02*
X530000Y1150000D01*
Y1121000D02*
Y1150000D01*
X318624Y1067758D02*
X329699Y1056683D01*
X345099D02*
X356174Y1045608D01*
X329699Y1056683D02*
X345099D01*
X356174Y1026295D02*
X396812Y985658D01*
X356174Y1026295D02*
Y1045608D01*
X448824Y963758D02*
X463704Y978638D01*
Y978958D02*
X464024Y979278D01*
X463704Y978638D02*
Y978958D01*
X448824Y948818D02*
Y963758D01*
X396812Y983912D02*
X409454Y971269D01*
X396812Y983912D02*
Y985658D01*
X409454Y948818D02*
Y971269D01*
X488194Y948824D02*
Y977188D01*
X488190Y948820D02*
X488194Y948824D01*
X486424Y978958D02*
X488194Y977188D01*
X527564Y913718D02*
Y948820D01*
X673824Y896176D02*
Y1116176D01*
X431820Y929245D02*
X437824Y923241D01*
X431820Y929245D02*
Y946132D01*
X437824Y919958D02*
Y923241D01*
X413000Y992604D02*
X413170Y992434D01*
X413000Y992604D02*
Y1004634D01*
X232284Y948818D02*
Y979058D01*
X667324Y579758D02*
X690024Y602458D01*
X459424Y347058D02*
Y378576D01*
X112924Y344076D02*
Y354818D01*
Y344076D02*
X157942Y299058D01*
X29554Y438188D02*
X112924Y354818D01*
X29554Y388188D02*
X51822D01*
X180952Y259058D01*
X213414D01*
X310828Y275598D02*
X338884D01*
X157942Y299058D02*
X223624D01*
X247084Y275598D02*
X310828D01*
X133424Y347576D02*
X166942Y314058D01*
X226034D01*
X153424Y354058D02*
Y411148D01*
X73812Y288188D02*
X137942Y224058D01*
X29554Y288188D02*
X73812D01*
X137942Y224058D02*
X203424D01*
X270991Y226625D02*
X280594Y236228D01*
X227858Y226625D02*
X270991D01*
X215424Y239058D02*
X227858Y226625D01*
X280594Y236228D02*
X310834D01*
X265264Y216538D02*
X310834D01*
X255424Y206698D02*
X265264Y216538D01*
X220784Y206698D02*
X255424D01*
X273534Y177168D02*
X310834D01*
X250424Y154058D02*
X273534Y177168D01*
X275858Y196858D02*
X310834D01*
X253058Y174058D02*
X275858Y196858D01*
X661154Y267458D02*
X771930D01*
X665524Y257158D02*
X778694D01*
X809724Y288188D02*
X809724D01*
X778694Y257158D02*
X809724Y288188D01*
X687658Y546658D02*
X801254D01*
X809724Y538188D01*
X658124Y401158D02*
Y517124D01*
X687658Y546658D01*
X641000Y527000D02*
X673658Y559658D01*
X641000Y434134D02*
Y527000D01*
X609694Y402828D02*
X641000Y434134D01*
X673658Y559658D02*
X781194D01*
X590824Y373448D02*
Y503258D01*
X580024Y394158D02*
Y517358D01*
X619624Y556958D02*
Y556958D01*
X580024Y517358D02*
X619624Y556958D01*
X680666Y618000D02*
X751506D01*
X809724Y676218D02*
Y688188D01*
X751506Y618000D02*
X809724Y676218D01*
X619624Y556958D02*
X680666Y618000D01*
X690024Y602458D02*
X773994D01*
X809724Y638188D01*
X337383Y974407D02*
Y1030700D01*
X346989Y952223D02*
X350394Y948818D01*
X346989Y952223D02*
Y964801D01*
X337383Y974407D02*
X346989Y964801D01*
X166000Y981000D02*
X197258Y1012258D01*
X274724D01*
X157484Y74798D02*
Y120078D01*
Y74798D02*
X185034Y47248D01*
X570861D02*
X601671Y78058D01*
X636424D01*
X265754Y47248D02*
X279524D01*
X157484Y155518D02*
X265754Y47248D01*
X643524Y276558D02*
X656624D01*
X634424Y285658D02*
X643524Y276558D01*
X664154Y284088D02*
X696954D01*
X606024Y285658D02*
X634424D01*
X656624Y276558D02*
X664154Y284088D01*
X587424Y267058D02*
X606024Y285658D01*
X673824Y896176D02*
X715000Y855000D01*
X330624Y1037458D02*
X337383Y1030700D01*
X327383Y952150D02*
Y1010100D01*
Y952150D02*
X330714Y948818D01*
X273424Y1064058D02*
X327383Y1010100D01*
X527754Y314968D02*
X562334D01*
X572174Y324808D01*
X581774D01*
X253424Y980058D02*
Y993458D01*
Y980058D02*
X271654Y961828D01*
Y948818D02*
Y961828D01*
X345504Y314968D02*
X374424Y286048D01*
Y128048D02*
Y286048D01*
X368114Y121738D02*
X374424Y128048D01*
X368114Y114178D02*
Y121738D01*
X274724Y1012258D02*
X293904Y993078D01*
Y959538D02*
Y993078D01*
X291344Y956978D02*
X293904Y959538D01*
X291344Y948818D02*
Y956978D01*
X228854Y354338D02*
X310834D01*
X226034Y314058D02*
X244814Y295278D01*
X547244Y967878D02*
X561424Y982058D01*
X547244Y948818D02*
Y967878D01*
X226404Y246068D02*
X253424D01*
X213414Y259058D02*
X226404Y246068D01*
X183104Y239058D02*
X215424D01*
X83974Y338188D02*
X183104Y239058D01*
X29554Y338188D02*
X83974D01*
X450464Y81038D02*
Y133538D01*
X494094Y177168D01*
X527754D01*
X338884Y275598D02*
X349424Y265058D01*
Y137058D02*
Y265058D01*
X333424Y121058D02*
X349424Y137058D01*
X333424Y114058D02*
Y121058D01*
X153424Y352298D02*
Y354058D01*
X337204Y295278D02*
X362424Y270058D01*
Y134068D02*
Y270058D01*
X350394Y122038D02*
X362424Y134068D01*
X350394Y103028D02*
Y122038D01*
X337424Y90058D02*
X350394Y103028D01*
X571714Y354338D02*
X590824Y373448D01*
X721824Y476458D02*
X742424Y497058D01*
X598424Y305118D02*
X605684Y297858D01*
X628234D01*
X642434Y312058D01*
X663424D01*
X669424Y306058D01*
X699124D01*
X203424Y224058D02*
X220784Y206698D01*
X781194Y559658D02*
X809724Y588188D01*
X609694Y377378D02*
Y402828D01*
X566964Y334648D02*
X609694Y377378D01*
X732124Y713628D02*
X752994D01*
X559884Y374018D02*
X580024Y394158D01*
X527754Y374018D02*
X559884D01*
X459424Y347058D02*
X471834Y334648D01*
X732614Y47248D02*
X763774D01*
X732424Y47058D02*
X732614Y47248D01*
X581774Y324808D02*
X658124Y401158D01*
X583424Y978058D02*
Y1009058D01*
X566934Y961568D02*
X583424Y978058D01*
X566934Y948818D02*
Y961568D01*
X527754Y295278D02*
X562634D01*
X572474Y305118D01*
X598424D01*
X732124Y749058D02*
X753424D01*
X250224Y337758D02*
X253334Y334648D01*
X310834D01*
X527754Y275598D02*
X555874D01*
X564414Y267058D01*
X587424D01*
X585214Y947418D02*
X586614Y948818D01*
X585214Y919428D02*
Y947418D01*
Y919428D02*
X585584Y919058D01*
X620454Y226758D02*
X661154Y267458D01*
X598724Y226758D02*
X620454D01*
X594424Y231058D02*
X598724Y226758D01*
X568424Y231058D02*
X594424D01*
X563254Y236228D02*
X568424Y231058D01*
X527754Y236228D02*
X563254D01*
X263264Y255908D02*
X310834D01*
X253424Y246068D02*
X263264Y255908D01*
X645294Y47248D02*
X667317D01*
X637424Y55118D02*
X645294Y47248D01*
X420424Y270058D02*
Y366048D01*
Y270058D02*
X434574Y255908D01*
X527754D01*
X223624Y299058D02*
X247084Y275598D01*
X624124Y215758D02*
X665524Y257158D01*
X594724Y215758D02*
X624124D01*
X589424Y221058D02*
X594724Y215758D01*
X568434Y221058D02*
X589424D01*
X563914Y216538D02*
X568434Y221058D01*
X527754Y216538D02*
X563914D01*
X431104Y113378D02*
X432424Y112058D01*
X431104Y113378D02*
Y143708D01*
X484254Y196858D01*
X527754D01*
D41*
X650472Y719058D02*
G03*
X680473Y749058I0J30000D01*
G01*
D02*
G03*
X650473Y779058I-30000J0D01*
G01*
D02*
G03*
X650472Y719058I0J-30000D01*
G01*
X650473Y789018D02*
X658424Y796970D01*
X650473Y779058D02*
Y789018D01*
X650472Y709632D02*
Y719058D01*
X633424Y692584D02*
X650472Y709632D01*
X399934Y776066D02*
X400000Y776000D01*
X277124Y434358D02*
X298094Y413388D01*
X310834D01*
X504244Y783244D02*
X529000Y808000D01*
X457137Y783244D02*
X504244D01*
X541283Y597345D02*
Y597851D01*
X524961Y614173D02*
X541283Y597851D01*
X468504Y922008D02*
X470584Y919928D01*
X468504Y922008D02*
Y948818D01*
X496851Y614173D02*
X524961D01*
X496851Y712599D02*
X527819D01*
X527970Y712750D01*
X448937Y570063D02*
Y585709D01*
Y570063D02*
X466000Y553000D01*
X448819Y585827D02*
X448937Y585709D01*
X389765Y765765D02*
X400000Y776000D01*
X429135Y740945D02*
Y767083D01*
X445296Y783244D01*
X409449Y740945D02*
Y766551D01*
X400000Y776000D02*
X409449Y766551D01*
X389765Y740945D02*
Y765765D01*
X369174Y949725D02*
Y967168D01*
X353741Y982601D02*
X369174Y967168D01*
Y949725D02*
X370080Y948820D01*
X274424Y148058D02*
X283854Y157488D01*
X310834D01*
X289164Y137798D02*
X310834D01*
X275594Y124228D02*
X289164Y137798D01*
X275594Y113348D02*
Y124228D01*
X311024Y948818D02*
Y984058D01*
D42*
X333248Y47248D02*
X377948D01*
X328000Y42000D02*
X333248Y47248D01*
D43*
X732124Y784488D02*
Y800348D01*
X721144Y811328D02*
X732124Y800348D01*
X721144Y811328D02*
Y829048D01*
D44*
X658424Y796970D02*
Y819058D01*
X675714D01*
X685704Y829048D01*
X633424Y664048D02*
Y692584D01*
X691144Y664048D02*
X699764Y672668D01*
X691144Y639058D02*
Y664048D01*
X542039Y655043D02*
Y677244D01*
X542030Y655034D02*
X542039Y655043D01*
X542000Y677284D02*
X542039Y677244D01*
X468580Y865304D02*
X468790Y865094D01*
Y843927D02*
Y865094D01*
Y843927D02*
X469000Y843716D01*
X407361Y894520D02*
X435480D01*
X436000Y894000D01*
X389764Y912116D02*
X407361Y894520D01*
X389764Y912116D02*
Y940572D01*
X431000Y843716D02*
X469000D01*
X699764Y672668D02*
Y713628D01*
X633424Y664048D02*
X655704D01*
D47*
X550074Y393708D02*
X563424Y407058D01*
X527754Y393708D02*
X550074D01*
X281494Y374018D02*
X310834D01*
D48*
X400000Y776000D02*
X429976Y805976D01*
Y808244D01*
X430016Y808284D01*
X468853Y794960D02*
Y808244D01*
X445296Y783244D02*
X457137D01*
X468853Y794960D01*
X468893Y808284D02*
X469000D01*
X468853Y808244D02*
X468893Y808284D01*
X527970Y712750D02*
X541966D01*
X542039Y712677D02*
X547323D01*
X573000Y687000D01*
X541966Y712750D02*
X542039Y712677D01*
X430016Y808284D02*
X431000D01*
D49*
X90554Y692918D02*
X119082D01*
X155000Y480513D02*
Y657000D01*
X119082Y692918D02*
X155000Y657000D01*
Y480513D02*
X261495Y374018D01*
X117899Y1024392D02*
X118114Y1024608D01*
X117899Y952274D02*
Y1024392D01*
X74672Y1008000D02*
X74804Y1007868D01*
X38000Y1008000D02*
X74672D01*
X720474Y949058D02*
Y1024608D01*
X763784Y949418D02*
Y1007868D01*
D50*
X261495Y374018D02*
X281494D01*
D53*
X531614Y47248D02*
X601424Y117058D01*
X474404Y47248D02*
X531614D01*
D57*
X275594Y407748D02*
X289634Y393708D01*
X310834D01*
D60*
X207000Y979000D02*
X212098Y973902D01*
Y949320D02*
Y973902D01*
Y949320D02*
X212599Y948820D01*
X251974Y919058D02*
Y948818D01*
D61*
X-398000Y-267414D02*
Y-354000D01*
X-340276D01*
X-311414D02*
Y-296276D01*
X-282552Y-267414D01*
X-253690Y-296276D01*
Y-354000D01*
Y-310707D01*
X-311414D01*
X-224828Y-267414D02*
Y-281845D01*
X-195965Y-310707D01*
X-167103Y-281845D01*
Y-267414D01*
X-195965Y-310707D02*
Y-354000D01*
X-80517Y-267414D02*
X-138241D01*
Y-354000D01*
X-80517D01*
X-138241Y-310707D02*
X-109379D01*
X-51655Y-354000D02*
Y-267414D01*
X-8362D01*
X6069Y-281845D01*
Y-310707D01*
X-8362Y-325138D01*
X-51655D01*
X-22793D02*
X6069Y-354000D01*
X179241Y-267414D02*
X150379Y-281845D01*
X121517Y-310707D01*
Y-339569D01*
X135948Y-354000D01*
X164810D01*
X179241Y-339569D01*
Y-325138D01*
X164810Y-310707D01*
X121517D01*
X208103D02*
X265827D01*
X381276Y-267414D02*
Y-354000D01*
X424569D01*
X439000Y-339569D01*
Y-325138D01*
X424569Y-310707D01*
X381276D01*
X424569D01*
X439000Y-296276D01*
Y-281845D01*
X424569Y-267414D01*
X381276D01*
X511155D02*
X482293D01*
X467862Y-281845D01*
Y-339569D01*
X482293Y-354000D01*
X511155D01*
X525586Y-339569D01*
Y-281845D01*
X511155Y-267414D01*
X554448D02*
X612172D01*
X583310D01*
Y-354000D01*
X641034Y-267414D02*
X698759D01*
X669896D01*
Y-354000D01*
X770914Y-267414D02*
X742052D01*
X727621Y-281845D01*
Y-339569D01*
X742052Y-354000D01*
X770914D01*
X785345Y-339569D01*
Y-281845D01*
X770914Y-267414D01*
X814207Y-354000D02*
Y-267414D01*
X843069Y-296276D01*
X871931Y-267414D01*
Y-354000D01*
X987379Y-267414D02*
Y-354000D01*
X1045103D01*
X1073965D02*
Y-296276D01*
X1102828Y-267414D01*
X1131689Y-296276D01*
Y-354000D01*
Y-310707D01*
X1073965D01*
X1160552Y-267414D02*
Y-281845D01*
X1189414Y-310707D01*
X1218276Y-281845D01*
Y-267414D01*
X1189414Y-310707D02*
Y-354000D01*
X1304862Y-267414D02*
X1247138D01*
Y-354000D01*
X1304862D01*
X1247138Y-310707D02*
X1276000D01*
X1333724Y-354000D02*
Y-267414D01*
X1377017D01*
X1391448Y-281845D01*
Y-310707D01*
X1377017Y-325138D01*
X1333724D01*
X1362586D02*
X1391448Y-354000D01*
D62*
X650473Y749058D02*
D03*
D64*
X708424Y164058D02*
D03*
X318424Y839058D02*
D03*
D65*
X496558Y1033925D02*
D03*
X111000Y188456D02*
D03*
X185034Y629458D02*
D03*
X314124Y525058D02*
D03*
X574358Y597000D02*
D03*
X219424Y277058D02*
D03*
X296352Y466986D02*
D03*
X557642Y747067D02*
D03*
X188424Y685388D02*
D03*
X393704Y1124058D02*
D03*
X524924Y987058D02*
D03*
X233724Y636158D02*
D03*
X274824Y658958D02*
D03*
X105000Y525628D02*
D03*
X98424Y659058D02*
D03*
X590642Y708000D02*
D03*
Y756000D02*
D03*
X534925Y739000D02*
D03*
X165354Y204058D02*
D03*
X328000Y42000D02*
D03*
X311000Y67000D02*
D03*
X212599Y685388D02*
D03*
X312124Y550058D02*
D03*
X326002Y491991D02*
D03*
X547000Y112000D02*
D03*
X601424Y117058D02*
D03*
X619094Y911418D02*
D03*
X585584Y919058D02*
D03*
X399934Y776066D02*
D03*
X745064Y449658D02*
D03*
X743000Y348000D02*
D03*
X688029Y382560D02*
D03*
X718000Y413000D02*
D03*
X90554Y692918D02*
D03*
X124503Y1102979D02*
D03*
X183424Y1094058D02*
D03*
X161414Y1031498D02*
D03*
X207000Y979000D02*
D03*
X495000Y808000D02*
D03*
X541283Y597345D02*
D03*
X504424Y446058D02*
D03*
X541642Y531775D02*
D03*
X350424Y523426D02*
D03*
X486284Y534258D02*
D03*
X355524Y490058D02*
D03*
X154642Y791265D02*
D03*
X619094Y875988D02*
D03*
X489000Y564000D02*
D03*
X527000Y638000D02*
D03*
X477693Y437817D02*
D03*
X390000Y450000D02*
D03*
X409276Y437980D02*
D03*
X405424Y492058D02*
D03*
X610714Y634058D02*
D03*
X573000Y687000D02*
D03*
X707000Y760000D02*
D03*
X582642Y791067D02*
D03*
X658424Y844058D02*
D03*
X667324Y579758D02*
D03*
X691144Y639058D02*
D03*
X183424Y1049068D02*
D03*
X362204Y1124058D02*
D03*
X277124Y434358D02*
D03*
X622724Y477958D02*
D03*
X327000Y742000D02*
D03*
X542030Y655034D02*
D03*
X527564Y575481D02*
D03*
X308324Y629458D02*
D03*
X502000Y860000D02*
D03*
X546035Y895368D02*
D03*
X468580Y865304D02*
D03*
X436000Y894000D02*
D03*
X523424Y849048D02*
D03*
X308674Y656794D02*
D03*
X470584Y919928D02*
D03*
X308000Y704000D02*
D03*
X301000Y728000D02*
D03*
X524000Y550000D02*
D03*
X494174Y919008D02*
D03*
X512000Y735000D02*
D03*
X466000Y553000D02*
D03*
X419140Y531774D02*
D03*
X422424Y509058D02*
D03*
X275594Y407748D02*
D03*
X197724Y491058D02*
D03*
X310924Y592558D02*
D03*
X287216Y691366D02*
D03*
X29554Y138188D02*
D03*
Y238188D02*
D03*
Y288188D02*
D03*
Y388188D02*
D03*
Y438188D02*
D03*
Y538188D02*
D03*
Y638188D02*
D03*
Y688188D02*
D03*
Y788188D02*
D03*
X31134Y871338D02*
D03*
X38000Y1008000D02*
D03*
X114174Y155518D02*
D03*
X112174Y120078D02*
D03*
X86614Y204058D02*
D03*
X112924Y354558D02*
D03*
X93424Y444058D02*
D03*
X90554Y783468D02*
D03*
X117824Y928158D02*
D03*
X117899Y952274D02*
D03*
X93424Y1099058D02*
D03*
X100394Y1174058D02*
D03*
X157484Y155518D02*
D03*
Y120078D02*
D03*
X195264Y204058D02*
D03*
X188424Y279058D02*
D03*
X181424Y355058D02*
D03*
X153424Y354058D02*
D03*
X195000Y522000D02*
D03*
X200714Y881348D02*
D03*
X157508Y930492D02*
D03*
X275594Y113348D02*
D03*
X274424Y148058D02*
D03*
X251424Y155058D02*
D03*
X255424Y206698D02*
D03*
X251974Y919058D02*
D03*
X253424Y993458D02*
D03*
X333424Y114058D02*
D03*
X330624Y1037458D02*
D03*
X338424Y1080058D02*
D03*
X362424Y1079058D02*
D03*
X425204Y59058D02*
D03*
X401574Y236228D02*
D03*
X440944D02*
D03*
X401574Y314968D02*
D03*
Y275598D02*
D03*
X440944Y314968D02*
D03*
Y275598D02*
D03*
X401574Y354968D02*
D03*
X440944D02*
D03*
X414524Y919058D02*
D03*
X437824Y919958D02*
D03*
X412424Y1033058D02*
D03*
X443135Y1124830D02*
D03*
X480314Y236228D02*
D03*
Y314968D02*
D03*
Y275598D02*
D03*
Y354968D02*
D03*
X473424Y1033925D02*
D03*
X558624Y147858D02*
D03*
X601924Y152658D02*
D03*
X582424Y204058D02*
D03*
X598424Y305118D02*
D03*
X581774Y324808D02*
D03*
Y285438D02*
D03*
X583424Y1009058D02*
D03*
X637424Y55118D02*
D03*
X636424Y78058D02*
D03*
X649424Y295058D02*
D03*
X646144Y634058D02*
D03*
X648278Y1103000D02*
D03*
X732424Y47058D02*
D03*
X746424Y296058D02*
D03*
X742424Y473038D02*
D03*
X717724Y528458D02*
D03*
X752994Y713628D02*
D03*
X715000Y855000D02*
D03*
X763784Y949418D02*
D03*
X720474Y949058D02*
D03*
X809724Y138188D02*
D03*
Y238188D02*
D03*
Y288188D02*
D03*
Y388188D02*
D03*
Y438188D02*
D03*
Y538188D02*
D03*
Y638188D02*
D03*
Y688188D02*
D03*
Y788188D02*
D03*
X805714Y1021338D02*
D03*
X29554Y188188D02*
D03*
Y88188D02*
D03*
X39499Y31500D02*
D03*
X29554Y488188D02*
D03*
Y338188D02*
D03*
Y738188D02*
D03*
Y588188D02*
D03*
X35748Y906768D02*
D03*
X76384Y104058D02*
D03*
X124014Y269058D02*
D03*
X93424Y830708D02*
D03*
X188424Y99058D02*
D03*
X233424Y174058D02*
D03*
X253424Y246068D02*
D03*
X250224Y337758D02*
D03*
X273424Y1064058D02*
D03*
X275704Y984058D02*
D03*
X232284Y979058D02*
D03*
X337424Y90058D02*
D03*
X353741Y982601D02*
D03*
X432424Y112058D02*
D03*
X408623D02*
D03*
X396812Y985658D02*
D03*
X430000Y988776D02*
D03*
X472424Y88058D02*
D03*
X495796Y87953D02*
D03*
X486424Y978958D02*
D03*
X509000Y1134000D02*
D03*
X486284Y1138492D02*
D03*
X582424Y181058D02*
D03*
X581424Y248058D02*
D03*
X563424Y407058D02*
D03*
X560424Y430058D02*
D03*
X561424Y982058D02*
D03*
X658424Y819058D02*
D03*
X633424Y664048D02*
D03*
X648424Y989048D02*
D03*
X742424Y497058D02*
D03*
X753424Y749058D02*
D03*
X748424Y829058D02*
D03*
X738524Y577558D02*
D03*
X809724Y188188D02*
D03*
Y88188D02*
D03*
Y488188D02*
D03*
Y338188D02*
D03*
Y738188D02*
D03*
Y588188D02*
D03*
X805714Y1056778D02*
D03*
X803424Y989058D02*
D03*
Y909058D02*
D03*
X228424Y124018D02*
D03*
X225424Y229058D02*
D03*
X53424Y849048D02*
D03*
X151574Y1174058D02*
D03*
X367424Y84648D02*
D03*
X450464Y81038D02*
D03*
X530000Y70000D02*
D03*
X368114Y114178D02*
D03*
X548424Y919058D02*
D03*
X530424Y1034058D02*
D03*
X378424D02*
D03*
X530000Y1121000D02*
D03*
X615114Y244568D02*
D03*
X621424Y315058D02*
D03*
X696954Y284088D02*
D03*
X773399Y297208D02*
D03*
X627424Y395058D02*
D03*
X693424Y464058D02*
D03*
Y519058D02*
D03*
X775584Y852368D02*
D03*
X783424Y1079068D02*
D03*
X63424Y504058D02*
D03*
X66924Y269058D02*
D03*
X468504Y112208D02*
D03*
X311024Y984058D02*
D03*
X463704Y978958D02*
D03*
X465757Y1126892D02*
D03*
X457000Y1051000D02*
D03*
X693424Y492718D02*
D03*
X614924Y268858D02*
D03*
X609424Y427058D02*
D03*
X698674Y349378D02*
D03*
X692874Y327408D02*
D03*
X777824Y431858D02*
D03*
X773024Y579458D02*
D03*
X768424Y664058D02*
D03*
X606931Y978431D02*
D03*
D67*
X763779Y1007875D02*
D03*
X74802D02*
D03*
D68*
X720472Y1024607D02*
D03*
X118109D02*
D03*
D69*
X645669Y948820D02*
D03*
X625984D02*
D03*
X606298D02*
D03*
X586613D02*
D03*
X566928D02*
D03*
X547243D02*
D03*
X527558D02*
D03*
X507873D02*
D03*
X488188D02*
D03*
X468503D02*
D03*
X448818D02*
D03*
X429133D02*
D03*
X409448D02*
D03*
X389763D02*
D03*
X370078D02*
D03*
X350393D02*
D03*
X330708D02*
D03*
X311023D02*
D03*
X291338D02*
D03*
X271653D02*
D03*
X251968D02*
D03*
X232283D02*
D03*
X212598D02*
D03*
X192913D02*
D03*
D70*
X650472Y719058D02*
D03*
X650473Y779058D02*
D03*
D71*
X732126Y713625D02*
D03*
Y784491D02*
D03*
X699764D02*
D03*
Y713625D02*
D03*
X732126Y749058D02*
D03*
D72*
X341733Y614173D02*
D03*
Y633859D02*
D03*
Y653543D02*
D03*
Y673229D02*
D03*
Y692913D02*
D03*
Y712599D02*
D03*
X496851D02*
D03*
Y692913D02*
D03*
Y673229D02*
D03*
Y653543D02*
D03*
Y633859D02*
D03*
Y614173D02*
D03*
D73*
X370079Y740945D02*
D03*
X389765D02*
D03*
X409449D02*
D03*
X429135D02*
D03*
X448819D02*
D03*
X468505D02*
D03*
Y585827D02*
D03*
X448819D02*
D03*
X429135D02*
D03*
X409449D02*
D03*
X389765D02*
D03*
X370079D02*
D03*
D74*
X419291Y663385D02*
D03*
D75*
X310828Y196852D02*
D03*
Y216536D02*
D03*
X527756Y196852D02*
D03*
Y216536D02*
D03*
X310828Y413386D02*
D03*
X527756D02*
D03*
Y393702D02*
D03*
X310828D02*
D03*
X527756Y374016D02*
D03*
X310828D02*
D03*
X527756Y354332D02*
D03*
X310828D02*
D03*
X527756Y334646D02*
D03*
X310828D02*
D03*
X527756Y314962D02*
D03*
X310828D02*
D03*
X527756Y295276D02*
D03*
X310828D02*
D03*
X527756Y275592D02*
D03*
X310828D02*
D03*
X527756Y255906D02*
D03*
X310828D02*
D03*
X527756Y236222D02*
D03*
X310828D02*
D03*
X527756Y177166D02*
D03*
X310828D02*
D03*
X527756Y157482D02*
D03*
X310828D02*
D03*
X527756Y137796D02*
D03*
X310828D02*
D03*
D76*
X803424Y794488D02*
X809724Y788188D01*
X721144Y829048D02*
X748414D01*
X748424Y829058D01*
D77*
X803424Y794488D02*
Y909058D01*
D78*
X0Y88190D02*
D03*
Y138190D02*
D03*
Y188190D02*
D03*
Y238190D02*
D03*
Y288190D02*
D03*
Y338190D02*
D03*
Y388190D02*
D03*
Y438190D02*
D03*
Y488190D02*
D03*
Y538190D02*
D03*
Y588190D02*
D03*
Y638190D02*
D03*
Y688190D02*
D03*
Y738190D02*
D03*
Y788190D02*
D03*
X838583Y88190D02*
D03*
Y138190D02*
D03*
Y188190D02*
D03*
Y238190D02*
D03*
Y288190D02*
D03*
Y338190D02*
D03*
Y388190D02*
D03*
Y438190D02*
D03*
Y488190D02*
D03*
Y538190D02*
D03*
Y588190D02*
D03*
Y638190D02*
D03*
Y688190D02*
D03*
Y738190D02*
D03*
Y788190D02*
D03*
%TF.MD5,c6c47c6787418678fd6ed89dd380fb9a*%
M02*
