%TF.GenerationSoftware,Altium Limited,Altium Designer,20.1.11 (218)*%
G04 Layer_Color=65535*
%FSLAX26Y26*%
%MOIN*%
%TF.SameCoordinates,F1652399-7491-40A6-9504-01A14B245E9D*%
%TF.FilePolarity,Positive*%
%TF.FileFunction,Legend,Top*%
%TF.Part,Single*%
G01*
G75*
%TA.AperFunction,NonConductor*%
%ADD61C,0.010000*%
%ADD66C,0.009842*%
%ADD79C,0.007874*%
%ADD80C,0.003937*%
%ADD81C,0.005000*%
%ADD97C,0.004724*%
G36*
X830710Y1173832D02*
X827072Y1172326D01*
X779229Y1220169D01*
X780736Y1223806D01*
X830710D01*
Y1173832D01*
D02*
G37*
G36*
X654123Y1214514D02*
X657944D01*
Y1214196D01*
X660491D01*
Y1213877D01*
X662402D01*
Y1213559D01*
X663994D01*
Y1213241D01*
X665268D01*
Y1212922D01*
X666542D01*
Y1212604D01*
X667816D01*
Y1212285D01*
X669089D01*
Y1211967D01*
X670045D01*
Y1211648D01*
X671000D01*
Y1211330D01*
X671955D01*
Y1211012D01*
X672911D01*
Y1210693D01*
X673866D01*
Y1210375D01*
X674503D01*
Y1210056D01*
X675458D01*
Y1209738D01*
X676095D01*
Y1209419D01*
X677050D01*
Y1209101D01*
X677687D01*
Y1208782D01*
X678324D01*
Y1208464D01*
X678961D01*
Y1208146D01*
X679916D01*
Y1207827D01*
X680553D01*
Y1207509D01*
X681190D01*
Y1207190D01*
X681827D01*
Y1206872D01*
X682464D01*
Y1206553D01*
X682782D01*
Y1206235D01*
X683419D01*
Y1205917D01*
X684056D01*
Y1205598D01*
X684693D01*
Y1205280D01*
X685330D01*
Y1204961D01*
X685648D01*
Y1204643D01*
X686285D01*
Y1204324D01*
X686922D01*
Y1204006D01*
X687240D01*
Y1203687D01*
X687877D01*
Y1203369D01*
X688514D01*
Y1203051D01*
X688832D01*
Y1202732D01*
X689469D01*
Y1202414D01*
X689788D01*
Y1202095D01*
X690425D01*
Y1201777D01*
X690743D01*
Y1201458D01*
X691380D01*
Y1201140D01*
X691698D01*
Y1200822D01*
X692335D01*
Y1200503D01*
X692654D01*
Y1200185D01*
X693290D01*
Y1199866D01*
X693609D01*
Y1199548D01*
X693927D01*
Y1199229D01*
X694564D01*
Y1198911D01*
X694883D01*
Y1198592D01*
X695520D01*
Y1198274D01*
X695838D01*
Y1197956D01*
X696157D01*
Y1197637D01*
X696475D01*
Y1197319D01*
X697112D01*
Y1197000D01*
X697430D01*
Y1196682D01*
X697749D01*
Y1196363D01*
X698386D01*
Y1196045D01*
X698704D01*
Y1195726D01*
X699022D01*
Y1195408D01*
X699341D01*
Y1195090D01*
X699659D01*
Y1194771D01*
X700296D01*
Y1194453D01*
X700615D01*
Y1194134D01*
X700933D01*
Y1193816D01*
X701251D01*
Y1193497D01*
X701570D01*
Y1193179D01*
X701888D01*
Y1192861D01*
X702525D01*
Y1192542D01*
X702844D01*
Y1192224D01*
X703162D01*
Y1191905D01*
X703481D01*
Y1191587D01*
X703799D01*
Y1191268D01*
X704117D01*
Y1190950D01*
X704436D01*
Y1190631D01*
X704754D01*
Y1190313D01*
X705073D01*
Y1189995D01*
X705391D01*
Y1189676D01*
X706028D01*
Y1189358D01*
X706346D01*
Y1189039D01*
X706665D01*
Y1188721D01*
X706983D01*
Y1188402D01*
X707302D01*
Y1188084D01*
X707620D01*
Y1187766D01*
X707939D01*
Y1187447D01*
X708257D01*
Y1187129D01*
X708576D01*
Y1186810D01*
X708894D01*
Y1186492D01*
X709212D01*
Y1186173D01*
X709531D01*
Y1185855D01*
X709849D01*
Y1185536D01*
X710168D01*
Y1185218D01*
X710486D01*
Y1184900D01*
X710805D01*
Y1184581D01*
X711123D01*
Y1184263D01*
X711441D01*
Y1183944D01*
Y1183626D01*
X711760D01*
Y1183307D01*
X712078D01*
Y1182989D01*
X712397D01*
Y1182671D01*
X712715D01*
Y1182352D01*
X713034D01*
Y1182034D01*
X713352D01*
Y1181715D01*
X713670D01*
Y1181397D01*
X713989D01*
Y1181078D01*
X714307D01*
Y1180760D01*
X714626D01*
Y1180441D01*
X714944D01*
Y1180123D01*
Y1179805D01*
X715263D01*
Y1179486D01*
X715581D01*
Y1179168D01*
X715900D01*
Y1178849D01*
X716218D01*
Y1178531D01*
X716536D01*
Y1178213D01*
X716855D01*
Y1177894D01*
X717173D01*
Y1177576D01*
Y1177257D01*
X717492D01*
Y1176939D01*
X717810D01*
Y1176620D01*
X718129D01*
Y1176302D01*
X718447D01*
Y1175983D01*
X718765D01*
Y1175665D01*
X719084D01*
Y1175347D01*
Y1175028D01*
X719402D01*
Y1174710D01*
X719721D01*
Y1174391D01*
X720039D01*
Y1174073D01*
X720358D01*
Y1173754D01*
Y1173436D01*
X720676D01*
Y1173118D01*
X720995D01*
Y1172799D01*
X721313D01*
Y1172481D01*
X721631D01*
Y1172162D01*
Y1171844D01*
X721950D01*
Y1171525D01*
X722268D01*
Y1171207D01*
X722587D01*
Y1170888D01*
X722905D01*
Y1170570D01*
Y1170252D01*
X723224D01*
Y1169933D01*
X723542D01*
Y1169615D01*
X723861D01*
Y1169296D01*
X724179D01*
Y1168978D01*
Y1168659D01*
X724497D01*
Y1168341D01*
X724816D01*
Y1168023D01*
X725134D01*
Y1167704D01*
Y1167386D01*
X725453D01*
Y1167067D01*
X725771D01*
Y1166749D01*
Y1166430D01*
X725453D01*
Y1166112D01*
X725134D01*
Y1165793D01*
Y1165475D01*
X724816D01*
Y1165157D01*
X724497D01*
Y1164838D01*
Y1164520D01*
X724179D01*
Y1164201D01*
X723861D01*
Y1163883D01*
Y1163564D01*
X723542D01*
Y1163246D01*
X723224D01*
Y1162928D01*
X722905D01*
Y1162609D01*
Y1162291D01*
X722587D01*
Y1161972D01*
X722268D01*
Y1161654D01*
Y1161335D01*
X721950D01*
Y1161017D01*
X721631D01*
Y1160698D01*
X721313D01*
Y1160380D01*
X720995D01*
Y1160062D01*
Y1159743D01*
X720676D01*
Y1159425D01*
X720358D01*
Y1159106D01*
X720039D01*
Y1158788D01*
Y1158469D01*
X719721D01*
Y1158151D01*
X719402D01*
Y1157832D01*
X719084D01*
Y1157514D01*
X718765D01*
Y1157196D01*
Y1156877D01*
X718447D01*
Y1156559D01*
X718129D01*
Y1156240D01*
X717810D01*
Y1155922D01*
X717492D01*
Y1155603D01*
X717173D01*
Y1155285D01*
Y1154966D01*
X716855D01*
Y1154648D01*
X716536D01*
Y1154330D01*
X716218D01*
Y1154011D01*
X715900D01*
Y1153693D01*
X715581D01*
Y1153374D01*
X715263D01*
Y1153056D01*
X714944D01*
Y1152737D01*
Y1152419D01*
X714626D01*
Y1152101D01*
X714307D01*
Y1151782D01*
X713989D01*
Y1151464D01*
X713670D01*
Y1151145D01*
X713352D01*
Y1150827D01*
X713034D01*
Y1150508D01*
X712715D01*
Y1150190D01*
X712397D01*
Y1149872D01*
X712078D01*
Y1149553D01*
X711760D01*
Y1149235D01*
X711441D01*
Y1148916D01*
X711123D01*
Y1148598D01*
X710805D01*
Y1148279D01*
X710486D01*
Y1147961D01*
X710168D01*
Y1147642D01*
Y1147324D01*
X709849D01*
Y1147006D01*
X709531D01*
Y1146687D01*
X709212D01*
Y1146369D01*
X708894D01*
Y1146050D01*
X708576D01*
Y1145732D01*
X707939D01*
Y1145414D01*
X707620D01*
Y1145095D01*
X707302D01*
Y1144777D01*
X706983D01*
Y1144458D01*
X706665D01*
Y1144140D01*
X706346D01*
Y1143821D01*
X706028D01*
Y1143503D01*
X705710D01*
Y1143184D01*
X705391D01*
Y1142866D01*
X705073D01*
Y1142547D01*
X704754D01*
Y1142229D01*
X704436D01*
Y1141911D01*
X704117D01*
Y1141592D01*
X703799D01*
Y1141274D01*
X703162D01*
Y1140955D01*
X702844D01*
Y1140637D01*
X702525D01*
Y1140318D01*
X702207D01*
Y1140000D01*
X701888D01*
Y1139682D01*
X701570D01*
Y1139363D01*
X700933D01*
Y1139045D01*
X700615D01*
Y1138726D01*
X700296D01*
Y1138408D01*
X699978D01*
Y1138089D01*
X699659D01*
Y1137771D01*
X699022D01*
Y1137453D01*
X698704D01*
Y1137134D01*
X698386D01*
Y1136816D01*
X698067D01*
Y1136497D01*
X697430D01*
Y1136179D01*
X697112D01*
Y1135860D01*
X696793D01*
Y1135542D01*
X696157D01*
Y1135223D01*
X695838D01*
Y1134905D01*
X695520D01*
Y1134586D01*
X694883D01*
Y1134268D01*
X694564D01*
Y1133950D01*
X694246D01*
Y1133631D01*
X693609D01*
Y1133313D01*
X693290D01*
Y1132994D01*
X692654D01*
Y1132676D01*
X692335D01*
Y1132358D01*
X692017D01*
Y1132039D01*
X691380D01*
Y1131721D01*
X691062D01*
Y1131402D01*
X690425D01*
Y1131084D01*
X690106D01*
Y1130765D01*
X689469D01*
Y1130447D01*
X689151D01*
Y1130129D01*
X688514D01*
Y1129810D01*
X687877D01*
Y1129492D01*
X687559D01*
Y1129173D01*
X686922D01*
Y1128855D01*
X686285D01*
Y1128536D01*
X685966D01*
Y1128218D01*
X685330D01*
Y1127899D01*
X684693D01*
Y1127581D01*
X684056D01*
Y1127263D01*
X683737D01*
Y1126944D01*
X683101D01*
Y1126626D01*
X682464D01*
Y1126307D01*
X681827D01*
Y1125989D01*
X681190D01*
Y1125670D01*
X680553D01*
Y1125352D01*
X679916D01*
Y1125034D01*
X679279D01*
Y1124715D01*
X678643D01*
Y1124397D01*
X678006D01*
Y1124078D01*
X677050D01*
Y1123760D01*
X676413D01*
Y1123441D01*
X675777D01*
Y1123123D01*
X674821D01*
Y1122804D01*
X674184D01*
Y1122486D01*
X673229D01*
Y1122168D01*
X672592D01*
Y1121849D01*
X671637D01*
Y1121531D01*
X670682D01*
Y1121212D01*
X669726D01*
Y1120894D01*
X668771D01*
Y1120575D01*
X667497D01*
Y1120257D01*
X666542D01*
Y1119938D01*
X665268D01*
Y1119620D01*
X663994D01*
Y1119302D01*
X662402D01*
Y1118983D01*
X660810D01*
Y1118665D01*
X658581D01*
Y1118346D01*
X656033D01*
Y1118028D01*
X651575D01*
Y1117709D01*
X648072D01*
Y1118028D01*
X643614D01*
Y1118346D01*
X641067D01*
Y1118665D01*
X639156D01*
Y1118983D01*
X637564D01*
Y1119302D01*
X635972D01*
Y1119620D01*
X634698D01*
Y1119938D01*
X633424D01*
Y1120257D01*
X632469D01*
Y1120575D01*
X631514D01*
Y1120894D01*
X630558D01*
Y1121212D01*
X629603D01*
Y1121531D01*
X628648D01*
Y1121849D01*
X627692D01*
Y1122168D01*
X627056D01*
Y1122486D01*
X626100D01*
Y1122804D01*
X625463D01*
Y1123123D01*
X624508D01*
Y1123441D01*
X623871D01*
Y1123760D01*
X623234D01*
Y1124078D01*
X622597D01*
Y1124397D01*
X621961D01*
Y1124715D01*
X621324D01*
Y1125034D01*
X620687D01*
Y1125352D01*
X620050D01*
Y1125670D01*
X619413D01*
Y1125989D01*
X618776D01*
Y1126307D01*
X618139D01*
Y1126626D01*
X617503D01*
Y1126944D01*
X617184D01*
Y1127263D01*
X616547D01*
Y1127581D01*
X615910D01*
Y1127899D01*
X615592D01*
Y1128218D01*
X614955D01*
Y1128536D01*
X614318D01*
Y1128855D01*
X614000D01*
Y1129173D01*
X613363D01*
Y1129492D01*
X613044D01*
Y1129810D01*
X612408D01*
Y1130129D01*
X612089D01*
Y1130447D01*
X611452D01*
Y1130765D01*
X611134D01*
Y1131084D01*
X610815D01*
Y1131402D01*
X610178D01*
Y1131721D01*
X609860D01*
Y1132039D01*
X609223D01*
Y1132358D01*
X608905D01*
Y1132676D01*
X608586D01*
Y1132994D01*
X607949D01*
Y1133313D01*
X607631D01*
Y1133631D01*
X607312D01*
Y1133950D01*
X606676D01*
Y1134268D01*
X606357D01*
Y1134586D01*
X606039D01*
Y1134905D01*
X605720D01*
Y1135223D01*
X605083D01*
Y1135542D01*
X604765D01*
Y1135860D01*
X604447D01*
Y1136179D01*
X604128D01*
Y1136497D01*
X603810D01*
Y1136816D01*
X603491D01*
Y1137134D01*
X602854D01*
Y1137453D01*
X602536D01*
Y1137771D01*
X602217D01*
Y1138089D01*
X601899D01*
Y1138408D01*
X601581D01*
Y1138726D01*
X601262D01*
Y1139045D01*
X600944D01*
Y1139363D01*
X600625D01*
Y1139682D01*
X599989D01*
Y1140000D01*
X599670D01*
Y1140318D01*
X599352D01*
Y1140637D01*
X599033D01*
Y1140955D01*
X598715D01*
Y1141274D01*
X598396D01*
Y1141592D01*
X598078D01*
Y1141911D01*
X597759D01*
Y1142229D01*
X597441D01*
Y1142547D01*
X597122D01*
Y1142866D01*
X596804D01*
Y1143184D01*
X596486D01*
Y1143503D01*
X596167D01*
Y1143821D01*
X595849D01*
Y1144140D01*
X595530D01*
Y1144458D01*
X595212D01*
Y1144777D01*
X594893D01*
Y1145095D01*
X594575D01*
Y1145414D01*
X594257D01*
Y1145732D01*
X593938D01*
Y1146050D01*
X593620D01*
Y1146369D01*
Y1146687D01*
X593301D01*
Y1147006D01*
X592983D01*
Y1147324D01*
X592664D01*
Y1147642D01*
X592346D01*
Y1147961D01*
X592028D01*
Y1148279D01*
X591709D01*
Y1148598D01*
X591391D01*
Y1148916D01*
X591072D01*
Y1149235D01*
X590754D01*
Y1149553D01*
Y1149872D01*
X590435D01*
Y1150190D01*
X590117D01*
Y1150508D01*
X589798D01*
Y1150827D01*
X589480D01*
Y1151145D01*
X589162D01*
Y1151464D01*
X588843D01*
Y1151782D01*
Y1152101D01*
X588525D01*
Y1152419D01*
X588206D01*
Y1152737D01*
X587888D01*
Y1153056D01*
X587569D01*
Y1153374D01*
X587251D01*
Y1153693D01*
Y1154011D01*
X586933D01*
Y1154330D01*
X586614D01*
Y1154648D01*
X586296D01*
Y1154966D01*
X585977D01*
Y1155285D01*
Y1155603D01*
X585659D01*
Y1155922D01*
X585340D01*
Y1156240D01*
X585022D01*
Y1156559D01*
X584703D01*
Y1156877D01*
Y1157196D01*
X584385D01*
Y1157514D01*
X584067D01*
Y1157832D01*
X583748D01*
Y1158151D01*
Y1158469D01*
X583430D01*
Y1158788D01*
X583111D01*
Y1159106D01*
X582793D01*
Y1159425D01*
Y1159743D01*
X582474D01*
Y1160062D01*
X582156D01*
Y1160380D01*
X581838D01*
Y1160698D01*
Y1161017D01*
X581519D01*
Y1161335D01*
X581201D01*
Y1161654D01*
X580882D01*
Y1161972D01*
Y1162291D01*
X580564D01*
Y1162609D01*
X580245D01*
Y1162928D01*
Y1163246D01*
X579927D01*
Y1163564D01*
X579609D01*
Y1163883D01*
X579290D01*
Y1164201D01*
Y1164520D01*
X578972D01*
Y1164838D01*
X578653D01*
Y1165157D01*
Y1165475D01*
X578335D01*
Y1165793D01*
X578016D01*
Y1166112D01*
X577698D01*
Y1166430D01*
Y1166749D01*
X578016D01*
Y1167067D01*
X578335D01*
Y1167386D01*
Y1167704D01*
X578653D01*
Y1168023D01*
Y1168341D01*
X578972D01*
Y1168659D01*
X579290D01*
Y1168978D01*
Y1169296D01*
X579609D01*
Y1169615D01*
X579927D01*
Y1169933D01*
Y1170252D01*
X580245D01*
Y1170570D01*
X580564D01*
Y1170888D01*
Y1171207D01*
X580882D01*
Y1171525D01*
X581201D01*
Y1171844D01*
Y1172162D01*
X581519D01*
Y1172481D01*
X581838D01*
Y1172799D01*
X582156D01*
Y1173118D01*
Y1173436D01*
X582474D01*
Y1173754D01*
X582793D01*
Y1174073D01*
X583111D01*
Y1174391D01*
Y1174710D01*
X583430D01*
Y1175028D01*
X583748D01*
Y1175347D01*
X584067D01*
Y1175665D01*
Y1175983D01*
X584385D01*
Y1176302D01*
X584703D01*
Y1176620D01*
X585022D01*
Y1176939D01*
Y1177257D01*
X585340D01*
Y1177576D01*
X585659D01*
Y1177894D01*
X585977D01*
Y1178213D01*
X586296D01*
Y1178531D01*
X586614D01*
Y1178849D01*
Y1179168D01*
X586933D01*
Y1179486D01*
X587251D01*
Y1179805D01*
X587569D01*
Y1180123D01*
X587888D01*
Y1180441D01*
X588206D01*
Y1180760D01*
Y1181078D01*
X588525D01*
Y1181397D01*
X588843D01*
Y1181715D01*
X589162D01*
Y1182034D01*
X589480D01*
Y1182352D01*
X589798D01*
Y1182671D01*
X590117D01*
Y1182989D01*
X590435D01*
Y1183307D01*
Y1183626D01*
X590754D01*
Y1183944D01*
X591072D01*
Y1184263D01*
X591391D01*
Y1184581D01*
X591709D01*
Y1184900D01*
X592028D01*
Y1185218D01*
X592346D01*
Y1185536D01*
X592664D01*
Y1185855D01*
X592983D01*
Y1186173D01*
X593301D01*
Y1186492D01*
X593620D01*
Y1186810D01*
X593938D01*
Y1187129D01*
X594257D01*
Y1187447D01*
X594575D01*
Y1187766D01*
X594893D01*
Y1188084D01*
X595212D01*
Y1188402D01*
X595530D01*
Y1188721D01*
X595849D01*
Y1189039D01*
X596167D01*
Y1189358D01*
X596486D01*
Y1189676D01*
X596804D01*
Y1189995D01*
X597122D01*
Y1190313D01*
X597441D01*
Y1190631D01*
X597759D01*
Y1190950D01*
X598078D01*
Y1191268D01*
X598396D01*
Y1191587D01*
X598715D01*
Y1191905D01*
X599033D01*
Y1192224D01*
X599670D01*
Y1192542D01*
X599989D01*
Y1192861D01*
X600307D01*
Y1193179D01*
X600625D01*
Y1193497D01*
X600944D01*
Y1193816D01*
X601262D01*
Y1194134D01*
X601581D01*
Y1194453D01*
X602217D01*
Y1194771D01*
X602536D01*
Y1195090D01*
X602854D01*
Y1195408D01*
X603173D01*
Y1195726D01*
X603491D01*
Y1196045D01*
X604128D01*
Y1196363D01*
X604447D01*
Y1196682D01*
X604765D01*
Y1197000D01*
X605083D01*
Y1197319D01*
X605720D01*
Y1197637D01*
X606039D01*
Y1197956D01*
X606357D01*
Y1198274D01*
X606994D01*
Y1198592D01*
X607312D01*
Y1198911D01*
X607631D01*
Y1199229D01*
X608268D01*
Y1199548D01*
X608586D01*
Y1199866D01*
X608905D01*
Y1200185D01*
X609542D01*
Y1200503D01*
X609860D01*
Y1200822D01*
X610497D01*
Y1201140D01*
X610815D01*
Y1201458D01*
X611452D01*
Y1201777D01*
X611771D01*
Y1202095D01*
X612408D01*
Y1202414D01*
X612726D01*
Y1202732D01*
X613363D01*
Y1203051D01*
X613681D01*
Y1203369D01*
X614318D01*
Y1203687D01*
X614637D01*
Y1204006D01*
X615274D01*
Y1204324D01*
X615910D01*
Y1204643D01*
X616547D01*
Y1204961D01*
X616866D01*
Y1205280D01*
X617503D01*
Y1205598D01*
X618139D01*
Y1205917D01*
X618776D01*
Y1206235D01*
X619413D01*
Y1206553D01*
X619731D01*
Y1206872D01*
X620368D01*
Y1207190D01*
X621005D01*
Y1207509D01*
X621642D01*
Y1207827D01*
X622597D01*
Y1208146D01*
X623234D01*
Y1208464D01*
X623871D01*
Y1208782D01*
X624508D01*
Y1209101D01*
X625145D01*
Y1209419D01*
X626100D01*
Y1209738D01*
X626737D01*
Y1210056D01*
X627692D01*
Y1210375D01*
X628329D01*
Y1210693D01*
X629285D01*
Y1211012D01*
X630240D01*
Y1211330D01*
X631195D01*
Y1211648D01*
X632151D01*
Y1211967D01*
X633106D01*
Y1212285D01*
X634380D01*
Y1212604D01*
X635654D01*
Y1212922D01*
X636927D01*
Y1213241D01*
X638201D01*
Y1213559D01*
X640111D01*
Y1213877D01*
X642022D01*
Y1214196D01*
X644251D01*
Y1214514D01*
X648072D01*
Y1214833D01*
X654123D01*
Y1214514D01*
D02*
G37*
G36*
X600392Y1109537D02*
Y1109390D01*
Y1109244D01*
Y1109097D01*
Y1108950D01*
Y1108804D01*
Y1108657D01*
Y1108510D01*
Y1108364D01*
Y1108217D01*
Y1108071D01*
Y1107924D01*
Y1107777D01*
Y1107631D01*
Y1107484D01*
Y1107338D01*
Y1107191D01*
Y1107044D01*
Y1106898D01*
Y1106751D01*
Y1106604D01*
Y1106458D01*
Y1106311D01*
Y1106165D01*
X596883D01*
Y1106311D01*
Y1106458D01*
Y1106604D01*
Y1106751D01*
Y1106898D01*
Y1107044D01*
Y1107191D01*
Y1107338D01*
Y1107484D01*
Y1107631D01*
Y1107777D01*
Y1107924D01*
Y1108071D01*
Y1108217D01*
Y1108364D01*
Y1108510D01*
Y1108657D01*
Y1108804D01*
Y1108950D01*
Y1109097D01*
Y1109244D01*
Y1109390D01*
Y1109537D01*
Y1109683D01*
X600392D01*
Y1109537D01*
D02*
G37*
G36*
X833798Y1110270D02*
Y1110123D01*
Y1109977D01*
Y1109830D01*
Y1109683D01*
Y1109537D01*
Y1109390D01*
Y1109244D01*
Y1109097D01*
Y1108950D01*
Y1108804D01*
Y1108657D01*
Y1108510D01*
Y1108364D01*
Y1108217D01*
Y1108071D01*
Y1107924D01*
Y1107777D01*
Y1107631D01*
Y1107484D01*
Y1107338D01*
Y1107191D01*
Y1107044D01*
Y1106898D01*
Y1106751D01*
Y1106604D01*
Y1106458D01*
Y1106311D01*
Y1106165D01*
Y1106018D01*
Y1105871D01*
Y1105725D01*
Y1105578D01*
Y1105432D01*
Y1105285D01*
Y1105138D01*
Y1104992D01*
Y1104845D01*
Y1104698D01*
Y1104552D01*
Y1104405D01*
Y1104259D01*
Y1104112D01*
Y1103965D01*
Y1103819D01*
Y1103672D01*
Y1103526D01*
Y1103379D01*
Y1103232D01*
Y1103086D01*
Y1102939D01*
X826330D01*
Y1103086D01*
Y1103232D01*
Y1103379D01*
Y1103526D01*
Y1103672D01*
Y1103819D01*
Y1103965D01*
Y1104112D01*
Y1104259D01*
Y1104405D01*
Y1104552D01*
Y1104698D01*
Y1104845D01*
Y1104992D01*
Y1105138D01*
Y1105285D01*
Y1105432D01*
Y1105578D01*
Y1105725D01*
Y1105871D01*
Y1106018D01*
Y1106165D01*
Y1106311D01*
Y1106458D01*
Y1106604D01*
Y1106751D01*
Y1106898D01*
Y1107044D01*
Y1107191D01*
Y1107338D01*
Y1107484D01*
Y1107631D01*
Y1107777D01*
Y1107924D01*
Y1108071D01*
Y1108217D01*
Y1108364D01*
Y1108510D01*
Y1108657D01*
Y1108804D01*
Y1108950D01*
Y1109097D01*
Y1109244D01*
Y1109390D01*
Y1109537D01*
Y1109683D01*
Y1109830D01*
Y1109977D01*
Y1110123D01*
Y1110270D01*
Y1110416D01*
X833798D01*
Y1110270D01*
D02*
G37*
G36*
X723116D02*
Y1110123D01*
Y1109977D01*
Y1109830D01*
Y1109683D01*
Y1109537D01*
Y1109390D01*
Y1109244D01*
Y1109097D01*
Y1108950D01*
Y1108804D01*
Y1108657D01*
Y1108510D01*
Y1108364D01*
Y1108217D01*
Y1108071D01*
Y1107924D01*
Y1107777D01*
Y1107631D01*
Y1107484D01*
Y1107338D01*
Y1107191D01*
Y1107044D01*
Y1106898D01*
Y1106751D01*
Y1106604D01*
Y1106458D01*
Y1106311D01*
Y1106165D01*
Y1106018D01*
Y1105871D01*
Y1105725D01*
Y1105578D01*
Y1105432D01*
Y1105285D01*
Y1105138D01*
Y1104992D01*
Y1104845D01*
Y1104698D01*
Y1104552D01*
Y1104405D01*
Y1104259D01*
Y1104112D01*
Y1103965D01*
Y1103819D01*
Y1103672D01*
Y1103526D01*
Y1103379D01*
Y1103232D01*
Y1103086D01*
Y1102939D01*
X715785D01*
Y1103086D01*
Y1103232D01*
Y1103379D01*
Y1103526D01*
Y1103672D01*
Y1103819D01*
Y1103965D01*
Y1104112D01*
Y1104259D01*
Y1104405D01*
Y1104552D01*
Y1104698D01*
Y1104845D01*
Y1104992D01*
Y1105138D01*
Y1105285D01*
Y1105432D01*
Y1105578D01*
Y1105725D01*
Y1105871D01*
Y1106018D01*
Y1106165D01*
Y1106311D01*
Y1106458D01*
Y1106604D01*
Y1106751D01*
Y1106898D01*
Y1107044D01*
Y1107191D01*
Y1107338D01*
Y1107484D01*
Y1107631D01*
Y1107777D01*
Y1107924D01*
Y1108071D01*
Y1108217D01*
Y1108364D01*
Y1108510D01*
Y1108657D01*
Y1108804D01*
Y1108950D01*
Y1109097D01*
Y1109244D01*
Y1109390D01*
Y1109537D01*
Y1109683D01*
Y1109830D01*
Y1109977D01*
Y1110123D01*
Y1110270D01*
Y1110416D01*
X723116D01*
Y1110270D01*
D02*
G37*
G36*
X685143D02*
Y1110123D01*
Y1109977D01*
Y1109830D01*
Y1109683D01*
Y1109537D01*
Y1109390D01*
Y1109244D01*
Y1109097D01*
Y1108950D01*
Y1108804D01*
Y1108657D01*
Y1108510D01*
Y1108364D01*
Y1108217D01*
Y1108071D01*
Y1107924D01*
Y1107777D01*
Y1107631D01*
Y1107484D01*
Y1107338D01*
Y1107191D01*
Y1107044D01*
Y1106898D01*
Y1106751D01*
Y1106604D01*
Y1106458D01*
Y1106311D01*
Y1106165D01*
Y1106018D01*
Y1105871D01*
Y1105725D01*
Y1105578D01*
Y1105432D01*
Y1105285D01*
Y1105138D01*
Y1104992D01*
Y1104845D01*
Y1104698D01*
Y1104552D01*
Y1104405D01*
Y1104259D01*
Y1104112D01*
Y1103965D01*
Y1103819D01*
Y1103672D01*
Y1103526D01*
Y1103379D01*
Y1103232D01*
Y1103086D01*
Y1102939D01*
X677813D01*
Y1103086D01*
Y1103232D01*
Y1103379D01*
Y1103526D01*
Y1103672D01*
Y1103819D01*
Y1103965D01*
Y1104112D01*
Y1104259D01*
Y1104405D01*
Y1104552D01*
Y1104698D01*
Y1104845D01*
Y1104992D01*
Y1105138D01*
Y1105285D01*
Y1105432D01*
Y1105578D01*
Y1105725D01*
Y1105871D01*
Y1106018D01*
Y1106165D01*
Y1106311D01*
Y1106458D01*
Y1106604D01*
Y1106751D01*
Y1106898D01*
Y1107044D01*
Y1107191D01*
Y1107338D01*
Y1107484D01*
Y1107631D01*
Y1107777D01*
Y1107924D01*
Y1108071D01*
Y1108217D01*
Y1108364D01*
Y1108510D01*
Y1108657D01*
Y1108804D01*
Y1108950D01*
Y1109097D01*
Y1109244D01*
Y1109390D01*
Y1109537D01*
Y1109683D01*
Y1109830D01*
Y1109977D01*
Y1110123D01*
Y1110270D01*
Y1110416D01*
X685143D01*
Y1110270D01*
D02*
G37*
G36*
X771791Y1101180D02*
X773101D01*
Y1101033D01*
X773843D01*
Y1100887D01*
X774274D01*
Y1100740D01*
X774713D01*
Y1100593D01*
X775007D01*
Y1100447D01*
X775309D01*
Y1100300D01*
X775603D01*
Y1100153D01*
X775896D01*
Y1100007D01*
X776043D01*
Y1099860D01*
X776326D01*
Y1099714D01*
X776473D01*
Y1099567D01*
X776619D01*
Y1099420D01*
X776766D01*
Y1099274D01*
X776922D01*
Y1099127D01*
X777059D01*
Y1098981D01*
X777206D01*
Y1098834D01*
X777352D01*
Y1098687D01*
X777499D01*
Y1098541D01*
X777509D01*
Y1098394D01*
X777655D01*
Y1098248D01*
X777792D01*
Y1098101D01*
X777802D01*
Y1097954D01*
X777949D01*
Y1097808D01*
Y1097661D01*
X778095D01*
Y1097515D01*
X778085D01*
Y1097368D01*
X778242D01*
Y1097221D01*
Y1097075D01*
Y1096928D01*
X778379D01*
Y1096782D01*
X778388D01*
Y1096635D01*
Y1096488D01*
X778525D01*
Y1096342D01*
Y1096195D01*
Y1096048D01*
Y1095902D01*
X778682D01*
Y1095755D01*
Y1095609D01*
Y1095462D01*
Y1095315D01*
X778672D01*
Y1095169D01*
X778828D01*
Y1095022D01*
X778818D01*
Y1094876D01*
X778828D01*
Y1094729D01*
X778818D01*
Y1094582D01*
X778828D01*
Y1094436D01*
X778818D01*
Y1094289D01*
Y1094142D01*
Y1093996D01*
X778975D01*
Y1093849D01*
X778965D01*
Y1093703D01*
Y1093556D01*
X778975D01*
Y1093409D01*
Y1093263D01*
Y1093116D01*
X778965D01*
Y1092970D01*
Y1092823D01*
Y1092676D01*
Y1092530D01*
Y1092383D01*
Y1092236D01*
Y1092090D01*
Y1091943D01*
X778975D01*
Y1091797D01*
Y1091650D01*
Y1091503D01*
Y1091357D01*
Y1091210D01*
Y1091064D01*
Y1090917D01*
Y1090770D01*
Y1090624D01*
Y1090477D01*
Y1090331D01*
Y1090184D01*
Y1090037D01*
Y1089891D01*
Y1089744D01*
Y1089598D01*
Y1089451D01*
Y1089304D01*
Y1089158D01*
Y1089011D01*
Y1088864D01*
Y1088718D01*
Y1088571D01*
Y1088425D01*
Y1088278D01*
Y1088131D01*
Y1087985D01*
Y1087838D01*
Y1087691D01*
Y1087545D01*
Y1087398D01*
Y1087252D01*
Y1087105D01*
Y1086958D01*
Y1086812D01*
Y1086665D01*
Y1086519D01*
Y1086372D01*
Y1086225D01*
Y1086079D01*
Y1085932D01*
Y1085786D01*
Y1085639D01*
Y1085492D01*
Y1085346D01*
Y1085199D01*
Y1085053D01*
Y1084906D01*
Y1084759D01*
Y1084613D01*
Y1084466D01*
Y1084320D01*
Y1084173D01*
Y1084026D01*
Y1083880D01*
Y1083733D01*
Y1083586D01*
Y1083440D01*
Y1083293D01*
Y1083147D01*
Y1083000D01*
Y1082853D01*
Y1082707D01*
Y1082560D01*
Y1082414D01*
Y1082267D01*
Y1082120D01*
Y1081974D01*
Y1081827D01*
Y1081680D01*
Y1081534D01*
Y1081387D01*
Y1081241D01*
Y1081094D01*
Y1080947D01*
Y1080801D01*
Y1080654D01*
Y1080507D01*
Y1080361D01*
Y1080214D01*
Y1080068D01*
Y1079921D01*
Y1079774D01*
Y1079628D01*
Y1079481D01*
Y1079335D01*
Y1079188D01*
Y1079042D01*
Y1078895D01*
Y1078748D01*
Y1078602D01*
Y1078455D01*
Y1078308D01*
Y1078162D01*
Y1078015D01*
Y1077869D01*
Y1077722D01*
Y1077575D01*
Y1077429D01*
Y1077282D01*
Y1077136D01*
Y1076989D01*
Y1076842D01*
Y1076696D01*
Y1076549D01*
Y1076402D01*
Y1076256D01*
Y1076109D01*
Y1075963D01*
Y1075816D01*
Y1075669D01*
Y1075523D01*
Y1075376D01*
X771644D01*
Y1075523D01*
Y1075669D01*
Y1075816D01*
Y1075963D01*
Y1076109D01*
Y1076256D01*
Y1076402D01*
Y1076549D01*
Y1076696D01*
Y1076842D01*
Y1076989D01*
Y1077136D01*
Y1077282D01*
Y1077429D01*
Y1077575D01*
Y1077722D01*
Y1077869D01*
Y1078015D01*
Y1078162D01*
Y1078308D01*
Y1078455D01*
Y1078602D01*
Y1078748D01*
Y1078895D01*
Y1079042D01*
Y1079188D01*
Y1079335D01*
Y1079481D01*
Y1079628D01*
Y1079774D01*
Y1079921D01*
Y1080068D01*
Y1080214D01*
Y1080361D01*
Y1080507D01*
Y1080654D01*
Y1080801D01*
Y1080947D01*
Y1081094D01*
Y1081241D01*
Y1081387D01*
Y1081534D01*
Y1081680D01*
Y1081827D01*
Y1081974D01*
Y1082120D01*
Y1082267D01*
Y1082414D01*
Y1082560D01*
Y1082707D01*
Y1082853D01*
Y1083000D01*
Y1083147D01*
Y1083293D01*
Y1083440D01*
Y1083586D01*
Y1083733D01*
Y1083880D01*
Y1084026D01*
Y1084173D01*
Y1084320D01*
Y1084466D01*
Y1084613D01*
Y1084759D01*
Y1084906D01*
Y1085053D01*
Y1085199D01*
Y1085346D01*
Y1085492D01*
Y1085639D01*
Y1085786D01*
Y1085932D01*
Y1086079D01*
Y1086225D01*
Y1086372D01*
Y1086519D01*
Y1086665D01*
Y1086812D01*
Y1086958D01*
Y1087105D01*
Y1087252D01*
Y1087398D01*
Y1087545D01*
Y1087691D01*
Y1087838D01*
Y1087985D01*
Y1088131D01*
Y1088278D01*
Y1088425D01*
Y1088571D01*
Y1088718D01*
Y1088864D01*
Y1089011D01*
Y1089158D01*
Y1089304D01*
Y1089451D01*
Y1089598D01*
Y1089744D01*
Y1089891D01*
Y1090037D01*
Y1090184D01*
Y1090331D01*
Y1090477D01*
Y1090624D01*
Y1090770D01*
Y1090917D01*
Y1091064D01*
Y1091210D01*
Y1091357D01*
Y1091503D01*
Y1091650D01*
Y1091797D01*
Y1091943D01*
X771498D01*
Y1092090D01*
Y1092236D01*
Y1092383D01*
Y1092530D01*
Y1092676D01*
Y1092823D01*
Y1092970D01*
Y1093116D01*
X771351D01*
Y1093263D01*
Y1093409D01*
Y1093556D01*
X771204D01*
Y1093703D01*
Y1093849D01*
X771058D01*
Y1093996D01*
Y1094142D01*
X770911D01*
Y1094289D01*
Y1094436D01*
X770765D01*
Y1094582D01*
X770618D01*
Y1094729D01*
X770471D01*
Y1094876D01*
X770325D01*
Y1095022D01*
X770032D01*
Y1095169D01*
X769738D01*
Y1095315D01*
X769445D01*
Y1095462D01*
X767246D01*
Y1095315D01*
X766796D01*
Y1095169D01*
X766513D01*
Y1095022D01*
X766356D01*
Y1094876D01*
X766063D01*
Y1094729D01*
X765926D01*
Y1094582D01*
X765780D01*
Y1094436D01*
X765623D01*
Y1094289D01*
X765487D01*
Y1094142D01*
Y1093996D01*
X765330D01*
Y1093849D01*
X765193D01*
Y1093703D01*
Y1093556D01*
X765047D01*
Y1093409D01*
Y1093263D01*
X764890D01*
Y1093116D01*
Y1092970D01*
Y1092823D01*
X764754D01*
Y1092676D01*
Y1092530D01*
Y1092383D01*
X764597D01*
Y1092236D01*
Y1092090D01*
Y1091943D01*
Y1091797D01*
Y1091650D01*
X764460D01*
Y1091503D01*
Y1091357D01*
Y1091210D01*
Y1091064D01*
Y1090917D01*
Y1090770D01*
Y1090624D01*
Y1090477D01*
Y1090331D01*
Y1090184D01*
X764314D01*
Y1090037D01*
Y1089891D01*
Y1089744D01*
Y1089598D01*
Y1089451D01*
Y1089304D01*
Y1089158D01*
Y1089011D01*
Y1088864D01*
Y1088718D01*
Y1088571D01*
Y1088425D01*
Y1088278D01*
Y1088131D01*
Y1087985D01*
Y1087838D01*
Y1087691D01*
Y1087545D01*
Y1087398D01*
Y1087252D01*
Y1087105D01*
Y1086958D01*
Y1086812D01*
Y1086665D01*
Y1086519D01*
Y1086372D01*
Y1086225D01*
Y1086079D01*
Y1085932D01*
Y1085786D01*
Y1085639D01*
Y1085492D01*
Y1085346D01*
Y1085199D01*
Y1085053D01*
Y1084906D01*
Y1084759D01*
Y1084613D01*
Y1084466D01*
Y1084320D01*
Y1084173D01*
Y1084026D01*
Y1083880D01*
Y1083733D01*
Y1083586D01*
Y1083440D01*
Y1083293D01*
Y1083147D01*
Y1083000D01*
Y1082853D01*
Y1082707D01*
Y1082560D01*
Y1082414D01*
Y1082267D01*
Y1082120D01*
Y1081974D01*
Y1081827D01*
Y1081680D01*
Y1081534D01*
Y1081387D01*
Y1081241D01*
Y1081094D01*
Y1080947D01*
Y1080801D01*
Y1080654D01*
Y1080507D01*
Y1080361D01*
Y1080214D01*
Y1080068D01*
Y1079921D01*
Y1079774D01*
Y1079628D01*
Y1079481D01*
Y1079335D01*
Y1079188D01*
Y1079042D01*
Y1078895D01*
Y1078748D01*
Y1078602D01*
Y1078455D01*
Y1078308D01*
Y1078162D01*
Y1078015D01*
Y1077869D01*
Y1077722D01*
Y1077575D01*
Y1077429D01*
Y1077282D01*
Y1077136D01*
Y1076989D01*
Y1076842D01*
Y1076696D01*
Y1076549D01*
Y1076402D01*
Y1076256D01*
Y1076109D01*
Y1075963D01*
Y1075816D01*
Y1075669D01*
Y1075523D01*
Y1075376D01*
X756983D01*
Y1075523D01*
Y1075669D01*
Y1075816D01*
Y1075963D01*
Y1076109D01*
Y1076256D01*
Y1076402D01*
Y1076549D01*
Y1076696D01*
Y1076842D01*
Y1076989D01*
Y1077136D01*
Y1077282D01*
Y1077429D01*
Y1077575D01*
Y1077722D01*
Y1077869D01*
Y1078015D01*
Y1078162D01*
Y1078308D01*
Y1078455D01*
Y1078602D01*
Y1078748D01*
Y1078895D01*
Y1079042D01*
Y1079188D01*
Y1079335D01*
Y1079481D01*
Y1079628D01*
Y1079774D01*
Y1079921D01*
Y1080068D01*
Y1080214D01*
Y1080361D01*
Y1080507D01*
Y1080654D01*
Y1080801D01*
Y1080947D01*
Y1081094D01*
Y1081241D01*
Y1081387D01*
Y1081534D01*
Y1081680D01*
Y1081827D01*
Y1081974D01*
Y1082120D01*
Y1082267D01*
Y1082414D01*
Y1082560D01*
Y1082707D01*
Y1082853D01*
Y1083000D01*
Y1083147D01*
Y1083293D01*
Y1083440D01*
Y1083586D01*
Y1083733D01*
Y1083880D01*
Y1084026D01*
Y1084173D01*
Y1084320D01*
Y1084466D01*
Y1084613D01*
Y1084759D01*
Y1084906D01*
Y1085053D01*
Y1085199D01*
Y1085346D01*
Y1085492D01*
Y1085639D01*
Y1085786D01*
Y1085932D01*
Y1086079D01*
Y1086225D01*
Y1086372D01*
Y1086519D01*
Y1086665D01*
Y1086812D01*
Y1086958D01*
Y1087105D01*
Y1087252D01*
Y1087398D01*
Y1087545D01*
Y1087691D01*
Y1087838D01*
Y1087985D01*
Y1088131D01*
Y1088278D01*
Y1088425D01*
Y1088571D01*
Y1088718D01*
Y1088864D01*
Y1089011D01*
Y1089158D01*
Y1089304D01*
Y1089451D01*
Y1089598D01*
Y1089744D01*
Y1089891D01*
Y1090037D01*
Y1090184D01*
Y1090331D01*
Y1090477D01*
Y1090624D01*
Y1090770D01*
Y1090917D01*
Y1091064D01*
Y1091210D01*
Y1091357D01*
Y1091503D01*
Y1091650D01*
Y1091797D01*
Y1091943D01*
Y1092090D01*
Y1092236D01*
Y1092383D01*
Y1092530D01*
Y1092676D01*
Y1092823D01*
Y1092970D01*
Y1093116D01*
Y1093263D01*
Y1093409D01*
Y1093556D01*
Y1093703D01*
Y1093849D01*
Y1093996D01*
Y1094142D01*
Y1094289D01*
Y1094436D01*
Y1094582D01*
Y1094729D01*
Y1094876D01*
Y1095022D01*
Y1095169D01*
Y1095315D01*
Y1095462D01*
Y1095609D01*
Y1095755D01*
Y1095902D01*
Y1096048D01*
Y1096195D01*
Y1096342D01*
Y1096488D01*
Y1096635D01*
Y1096782D01*
Y1096928D01*
Y1097075D01*
Y1097221D01*
Y1097368D01*
Y1097515D01*
Y1097661D01*
Y1097808D01*
Y1097954D01*
Y1098101D01*
Y1098248D01*
Y1098394D01*
Y1098541D01*
Y1098687D01*
Y1098834D01*
Y1098981D01*
Y1099127D01*
Y1099274D01*
Y1099420D01*
Y1099567D01*
Y1099714D01*
Y1099860D01*
Y1100007D01*
Y1100153D01*
Y1100300D01*
Y1100447D01*
Y1100593D01*
Y1100740D01*
X763864D01*
Y1100593D01*
Y1100447D01*
Y1100300D01*
Y1100153D01*
Y1100007D01*
Y1099860D01*
Y1099714D01*
Y1099567D01*
Y1099420D01*
Y1099274D01*
Y1099127D01*
Y1098981D01*
Y1098834D01*
Y1098687D01*
Y1098541D01*
Y1098394D01*
Y1098248D01*
Y1098101D01*
Y1097954D01*
Y1097808D01*
Y1097661D01*
Y1097515D01*
Y1097368D01*
Y1097221D01*
Y1097075D01*
Y1096928D01*
Y1096782D01*
Y1096635D01*
Y1096488D01*
X764020D01*
Y1096635D01*
Y1096782D01*
X764167D01*
Y1096928D01*
X764314D01*
Y1097075D01*
Y1097221D01*
X764460D01*
Y1097368D01*
Y1097515D01*
X764607D01*
Y1097661D01*
X764754D01*
Y1097808D01*
Y1097954D01*
X764900D01*
Y1098101D01*
X765047D01*
Y1098248D01*
X765193D01*
Y1098394D01*
Y1098541D01*
X765340D01*
Y1098687D01*
X765487D01*
Y1098834D01*
X765633D01*
Y1098981D01*
X765780D01*
Y1099127D01*
X765926D01*
Y1099274D01*
X766073D01*
Y1099420D01*
X766220D01*
Y1099567D01*
X766366D01*
Y1099714D01*
X766513D01*
Y1099860D01*
X766659D01*
Y1100007D01*
X766806D01*
Y1100153D01*
X767099D01*
Y1100300D01*
X767246D01*
Y1100447D01*
X767539D01*
Y1100593D01*
X767832D01*
Y1100740D01*
X768272D01*
Y1100887D01*
X768712D01*
Y1101033D01*
X769298D01*
Y1101180D01*
X770618D01*
Y1101326D01*
X771791D01*
Y1101180D01*
D02*
G37*
G36*
X620781Y1101326D02*
X621660D01*
Y1101180D01*
X622247D01*
Y1101033D01*
X622687D01*
Y1100887D01*
X623117D01*
Y1100740D01*
X623420D01*
Y1100593D01*
X623713D01*
Y1100447D01*
X623850D01*
Y1100300D01*
X624153D01*
Y1100153D01*
X624446D01*
Y1100007D01*
X624593D01*
Y1099860D01*
X624739D01*
Y1099714D01*
X624876D01*
Y1099567D01*
X625033D01*
Y1099420D01*
X625326D01*
Y1099274D01*
X625472D01*
Y1099127D01*
X625462D01*
Y1098981D01*
X625609D01*
Y1098834D01*
X625756D01*
Y1098687D01*
X625902D01*
Y1098541D01*
X626059D01*
Y1098394D01*
X626049D01*
Y1098248D01*
X626205D01*
Y1098101D01*
X626352D01*
Y1097954D01*
X626342D01*
Y1097808D01*
X626499D01*
Y1097661D01*
X626489D01*
Y1097515D01*
X626645D01*
Y1097368D01*
X626635D01*
Y1097221D01*
X626792D01*
Y1097075D01*
X626782D01*
Y1096928D01*
X626938D01*
Y1096782D01*
Y1096635D01*
X626929D01*
Y1096488D01*
X627085D01*
Y1096342D01*
X627075D01*
Y1096195D01*
Y1096048D01*
X627232D01*
Y1095902D01*
X627222D01*
Y1095755D01*
Y1095609D01*
Y1095462D01*
X627378D01*
Y1095315D01*
Y1095169D01*
Y1095022D01*
Y1094876D01*
Y1094729D01*
Y1094582D01*
X627515D01*
Y1094436D01*
Y1094289D01*
Y1094142D01*
X627525D01*
Y1093996D01*
Y1093849D01*
Y1093703D01*
Y1093556D01*
Y1093409D01*
Y1093263D01*
X627662D01*
Y1093116D01*
Y1092970D01*
Y1092823D01*
Y1092676D01*
X627671D01*
Y1092530D01*
Y1092383D01*
Y1092236D01*
Y1092090D01*
Y1091943D01*
Y1091797D01*
Y1091650D01*
Y1091503D01*
Y1091357D01*
Y1091210D01*
Y1091064D01*
Y1090917D01*
Y1090770D01*
Y1090624D01*
Y1090477D01*
Y1090331D01*
Y1090184D01*
Y1090037D01*
Y1089891D01*
Y1089744D01*
Y1089598D01*
Y1089451D01*
Y1089304D01*
Y1089158D01*
Y1089011D01*
Y1088864D01*
Y1088718D01*
Y1088571D01*
Y1088425D01*
Y1088278D01*
Y1088131D01*
Y1087985D01*
Y1087838D01*
Y1087691D01*
Y1087545D01*
Y1087398D01*
Y1087252D01*
Y1087105D01*
Y1086958D01*
Y1086812D01*
Y1086665D01*
Y1086519D01*
Y1086372D01*
Y1086225D01*
Y1086079D01*
Y1085932D01*
Y1085786D01*
Y1085639D01*
Y1085492D01*
Y1085346D01*
Y1085199D01*
Y1085053D01*
Y1084906D01*
Y1084759D01*
Y1084613D01*
Y1084466D01*
Y1084320D01*
Y1084173D01*
Y1084026D01*
Y1083880D01*
Y1083733D01*
Y1083586D01*
Y1083440D01*
Y1083293D01*
Y1083147D01*
Y1083000D01*
Y1082853D01*
Y1082707D01*
Y1082560D01*
Y1082414D01*
Y1082267D01*
Y1082120D01*
Y1081974D01*
Y1081827D01*
Y1081680D01*
Y1081534D01*
Y1081387D01*
Y1081241D01*
Y1081094D01*
Y1080947D01*
Y1080801D01*
Y1080654D01*
Y1080507D01*
Y1080361D01*
Y1080214D01*
Y1080068D01*
Y1079921D01*
Y1079774D01*
Y1079628D01*
Y1079481D01*
Y1079335D01*
Y1079188D01*
Y1079042D01*
Y1078895D01*
Y1078748D01*
Y1078602D01*
Y1078455D01*
Y1078308D01*
Y1078162D01*
Y1078015D01*
Y1077869D01*
Y1077722D01*
Y1077575D01*
Y1077429D01*
Y1077282D01*
Y1077136D01*
Y1076989D01*
Y1076842D01*
Y1076696D01*
Y1076549D01*
Y1076402D01*
Y1076256D01*
Y1076109D01*
Y1075963D01*
Y1075816D01*
Y1075669D01*
Y1075523D01*
Y1075376D01*
X624739D01*
Y1075523D01*
Y1075669D01*
Y1075816D01*
Y1075963D01*
Y1076109D01*
Y1076256D01*
Y1076402D01*
Y1076549D01*
Y1076696D01*
Y1076842D01*
Y1076989D01*
Y1077136D01*
Y1077282D01*
Y1077429D01*
Y1077575D01*
Y1077722D01*
Y1077869D01*
Y1078015D01*
Y1078162D01*
Y1078308D01*
Y1078455D01*
Y1078602D01*
Y1078748D01*
Y1078895D01*
Y1079042D01*
Y1079188D01*
Y1079335D01*
Y1079481D01*
Y1079628D01*
Y1079774D01*
Y1079921D01*
Y1080068D01*
Y1080214D01*
Y1080361D01*
Y1080507D01*
Y1080654D01*
Y1080801D01*
Y1080947D01*
Y1081094D01*
Y1081241D01*
Y1081387D01*
Y1081534D01*
Y1081680D01*
Y1081827D01*
Y1081974D01*
Y1082120D01*
Y1082267D01*
Y1082414D01*
Y1082560D01*
Y1082707D01*
Y1082853D01*
Y1083000D01*
Y1083147D01*
Y1083293D01*
Y1083440D01*
Y1083586D01*
Y1083733D01*
Y1083880D01*
Y1084026D01*
Y1084173D01*
Y1084320D01*
Y1084466D01*
Y1084613D01*
Y1084759D01*
Y1084906D01*
Y1085053D01*
Y1085199D01*
Y1085346D01*
Y1085492D01*
Y1085639D01*
Y1085786D01*
Y1085932D01*
Y1086079D01*
Y1086225D01*
Y1086372D01*
Y1086519D01*
Y1086665D01*
Y1086812D01*
Y1086958D01*
Y1087105D01*
Y1087252D01*
Y1087398D01*
Y1087545D01*
Y1087691D01*
Y1087838D01*
Y1087985D01*
Y1088131D01*
Y1088278D01*
Y1088425D01*
Y1088571D01*
Y1088718D01*
Y1088864D01*
Y1089011D01*
Y1089158D01*
Y1089304D01*
Y1089451D01*
Y1089598D01*
Y1089744D01*
Y1089891D01*
Y1090037D01*
Y1090184D01*
Y1090331D01*
Y1090477D01*
Y1090624D01*
Y1090770D01*
Y1090917D01*
Y1091064D01*
Y1091210D01*
Y1091357D01*
Y1091503D01*
Y1091650D01*
Y1091797D01*
Y1091943D01*
Y1092090D01*
Y1092236D01*
Y1092383D01*
Y1092530D01*
Y1092676D01*
X624593D01*
Y1092823D01*
Y1092970D01*
Y1093116D01*
Y1093263D01*
Y1093409D01*
Y1093556D01*
Y1093703D01*
Y1093849D01*
Y1093996D01*
Y1094142D01*
X624446D01*
Y1094289D01*
Y1094436D01*
Y1094582D01*
Y1094729D01*
Y1094876D01*
X624299D01*
Y1095022D01*
Y1095169D01*
Y1095315D01*
Y1095462D01*
X624153D01*
Y1095609D01*
Y1095755D01*
Y1095902D01*
X624006D01*
Y1096048D01*
Y1096195D01*
Y1096342D01*
X623860D01*
Y1096488D01*
Y1096635D01*
X623713D01*
Y1096782D01*
Y1096928D01*
X623566D01*
Y1097075D01*
X623420D01*
Y1097221D01*
Y1097368D01*
X623273D01*
Y1097515D01*
X623126D01*
Y1097661D01*
X622980D01*
Y1097808D01*
X622833D01*
Y1097954D01*
X622687D01*
Y1098101D01*
X622540D01*
Y1098248D01*
X622247D01*
Y1098394D01*
X621954D01*
Y1098541D01*
X621660D01*
Y1098687D01*
X621221D01*
Y1098834D01*
X620634D01*
Y1098981D01*
X617985D01*
Y1098834D01*
X617252D01*
Y1098687D01*
X616822D01*
Y1098541D01*
X616519D01*
Y1098394D01*
X616089D01*
Y1098248D01*
X615796D01*
Y1098101D01*
X615649D01*
Y1097954D01*
X615346D01*
Y1097808D01*
X615063D01*
Y1097661D01*
X614907D01*
Y1097515D01*
X614770D01*
Y1097368D01*
X614623D01*
Y1097221D01*
X614330D01*
Y1097075D01*
X614183D01*
Y1096928D01*
X614037D01*
Y1096782D01*
X613880D01*
Y1096635D01*
X613734D01*
Y1096488D01*
Y1096342D01*
X613587D01*
Y1096195D01*
X613450D01*
Y1096048D01*
X613303D01*
Y1095902D01*
X613147D01*
Y1095755D01*
Y1095609D01*
X613010D01*
Y1095462D01*
X612854D01*
Y1095315D01*
Y1095169D01*
X612717D01*
Y1095022D01*
Y1094876D01*
X612571D01*
Y1094729D01*
Y1094582D01*
X612414D01*
Y1094436D01*
Y1094289D01*
X612277D01*
Y1094142D01*
Y1093996D01*
X612121D01*
Y1093849D01*
Y1093703D01*
Y1093556D01*
X611984D01*
Y1093409D01*
Y1093263D01*
X611837D01*
Y1093116D01*
Y1092970D01*
Y1092823D01*
Y1092676D01*
X611681D01*
Y1092530D01*
Y1092383D01*
Y1092236D01*
Y1092090D01*
X611544D01*
Y1091943D01*
Y1091797D01*
Y1091650D01*
Y1091503D01*
Y1091357D01*
Y1091210D01*
X611388D01*
Y1091064D01*
Y1090917D01*
Y1090770D01*
Y1090624D01*
Y1090477D01*
Y1090331D01*
Y1090184D01*
Y1090037D01*
Y1089891D01*
Y1089744D01*
Y1089598D01*
Y1089451D01*
Y1089304D01*
Y1089158D01*
Y1089011D01*
Y1088864D01*
Y1088718D01*
Y1088571D01*
Y1088425D01*
Y1088278D01*
Y1088131D01*
Y1087985D01*
Y1087838D01*
Y1087691D01*
Y1087545D01*
Y1087398D01*
Y1087252D01*
Y1087105D01*
Y1086958D01*
Y1086812D01*
Y1086665D01*
Y1086519D01*
Y1086372D01*
Y1086225D01*
Y1086079D01*
Y1085932D01*
Y1085786D01*
Y1085639D01*
Y1085492D01*
Y1085346D01*
Y1085199D01*
Y1085053D01*
Y1084906D01*
Y1084759D01*
Y1084613D01*
Y1084466D01*
Y1084320D01*
Y1084173D01*
Y1084026D01*
Y1083880D01*
Y1083733D01*
Y1083586D01*
Y1083440D01*
Y1083293D01*
Y1083147D01*
Y1083000D01*
Y1082853D01*
Y1082707D01*
Y1082560D01*
Y1082414D01*
Y1082267D01*
Y1082120D01*
Y1081974D01*
Y1081827D01*
Y1081680D01*
Y1081534D01*
Y1081387D01*
Y1081241D01*
Y1081094D01*
Y1080947D01*
Y1080801D01*
Y1080654D01*
Y1080507D01*
Y1080361D01*
Y1080214D01*
Y1080068D01*
Y1079921D01*
Y1079774D01*
Y1079628D01*
Y1079481D01*
Y1079335D01*
Y1079188D01*
Y1079042D01*
Y1078895D01*
Y1078748D01*
Y1078602D01*
Y1078455D01*
Y1078308D01*
Y1078162D01*
Y1078015D01*
Y1077869D01*
Y1077722D01*
Y1077575D01*
Y1077429D01*
Y1077282D01*
Y1077136D01*
Y1076989D01*
Y1076842D01*
Y1076696D01*
Y1076549D01*
Y1076402D01*
Y1076256D01*
Y1076109D01*
Y1075963D01*
Y1075816D01*
Y1075669D01*
Y1075523D01*
Y1075376D01*
X608319D01*
Y1075523D01*
Y1075669D01*
Y1075816D01*
Y1075963D01*
Y1076109D01*
Y1076256D01*
Y1076402D01*
Y1076549D01*
Y1076696D01*
Y1076842D01*
Y1076989D01*
Y1077136D01*
Y1077282D01*
Y1077429D01*
Y1077575D01*
Y1077722D01*
Y1077869D01*
Y1078015D01*
Y1078162D01*
Y1078308D01*
Y1078455D01*
Y1078602D01*
Y1078748D01*
Y1078895D01*
Y1079042D01*
Y1079188D01*
Y1079335D01*
Y1079481D01*
Y1079628D01*
Y1079774D01*
Y1079921D01*
Y1080068D01*
Y1080214D01*
Y1080361D01*
Y1080507D01*
Y1080654D01*
Y1080801D01*
Y1080947D01*
Y1081094D01*
Y1081241D01*
Y1081387D01*
Y1081534D01*
Y1081680D01*
Y1081827D01*
Y1081974D01*
Y1082120D01*
Y1082267D01*
Y1082414D01*
Y1082560D01*
Y1082707D01*
Y1082853D01*
Y1083000D01*
Y1083147D01*
Y1083293D01*
Y1083440D01*
Y1083586D01*
Y1083733D01*
Y1083880D01*
Y1084026D01*
Y1084173D01*
Y1084320D01*
Y1084466D01*
Y1084613D01*
Y1084759D01*
Y1084906D01*
Y1085053D01*
Y1085199D01*
Y1085346D01*
Y1085492D01*
Y1085639D01*
Y1085786D01*
Y1085932D01*
Y1086079D01*
Y1086225D01*
Y1086372D01*
Y1086519D01*
Y1086665D01*
Y1086812D01*
Y1086958D01*
Y1087105D01*
Y1087252D01*
Y1087398D01*
Y1087545D01*
Y1087691D01*
Y1087838D01*
Y1087985D01*
Y1088131D01*
Y1088278D01*
Y1088425D01*
Y1088571D01*
Y1088718D01*
Y1088864D01*
Y1089011D01*
Y1089158D01*
Y1089304D01*
Y1089451D01*
Y1089598D01*
Y1089744D01*
Y1089891D01*
Y1090037D01*
Y1090184D01*
Y1090331D01*
Y1090477D01*
Y1090624D01*
Y1090770D01*
Y1090917D01*
Y1091064D01*
Y1091210D01*
Y1091357D01*
Y1091503D01*
Y1091650D01*
Y1091797D01*
Y1091943D01*
Y1092090D01*
Y1092236D01*
Y1092383D01*
Y1092530D01*
Y1092676D01*
Y1092823D01*
Y1092970D01*
Y1093116D01*
Y1093263D01*
Y1093409D01*
Y1093556D01*
Y1093703D01*
Y1093849D01*
Y1093996D01*
Y1094142D01*
Y1094289D01*
Y1094436D01*
Y1094582D01*
Y1094729D01*
Y1094876D01*
Y1095022D01*
Y1095169D01*
Y1095315D01*
Y1095462D01*
Y1095609D01*
Y1095755D01*
Y1095902D01*
Y1096048D01*
Y1096195D01*
Y1096342D01*
Y1096488D01*
Y1096635D01*
Y1096782D01*
Y1096928D01*
Y1097075D01*
Y1097221D01*
Y1097368D01*
Y1097515D01*
Y1097661D01*
Y1097808D01*
Y1097954D01*
Y1098101D01*
Y1098248D01*
Y1098394D01*
Y1098541D01*
Y1098687D01*
Y1098834D01*
Y1098981D01*
Y1099127D01*
Y1099274D01*
Y1099420D01*
Y1099567D01*
Y1099714D01*
Y1099860D01*
Y1100007D01*
Y1100153D01*
Y1100300D01*
Y1100447D01*
Y1100593D01*
Y1100740D01*
X611388D01*
Y1100593D01*
Y1100447D01*
Y1100300D01*
Y1100153D01*
Y1100007D01*
Y1099860D01*
Y1099714D01*
Y1099567D01*
Y1099420D01*
Y1099274D01*
Y1099127D01*
Y1098981D01*
Y1098834D01*
Y1098687D01*
Y1098541D01*
Y1098394D01*
Y1098248D01*
Y1098101D01*
Y1097954D01*
Y1097808D01*
Y1097661D01*
Y1097515D01*
Y1097368D01*
Y1097221D01*
Y1097075D01*
Y1096928D01*
Y1096782D01*
Y1096635D01*
Y1096488D01*
Y1096342D01*
Y1096195D01*
Y1096048D01*
X611544D01*
Y1096195D01*
Y1096342D01*
X611691D01*
Y1096488D01*
Y1096635D01*
X611837D01*
Y1096782D01*
Y1096928D01*
X611984D01*
Y1097075D01*
X612131D01*
Y1097221D01*
Y1097368D01*
X612277D01*
Y1097515D01*
X612424D01*
Y1097661D01*
Y1097808D01*
X612571D01*
Y1097954D01*
X612717D01*
Y1098101D01*
X612864D01*
Y1098248D01*
Y1098394D01*
X613010D01*
Y1098541D01*
X613157D01*
Y1098687D01*
X613303D01*
Y1098834D01*
X613450D01*
Y1098981D01*
X613597D01*
Y1099127D01*
X613743D01*
Y1099274D01*
X613890D01*
Y1099420D01*
X614037D01*
Y1099567D01*
X614183D01*
Y1099714D01*
X614476D01*
Y1099860D01*
X614623D01*
Y1100007D01*
X614770D01*
Y1100153D01*
X615063D01*
Y1100300D01*
X615209D01*
Y1100447D01*
X615503D01*
Y1100593D01*
X615796D01*
Y1100740D01*
X616236D01*
Y1100887D01*
X616529D01*
Y1101033D01*
X616969D01*
Y1101180D01*
X617555D01*
Y1101326D01*
X618435D01*
Y1101473D01*
X620781D01*
Y1101326D01*
D02*
G37*
G36*
X700968Y1101180D02*
X702727D01*
Y1101033D01*
X703616D01*
Y1100887D01*
X704193D01*
Y1100740D01*
X704643D01*
Y1100593D01*
X705082D01*
Y1100447D01*
X705366D01*
Y1100300D01*
X705669D01*
Y1100153D01*
X705962D01*
Y1100007D01*
X706246D01*
Y1099860D01*
X706549D01*
Y1099714D01*
X706695D01*
Y1099567D01*
X706979D01*
Y1099420D01*
X707135D01*
Y1099274D01*
X707272D01*
Y1099127D01*
X707418D01*
Y1098981D01*
X707721D01*
Y1098834D01*
X707868D01*
Y1098687D01*
X708005D01*
Y1098541D01*
X708152D01*
Y1098394D01*
Y1098248D01*
X708298D01*
Y1098101D01*
X708445D01*
Y1097954D01*
X708591D01*
Y1097808D01*
X708748D01*
Y1097661D01*
Y1097515D01*
X708885D01*
Y1097368D01*
X709031D01*
Y1097221D01*
X709041D01*
Y1097075D01*
X709178D01*
Y1096928D01*
X709324D01*
Y1096782D01*
Y1096635D01*
X709481D01*
Y1096488D01*
Y1096342D01*
X709618D01*
Y1096195D01*
Y1096048D01*
X709764D01*
Y1095902D01*
X709774D01*
Y1095755D01*
X709911D01*
Y1095609D01*
Y1095462D01*
X710058D01*
Y1095315D01*
X710067D01*
Y1095169D01*
X710204D01*
Y1095022D01*
X710214D01*
Y1094876D01*
X710351D01*
Y1094729D01*
X710214D01*
Y1094582D01*
X709618D01*
Y1094436D01*
X709188D01*
Y1094289D01*
X708601D01*
Y1094142D01*
X708015D01*
Y1093996D01*
X707575D01*
Y1093849D01*
X706989D01*
Y1093703D01*
X706392D01*
Y1093556D01*
X705952D01*
Y1093409D01*
X705376D01*
Y1093263D01*
X704936D01*
Y1093409D01*
Y1093556D01*
X704789D01*
Y1093703D01*
Y1093849D01*
X704643D01*
Y1093996D01*
Y1094142D01*
Y1094289D01*
X704496D01*
Y1094436D01*
X704349D01*
Y1094582D01*
Y1094729D01*
X704203D01*
Y1094876D01*
Y1095022D01*
X704056D01*
Y1095169D01*
X703910D01*
Y1095315D01*
X703763D01*
Y1095462D01*
X703616D01*
Y1095609D01*
X703470D01*
Y1095755D01*
X703177D01*
Y1095902D01*
X703030D01*
Y1096048D01*
X702737D01*
Y1096195D01*
X702443D01*
Y1096342D01*
X702004D01*
Y1096488D01*
X701271D01*
Y1096635D01*
X698778D01*
Y1096488D01*
X698045D01*
Y1096342D01*
X697605D01*
Y1096195D01*
X697312D01*
Y1096048D01*
X697165D01*
Y1095902D01*
X696862D01*
Y1095755D01*
X696716D01*
Y1095609D01*
X696579D01*
Y1095462D01*
X696423D01*
Y1095315D01*
X696432D01*
Y1095169D01*
X696276D01*
Y1095022D01*
Y1094876D01*
Y1094729D01*
X696286D01*
Y1094582D01*
X696139D01*
Y1094436D01*
Y1094289D01*
Y1094142D01*
Y1093996D01*
X696286D01*
Y1093849D01*
Y1093703D01*
Y1093556D01*
Y1093409D01*
X696423D01*
Y1093263D01*
X696579D01*
Y1093116D01*
X696716D01*
Y1092970D01*
X696872D01*
Y1092823D01*
X697019D01*
Y1092676D01*
X697312D01*
Y1092530D01*
X697752D01*
Y1092383D01*
X698338D01*
Y1092236D01*
X699071D01*
Y1092090D01*
X699951D01*
Y1091943D01*
X700977D01*
Y1091797D01*
X702004D01*
Y1091650D01*
X702883D01*
Y1091503D01*
X703753D01*
Y1091357D01*
X704496D01*
Y1091210D01*
X705229D01*
Y1091064D01*
X705806D01*
Y1090917D01*
X706255D01*
Y1090770D01*
X706685D01*
Y1090624D01*
X707135D01*
Y1090477D01*
X707418D01*
Y1090331D01*
X707721D01*
Y1090184D01*
X708005D01*
Y1090037D01*
X708298D01*
Y1089891D01*
X708445D01*
Y1089744D01*
X708748D01*
Y1089598D01*
X708885D01*
Y1089451D01*
X709041D01*
Y1089304D01*
X709188D01*
Y1089158D01*
X709324D01*
Y1089011D01*
X709481D01*
Y1088864D01*
X709627D01*
Y1088718D01*
X709764D01*
Y1088571D01*
X709911D01*
Y1088425D01*
X710067D01*
Y1088278D01*
X710058D01*
Y1088131D01*
X710214D01*
Y1087985D01*
X710361D01*
Y1087838D01*
Y1087691D01*
X710507D01*
Y1087545D01*
X710497D01*
Y1087398D01*
X710644D01*
Y1087252D01*
X710654D01*
Y1087105D01*
X710800D01*
Y1086958D01*
X710791D01*
Y1086812D01*
X710947D01*
Y1086665D01*
Y1086519D01*
X710937D01*
Y1086372D01*
X711094D01*
Y1086225D01*
Y1086079D01*
X711084D01*
Y1085932D01*
X711240D01*
Y1085786D01*
X711230D01*
Y1085639D01*
X711240D01*
Y1085492D01*
Y1085346D01*
Y1085199D01*
X711377D01*
Y1085053D01*
Y1084906D01*
Y1084759D01*
X711387D01*
Y1084613D01*
Y1084466D01*
X711377D01*
Y1084320D01*
X711387D01*
Y1084173D01*
Y1084026D01*
Y1083880D01*
X711377D01*
Y1083733D01*
X711387D01*
Y1083586D01*
X711377D01*
Y1083440D01*
X711387D01*
Y1083293D01*
Y1083147D01*
X711377D01*
Y1083000D01*
Y1082853D01*
Y1082707D01*
Y1082560D01*
Y1082414D01*
Y1082267D01*
Y1082120D01*
X711240D01*
Y1081974D01*
Y1081827D01*
Y1081680D01*
X711230D01*
Y1081534D01*
X711094D01*
Y1081387D01*
X711084D01*
Y1081241D01*
X711094D01*
Y1081094D01*
X711084D01*
Y1080947D01*
X710947D01*
Y1080801D01*
X710937D01*
Y1080654D01*
X710791D01*
Y1080507D01*
X710800D01*
Y1080361D01*
Y1080214D01*
X710644D01*
Y1080068D01*
Y1079921D01*
X710507D01*
Y1079774D01*
Y1079628D01*
X710351D01*
Y1079481D01*
X710204D01*
Y1079335D01*
X710214D01*
Y1079188D01*
X710067D01*
Y1079042D01*
X709921D01*
Y1078895D01*
X709911D01*
Y1078748D01*
X709774D01*
Y1078602D01*
X709627D01*
Y1078455D01*
X709481D01*
Y1078308D01*
X709324D01*
Y1078162D01*
X709178D01*
Y1078015D01*
X709041D01*
Y1077869D01*
X708894D01*
Y1077722D01*
X708748D01*
Y1077575D01*
X708591D01*
Y1077429D01*
X708445D01*
Y1077282D01*
X708308D01*
Y1077136D01*
X708015D01*
Y1076989D01*
X707858D01*
Y1076842D01*
X707575D01*
Y1076696D01*
X707428D01*
Y1076549D01*
X707125D01*
Y1076402D01*
X706842D01*
Y1076256D01*
X706549D01*
Y1076109D01*
X706109D01*
Y1075963D01*
X705806D01*
Y1075816D01*
X705376D01*
Y1075669D01*
X704926D01*
Y1075523D01*
X704486D01*
Y1075376D01*
X703753D01*
Y1075230D01*
X703020D01*
Y1075083D01*
X701847D01*
Y1074936D01*
X698045D01*
Y1075083D01*
X696872D01*
Y1075230D01*
X696139D01*
Y1075376D01*
X695553D01*
Y1075523D01*
X694966D01*
Y1075669D01*
X694673D01*
Y1075816D01*
X694233D01*
Y1075963D01*
X693940D01*
Y1076109D01*
X693647D01*
Y1076256D01*
X693354D01*
Y1076402D01*
X693060D01*
Y1076549D01*
X692767D01*
Y1076696D01*
X692620D01*
Y1076842D01*
X692327D01*
Y1076989D01*
X692181D01*
Y1077136D01*
X691887D01*
Y1077282D01*
X691741D01*
Y1077429D01*
X691594D01*
Y1077575D01*
X691448D01*
Y1077722D01*
X691301D01*
Y1077869D01*
X691154D01*
Y1078015D01*
X691008D01*
Y1078162D01*
X690861D01*
Y1078308D01*
X690715D01*
Y1078455D01*
X690568D01*
Y1078602D01*
X690421D01*
Y1078748D01*
X690275D01*
Y1078895D01*
X690128D01*
Y1079042D01*
X689981D01*
Y1079188D01*
Y1079335D01*
X689835D01*
Y1079481D01*
X689688D01*
Y1079628D01*
Y1079774D01*
X689542D01*
Y1079921D01*
Y1080068D01*
X689395D01*
Y1080214D01*
Y1080361D01*
X689248D01*
Y1080507D01*
Y1080654D01*
X689102D01*
Y1080801D01*
Y1080947D01*
X688955D01*
Y1081094D01*
Y1081241D01*
Y1081387D01*
X688809D01*
Y1081534D01*
Y1081680D01*
Y1081827D01*
Y1081974D01*
X688662D01*
Y1082120D01*
Y1082267D01*
Y1082414D01*
X689395D01*
Y1082560D01*
X690568D01*
Y1082707D01*
X691594D01*
Y1082853D01*
X692620D01*
Y1083000D01*
X693647D01*
Y1083147D01*
X694957D01*
Y1083000D01*
Y1082853D01*
X694966D01*
Y1082707D01*
X695103D01*
Y1082560D01*
Y1082414D01*
X695260D01*
Y1082267D01*
Y1082120D01*
X695396D01*
Y1081974D01*
X695406D01*
Y1081827D01*
X695553D01*
Y1081680D01*
X695690D01*
Y1081534D01*
X695846D01*
Y1081387D01*
X695983D01*
Y1081241D01*
X696139D01*
Y1081094D01*
X696286D01*
Y1080947D01*
X696432D01*
Y1080801D01*
X696569D01*
Y1080654D01*
X696872D01*
Y1080507D01*
X697156D01*
Y1080361D01*
X697596D01*
Y1080214D01*
X698035D01*
Y1080068D01*
X698622D01*
Y1079921D01*
X700244D01*
Y1079774D01*
X700684D01*
Y1079921D01*
X702150D01*
Y1080068D01*
X702737D01*
Y1080214D01*
X703177D01*
Y1080361D01*
X703470D01*
Y1080507D01*
X703763D01*
Y1080654D01*
X704056D01*
Y1080801D01*
X704203D01*
Y1080947D01*
X704349D01*
Y1081094D01*
X704496D01*
Y1081241D01*
X704643D01*
Y1081387D01*
X704789D01*
Y1081534D01*
Y1081680D01*
X704936D01*
Y1081827D01*
Y1081974D01*
Y1082120D01*
Y1082267D01*
Y1082414D01*
Y1082560D01*
Y1082707D01*
Y1082853D01*
Y1083000D01*
Y1083147D01*
X704789D01*
Y1083293D01*
Y1083440D01*
X704643D01*
Y1083586D01*
X704496D01*
Y1083733D01*
X704349D01*
Y1083880D01*
X704056D01*
Y1084026D01*
X703763D01*
Y1084173D01*
X703323D01*
Y1084320D01*
X702737D01*
Y1084466D01*
X701857D01*
Y1084613D01*
X700831D01*
Y1084759D01*
X699951D01*
Y1084906D01*
X699071D01*
Y1085053D01*
X698338D01*
Y1085199D01*
X697605D01*
Y1085346D01*
X696872D01*
Y1085492D01*
X696286D01*
Y1085639D01*
X695699D01*
Y1085786D01*
X695113D01*
Y1085932D01*
X694673D01*
Y1086079D01*
X694233D01*
Y1086225D01*
X693793D01*
Y1086372D01*
X693500D01*
Y1086519D01*
X693207D01*
Y1086665D01*
X692914D01*
Y1086812D01*
X692767D01*
Y1086958D01*
X692474D01*
Y1087105D01*
X692327D01*
Y1087252D01*
X692181D01*
Y1087398D01*
X692034D01*
Y1087545D01*
X691741D01*
Y1087691D01*
X691594D01*
Y1087838D01*
Y1087985D01*
X691448D01*
Y1088131D01*
X691301D01*
Y1088278D01*
X691154D01*
Y1088425D01*
X691008D01*
Y1088571D01*
X690861D01*
Y1088718D01*
Y1088864D01*
X690715D01*
Y1089011D01*
X690568D01*
Y1089158D01*
Y1089304D01*
X690421D01*
Y1089451D01*
Y1089598D01*
X690275D01*
Y1089744D01*
Y1089891D01*
X690128D01*
Y1090037D01*
Y1090184D01*
Y1090331D01*
X689981D01*
Y1090477D01*
Y1090624D01*
Y1090770D01*
X689835D01*
Y1090917D01*
Y1091064D01*
Y1091210D01*
Y1091357D01*
X689688D01*
Y1091503D01*
Y1091650D01*
Y1091797D01*
Y1091943D01*
Y1092090D01*
Y1092236D01*
X689542D01*
Y1092383D01*
Y1092530D01*
Y1092676D01*
Y1092823D01*
Y1092970D01*
Y1093116D01*
Y1093263D01*
Y1093409D01*
Y1093556D01*
Y1093703D01*
X689688D01*
Y1093849D01*
Y1093996D01*
Y1094142D01*
Y1094289D01*
Y1094436D01*
Y1094582D01*
Y1094729D01*
X689835D01*
Y1094876D01*
Y1095022D01*
Y1095169D01*
Y1095315D01*
X689981D01*
Y1095462D01*
Y1095609D01*
Y1095755D01*
X690128D01*
Y1095902D01*
Y1096048D01*
X690275D01*
Y1096195D01*
Y1096342D01*
X690421D01*
Y1096488D01*
Y1096635D01*
X690568D01*
Y1096782D01*
Y1096928D01*
X690715D01*
Y1097075D01*
Y1097221D01*
X690861D01*
Y1097368D01*
X691008D01*
Y1097515D01*
X691154D01*
Y1097661D01*
Y1097808D01*
X691301D01*
Y1097954D01*
X691448D01*
Y1098101D01*
X691594D01*
Y1098248D01*
X691741D01*
Y1098394D01*
X691887D01*
Y1098541D01*
X692034D01*
Y1098687D01*
X692181D01*
Y1098834D01*
X692327D01*
Y1098981D01*
X692620D01*
Y1099127D01*
X692767D01*
Y1099274D01*
X692914D01*
Y1099420D01*
X693207D01*
Y1099567D01*
X693500D01*
Y1099714D01*
X693647D01*
Y1099860D01*
X693940D01*
Y1100007D01*
X694233D01*
Y1100153D01*
X694673D01*
Y1100300D01*
X694966D01*
Y1100447D01*
X695406D01*
Y1100593D01*
X695846D01*
Y1100740D01*
X696432D01*
Y1100887D01*
X697019D01*
Y1101033D01*
X697899D01*
Y1101180D01*
X699658D01*
Y1101326D01*
X700968D01*
Y1101180D01*
D02*
G37*
G36*
X674431Y1100593D02*
Y1100447D01*
X674284D01*
Y1100300D01*
Y1100153D01*
Y1100007D01*
X674147D01*
Y1099860D01*
Y1099714D01*
Y1099567D01*
X674001D01*
Y1099420D01*
Y1099274D01*
Y1099127D01*
X673844D01*
Y1098981D01*
X673854D01*
Y1098834D01*
Y1098687D01*
X673698D01*
Y1098541D01*
Y1098394D01*
Y1098248D01*
X673561D01*
Y1098101D01*
X673551D01*
Y1097954D01*
Y1097808D01*
X673405D01*
Y1097661D01*
X673414D01*
Y1097515D01*
Y1097368D01*
X673258D01*
Y1097221D01*
X673268D01*
Y1097075D01*
Y1096928D01*
X673111D01*
Y1096782D01*
Y1096635D01*
X673121D01*
Y1096488D01*
X672965D01*
Y1096342D01*
Y1096195D01*
Y1096048D01*
X672828D01*
Y1095902D01*
Y1095755D01*
X672818D01*
Y1095609D01*
X672672D01*
Y1095462D01*
Y1095315D01*
X672525D01*
Y1095169D01*
Y1095022D01*
Y1094876D01*
X672378D01*
Y1094729D01*
Y1094582D01*
Y1094436D01*
X672241D01*
Y1094289D01*
X672232D01*
Y1094142D01*
Y1093996D01*
X672095D01*
Y1093849D01*
Y1093703D01*
Y1093556D01*
X671948D01*
Y1093409D01*
X671938D01*
Y1093263D01*
Y1093116D01*
X671802D01*
Y1092970D01*
X671792D01*
Y1092823D01*
Y1092676D01*
X671655D01*
Y1092530D01*
Y1092383D01*
X671645D01*
Y1092236D01*
X671508D01*
Y1092090D01*
Y1091943D01*
X671499D01*
Y1091797D01*
X671362D01*
Y1091650D01*
Y1091503D01*
Y1091357D01*
X671215D01*
Y1091210D01*
Y1091064D01*
X671205D01*
Y1090917D01*
X671068D01*
Y1090770D01*
Y1090624D01*
X671059D01*
Y1090477D01*
X670922D01*
Y1090331D01*
Y1090184D01*
X670765D01*
Y1090037D01*
X670775D01*
Y1089891D01*
Y1089744D01*
X670619D01*
Y1089598D01*
X670629D01*
Y1089451D01*
Y1089304D01*
X670482D01*
Y1089158D01*
Y1089011D01*
Y1088864D01*
X670326D01*
Y1088718D01*
X670336D01*
Y1088571D01*
Y1088425D01*
X670179D01*
Y1088278D01*
Y1088131D01*
X670189D01*
Y1087985D01*
X670033D01*
Y1087838D01*
Y1087691D01*
X670042D01*
Y1087545D01*
X669886D01*
Y1087398D01*
Y1087252D01*
X669896D01*
Y1087105D01*
X669749D01*
Y1086958D01*
Y1086812D01*
Y1086665D01*
X669593D01*
Y1086519D01*
Y1086372D01*
X669602D01*
Y1086225D01*
X669446D01*
Y1086079D01*
Y1085932D01*
Y1085786D01*
X669299D01*
Y1085639D01*
Y1085492D01*
Y1085346D01*
X669153D01*
Y1085199D01*
Y1085053D01*
X669006D01*
Y1084906D01*
X669016D01*
Y1084759D01*
X669006D01*
Y1084613D01*
X668860D01*
Y1084466D01*
Y1084320D01*
Y1084173D01*
X668713D01*
Y1084026D01*
Y1083880D01*
Y1083733D01*
X668566D01*
Y1083586D01*
Y1083440D01*
Y1083293D01*
X668430D01*
Y1083147D01*
Y1083000D01*
X668420D01*
Y1082853D01*
X668273D01*
Y1082707D01*
Y1082560D01*
X668283D01*
Y1082414D01*
X668126D01*
Y1082267D01*
Y1082120D01*
X668136D01*
Y1081974D01*
X667980D01*
Y1081827D01*
Y1081680D01*
X667990D01*
Y1081534D01*
X667833D01*
Y1081387D01*
Y1081241D01*
Y1081094D01*
X667697D01*
Y1080947D01*
Y1080801D01*
X667687D01*
Y1080654D01*
X667540D01*
Y1080507D01*
Y1080361D01*
X667550D01*
Y1080214D01*
X667394D01*
Y1080068D01*
Y1079921D01*
X667247D01*
Y1079774D01*
Y1079628D01*
Y1079481D01*
X667100D01*
Y1079335D01*
Y1079188D01*
Y1079042D01*
X666963D01*
Y1078895D01*
Y1078748D01*
Y1078602D01*
X666807D01*
Y1078455D01*
Y1078308D01*
Y1078162D01*
X666660D01*
Y1078015D01*
Y1077869D01*
Y1077722D01*
X666514D01*
Y1077575D01*
Y1077429D01*
X666524D01*
Y1077282D01*
X666367D01*
Y1077136D01*
Y1076989D01*
Y1076842D01*
X666230D01*
Y1076696D01*
Y1076549D01*
X666221D01*
Y1076402D01*
X666074D01*
Y1076256D01*
Y1076109D01*
X666084D01*
Y1075963D01*
X665927D01*
Y1075816D01*
Y1075669D01*
X665937D01*
Y1075523D01*
X665781D01*
Y1075376D01*
X660073D01*
Y1075523D01*
Y1075669D01*
X659926D01*
Y1075816D01*
Y1075963D01*
Y1076109D01*
X659779D01*
Y1076256D01*
Y1076402D01*
Y1076549D01*
X659633D01*
Y1076696D01*
Y1076842D01*
Y1076989D01*
X659486D01*
Y1077136D01*
Y1077282D01*
Y1077429D01*
X659340D01*
Y1077575D01*
Y1077722D01*
X659193D01*
Y1077869D01*
Y1078015D01*
Y1078162D01*
X659046D01*
Y1078308D01*
Y1078455D01*
Y1078602D01*
X658900D01*
Y1078748D01*
Y1078895D01*
Y1079042D01*
X658753D01*
Y1079188D01*
Y1079335D01*
Y1079481D01*
X658606D01*
Y1079628D01*
Y1079774D01*
Y1079921D01*
X658460D01*
Y1080068D01*
Y1080214D01*
Y1080361D01*
X658313D01*
Y1080507D01*
Y1080654D01*
Y1080801D01*
X658167D01*
Y1080947D01*
Y1081094D01*
Y1081241D01*
X658020D01*
Y1081387D01*
Y1081534D01*
Y1081680D01*
X657874D01*
Y1081827D01*
Y1081974D01*
Y1082120D01*
X657727D01*
Y1082267D01*
Y1082414D01*
Y1082560D01*
X657580D01*
Y1082707D01*
Y1082853D01*
Y1083000D01*
X657434D01*
Y1083147D01*
Y1083293D01*
X657287D01*
Y1083440D01*
Y1083586D01*
Y1083733D01*
X657140D01*
Y1083880D01*
Y1084026D01*
Y1084173D01*
X656994D01*
Y1084320D01*
Y1084466D01*
Y1084613D01*
X656847D01*
Y1084759D01*
Y1084906D01*
Y1085053D01*
X656701D01*
Y1085199D01*
Y1085346D01*
Y1085492D01*
X656554D01*
Y1085639D01*
Y1085786D01*
Y1085932D01*
X656407D01*
Y1086079D01*
Y1086225D01*
Y1086372D01*
X656261D01*
Y1086519D01*
Y1086665D01*
Y1086812D01*
X656114D01*
Y1086958D01*
Y1087105D01*
Y1087252D01*
X655967D01*
Y1087398D01*
Y1087545D01*
Y1087691D01*
X655821D01*
Y1087838D01*
Y1087985D01*
Y1088131D01*
X655674D01*
Y1088278D01*
Y1088425D01*
X655528D01*
Y1088571D01*
Y1088718D01*
Y1088864D01*
X655381D01*
Y1089011D01*
Y1089158D01*
Y1089304D01*
X655235D01*
Y1089451D01*
Y1089598D01*
Y1089744D01*
X655088D01*
Y1089891D01*
Y1090037D01*
Y1090184D01*
X654941D01*
Y1090331D01*
Y1090477D01*
Y1090624D01*
X654795D01*
Y1090770D01*
Y1090917D01*
Y1091064D01*
X654648D01*
Y1091210D01*
Y1091357D01*
Y1091503D01*
X654501D01*
Y1091650D01*
Y1091797D01*
Y1091943D01*
X654355D01*
Y1092090D01*
Y1092236D01*
Y1092383D01*
X654208D01*
Y1092530D01*
Y1092676D01*
Y1092823D01*
X654062D01*
Y1092970D01*
Y1093116D01*
Y1093263D01*
X653915D01*
Y1093409D01*
Y1093556D01*
X653768D01*
Y1093703D01*
Y1093849D01*
Y1093996D01*
X653622D01*
Y1094142D01*
Y1094289D01*
Y1094436D01*
X653475D01*
Y1094582D01*
Y1094729D01*
Y1094876D01*
X653328D01*
Y1095022D01*
Y1095169D01*
Y1095315D01*
X653182D01*
Y1095462D01*
Y1095609D01*
Y1095755D01*
X653035D01*
Y1095902D01*
Y1096048D01*
Y1096195D01*
X652889D01*
Y1096342D01*
Y1096488D01*
Y1096635D01*
X652742D01*
Y1096782D01*
Y1096928D01*
Y1097075D01*
X652596D01*
Y1097221D01*
Y1097368D01*
Y1097515D01*
X652449D01*
Y1097661D01*
Y1097808D01*
Y1097954D01*
X652302D01*
Y1098101D01*
Y1098248D01*
Y1098394D01*
X652156D01*
Y1098541D01*
Y1098687D01*
X652009D01*
Y1098834D01*
Y1098981D01*
Y1099127D01*
X651862D01*
Y1099274D01*
Y1099420D01*
Y1099567D01*
X651716D01*
Y1099714D01*
Y1099860D01*
Y1100007D01*
X651569D01*
Y1100153D01*
Y1100300D01*
Y1100447D01*
X651423D01*
Y1100593D01*
Y1100740D01*
X659037D01*
Y1100593D01*
X659193D01*
Y1100447D01*
Y1100300D01*
Y1100153D01*
X659330D01*
Y1100007D01*
X659340D01*
Y1099860D01*
Y1099714D01*
Y1099567D01*
X659486D01*
Y1099420D01*
Y1099274D01*
Y1099127D01*
X659623D01*
Y1098981D01*
Y1098834D01*
Y1098687D01*
X659770D01*
Y1098541D01*
Y1098394D01*
Y1098248D01*
X659926D01*
Y1098101D01*
Y1097954D01*
X659916D01*
Y1097808D01*
Y1097661D01*
X660073D01*
Y1097515D01*
X660063D01*
Y1097368D01*
Y1097221D01*
X660219D01*
Y1097075D01*
X660210D01*
Y1096928D01*
Y1096782D01*
X660356D01*
Y1096635D01*
X660366D01*
Y1096488D01*
Y1096342D01*
Y1096195D01*
X660503D01*
Y1096048D01*
Y1095902D01*
Y1095755D01*
X660649D01*
Y1095609D01*
Y1095462D01*
Y1095315D01*
X660796D01*
Y1095169D01*
Y1095022D01*
Y1094876D01*
X660943D01*
Y1094729D01*
Y1094582D01*
Y1094436D01*
X660952D01*
Y1094289D01*
X661099D01*
Y1094142D01*
Y1093996D01*
Y1093849D01*
X661236D01*
Y1093703D01*
Y1093556D01*
X661246D01*
Y1093409D01*
X661382D01*
Y1093263D01*
X661392D01*
Y1093116D01*
Y1092970D01*
Y1092823D01*
X661539D01*
Y1092676D01*
Y1092530D01*
Y1092383D01*
X661685D01*
Y1092236D01*
Y1092090D01*
Y1091943D01*
X661832D01*
Y1091797D01*
Y1091650D01*
Y1091503D01*
X661979D01*
Y1091357D01*
Y1091210D01*
Y1091064D01*
X661969D01*
Y1090917D01*
X662125D01*
Y1090770D01*
Y1090624D01*
X662115D01*
Y1090477D01*
X662272D01*
Y1090331D01*
Y1090184D01*
X662262D01*
Y1090037D01*
X662418D01*
Y1089891D01*
Y1089744D01*
Y1089598D01*
X662565D01*
Y1089451D01*
Y1089304D01*
X662555D01*
Y1089158D01*
Y1089011D01*
X662712D01*
Y1088864D01*
X662702D01*
Y1088718D01*
Y1088571D01*
X662858D01*
Y1088425D01*
X662848D01*
Y1088278D01*
Y1088131D01*
X662995D01*
Y1087985D01*
Y1087838D01*
Y1087691D01*
Y1087545D01*
X663152D01*
Y1087398D01*
Y1087252D01*
X663142D01*
Y1087105D01*
X663288D01*
Y1086958D01*
Y1086812D01*
X663298D01*
Y1086665D01*
X663435D01*
Y1086519D01*
Y1086372D01*
X663445D01*
Y1086225D01*
X663582D01*
Y1086079D01*
Y1085932D01*
X663591D01*
Y1085786D01*
Y1085639D01*
X663728D01*
Y1085492D01*
Y1085346D01*
Y1085199D01*
X663885D01*
Y1085053D01*
X663875D01*
Y1084906D01*
Y1084759D01*
X664031D01*
Y1084906D01*
X664178D01*
Y1085053D01*
Y1085199D01*
Y1085346D01*
X664324D01*
Y1085492D01*
Y1085639D01*
Y1085786D01*
X664471D01*
Y1085932D01*
Y1086079D01*
Y1086225D01*
Y1086372D01*
X664618D01*
Y1086519D01*
Y1086665D01*
Y1086812D01*
X664764D01*
Y1086958D01*
Y1087105D01*
Y1087252D01*
X664911D01*
Y1087398D01*
Y1087545D01*
Y1087691D01*
X665058D01*
Y1087838D01*
Y1087985D01*
Y1088131D01*
X665204D01*
Y1088278D01*
Y1088425D01*
Y1088571D01*
Y1088718D01*
X665351D01*
Y1088864D01*
Y1089011D01*
Y1089158D01*
X665497D01*
Y1089304D01*
Y1089451D01*
Y1089598D01*
X665644D01*
Y1089744D01*
Y1089891D01*
Y1090037D01*
X665790D01*
Y1090184D01*
Y1090331D01*
Y1090477D01*
Y1090624D01*
X665937D01*
Y1090770D01*
Y1090917D01*
Y1091064D01*
X666084D01*
Y1091210D01*
Y1091357D01*
Y1091503D01*
X666230D01*
Y1091650D01*
Y1091797D01*
Y1091943D01*
X666377D01*
Y1092090D01*
Y1092236D01*
Y1092383D01*
X666524D01*
Y1092530D01*
Y1092676D01*
Y1092823D01*
Y1092970D01*
X666670D01*
Y1093116D01*
Y1093263D01*
Y1093409D01*
X666817D01*
Y1093556D01*
Y1093703D01*
Y1093849D01*
X666963D01*
Y1093996D01*
Y1094142D01*
Y1094289D01*
X667110D01*
Y1094436D01*
Y1094582D01*
Y1094729D01*
Y1094876D01*
X667257D01*
Y1095022D01*
Y1095169D01*
Y1095315D01*
X667403D01*
Y1095462D01*
Y1095609D01*
Y1095755D01*
X667550D01*
Y1095902D01*
Y1096048D01*
Y1096195D01*
X667697D01*
Y1096342D01*
Y1096488D01*
Y1096635D01*
X667843D01*
Y1096782D01*
Y1096928D01*
Y1097075D01*
Y1097221D01*
X667990D01*
Y1097368D01*
Y1097515D01*
Y1097661D01*
X668136D01*
Y1097808D01*
Y1097954D01*
Y1098101D01*
X668283D01*
Y1098248D01*
Y1098394D01*
Y1098541D01*
X668430D01*
Y1098687D01*
Y1098834D01*
Y1098981D01*
X668576D01*
Y1099127D01*
Y1099274D01*
Y1099420D01*
Y1099567D01*
X668723D01*
Y1099714D01*
Y1099860D01*
Y1100007D01*
X668869D01*
Y1100153D01*
Y1100300D01*
Y1100447D01*
X669016D01*
Y1100593D01*
Y1100740D01*
X674431D01*
Y1100593D01*
D02*
G37*
G36*
X651266D02*
Y1100447D01*
Y1100300D01*
X651129D01*
Y1100153D01*
X651120D01*
Y1100007D01*
Y1099860D01*
X650983D01*
Y1099714D01*
X650973D01*
Y1099567D01*
Y1099420D01*
X650836D01*
Y1099274D01*
X650826D01*
Y1099127D01*
X650680D01*
Y1098981D01*
X650689D01*
Y1098834D01*
Y1098687D01*
X650533D01*
Y1098541D01*
Y1098394D01*
Y1098248D01*
X650396D01*
Y1098101D01*
X650386D01*
Y1097954D01*
X650250D01*
Y1097808D01*
X650240D01*
Y1097661D01*
Y1097515D01*
X650103D01*
Y1097368D01*
X650093D01*
Y1097221D01*
Y1097075D01*
X649947D01*
Y1096928D01*
X649956D01*
Y1096782D01*
Y1096635D01*
X649800D01*
Y1096488D01*
Y1096342D01*
X649663D01*
Y1096195D01*
X649654D01*
Y1096048D01*
Y1095902D01*
X649517D01*
Y1095755D01*
X649507D01*
Y1095609D01*
Y1095462D01*
X649370D01*
Y1095315D01*
X649360D01*
Y1095169D01*
X649214D01*
Y1095022D01*
Y1094876D01*
X649223D01*
Y1094729D01*
X649067D01*
Y1094582D01*
Y1094436D01*
Y1094289D01*
X648930D01*
Y1094142D01*
X648920D01*
Y1093996D01*
Y1093849D01*
X648784D01*
Y1093703D01*
X648774D01*
Y1093556D01*
X648637D01*
Y1093409D01*
Y1093263D01*
X648627D01*
Y1093116D01*
X648481D01*
Y1092970D01*
X648490D01*
Y1092823D01*
Y1092676D01*
X648334D01*
Y1092530D01*
Y1092383D01*
X648197D01*
Y1092236D01*
Y1092090D01*
X648187D01*
Y1091943D01*
X648051D01*
Y1091797D01*
X648041D01*
Y1091650D01*
Y1091503D01*
X647904D01*
Y1091357D01*
X647894D01*
Y1091210D01*
Y1091064D01*
X647747D01*
Y1090917D01*
X647757D01*
Y1090770D01*
X647601D01*
Y1090624D01*
Y1090477D01*
Y1090331D01*
X647464D01*
Y1090184D01*
X647454D01*
Y1090037D01*
Y1089891D01*
X647317D01*
Y1089744D01*
X647308D01*
Y1089598D01*
X647171D01*
Y1089451D01*
Y1089304D01*
X647161D01*
Y1089158D01*
X647014D01*
Y1089011D01*
Y1088864D01*
X647024D01*
Y1088718D01*
X646868D01*
Y1088571D01*
Y1088425D01*
Y1088278D01*
X646731D01*
Y1088131D01*
X646721D01*
Y1087985D01*
X646584D01*
Y1087838D01*
Y1087691D01*
X646575D01*
Y1087545D01*
X646438D01*
Y1087398D01*
X646428D01*
Y1087252D01*
Y1087105D01*
X646281D01*
Y1086958D01*
X646291D01*
Y1086812D01*
X646135D01*
Y1086665D01*
Y1086519D01*
Y1086372D01*
X645998D01*
Y1086225D01*
Y1086079D01*
X645988D01*
Y1085932D01*
X645851D01*
Y1085786D01*
X645842D01*
Y1085639D01*
Y1085492D01*
X645705D01*
Y1085346D01*
X645695D01*
Y1085199D01*
X645548D01*
Y1085053D01*
Y1084906D01*
X645558D01*
Y1084759D01*
X645402D01*
Y1084613D01*
Y1084466D01*
Y1084320D01*
X645265D01*
Y1084173D01*
X645255D01*
Y1084026D01*
X645118D01*
Y1083880D01*
Y1083733D01*
X645109D01*
Y1083586D01*
X644972D01*
Y1083440D01*
Y1083293D01*
X644962D01*
Y1083147D01*
X644815D01*
Y1083000D01*
X644825D01*
Y1082853D01*
Y1082707D01*
X644669D01*
Y1082560D01*
Y1082414D01*
X644532D01*
Y1082267D01*
Y1082120D01*
X644522D01*
Y1081974D01*
X644385D01*
Y1081827D01*
Y1081680D01*
X644375D01*
Y1081534D01*
X644239D01*
Y1081387D01*
X644229D01*
Y1081241D01*
X644082D01*
Y1081094D01*
Y1080947D01*
X644092D01*
Y1080801D01*
X643936D01*
Y1080654D01*
Y1080507D01*
Y1080361D01*
X643799D01*
Y1080214D01*
Y1080068D01*
X643789D01*
Y1079921D01*
X643652D01*
Y1079774D01*
Y1079628D01*
X643505D01*
Y1079481D01*
Y1079335D01*
Y1079188D01*
X643359D01*
Y1079042D01*
Y1078895D01*
X643349D01*
Y1078748D01*
X643212D01*
Y1078602D01*
Y1078455D01*
X643066D01*
Y1078308D01*
Y1078162D01*
Y1078015D01*
X642919D01*
Y1077869D01*
Y1077722D01*
Y1077575D01*
X642773D01*
Y1077429D01*
Y1077282D01*
Y1077136D01*
X642626D01*
Y1076989D01*
Y1076842D01*
X642470D01*
Y1076696D01*
X642479D01*
Y1076549D01*
Y1076402D01*
X642323D01*
Y1076256D01*
X642333D01*
Y1076109D01*
Y1075963D01*
X642176D01*
Y1075816D01*
Y1075669D01*
Y1075523D01*
X642039D01*
Y1075376D01*
X642030D01*
Y1075230D01*
X641883D01*
Y1075083D01*
Y1074936D01*
X641893D01*
Y1074790D01*
X641736D01*
Y1074643D01*
Y1074496D01*
Y1074350D01*
X641600D01*
Y1074203D01*
X641590D01*
Y1074057D01*
X641453D01*
Y1073910D01*
Y1073764D01*
X641443D01*
Y1073617D01*
X641306D01*
Y1073470D01*
X641297D01*
Y1073324D01*
Y1073177D01*
X641150D01*
Y1073030D01*
X641160D01*
Y1072884D01*
Y1072737D01*
X641003D01*
Y1072591D01*
Y1072444D01*
X640857D01*
Y1072297D01*
Y1072151D01*
X640867D01*
Y1072004D01*
X640710D01*
Y1071858D01*
X640720D01*
Y1071711D01*
X640563D01*
Y1071564D01*
X640573D01*
Y1071418D01*
X640427D01*
Y1071271D01*
Y1071124D01*
X640417D01*
Y1070978D01*
X640280D01*
Y1070831D01*
X640270D01*
Y1070685D01*
X640124D01*
Y1070538D01*
X640134D01*
Y1070391D01*
X639977D01*
Y1070245D01*
X639840D01*
Y1070098D01*
X639830D01*
Y1069951D01*
X639684D01*
Y1069805D01*
X639694D01*
Y1069658D01*
X639537D01*
Y1069512D01*
X639400D01*
Y1069365D01*
Y1069218D01*
X639254D01*
Y1069072D01*
X639107D01*
Y1068925D01*
X638961D01*
Y1068779D01*
X638804D01*
Y1068632D01*
Y1068485D01*
X638667D01*
Y1068339D01*
X638511D01*
Y1068192D01*
X638374D01*
Y1068046D01*
X638227D01*
Y1067899D01*
X637934D01*
Y1067752D01*
X637778D01*
Y1067606D01*
X637641D01*
Y1067459D01*
X637338D01*
Y1067312D01*
X637045D01*
Y1067166D01*
X636761D01*
Y1067019D01*
X636468D01*
Y1066873D01*
X636028D01*
Y1066726D01*
X635588D01*
Y1066580D01*
X634709D01*
Y1066433D01*
X632363D01*
Y1066580D01*
X631483D01*
Y1066726D01*
X630897D01*
Y1066873D01*
X630604D01*
Y1067019D01*
Y1067166D01*
Y1067312D01*
Y1067459D01*
Y1067606D01*
Y1067752D01*
Y1067899D01*
Y1068046D01*
Y1068192D01*
Y1068339D01*
Y1068485D01*
Y1068632D01*
Y1068779D01*
Y1068925D01*
Y1069072D01*
Y1069218D01*
Y1069365D01*
X630740D01*
Y1069218D01*
X631337D01*
Y1069072D01*
X632070D01*
Y1068925D01*
X634709D01*
Y1069072D01*
X635149D01*
Y1069218D01*
X635442D01*
Y1069365D01*
X635735D01*
Y1069512D01*
X636028D01*
Y1069658D01*
X636175D01*
Y1069805D01*
X636322D01*
Y1069951D01*
X636615D01*
Y1070098D01*
X636761D01*
Y1070245D01*
X636908D01*
Y1070391D01*
Y1070538D01*
X637055D01*
Y1070685D01*
X637201D01*
Y1070831D01*
X637348D01*
Y1070978D01*
Y1071124D01*
X637495D01*
Y1071271D01*
X637641D01*
Y1071418D01*
Y1071564D01*
X637788D01*
Y1071711D01*
Y1071858D01*
X637934D01*
Y1072004D01*
Y1072151D01*
X638081D01*
Y1072297D01*
Y1072444D01*
X638227D01*
Y1072591D01*
Y1072737D01*
X638374D01*
Y1072884D01*
Y1073030D01*
X638521D01*
Y1073177D01*
Y1073324D01*
Y1073470D01*
X638667D01*
Y1073617D01*
Y1073764D01*
X638814D01*
Y1073910D01*
Y1074057D01*
Y1074203D01*
X638961D01*
Y1074350D01*
Y1074496D01*
Y1074643D01*
X639107D01*
Y1074790D01*
Y1074936D01*
X639254D01*
Y1075083D01*
Y1075230D01*
Y1075376D01*
X639400D01*
Y1075523D01*
Y1075669D01*
Y1075816D01*
Y1075963D01*
Y1076109D01*
Y1076256D01*
X639254D01*
Y1076402D01*
Y1076549D01*
Y1076696D01*
X639107D01*
Y1076842D01*
Y1076989D01*
Y1077136D01*
X638961D01*
Y1077282D01*
Y1077429D01*
Y1077575D01*
X638814D01*
Y1077722D01*
Y1077869D01*
Y1078015D01*
X638667D01*
Y1078162D01*
Y1078308D01*
Y1078455D01*
X638521D01*
Y1078602D01*
Y1078748D01*
Y1078895D01*
X638374D01*
Y1079042D01*
Y1079188D01*
Y1079335D01*
X638227D01*
Y1079481D01*
Y1079628D01*
X638081D01*
Y1079774D01*
Y1079921D01*
Y1080068D01*
X637934D01*
Y1080214D01*
Y1080361D01*
Y1080507D01*
X637788D01*
Y1080654D01*
Y1080801D01*
Y1080947D01*
X637641D01*
Y1081094D01*
Y1081241D01*
Y1081387D01*
X637495D01*
Y1081534D01*
Y1081680D01*
Y1081827D01*
X637348D01*
Y1081974D01*
Y1082120D01*
Y1082267D01*
X637201D01*
Y1082414D01*
Y1082560D01*
Y1082707D01*
X637055D01*
Y1082853D01*
Y1083000D01*
Y1083147D01*
X636908D01*
Y1083293D01*
Y1083440D01*
Y1083586D01*
X636761D01*
Y1083733D01*
Y1083880D01*
X636615D01*
Y1084026D01*
Y1084173D01*
Y1084320D01*
X636468D01*
Y1084466D01*
Y1084613D01*
Y1084759D01*
X636322D01*
Y1084906D01*
Y1085053D01*
Y1085199D01*
X636175D01*
Y1085346D01*
Y1085492D01*
Y1085639D01*
X636028D01*
Y1085786D01*
Y1085932D01*
Y1086079D01*
X635882D01*
Y1086225D01*
Y1086372D01*
Y1086519D01*
X635735D01*
Y1086665D01*
Y1086812D01*
Y1086958D01*
X635588D01*
Y1087105D01*
Y1087252D01*
Y1087398D01*
X635442D01*
Y1087545D01*
Y1087691D01*
Y1087838D01*
X635295D01*
Y1087985D01*
Y1088131D01*
Y1088278D01*
X635149D01*
Y1088425D01*
Y1088571D01*
X635002D01*
Y1088718D01*
Y1088864D01*
Y1089011D01*
X634855D01*
Y1089158D01*
Y1089304D01*
Y1089451D01*
X634709D01*
Y1089598D01*
Y1089744D01*
Y1089891D01*
X634562D01*
Y1090037D01*
Y1090184D01*
Y1090331D01*
X634416D01*
Y1090477D01*
Y1090624D01*
Y1090770D01*
X634269D01*
Y1090917D01*
Y1091064D01*
Y1091210D01*
X634122D01*
Y1091357D01*
Y1091503D01*
Y1091650D01*
X633976D01*
Y1091797D01*
Y1091943D01*
Y1092090D01*
X633829D01*
Y1092236D01*
Y1092383D01*
Y1092530D01*
X633683D01*
Y1092676D01*
Y1092823D01*
X633536D01*
Y1092970D01*
Y1093116D01*
Y1093263D01*
X633389D01*
Y1093409D01*
Y1093556D01*
Y1093703D01*
X633243D01*
Y1093849D01*
Y1093996D01*
Y1094142D01*
X633096D01*
Y1094289D01*
Y1094436D01*
Y1094582D01*
X632949D01*
Y1094729D01*
Y1094876D01*
Y1095022D01*
X632803D01*
Y1095169D01*
Y1095315D01*
Y1095462D01*
X632656D01*
Y1095609D01*
Y1095755D01*
Y1095902D01*
X632510D01*
Y1096048D01*
Y1096195D01*
Y1096342D01*
X632363D01*
Y1096488D01*
Y1096635D01*
Y1096782D01*
X632216D01*
Y1096928D01*
Y1097075D01*
Y1097221D01*
X632070D01*
Y1097368D01*
Y1097515D01*
X631923D01*
Y1097661D01*
Y1097808D01*
Y1097954D01*
X631777D01*
Y1098101D01*
Y1098248D01*
Y1098394D01*
X631630D01*
Y1098541D01*
Y1098687D01*
Y1098834D01*
X631483D01*
Y1098981D01*
Y1099127D01*
Y1099274D01*
X631337D01*
Y1099420D01*
Y1099567D01*
Y1099714D01*
X631190D01*
Y1099860D01*
Y1100007D01*
Y1100153D01*
X631043D01*
Y1100300D01*
Y1100447D01*
Y1100593D01*
X630897D01*
Y1100740D01*
X633976D01*
Y1100593D01*
X634113D01*
Y1100447D01*
Y1100300D01*
Y1100153D01*
X634259D01*
Y1100007D01*
Y1099860D01*
Y1099714D01*
X634406D01*
Y1099567D01*
Y1099420D01*
Y1099274D01*
X634552D01*
Y1099127D01*
Y1098981D01*
Y1098834D01*
X634709D01*
Y1098687D01*
Y1098541D01*
Y1098394D01*
X634846D01*
Y1098248D01*
Y1098101D01*
Y1097954D01*
X634992D01*
Y1097808D01*
Y1097661D01*
Y1097515D01*
X635139D01*
Y1097368D01*
Y1097221D01*
X635149D01*
Y1097075D01*
X635285D01*
Y1096928D01*
Y1096782D01*
X635295D01*
Y1096635D01*
X635442D01*
Y1096488D01*
Y1096342D01*
Y1096195D01*
X635579D01*
Y1096048D01*
Y1095902D01*
X635588D01*
Y1095755D01*
X635725D01*
Y1095609D01*
Y1095462D01*
X635735D01*
Y1095315D01*
X635872D01*
Y1095169D01*
Y1095022D01*
X635882D01*
Y1094876D01*
X636019D01*
Y1094729D01*
Y1094582D01*
X636028D01*
Y1094436D01*
X636175D01*
Y1094289D01*
Y1094142D01*
Y1093996D01*
X636312D01*
Y1093849D01*
Y1093703D01*
X636322D01*
Y1093556D01*
X636458D01*
Y1093409D01*
Y1093263D01*
X636468D01*
Y1093116D01*
X636605D01*
Y1092970D01*
Y1092823D01*
X636615D01*
Y1092676D01*
X636752D01*
Y1092530D01*
X636761D01*
Y1092383D01*
Y1092236D01*
X636908D01*
Y1092090D01*
Y1091943D01*
Y1091797D01*
X637045D01*
Y1091650D01*
X637055D01*
Y1091503D01*
Y1091357D01*
X637192D01*
Y1091210D01*
X637201D01*
Y1091064D01*
Y1090917D01*
X637338D01*
Y1090770D01*
X637348D01*
Y1090624D01*
Y1090477D01*
X637485D01*
Y1090331D01*
X637495D01*
Y1090184D01*
Y1090037D01*
X637641D01*
Y1089891D01*
Y1089744D01*
Y1089598D01*
X637778D01*
Y1089451D01*
X637788D01*
Y1089304D01*
Y1089158D01*
X637924D01*
Y1089011D01*
X637934D01*
Y1088864D01*
Y1088718D01*
X638071D01*
Y1088571D01*
X638081D01*
Y1088425D01*
Y1088278D01*
X638227D01*
Y1088131D01*
Y1087985D01*
Y1087838D01*
X638374D01*
Y1087691D01*
Y1087545D01*
Y1087398D01*
X638521D01*
Y1087252D01*
Y1087105D01*
Y1086958D01*
X638667D01*
Y1086812D01*
Y1086665D01*
Y1086519D01*
X638814D01*
Y1086372D01*
Y1086225D01*
Y1086079D01*
X638961D01*
Y1085932D01*
Y1085786D01*
Y1085639D01*
X639107D01*
Y1085492D01*
Y1085346D01*
Y1085199D01*
X639254D01*
Y1085053D01*
Y1084906D01*
Y1084759D01*
X639400D01*
Y1084613D01*
Y1084466D01*
Y1084320D01*
X639547D01*
Y1084173D01*
Y1084026D01*
Y1083880D01*
X639694D01*
Y1083733D01*
Y1083586D01*
Y1083440D01*
X639840D01*
Y1083293D01*
Y1083147D01*
X639830D01*
Y1083000D01*
X639987D01*
Y1082853D01*
Y1082707D01*
X639977D01*
Y1082560D01*
X640134D01*
Y1082414D01*
Y1082267D01*
X640124D01*
Y1082120D01*
X640280D01*
Y1081974D01*
Y1081827D01*
X640270D01*
Y1081680D01*
X640427D01*
Y1081534D01*
Y1081387D01*
Y1081241D01*
X640573D01*
Y1081094D01*
Y1080947D01*
X640563D01*
Y1080801D01*
X640720D01*
Y1080654D01*
Y1080507D01*
X640710D01*
Y1080361D01*
X640867D01*
Y1080214D01*
Y1080068D01*
X641160D01*
Y1080214D01*
Y1080361D01*
Y1080507D01*
X641306D01*
Y1080654D01*
Y1080801D01*
Y1080947D01*
X641453D01*
Y1081094D01*
Y1081241D01*
Y1081387D01*
X641600D01*
Y1081534D01*
Y1081680D01*
X641746D01*
Y1081827D01*
Y1081974D01*
Y1082120D01*
X641893D01*
Y1082267D01*
Y1082414D01*
Y1082560D01*
X642039D01*
Y1082707D01*
Y1082853D01*
Y1083000D01*
X642186D01*
Y1083147D01*
Y1083293D01*
X642333D01*
Y1083440D01*
Y1083586D01*
Y1083733D01*
X642479D01*
Y1083880D01*
Y1084026D01*
Y1084173D01*
X642626D01*
Y1084320D01*
Y1084466D01*
X642773D01*
Y1084613D01*
Y1084759D01*
Y1084906D01*
X642919D01*
Y1085053D01*
Y1085199D01*
Y1085346D01*
X643066D01*
Y1085492D01*
Y1085639D01*
Y1085786D01*
X643212D01*
Y1085932D01*
Y1086079D01*
X643359D01*
Y1086225D01*
Y1086372D01*
Y1086519D01*
X643505D01*
Y1086665D01*
Y1086812D01*
Y1086958D01*
X643652D01*
Y1087105D01*
Y1087252D01*
Y1087398D01*
X643799D01*
Y1087545D01*
Y1087691D01*
X643945D01*
Y1087838D01*
Y1087985D01*
Y1088131D01*
X644092D01*
Y1088278D01*
Y1088425D01*
Y1088571D01*
X644239D01*
Y1088718D01*
Y1088864D01*
X644385D01*
Y1089011D01*
Y1089158D01*
Y1089304D01*
X644532D01*
Y1089451D01*
Y1089598D01*
Y1089744D01*
X644678D01*
Y1089891D01*
Y1090037D01*
Y1090184D01*
X644825D01*
Y1090331D01*
Y1090477D01*
X644972D01*
Y1090624D01*
Y1090770D01*
Y1090917D01*
X645118D01*
Y1091064D01*
Y1091210D01*
Y1091357D01*
X645265D01*
Y1091503D01*
Y1091650D01*
Y1091797D01*
X645412D01*
Y1091943D01*
Y1092090D01*
X645558D01*
Y1092236D01*
Y1092383D01*
Y1092530D01*
X645705D01*
Y1092676D01*
Y1092823D01*
Y1092970D01*
X645851D01*
Y1093116D01*
Y1093263D01*
X645998D01*
Y1093409D01*
Y1093556D01*
Y1093703D01*
X646144D01*
Y1093849D01*
Y1093996D01*
Y1094142D01*
X646291D01*
Y1094289D01*
Y1094436D01*
Y1094582D01*
X646438D01*
Y1094729D01*
Y1094876D01*
X646584D01*
Y1095022D01*
Y1095169D01*
Y1095315D01*
X646731D01*
Y1095462D01*
Y1095609D01*
Y1095755D01*
X646878D01*
Y1095902D01*
Y1096048D01*
Y1096195D01*
X647024D01*
Y1096342D01*
Y1096488D01*
X647171D01*
Y1096635D01*
Y1096782D01*
Y1096928D01*
X647317D01*
Y1097075D01*
Y1097221D01*
Y1097368D01*
X647464D01*
Y1097515D01*
Y1097661D01*
Y1097808D01*
X647611D01*
Y1097954D01*
Y1098101D01*
X647757D01*
Y1098248D01*
Y1098394D01*
Y1098541D01*
X647904D01*
Y1098687D01*
Y1098834D01*
Y1098981D01*
X648051D01*
Y1099127D01*
Y1099274D01*
X648197D01*
Y1099420D01*
Y1099567D01*
Y1099714D01*
X648344D01*
Y1099860D01*
Y1100007D01*
Y1100153D01*
X648490D01*
Y1100300D01*
Y1100447D01*
Y1100593D01*
X648637D01*
Y1100740D01*
X651266D01*
Y1100593D01*
D02*
G37*
G36*
X833798D02*
Y1100447D01*
Y1100300D01*
Y1100153D01*
Y1100007D01*
Y1099860D01*
Y1099714D01*
Y1099567D01*
Y1099420D01*
Y1099274D01*
Y1099127D01*
Y1098981D01*
Y1098834D01*
Y1098687D01*
Y1098541D01*
Y1098394D01*
Y1098248D01*
Y1098101D01*
Y1097954D01*
Y1097808D01*
Y1097661D01*
Y1097515D01*
Y1097368D01*
Y1097221D01*
Y1097075D01*
Y1096928D01*
Y1096782D01*
Y1096635D01*
Y1096488D01*
Y1096342D01*
Y1096195D01*
Y1096048D01*
Y1095902D01*
Y1095755D01*
Y1095609D01*
Y1095462D01*
Y1095315D01*
Y1095169D01*
Y1095022D01*
Y1094876D01*
Y1094729D01*
Y1094582D01*
Y1094436D01*
Y1094289D01*
Y1094142D01*
Y1093996D01*
Y1093849D01*
Y1093703D01*
Y1093556D01*
Y1093409D01*
Y1093263D01*
Y1093116D01*
Y1092970D01*
Y1092823D01*
Y1092676D01*
Y1092530D01*
Y1092383D01*
Y1092236D01*
Y1092090D01*
Y1091943D01*
Y1091797D01*
Y1091650D01*
Y1091503D01*
Y1091357D01*
Y1091210D01*
Y1091064D01*
Y1090917D01*
Y1090770D01*
Y1090624D01*
Y1090477D01*
Y1090331D01*
Y1090184D01*
Y1090037D01*
Y1089891D01*
Y1089744D01*
Y1089598D01*
Y1089451D01*
Y1089304D01*
Y1089158D01*
Y1089011D01*
Y1088864D01*
Y1088718D01*
Y1088571D01*
Y1088425D01*
Y1088278D01*
Y1088131D01*
Y1087985D01*
Y1087838D01*
Y1087691D01*
Y1087545D01*
Y1087398D01*
Y1087252D01*
Y1087105D01*
Y1086958D01*
Y1086812D01*
Y1086665D01*
Y1086519D01*
Y1086372D01*
Y1086225D01*
Y1086079D01*
Y1085932D01*
Y1085786D01*
Y1085639D01*
Y1085492D01*
Y1085346D01*
Y1085199D01*
Y1085053D01*
Y1084906D01*
Y1084759D01*
Y1084613D01*
Y1084466D01*
Y1084320D01*
Y1084173D01*
Y1084026D01*
Y1083880D01*
Y1083733D01*
Y1083586D01*
Y1083440D01*
Y1083293D01*
Y1083147D01*
Y1083000D01*
Y1082853D01*
Y1082707D01*
Y1082560D01*
Y1082414D01*
Y1082267D01*
Y1082120D01*
Y1081974D01*
Y1081827D01*
Y1081680D01*
Y1081534D01*
Y1081387D01*
Y1081241D01*
Y1081094D01*
Y1080947D01*
Y1080801D01*
Y1080654D01*
Y1080507D01*
Y1080361D01*
Y1080214D01*
Y1080068D01*
Y1079921D01*
Y1079774D01*
Y1079628D01*
Y1079481D01*
Y1079335D01*
Y1079188D01*
Y1079042D01*
Y1078895D01*
Y1078748D01*
Y1078602D01*
Y1078455D01*
Y1078308D01*
Y1078162D01*
Y1078015D01*
Y1077869D01*
Y1077722D01*
Y1077575D01*
Y1077429D01*
Y1077282D01*
Y1077136D01*
Y1076989D01*
Y1076842D01*
Y1076696D01*
Y1076549D01*
Y1076402D01*
Y1076256D01*
Y1076109D01*
Y1075963D01*
Y1075816D01*
Y1075669D01*
Y1075523D01*
Y1075376D01*
X826330D01*
Y1075523D01*
Y1075669D01*
Y1075816D01*
Y1075963D01*
Y1076109D01*
Y1076256D01*
Y1076402D01*
Y1076549D01*
Y1076696D01*
Y1076842D01*
Y1076989D01*
Y1077136D01*
Y1077282D01*
Y1077429D01*
Y1077575D01*
Y1077722D01*
Y1077869D01*
Y1078015D01*
Y1078162D01*
Y1078308D01*
Y1078455D01*
Y1078602D01*
Y1078748D01*
Y1078895D01*
Y1079042D01*
Y1079188D01*
Y1079335D01*
Y1079481D01*
Y1079628D01*
Y1079774D01*
Y1079921D01*
Y1080068D01*
Y1080214D01*
Y1080361D01*
Y1080507D01*
Y1080654D01*
Y1080801D01*
Y1080947D01*
Y1081094D01*
Y1081241D01*
Y1081387D01*
Y1081534D01*
Y1081680D01*
Y1081827D01*
Y1081974D01*
Y1082120D01*
Y1082267D01*
Y1082414D01*
Y1082560D01*
Y1082707D01*
Y1082853D01*
Y1083000D01*
Y1083147D01*
Y1083293D01*
Y1083440D01*
Y1083586D01*
Y1083733D01*
Y1083880D01*
Y1084026D01*
Y1084173D01*
Y1084320D01*
Y1084466D01*
Y1084613D01*
Y1084759D01*
Y1084906D01*
Y1085053D01*
Y1085199D01*
Y1085346D01*
Y1085492D01*
Y1085639D01*
Y1085786D01*
Y1085932D01*
Y1086079D01*
Y1086225D01*
Y1086372D01*
Y1086519D01*
Y1086665D01*
Y1086812D01*
Y1086958D01*
Y1087105D01*
Y1087252D01*
Y1087398D01*
Y1087545D01*
Y1087691D01*
Y1087838D01*
Y1087985D01*
Y1088131D01*
Y1088278D01*
Y1088425D01*
Y1088571D01*
Y1088718D01*
Y1088864D01*
Y1089011D01*
Y1089158D01*
Y1089304D01*
Y1089451D01*
Y1089598D01*
Y1089744D01*
Y1089891D01*
Y1090037D01*
Y1090184D01*
Y1090331D01*
Y1090477D01*
Y1090624D01*
Y1090770D01*
Y1090917D01*
Y1091064D01*
Y1091210D01*
Y1091357D01*
Y1091503D01*
Y1091650D01*
Y1091797D01*
Y1091943D01*
Y1092090D01*
Y1092236D01*
Y1092383D01*
Y1092530D01*
Y1092676D01*
Y1092823D01*
Y1092970D01*
Y1093116D01*
Y1093263D01*
Y1093409D01*
Y1093556D01*
Y1093703D01*
Y1093849D01*
Y1093996D01*
Y1094142D01*
Y1094289D01*
Y1094436D01*
Y1094582D01*
Y1094729D01*
Y1094876D01*
Y1095022D01*
Y1095169D01*
Y1095315D01*
Y1095462D01*
Y1095609D01*
Y1095755D01*
Y1095902D01*
Y1096048D01*
Y1096195D01*
Y1096342D01*
Y1096488D01*
Y1096635D01*
Y1096782D01*
Y1096928D01*
Y1097075D01*
Y1097221D01*
Y1097368D01*
Y1097515D01*
Y1097661D01*
Y1097808D01*
Y1097954D01*
Y1098101D01*
Y1098248D01*
Y1098394D01*
Y1098541D01*
Y1098687D01*
Y1098834D01*
Y1098981D01*
Y1099127D01*
Y1099274D01*
Y1099420D01*
Y1099567D01*
Y1099714D01*
Y1099860D01*
Y1100007D01*
Y1100153D01*
Y1100300D01*
Y1100447D01*
Y1100593D01*
Y1100740D01*
X833798D01*
Y1100593D01*
D02*
G37*
G36*
X810350Y1101180D02*
X812109D01*
Y1101033D01*
X812979D01*
Y1100887D01*
X813712D01*
Y1100740D01*
X814308D01*
Y1100593D01*
X814748D01*
Y1100447D01*
X815188D01*
Y1100300D01*
X815618D01*
Y1100153D01*
X815921D01*
Y1100007D01*
X816214D01*
Y1099860D01*
X816508D01*
Y1099714D01*
X816801D01*
Y1099567D01*
X817094D01*
Y1099420D01*
X817231D01*
Y1099274D01*
X817524D01*
Y1099127D01*
X817671D01*
Y1098981D01*
X817817D01*
Y1098834D01*
X817974D01*
Y1098687D01*
X818257D01*
Y1098541D01*
X818404D01*
Y1098394D01*
X818550D01*
Y1098248D01*
X818560D01*
Y1098101D01*
X818697D01*
Y1097954D01*
X818843D01*
Y1097808D01*
X819000D01*
Y1097661D01*
Y1097515D01*
X819146D01*
Y1097368D01*
X819293D01*
Y1097221D01*
X819283D01*
Y1097075D01*
X819430D01*
Y1096928D01*
X819440D01*
Y1096782D01*
Y1096635D01*
X819577D01*
Y1096488D01*
X819586D01*
Y1096342D01*
Y1096195D01*
X819723D01*
Y1096048D01*
Y1095902D01*
X819733D01*
Y1095755D01*
X819880D01*
Y1095609D01*
Y1095462D01*
X819870D01*
Y1095315D01*
Y1095169D01*
Y1095022D01*
X819880D01*
Y1094876D01*
Y1094729D01*
X820026D01*
Y1094582D01*
Y1094436D01*
Y1094289D01*
X820016D01*
Y1094142D01*
Y1093996D01*
Y1093849D01*
Y1093703D01*
X820026D01*
Y1093556D01*
Y1093409D01*
Y1093263D01*
Y1093116D01*
Y1092970D01*
Y1092823D01*
Y1092676D01*
Y1092530D01*
Y1092383D01*
Y1092236D01*
Y1092090D01*
Y1091943D01*
Y1091797D01*
Y1091650D01*
Y1091503D01*
Y1091357D01*
Y1091210D01*
Y1091064D01*
X820016D01*
Y1090917D01*
Y1090770D01*
Y1090624D01*
Y1090477D01*
X820026D01*
Y1090331D01*
Y1090184D01*
X820016D01*
Y1090037D01*
X820026D01*
Y1089891D01*
Y1089744D01*
X820016D01*
Y1089598D01*
Y1089451D01*
Y1089304D01*
X820026D01*
Y1089158D01*
Y1089011D01*
Y1088864D01*
X820016D01*
Y1088718D01*
X820026D01*
Y1088571D01*
Y1088425D01*
Y1088278D01*
Y1088131D01*
X820016D01*
Y1087985D01*
X820026D01*
Y1087838D01*
Y1087691D01*
X820016D01*
Y1087545D01*
X820026D01*
Y1087398D01*
Y1087252D01*
Y1087105D01*
Y1086958D01*
Y1086812D01*
Y1086665D01*
Y1086519D01*
Y1086372D01*
Y1086225D01*
Y1086079D01*
Y1085932D01*
Y1085786D01*
Y1085639D01*
Y1085492D01*
Y1085346D01*
Y1085199D01*
Y1085053D01*
Y1084906D01*
Y1084759D01*
Y1084613D01*
Y1084466D01*
Y1084320D01*
Y1084173D01*
X820016D01*
Y1084026D01*
Y1083880D01*
Y1083733D01*
Y1083586D01*
Y1083440D01*
X820026D01*
Y1083293D01*
Y1083147D01*
Y1083000D01*
X820016D01*
Y1082853D01*
Y1082707D01*
Y1082560D01*
X820026D01*
Y1082414D01*
Y1082267D01*
Y1082120D01*
Y1081974D01*
X820016D01*
Y1081827D01*
Y1081680D01*
X820026D01*
Y1081534D01*
X820016D01*
Y1081387D01*
Y1081241D01*
X820026D01*
Y1081094D01*
Y1080947D01*
X820016D01*
Y1080801D01*
X820026D01*
Y1080654D01*
X820016D01*
Y1080507D01*
X820026D01*
Y1080361D01*
X820016D01*
Y1080214D01*
X820026D01*
Y1080068D01*
Y1079921D01*
X820016D01*
Y1079774D01*
X820026D01*
Y1079628D01*
Y1079481D01*
Y1079335D01*
X820016D01*
Y1079188D01*
Y1079042D01*
Y1078895D01*
Y1078748D01*
Y1078602D01*
Y1078455D01*
X820163D01*
Y1078308D01*
Y1078162D01*
Y1078015D01*
Y1077869D01*
Y1077722D01*
Y1077575D01*
Y1077429D01*
Y1077282D01*
X820173D01*
Y1077136D01*
Y1076989D01*
Y1076842D01*
Y1076696D01*
X820310D01*
Y1076549D01*
Y1076402D01*
Y1076256D01*
X820319D01*
Y1076109D01*
Y1075963D01*
X820456D01*
Y1075816D01*
Y1075669D01*
Y1075523D01*
X820466D01*
Y1075376D01*
X813429D01*
Y1075523D01*
X813282D01*
Y1075669D01*
Y1075816D01*
Y1075963D01*
Y1076109D01*
Y1076256D01*
X813135D01*
Y1076402D01*
Y1076549D01*
Y1076696D01*
Y1076842D01*
Y1076989D01*
Y1077136D01*
Y1077282D01*
X812989D01*
Y1077429D01*
Y1077575D01*
Y1077722D01*
Y1077869D01*
Y1078015D01*
Y1078162D01*
Y1078308D01*
Y1078455D01*
Y1078602D01*
Y1078748D01*
Y1078895D01*
Y1079042D01*
Y1079188D01*
Y1079335D01*
X812842D01*
Y1079188D01*
X812696D01*
Y1079042D01*
X812686D01*
Y1078895D01*
X812549D01*
Y1078748D01*
X812402D01*
Y1078602D01*
X812246D01*
Y1078455D01*
X812256D01*
Y1078308D01*
X812099D01*
Y1078162D01*
X811962D01*
Y1078015D01*
X811806D01*
Y1077869D01*
X811659D01*
Y1077722D01*
X811523D01*
Y1077575D01*
X811376D01*
Y1077429D01*
X811220D01*
Y1077282D01*
X811073D01*
Y1077136D01*
X810936D01*
Y1076989D01*
X810790D01*
Y1076842D01*
X810643D01*
Y1076696D01*
X810487D01*
Y1076549D01*
X810203D01*
Y1076402D01*
X810057D01*
Y1076256D01*
X809754D01*
Y1076109D01*
X809607D01*
Y1075963D01*
X809323D01*
Y1075816D01*
X809020D01*
Y1075669D01*
X808737D01*
Y1075523D01*
X808287D01*
Y1075376D01*
X807857D01*
Y1075230D01*
X807271D01*
Y1075083D01*
X806391D01*
Y1074936D01*
X803459D01*
Y1075083D01*
X802579D01*
Y1075230D01*
X801993D01*
Y1075376D01*
X801553D01*
Y1075523D01*
X801113D01*
Y1075669D01*
X800820D01*
Y1075816D01*
X800527D01*
Y1075963D01*
X800234D01*
Y1076109D01*
X800087D01*
Y1076256D01*
X799794D01*
Y1076402D01*
X799647D01*
Y1076549D01*
X799354D01*
Y1076696D01*
X799207D01*
Y1076842D01*
X799061D01*
Y1076989D01*
X798914D01*
Y1077136D01*
X798767D01*
Y1077282D01*
X798621D01*
Y1077429D01*
X798474D01*
Y1077575D01*
X798328D01*
Y1077722D01*
Y1077869D01*
X798181D01*
Y1078015D01*
X798034D01*
Y1078162D01*
X797888D01*
Y1078308D01*
Y1078455D01*
X797741D01*
Y1078602D01*
Y1078748D01*
X797595D01*
Y1078895D01*
Y1079042D01*
X797448D01*
Y1079188D01*
Y1079335D01*
Y1079481D01*
X797301D01*
Y1079628D01*
Y1079774D01*
Y1079921D01*
X797155D01*
Y1080068D01*
Y1080214D01*
Y1080361D01*
Y1080507D01*
X797008D01*
Y1080654D01*
Y1080801D01*
Y1080947D01*
Y1081094D01*
Y1081241D01*
Y1081387D01*
Y1081534D01*
Y1081680D01*
Y1081827D01*
Y1081974D01*
Y1082120D01*
Y1082267D01*
Y1082414D01*
Y1082560D01*
Y1082707D01*
Y1082853D01*
Y1083000D01*
Y1083147D01*
Y1083293D01*
Y1083440D01*
Y1083586D01*
X797155D01*
Y1083733D01*
Y1083880D01*
Y1084026D01*
Y1084173D01*
X797301D01*
Y1084320D01*
Y1084466D01*
Y1084613D01*
X797448D01*
Y1084759D01*
Y1084906D01*
Y1085053D01*
X797595D01*
Y1085199D01*
Y1085346D01*
X797741D01*
Y1085492D01*
Y1085639D01*
X797888D01*
Y1085786D01*
Y1085932D01*
X798034D01*
Y1086079D01*
Y1086225D01*
X798181D01*
Y1086372D01*
X798328D01*
Y1086519D01*
Y1086665D01*
X798474D01*
Y1086812D01*
X798621D01*
Y1086958D01*
X798767D01*
Y1087105D01*
X798914D01*
Y1087252D01*
X799061D01*
Y1087398D01*
X799207D01*
Y1087545D01*
X799354D01*
Y1087691D01*
X799500D01*
Y1087838D01*
X799647D01*
Y1087985D01*
X799794D01*
Y1088131D01*
X799940D01*
Y1088278D01*
X800234D01*
Y1088425D01*
X800380D01*
Y1088571D01*
X800673D01*
Y1088718D01*
X800820D01*
Y1088864D01*
X801113D01*
Y1089011D01*
X801407D01*
Y1089158D01*
X801700D01*
Y1089304D01*
X801993D01*
Y1089451D01*
X802286D01*
Y1089598D01*
X802726D01*
Y1089744D01*
X803166D01*
Y1089891D01*
X803606D01*
Y1090037D01*
X804192D01*
Y1090184D01*
X804779D01*
Y1090331D01*
X805512D01*
Y1090477D01*
X806391D01*
Y1090624D01*
X807418D01*
Y1090770D01*
X808590D01*
Y1090917D01*
X810057D01*
Y1091064D01*
X811669D01*
Y1091210D01*
X812696D01*
Y1091357D01*
Y1091503D01*
Y1091650D01*
Y1091797D01*
Y1091943D01*
Y1092090D01*
Y1092236D01*
Y1092383D01*
Y1092530D01*
Y1092676D01*
Y1092823D01*
Y1092970D01*
Y1093116D01*
Y1093263D01*
Y1093409D01*
Y1093556D01*
Y1093703D01*
X812549D01*
Y1093849D01*
Y1093996D01*
Y1094142D01*
Y1094289D01*
X812402D01*
Y1094436D01*
Y1094582D01*
Y1094729D01*
X812256D01*
Y1094876D01*
Y1095022D01*
X812109D01*
Y1095169D01*
X811962D01*
Y1095315D01*
Y1095462D01*
X811816D01*
Y1095609D01*
X811523D01*
Y1095755D01*
X811376D01*
Y1095902D01*
X811083D01*
Y1096048D01*
X810790D01*
Y1096195D01*
X810350D01*
Y1096342D01*
X809617D01*
Y1096488D01*
X808151D01*
Y1096342D01*
X807418D01*
Y1096195D01*
X806978D01*
Y1096048D01*
X806538D01*
Y1095902D01*
X806381D01*
Y1095755D01*
X806088D01*
Y1095609D01*
X805951D01*
Y1095462D01*
X805805D01*
Y1095315D01*
X805648D01*
Y1095169D01*
X805512D01*
Y1095022D01*
X805365D01*
Y1094876D01*
X805209D01*
Y1094729D01*
Y1094582D01*
X805072D01*
Y1094436D01*
X805062D01*
Y1094289D01*
X804925D01*
Y1094142D01*
Y1093996D01*
X804769D01*
Y1093849D01*
X804779D01*
Y1093703D01*
Y1093556D01*
X804632D01*
Y1093409D01*
Y1093263D01*
Y1093116D01*
X804622D01*
Y1092970D01*
Y1092823D01*
X803019D01*
Y1092970D01*
X801553D01*
Y1093116D01*
X799940D01*
Y1093263D01*
X798474D01*
Y1093409D01*
X797741D01*
Y1093556D01*
Y1093703D01*
Y1093849D01*
X797888D01*
Y1093996D01*
Y1094142D01*
Y1094289D01*
Y1094436D01*
X798034D01*
Y1094582D01*
Y1094729D01*
Y1094876D01*
Y1095022D01*
X798181D01*
Y1095169D01*
Y1095315D01*
Y1095462D01*
X798328D01*
Y1095609D01*
Y1095755D01*
X798474D01*
Y1095902D01*
Y1096048D01*
Y1096195D01*
X798621D01*
Y1096342D01*
Y1096488D01*
X798767D01*
Y1096635D01*
Y1096782D01*
X798914D01*
Y1096928D01*
X799061D01*
Y1097075D01*
Y1097221D01*
X799207D01*
Y1097368D01*
X799354D01*
Y1097515D01*
X799500D01*
Y1097661D01*
Y1097808D01*
X799647D01*
Y1097954D01*
X799794D01*
Y1098101D01*
X799940D01*
Y1098248D01*
X800087D01*
Y1098394D01*
X800380D01*
Y1098541D01*
X800527D01*
Y1098687D01*
X800673D01*
Y1098834D01*
X800820D01*
Y1098981D01*
X801113D01*
Y1099127D01*
X801260D01*
Y1099274D01*
X801553D01*
Y1099420D01*
X801846D01*
Y1099567D01*
X802139D01*
Y1099714D01*
X802433D01*
Y1099860D01*
X802726D01*
Y1100007D01*
X803019D01*
Y1100153D01*
X803459D01*
Y1100300D01*
X803752D01*
Y1100447D01*
X804192D01*
Y1100593D01*
X804779D01*
Y1100740D01*
X805365D01*
Y1100887D01*
X806098D01*
Y1101033D01*
X806978D01*
Y1101180D01*
X808884D01*
Y1101326D01*
X810350D01*
Y1101180D01*
D02*
G37*
G36*
X792610Y1083000D02*
Y1082853D01*
Y1082707D01*
Y1082560D01*
Y1082414D01*
Y1082267D01*
Y1082120D01*
Y1081974D01*
Y1081827D01*
Y1081680D01*
Y1081534D01*
Y1081387D01*
Y1081241D01*
Y1081094D01*
Y1080947D01*
Y1080801D01*
Y1080654D01*
Y1080507D01*
Y1080361D01*
Y1080214D01*
Y1080068D01*
Y1079921D01*
Y1079774D01*
Y1079628D01*
Y1079481D01*
Y1079335D01*
Y1079188D01*
Y1079042D01*
Y1078895D01*
Y1078748D01*
Y1078602D01*
Y1078455D01*
Y1078308D01*
Y1078162D01*
Y1078015D01*
Y1077869D01*
Y1077722D01*
Y1077575D01*
Y1077429D01*
Y1077282D01*
Y1077136D01*
Y1076989D01*
Y1076842D01*
Y1076696D01*
Y1076549D01*
Y1076402D01*
Y1076256D01*
Y1076109D01*
Y1075963D01*
Y1075816D01*
Y1075669D01*
Y1075523D01*
Y1075376D01*
X784839D01*
Y1075523D01*
Y1075669D01*
Y1075816D01*
Y1075963D01*
Y1076109D01*
Y1076256D01*
Y1076402D01*
Y1076549D01*
Y1076696D01*
Y1076842D01*
Y1076989D01*
Y1077136D01*
Y1077282D01*
Y1077429D01*
Y1077575D01*
Y1077722D01*
Y1077869D01*
Y1078015D01*
Y1078162D01*
Y1078308D01*
Y1078455D01*
Y1078602D01*
Y1078748D01*
Y1078895D01*
Y1079042D01*
Y1079188D01*
Y1079335D01*
Y1079481D01*
Y1079628D01*
Y1079774D01*
Y1079921D01*
Y1080068D01*
Y1080214D01*
Y1080361D01*
Y1080507D01*
Y1080654D01*
Y1080801D01*
Y1080947D01*
Y1081094D01*
Y1081241D01*
Y1081387D01*
Y1081534D01*
Y1081680D01*
Y1081827D01*
Y1081974D01*
Y1082120D01*
Y1082267D01*
Y1082414D01*
Y1082560D01*
Y1082707D01*
Y1082853D01*
Y1083000D01*
Y1083147D01*
X792610D01*
Y1083000D01*
D02*
G37*
G36*
X723116Y1100593D02*
Y1100447D01*
Y1100300D01*
Y1100153D01*
Y1100007D01*
Y1099860D01*
Y1099714D01*
Y1099567D01*
Y1099420D01*
Y1099274D01*
Y1099127D01*
Y1098981D01*
Y1098834D01*
Y1098687D01*
Y1098541D01*
Y1098394D01*
Y1098248D01*
Y1098101D01*
Y1097954D01*
Y1097808D01*
Y1097661D01*
Y1097515D01*
Y1097368D01*
Y1097221D01*
Y1097075D01*
Y1096928D01*
Y1096782D01*
Y1096635D01*
Y1096488D01*
Y1096342D01*
Y1096195D01*
Y1096048D01*
Y1095902D01*
Y1095755D01*
Y1095609D01*
Y1095462D01*
Y1095315D01*
Y1095169D01*
Y1095022D01*
Y1094876D01*
Y1094729D01*
Y1094582D01*
Y1094436D01*
Y1094289D01*
Y1094142D01*
Y1093996D01*
Y1093849D01*
Y1093703D01*
Y1093556D01*
Y1093409D01*
Y1093263D01*
Y1093116D01*
Y1092970D01*
Y1092823D01*
Y1092676D01*
Y1092530D01*
Y1092383D01*
Y1092236D01*
Y1092090D01*
Y1091943D01*
Y1091797D01*
Y1091650D01*
Y1091503D01*
Y1091357D01*
Y1091210D01*
Y1091064D01*
Y1090917D01*
Y1090770D01*
Y1090624D01*
Y1090477D01*
Y1090331D01*
Y1090184D01*
Y1090037D01*
Y1089891D01*
Y1089744D01*
Y1089598D01*
Y1089451D01*
Y1089304D01*
Y1089158D01*
Y1089011D01*
Y1088864D01*
Y1088718D01*
Y1088571D01*
Y1088425D01*
Y1088278D01*
Y1088131D01*
Y1087985D01*
Y1087838D01*
Y1087691D01*
Y1087545D01*
Y1087398D01*
Y1087252D01*
Y1087105D01*
Y1086958D01*
Y1086812D01*
Y1086665D01*
Y1086519D01*
Y1086372D01*
Y1086225D01*
Y1086079D01*
Y1085932D01*
Y1085786D01*
Y1085639D01*
Y1085492D01*
Y1085346D01*
Y1085199D01*
Y1085053D01*
Y1084906D01*
Y1084759D01*
Y1084613D01*
Y1084466D01*
Y1084320D01*
Y1084173D01*
Y1084026D01*
Y1083880D01*
Y1083733D01*
Y1083586D01*
Y1083440D01*
Y1083293D01*
Y1083147D01*
Y1083000D01*
Y1082853D01*
Y1082707D01*
Y1082560D01*
Y1082414D01*
Y1082267D01*
Y1082120D01*
Y1081974D01*
Y1081827D01*
Y1081680D01*
Y1081534D01*
Y1081387D01*
Y1081241D01*
Y1081094D01*
Y1080947D01*
Y1080801D01*
Y1080654D01*
Y1080507D01*
Y1080361D01*
Y1080214D01*
Y1080068D01*
Y1079921D01*
Y1079774D01*
Y1079628D01*
Y1079481D01*
Y1079335D01*
Y1079188D01*
Y1079042D01*
Y1078895D01*
Y1078748D01*
Y1078602D01*
Y1078455D01*
Y1078308D01*
Y1078162D01*
Y1078015D01*
Y1077869D01*
Y1077722D01*
Y1077575D01*
Y1077429D01*
Y1077282D01*
Y1077136D01*
Y1076989D01*
Y1076842D01*
Y1076696D01*
Y1076549D01*
Y1076402D01*
Y1076256D01*
Y1076109D01*
Y1075963D01*
Y1075816D01*
Y1075669D01*
Y1075523D01*
Y1075376D01*
X715785D01*
Y1075523D01*
Y1075669D01*
Y1075816D01*
Y1075963D01*
Y1076109D01*
Y1076256D01*
Y1076402D01*
Y1076549D01*
Y1076696D01*
Y1076842D01*
Y1076989D01*
Y1077136D01*
Y1077282D01*
Y1077429D01*
Y1077575D01*
Y1077722D01*
Y1077869D01*
Y1078015D01*
Y1078162D01*
Y1078308D01*
Y1078455D01*
Y1078602D01*
Y1078748D01*
Y1078895D01*
Y1079042D01*
Y1079188D01*
Y1079335D01*
Y1079481D01*
Y1079628D01*
Y1079774D01*
Y1079921D01*
Y1080068D01*
Y1080214D01*
Y1080361D01*
Y1080507D01*
Y1080654D01*
Y1080801D01*
Y1080947D01*
Y1081094D01*
Y1081241D01*
Y1081387D01*
Y1081534D01*
Y1081680D01*
Y1081827D01*
Y1081974D01*
Y1082120D01*
Y1082267D01*
Y1082414D01*
Y1082560D01*
Y1082707D01*
Y1082853D01*
Y1083000D01*
Y1083147D01*
Y1083293D01*
Y1083440D01*
Y1083586D01*
Y1083733D01*
Y1083880D01*
Y1084026D01*
Y1084173D01*
Y1084320D01*
Y1084466D01*
Y1084613D01*
Y1084759D01*
Y1084906D01*
Y1085053D01*
Y1085199D01*
Y1085346D01*
Y1085492D01*
Y1085639D01*
Y1085786D01*
Y1085932D01*
Y1086079D01*
Y1086225D01*
Y1086372D01*
Y1086519D01*
Y1086665D01*
Y1086812D01*
Y1086958D01*
Y1087105D01*
Y1087252D01*
Y1087398D01*
Y1087545D01*
Y1087691D01*
Y1087838D01*
Y1087985D01*
Y1088131D01*
Y1088278D01*
Y1088425D01*
Y1088571D01*
Y1088718D01*
Y1088864D01*
Y1089011D01*
Y1089158D01*
Y1089304D01*
Y1089451D01*
Y1089598D01*
Y1089744D01*
Y1089891D01*
Y1090037D01*
Y1090184D01*
Y1090331D01*
Y1090477D01*
Y1090624D01*
Y1090770D01*
Y1090917D01*
Y1091064D01*
Y1091210D01*
Y1091357D01*
Y1091503D01*
Y1091650D01*
Y1091797D01*
Y1091943D01*
Y1092090D01*
Y1092236D01*
Y1092383D01*
Y1092530D01*
Y1092676D01*
Y1092823D01*
Y1092970D01*
Y1093116D01*
Y1093263D01*
Y1093409D01*
Y1093556D01*
Y1093703D01*
Y1093849D01*
Y1093996D01*
Y1094142D01*
Y1094289D01*
Y1094436D01*
Y1094582D01*
Y1094729D01*
Y1094876D01*
Y1095022D01*
Y1095169D01*
Y1095315D01*
Y1095462D01*
Y1095609D01*
Y1095755D01*
Y1095902D01*
Y1096048D01*
Y1096195D01*
Y1096342D01*
Y1096488D01*
Y1096635D01*
Y1096782D01*
Y1096928D01*
Y1097075D01*
Y1097221D01*
Y1097368D01*
Y1097515D01*
Y1097661D01*
Y1097808D01*
Y1097954D01*
Y1098101D01*
Y1098248D01*
Y1098394D01*
Y1098541D01*
Y1098687D01*
Y1098834D01*
Y1098981D01*
Y1099127D01*
Y1099274D01*
Y1099420D01*
Y1099567D01*
Y1099714D01*
Y1099860D01*
Y1100007D01*
Y1100153D01*
Y1100300D01*
Y1100447D01*
Y1100593D01*
Y1100740D01*
X723116D01*
Y1100593D01*
D02*
G37*
G36*
X685143D02*
Y1100447D01*
Y1100300D01*
Y1100153D01*
Y1100007D01*
Y1099860D01*
Y1099714D01*
Y1099567D01*
Y1099420D01*
Y1099274D01*
Y1099127D01*
Y1098981D01*
Y1098834D01*
Y1098687D01*
Y1098541D01*
Y1098394D01*
Y1098248D01*
Y1098101D01*
Y1097954D01*
Y1097808D01*
Y1097661D01*
Y1097515D01*
Y1097368D01*
Y1097221D01*
Y1097075D01*
Y1096928D01*
Y1096782D01*
Y1096635D01*
Y1096488D01*
Y1096342D01*
Y1096195D01*
Y1096048D01*
Y1095902D01*
Y1095755D01*
Y1095609D01*
Y1095462D01*
Y1095315D01*
Y1095169D01*
Y1095022D01*
Y1094876D01*
Y1094729D01*
Y1094582D01*
Y1094436D01*
Y1094289D01*
Y1094142D01*
Y1093996D01*
Y1093849D01*
Y1093703D01*
Y1093556D01*
Y1093409D01*
Y1093263D01*
Y1093116D01*
Y1092970D01*
Y1092823D01*
Y1092676D01*
Y1092530D01*
Y1092383D01*
Y1092236D01*
Y1092090D01*
Y1091943D01*
Y1091797D01*
Y1091650D01*
Y1091503D01*
Y1091357D01*
Y1091210D01*
Y1091064D01*
Y1090917D01*
Y1090770D01*
Y1090624D01*
Y1090477D01*
Y1090331D01*
Y1090184D01*
Y1090037D01*
Y1089891D01*
Y1089744D01*
Y1089598D01*
Y1089451D01*
Y1089304D01*
Y1089158D01*
Y1089011D01*
Y1088864D01*
Y1088718D01*
Y1088571D01*
Y1088425D01*
Y1088278D01*
Y1088131D01*
Y1087985D01*
Y1087838D01*
Y1087691D01*
Y1087545D01*
Y1087398D01*
Y1087252D01*
Y1087105D01*
Y1086958D01*
Y1086812D01*
Y1086665D01*
Y1086519D01*
Y1086372D01*
Y1086225D01*
Y1086079D01*
Y1085932D01*
Y1085786D01*
Y1085639D01*
Y1085492D01*
Y1085346D01*
Y1085199D01*
Y1085053D01*
Y1084906D01*
Y1084759D01*
Y1084613D01*
Y1084466D01*
Y1084320D01*
Y1084173D01*
Y1084026D01*
Y1083880D01*
Y1083733D01*
Y1083586D01*
Y1083440D01*
Y1083293D01*
Y1083147D01*
Y1083000D01*
Y1082853D01*
Y1082707D01*
Y1082560D01*
Y1082414D01*
Y1082267D01*
Y1082120D01*
Y1081974D01*
Y1081827D01*
Y1081680D01*
Y1081534D01*
Y1081387D01*
Y1081241D01*
Y1081094D01*
Y1080947D01*
Y1080801D01*
Y1080654D01*
Y1080507D01*
Y1080361D01*
Y1080214D01*
Y1080068D01*
Y1079921D01*
Y1079774D01*
Y1079628D01*
Y1079481D01*
Y1079335D01*
Y1079188D01*
Y1079042D01*
Y1078895D01*
Y1078748D01*
Y1078602D01*
Y1078455D01*
Y1078308D01*
Y1078162D01*
Y1078015D01*
Y1077869D01*
Y1077722D01*
Y1077575D01*
Y1077429D01*
Y1077282D01*
Y1077136D01*
Y1076989D01*
Y1076842D01*
Y1076696D01*
Y1076549D01*
Y1076402D01*
Y1076256D01*
Y1076109D01*
Y1075963D01*
Y1075816D01*
Y1075669D01*
Y1075523D01*
Y1075376D01*
X677813D01*
Y1075523D01*
Y1075669D01*
Y1075816D01*
Y1075963D01*
Y1076109D01*
Y1076256D01*
Y1076402D01*
Y1076549D01*
Y1076696D01*
Y1076842D01*
Y1076989D01*
Y1077136D01*
Y1077282D01*
Y1077429D01*
Y1077575D01*
Y1077722D01*
Y1077869D01*
Y1078015D01*
Y1078162D01*
Y1078308D01*
Y1078455D01*
Y1078602D01*
Y1078748D01*
Y1078895D01*
Y1079042D01*
Y1079188D01*
Y1079335D01*
Y1079481D01*
Y1079628D01*
Y1079774D01*
Y1079921D01*
Y1080068D01*
Y1080214D01*
Y1080361D01*
Y1080507D01*
Y1080654D01*
Y1080801D01*
Y1080947D01*
Y1081094D01*
Y1081241D01*
Y1081387D01*
Y1081534D01*
Y1081680D01*
Y1081827D01*
Y1081974D01*
Y1082120D01*
Y1082267D01*
Y1082414D01*
Y1082560D01*
Y1082707D01*
Y1082853D01*
Y1083000D01*
Y1083147D01*
Y1083293D01*
Y1083440D01*
Y1083586D01*
Y1083733D01*
Y1083880D01*
Y1084026D01*
Y1084173D01*
Y1084320D01*
Y1084466D01*
Y1084613D01*
Y1084759D01*
Y1084906D01*
Y1085053D01*
Y1085199D01*
Y1085346D01*
Y1085492D01*
Y1085639D01*
Y1085786D01*
Y1085932D01*
Y1086079D01*
Y1086225D01*
Y1086372D01*
Y1086519D01*
Y1086665D01*
Y1086812D01*
Y1086958D01*
Y1087105D01*
Y1087252D01*
Y1087398D01*
Y1087545D01*
Y1087691D01*
Y1087838D01*
Y1087985D01*
Y1088131D01*
Y1088278D01*
Y1088425D01*
Y1088571D01*
Y1088718D01*
Y1088864D01*
Y1089011D01*
Y1089158D01*
Y1089304D01*
Y1089451D01*
Y1089598D01*
Y1089744D01*
Y1089891D01*
Y1090037D01*
Y1090184D01*
Y1090331D01*
Y1090477D01*
Y1090624D01*
Y1090770D01*
Y1090917D01*
Y1091064D01*
Y1091210D01*
Y1091357D01*
Y1091503D01*
Y1091650D01*
Y1091797D01*
Y1091943D01*
Y1092090D01*
Y1092236D01*
Y1092383D01*
Y1092530D01*
Y1092676D01*
Y1092823D01*
Y1092970D01*
Y1093116D01*
Y1093263D01*
Y1093409D01*
Y1093556D01*
Y1093703D01*
Y1093849D01*
Y1093996D01*
Y1094142D01*
Y1094289D01*
Y1094436D01*
Y1094582D01*
Y1094729D01*
Y1094876D01*
Y1095022D01*
Y1095169D01*
Y1095315D01*
Y1095462D01*
Y1095609D01*
Y1095755D01*
Y1095902D01*
Y1096048D01*
Y1096195D01*
Y1096342D01*
Y1096488D01*
Y1096635D01*
Y1096782D01*
Y1096928D01*
Y1097075D01*
Y1097221D01*
Y1097368D01*
Y1097515D01*
Y1097661D01*
Y1097808D01*
Y1097954D01*
Y1098101D01*
Y1098248D01*
Y1098394D01*
Y1098541D01*
Y1098687D01*
Y1098834D01*
Y1098981D01*
Y1099127D01*
Y1099274D01*
Y1099420D01*
Y1099567D01*
Y1099714D01*
Y1099860D01*
Y1100007D01*
Y1100153D01*
Y1100300D01*
Y1100447D01*
Y1100593D01*
Y1100740D01*
X685143D01*
Y1100593D01*
D02*
G37*
G36*
X600108D02*
Y1100447D01*
Y1100300D01*
Y1100153D01*
Y1100007D01*
Y1099860D01*
Y1099714D01*
Y1099567D01*
Y1099420D01*
Y1099274D01*
Y1099127D01*
Y1098981D01*
Y1098834D01*
Y1098687D01*
Y1098541D01*
Y1098394D01*
Y1098248D01*
Y1098101D01*
Y1097954D01*
Y1097808D01*
Y1097661D01*
Y1097515D01*
Y1097368D01*
Y1097221D01*
Y1097075D01*
Y1096928D01*
Y1096782D01*
Y1096635D01*
Y1096488D01*
Y1096342D01*
Y1096195D01*
Y1096048D01*
Y1095902D01*
Y1095755D01*
Y1095609D01*
Y1095462D01*
Y1095315D01*
Y1095169D01*
Y1095022D01*
Y1094876D01*
Y1094729D01*
Y1094582D01*
Y1094436D01*
Y1094289D01*
Y1094142D01*
Y1093996D01*
Y1093849D01*
Y1093703D01*
Y1093556D01*
Y1093409D01*
Y1093263D01*
Y1093116D01*
Y1092970D01*
Y1092823D01*
Y1092676D01*
Y1092530D01*
Y1092383D01*
Y1092236D01*
Y1092090D01*
Y1091943D01*
Y1091797D01*
Y1091650D01*
Y1091503D01*
Y1091357D01*
Y1091210D01*
Y1091064D01*
Y1090917D01*
Y1090770D01*
Y1090624D01*
Y1090477D01*
Y1090331D01*
Y1090184D01*
Y1090037D01*
Y1089891D01*
Y1089744D01*
Y1089598D01*
Y1089451D01*
Y1089304D01*
Y1089158D01*
Y1089011D01*
Y1088864D01*
Y1088718D01*
Y1088571D01*
Y1088425D01*
Y1088278D01*
Y1088131D01*
Y1087985D01*
Y1087838D01*
Y1087691D01*
Y1087545D01*
Y1087398D01*
Y1087252D01*
Y1087105D01*
Y1086958D01*
Y1086812D01*
Y1086665D01*
Y1086519D01*
Y1086372D01*
Y1086225D01*
Y1086079D01*
Y1085932D01*
Y1085786D01*
Y1085639D01*
Y1085492D01*
Y1085346D01*
Y1085199D01*
Y1085053D01*
Y1084906D01*
Y1084759D01*
Y1084613D01*
Y1084466D01*
Y1084320D01*
Y1084173D01*
Y1084026D01*
Y1083880D01*
Y1083733D01*
Y1083586D01*
Y1083440D01*
Y1083293D01*
Y1083147D01*
Y1083000D01*
Y1082853D01*
Y1082707D01*
Y1082560D01*
Y1082414D01*
Y1082267D01*
Y1082120D01*
Y1081974D01*
Y1081827D01*
Y1081680D01*
Y1081534D01*
Y1081387D01*
Y1081241D01*
Y1081094D01*
Y1080947D01*
Y1080801D01*
Y1080654D01*
Y1080507D01*
Y1080361D01*
Y1080214D01*
Y1080068D01*
Y1079921D01*
Y1079774D01*
Y1079628D01*
Y1079481D01*
Y1079335D01*
Y1079188D01*
Y1079042D01*
Y1078895D01*
Y1078748D01*
Y1078602D01*
Y1078455D01*
Y1078308D01*
Y1078162D01*
Y1078015D01*
Y1077869D01*
Y1077722D01*
Y1077575D01*
Y1077429D01*
Y1077282D01*
Y1077136D01*
Y1076989D01*
Y1076842D01*
Y1076696D01*
Y1076549D01*
Y1076402D01*
Y1076256D01*
Y1076109D01*
Y1075963D01*
Y1075816D01*
Y1075669D01*
Y1075523D01*
Y1075376D01*
X597176D01*
Y1075523D01*
Y1075669D01*
Y1075816D01*
Y1075963D01*
Y1076109D01*
Y1076256D01*
Y1076402D01*
Y1076549D01*
Y1076696D01*
Y1076842D01*
Y1076989D01*
Y1077136D01*
Y1077282D01*
Y1077429D01*
Y1077575D01*
Y1077722D01*
Y1077869D01*
Y1078015D01*
Y1078162D01*
Y1078308D01*
Y1078455D01*
Y1078602D01*
Y1078748D01*
Y1078895D01*
Y1079042D01*
Y1079188D01*
Y1079335D01*
Y1079481D01*
Y1079628D01*
Y1079774D01*
Y1079921D01*
Y1080068D01*
Y1080214D01*
Y1080361D01*
Y1080507D01*
Y1080654D01*
Y1080801D01*
Y1080947D01*
Y1081094D01*
Y1081241D01*
Y1081387D01*
Y1081534D01*
Y1081680D01*
Y1081827D01*
Y1081974D01*
Y1082120D01*
Y1082267D01*
Y1082414D01*
Y1082560D01*
Y1082707D01*
Y1082853D01*
Y1083000D01*
Y1083147D01*
Y1083293D01*
Y1083440D01*
Y1083586D01*
Y1083733D01*
Y1083880D01*
Y1084026D01*
Y1084173D01*
Y1084320D01*
Y1084466D01*
Y1084613D01*
Y1084759D01*
Y1084906D01*
Y1085053D01*
Y1085199D01*
Y1085346D01*
Y1085492D01*
Y1085639D01*
Y1085786D01*
Y1085932D01*
Y1086079D01*
Y1086225D01*
Y1086372D01*
Y1086519D01*
Y1086665D01*
Y1086812D01*
Y1086958D01*
Y1087105D01*
Y1087252D01*
Y1087398D01*
Y1087545D01*
Y1087691D01*
Y1087838D01*
Y1087985D01*
Y1088131D01*
Y1088278D01*
Y1088425D01*
Y1088571D01*
Y1088718D01*
Y1088864D01*
Y1089011D01*
Y1089158D01*
Y1089304D01*
Y1089451D01*
Y1089598D01*
Y1089744D01*
Y1089891D01*
Y1090037D01*
Y1090184D01*
Y1090331D01*
Y1090477D01*
Y1090624D01*
Y1090770D01*
Y1090917D01*
Y1091064D01*
Y1091210D01*
Y1091357D01*
Y1091503D01*
Y1091650D01*
Y1091797D01*
Y1091943D01*
Y1092090D01*
Y1092236D01*
Y1092383D01*
Y1092530D01*
Y1092676D01*
Y1092823D01*
Y1092970D01*
Y1093116D01*
Y1093263D01*
Y1093409D01*
Y1093556D01*
Y1093703D01*
Y1093849D01*
Y1093996D01*
Y1094142D01*
Y1094289D01*
Y1094436D01*
Y1094582D01*
Y1094729D01*
Y1094876D01*
Y1095022D01*
Y1095169D01*
Y1095315D01*
Y1095462D01*
Y1095609D01*
Y1095755D01*
Y1095902D01*
Y1096048D01*
Y1096195D01*
Y1096342D01*
Y1096488D01*
Y1096635D01*
Y1096782D01*
Y1096928D01*
Y1097075D01*
Y1097221D01*
Y1097368D01*
Y1097515D01*
Y1097661D01*
Y1097808D01*
Y1097954D01*
Y1098101D01*
Y1098248D01*
Y1098394D01*
Y1098541D01*
Y1098687D01*
Y1098834D01*
Y1098981D01*
Y1099127D01*
Y1099274D01*
Y1099420D01*
Y1099567D01*
Y1099714D01*
Y1099860D01*
Y1100007D01*
Y1100153D01*
Y1100300D01*
Y1100447D01*
Y1100593D01*
Y1100740D01*
X600108D01*
Y1100593D01*
D02*
G37*
G36*
X740562Y1101180D02*
X742029D01*
Y1101033D01*
X742908D01*
Y1100887D01*
X743495D01*
Y1100740D01*
X744081D01*
Y1100593D01*
X744511D01*
Y1100447D01*
X744814D01*
Y1100300D01*
X745244D01*
Y1100153D01*
X745547D01*
Y1100007D01*
X745831D01*
Y1099860D01*
X746134D01*
Y1099714D01*
X746271D01*
Y1099567D01*
X746564D01*
Y1099420D01*
X746867D01*
Y1099274D01*
X747014D01*
Y1099127D01*
X747297D01*
Y1098981D01*
X747444D01*
Y1098834D01*
X747600D01*
Y1098687D01*
X747746D01*
Y1098541D01*
X748030D01*
Y1098394D01*
X748177D01*
Y1098248D01*
X748333D01*
Y1098101D01*
X748480D01*
Y1097954D01*
X748626D01*
Y1097808D01*
X748763D01*
Y1097661D01*
X748910D01*
Y1097515D01*
X749066D01*
Y1097368D01*
X749203D01*
Y1097221D01*
X749213D01*
Y1097075D01*
X749359D01*
Y1096928D01*
X749496D01*
Y1096782D01*
X749643D01*
Y1096635D01*
X749789D01*
Y1096488D01*
X749799D01*
Y1096342D01*
X749946D01*
Y1096195D01*
X750082D01*
Y1096048D01*
Y1095902D01*
X750229D01*
Y1095755D01*
X750239D01*
Y1095609D01*
X750386D01*
Y1095462D01*
X750522D01*
Y1095315D01*
Y1095169D01*
X750669D01*
Y1095022D01*
Y1094876D01*
X750816D01*
Y1094729D01*
Y1094582D01*
X750962D01*
Y1094436D01*
Y1094289D01*
X750972D01*
Y1094142D01*
X751109D01*
Y1093996D01*
Y1093849D01*
X751265D01*
Y1093703D01*
Y1093556D01*
Y1093409D01*
X751402D01*
Y1093263D01*
Y1093116D01*
Y1092970D01*
X751558D01*
Y1092823D01*
X751549D01*
Y1092676D01*
Y1092530D01*
X751705D01*
Y1092383D01*
Y1092236D01*
Y1092090D01*
X751695D01*
Y1091943D01*
X751852D01*
Y1091797D01*
Y1091650D01*
Y1091503D01*
Y1091357D01*
Y1091210D01*
X751998D01*
Y1091064D01*
Y1090917D01*
X751989D01*
Y1090770D01*
Y1090624D01*
Y1090477D01*
Y1090331D01*
X752145D01*
Y1090184D01*
Y1090037D01*
Y1089891D01*
Y1089744D01*
Y1089598D01*
Y1089451D01*
Y1089304D01*
Y1089158D01*
Y1089011D01*
Y1088864D01*
Y1088718D01*
Y1088571D01*
Y1088425D01*
X752282D01*
Y1088278D01*
Y1088131D01*
Y1087985D01*
Y1087838D01*
Y1087691D01*
Y1087545D01*
X752145D01*
Y1087398D01*
Y1087252D01*
Y1087105D01*
Y1086958D01*
Y1086812D01*
Y1086665D01*
Y1086519D01*
Y1086372D01*
Y1086225D01*
Y1086079D01*
Y1085932D01*
Y1085786D01*
X751989D01*
Y1085639D01*
Y1085492D01*
Y1085346D01*
Y1085199D01*
X751998D01*
Y1085053D01*
Y1084906D01*
X751852D01*
Y1084759D01*
Y1084613D01*
Y1084466D01*
Y1084320D01*
Y1084173D01*
X751705D01*
Y1084026D01*
Y1083880D01*
Y1083733D01*
X751549D01*
Y1083586D01*
Y1083440D01*
X751558D01*
Y1083293D01*
Y1083147D01*
X751402D01*
Y1083000D01*
Y1082853D01*
Y1082707D01*
X751265D01*
Y1082560D01*
Y1082414D01*
X751109D01*
Y1082267D01*
Y1082120D01*
X751119D01*
Y1081974D01*
X750962D01*
Y1081827D01*
X750972D01*
Y1081680D01*
X750816D01*
Y1081534D01*
X750825D01*
Y1081387D01*
X750669D01*
Y1081241D01*
Y1081094D01*
X750522D01*
Y1080947D01*
X750532D01*
Y1080801D01*
X750386D01*
Y1080654D01*
X750239D01*
Y1080507D01*
X750229D01*
Y1080361D01*
X750082D01*
Y1080214D01*
Y1080068D01*
X749936D01*
Y1079921D01*
X749789D01*
Y1079774D01*
X749643D01*
Y1079628D01*
X749653D01*
Y1079481D01*
X749496D01*
Y1079335D01*
X749359D01*
Y1079188D01*
X749213D01*
Y1079042D01*
X749203D01*
Y1078895D01*
X749066D01*
Y1078748D01*
X748910D01*
Y1078602D01*
X748763D01*
Y1078455D01*
X748626D01*
Y1078308D01*
X748480D01*
Y1078162D01*
X748333D01*
Y1078015D01*
X748177D01*
Y1077869D01*
X748030D01*
Y1077722D01*
X747737D01*
Y1077575D01*
X747590D01*
Y1077429D01*
X747444D01*
Y1077282D01*
X747297D01*
Y1077136D01*
X747004D01*
Y1076989D01*
X746857D01*
Y1076842D01*
X746574D01*
Y1076696D01*
X746427D01*
Y1076549D01*
X746124D01*
Y1076402D01*
X745841D01*
Y1076256D01*
X745538D01*
Y1076109D01*
X745254D01*
Y1075963D01*
X744961D01*
Y1075816D01*
X744511D01*
Y1075669D01*
X744072D01*
Y1075523D01*
X743632D01*
Y1075376D01*
X743202D01*
Y1075230D01*
X742468D01*
Y1075083D01*
X741432D01*
Y1074936D01*
X738363D01*
Y1075083D01*
X737337D01*
Y1075230D01*
X736604D01*
Y1075376D01*
X736164D01*
Y1075523D01*
X735724D01*
Y1075669D01*
X735284D01*
Y1075816D01*
X734991D01*
Y1075963D01*
X734698D01*
Y1076109D01*
X734405D01*
Y1076256D01*
X734112D01*
Y1076402D01*
X733818D01*
Y1076549D01*
X733525D01*
Y1076696D01*
X733379D01*
Y1076842D01*
X733085D01*
Y1076989D01*
X732939D01*
Y1077136D01*
X732792D01*
Y1077282D01*
X732645D01*
Y1077429D01*
X732352D01*
Y1077575D01*
X732206D01*
Y1077722D01*
X732059D01*
Y1077869D01*
X731912D01*
Y1078015D01*
X731766D01*
Y1078162D01*
X731619D01*
Y1078308D01*
X731473D01*
Y1078455D01*
X731326D01*
Y1078602D01*
X731179D01*
Y1078748D01*
X731033D01*
Y1078895D01*
Y1079042D01*
X730886D01*
Y1079188D01*
X730740D01*
Y1079335D01*
X730593D01*
Y1079481D01*
Y1079628D01*
X730446D01*
Y1079774D01*
X730300D01*
Y1079921D01*
X730153D01*
Y1080068D01*
Y1080214D01*
X730006D01*
Y1080361D01*
Y1080507D01*
X729860D01*
Y1080654D01*
X729713D01*
Y1080801D01*
Y1080947D01*
X729567D01*
Y1081094D01*
Y1081241D01*
X729420D01*
Y1081387D01*
Y1081534D01*
X729273D01*
Y1081680D01*
Y1081827D01*
X729127D01*
Y1081974D01*
Y1082120D01*
Y1082267D01*
X728980D01*
Y1082414D01*
Y1082560D01*
X728834D01*
Y1082707D01*
Y1082853D01*
Y1083000D01*
X728687D01*
Y1083147D01*
Y1083293D01*
Y1083440D01*
X728540D01*
Y1083586D01*
Y1083733D01*
Y1083880D01*
Y1084026D01*
X728394D01*
Y1084173D01*
Y1084320D01*
Y1084466D01*
Y1084613D01*
X728247D01*
Y1084759D01*
Y1084906D01*
Y1085053D01*
Y1085199D01*
Y1085346D01*
Y1085492D01*
X728101D01*
Y1085639D01*
Y1085786D01*
Y1085932D01*
Y1086079D01*
Y1086225D01*
Y1086372D01*
Y1086519D01*
Y1086665D01*
Y1086812D01*
Y1086958D01*
Y1087105D01*
X727954D01*
Y1087252D01*
Y1087398D01*
Y1087545D01*
Y1087691D01*
Y1087838D01*
Y1087985D01*
Y1088131D01*
Y1088278D01*
Y1088425D01*
Y1088571D01*
Y1088718D01*
Y1088864D01*
Y1089011D01*
Y1089158D01*
Y1089304D01*
X728101D01*
Y1089451D01*
Y1089598D01*
Y1089744D01*
Y1089891D01*
Y1090037D01*
Y1090184D01*
Y1090331D01*
Y1090477D01*
Y1090624D01*
Y1090770D01*
X728247D01*
Y1090917D01*
Y1091064D01*
Y1091210D01*
Y1091357D01*
Y1091503D01*
Y1091650D01*
X728394D01*
Y1091797D01*
Y1091943D01*
Y1092090D01*
Y1092236D01*
X728540D01*
Y1092383D01*
Y1092530D01*
Y1092676D01*
Y1092823D01*
X728687D01*
Y1092970D01*
Y1093116D01*
Y1093263D01*
X728834D01*
Y1093409D01*
Y1093556D01*
Y1093703D01*
X728980D01*
Y1093849D01*
Y1093996D01*
X729127D01*
Y1094142D01*
Y1094289D01*
Y1094436D01*
X729273D01*
Y1094582D01*
Y1094729D01*
X729420D01*
Y1094876D01*
Y1095022D01*
X729567D01*
Y1095169D01*
Y1095315D01*
X729713D01*
Y1095462D01*
Y1095609D01*
X729860D01*
Y1095755D01*
Y1095902D01*
X730006D01*
Y1096048D01*
X730153D01*
Y1096195D01*
Y1096342D01*
X730300D01*
Y1096488D01*
X730446D01*
Y1096635D01*
Y1096782D01*
X730593D01*
Y1096928D01*
X730740D01*
Y1097075D01*
X730886D01*
Y1097221D01*
X731033D01*
Y1097368D01*
Y1097515D01*
X731179D01*
Y1097661D01*
X731326D01*
Y1097808D01*
X731473D01*
Y1097954D01*
X731619D01*
Y1098101D01*
X731766D01*
Y1098248D01*
X731912D01*
Y1098394D01*
X732059D01*
Y1098541D01*
X732352D01*
Y1098687D01*
X732499D01*
Y1098834D01*
X732645D01*
Y1098981D01*
X732792D01*
Y1099127D01*
X733085D01*
Y1099274D01*
X733232D01*
Y1099420D01*
X733525D01*
Y1099567D01*
X733672D01*
Y1099714D01*
X733965D01*
Y1099860D01*
X734258D01*
Y1100007D01*
X734552D01*
Y1100153D01*
X734845D01*
Y1100300D01*
X735284D01*
Y1100447D01*
X735578D01*
Y1100593D01*
X736018D01*
Y1100740D01*
X736457D01*
Y1100887D01*
X737044D01*
Y1101033D01*
X737923D01*
Y1101180D01*
X739390D01*
Y1101326D01*
X740562D01*
Y1101180D01*
D02*
G37*
G36*
X585301Y1107191D02*
Y1107044D01*
X585291D01*
Y1106898D01*
Y1106751D01*
Y1106604D01*
Y1106458D01*
Y1106311D01*
Y1106165D01*
Y1106018D01*
Y1105871D01*
Y1105725D01*
Y1105578D01*
Y1105432D01*
Y1105285D01*
Y1105138D01*
Y1104992D01*
Y1104845D01*
Y1104698D01*
Y1104552D01*
Y1104405D01*
Y1104259D01*
Y1104112D01*
Y1103965D01*
Y1103819D01*
Y1103672D01*
Y1103526D01*
Y1103379D01*
Y1103232D01*
Y1103086D01*
Y1102939D01*
Y1102793D01*
Y1102646D01*
Y1102499D01*
Y1102353D01*
Y1102206D01*
Y1102060D01*
Y1101913D01*
Y1101766D01*
Y1101620D01*
Y1101473D01*
Y1101326D01*
Y1101180D01*
Y1101033D01*
Y1100887D01*
Y1100740D01*
X591302D01*
Y1100593D01*
Y1100447D01*
Y1100300D01*
Y1100153D01*
Y1100007D01*
Y1099860D01*
Y1099714D01*
Y1099567D01*
Y1099420D01*
Y1099274D01*
Y1099127D01*
Y1098981D01*
Y1098834D01*
Y1098687D01*
Y1098541D01*
Y1098394D01*
X585301D01*
Y1098248D01*
Y1098101D01*
Y1097954D01*
Y1097808D01*
Y1097661D01*
Y1097515D01*
Y1097368D01*
Y1097221D01*
Y1097075D01*
Y1096928D01*
Y1096782D01*
Y1096635D01*
Y1096488D01*
Y1096342D01*
Y1096195D01*
Y1096048D01*
Y1095902D01*
Y1095755D01*
Y1095609D01*
Y1095462D01*
Y1095315D01*
Y1095169D01*
Y1095022D01*
Y1094876D01*
Y1094729D01*
Y1094582D01*
Y1094436D01*
Y1094289D01*
Y1094142D01*
Y1093996D01*
Y1093849D01*
Y1093703D01*
Y1093556D01*
Y1093409D01*
Y1093263D01*
Y1093116D01*
Y1092970D01*
Y1092823D01*
Y1092676D01*
Y1092530D01*
Y1092383D01*
Y1092236D01*
Y1092090D01*
Y1091943D01*
Y1091797D01*
Y1091650D01*
Y1091503D01*
Y1091357D01*
Y1091210D01*
Y1091064D01*
Y1090917D01*
Y1090770D01*
Y1090624D01*
Y1090477D01*
Y1090331D01*
Y1090184D01*
Y1090037D01*
Y1089891D01*
Y1089744D01*
Y1089598D01*
Y1089451D01*
Y1089304D01*
Y1089158D01*
Y1089011D01*
Y1088864D01*
Y1088718D01*
Y1088571D01*
Y1088425D01*
Y1088278D01*
Y1088131D01*
Y1087985D01*
Y1087838D01*
Y1087691D01*
Y1087545D01*
Y1087398D01*
Y1087252D01*
Y1087105D01*
Y1086958D01*
Y1086812D01*
Y1086665D01*
Y1086519D01*
Y1086372D01*
Y1086225D01*
Y1086079D01*
Y1085932D01*
Y1085786D01*
Y1085639D01*
Y1085492D01*
Y1085346D01*
Y1085199D01*
Y1085053D01*
Y1084906D01*
Y1084759D01*
Y1084613D01*
Y1084466D01*
Y1084320D01*
Y1084173D01*
Y1084026D01*
Y1083880D01*
Y1083733D01*
Y1083586D01*
Y1083440D01*
Y1083293D01*
Y1083147D01*
Y1083000D01*
Y1082853D01*
Y1082707D01*
Y1082560D01*
Y1082414D01*
Y1082267D01*
Y1082120D01*
Y1081974D01*
Y1081827D01*
Y1081680D01*
Y1081534D01*
Y1081387D01*
X585438D01*
Y1081241D01*
Y1081094D01*
X585447D01*
Y1080947D01*
Y1080801D01*
Y1080654D01*
Y1080507D01*
Y1080361D01*
Y1080214D01*
X585594D01*
Y1080068D01*
Y1079921D01*
Y1079774D01*
Y1079628D01*
X585731D01*
Y1079481D01*
Y1079335D01*
X585740D01*
Y1079188D01*
X585877D01*
Y1079042D01*
Y1078895D01*
X586024D01*
Y1078748D01*
Y1078602D01*
X586180D01*
Y1078455D01*
X586317D01*
Y1078308D01*
X586474D01*
Y1078162D01*
X586620D01*
Y1078015D01*
X586757D01*
Y1077869D01*
X586913D01*
Y1077722D01*
X587197D01*
Y1077575D01*
X587500D01*
Y1077429D01*
X587783D01*
Y1077282D01*
X588380D01*
Y1077136D01*
X592191D01*
Y1077282D01*
X592924D01*
Y1077136D01*
X592915D01*
Y1076989D01*
Y1076842D01*
X592924D01*
Y1076696D01*
Y1076549D01*
X592915D01*
Y1076402D01*
X592924D01*
Y1076256D01*
X592915D01*
Y1076109D01*
X592924D01*
Y1075963D01*
Y1075816D01*
Y1075669D01*
X592915D01*
Y1075523D01*
X592924D01*
Y1075376D01*
Y1075230D01*
Y1075083D01*
X592915D01*
Y1074936D01*
X592045D01*
Y1074790D01*
X590579D01*
Y1074643D01*
X588380D01*
Y1074790D01*
X587353D01*
Y1074936D01*
X586767D01*
Y1075083D01*
X586327D01*
Y1075230D01*
X585887D01*
Y1075376D01*
X585594D01*
Y1075523D01*
X585301D01*
Y1075669D01*
X585154D01*
Y1075816D01*
X584861D01*
Y1075963D01*
X584714D01*
Y1076109D01*
X584568D01*
Y1076256D01*
X584421D01*
Y1076402D01*
X584274D01*
Y1076549D01*
X584128D01*
Y1076696D01*
X583981D01*
Y1076842D01*
X583835D01*
Y1076989D01*
Y1077136D01*
X583688D01*
Y1077282D01*
X583541D01*
Y1077429D01*
Y1077575D01*
X583395D01*
Y1077722D01*
Y1077869D01*
X583248D01*
Y1078015D01*
Y1078162D01*
X583101D01*
Y1078308D01*
Y1078455D01*
X582945D01*
Y1078602D01*
Y1078748D01*
Y1078895D01*
X582808D01*
Y1079042D01*
Y1079188D01*
Y1079335D01*
X582662D01*
Y1079481D01*
Y1079628D01*
Y1079774D01*
Y1079921D01*
Y1080068D01*
X582515D01*
Y1080214D01*
Y1080361D01*
Y1080507D01*
Y1080654D01*
Y1080801D01*
Y1080947D01*
Y1081094D01*
X582368D01*
Y1081241D01*
Y1081387D01*
Y1081534D01*
Y1081680D01*
Y1081827D01*
Y1081974D01*
Y1082120D01*
Y1082267D01*
Y1082414D01*
Y1082560D01*
Y1082707D01*
Y1082853D01*
Y1083000D01*
Y1083147D01*
Y1083293D01*
Y1083440D01*
Y1083586D01*
Y1083733D01*
Y1083880D01*
Y1084026D01*
Y1084173D01*
Y1084320D01*
Y1084466D01*
Y1084613D01*
Y1084759D01*
Y1084906D01*
Y1085053D01*
Y1085199D01*
Y1085346D01*
Y1085492D01*
Y1085639D01*
Y1085786D01*
Y1085932D01*
Y1086079D01*
Y1086225D01*
Y1086372D01*
Y1086519D01*
Y1086665D01*
Y1086812D01*
Y1086958D01*
Y1087105D01*
Y1087252D01*
Y1087398D01*
Y1087545D01*
Y1087691D01*
Y1087838D01*
Y1087985D01*
Y1088131D01*
Y1088278D01*
Y1088425D01*
Y1088571D01*
Y1088718D01*
Y1088864D01*
Y1089011D01*
Y1089158D01*
Y1089304D01*
Y1089451D01*
Y1089598D01*
Y1089744D01*
Y1089891D01*
Y1090037D01*
Y1090184D01*
Y1090331D01*
Y1090477D01*
Y1090624D01*
Y1090770D01*
Y1090917D01*
Y1091064D01*
Y1091210D01*
Y1091357D01*
Y1091503D01*
Y1091650D01*
Y1091797D01*
Y1091943D01*
Y1092090D01*
Y1092236D01*
Y1092383D01*
Y1092530D01*
Y1092676D01*
Y1092823D01*
Y1092970D01*
Y1093116D01*
Y1093263D01*
Y1093409D01*
Y1093556D01*
Y1093703D01*
Y1093849D01*
Y1093996D01*
Y1094142D01*
Y1094289D01*
Y1094436D01*
Y1094582D01*
Y1094729D01*
Y1094876D01*
Y1095022D01*
Y1095169D01*
Y1095315D01*
Y1095462D01*
Y1095609D01*
Y1095755D01*
Y1095902D01*
Y1096048D01*
Y1096195D01*
Y1096342D01*
Y1096488D01*
Y1096635D01*
Y1096782D01*
Y1096928D01*
Y1097075D01*
Y1097221D01*
Y1097368D01*
Y1097515D01*
Y1097661D01*
Y1097808D01*
Y1097954D01*
Y1098101D01*
Y1098248D01*
Y1098394D01*
X577237D01*
Y1098541D01*
Y1098687D01*
Y1098834D01*
Y1098981D01*
Y1099127D01*
Y1099274D01*
Y1099420D01*
Y1099567D01*
Y1099714D01*
Y1099860D01*
Y1100007D01*
Y1100153D01*
Y1100300D01*
Y1100447D01*
Y1100593D01*
Y1100740D01*
X582212D01*
Y1100887D01*
Y1101033D01*
Y1101180D01*
Y1101326D01*
Y1101473D01*
Y1101620D01*
Y1101766D01*
Y1101913D01*
Y1102060D01*
Y1102206D01*
Y1102353D01*
Y1102499D01*
Y1102646D01*
Y1102793D01*
Y1102939D01*
Y1103086D01*
Y1103232D01*
Y1103379D01*
Y1103526D01*
Y1103672D01*
Y1103819D01*
Y1103965D01*
Y1104112D01*
Y1104259D01*
Y1104405D01*
Y1104552D01*
Y1104698D01*
Y1104845D01*
Y1104992D01*
Y1105138D01*
Y1105285D01*
Y1105432D01*
Y1105578D01*
Y1105725D01*
Y1105871D01*
Y1106018D01*
Y1106165D01*
Y1106311D01*
Y1106458D01*
Y1106604D01*
Y1106751D01*
Y1106898D01*
Y1107044D01*
X583101D01*
Y1107191D01*
X584568D01*
Y1107338D01*
X585301D01*
Y1107191D01*
D02*
G37*
G36*
X525071Y982087D02*
X515071D01*
X520071Y994087D01*
X525071Y982087D01*
D02*
G37*
G36*
X640100Y522878D02*
X621100Y534878D01*
X630100Y542878D01*
X640100Y522878D01*
D02*
G37*
G36*
Y383273D02*
X621100Y395273D01*
X630100Y403273D01*
X640100Y383273D01*
D02*
G37*
G36*
X741585Y646380D02*
X608523D01*
Y709364D01*
X741585D01*
Y646380D01*
D02*
G37*
G36*
X356848Y1173617D02*
X357449Y1173525D01*
X358188Y1173386D01*
X359020Y1173155D01*
X359851Y1172878D01*
X360683Y1172508D01*
X360729D01*
X360775Y1172462D01*
X361052Y1172324D01*
X361468Y1172046D01*
X361930Y1171723D01*
X362485Y1171261D01*
X363039Y1170753D01*
X363593Y1170152D01*
X364055Y1169459D01*
X364102Y1169367D01*
X364240Y1169136D01*
X364425Y1168720D01*
X364656Y1168212D01*
X364887Y1167611D01*
X365072Y1166918D01*
X365210Y1166133D01*
X365257Y1165347D01*
Y1165255D01*
Y1164978D01*
X365210Y1164608D01*
X365118Y1164100D01*
X364979Y1163499D01*
X364748Y1162853D01*
X364471Y1162206D01*
X364102Y1161559D01*
X364055Y1161467D01*
X363917Y1161282D01*
X363640Y1160958D01*
X363270Y1160589D01*
X362808Y1160173D01*
X362254Y1159711D01*
X361607Y1159295D01*
X360821Y1158879D01*
X360868D01*
X360960Y1158833D01*
X361099Y1158787D01*
X361283Y1158741D01*
X361792Y1158556D01*
X362438Y1158279D01*
X363178Y1157909D01*
X363917Y1157447D01*
X364610Y1156847D01*
X365257Y1156154D01*
X365303Y1156061D01*
X365488Y1155784D01*
X365765Y1155322D01*
X366042Y1154721D01*
X366319Y1153982D01*
X366596Y1153104D01*
X366781Y1152088D01*
X366827Y1150979D01*
Y1150933D01*
Y1150794D01*
Y1150563D01*
X366781Y1150286D01*
X366735Y1149917D01*
X366643Y1149501D01*
X366550Y1149039D01*
X366458Y1148531D01*
X366088Y1147422D01*
X365811Y1146821D01*
X365534Y1146267D01*
X365164Y1145666D01*
X364748Y1145066D01*
X364286Y1144465D01*
X363732Y1143911D01*
X363686Y1143864D01*
X363593Y1143772D01*
X363409Y1143633D01*
X363178Y1143449D01*
X362900Y1143218D01*
X362531Y1142987D01*
X362115Y1142709D01*
X361607Y1142478D01*
X361099Y1142201D01*
X360498Y1141924D01*
X359897Y1141693D01*
X359204Y1141462D01*
X358465Y1141277D01*
X357680Y1141139D01*
X356894Y1141046D01*
X356017Y1141000D01*
X355601D01*
X355324Y1141046D01*
X354954Y1141092D01*
X354538Y1141139D01*
X354076Y1141231D01*
X353568Y1141323D01*
X352459Y1141601D01*
X351304Y1142063D01*
X350704Y1142340D01*
X350149Y1142663D01*
X349595Y1143079D01*
X349040Y1143495D01*
X348994Y1143541D01*
X348902Y1143633D01*
X348763Y1143772D01*
X348625Y1143957D01*
X348394Y1144188D01*
X348163Y1144511D01*
X347885Y1144835D01*
X347608Y1145250D01*
X347331Y1145712D01*
X347054Y1146174D01*
X346546Y1147283D01*
X346130Y1148577D01*
X345991Y1149270D01*
X345899Y1150009D01*
X349826Y1150517D01*
Y1150471D01*
X349872Y1150379D01*
X349918Y1150194D01*
X349964Y1149963D01*
X350011Y1149686D01*
X350103Y1149362D01*
X350334Y1148669D01*
X350657Y1147838D01*
X351073Y1147052D01*
X351535Y1146313D01*
X352090Y1145666D01*
X352182Y1145620D01*
X352367Y1145435D01*
X352736Y1145204D01*
X353198Y1144973D01*
X353753Y1144696D01*
X354446Y1144465D01*
X355231Y1144280D01*
X356063Y1144234D01*
X356340D01*
X356525Y1144280D01*
X357033Y1144326D01*
X357680Y1144465D01*
X358419Y1144696D01*
X359204Y1145019D01*
X359990Y1145481D01*
X360729Y1146128D01*
X360821Y1146221D01*
X361052Y1146498D01*
X361330Y1146914D01*
X361699Y1147468D01*
X362069Y1148161D01*
X362346Y1148946D01*
X362577Y1149870D01*
X362669Y1150887D01*
Y1150933D01*
Y1151025D01*
Y1151164D01*
X362623Y1151349D01*
X362577Y1151857D01*
X362438Y1152458D01*
X362254Y1153197D01*
X361930Y1153936D01*
X361468Y1154675D01*
X360868Y1155368D01*
X360775Y1155461D01*
X360544Y1155645D01*
X360175Y1155923D01*
X359666Y1156246D01*
X359020Y1156569D01*
X358234Y1156847D01*
X357356Y1157031D01*
X356386Y1157124D01*
X355970D01*
X355647Y1157078D01*
X355231Y1157031D01*
X354769Y1156939D01*
X354215Y1156847D01*
X353614Y1156708D01*
X354076Y1160173D01*
X354307D01*
X354492Y1160127D01*
X355093D01*
X355601Y1160219D01*
X356201Y1160312D01*
X356894Y1160450D01*
X357680Y1160681D01*
X358419Y1161005D01*
X359204Y1161420D01*
X359251D01*
X359297Y1161467D01*
X359528Y1161651D01*
X359851Y1161975D01*
X360221Y1162391D01*
X360590Y1162991D01*
X360914Y1163684D01*
X361145Y1164470D01*
X361237Y1164932D01*
Y1165440D01*
Y1165486D01*
Y1165532D01*
Y1165809D01*
X361145Y1166179D01*
X361052Y1166687D01*
X360868Y1167242D01*
X360637Y1167842D01*
X360267Y1168443D01*
X359759Y1168997D01*
X359713Y1169043D01*
X359482Y1169228D01*
X359158Y1169459D01*
X358742Y1169736D01*
X358188Y1169967D01*
X357541Y1170198D01*
X356802Y1170383D01*
X355970Y1170429D01*
X355601D01*
X355185Y1170337D01*
X354631Y1170245D01*
X354030Y1170060D01*
X353429Y1169829D01*
X352783Y1169459D01*
X352182Y1168997D01*
X352136Y1168951D01*
X351951Y1168720D01*
X351674Y1168397D01*
X351350Y1167935D01*
X351027Y1167334D01*
X350704Y1166595D01*
X350426Y1165717D01*
X350242Y1164701D01*
X346315Y1165394D01*
Y1165440D01*
X346361Y1165578D01*
X346407Y1165763D01*
X346453Y1166040D01*
X346546Y1166364D01*
X346684Y1166733D01*
X346961Y1167611D01*
X347423Y1168628D01*
X347978Y1169644D01*
X348671Y1170614D01*
X349549Y1171492D01*
X349595Y1171538D01*
X349687Y1171584D01*
X349826Y1171677D01*
X350011Y1171815D01*
X350242Y1172000D01*
X350565Y1172185D01*
X350888Y1172370D01*
X351304Y1172601D01*
X352228Y1172970D01*
X353291Y1173340D01*
X354538Y1173571D01*
X355185Y1173663D01*
X356340D01*
X356848Y1173617D01*
D02*
G37*
G36*
X335781Y1141554D02*
X331854D01*
Y1166549D01*
X331808Y1166502D01*
X331577Y1166318D01*
X331300Y1166040D01*
X330838Y1165717D01*
X330329Y1165301D01*
X329683Y1164839D01*
X328943Y1164331D01*
X328112Y1163823D01*
X328066D01*
X328019Y1163777D01*
X327742Y1163592D01*
X327280Y1163361D01*
X326726Y1163084D01*
X326079Y1162760D01*
X325386Y1162437D01*
X324693Y1162113D01*
X324000Y1161836D01*
Y1165625D01*
X324046D01*
X324139Y1165717D01*
X324323Y1165763D01*
X324554Y1165902D01*
X324832Y1166040D01*
X325155Y1166225D01*
X325940Y1166687D01*
X326864Y1167195D01*
X327788Y1167842D01*
X328759Y1168581D01*
X329729Y1169367D01*
X329775Y1169413D01*
X329821Y1169459D01*
X329960Y1169598D01*
X330145Y1169736D01*
X330560Y1170198D01*
X331115Y1170753D01*
X331669Y1171400D01*
X332270Y1172139D01*
X332778Y1172878D01*
X333240Y1173663D01*
X335781D01*
Y1141554D01*
D02*
G37*
G36*
X538903Y1158273D02*
X543246D01*
Y1154669D01*
X538903D01*
Y1147000D01*
X534976D01*
Y1154669D01*
X521070D01*
Y1158273D01*
X535716Y1178970D01*
X538903D01*
Y1158273D01*
D02*
G37*
G36*
X508920Y1179063D02*
X509289Y1179017D01*
X509751Y1178970D01*
X510259Y1178878D01*
X510768Y1178786D01*
X511969Y1178462D01*
X513170Y1178000D01*
X513771Y1177723D01*
X514371Y1177400D01*
X514926Y1176984D01*
X515434Y1176522D01*
X515480Y1176476D01*
X515572Y1176429D01*
X515665Y1176245D01*
X515850Y1176060D01*
X516081Y1175829D01*
X516312Y1175505D01*
X516543Y1175182D01*
X516820Y1174766D01*
X517282Y1173888D01*
X517744Y1172780D01*
X517929Y1172225D01*
X518021Y1171578D01*
X518113Y1170932D01*
X518160Y1170239D01*
Y1170146D01*
Y1169915D01*
X518113Y1169546D01*
X518067Y1169037D01*
X517975Y1168483D01*
X517790Y1167836D01*
X517605Y1167143D01*
X517328Y1166450D01*
X517282Y1166358D01*
X517189Y1166127D01*
X517005Y1165757D01*
X516727Y1165249D01*
X516358Y1164695D01*
X515896Y1164002D01*
X515341Y1163309D01*
X514695Y1162523D01*
X514602Y1162431D01*
X514371Y1162154D01*
X514140Y1161923D01*
X513909Y1161692D01*
X513632Y1161414D01*
X513262Y1161045D01*
X512893Y1160675D01*
X512431Y1160259D01*
X511969Y1159797D01*
X511414Y1159289D01*
X510814Y1158781D01*
X510167Y1158180D01*
X509428Y1157580D01*
X508689Y1156933D01*
X508642Y1156887D01*
X508550Y1156794D01*
X508365Y1156656D01*
X508134Y1156471D01*
X507857Y1156194D01*
X507534Y1155917D01*
X506794Y1155316D01*
X506009Y1154623D01*
X505270Y1153930D01*
X504623Y1153329D01*
X504346Y1153098D01*
X504115Y1152867D01*
X504069Y1152821D01*
X503930Y1152683D01*
X503745Y1152498D01*
X503514Y1152221D01*
X503283Y1151897D01*
X503006Y1151574D01*
X502452Y1150788D01*
X518206D01*
Y1147000D01*
X497000D01*
Y1147046D01*
Y1147231D01*
Y1147508D01*
X497046Y1147878D01*
X497092Y1148294D01*
X497185Y1148756D01*
X497277Y1149218D01*
X497462Y1149726D01*
Y1149772D01*
X497508Y1149818D01*
X497601Y1150095D01*
X497785Y1150511D01*
X498063Y1151066D01*
X498432Y1151712D01*
X498894Y1152452D01*
X499402Y1153191D01*
X500049Y1153976D01*
Y1154022D01*
X500142Y1154069D01*
X500373Y1154346D01*
X500788Y1154762D01*
X501389Y1155362D01*
X502082Y1156055D01*
X502960Y1156887D01*
X504022Y1157811D01*
X505177Y1158781D01*
X505224Y1158827D01*
X505408Y1158966D01*
X505686Y1159197D01*
X506009Y1159474D01*
X506425Y1159844D01*
X506933Y1160259D01*
X507441Y1160721D01*
X508042Y1161230D01*
X509197Y1162338D01*
X510352Y1163447D01*
X510906Y1164002D01*
X511414Y1164556D01*
X511876Y1165064D01*
X512246Y1165572D01*
Y1165619D01*
X512338Y1165665D01*
X512431Y1165803D01*
X512523Y1165988D01*
X512847Y1166496D01*
X513216Y1167097D01*
X513540Y1167836D01*
X513863Y1168622D01*
X514048Y1169499D01*
X514140Y1170331D01*
Y1170377D01*
Y1170423D01*
X514094Y1170701D01*
X514048Y1171163D01*
X513909Y1171671D01*
X513724Y1172318D01*
X513401Y1172964D01*
X512985Y1173611D01*
X512431Y1174258D01*
X512338Y1174350D01*
X512107Y1174535D01*
X511784Y1174766D01*
X511276Y1175090D01*
X510629Y1175367D01*
X509890Y1175644D01*
X509012Y1175829D01*
X508042Y1175875D01*
X507765D01*
X507580Y1175829D01*
X507025Y1175783D01*
X506379Y1175644D01*
X505686Y1175459D01*
X504900Y1175136D01*
X504161Y1174720D01*
X503468Y1174166D01*
X503376Y1174073D01*
X503191Y1173842D01*
X502914Y1173473D01*
X502636Y1172918D01*
X502313Y1172271D01*
X502036Y1171440D01*
X501851Y1170516D01*
X501759Y1169453D01*
X497739Y1169869D01*
Y1169915D01*
X497785Y1170054D01*
Y1170285D01*
X497832Y1170608D01*
X497924Y1170978D01*
X498016Y1171394D01*
X498155Y1171902D01*
X498294Y1172410D01*
X498663Y1173519D01*
X499218Y1174628D01*
X499541Y1175182D01*
X499957Y1175736D01*
X500373Y1176245D01*
X500835Y1176707D01*
X500881Y1176753D01*
X500973Y1176799D01*
X501112Y1176938D01*
X501343Y1177076D01*
X501620Y1177261D01*
X501943Y1177446D01*
X502313Y1177677D01*
X502775Y1177908D01*
X503283Y1178139D01*
X503838Y1178370D01*
X504438Y1178555D01*
X505085Y1178739D01*
X505778Y1178878D01*
X506517Y1179017D01*
X507303Y1179063D01*
X508134Y1179109D01*
X508596D01*
X508920Y1179063D01*
D02*
G37*
G36*
X277218Y1024063D02*
X277587Y1024017D01*
X278049Y1023970D01*
X278558Y1023878D01*
X279066Y1023786D01*
X280267Y1023462D01*
X281468Y1023000D01*
X282069Y1022723D01*
X282669Y1022400D01*
X283224Y1021984D01*
X283732Y1021522D01*
X283778Y1021476D01*
X283871Y1021429D01*
X283963Y1021245D01*
X284148Y1021060D01*
X284379Y1020829D01*
X284610Y1020505D01*
X284841Y1020182D01*
X285118Y1019766D01*
X285580Y1018888D01*
X286042Y1017780D01*
X286227Y1017225D01*
X286319Y1016578D01*
X286412Y1015932D01*
X286458Y1015239D01*
Y1015146D01*
Y1014915D01*
X286412Y1014546D01*
X286365Y1014037D01*
X286273Y1013483D01*
X286088Y1012836D01*
X285903Y1012143D01*
X285626Y1011450D01*
X285580Y1011358D01*
X285488Y1011127D01*
X285303Y1010757D01*
X285026Y1010249D01*
X284656Y1009695D01*
X284194Y1009002D01*
X283640Y1008309D01*
X282993Y1007523D01*
X282900Y1007431D01*
X282669Y1007154D01*
X282438Y1006923D01*
X282207Y1006692D01*
X281930Y1006414D01*
X281561Y1006045D01*
X281191Y1005675D01*
X280729Y1005259D01*
X280267Y1004797D01*
X279713Y1004289D01*
X279112Y1003781D01*
X278465Y1003180D01*
X277726Y1002580D01*
X276987Y1001933D01*
X276941Y1001887D01*
X276848Y1001794D01*
X276663Y1001656D01*
X276432Y1001471D01*
X276155Y1001194D01*
X275832Y1000917D01*
X275093Y1000316D01*
X274307Y999623D01*
X273568Y998930D01*
X272921Y998329D01*
X272644Y998098D01*
X272413Y997867D01*
X272367Y997821D01*
X272228Y997683D01*
X272043Y997498D01*
X271812Y997221D01*
X271581Y996897D01*
X271304Y996574D01*
X270750Y995788D01*
X286504D01*
Y992000D01*
X265298D01*
Y992046D01*
Y992231D01*
Y992508D01*
X265344Y992878D01*
X265391Y993294D01*
X265483Y993756D01*
X265575Y994218D01*
X265760Y994726D01*
Y994772D01*
X265806Y994818D01*
X265899Y995095D01*
X266084Y995511D01*
X266361Y996066D01*
X266730Y996712D01*
X267192Y997452D01*
X267701Y998191D01*
X268347Y998976D01*
Y999022D01*
X268440Y999069D01*
X268671Y999346D01*
X269087Y999762D01*
X269687Y1000362D01*
X270380Y1001055D01*
X271258Y1001887D01*
X272321Y1002811D01*
X273476Y1003781D01*
X273522Y1003827D01*
X273707Y1003966D01*
X273984Y1004197D01*
X274307Y1004474D01*
X274723Y1004844D01*
X275231Y1005259D01*
X275739Y1005721D01*
X276340Y1006230D01*
X277495Y1007338D01*
X278650Y1008447D01*
X279204Y1009002D01*
X279713Y1009556D01*
X280175Y1010064D01*
X280544Y1010572D01*
Y1010619D01*
X280637Y1010665D01*
X280729Y1010803D01*
X280821Y1010988D01*
X281145Y1011496D01*
X281514Y1012097D01*
X281838Y1012836D01*
X282161Y1013622D01*
X282346Y1014499D01*
X282438Y1015331D01*
Y1015377D01*
Y1015423D01*
X282392Y1015701D01*
X282346Y1016163D01*
X282207Y1016671D01*
X282023Y1017318D01*
X281699Y1017964D01*
X281283Y1018611D01*
X280729Y1019258D01*
X280637Y1019350D01*
X280406Y1019535D01*
X280082Y1019766D01*
X279574Y1020090D01*
X278927Y1020367D01*
X278188Y1020644D01*
X277310Y1020829D01*
X276340Y1020875D01*
X276063D01*
X275878Y1020829D01*
X275324Y1020783D01*
X274677Y1020644D01*
X273984Y1020459D01*
X273198Y1020136D01*
X272459Y1019720D01*
X271766Y1019166D01*
X271674Y1019073D01*
X271489Y1018842D01*
X271212Y1018473D01*
X270935Y1017918D01*
X270611Y1017271D01*
X270334Y1016440D01*
X270149Y1015516D01*
X270057Y1014453D01*
X266037Y1014869D01*
Y1014915D01*
X266084Y1015054D01*
Y1015285D01*
X266130Y1015608D01*
X266222Y1015978D01*
X266315Y1016394D01*
X266453Y1016902D01*
X266592Y1017410D01*
X266961Y1018519D01*
X267516Y1019628D01*
X267839Y1020182D01*
X268255Y1020736D01*
X268671Y1021245D01*
X269133Y1021707D01*
X269179Y1021753D01*
X269271Y1021799D01*
X269410Y1021938D01*
X269641Y1022076D01*
X269918Y1022261D01*
X270242Y1022446D01*
X270611Y1022677D01*
X271073Y1022908D01*
X271581Y1023139D01*
X272136Y1023370D01*
X272736Y1023555D01*
X273383Y1023739D01*
X274076Y1023878D01*
X274815Y1024017D01*
X275601Y1024063D01*
X276432Y1024109D01*
X276894D01*
X277218Y1024063D01*
D02*
G37*
G36*
X255781Y992000D02*
X251854D01*
Y1016994D01*
X251808Y1016948D01*
X251577Y1016763D01*
X251300Y1016486D01*
X250838Y1016163D01*
X250329Y1015747D01*
X249683Y1015285D01*
X248943Y1014777D01*
X248112Y1014268D01*
X248066D01*
X248019Y1014222D01*
X247742Y1014037D01*
X247280Y1013806D01*
X246726Y1013529D01*
X246079Y1013206D01*
X245386Y1012882D01*
X244693Y1012559D01*
X244000Y1012282D01*
Y1016070D01*
X244046D01*
X244139Y1016163D01*
X244323Y1016209D01*
X244554Y1016347D01*
X244832Y1016486D01*
X245155Y1016671D01*
X245940Y1017133D01*
X246864Y1017641D01*
X247788Y1018288D01*
X248759Y1019027D01*
X249729Y1019812D01*
X249775Y1019859D01*
X249821Y1019905D01*
X249960Y1020043D01*
X250145Y1020182D01*
X250560Y1020644D01*
X251115Y1021198D01*
X251669Y1021845D01*
X252270Y1022584D01*
X252778Y1023324D01*
X253240Y1024109D01*
X255781D01*
Y992000D01*
D02*
G37*
G36*
X600781Y998000D02*
X596854D01*
Y1022994D01*
X596808Y1022948D01*
X596577Y1022763D01*
X596300Y1022486D01*
X595838Y1022163D01*
X595329Y1021747D01*
X594683Y1021285D01*
X593943Y1020777D01*
X593112Y1020268D01*
X593066D01*
X593019Y1020222D01*
X592742Y1020037D01*
X592280Y1019806D01*
X591726Y1019529D01*
X591079Y1019206D01*
X590386Y1018882D01*
X589693Y1018559D01*
X589000Y1018282D01*
Y1022070D01*
X589046D01*
X589139Y1022163D01*
X589323Y1022209D01*
X589554Y1022347D01*
X589832Y1022486D01*
X590155Y1022671D01*
X590940Y1023133D01*
X591864Y1023641D01*
X592788Y1024288D01*
X593759Y1025027D01*
X594729Y1025812D01*
X594775Y1025859D01*
X594821Y1025905D01*
X594960Y1026043D01*
X595145Y1026182D01*
X595560Y1026644D01*
X596115Y1027198D01*
X596669Y1027845D01*
X597270Y1028584D01*
X597778Y1029324D01*
X598240Y1030109D01*
X600781D01*
Y998000D01*
D02*
G37*
%LPC*%
G36*
X686603Y1192224D02*
X686285D01*
Y1191905D01*
X686603D01*
Y1191587D01*
X686922D01*
Y1191268D01*
Y1190950D01*
X687240D01*
Y1190631D01*
X687559D01*
Y1190313D01*
Y1189995D01*
X687877D01*
Y1189676D01*
X688196D01*
Y1189358D01*
Y1189039D01*
X688514D01*
Y1188721D01*
Y1188402D01*
X688832D01*
Y1188084D01*
Y1187766D01*
X689151D01*
Y1187447D01*
X689469D01*
Y1187129D01*
Y1186810D01*
X689788D01*
Y1186492D01*
Y1186173D01*
X690106D01*
Y1185855D01*
Y1185536D01*
X690425D01*
Y1185218D01*
Y1184900D01*
X690743D01*
Y1184581D01*
Y1184263D01*
Y1183944D01*
X691062D01*
Y1183626D01*
Y1183307D01*
X691380D01*
Y1182989D01*
Y1182671D01*
X691698D01*
Y1182352D01*
Y1182034D01*
Y1181715D01*
X692017D01*
Y1181397D01*
Y1181078D01*
Y1180760D01*
X692335D01*
Y1180441D01*
Y1180123D01*
Y1179805D01*
X692654D01*
Y1179486D01*
Y1179168D01*
Y1178849D01*
X692972D01*
Y1178531D01*
Y1178213D01*
Y1177894D01*
Y1177576D01*
X693290D01*
Y1177257D01*
Y1176939D01*
Y1176620D01*
Y1176302D01*
X693609D01*
Y1175983D01*
Y1175665D01*
Y1175347D01*
Y1175028D01*
Y1174710D01*
X693927D01*
Y1174391D01*
Y1174073D01*
Y1173754D01*
Y1173436D01*
Y1173118D01*
Y1172799D01*
X694246D01*
Y1172481D01*
Y1172162D01*
Y1171844D01*
Y1171525D01*
Y1171207D01*
Y1170888D01*
Y1170570D01*
Y1170252D01*
Y1169933D01*
X694564D01*
Y1169615D01*
Y1169296D01*
Y1168978D01*
Y1168659D01*
Y1168341D01*
Y1168023D01*
Y1167704D01*
Y1167386D01*
Y1167067D01*
Y1166749D01*
Y1166430D01*
Y1166112D01*
Y1165793D01*
Y1165475D01*
Y1165157D01*
Y1164838D01*
Y1164520D01*
Y1164201D01*
Y1163883D01*
X694246D01*
Y1163564D01*
Y1163246D01*
Y1162928D01*
Y1162609D01*
Y1162291D01*
Y1161972D01*
Y1161654D01*
Y1161335D01*
Y1161017D01*
X693927D01*
Y1160698D01*
Y1160380D01*
Y1160062D01*
Y1159743D01*
Y1159425D01*
Y1159106D01*
X693609D01*
Y1158788D01*
Y1158469D01*
Y1158151D01*
Y1157832D01*
Y1157514D01*
X693290D01*
Y1157196D01*
Y1156877D01*
Y1156559D01*
Y1156240D01*
X692972D01*
Y1155922D01*
Y1155603D01*
Y1155285D01*
Y1154966D01*
X692654D01*
Y1154648D01*
Y1154330D01*
Y1154011D01*
X692335D01*
Y1153693D01*
Y1153374D01*
Y1153056D01*
X692017D01*
Y1152737D01*
Y1152419D01*
Y1152101D01*
X691698D01*
Y1151782D01*
Y1151464D01*
Y1151145D01*
X691380D01*
Y1150827D01*
Y1150508D01*
X691062D01*
Y1150190D01*
Y1149872D01*
X690743D01*
Y1149553D01*
Y1149235D01*
Y1148916D01*
X690425D01*
Y1148598D01*
Y1148279D01*
X690106D01*
Y1147961D01*
Y1147642D01*
X689788D01*
Y1147324D01*
Y1147006D01*
X689469D01*
Y1146687D01*
Y1146369D01*
X689151D01*
Y1146050D01*
X688832D01*
Y1145732D01*
Y1145414D01*
X688514D01*
Y1145095D01*
Y1144777D01*
X688196D01*
Y1144458D01*
X687877D01*
Y1144140D01*
Y1143821D01*
X687559D01*
Y1143503D01*
Y1143184D01*
X687240D01*
Y1142866D01*
X686922D01*
Y1142547D01*
Y1142229D01*
X686603D01*
Y1141911D01*
X686285D01*
Y1141592D01*
X685966D01*
Y1141274D01*
Y1140955D01*
X685648D01*
Y1140637D01*
X686285D01*
Y1140955D01*
X686603D01*
Y1141274D01*
X687240D01*
Y1141592D01*
X687559D01*
Y1141911D01*
X688196D01*
Y1142229D01*
X688514D01*
Y1142547D01*
X688832D01*
Y1142866D01*
X689469D01*
Y1143184D01*
X689788D01*
Y1143503D01*
X690106D01*
Y1143821D01*
X690743D01*
Y1144140D01*
X691062D01*
Y1144458D01*
X691380D01*
Y1144777D01*
X691698D01*
Y1145095D01*
X692335D01*
Y1145414D01*
X692654D01*
Y1145732D01*
X692972D01*
Y1146050D01*
X693290D01*
Y1146369D01*
X693927D01*
Y1146687D01*
X694246D01*
Y1147006D01*
X694564D01*
Y1147324D01*
X694883D01*
Y1147642D01*
X695201D01*
Y1147961D01*
X695838D01*
Y1148279D01*
X696157D01*
Y1148598D01*
X696475D01*
Y1148916D01*
X696793D01*
Y1149235D01*
X697112D01*
Y1149553D01*
X697430D01*
Y1149872D01*
X697749D01*
Y1150190D01*
X698067D01*
Y1150508D01*
X698386D01*
Y1150827D01*
X699022D01*
Y1151145D01*
X699341D01*
Y1151464D01*
X699659D01*
Y1151782D01*
X699978D01*
Y1152101D01*
X700296D01*
Y1152419D01*
X700615D01*
Y1152737D01*
X700933D01*
Y1153056D01*
X701251D01*
Y1153374D01*
X701570D01*
Y1153693D01*
X701888D01*
Y1154011D01*
X702207D01*
Y1154330D01*
X702525D01*
Y1154648D01*
X702844D01*
Y1154966D01*
X703162D01*
Y1155285D01*
X703481D01*
Y1155603D01*
X703799D01*
Y1155922D01*
X704117D01*
Y1156240D01*
X704436D01*
Y1156559D01*
X704754D01*
Y1156877D01*
X705073D01*
Y1157196D01*
X705391D01*
Y1157514D01*
Y1157832D01*
X705710D01*
Y1158151D01*
X706028D01*
Y1158469D01*
X706346D01*
Y1158788D01*
X706665D01*
Y1159106D01*
X706983D01*
Y1159425D01*
X707302D01*
Y1159743D01*
X707620D01*
Y1160062D01*
X707939D01*
Y1160380D01*
X708257D01*
Y1160698D01*
Y1161017D01*
X708576D01*
Y1161335D01*
X708894D01*
Y1161654D01*
X709212D01*
Y1161972D01*
X709531D01*
Y1162291D01*
X709849D01*
Y1162609D01*
X710168D01*
Y1162928D01*
Y1163246D01*
X710486D01*
Y1163564D01*
X710805D01*
Y1163883D01*
X711123D01*
Y1164201D01*
X711441D01*
Y1164520D01*
Y1164838D01*
X711760D01*
Y1165157D01*
X712078D01*
Y1165475D01*
X712397D01*
Y1165793D01*
X712715D01*
Y1166112D01*
Y1166430D01*
X713034D01*
Y1166749D01*
X712715D01*
Y1167067D01*
X712397D01*
Y1167386D01*
X712078D01*
Y1167704D01*
X711760D01*
Y1168023D01*
Y1168341D01*
X711441D01*
Y1168659D01*
X711123D01*
Y1168978D01*
X710805D01*
Y1169296D01*
X710486D01*
Y1169615D01*
X710168D01*
Y1169933D01*
Y1170252D01*
X709849D01*
Y1170570D01*
X709531D01*
Y1170888D01*
X709212D01*
Y1171207D01*
X708894D01*
Y1171525D01*
X708576D01*
Y1171844D01*
X708257D01*
Y1172162D01*
Y1172481D01*
X707939D01*
Y1172799D01*
X707620D01*
Y1173118D01*
X707302D01*
Y1173436D01*
X706983D01*
Y1173754D01*
X706665D01*
Y1174073D01*
X706346D01*
Y1174391D01*
X706028D01*
Y1174710D01*
X705710D01*
Y1175028D01*
Y1175347D01*
X705391D01*
Y1175665D01*
X705073D01*
Y1175983D01*
X704754D01*
Y1176302D01*
X704436D01*
Y1176620D01*
X704117D01*
Y1176939D01*
X703799D01*
Y1177257D01*
X703481D01*
Y1177576D01*
X703162D01*
Y1177894D01*
X702844D01*
Y1178213D01*
X702525D01*
Y1178531D01*
X702207D01*
Y1178849D01*
X701888D01*
Y1179168D01*
X701570D01*
Y1179486D01*
X701251D01*
Y1179805D01*
X700933D01*
Y1180123D01*
X700615D01*
Y1180441D01*
X700296D01*
Y1180760D01*
X699978D01*
Y1181078D01*
X699659D01*
Y1181397D01*
X699341D01*
Y1181715D01*
X699022D01*
Y1182034D01*
X698704D01*
Y1182352D01*
X698386D01*
Y1182671D01*
X698067D01*
Y1182989D01*
X697749D01*
Y1183307D01*
X697430D01*
Y1183626D01*
X696793D01*
Y1183944D01*
X696475D01*
Y1184263D01*
X696157D01*
Y1184581D01*
X695838D01*
Y1184900D01*
X695520D01*
Y1185218D01*
X695201D01*
Y1185536D01*
X694883D01*
Y1185855D01*
X694246D01*
Y1186173D01*
X693927D01*
Y1186492D01*
X693609D01*
Y1186810D01*
X693290D01*
Y1187129D01*
X692972D01*
Y1187447D01*
X692654D01*
Y1187766D01*
X692017D01*
Y1188084D01*
X691698D01*
Y1188402D01*
X691380D01*
Y1188721D01*
X691062D01*
Y1189039D01*
X690425D01*
Y1189358D01*
X690106D01*
Y1189676D01*
X689788D01*
Y1189995D01*
X689151D01*
Y1190313D01*
X688832D01*
Y1190631D01*
X688514D01*
Y1190950D01*
X687877D01*
Y1191268D01*
X687559D01*
Y1191587D01*
X686922D01*
Y1191905D01*
X686603D01*
Y1192224D01*
D02*
G37*
G36*
X685648Y1140637D02*
X685330D01*
Y1140318D01*
X685648D01*
Y1140637D01*
D02*
G37*
G36*
X685330Y1140318D02*
X685011D01*
Y1140000D01*
X685330D01*
Y1140318D01*
D02*
G37*
G36*
X618139Y1193816D02*
X617821D01*
Y1193497D01*
X617503D01*
Y1193179D01*
X616866D01*
Y1192861D01*
X616547D01*
Y1192542D01*
X615910D01*
Y1192224D01*
X615592D01*
Y1191905D01*
X615274D01*
Y1191587D01*
X614637D01*
Y1191268D01*
X614318D01*
Y1190950D01*
X613681D01*
Y1190631D01*
X613363D01*
Y1190313D01*
X613044D01*
Y1189995D01*
X612408D01*
Y1189676D01*
X612089D01*
Y1189358D01*
X611771D01*
Y1189039D01*
X611452D01*
Y1188721D01*
X610815D01*
Y1188402D01*
X610497D01*
Y1188084D01*
X610178D01*
Y1187766D01*
X609860D01*
Y1187447D01*
X609223D01*
Y1187129D01*
X608905D01*
Y1186810D01*
X608586D01*
Y1186492D01*
X608268D01*
Y1186173D01*
X607949D01*
Y1185855D01*
X607631D01*
Y1185536D01*
X606994D01*
Y1185218D01*
X606676D01*
Y1184900D01*
X606357D01*
Y1184581D01*
X606039D01*
Y1184263D01*
X605720D01*
Y1183944D01*
X605402D01*
Y1183626D01*
X605083D01*
Y1183307D01*
X604765D01*
Y1182989D01*
X604447D01*
Y1182671D01*
X604128D01*
Y1182352D01*
X603810D01*
Y1182034D01*
X603491D01*
Y1181715D01*
X602854D01*
Y1181397D01*
X602536D01*
Y1181078D01*
X602217D01*
Y1180760D01*
X601899D01*
Y1180441D01*
X601581D01*
Y1180123D01*
X601262D01*
Y1179805D01*
Y1179486D01*
X600944D01*
Y1179168D01*
X600625D01*
Y1178849D01*
X600307D01*
Y1178531D01*
X599989D01*
Y1178213D01*
X599670D01*
Y1177894D01*
X599352D01*
Y1177576D01*
X599033D01*
Y1177257D01*
X598715D01*
Y1176939D01*
X598396D01*
Y1176620D01*
X598078D01*
Y1176302D01*
X597759D01*
Y1175983D01*
X597441D01*
Y1175665D01*
X597122D01*
Y1175347D01*
Y1175028D01*
X596804D01*
Y1174710D01*
X596486D01*
Y1174391D01*
X596167D01*
Y1174073D01*
X595849D01*
Y1173754D01*
X595530D01*
Y1173436D01*
X595212D01*
Y1173118D01*
Y1172799D01*
X594893D01*
Y1172481D01*
X594575D01*
Y1172162D01*
X594257D01*
Y1171844D01*
X593938D01*
Y1171525D01*
X593620D01*
Y1171207D01*
Y1170888D01*
X593301D01*
Y1170570D01*
X592983D01*
Y1170252D01*
X592664D01*
Y1169933D01*
X592346D01*
Y1169615D01*
Y1169296D01*
X592028D01*
Y1168978D01*
X591709D01*
Y1168659D01*
X591391D01*
Y1168341D01*
Y1168023D01*
X591072D01*
Y1167704D01*
X590754D01*
Y1167386D01*
X590435D01*
Y1167067D01*
Y1166749D01*
Y1166430D01*
Y1166112D01*
X590754D01*
Y1165793D01*
X591072D01*
Y1165475D01*
Y1165157D01*
X591391D01*
Y1164838D01*
X591709D01*
Y1164520D01*
X592028D01*
Y1164201D01*
Y1163883D01*
X592346D01*
Y1163564D01*
X592664D01*
Y1163246D01*
X592983D01*
Y1162928D01*
X593301D01*
Y1162609D01*
Y1162291D01*
X593620D01*
Y1161972D01*
X593938D01*
Y1161654D01*
X594257D01*
Y1161335D01*
X594575D01*
Y1161017D01*
Y1160698D01*
X594893D01*
Y1160380D01*
X595212D01*
Y1160062D01*
X595530D01*
Y1159743D01*
X595849D01*
Y1159425D01*
Y1159106D01*
X596167D01*
Y1158788D01*
X596486D01*
Y1158469D01*
X596804D01*
Y1158151D01*
X597122D01*
Y1157832D01*
X597441D01*
Y1157514D01*
Y1157196D01*
X597759D01*
Y1156877D01*
X598078D01*
Y1156559D01*
X598396D01*
Y1156240D01*
X598715D01*
Y1155922D01*
X599033D01*
Y1155603D01*
X599352D01*
Y1155285D01*
X599670D01*
Y1154966D01*
Y1154648D01*
X599989D01*
Y1154330D01*
X600307D01*
Y1154011D01*
X600625D01*
Y1153693D01*
X600944D01*
Y1153374D01*
X601262D01*
Y1153056D01*
X601581D01*
Y1152737D01*
X601899D01*
Y1152419D01*
X602217D01*
Y1152101D01*
X602536D01*
Y1151782D01*
X602854D01*
Y1151464D01*
X603173D01*
Y1151145D01*
X603491D01*
Y1150827D01*
X603810D01*
Y1150508D01*
X604128D01*
Y1150190D01*
X604447D01*
Y1149872D01*
X604765D01*
Y1149553D01*
X605083D01*
Y1149235D01*
X605402D01*
Y1148916D01*
X605720D01*
Y1148598D01*
X606039D01*
Y1148279D01*
X606357D01*
Y1147961D01*
X606676D01*
Y1147642D01*
X606994D01*
Y1147324D01*
X607312D01*
Y1147006D01*
X607631D01*
Y1146687D01*
X607949D01*
Y1146369D01*
X608268D01*
Y1146050D01*
X608905D01*
Y1145732D01*
X609223D01*
Y1145414D01*
X609542D01*
Y1145095D01*
X609860D01*
Y1144777D01*
X610178D01*
Y1144458D01*
X610497D01*
Y1144140D01*
X611134D01*
Y1143821D01*
X611452D01*
Y1143503D01*
X611771D01*
Y1143184D01*
X612089D01*
Y1142866D01*
X612408D01*
Y1142547D01*
X613044D01*
Y1142229D01*
X613363D01*
Y1141911D01*
X613681D01*
Y1141592D01*
X614318D01*
Y1141274D01*
X614637D01*
Y1140955D01*
X614955D01*
Y1140637D01*
X615592D01*
Y1140318D01*
X615910D01*
Y1140000D01*
X616229D01*
Y1139682D01*
X616866D01*
Y1139363D01*
X617184D01*
Y1139045D01*
X617821D01*
Y1138726D01*
X618139D01*
Y1138408D01*
X618776D01*
Y1138089D01*
X619095D01*
Y1137771D01*
X619731D01*
Y1137453D01*
X620050D01*
Y1137134D01*
X620687D01*
Y1136816D01*
X621005D01*
Y1136497D01*
X621324D01*
Y1136816D01*
X621005D01*
Y1137134D01*
X620687D01*
Y1137453D01*
X620368D01*
Y1137771D01*
X620050D01*
Y1138089D01*
Y1138408D01*
X619731D01*
Y1138726D01*
X619413D01*
Y1139045D01*
X619095D01*
Y1139363D01*
X618776D01*
Y1139682D01*
X618458D01*
Y1140000D01*
X618139D01*
Y1140318D01*
Y1140637D01*
X617821D01*
Y1140955D01*
X617503D01*
Y1141274D01*
X617184D01*
Y1141592D01*
Y1141911D01*
X616866D01*
Y1142229D01*
X616547D01*
Y1142547D01*
X616229D01*
Y1142866D01*
Y1143184D01*
X615910D01*
Y1143503D01*
X615592D01*
Y1143821D01*
Y1144140D01*
X615274D01*
Y1144458D01*
Y1144777D01*
X614955D01*
Y1145095D01*
X614637D01*
Y1145414D01*
Y1145732D01*
X614318D01*
Y1146050D01*
Y1146369D01*
X614000D01*
Y1146687D01*
Y1147006D01*
X613681D01*
Y1147324D01*
Y1147642D01*
X613363D01*
Y1147961D01*
Y1148279D01*
X613044D01*
Y1148598D01*
Y1148916D01*
X612726D01*
Y1149235D01*
Y1149553D01*
X612408D01*
Y1149872D01*
Y1150190D01*
X612089D01*
Y1150508D01*
Y1150827D01*
Y1151145D01*
X611771D01*
Y1151464D01*
Y1151782D01*
X611452D01*
Y1152101D01*
Y1152419D01*
Y1152737D01*
X611134D01*
Y1153056D01*
Y1153374D01*
Y1153693D01*
X610815D01*
Y1154011D01*
Y1154330D01*
Y1154648D01*
X610497D01*
Y1154966D01*
Y1155285D01*
Y1155603D01*
X610178D01*
Y1155922D01*
Y1156240D01*
Y1156559D01*
Y1156877D01*
X609860D01*
Y1157196D01*
Y1157514D01*
Y1157832D01*
Y1158151D01*
Y1158469D01*
X609542D01*
Y1158788D01*
Y1159106D01*
Y1159425D01*
Y1159743D01*
Y1160062D01*
X609223D01*
Y1160380D01*
Y1160698D01*
Y1161017D01*
Y1161335D01*
Y1161654D01*
Y1161972D01*
Y1162291D01*
Y1162609D01*
X608905D01*
Y1162928D01*
Y1163246D01*
Y1163564D01*
Y1163883D01*
Y1164201D01*
Y1164520D01*
Y1164838D01*
Y1165157D01*
Y1165475D01*
Y1165793D01*
Y1166112D01*
Y1166430D01*
Y1166749D01*
Y1167067D01*
Y1167386D01*
Y1167704D01*
Y1168023D01*
Y1168341D01*
Y1168659D01*
Y1168978D01*
Y1169296D01*
Y1169615D01*
Y1169933D01*
Y1170252D01*
Y1170570D01*
Y1170888D01*
Y1171207D01*
X609223D01*
Y1171525D01*
Y1171844D01*
Y1172162D01*
Y1172481D01*
Y1172799D01*
Y1173118D01*
Y1173436D01*
Y1173754D01*
X609542D01*
Y1174073D01*
Y1174391D01*
Y1174710D01*
Y1175028D01*
Y1175347D01*
X609860D01*
Y1175665D01*
Y1175983D01*
Y1176302D01*
Y1176620D01*
Y1176939D01*
X610178D01*
Y1177257D01*
Y1177576D01*
Y1177894D01*
Y1178213D01*
X610497D01*
Y1178531D01*
Y1178849D01*
Y1179168D01*
X610815D01*
Y1179486D01*
Y1179805D01*
Y1180123D01*
X611134D01*
Y1180441D01*
Y1180760D01*
Y1181078D01*
X611452D01*
Y1181397D01*
Y1181715D01*
Y1182034D01*
X611771D01*
Y1182352D01*
Y1182671D01*
Y1182989D01*
X612089D01*
Y1183307D01*
Y1183626D01*
X612408D01*
Y1183944D01*
Y1184263D01*
X612726D01*
Y1184581D01*
Y1184900D01*
X613044D01*
Y1185218D01*
Y1185536D01*
X613363D01*
Y1185855D01*
Y1186173D01*
X613681D01*
Y1186492D01*
Y1186810D01*
X614000D01*
Y1187129D01*
Y1187447D01*
X614318D01*
Y1187766D01*
Y1188084D01*
X614637D01*
Y1188402D01*
Y1188721D01*
X614955D01*
Y1189039D01*
X615274D01*
Y1189358D01*
Y1189676D01*
X615592D01*
Y1189995D01*
Y1190313D01*
X615910D01*
Y1190631D01*
X616229D01*
Y1190950D01*
Y1191268D01*
X616547D01*
Y1191587D01*
X616866D01*
Y1191905D01*
X617184D01*
Y1192224D01*
Y1192542D01*
X617503D01*
Y1192861D01*
X617821D01*
Y1193179D01*
X618139D01*
Y1193497D01*
Y1193816D01*
D02*
G37*
G36*
X683101Y1185536D02*
X620368D01*
Y1185218D01*
Y1184900D01*
Y1184581D01*
X620687D01*
Y1184263D01*
X621005D01*
Y1183944D01*
Y1183626D01*
X621324D01*
Y1183307D01*
Y1182989D01*
X621642D01*
Y1182671D01*
Y1182352D01*
X621961D01*
Y1182034D01*
X622279D01*
Y1181715D01*
Y1181397D01*
X622597D01*
Y1181078D01*
Y1180760D01*
X622916D01*
Y1180441D01*
Y1180123D01*
X623234D01*
Y1179805D01*
X623553D01*
Y1179486D01*
Y1179168D01*
X623871D01*
Y1178849D01*
Y1178531D01*
X624190D01*
Y1178213D01*
X624508D01*
Y1177894D01*
Y1177576D01*
X624827D01*
Y1177257D01*
Y1176939D01*
X625145D01*
Y1176620D01*
Y1176302D01*
X625463D01*
Y1175983D01*
X625782D01*
Y1175665D01*
Y1175347D01*
X626100D01*
Y1175028D01*
Y1174710D01*
X626419D01*
Y1174391D01*
Y1174073D01*
X626737D01*
Y1173754D01*
X627056D01*
Y1173436D01*
Y1173118D01*
X627374D01*
Y1172799D01*
Y1172481D01*
X627692D01*
Y1172162D01*
X628011D01*
Y1171844D01*
Y1171525D01*
X628329D01*
Y1171207D01*
Y1170888D01*
X628648D01*
Y1170570D01*
Y1170252D01*
X628966D01*
Y1169933D01*
X629285D01*
Y1169615D01*
Y1169296D01*
X629603D01*
Y1168978D01*
Y1168659D01*
X629922D01*
Y1168341D01*
Y1168023D01*
X630240D01*
Y1167704D01*
X630558D01*
Y1167386D01*
Y1167067D01*
X630877D01*
Y1166749D01*
Y1166430D01*
X631195D01*
Y1166112D01*
Y1165793D01*
X631514D01*
Y1165475D01*
X631832D01*
Y1165157D01*
Y1164838D01*
X632151D01*
Y1164520D01*
Y1164201D01*
X632469D01*
Y1163883D01*
X632788D01*
Y1163564D01*
Y1163246D01*
X633106D01*
Y1162928D01*
Y1162609D01*
X633424D01*
Y1162291D01*
Y1161972D01*
X633743D01*
Y1161654D01*
X634061D01*
Y1161335D01*
Y1161017D01*
X634380D01*
Y1160698D01*
Y1160380D01*
X634698D01*
Y1160062D01*
Y1159743D01*
X635017D01*
Y1159425D01*
X635335D01*
Y1159106D01*
Y1158788D01*
X635654D01*
Y1158469D01*
Y1158151D01*
X635972D01*
Y1157832D01*
Y1157514D01*
X636290D01*
Y1157196D01*
X636609D01*
Y1156877D01*
Y1156559D01*
X636927D01*
Y1156240D01*
Y1155922D01*
X637246D01*
Y1155603D01*
X637564D01*
Y1155285D01*
Y1154966D01*
X637883D01*
Y1154648D01*
Y1154330D01*
X638201D01*
Y1154011D01*
Y1153693D01*
X638519D01*
Y1153374D01*
X638838D01*
Y1153056D01*
Y1152737D01*
X639156D01*
Y1152419D01*
Y1152101D01*
X639475D01*
Y1151782D01*
Y1151464D01*
X639793D01*
Y1151145D01*
X640111D01*
Y1150827D01*
Y1150508D01*
X640430D01*
Y1150190D01*
Y1149872D01*
X640748D01*
Y1149553D01*
Y1149235D01*
X641067D01*
Y1148916D01*
X641385D01*
Y1148598D01*
Y1148279D01*
X641704D01*
Y1147961D01*
Y1147642D01*
X642022D01*
Y1147324D01*
X642341D01*
Y1147006D01*
Y1146687D01*
X642659D01*
Y1146369D01*
Y1146050D01*
X642977D01*
Y1145732D01*
Y1145414D01*
X643296D01*
Y1145095D01*
X643614D01*
Y1144777D01*
Y1144458D01*
X643933D01*
Y1144140D01*
Y1143821D01*
X644251D01*
Y1143503D01*
Y1143184D01*
X644570D01*
Y1142866D01*
X644888D01*
Y1142547D01*
Y1142229D01*
X645207D01*
Y1141911D01*
Y1141592D01*
X645525D01*
Y1141274D01*
X645843D01*
Y1140955D01*
Y1140637D01*
X646162D01*
Y1140318D01*
Y1140000D01*
X646480D01*
Y1139682D01*
Y1139363D01*
X646799D01*
Y1139045D01*
X647117D01*
Y1138726D01*
Y1138408D01*
X647436D01*
Y1138089D01*
Y1137771D01*
X647754D01*
Y1137453D01*
Y1137134D01*
X648072D01*
Y1136816D01*
X648391D01*
Y1136497D01*
Y1136179D01*
X648709D01*
Y1135860D01*
Y1135542D01*
X649028D01*
Y1135223D01*
Y1134905D01*
X649346D01*
Y1134586D01*
X649665D01*
Y1134268D01*
Y1133950D01*
X649983D01*
Y1133631D01*
Y1133313D01*
X650302D01*
Y1132994D01*
X650620D01*
Y1132676D01*
Y1132358D01*
X650938D01*
Y1132039D01*
Y1131721D01*
X651257D01*
Y1131402D01*
Y1131084D01*
X651894D01*
Y1131402D01*
X652212D01*
Y1131721D01*
Y1132039D01*
X652531D01*
Y1132358D01*
X652849D01*
Y1132676D01*
Y1132994D01*
X653168D01*
Y1133313D01*
Y1133631D01*
X653486D01*
Y1133950D01*
Y1134268D01*
X653804D01*
Y1134586D01*
X654123D01*
Y1134905D01*
Y1135223D01*
X654441D01*
Y1135542D01*
Y1135860D01*
X654760D01*
Y1136179D01*
X655078D01*
Y1136497D01*
Y1136816D01*
X655397D01*
Y1137134D01*
Y1137453D01*
X655715D01*
Y1137771D01*
Y1138089D01*
X656033D01*
Y1138408D01*
X656352D01*
Y1138726D01*
Y1139045D01*
X656670D01*
Y1139363D01*
Y1139682D01*
X656989D01*
Y1140000D01*
Y1140318D01*
X657307D01*
Y1140637D01*
X657626D01*
Y1140955D01*
Y1141274D01*
X657944D01*
Y1141592D01*
Y1141911D01*
X658263D01*
Y1142229D01*
Y1142547D01*
X658581D01*
Y1142866D01*
X658899D01*
Y1143184D01*
Y1143503D01*
X659218D01*
Y1143821D01*
Y1144140D01*
X659536D01*
Y1144458D01*
X659855D01*
Y1144777D01*
Y1145095D01*
X660173D01*
Y1145414D01*
Y1145732D01*
X660491D01*
Y1146050D01*
Y1146369D01*
X660810D01*
Y1146687D01*
X661128D01*
Y1147006D01*
Y1147324D01*
X661447D01*
Y1147642D01*
Y1147961D01*
X661765D01*
Y1148279D01*
Y1148598D01*
X662084D01*
Y1148916D01*
X662402D01*
Y1149235D01*
Y1149553D01*
X662721D01*
Y1149872D01*
Y1150190D01*
X663039D01*
Y1150508D01*
Y1150827D01*
X663357D01*
Y1151145D01*
X663676D01*
Y1151464D01*
Y1151782D01*
X663994D01*
Y1152101D01*
Y1152419D01*
X664313D01*
Y1152737D01*
X664631D01*
Y1153056D01*
Y1153374D01*
X664950D01*
Y1153693D01*
Y1154011D01*
X665268D01*
Y1154330D01*
Y1154648D01*
X665587D01*
Y1154966D01*
X665905D01*
Y1155285D01*
Y1155603D01*
X666223D01*
Y1155922D01*
Y1156240D01*
X666542D01*
Y1156559D01*
Y1156877D01*
X666860D01*
Y1157196D01*
X667179D01*
Y1157514D01*
Y1157832D01*
X667497D01*
Y1158151D01*
Y1158469D01*
X667816D01*
Y1158788D01*
Y1159106D01*
X668134D01*
Y1159425D01*
X668452D01*
Y1159743D01*
Y1160062D01*
X668771D01*
Y1160380D01*
Y1160698D01*
X669089D01*
Y1161017D01*
X669408D01*
Y1161335D01*
Y1161654D01*
X669726D01*
Y1161972D01*
Y1162291D01*
X670045D01*
Y1162609D01*
Y1162928D01*
X670363D01*
Y1163246D01*
X670682D01*
Y1163564D01*
Y1163883D01*
X671000D01*
Y1164201D01*
Y1164520D01*
X671318D01*
Y1164838D01*
Y1165157D01*
X671637D01*
Y1165475D01*
X671955D01*
Y1165793D01*
Y1166112D01*
X672274D01*
Y1166430D01*
Y1166749D01*
X672592D01*
Y1167067D01*
X672911D01*
Y1167386D01*
Y1167704D01*
X673229D01*
Y1168023D01*
Y1168341D01*
X673547D01*
Y1168659D01*
Y1168978D01*
X673866D01*
Y1169296D01*
X674184D01*
Y1169615D01*
Y1169933D01*
X674503D01*
Y1170252D01*
Y1170570D01*
X674821D01*
Y1170888D01*
Y1171207D01*
X675140D01*
Y1171525D01*
X675458D01*
Y1171844D01*
Y1172162D01*
X675777D01*
Y1172481D01*
Y1172799D01*
X676095D01*
Y1173118D01*
Y1173436D01*
X676413D01*
Y1173754D01*
X676732D01*
Y1174073D01*
Y1174391D01*
X677050D01*
Y1174710D01*
Y1175028D01*
X677369D01*
Y1175347D01*
X677687D01*
Y1175665D01*
Y1175983D01*
X678006D01*
Y1176302D01*
Y1176620D01*
X678324D01*
Y1176939D01*
Y1177257D01*
X678643D01*
Y1177576D01*
X678961D01*
Y1177894D01*
Y1178213D01*
X679279D01*
Y1178531D01*
Y1178849D01*
X679598D01*
Y1179168D01*
Y1179486D01*
X679916D01*
Y1179805D01*
X680235D01*
Y1180123D01*
Y1180441D01*
X680553D01*
Y1180760D01*
Y1181078D01*
X680871D01*
Y1181397D01*
Y1181715D01*
X681190D01*
Y1182034D01*
X681508D01*
Y1182352D01*
Y1182671D01*
X681827D01*
Y1182989D01*
Y1183307D01*
X682145D01*
Y1183626D01*
X682464D01*
Y1183944D01*
Y1184263D01*
X682782D01*
Y1184581D01*
Y1184900D01*
X683101D01*
Y1185218D01*
Y1185536D01*
D02*
G37*
G36*
X812696Y1087545D02*
X811513D01*
Y1087398D01*
X810487D01*
Y1087252D01*
X809763D01*
Y1087105D01*
X809030D01*
Y1086958D01*
X808590D01*
Y1086812D01*
X808141D01*
Y1086665D01*
X807701D01*
Y1086519D01*
X807418D01*
Y1086372D01*
X807115D01*
Y1086225D01*
X806831D01*
Y1086079D01*
X806538D01*
Y1085932D01*
X806235D01*
Y1085786D01*
X806088D01*
Y1085639D01*
X805942D01*
Y1085492D01*
X805805D01*
Y1085346D01*
X805658D01*
Y1085199D01*
X805502D01*
Y1085053D01*
X805365D01*
Y1084906D01*
Y1084759D01*
X805209D01*
Y1084613D01*
X805072D01*
Y1084466D01*
Y1084320D01*
Y1084173D01*
X804925D01*
Y1084026D01*
Y1083880D01*
Y1083733D01*
X804769D01*
Y1083586D01*
X804779D01*
Y1083440D01*
Y1083293D01*
Y1083147D01*
Y1083000D01*
Y1082853D01*
Y1082707D01*
Y1082560D01*
Y1082414D01*
Y1082267D01*
Y1082120D01*
Y1081974D01*
Y1081827D01*
X804915D01*
Y1081680D01*
Y1081534D01*
Y1081387D01*
X805072D01*
Y1081241D01*
Y1081094D01*
X805209D01*
Y1080947D01*
Y1080801D01*
X805365D01*
Y1080654D01*
X805512D01*
Y1080507D01*
X805658D01*
Y1080361D01*
X805795D01*
Y1080214D01*
X805951D01*
Y1080068D01*
X806235D01*
Y1079921D01*
X806538D01*
Y1079774D01*
X806831D01*
Y1079628D01*
X807564D01*
Y1079481D01*
X808444D01*
Y1079628D01*
X809177D01*
Y1079774D01*
X809617D01*
Y1079921D01*
X809910D01*
Y1080068D01*
X810203D01*
Y1080214D01*
X810350D01*
Y1080361D01*
X810643D01*
Y1080507D01*
X810790D01*
Y1080654D01*
X810936D01*
Y1080801D01*
X811083D01*
Y1080947D01*
X811229D01*
Y1081094D01*
X811376D01*
Y1081241D01*
X811523D01*
Y1081387D01*
Y1081534D01*
X811669D01*
Y1081680D01*
X811816D01*
Y1081827D01*
Y1081974D01*
X811962D01*
Y1082120D01*
Y1082267D01*
X812109D01*
Y1082414D01*
Y1082560D01*
X812256D01*
Y1082707D01*
Y1082853D01*
Y1083000D01*
X812402D01*
Y1083147D01*
Y1083293D01*
Y1083440D01*
X812549D01*
Y1083586D01*
Y1083733D01*
Y1083880D01*
Y1084026D01*
Y1084173D01*
X812696D01*
Y1084320D01*
Y1084466D01*
Y1084613D01*
Y1084759D01*
Y1084906D01*
Y1085053D01*
Y1085199D01*
Y1085346D01*
Y1085492D01*
Y1085639D01*
Y1085786D01*
Y1085932D01*
Y1086079D01*
Y1086225D01*
Y1086372D01*
Y1086519D01*
Y1086665D01*
Y1086812D01*
Y1086958D01*
Y1087105D01*
Y1087252D01*
Y1087398D01*
Y1087545D01*
D02*
G37*
G36*
X740856Y1096488D02*
X739536D01*
Y1096342D01*
X738793D01*
Y1096195D01*
X738354D01*
Y1096048D01*
X738070D01*
Y1095902D01*
X737923D01*
Y1095755D01*
X737630D01*
Y1095609D01*
X737484D01*
Y1095462D01*
X737327D01*
Y1095315D01*
X737190D01*
Y1095169D01*
Y1095022D01*
X737044D01*
Y1094876D01*
X736888D01*
Y1094729D01*
X736897D01*
Y1094582D01*
X736741D01*
Y1094436D01*
X736604D01*
Y1094289D01*
Y1094142D01*
Y1093996D01*
X736448D01*
Y1093849D01*
Y1093703D01*
X736301D01*
Y1093556D01*
Y1093409D01*
Y1093263D01*
X736311D01*
Y1093116D01*
X736154D01*
Y1092970D01*
Y1092823D01*
X736164D01*
Y1092676D01*
Y1092530D01*
X736008D01*
Y1092383D01*
Y1092236D01*
Y1092090D01*
Y1091943D01*
Y1091797D01*
Y1091650D01*
X736018D01*
Y1091503D01*
X735861D01*
Y1091357D01*
Y1091210D01*
Y1091064D01*
Y1090917D01*
Y1090770D01*
X735871D01*
Y1090624D01*
Y1090477D01*
Y1090331D01*
Y1090184D01*
Y1090037D01*
Y1089891D01*
Y1089744D01*
Y1089598D01*
Y1089451D01*
Y1089304D01*
X735861D01*
Y1089158D01*
Y1089011D01*
Y1088864D01*
Y1088718D01*
Y1088571D01*
Y1088425D01*
Y1088278D01*
Y1088131D01*
Y1087985D01*
Y1087838D01*
Y1087691D01*
Y1087545D01*
Y1087398D01*
Y1087252D01*
Y1087105D01*
X735871D01*
Y1086958D01*
Y1086812D01*
Y1086665D01*
Y1086519D01*
Y1086372D01*
Y1086225D01*
Y1086079D01*
Y1085932D01*
Y1085786D01*
Y1085639D01*
Y1085492D01*
X735861D01*
Y1085346D01*
X736018D01*
Y1085199D01*
Y1085053D01*
Y1084906D01*
Y1084759D01*
Y1084613D01*
X736008D01*
Y1084466D01*
Y1084320D01*
X736164D01*
Y1084173D01*
Y1084026D01*
Y1083880D01*
Y1083733D01*
Y1083586D01*
X736301D01*
Y1083440D01*
X736311D01*
Y1083293D01*
Y1083147D01*
Y1083000D01*
X736457D01*
Y1082853D01*
Y1082707D01*
Y1082560D01*
X736594D01*
Y1082414D01*
Y1082267D01*
X736604D01*
Y1082120D01*
X736741D01*
Y1081974D01*
Y1081827D01*
X736897D01*
Y1081680D01*
Y1081534D01*
X737044D01*
Y1081387D01*
Y1081241D01*
X737190D01*
Y1081094D01*
X737337D01*
Y1080947D01*
X737484D01*
Y1080801D01*
Y1080654D01*
X737630D01*
Y1080507D01*
X737923D01*
Y1080361D01*
X738070D01*
Y1080214D01*
X738354D01*
Y1080068D01*
X738647D01*
Y1079921D01*
X739096D01*
Y1079774D01*
X741149D01*
Y1079921D01*
X741589D01*
Y1080068D01*
X741882D01*
Y1080214D01*
X742175D01*
Y1080361D01*
X742322D01*
Y1080507D01*
X742615D01*
Y1080654D01*
X742762D01*
Y1080801D01*
Y1080947D01*
X742908D01*
Y1081094D01*
X743055D01*
Y1081241D01*
X743202D01*
Y1081387D01*
Y1081534D01*
X743348D01*
Y1081680D01*
Y1081827D01*
X743495D01*
Y1081974D01*
Y1082120D01*
X743641D01*
Y1082267D01*
Y1082414D01*
X743788D01*
Y1082560D01*
Y1082707D01*
Y1082853D01*
X743935D01*
Y1083000D01*
Y1083147D01*
Y1083293D01*
Y1083440D01*
X744081D01*
Y1083586D01*
Y1083733D01*
Y1083880D01*
Y1084026D01*
Y1084173D01*
X744228D01*
Y1084320D01*
Y1084466D01*
Y1084613D01*
Y1084759D01*
Y1084906D01*
Y1085053D01*
Y1085199D01*
X744374D01*
Y1085346D01*
Y1085492D01*
Y1085639D01*
Y1085786D01*
Y1085932D01*
Y1086079D01*
Y1086225D01*
Y1086372D01*
Y1086519D01*
Y1086665D01*
Y1086812D01*
Y1086958D01*
Y1087105D01*
Y1087252D01*
Y1087398D01*
Y1087545D01*
Y1087691D01*
Y1087838D01*
Y1087985D01*
Y1088131D01*
Y1088278D01*
Y1088425D01*
Y1088571D01*
Y1088718D01*
Y1088864D01*
Y1089011D01*
Y1089158D01*
Y1089304D01*
Y1089451D01*
Y1089598D01*
Y1089744D01*
Y1089891D01*
Y1090037D01*
Y1090184D01*
Y1090331D01*
Y1090477D01*
Y1090624D01*
Y1090770D01*
Y1090917D01*
X744228D01*
Y1091064D01*
Y1091210D01*
Y1091357D01*
Y1091503D01*
Y1091650D01*
Y1091797D01*
Y1091943D01*
Y1092090D01*
X744081D01*
Y1092236D01*
Y1092383D01*
Y1092530D01*
Y1092676D01*
Y1092823D01*
X743935D01*
Y1092970D01*
Y1093116D01*
Y1093263D01*
Y1093409D01*
X743788D01*
Y1093556D01*
Y1093703D01*
Y1093849D01*
X743641D01*
Y1093996D01*
Y1094142D01*
Y1094289D01*
X743495D01*
Y1094436D01*
Y1094582D01*
X743348D01*
Y1094729D01*
Y1094876D01*
X743202D01*
Y1095022D01*
X743055D01*
Y1095169D01*
X742908D01*
Y1095315D01*
Y1095462D01*
X742762D01*
Y1095609D01*
X742615D01*
Y1095755D01*
X742322D01*
Y1095902D01*
X742175D01*
Y1096048D01*
X741882D01*
Y1096195D01*
X741442D01*
Y1096342D01*
X740856D01*
Y1096488D01*
D02*
G37*
G36*
X716161Y704364D02*
X715421D01*
X712979Y704216D01*
X710611Y703846D01*
X708539Y703402D01*
X707577Y703106D01*
X706689Y702810D01*
X705875Y702514D01*
X705135Y702218D01*
X704543Y701996D01*
X703951Y701774D01*
X703581Y701552D01*
X703285Y701404D01*
X703063Y701330D01*
X702989Y701256D01*
X700991Y699998D01*
X699289Y698518D01*
X697809Y697038D01*
X696551Y695558D01*
X695589Y694226D01*
X695219Y693634D01*
X694923Y693116D01*
X694627Y692746D01*
X694479Y692450D01*
X694405Y692228D01*
X694331Y692154D01*
X693295Y689860D01*
X692555Y687492D01*
X692037Y685124D01*
X691667Y682978D01*
X691519Y682016D01*
X691445Y681054D01*
X691371Y680314D01*
Y679574D01*
X691297Y679056D01*
Y651380D01*
Y678242D01*
X691445Y675578D01*
X691741Y672988D01*
X692111Y670694D01*
X692407Y669584D01*
X692629Y668622D01*
X692851Y667734D01*
X693147Y666920D01*
X693369Y666180D01*
X693517Y665588D01*
X693739Y665144D01*
X693813Y664774D01*
X693961Y664552D01*
Y664478D01*
X695071Y662258D01*
X696329Y660260D01*
X697661Y658558D01*
X698327Y657892D01*
X698919Y657226D01*
X699511Y656634D01*
X700103Y656116D01*
X700621Y655672D01*
X701065Y655376D01*
X701361Y655080D01*
X701657Y654858D01*
X701805Y654784D01*
X701879Y654710D01*
X702915Y654118D01*
X703951Y653600D01*
X706171Y652786D01*
X708391Y652194D01*
X710537Y651824D01*
X711573Y651676D01*
X712461Y651528D01*
X713275Y651454D01*
X713941D01*
X714533Y651380D01*
X691297D01*
X736585D01*
D01*
X715347D01*
X716827Y651454D01*
X718233Y651602D01*
X719565Y651750D01*
X720823Y652046D01*
X722007Y652416D01*
X723117Y652786D01*
X724153Y653156D01*
X725115Y653600D01*
X725929Y653970D01*
X726743Y654340D01*
X727335Y654710D01*
X727927Y655080D01*
X728297Y655376D01*
X728667Y655524D01*
X728815Y655672D01*
X728889Y655746D01*
X729925Y656634D01*
X730813Y657522D01*
X731627Y658558D01*
X732441Y659594D01*
X733773Y661666D01*
X734809Y663738D01*
X735253Y664700D01*
X735623Y665588D01*
X735919Y666402D01*
X736141Y667068D01*
X736363Y667660D01*
X736511Y668104D01*
X736585Y668400D01*
Y668474D01*
X729777Y670176D01*
X729481Y668992D01*
X729111Y667882D01*
X728741Y666846D01*
X728371Y665884D01*
X727927Y664996D01*
X727483Y664256D01*
X726965Y663516D01*
X726521Y662850D01*
X726151Y662258D01*
X725707Y661814D01*
X725337Y661370D01*
X725041Y661000D01*
X724745Y660778D01*
X724523Y660556D01*
X724449Y660482D01*
X724375Y660408D01*
X723635Y659816D01*
X722821Y659372D01*
X721193Y658558D01*
X719639Y657966D01*
X718085Y657596D01*
X716753Y657300D01*
X716235Y657226D01*
X715717D01*
X715273Y657152D01*
X714755D01*
X713053Y657226D01*
X711425Y657522D01*
X709945Y657892D01*
X708613Y658336D01*
X707577Y658780D01*
X707133Y659002D01*
X706763Y659150D01*
X706467Y659298D01*
X706245Y659446D01*
X706097Y659520D01*
X706023D01*
X704617Y660556D01*
X703433Y661666D01*
X702397Y662924D01*
X701583Y664108D01*
X700917Y665144D01*
X700473Y666032D01*
X700325Y666402D01*
X700177Y666624D01*
X700103Y666772D01*
Y666846D01*
X699511Y668770D01*
X699067Y670694D01*
X698697Y672618D01*
X698475Y674394D01*
X698401Y675208D01*
X698327Y675948D01*
Y676614D01*
X698253Y677132D01*
Y677576D01*
Y677946D01*
Y678168D01*
Y678242D01*
X698327Y680166D01*
X698475Y681942D01*
X698771Y683570D01*
X699067Y685050D01*
X699289Y686308D01*
X699437Y686826D01*
X699585Y687270D01*
X699659Y687640D01*
X699733Y687862D01*
X699807Y688010D01*
Y688084D01*
X700547Y689786D01*
X701361Y691340D01*
X702249Y692598D01*
X703211Y693708D01*
X704025Y694596D01*
X704691Y695188D01*
X705209Y695558D01*
X705283Y695706D01*
X705357D01*
X706911Y696668D01*
X708613Y697408D01*
X710241Y697926D01*
X711795Y698222D01*
X713201Y698444D01*
X713793Y698518D01*
X714311D01*
X714681Y698592D01*
X715273D01*
X717123Y698518D01*
X718825Y698222D01*
X720231Y697778D01*
X721489Y697334D01*
X722451Y696816D01*
X723191Y696446D01*
X723635Y696150D01*
X723783Y696002D01*
X724967Y694892D01*
X726077Y693634D01*
X726965Y692302D01*
X727705Y690970D01*
X728297Y689786D01*
X728519Y689194D01*
X728667Y688750D01*
X728815Y688380D01*
X728963Y688084D01*
X729037Y687936D01*
Y687862D01*
X735697Y689416D01*
X735253Y690748D01*
X734809Y691932D01*
X734217Y693042D01*
X733699Y694152D01*
X733107Y695114D01*
X732441Y696002D01*
X731849Y696890D01*
X731257Y697630D01*
X730665Y698222D01*
X730147Y698814D01*
X729629Y699332D01*
X729259Y699702D01*
X728889Y700072D01*
X728593Y700294D01*
X728445Y700368D01*
X728371Y700442D01*
X727335Y701108D01*
X726299Y701774D01*
X725263Y702292D01*
X724153Y702736D01*
X721933Y703402D01*
X719935Y703846D01*
X718973Y704068D01*
X718159Y704142D01*
X717345Y704216D01*
X716679Y704290D01*
X716161Y704364D01*
D02*
G37*
G36*
X662363Y703476D02*
X653261D01*
X640977Y667808D01*
X640311Y665884D01*
X639793Y664256D01*
X639275Y662850D01*
X638905Y661666D01*
X638609Y660778D01*
X638387Y660112D01*
X638313Y659742D01*
X638239Y659594D01*
X637943Y660630D01*
X637573Y661814D01*
X637129Y663072D01*
X636759Y664330D01*
X636389Y665440D01*
X636093Y666328D01*
X635945Y666698D01*
X635871Y666920D01*
X635797Y667068D01*
Y667142D01*
X623661Y703476D01*
X613523D01*
Y652268D01*
X662363D01*
Y703476D01*
D02*
G37*
G36*
X681307D02*
X674499D01*
Y652268D01*
X681307D01*
Y703476D01*
D02*
G37*
%LPD*%
G36*
X655851Y652268D02*
X640903D01*
X655851Y695114D01*
Y652268D01*
D02*
G37*
G36*
X634835D02*
X620035D01*
Y695854D01*
X634835Y652268D01*
D02*
G37*
%LPC*%
G36*
X534976Y1172595D02*
X524905Y1158273D01*
X534976D01*
Y1172595D01*
D02*
G37*
%LPD*%
D61*
X679021Y749058D02*
G03*
X679021Y749058I-28549J0D01*
G01*
X235592Y788718D02*
G03*
X235592Y788718I-5568J0D01*
G01*
X-55000Y-266414D02*
X2724D01*
X-26138D01*
Y-353000D01*
X74879Y-266414D02*
X46017D01*
X31586Y-280845D01*
Y-338569D01*
X46017Y-353000D01*
X74879D01*
X89310Y-338569D01*
Y-280845D01*
X74879Y-266414D01*
X118172Y-353000D02*
Y-266414D01*
X161465D01*
X175897Y-280845D01*
Y-309707D01*
X161465Y-324138D01*
X118172D01*
X334638Y-266414D02*
X305776D01*
X291345Y-280845D01*
Y-338569D01*
X305776Y-353000D01*
X334638D01*
X349069Y-338569D01*
Y-280845D01*
X334638Y-266414D01*
X377931D02*
Y-324138D01*
X406793Y-353000D01*
X435655Y-324138D01*
Y-266414D01*
X522241D02*
X464517D01*
Y-353000D01*
X522241D01*
X464517Y-309707D02*
X493379D01*
X551103Y-353000D02*
Y-266414D01*
X594396D01*
X608827Y-280845D01*
Y-309707D01*
X594396Y-324138D01*
X551103D01*
X579966D02*
X608827Y-353000D01*
X637690Y-266414D02*
Y-353000D01*
X695414D01*
X724276D02*
Y-295276D01*
X753138Y-266414D01*
X782000Y-295276D01*
Y-353000D01*
Y-309707D01*
X724276D01*
X810862Y-266414D02*
Y-280845D01*
X839724Y-309707D01*
X868586Y-280845D01*
Y-266414D01*
X839724Y-309707D02*
Y-353000D01*
D66*
X104921Y533000D02*
G03*
X104921Y533000I-4921J0D01*
G01*
X75788Y1069889D02*
G03*
X75788Y1069889I-4921J0D01*
G01*
X262796Y114174D02*
G03*
X262796Y114174I-4921J0D01*
G01*
X464214Y761387D02*
G03*
X464214Y761387I-4921J0D01*
G01*
D79*
X760673Y1009378D02*
G03*
X760673Y1009378I-1968J0D01*
G01*
X757873Y872048D02*
G03*
X757873Y872048I-1968J0D01*
G01*
X161693Y867048D02*
G03*
X161693Y867048I-1968J0D01*
G01*
X283462Y642511D02*
G03*
X283462Y642511I-3937J0D01*
G01*
X89520Y652591D02*
X111567D01*
X89520Y627000D02*
Y652591D01*
X204480Y627000D02*
Y652591D01*
X182433D02*
X204480D01*
X573424Y524044D02*
X613424D01*
X82677Y1122054D02*
X169292D01*
X82677Y1098432D02*
X169292D01*
Y1122054D01*
X82677Y1098432D02*
Y1122054D01*
X564962Y129922D02*
Y146654D01*
X548228Y129922D02*
X564962D01*
Y404528D02*
Y421260D01*
X548228D02*
X564962D01*
X273622D02*
X290354D01*
X273622Y404528D02*
Y421260D01*
Y129922D02*
Y146654D01*
Y129922D02*
X290354D01*
X491143Y751970D02*
X507875D01*
Y735238D02*
Y751970D01*
Y574804D02*
Y591536D01*
X491143Y574804D02*
X507875D01*
X330709D02*
X347441D01*
X330709D02*
Y591536D01*
Y751970D02*
X347441D01*
X330709Y735238D02*
Y751970D01*
D80*
X147636Y104335D02*
G03*
X124014Y104335I-11811J0D01*
G01*
X47245Y303151D02*
G03*
X47245Y326772I0J11811D01*
G01*
X147635Y104336D02*
X194879D01*
X76769D02*
X124013D01*
X76769Y202760D02*
X194879D01*
X204726Y255906D02*
Y374016D01*
X47244Y326772D02*
Y374016D01*
Y255906D02*
Y303150D01*
D81*
X767424Y1009058D02*
Y1065160D01*
X799424Y1010058D02*
Y1067145D01*
X573424Y524044D02*
Y551762D01*
X613424Y524044D02*
Y551762D01*
X664424Y1002951D02*
Y1059053D01*
X632424Y1000966D02*
Y1058053D01*
X82924Y550671D02*
Y606773D01*
X50924Y548686D02*
Y605773D01*
X338429Y970058D02*
X394532D01*
X339429Y938058D02*
X396516D01*
X488419Y965058D02*
X544522D01*
X489419Y933058D02*
X546506D01*
X602327Y593068D02*
X658429D01*
X600343Y625068D02*
X657429D01*
X730904Y426198D02*
X787007D01*
X731904Y394198D02*
X788991D01*
X602434Y324063D02*
Y380165D01*
X634434Y325063D02*
Y382150D01*
X323067Y453478D02*
X379169D01*
X321083Y485478D02*
X378169D01*
X267207Y68648D02*
X323309D01*
X265223Y100648D02*
X322309D01*
X52894Y782993D02*
Y839095D01*
X84894Y783993D02*
Y841080D01*
X37424Y859053D02*
Y915155D01*
X69424Y860053D02*
Y917140D01*
X467124Y486478D02*
X523227D01*
X468124Y454478D02*
X525211D01*
X447000Y799898D02*
Y856000D01*
X415000Y797913D02*
Y855000D01*
X539424Y782961D02*
Y839063D01*
X507424Y780976D02*
Y838063D01*
X495589Y521908D02*
X551692D01*
X496589Y489908D02*
X553676D01*
X730904Y569748D02*
X787007D01*
X731904Y537748D02*
X788991D01*
X403032Y454478D02*
X459134D01*
X401048Y486478D02*
X458134D01*
X377484Y100648D02*
X433587D01*
X378484Y68648D02*
X435571D01*
X542424Y779063D02*
Y835165D01*
X574424Y780063D02*
Y837150D01*
X413414Y503951D02*
Y560053D01*
X381414Y501966D02*
Y559053D01*
X453000Y796000D02*
Y852102D01*
X485000Y797000D02*
Y854087D01*
X346722Y19438D02*
X402824D01*
X344738Y51438D02*
X401824D01*
X759584Y863703D02*
Y919805D01*
X791584Y864703D02*
Y921790D01*
X162424Y869063D02*
Y925165D01*
X194424Y870063D02*
Y927150D01*
X631634Y863703D02*
Y919805D01*
X663634Y864703D02*
Y921790D01*
X568419Y470058D02*
X624522D01*
X569419Y438058D02*
X626506D01*
X153450Y800930D02*
X165450D01*
X153450Y832930D02*
X165450D01*
X50924Y432603D02*
Y488705D01*
X82924Y433603D02*
Y490690D01*
X283463Y569677D02*
Y583457D01*
X269683Y569677D02*
X283463D01*
X228345Y611015D02*
Y624795D01*
X242125D01*
X228345Y569677D02*
X242125D01*
X228345D02*
Y583457D01*
X283463Y611015D02*
Y624795D01*
X269683D02*
X283463D01*
D97*
X194886Y1112790D02*
X250988D01*
X194429Y1075058D02*
X251516D01*
X195870Y1030336D02*
X251973D01*
X195343Y1068068D02*
X252429D01*
X749692Y595520D02*
Y651622D01*
X787424Y595063D02*
Y652150D01*
X269876Y972790D02*
X325978D01*
X269419Y935058D02*
X326506D01*
X675870Y810326D02*
X731973D01*
X675343Y848058D02*
X732429D01*
X437010Y19736D02*
X493113D01*
X436483Y57468D02*
X493569D01*
X433070Y487176D02*
X489173D01*
X432543Y524908D02*
X489629D01*
X85657Y620084D02*
Y676186D01*
X47924Y619556D02*
Y676643D01*
X645746Y428930D02*
X701848D01*
X645289Y391198D02*
X702376D01*
X554268Y610457D02*
Y666559D01*
X592000Y610000D02*
Y667087D01*
X118830Y509023D02*
X175917D01*
X119287Y546755D02*
X175389D01*
%TF.MD5,6b9caba2f7a7f7e74f232cb5925744df*%
M02*
