M48
;Layer_Color=9474304
;FILE_FORMAT=2:5
INCH,LZ
;TYPE=PLATED
T1F00S00C0.01200
T4F00S00C0.03543
T5F00S00C0.08661
T6F00S00C0.10000
%
T01
X0051419Y0012791
X0055664Y0012919
X0067038Y0013843
X0067Y0017141
X0067038Y002044
X0072564Y0018673
X0074011Y00251
X0079703Y00309
X0079605Y0038755
X0083111Y0037083
X0083316Y0042255
X00832Y00454
X008975Y0041247
X0095199
Y0045338
Y0048338
X0098515Y0052395
X0087475Y0053839
X00803Y00589
X0072427Y0059527
X00725Y0047547
X00585Y00385
X0055
X0051419Y004324
X0049785Y00795
Y0086148
X008Y007
X0094309Y0074339
X0100333Y0077767
X01061Y00743
X01197Y00758
X01226Y00734
X0128Y00783
X01312Y00811
X01289Y0063
Y006
X01298Y0048239
X01328
X0144049Y00461
Y00413
X0149375Y0037041
X01494Y0052395
X0154951
X01675Y0055
X016Y007
X0145
X0144049Y0057433
X0119773Y0056157
X01154Y0052403
X01159Y00479
X0112Y00444
X0116283Y0037054
X01211Y00332
X01241
X01271
X01301
X01314Y0018988
Y00152
X01012Y00144
X0095516Y00115
X0095565Y002548
X00898Y00255
X0084075Y00143
X01067Y00223
X0110266Y0062212
X0113266
X0116374Y0062341
X009402Y0062212
X0089932Y0079556
X0175Y007
X0195
Y00425
X01775
X018Y0025
X017Y00225
X016
X0195Y002
X0039937Y0019967
X0036385Y0026055
X0023839Y0031006
X002Y00125
X0005Y002
Y007
X00325
X00345Y0064503
Y006
Y0055158
Y00495
X0037751
X0029718Y0057436
X003656Y00795
Y0086148
X00225Y00825
T04
X0045Y0005
X0055
X0065
X0075
X0085
X0095
X0105
X0115
X0125
X0135
X0145
Y0015
X0155
X0165
X0175
Y0005
X0165
X0155
Y0085
X0165
X0175
X0145
X0135
X0125
X0115
X0105
X0095
X0085
X0075
X0065
X0035Y0005
X0025
T05
X0121085Y0015805
X0188585Y0054805
T06
X019Y001
Y008
X001
Y001
M30
