G04*
G04 #@! TF.GenerationSoftware,Altium Limited,Altium Designer,20.1.11 (218)*
G04*
G04 Layer_Physical_Order=2*
G04 Layer_Color=6736896*
%FSLAX25Y25*%
%MOIN*%
G70*
G04*
G04 #@! TF.SameCoordinates,49FD3369-56E0-4B66-BF1D-E122077B7428*
G04*
G04*
G04 #@! TF.FilePolarity,Positive*
G04*
G01*
G75*
%ADD11C,0.01000*%
%ADD96C,0.01772*%
G36*
X83043Y80296D02*
X82646Y80031D01*
X82538Y79870D01*
X81972Y79818D01*
X81513Y80124D01*
X80972Y80232D01*
X80432Y80124D01*
X79973Y79818D01*
X79667Y79360D01*
X79559Y78819D01*
X79667Y78278D01*
X79973Y77820D01*
X80432Y77513D01*
X80972Y77406D01*
X81513Y77513D01*
X81972Y77820D01*
X82538Y77768D01*
X82646Y77607D01*
X83043Y77342D01*
Y75296D01*
X82646Y75031D01*
X82538Y74870D01*
X81972Y74818D01*
X81513Y75124D01*
X80972Y75232D01*
X80432Y75124D01*
X79973Y74818D01*
X79667Y74360D01*
X79559Y73819D01*
X79667Y73278D01*
X79973Y72820D01*
X80432Y72513D01*
X80972Y72406D01*
X81513Y72513D01*
X81972Y72820D01*
X82538Y72768D01*
X82646Y72607D01*
X83043Y72342D01*
Y70296D01*
X82646Y70031D01*
X82538Y69870D01*
X81972Y69818D01*
X81513Y70124D01*
X80972Y70232D01*
X80432Y70124D01*
X79973Y69818D01*
X79667Y69359D01*
X79559Y68819D01*
X79667Y68278D01*
X79973Y67820D01*
X80432Y67513D01*
X80972Y67406D01*
X81513Y67513D01*
X81972Y67820D01*
X82538Y67768D01*
X82646Y67607D01*
X83043Y67342D01*
Y65296D01*
X82646Y65031D01*
X82538Y64869D01*
X81972Y64818D01*
X81513Y65124D01*
X80972Y65232D01*
X80432Y65124D01*
X79973Y64818D01*
X79667Y64359D01*
X79559Y63819D01*
X79667Y63278D01*
X79973Y62820D01*
X80432Y62513D01*
X80972Y62406D01*
X81513Y62513D01*
X81972Y62820D01*
X82538Y62768D01*
X82646Y62607D01*
X83043Y62342D01*
Y60296D01*
X82646Y60031D01*
X82538Y59869D01*
X81972Y59818D01*
X81513Y60124D01*
X80972Y60232D01*
X80432Y60124D01*
X79973Y59818D01*
X79667Y59360D01*
X79559Y58819D01*
X79667Y58278D01*
X79973Y57820D01*
X80432Y57513D01*
X80972Y57406D01*
X81513Y57513D01*
X81972Y57820D01*
X82538Y57768D01*
X82646Y57607D01*
X83043Y57342D01*
Y55296D01*
X82646Y55031D01*
X82538Y54870D01*
X81972Y54818D01*
X81513Y55124D01*
X80972Y55232D01*
X80432Y55124D01*
X79973Y54818D01*
X79667Y54360D01*
X79559Y53819D01*
X79667Y53278D01*
X79973Y52820D01*
X80432Y52513D01*
X80972Y52406D01*
X81513Y52513D01*
X81972Y52820D01*
X82538Y52768D01*
X82646Y52607D01*
X83043Y52342D01*
Y50296D01*
X82646Y50031D01*
X82538Y49869D01*
X81972Y49818D01*
X81513Y50124D01*
X80972Y50232D01*
X80432Y50124D01*
X79973Y49818D01*
X79667Y49360D01*
X79559Y48819D01*
X79667Y48278D01*
X79973Y47820D01*
X80432Y47513D01*
X80972Y47406D01*
X81513Y47513D01*
X81972Y47820D01*
X82538Y47768D01*
X82646Y47607D01*
X83043Y47342D01*
Y45296D01*
X82646Y45031D01*
X82538Y44870D01*
X81972Y44818D01*
X81513Y45124D01*
X80972Y45232D01*
X80432Y45124D01*
X79973Y44818D01*
X79667Y44359D01*
X79559Y43819D01*
X79667Y43278D01*
X79973Y42820D01*
X80432Y42513D01*
X80972Y42406D01*
X81513Y42513D01*
X81972Y42820D01*
X82538Y42768D01*
X82646Y42607D01*
X83043Y42342D01*
Y40296D01*
X82646Y40031D01*
X82538Y39869D01*
X81972Y39818D01*
X81513Y40124D01*
X80972Y40232D01*
X80432Y40124D01*
X79973Y39818D01*
X79667Y39360D01*
X79559Y38819D01*
X79667Y38278D01*
X79973Y37820D01*
X80432Y37513D01*
X80972Y37406D01*
X81513Y37513D01*
X81972Y37820D01*
X82538Y37768D01*
X82646Y37607D01*
X83043Y37342D01*
Y35296D01*
X82646Y35031D01*
X82538Y34870D01*
X81972Y34818D01*
X81513Y35124D01*
X80972Y35232D01*
X80432Y35124D01*
X79973Y34818D01*
X79667Y34359D01*
X79559Y33819D01*
X79667Y33278D01*
X79973Y32820D01*
X80432Y32513D01*
X80972Y32406D01*
X81513Y32513D01*
X81972Y32820D01*
X82538Y32768D01*
X82646Y32607D01*
X83043Y32342D01*
Y30296D01*
X82646Y30031D01*
X82538Y29869D01*
X81972Y29818D01*
X81513Y30124D01*
X80972Y30232D01*
X80432Y30124D01*
X79973Y29818D01*
X79667Y29359D01*
X79559Y28819D01*
X79667Y28278D01*
X79973Y27820D01*
X80432Y27513D01*
X80972Y27406D01*
X81513Y27513D01*
X81972Y27820D01*
X82538Y27768D01*
X82646Y27607D01*
X83043Y27342D01*
Y25296D01*
X82646Y25031D01*
X82538Y24870D01*
X81972Y24818D01*
X81513Y25124D01*
X80972Y25232D01*
X80432Y25124D01*
X79973Y24818D01*
X79667Y24360D01*
X79559Y23819D01*
X79667Y23278D01*
X79973Y22820D01*
X80432Y22513D01*
X80972Y22406D01*
X81513Y22513D01*
X81972Y22820D01*
X82538Y22768D01*
X82646Y22607D01*
X83043Y22342D01*
Y20296D01*
X82646Y20031D01*
X82538Y19870D01*
X81972Y19818D01*
X81513Y20124D01*
X80972Y20232D01*
X80432Y20124D01*
X79973Y19818D01*
X79667Y19360D01*
X79646Y19251D01*
X79131Y19226D01*
X78966Y19771D01*
X78153Y21291D01*
X77060Y22623D01*
X75727Y23716D01*
X74207Y24529D01*
X72558Y25029D01*
X70842Y25198D01*
X69127Y25029D01*
X67478Y24529D01*
X65958Y23716D01*
X64625Y22623D01*
X63532Y21291D01*
X62719Y19771D01*
X62219Y18121D01*
X62050Y16406D01*
X62219Y14691D01*
X62719Y13041D01*
X63532Y11521D01*
X64625Y10189D01*
X65958Y9095D01*
X67478Y8283D01*
X69127Y7782D01*
X70842Y7614D01*
X72558Y7782D01*
X74207Y8283D01*
X75727Y9095D01*
X77060Y10189D01*
X78153Y11521D01*
X78966Y13041D01*
X79466Y14691D01*
X79635Y16406D01*
X79517Y17603D01*
X79870Y17771D01*
X80000Y17802D01*
X80432Y17513D01*
X80972Y17406D01*
X81513Y17513D01*
X81972Y17820D01*
X82538Y17768D01*
X82646Y17607D01*
X83043Y17342D01*
Y816D01*
X816D01*
Y17342D01*
X1212Y17607D01*
X1355Y17820D01*
X1956D01*
X1956Y17820D01*
X2415Y17513D01*
X2955Y17406D01*
X3496Y17513D01*
X3955Y17820D01*
X4261Y18278D01*
X4368Y18819D01*
X4261Y19360D01*
X3955Y19818D01*
X3496Y20124D01*
X2955Y20232D01*
X2415Y20124D01*
X1956Y19818D01*
X1956Y19817D01*
X1355D01*
X1212Y20031D01*
X816Y20296D01*
Y22342D01*
X1212Y22607D01*
X1355Y22820D01*
X1956D01*
X1956Y22820D01*
X2415Y22513D01*
X2955Y22406D01*
X3496Y22513D01*
X3955Y22820D01*
X4261Y23278D01*
X4368Y23819D01*
X4261Y24360D01*
X3955Y24818D01*
X3496Y25124D01*
X2955Y25232D01*
X2415Y25124D01*
X1956Y24818D01*
X1956Y24817D01*
X1355D01*
X1212Y25031D01*
X816Y25296D01*
Y27342D01*
X1212Y27607D01*
X1355Y27820D01*
X1956D01*
X1956Y27820D01*
X2415Y27513D01*
X2955Y27406D01*
X3496Y27513D01*
X3955Y27820D01*
X4261Y28278D01*
X4368Y28819D01*
X4261Y29359D01*
X3955Y29818D01*
X3496Y30124D01*
X2955Y30232D01*
X2415Y30124D01*
X1956Y29818D01*
X1956Y29818D01*
X1355D01*
X1212Y30031D01*
X816Y30296D01*
Y32342D01*
X1212Y32607D01*
X1355Y32820D01*
X1956D01*
X1956Y32820D01*
X2415Y32513D01*
X2955Y32406D01*
X3496Y32513D01*
X3955Y32820D01*
X4261Y33278D01*
X4368Y33819D01*
X4261Y34359D01*
X3955Y34818D01*
X3496Y35124D01*
X2955Y35232D01*
X2415Y35124D01*
X1956Y34818D01*
X1956Y34817D01*
X1355D01*
X1212Y35031D01*
X816Y35296D01*
Y37342D01*
X1212Y37607D01*
X1355Y37820D01*
X1956D01*
X1956Y37820D01*
X2415Y37513D01*
X2955Y37406D01*
X3496Y37513D01*
X3955Y37820D01*
X4261Y38278D01*
X4368Y38819D01*
X4261Y39360D01*
X3955Y39818D01*
X3496Y40124D01*
X2955Y40232D01*
X2415Y40124D01*
X1956Y39818D01*
X1956Y39818D01*
X1355D01*
X1212Y40031D01*
X816Y40296D01*
Y42342D01*
X1212Y42607D01*
X1355Y42820D01*
X1956D01*
X1956Y42820D01*
X2415Y42513D01*
X2955Y42406D01*
X3496Y42513D01*
X3955Y42820D01*
X4261Y43278D01*
X4368Y43819D01*
X4261Y44359D01*
X3955Y44818D01*
X3496Y45124D01*
X2955Y45232D01*
X2415Y45124D01*
X1956Y44818D01*
X1956Y44818D01*
X1355D01*
X1212Y45031D01*
X816Y45296D01*
Y47342D01*
X1212Y47607D01*
X1355Y47820D01*
X1956D01*
X1956Y47820D01*
X2415Y47513D01*
X2955Y47406D01*
X3496Y47513D01*
X3955Y47820D01*
X4261Y48278D01*
X4368Y48819D01*
X4261Y49360D01*
X3955Y49818D01*
X3496Y50124D01*
X2955Y50232D01*
X2415Y50124D01*
X1956Y49818D01*
X1956Y49817D01*
X1355D01*
X1212Y50031D01*
X816Y50296D01*
Y52342D01*
X1212Y52607D01*
X1355Y52820D01*
X1956D01*
X1956Y52820D01*
X2415Y52513D01*
X2955Y52406D01*
X3496Y52513D01*
X3955Y52820D01*
X4261Y53278D01*
X4368Y53819D01*
X4261Y54360D01*
X3955Y54818D01*
X3496Y55124D01*
X2955Y55232D01*
X2415Y55124D01*
X1956Y54818D01*
X1956Y54817D01*
X1355D01*
X1212Y55031D01*
X816Y55296D01*
Y57342D01*
X1212Y57607D01*
X1355Y57820D01*
X1956D01*
X1956Y57820D01*
X2415Y57513D01*
X2955Y57406D01*
X3496Y57513D01*
X3955Y57820D01*
X4261Y58278D01*
X4368Y58819D01*
X4261Y59360D01*
X3955Y59818D01*
X3496Y60124D01*
X2955Y60232D01*
X2415Y60124D01*
X1956Y59818D01*
X1956Y59817D01*
X1355D01*
X1212Y60031D01*
X816Y60296D01*
Y62342D01*
X1212Y62607D01*
X1355Y62820D01*
X1956D01*
X1956Y62820D01*
X2415Y62513D01*
X2955Y62406D01*
X3496Y62513D01*
X3955Y62820D01*
X4261Y63278D01*
X4368Y63819D01*
X4261Y64359D01*
X3955Y64818D01*
X3496Y65124D01*
X2955Y65232D01*
X2415Y65124D01*
X1956Y64818D01*
X1956Y64818D01*
X1355D01*
X1212Y65031D01*
X816Y65296D01*
Y67342D01*
X1212Y67607D01*
X1355Y67820D01*
X1956D01*
X1956Y67820D01*
X2415Y67513D01*
X2955Y67406D01*
X3496Y67513D01*
X3955Y67820D01*
X4261Y68278D01*
X4368Y68819D01*
X4261Y69359D01*
X3955Y69818D01*
X3496Y70124D01*
X2955Y70232D01*
X2415Y70124D01*
X1956Y69818D01*
X1956Y69818D01*
X1355D01*
X1212Y70031D01*
X816Y70296D01*
Y72342D01*
X1212Y72607D01*
X1355Y72820D01*
X1956D01*
X1956Y72820D01*
X2415Y72513D01*
X2955Y72406D01*
X3496Y72513D01*
X3955Y72820D01*
X4261Y73278D01*
X4368Y73819D01*
X4261Y74360D01*
X3955Y74818D01*
X3496Y75124D01*
X2955Y75232D01*
X2415Y75124D01*
X1956Y74818D01*
X1956Y74818D01*
X1355D01*
X1212Y75031D01*
X816Y75296D01*
Y77342D01*
X1212Y77607D01*
X1355Y77820D01*
X1956D01*
X1956Y77820D01*
X2415Y77513D01*
X2955Y77406D01*
X3496Y77513D01*
X3955Y77820D01*
X4261Y78278D01*
X4368Y78819D01*
X4261Y79360D01*
X3955Y79818D01*
X3496Y80124D01*
X2955Y80232D01*
X2415Y80124D01*
X1956Y79818D01*
X1956Y79817D01*
X1355D01*
X1212Y80031D01*
X816Y80296D01*
Y122413D01*
X83043D01*
Y80296D01*
D02*
G37*
%LPC*%
G36*
X15157Y118819D02*
X14617Y118711D01*
X14158Y118405D01*
X13852Y117947D01*
X13745Y117406D01*
X13852Y116865D01*
X14158Y116407D01*
X14617Y116100D01*
X15157Y115993D01*
X15698Y116100D01*
X16157Y116407D01*
X16463Y116865D01*
X16570Y117406D01*
X16463Y117947D01*
X16157Y118405D01*
X15698Y118711D01*
X15157Y118819D01*
D02*
G37*
G36*
X10039D02*
X9499Y118711D01*
X9040Y118405D01*
X8734Y117947D01*
X8626Y117406D01*
X8734Y116865D01*
X9040Y116407D01*
X9499Y116100D01*
X10039Y115993D01*
X10580Y116100D01*
X11039Y116407D01*
X11345Y116865D01*
X11452Y117406D01*
X11345Y117947D01*
X11039Y118405D01*
X10580Y118711D01*
X10039Y118819D01*
D02*
G37*
G36*
X48628Y115262D02*
X48088Y115155D01*
X47629Y114848D01*
X47323Y114390D01*
X46749Y114068D01*
X46576Y114102D01*
X46035Y113995D01*
X45577Y113688D01*
X45564Y113669D01*
X45313Y113482D01*
X44854Y113788D01*
X44313Y113896D01*
X43773Y113788D01*
X43314Y113482D01*
X43008Y113024D01*
X42900Y112483D01*
X43008Y111942D01*
X43314Y111484D01*
X43773Y111178D01*
X44313Y111070D01*
X44854Y111178D01*
X45313Y111484D01*
X45804Y111538D01*
X46035Y111384D01*
X46576Y111276D01*
X47117Y111384D01*
X47575Y111690D01*
X47881Y112148D01*
X48455Y112471D01*
X48628Y112436D01*
X49169Y112544D01*
X49609Y112838D01*
X49901Y112401D01*
X50359Y112095D01*
X50900Y111987D01*
X51129Y112033D01*
X51449Y112080D01*
X51673Y111670D01*
X51695Y111559D01*
X52001Y111101D01*
X52459Y110795D01*
X53000Y110687D01*
X53541Y110795D01*
X53999Y111101D01*
X54305Y111559D01*
X54413Y112100D01*
X54305Y112641D01*
X53999Y113099D01*
X53541Y113405D01*
X53000Y113513D01*
X52771Y113467D01*
X52451Y113420D01*
X52227Y113830D01*
X52205Y113941D01*
X51899Y114399D01*
X51441Y114705D01*
X50900Y114813D01*
X50359Y114705D01*
X49919Y114411D01*
X49628Y114848D01*
X49169Y115155D01*
X48628Y115262D01*
D02*
G37*
G36*
X39370Y113819D02*
X38830Y113711D01*
X38371Y113405D01*
X38065Y112946D01*
X38050Y112873D01*
X37541D01*
X37526Y112946D01*
X37220Y113405D01*
X36761Y113711D01*
X36220Y113819D01*
X35680Y113711D01*
X35221Y113405D01*
X34915Y112946D01*
X34808Y112406D01*
X34915Y111865D01*
X35221Y111407D01*
X35680Y111100D01*
X36220Y110993D01*
X36761Y111100D01*
X37220Y111407D01*
X37526Y111865D01*
X37541Y111939D01*
X38050D01*
X38065Y111865D01*
X38371Y111407D01*
X38830Y111100D01*
X39370Y110993D01*
X39911Y111100D01*
X40370Y111407D01*
X40676Y111865D01*
X40783Y112406D01*
X40676Y112946D01*
X40370Y113405D01*
X39911Y113711D01*
X39370Y113819D01*
D02*
G37*
G36*
X12450Y111711D02*
X11910Y111603D01*
X11451Y111297D01*
X11145Y110839D01*
X11098Y110604D01*
X11009Y110573D01*
X10578Y110551D01*
X10342Y110905D01*
X9883Y111211D01*
X9342Y111319D01*
X8802Y111211D01*
X8343Y110905D01*
X8037Y110447D01*
X7930Y109906D01*
X8037Y109365D01*
X8343Y108907D01*
X8802Y108600D01*
X9342Y108493D01*
X9883Y108600D01*
X10342Y108907D01*
X10648Y109365D01*
X10695Y109600D01*
X10783Y109631D01*
X11215Y109652D01*
X11451Y109299D01*
X11910Y108993D01*
X12450Y108885D01*
X12991Y108993D01*
X13449Y109299D01*
X13756Y109757D01*
X13863Y110298D01*
X13756Y110839D01*
X13449Y111297D01*
X12991Y111603D01*
X12450Y111711D01*
D02*
G37*
G36*
X64828Y111713D02*
X64287Y111605D01*
X63829Y111299D01*
X63522Y110841D01*
X63415Y110300D01*
X63522Y109759D01*
X63829Y109301D01*
X64287Y108995D01*
X64828Y108887D01*
X65369Y108995D01*
X65827Y109301D01*
X66133Y109759D01*
X66241Y110300D01*
X66133Y110841D01*
X65827Y111299D01*
X65369Y111605D01*
X64828Y111713D01*
D02*
G37*
G36*
X27342Y107819D02*
X26802Y107711D01*
X26343Y107405D01*
X26037Y106947D01*
X25929Y106406D01*
X26037Y105865D01*
X26343Y105407D01*
X26802Y105100D01*
X27342Y104993D01*
X27883Y105100D01*
X28342Y105407D01*
X28648Y105865D01*
X28755Y106406D01*
X28648Y106947D01*
X28342Y107405D01*
X27883Y107711D01*
X27342Y107819D01*
D02*
G37*
G36*
X78342Y109320D02*
X77802Y109212D01*
X77343Y108906D01*
X77037Y108448D01*
X76929Y107907D01*
X77037Y107366D01*
X77343Y106908D01*
X77802Y106601D01*
X78342Y106494D01*
X78883Y106601D01*
X78951Y106647D01*
X79311Y106286D01*
X79266Y106219D01*
X79159Y105678D01*
X79266Y105137D01*
X79572Y104679D01*
X80031Y104372D01*
X80571Y104265D01*
X81112Y104372D01*
X81571Y104679D01*
X81877Y105137D01*
X81984Y105678D01*
X81877Y106219D01*
X81571Y106677D01*
X81112Y106983D01*
X80571Y107091D01*
X80031Y106983D01*
X79963Y106938D01*
X79603Y107299D01*
X79648Y107366D01*
X79755Y107907D01*
X79648Y108448D01*
X79342Y108906D01*
X78883Y109212D01*
X78342Y109320D01*
D02*
G37*
G36*
X18342Y106320D02*
X17802Y106212D01*
X17343Y105906D01*
X17037Y105447D01*
X16929Y104907D01*
X17037Y104366D01*
X17343Y103908D01*
X17802Y103601D01*
X18342Y103494D01*
X18883Y103601D01*
X19342Y103908D01*
X19648Y104366D01*
X19755Y104907D01*
X19648Y105447D01*
X19342Y105906D01*
X18883Y106212D01*
X18342Y106320D01*
D02*
G37*
G36*
X33062Y105159D02*
X32522Y105051D01*
X32063Y104745D01*
X31757Y104287D01*
X31650Y103746D01*
X31757Y103205D01*
X32063Y102747D01*
X32522Y102440D01*
X33062Y102333D01*
X33603Y102440D01*
X34062Y102747D01*
X34368Y103205D01*
X34475Y103746D01*
X34368Y104287D01*
X34062Y104745D01*
X33603Y105051D01*
X33062Y105159D01*
D02*
G37*
G36*
X37842Y104819D02*
X37302Y104711D01*
X36843Y104405D01*
X36537Y103946D01*
X36430Y103406D01*
X36537Y102865D01*
X36843Y102407D01*
X37302Y102100D01*
X37842Y101993D01*
X38383Y102100D01*
X38842Y102407D01*
X39148Y102865D01*
X39255Y103406D01*
X39148Y103946D01*
X38842Y104405D01*
X38383Y104711D01*
X37842Y104819D01*
D02*
G37*
G36*
X45700Y106513D02*
X45159Y106405D01*
X44701Y106099D01*
X44395Y105641D01*
X44287Y105100D01*
X44395Y104559D01*
X44701Y104101D01*
X45159Y103795D01*
X45487Y103729D01*
X45821Y103475D01*
X45962Y103229D01*
X46037Y102852D01*
X46343Y102393D01*
X46802Y102087D01*
X47342Y101979D01*
X47883Y102087D01*
X48342Y102393D01*
X48648Y102852D01*
X48755Y103393D01*
X48648Y103933D01*
X48342Y104392D01*
X47883Y104698D01*
X47556Y104763D01*
X47221Y105018D01*
X47080Y105263D01*
X47005Y105641D01*
X46699Y106099D01*
X46241Y106405D01*
X45700Y106513D01*
D02*
G37*
G36*
X41242Y104719D02*
X40702Y104611D01*
X40243Y104305D01*
X39937Y103847D01*
X39829Y103306D01*
X39937Y102765D01*
X40243Y102307D01*
X40702Y102000D01*
X41242Y101893D01*
X41783Y102000D01*
X42242Y102307D01*
X42548Y102765D01*
X42655Y103306D01*
X42548Y103847D01*
X42242Y104305D01*
X41783Y104611D01*
X41242Y104719D01*
D02*
G37*
G36*
X58342Y102319D02*
X57802Y102211D01*
X57343Y101905D01*
X57037Y101446D01*
X56929Y100906D01*
X57037Y100365D01*
X57343Y99907D01*
X57802Y99600D01*
X58342Y99493D01*
X58883Y99600D01*
X59342Y99907D01*
X59648Y100365D01*
X59755Y100906D01*
X59648Y101446D01*
X59342Y101905D01*
X58883Y102211D01*
X58342Y102319D01*
D02*
G37*
G36*
X25342Y100759D02*
X24802Y100651D01*
X24343Y100345D01*
X24037Y99887D01*
X23988Y99639D01*
X23831Y99331D01*
X23445Y99276D01*
X23228Y99319D01*
X22688Y99211D01*
X22229Y98905D01*
X21923Y98447D01*
X21815Y97906D01*
X21923Y97365D01*
X22229Y96907D01*
X22688Y96600D01*
X23228Y96493D01*
X23769Y96600D01*
X24228Y96907D01*
X24534Y97365D01*
X24583Y97613D01*
X24740Y97920D01*
X25126Y97976D01*
X25342Y97933D01*
X25883Y98040D01*
X26344Y97747D01*
X26571Y97407D01*
X27030Y97100D01*
X27570Y96993D01*
X28111Y97100D01*
X28570Y97407D01*
X28876Y97865D01*
X28983Y98406D01*
X28876Y98946D01*
X28570Y99405D01*
X28111Y99711D01*
X27570Y99819D01*
X27030Y99711D01*
X26569Y100005D01*
X26342Y100345D01*
X25883Y100651D01*
X25342Y100759D01*
D02*
G37*
G36*
X48642Y99309D02*
X48102Y99201D01*
X47870Y99046D01*
X47506Y98936D01*
X47143Y99046D01*
X46911Y99201D01*
X46370Y99309D01*
X45830Y99201D01*
X45371Y98895D01*
X45065Y98436D01*
X44958Y97896D01*
X45065Y97355D01*
X45371Y96897D01*
X45830Y96590D01*
X46370Y96483D01*
X46911Y96590D01*
X47143Y96745D01*
X47506Y96855D01*
X47870Y96745D01*
X48102Y96590D01*
X48642Y96483D01*
X49183Y96590D01*
X49642Y96897D01*
X49948Y97355D01*
X50055Y97896D01*
X49948Y98436D01*
X49642Y98895D01*
X49183Y99201D01*
X48642Y99309D01*
D02*
G37*
G36*
X80342Y100319D02*
X79802Y100211D01*
X79343Y99905D01*
X79037Y99446D01*
X78930Y98906D01*
X79037Y98365D01*
X79343Y97907D01*
X79802Y97600D01*
X80342Y97493D01*
X80883Y97600D01*
X81342Y97907D01*
X81648Y98365D01*
X81755Y98906D01*
X81648Y99446D01*
X81342Y99905D01*
X80883Y100211D01*
X80342Y100319D01*
D02*
G37*
G36*
X43000Y100291D02*
X42459Y100183D01*
X42001Y99877D01*
X41695Y99418D01*
X41587Y98878D01*
X41695Y98337D01*
X42001Y97878D01*
X42459Y97572D01*
X43000Y97465D01*
X43541Y97572D01*
X43999Y97878D01*
X44305Y98337D01*
X44413Y98878D01*
X44305Y99418D01*
X43999Y99877D01*
X43541Y100183D01*
X43000Y100291D01*
D02*
G37*
G36*
X52492Y100119D02*
X51952Y100011D01*
X51493Y99705D01*
X51187Y99247D01*
X51079Y98706D01*
X51187Y98165D01*
X51493Y97707D01*
X51952Y97400D01*
X52492Y97293D01*
X53033Y97400D01*
X53492Y97707D01*
X53798Y98165D01*
X53905Y98706D01*
X53798Y99247D01*
X53492Y99705D01*
X53033Y100011D01*
X52492Y100119D01*
D02*
G37*
G36*
X39681Y99979D02*
X39140Y99871D01*
X38682Y99565D01*
X38376Y99107D01*
X38268Y98566D01*
X38376Y98025D01*
X38682Y97567D01*
X39140Y97260D01*
X39681Y97153D01*
X40222Y97260D01*
X40680Y97567D01*
X40987Y98025D01*
X41094Y98566D01*
X40987Y99107D01*
X40680Y99565D01*
X40222Y99871D01*
X39681Y99979D01*
D02*
G37*
G36*
X31102Y99819D02*
X30562Y99711D01*
X30103Y99405D01*
X29797Y98946D01*
X29689Y98406D01*
X29797Y97865D01*
X30103Y97407D01*
X30562Y97100D01*
X31102Y96993D01*
X31643Y97100D01*
X32102Y97407D01*
X32408Y97865D01*
X32515Y98406D01*
X32408Y98946D01*
X32102Y99405D01*
X31643Y99711D01*
X31102Y99819D01*
D02*
G37*
G36*
X35374Y99673D02*
X34833Y99566D01*
X34375Y99259D01*
X34069Y98801D01*
X33961Y98260D01*
X34069Y97719D01*
X34375Y97261D01*
X34833Y96955D01*
X35374Y96847D01*
X35915Y96955D01*
X36373Y97261D01*
X36680Y97719D01*
X36787Y98260D01*
X36680Y98801D01*
X36373Y99259D01*
X35915Y99566D01*
X35374Y99673D01*
D02*
G37*
G36*
X56142Y99619D02*
X55602Y99511D01*
X55143Y99205D01*
X54837Y98747D01*
X54729Y98206D01*
X54837Y97665D01*
X55143Y97207D01*
X55602Y96900D01*
X56142Y96793D01*
X56683Y96900D01*
X57142Y97207D01*
X57448Y97665D01*
X57555Y98206D01*
X57448Y98747D01*
X57142Y99205D01*
X56683Y99511D01*
X56142Y99619D01*
D02*
G37*
G36*
X60693Y99256D02*
X60152Y99148D01*
X59694Y98842D01*
X59388Y98384D01*
X59280Y97843D01*
X59388Y97302D01*
X59694Y96844D01*
X60152Y96538D01*
X60693Y96430D01*
X61234Y96538D01*
X61692Y96844D01*
X61999Y97302D01*
X62106Y97843D01*
X61999Y98384D01*
X61692Y98842D01*
X61234Y99148D01*
X60693Y99256D01*
D02*
G37*
G36*
X15751Y94462D02*
X15210Y94355D01*
X14752Y94048D01*
X14445Y93590D01*
X14338Y93049D01*
X14445Y92508D01*
X14752Y92050D01*
X15210Y91744D01*
X15751Y91636D01*
X16292Y91744D01*
X16750Y92050D01*
X17056Y92508D01*
X17164Y93049D01*
X17056Y93590D01*
X16750Y94048D01*
X16292Y94355D01*
X15751Y94462D01*
D02*
G37*
G36*
X11782Y94229D02*
X11242Y94121D01*
X10783Y93815D01*
X10477Y93357D01*
X10369Y92816D01*
X10477Y92275D01*
X10783Y91817D01*
X11242Y91510D01*
X11782Y91403D01*
X12323Y91510D01*
X12782Y91817D01*
X13088Y92275D01*
X13195Y92816D01*
X13088Y93357D01*
X12782Y93815D01*
X12323Y94121D01*
X11782Y94229D01*
D02*
G37*
G36*
X58558Y93319D02*
X58018Y93211D01*
X57559Y92905D01*
X57253Y92447D01*
X57146Y91906D01*
X57253Y91365D01*
X57559Y90907D01*
X58018Y90600D01*
X58558Y90493D01*
X59099Y90600D01*
X59558Y90907D01*
X59864Y91365D01*
X59971Y91906D01*
X59864Y92447D01*
X59558Y92905D01*
X59099Y93211D01*
X58558Y93319D01*
D02*
G37*
G36*
X49417Y93314D02*
X48877Y93206D01*
X48418Y92900D01*
X48112Y92441D01*
X48004Y91901D01*
X48112Y91360D01*
X48418Y90902D01*
X48877Y90595D01*
X49417Y90488D01*
X49958Y90595D01*
X50417Y90902D01*
X50723Y91360D01*
X50830Y91901D01*
X50723Y92441D01*
X50417Y92900D01*
X49958Y93206D01*
X49417Y93314D01*
D02*
G37*
G36*
X61909Y92555D02*
X61369Y92447D01*
X60910Y92141D01*
X60604Y91682D01*
X60496Y91142D01*
X60604Y90601D01*
X60910Y90143D01*
X61369Y89836D01*
X61909Y89729D01*
X62450Y89836D01*
X62909Y90143D01*
X63215Y90601D01*
X63322Y91142D01*
X63215Y91682D01*
X62909Y92141D01*
X62450Y92447D01*
X61909Y92555D01*
D02*
G37*
G36*
X80342Y92319D02*
X79802Y92211D01*
X79343Y91905D01*
X79037Y91447D01*
X78930Y90906D01*
X79037Y90365D01*
X79343Y89907D01*
X79802Y89600D01*
X80342Y89493D01*
X80883Y89600D01*
X81342Y89907D01*
X81648Y90365D01*
X81755Y90906D01*
X81648Y91447D01*
X81342Y91905D01*
X80883Y92211D01*
X80342Y92319D01*
D02*
G37*
G36*
X3575Y92090D02*
X3034Y91982D01*
X2576Y91676D01*
X2269Y91217D01*
X2162Y90677D01*
X2269Y90136D01*
X2576Y89678D01*
X3034Y89371D01*
X3575Y89264D01*
X4115Y89371D01*
X4574Y89678D01*
X4880Y90136D01*
X4988Y90677D01*
X4880Y91217D01*
X4574Y91676D01*
X4115Y91982D01*
X3575Y92090D01*
D02*
G37*
G36*
X54603Y90950D02*
X54063Y90842D01*
X53604Y90536D01*
X53298Y90078D01*
X53190Y89537D01*
X53298Y88996D01*
X53604Y88538D01*
X54063Y88231D01*
X54603Y88124D01*
X55144Y88231D01*
X55603Y88538D01*
X55909Y88996D01*
X56016Y89537D01*
X55909Y90078D01*
X55603Y90536D01*
X55144Y90842D01*
X54603Y90950D01*
D02*
G37*
G36*
X43782Y93409D02*
X43242Y93301D01*
X42783Y92995D01*
X42477Y92536D01*
X42369Y91996D01*
X42477Y91455D01*
X42783Y90997D01*
X42689Y90458D01*
X42601Y90399D01*
X42295Y89941D01*
X42187Y89400D01*
X42295Y88859D01*
X42601Y88401D01*
X43059Y88095D01*
X43600Y87987D01*
X44141Y88095D01*
X44599Y88401D01*
X44905Y88859D01*
X45013Y89400D01*
X44905Y89941D01*
X44599Y90399D01*
X44693Y90938D01*
X44782Y90997D01*
X45088Y91455D01*
X45195Y91996D01*
X45088Y92536D01*
X44782Y92995D01*
X44323Y93301D01*
X43782Y93409D01*
D02*
G37*
G36*
X50200Y87413D02*
X49659Y87305D01*
X49201Y86999D01*
X48895Y86541D01*
X48787Y86000D01*
X48895Y85459D01*
X49201Y85001D01*
X49659Y84695D01*
X50200Y84587D01*
X50741Y84695D01*
X51199Y85001D01*
X51505Y85459D01*
X51613Y86000D01*
X51505Y86541D01*
X51199Y86999D01*
X50741Y87305D01*
X50200Y87413D01*
D02*
G37*
G36*
X71500Y86913D02*
X70959Y86805D01*
X70501Y86499D01*
X70195Y86041D01*
X70087Y85500D01*
X70195Y84959D01*
X70501Y84501D01*
X70959Y84195D01*
X71500Y84087D01*
X72041Y84195D01*
X72499Y84501D01*
X72805Y84959D01*
X72913Y85500D01*
X72805Y86041D01*
X72499Y86499D01*
X72041Y86805D01*
X71500Y86913D01*
D02*
G37*
G36*
X65842Y85819D02*
X65302Y85711D01*
X64843Y85405D01*
X64537Y84947D01*
X64429Y84406D01*
X64537Y83865D01*
X64843Y83407D01*
X65302Y83100D01*
X65842Y82993D01*
X66383Y83100D01*
X66842Y83407D01*
X67148Y83865D01*
X67255Y84406D01*
X67148Y84947D01*
X66842Y85405D01*
X66383Y85711D01*
X65842Y85819D01*
D02*
G37*
G36*
X74842Y84319D02*
X74302Y84211D01*
X73843Y83905D01*
X73537Y83447D01*
X73430Y82906D01*
X73537Y82365D01*
X73843Y81907D01*
X74302Y81600D01*
X74842Y81493D01*
X75383Y81600D01*
X75842Y81907D01*
X76148Y82365D01*
X76255Y82906D01*
X76148Y83447D01*
X75842Y83905D01*
X75383Y84211D01*
X74842Y84319D01*
D02*
G37*
G36*
X49500Y82213D02*
X48959Y82105D01*
X48501Y81799D01*
X48195Y81341D01*
X48087Y80800D01*
X48195Y80259D01*
X48501Y79801D01*
X48959Y79495D01*
X49500Y79387D01*
X50041Y79495D01*
X50499Y79801D01*
X50805Y80259D01*
X50913Y80800D01*
X50805Y81341D01*
X50499Y81799D01*
X50041Y82105D01*
X49500Y82213D01*
D02*
G37*
G36*
X15464Y80540D02*
X14923Y80432D01*
X14465Y80126D01*
X14159Y79667D01*
X14051Y79127D01*
X14159Y78586D01*
X14465Y78127D01*
X14923Y77821D01*
X15464Y77714D01*
X16005Y77821D01*
X16463Y78127D01*
X16770Y78586D01*
X16877Y79127D01*
X16770Y79667D01*
X16463Y80126D01*
X16005Y80432D01*
X15464Y80540D01*
D02*
G37*
G36*
X58264Y80520D02*
X57723Y80412D01*
X57265Y80106D01*
X56959Y79647D01*
X56851Y79107D01*
X56959Y78566D01*
X57265Y78108D01*
X57723Y77801D01*
X58264Y77694D01*
X58805Y77801D01*
X59263Y78108D01*
X59570Y78566D01*
X59677Y79107D01*
X59570Y79647D01*
X59263Y80106D01*
X58805Y80412D01*
X58264Y80520D01*
D02*
G37*
G36*
X9055Y79760D02*
X8515Y79652D01*
X8056Y79346D01*
X7750Y78887D01*
X7643Y78347D01*
X7750Y77806D01*
X8056Y77348D01*
X8515Y77041D01*
X9055Y76934D01*
X9596Y77041D01*
X10055Y77348D01*
X10361Y77806D01*
X10468Y78347D01*
X10361Y78887D01*
X10055Y79346D01*
X9596Y79652D01*
X9055Y79760D01*
D02*
G37*
G36*
X25197Y93319D02*
X24657Y93211D01*
X24198Y92905D01*
X23892Y92447D01*
X23785Y91906D01*
X23892Y91365D01*
X24198Y90907D01*
X24657Y90600D01*
X25197Y90493D01*
X25317Y90517D01*
X25501Y90282D01*
X25572Y90057D01*
X24532Y88791D01*
X23719Y87270D01*
X23219Y85621D01*
X23050Y83906D01*
X23219Y82191D01*
X23719Y80541D01*
X24532Y79021D01*
X25625Y77689D01*
X26958Y76595D01*
X28478Y75783D01*
X30127Y75282D01*
X31188Y75178D01*
X31261Y75023D01*
X31378Y74657D01*
X31300Y74266D01*
X31063Y74097D01*
X30820Y73986D01*
X30641Y74105D01*
X30100Y74213D01*
X29559Y74105D01*
X29101Y73799D01*
X28795Y73341D01*
X28687Y72800D01*
X28795Y72259D01*
X29101Y71801D01*
X29559Y71495D01*
X30100Y71387D01*
X30641Y71495D01*
X31099Y71801D01*
X31405Y72259D01*
X31500Y72734D01*
X31737Y72903D01*
X31980Y73014D01*
X32159Y72895D01*
X32700Y72787D01*
X33241Y72895D01*
X33699Y73201D01*
X34005Y73659D01*
X34113Y74200D01*
X34005Y74741D01*
X33919Y74870D01*
X34129Y75456D01*
X35207Y75783D01*
X36727Y76595D01*
X38060Y77689D01*
X38096Y77733D01*
X38406Y77652D01*
X38592Y77549D01*
X38688Y77066D01*
X38994Y76608D01*
X39453Y76301D01*
X39993Y76194D01*
X40534Y76301D01*
X40993Y76608D01*
X41299Y77066D01*
X41406Y77607D01*
X41299Y78147D01*
X40993Y78606D01*
X40534Y78912D01*
X39993Y79020D01*
X39687Y78958D01*
X39357Y79403D01*
X39966Y80541D01*
X40466Y82191D01*
X40635Y83906D01*
X40466Y85621D01*
X39966Y87270D01*
X39153Y88791D01*
X38060Y90123D01*
X36727Y91216D01*
X35207Y92029D01*
X33558Y92529D01*
X31842Y92698D01*
X30127Y92529D01*
X28478Y92029D01*
X26960Y91217D01*
X26951Y91221D01*
X26533Y91514D01*
X26610Y91906D01*
X26503Y92447D01*
X26197Y92905D01*
X25738Y93211D01*
X25197Y93319D01*
D02*
G37*
G36*
X55764Y76120D02*
X55224Y76012D01*
X54765Y75706D01*
X54586Y75437D01*
X54033Y75205D01*
X53492Y75313D01*
X52952Y75205D01*
X52493Y74899D01*
X52490Y74895D01*
X51802Y74764D01*
X51741Y74805D01*
X51200Y74913D01*
X50659Y74805D01*
X50201Y74499D01*
X49895Y74041D01*
X49787Y73500D01*
X49895Y72959D01*
X50201Y72501D01*
X50659Y72195D01*
X51200Y72087D01*
X51741Y72195D01*
X52199Y72501D01*
X52202Y72505D01*
X52890Y72636D01*
X52952Y72595D01*
X53492Y72487D01*
X54033Y72595D01*
X54492Y72901D01*
X54671Y73169D01*
X55224Y73401D01*
X55764Y73294D01*
X56305Y73401D01*
X56763Y73708D01*
X57070Y74166D01*
X57177Y74707D01*
X57070Y75247D01*
X56763Y75706D01*
X56305Y76012D01*
X55764Y76120D01*
D02*
G37*
G36*
X70700Y77413D02*
X70159Y77305D01*
X69701Y76999D01*
X69395Y76541D01*
X69287Y76000D01*
X69395Y75459D01*
X69701Y75001D01*
X70159Y74695D01*
X70700Y74587D01*
X71241Y74695D01*
X71699Y75001D01*
X72005Y75459D01*
X72113Y76000D01*
X72005Y76541D01*
X71699Y76999D01*
X71241Y77305D01*
X70700Y77413D01*
D02*
G37*
G36*
X59064Y77013D02*
X58523Y76905D01*
X58065Y76599D01*
X57759Y76141D01*
X57651Y75600D01*
X57759Y75059D01*
X58065Y74601D01*
X58523Y74295D01*
X59064Y74187D01*
X59605Y74295D01*
X60063Y74601D01*
X60370Y75059D01*
X60477Y75600D01*
X60370Y76141D01*
X60063Y76599D01*
X59605Y76905D01*
X59064Y77013D01*
D02*
G37*
G36*
X75342Y76319D02*
X74802Y76211D01*
X74343Y75905D01*
X74037Y75446D01*
X73930Y74906D01*
X74037Y74365D01*
X74343Y73907D01*
X74802Y73600D01*
X75342Y73493D01*
X75883Y73600D01*
X76342Y73907D01*
X76648Y74365D01*
X76755Y74906D01*
X76648Y75446D01*
X76342Y75905D01*
X75883Y76211D01*
X75342Y76319D01*
D02*
G37*
G36*
X65047Y77455D02*
X64072Y77261D01*
X63245Y76708D01*
X62692Y75881D01*
X62498Y74906D01*
X62692Y73930D01*
X63245Y73103D01*
X64072Y72551D01*
X65047Y72357D01*
X66023Y72551D01*
X66850Y73103D01*
X67402Y73930D01*
X67596Y74906D01*
X67402Y75881D01*
X66850Y76708D01*
X66023Y77261D01*
X65047Y77455D01*
D02*
G37*
G36*
X59064Y72213D02*
X58523Y72105D01*
X58065Y71799D01*
X57759Y71341D01*
X57651Y70800D01*
X57702Y70543D01*
X57301Y70113D01*
X57300Y70113D01*
X56759Y70005D01*
X56301Y69699D01*
X55995Y69241D01*
X55887Y68700D01*
X55995Y68159D01*
X56301Y67701D01*
X56759Y67395D01*
X57300Y67287D01*
X57841Y67395D01*
X58299Y67701D01*
X58605Y68159D01*
X58713Y68700D01*
X58662Y68957D01*
X59063Y69387D01*
X59064Y69387D01*
X59605Y69495D01*
X60063Y69801D01*
X60370Y70259D01*
X60477Y70800D01*
X60370Y71341D01*
X60063Y71799D01*
X59605Y72105D01*
X59064Y72213D01*
D02*
G37*
G36*
X75299Y72776D02*
X74759Y72668D01*
X74300Y72362D01*
X73994Y71904D01*
X73887Y71363D01*
X73994Y70822D01*
X74300Y70364D01*
X74759Y70057D01*
X75299Y69950D01*
X75840Y70057D01*
X76299Y70364D01*
X76605Y70822D01*
X76712Y71363D01*
X76605Y71904D01*
X76299Y72362D01*
X75840Y72668D01*
X75299Y72776D01*
D02*
G37*
G36*
X21260Y69952D02*
X20719Y69844D01*
X20387Y69622D01*
X20051Y69570D01*
X19716Y69622D01*
X19383Y69844D01*
X18842Y69952D01*
X18302Y69844D01*
X17843Y69538D01*
X17537Y69080D01*
X17429Y68539D01*
X17537Y67998D01*
X17843Y67540D01*
X18302Y67233D01*
X18842Y67126D01*
X19383Y67233D01*
X19716Y67456D01*
X20051Y67507D01*
X20387Y67456D01*
X20719Y67233D01*
X21260Y67126D01*
X21801Y67233D01*
X22259Y67540D01*
X22565Y67998D01*
X22673Y68539D01*
X22565Y69080D01*
X22259Y69538D01*
X21801Y69844D01*
X21260Y69952D01*
D02*
G37*
G36*
X9055Y70705D02*
X8515Y70597D01*
X8056Y70291D01*
X7750Y69832D01*
X7643Y69292D01*
X7750Y68751D01*
X8056Y68293D01*
X8515Y67986D01*
X9055Y67879D01*
X9596Y67986D01*
X10055Y68293D01*
X10361Y68751D01*
X10468Y69292D01*
X10361Y69832D01*
X10055Y70291D01*
X9596Y70597D01*
X9055Y70705D01*
D02*
G37*
G36*
X28722Y70549D02*
X28181Y70442D01*
X27722Y70136D01*
X27416Y69677D01*
X27309Y69137D01*
X27416Y68596D01*
X27722Y68137D01*
X28181Y67831D01*
X28722Y67724D01*
X29262Y67831D01*
X29721Y68137D01*
X30027Y68596D01*
X30135Y69137D01*
X30027Y69677D01*
X29721Y70136D01*
X29262Y70442D01*
X28722Y70549D01*
D02*
G37*
G36*
X76842Y67819D02*
X76302Y67711D01*
X75843Y67405D01*
X75537Y66947D01*
X75429Y66406D01*
X75537Y65865D01*
X75843Y65407D01*
X76302Y65100D01*
X76842Y64993D01*
X77383Y65100D01*
X77842Y65407D01*
X78148Y65865D01*
X78255Y66406D01*
X78148Y66947D01*
X77842Y67405D01*
X77383Y67711D01*
X76842Y67819D01*
D02*
G37*
G36*
X9842Y67319D02*
X9302Y67211D01*
X8843Y66905D01*
X8537Y66447D01*
X8429Y65906D01*
X8537Y65365D01*
X8843Y64907D01*
X9302Y64600D01*
X9842Y64493D01*
X10383Y64600D01*
X10842Y64907D01*
X11148Y65365D01*
X11255Y65906D01*
X11148Y66447D01*
X10842Y66905D01*
X10383Y67211D01*
X9842Y67319D01*
D02*
G37*
G36*
X27482Y67309D02*
X26942Y67201D01*
X26483Y66895D01*
X26177Y66436D01*
X26070Y65896D01*
X26177Y65355D01*
X26483Y64897D01*
X26942Y64590D01*
X27482Y64483D01*
X28023Y64590D01*
X28482Y64897D01*
X28788Y65355D01*
X28895Y65896D01*
X28788Y66436D01*
X28482Y66895D01*
X28023Y67201D01*
X27482Y67309D01*
D02*
G37*
G36*
X69114Y65319D02*
X68574Y65211D01*
X68115Y64905D01*
X67809Y64447D01*
X67702Y63906D01*
X67809Y63365D01*
X68115Y62907D01*
X68574Y62600D01*
X69114Y62493D01*
X69655Y62600D01*
X70114Y62907D01*
X70420Y63365D01*
X70527Y63906D01*
X70420Y64447D01*
X70114Y64905D01*
X69655Y65211D01*
X69114Y65319D01*
D02*
G37*
G36*
X52700Y65213D02*
X52159Y65105D01*
X51701Y64799D01*
X51395Y64341D01*
X51287Y63800D01*
X51395Y63259D01*
X51701Y62801D01*
X52159Y62495D01*
X52700Y62387D01*
X53241Y62495D01*
X53699Y62801D01*
X54005Y63259D01*
X54113Y63800D01*
X54005Y64341D01*
X53699Y64799D01*
X53241Y65105D01*
X52700Y65213D01*
D02*
G37*
G36*
X23372Y65029D02*
X22832Y64921D01*
X22373Y64615D01*
X22067Y64157D01*
X21960Y63616D01*
X22067Y63075D01*
X22373Y62617D01*
X22832Y62310D01*
X23372Y62203D01*
X23913Y62310D01*
X24372Y62617D01*
X24678Y63075D01*
X24785Y63616D01*
X24678Y64157D01*
X24372Y64615D01*
X23913Y64921D01*
X23372Y65029D01*
D02*
G37*
G36*
X61071Y64819D02*
X60531Y64711D01*
X60072Y64405D01*
X59766Y63946D01*
X59658Y63406D01*
X59766Y62865D01*
X60072Y62407D01*
X60531Y62100D01*
X61071Y61993D01*
X61612Y62100D01*
X62071Y62407D01*
X62377Y62865D01*
X62484Y63406D01*
X62377Y63946D01*
X62071Y64405D01*
X61612Y64711D01*
X61071Y64819D01*
D02*
G37*
G36*
X30867Y67092D02*
X30327Y66985D01*
X29868Y66679D01*
X29562Y66220D01*
X29454Y65679D01*
X29562Y65139D01*
X29868Y64680D01*
X29951Y64625D01*
Y64024D01*
X29833Y63945D01*
X29527Y63486D01*
X29419Y62946D01*
X29527Y62405D01*
X29833Y61947D01*
X30292Y61640D01*
X30832Y61533D01*
X31373Y61640D01*
X31832Y61947D01*
X32138Y62405D01*
X32245Y62946D01*
X32138Y63486D01*
X31832Y63945D01*
X31749Y64000D01*
Y64602D01*
X31867Y64680D01*
X32173Y65139D01*
X32280Y65679D01*
X32173Y66220D01*
X31867Y66679D01*
X31408Y66985D01*
X30867Y67092D01*
D02*
G37*
G36*
X57436Y61113D02*
X56895Y61005D01*
X56437Y60699D01*
X56130Y60241D01*
X56023Y59700D01*
X56130Y59159D01*
X56437Y58701D01*
X56895Y58395D01*
X57436Y58287D01*
X57977Y58395D01*
X58435Y58701D01*
X58741Y59159D01*
X58849Y59700D01*
X58741Y60241D01*
X58435Y60699D01*
X57977Y61005D01*
X57436Y61113D01*
D02*
G37*
G36*
X31092Y60669D02*
X30552Y60561D01*
X30093Y60255D01*
X29787Y59797D01*
X29680Y59256D01*
X29787Y58715D01*
X30093Y58257D01*
X30552Y57950D01*
X31092Y57843D01*
X31633Y57950D01*
X32092Y58257D01*
X32398Y58715D01*
X32505Y59256D01*
X32398Y59797D01*
X32092Y60255D01*
X31633Y60561D01*
X31092Y60669D01*
D02*
G37*
G36*
X66732Y59389D02*
X66192Y59281D01*
X65733Y58975D01*
X65427Y58517D01*
X65320Y57976D01*
X65427Y57435D01*
X65733Y56977D01*
X66192Y56670D01*
X66732Y56563D01*
X67273Y56670D01*
X67732Y56977D01*
X68038Y57435D01*
X68145Y57976D01*
X68038Y58517D01*
X67732Y58975D01*
X67273Y59281D01*
X66732Y59389D01*
D02*
G37*
G36*
X73852Y59169D02*
X73312Y59061D01*
X72853Y58755D01*
X72547Y58297D01*
X72439Y57756D01*
X72547Y57215D01*
X72853Y56757D01*
X73312Y56450D01*
X73852Y56343D01*
X74393Y56450D01*
X74852Y56757D01*
X75158Y57215D01*
X75265Y57756D01*
X75158Y58297D01*
X74852Y58755D01*
X74393Y59061D01*
X73852Y59169D01*
D02*
G37*
G36*
X52756Y58961D02*
X52216Y58854D01*
X51757Y58547D01*
X51451Y58089D01*
X51344Y57548D01*
X51451Y57007D01*
X51645Y56718D01*
X51745Y56524D01*
X51541Y56092D01*
X51401Y55999D01*
X51095Y55541D01*
X50987Y55000D01*
X51095Y54459D01*
X51401Y54001D01*
X51859Y53695D01*
X52400Y53587D01*
X52941Y53695D01*
X53399Y54001D01*
X53705Y54459D01*
X53813Y55000D01*
X53705Y55541D01*
X53512Y55831D01*
X53411Y56024D01*
X53616Y56456D01*
X53756Y56549D01*
X54062Y57007D01*
X54169Y57548D01*
X54062Y58089D01*
X53756Y58547D01*
X53297Y58854D01*
X52756Y58961D01*
D02*
G37*
G36*
X71772Y54259D02*
X71232Y54151D01*
X70773Y53845D01*
X70467Y53386D01*
X69918Y53188D01*
X69883Y53211D01*
X69342Y53319D01*
X68802Y53211D01*
X68343Y52905D01*
X68037Y52447D01*
X67930Y51906D01*
X68037Y51365D01*
X68343Y50907D01*
X68369Y50889D01*
Y50288D01*
X68343Y50271D01*
X68037Y49812D01*
X67930Y49272D01*
X68037Y48731D01*
X68343Y48273D01*
X68553Y48133D01*
Y47545D01*
X68343Y47405D01*
X68037Y46946D01*
X67930Y46406D01*
X68037Y45865D01*
X68343Y45407D01*
X68802Y45100D01*
X69342Y44993D01*
X69883Y45100D01*
X70342Y45407D01*
X70648Y45865D01*
X70755Y46406D01*
X70648Y46946D01*
X70342Y47405D01*
X70132Y47545D01*
Y48133D01*
X70342Y48273D01*
X70648Y48731D01*
X70755Y49272D01*
X70648Y49812D01*
X70342Y50271D01*
X70316Y50288D01*
Y50889D01*
X70342Y50907D01*
X70648Y51365D01*
X71197Y51564D01*
X71232Y51540D01*
X71772Y51433D01*
X72313Y51540D01*
X72772Y51847D01*
X73078Y52305D01*
X73185Y52846D01*
X73078Y53386D01*
X72772Y53845D01*
X72313Y54151D01*
X71772Y54259D01*
D02*
G37*
G36*
X48900Y57813D02*
X48359Y57705D01*
X47901Y57399D01*
X47595Y56941D01*
X47487Y56400D01*
X47595Y55859D01*
X47901Y55401D01*
X48128Y55249D01*
X48104Y54940D01*
X48045Y54703D01*
X47629Y54425D01*
X47323Y53966D01*
X47215Y53426D01*
X47323Y52885D01*
X47629Y52427D01*
X48088Y52120D01*
X48628Y52013D01*
X49169Y52120D01*
X49628Y52427D01*
X49934Y52885D01*
X50041Y53426D01*
X49934Y53966D01*
X49628Y54425D01*
X49400Y54577D01*
X49424Y54886D01*
X49483Y55123D01*
X49899Y55401D01*
X50205Y55859D01*
X50313Y56400D01*
X50205Y56941D01*
X49899Y57399D01*
X49441Y57705D01*
X48900Y57813D01*
D02*
G37*
G36*
X10500Y53976D02*
X9959Y53868D01*
X9501Y53562D01*
X9195Y53104D01*
X9087Y52563D01*
X9195Y52022D01*
X9501Y51564D01*
X9959Y51257D01*
X10500Y51150D01*
X11041Y51257D01*
X11499Y51564D01*
X11805Y52022D01*
X11913Y52563D01*
X11805Y53104D01*
X11499Y53562D01*
X11041Y53868D01*
X10500Y53976D01*
D02*
G37*
G36*
X31212Y56419D02*
X30672Y56311D01*
X30213Y56005D01*
X29907Y55546D01*
X29800Y55006D01*
X29907Y54465D01*
X30213Y54007D01*
X30239Y53990D01*
X30413Y53505D01*
X30327Y53375D01*
X30107Y53047D01*
X30000Y52506D01*
X30107Y51965D01*
X30413Y51507D01*
X30872Y51200D01*
X31412Y51093D01*
X31953Y51200D01*
X32412Y51507D01*
X32718Y51965D01*
X32825Y52506D01*
X32718Y53047D01*
X32412Y53505D01*
X32386Y53522D01*
X32212Y54007D01*
X32298Y54136D01*
X32518Y54465D01*
X32625Y55006D01*
X32518Y55546D01*
X32212Y56005D01*
X31753Y56311D01*
X31212Y56419D01*
D02*
G37*
G36*
X35042Y53756D02*
X34502Y53648D01*
X34043Y53342D01*
X33737Y52883D01*
X33630Y52343D01*
X33737Y51802D01*
X34043Y51344D01*
X34502Y51037D01*
X35042Y50930D01*
X35583Y51037D01*
X36042Y51344D01*
X36348Y51802D01*
X36455Y52343D01*
X36348Y52883D01*
X36042Y53342D01*
X35583Y53648D01*
X35042Y53756D01*
D02*
G37*
G36*
X41914Y54590D02*
X41373Y54483D01*
X40915Y54177D01*
X40609Y53718D01*
X40501Y53177D01*
X40609Y52637D01*
X40915Y52178D01*
X40990Y51526D01*
X40937Y51446D01*
X40830Y50906D01*
X40937Y50365D01*
X41243Y49907D01*
X41702Y49600D01*
X42242Y49493D01*
X42783Y49600D01*
X43242Y49907D01*
X43548Y50365D01*
X43655Y50906D01*
X43548Y51446D01*
X43242Y51905D01*
X43166Y52557D01*
X43220Y52637D01*
X43327Y53177D01*
X43220Y53718D01*
X42913Y54177D01*
X42455Y54483D01*
X41914Y54590D01*
D02*
G37*
G36*
X19500Y53613D02*
X18959Y53505D01*
X18501Y53199D01*
X18195Y52741D01*
X18087Y52200D01*
X18195Y51659D01*
X18501Y51201D01*
X18959Y50895D01*
X19086Y50869D01*
X19130Y50732D01*
X19139Y50349D01*
X18773Y50105D01*
X18467Y49646D01*
X18360Y49106D01*
X18467Y48565D01*
X18773Y48107D01*
X19232Y47800D01*
X19772Y47693D01*
X20313Y47800D01*
X20772Y48107D01*
X21078Y48565D01*
X21185Y49106D01*
X21078Y49646D01*
X20772Y50105D01*
X20313Y50411D01*
X20187Y50436D01*
X20143Y50574D01*
X20134Y50957D01*
X20499Y51201D01*
X20805Y51659D01*
X20913Y52200D01*
X20805Y52741D01*
X20499Y53199D01*
X20041Y53505D01*
X19500Y53613D01*
D02*
G37*
G36*
X35552Y50419D02*
X35012Y50311D01*
X34553Y50005D01*
X34247Y49547D01*
X34139Y49006D01*
X34247Y48465D01*
X34553Y48007D01*
X35012Y47700D01*
X35552Y47593D01*
X36093Y47700D01*
X36552Y48007D01*
X36858Y48465D01*
X36965Y49006D01*
X36858Y49547D01*
X36552Y50005D01*
X36093Y50311D01*
X35552Y50419D01*
D02*
G37*
G36*
X29635Y48112D02*
X29094Y48004D01*
X28636Y47698D01*
X28330Y47239D01*
X28222Y46699D01*
X28330Y46158D01*
X28636Y45700D01*
X29094Y45393D01*
X29635Y45286D01*
X30176Y45393D01*
X30634Y45700D01*
X30941Y46158D01*
X31048Y46699D01*
X30941Y47239D01*
X30634Y47698D01*
X30176Y48004D01*
X29635Y48112D01*
D02*
G37*
G36*
X50442Y46019D02*
X49902Y45911D01*
X49443Y45605D01*
X49137Y45147D01*
X49127Y45097D01*
X49100Y45073D01*
X48580Y44907D01*
X48310Y45087D01*
X47769Y45195D01*
X47229Y45087D01*
X46770Y44781D01*
X46464Y44322D01*
X46356Y43782D01*
X46464Y43241D01*
X46770Y42783D01*
X47229Y42476D01*
X47769Y42369D01*
X48310Y42476D01*
X48768Y42783D01*
X49075Y43241D01*
X49085Y43291D01*
X49112Y43315D01*
X49632Y43481D01*
X49902Y43300D01*
X50442Y43193D01*
X50983Y43300D01*
X51442Y43607D01*
X51748Y44065D01*
X51855Y44606D01*
X51748Y45147D01*
X51442Y45605D01*
X50983Y45911D01*
X50442Y46019D01*
D02*
G37*
G36*
X74242Y51119D02*
X73702Y51011D01*
X73243Y50705D01*
X72937Y50247D01*
X72830Y49706D01*
X72937Y49165D01*
X73152Y48843D01*
X73209Y48505D01*
X73152Y48166D01*
X72937Y47844D01*
X72830Y47304D01*
X72937Y46763D01*
X73243Y46305D01*
X73305Y45662D01*
X73201Y45507D01*
X73093Y44966D01*
X73201Y44425D01*
X73507Y43967D01*
X73966Y43660D01*
X74506Y43553D01*
X75047Y43660D01*
X75506Y43967D01*
X75812Y44425D01*
X75919Y44966D01*
X75812Y45507D01*
X75506Y45965D01*
X75444Y46608D01*
X75548Y46763D01*
X75655Y47304D01*
X75548Y47844D01*
X75333Y48166D01*
X75276Y48505D01*
X75333Y48843D01*
X75548Y49165D01*
X75655Y49706D01*
X75548Y50247D01*
X75242Y50705D01*
X74783Y51011D01*
X74242Y51119D01*
D02*
G37*
G36*
X9342Y45819D02*
X8802Y45711D01*
X8343Y45405D01*
X8037Y44947D01*
X7930Y44406D01*
X8037Y43865D01*
X8343Y43407D01*
X8802Y43100D01*
X9342Y42993D01*
X9883Y43100D01*
X10342Y43407D01*
X10648Y43865D01*
X10755Y44406D01*
X10648Y44947D01*
X10342Y45405D01*
X9883Y45711D01*
X9342Y45819D01*
D02*
G37*
G36*
X39000Y46413D02*
X38459Y46305D01*
X38001Y45999D01*
X37695Y45541D01*
X37587Y45000D01*
X37695Y44459D01*
X38001Y44001D01*
X38459Y43695D01*
X39000Y43587D01*
X39535Y43694D01*
X39622Y43257D01*
X39928Y42799D01*
X40387Y42493D01*
X40928Y42385D01*
X41468Y42493D01*
X41927Y42799D01*
X42233Y43257D01*
X42341Y43798D01*
X42233Y44339D01*
X41927Y44797D01*
X41468Y45103D01*
X40928Y45211D01*
X40392Y45105D01*
X40305Y45541D01*
X39999Y45999D01*
X39541Y46305D01*
X39000Y46413D01*
D02*
G37*
G36*
X60942Y44119D02*
X60402Y44011D01*
X59943Y43705D01*
X59637Y43246D01*
X59530Y42706D01*
X59637Y42165D01*
X59943Y41707D01*
X60402Y41400D01*
X60942Y41293D01*
X61483Y41400D01*
X61942Y41707D01*
X62248Y42165D01*
X62355Y42706D01*
X62248Y43246D01*
X61942Y43705D01*
X61483Y44011D01*
X60942Y44119D01*
D02*
G37*
G36*
X71800Y42713D02*
X71259Y42605D01*
X70801Y42299D01*
X70495Y41841D01*
X70387Y41300D01*
X70495Y40759D01*
X70801Y40301D01*
X71259Y39995D01*
X71800Y39887D01*
X72341Y39995D01*
X72799Y40301D01*
X73105Y40759D01*
X73213Y41300D01*
X73105Y41841D01*
X72799Y42299D01*
X72341Y42605D01*
X71800Y42713D01*
D02*
G37*
G36*
X27712Y44849D02*
X27172Y44741D01*
X26713Y44435D01*
X26407Y43977D01*
X26300Y43436D01*
X26407Y42895D01*
X26713Y42437D01*
X26683Y41856D01*
X26560Y41774D01*
X26254Y41315D01*
X26147Y40775D01*
X26254Y40234D01*
X26560Y39776D01*
X27019Y39469D01*
X27559Y39362D01*
X28100Y39469D01*
X28559Y39776D01*
X28865Y40234D01*
X28972Y40775D01*
X28865Y41315D01*
X28559Y41774D01*
X28589Y42355D01*
X28712Y42437D01*
X29018Y42895D01*
X29125Y43436D01*
X29018Y43977D01*
X28712Y44435D01*
X28253Y44741D01*
X27712Y44849D01*
D02*
G37*
G36*
X56042Y44419D02*
X55502Y44311D01*
X55043Y44005D01*
X54737Y43547D01*
X54629Y43006D01*
X54737Y42465D01*
X55043Y42007D01*
X55112Y41359D01*
X55037Y41247D01*
X54930Y40706D01*
X55037Y40165D01*
X55343Y39707D01*
X55802Y39400D01*
X56342Y39293D01*
X56883Y39400D01*
X57342Y39707D01*
X57648Y40165D01*
X57755Y40706D01*
X57648Y41247D01*
X57342Y41705D01*
X57273Y42352D01*
X57348Y42465D01*
X57455Y43006D01*
X57348Y43547D01*
X57042Y44005D01*
X56583Y44311D01*
X56042Y44419D01*
D02*
G37*
G36*
X68803Y39669D02*
X68262Y39561D01*
X67804Y39255D01*
X67497Y38797D01*
X67390Y38256D01*
X67497Y37715D01*
X67804Y37257D01*
X68262Y36951D01*
X68803Y36843D01*
X69344Y36951D01*
X69802Y37257D01*
X70108Y37715D01*
X70216Y38256D01*
X70108Y38797D01*
X69802Y39255D01*
X69344Y39561D01*
X68803Y39669D01*
D02*
G37*
G36*
X18142Y36919D02*
X17602Y36811D01*
X17143Y36505D01*
X17010Y36305D01*
X16415Y36294D01*
X16342Y36405D01*
X15883Y36711D01*
X15342Y36819D01*
X14802Y36711D01*
X14343Y36405D01*
X14037Y35947D01*
X13929Y35406D01*
X14037Y34865D01*
X14343Y34407D01*
X14802Y34100D01*
X15342Y33993D01*
X15883Y34100D01*
X16342Y34407D01*
X16475Y34607D01*
X17070Y34617D01*
X17143Y34507D01*
X17602Y34200D01*
X18142Y34093D01*
X18683Y34200D01*
X19142Y34507D01*
X19448Y34965D01*
X19555Y35506D01*
X19448Y36046D01*
X19142Y36505D01*
X18683Y36811D01*
X18142Y36919D01*
D02*
G37*
G36*
X11292Y36869D02*
X10752Y36761D01*
X10293Y36455D01*
X9987Y35996D01*
X9879Y35456D01*
X9987Y34915D01*
X10293Y34457D01*
X10752Y34150D01*
X11292Y34043D01*
X11833Y34150D01*
X12292Y34457D01*
X12598Y34915D01*
X12705Y35456D01*
X12598Y35996D01*
X12292Y36455D01*
X11833Y36761D01*
X11292Y36869D01*
D02*
G37*
G36*
X74300Y36213D02*
X73759Y36105D01*
X73301Y35799D01*
X72995Y35341D01*
X72887Y34800D01*
X72995Y34259D01*
X73301Y33801D01*
X73759Y33495D01*
X74300Y33387D01*
X74841Y33495D01*
X75299Y33801D01*
X75605Y34259D01*
X75713Y34800D01*
X75605Y35341D01*
X75299Y35799D01*
X74841Y36105D01*
X74300Y36213D01*
D02*
G37*
G36*
X25022Y35189D02*
X24482Y35081D01*
X24023Y34775D01*
X23717Y34317D01*
X23609Y33776D01*
X23717Y33235D01*
X24023Y32777D01*
X24482Y32470D01*
X25022Y32363D01*
X25563Y32470D01*
X26022Y32777D01*
X26328Y33235D01*
X26435Y33776D01*
X26328Y34317D01*
X26022Y34775D01*
X25563Y35081D01*
X25022Y35189D01*
D02*
G37*
G36*
X69867Y36351D02*
X69327Y36243D01*
X68868Y35937D01*
X68562Y35478D01*
X68454Y34938D01*
X68562Y34397D01*
X68365Y33791D01*
X68288Y33740D01*
X67982Y33281D01*
X67874Y32741D01*
X67982Y32200D01*
X68288Y31742D01*
X68747Y31435D01*
X69287Y31328D01*
X69828Y31435D01*
X70287Y31742D01*
X70593Y32200D01*
X70700Y32741D01*
X70593Y33281D01*
X70789Y33887D01*
X70867Y33939D01*
X71173Y34397D01*
X71280Y34938D01*
X71173Y35478D01*
X70867Y35937D01*
X70408Y36243D01*
X69867Y36351D01*
D02*
G37*
G36*
X77340Y31134D02*
X76799Y31026D01*
X76341Y30720D01*
X76253Y30589D01*
X75652D01*
X75642Y30605D01*
X75183Y30911D01*
X74642Y31019D01*
X74102Y30911D01*
X73643Y30605D01*
X73337Y30147D01*
X73229Y29606D01*
X73337Y29065D01*
X73643Y28607D01*
X74102Y28300D01*
X74642Y28193D01*
X75183Y28300D01*
X75642Y28607D01*
X75729Y28737D01*
X76330D01*
X76341Y28722D01*
X76799Y28415D01*
X77340Y28308D01*
X77881Y28415D01*
X78339Y28722D01*
X78645Y29180D01*
X78753Y29721D01*
X78645Y30261D01*
X78339Y30720D01*
X77881Y31026D01*
X77340Y31134D01*
D02*
G37*
G36*
X58177Y33894D02*
X57637Y33786D01*
X57178Y33480D01*
X56872Y33022D01*
X56765Y32481D01*
X56872Y31940D01*
X57178Y31482D01*
X57637Y31175D01*
X58177Y31068D01*
X58449Y30612D01*
X58429Y30512D01*
X58449Y30413D01*
X58177Y29957D01*
X57637Y29849D01*
X57178Y29543D01*
X56872Y29085D01*
X56765Y28544D01*
X56872Y28003D01*
X57178Y27545D01*
X57637Y27238D01*
X58177Y27131D01*
X58718Y27238D01*
X59177Y27545D01*
X59483Y28003D01*
X59590Y28544D01*
X59571Y28643D01*
X59842Y29099D01*
X60383Y29206D01*
X60842Y29513D01*
X61116Y29923D01*
X61285Y30069D01*
X61318Y30083D01*
X61699Y30181D01*
X62142Y30093D01*
X62683Y30200D01*
X63142Y30507D01*
X63448Y30965D01*
X63555Y31506D01*
X63448Y32046D01*
X63142Y32505D01*
X62683Y32811D01*
X62142Y32919D01*
X61602Y32811D01*
X61143Y32505D01*
X60869Y32094D01*
X60700Y31949D01*
X60667Y31935D01*
X60286Y31837D01*
X59842Y31925D01*
X59570Y32381D01*
X59590Y32481D01*
X59483Y33022D01*
X59177Y33480D01*
X58718Y33786D01*
X58177Y33894D01*
D02*
G37*
G36*
X69695Y29822D02*
X69155Y29714D01*
X68696Y29408D01*
X68390Y28949D01*
X68283Y28409D01*
X68390Y27868D01*
X68696Y27410D01*
X69155Y27103D01*
X69695Y26996D01*
X70236Y27103D01*
X70695Y27410D01*
X71001Y27868D01*
X71108Y28409D01*
X71001Y28949D01*
X70695Y29408D01*
X70236Y29714D01*
X69695Y29822D01*
D02*
G37*
G36*
X21942Y29119D02*
X21402Y29011D01*
X20943Y28705D01*
X20637Y28247D01*
X20529Y27706D01*
X20637Y27165D01*
X20943Y26707D01*
X21402Y26400D01*
X21942Y26293D01*
X22483Y26400D01*
X22942Y26707D01*
X23248Y27165D01*
X23355Y27706D01*
X23248Y28247D01*
X22942Y28705D01*
X22483Y29011D01*
X21942Y29119D01*
D02*
G37*
G36*
X12401Y28319D02*
X11861Y28211D01*
X11402Y27905D01*
X11096Y27446D01*
X10988Y26906D01*
X11096Y26365D01*
X11402Y25907D01*
X11861Y25600D01*
X12401Y25493D01*
X12942Y25600D01*
X13401Y25907D01*
X13707Y26365D01*
X13814Y26906D01*
X13707Y27446D01*
X13401Y27905D01*
X12942Y28211D01*
X12401Y28319D01*
D02*
G37*
G36*
X6692D02*
X6152Y28211D01*
X5693Y27905D01*
X5387Y27446D01*
X5280Y26906D01*
X5387Y26365D01*
X5693Y25907D01*
X6152Y25600D01*
X6692Y25493D01*
X7233Y25600D01*
X7692Y25907D01*
X7998Y26365D01*
X8105Y26906D01*
X7998Y27446D01*
X7692Y27905D01*
X7233Y28211D01*
X6692Y28319D01*
D02*
G37*
G36*
X58142Y26219D02*
X57602Y26111D01*
X57143Y25805D01*
X56837Y25346D01*
X56730Y24806D01*
X56837Y24265D01*
X57143Y23807D01*
X57602Y23500D01*
X58142Y23393D01*
X58683Y23500D01*
X59142Y23807D01*
X59448Y24265D01*
X59555Y24806D01*
X59448Y25346D01*
X59142Y25805D01*
X58683Y26111D01*
X58142Y26219D01*
D02*
G37*
G36*
X25342Y26020D02*
X24802Y25912D01*
X24343Y25606D01*
X24037Y25148D01*
X23930Y24607D01*
X24037Y24066D01*
X24343Y23608D01*
X24802Y23301D01*
X25342Y23194D01*
X25883Y23301D01*
X26342Y23608D01*
X26648Y24066D01*
X26755Y24607D01*
X26648Y25148D01*
X26342Y25606D01*
X25883Y25912D01*
X25342Y26020D01*
D02*
G37*
G36*
X61492Y28299D02*
X60952Y28191D01*
X60493Y27885D01*
X60187Y27426D01*
X60079Y26886D01*
X60187Y26345D01*
X60493Y25887D01*
X60428Y25329D01*
X60206Y24997D01*
X60098Y24457D01*
X60206Y23916D01*
X60512Y23458D01*
X60971Y23151D01*
X61511Y23044D01*
X62052Y23151D01*
X62511Y23458D01*
X62817Y23916D01*
X62924Y24457D01*
X62817Y24997D01*
X62511Y25456D01*
X62576Y26013D01*
X62798Y26345D01*
X62905Y26886D01*
X62798Y27426D01*
X62492Y27885D01*
X62033Y28191D01*
X61492Y28299D01*
D02*
G37*
G36*
X22542Y24319D02*
X22002Y24211D01*
X21543Y23905D01*
X21237Y23447D01*
X21129Y22906D01*
X21237Y22365D01*
X21543Y21907D01*
X22002Y21600D01*
X22542Y21493D01*
X23083Y21600D01*
X23542Y21907D01*
X23848Y22365D01*
X23955Y22906D01*
X23848Y23447D01*
X23542Y23905D01*
X23083Y24211D01*
X22542Y24319D01*
D02*
G37*
G36*
X25542Y22083D02*
X25002Y21975D01*
X24543Y21669D01*
X24237Y21211D01*
X24129Y20670D01*
X24237Y20129D01*
X24543Y19671D01*
X25002Y19364D01*
X25542Y19257D01*
X26083Y19364D01*
X26542Y19671D01*
X26848Y20129D01*
X26955Y20670D01*
X26848Y21211D01*
X26542Y21669D01*
X26083Y21975D01*
X25542Y22083D01*
D02*
G37*
G36*
X16535Y21819D02*
X15995Y21711D01*
X15536Y21405D01*
X15230Y20946D01*
X15123Y20406D01*
X15230Y19865D01*
X15536Y19407D01*
X15995Y19100D01*
X16535Y18993D01*
X17076Y19100D01*
X17535Y19407D01*
X17841Y19865D01*
X17948Y20406D01*
X17841Y20946D01*
X17535Y21405D01*
X17076Y21711D01*
X16535Y21819D01*
D02*
G37*
G36*
X8661D02*
X8121Y21711D01*
X7662Y21405D01*
X7356Y20946D01*
X7248Y20406D01*
X7356Y19865D01*
X7662Y19407D01*
X8121Y19100D01*
X8661Y18993D01*
X9202Y19100D01*
X9232Y19120D01*
X9687Y18846D01*
X9795Y18305D01*
X10101Y17846D01*
X10559Y17540D01*
X11100Y17433D01*
X11641Y17540D01*
X12099Y17846D01*
X12405Y18305D01*
X12513Y18846D01*
X12405Y19386D01*
X12099Y19845D01*
X11641Y20151D01*
X11100Y20259D01*
X10559Y20151D01*
X10530Y20131D01*
X10074Y20406D01*
X9967Y20946D01*
X9661Y21405D01*
X9202Y21711D01*
X8661Y21819D01*
D02*
G37*
G36*
X58242D02*
X57702Y21711D01*
X57243Y21405D01*
X56937Y20946D01*
X56830Y20406D01*
X56937Y19865D01*
X57243Y19407D01*
Y19105D01*
X56937Y18646D01*
X56830Y18106D01*
X56937Y17565D01*
X57243Y17107D01*
X57702Y16800D01*
X58242Y16693D01*
X58783Y16800D01*
X59242Y17107D01*
X59548Y17565D01*
X59655Y18106D01*
X59548Y18646D01*
X59242Y19105D01*
Y19407D01*
X59548Y19865D01*
X59655Y20406D01*
X59548Y20946D01*
X59242Y21405D01*
X58783Y21711D01*
X58242Y21819D01*
D02*
G37*
G36*
X15748Y16965D02*
X15208Y16857D01*
X14749Y16551D01*
X14443Y16093D01*
X14335Y15552D01*
X14443Y15011D01*
X14749Y14553D01*
X15208Y14246D01*
X15748Y14139D01*
X16289Y14246D01*
X16748Y14553D01*
X17054Y15011D01*
X17161Y15552D01*
X17054Y16093D01*
X16748Y16551D01*
X16289Y16857D01*
X15748Y16965D01*
D02*
G37*
G36*
X11417D02*
X10877Y16857D01*
X10418Y16551D01*
X10112Y16093D01*
X10005Y15552D01*
X10112Y15011D01*
X10418Y14553D01*
X10877Y14246D01*
X11417Y14139D01*
X11958Y14246D01*
X12417Y14553D01*
X12723Y15011D01*
X12830Y15552D01*
X12723Y16093D01*
X12417Y16551D01*
X11958Y16857D01*
X11417Y16965D01*
D02*
G37*
G36*
X23342Y18819D02*
X22802Y18711D01*
X22343Y18405D01*
X22037Y17946D01*
X21929Y17406D01*
X22037Y16865D01*
X22343Y16407D01*
X22802Y16100D01*
X23342Y15993D01*
X23741Y15562D01*
X23730Y15506D01*
X23837Y14965D01*
X24143Y14507D01*
X24602Y14200D01*
X25142Y14093D01*
X25683Y14200D01*
X26142Y14507D01*
X26448Y14965D01*
X26555Y15506D01*
X26448Y16047D01*
X26142Y16505D01*
X25683Y16811D01*
X25142Y16919D01*
X24744Y17349D01*
X24755Y17406D01*
X24648Y17946D01*
X24342Y18405D01*
X23883Y18711D01*
X23342Y18819D01*
D02*
G37*
G36*
X60192Y16679D02*
X59652Y16571D01*
X59193Y16265D01*
X58887Y15807D01*
X58780Y15266D01*
X58887Y14725D01*
X59193Y14267D01*
X59652Y13960D01*
X60192Y13853D01*
X60733Y13960D01*
X61192Y14267D01*
X61498Y14725D01*
X61605Y15266D01*
X61498Y15807D01*
X61192Y16265D01*
X60733Y16571D01*
X60192Y16679D01*
D02*
G37*
G36*
X43242Y12619D02*
X42702Y12511D01*
X42243Y12205D01*
X41861D01*
X41403Y12511D01*
X40862Y12619D01*
X40322Y12511D01*
X39863Y12205D01*
X39557Y11746D01*
X39449Y11206D01*
X39557Y10665D01*
X39863Y10207D01*
X40322Y9900D01*
X40862Y9793D01*
X41403Y9900D01*
X41861Y10207D01*
X42243D01*
X42702Y9900D01*
X43242Y9793D01*
X43783Y9900D01*
X44242Y10207D01*
X44548Y10665D01*
X44655Y11206D01*
X44548Y11746D01*
X44242Y12205D01*
X43783Y12511D01*
X43242Y12619D01*
D02*
G37*
G36*
X22842Y13815D02*
X22302Y13707D01*
X21843Y13401D01*
X21537Y12943D01*
X21429Y12402D01*
X21537Y11861D01*
X21843Y11403D01*
X22302Y11096D01*
X22842Y10989D01*
X23383Y11096D01*
X23842Y11403D01*
X24148Y11861D01*
X24255Y12402D01*
X24148Y12943D01*
X23842Y13401D01*
X23383Y13707D01*
X22842Y13815D01*
D02*
G37*
G36*
X15748Y13421D02*
X15208Y13313D01*
X14749Y13007D01*
X14443Y12549D01*
X14335Y12008D01*
X14443Y11467D01*
X14749Y11009D01*
X15208Y10702D01*
X15748Y10595D01*
X16289Y10702D01*
X16748Y11009D01*
X17054Y11467D01*
X17161Y12008D01*
X17054Y12549D01*
X16748Y13007D01*
X16289Y13313D01*
X15748Y13421D01*
D02*
G37*
G36*
X11217D02*
X10677Y13313D01*
X10218Y13007D01*
X9912Y12549D01*
X9804Y12008D01*
X9912Y11467D01*
X10218Y11009D01*
X10677Y10702D01*
X11217Y10595D01*
X11758Y10702D01*
X12217Y11009D01*
X12523Y11467D01*
X12630Y12008D01*
X12523Y12549D01*
X12217Y13007D01*
X11758Y13313D01*
X11217Y13421D01*
D02*
G37*
G36*
X60142Y13119D02*
X59602Y13011D01*
X59143Y12705D01*
X58837Y12246D01*
X58729Y11706D01*
X58837Y11165D01*
X59143Y10707D01*
X59602Y10400D01*
X60142Y10293D01*
X60683Y10400D01*
X61142Y10707D01*
X61448Y11165D01*
X61555Y11706D01*
X61448Y12246D01*
X61142Y12705D01*
X60683Y13011D01*
X60142Y13119D01*
D02*
G37*
G36*
X54700Y12613D02*
X54159Y12505D01*
X53701Y12199D01*
X53395Y11741D01*
X53287Y11200D01*
X53395Y10659D01*
X53701Y10201D01*
X54159Y9895D01*
X54700Y9787D01*
X55241Y9895D01*
X55699Y10201D01*
X56005Y10659D01*
X56113Y11200D01*
X56005Y11741D01*
X55699Y12199D01*
X55241Y12505D01*
X54700Y12613D01*
D02*
G37*
G36*
X46850Y12634D02*
X46310Y12526D01*
X45851Y12220D01*
X45545Y11761D01*
X45437Y11221D01*
X45545Y10680D01*
X45851Y10222D01*
X45931Y10169D01*
X46009Y10077D01*
X45840Y9507D01*
X45587Y9409D01*
X45046Y9517D01*
X44506Y9409D01*
X44047Y9103D01*
X43741Y8644D01*
X43633Y8104D01*
X43741Y7563D01*
X44047Y7105D01*
X44506Y6798D01*
X45046Y6691D01*
X45587Y6798D01*
X46046Y7105D01*
X46352Y7563D01*
X46510Y7628D01*
X46702Y7500D01*
X47242Y7393D01*
X47783Y7500D01*
X48242Y7807D01*
X48757Y7678D01*
X49039Y7490D01*
X49580Y7382D01*
X50120Y7490D01*
X50579Y7796D01*
X50885Y8254D01*
X50993Y8795D01*
X50885Y9336D01*
X50579Y9794D01*
X50120Y10101D01*
X49580Y10208D01*
X49039Y10101D01*
X48767Y9919D01*
X48242Y9805D01*
X48162Y9858D01*
X47853Y10218D01*
X48035Y10499D01*
X48156Y10680D01*
X48263Y11221D01*
X48156Y11761D01*
X47850Y12220D01*
X47391Y12526D01*
X46850Y12634D01*
D02*
G37*
G36*
X36811Y12831D02*
X36271Y12723D01*
X35812Y12417D01*
X35506Y11958D01*
X35399Y11418D01*
X35506Y10877D01*
X35812Y10419D01*
X36077Y10242D01*
X36101Y10149D01*
X36069Y9681D01*
X35743Y9464D01*
X35613Y9269D01*
X35082Y9374D01*
X35048Y9546D01*
X34742Y10005D01*
X34664Y10057D01*
X34344Y10404D01*
X34536Y10698D01*
X34648Y10865D01*
X34755Y11406D01*
X34648Y11947D01*
X34342Y12405D01*
X33883Y12711D01*
X33342Y12819D01*
X32802Y12711D01*
X32343Y12405D01*
X32037Y11947D01*
X31929Y11406D01*
X32037Y10865D01*
X32343Y10407D01*
X32421Y10355D01*
X32741Y10007D01*
X32549Y9714D01*
X32437Y9546D01*
X32329Y9006D01*
X32437Y8465D01*
X32743Y8007D01*
X33202Y7700D01*
X33742Y7593D01*
X34283Y7700D01*
X34742Y8007D01*
X34872Y8202D01*
X35403Y8096D01*
X35437Y7924D01*
X35743Y7466D01*
X36202Y7159D01*
X36742Y7052D01*
X37283Y7159D01*
X37742Y7466D01*
X38048Y7924D01*
X38155Y8465D01*
X38048Y9005D01*
X37742Y9464D01*
X37477Y9640D01*
X37453Y9734D01*
X37485Y10201D01*
X37811Y10419D01*
X38117Y10877D01*
X38224Y11418D01*
X38117Y11958D01*
X37811Y12417D01*
X37352Y12723D01*
X36811Y12831D01*
D02*
G37*
G36*
X7638Y11819D02*
X7098Y11711D01*
X6639Y11405D01*
X6333Y10947D01*
X6225Y10406D01*
X6333Y9865D01*
X6639Y9407D01*
X7098Y9100D01*
X7638Y8993D01*
X8179Y9100D01*
X8638Y9407D01*
X8944Y9865D01*
X9051Y10406D01*
X8944Y10947D01*
X8638Y11405D01*
X8179Y11711D01*
X7638Y11819D01*
D02*
G37*
G36*
X18842Y11319D02*
X18302Y11211D01*
X17843Y10905D01*
X17537Y10447D01*
X17429Y9906D01*
X17537Y9365D01*
X17843Y8907D01*
X18302Y8600D01*
X18842Y8493D01*
X19383Y8600D01*
X19842Y8907D01*
X20148Y9365D01*
X20255Y9906D01*
X20148Y10447D01*
X19842Y10905D01*
X19383Y11211D01*
X18842Y11319D01*
D02*
G37*
G36*
X53000Y8413D02*
X52459Y8305D01*
X52001Y7999D01*
X51695Y7541D01*
X51587Y7000D01*
X51695Y6459D01*
X52001Y6001D01*
X52459Y5695D01*
X53000Y5587D01*
X53541Y5695D01*
X53999Y6001D01*
X54305Y6459D01*
X54413Y7000D01*
X54305Y7541D01*
X53999Y7999D01*
X53541Y8305D01*
X53000Y8413D01*
D02*
G37*
G36*
X31100Y8113D02*
X30559Y8005D01*
X30101Y7699D01*
X29795Y7241D01*
X29687Y6700D01*
X29795Y6159D01*
X30101Y5701D01*
X30559Y5395D01*
X31100Y5287D01*
X31641Y5395D01*
X32099Y5701D01*
X32405Y6159D01*
X32513Y6700D01*
X32405Y7241D01*
X32099Y7699D01*
X31641Y8005D01*
X31100Y8113D01*
D02*
G37*
G36*
X63642Y9219D02*
X63102Y9111D01*
X62643Y8805D01*
X62337Y8347D01*
X62230Y7806D01*
X62337Y7265D01*
X62533Y6972D01*
X62743Y6511D01*
X62437Y6053D01*
X62330Y5512D01*
X62437Y4971D01*
X62743Y4513D01*
X63202Y4206D01*
X63742Y4099D01*
X64283Y4206D01*
X64742Y4513D01*
X65048Y4971D01*
X65155Y5512D01*
X65048Y6053D01*
X64852Y6346D01*
X64642Y6807D01*
X64948Y7265D01*
X65055Y7806D01*
X64948Y8347D01*
X64642Y8805D01*
X64183Y9111D01*
X63642Y9219D01*
D02*
G37*
G36*
X73242Y6119D02*
X72702Y6011D01*
X72243Y5705D01*
X71937Y5246D01*
X71829Y4706D01*
X71937Y4165D01*
X72243Y3707D01*
X72702Y3400D01*
X73242Y3293D01*
X73783Y3400D01*
X74242Y3707D01*
X74548Y4165D01*
X74655Y4706D01*
X74548Y5246D01*
X74242Y5705D01*
X73783Y6011D01*
X73242Y6119D01*
D02*
G37*
G36*
X3950Y4563D02*
X3409Y4455D01*
X2951Y4149D01*
X2644Y3691D01*
X2537Y3150D01*
X2644Y2609D01*
X2951Y2151D01*
X3409Y1845D01*
X3950Y1737D01*
X4491Y1845D01*
X4949Y2151D01*
X5255Y2609D01*
X5363Y3150D01*
X5255Y3691D01*
X4949Y4149D01*
X4491Y4455D01*
X3950Y4563D01*
D02*
G37*
%LPD*%
D11*
X-26300Y-26641D02*
Y-35300D01*
X-20528D01*
X-17641D02*
Y-29528D01*
X-14755Y-26641D01*
X-11869Y-29528D01*
Y-35300D01*
Y-30971D01*
X-17641D01*
X-8983Y-26641D02*
Y-28084D01*
X-6097Y-30971D01*
X-3210Y-28084D01*
Y-26641D01*
X-6097Y-30971D02*
Y-35300D01*
X5448Y-26641D02*
X-324D01*
Y-35300D01*
X5448D01*
X-324Y-30971D02*
X2562D01*
X8335Y-35300D02*
Y-26641D01*
X12664D01*
X14107Y-28084D01*
Y-30971D01*
X12664Y-32414D01*
X8335D01*
X11221D02*
X14107Y-35300D01*
X31424D02*
X25652D01*
X31424Y-29528D01*
Y-28084D01*
X29981Y-26641D01*
X27095D01*
X25652Y-28084D01*
X42969Y-30971D02*
X48741D01*
X66059Y-28084D02*
X64615Y-26641D01*
X61729D01*
X60286Y-28084D01*
Y-33857D01*
X61729Y-35300D01*
X64615D01*
X66059Y-33857D01*
Y-30971D01*
X63172D01*
X68945Y-35300D02*
Y-26641D01*
X73274D01*
X74717Y-28084D01*
Y-30971D01*
X73274Y-32414D01*
X68945D01*
X71831D02*
X74717Y-35300D01*
X81933Y-26641D02*
X79046D01*
X77603Y-28084D01*
Y-33857D01*
X79046Y-35300D01*
X81933D01*
X83376Y-33857D01*
Y-28084D01*
X81933Y-26641D01*
X86262D02*
Y-33857D01*
X87705Y-35300D01*
X90591D01*
X92035Y-33857D01*
Y-26641D01*
X94921Y-35300D02*
Y-26641D01*
X100693Y-35300D01*
Y-26641D01*
X103579D02*
Y-35300D01*
X107909D01*
X109352Y-33857D01*
Y-28084D01*
X107909Y-26641D01*
X103579D01*
D96*
X49656Y103393D02*
D03*
X18503Y62946D02*
D03*
X32800Y4200D02*
D03*
X32600Y49199D02*
D03*
X18342Y109406D02*
D03*
X16141Y103150D02*
D03*
X20700Y97900D02*
D03*
X54128Y59734D02*
D03*
X54164Y53177D02*
D03*
X61909Y87599D02*
D03*
X40542Y49206D02*
D03*
X62272Y47796D02*
D03*
X54203Y65503D02*
D03*
X46858Y86530D02*
D03*
X52342Y84905D02*
D03*
X47058Y91993D02*
D03*
X30800Y70400D02*
D03*
X46600Y55300D02*
D03*
X2955Y13819D02*
D03*
X3113Y87134D02*
D03*
X3800Y100800D02*
D03*
X11790Y95227D02*
D03*
X19526Y20406D02*
D03*
X18842Y27906D02*
D03*
X20071Y88135D02*
D03*
X27559Y11335D02*
D03*
X27442Y14806D02*
D03*
X33842Y108006D02*
D03*
X36242Y107906D02*
D03*
X42520Y5906D02*
D03*
X40157Y23623D02*
D03*
X44094D02*
D03*
X40157Y31497D02*
D03*
Y27560D02*
D03*
X44094Y31497D02*
D03*
Y27560D02*
D03*
X40157Y35497D02*
D03*
X44094D02*
D03*
X41452Y91906D02*
D03*
X48031Y23623D02*
D03*
Y31497D02*
D03*
Y27560D02*
D03*
Y35497D02*
D03*
X55862Y14786D02*
D03*
X64942Y29506D02*
D03*
X64614Y63406D02*
D03*
X76378Y94942D02*
D03*
X72047Y94906D02*
D03*
X80972Y13819D02*
D03*
X80571Y102134D02*
D03*
X2955Y8819D02*
D03*
X9342Y83071D02*
D03*
X65842Y81906D02*
D03*
X63342Y66405D02*
D03*
X64842Y98905D02*
D03*
X80972Y8819D02*
D03*
X5342Y84905D02*
D03*
X54842Y91906D02*
D03*
X53042Y103406D02*
D03*
X62742Y39506D02*
D03*
X77558Y85237D02*
D03*
X6342Y50406D02*
D03*
X77782Y43186D02*
D03*
X77302Y57946D02*
D03*
M02*
