G04*
G04 #@! TF.GenerationSoftware,Altium Limited,Altium Designer,20.1.11 (218)*
G04*
G04 Layer_Color=8388736*
%FSLAX25Y25*%
%MOIN*%
G70*
G04*
G04 #@! TF.SameCoordinates,49FD3369-56E0-4B66-BF1D-E122077B7428*
G04*
G04*
G04 #@! TF.FilePolarity,Positive*
G04*
G01*
G75*
%ADD11C,0.01000*%
%ADD12C,0.00787*%
%ADD78C,0.01500*%
%ADD121C,0.00100*%
%ADD122C,0.00780*%
%ADD123C,0.00843*%
%ADD124C,0.00843*%
%ADD125C,0.01787*%
G36*
X787059Y-389873D02*
Y-395212D01*
X785383D01*
Y-389873D01*
X780518Y-382603D01*
X782541D01*
X785019Y-386430D01*
Y-386448D01*
X785055Y-386484D01*
X785091Y-386539D01*
X785128Y-386612D01*
X785201Y-386703D01*
X785274Y-386812D01*
X785438Y-387086D01*
X785638Y-387413D01*
X785857Y-387778D01*
X786094Y-388160D01*
X786312Y-388561D01*
Y-388543D01*
X786331Y-388507D01*
X786367Y-388452D01*
X786422Y-388379D01*
X786476Y-388288D01*
X786549Y-388179D01*
X786713Y-387905D01*
X786913Y-387577D01*
X787150Y-387195D01*
X787424Y-386776D01*
X787715Y-386320D01*
X790138Y-382603D01*
X792088D01*
X787059Y-389873D01*
D02*
G37*
G36*
X779042Y-395212D02*
X777312D01*
X770716Y-385318D01*
Y-395212D01*
X769113D01*
Y-382603D01*
X770825D01*
X777439Y-392515D01*
Y-382603D01*
X779042D01*
Y-395212D01*
D02*
G37*
G36*
X805571D02*
X803967D01*
Y-384662D01*
X800287Y-395212D01*
X798793D01*
X795149Y-384480D01*
Y-395212D01*
X793546D01*
Y-382603D01*
X796042D01*
X799030Y-391549D01*
Y-391568D01*
X799048Y-391604D01*
X799066Y-391659D01*
X799103Y-391750D01*
X799176Y-391968D01*
X799267Y-392242D01*
X799358Y-392551D01*
X799467Y-392861D01*
X799558Y-393153D01*
X799631Y-393408D01*
X799649Y-393371D01*
X799668Y-393280D01*
X799722Y-393116D01*
X799795Y-392898D01*
X799886Y-392606D01*
X800014Y-392260D01*
X800141Y-391859D01*
X800305Y-391385D01*
X803330Y-382603D01*
X805571D01*
Y-395212D01*
D02*
G37*
G36*
X726879D02*
X725239D01*
X722597Y-385610D01*
Y-385591D01*
X722579Y-385555D01*
X722561Y-385500D01*
X722542Y-385409D01*
X722488Y-385209D01*
X722433Y-384972D01*
X722360Y-384717D01*
X722287Y-384480D01*
X722232Y-384280D01*
X722214Y-384189D01*
X722196Y-384134D01*
Y-384152D01*
X722178Y-384170D01*
X722160Y-384280D01*
X722123Y-384444D01*
X722069Y-384644D01*
X722014Y-384863D01*
X721941Y-385118D01*
X721886Y-385373D01*
X721813Y-385610D01*
X719153Y-395212D01*
X717404D01*
X714106Y-382603D01*
X715837D01*
X717714Y-390875D01*
Y-390893D01*
X717732Y-390930D01*
X717750Y-391003D01*
X717769Y-391094D01*
X717787Y-391221D01*
X717823Y-391349D01*
X717860Y-391513D01*
X717896Y-391695D01*
X717987Y-392078D01*
X718078Y-392515D01*
X718169Y-392989D01*
X718260Y-393462D01*
Y-393444D01*
X718279Y-393371D01*
X718315Y-393280D01*
X718333Y-393134D01*
X718370Y-392989D01*
X718425Y-392807D01*
X718516Y-392406D01*
X718625Y-392005D01*
X718661Y-391804D01*
X718716Y-391622D01*
X718752Y-391458D01*
X718789Y-391313D01*
X718825Y-391203D01*
X718844Y-391130D01*
X721230Y-382603D01*
X723253D01*
X725038Y-388999D01*
Y-389017D01*
X725075Y-389108D01*
X725111Y-389235D01*
X725148Y-389399D01*
X725202Y-389618D01*
X725275Y-389855D01*
X725348Y-390128D01*
X725421Y-390438D01*
X725512Y-390784D01*
X725585Y-391130D01*
X725749Y-391877D01*
X725913Y-392661D01*
X726041Y-393462D01*
Y-393444D01*
X726059Y-393408D01*
Y-393335D01*
X726095Y-393244D01*
X726113Y-393134D01*
X726150Y-393007D01*
X726168Y-392843D01*
X726223Y-392661D01*
X726314Y-392260D01*
X726423Y-391786D01*
X726532Y-391276D01*
X726678Y-390711D01*
X728646Y-382603D01*
X730340D01*
X726879Y-395212D01*
D02*
G37*
G36*
X844635Y-389891D02*
Y-389910D01*
Y-389983D01*
Y-390073D01*
Y-390201D01*
X844616Y-390365D01*
Y-390547D01*
X844598Y-390766D01*
X844580Y-390985D01*
X844525Y-391476D01*
X844452Y-391987D01*
X844343Y-392479D01*
X844270Y-392716D01*
X844197Y-392934D01*
Y-392952D01*
X844179Y-392989D01*
X844143Y-393043D01*
X844106Y-393116D01*
X843997Y-393317D01*
X843833Y-393572D01*
X843614Y-393863D01*
X843359Y-394155D01*
X843031Y-394465D01*
X842630Y-394738D01*
X842612D01*
X842576Y-394774D01*
X842521Y-394793D01*
X842430Y-394847D01*
X842321Y-394902D01*
X842175Y-394956D01*
X842029Y-395011D01*
X841847Y-395084D01*
X841646Y-395157D01*
X841428Y-395212D01*
X841191Y-395266D01*
X840918Y-395321D01*
X840644Y-395357D01*
X840353Y-395394D01*
X839697Y-395430D01*
X839533D01*
X839405Y-395412D01*
X839260D01*
X839077Y-395394D01*
X838877Y-395376D01*
X838676Y-395357D01*
X838221Y-395285D01*
X837729Y-395175D01*
X837255Y-395029D01*
X836800Y-394829D01*
X836782D01*
X836745Y-394793D01*
X836691Y-394756D01*
X836618Y-394720D01*
X836417Y-394574D01*
X836180Y-394373D01*
X835907Y-394118D01*
X835652Y-393827D01*
X835397Y-393462D01*
X835196Y-393062D01*
Y-393043D01*
X835178Y-393007D01*
X835160Y-392934D01*
X835124Y-392843D01*
X835087Y-392734D01*
X835051Y-392588D01*
X834996Y-392424D01*
X834960Y-392224D01*
X834923Y-392005D01*
X834869Y-391768D01*
X834832Y-391513D01*
X834796Y-391240D01*
X834759Y-390930D01*
X834741Y-390602D01*
X834723Y-390256D01*
Y-389891D01*
Y-382603D01*
X836399D01*
Y-389891D01*
Y-389910D01*
Y-389964D01*
Y-390055D01*
Y-390165D01*
X836417Y-390292D01*
Y-390456D01*
X836436Y-390802D01*
X836472Y-391203D01*
X836527Y-391604D01*
X836599Y-391987D01*
X836636Y-392151D01*
X836691Y-392315D01*
X836709Y-392351D01*
X836745Y-392442D01*
X836836Y-392570D01*
X836946Y-392752D01*
X837073Y-392934D01*
X837255Y-393134D01*
X837474Y-393335D01*
X837729Y-393499D01*
X837766Y-393517D01*
X837857Y-393572D01*
X838021Y-393626D01*
X838239Y-393699D01*
X838494Y-393790D01*
X838822Y-393845D01*
X839168Y-393900D01*
X839551Y-393918D01*
X839733D01*
X839843Y-393900D01*
X840007D01*
X840171Y-393882D01*
X840571Y-393809D01*
X841009Y-393718D01*
X841428Y-393572D01*
X841829Y-393371D01*
X842011Y-393244D01*
X842175Y-393098D01*
X842193Y-393080D01*
X842211Y-393062D01*
X842248Y-393007D01*
X842302Y-392934D01*
X842357Y-392825D01*
X842430Y-392716D01*
X842503Y-392551D01*
X842576Y-392388D01*
X842649Y-392187D01*
X842703Y-391950D01*
X842776Y-391677D01*
X842831Y-391385D01*
X842885Y-391057D01*
X842922Y-390711D01*
X842958Y-390310D01*
Y-389891D01*
Y-382603D01*
X844635D01*
Y-389891D01*
D02*
G37*
G36*
X866371Y-384097D02*
X858919D01*
Y-387942D01*
X865897D01*
Y-389436D01*
X858919D01*
Y-393718D01*
X866662D01*
Y-395212D01*
X857243D01*
Y-382603D01*
X866371D01*
Y-384097D01*
D02*
G37*
G36*
X849026Y-393718D02*
X855239D01*
Y-395212D01*
X847349D01*
Y-382603D01*
X849026D01*
Y-393718D01*
D02*
G37*
G36*
X827162Y-382622D02*
X827526Y-382640D01*
X827890Y-382676D01*
X828255Y-382731D01*
X828564Y-382786D01*
X828583D01*
X828619Y-382804D01*
X828674D01*
X828747Y-382840D01*
X828947Y-382895D01*
X829202Y-382986D01*
X829494Y-383114D01*
X829803Y-383278D01*
X830113Y-383460D01*
X830405Y-383697D01*
X830423Y-383715D01*
X830441Y-383733D01*
X830496Y-383788D01*
X830569Y-383842D01*
X830751Y-384025D01*
X830970Y-384280D01*
X831206Y-384589D01*
X831461Y-384954D01*
X831698Y-385373D01*
X831899Y-385846D01*
Y-385865D01*
X831917Y-385901D01*
X831953Y-385974D01*
X831972Y-386083D01*
X832026Y-386211D01*
X832063Y-386357D01*
X832099Y-386521D01*
X832154Y-386721D01*
X832208Y-386922D01*
X832245Y-387158D01*
X832336Y-387668D01*
X832391Y-388233D01*
X832409Y-388853D01*
Y-388871D01*
Y-388908D01*
Y-388999D01*
Y-389090D01*
X832391Y-389217D01*
Y-389363D01*
X832372Y-389709D01*
X832318Y-390110D01*
X832263Y-390529D01*
X832172Y-390966D01*
X832063Y-391404D01*
Y-391422D01*
X832044Y-391458D01*
X832026Y-391513D01*
X832008Y-391586D01*
X831935Y-391786D01*
X831826Y-392041D01*
X831717Y-392333D01*
X831571Y-392624D01*
X831388Y-392934D01*
X831206Y-393226D01*
X831188Y-393262D01*
X831115Y-393353D01*
X831006Y-393481D01*
X830860Y-393645D01*
X830696Y-393827D01*
X830496Y-394009D01*
X830295Y-394210D01*
X830058Y-394373D01*
X830022Y-394392D01*
X829949Y-394446D01*
X829822Y-394519D01*
X829639Y-394610D01*
X829421Y-394720D01*
X829166Y-394811D01*
X828874Y-394920D01*
X828546Y-395011D01*
X828510D01*
X828455Y-395029D01*
X828400Y-395048D01*
X828218Y-395066D01*
X827963Y-395102D01*
X827672Y-395139D01*
X827326Y-395175D01*
X826943Y-395193D01*
X826524Y-395212D01*
X821987D01*
Y-382603D01*
X826834D01*
X827162Y-382622D01*
D02*
G37*
G36*
X766179Y-395212D02*
X764503D01*
Y-382603D01*
X766179D01*
Y-395212D01*
D02*
G37*
G36*
X762499Y-384097D02*
X758345D01*
Y-395212D01*
X756668D01*
Y-384097D01*
X752514D01*
Y-382603D01*
X762499D01*
Y-384097D01*
D02*
G37*
G36*
X736918Y-382622D02*
X737064D01*
X737392Y-382658D01*
X737756Y-382695D01*
X738139Y-382767D01*
X738521Y-382858D01*
X738867Y-382986D01*
X738886D01*
X738904Y-383004D01*
X739013Y-383059D01*
X739177Y-383150D01*
X739359Y-383278D01*
X739578Y-383441D01*
X739815Y-383642D01*
X740033Y-383897D01*
X740234Y-384170D01*
X740252Y-384207D01*
X740307Y-384316D01*
X740398Y-384462D01*
X740489Y-384680D01*
X740580Y-384935D01*
X740671Y-385209D01*
X740726Y-385519D01*
X740744Y-385828D01*
Y-385865D01*
Y-385956D01*
X740726Y-386120D01*
X740689Y-386320D01*
X740635Y-386557D01*
X740544Y-386812D01*
X740434Y-387067D01*
X740288Y-387340D01*
X740270Y-387377D01*
X740216Y-387450D01*
X740106Y-387596D01*
X739961Y-387741D01*
X739778Y-387924D01*
X739560Y-388124D01*
X739286Y-388306D01*
X738977Y-388488D01*
X738995D01*
X739031Y-388507D01*
X739086Y-388525D01*
X739159Y-388561D01*
X739377Y-388634D01*
X739633Y-388762D01*
X739906Y-388926D01*
X740216Y-389126D01*
X740489Y-389363D01*
X740744Y-389654D01*
X740762Y-389691D01*
X740835Y-389800D01*
X740944Y-389964D01*
X741054Y-390183D01*
X741163Y-390474D01*
X741272Y-390784D01*
X741345Y-391148D01*
X741363Y-391549D01*
Y-391568D01*
Y-391586D01*
Y-391695D01*
X741345Y-391877D01*
X741309Y-392096D01*
X741272Y-392351D01*
X741199Y-392624D01*
X741108Y-392916D01*
X740981Y-393207D01*
X740963Y-393244D01*
X740908Y-393335D01*
X740835Y-393462D01*
X740726Y-393645D01*
X740580Y-393827D01*
X740434Y-394027D01*
X740252Y-394228D01*
X740052Y-394392D01*
X740033Y-394410D01*
X739961Y-394465D01*
X739833Y-394537D01*
X739669Y-394610D01*
X739469Y-394720D01*
X739232Y-394829D01*
X738977Y-394920D01*
X738667Y-395011D01*
X738630D01*
X738521Y-395048D01*
X738339Y-395066D01*
X738102Y-395102D01*
X737811Y-395139D01*
X737464Y-395175D01*
X737082Y-395193D01*
X736645Y-395212D01*
X731834D01*
Y-382603D01*
X736790D01*
X736918Y-382622D01*
D02*
G37*
G36*
X708968D02*
X709278Y-382640D01*
X709606Y-382658D01*
X709916Y-382695D01*
X710189Y-382731D01*
X710225D01*
X710353Y-382767D01*
X710517Y-382804D01*
X710736Y-382858D01*
X710972Y-382949D01*
X711228Y-383059D01*
X711501Y-383186D01*
X711738Y-383332D01*
X711774Y-383350D01*
X711847Y-383405D01*
X711956Y-383514D01*
X712102Y-383642D01*
X712266Y-383806D01*
X712430Y-384025D01*
X712612Y-384261D01*
X712758Y-384535D01*
X712776Y-384571D01*
X712813Y-384662D01*
X712886Y-384826D01*
X712958Y-385045D01*
X713013Y-385300D01*
X713086Y-385591D01*
X713123Y-385919D01*
X713141Y-386266D01*
Y-386284D01*
Y-386338D01*
Y-386411D01*
X713123Y-386539D01*
X713104Y-386666D01*
X713086Y-386830D01*
X713050Y-387013D01*
X713013Y-387213D01*
X712886Y-387632D01*
X712813Y-387851D01*
X712703Y-388088D01*
X712576Y-388324D01*
X712448Y-388543D01*
X712284Y-388762D01*
X712102Y-388980D01*
X712084Y-388999D01*
X712047Y-389035D01*
X711993Y-389090D01*
X711902Y-389144D01*
X711792Y-389235D01*
X711647Y-389327D01*
X711465Y-389436D01*
X711264Y-389527D01*
X711027Y-389636D01*
X710754Y-389746D01*
X710462Y-389837D01*
X710116Y-389910D01*
X709752Y-389983D01*
X709351Y-390037D01*
X708895Y-390073D01*
X708422Y-390092D01*
X705197D01*
Y-395212D01*
X703521D01*
Y-382603D01*
X708695D01*
X708968Y-382622D01*
D02*
G37*
G36*
X814098Y-382403D02*
X814262D01*
X814426Y-382421D01*
X814644Y-382458D01*
X814863Y-382494D01*
X815337Y-382585D01*
X815883Y-382731D01*
X816412Y-382949D01*
X816685Y-383077D01*
X816958Y-383223D01*
X816977Y-383241D01*
X817013Y-383259D01*
X817086Y-383314D01*
X817195Y-383369D01*
X817305Y-383460D01*
X817450Y-383569D01*
X817760Y-383824D01*
X818088Y-384152D01*
X818452Y-384553D01*
X818799Y-385027D01*
X819090Y-385555D01*
Y-385573D01*
X819127Y-385628D01*
X819163Y-385701D01*
X819199Y-385810D01*
X819272Y-385956D01*
X819327Y-386120D01*
X819400Y-386320D01*
X819473Y-386539D01*
X819527Y-386776D01*
X819600Y-387031D01*
X819673Y-387322D01*
X819728Y-387614D01*
X819801Y-388251D01*
X819837Y-388944D01*
Y-388962D01*
Y-389035D01*
Y-389126D01*
X819819Y-389272D01*
Y-389436D01*
X819801Y-389636D01*
X819764Y-389855D01*
X819746Y-390092D01*
X819655Y-390620D01*
X819509Y-391203D01*
X819309Y-391786D01*
X819199Y-392078D01*
X819054Y-392369D01*
Y-392388D01*
X819017Y-392442D01*
X818981Y-392515D01*
X818908Y-392624D01*
X818835Y-392752D01*
X818744Y-392879D01*
X818489Y-393226D01*
X818179Y-393590D01*
X817815Y-393973D01*
X817377Y-394337D01*
X816867Y-394665D01*
X816849D01*
X816813Y-394701D01*
X816721Y-394738D01*
X816612Y-394793D01*
X816485Y-394847D01*
X816339Y-394902D01*
X816157Y-394975D01*
X815956Y-395048D01*
X815738Y-395121D01*
X815501Y-395193D01*
X814972Y-395303D01*
X814408Y-395394D01*
X813806Y-395430D01*
X813624D01*
X813515Y-395412D01*
X813351D01*
X813169Y-395376D01*
X812968Y-395357D01*
X812731Y-395321D01*
X812239Y-395212D01*
X811711Y-395066D01*
X811164Y-394847D01*
X810891Y-394720D01*
X810618Y-394574D01*
X810600Y-394556D01*
X810563Y-394537D01*
X810490Y-394483D01*
X810381Y-394410D01*
X810271Y-394337D01*
X810144Y-394228D01*
X809834Y-393954D01*
X809488Y-393626D01*
X809124Y-393226D01*
X808796Y-392770D01*
X808486Y-392242D01*
Y-392224D01*
X808449Y-392169D01*
X808413Y-392096D01*
X808377Y-391987D01*
X808322Y-391841D01*
X808267Y-391677D01*
X808195Y-391495D01*
X808140Y-391294D01*
X808067Y-391057D01*
X807994Y-390821D01*
X807885Y-390274D01*
X807812Y-389709D01*
X807775Y-389090D01*
Y-389071D01*
Y-389053D01*
Y-388944D01*
X807794Y-388780D01*
Y-388561D01*
X807830Y-388306D01*
X807866Y-387997D01*
X807921Y-387650D01*
X807994Y-387286D01*
X808067Y-386903D01*
X808176Y-386502D01*
X808322Y-386102D01*
X808486Y-385683D01*
X808668Y-385282D01*
X808905Y-384881D01*
X809160Y-384516D01*
X809452Y-384170D01*
X809470Y-384152D01*
X809525Y-384097D01*
X809634Y-384006D01*
X809761Y-383897D01*
X809925Y-383751D01*
X810126Y-383606D01*
X810363Y-383441D01*
X810636Y-383278D01*
X810927Y-383114D01*
X811255Y-382949D01*
X811620Y-382804D01*
X812002Y-382658D01*
X812422Y-382549D01*
X812859Y-382458D01*
X813314Y-382403D01*
X813806Y-382385D01*
X813970D01*
X814098Y-382403D01*
D02*
G37*
G36*
X745627Y-395212D02*
Y-395230D01*
Y-395248D01*
Y-395303D01*
Y-395376D01*
X745609Y-395540D01*
X745590Y-395776D01*
X745536Y-396013D01*
X745481Y-396287D01*
X745390Y-396542D01*
X745281Y-396778D01*
X745263Y-396797D01*
X745208Y-396870D01*
X745135Y-396979D01*
X745008Y-397125D01*
X744862Y-397270D01*
X744679Y-397416D01*
X744443Y-397580D01*
X744188Y-397708D01*
X743750Y-397052D01*
X743769Y-397034D01*
X743823Y-397015D01*
X743914Y-396961D01*
X744024Y-396888D01*
X744133Y-396797D01*
X744261Y-396687D01*
X744370Y-396560D01*
X744461Y-396414D01*
X744479Y-396396D01*
X744497Y-396341D01*
X744534Y-396232D01*
X744588Y-396104D01*
X744625Y-395940D01*
X744679Y-395722D01*
X744716Y-395485D01*
X744734Y-395212D01*
X743860D01*
Y-393444D01*
X745627D01*
Y-395212D01*
D02*
G37*
%LPC*%
G36*
X826578Y-384097D02*
X823663D01*
Y-393718D01*
X826651D01*
X826779Y-393699D01*
X827052Y-393681D01*
X827362Y-393663D01*
X827690Y-393626D01*
X828018Y-393572D01*
X828291Y-393499D01*
X828328Y-393481D01*
X828419Y-393462D01*
X828546Y-393408D01*
X828710Y-393335D01*
X828892Y-393226D01*
X829075Y-393116D01*
X829257Y-392989D01*
X829439Y-392843D01*
X829457Y-392807D01*
X829530Y-392734D01*
X829639Y-392606D01*
X829767Y-392424D01*
X829913Y-392187D01*
X830077Y-391914D01*
X830222Y-391604D01*
X830350Y-391258D01*
Y-391240D01*
X830368Y-391203D01*
X830386Y-391148D01*
X830405Y-391076D01*
X830423Y-390985D01*
X830459Y-390857D01*
X830496Y-390729D01*
X830532Y-390584D01*
X830587Y-390219D01*
X830641Y-389800D01*
X830678Y-389327D01*
X830696Y-388816D01*
Y-388798D01*
Y-388725D01*
Y-388634D01*
X830678Y-388488D01*
Y-388324D01*
X830660Y-388142D01*
X830641Y-387924D01*
X830623Y-387705D01*
X830532Y-387213D01*
X830423Y-386703D01*
X830259Y-386229D01*
X830150Y-385992D01*
X830040Y-385792D01*
Y-385774D01*
X830004Y-385737D01*
X829967Y-385683D01*
X829931Y-385610D01*
X829785Y-385427D01*
X829603Y-385209D01*
X829366Y-384972D01*
X829093Y-384735D01*
X828783Y-384535D01*
X828455Y-384371D01*
X828419Y-384352D01*
X828328Y-384334D01*
X828164Y-384280D01*
X827927Y-384225D01*
X827635Y-384189D01*
X827271Y-384134D01*
X827052Y-384116D01*
X826815D01*
X826578Y-384097D01*
D02*
G37*
G36*
X736499D02*
X733511D01*
Y-387887D01*
X736608D01*
X736845Y-387869D01*
X737100Y-387851D01*
X737355Y-387832D01*
X737610Y-387796D01*
X737811Y-387760D01*
X737847Y-387741D01*
X737920Y-387723D01*
X738029Y-387668D01*
X738175Y-387596D01*
X738321Y-387523D01*
X738485Y-387413D01*
X738649Y-387268D01*
X738776Y-387122D01*
X738795Y-387104D01*
X738831Y-387049D01*
X738886Y-386940D01*
X738940Y-386812D01*
X738995Y-386666D01*
X739050Y-386484D01*
X739086Y-386266D01*
X739104Y-386029D01*
Y-385992D01*
Y-385919D01*
X739086Y-385810D01*
X739068Y-385664D01*
X739031Y-385482D01*
X738977Y-385300D01*
X738904Y-385118D01*
X738795Y-384935D01*
X738776Y-384917D01*
X738740Y-384863D01*
X738667Y-384771D01*
X738576Y-384680D01*
X738448Y-384571D01*
X738303Y-384462D01*
X738120Y-384352D01*
X737920Y-384280D01*
X737902D01*
X737811Y-384243D01*
X737683Y-384225D01*
X737483Y-384189D01*
X737209Y-384152D01*
X736900Y-384134D01*
X736499Y-384097D01*
D02*
G37*
G36*
X736827Y-389381D02*
X733511D01*
Y-393718D01*
X737100D01*
X737483Y-393699D01*
X737647Y-393681D01*
X737792Y-393663D01*
X737811D01*
X737884Y-393645D01*
X737993Y-393626D01*
X738120Y-393590D01*
X738430Y-393481D01*
X738740Y-393335D01*
X738758Y-393317D01*
X738813Y-393280D01*
X738886Y-393226D01*
X738977Y-393153D01*
X739068Y-393043D01*
X739195Y-392934D01*
X739286Y-392788D01*
X739396Y-392624D01*
X739414Y-392606D01*
X739432Y-392551D01*
X739469Y-392442D01*
X739523Y-392315D01*
X739578Y-392169D01*
X739614Y-391987D01*
X739633Y-391768D01*
X739651Y-391549D01*
Y-391513D01*
Y-391440D01*
X739633Y-391294D01*
X739596Y-391130D01*
X739560Y-390948D01*
X739487Y-390748D01*
X739396Y-390547D01*
X739268Y-390347D01*
X739250Y-390329D01*
X739195Y-390256D01*
X739122Y-390165D01*
X739013Y-390055D01*
X738867Y-389928D01*
X738685Y-389800D01*
X738485Y-389691D01*
X738248Y-389600D01*
X738211Y-389582D01*
X738139Y-389563D01*
X737975Y-389527D01*
X737774Y-389491D01*
X737519Y-389454D01*
X737209Y-389418D01*
X736827Y-389381D01*
D02*
G37*
G36*
X708804Y-384097D02*
X705197D01*
Y-388598D01*
X708586D01*
X708713Y-388580D01*
X708841D01*
X708987Y-388561D01*
X709333Y-388525D01*
X709715Y-388452D01*
X710098Y-388343D01*
X710444Y-388197D01*
X710608Y-388106D01*
X710736Y-387997D01*
X710772Y-387960D01*
X710845Y-387887D01*
X710954Y-387741D01*
X711082Y-387559D01*
X711209Y-387322D01*
X711319Y-387031D01*
X711392Y-386703D01*
X711428Y-386320D01*
Y-386302D01*
Y-386284D01*
Y-386193D01*
X711410Y-386029D01*
X711373Y-385846D01*
X711337Y-385646D01*
X711264Y-385409D01*
X711155Y-385191D01*
X711027Y-384972D01*
X711009Y-384954D01*
X710954Y-384881D01*
X710863Y-384790D01*
X710754Y-384662D01*
X710590Y-384535D01*
X710408Y-384425D01*
X710207Y-384316D01*
X709970Y-384225D01*
X709952D01*
X709879Y-384207D01*
X709770Y-384189D01*
X709624Y-384152D01*
X709406Y-384134D01*
X709132Y-384116D01*
X708804Y-384097D01*
D02*
G37*
G36*
X813806Y-383824D02*
X813642D01*
X813515Y-383842D01*
X813351Y-383860D01*
X813187Y-383897D01*
X812986Y-383933D01*
X812768Y-383970D01*
X812294Y-384116D01*
X812039Y-384225D01*
X811784Y-384334D01*
X811510Y-384480D01*
X811255Y-384644D01*
X811000Y-384826D01*
X810763Y-385045D01*
X810745Y-385063D01*
X810709Y-385100D01*
X810654Y-385172D01*
X810563Y-385282D01*
X810472Y-385409D01*
X810363Y-385573D01*
X810253Y-385774D01*
X810126Y-386011D01*
X810017Y-386266D01*
X809889Y-386575D01*
X809780Y-386903D01*
X809688Y-387268D01*
X809597Y-387668D01*
X809543Y-388124D01*
X809506Y-388598D01*
X809488Y-389108D01*
Y-389126D01*
Y-389199D01*
Y-389327D01*
X809506Y-389491D01*
X809525Y-389673D01*
X809561Y-389891D01*
X809597Y-390146D01*
X809634Y-390402D01*
X809780Y-390985D01*
X809889Y-391276D01*
X809998Y-391586D01*
X810144Y-391877D01*
X810308Y-392169D01*
X810490Y-392442D01*
X810709Y-392697D01*
X810727Y-392716D01*
X810763Y-392752D01*
X810836Y-392825D01*
X810927Y-392898D01*
X811055Y-393007D01*
X811201Y-393116D01*
X811365Y-393226D01*
X811547Y-393353D01*
X811766Y-393481D01*
X812002Y-393590D01*
X812257Y-393699D01*
X812531Y-393809D01*
X812822Y-393882D01*
X813114Y-393954D01*
X813442Y-393991D01*
X813788Y-394009D01*
X813879D01*
X813970Y-393991D01*
X814098D01*
X814262Y-393973D01*
X814444Y-393936D01*
X814663Y-393900D01*
X814881Y-393845D01*
X815136Y-393772D01*
X815373Y-393681D01*
X815646Y-393590D01*
X815901Y-393462D01*
X816157Y-393299D01*
X816412Y-393134D01*
X816667Y-392934D01*
X816904Y-392697D01*
X816922Y-392679D01*
X816958Y-392643D01*
X817013Y-392551D01*
X817104Y-392442D01*
X817195Y-392315D01*
X817286Y-392151D01*
X817396Y-391950D01*
X817523Y-391732D01*
X817632Y-391476D01*
X817742Y-391185D01*
X817833Y-390875D01*
X817942Y-390547D01*
X818015Y-390183D01*
X818070Y-389782D01*
X818106Y-389363D01*
X818124Y-388926D01*
Y-388908D01*
Y-388853D01*
Y-388780D01*
Y-388671D01*
X818106Y-388543D01*
Y-388379D01*
X818088Y-388215D01*
X818052Y-388015D01*
X817997Y-387596D01*
X817906Y-387158D01*
X817778Y-386685D01*
X817596Y-386247D01*
Y-386229D01*
X817578Y-386193D01*
X817541Y-386138D01*
X817505Y-386065D01*
X817377Y-385846D01*
X817213Y-385591D01*
X816995Y-385300D01*
X816721Y-385008D01*
X816412Y-384717D01*
X816066Y-384462D01*
X816047D01*
X816029Y-384425D01*
X815974Y-384407D01*
X815883Y-384352D01*
X815792Y-384316D01*
X815683Y-384261D01*
X815410Y-384134D01*
X815082Y-384025D01*
X814699Y-383915D01*
X814262Y-383842D01*
X813806Y-383824D01*
D02*
G37*
%LPD*%
D11*
X702630Y-458393D02*
X696536Y-442396D01*
X690442Y-458393D01*
X692727Y-453060D02*
X700345D01*
X707886Y-442396D02*
X716265D01*
X711694Y-448490D01*
X713980D01*
X715503Y-449252D01*
X716265Y-450013D01*
X717027Y-452299D01*
Y-453822D01*
X716265Y-456107D01*
X714742Y-457631D01*
X712456Y-458393D01*
X710171D01*
X707886Y-457631D01*
X707124Y-456869D01*
X706362Y-455346D01*
X-263580Y-125902D02*
Y-131900D01*
X-259582D01*
X-256583Y-127901D02*
X-254583D01*
X-253584Y-128901D01*
Y-131900D01*
X-256583D01*
X-257582Y-130900D01*
X-256583Y-129901D01*
X-253584D01*
X-251584Y-127901D02*
Y-130900D01*
X-250585Y-131900D01*
X-247586D01*
Y-132900D01*
X-248585Y-133899D01*
X-249585D01*
X-247586Y-131900D02*
Y-127901D01*
X-242587Y-131900D02*
X-244586D01*
X-245586Y-130900D01*
Y-128901D01*
X-244586Y-127901D01*
X-242587D01*
X-241587Y-128901D01*
Y-129901D01*
X-245586D01*
X-239588Y-127901D02*
Y-131900D01*
Y-129901D01*
X-238588Y-128901D01*
X-237589Y-127901D01*
X-236589D01*
X-259582Y-281902D02*
X-261581Y-282902D01*
X-263580Y-284901D01*
Y-286900D01*
X-262581Y-287900D01*
X-260581D01*
X-259582Y-286900D01*
Y-285901D01*
X-260581Y-284901D01*
X-263580D01*
X-259582Y-257902D02*
X-263580D01*
Y-260901D01*
X-261581Y-259901D01*
X-260581D01*
X-259582Y-260901D01*
Y-262900D01*
X-260581Y-263900D01*
X-262581D01*
X-263580Y-262900D01*
X-260581Y-239900D02*
Y-233902D01*
X-263580Y-236901D01*
X-259582D01*
X-263580Y-210902D02*
X-262581Y-209902D01*
X-260581D01*
X-259582Y-210902D01*
Y-211901D01*
X-260581Y-212901D01*
X-261581D01*
X-260581D01*
X-259582Y-213901D01*
Y-214900D01*
X-260581Y-215900D01*
X-262581D01*
X-263580Y-214900D01*
X-259582Y-191900D02*
X-263580D01*
X-259582Y-187901D01*
Y-186902D01*
X-260581Y-185902D01*
X-262581D01*
X-263580Y-186902D01*
Y-167900D02*
X-261581D01*
X-262581D01*
Y-161902D01*
X-263580Y-162902D01*
X-222589Y-131900D02*
Y-125902D01*
X-218590Y-131900D01*
Y-125902D01*
X-215591Y-127901D02*
X-213592D01*
X-212592Y-128901D01*
Y-131900D01*
X-215591D01*
X-216591Y-130900D01*
X-215591Y-129901D01*
X-212592D01*
X-210593Y-131900D02*
Y-127901D01*
X-209593D01*
X-208594Y-128901D01*
Y-131900D01*
Y-128901D01*
X-207594Y-127901D01*
X-206594Y-128901D01*
Y-131900D01*
X-201596D02*
X-203595D01*
X-204595Y-130900D01*
Y-128901D01*
X-203595Y-127901D01*
X-201596D01*
X-200596Y-128901D01*
Y-129901D01*
X-204595D01*
X-222589Y-305902D02*
Y-311900D01*
X-219590D01*
X-218590Y-310900D01*
Y-309901D01*
X-219590Y-308901D01*
X-222589D01*
X-219590D01*
X-218590Y-307901D01*
Y-306902D01*
X-219590Y-305902D01*
X-222589D01*
X-215591Y-311900D02*
X-213592D01*
X-212592Y-310900D01*
Y-308901D01*
X-213592Y-307901D01*
X-215591D01*
X-216591Y-308901D01*
Y-310900D01*
X-215591Y-311900D01*
X-209593Y-306902D02*
Y-307901D01*
X-210593D01*
X-208594D01*
X-209593D01*
Y-310900D01*
X-208594Y-311900D01*
X-204595Y-306902D02*
Y-307901D01*
X-205595D01*
X-203595D01*
X-204595D01*
Y-310900D01*
X-203595Y-311900D01*
X-199597D02*
X-197597D01*
X-196598Y-310900D01*
Y-308901D01*
X-197597Y-307901D01*
X-199597D01*
X-200596Y-308901D01*
Y-310900D01*
X-199597Y-311900D01*
X-194598D02*
Y-307901D01*
X-193598D01*
X-192599Y-308901D01*
Y-311900D01*
Y-308901D01*
X-191599Y-307901D01*
X-190599Y-308901D01*
Y-311900D01*
X-179603Y-305902D02*
X-181602D01*
X-182602Y-306902D01*
Y-310900D01*
X-181602Y-311900D01*
X-179603D01*
X-178603Y-310900D01*
Y-306902D01*
X-179603Y-305902D01*
X-176604Y-307901D02*
X-174605Y-311900D01*
X-172605Y-307901D01*
X-167607Y-311900D02*
X-169606D01*
X-170606Y-310900D01*
Y-308901D01*
X-169606Y-307901D01*
X-167607D01*
X-166607Y-308901D01*
Y-309901D01*
X-170606D01*
X-164608Y-307901D02*
Y-311900D01*
Y-309901D01*
X-163608Y-308901D01*
X-162609Y-307901D01*
X-161609D01*
X-158610Y-311900D02*
X-156610D01*
X-157610D01*
Y-305902D01*
X-158610D01*
X-152612Y-307901D02*
X-150612D01*
X-149613Y-308901D01*
Y-311900D01*
X-152612D01*
X-153611Y-310900D01*
X-152612Y-309901D01*
X-149613D01*
X-147613Y-307901D02*
Y-310900D01*
X-146614Y-311900D01*
X-143615D01*
Y-312900D01*
X-144614Y-313899D01*
X-145614D01*
X-143615Y-311900D02*
Y-307901D01*
X-222589Y-293902D02*
Y-299900D01*
X-219590D01*
X-218590Y-298900D01*
Y-297901D01*
X-219590Y-296901D01*
X-222589D01*
X-219590D01*
X-218590Y-295901D01*
Y-294902D01*
X-219590Y-293902D01*
X-222589D01*
X-215591Y-299900D02*
X-213592D01*
X-212592Y-298900D01*
Y-296901D01*
X-213592Y-295901D01*
X-215591D01*
X-216591Y-296901D01*
Y-298900D01*
X-215591Y-299900D01*
X-209593Y-294902D02*
Y-295901D01*
X-210593D01*
X-208594D01*
X-209593D01*
Y-298900D01*
X-208594Y-299900D01*
X-204595Y-294902D02*
Y-295901D01*
X-205595D01*
X-203595D01*
X-204595D01*
Y-298900D01*
X-203595Y-299900D01*
X-199597D02*
X-197597D01*
X-196598Y-298900D01*
Y-296901D01*
X-197597Y-295901D01*
X-199597D01*
X-200596Y-296901D01*
Y-298900D01*
X-199597Y-299900D01*
X-194598D02*
Y-295901D01*
X-193598D01*
X-192599Y-296901D01*
Y-299900D01*
Y-296901D01*
X-191599Y-295901D01*
X-190599Y-296901D01*
Y-299900D01*
X-178603Y-294902D02*
X-179603Y-293902D01*
X-181602D01*
X-182602Y-294902D01*
Y-295901D01*
X-181602Y-296901D01*
X-179603D01*
X-178603Y-297901D01*
Y-298900D01*
X-179603Y-299900D01*
X-181602D01*
X-182602Y-298900D01*
X-175604Y-299900D02*
X-173605D01*
X-172605Y-298900D01*
Y-296901D01*
X-173605Y-295901D01*
X-175604D01*
X-176604Y-296901D01*
Y-298900D01*
X-175604Y-299900D01*
X-170606D02*
X-168606D01*
X-169606D01*
Y-293902D01*
X-170606D01*
X-161609D02*
Y-299900D01*
X-164608D01*
X-165608Y-298900D01*
Y-296901D01*
X-164608Y-295901D01*
X-161609D01*
X-156610Y-299900D02*
X-158610D01*
X-159609Y-298900D01*
Y-296901D01*
X-158610Y-295901D01*
X-156610D01*
X-155611Y-296901D01*
Y-297901D01*
X-159609D01*
X-153611Y-295901D02*
Y-299900D01*
Y-297901D01*
X-152612Y-296901D01*
X-151612Y-295901D01*
X-150612D01*
X-222589Y-281902D02*
Y-287900D01*
X-219590D01*
X-218590Y-286900D01*
Y-285901D01*
X-219590Y-284901D01*
X-222589D01*
X-219590D01*
X-218590Y-283901D01*
Y-282902D01*
X-219590Y-281902D01*
X-222589D01*
X-215591Y-287900D02*
X-213592D01*
X-212592Y-286900D01*
Y-284901D01*
X-213592Y-283901D01*
X-215591D01*
X-216591Y-284901D01*
Y-286900D01*
X-215591Y-287900D01*
X-209593Y-282902D02*
Y-283901D01*
X-210593D01*
X-208594D01*
X-209593D01*
Y-286900D01*
X-208594Y-287900D01*
X-204595Y-282902D02*
Y-283901D01*
X-205595D01*
X-203595D01*
X-204595D01*
Y-286900D01*
X-203595Y-287900D01*
X-199597D02*
X-197597D01*
X-196598Y-286900D01*
Y-284901D01*
X-197597Y-283901D01*
X-199597D01*
X-200596Y-284901D01*
Y-286900D01*
X-199597Y-287900D01*
X-194598D02*
Y-283901D01*
X-193598D01*
X-192599Y-284901D01*
Y-287900D01*
Y-284901D01*
X-191599Y-283901D01*
X-190599Y-284901D01*
Y-287900D01*
X-182602Y-281902D02*
Y-287900D01*
X-178603D01*
X-175604Y-283901D02*
X-173605D01*
X-172605Y-284901D01*
Y-287900D01*
X-175604D01*
X-176604Y-286900D01*
X-175604Y-285901D01*
X-172605D01*
X-170606Y-283901D02*
Y-286900D01*
X-169606Y-287900D01*
X-166607D01*
Y-288900D01*
X-167607Y-289899D01*
X-168606D01*
X-166607Y-287900D02*
Y-283901D01*
X-161609Y-287900D02*
X-163608D01*
X-164608Y-286900D01*
Y-284901D01*
X-163608Y-283901D01*
X-161609D01*
X-160609Y-284901D01*
Y-285901D01*
X-164608D01*
X-158610Y-283901D02*
Y-287900D01*
Y-285901D01*
X-157610Y-284901D01*
X-156610Y-283901D01*
X-155611D01*
X-222589Y-269902D02*
Y-275900D01*
X-219590D01*
X-218590Y-274900D01*
Y-270902D01*
X-219590Y-269902D01*
X-222589D01*
X-216591Y-275900D02*
X-214592D01*
X-215591D01*
Y-271901D01*
X-216591D01*
X-208594Y-275900D02*
X-210593D01*
X-211593Y-274900D01*
Y-272901D01*
X-210593Y-271901D01*
X-208594D01*
X-207594Y-272901D01*
Y-273901D01*
X-211593D01*
X-205595Y-275900D02*
X-203595D01*
X-204595D01*
Y-269902D01*
X-205595D01*
X-197597Y-275900D02*
X-199597D01*
X-200596Y-274900D01*
Y-272901D01*
X-199597Y-271901D01*
X-197597D01*
X-196598Y-272901D01*
Y-273901D01*
X-200596D01*
X-190599Y-271901D02*
X-193598D01*
X-194598Y-272901D01*
Y-274900D01*
X-193598Y-275900D01*
X-190599D01*
X-187600Y-270902D02*
Y-271901D01*
X-188600D01*
X-186601D01*
X-187600D01*
Y-274900D01*
X-186601Y-275900D01*
X-183602Y-271901D02*
Y-275900D01*
Y-273901D01*
X-182602Y-272901D01*
X-181602Y-271901D01*
X-180603D01*
X-177604Y-275900D02*
X-175604D01*
X-176604D01*
Y-271901D01*
X-177604D01*
X-168606D02*
X-171606D01*
X-172605Y-272901D01*
Y-274900D01*
X-171606Y-275900D01*
X-168606D01*
X-166607Y-270902D02*
X-165608Y-269902D01*
X-163608D01*
X-162609Y-270902D01*
Y-271901D01*
X-163608Y-272901D01*
X-162609Y-273901D01*
Y-274900D01*
X-163608Y-275900D01*
X-165608D01*
X-166607Y-274900D01*
Y-273901D01*
X-165608Y-272901D01*
X-166607Y-271901D01*
Y-270902D01*
X-165608Y-272901D02*
X-163608D01*
X-222589Y-263900D02*
Y-257902D01*
X-219590D01*
X-218590Y-258902D01*
Y-260901D01*
X-219590Y-261901D01*
X-222589D01*
X-216591Y-257902D02*
Y-263900D01*
X-214592Y-261901D01*
X-212592Y-263900D01*
Y-257902D01*
X-210593Y-263900D02*
Y-257902D01*
X-207594D01*
X-206594Y-258902D01*
Y-260901D01*
X-207594Y-261901D01*
X-210593D01*
X-208594D02*
X-206594Y-263900D01*
X-222589Y-245902D02*
Y-251900D01*
X-219590D01*
X-218590Y-250900D01*
Y-246902D01*
X-219590Y-245902D01*
X-222589D01*
X-216591Y-251900D02*
X-214592D01*
X-215591D01*
Y-247901D01*
X-216591D01*
X-208594Y-251900D02*
X-210593D01*
X-211593Y-250900D01*
Y-248901D01*
X-210593Y-247901D01*
X-208594D01*
X-207594Y-248901D01*
Y-249901D01*
X-211593D01*
X-205595Y-251900D02*
X-203595D01*
X-204595D01*
Y-245902D01*
X-205595D01*
X-197597Y-251900D02*
X-199597D01*
X-200596Y-250900D01*
Y-248901D01*
X-199597Y-247901D01*
X-197597D01*
X-196598Y-248901D01*
Y-249901D01*
X-200596D01*
X-190599Y-247901D02*
X-193598D01*
X-194598Y-248901D01*
Y-250900D01*
X-193598Y-251900D01*
X-190599D01*
X-187600Y-246902D02*
Y-247901D01*
X-188600D01*
X-186601D01*
X-187600D01*
Y-250900D01*
X-186601Y-251900D01*
X-183602Y-247901D02*
Y-251900D01*
Y-249901D01*
X-182602Y-248901D01*
X-181602Y-247901D01*
X-180603D01*
X-177604Y-251900D02*
X-175604D01*
X-176604D01*
Y-247901D01*
X-177604D01*
X-168606D02*
X-171606D01*
X-172605Y-248901D01*
Y-250900D01*
X-171606Y-251900D01*
X-168606D01*
X-166607Y-246902D02*
X-165608Y-245902D01*
X-163608D01*
X-162609Y-246902D01*
Y-247901D01*
X-163608Y-248901D01*
X-164608D01*
X-163608D01*
X-162609Y-249901D01*
Y-250900D01*
X-163608Y-251900D01*
X-165608D01*
X-166607Y-250900D01*
X-222589Y-239900D02*
Y-233902D01*
X-220590Y-235901D01*
X-218590Y-233902D01*
Y-239900D01*
X-216591D02*
X-214592D01*
X-215591D01*
Y-235901D01*
X-216591D01*
X-207594Y-233902D02*
Y-239900D01*
X-210593D01*
X-211593Y-238900D01*
Y-236901D01*
X-210593Y-235901D01*
X-207594D01*
X-205595Y-236901D02*
X-201596D01*
X-199597Y-233902D02*
Y-239900D01*
X-195598D01*
X-192599Y-235901D02*
X-190599D01*
X-189600Y-236901D01*
Y-239900D01*
X-192599D01*
X-193598Y-238900D01*
X-192599Y-237901D01*
X-189600D01*
X-187600Y-235901D02*
Y-238900D01*
X-186601Y-239900D01*
X-183602D01*
Y-240900D01*
X-184601Y-241899D01*
X-185601D01*
X-183602Y-239900D02*
Y-235901D01*
X-178603Y-239900D02*
X-180603D01*
X-181602Y-238900D01*
Y-236901D01*
X-180603Y-235901D01*
X-178603D01*
X-177604Y-236901D01*
Y-237901D01*
X-181602D01*
X-175604Y-235901D02*
Y-239900D01*
Y-237901D01*
X-174605Y-236901D01*
X-173605Y-235901D01*
X-172605D01*
X-159609Y-239900D02*
X-163608D01*
X-159609Y-235901D01*
Y-234902D01*
X-160609Y-233902D01*
X-162609D01*
X-163608Y-234902D01*
X-222589Y-221902D02*
Y-227900D01*
X-219590D01*
X-218590Y-226900D01*
Y-222902D01*
X-219590Y-221902D01*
X-222589D01*
X-216591Y-227900D02*
X-214592D01*
X-215591D01*
Y-223901D01*
X-216591D01*
X-208594Y-227900D02*
X-210593D01*
X-211593Y-226900D01*
Y-224901D01*
X-210593Y-223901D01*
X-208594D01*
X-207594Y-224901D01*
Y-225901D01*
X-211593D01*
X-205595Y-227900D02*
X-203595D01*
X-204595D01*
Y-221902D01*
X-205595D01*
X-197597Y-227900D02*
X-199597D01*
X-200596Y-226900D01*
Y-224901D01*
X-199597Y-223901D01*
X-197597D01*
X-196598Y-224901D01*
Y-225901D01*
X-200596D01*
X-190599Y-223901D02*
X-193598D01*
X-194598Y-224901D01*
Y-226900D01*
X-193598Y-227900D01*
X-190599D01*
X-187600Y-222902D02*
Y-223901D01*
X-188600D01*
X-186601D01*
X-187600D01*
Y-226900D01*
X-186601Y-227900D01*
X-183602Y-223901D02*
Y-227900D01*
Y-225901D01*
X-182602Y-224901D01*
X-181602Y-223901D01*
X-180603D01*
X-177604Y-227900D02*
X-175604D01*
X-176604D01*
Y-223901D01*
X-177604D01*
X-168606D02*
X-171606D01*
X-172605Y-224901D01*
Y-226900D01*
X-171606Y-227900D01*
X-168606D01*
X-162609D02*
X-166607D01*
X-162609Y-223901D01*
Y-222902D01*
X-163608Y-221902D01*
X-165608D01*
X-166607Y-222902D01*
X-222589Y-215900D02*
Y-209902D01*
X-220590Y-211901D01*
X-218590Y-209902D01*
Y-215900D01*
X-216591D02*
X-214592D01*
X-215591D01*
Y-211901D01*
X-216591D01*
X-207594Y-209902D02*
Y-215900D01*
X-210593D01*
X-211593Y-214900D01*
Y-212901D01*
X-210593Y-211901D01*
X-207594D01*
X-205595Y-212901D02*
X-201596D01*
X-199597Y-209902D02*
Y-215900D01*
X-195598D01*
X-192599Y-211901D02*
X-190599D01*
X-189600Y-212901D01*
Y-215900D01*
X-192599D01*
X-193598Y-214900D01*
X-192599Y-213901D01*
X-189600D01*
X-187600Y-211901D02*
Y-214900D01*
X-186601Y-215900D01*
X-183602D01*
Y-216900D01*
X-184601Y-217899D01*
X-185601D01*
X-183602Y-215900D02*
Y-211901D01*
X-178603Y-215900D02*
X-180603D01*
X-181602Y-214900D01*
Y-212901D01*
X-180603Y-211901D01*
X-178603D01*
X-177604Y-212901D01*
Y-213901D01*
X-181602D01*
X-175604Y-211901D02*
Y-215900D01*
Y-213901D01*
X-174605Y-212901D01*
X-173605Y-211901D01*
X-172605D01*
X-163608Y-215900D02*
X-161609D01*
X-162609D01*
Y-209902D01*
X-163608Y-210902D01*
X-222589Y-197902D02*
Y-203900D01*
X-219590D01*
X-218590Y-202900D01*
Y-198902D01*
X-219590Y-197902D01*
X-222589D01*
X-216591Y-203900D02*
X-214592D01*
X-215591D01*
Y-199901D01*
X-216591D01*
X-208594Y-203900D02*
X-210593D01*
X-211593Y-202900D01*
Y-200901D01*
X-210593Y-199901D01*
X-208594D01*
X-207594Y-200901D01*
Y-201901D01*
X-211593D01*
X-205595Y-203900D02*
X-203595D01*
X-204595D01*
Y-197902D01*
X-205595D01*
X-197597Y-203900D02*
X-199597D01*
X-200596Y-202900D01*
Y-200901D01*
X-199597Y-199901D01*
X-197597D01*
X-196598Y-200901D01*
Y-201901D01*
X-200596D01*
X-190599Y-199901D02*
X-193598D01*
X-194598Y-200901D01*
Y-202900D01*
X-193598Y-203900D01*
X-190599D01*
X-187600Y-198902D02*
Y-199901D01*
X-188600D01*
X-186601D01*
X-187600D01*
Y-202900D01*
X-186601Y-203900D01*
X-183602Y-199901D02*
Y-203900D01*
Y-201901D01*
X-182602Y-200901D01*
X-181602Y-199901D01*
X-180603D01*
X-177604Y-203900D02*
X-175604D01*
X-176604D01*
Y-199901D01*
X-177604D01*
X-168606D02*
X-171606D01*
X-172605Y-200901D01*
Y-202900D01*
X-171606Y-203900D01*
X-168606D01*
X-166607Y-197902D02*
X-162609D01*
Y-198902D01*
X-166607Y-202900D01*
Y-203900D01*
X-218590Y-186902D02*
X-219590Y-185902D01*
X-221589D01*
X-222589Y-186902D01*
Y-190900D01*
X-221589Y-191900D01*
X-219590D01*
X-218590Y-190900D01*
Y-188901D01*
X-220590D01*
X-216591Y-191900D02*
Y-185902D01*
X-212592Y-191900D01*
Y-185902D01*
X-210593D02*
Y-191900D01*
X-207594D01*
X-206594Y-190900D01*
Y-186902D01*
X-207594Y-185902D01*
X-210593D01*
X-222589Y-173902D02*
Y-179900D01*
X-219590D01*
X-218590Y-178900D01*
Y-174902D01*
X-219590Y-173902D01*
X-222589D01*
X-216591Y-179900D02*
X-214592D01*
X-215591D01*
Y-175901D01*
X-216591D01*
X-208594Y-179900D02*
X-210593D01*
X-211593Y-178900D01*
Y-176901D01*
X-210593Y-175901D01*
X-208594D01*
X-207594Y-176901D01*
Y-177901D01*
X-211593D01*
X-205595Y-179900D02*
X-203595D01*
X-204595D01*
Y-173902D01*
X-205595D01*
X-197597Y-179900D02*
X-199597D01*
X-200596Y-178900D01*
Y-176901D01*
X-199597Y-175901D01*
X-197597D01*
X-196598Y-176901D01*
Y-177901D01*
X-200596D01*
X-190599Y-175901D02*
X-193598D01*
X-194598Y-176901D01*
Y-178900D01*
X-193598Y-179900D01*
X-190599D01*
X-187600Y-174902D02*
Y-175901D01*
X-188600D01*
X-186601D01*
X-187600D01*
Y-178900D01*
X-186601Y-179900D01*
X-183602Y-175901D02*
Y-179900D01*
Y-177901D01*
X-182602Y-176901D01*
X-181602Y-175901D01*
X-180603D01*
X-177604Y-179900D02*
X-175604D01*
X-176604D01*
Y-175901D01*
X-177604D01*
X-168606D02*
X-171606D01*
X-172605Y-176901D01*
Y-178900D01*
X-171606Y-179900D01*
X-168606D01*
X-166607D02*
X-164608D01*
X-165608D01*
Y-173902D01*
X-166607Y-174902D01*
X-222589Y-161902D02*
X-218590D01*
X-220590D01*
Y-167900D01*
X-215591D02*
X-213592D01*
X-212592Y-166900D01*
Y-164901D01*
X-213592Y-163901D01*
X-215591D01*
X-216591Y-164901D01*
Y-166900D01*
X-215591Y-167900D01*
X-210593Y-169899D02*
Y-163901D01*
X-207594D01*
X-206594Y-164901D01*
Y-166900D01*
X-207594Y-167900D01*
X-210593D01*
X-198597Y-161902D02*
Y-167900D01*
X-194598D01*
X-191599Y-163901D02*
X-189600D01*
X-188600Y-164901D01*
Y-167900D01*
X-191599D01*
X-192599Y-166900D01*
X-191599Y-165901D01*
X-188600D01*
X-186601Y-163901D02*
Y-166900D01*
X-185601Y-167900D01*
X-182602D01*
Y-168900D01*
X-183602Y-169899D01*
X-184601D01*
X-182602Y-167900D02*
Y-163901D01*
X-177604Y-167900D02*
X-179603D01*
X-180603Y-166900D01*
Y-164901D01*
X-179603Y-163901D01*
X-177604D01*
X-176604Y-164901D01*
Y-165901D01*
X-180603D01*
X-174605Y-163901D02*
Y-167900D01*
Y-165901D01*
X-173605Y-164901D01*
X-172605Y-163901D01*
X-171606D01*
X-222589Y-149902D02*
X-218590D01*
X-220590D01*
Y-155900D01*
X-215591D02*
X-213592D01*
X-212592Y-154900D01*
Y-152901D01*
X-213592Y-151901D01*
X-215591D01*
X-216591Y-152901D01*
Y-154900D01*
X-215591Y-155900D01*
X-210593Y-157899D02*
Y-151901D01*
X-207594D01*
X-206594Y-152901D01*
Y-154900D01*
X-207594Y-155900D01*
X-210593D01*
X-194598Y-150902D02*
X-195598Y-149902D01*
X-197597D01*
X-198597Y-150902D01*
Y-151901D01*
X-197597Y-152901D01*
X-195598D01*
X-194598Y-153901D01*
Y-154900D01*
X-195598Y-155900D01*
X-197597D01*
X-198597Y-154900D01*
X-191599Y-155900D02*
X-189600D01*
X-188600Y-154900D01*
Y-152901D01*
X-189600Y-151901D01*
X-191599D01*
X-192599Y-152901D01*
Y-154900D01*
X-191599Y-155900D01*
X-186601D02*
X-184601D01*
X-185601D01*
Y-149902D01*
X-186601D01*
X-177604D02*
Y-155900D01*
X-180603D01*
X-181602Y-154900D01*
Y-152901D01*
X-180603Y-151901D01*
X-177604D01*
X-172605Y-155900D02*
X-174605D01*
X-175604Y-154900D01*
Y-152901D01*
X-174605Y-151901D01*
X-172605D01*
X-171606Y-152901D01*
Y-153901D01*
X-175604D01*
X-169606Y-151901D02*
Y-155900D01*
Y-153901D01*
X-168606Y-152901D01*
X-167607Y-151901D01*
X-166607D01*
X-222589Y-137902D02*
X-218590D01*
X-220590D01*
Y-143900D01*
X-215591D02*
X-213592D01*
X-212592Y-142900D01*
Y-140901D01*
X-213592Y-139901D01*
X-215591D01*
X-216591Y-140901D01*
Y-142900D01*
X-215591Y-143900D01*
X-210593Y-145899D02*
Y-139901D01*
X-207594D01*
X-206594Y-140901D01*
Y-142900D01*
X-207594Y-143900D01*
X-210593D01*
X-195598Y-137902D02*
X-197597D01*
X-198597Y-138902D01*
Y-142900D01*
X-197597Y-143900D01*
X-195598D01*
X-194598Y-142900D01*
Y-138902D01*
X-195598Y-137902D01*
X-192599Y-139901D02*
X-190599Y-143900D01*
X-188600Y-139901D01*
X-183602Y-143900D02*
X-185601D01*
X-186601Y-142900D01*
Y-140901D01*
X-185601Y-139901D01*
X-183602D01*
X-182602Y-140901D01*
Y-141901D01*
X-186601D01*
X-180603Y-139901D02*
Y-143900D01*
Y-141901D01*
X-179603Y-140901D01*
X-178603Y-139901D01*
X-177604D01*
X-174605Y-143900D02*
X-172605D01*
X-173605D01*
Y-137902D01*
X-174605D01*
X-168606Y-139901D02*
X-166607D01*
X-165608Y-140901D01*
Y-143900D01*
X-168606D01*
X-169606Y-142900D01*
X-168606Y-141901D01*
X-165608D01*
X-163608Y-139901D02*
Y-142900D01*
X-162609Y-143900D01*
X-159609D01*
Y-144900D01*
X-160609Y-145899D01*
X-161609D01*
X-159609Y-143900D02*
Y-139901D01*
X-129615Y-131900D02*
Y-125902D01*
X-127615Y-127901D01*
X-125616Y-125902D01*
Y-131900D01*
X-122617Y-127901D02*
X-120617D01*
X-119618Y-128901D01*
Y-131900D01*
X-122617D01*
X-123617Y-130900D01*
X-122617Y-129901D01*
X-119618D01*
X-116619Y-126902D02*
Y-127901D01*
X-117619D01*
X-115619D01*
X-116619D01*
Y-130900D01*
X-115619Y-131900D01*
X-109621D02*
X-111620D01*
X-112620Y-130900D01*
Y-128901D01*
X-111620Y-127901D01*
X-109621D01*
X-108621Y-128901D01*
Y-129901D01*
X-112620D01*
X-106622Y-127901D02*
Y-131900D01*
Y-129901D01*
X-105622Y-128901D01*
X-104623Y-127901D01*
X-103623D01*
X-100624Y-131900D02*
X-98625D01*
X-99624D01*
Y-127901D01*
X-100624D01*
X-94626D02*
X-92627D01*
X-91627Y-128901D01*
Y-131900D01*
X-94626D01*
X-95626Y-130900D01*
X-94626Y-129901D01*
X-91627D01*
X-89628Y-131900D02*
X-87628D01*
X-88628D01*
Y-125902D01*
X-89628D01*
X-125616Y-294902D02*
X-126616Y-293902D01*
X-128615D01*
X-129615Y-294902D01*
Y-295901D01*
X-128615Y-296901D01*
X-126616D01*
X-125616Y-297901D01*
Y-298900D01*
X-126616Y-299900D01*
X-128615D01*
X-129615Y-298900D01*
X-122617Y-299900D02*
X-120617D01*
X-119618Y-298900D01*
Y-296901D01*
X-120617Y-295901D01*
X-122617D01*
X-123617Y-296901D01*
Y-298900D01*
X-122617Y-299900D01*
X-117619D02*
X-115619D01*
X-116619D01*
Y-293902D01*
X-117619D01*
X-108621D02*
Y-299900D01*
X-111620D01*
X-112620Y-298900D01*
Y-296901D01*
X-111620Y-295901D01*
X-108621D01*
X-103623Y-299900D02*
X-105622D01*
X-106622Y-298900D01*
Y-296901D01*
X-105622Y-295901D01*
X-103623D01*
X-102623Y-296901D01*
Y-297901D01*
X-106622D01*
X-100624Y-295901D02*
Y-299900D01*
Y-297901D01*
X-99624Y-296901D01*
X-98625Y-295901D01*
X-97625D01*
X-88628Y-299900D02*
Y-293902D01*
X-85629D01*
X-84629Y-294902D01*
Y-296901D01*
X-85629Y-297901D01*
X-88628D01*
X-86629D02*
X-84629Y-299900D01*
X-79631D02*
X-81630D01*
X-82630Y-298900D01*
Y-296901D01*
X-81630Y-295901D01*
X-79631D01*
X-78631Y-296901D01*
Y-297901D01*
X-82630D01*
X-76632Y-299900D02*
X-73633D01*
X-72633Y-298900D01*
X-73633Y-297901D01*
X-75632D01*
X-76632Y-296901D01*
X-75632Y-295901D01*
X-72633D01*
X-70634Y-299900D02*
X-68634D01*
X-69634D01*
Y-295901D01*
X-70634D01*
X-65635Y-299900D02*
X-62636D01*
X-61637Y-298900D01*
X-62636Y-297901D01*
X-64636D01*
X-65635Y-296901D01*
X-64636Y-295901D01*
X-61637D01*
X-58638Y-294902D02*
Y-295901D01*
X-59637D01*
X-57638D01*
X-58638D01*
Y-298900D01*
X-57638Y-299900D01*
X-125616Y-282902D02*
X-126616Y-281902D01*
X-128615D01*
X-129615Y-282902D01*
Y-286900D01*
X-128615Y-287900D01*
X-126616D01*
X-125616Y-286900D01*
X-122617Y-287900D02*
X-120617D01*
X-119618Y-286900D01*
Y-284901D01*
X-120617Y-283901D01*
X-122617D01*
X-123617Y-284901D01*
Y-286900D01*
X-122617Y-287900D01*
X-117619Y-289899D02*
Y-283901D01*
X-114620D01*
X-113620Y-284901D01*
Y-286900D01*
X-114620Y-287900D01*
X-117619D01*
X-111620Y-289899D02*
Y-283901D01*
X-108621D01*
X-107622Y-284901D01*
Y-286900D01*
X-108621Y-287900D01*
X-111620D01*
X-102623D02*
X-104623D01*
X-105622Y-286900D01*
Y-284901D01*
X-104623Y-283901D01*
X-102623D01*
X-101624Y-284901D01*
Y-285901D01*
X-105622D01*
X-99624Y-283901D02*
Y-287900D01*
Y-285901D01*
X-98625Y-284901D01*
X-97625Y-283901D01*
X-96625D01*
X-125616Y-269902D02*
X-129615D01*
Y-272901D01*
X-127615D01*
X-129615D01*
Y-275900D01*
X-123617D02*
Y-269902D01*
X-120617D01*
X-119618Y-270902D01*
Y-272901D01*
X-120617Y-273901D01*
X-123617D01*
X-121617D02*
X-119618Y-275900D01*
X-117619Y-272901D02*
X-113620D01*
X-108621Y-275900D02*
Y-269902D01*
X-111620Y-272901D01*
X-107622D01*
X-125616Y-258902D02*
X-126616Y-257902D01*
X-128615D01*
X-129615Y-258902D01*
Y-262900D01*
X-128615Y-263900D01*
X-126616D01*
X-125616Y-262900D01*
X-122617Y-263900D02*
X-120617D01*
X-119618Y-262900D01*
Y-260901D01*
X-120617Y-259901D01*
X-122617D01*
X-123617Y-260901D01*
Y-262900D01*
X-122617Y-263900D01*
X-117619Y-265899D02*
Y-259901D01*
X-114620D01*
X-113620Y-260901D01*
Y-262900D01*
X-114620Y-263900D01*
X-117619D01*
X-111620Y-265899D02*
Y-259901D01*
X-108621D01*
X-107622Y-260901D01*
Y-262900D01*
X-108621Y-263900D01*
X-111620D01*
X-102623D02*
X-104623D01*
X-105622Y-262900D01*
Y-260901D01*
X-104623Y-259901D01*
X-102623D01*
X-101624Y-260901D01*
Y-261901D01*
X-105622D01*
X-99624Y-259901D02*
Y-263900D01*
Y-261901D01*
X-98625Y-260901D01*
X-97625Y-259901D01*
X-96625D01*
X-125616Y-234902D02*
X-126616Y-233902D01*
X-128615D01*
X-129615Y-234902D01*
Y-238900D01*
X-128615Y-239900D01*
X-126616D01*
X-125616Y-238900D01*
X-122617Y-239900D02*
X-120617D01*
X-119618Y-238900D01*
Y-236901D01*
X-120617Y-235901D01*
X-122617D01*
X-123617Y-236901D01*
Y-238900D01*
X-122617Y-239900D01*
X-117619Y-241899D02*
Y-235901D01*
X-114620D01*
X-113620Y-236901D01*
Y-238900D01*
X-114620Y-239900D01*
X-117619D01*
X-111620Y-241899D02*
Y-235901D01*
X-108621D01*
X-107622Y-236901D01*
Y-238900D01*
X-108621Y-239900D01*
X-111620D01*
X-102623D02*
X-104623D01*
X-105622Y-238900D01*
Y-236901D01*
X-104623Y-235901D01*
X-102623D01*
X-101624Y-236901D01*
Y-237901D01*
X-105622D01*
X-99624Y-235901D02*
Y-239900D01*
Y-237901D01*
X-98625Y-236901D01*
X-97625Y-235901D01*
X-96625D01*
X-125616Y-221902D02*
X-129615D01*
Y-224901D01*
X-127615D01*
X-129615D01*
Y-227900D01*
X-123617D02*
Y-221902D01*
X-120617D01*
X-119618Y-222902D01*
Y-224901D01*
X-120617Y-225901D01*
X-123617D01*
X-121617D02*
X-119618Y-227900D01*
X-117619Y-224901D02*
X-113620D01*
X-108621Y-227900D02*
Y-221902D01*
X-111620Y-224901D01*
X-107622D01*
X-125616Y-210902D02*
X-126616Y-209902D01*
X-128615D01*
X-129615Y-210902D01*
Y-214900D01*
X-128615Y-215900D01*
X-126616D01*
X-125616Y-214900D01*
X-122617Y-215900D02*
X-120617D01*
X-119618Y-214900D01*
Y-212901D01*
X-120617Y-211901D01*
X-122617D01*
X-123617Y-212901D01*
Y-214900D01*
X-122617Y-215900D01*
X-117619Y-217899D02*
Y-211901D01*
X-114620D01*
X-113620Y-212901D01*
Y-214900D01*
X-114620Y-215900D01*
X-117619D01*
X-111620Y-217899D02*
Y-211901D01*
X-108621D01*
X-107622Y-212901D01*
Y-214900D01*
X-108621Y-215900D01*
X-111620D01*
X-102623D02*
X-104623D01*
X-105622Y-214900D01*
Y-212901D01*
X-104623Y-211901D01*
X-102623D01*
X-101624Y-212901D01*
Y-213901D01*
X-105622D01*
X-99624Y-211901D02*
Y-215900D01*
Y-213901D01*
X-98625Y-212901D01*
X-97625Y-211901D01*
X-96625D01*
X-125616Y-186902D02*
X-126616Y-185902D01*
X-128615D01*
X-129615Y-186902D01*
Y-190900D01*
X-128615Y-191900D01*
X-126616D01*
X-125616Y-190900D01*
X-122617Y-191900D02*
X-120617D01*
X-119618Y-190900D01*
Y-188901D01*
X-120617Y-187901D01*
X-122617D01*
X-123617Y-188901D01*
Y-190900D01*
X-122617Y-191900D01*
X-117619Y-193899D02*
Y-187901D01*
X-114620D01*
X-113620Y-188901D01*
Y-190900D01*
X-114620Y-191900D01*
X-117619D01*
X-111620Y-193899D02*
Y-187901D01*
X-108621D01*
X-107622Y-188901D01*
Y-190900D01*
X-108621Y-191900D01*
X-111620D01*
X-102623D02*
X-104623D01*
X-105622Y-190900D01*
Y-188901D01*
X-104623Y-187901D01*
X-102623D01*
X-101624Y-188901D01*
Y-189901D01*
X-105622D01*
X-99624Y-187901D02*
Y-191900D01*
Y-189901D01*
X-98625Y-188901D01*
X-97625Y-187901D01*
X-96625D01*
X-125616Y-173902D02*
X-129615D01*
Y-176901D01*
X-127615D01*
X-129615D01*
Y-179900D01*
X-123617D02*
Y-173902D01*
X-120617D01*
X-119618Y-174902D01*
Y-176901D01*
X-120617Y-177901D01*
X-123617D01*
X-121617D02*
X-119618Y-179900D01*
X-117619Y-176901D02*
X-113620D01*
X-108621Y-179900D02*
Y-173902D01*
X-111620Y-176901D01*
X-107622D01*
X-125616Y-162902D02*
X-126616Y-161902D01*
X-128615D01*
X-129615Y-162902D01*
Y-166900D01*
X-128615Y-167900D01*
X-126616D01*
X-125616Y-166900D01*
X-122617Y-167900D02*
X-120617D01*
X-119618Y-166900D01*
Y-164901D01*
X-120617Y-163901D01*
X-122617D01*
X-123617Y-164901D01*
Y-166900D01*
X-122617Y-167900D01*
X-117619Y-169899D02*
Y-163901D01*
X-114620D01*
X-113620Y-164901D01*
Y-166900D01*
X-114620Y-167900D01*
X-117619D01*
X-111620Y-169899D02*
Y-163901D01*
X-108621D01*
X-107622Y-164901D01*
Y-166900D01*
X-108621Y-167900D01*
X-111620D01*
X-102623D02*
X-104623D01*
X-105622Y-166900D01*
Y-164901D01*
X-104623Y-163901D01*
X-102623D01*
X-101624Y-164901D01*
Y-165901D01*
X-105622D01*
X-99624Y-163901D02*
Y-167900D01*
Y-165901D01*
X-98625Y-164901D01*
X-97625Y-163901D01*
X-96625D01*
X-125616Y-150902D02*
X-126616Y-149902D01*
X-128615D01*
X-129615Y-150902D01*
Y-151901D01*
X-128615Y-152901D01*
X-126616D01*
X-125616Y-153901D01*
Y-154900D01*
X-126616Y-155900D01*
X-128615D01*
X-129615Y-154900D01*
X-122617Y-155900D02*
X-120617D01*
X-119618Y-154900D01*
Y-152901D01*
X-120617Y-151901D01*
X-122617D01*
X-123617Y-152901D01*
Y-154900D01*
X-122617Y-155900D01*
X-117619D02*
X-115619D01*
X-116619D01*
Y-149902D01*
X-117619D01*
X-108621D02*
Y-155900D01*
X-111620D01*
X-112620Y-154900D01*
Y-152901D01*
X-111620Y-151901D01*
X-108621D01*
X-103623Y-155900D02*
X-105622D01*
X-106622Y-154900D01*
Y-152901D01*
X-105622Y-151901D01*
X-103623D01*
X-102623Y-152901D01*
Y-153901D01*
X-106622D01*
X-100624Y-151901D02*
Y-155900D01*
Y-153901D01*
X-99624Y-152901D01*
X-98625Y-151901D01*
X-97625D01*
X-88628Y-155900D02*
Y-149902D01*
X-85629D01*
X-84629Y-150902D01*
Y-152901D01*
X-85629Y-153901D01*
X-88628D01*
X-86629D02*
X-84629Y-155900D01*
X-79631D02*
X-81630D01*
X-82630Y-154900D01*
Y-152901D01*
X-81630Y-151901D01*
X-79631D01*
X-78631Y-152901D01*
Y-153901D01*
X-82630D01*
X-76632Y-155900D02*
X-73633D01*
X-72633Y-154900D01*
X-73633Y-153901D01*
X-75632D01*
X-76632Y-152901D01*
X-75632Y-151901D01*
X-72633D01*
X-70634Y-155900D02*
X-68634D01*
X-69634D01*
Y-151901D01*
X-70634D01*
X-65635Y-155900D02*
X-62636D01*
X-61637Y-154900D01*
X-62636Y-153901D01*
X-64636D01*
X-65635Y-152901D01*
X-64636Y-151901D01*
X-61637D01*
X-58638Y-150902D02*
Y-151901D01*
X-59637D01*
X-57638D01*
X-58638D01*
Y-154900D01*
X-57638Y-155900D01*
X-43638Y-125902D02*
X-39639D01*
X-41639D01*
Y-131900D01*
X-37640Y-125902D02*
Y-131900D01*
Y-128901D01*
X-36640Y-127901D01*
X-34641D01*
X-33641Y-128901D01*
Y-131900D01*
X-31642D02*
X-29642D01*
X-30642D01*
Y-127901D01*
X-31642D01*
X-22645D02*
X-25644D01*
X-26643Y-128901D01*
Y-130900D01*
X-25644Y-131900D01*
X-22645D01*
X-20645D02*
Y-125902D01*
Y-129901D02*
X-17646Y-127901D01*
X-20645Y-129901D02*
X-17646Y-131900D01*
X-14647D02*
Y-127901D01*
X-11648D01*
X-10649Y-128901D01*
Y-131900D01*
X-5650D02*
X-7650D01*
X-8649Y-130900D01*
Y-128901D01*
X-7650Y-127901D01*
X-5650D01*
X-4651Y-128901D01*
Y-129901D01*
X-8649D01*
X-2651Y-131900D02*
X348D01*
X1347Y-130900D01*
X348Y-129901D01*
X-1651D01*
X-2651Y-128901D01*
X-1651Y-127901D01*
X1347D01*
X3347Y-131900D02*
X6346D01*
X7346Y-130900D01*
X6346Y-129901D01*
X4347D01*
X3347Y-128901D01*
X4347Y-127901D01*
X7346D01*
X-43638Y-294902D02*
X-42638Y-293902D01*
X-40639D01*
X-39639Y-294902D01*
Y-298900D01*
X-40639Y-299900D01*
X-42638D01*
X-43638Y-298900D01*
Y-294902D01*
X-37640Y-299900D02*
Y-298900D01*
X-36640D01*
Y-299900D01*
X-37640D01*
X-29642D02*
Y-293902D01*
X-32642Y-296901D01*
X-28643D01*
X-26643Y-294902D02*
X-25644Y-293902D01*
X-23644D01*
X-22645Y-294902D01*
Y-298900D01*
X-23644Y-299900D01*
X-25644D01*
X-26643Y-298900D01*
Y-294902D01*
X-20645Y-299900D02*
Y-295901D01*
X-19646D01*
X-18646Y-296901D01*
Y-299900D01*
Y-296901D01*
X-17646Y-295901D01*
X-16647Y-296901D01*
Y-299900D01*
X-14647D02*
X-12648D01*
X-13648D01*
Y-295901D01*
X-14647D01*
X-9649Y-299900D02*
X-7650D01*
X-8649D01*
Y-293902D01*
X-9649D01*
X-43638Y-287900D02*
X-41639D01*
X-42638D01*
Y-281902D01*
X-43638Y-282902D01*
X-38640Y-287900D02*
Y-286900D01*
X-37640D01*
Y-287900D01*
X-38640D01*
X-30642D02*
Y-281902D01*
X-33641Y-284901D01*
X-29642D01*
X-27643Y-282902D02*
X-26643Y-281902D01*
X-24644D01*
X-23644Y-282902D01*
Y-286900D01*
X-24644Y-287900D01*
X-26643D01*
X-27643Y-286900D01*
Y-282902D01*
X-21645Y-287900D02*
Y-283901D01*
X-20645D01*
X-19646Y-284901D01*
Y-287900D01*
Y-284901D01*
X-18646Y-283901D01*
X-17646Y-284901D01*
Y-287900D01*
X-15647D02*
X-13648D01*
X-14647D01*
Y-283901D01*
X-15647D01*
X-10649Y-287900D02*
X-8649D01*
X-9649D01*
Y-281902D01*
X-10649D01*
X-43638Y-275900D02*
X-41639D01*
X-42638D01*
Y-269902D01*
X-43638Y-270902D01*
X-38640D02*
X-37640Y-269902D01*
X-35640D01*
X-34641Y-270902D01*
Y-274900D01*
X-35640Y-275900D01*
X-37640D01*
X-38640Y-274900D01*
Y-270902D01*
X-32642Y-275900D02*
Y-274900D01*
X-31642D01*
Y-275900D01*
X-32642D01*
X-27643Y-270902D02*
X-26643Y-269902D01*
X-24644D01*
X-23644Y-270902D01*
Y-274900D01*
X-24644Y-275900D01*
X-26643D01*
X-27643Y-274900D01*
Y-270902D01*
X-21645D02*
X-20645Y-269902D01*
X-18646D01*
X-17646Y-270902D01*
Y-274900D01*
X-18646Y-275900D01*
X-20645D01*
X-21645Y-274900D01*
Y-270902D01*
X-15647Y-275900D02*
Y-271901D01*
X-14647D01*
X-13648Y-272901D01*
Y-275900D01*
Y-272901D01*
X-12648Y-271901D01*
X-11648Y-272901D01*
Y-275900D01*
X-9649D02*
X-7650D01*
X-8649D01*
Y-271901D01*
X-9649D01*
X-4651Y-275900D02*
X-2651D01*
X-3651D01*
Y-269902D01*
X-4651D01*
X-43638Y-263900D02*
X-41639D01*
X-42638D01*
Y-257902D01*
X-43638Y-258902D01*
X-38640Y-263900D02*
Y-262900D01*
X-37640D01*
Y-263900D01*
X-38640D01*
X-30642D02*
Y-257902D01*
X-33641Y-260901D01*
X-29642D01*
X-23644Y-263900D02*
X-27643D01*
X-23644Y-259901D01*
Y-258902D01*
X-24644Y-257902D01*
X-26643D01*
X-27643Y-258902D01*
X-21645Y-263900D02*
Y-259901D01*
X-20645D01*
X-19646Y-260901D01*
Y-263900D01*
Y-260901D01*
X-18646Y-259901D01*
X-17646Y-260901D01*
Y-263900D01*
X-15647D02*
X-13648D01*
X-14647D01*
Y-259901D01*
X-15647D01*
X-10649Y-263900D02*
X-8649D01*
X-9649D01*
Y-257902D01*
X-10649D01*
X-39639Y-245902D02*
X-43638D01*
Y-248901D01*
X-41639Y-247901D01*
X-40639D01*
X-39639Y-248901D01*
Y-250900D01*
X-40639Y-251900D01*
X-42638D01*
X-43638Y-250900D01*
X-37640Y-251900D02*
Y-250900D01*
X-36640D01*
Y-251900D01*
X-37640D01*
X-32642Y-246902D02*
X-31642Y-245902D01*
X-29642D01*
X-28643Y-246902D01*
Y-250900D01*
X-29642Y-251900D01*
X-31642D01*
X-32642Y-250900D01*
Y-246902D01*
X-26643D02*
X-25644Y-245902D01*
X-23644D01*
X-22645Y-246902D01*
Y-250900D01*
X-23644Y-251900D01*
X-25644D01*
X-26643Y-250900D01*
Y-246902D01*
X-20645Y-251900D02*
Y-247901D01*
X-19646D01*
X-18646Y-248901D01*
Y-251900D01*
Y-248901D01*
X-17646Y-247901D01*
X-16647Y-248901D01*
Y-251900D01*
X-14647D02*
X-12648D01*
X-13648D01*
Y-247901D01*
X-14647D01*
X-9649Y-251900D02*
X-7650D01*
X-8649D01*
Y-245902D01*
X-9649D01*
X-43638Y-239900D02*
X-41639D01*
X-42638D01*
Y-233902D01*
X-43638Y-234902D01*
X-38640Y-239900D02*
Y-238900D01*
X-37640D01*
Y-239900D01*
X-38640D01*
X-30642D02*
Y-233902D01*
X-33641Y-236901D01*
X-29642D01*
X-27643Y-234902D02*
X-26643Y-233902D01*
X-24644D01*
X-23644Y-234902D01*
Y-238900D01*
X-24644Y-239900D01*
X-26643D01*
X-27643Y-238900D01*
Y-234902D01*
X-21645Y-239900D02*
Y-235901D01*
X-20645D01*
X-19646Y-236901D01*
Y-239900D01*
Y-236901D01*
X-18646Y-235901D01*
X-17646Y-236901D01*
Y-239900D01*
X-15647D02*
X-13648D01*
X-14647D01*
Y-235901D01*
X-15647D01*
X-10649Y-239900D02*
X-8649D01*
X-9649D01*
Y-233902D01*
X-10649D01*
X-43638Y-227900D02*
X-41639D01*
X-42638D01*
Y-221902D01*
X-43638Y-222902D01*
X-38640D02*
X-37640Y-221902D01*
X-35640D01*
X-34641Y-222902D01*
Y-226900D01*
X-35640Y-227900D01*
X-37640D01*
X-38640Y-226900D01*
Y-222902D01*
X-32642Y-227900D02*
Y-226900D01*
X-31642D01*
Y-227900D01*
X-32642D01*
X-27643Y-222902D02*
X-26643Y-221902D01*
X-24644D01*
X-23644Y-222902D01*
Y-226900D01*
X-24644Y-227900D01*
X-26643D01*
X-27643Y-226900D01*
Y-222902D01*
X-21645D02*
X-20645Y-221902D01*
X-18646D01*
X-17646Y-222902D01*
Y-226900D01*
X-18646Y-227900D01*
X-20645D01*
X-21645Y-226900D01*
Y-222902D01*
X-15647Y-227900D02*
Y-223901D01*
X-14647D01*
X-13648Y-224901D01*
Y-227900D01*
Y-224901D01*
X-12648Y-223901D01*
X-11648Y-224901D01*
Y-227900D01*
X-9649D02*
X-7650D01*
X-8649D01*
Y-223901D01*
X-9649D01*
X-4651Y-227900D02*
X-2651D01*
X-3651D01*
Y-221902D01*
X-4651D01*
X-43638Y-215900D02*
X-41639D01*
X-42638D01*
Y-209902D01*
X-43638Y-210902D01*
X-38640Y-215900D02*
Y-214900D01*
X-37640D01*
Y-215900D01*
X-38640D01*
X-30642D02*
Y-209902D01*
X-33641Y-212901D01*
X-29642D01*
X-27643Y-210902D02*
X-26643Y-209902D01*
X-24644D01*
X-23644Y-210902D01*
Y-214900D01*
X-24644Y-215900D01*
X-26643D01*
X-27643Y-214900D01*
Y-210902D01*
X-21645Y-215900D02*
Y-211901D01*
X-20645D01*
X-19646Y-212901D01*
Y-215900D01*
Y-212901D01*
X-18646Y-211901D01*
X-17646Y-212901D01*
Y-215900D01*
X-15647D02*
X-13648D01*
X-14647D01*
Y-211901D01*
X-15647D01*
X-10649Y-215900D02*
X-8649D01*
X-9649D01*
Y-209902D01*
X-10649D01*
X-39639Y-197902D02*
X-43638D01*
Y-200901D01*
X-41639Y-199901D01*
X-40639D01*
X-39639Y-200901D01*
Y-202900D01*
X-40639Y-203900D01*
X-42638D01*
X-43638Y-202900D01*
X-37640Y-203900D02*
Y-202900D01*
X-36640D01*
Y-203900D01*
X-37640D01*
X-32642Y-198902D02*
X-31642Y-197902D01*
X-29642D01*
X-28643Y-198902D01*
Y-202900D01*
X-29642Y-203900D01*
X-31642D01*
X-32642Y-202900D01*
Y-198902D01*
X-26643D02*
X-25644Y-197902D01*
X-23644D01*
X-22645Y-198902D01*
Y-202900D01*
X-23644Y-203900D01*
X-25644D01*
X-26643Y-202900D01*
Y-198902D01*
X-20645Y-203900D02*
Y-199901D01*
X-19646D01*
X-18646Y-200901D01*
Y-203900D01*
Y-200901D01*
X-17646Y-199901D01*
X-16647Y-200901D01*
Y-203900D01*
X-14647D02*
X-12648D01*
X-13648D01*
Y-199901D01*
X-14647D01*
X-9649Y-203900D02*
X-7650D01*
X-8649D01*
Y-197902D01*
X-9649D01*
X-43638Y-191900D02*
X-41639D01*
X-42638D01*
Y-185902D01*
X-43638Y-186902D01*
X-38640Y-191900D02*
Y-190900D01*
X-37640D01*
Y-191900D01*
X-38640D01*
X-30642D02*
Y-185902D01*
X-33641Y-188901D01*
X-29642D01*
X-23644Y-191900D02*
X-27643D01*
X-23644Y-187901D01*
Y-186902D01*
X-24644Y-185902D01*
X-26643D01*
X-27643Y-186902D01*
X-21645Y-191900D02*
Y-187901D01*
X-20645D01*
X-19646Y-188901D01*
Y-191900D01*
Y-188901D01*
X-18646Y-187901D01*
X-17646Y-188901D01*
Y-191900D01*
X-15647D02*
X-13648D01*
X-14647D01*
Y-187901D01*
X-15647D01*
X-10649Y-191900D02*
X-8649D01*
X-9649D01*
Y-185902D01*
X-10649D01*
X-43638Y-179900D02*
X-41639D01*
X-42638D01*
Y-173902D01*
X-43638Y-174902D01*
X-34641Y-173902D02*
X-36640Y-174902D01*
X-38640Y-176901D01*
Y-178900D01*
X-37640Y-179900D01*
X-35640D01*
X-34641Y-178900D01*
Y-177901D01*
X-35640Y-176901D01*
X-38640D01*
X-32642Y-179900D02*
Y-178900D01*
X-31642D01*
Y-179900D01*
X-32642D01*
X-23644Y-173902D02*
X-27643D01*
Y-176901D01*
X-25644Y-175901D01*
X-24644D01*
X-23644Y-176901D01*
Y-178900D01*
X-24644Y-179900D01*
X-26643D01*
X-27643Y-178900D01*
X-18646Y-179900D02*
Y-173902D01*
X-21645Y-176901D01*
X-17646D01*
X-15647Y-179900D02*
Y-175901D01*
X-14647D01*
X-13648Y-176901D01*
Y-179900D01*
Y-176901D01*
X-12648Y-175901D01*
X-11648Y-176901D01*
Y-179900D01*
X-9649D02*
X-7650D01*
X-8649D01*
Y-175901D01*
X-9649D01*
X-4651Y-179900D02*
X-2651D01*
X-3651D01*
Y-173902D01*
X-4651D01*
X-43638Y-167900D02*
X-41639D01*
X-42638D01*
Y-161902D01*
X-43638Y-162902D01*
X-38640Y-167900D02*
Y-166900D01*
X-37640D01*
Y-167900D01*
X-38640D01*
X-30642D02*
Y-161902D01*
X-33641Y-164901D01*
X-29642D01*
X-27643Y-162902D02*
X-26643Y-161902D01*
X-24644D01*
X-23644Y-162902D01*
Y-166900D01*
X-24644Y-167900D01*
X-26643D01*
X-27643Y-166900D01*
Y-162902D01*
X-21645Y-167900D02*
Y-163901D01*
X-20645D01*
X-19646Y-164901D01*
Y-167900D01*
Y-164901D01*
X-18646Y-163901D01*
X-17646Y-164901D01*
Y-167900D01*
X-15647D02*
X-13648D01*
X-14647D01*
Y-163901D01*
X-15647D01*
X-10649Y-167900D02*
X-8649D01*
X-9649D01*
Y-161902D01*
X-10649D01*
X-43638Y-150902D02*
X-42638Y-149902D01*
X-40639D01*
X-39639Y-150902D01*
Y-154900D01*
X-40639Y-155900D01*
X-42638D01*
X-43638Y-154900D01*
Y-150902D01*
X-37640Y-155900D02*
Y-154900D01*
X-36640D01*
Y-155900D01*
X-37640D01*
X-29642D02*
Y-149902D01*
X-32642Y-152901D01*
X-28643D01*
X-26643Y-150902D02*
X-25644Y-149902D01*
X-23644D01*
X-22645Y-150902D01*
Y-154900D01*
X-23644Y-155900D01*
X-25644D01*
X-26643Y-154900D01*
Y-150902D01*
X-20645Y-155900D02*
Y-151901D01*
X-19646D01*
X-18646Y-152901D01*
Y-155900D01*
Y-152901D01*
X-17646Y-151901D01*
X-16647Y-152901D01*
Y-155900D01*
X-14647D02*
X-12648D01*
X-13648D01*
Y-151901D01*
X-14647D01*
X-9649Y-155900D02*
X-7650D01*
X-8649D01*
Y-149902D01*
X-9649D01*
X25344Y-126902D02*
X24345Y-125902D01*
X22345D01*
X21346Y-126902D01*
Y-130900D01*
X22345Y-131900D01*
X24345D01*
X25344Y-130900D01*
X28343Y-131900D02*
X30343D01*
X31342Y-130900D01*
Y-128901D01*
X30343Y-127901D01*
X28343D01*
X27344Y-128901D01*
Y-130900D01*
X28343Y-131900D01*
X33342D02*
Y-127901D01*
X36341D01*
X37340Y-128901D01*
Y-131900D01*
X39340D02*
X42339D01*
X43339Y-130900D01*
X42339Y-129901D01*
X40339D01*
X39340Y-128901D01*
X40339Y-127901D01*
X43339D01*
X46338Y-126902D02*
Y-127901D01*
X45338D01*
X47337D01*
X46338D01*
Y-130900D01*
X47337Y-131900D01*
X51336Y-127901D02*
X53335D01*
X54335Y-128901D01*
Y-131900D01*
X51336D01*
X50336Y-130900D01*
X51336Y-129901D01*
X54335D01*
X56334Y-131900D02*
Y-127901D01*
X59333D01*
X60333Y-128901D01*
Y-131900D01*
X63332Y-126902D02*
Y-127901D01*
X62332D01*
X64332D01*
X63332D01*
Y-130900D01*
X64332Y-131900D01*
X21346Y-294902D02*
X22345Y-293902D01*
X24345D01*
X25344Y-294902D01*
Y-295901D01*
X24345Y-296901D01*
X23345D01*
X24345D01*
X25344Y-297901D01*
Y-298900D01*
X24345Y-299900D01*
X22345D01*
X21346Y-298900D01*
X27344Y-299900D02*
Y-298900D01*
X28343D01*
Y-299900D01*
X27344D01*
X36341Y-293902D02*
X32342D01*
Y-296901D01*
X34341Y-295901D01*
X35341D01*
X36341Y-296901D01*
Y-298900D01*
X35341Y-299900D01*
X33342D01*
X32342Y-298900D01*
X24345Y-275900D02*
Y-269902D01*
X21346Y-272901D01*
X25344D01*
X27344Y-275900D02*
Y-274900D01*
X28343D01*
Y-275900D01*
X27344D01*
X36341D02*
X32342D01*
X36341Y-271901D01*
Y-270902D01*
X35341Y-269902D01*
X33342D01*
X32342Y-270902D01*
X24345Y-251900D02*
Y-245902D01*
X21346Y-248901D01*
X25344D01*
X27344Y-251900D02*
Y-250900D01*
X28343D01*
Y-251900D01*
X27344D01*
X36341D02*
X32342D01*
X36341Y-247901D01*
Y-246902D01*
X35341Y-245902D01*
X33342D01*
X32342Y-246902D01*
X24345Y-227900D02*
Y-221902D01*
X21346Y-224901D01*
X25344D01*
X27344Y-227900D02*
Y-226900D01*
X28343D01*
Y-227900D01*
X27344D01*
X36341D02*
X32342D01*
X36341Y-223901D01*
Y-222902D01*
X35341Y-221902D01*
X33342D01*
X32342Y-222902D01*
X24345Y-203900D02*
Y-197902D01*
X21346Y-200901D01*
X25344D01*
X27344Y-203900D02*
Y-202900D01*
X28343D01*
Y-203900D01*
X27344D01*
X36341D02*
X32342D01*
X36341Y-199901D01*
Y-198902D01*
X35341Y-197902D01*
X33342D01*
X32342Y-198902D01*
X24345Y-179900D02*
Y-173902D01*
X21346Y-176901D01*
X25344D01*
X27344Y-179900D02*
Y-178900D01*
X28343D01*
Y-179900D01*
X27344D01*
X32342Y-174902D02*
X33342Y-173902D01*
X35341D01*
X36341Y-174902D01*
Y-175901D01*
X35341Y-176901D01*
X36341Y-177901D01*
Y-178900D01*
X35341Y-179900D01*
X33342D01*
X32342Y-178900D01*
Y-177901D01*
X33342Y-176901D01*
X32342Y-175901D01*
Y-174902D01*
X33342Y-176901D02*
X35341D01*
X21346Y-150902D02*
X22345Y-149902D01*
X24345D01*
X25344Y-150902D01*
Y-151901D01*
X24345Y-152901D01*
X23345D01*
X24345D01*
X25344Y-153901D01*
Y-154900D01*
X24345Y-155900D01*
X22345D01*
X21346Y-154900D01*
X27344Y-155900D02*
Y-154900D01*
X28343D01*
Y-155900D01*
X27344D01*
X36341Y-149902D02*
X32342D01*
Y-152901D01*
X34341Y-151901D01*
X35341D01*
X36341Y-152901D01*
Y-154900D01*
X35341Y-155900D01*
X33342D01*
X32342Y-154900D01*
X78332Y-125902D02*
Y-131900D01*
X81331D01*
X82330Y-130900D01*
Y-129901D01*
X81331Y-128901D01*
X78332D01*
X81331D01*
X82330Y-127901D01*
Y-126902D01*
X81331Y-125902D01*
X78332D01*
X85329Y-131900D02*
X87329D01*
X88328Y-130900D01*
Y-128901D01*
X87329Y-127901D01*
X85329D01*
X84330Y-128901D01*
Y-130900D01*
X85329Y-131900D01*
X91328Y-127901D02*
X93327D01*
X94327Y-128901D01*
Y-131900D01*
X91328D01*
X90328Y-130900D01*
X91328Y-129901D01*
X94327D01*
X96326Y-127901D02*
Y-131900D01*
Y-129901D01*
X97325Y-128901D01*
X98325Y-127901D01*
X99325D01*
X106323Y-125902D02*
Y-131900D01*
X103324D01*
X102324Y-130900D01*
Y-128901D01*
X103324Y-127901D01*
X106323D01*
X114320Y-125902D02*
Y-131900D01*
X118319D01*
X121318Y-127901D02*
X123317D01*
X124317Y-128901D01*
Y-131900D01*
X121318D01*
X120318Y-130900D01*
X121318Y-129901D01*
X124317D01*
X126316Y-127901D02*
Y-130900D01*
X127316Y-131900D01*
X130315D01*
Y-132900D01*
X129315Y-133899D01*
X128315D01*
X130315Y-131900D02*
Y-127901D01*
X135313Y-131900D02*
X133314D01*
X132314Y-130900D01*
Y-128901D01*
X133314Y-127901D01*
X135313D01*
X136313Y-128901D01*
Y-129901D01*
X132314D01*
X138312Y-127901D02*
Y-131900D01*
Y-129901D01*
X139312Y-128901D01*
X140312Y-127901D01*
X141311D01*
X154307Y-126902D02*
X153307Y-125902D01*
X151308D01*
X150308Y-126902D01*
Y-127901D01*
X151308Y-128901D01*
X153307D01*
X154307Y-129901D01*
Y-130900D01*
X153307Y-131900D01*
X151308D01*
X150308Y-130900D01*
X157306Y-126902D02*
Y-127901D01*
X156307D01*
X158306D01*
X157306D01*
Y-130900D01*
X158306Y-131900D01*
X162304Y-127901D02*
X164304D01*
X165304Y-128901D01*
Y-131900D01*
X162304D01*
X161305Y-130900D01*
X162304Y-129901D01*
X165304D01*
X171302Y-127901D02*
X168303D01*
X167303Y-128901D01*
Y-130900D01*
X168303Y-131900D01*
X171302D01*
X173301D02*
Y-125902D01*
Y-129901D02*
X176300Y-127901D01*
X173301Y-129901D02*
X176300Y-131900D01*
D12*
X720977Y509930D02*
Y578828D01*
X759560Y509930D02*
Y578828D01*
X783828Y-493701D02*
Y-466929D01*
X938552Y-493307D02*
Y-466929D01*
X988851Y509537D02*
Y578828D01*
X1057592Y509930D02*
Y578828D01*
X485402Y-493307D02*
Y-304724D01*
X607371Y-493701D02*
Y-373228D01*
X682001Y509537D02*
Y596737D01*
X684615Y-493307D02*
Y-304724D01*
X724379Y-466929D02*
Y-434646D01*
X844064Y-466535D02*
Y-434646D01*
X1068473Y-466535D02*
Y-434646D01*
X-438212Y-493637D02*
Y596914D01*
X1120843Y-493637D02*
Y596914D01*
X485402Y-403937D02*
X684615D01*
X485402Y-464173D02*
X684615D01*
X485402Y-344094D02*
X684615D01*
Y-466928D02*
X1120757D01*
X485402Y-434645D02*
X1120757D01*
X485402Y-373227D02*
X1120757D01*
X485402Y-304723D02*
X1120757D01*
X682001Y509537D02*
X1120044D01*
X682395Y526859D02*
X1120044D01*
X682001Y558631D02*
X1120438Y558631D01*
X682001Y578316D02*
X1120832D01*
X682001Y544182D02*
X1120438D01*
X-438212Y-493637D02*
X1120843D01*
X-438212Y596914D02*
X1120843D01*
X735317Y535177D02*
Y535477D01*
X735616Y536077D01*
X735916Y536377D01*
X736516Y536677D01*
X737716D01*
X738315Y536377D01*
X738615Y536077D01*
X738915Y535477D01*
Y534877D01*
X738615Y534278D01*
X738016Y533378D01*
X735017Y530379D01*
X739215D01*
X745423D02*
X743024Y536677D01*
X740625Y530379D01*
X741524Y532478D02*
X744523D01*
X735017Y552800D02*
X735616Y553100D01*
X736516Y554000D01*
Y547702D01*
X744433D02*
X742034Y554000D01*
X739635Y547702D01*
X740535Y549801D02*
X743534D01*
X836198Y-476710D02*
X840133D01*
X838165D01*
Y-482613D01*
X842101Y-476710D02*
X844069D01*
X843085D01*
Y-482613D01*
X842101D01*
X844069D01*
X847021D02*
Y-476710D01*
X850957Y-482613D01*
Y-476710D01*
X852925D02*
Y-477694D01*
X854892Y-479661D01*
X856860Y-477694D01*
Y-476710D01*
X854892Y-479661D02*
Y-482613D01*
X858828D02*
Y-476710D01*
X860796Y-478677D01*
X862764Y-476710D01*
Y-482613D01*
X867684Y-476710D02*
X865716D01*
X864732Y-477694D01*
Y-481629D01*
X865716Y-482613D01*
X867684D01*
X868668Y-481629D01*
Y-477694D01*
X867684Y-476710D01*
X870635D02*
Y-482613D01*
X873587D01*
X874571Y-481629D01*
Y-477694D01*
X873587Y-476710D01*
X870635D01*
X876539D02*
Y-481629D01*
X877523Y-482613D01*
X879491D01*
X880475Y-481629D01*
Y-476710D01*
X882442D02*
Y-482613D01*
X886378D01*
X892282Y-476710D02*
X888346D01*
Y-482613D01*
X892282D01*
X888346Y-479661D02*
X890314D01*
X894250D02*
X898186D01*
X904089Y-482613D02*
X900153D01*
X904089Y-478677D01*
Y-477694D01*
X903105Y-476710D01*
X901137D01*
X900153Y-477694D01*
X906057Y-482613D02*
Y-478677D01*
X908025Y-476710D01*
X909993Y-478677D01*
Y-482613D01*
Y-479661D01*
X906057D01*
X791511Y-477694D02*
X790527Y-476710D01*
X788560D01*
X787576Y-477694D01*
Y-481629D01*
X788560Y-482613D01*
X790527D01*
X791511Y-481629D01*
X793479Y-482613D02*
Y-478677D01*
X795447Y-476710D01*
X797415Y-478677D01*
Y-482613D01*
Y-479661D01*
X793479D01*
X799383Y-476710D02*
Y-482613D01*
X802335D01*
X803319Y-481629D01*
Y-477694D01*
X802335Y-476710D01*
X799383D01*
X805287Y-478677D02*
X806270D01*
Y-479661D01*
X805287D01*
Y-478677D01*
Y-481629D02*
X806270D01*
Y-482613D01*
X805287D01*
Y-481629D01*
X1077536Y536677D02*
X1081735Y530379D01*
Y536677D02*
X1077536Y530379D01*
X1083144Y536677D02*
X1087343Y530379D01*
Y536677D02*
X1083144Y530379D01*
X1088752Y536677D02*
X1092951Y530379D01*
Y536677D02*
X1088752Y530379D01*
X1077536Y554000D02*
X1081735Y547702D01*
Y554000D02*
X1077536Y547702D01*
X1083144Y554000D02*
X1087343Y547702D01*
Y554000D02*
X1083144Y547702D01*
X1088752Y554000D02*
X1092951Y547702D01*
Y554000D02*
X1088752Y547702D01*
X710570Y-337251D02*
X707000D01*
X706642Y-340465D01*
X707000Y-340108D01*
X708071Y-339751D01*
X709142D01*
X710213Y-340108D01*
X710927Y-340822D01*
X711284Y-341893D01*
Y-342607D01*
X710927Y-343678D01*
X710213Y-344392D01*
X709142Y-344749D01*
X708071D01*
X707000Y-344392D01*
X706642Y-344035D01*
X706285Y-343321D01*
X717247Y-338322D02*
X716890Y-337608D01*
X715819Y-337251D01*
X715105D01*
X714034Y-337608D01*
X713320Y-338679D01*
X712963Y-340465D01*
Y-342250D01*
X713320Y-343678D01*
X714034Y-344392D01*
X715105Y-344749D01*
X715462D01*
X716533Y-344392D01*
X717247Y-343678D01*
X717604Y-342607D01*
Y-342250D01*
X717247Y-341179D01*
X716533Y-340465D01*
X715462Y-340108D01*
X715105D01*
X714034Y-340465D01*
X713320Y-341179D01*
X712963Y-342250D01*
X719604Y-339036D02*
Y-338679D01*
X719961Y-337965D01*
X720318Y-337608D01*
X721032Y-337251D01*
X722461D01*
X723175Y-337608D01*
X723532Y-337965D01*
X723889Y-338679D01*
Y-339393D01*
X723532Y-340108D01*
X722818Y-341179D01*
X719247Y-344749D01*
X724246D01*
X725924Y-338679D02*
X726638Y-338322D01*
X727709Y-337251D01*
Y-344749D01*
X737315Y-341179D02*
X740528D01*
X741599Y-340822D01*
X741956Y-340465D01*
X742313Y-339751D01*
Y-338679D01*
X741956Y-337965D01*
X741599Y-337608D01*
X740528Y-337251D01*
X737315D01*
Y-344749D01*
X748277Y-339751D02*
Y-344749D01*
Y-340822D02*
X747562Y-340108D01*
X746848Y-339751D01*
X745777D01*
X745063Y-340108D01*
X744349Y-340822D01*
X743992Y-341893D01*
Y-342607D01*
X744349Y-343678D01*
X745063Y-344392D01*
X745777Y-344749D01*
X746848D01*
X747562Y-344392D01*
X748277Y-343678D01*
X750276Y-337251D02*
Y-344749D01*
X751847Y-339751D02*
Y-344749D01*
Y-341179D02*
X752918Y-340108D01*
X753632Y-339751D01*
X754704D01*
X755418Y-340108D01*
X755775Y-341179D01*
Y-344749D01*
Y-341179D02*
X756846Y-340108D01*
X757560Y-339751D01*
X758631D01*
X759345Y-340108D01*
X759703Y-341179D01*
Y-344749D01*
X762059Y-341893D02*
X766344D01*
Y-341179D01*
X765987Y-340465D01*
X765630Y-340108D01*
X764916Y-339751D01*
X763845D01*
X763130Y-340108D01*
X762416Y-340822D01*
X762059Y-341893D01*
Y-342607D01*
X762416Y-343678D01*
X763130Y-344392D01*
X763845Y-344749D01*
X764916D01*
X765630Y-344392D01*
X766344Y-343678D01*
X767951Y-339751D02*
Y-344749D01*
Y-341893D02*
X768308Y-340822D01*
X769022Y-340108D01*
X769736Y-339751D01*
X770807D01*
X777377Y-337251D02*
X779163Y-344749D01*
X780948Y-337251D02*
X779163Y-344749D01*
X780948Y-337251D02*
X782733Y-344749D01*
X784519Y-337251D02*
X782733Y-344749D01*
X790303Y-339751D02*
Y-344749D01*
Y-340822D02*
X789589Y-340108D01*
X788875Y-339751D01*
X787804D01*
X787090Y-340108D01*
X786376Y-340822D01*
X786018Y-341893D01*
Y-342607D01*
X786376Y-343678D01*
X787090Y-344392D01*
X787804Y-344749D01*
X788875D01*
X789589Y-344392D01*
X790303Y-343678D01*
X792660Y-339751D02*
X794802Y-344749D01*
X796945Y-339751D02*
X794802Y-344749D01*
X794088Y-346178D01*
X793374Y-346892D01*
X792660Y-347249D01*
X792303D01*
X798909Y-344392D02*
X798551Y-344749D01*
X798194Y-344392D01*
X798551Y-344035D01*
X798909Y-344392D01*
Y-345107D01*
X798551Y-345821D01*
X798194Y-346178D01*
X811442Y-338322D02*
X810727Y-337608D01*
X809656Y-337251D01*
X808228D01*
X807157Y-337608D01*
X806443Y-338322D01*
Y-339036D01*
X806800Y-339751D01*
X807157Y-340108D01*
X807871Y-340465D01*
X810013Y-341179D01*
X810727Y-341536D01*
X811084Y-341893D01*
X811442Y-342607D01*
Y-343678D01*
X810727Y-344392D01*
X809656Y-344749D01*
X808228D01*
X807157Y-344392D01*
X806443Y-343678D01*
X813120Y-339751D02*
Y-343321D01*
X813477Y-344392D01*
X814191Y-344749D01*
X815262D01*
X815976Y-344392D01*
X817047Y-343321D01*
Y-339751D02*
Y-344749D01*
X819725Y-337251D02*
X820082Y-337608D01*
X820440Y-337251D01*
X820082Y-336894D01*
X819725Y-337251D01*
X820082Y-339751D02*
Y-344749D01*
X822832Y-337251D02*
Y-343321D01*
X823189Y-344392D01*
X823903Y-344749D01*
X824617D01*
X821761Y-339751D02*
X824260D01*
X825688Y-341893D02*
X829973D01*
Y-341179D01*
X829616Y-340465D01*
X829259Y-340108D01*
X828545Y-339751D01*
X827474D01*
X826760Y-340108D01*
X826046Y-340822D01*
X825688Y-341893D01*
Y-342607D01*
X826046Y-343678D01*
X826760Y-344392D01*
X827474Y-344749D01*
X828545D01*
X829259Y-344392D01*
X829973Y-343678D01*
X843185Y-344749D02*
X840328Y-337251D01*
X837472Y-344749D01*
X838543Y-342250D02*
X842113D01*
X766513Y536677D02*
Y532178D01*
X766813Y531279D01*
X767412Y530679D01*
X768312Y530379D01*
X768912D01*
X769812Y530679D01*
X770411Y531279D01*
X770711Y532178D01*
Y536677D01*
X772451Y533378D02*
X775150D01*
X776049Y533678D01*
X776349Y533978D01*
X776649Y534578D01*
Y535477D01*
X776349Y536077D01*
X776049Y536377D01*
X775150Y536677D01*
X772451D01*
Y530379D01*
X778059Y536677D02*
Y530379D01*
Y536677D02*
X780158D01*
X781058Y536377D01*
X781658Y535777D01*
X781957Y535177D01*
X782257Y534278D01*
Y532778D01*
X781957Y531879D01*
X781658Y531279D01*
X781058Y530679D01*
X780158Y530379D01*
X778059D01*
X788465D02*
X786066Y536677D01*
X783667Y530379D01*
X784567Y532478D02*
X787566D01*
X792034Y536677D02*
Y530379D01*
X789935Y536677D02*
X794133D01*
X798782D02*
X794883D01*
Y530379D01*
X798782D01*
X794883Y533678D02*
X797282D01*
X766513Y554000D02*
Y547702D01*
X767832Y554000D02*
Y547702D01*
Y554000D02*
X772031Y547702D01*
Y554000D02*
Y547702D01*
X773770Y554000D02*
Y547702D01*
X777189Y554000D02*
Y547702D01*
X775090Y554000D02*
X779288D01*
X780038D02*
Y547702D01*
X786156D02*
X783757Y554000D01*
X781358Y547702D01*
X782257Y549801D02*
X785256D01*
X787626Y554000D02*
Y547702D01*
X791224D01*
X992900Y537661D02*
X996199D01*
X994399Y535262D01*
X995299D01*
X995899Y534962D01*
X996199Y534662D01*
X996499Y533762D01*
Y533163D01*
X996199Y532263D01*
X995599Y531663D01*
X994699Y531363D01*
X993800D01*
X992900Y531663D01*
X992600Y531963D01*
X992300Y532563D01*
X997908Y536461D02*
X998508Y536761D01*
X999408Y537661D01*
Y531363D01*
X1002527Y534062D02*
X1007925D01*
X1009784Y537661D02*
Y531363D01*
Y537661D02*
X1012183Y531363D01*
X1014583Y537661D02*
X1012183Y531363D01*
X1014583Y537661D02*
Y531363D01*
X1021180D02*
X1018781Y537661D01*
X1016382Y531363D01*
X1017282Y533462D02*
X1020281D01*
X1022650Y537661D02*
X1025049Y534662D01*
Y531363D01*
X1027448Y537661D02*
X1025049Y534662D01*
X1028258Y534062D02*
X1033656D01*
X1035815Y536162D02*
Y536461D01*
X1036115Y537061D01*
X1036415Y537361D01*
X1037015Y537661D01*
X1038214D01*
X1038814Y537361D01*
X1039114Y537061D01*
X1039414Y536461D01*
Y535862D01*
X1039114Y535262D01*
X1038514Y534362D01*
X1035515Y531363D01*
X1039714D01*
X1042923Y537661D02*
X1042023Y537361D01*
X1041423Y536461D01*
X1041123Y534962D01*
Y534062D01*
X1041423Y532563D01*
X1042023Y531663D01*
X1042923Y531363D01*
X1043523D01*
X1044422Y531663D01*
X1045022Y532563D01*
X1045322Y534062D01*
Y534962D01*
X1045022Y536461D01*
X1044422Y537361D01*
X1043523Y537661D01*
X1042923D01*
X1046732Y536461D02*
X1047331Y536761D01*
X1048231Y537661D01*
Y531363D01*
X1055249Y535562D02*
X1054949Y534662D01*
X1054349Y534062D01*
X1053449Y533762D01*
X1053149D01*
X1052250Y534062D01*
X1051650Y534662D01*
X1051350Y535562D01*
Y535862D01*
X1051650Y536761D01*
X1052250Y537361D01*
X1053149Y537661D01*
X1053449D01*
X1054349Y537361D01*
X1054949Y536761D01*
X1055249Y535562D01*
Y534062D01*
X1054949Y532563D01*
X1054349Y531663D01*
X1053449Y531363D01*
X1052849D01*
X1051950Y531663D01*
X1051650Y532263D01*
X996659Y554000D02*
X995759Y553700D01*
X995159Y552800D01*
X994859Y551301D01*
Y550401D01*
X995159Y548901D01*
X995759Y548002D01*
X996659Y547702D01*
X997258D01*
X998158Y548002D01*
X998758Y548901D01*
X999058Y550401D01*
Y551301D01*
X998758Y552800D01*
X998158Y553700D01*
X997258Y554000D01*
X996659D01*
X1002267D02*
X1001367Y553700D01*
X1000767Y552800D01*
X1000467Y551301D01*
Y550401D01*
X1000767Y548901D01*
X1001367Y548002D01*
X1002267Y547702D01*
X1002866D01*
X1003766Y548002D01*
X1004366Y548901D01*
X1004666Y550401D01*
Y551301D01*
X1004366Y552800D01*
X1003766Y553700D01*
X1002866Y554000D01*
X1002267D01*
X1006075Y550401D02*
X1011473D01*
X1015132Y554000D02*
X1014233Y553700D01*
X1013633Y552800D01*
X1013333Y551301D01*
Y550401D01*
X1013633Y548901D01*
X1014233Y548002D01*
X1015132Y547702D01*
X1015732D01*
X1016632Y548002D01*
X1017231Y548901D01*
X1017531Y550401D01*
Y551301D01*
X1017231Y552800D01*
X1016632Y553700D01*
X1015732Y554000D01*
X1015132D01*
X1020740D02*
X1019841Y553700D01*
X1019241Y552800D01*
X1018941Y551301D01*
Y550401D01*
X1019241Y548901D01*
X1019841Y548002D01*
X1020740Y547702D01*
X1021340D01*
X1022240Y548002D01*
X1022840Y548901D01*
X1023139Y550401D01*
Y551301D01*
X1022840Y552800D01*
X1022240Y553700D01*
X1021340Y554000D01*
X1020740D01*
X1024549Y550401D02*
X1029947D01*
X1032106Y552500D02*
Y552800D01*
X1032406Y553400D01*
X1032706Y553700D01*
X1033306Y554000D01*
X1034506D01*
X1035105Y553700D01*
X1035405Y553400D01*
X1035705Y552800D01*
Y552200D01*
X1035405Y551601D01*
X1034805Y550701D01*
X1031807Y547702D01*
X1036005D01*
X1039214Y554000D02*
X1038314Y553700D01*
X1037715Y552800D01*
X1037415Y551301D01*
Y550401D01*
X1037715Y548901D01*
X1038314Y548002D01*
X1039214Y547702D01*
X1039814D01*
X1040714Y548002D01*
X1041313Y548901D01*
X1041613Y550401D01*
Y551301D01*
X1041313Y552800D01*
X1040714Y553700D01*
X1039814Y554000D01*
X1039214D01*
X1044822D02*
X1043922Y553700D01*
X1043323Y552800D01*
X1043023Y551301D01*
Y550401D01*
X1043323Y548901D01*
X1043922Y548002D01*
X1044822Y547702D01*
X1045422D01*
X1046322Y548002D01*
X1046921Y548901D01*
X1047221Y550401D01*
Y551301D01*
X1046921Y552800D01*
X1046322Y553700D01*
X1045422Y554000D01*
X1044822D01*
X1050430D02*
X1049531Y553700D01*
X1048931Y552800D01*
X1048631Y551301D01*
Y550401D01*
X1048931Y548901D01*
X1049531Y548002D01*
X1050430Y547702D01*
X1051030D01*
X1051930Y548002D01*
X1052530Y548901D01*
X1052829Y550401D01*
Y551301D01*
X1052530Y552800D01*
X1051930Y553700D01*
X1051030Y554000D01*
X1050430D01*
X711642Y-356537D02*
X711284Y-355822D01*
X710570Y-355108D01*
X709856Y-354751D01*
X708428D01*
X707714Y-355108D01*
X707000Y-355822D01*
X706642Y-356537D01*
X706285Y-357608D01*
Y-359393D01*
X706642Y-360464D01*
X707000Y-361178D01*
X707714Y-361892D01*
X708428Y-362249D01*
X709856D01*
X710570Y-361892D01*
X711284Y-361178D01*
X711642Y-360464D01*
X718033Y-357251D02*
Y-362249D01*
Y-358322D02*
X717319Y-357608D01*
X716605Y-357251D01*
X715533D01*
X714819Y-357608D01*
X714105Y-358322D01*
X713748Y-359393D01*
Y-360107D01*
X714105Y-361178D01*
X714819Y-361892D01*
X715533Y-362249D01*
X716605D01*
X717319Y-361892D01*
X718033Y-361178D01*
X720033Y-357251D02*
Y-362249D01*
Y-359393D02*
X720390Y-358322D01*
X721104Y-357608D01*
X721818Y-357251D01*
X722889D01*
X723567Y-354751D02*
Y-362249D01*
X729066Y-358322D02*
X728709Y-357608D01*
X727638Y-357251D01*
X726567D01*
X725496Y-357608D01*
X725139Y-358322D01*
X725496Y-359036D01*
X726210Y-359393D01*
X727995Y-359750D01*
X728709Y-360107D01*
X729066Y-360821D01*
Y-361178D01*
X728709Y-361892D01*
X727638Y-362249D01*
X726567D01*
X725496Y-361892D01*
X725139Y-361178D01*
X730637Y-354751D02*
Y-362249D01*
Y-358322D02*
X731352Y-357608D01*
X732066Y-357251D01*
X733137D01*
X733851Y-357608D01*
X734565Y-358322D01*
X734922Y-359393D01*
Y-360107D01*
X734565Y-361178D01*
X733851Y-361892D01*
X733137Y-362249D01*
X732066D01*
X731352Y-361892D01*
X730637Y-361178D01*
X740814Y-357251D02*
Y-362249D01*
Y-358322D02*
X740100Y-357608D01*
X739386Y-357251D01*
X738314D01*
X737600Y-357608D01*
X736886Y-358322D01*
X736529Y-359393D01*
Y-360107D01*
X736886Y-361178D01*
X737600Y-361892D01*
X738314Y-362249D01*
X739386D01*
X740100Y-361892D01*
X740814Y-361178D01*
X747098Y-354751D02*
Y-362249D01*
Y-358322D02*
X746384Y-357608D01*
X745670Y-357251D01*
X744599D01*
X743885Y-357608D01*
X743170Y-358322D01*
X742813Y-359393D01*
Y-360107D01*
X743170Y-361178D01*
X743885Y-361892D01*
X744599Y-362249D01*
X745670D01*
X746384Y-361892D01*
X747098Y-361178D01*
X749812Y-361892D02*
X749455Y-362249D01*
X749098Y-361892D01*
X749455Y-361535D01*
X749812Y-361892D01*
Y-362607D01*
X749455Y-363321D01*
X749098Y-363678D01*
X762702Y-356537D02*
X762345Y-355822D01*
X761631Y-355108D01*
X760917Y-354751D01*
X759488D01*
X758774Y-355108D01*
X758060Y-355822D01*
X757703Y-356537D01*
X757346Y-357608D01*
Y-359393D01*
X757703Y-360464D01*
X758060Y-361178D01*
X758774Y-361892D01*
X759488Y-362249D01*
X760917D01*
X761631Y-361892D01*
X762345Y-361178D01*
X762702Y-360464D01*
X770522Y-362249D02*
X767665Y-354751D01*
X764809Y-362249D01*
X765880Y-359750D02*
X769451D01*
X782805Y-357251D02*
X782448Y-358322D01*
X781734Y-359036D01*
X780662Y-359393D01*
X780305D01*
X779234Y-359036D01*
X778520Y-358322D01*
X778163Y-357251D01*
Y-356893D01*
X778520Y-355822D01*
X779234Y-355108D01*
X780305Y-354751D01*
X780662D01*
X781734Y-355108D01*
X782448Y-355822D01*
X782805Y-357251D01*
Y-359036D01*
X782448Y-360821D01*
X781734Y-361892D01*
X780662Y-362249D01*
X779948D01*
X778877Y-361892D01*
X778520Y-361178D01*
X785197Y-356537D02*
Y-356179D01*
X785554Y-355465D01*
X785911Y-355108D01*
X786625Y-354751D01*
X788054D01*
X788768Y-355108D01*
X789125Y-355465D01*
X789482Y-356179D01*
Y-356893D01*
X789125Y-357608D01*
X788411Y-358679D01*
X784840Y-362249D01*
X789839D01*
X793660Y-354751D02*
X792588Y-355108D01*
X791874Y-356179D01*
X791517Y-357965D01*
Y-359036D01*
X791874Y-360821D01*
X792588Y-361892D01*
X793660Y-362249D01*
X794374D01*
X795445Y-361892D01*
X796159Y-360821D01*
X796516Y-359036D01*
Y-357965D01*
X796159Y-356179D01*
X795445Y-355108D01*
X794374Y-354751D01*
X793660D01*
X798194Y-356179D02*
X798909Y-355822D01*
X799980Y-354751D01*
Y-362249D01*
X805836Y-354751D02*
X804764Y-355108D01*
X804050Y-356179D01*
X803693Y-357965D01*
Y-359036D01*
X804050Y-360821D01*
X804764Y-361892D01*
X805836Y-362249D01*
X806550D01*
X807621Y-361892D01*
X808335Y-360821D01*
X808692Y-359036D01*
Y-357965D01*
X808335Y-356179D01*
X807621Y-355108D01*
X806550Y-354751D01*
X805836D01*
X709027Y-314555D02*
Y-324553D01*
X705695Y-314555D02*
X712360D01*
X713550D02*
Y-324553D01*
X715645Y-314555D02*
Y-324553D01*
Y-314555D02*
X722310Y-324553D01*
Y-314555D02*
Y-324553D01*
X725072Y-314555D02*
X728880Y-319316D01*
Y-324553D01*
X732689Y-314555D02*
X728880Y-319316D01*
X733975Y-314555D02*
X737783Y-324553D01*
X741592Y-314555D02*
X737783Y-324553D01*
X742877Y-314555D02*
Y-324553D01*
X751637Y-315983D02*
X750685Y-315031D01*
X749257Y-314555D01*
X747353D01*
X745924Y-315031D01*
X744972Y-315983D01*
Y-316935D01*
X745448Y-317887D01*
X745924Y-318363D01*
X746877Y-318840D01*
X749733Y-319792D01*
X750685Y-320268D01*
X751161Y-320744D01*
X751637Y-321696D01*
Y-323124D01*
X750685Y-324077D01*
X749257Y-324553D01*
X747353D01*
X745924Y-324077D01*
X744972Y-323124D01*
X753875Y-314555D02*
Y-324553D01*
X758826Y-314555D02*
X757874Y-315031D01*
X756922Y-315983D01*
X756446Y-316935D01*
X755970Y-318363D01*
Y-320744D01*
X756446Y-322172D01*
X756922Y-323124D01*
X757874Y-324077D01*
X758826Y-324553D01*
X760731D01*
X761683Y-324077D01*
X762635Y-323124D01*
X763111Y-322172D01*
X763587Y-320744D01*
Y-318363D01*
X763111Y-316935D01*
X762635Y-315983D01*
X761683Y-315031D01*
X760731Y-314555D01*
X758826D01*
X765920D02*
Y-324553D01*
Y-314555D02*
X772585Y-324553D01*
Y-314555D02*
Y-324553D01*
X775823Y-323601D02*
X775347Y-324077D01*
X775823Y-324553D01*
X776299Y-324077D01*
X775823Y-323601D01*
X786106Y-324553D02*
X782298Y-314555D01*
X778489Y-324553D01*
X779917Y-321220D02*
X784678D01*
X788439Y-314555D02*
Y-324553D01*
X798389Y-314555D02*
Y-324553D01*
X800484Y-314555D02*
Y-324553D01*
Y-314555D02*
X807149Y-324553D01*
Y-314555D02*
Y-324553D01*
X817052Y-316935D02*
X816576Y-315983D01*
X815624Y-315031D01*
X814672Y-314555D01*
X812767D01*
X811815Y-315031D01*
X810863Y-315983D01*
X810387Y-316935D01*
X809911Y-318363D01*
Y-320744D01*
X810387Y-322172D01*
X810863Y-323124D01*
X811815Y-324077D01*
X812767Y-324553D01*
X814672D01*
X815624Y-324077D01*
X816576Y-323124D01*
X817052Y-322172D01*
D78*
X-270580Y-134900D02*
X183300D01*
X-270580Y-122900D02*
X183300D01*
X-270580Y-314900D02*
Y-122900D01*
Y-314900D02*
X-229589D01*
X-270580Y-302900D02*
X-229589D01*
X-270580Y-290900D02*
X-229589D01*
X-270580Y-278900D02*
X-229589D01*
X-270580Y-266900D02*
X-229589D01*
X-270580Y-254900D02*
X-229589D01*
X-270580Y-242900D02*
X-229589D01*
X-270580Y-230900D02*
X-229589D01*
X-270580Y-218900D02*
X-229589D01*
X-270580Y-206900D02*
X-229589D01*
X-270580Y-194900D02*
X-229589D01*
X-270580Y-182900D02*
X-229589D01*
X-270580Y-170900D02*
X-229589D01*
X-270580Y-158900D02*
X-229589D01*
X-270580Y-146900D02*
X-229589D01*
Y-314900D02*
Y-122900D01*
Y-314900D02*
X-136615D01*
X-229589Y-302900D02*
X-136615D01*
X-229589Y-290900D02*
X-136615D01*
X-229589Y-278900D02*
X-136615D01*
X-229589Y-266900D02*
X-136615D01*
X-229589Y-254900D02*
X-136615D01*
X-229589Y-242900D02*
X-136615D01*
X-229589Y-230900D02*
X-136615D01*
X-229589Y-218900D02*
X-136615D01*
X-229589Y-206900D02*
X-136615D01*
X-229589Y-194900D02*
X-136615D01*
X-229589Y-182900D02*
X-136615D01*
X-229589Y-170900D02*
X-136615D01*
X-229589Y-158900D02*
X-136615D01*
X-229589Y-146900D02*
X-136615D01*
Y-314900D02*
Y-122900D01*
Y-314900D02*
X-50638D01*
X-136615Y-302900D02*
X-50638D01*
X-136615Y-290900D02*
X-50638D01*
X-136615Y-278900D02*
X-50638D01*
X-136615Y-266900D02*
X-50638D01*
X-136615Y-254900D02*
X-50638D01*
X-136615Y-242900D02*
X-50638D01*
X-136615Y-230900D02*
X-50638D01*
X-136615Y-218900D02*
X-50638D01*
X-136615Y-206900D02*
X-50638D01*
X-136615Y-194900D02*
X-50638D01*
X-136615Y-182900D02*
X-50638D01*
X-136615Y-170900D02*
X-50638D01*
X-136615Y-158900D02*
X-50638D01*
X-136615Y-146900D02*
X-50638D01*
Y-314900D02*
Y-122900D01*
Y-314900D02*
X14346D01*
X-50638Y-302900D02*
X14346D01*
X-50638Y-290900D02*
X14346D01*
X-50638Y-278900D02*
X14346D01*
X-50638Y-266900D02*
X14346D01*
X-50638Y-254900D02*
X14346D01*
X-50638Y-242900D02*
X14346D01*
X-50638Y-230900D02*
X14346D01*
X-50638Y-218900D02*
X14346D01*
X-50638Y-206900D02*
X14346D01*
X-50638Y-194900D02*
X14346D01*
X-50638Y-182900D02*
X14346D01*
X-50638Y-170900D02*
X14346D01*
X-50638Y-158900D02*
X14346D01*
X-50638Y-146900D02*
X14346D01*
Y-314900D02*
Y-122900D01*
Y-314900D02*
X71332D01*
X14346Y-302900D02*
X71332D01*
X14346Y-290900D02*
X71332D01*
X14346Y-278900D02*
X71332D01*
X14346Y-266900D02*
X71332D01*
X14346Y-254900D02*
X71332D01*
X14346Y-242900D02*
X71332D01*
X14346Y-230900D02*
X71332D01*
X14346Y-218900D02*
X71332D01*
X14346Y-206900D02*
X71332D01*
X14346Y-194900D02*
X71332D01*
X14346Y-182900D02*
X71332D01*
X14346Y-170900D02*
X71332D01*
X14346Y-158900D02*
X71332D01*
X14346Y-146900D02*
X71332D01*
Y-314900D02*
Y-122900D01*
Y-314900D02*
X183300D01*
X71332Y-302900D02*
X183300D01*
X71332Y-290900D02*
X183300D01*
X71332Y-278900D02*
X183300D01*
X71332Y-266900D02*
X183300D01*
X71332Y-254900D02*
X183300D01*
X71332Y-242900D02*
X183300D01*
X71332Y-230900D02*
X183300D01*
X71332Y-218900D02*
X183300D01*
X71332Y-206900D02*
X183300D01*
X71332Y-194900D02*
X183300D01*
X71332Y-182900D02*
X183300D01*
X71332Y-170900D02*
X183300D01*
X71332Y-158900D02*
X183300D01*
X71332Y-146900D02*
X183300D01*
Y-314900D02*
Y-122900D01*
D121*
X177300Y-314900D02*
X183300Y-308900D01*
X171300Y-314900D02*
X183300Y-302900D01*
X165300Y-314900D02*
X177300Y-302900D01*
X159300Y-314900D02*
X171300Y-302900D01*
X153300Y-314900D02*
X165300Y-302900D01*
X147300Y-314900D02*
X159300Y-302900D01*
X141300Y-314900D02*
X153300Y-302900D01*
X135300Y-314900D02*
X147300Y-302900D01*
X129300Y-314900D02*
X141300Y-302900D01*
X123300Y-314900D02*
X135300Y-302900D01*
X117300Y-314900D02*
X129300Y-302900D01*
X111300Y-314900D02*
X123300Y-302900D01*
X105300Y-314900D02*
X117300Y-302900D01*
X99300Y-314900D02*
X111300Y-302900D01*
X93300Y-314900D02*
X105300Y-302900D01*
X87300Y-314900D02*
X99300Y-302900D01*
X81300Y-314900D02*
X93300Y-302900D01*
X75300Y-314900D02*
X87300Y-302900D01*
X71332Y-312868D02*
X81300Y-302900D01*
X71332Y-306868D02*
X75300Y-302900D01*
X177300D02*
X183300Y-296900D01*
X171300Y-302900D02*
X183300Y-290900D01*
X165300Y-302900D02*
X177300Y-290900D01*
X159300Y-302900D02*
X171300Y-290900D01*
X153300Y-302900D02*
X165300Y-290900D01*
X147300Y-302900D02*
X159300Y-290900D01*
X141300Y-302900D02*
X153300Y-290900D01*
X135300Y-302900D02*
X147300Y-290900D01*
X129300Y-302900D02*
X141300Y-290900D01*
X123300Y-302900D02*
X135300Y-290900D01*
X117300Y-302900D02*
X129300Y-290900D01*
X111300Y-302900D02*
X123300Y-290900D01*
X105300Y-302900D02*
X117300Y-290900D01*
X99300Y-302900D02*
X111300Y-290900D01*
X93300Y-302900D02*
X105300Y-290900D01*
X87300Y-302900D02*
X99300Y-290900D01*
X81300Y-302900D02*
X93300Y-290900D01*
X75300Y-302900D02*
X87300Y-290900D01*
X71332Y-300868D02*
X81300Y-290900D01*
X71332Y-294868D02*
X75300Y-290900D01*
X177300D02*
X183300Y-284900D01*
X171300Y-290900D02*
X183300Y-278900D01*
X165300Y-290900D02*
X177300Y-278900D01*
X159300Y-290900D02*
X171300Y-278900D01*
X153300Y-290900D02*
X165300Y-278900D01*
X147300Y-290900D02*
X159300Y-278900D01*
X141300Y-290900D02*
X153300Y-278900D01*
X135300Y-290900D02*
X147300Y-278900D01*
X129300Y-290900D02*
X141300Y-278900D01*
X123300Y-290900D02*
X135300Y-278900D01*
X117300Y-290900D02*
X129300Y-278900D01*
X111300Y-290900D02*
X123300Y-278900D01*
X105300Y-290900D02*
X117300Y-278900D01*
X99300Y-290900D02*
X111300Y-278900D01*
X93300Y-290900D02*
X105300Y-278900D01*
X87300Y-290900D02*
X99300Y-278900D01*
X81300Y-290900D02*
X93300Y-278900D01*
X75300Y-290900D02*
X87300Y-278900D01*
X71332Y-288868D02*
X81300Y-278900D01*
X71332Y-282868D02*
X75300Y-278900D01*
X177300D02*
X183300Y-272900D01*
X171300Y-278900D02*
X183300Y-266900D01*
X165300Y-278900D02*
X177300Y-266900D01*
X159300Y-278900D02*
X171300Y-266900D01*
X153300Y-278900D02*
X165300Y-266900D01*
X147300Y-278900D02*
X159300Y-266900D01*
X141300Y-278900D02*
X153300Y-266900D01*
X135300Y-278900D02*
X147300Y-266900D01*
X129300Y-278900D02*
X141300Y-266900D01*
X123300Y-278900D02*
X135300Y-266900D01*
X117300Y-278900D02*
X129300Y-266900D01*
X111300Y-278900D02*
X123300Y-266900D01*
X105300Y-278900D02*
X117300Y-266900D01*
X99300Y-278900D02*
X111300Y-266900D01*
X93300Y-278900D02*
X105300Y-266900D01*
X87300Y-278900D02*
X99300Y-266900D01*
X81300Y-278900D02*
X93300Y-266900D01*
X75300Y-278900D02*
X87300Y-266900D01*
X71332Y-276868D02*
X81300Y-266900D01*
X71332Y-270868D02*
X75300Y-266900D01*
X177300D02*
X183300Y-260900D01*
X171300Y-266900D02*
X183300Y-254900D01*
X165300Y-266900D02*
X177300Y-254900D01*
X159300Y-266900D02*
X171300Y-254900D01*
X153300Y-266900D02*
X165300Y-254900D01*
X147300Y-266900D02*
X159300Y-254900D01*
X141300Y-266900D02*
X153300Y-254900D01*
X135300Y-266900D02*
X147300Y-254900D01*
X129300Y-266900D02*
X141300Y-254900D01*
X123300Y-266900D02*
X135300Y-254900D01*
X117300Y-266900D02*
X129300Y-254900D01*
X111300Y-266900D02*
X123300Y-254900D01*
X105300Y-266900D02*
X117300Y-254900D01*
X99300Y-266900D02*
X111300Y-254900D01*
X93300Y-266900D02*
X105300Y-254900D01*
X87300Y-266900D02*
X99300Y-254900D01*
X81300Y-266900D02*
X93300Y-254900D01*
X75300Y-266900D02*
X87300Y-254900D01*
X71332Y-264868D02*
X81300Y-254900D01*
X71332Y-258868D02*
X75300Y-254900D01*
X177300D02*
X183300Y-248900D01*
X171300Y-254900D02*
X183300Y-242900D01*
X165300Y-254900D02*
X177300Y-242900D01*
X159300Y-254900D02*
X171300Y-242900D01*
X153300Y-254900D02*
X165300Y-242900D01*
X147300Y-254900D02*
X159300Y-242900D01*
X141300Y-254900D02*
X153300Y-242900D01*
X135300Y-254900D02*
X147300Y-242900D01*
X129300Y-254900D02*
X141300Y-242900D01*
X123300Y-254900D02*
X135300Y-242900D01*
X117300Y-254900D02*
X129300Y-242900D01*
X111300Y-254900D02*
X123300Y-242900D01*
X105300Y-254900D02*
X117300Y-242900D01*
X99300Y-254900D02*
X111300Y-242900D01*
X93300Y-254900D02*
X105300Y-242900D01*
X87300Y-254900D02*
X99300Y-242900D01*
X81300Y-254900D02*
X93300Y-242900D01*
X75300Y-254900D02*
X87300Y-242900D01*
X71332Y-252868D02*
X81300Y-242900D01*
X71332Y-246868D02*
X75300Y-242900D01*
X177300D02*
X183300Y-236900D01*
X171300Y-242900D02*
X183300Y-230900D01*
X165300Y-242900D02*
X177300Y-230900D01*
X159300Y-242900D02*
X171300Y-230900D01*
X153300Y-242900D02*
X165300Y-230900D01*
X147300Y-242900D02*
X159300Y-230900D01*
X141300Y-242900D02*
X153300Y-230900D01*
X135300Y-242900D02*
X147300Y-230900D01*
X129300Y-242900D02*
X141300Y-230900D01*
X123300Y-242900D02*
X135300Y-230900D01*
X117300Y-242900D02*
X129300Y-230900D01*
X111300Y-242900D02*
X123300Y-230900D01*
X105300Y-242900D02*
X117300Y-230900D01*
X99300Y-242900D02*
X111300Y-230900D01*
X93300Y-242900D02*
X105300Y-230900D01*
X87300Y-242900D02*
X99300Y-230900D01*
X81300Y-242900D02*
X93300Y-230900D01*
X75300Y-242900D02*
X87300Y-230900D01*
X71332Y-240868D02*
X81300Y-230900D01*
X71332Y-234868D02*
X75300Y-230900D01*
X177300D02*
X183300Y-224900D01*
X171300Y-230900D02*
X183300Y-218900D01*
X165300Y-230900D02*
X177300Y-218900D01*
X159300Y-230900D02*
X171300Y-218900D01*
X153300Y-230900D02*
X165300Y-218900D01*
X147300Y-230900D02*
X159300Y-218900D01*
X141300Y-230900D02*
X153300Y-218900D01*
X135300Y-230900D02*
X147300Y-218900D01*
X129300Y-230900D02*
X141300Y-218900D01*
X123300Y-230900D02*
X135300Y-218900D01*
X117300Y-230900D02*
X129300Y-218900D01*
X111300Y-230900D02*
X123300Y-218900D01*
X105300Y-230900D02*
X117300Y-218900D01*
X99300Y-230900D02*
X111300Y-218900D01*
X93300Y-230900D02*
X105300Y-218900D01*
X87300Y-230900D02*
X99300Y-218900D01*
X81300Y-230900D02*
X93300Y-218900D01*
X75300Y-230900D02*
X87300Y-218900D01*
X71332Y-228868D02*
X81300Y-218900D01*
X71332Y-222868D02*
X75300Y-218900D01*
X177300D02*
X183300Y-212900D01*
X171300Y-218900D02*
X183300Y-206900D01*
X165300Y-218900D02*
X177300Y-206900D01*
X159300Y-218900D02*
X171300Y-206900D01*
X153300Y-218900D02*
X165300Y-206900D01*
X147300Y-218900D02*
X159300Y-206900D01*
X141300Y-218900D02*
X153300Y-206900D01*
X135300Y-218900D02*
X147300Y-206900D01*
X129300Y-218900D02*
X141300Y-206900D01*
X123300Y-218900D02*
X135300Y-206900D01*
X117300Y-218900D02*
X129300Y-206900D01*
X111300Y-218900D02*
X123300Y-206900D01*
X105300Y-218900D02*
X117300Y-206900D01*
X99300Y-218900D02*
X111300Y-206900D01*
X93300Y-218900D02*
X105300Y-206900D01*
X87300Y-218900D02*
X99300Y-206900D01*
X81300Y-218900D02*
X93300Y-206900D01*
X75300Y-218900D02*
X87300Y-206900D01*
X71332Y-216868D02*
X81300Y-206900D01*
X71332Y-210868D02*
X75300Y-206900D01*
X177300D02*
X183300Y-200900D01*
X171300Y-206900D02*
X183300Y-194900D01*
X165300Y-206900D02*
X177300Y-194900D01*
X159300Y-206900D02*
X171300Y-194900D01*
X153300Y-206900D02*
X165300Y-194900D01*
X147300Y-206900D02*
X159300Y-194900D01*
X141300Y-206900D02*
X153300Y-194900D01*
X135300Y-206900D02*
X147300Y-194900D01*
X129300Y-206900D02*
X141300Y-194900D01*
X123300Y-206900D02*
X135300Y-194900D01*
X117300Y-206900D02*
X129300Y-194900D01*
X111300Y-206900D02*
X123300Y-194900D01*
X105300Y-206900D02*
X117300Y-194900D01*
X99300Y-206900D02*
X111300Y-194900D01*
X93300Y-206900D02*
X105300Y-194900D01*
X87300Y-206900D02*
X99300Y-194900D01*
X81300Y-206900D02*
X93300Y-194900D01*
X75300Y-206900D02*
X87300Y-194900D01*
X71332Y-204868D02*
X81300Y-194900D01*
X71332Y-198868D02*
X75300Y-194900D01*
X177300D02*
X183300Y-188900D01*
X171300Y-194900D02*
X183300Y-182900D01*
X165300Y-194900D02*
X177300Y-182900D01*
X159300Y-194900D02*
X171300Y-182900D01*
X153300Y-194900D02*
X165300Y-182900D01*
X147300Y-194900D02*
X159300Y-182900D01*
X141300Y-194900D02*
X153300Y-182900D01*
X135300Y-194900D02*
X147300Y-182900D01*
X129300Y-194900D02*
X141300Y-182900D01*
X123300Y-194900D02*
X135300Y-182900D01*
X117300Y-194900D02*
X129300Y-182900D01*
X111300Y-194900D02*
X123300Y-182900D01*
X105300Y-194900D02*
X117300Y-182900D01*
X99300Y-194900D02*
X111300Y-182900D01*
X93300Y-194900D02*
X105300Y-182900D01*
X87300Y-194900D02*
X99300Y-182900D01*
X81300Y-194900D02*
X93300Y-182900D01*
X75300Y-194900D02*
X87300Y-182900D01*
X71332Y-192868D02*
X81300Y-182900D01*
X71332Y-186868D02*
X75300Y-182900D01*
X177300D02*
X183300Y-176900D01*
X171300Y-182900D02*
X183300Y-170900D01*
X165300Y-182900D02*
X177300Y-170900D01*
X159300Y-182900D02*
X171300Y-170900D01*
X153300Y-182900D02*
X165300Y-170900D01*
X147300Y-182900D02*
X159300Y-170900D01*
X141300Y-182900D02*
X153300Y-170900D01*
X135300Y-182900D02*
X147300Y-170900D01*
X129300Y-182900D02*
X141300Y-170900D01*
X123300Y-182900D02*
X135300Y-170900D01*
X117300Y-182900D02*
X129300Y-170900D01*
X111300Y-182900D02*
X123300Y-170900D01*
X105300Y-182900D02*
X117300Y-170900D01*
X99300Y-182900D02*
X111300Y-170900D01*
X93300Y-182900D02*
X105300Y-170900D01*
X87300Y-182900D02*
X99300Y-170900D01*
X81300Y-182900D02*
X93300Y-170900D01*
X75300Y-182900D02*
X87300Y-170900D01*
X71332Y-180868D02*
X81300Y-170900D01*
X71332Y-174868D02*
X75300Y-170900D01*
X177300D02*
X183300Y-164900D01*
X171300Y-170900D02*
X183300Y-158900D01*
X165300Y-170900D02*
X177300Y-158900D01*
X159300Y-170900D02*
X171300Y-158900D01*
X153300Y-170900D02*
X165300Y-158900D01*
X147300Y-170900D02*
X159300Y-158900D01*
X141300Y-170900D02*
X153300Y-158900D01*
X135300Y-170900D02*
X147300Y-158900D01*
X129300Y-170900D02*
X141300Y-158900D01*
X123300Y-170900D02*
X135300Y-158900D01*
X117300Y-170900D02*
X129300Y-158900D01*
X111300Y-170900D02*
X123300Y-158900D01*
X105300Y-170900D02*
X117300Y-158900D01*
X99300Y-170900D02*
X111300Y-158900D01*
X93300Y-170900D02*
X105300Y-158900D01*
X87300Y-170900D02*
X99300Y-158900D01*
X81300Y-170900D02*
X93300Y-158900D01*
X75300Y-170900D02*
X87300Y-158900D01*
X71332Y-168868D02*
X81300Y-158900D01*
X71332Y-162868D02*
X75300Y-158900D01*
X177300D02*
X183300Y-152900D01*
X171300Y-158900D02*
X183300Y-146900D01*
X165300Y-158900D02*
X177300Y-146900D01*
X159300Y-158900D02*
X171300Y-146900D01*
X153300Y-158900D02*
X165300Y-146900D01*
X147300Y-158900D02*
X159300Y-146900D01*
X141300Y-158900D02*
X153300Y-146900D01*
X135300Y-158900D02*
X147300Y-146900D01*
X129300Y-158900D02*
X141300Y-146900D01*
X123300Y-158900D02*
X135300Y-146900D01*
X117300Y-158900D02*
X129300Y-146900D01*
X111300Y-158900D02*
X123300Y-146900D01*
X105300Y-158900D02*
X117300Y-146900D01*
X99300Y-158900D02*
X111300Y-146900D01*
X93300Y-158900D02*
X105300Y-146900D01*
X87300Y-158900D02*
X99300Y-146900D01*
X81300Y-158900D02*
X93300Y-146900D01*
X75300Y-158900D02*
X87300Y-146900D01*
X71332Y-156868D02*
X81300Y-146900D01*
X71332Y-150868D02*
X75300Y-146900D01*
X177300D02*
X183300Y-140900D01*
X171300Y-146900D02*
X183300Y-134900D01*
X165300Y-146900D02*
X177300Y-134900D01*
X159300Y-146900D02*
X171300Y-134900D01*
X153300Y-146900D02*
X165300Y-134900D01*
X147300Y-146900D02*
X159300Y-134900D01*
X141300Y-146900D02*
X153300Y-134900D01*
X135300Y-146900D02*
X147300Y-134900D01*
X129300Y-146900D02*
X141300Y-134900D01*
X123300Y-146900D02*
X135300Y-134900D01*
X117300Y-146900D02*
X129300Y-134900D01*
X111300Y-146900D02*
X123300Y-134900D01*
X105300Y-146900D02*
X117300Y-134900D01*
X99300Y-146900D02*
X111300Y-134900D01*
X93300Y-146900D02*
X105300Y-134900D01*
X87300Y-146900D02*
X99300Y-134900D01*
X81300Y-146900D02*
X93300Y-134900D01*
X75300Y-146900D02*
X87300Y-134900D01*
X71332Y-144868D02*
X81300Y-134900D01*
X71332Y-138868D02*
X75300Y-134900D01*
D122*
X1097973Y-462601D02*
X1091308D01*
X1097973Y-455937D01*
Y-454271D01*
X1096306Y-452604D01*
X1092974D01*
X1091308Y-454271D01*
X1101305Y-462601D02*
Y-455937D01*
X1104637Y-452604D01*
X1107969Y-455937D01*
Y-462601D01*
Y-457603D01*
X1101305D01*
X848902Y-449471D02*
X855567D01*
X852235D01*
Y-459468D01*
X858899Y-449471D02*
X862232D01*
X860565D01*
Y-459468D01*
X858899D01*
X862232D01*
X867230D02*
Y-449471D01*
X873894Y-459468D01*
Y-449471D01*
X877227D02*
Y-451137D01*
X880559Y-454469D01*
X883891Y-451137D01*
Y-449471D01*
X880559Y-454469D02*
Y-459468D01*
X887223D02*
Y-449471D01*
X890556Y-452803D01*
X893888Y-449471D01*
Y-459468D01*
X902219Y-449471D02*
X898886D01*
X897220Y-451137D01*
Y-457801D01*
X898886Y-459468D01*
X902219D01*
X903885Y-457801D01*
Y-451137D01*
X902219Y-449471D01*
X907217D02*
Y-459468D01*
X912215D01*
X913881Y-457801D01*
Y-451137D01*
X912215Y-449471D01*
X907217D01*
X917214D02*
Y-457801D01*
X918880Y-459468D01*
X922212D01*
X923878Y-457801D01*
Y-449471D01*
X927211D02*
Y-459468D01*
X933875D01*
X943872Y-449471D02*
X937207D01*
Y-459468D01*
X943872D01*
X937207Y-454469D02*
X940539D01*
D123*
X849576Y-439324D02*
Y-446063D01*
Y-439324D02*
X851822D01*
X852785Y-439645D01*
X853426Y-440287D01*
X853747Y-440929D01*
X854068Y-441891D01*
Y-443496D01*
X853747Y-444458D01*
X853426Y-445100D01*
X852785Y-445742D01*
X851822Y-446063D01*
X849576D01*
X855576Y-439324D02*
X857181Y-446063D01*
X858785Y-439324D02*
X857181Y-446063D01*
X858785Y-439324D02*
X860390Y-446063D01*
X861994Y-439324D02*
X860390Y-446063D01*
X868155Y-440929D02*
X867834Y-440287D01*
X867192Y-439645D01*
X866551Y-439324D01*
X865267D01*
X864625Y-439645D01*
X863983Y-440287D01*
X863663Y-440929D01*
X863342Y-441891D01*
Y-443496D01*
X863663Y-444458D01*
X863983Y-445100D01*
X864625Y-445742D01*
X865267Y-446063D01*
X866551D01*
X867192Y-445742D01*
X867834Y-445100D01*
X868155Y-444458D01*
Y-443496D01*
X866551D02*
X868155D01*
X870016Y-445421D02*
X869695Y-445742D01*
X870016Y-446063D01*
X870337Y-445742D01*
X870016Y-445421D01*
X877108Y-439324D02*
Y-446063D01*
Y-439324D02*
X881600Y-446063D01*
Y-439324D02*
Y-446063D01*
X885386Y-439324D02*
X884745Y-439645D01*
X884103Y-440287D01*
X883782Y-440929D01*
X883461Y-441891D01*
Y-443496D01*
X883782Y-444458D01*
X884103Y-445100D01*
X884745Y-445742D01*
X885386Y-446063D01*
X886670D01*
X887312Y-445742D01*
X887953Y-445100D01*
X888274Y-444458D01*
X888595Y-443496D01*
Y-441891D01*
X888274Y-440929D01*
X887953Y-440287D01*
X887312Y-439645D01*
X886670Y-439324D01*
X885386D01*
X890488Y-445421D02*
X890168Y-445742D01*
X890488Y-446063D01*
X890809Y-445742D01*
X890488Y-445421D01*
X1073198Y-439718D02*
Y-446456D01*
Y-439718D02*
X1076086D01*
X1077048Y-440039D01*
X1077369Y-440360D01*
X1077690Y-441002D01*
Y-441643D01*
X1077369Y-442285D01*
X1077048Y-442606D01*
X1076086Y-442927D01*
X1073198D01*
X1075444D02*
X1077690Y-446456D01*
X1083370Y-439718D02*
X1079198D01*
Y-446456D01*
X1083370D01*
X1079198Y-442927D02*
X1081765D01*
X1084493Y-439718D02*
X1087060Y-446456D01*
X1089627Y-439718D02*
X1087060Y-446456D01*
X697196Y572574D02*
X693025D01*
Y565836D01*
X697196D01*
X693025Y569365D02*
X695592D01*
X703132Y570970D02*
X702811Y571612D01*
X702170Y572253D01*
X701528Y572574D01*
X700245D01*
X699603Y572253D01*
X698961Y571612D01*
X698640Y570970D01*
X698319Y570007D01*
Y568403D01*
X698640Y567440D01*
X698961Y566798D01*
X699603Y566157D01*
X700245Y565836D01*
X701528D01*
X702170Y566157D01*
X702811Y566798D01*
X703132Y567440D01*
X706951Y572574D02*
X706309Y572253D01*
X705667Y571612D01*
X705346Y570970D01*
X705026Y570007D01*
Y568403D01*
X705346Y567440D01*
X705667Y566798D01*
X706309Y566157D01*
X706951Y565836D01*
X708235D01*
X708876Y566157D01*
X709518Y566798D01*
X709839Y567440D01*
X710160Y568403D01*
Y570007D01*
X709839Y570970D01*
X709518Y571612D01*
X708876Y572253D01*
X708235Y572574D01*
X706951D01*
X733182D02*
Y565836D01*
Y572574D02*
X736070D01*
X737033Y572253D01*
X737354Y571933D01*
X737674Y571291D01*
Y570649D01*
X737354Y570007D01*
X737033Y569686D01*
X736070Y569365D01*
X733182D01*
X735428D02*
X737674Y565836D01*
X743354Y572574D02*
X739183D01*
Y565836D01*
X743354D01*
X739183Y569365D02*
X741750D01*
X744477Y572574D02*
X747044Y565836D01*
X749611Y572574D02*
X747044Y565836D01*
X849718Y572574D02*
Y565836D01*
Y572574D02*
X851964D01*
X852926Y572253D01*
X853568Y571612D01*
X853889Y570970D01*
X854210Y570007D01*
Y568403D01*
X853889Y567440D01*
X853568Y566798D01*
X852926Y566157D01*
X851964Y565836D01*
X849718D01*
X859890Y572574D02*
X855718D01*
Y565836D01*
X859890D01*
X855718Y569365D02*
X858285D01*
X865505Y571612D02*
X864863Y572253D01*
X863900Y572574D01*
X862617D01*
X861654Y572253D01*
X861013Y571612D01*
Y570970D01*
X861333Y570328D01*
X861654Y570007D01*
X862296Y569686D01*
X864221Y569044D01*
X864863Y568724D01*
X865184Y568403D01*
X865505Y567761D01*
Y566798D01*
X864863Y566157D01*
X863900Y565836D01*
X862617D01*
X861654Y566157D01*
X861013Y566798D01*
X871826Y570970D02*
X871506Y571612D01*
X870864Y572253D01*
X870222Y572574D01*
X868938D01*
X868297Y572253D01*
X867655Y571612D01*
X867334Y570970D01*
X867013Y570007D01*
Y568403D01*
X867334Y567440D01*
X867655Y566798D01*
X868297Y566157D01*
X868938Y565836D01*
X870222D01*
X870864Y566157D01*
X871506Y566798D01*
X871826Y567440D01*
X873720Y572574D02*
Y565836D01*
Y572574D02*
X876608D01*
X877570Y572253D01*
X877891Y571933D01*
X878212Y571291D01*
Y570649D01*
X877891Y570007D01*
X877570Y569686D01*
X876608Y569365D01*
X873720D01*
X875966D02*
X878212Y565836D01*
X879720Y572574D02*
Y565836D01*
X881132Y569044D02*
X884020D01*
X884983Y569365D01*
X885303Y569686D01*
X885624Y570328D01*
Y571291D01*
X885303Y571933D01*
X884983Y572253D01*
X884020Y572574D01*
X881132D01*
Y565836D01*
X889379Y572574D02*
Y565836D01*
X887132Y572574D02*
X891625D01*
X892427D02*
Y565836D01*
X895764Y572574D02*
X895123Y572253D01*
X894481Y571612D01*
X894160Y570970D01*
X893839Y570007D01*
Y568403D01*
X894160Y567440D01*
X894481Y566798D01*
X895123Y566157D01*
X895764Y565836D01*
X897048D01*
X897690Y566157D01*
X898331Y566798D01*
X898652Y567440D01*
X898973Y568403D01*
Y570007D01*
X898652Y570970D01*
X898331Y571612D01*
X897690Y572253D01*
X897048Y572574D01*
X895764D01*
X900546D02*
Y565836D01*
Y572574D02*
X905038Y565836D01*
Y572574D02*
Y565836D01*
X1013655Y572456D02*
Y565718D01*
Y572456D02*
X1015901D01*
X1016863Y572135D01*
X1017505Y571493D01*
X1017826Y570852D01*
X1018147Y569889D01*
Y568285D01*
X1017826Y567322D01*
X1017505Y566680D01*
X1016863Y566039D01*
X1015901Y565718D01*
X1013655D01*
X1024789D02*
X1022222Y572456D01*
X1019655Y565718D01*
X1020618Y567964D02*
X1023827D01*
X1028608Y572456D02*
Y565718D01*
X1026361Y572456D02*
X1030854D01*
X1035828D02*
X1031656D01*
Y565718D01*
X1035828D01*
X1031656Y569247D02*
X1034223D01*
X1077686Y565836D02*
X1075119Y572574D01*
X1072552Y565836D01*
X1073515Y568082D02*
X1076724D01*
X1079259Y569044D02*
X1082147D01*
X1083109Y569365D01*
X1083430Y569686D01*
X1083751Y570328D01*
Y571291D01*
X1083430Y571933D01*
X1083109Y572253D01*
X1082147Y572574D01*
X1079259D01*
Y565836D01*
X1085259Y569044D02*
X1088147D01*
X1089110Y569365D01*
X1089431Y569686D01*
X1089752Y570328D01*
Y571291D01*
X1089431Y571933D01*
X1089110Y572253D01*
X1088147Y572574D01*
X1085259D01*
Y565836D01*
X1091260Y572574D02*
X1093827Y565836D01*
X1096394Y572574D02*
X1093827Y565836D01*
X1097260Y572574D02*
Y565836D01*
Y572574D02*
X1099506D01*
X1100469Y572253D01*
X1101111Y571612D01*
X1101432Y570970D01*
X1101752Y570007D01*
Y568403D01*
X1101432Y567440D01*
X1101111Y566798D01*
X1100469Y566157D01*
X1099506Y565836D01*
X1097260D01*
X497529Y-469764D02*
Y-476503D01*
X503433Y-470727D02*
X502791Y-470085D01*
X501828Y-469764D01*
X500545D01*
X499582Y-470085D01*
X498940Y-470727D01*
Y-471369D01*
X499261Y-472011D01*
X499582Y-472331D01*
X500224Y-472652D01*
X502149Y-473294D01*
X502791Y-473615D01*
X503112Y-473936D01*
X503433Y-474578D01*
Y-475540D01*
X502791Y-476182D01*
X501828Y-476503D01*
X500545D01*
X499582Y-476182D01*
X498940Y-475540D01*
X509433Y-470727D02*
X508791Y-470085D01*
X507829Y-469764D01*
X506545D01*
X505583Y-470085D01*
X504941Y-470727D01*
Y-471369D01*
X505262Y-472011D01*
X505583Y-472331D01*
X506224Y-472652D01*
X508150Y-473294D01*
X508791Y-473615D01*
X509112Y-473936D01*
X509433Y-474578D01*
Y-475540D01*
X508791Y-476182D01*
X507829Y-476503D01*
X506545D01*
X505583Y-476182D01*
X504941Y-475540D01*
X510941Y-469764D02*
Y-474578D01*
X511262Y-475540D01*
X511904Y-476182D01*
X512867Y-476503D01*
X513509D01*
X514471Y-476182D01*
X515113Y-475540D01*
X515434Y-474578D01*
Y-469764D01*
X521466D02*
X517295D01*
Y-476503D01*
X521466D01*
X517295Y-472973D02*
X519862D01*
X522589Y-469764D02*
Y-476503D01*
Y-469764D02*
X524836D01*
X525798Y-470085D01*
X526440Y-470727D01*
X526761Y-471369D01*
X527082Y-472331D01*
Y-473936D01*
X526761Y-474898D01*
X526440Y-475540D01*
X525798Y-476182D01*
X524836Y-476503D01*
X522589D01*
X504310Y-441447D02*
X503989Y-440806D01*
X503348Y-440164D01*
X502706Y-439843D01*
X501422D01*
X500780Y-440164D01*
X500139Y-440806D01*
X499818Y-441447D01*
X499497Y-442410D01*
Y-444015D01*
X499818Y-444977D01*
X500139Y-445619D01*
X500780Y-446261D01*
X501422Y-446582D01*
X502706D01*
X503348Y-446261D01*
X503989Y-445619D01*
X504310Y-444977D01*
X506204Y-439843D02*
Y-446582D01*
X510696Y-439843D02*
Y-446582D01*
X506204Y-443052D02*
X510696D01*
X516728Y-439843D02*
X512557D01*
Y-446582D01*
X516728D01*
X512557Y-443052D02*
X515124D01*
X522665Y-441447D02*
X522344Y-440806D01*
X521702Y-440164D01*
X521060Y-439843D01*
X519777D01*
X519135Y-440164D01*
X518493Y-440806D01*
X518172Y-441447D01*
X517852Y-442410D01*
Y-444015D01*
X518172Y-444977D01*
X518493Y-445619D01*
X519135Y-446261D01*
X519777Y-446582D01*
X521060D01*
X521702Y-446261D01*
X522344Y-445619D01*
X522665Y-444977D01*
X524558Y-439843D02*
Y-446582D01*
X529050Y-439843D02*
X524558Y-444335D01*
X526162Y-442731D02*
X529050Y-446582D01*
X499497Y-408347D02*
Y-415086D01*
Y-408347D02*
X501743D01*
X502706Y-408668D01*
X503348Y-409310D01*
X503668Y-409951D01*
X503989Y-410914D01*
Y-412519D01*
X503668Y-413481D01*
X503348Y-414123D01*
X502706Y-414765D01*
X501743Y-415086D01*
X499497D01*
X505498Y-408347D02*
Y-415086D01*
Y-408347D02*
X508386D01*
X509348Y-408668D01*
X509669Y-408989D01*
X509990Y-409630D01*
Y-410272D01*
X509669Y-410914D01*
X509348Y-411235D01*
X508386Y-411556D01*
X505498D01*
X507744D02*
X509990Y-415086D01*
X516632D02*
X514065Y-408347D01*
X511498Y-415086D01*
X512461Y-412839D02*
X515669D01*
X518204Y-408347D02*
X519809Y-415086D01*
X521413Y-408347D02*
X519809Y-415086D01*
X521413Y-408347D02*
X523018Y-415086D01*
X524622Y-408347D02*
X523018Y-415086D01*
X525970Y-408347D02*
Y-415086D01*
Y-408347D02*
X530462Y-415086D01*
Y-408347D02*
Y-415086D01*
X987926Y-476050D02*
X987285Y-475408D01*
X986322Y-475087D01*
X985038D01*
X984076Y-475408D01*
X983434Y-476050D01*
Y-476692D01*
X983755Y-477333D01*
X984076Y-477654D01*
X984718Y-477975D01*
X986643Y-478617D01*
X987285Y-478938D01*
X987605Y-479259D01*
X987926Y-479901D01*
Y-480863D01*
X987285Y-481505D01*
X986322Y-481826D01*
X985038D01*
X984076Y-481505D01*
X983434Y-480863D01*
X989435Y-475087D02*
Y-481826D01*
X993927Y-475087D02*
Y-481826D01*
X989435Y-478296D02*
X993927D01*
X999959Y-475087D02*
X995788D01*
Y-481826D01*
X999959D01*
X995788Y-478296D02*
X998355D01*
X1005254Y-475087D02*
X1001083D01*
Y-481826D01*
X1005254D01*
X1001083Y-478296D02*
X1003650D01*
X1008623Y-475087D02*
Y-481826D01*
X1006377Y-475087D02*
X1010870D01*
X1032850Y-476371D02*
X1033492Y-476050D01*
X1034455Y-475087D01*
Y-481826D01*
X1066190Y-475087D02*
X1065548Y-475408D01*
X1064906Y-476050D01*
X1064585Y-476692D01*
X1064265Y-477654D01*
Y-479259D01*
X1064585Y-480221D01*
X1064906Y-480863D01*
X1065548Y-481505D01*
X1066190Y-481826D01*
X1067474D01*
X1068115Y-481505D01*
X1068757Y-480863D01*
X1069078Y-480221D01*
X1069399Y-479259D01*
Y-477654D01*
X1069078Y-476692D01*
X1068757Y-476050D01*
X1068115Y-475408D01*
X1067474Y-475087D01*
X1066190D01*
X1070971D02*
Y-481826D01*
Y-475087D02*
X1075143D01*
X1070971Y-478296D02*
X1073538D01*
X1102386Y-476371D02*
X1103027Y-476050D01*
X1103990Y-475087D01*
Y-481826D01*
X878851Y591078D02*
Y584340D01*
Y591078D02*
X881739D01*
X882702Y590757D01*
X883023Y590436D01*
X883344Y589795D01*
Y589153D01*
X883023Y588511D01*
X882702Y588190D01*
X881739Y587869D01*
X878851D01*
X881098D02*
X883344Y584340D01*
X889023Y591078D02*
X884852D01*
Y584340D01*
X889023D01*
X884852Y587869D02*
X887419D01*
X890147Y591078D02*
X892714Y584340D01*
X895281Y591078D02*
X892714Y584340D01*
X896147Y591078D02*
Y584340D01*
X902051Y590116D02*
X901410Y590757D01*
X900447Y591078D01*
X899163D01*
X898201Y590757D01*
X897559Y590116D01*
Y589474D01*
X897880Y588832D01*
X898201Y588511D01*
X898842Y588190D01*
X900768Y587548D01*
X901410Y587228D01*
X901730Y586907D01*
X902051Y586265D01*
Y585302D01*
X901410Y584660D01*
X900447Y584340D01*
X899163D01*
X898201Y584660D01*
X897559Y585302D01*
X903559Y591078D02*
Y584340D01*
X906897Y591078D02*
X906255Y590757D01*
X905613Y590116D01*
X905292Y589474D01*
X904971Y588511D01*
Y586907D01*
X905292Y585944D01*
X905613Y585302D01*
X906255Y584660D01*
X906897Y584340D01*
X908180D01*
X908822Y584660D01*
X909464Y585302D01*
X909785Y585944D01*
X910105Y586907D01*
Y588511D01*
X909785Y589474D01*
X909464Y590116D01*
X908822Y590757D01*
X908180Y591078D01*
X906897D01*
X911678D02*
Y584340D01*
Y591078D02*
X916170Y584340D01*
Y591078D02*
Y584340D01*
X922524Y590116D02*
X921882Y590757D01*
X920919Y591078D01*
X919636D01*
X918673Y590757D01*
X918031Y590116D01*
Y589474D01*
X918352Y588832D01*
X918673Y588511D01*
X919315Y588190D01*
X921240Y587548D01*
X921882Y587228D01*
X922203Y586907D01*
X922524Y586265D01*
Y585302D01*
X921882Y584660D01*
X920919Y584340D01*
X919636D01*
X918673Y584660D01*
X918031Y585302D01*
X526269Y-353229D02*
Y-359967D01*
Y-353229D02*
X528515D01*
X529478Y-353550D01*
X530119Y-354191D01*
X530440Y-354833D01*
X530761Y-355796D01*
Y-357400D01*
X530440Y-358363D01*
X530119Y-359005D01*
X529478Y-359647D01*
X528515Y-359967D01*
X526269D01*
X534195Y-353229D02*
X533553Y-353550D01*
X532911Y-354191D01*
X532590Y-354833D01*
X532269Y-355796D01*
Y-357400D01*
X532590Y-358363D01*
X532911Y-359005D01*
X533553Y-359647D01*
X534195Y-359967D01*
X535478D01*
X536120Y-359647D01*
X536762Y-359005D01*
X537082Y-358363D01*
X537403Y-357400D01*
Y-355796D01*
X537082Y-354833D01*
X536762Y-354191D01*
X536120Y-353550D01*
X535478Y-353229D01*
X534195D01*
X544270D02*
Y-359967D01*
Y-353229D02*
X548763Y-359967D01*
Y-353229D02*
Y-359967D01*
X552549Y-353229D02*
X551907Y-353550D01*
X551265Y-354191D01*
X550945Y-354833D01*
X550624Y-355796D01*
Y-357400D01*
X550945Y-358363D01*
X551265Y-359005D01*
X551907Y-359647D01*
X552549Y-359967D01*
X553833D01*
X554474Y-359647D01*
X555116Y-359005D01*
X555437Y-358363D01*
X555758Y-357400D01*
Y-355796D01*
X555437Y-354833D01*
X555116Y-354191D01*
X554474Y-353550D01*
X553833Y-353229D01*
X552549D01*
X559576D02*
Y-359967D01*
X557330Y-353229D02*
X561823D01*
X572412Y-354191D02*
X571770Y-353550D01*
X570807Y-353229D01*
X569524D01*
X568561Y-353550D01*
X567919Y-354191D01*
Y-354833D01*
X568240Y-355475D01*
X568561Y-355796D01*
X569203Y-356117D01*
X571128Y-356759D01*
X571770Y-357080D01*
X572091Y-357400D01*
X572412Y-358042D01*
Y-359005D01*
X571770Y-359647D01*
X570807Y-359967D01*
X569524D01*
X568561Y-359647D01*
X567919Y-359005D01*
X578733Y-354833D02*
X578412Y-354191D01*
X577771Y-353550D01*
X577129Y-353229D01*
X575845D01*
X575203Y-353550D01*
X574562Y-354191D01*
X574241Y-354833D01*
X573920Y-355796D01*
Y-357400D01*
X574241Y-358363D01*
X574562Y-359005D01*
X575203Y-359647D01*
X575845Y-359967D01*
X577129D01*
X577771Y-359647D01*
X578412Y-359005D01*
X578733Y-358363D01*
X585760Y-359967D02*
X583193Y-353229D01*
X580626Y-359967D01*
X581589Y-357721D02*
X584798D01*
X587333Y-353229D02*
Y-359967D01*
X591183D01*
X596093Y-353229D02*
X591922D01*
Y-359967D01*
X596093D01*
X591922Y-356438D02*
X594488D01*
X602511Y-353229D02*
Y-359967D01*
Y-353229D02*
X604757D01*
X605720Y-353550D01*
X606361Y-354191D01*
X606682Y-354833D01*
X607003Y-355796D01*
Y-357400D01*
X606682Y-358363D01*
X606361Y-359005D01*
X605720Y-359647D01*
X604757Y-359967D01*
X602511D01*
X608511Y-353229D02*
Y-359967D01*
Y-353229D02*
X611399D01*
X612362Y-353550D01*
X612683Y-353871D01*
X613003Y-354512D01*
Y-355154D01*
X612683Y-355796D01*
X612362Y-356117D01*
X611399Y-356438D01*
X608511D01*
X610757D02*
X613003Y-359967D01*
X619646D02*
X617079Y-353229D01*
X614512Y-359967D01*
X615474Y-357721D02*
X618683D01*
X621218Y-353229D02*
X622823Y-359967D01*
X624427Y-353229D02*
X622823Y-359967D01*
X624427Y-353229D02*
X626031Y-359967D01*
X627636Y-353229D02*
X626031Y-359967D01*
X628983Y-353229D02*
Y-359967D01*
X630395Y-353229D02*
Y-359967D01*
Y-353229D02*
X634888Y-359967D01*
Y-353229D02*
Y-359967D01*
X641562Y-354833D02*
X641241Y-354191D01*
X640599Y-353550D01*
X639958Y-353229D01*
X638674D01*
X638032Y-353550D01*
X637391Y-354191D01*
X637070Y-354833D01*
X636749Y-355796D01*
Y-357400D01*
X637070Y-358363D01*
X637391Y-359005D01*
X638032Y-359647D01*
X638674Y-359967D01*
X639958D01*
X640599Y-359647D01*
X641241Y-359005D01*
X641562Y-358363D01*
Y-357400D01*
X639958D02*
X641562D01*
X531875Y-392126D02*
X529308Y-385387D01*
X526741Y-392126D01*
X527704Y-389880D02*
X530913D01*
X533448Y-388917D02*
X536336D01*
X537298Y-388596D01*
X537619Y-388275D01*
X537940Y-387633D01*
Y-386671D01*
X537619Y-386029D01*
X537298Y-385708D01*
X536336Y-385387D01*
X533448D01*
Y-392126D01*
X539448Y-388917D02*
X542336D01*
X543299Y-388596D01*
X543620Y-388275D01*
X543940Y-387633D01*
Y-386671D01*
X543620Y-386029D01*
X543299Y-385708D01*
X542336Y-385387D01*
X539448D01*
Y-392126D01*
X545449Y-385387D02*
Y-392126D01*
Y-385387D02*
X548337D01*
X549299Y-385708D01*
X549620Y-386029D01*
X549941Y-386671D01*
Y-387313D01*
X549620Y-387954D01*
X549299Y-388275D01*
X548337Y-388596D01*
X545449D01*
X547695D02*
X549941Y-392126D01*
X553374Y-385387D02*
X552733Y-385708D01*
X552091Y-386350D01*
X551770Y-386992D01*
X551449Y-387954D01*
Y-389559D01*
X551770Y-390521D01*
X552091Y-391163D01*
X552733Y-391805D01*
X553374Y-392126D01*
X554658D01*
X555300Y-391805D01*
X555941Y-391163D01*
X556262Y-390521D01*
X556583Y-389559D01*
Y-387954D01*
X556262Y-386992D01*
X555941Y-386350D01*
X555300Y-385708D01*
X554658Y-385387D01*
X553374D01*
X558156D02*
X560723Y-392126D01*
X563290Y-385387D02*
X560723Y-392126D01*
X569290D02*
X566723Y-385387D01*
X564156Y-392126D01*
X565119Y-389880D02*
X568328D01*
X570863Y-385387D02*
Y-392126D01*
X574713D01*
X579944Y-386350D02*
X579302Y-385708D01*
X578339Y-385387D01*
X577056D01*
X576093Y-385708D01*
X575451Y-386350D01*
Y-386992D01*
X575772Y-387633D01*
X576093Y-387954D01*
X576735Y-388275D01*
X578660Y-388917D01*
X579302Y-389238D01*
X579623Y-389559D01*
X579944Y-390200D01*
Y-391163D01*
X579302Y-391805D01*
X578339Y-392126D01*
X577056D01*
X576093Y-391805D01*
X575451Y-391163D01*
X636584Y-385387D02*
Y-392126D01*
Y-385387D02*
X638830D01*
X639792Y-385708D01*
X640434Y-386350D01*
X640755Y-386992D01*
X641076Y-387954D01*
Y-389559D01*
X640755Y-390521D01*
X640434Y-391163D01*
X639792Y-391805D01*
X638830Y-392126D01*
X636584D01*
X647718D02*
X645151Y-385387D01*
X642584Y-392126D01*
X643547Y-389880D02*
X646756D01*
X651537Y-385387D02*
Y-392126D01*
X649291Y-385387D02*
X653783D01*
X658757D02*
X654585D01*
Y-392126D01*
X658757D01*
X654585Y-388596D02*
X657152D01*
D124*
X613525Y-415827D02*
X617054D01*
X615129Y-418394D01*
X616092D01*
X616734Y-418715D01*
X617054Y-419036D01*
X617375Y-419999D01*
Y-420641D01*
X617054Y-421603D01*
X616413Y-422245D01*
X615450Y-422566D01*
X614487D01*
X613525Y-422245D01*
X613204Y-421924D01*
X612883Y-421282D01*
X618884Y-417111D02*
X619525Y-416790D01*
X620488Y-415827D01*
Y-422566D01*
X623825Y-419678D02*
X629601D01*
X631591Y-415827D02*
Y-422566D01*
Y-415827D02*
X634158Y-422566D01*
X636725Y-415827D02*
X634158Y-422566D01*
X636725Y-415827D02*
Y-422566D01*
X643785D02*
X641218Y-415827D01*
X638650Y-422566D01*
X639613Y-420320D02*
X642822D01*
X645357Y-415827D02*
X647924Y-419036D01*
Y-422566D01*
X650491Y-415827D02*
X647924Y-419036D01*
X651358Y-419678D02*
X657134D01*
X659444Y-417432D02*
Y-417111D01*
X659765Y-416469D01*
X660086Y-416148D01*
X660728Y-415827D01*
X662011D01*
X662653Y-416148D01*
X662974Y-416469D01*
X663295Y-417111D01*
Y-417753D01*
X662974Y-418394D01*
X662332Y-419357D01*
X659123Y-422566D01*
X663616D01*
X667049Y-415827D02*
X666087Y-416148D01*
X665445Y-417111D01*
X665124Y-418715D01*
Y-419678D01*
X665445Y-421282D01*
X666087Y-422245D01*
X667049Y-422566D01*
X667691D01*
X668654Y-422245D01*
X669296Y-421282D01*
X669616Y-419678D01*
Y-418715D01*
X669296Y-417111D01*
X668654Y-416148D01*
X667691Y-415827D01*
X667049D01*
X671125Y-417111D02*
X671766Y-416790D01*
X672729Y-415827D01*
Y-422566D01*
X680238Y-418073D02*
X679917Y-419036D01*
X679275Y-419678D01*
X678313Y-419999D01*
X677992D01*
X677029Y-419678D01*
X676387Y-419036D01*
X676066Y-418073D01*
Y-417753D01*
X676387Y-416790D01*
X677029Y-416148D01*
X677992Y-415827D01*
X678313D01*
X679275Y-416148D01*
X679917Y-416790D01*
X680238Y-418073D01*
Y-419678D01*
X679917Y-421282D01*
X679275Y-422245D01*
X678313Y-422566D01*
X677671D01*
X676708Y-422245D01*
X676387Y-421603D01*
D125*
X507765Y-318073D02*
Y-332369D01*
Y-318073D02*
X513211Y-332369D01*
X518657Y-318073D02*
X513211Y-332369D01*
X518657Y-318073D02*
Y-332369D01*
X531592Y-318073D02*
X522742D01*
Y-332369D01*
X531592D01*
X522742Y-324881D02*
X528188D01*
X538740Y-318073D02*
Y-332369D01*
X533974Y-318073D02*
X543505D01*
X545207D02*
Y-332369D01*
Y-318073D02*
X551334D01*
X553376Y-318754D01*
X554057Y-319434D01*
X554738Y-320796D01*
Y-322158D01*
X554057Y-323519D01*
X553376Y-324200D01*
X551334Y-324881D01*
X545207D01*
X549972D02*
X554738Y-332369D01*
X557937Y-318073D02*
Y-332369D01*
X571144Y-321477D02*
X570464Y-320115D01*
X569102Y-318754D01*
X567740Y-318073D01*
X565017D01*
X563656Y-318754D01*
X562294Y-320115D01*
X561614Y-321477D01*
X560933Y-323519D01*
Y-326923D01*
X561614Y-328965D01*
X562294Y-330327D01*
X563656Y-331688D01*
X565017Y-332369D01*
X567740D01*
X569102Y-331688D01*
X570464Y-330327D01*
X571144Y-328965D01*
X586393Y-319434D02*
Y-333050D01*
X587074Y-319434D02*
Y-333050D01*
X586393Y-319434D02*
X589797D01*
X586393Y-333050D02*
X589797D01*
X602868Y-318073D02*
Y-332369D01*
X605864Y-318073D02*
Y-332369D01*
Y-318073D02*
X615394Y-332369D01*
Y-318073D02*
Y-332369D01*
X629554Y-321477D02*
X628873Y-320115D01*
X627512Y-318754D01*
X626151Y-318073D01*
X623427D01*
X622066Y-318754D01*
X620704Y-320115D01*
X620023Y-321477D01*
X619343Y-323519D01*
Y-326923D01*
X620023Y-328965D01*
X620704Y-330327D01*
X622066Y-331688D01*
X623427Y-332369D01*
X626151D01*
X627512Y-331688D01*
X628873Y-330327D01*
X629554Y-328965D01*
X633571Y-318073D02*
Y-332369D01*
X643102Y-318073D02*
Y-332369D01*
X633571Y-324881D02*
X643102D01*
X661006Y-319434D02*
Y-333050D01*
X661687Y-319434D02*
Y-333050D01*
X658283Y-319434D02*
X661687D01*
X658283Y-333050D02*
X661687D01*
M02*
