G04*
G04 #@! TF.GenerationSoftware,Altium Limited,Altium Designer,20.1.11 (218)*
G04*
G04 Layer_Physical_Order=5*
G04 Layer_Color=16737945*
%FSLAX25Y25*%
%MOIN*%
G70*
G04*
G04 #@! TF.SameCoordinates,49FD3369-56E0-4B66-BF1D-E122077B7428*
G04*
G04*
G04 #@! TF.FilePolarity,Positive*
G04*
G01*
G75*
%ADD10C,0.00984*%
%ADD96C,0.01772*%
G36*
X83043Y80296D02*
X82646Y80031D01*
X82538Y79870D01*
X81972Y79818D01*
X81513Y80124D01*
X80972Y80232D01*
X80432Y80124D01*
X79973Y79818D01*
X79667Y79360D01*
X79559Y78819D01*
X79667Y78278D01*
X79973Y77820D01*
X80432Y77513D01*
X80972Y77406D01*
X81513Y77513D01*
X81972Y77820D01*
X82538Y77768D01*
X82646Y77607D01*
X83043Y77342D01*
Y70296D01*
X82646Y70031D01*
X82538Y69870D01*
X81972Y69818D01*
X81513Y70124D01*
X80972Y70232D01*
X80432Y70124D01*
X79973Y69818D01*
X79667Y69359D01*
X79559Y68819D01*
X79667Y68278D01*
X79973Y67820D01*
X80432Y67513D01*
X80972Y67406D01*
X81513Y67513D01*
X81972Y67820D01*
X82538Y67768D01*
X82646Y67607D01*
X83043Y67342D01*
Y65296D01*
X82646Y65031D01*
X82538Y64869D01*
X81972Y64818D01*
X81513Y65124D01*
X80972Y65232D01*
X80432Y65124D01*
X79973Y64818D01*
X79667Y64359D01*
X79559Y63819D01*
X79667Y63278D01*
X79973Y62820D01*
X80432Y62513D01*
X80972Y62406D01*
X81513Y62513D01*
X81972Y62820D01*
X82538Y62768D01*
X82646Y62607D01*
X83043Y62342D01*
Y60296D01*
X82646Y60031D01*
X82538Y59869D01*
X81972Y59818D01*
X81513Y60124D01*
X80972Y60232D01*
X80432Y60124D01*
X79973Y59818D01*
X79667Y59360D01*
X79559Y58819D01*
X79667Y58278D01*
X79973Y57820D01*
X80432Y57513D01*
X80972Y57406D01*
X81513Y57513D01*
X81972Y57820D01*
X82538Y57768D01*
X82646Y57607D01*
X83043Y57342D01*
Y55296D01*
X82646Y55031D01*
X82538Y54870D01*
X81972Y54818D01*
X81513Y55124D01*
X80972Y55232D01*
X80432Y55124D01*
X79973Y54818D01*
X79667Y54360D01*
X79559Y53819D01*
X79667Y53278D01*
X79973Y52820D01*
X80432Y52513D01*
X80972Y52406D01*
X81513Y52513D01*
X81972Y52820D01*
X82538Y52768D01*
X82646Y52607D01*
X83043Y52342D01*
Y50296D01*
X82646Y50031D01*
X82538Y49869D01*
X81972Y49818D01*
X81513Y50124D01*
X80972Y50232D01*
X80432Y50124D01*
X79973Y49818D01*
X79667Y49360D01*
X79559Y48819D01*
X79667Y48278D01*
X79973Y47820D01*
X80432Y47513D01*
X80972Y47406D01*
X81513Y47513D01*
X81972Y47820D01*
X82538Y47768D01*
X82646Y47607D01*
X83043Y47342D01*
Y45296D01*
X82646Y45031D01*
X82538Y44870D01*
X81972Y44818D01*
X81513Y45124D01*
X80972Y45232D01*
X80432Y45124D01*
X79973Y44818D01*
X79667Y44359D01*
X79559Y43819D01*
X79088Y43727D01*
X78782Y44185D01*
X78323Y44491D01*
X77782Y44599D01*
X77242Y44491D01*
X76783Y44185D01*
X76477Y43727D01*
X76370Y43186D01*
X76477Y42645D01*
X76783Y42187D01*
X77242Y41880D01*
X77782Y41773D01*
X78323Y41880D01*
X78782Y42187D01*
X79088Y42645D01*
X79195Y43186D01*
X79667Y43278D01*
X79973Y42820D01*
X80432Y42513D01*
X80972Y42406D01*
X81513Y42513D01*
X81972Y42820D01*
X82538Y42768D01*
X82646Y42607D01*
X83043Y42342D01*
Y40296D01*
X82646Y40031D01*
X82538Y39869D01*
X81972Y39818D01*
X81513Y40124D01*
X80972Y40232D01*
X80432Y40124D01*
X79973Y39818D01*
X79667Y39360D01*
X79559Y38819D01*
X79667Y38278D01*
X79973Y37820D01*
X80432Y37513D01*
X80972Y37406D01*
X81513Y37513D01*
X81972Y37820D01*
X82538Y37768D01*
X82646Y37607D01*
X83043Y37342D01*
Y35296D01*
X82646Y35031D01*
X82538Y34870D01*
X81972Y34818D01*
X81513Y35124D01*
X80972Y35232D01*
X80432Y35124D01*
X79973Y34818D01*
X79667Y34359D01*
X79559Y33819D01*
X79667Y33278D01*
X79973Y32820D01*
X80432Y32513D01*
X80972Y32406D01*
X81513Y32513D01*
X81972Y32820D01*
X82538Y32768D01*
X82646Y32607D01*
X83043Y32342D01*
Y30296D01*
X82646Y30031D01*
X82538Y29869D01*
X81972Y29818D01*
X81513Y30124D01*
X80972Y30232D01*
X80432Y30124D01*
X79973Y29818D01*
X79667Y29359D01*
X79559Y28819D01*
X79667Y28278D01*
X79973Y27820D01*
X80432Y27513D01*
X80972Y27406D01*
X81513Y27513D01*
X81972Y27820D01*
X82538Y27768D01*
X82646Y27607D01*
X83043Y27342D01*
Y25296D01*
X82646Y25031D01*
X82538Y24870D01*
X81972Y24818D01*
X81513Y25124D01*
X80972Y25232D01*
X80432Y25124D01*
X79973Y24818D01*
X79667Y24360D01*
X79559Y23819D01*
X79667Y23278D01*
X79973Y22820D01*
X80432Y22513D01*
X80972Y22406D01*
X81513Y22513D01*
X81972Y22820D01*
X82538Y22768D01*
X82646Y22607D01*
X83043Y22342D01*
Y20296D01*
X82646Y20031D01*
X82538Y19870D01*
X81972Y19818D01*
X81513Y20124D01*
X80972Y20232D01*
X80432Y20124D01*
X79973Y19818D01*
X79667Y19360D01*
X79646Y19251D01*
X79131Y19226D01*
X78966Y19771D01*
X78153Y21291D01*
X77060Y22623D01*
X75727Y23716D01*
X74207Y24529D01*
X72558Y25029D01*
X70842Y25198D01*
X69127Y25029D01*
X67478Y24529D01*
X65958Y23716D01*
X64625Y22623D01*
X63532Y21291D01*
X62719Y19771D01*
X62219Y18121D01*
X62050Y16406D01*
X62219Y14691D01*
X62719Y13041D01*
X63532Y11521D01*
X64625Y10189D01*
X65958Y9095D01*
X67478Y8283D01*
X69127Y7782D01*
X70842Y7614D01*
X72558Y7782D01*
X74207Y8283D01*
X75727Y9095D01*
X77060Y10189D01*
X78153Y11521D01*
X78966Y13041D01*
X79110Y13517D01*
X79625Y13491D01*
X79667Y13278D01*
X79973Y12820D01*
X80432Y12513D01*
X80972Y12406D01*
X81513Y12513D01*
X81972Y12820D01*
X82538Y12768D01*
X82646Y12607D01*
X83043Y12342D01*
Y10296D01*
X82646Y10031D01*
X82538Y9870D01*
X81972Y9818D01*
X81513Y10124D01*
X80972Y10232D01*
X80432Y10124D01*
X79973Y9818D01*
X79667Y9359D01*
X79559Y8819D01*
X79667Y8278D01*
X79973Y7820D01*
X80432Y7513D01*
X80972Y7406D01*
X81513Y7513D01*
X81972Y7820D01*
X82538Y7768D01*
X82646Y7607D01*
X83043Y7342D01*
Y816D01*
X816D01*
Y7342D01*
X1212Y7607D01*
X1355Y7820D01*
X1956D01*
X1956Y7820D01*
X2415Y7513D01*
X2955Y7406D01*
X3496Y7513D01*
X3955Y7820D01*
X4261Y8278D01*
X4368Y8819D01*
X4261Y9359D01*
X3955Y9818D01*
X3496Y10124D01*
X2955Y10232D01*
X2415Y10124D01*
X1956Y9818D01*
X1956Y9817D01*
X1355D01*
X1212Y10031D01*
X816Y10296D01*
Y12342D01*
X1212Y12607D01*
X1355Y12820D01*
X1956D01*
X1956Y12820D01*
X2415Y12513D01*
X2955Y12406D01*
X3496Y12513D01*
X3955Y12820D01*
X4261Y13278D01*
X4368Y13819D01*
X4261Y14359D01*
X3955Y14818D01*
X3496Y15124D01*
X2955Y15232D01*
X2415Y15124D01*
X1956Y14818D01*
X1956Y14818D01*
X1355D01*
X1212Y15031D01*
X816Y15296D01*
Y17342D01*
X1212Y17607D01*
X1355Y17820D01*
X1956D01*
X1956Y17820D01*
X2415Y17513D01*
X2955Y17406D01*
X3496Y17513D01*
X3955Y17820D01*
X4261Y18278D01*
X4368Y18819D01*
X4261Y19360D01*
X3955Y19818D01*
X3496Y20124D01*
X2955Y20232D01*
X2415Y20124D01*
X1956Y19818D01*
X1956Y19817D01*
X1355D01*
X1212Y20031D01*
X816Y20296D01*
Y22342D01*
X1212Y22607D01*
X1355Y22820D01*
X1956D01*
X1956Y22820D01*
X2415Y22513D01*
X2955Y22406D01*
X3496Y22513D01*
X3955Y22820D01*
X4261Y23278D01*
X4368Y23819D01*
X4261Y24360D01*
X3955Y24818D01*
X3496Y25124D01*
X2955Y25232D01*
X2415Y25124D01*
X1956Y24818D01*
X1956Y24817D01*
X1355D01*
X1212Y25031D01*
X816Y25296D01*
Y27342D01*
X1212Y27607D01*
X1355Y27820D01*
X1956D01*
X1956Y27820D01*
X2415Y27513D01*
X2955Y27406D01*
X3496Y27513D01*
X3955Y27820D01*
X4261Y28278D01*
X4368Y28819D01*
X4261Y29359D01*
X3955Y29818D01*
X3496Y30124D01*
X2955Y30232D01*
X2415Y30124D01*
X1956Y29818D01*
X1956Y29818D01*
X1355D01*
X1212Y30031D01*
X816Y30296D01*
Y32342D01*
X1212Y32607D01*
X1355Y32820D01*
X1956D01*
X1956Y32820D01*
X2415Y32513D01*
X2955Y32406D01*
X3496Y32513D01*
X3955Y32820D01*
X4261Y33278D01*
X4368Y33819D01*
X4261Y34359D01*
X3955Y34818D01*
X3496Y35124D01*
X2955Y35232D01*
X2415Y35124D01*
X1956Y34818D01*
X1956Y34817D01*
X1355D01*
X1212Y35031D01*
X1129Y35087D01*
X1088Y35396D01*
X1502Y35853D01*
X9564Y35853D01*
X9882Y35467D01*
X9879Y35456D01*
X9987Y34915D01*
X10293Y34457D01*
X10752Y34150D01*
X11292Y34043D01*
X11833Y34150D01*
X12292Y34457D01*
X12598Y34915D01*
X12705Y35456D01*
X12703Y35467D01*
X13020Y35853D01*
X13624D01*
X13942Y35467D01*
X13929Y35406D01*
X14037Y34865D01*
X14343Y34407D01*
X14802Y34100D01*
X15342Y33993D01*
X15883Y34100D01*
X16342Y34407D01*
X16475Y34607D01*
X17070Y34617D01*
X17143Y34507D01*
X17602Y34200D01*
X18142Y34093D01*
X18683Y34200D01*
X19142Y34507D01*
X19448Y34965D01*
X19555Y35506D01*
X19841Y35853D01*
X27656D01*
X30300Y33209D01*
X30300Y8481D01*
X30377Y8090D01*
X30473Y7948D01*
X30101Y7699D01*
X29795Y7241D01*
X29687Y6700D01*
X29795Y6159D01*
X30101Y5701D01*
X30559Y5395D01*
X31100Y5287D01*
X31282Y5323D01*
X31583Y4873D01*
X31495Y4741D01*
X31387Y4200D01*
X31495Y3659D01*
X31801Y3201D01*
X32259Y2895D01*
X32800Y2787D01*
X33341Y2895D01*
X33799Y3201D01*
X34105Y3659D01*
X34213Y4200D01*
X34105Y4741D01*
X33799Y5199D01*
X33770Y5218D01*
X33922Y5718D01*
X37238Y5718D01*
X37628Y5796D01*
X37959Y6017D01*
X39721Y7779D01*
X39942Y8110D01*
X40020Y8500D01*
Y9547D01*
X40520Y9861D01*
X40862Y9793D01*
X41403Y9900D01*
X41861Y10207D01*
X42243D01*
X42702Y9900D01*
X43242Y9793D01*
X43783Y9900D01*
X44242Y10207D01*
X44548Y10665D01*
X44655Y11206D01*
X44548Y11746D01*
X44242Y12205D01*
X43783Y12511D01*
X43242Y12619D01*
X42702Y12511D01*
X42243Y12205D01*
X41861D01*
X41403Y12511D01*
X40862Y12619D01*
X40520Y12551D01*
X40020Y12865D01*
X40020Y22097D01*
X40157Y22210D01*
X40698Y22317D01*
X41157Y22624D01*
X41463Y23082D01*
X41570Y23623D01*
X41463Y24163D01*
X41157Y24622D01*
X40698Y24928D01*
X40157Y25036D01*
X40020Y25149D01*
Y26034D01*
X40157Y26147D01*
X40698Y26254D01*
X41157Y26561D01*
X41463Y27019D01*
X41570Y27560D01*
X41463Y28100D01*
X41157Y28559D01*
X40698Y28865D01*
X40157Y28973D01*
X40020Y29086D01*
Y29971D01*
X40157Y30084D01*
X40698Y30191D01*
X41157Y30498D01*
X41463Y30956D01*
X41570Y31497D01*
X41463Y32037D01*
X41157Y32496D01*
X40698Y32802D01*
X40157Y32910D01*
X40020Y33023D01*
X40020Y33971D01*
X40157Y34084D01*
X40698Y34191D01*
X41157Y34498D01*
X41463Y34956D01*
X41570Y35497D01*
X41463Y36037D01*
X41157Y36496D01*
X40720Y36788D01*
X40696Y36809D01*
X40563Y37339D01*
X46001Y42776D01*
X46087Y42905D01*
X46650Y42945D01*
X46665Y42939D01*
X46770Y42783D01*
X47229Y42476D01*
X47769Y42369D01*
X48310Y42476D01*
X48768Y42783D01*
X49075Y43241D01*
X49085Y43291D01*
X49112Y43315D01*
X49632Y43481D01*
X49902Y43300D01*
X50442Y43193D01*
X50983Y43300D01*
X51442Y43607D01*
X51748Y44065D01*
X51855Y44606D01*
X51748Y45147D01*
X51442Y45605D01*
X50983Y45911D01*
X50442Y46019D01*
X49902Y45911D01*
X49443Y45605D01*
X49137Y45147D01*
X49127Y45097D01*
X49100Y45073D01*
X48580Y44907D01*
X48310Y45087D01*
X47769Y45195D01*
X47229Y45087D01*
X46799Y44800D01*
X46641Y44834D01*
X46299Y44976D01*
Y53437D01*
X46429Y53631D01*
X46788Y53671D01*
X47215Y53426D01*
X47323Y52885D01*
X47629Y52427D01*
X48088Y52120D01*
X48628Y52013D01*
X49169Y52120D01*
X49628Y52427D01*
X49934Y52885D01*
X50041Y53426D01*
X49934Y53966D01*
X49628Y54425D01*
X49400Y54577D01*
X49424Y54886D01*
X49483Y55123D01*
X49899Y55401D01*
X50205Y55859D01*
X50313Y56400D01*
X50205Y56941D01*
X49899Y57399D01*
X49441Y57705D01*
X48900Y57813D01*
X48359Y57705D01*
X47901Y57399D01*
X47595Y56941D01*
X47588Y56908D01*
X47141Y56605D01*
X47060Y56621D01*
X46600Y56713D01*
X46059Y56605D01*
X45601Y56299D01*
X45380Y55969D01*
X44820Y55822D01*
X44550Y56092D01*
X44550Y56092D01*
X44219Y56313D01*
X43829Y56391D01*
X39971Y56391D01*
X39581Y56313D01*
X39250Y56092D01*
X37876Y54718D01*
X37655Y54387D01*
X37578Y53997D01*
X37578Y48420D01*
X35930Y46772D01*
X31034Y46772D01*
X30941Y47239D01*
X30634Y47698D01*
X30176Y48004D01*
X29635Y48112D01*
X29094Y48004D01*
X28636Y47698D01*
X28330Y47239D01*
X28237Y46772D01*
X15188Y46772D01*
X11152Y50809D01*
X11262Y51405D01*
X11499Y51564D01*
X11805Y52022D01*
X11913Y52563D01*
X11805Y53104D01*
X11499Y53562D01*
X11041Y53868D01*
X10500Y53976D01*
X9959Y53868D01*
X9501Y53562D01*
X9387Y53391D01*
X8869Y53313D01*
X8520Y53619D01*
Y67591D01*
X8906Y67909D01*
X9055Y67879D01*
X9596Y67986D01*
X10055Y68293D01*
X10361Y68751D01*
X10468Y69292D01*
X10361Y69832D01*
X10055Y70291D01*
X9596Y70597D01*
X9055Y70705D01*
X8906Y70675D01*
X8520Y70992D01*
Y76646D01*
X8906Y76964D01*
X9055Y76934D01*
X9596Y77041D01*
X10055Y77348D01*
X10361Y77806D01*
X10468Y78347D01*
X10361Y78887D01*
X10055Y79346D01*
X9596Y79652D01*
X9055Y79760D01*
X8906Y79730D01*
X8520Y80047D01*
Y81398D01*
X9020Y81722D01*
X9342Y81658D01*
X9883Y81765D01*
X10342Y82072D01*
X10648Y82530D01*
X10755Y83071D01*
X10648Y83612D01*
X10342Y84070D01*
X9883Y84376D01*
X9342Y84484D01*
X9020Y84420D01*
X8520Y84743D01*
Y92622D01*
X8442Y93012D01*
X8221Y93343D01*
X6053Y95511D01*
X5722Y95732D01*
X5332Y95810D01*
X816Y95810D01*
Y122413D01*
X83043D01*
Y80296D01*
D02*
G37*
G36*
X5332Y94790D02*
X7500Y92622D01*
Y53018D01*
X14766Y45752D01*
X28601Y45752D01*
X28636Y45700D01*
X29094Y45393D01*
X29635Y45286D01*
X30176Y45393D01*
X30634Y45700D01*
X30670Y45752D01*
X36352Y45752D01*
X38597Y47997D01*
X38597Y53997D01*
X39971Y55371D01*
X43829Y55371D01*
X45280Y53920D01*
Y43497D01*
X39000Y37218D01*
Y36259D01*
X38852Y36037D01*
X38745Y35497D01*
X38852Y34956D01*
X39000Y34735D01*
X39000Y32259D01*
X38852Y32037D01*
X38745Y31497D01*
X38852Y30956D01*
X39000Y30735D01*
Y28322D01*
X38852Y28100D01*
X38745Y27560D01*
X38852Y27019D01*
X39000Y26798D01*
Y24385D01*
X38852Y24163D01*
X38745Y23623D01*
X38852Y23082D01*
X39000Y22861D01*
X39000Y8500D01*
X37238Y6738D01*
X33062Y6738D01*
X31319Y8481D01*
X31319Y33834D01*
X31117D01*
X28078Y36873D01*
X18373D01*
X18142Y36919D01*
X17911Y36873D01*
X1192Y36873D01*
X1118Y36953D01*
X1190Y37592D01*
X1212Y37607D01*
X1355Y37820D01*
X1956D01*
X1956Y37820D01*
X2415Y37513D01*
X2955Y37406D01*
X3496Y37513D01*
X3955Y37820D01*
X4261Y38278D01*
X4368Y38819D01*
X4261Y39360D01*
X3955Y39818D01*
X3496Y40124D01*
X2955Y40232D01*
X2415Y40124D01*
X1956Y39818D01*
X1956Y39818D01*
X1355D01*
X1212Y40031D01*
X816Y40296D01*
Y42342D01*
X1212Y42607D01*
X1355Y42820D01*
X1956D01*
X1956Y42820D01*
X2415Y42513D01*
X2955Y42406D01*
X3496Y42513D01*
X3955Y42820D01*
X4261Y43278D01*
X4368Y43819D01*
X4261Y44359D01*
X3955Y44818D01*
X3496Y45124D01*
X2955Y45232D01*
X2415Y45124D01*
X1956Y44818D01*
X1956Y44818D01*
X1355D01*
X1212Y45031D01*
X816Y45296D01*
Y47342D01*
X1212Y47607D01*
X1355Y47820D01*
X1956D01*
X1956Y47820D01*
X2415Y47513D01*
X2955Y47406D01*
X3496Y47513D01*
X3955Y47820D01*
X4261Y48278D01*
X4368Y48819D01*
X4261Y49360D01*
X3955Y49818D01*
X3496Y50124D01*
X2955Y50232D01*
X2415Y50124D01*
X1956Y49818D01*
X1956Y49817D01*
X1355D01*
X1212Y50031D01*
X816Y50296D01*
Y52342D01*
X1212Y52607D01*
X1355Y52820D01*
X1956D01*
X1956Y52820D01*
X2415Y52513D01*
X2955Y52406D01*
X3496Y52513D01*
X3955Y52820D01*
X4261Y53278D01*
X4368Y53819D01*
X4261Y54360D01*
X3955Y54818D01*
X3496Y55124D01*
X2955Y55232D01*
X2415Y55124D01*
X1956Y54818D01*
X1956Y54817D01*
X1355D01*
X1212Y55031D01*
X816Y55296D01*
Y57342D01*
X1212Y57607D01*
X1355Y57820D01*
X1956D01*
X1956Y57820D01*
X2415Y57513D01*
X2955Y57406D01*
X3496Y57513D01*
X3955Y57820D01*
X4261Y58278D01*
X4368Y58819D01*
X4261Y59360D01*
X3955Y59818D01*
X3496Y60124D01*
X2955Y60232D01*
X2415Y60124D01*
X1956Y59818D01*
X1956Y59817D01*
X1355D01*
X1212Y60031D01*
X816Y60296D01*
Y62342D01*
X1212Y62607D01*
X1355Y62820D01*
X1956D01*
X1956Y62820D01*
X2415Y62513D01*
X2955Y62406D01*
X3496Y62513D01*
X3955Y62820D01*
X4261Y63278D01*
X4368Y63819D01*
X4261Y64359D01*
X3955Y64818D01*
X3496Y65124D01*
X2955Y65232D01*
X2415Y65124D01*
X1956Y64818D01*
X1956Y64818D01*
X1355D01*
X1212Y65031D01*
X816Y65296D01*
Y67342D01*
X1212Y67607D01*
X1355Y67820D01*
X1956D01*
X1956Y67820D01*
X2415Y67513D01*
X2955Y67406D01*
X3496Y67513D01*
X3955Y67820D01*
X4261Y68278D01*
X4368Y68819D01*
X4261Y69359D01*
X3955Y69818D01*
X3496Y70124D01*
X2955Y70232D01*
X2415Y70124D01*
X1956Y69818D01*
X1956Y69818D01*
X1355D01*
X1212Y70031D01*
X816Y70296D01*
Y77342D01*
X1212Y77607D01*
X1355Y77820D01*
X1956D01*
X1956Y77820D01*
X2415Y77513D01*
X2955Y77406D01*
X3496Y77513D01*
X3955Y77820D01*
X4261Y78278D01*
X4368Y78819D01*
X4261Y79360D01*
X3955Y79818D01*
X3496Y80124D01*
X2955Y80232D01*
X2415Y80124D01*
X1956Y79818D01*
X1956Y79817D01*
X1355D01*
X1212Y80031D01*
X816Y80296D01*
Y94790D01*
X5332Y94790D01*
D02*
G37*
%LPC*%
G36*
X15157Y118819D02*
X14617Y118711D01*
X14158Y118405D01*
X13852Y117947D01*
X13745Y117406D01*
X13852Y116865D01*
X14158Y116407D01*
X14617Y116100D01*
X15157Y115993D01*
X15698Y116100D01*
X16157Y116407D01*
X16463Y116865D01*
X16570Y117406D01*
X16463Y117947D01*
X16157Y118405D01*
X15698Y118711D01*
X15157Y118819D01*
D02*
G37*
G36*
X48628Y115262D02*
X48088Y115155D01*
X47629Y114848D01*
X47323Y114390D01*
X46749Y114068D01*
X46576Y114102D01*
X46035Y113995D01*
X45577Y113688D01*
X45564Y113669D01*
X45313Y113482D01*
X44854Y113788D01*
X44313Y113896D01*
X43773Y113788D01*
X43314Y113482D01*
X43008Y113024D01*
X42900Y112483D01*
X43008Y111942D01*
X43314Y111484D01*
X43773Y111178D01*
X44313Y111070D01*
X44854Y111178D01*
X45313Y111484D01*
X45804Y111538D01*
X46035Y111384D01*
X46576Y111276D01*
X47117Y111384D01*
X47575Y111690D01*
X47881Y112148D01*
X48455Y112471D01*
X48628Y112436D01*
X49169Y112544D01*
X49609Y112838D01*
X49901Y112401D01*
X50359Y112095D01*
X50900Y111987D01*
X51129Y112033D01*
X51449Y112080D01*
X51673Y111670D01*
X51695Y111559D01*
X52001Y111101D01*
X52459Y110795D01*
X53000Y110687D01*
X53541Y110795D01*
X53999Y111101D01*
X54305Y111559D01*
X54413Y112100D01*
X54305Y112641D01*
X53999Y113099D01*
X53541Y113405D01*
X53000Y113513D01*
X52771Y113467D01*
X52451Y113420D01*
X52227Y113830D01*
X52205Y113941D01*
X51899Y114399D01*
X51441Y114705D01*
X50900Y114813D01*
X50359Y114705D01*
X49919Y114411D01*
X49628Y114848D01*
X49169Y115155D01*
X48628Y115262D01*
D02*
G37*
G36*
X39370Y113819D02*
X38830Y113711D01*
X38371Y113405D01*
X38065Y112946D01*
X38050Y112873D01*
X37541D01*
X37526Y112946D01*
X37220Y113405D01*
X36761Y113711D01*
X36220Y113819D01*
X35680Y113711D01*
X35221Y113405D01*
X34915Y112946D01*
X34808Y112406D01*
X34915Y111865D01*
X35221Y111407D01*
X35680Y111100D01*
X36220Y110993D01*
X36761Y111100D01*
X37220Y111407D01*
X37526Y111865D01*
X37541Y111939D01*
X38050D01*
X38065Y111865D01*
X38371Y111407D01*
X38830Y111100D01*
X39370Y110993D01*
X39911Y111100D01*
X40370Y111407D01*
X40676Y111865D01*
X40783Y112406D01*
X40676Y112946D01*
X40370Y113405D01*
X39911Y113711D01*
X39370Y113819D01*
D02*
G37*
G36*
X12450Y111711D02*
X11910Y111603D01*
X11451Y111297D01*
X11145Y110839D01*
X11098Y110604D01*
X11009Y110573D01*
X10578Y110551D01*
X10342Y110905D01*
X9883Y111211D01*
X9342Y111319D01*
X8802Y111211D01*
X8343Y110905D01*
X8037Y110447D01*
X7930Y109906D01*
X8037Y109365D01*
X8343Y108907D01*
X8802Y108600D01*
X9342Y108493D01*
X9883Y108600D01*
X10342Y108907D01*
X10648Y109365D01*
X10695Y109600D01*
X10783Y109631D01*
X11215Y109652D01*
X11451Y109299D01*
X11910Y108993D01*
X12450Y108885D01*
X12991Y108993D01*
X13449Y109299D01*
X13756Y109757D01*
X13863Y110298D01*
X13756Y110839D01*
X13449Y111297D01*
X12991Y111603D01*
X12450Y111711D01*
D02*
G37*
G36*
X64828Y111713D02*
X64287Y111605D01*
X63829Y111299D01*
X63522Y110841D01*
X63415Y110300D01*
X63522Y109759D01*
X63829Y109301D01*
X64287Y108995D01*
X64828Y108887D01*
X65369Y108995D01*
X65827Y109301D01*
X66133Y109759D01*
X66241Y110300D01*
X66133Y110841D01*
X65827Y111299D01*
X65369Y111605D01*
X64828Y111713D01*
D02*
G37*
G36*
X18342Y110819D02*
X17802Y110711D01*
X17343Y110405D01*
X17037Y109947D01*
X16929Y109406D01*
X17037Y108865D01*
X17343Y108407D01*
X17802Y108100D01*
X18342Y107993D01*
X18883Y108100D01*
X19342Y108407D01*
X19648Y108865D01*
X19755Y109406D01*
X19648Y109947D01*
X19342Y110405D01*
X18883Y110711D01*
X18342Y110819D01*
D02*
G37*
G36*
X33842Y109419D02*
X33302Y109311D01*
X32843Y109005D01*
X32537Y108546D01*
X32430Y108006D01*
X32537Y107465D01*
X32843Y107007D01*
X33302Y106700D01*
X33842Y106593D01*
X34383Y106700D01*
X34657Y106884D01*
X35158Y106903D01*
X35335Y106845D01*
X35702Y106600D01*
X36242Y106493D01*
X36783Y106600D01*
X37242Y106907D01*
X37548Y107365D01*
X37655Y107906D01*
X37548Y108447D01*
X37242Y108905D01*
X36783Y109211D01*
X36242Y109319D01*
X35702Y109211D01*
X35427Y109028D01*
X34927Y109008D01*
X34750Y109066D01*
X34383Y109311D01*
X33842Y109419D01*
D02*
G37*
G36*
X27342Y107819D02*
X26802Y107711D01*
X26343Y107405D01*
X26037Y106947D01*
X25929Y106406D01*
X26037Y105865D01*
X26343Y105407D01*
X26802Y105100D01*
X27342Y104993D01*
X27883Y105100D01*
X28342Y105407D01*
X28648Y105865D01*
X28755Y106406D01*
X28648Y106947D01*
X28342Y107405D01*
X27883Y107711D01*
X27342Y107819D01*
D02*
G37*
G36*
X78342Y109320D02*
X77802Y109212D01*
X77343Y108906D01*
X77037Y108448D01*
X76929Y107907D01*
X77037Y107366D01*
X77343Y106908D01*
X77802Y106601D01*
X78342Y106494D01*
X78883Y106601D01*
X78951Y106647D01*
X79311Y106286D01*
X79266Y106219D01*
X79159Y105678D01*
X79266Y105137D01*
X79572Y104679D01*
X80031Y104372D01*
X80571Y104265D01*
X81112Y104372D01*
X81571Y104679D01*
X81877Y105137D01*
X81984Y105678D01*
X81877Y106219D01*
X81571Y106677D01*
X81112Y106983D01*
X80571Y107091D01*
X80031Y106983D01*
X79963Y106938D01*
X79603Y107299D01*
X79648Y107366D01*
X79755Y107907D01*
X79648Y108448D01*
X79342Y108906D01*
X78883Y109212D01*
X78342Y109320D01*
D02*
G37*
G36*
X33062Y105159D02*
X32522Y105051D01*
X32063Y104745D01*
X31757Y104287D01*
X31650Y103746D01*
X31757Y103205D01*
X32063Y102747D01*
X32522Y102440D01*
X33062Y102333D01*
X33603Y102440D01*
X34062Y102747D01*
X34368Y103205D01*
X34475Y103746D01*
X34368Y104287D01*
X34062Y104745D01*
X33603Y105051D01*
X33062Y105159D01*
D02*
G37*
G36*
X53042Y104819D02*
X52502Y104711D01*
X52043Y104405D01*
X51737Y103946D01*
X51630Y103406D01*
X51737Y102865D01*
X52043Y102407D01*
X52502Y102100D01*
X53042Y101993D01*
X53583Y102100D01*
X54042Y102407D01*
X54348Y102865D01*
X54455Y103406D01*
X54348Y103946D01*
X54042Y104405D01*
X53583Y104711D01*
X53042Y104819D01*
D02*
G37*
G36*
X37842D02*
X37302Y104711D01*
X36843Y104405D01*
X36537Y103946D01*
X36430Y103406D01*
X36537Y102865D01*
X36843Y102407D01*
X37302Y102100D01*
X37842Y101993D01*
X38383Y102100D01*
X38842Y102407D01*
X39148Y102865D01*
X39255Y103406D01*
X39148Y103946D01*
X38842Y104405D01*
X38383Y104711D01*
X37842Y104819D01*
D02*
G37*
G36*
X45700Y106513D02*
X45159Y106405D01*
X44701Y106099D01*
X44395Y105641D01*
X44287Y105100D01*
X44395Y104559D01*
X44701Y104101D01*
X45159Y103795D01*
X45487Y103729D01*
X45821Y103475D01*
X45962Y103229D01*
X46037Y102852D01*
X46343Y102393D01*
X46802Y102087D01*
X47342Y101979D01*
X47883Y102087D01*
X48144Y102261D01*
X48657Y102393D01*
X49115Y102087D01*
X49656Y101979D01*
X50196Y102087D01*
X50655Y102393D01*
X50961Y102852D01*
X51069Y103393D01*
X50961Y103933D01*
X50655Y104392D01*
X50196Y104698D01*
X49656Y104805D01*
X49115Y104698D01*
X48855Y104524D01*
X48342Y104392D01*
X47883Y104698D01*
X47556Y104763D01*
X47221Y105018D01*
X47080Y105263D01*
X47005Y105641D01*
X46699Y106099D01*
X46241Y106405D01*
X45700Y106513D01*
D02*
G37*
G36*
X41242Y104719D02*
X40702Y104611D01*
X40243Y104305D01*
X39937Y103847D01*
X39829Y103306D01*
X39937Y102765D01*
X40243Y102307D01*
X40702Y102000D01*
X41242Y101893D01*
X41783Y102000D01*
X42242Y102307D01*
X42548Y102765D01*
X42655Y103306D01*
X42548Y103847D01*
X42242Y104305D01*
X41783Y104611D01*
X41242Y104719D01*
D02*
G37*
G36*
X16141Y104563D02*
X15601Y104455D01*
X15142Y104149D01*
X14836Y103691D01*
X14728Y103150D01*
X14836Y102609D01*
X15142Y102151D01*
X15601Y101844D01*
X16141Y101737D01*
X16682Y101844D01*
X17141Y102151D01*
X17447Y102609D01*
X17554Y103150D01*
X17447Y103691D01*
X17141Y104149D01*
X16682Y104455D01*
X16141Y104563D01*
D02*
G37*
G36*
X58342Y102319D02*
X57802Y102211D01*
X57343Y101905D01*
X57037Y101446D01*
X56929Y100906D01*
X57037Y100365D01*
X57343Y99907D01*
X57802Y99600D01*
X58342Y99493D01*
X58883Y99600D01*
X59342Y99907D01*
X59648Y100365D01*
X59755Y100906D01*
X59648Y101446D01*
X59342Y101905D01*
X58883Y102211D01*
X58342Y102319D01*
D02*
G37*
G36*
X3800Y102213D02*
X3259Y102105D01*
X2801Y101799D01*
X2495Y101341D01*
X2387Y100800D01*
X2495Y100259D01*
X2801Y99801D01*
X3259Y99495D01*
X3800Y99387D01*
X4341Y99495D01*
X4799Y99801D01*
X5105Y100259D01*
X5213Y100800D01*
X5105Y101341D01*
X4799Y101799D01*
X4341Y102105D01*
X3800Y102213D01*
D02*
G37*
G36*
X25342Y100759D02*
X24802Y100651D01*
X24343Y100345D01*
X24037Y99887D01*
X23988Y99639D01*
X23831Y99331D01*
X23445Y99276D01*
X23228Y99319D01*
X22688Y99211D01*
X22229Y98905D01*
X22212Y98879D01*
X21825D01*
X21647Y98934D01*
X21241Y99205D01*
X20700Y99313D01*
X20159Y99205D01*
X19701Y98899D01*
X19395Y98441D01*
X19287Y97900D01*
X19395Y97359D01*
X19701Y96901D01*
X20159Y96595D01*
X20700Y96487D01*
X21241Y96595D01*
X21699Y96901D01*
X21716Y96926D01*
X22103D01*
X22281Y96872D01*
X22688Y96600D01*
X23228Y96493D01*
X23769Y96600D01*
X24228Y96907D01*
X24534Y97365D01*
X24583Y97613D01*
X24740Y97920D01*
X25126Y97976D01*
X25342Y97933D01*
X25883Y98040D01*
X26342Y98347D01*
X26648Y98805D01*
X26755Y99346D01*
X26648Y99887D01*
X26342Y100345D01*
X25883Y100651D01*
X25342Y100759D01*
D02*
G37*
G36*
X48642Y99309D02*
X48102Y99201D01*
X47870Y99046D01*
X47506Y98936D01*
X47143Y99046D01*
X46911Y99201D01*
X46370Y99309D01*
X45830Y99201D01*
X45371Y98895D01*
X45065Y98436D01*
X44958Y97896D01*
X45065Y97355D01*
X45371Y96897D01*
X45830Y96590D01*
X46370Y96483D01*
X46911Y96590D01*
X47143Y96745D01*
X47506Y96855D01*
X47870Y96745D01*
X48102Y96590D01*
X48642Y96483D01*
X49183Y96590D01*
X49642Y96897D01*
X49948Y97355D01*
X50055Y97896D01*
X49948Y98436D01*
X49642Y98895D01*
X49183Y99201D01*
X48642Y99309D01*
D02*
G37*
G36*
X80571Y103547D02*
X80031Y103439D01*
X79572Y103133D01*
X79266Y102674D01*
X79159Y102134D01*
X79266Y101593D01*
X79572Y101135D01*
X80031Y100828D01*
X80186Y100797D01*
Y100288D01*
X79802Y100211D01*
X79343Y99905D01*
X79037Y99446D01*
X78930Y98906D01*
X79037Y98365D01*
X79343Y97907D01*
X79802Y97600D01*
X80342Y97493D01*
X80883Y97600D01*
X81342Y97907D01*
X81648Y98365D01*
X81755Y98906D01*
X81648Y99446D01*
X81342Y99905D01*
X80883Y100211D01*
X80728Y100242D01*
Y100752D01*
X81112Y100828D01*
X81571Y101135D01*
X81877Y101593D01*
X81984Y102134D01*
X81877Y102674D01*
X81571Y103133D01*
X81112Y103439D01*
X80571Y103547D01*
D02*
G37*
G36*
X64842Y100318D02*
X64302Y100210D01*
X63843Y99904D01*
X63537Y99445D01*
X63429Y98905D01*
X63537Y98364D01*
X63843Y97906D01*
X64302Y97599D01*
X64842Y97492D01*
X65383Y97599D01*
X65842Y97906D01*
X66148Y98364D01*
X66255Y98905D01*
X66148Y99445D01*
X65842Y99904D01*
X65383Y100210D01*
X64842Y100318D01*
D02*
G37*
G36*
X43000Y100291D02*
X42459Y100183D01*
X42001Y99877D01*
X41695Y99418D01*
X41587Y98878D01*
X41695Y98337D01*
X42001Y97878D01*
X42459Y97572D01*
X43000Y97465D01*
X43541Y97572D01*
X43999Y97878D01*
X44305Y98337D01*
X44413Y98878D01*
X44305Y99418D01*
X43999Y99877D01*
X43541Y100183D01*
X43000Y100291D01*
D02*
G37*
G36*
X52492Y100119D02*
X51952Y100011D01*
X51493Y99705D01*
X51187Y99247D01*
X51079Y98706D01*
X51187Y98165D01*
X51493Y97707D01*
X51952Y97400D01*
X52492Y97293D01*
X53033Y97400D01*
X53492Y97707D01*
X53798Y98165D01*
X53905Y98706D01*
X53798Y99247D01*
X53492Y99705D01*
X53033Y100011D01*
X52492Y100119D01*
D02*
G37*
G36*
X39681Y99979D02*
X39140Y99871D01*
X38682Y99565D01*
X38376Y99107D01*
X38268Y98566D01*
X38376Y98025D01*
X38682Y97567D01*
X39140Y97260D01*
X39681Y97153D01*
X40222Y97260D01*
X40680Y97567D01*
X40987Y98025D01*
X41094Y98566D01*
X40987Y99107D01*
X40680Y99565D01*
X40222Y99871D01*
X39681Y99979D01*
D02*
G37*
G36*
X31102Y99819D02*
X30562Y99711D01*
X30103Y99405D01*
X29797Y98946D01*
X29689Y98406D01*
X29797Y97865D01*
X30103Y97407D01*
X30562Y97100D01*
X31102Y96993D01*
X31643Y97100D01*
X32102Y97407D01*
X32408Y97865D01*
X32515Y98406D01*
X32408Y98946D01*
X32102Y99405D01*
X31643Y99711D01*
X31102Y99819D01*
D02*
G37*
G36*
X56142Y99619D02*
X55602Y99511D01*
X55143Y99205D01*
X54837Y98747D01*
X54729Y98206D01*
X54837Y97665D01*
X55143Y97207D01*
X55602Y96900D01*
X56142Y96793D01*
X56683Y96900D01*
X57142Y97207D01*
X57448Y97665D01*
X57555Y98206D01*
X57448Y98747D01*
X57142Y99205D01*
X56683Y99511D01*
X56142Y99619D01*
D02*
G37*
G36*
X60693Y99256D02*
X60152Y99148D01*
X59694Y98842D01*
X59388Y98384D01*
X59280Y97843D01*
X59388Y97302D01*
X59694Y96844D01*
X60152Y96538D01*
X60693Y96430D01*
X61234Y96538D01*
X61692Y96844D01*
X61999Y97302D01*
X62106Y97843D01*
X61999Y98384D01*
X61692Y98842D01*
X61234Y99148D01*
X60693Y99256D01*
D02*
G37*
G36*
X76378Y96355D02*
X75838Y96247D01*
X75379Y95941D01*
X75073Y95482D01*
X74966Y94942D01*
X75073Y94401D01*
X75379Y93943D01*
X75838Y93636D01*
X76378Y93529D01*
X76919Y93636D01*
X77378Y93943D01*
X77684Y94401D01*
X77791Y94942D01*
X77684Y95482D01*
X77378Y95941D01*
X76919Y96247D01*
X76378Y96355D01*
D02*
G37*
G36*
X72047Y96319D02*
X71507Y96211D01*
X71048Y95905D01*
X70742Y95446D01*
X70635Y94906D01*
X70742Y94365D01*
X71048Y93907D01*
X71507Y93600D01*
X72047Y93493D01*
X72588Y93600D01*
X73047Y93907D01*
X73353Y94365D01*
X73460Y94906D01*
X73353Y95446D01*
X73047Y95905D01*
X72588Y96211D01*
X72047Y96319D01*
D02*
G37*
G36*
X43782Y93409D02*
X43242Y93301D01*
X42928Y93092D01*
X42704Y93004D01*
X42224Y93057D01*
X41993Y93211D01*
X41452Y93319D01*
X40912Y93211D01*
X40453Y92905D01*
X40147Y92447D01*
X40040Y91906D01*
X40147Y91365D01*
X40453Y90907D01*
X40912Y90600D01*
X41452Y90493D01*
X41993Y90600D01*
X42393Y90490D01*
X42493Y90238D01*
X42295Y89941D01*
X42187Y89400D01*
X42295Y88859D01*
X42601Y88401D01*
X43059Y88095D01*
X43600Y87987D01*
X44141Y88095D01*
X44599Y88401D01*
X44905Y88859D01*
X45013Y89400D01*
X44905Y89941D01*
X44599Y90399D01*
X44693Y90938D01*
X44782Y90997D01*
X45088Y91455D01*
X45165Y91844D01*
X45675D01*
X45753Y91452D01*
X46059Y90994D01*
X46518Y90687D01*
X47058Y90580D01*
X47599Y90687D01*
X48057Y90994D01*
X48542Y90819D01*
X48877Y90595D01*
X49417Y90488D01*
X49958Y90595D01*
X50417Y90902D01*
X50723Y91360D01*
X50830Y91901D01*
X50723Y92441D01*
X50417Y92900D01*
X49958Y93206D01*
X49417Y93314D01*
X48877Y93206D01*
X48418Y92900D01*
X47934Y93075D01*
X47599Y93298D01*
X47058Y93406D01*
X46518Y93298D01*
X46059Y92992D01*
X45753Y92533D01*
X45676Y92145D01*
X45166D01*
X45088Y92536D01*
X44782Y92995D01*
X44323Y93301D01*
X43782Y93409D01*
D02*
G37*
G36*
X15751Y94462D02*
X15210Y94355D01*
X14752Y94048D01*
X14445Y93590D01*
X14338Y93049D01*
X14445Y92508D01*
X14752Y92050D01*
X15210Y91744D01*
X15751Y91636D01*
X16292Y91744D01*
X16750Y92050D01*
X17056Y92508D01*
X17164Y93049D01*
X17056Y93590D01*
X16750Y94048D01*
X16292Y94355D01*
X15751Y94462D01*
D02*
G37*
G36*
X11790Y96640D02*
X11249Y96533D01*
X10791Y96227D01*
X10484Y95768D01*
X10377Y95227D01*
X10484Y94687D01*
X10754Y94283D01*
X10783Y93815D01*
X10477Y93357D01*
X10369Y92816D01*
X10477Y92275D01*
X10783Y91817D01*
X11242Y91510D01*
X11782Y91403D01*
X12323Y91510D01*
X12782Y91817D01*
X13088Y92275D01*
X13195Y92816D01*
X13088Y93357D01*
X12819Y93760D01*
X12789Y94228D01*
X13095Y94687D01*
X13203Y95227D01*
X13095Y95768D01*
X12789Y96227D01*
X12331Y96533D01*
X11790Y96640D01*
D02*
G37*
G36*
X58558Y93319D02*
X58018Y93211D01*
X57559Y92905D01*
X57253Y92447D01*
X57146Y91906D01*
X57253Y91365D01*
X57559Y90907D01*
X58018Y90600D01*
X58558Y90493D01*
X59099Y90600D01*
X59558Y90907D01*
X59864Y91365D01*
X59971Y91906D01*
X59864Y92447D01*
X59558Y92905D01*
X59099Y93211D01*
X58558Y93319D01*
D02*
G37*
G36*
X80342Y92319D02*
X79802Y92211D01*
X79343Y91905D01*
X79037Y91447D01*
X78930Y90906D01*
X79037Y90365D01*
X79343Y89907D01*
X79802Y89600D01*
X80342Y89493D01*
X80883Y89600D01*
X81342Y89907D01*
X81648Y90365D01*
X81755Y90906D01*
X81648Y91447D01*
X81342Y91905D01*
X80883Y92211D01*
X80342Y92319D01*
D02*
G37*
G36*
X54842Y93319D02*
X54302Y93211D01*
X53843Y92905D01*
X53537Y92447D01*
X53430Y91906D01*
X53537Y91365D01*
X53663Y91176D01*
X53604Y90536D01*
X53298Y90078D01*
X53190Y89537D01*
X53298Y88996D01*
X53604Y88538D01*
X54063Y88231D01*
X54603Y88124D01*
X55144Y88231D01*
X55603Y88538D01*
X55909Y88996D01*
X56016Y89537D01*
X55909Y90078D01*
X55783Y90266D01*
X55842Y90907D01*
X56148Y91365D01*
X56255Y91906D01*
X56148Y92447D01*
X55842Y92905D01*
X55383Y93211D01*
X54842Y93319D01*
D02*
G37*
G36*
X20071Y89548D02*
X19531Y89440D01*
X19072Y89134D01*
X18766Y88675D01*
X18658Y88135D01*
X18766Y87594D01*
X19072Y87136D01*
X19531Y86829D01*
X20071Y86722D01*
X20612Y86829D01*
X21071Y87136D01*
X21377Y87594D01*
X21484Y88135D01*
X21377Y88675D01*
X21071Y89134D01*
X20612Y89440D01*
X20071Y89548D01*
D02*
G37*
G36*
X61909Y89012D02*
X61369Y88904D01*
X60910Y88598D01*
X60604Y88139D01*
X60496Y87599D01*
X60604Y87058D01*
X60910Y86600D01*
X61369Y86293D01*
X61909Y86186D01*
X62450Y86293D01*
X62909Y86600D01*
X63215Y87058D01*
X63322Y87599D01*
X63215Y88139D01*
X62909Y88598D01*
X62450Y88904D01*
X61909Y89012D01*
D02*
G37*
G36*
X46858Y87943D02*
X46317Y87836D01*
X45859Y87529D01*
X45553Y87071D01*
X45445Y86530D01*
X45553Y85990D01*
X45859Y85531D01*
X46317Y85225D01*
X46858Y85117D01*
X47399Y85225D01*
X47857Y85531D01*
X48163Y85990D01*
X48271Y86530D01*
X48163Y87071D01*
X47857Y87529D01*
X47399Y87836D01*
X46858Y87943D01*
D02*
G37*
G36*
X71500Y86913D02*
X70959Y86805D01*
X70501Y86499D01*
X70195Y86041D01*
X70087Y85500D01*
X70195Y84959D01*
X70501Y84501D01*
X70959Y84195D01*
X71500Y84087D01*
X72041Y84195D01*
X72499Y84501D01*
X72805Y84959D01*
X72913Y85500D01*
X72805Y86041D01*
X72499Y86499D01*
X72041Y86805D01*
X71500Y86913D01*
D02*
G37*
G36*
X77558Y86650D02*
X77018Y86542D01*
X76559Y86236D01*
X76253Y85777D01*
X76145Y85237D01*
X76253Y84696D01*
X76559Y84238D01*
X77018Y83931D01*
X77558Y83824D01*
X78099Y83931D01*
X78558Y84238D01*
X78864Y84696D01*
X78971Y85237D01*
X78864Y85777D01*
X78558Y86236D01*
X78099Y86542D01*
X77558Y86650D01*
D02*
G37*
G36*
X50200Y87413D02*
X49659Y87305D01*
X49201Y86999D01*
X48895Y86541D01*
X48787Y86000D01*
X48895Y85459D01*
X49201Y85001D01*
X49659Y84695D01*
X50200Y84587D01*
X50741Y84695D01*
X51071Y84314D01*
X51343Y83906D01*
X51802Y83599D01*
X52342Y83492D01*
X52883Y83599D01*
X53342Y83906D01*
X53648Y84364D01*
X53755Y84905D01*
X53648Y85445D01*
X53342Y85904D01*
X52883Y86210D01*
X52342Y86318D01*
X51802Y86210D01*
X51472Y86591D01*
X51199Y86999D01*
X50741Y87305D01*
X50200Y87413D01*
D02*
G37*
G36*
X65842Y85819D02*
X65302Y85711D01*
X64843Y85405D01*
X64537Y84947D01*
X64429Y84406D01*
X64537Y83865D01*
X64843Y83407D01*
X64845Y83406D01*
Y82906D01*
X64843Y82905D01*
X64537Y82446D01*
X64429Y81906D01*
X64537Y81365D01*
X64843Y80907D01*
X65302Y80600D01*
X65842Y80493D01*
X66383Y80600D01*
X66842Y80907D01*
X67148Y81365D01*
X67255Y81906D01*
X67148Y82446D01*
X66842Y82905D01*
X66840Y82906D01*
Y83406D01*
X66842Y83407D01*
X67148Y83865D01*
X67255Y84406D01*
X67148Y84947D01*
X66842Y85405D01*
X66383Y85711D01*
X65842Y85819D01*
D02*
G37*
G36*
X15464Y80540D02*
X14923Y80432D01*
X14465Y80126D01*
X14159Y79667D01*
X14051Y79127D01*
X14159Y78586D01*
X14465Y78127D01*
X14923Y77821D01*
X15464Y77714D01*
X16005Y77821D01*
X16463Y78127D01*
X16770Y78586D01*
X16877Y79127D01*
X16770Y79667D01*
X16463Y80126D01*
X16005Y80432D01*
X15464Y80540D01*
D02*
G37*
G36*
X58264Y80520D02*
X57723Y80412D01*
X57265Y80106D01*
X56959Y79647D01*
X56851Y79107D01*
X56959Y78566D01*
X57265Y78108D01*
X57723Y77801D01*
X58264Y77694D01*
X58805Y77801D01*
X59263Y78108D01*
X59570Y78566D01*
X59677Y79107D01*
X59570Y79647D01*
X59263Y80106D01*
X58805Y80412D01*
X58264Y80520D01*
D02*
G37*
G36*
X55764Y76120D02*
X55224Y76012D01*
X54765Y75706D01*
X54586Y75437D01*
X54033Y75205D01*
X53492Y75313D01*
X52952Y75205D01*
X52493Y74899D01*
X52490Y74895D01*
X51802Y74764D01*
X51741Y74805D01*
X51200Y74913D01*
X50659Y74805D01*
X50201Y74499D01*
X49895Y74041D01*
X49787Y73500D01*
X49895Y72959D01*
X50201Y72501D01*
X50659Y72195D01*
X51200Y72087D01*
X51741Y72195D01*
X52199Y72501D01*
X52202Y72505D01*
X52890Y72636D01*
X52952Y72595D01*
X53492Y72487D01*
X54033Y72595D01*
X54492Y72901D01*
X54671Y73169D01*
X55224Y73401D01*
X55764Y73294D01*
X56305Y73401D01*
X56763Y73708D01*
X57070Y74166D01*
X57177Y74707D01*
X57070Y75247D01*
X56763Y75706D01*
X56305Y76012D01*
X55764Y76120D01*
D02*
G37*
G36*
X70700Y77413D02*
X70159Y77305D01*
X69701Y76999D01*
X69395Y76541D01*
X69287Y76000D01*
X69395Y75459D01*
X69701Y75001D01*
X70159Y74695D01*
X70700Y74587D01*
X71241Y74695D01*
X71699Y75001D01*
X72005Y75459D01*
X72113Y76000D01*
X72005Y76541D01*
X71699Y76999D01*
X71241Y77305D01*
X70700Y77413D01*
D02*
G37*
G36*
X59064Y77013D02*
X58523Y76905D01*
X58065Y76599D01*
X57759Y76141D01*
X57651Y75600D01*
X57759Y75059D01*
X58065Y74601D01*
X58523Y74295D01*
X59064Y74187D01*
X59605Y74295D01*
X60063Y74601D01*
X60370Y75059D01*
X60477Y75600D01*
X60370Y76141D01*
X60063Y76599D01*
X59605Y76905D01*
X59064Y77013D01*
D02*
G37*
G36*
X25197Y93319D02*
X24657Y93211D01*
X24198Y92905D01*
X23892Y92447D01*
X23785Y91906D01*
X23892Y91365D01*
X24198Y90907D01*
X24657Y90600D01*
X25197Y90493D01*
X25317Y90517D01*
X25501Y90282D01*
X25572Y90057D01*
X24532Y88791D01*
X23719Y87270D01*
X23219Y85621D01*
X23050Y83906D01*
X23219Y82191D01*
X23719Y80541D01*
X24532Y79021D01*
X25625Y77689D01*
X26958Y76595D01*
X28478Y75783D01*
X30127Y75282D01*
X31188Y75178D01*
X31261Y75023D01*
X31378Y74657D01*
X31300Y74266D01*
X31063Y74097D01*
X30820Y73986D01*
X30641Y74105D01*
X30100Y74213D01*
X29559Y74105D01*
X29101Y73799D01*
X28795Y73341D01*
X28687Y72800D01*
X28795Y72259D01*
X29101Y71801D01*
X29559Y71495D01*
X29528Y70991D01*
X29495Y70941D01*
X29480Y70870D01*
X29262Y70442D01*
X28722Y70549D01*
X28181Y70442D01*
X27722Y70136D01*
X27416Y69677D01*
X27309Y69137D01*
X27416Y68596D01*
X27722Y68137D01*
X28181Y67831D01*
X28722Y67724D01*
X29262Y67831D01*
X29721Y68137D01*
X30027Y68596D01*
X30041Y68667D01*
X30259Y69095D01*
X30800Y68987D01*
X31341Y69095D01*
X31799Y69401D01*
X32105Y69859D01*
X32213Y70400D01*
X32105Y70941D01*
X31799Y71399D01*
X31341Y71705D01*
X31372Y72209D01*
X31405Y72259D01*
X31500Y72734D01*
X31737Y72903D01*
X31980Y73014D01*
X32159Y72895D01*
X32700Y72787D01*
X33241Y72895D01*
X33699Y73201D01*
X34005Y73659D01*
X34113Y74200D01*
X34005Y74741D01*
X33919Y74870D01*
X34129Y75456D01*
X35207Y75783D01*
X36727Y76595D01*
X38060Y77689D01*
X39153Y79021D01*
X39966Y80541D01*
X40466Y82191D01*
X40635Y83906D01*
X40466Y85621D01*
X39966Y87270D01*
X39153Y88791D01*
X38060Y90123D01*
X36727Y91216D01*
X35207Y92029D01*
X33558Y92529D01*
X31842Y92698D01*
X30127Y92529D01*
X28478Y92029D01*
X26960Y91217D01*
X26951Y91221D01*
X26533Y91514D01*
X26610Y91906D01*
X26503Y92447D01*
X26197Y92905D01*
X25738Y93211D01*
X25197Y93319D01*
D02*
G37*
G36*
X75342Y76319D02*
X74802Y76211D01*
X74343Y75905D01*
X74037Y75446D01*
X73930Y74906D01*
X74037Y74365D01*
X74343Y73907D01*
X74802Y73600D01*
X75342Y73493D01*
X75883Y73600D01*
X76342Y73907D01*
X76648Y74365D01*
X76755Y74906D01*
X76648Y75446D01*
X76342Y75905D01*
X75883Y76211D01*
X75342Y76319D01*
D02*
G37*
G36*
X65047Y77455D02*
X64072Y77261D01*
X63245Y76708D01*
X62692Y75881D01*
X62498Y74906D01*
X62692Y73930D01*
X63245Y73103D01*
X64072Y72551D01*
X65047Y72357D01*
X66023Y72551D01*
X66850Y73103D01*
X67402Y73930D01*
X67596Y74906D01*
X67402Y75881D01*
X66850Y76708D01*
X66023Y77261D01*
X65047Y77455D01*
D02*
G37*
G36*
X75299Y72776D02*
X74759Y72668D01*
X74300Y72362D01*
X73994Y71904D01*
X73887Y71363D01*
X73994Y70822D01*
X74300Y70364D01*
X74759Y70057D01*
X75299Y69950D01*
X75840Y70057D01*
X76299Y70364D01*
X76605Y70822D01*
X76712Y71363D01*
X76605Y71904D01*
X76299Y72362D01*
X75840Y72668D01*
X75299Y72776D01*
D02*
G37*
G36*
X21260Y69952D02*
X20719Y69844D01*
X20387Y69622D01*
X20051Y69570D01*
X19716Y69622D01*
X19383Y69844D01*
X18842Y69952D01*
X18302Y69844D01*
X17843Y69538D01*
X17537Y69080D01*
X17429Y68539D01*
X17537Y67998D01*
X17843Y67540D01*
X18302Y67233D01*
X18842Y67126D01*
X19383Y67233D01*
X19716Y67456D01*
X20051Y67507D01*
X20387Y67456D01*
X20719Y67233D01*
X21260Y67126D01*
X21801Y67233D01*
X22259Y67540D01*
X22565Y67998D01*
X22673Y68539D01*
X22565Y69080D01*
X22259Y69538D01*
X21801Y69844D01*
X21260Y69952D01*
D02*
G37*
G36*
X59064Y72213D02*
X58523Y72105D01*
X58065Y71799D01*
X57759Y71341D01*
X57651Y70800D01*
X57759Y70259D01*
X58065Y69801D01*
X58523Y69495D01*
X59064Y69387D01*
X59605Y69495D01*
X60063Y69801D01*
X60370Y70259D01*
X60477Y70800D01*
X60370Y71341D01*
X60063Y71799D01*
X59605Y72105D01*
X59064Y72213D01*
D02*
G37*
G36*
X27482Y67309D02*
X26942Y67201D01*
X26483Y66895D01*
X26177Y66436D01*
X26070Y65896D01*
X26177Y65355D01*
X26483Y64897D01*
X26942Y64590D01*
X27482Y64483D01*
X28023Y64590D01*
X28482Y64897D01*
X28788Y65355D01*
X28895Y65896D01*
X28788Y66436D01*
X28482Y66895D01*
X28023Y67201D01*
X27482Y67309D01*
D02*
G37*
G36*
X54203Y66916D02*
X53662Y66809D01*
X53204Y66502D01*
X52898Y66044D01*
X52829Y65697D01*
X52773Y65490D01*
X52352Y65144D01*
X52159Y65105D01*
X51701Y64799D01*
X51395Y64341D01*
X51287Y63800D01*
X51395Y63259D01*
X51701Y62801D01*
X52159Y62495D01*
X52700Y62387D01*
X53241Y62495D01*
X53699Y62801D01*
X54005Y63259D01*
X54074Y63606D01*
X54129Y63814D01*
X54551Y64160D01*
X54744Y64198D01*
X55202Y64504D01*
X55508Y64963D01*
X55616Y65503D01*
X55508Y66044D01*
X55202Y66502D01*
X54744Y66809D01*
X54203Y66916D01*
D02*
G37*
G36*
X23372Y65029D02*
X22832Y64921D01*
X22373Y64615D01*
X22067Y64157D01*
X21960Y63616D01*
X22067Y63075D01*
X22373Y62617D01*
X22832Y62310D01*
X23372Y62203D01*
X23913Y62310D01*
X24372Y62617D01*
X24678Y63075D01*
X24785Y63616D01*
X24678Y64157D01*
X24372Y64615D01*
X23913Y64921D01*
X23372Y65029D01*
D02*
G37*
G36*
X63342Y67818D02*
X62802Y67710D01*
X62343Y67404D01*
X62037Y66945D01*
X61930Y66405D01*
X62037Y65864D01*
X62343Y65406D01*
X62802Y65099D01*
X63342Y64992D01*
X63600Y65043D01*
X63700Y65063D01*
X63895Y64592D01*
X63814Y64537D01*
X63615Y64405D01*
X63309Y63946D01*
X63201Y63406D01*
X63309Y62865D01*
X63615Y62407D01*
X64074Y62100D01*
X64614Y61993D01*
X65155Y62100D01*
X65614Y62407D01*
X65920Y62865D01*
X66027Y63406D01*
X65920Y63946D01*
X65614Y64405D01*
X65155Y64711D01*
X64614Y64819D01*
X64357Y64768D01*
X64257Y64748D01*
X64062Y65219D01*
X64143Y65273D01*
X64342Y65406D01*
X64648Y65864D01*
X64755Y66405D01*
X64648Y66945D01*
X64342Y67404D01*
X63883Y67710D01*
X63342Y67818D01*
D02*
G37*
G36*
X61071Y64819D02*
X60531Y64711D01*
X60072Y64405D01*
X59766Y63946D01*
X59658Y63406D01*
X59766Y62865D01*
X60072Y62407D01*
X60531Y62100D01*
X61071Y61993D01*
X61612Y62100D01*
X62071Y62407D01*
X62377Y62865D01*
X62484Y63406D01*
X62377Y63946D01*
X62071Y64405D01*
X61612Y64711D01*
X61071Y64819D01*
D02*
G37*
G36*
X30867Y67092D02*
X30327Y66985D01*
X29868Y66679D01*
X29562Y66220D01*
X29454Y65679D01*
X29562Y65139D01*
X29868Y64680D01*
X29951Y64625D01*
Y64024D01*
X29833Y63945D01*
X29527Y63486D01*
X29419Y62946D01*
X29527Y62405D01*
X29833Y61947D01*
X30292Y61640D01*
X30832Y61533D01*
X31373Y61640D01*
X31832Y61947D01*
X32138Y62405D01*
X32245Y62946D01*
X32138Y63486D01*
X31832Y63945D01*
X31749Y64000D01*
Y64602D01*
X31867Y64680D01*
X32173Y65139D01*
X32280Y65679D01*
X32173Y66220D01*
X31867Y66679D01*
X31408Y66985D01*
X30867Y67092D01*
D02*
G37*
G36*
X18503Y64359D02*
X17963Y64251D01*
X17504Y63945D01*
X17198Y63486D01*
X17090Y62946D01*
X17198Y62405D01*
X17504Y61947D01*
X17963Y61640D01*
X18503Y61533D01*
X19044Y61640D01*
X19503Y61947D01*
X19809Y62405D01*
X19916Y62946D01*
X19809Y63486D01*
X19503Y63945D01*
X19044Y64251D01*
X18503Y64359D01*
D02*
G37*
G36*
X57436Y61113D02*
X56895Y61005D01*
X56437Y60699D01*
X56130Y60241D01*
X56023Y59700D01*
X56130Y59159D01*
X56437Y58701D01*
X56895Y58395D01*
X57436Y58287D01*
X57977Y58395D01*
X58435Y58701D01*
X58741Y59159D01*
X58849Y59700D01*
X58741Y60241D01*
X58435Y60699D01*
X57977Y61005D01*
X57436Y61113D01*
D02*
G37*
G36*
X31092Y60669D02*
X30552Y60561D01*
X30093Y60255D01*
X29787Y59797D01*
X29680Y59256D01*
X29787Y58715D01*
X30093Y58257D01*
X30552Y57950D01*
X31092Y57843D01*
X31633Y57950D01*
X32092Y58257D01*
X32398Y58715D01*
X32505Y59256D01*
X32398Y59797D01*
X32092Y60255D01*
X31633Y60561D01*
X31092Y60669D01*
D02*
G37*
G36*
X66732Y59389D02*
X66192Y59281D01*
X65733Y58975D01*
X65427Y58517D01*
X65320Y57976D01*
X65427Y57435D01*
X65733Y56977D01*
X66192Y56670D01*
X66732Y56563D01*
X67273Y56670D01*
X67732Y56977D01*
X68038Y57435D01*
X68145Y57976D01*
X68038Y58517D01*
X67732Y58975D01*
X67273Y59281D01*
X66732Y59389D01*
D02*
G37*
G36*
X77302Y59359D02*
X76762Y59251D01*
X76303Y58945D01*
X75997Y58486D01*
X75889Y57946D01*
X75997Y57405D01*
X76303Y56947D01*
X76762Y56640D01*
X77302Y56533D01*
X77843Y56640D01*
X78302Y56947D01*
X78608Y57405D01*
X78715Y57946D01*
X78608Y58486D01*
X78302Y58945D01*
X77843Y59251D01*
X77302Y59359D01*
D02*
G37*
G36*
X71772Y54259D02*
X71232Y54151D01*
X70773Y53845D01*
X70467Y53386D01*
X69918Y53188D01*
X69883Y53211D01*
X69342Y53319D01*
X68802Y53211D01*
X68343Y52905D01*
X68037Y52447D01*
X67930Y51906D01*
X68037Y51365D01*
X68343Y50907D01*
X68369Y50889D01*
Y50288D01*
X68343Y50271D01*
X68037Y49812D01*
X67930Y49272D01*
X68037Y48731D01*
X68343Y48273D01*
X68553Y48133D01*
Y47545D01*
X68343Y47405D01*
X68037Y46946D01*
X67930Y46406D01*
X68037Y45865D01*
X68343Y45407D01*
X68802Y45100D01*
X69342Y44993D01*
X69883Y45100D01*
X70342Y45407D01*
X70648Y45865D01*
X70755Y46406D01*
X70648Y46946D01*
X70342Y47405D01*
X70132Y47545D01*
Y48133D01*
X70342Y48273D01*
X70648Y48731D01*
X70755Y49272D01*
X70648Y49812D01*
X70342Y50271D01*
X70316Y50288D01*
Y50889D01*
X70342Y50907D01*
X70648Y51365D01*
X71197Y51564D01*
X71232Y51540D01*
X71772Y51433D01*
X72313Y51540D01*
X72772Y51847D01*
X73078Y52305D01*
X73185Y52846D01*
X73078Y53386D01*
X72772Y53845D01*
X72313Y54151D01*
X71772Y54259D01*
D02*
G37*
G36*
X54128Y61147D02*
X53588Y61040D01*
X53129Y60734D01*
X52823Y60275D01*
X52715Y59734D01*
X52775Y59436D01*
X52764Y59150D01*
X52422Y58894D01*
X52216Y58854D01*
X51757Y58547D01*
X51451Y58089D01*
X51344Y57548D01*
X51451Y57007D01*
X51645Y56718D01*
X51745Y56524D01*
X51541Y56092D01*
X51401Y55999D01*
X51095Y55541D01*
X50987Y55000D01*
X51095Y54459D01*
X51401Y54001D01*
X51859Y53695D01*
X52326Y53602D01*
X52506Y53492D01*
X52763Y53235D01*
X52751Y53177D01*
X52859Y52637D01*
X53165Y52178D01*
X53623Y51872D01*
X54164Y51765D01*
X54705Y51872D01*
X55163Y52178D01*
X55470Y52637D01*
X55577Y53177D01*
X55470Y53718D01*
X55163Y54177D01*
X54705Y54483D01*
X54238Y54576D01*
X54059Y54685D01*
X53802Y54942D01*
X53813Y55000D01*
X53705Y55541D01*
X53512Y55831D01*
X53411Y56024D01*
X53616Y56456D01*
X53756Y56549D01*
X54062Y57007D01*
X54169Y57548D01*
X54110Y57847D01*
X54121Y58133D01*
X54463Y58388D01*
X54669Y58429D01*
X55128Y58735D01*
X55434Y59194D01*
X55541Y59734D01*
X55434Y60275D01*
X55128Y60734D01*
X54669Y61040D01*
X54128Y61147D01*
D02*
G37*
G36*
X31212Y56419D02*
X30672Y56311D01*
X30213Y56005D01*
X29907Y55546D01*
X29800Y55006D01*
X29907Y54465D01*
X30213Y54007D01*
X30239Y53990D01*
X30413Y53505D01*
X30327Y53375D01*
X30107Y53047D01*
X30000Y52506D01*
X30107Y51965D01*
X30413Y51507D01*
X30872Y51200D01*
X31412Y51093D01*
X31953Y51200D01*
X32412Y51507D01*
X32718Y51965D01*
X32825Y52506D01*
X32718Y53047D01*
X32412Y53505D01*
X32386Y53522D01*
X32212Y54007D01*
X32298Y54136D01*
X32518Y54465D01*
X32625Y55006D01*
X32518Y55546D01*
X32212Y56005D01*
X31753Y56311D01*
X31212Y56419D01*
D02*
G37*
G36*
X19500Y53613D02*
X18959Y53505D01*
X18501Y53199D01*
X18195Y52741D01*
X18087Y52200D01*
X18195Y51659D01*
X18501Y51201D01*
X18959Y50895D01*
X19500Y50787D01*
X20041Y50895D01*
X20499Y51201D01*
X20805Y51659D01*
X20913Y52200D01*
X20805Y52741D01*
X20499Y53199D01*
X20041Y53505D01*
X19500Y53613D01*
D02*
G37*
G36*
X32600Y50612D02*
X32059Y50504D01*
X31601Y50198D01*
X31295Y49740D01*
X31187Y49199D01*
X31295Y48658D01*
X31601Y48200D01*
X32059Y47894D01*
X32600Y47786D01*
X33141Y47894D01*
X33599Y48200D01*
X33906Y48658D01*
X34013Y49199D01*
X33906Y49740D01*
X33599Y50198D01*
X33141Y50504D01*
X32600Y50612D01*
D02*
G37*
G36*
X62272Y49209D02*
X61732Y49101D01*
X61273Y48795D01*
X60967Y48336D01*
X60860Y47796D01*
X60967Y47255D01*
X61273Y46797D01*
X61732Y46490D01*
X62272Y46383D01*
X62813Y46490D01*
X63272Y46797D01*
X63578Y47255D01*
X63685Y47796D01*
X63578Y48336D01*
X63272Y48795D01*
X62813Y49101D01*
X62272Y49209D01*
D02*
G37*
G36*
X74242Y51119D02*
X73702Y51011D01*
X73243Y50705D01*
X72937Y50247D01*
X72830Y49706D01*
X72937Y49165D01*
X73152Y48843D01*
X73209Y48505D01*
X73152Y48166D01*
X72937Y47844D01*
X72830Y47304D01*
X72937Y46763D01*
X73243Y46305D01*
X73305Y45662D01*
X73201Y45507D01*
X73093Y44966D01*
X73201Y44425D01*
X73507Y43967D01*
X73966Y43660D01*
X74506Y43553D01*
X75047Y43660D01*
X75506Y43967D01*
X75812Y44425D01*
X75919Y44966D01*
X75812Y45507D01*
X75506Y45965D01*
X75444Y46608D01*
X75548Y46763D01*
X75655Y47304D01*
X75548Y47844D01*
X75333Y48166D01*
X75276Y48505D01*
X75333Y48843D01*
X75548Y49165D01*
X75655Y49706D01*
X75548Y50247D01*
X75242Y50705D01*
X74783Y51011D01*
X74242Y51119D01*
D02*
G37*
G36*
X56042Y44419D02*
X55502Y44311D01*
X55043Y44005D01*
X54737Y43547D01*
X54629Y43006D01*
X54737Y42465D01*
X55043Y42007D01*
X55502Y41700D01*
X56042Y41593D01*
X56583Y41700D01*
X57042Y42007D01*
X57348Y42465D01*
X57455Y43006D01*
X57348Y43547D01*
X57042Y44005D01*
X56583Y44311D01*
X56042Y44419D01*
D02*
G37*
G36*
X60942Y44119D02*
X60402Y44011D01*
X59943Y43705D01*
X59637Y43246D01*
X59530Y42706D01*
X59637Y42165D01*
X59943Y41707D01*
X60402Y41400D01*
X60942Y41293D01*
X61483Y41400D01*
X61942Y41707D01*
X62248Y42165D01*
X62355Y42706D01*
X62248Y43246D01*
X61942Y43705D01*
X61483Y44011D01*
X60942Y44119D01*
D02*
G37*
G36*
X62742Y40919D02*
X62202Y40811D01*
X61743Y40505D01*
X61437Y40047D01*
X61330Y39506D01*
X61437Y38965D01*
X61743Y38507D01*
X62202Y38200D01*
X62742Y38093D01*
X63283Y38200D01*
X63742Y38507D01*
X64048Y38965D01*
X64155Y39506D01*
X64048Y40047D01*
X63742Y40505D01*
X63283Y40811D01*
X62742Y40919D01*
D02*
G37*
G36*
X68803Y39669D02*
X68262Y39561D01*
X67804Y39255D01*
X67497Y38797D01*
X67390Y38256D01*
X67497Y37715D01*
X67804Y37257D01*
X68262Y36951D01*
X68803Y36843D01*
X69344Y36951D01*
X69802Y37257D01*
X70108Y37715D01*
X70216Y38256D01*
X70108Y38797D01*
X69802Y39255D01*
X69344Y39561D01*
X68803Y39669D01*
D02*
G37*
G36*
X48031Y36910D02*
X47491Y36802D01*
X47032Y36496D01*
X46726Y36037D01*
X46619Y35497D01*
X46726Y34956D01*
X47032Y34498D01*
X47491Y34191D01*
X48031Y34084D01*
X48572Y34191D01*
X49031Y34498D01*
X49337Y34956D01*
X49444Y35497D01*
X49337Y36037D01*
X49031Y36496D01*
X48572Y36802D01*
X48031Y36910D01*
D02*
G37*
G36*
X44094D02*
X43554Y36802D01*
X43095Y36496D01*
X42789Y36037D01*
X42682Y35497D01*
X42789Y34956D01*
X43095Y34498D01*
X43554Y34191D01*
X44094Y34084D01*
X44635Y34191D01*
X45094Y34498D01*
X45400Y34956D01*
X45507Y35497D01*
X45400Y36037D01*
X45094Y36496D01*
X44635Y36802D01*
X44094Y36910D01*
D02*
G37*
G36*
X74300Y36213D02*
X73759Y36105D01*
X73301Y35799D01*
X72995Y35341D01*
X72887Y34800D01*
X72995Y34259D01*
X73301Y33801D01*
X73759Y33495D01*
X74300Y33387D01*
X74841Y33495D01*
X75299Y33801D01*
X75605Y34259D01*
X75713Y34800D01*
X75605Y35341D01*
X75299Y35799D01*
X74841Y36105D01*
X74300Y36213D01*
D02*
G37*
G36*
X25022Y35189D02*
X24482Y35081D01*
X24023Y34775D01*
X23717Y34317D01*
X23609Y33776D01*
X23717Y33235D01*
X24023Y32777D01*
X24482Y32470D01*
X25022Y32363D01*
X25563Y32470D01*
X26022Y32777D01*
X26328Y33235D01*
X26435Y33776D01*
X26328Y34317D01*
X26022Y34775D01*
X25563Y35081D01*
X25022Y35189D01*
D02*
G37*
G36*
X69867Y36351D02*
X69327Y36243D01*
X68868Y35937D01*
X68562Y35478D01*
X68454Y34938D01*
X68562Y34397D01*
X68365Y33791D01*
X68288Y33740D01*
X67982Y33281D01*
X67874Y32741D01*
X67982Y32200D01*
X68288Y31742D01*
X68747Y31435D01*
X69287Y31328D01*
X69828Y31435D01*
X70287Y31742D01*
X70593Y32200D01*
X70700Y32741D01*
X70593Y33281D01*
X70789Y33887D01*
X70867Y33939D01*
X71173Y34397D01*
X71280Y34938D01*
X71173Y35478D01*
X70867Y35937D01*
X70408Y36243D01*
X69867Y36351D01*
D02*
G37*
G36*
X77340Y31134D02*
X76799Y31026D01*
X76341Y30720D01*
X76253Y30589D01*
X75652D01*
X75642Y30605D01*
X75183Y30911D01*
X74642Y31019D01*
X74102Y30911D01*
X73643Y30605D01*
X73337Y30147D01*
X73229Y29606D01*
X73337Y29065D01*
X73643Y28607D01*
X74102Y28300D01*
X74642Y28193D01*
X75183Y28300D01*
X75642Y28607D01*
X75729Y28737D01*
X76330D01*
X76341Y28722D01*
X76799Y28415D01*
X77340Y28308D01*
X77881Y28415D01*
X78339Y28722D01*
X78645Y29180D01*
X78753Y29721D01*
X78645Y30261D01*
X78339Y30720D01*
X77881Y31026D01*
X77340Y31134D01*
D02*
G37*
G36*
X48031Y32910D02*
X47491Y32802D01*
X47032Y32496D01*
X46726Y32037D01*
X46619Y31497D01*
X46726Y30956D01*
X47032Y30498D01*
X47491Y30191D01*
X48031Y30084D01*
X48572Y30191D01*
X49031Y30498D01*
X49337Y30956D01*
X49444Y31497D01*
X49337Y32037D01*
X49031Y32496D01*
X48572Y32802D01*
X48031Y32910D01*
D02*
G37*
G36*
X44094D02*
X43554Y32802D01*
X43095Y32496D01*
X42789Y32037D01*
X42682Y31497D01*
X42789Y30956D01*
X43095Y30498D01*
X43554Y30191D01*
X44094Y30084D01*
X44635Y30191D01*
X45094Y30498D01*
X45400Y30956D01*
X45507Y31497D01*
X45400Y32037D01*
X45094Y32496D01*
X44635Y32802D01*
X44094Y32910D01*
D02*
G37*
G36*
X64942Y30919D02*
X64402Y30811D01*
X63943Y30505D01*
X63637Y30046D01*
X63529Y29506D01*
X63637Y28965D01*
X63943Y28507D01*
X64402Y28200D01*
X64942Y28093D01*
X65483Y28200D01*
X65942Y28507D01*
X66248Y28965D01*
X66355Y29506D01*
X66248Y30046D01*
X65942Y30505D01*
X65483Y30811D01*
X64942Y30919D01*
D02*
G37*
G36*
X58177Y33894D02*
X57637Y33786D01*
X57178Y33480D01*
X56872Y33022D01*
X56765Y32481D01*
X56872Y31940D01*
X57178Y31482D01*
X57637Y31175D01*
X58177Y31068D01*
X58449Y30612D01*
X58429Y30512D01*
X58449Y30413D01*
X58177Y29957D01*
X57637Y29849D01*
X57178Y29543D01*
X56872Y29085D01*
X56765Y28544D01*
X56872Y28003D01*
X57178Y27545D01*
X57637Y27238D01*
X58177Y27131D01*
X58718Y27238D01*
X59177Y27545D01*
X59483Y28003D01*
X59590Y28544D01*
X59571Y28643D01*
X59842Y29099D01*
X60383Y29206D01*
X60842Y29513D01*
X61148Y29971D01*
X61255Y30512D01*
X61148Y31053D01*
X60842Y31511D01*
X60383Y31817D01*
X59842Y31925D01*
X59570Y32381D01*
X59590Y32481D01*
X59483Y33022D01*
X59177Y33480D01*
X58718Y33786D01*
X58177Y33894D01*
D02*
G37*
G36*
X69695Y29822D02*
X69155Y29714D01*
X68696Y29408D01*
X68390Y28949D01*
X68283Y28409D01*
X68390Y27868D01*
X68696Y27410D01*
X69155Y27103D01*
X69695Y26996D01*
X70236Y27103D01*
X70695Y27410D01*
X71001Y27868D01*
X71108Y28409D01*
X71001Y28949D01*
X70695Y29408D01*
X70236Y29714D01*
X69695Y29822D01*
D02*
G37*
G36*
X18842Y29319D02*
X18302Y29211D01*
X17843Y28905D01*
X17537Y28446D01*
X17429Y27906D01*
X17537Y27365D01*
X17843Y26907D01*
X18302Y26600D01*
X18842Y26493D01*
X19383Y26600D01*
X19842Y26907D01*
X20101Y27295D01*
X20384Y27304D01*
X20622Y27243D01*
X20637Y27165D01*
X20943Y26707D01*
X21402Y26400D01*
X21942Y26293D01*
X22483Y26400D01*
X22942Y26707D01*
X23248Y27165D01*
X23355Y27706D01*
X23248Y28247D01*
X22942Y28705D01*
X22483Y29011D01*
X21942Y29119D01*
X21402Y29011D01*
X20943Y28705D01*
X20684Y28316D01*
X20401Y28308D01*
X20163Y28369D01*
X20148Y28446D01*
X19842Y28905D01*
X19383Y29211D01*
X18842Y29319D01*
D02*
G37*
G36*
X48031Y28973D02*
X47491Y28865D01*
X47032Y28559D01*
X46726Y28100D01*
X46619Y27560D01*
X46726Y27019D01*
X47032Y26561D01*
X47491Y26254D01*
X48031Y26147D01*
X48572Y26254D01*
X49031Y26561D01*
X49337Y27019D01*
X49444Y27560D01*
X49337Y28100D01*
X49031Y28559D01*
X48572Y28865D01*
X48031Y28973D01*
D02*
G37*
G36*
X44094D02*
X43554Y28865D01*
X43095Y28559D01*
X42789Y28100D01*
X42682Y27560D01*
X42789Y27019D01*
X43095Y26561D01*
X43554Y26254D01*
X44094Y26147D01*
X44635Y26254D01*
X45094Y26561D01*
X45400Y27019D01*
X45507Y27560D01*
X45400Y28100D01*
X45094Y28559D01*
X44635Y28865D01*
X44094Y28973D01*
D02*
G37*
G36*
X12401Y28319D02*
X11861Y28211D01*
X11402Y27905D01*
X11096Y27446D01*
X10988Y26906D01*
X11096Y26365D01*
X11402Y25907D01*
X11861Y25600D01*
X12401Y25493D01*
X12942Y25600D01*
X13401Y25907D01*
X13707Y26365D01*
X13814Y26906D01*
X13707Y27446D01*
X13401Y27905D01*
X12942Y28211D01*
X12401Y28319D01*
D02*
G37*
G36*
X58142Y26219D02*
X57602Y26111D01*
X57143Y25805D01*
X56837Y25346D01*
X56730Y24806D01*
X56837Y24265D01*
X57143Y23807D01*
X57602Y23500D01*
X58142Y23393D01*
X58683Y23500D01*
X59142Y23807D01*
X59448Y24265D01*
X59555Y24806D01*
X59448Y25346D01*
X59142Y25805D01*
X58683Y26111D01*
X58142Y26219D01*
D02*
G37*
G36*
X25342Y26020D02*
X24802Y25912D01*
X24343Y25606D01*
X24037Y25148D01*
X23930Y24607D01*
X24037Y24066D01*
X24343Y23608D01*
X24802Y23301D01*
X25342Y23194D01*
X25883Y23301D01*
X26342Y23608D01*
X26648Y24066D01*
X26755Y24607D01*
X26648Y25148D01*
X26342Y25606D01*
X25883Y25912D01*
X25342Y26020D01*
D02*
G37*
G36*
X61492Y28299D02*
X60952Y28191D01*
X60493Y27885D01*
X60187Y27426D01*
X60079Y26886D01*
X60187Y26345D01*
X60493Y25887D01*
X60428Y25329D01*
X60206Y24997D01*
X60098Y24457D01*
X60206Y23916D01*
X60512Y23458D01*
X60971Y23151D01*
X61511Y23044D01*
X62052Y23151D01*
X62511Y23458D01*
X62817Y23916D01*
X62924Y24457D01*
X62817Y24997D01*
X62511Y25456D01*
X62576Y26013D01*
X62798Y26345D01*
X62905Y26886D01*
X62798Y27426D01*
X62492Y27885D01*
X62033Y28191D01*
X61492Y28299D01*
D02*
G37*
G36*
X48031Y25036D02*
X47491Y24928D01*
X47032Y24622D01*
X46726Y24163D01*
X46619Y23623D01*
X46726Y23082D01*
X47032Y22624D01*
X47491Y22317D01*
X48031Y22210D01*
X48572Y22317D01*
X49031Y22624D01*
X49337Y23082D01*
X49444Y23623D01*
X49337Y24163D01*
X49031Y24622D01*
X48572Y24928D01*
X48031Y25036D01*
D02*
G37*
G36*
X44094D02*
X43554Y24928D01*
X43095Y24622D01*
X42789Y24163D01*
X42682Y23623D01*
X42789Y23082D01*
X43095Y22624D01*
X43554Y22317D01*
X44094Y22210D01*
X44635Y22317D01*
X45094Y22624D01*
X45400Y23082D01*
X45507Y23623D01*
X45400Y24163D01*
X45094Y24622D01*
X44635Y24928D01*
X44094Y25036D01*
D02*
G37*
G36*
X22542Y24319D02*
X22002Y24211D01*
X21543Y23905D01*
X21237Y23447D01*
X21129Y22906D01*
X21237Y22365D01*
X21543Y21907D01*
X22002Y21600D01*
X22542Y21493D01*
X23083Y21600D01*
X23542Y21907D01*
X23848Y22365D01*
X23955Y22906D01*
X23848Y23447D01*
X23542Y23905D01*
X23083Y24211D01*
X22542Y24319D01*
D02*
G37*
G36*
X19526Y21819D02*
X18986Y21711D01*
X18527Y21405D01*
X18309Y21078D01*
X18214Y21051D01*
X17848D01*
X17753Y21078D01*
X17535Y21405D01*
X17076Y21711D01*
X16535Y21819D01*
X15995Y21711D01*
X15536Y21405D01*
X15230Y20946D01*
X15123Y20406D01*
X15230Y19865D01*
X15536Y19407D01*
X15995Y19100D01*
X16535Y18993D01*
X17076Y19100D01*
X17535Y19407D01*
X17753Y19734D01*
X17848Y19760D01*
X18214D01*
X18309Y19734D01*
X18527Y19407D01*
X18986Y19100D01*
X19526Y18993D01*
X20067Y19100D01*
X20526Y19407D01*
X20832Y19865D01*
X20939Y20406D01*
X20832Y20946D01*
X20526Y21405D01*
X20067Y21711D01*
X19526Y21819D01*
D02*
G37*
G36*
X25542Y22083D02*
X25002Y21975D01*
X24543Y21669D01*
X24237Y21211D01*
X24129Y20670D01*
X24237Y20129D01*
X24543Y19671D01*
X25002Y19364D01*
X25542Y19257D01*
X26083Y19364D01*
X26542Y19671D01*
X26848Y20129D01*
X26955Y20670D01*
X26848Y21211D01*
X26542Y21669D01*
X26083Y21975D01*
X25542Y22083D01*
D02*
G37*
G36*
X8661Y21819D02*
X8121Y21711D01*
X7662Y21405D01*
X7356Y20946D01*
X7248Y20406D01*
X7356Y19865D01*
X7662Y19407D01*
X8121Y19100D01*
X8661Y18993D01*
X9202Y19100D01*
X9232Y19120D01*
X9687Y18846D01*
X9795Y18305D01*
X10101Y17846D01*
X10559Y17540D01*
X11100Y17433D01*
X11641Y17540D01*
X12099Y17846D01*
X12405Y18305D01*
X12513Y18846D01*
X12405Y19386D01*
X12099Y19845D01*
X11641Y20151D01*
X11100Y20259D01*
X10559Y20151D01*
X10530Y20131D01*
X10074Y20406D01*
X9967Y20946D01*
X9661Y21405D01*
X9202Y21711D01*
X8661Y21819D01*
D02*
G37*
G36*
X58242D02*
X57702Y21711D01*
X57243Y21405D01*
X56937Y20946D01*
X56830Y20406D01*
X56937Y19865D01*
X57243Y19407D01*
Y19105D01*
X56937Y18646D01*
X56830Y18106D01*
X56937Y17565D01*
X57243Y17107D01*
X57702Y16800D01*
X58242Y16693D01*
X58783Y16800D01*
X59242Y17107D01*
X59548Y17565D01*
X59655Y18106D01*
X59548Y18646D01*
X59242Y19105D01*
Y19407D01*
X59548Y19865D01*
X59655Y20406D01*
X59548Y20946D01*
X59242Y21405D01*
X58783Y21711D01*
X58242Y21819D01*
D02*
G37*
G36*
X15748Y16965D02*
X15208Y16857D01*
X14749Y16551D01*
X14443Y16093D01*
X14335Y15552D01*
X14443Y15011D01*
X14749Y14553D01*
X15208Y14246D01*
X15748Y14139D01*
X16289Y14246D01*
X16748Y14553D01*
X17054Y15011D01*
X17161Y15552D01*
X17054Y16093D01*
X16748Y16551D01*
X16289Y16857D01*
X15748Y16965D01*
D02*
G37*
G36*
X11417D02*
X10877Y16857D01*
X10418Y16551D01*
X10112Y16093D01*
X10005Y15552D01*
X10112Y15011D01*
X10418Y14553D01*
X10877Y14246D01*
X11417Y14139D01*
X11958Y14246D01*
X12417Y14553D01*
X12723Y15011D01*
X12830Y15552D01*
X12723Y16093D01*
X12417Y16551D01*
X11958Y16857D01*
X11417Y16965D01*
D02*
G37*
G36*
X60192Y16679D02*
X59652Y16571D01*
X59193Y16265D01*
X58887Y15807D01*
X58780Y15266D01*
X58887Y14725D01*
X59193Y14267D01*
X59652Y13960D01*
X60192Y13853D01*
X60733Y13960D01*
X61192Y14267D01*
X61498Y14725D01*
X61605Y15266D01*
X61498Y15807D01*
X61192Y16265D01*
X60733Y16571D01*
X60192Y16679D01*
D02*
G37*
G36*
X23342Y18819D02*
X22802Y18711D01*
X22343Y18405D01*
X22037Y17946D01*
X21929Y17406D01*
X22037Y16865D01*
X22343Y16407D01*
X22802Y16100D01*
X23342Y15993D01*
X23741Y15562D01*
X23730Y15506D01*
X23837Y14965D01*
X24143Y14507D01*
X24602Y14200D01*
X25142Y14093D01*
X25642Y14192D01*
X26137Y14265D01*
X26443Y13807D01*
X26902Y13500D01*
X27442Y13393D01*
X27983Y13500D01*
X28442Y13807D01*
X28748Y14265D01*
X28855Y14806D01*
X28748Y15347D01*
X28442Y15805D01*
X27983Y16111D01*
X27442Y16219D01*
X26943Y16119D01*
X26448Y16047D01*
X26142Y16505D01*
X25683Y16811D01*
X25142Y16919D01*
X24744Y17349D01*
X24755Y17406D01*
X24648Y17946D01*
X24342Y18405D01*
X23883Y18711D01*
X23342Y18819D01*
D02*
G37*
G36*
X55862Y16199D02*
X55322Y16091D01*
X54863Y15785D01*
X54557Y15326D01*
X54449Y14786D01*
X54557Y14245D01*
X54863Y13787D01*
X55322Y13480D01*
X55862Y13373D01*
X56403Y13480D01*
X56862Y13787D01*
X57168Y14245D01*
X57275Y14786D01*
X57168Y15326D01*
X56862Y15785D01*
X56403Y16091D01*
X55862Y16199D01*
D02*
G37*
G36*
X15748Y13421D02*
X15208Y13313D01*
X14749Y13007D01*
X14443Y12549D01*
X14335Y12008D01*
X14443Y11467D01*
X14749Y11009D01*
X15208Y10702D01*
X15748Y10595D01*
X16289Y10702D01*
X16748Y11009D01*
X17054Y11467D01*
X17161Y12008D01*
X17054Y12549D01*
X16748Y13007D01*
X16289Y13313D01*
X15748Y13421D01*
D02*
G37*
G36*
X11217D02*
X10677Y13313D01*
X10218Y13007D01*
X9912Y12549D01*
X9804Y12008D01*
X9912Y11467D01*
X10218Y11009D01*
X10677Y10702D01*
X11217Y10595D01*
X11758Y10702D01*
X12217Y11009D01*
X12523Y11467D01*
X12630Y12008D01*
X12523Y12549D01*
X12217Y13007D01*
X11758Y13313D01*
X11217Y13421D01*
D02*
G37*
G36*
X60142Y13119D02*
X59602Y13011D01*
X59143Y12705D01*
X58837Y12246D01*
X58729Y11706D01*
X58837Y11165D01*
X59143Y10707D01*
X59602Y10400D01*
X60142Y10293D01*
X60683Y10400D01*
X61142Y10707D01*
X61448Y11165D01*
X61555Y11706D01*
X61448Y12246D01*
X61142Y12705D01*
X60683Y13011D01*
X60142Y13119D01*
D02*
G37*
G36*
X27559Y12748D02*
X27019Y12640D01*
X26560Y12334D01*
X26254Y11875D01*
X26147Y11335D01*
X26254Y10794D01*
X26560Y10336D01*
X27019Y10029D01*
X27559Y9922D01*
X28100Y10029D01*
X28559Y10336D01*
X28865Y10794D01*
X28972Y11335D01*
X28865Y11875D01*
X28559Y12334D01*
X28100Y12640D01*
X27559Y12748D01*
D02*
G37*
G36*
X46850Y12634D02*
X46310Y12526D01*
X45851Y12220D01*
X45545Y11761D01*
X45437Y11221D01*
X45545Y10680D01*
X45851Y10222D01*
X45931Y10169D01*
X46009Y10077D01*
X45840Y9507D01*
X45587Y9409D01*
X45046Y9517D01*
X44506Y9409D01*
X44047Y9103D01*
X43741Y8644D01*
X43633Y8104D01*
X43741Y7563D01*
X44047Y7105D01*
X44506Y6798D01*
X45046Y6691D01*
X45587Y6798D01*
X46046Y7105D01*
X46352Y7563D01*
X46510Y7628D01*
X46702Y7500D01*
X47242Y7393D01*
X47783Y7500D01*
X48055Y7682D01*
X48581Y7796D01*
X49039Y7490D01*
X49580Y7382D01*
X50120Y7490D01*
X50579Y7796D01*
X50885Y8254D01*
X50993Y8795D01*
X50885Y9336D01*
X50579Y9794D01*
X50120Y10101D01*
X49580Y10208D01*
X49039Y10101D01*
X48767Y9919D01*
X48242Y9805D01*
X48162Y9858D01*
X47853Y10218D01*
X48035Y10499D01*
X48156Y10680D01*
X48263Y11221D01*
X48156Y11761D01*
X47850Y12220D01*
X47391Y12526D01*
X46850Y12634D01*
D02*
G37*
G36*
X7638Y11819D02*
X7098Y11711D01*
X6639Y11405D01*
X6333Y10947D01*
X6225Y10406D01*
X6333Y9865D01*
X6639Y9407D01*
X7098Y9100D01*
X7638Y8993D01*
X8179Y9100D01*
X8638Y9407D01*
X8944Y9865D01*
X9051Y10406D01*
X8944Y10947D01*
X8638Y11405D01*
X8179Y11711D01*
X7638Y11819D01*
D02*
G37*
G36*
X53000Y8413D02*
X52459Y8305D01*
X52001Y7999D01*
X51695Y7541D01*
X51587Y7000D01*
X51695Y6459D01*
X52001Y6001D01*
X52459Y5695D01*
X53000Y5587D01*
X53541Y5695D01*
X53999Y6001D01*
X54305Y6459D01*
X54413Y7000D01*
X54305Y7541D01*
X53999Y7999D01*
X53541Y8305D01*
X53000Y8413D01*
D02*
G37*
G36*
X42520Y7319D02*
X41980Y7211D01*
X41521Y6905D01*
X41215Y6447D01*
X41107Y5906D01*
X41215Y5365D01*
X41521Y4907D01*
X41980Y4600D01*
X42520Y4493D01*
X43061Y4600D01*
X43520Y4907D01*
X43826Y5365D01*
X43933Y5906D01*
X43826Y6447D01*
X43520Y6905D01*
X43061Y7211D01*
X42520Y7319D01*
D02*
G37*
G36*
X63642Y9219D02*
X63102Y9111D01*
X62643Y8805D01*
X62337Y8347D01*
X62230Y7806D01*
X62337Y7265D01*
X62533Y6972D01*
X62743Y6511D01*
X62437Y6053D01*
X62330Y5512D01*
X62437Y4971D01*
X62743Y4513D01*
X63202Y4206D01*
X63742Y4099D01*
X64283Y4206D01*
X64742Y4513D01*
X65048Y4971D01*
X65155Y5512D01*
X65048Y6053D01*
X64852Y6346D01*
X64642Y6807D01*
X64948Y7265D01*
X65055Y7806D01*
X64948Y8347D01*
X64642Y8805D01*
X64183Y9111D01*
X63642Y9219D01*
D02*
G37*
G36*
X73242Y6119D02*
X72702Y6011D01*
X72243Y5705D01*
X71937Y5246D01*
X71829Y4706D01*
X71937Y4165D01*
X72243Y3707D01*
X72702Y3400D01*
X73242Y3293D01*
X73783Y3400D01*
X74242Y3707D01*
X74548Y4165D01*
X74655Y4706D01*
X74548Y5246D01*
X74242Y5705D01*
X73783Y6011D01*
X73242Y6119D01*
D02*
G37*
G36*
X3950Y4563D02*
X3409Y4455D01*
X2951Y4149D01*
X2644Y3691D01*
X2537Y3150D01*
X2644Y2609D01*
X2951Y2151D01*
X3409Y1845D01*
X3950Y1737D01*
X4491Y1845D01*
X4949Y2151D01*
X5255Y2609D01*
X5363Y3150D01*
X5255Y3691D01*
X4949Y4149D01*
X4491Y4455D01*
X3950Y4563D01*
D02*
G37*
G36*
X3113Y88547D02*
X2573Y88439D01*
X2114Y88133D01*
X1808Y87674D01*
X1701Y87134D01*
X1808Y86593D01*
X2114Y86135D01*
X2573Y85828D01*
X3113Y85721D01*
X3654Y85828D01*
X3722Y85874D01*
X4082Y85513D01*
X4037Y85445D01*
X3929Y84905D01*
X4037Y84364D01*
X4343Y83906D01*
X4802Y83599D01*
X5342Y83492D01*
X5883Y83599D01*
X6342Y83906D01*
X6648Y84364D01*
X6755Y84905D01*
X6648Y85445D01*
X6342Y85904D01*
X5883Y86210D01*
X5342Y86318D01*
X4802Y86210D01*
X4734Y86165D01*
X4374Y86526D01*
X4419Y86593D01*
X4526Y87134D01*
X4419Y87674D01*
X4113Y88133D01*
X3654Y88439D01*
X3113Y88547D01*
D02*
G37*
G36*
X41914Y54590D02*
X41373Y54483D01*
X40915Y54177D01*
X40609Y53718D01*
X40501Y53177D01*
X40609Y52637D01*
X40915Y52178D01*
X41373Y51872D01*
X41914Y51765D01*
X42455Y51872D01*
X42913Y52178D01*
X43220Y52637D01*
X43327Y53177D01*
X43220Y53718D01*
X42913Y54177D01*
X42455Y54483D01*
X41914Y54590D01*
D02*
G37*
G36*
X6342Y51819D02*
X5802Y51711D01*
X5343Y51405D01*
X5037Y50946D01*
X4930Y50406D01*
X5037Y49865D01*
X5343Y49407D01*
X5802Y49100D01*
X6342Y48993D01*
X6883Y49100D01*
X7342Y49407D01*
X7648Y49865D01*
X7755Y50406D01*
X7648Y50946D01*
X7342Y51405D01*
X6883Y51711D01*
X6342Y51819D01*
D02*
G37*
G36*
X40542Y50619D02*
X40002Y50511D01*
X39543Y50205D01*
X39237Y49747D01*
X39129Y49206D01*
X39237Y48665D01*
X39543Y48207D01*
X40002Y47900D01*
X40542Y47793D01*
X41083Y47900D01*
X41542Y48207D01*
X41848Y48665D01*
X41955Y49206D01*
X41848Y49747D01*
X41542Y50205D01*
X41083Y50511D01*
X40542Y50619D01*
D02*
G37*
G36*
X9342Y45819D02*
X8802Y45711D01*
X8343Y45405D01*
X8037Y44947D01*
X7930Y44406D01*
X8037Y43865D01*
X8343Y43407D01*
X8802Y43100D01*
X9342Y42993D01*
X9883Y43100D01*
X10342Y43407D01*
X10648Y43865D01*
X10755Y44406D01*
X10648Y44947D01*
X10342Y45405D01*
X9883Y45711D01*
X9342Y45819D01*
D02*
G37*
G36*
X39000Y46413D02*
X38459Y46305D01*
X38001Y45999D01*
X37695Y45541D01*
X37587Y45000D01*
X37695Y44459D01*
X38001Y44001D01*
X38459Y43695D01*
X39000Y43587D01*
X39535Y43694D01*
X39622Y43257D01*
X39928Y42799D01*
X40387Y42493D01*
X40928Y42385D01*
X41468Y42493D01*
X41927Y42799D01*
X42233Y43257D01*
X42341Y43798D01*
X42233Y44339D01*
X41927Y44797D01*
X41468Y45103D01*
X40928Y45211D01*
X40392Y45105D01*
X40305Y45541D01*
X39999Y45999D01*
X39541Y46305D01*
X39000Y46413D01*
D02*
G37*
G36*
X27712Y44849D02*
X27172Y44741D01*
X26713Y44435D01*
X26407Y43977D01*
X26300Y43436D01*
X26407Y42895D01*
X26713Y42437D01*
X27172Y42130D01*
X27712Y42023D01*
X28253Y42130D01*
X28712Y42437D01*
X29018Y42895D01*
X29125Y43436D01*
X29018Y43977D01*
X28712Y44435D01*
X28253Y44741D01*
X27712Y44849D01*
D02*
G37*
G36*
X36811Y12831D02*
X36271Y12723D01*
X35812Y12417D01*
X35506Y11958D01*
X35399Y11418D01*
X35506Y10877D01*
X35812Y10419D01*
X36271Y10112D01*
X36811Y10005D01*
X37352Y10112D01*
X37811Y10419D01*
X38117Y10877D01*
X38224Y11418D01*
X38117Y11958D01*
X37811Y12417D01*
X37352Y12723D01*
X36811Y12831D01*
D02*
G37*
G36*
X33342Y12819D02*
X32802Y12711D01*
X32343Y12405D01*
X32037Y11947D01*
X31929Y11406D01*
X32037Y10865D01*
X32343Y10407D01*
X32421Y10355D01*
X32741Y10007D01*
X32549Y9714D01*
X32437Y9546D01*
X32329Y9006D01*
X32437Y8465D01*
X32743Y8007D01*
X33202Y7700D01*
X33742Y7593D01*
X34283Y7700D01*
X34742Y8007D01*
X35048Y8465D01*
X35155Y9006D01*
X35048Y9546D01*
X34742Y10005D01*
X34664Y10057D01*
X34344Y10404D01*
X34536Y10698D01*
X34648Y10865D01*
X34755Y11406D01*
X34648Y11947D01*
X34342Y12405D01*
X33883Y12711D01*
X33342Y12819D01*
D02*
G37*
%LPD*%
D10*
X-37381Y-26774D02*
Y-35433D01*
X-31608D01*
X-28722D02*
Y-29661D01*
X-25836Y-26774D01*
X-22950Y-29661D01*
Y-35433D01*
Y-31104D01*
X-28722D01*
X-20063Y-26774D02*
Y-28218D01*
X-17177Y-31104D01*
X-14291Y-28218D01*
Y-26774D01*
X-17177Y-31104D02*
Y-35433D01*
X-5632Y-26774D02*
X-11405D01*
Y-35433D01*
X-5632D01*
X-11405Y-31104D02*
X-8518D01*
X-2746Y-35433D02*
Y-26774D01*
X1583D01*
X3026Y-28218D01*
Y-31104D01*
X1583Y-32547D01*
X-2746D01*
X140D02*
X3026Y-35433D01*
X20344Y-26774D02*
X14571D01*
Y-31104D01*
X17457Y-29661D01*
X18900D01*
X20344Y-31104D01*
Y-33990D01*
X18900Y-35433D01*
X16014D01*
X14571Y-33990D01*
X31888Y-31104D02*
X37661D01*
X49206Y-35433D02*
Y-26774D01*
X53535D01*
X54978Y-28218D01*
Y-31104D01*
X53535Y-32547D01*
X49206D01*
X57864Y-26774D02*
Y-35433D01*
X60750Y-32547D01*
X63637Y-35433D01*
Y-26774D01*
X66523Y-35433D02*
Y-26774D01*
X70852D01*
X72295Y-28218D01*
Y-31104D01*
X70852Y-32547D01*
X66523D01*
X69409D02*
X72295Y-35433D01*
X83840Y-26774D02*
Y-35433D01*
X89613D01*
X92499D02*
Y-29661D01*
X95385Y-26774D01*
X98271Y-29661D01*
Y-35433D01*
Y-31104D01*
X92499D01*
X101157Y-26774D02*
Y-28218D01*
X104043Y-31104D01*
X106930Y-28218D01*
Y-26774D01*
X104043Y-31104D02*
Y-35433D01*
X115588Y-26774D02*
X109816D01*
Y-35433D01*
X115588D01*
X109816Y-31104D02*
X112702D01*
X118475Y-35433D02*
Y-26774D01*
X122804D01*
X124247Y-28218D01*
Y-31104D01*
X122804Y-32547D01*
X118475D01*
X121361D02*
X124247Y-35433D01*
D96*
X9842Y65906D02*
D03*
X54700Y11200D02*
D03*
X61909Y91142D02*
D03*
X39993Y77607D02*
D03*
X71800Y41300D02*
D03*
X49500Y80800D02*
D03*
X35042Y52343D02*
D03*
X35552Y49006D02*
D03*
X57300Y68700D02*
D03*
X69114Y63906D02*
D03*
X18342Y104907D02*
D03*
X42242Y50906D02*
D03*
X27559Y40775D02*
D03*
X19772Y49106D02*
D03*
X10039Y117406D02*
D03*
X2955Y73819D02*
D03*
X3575Y90677D02*
D03*
X18842Y9906D02*
D03*
X27570Y98406D02*
D03*
X35374Y98260D02*
D03*
X56342Y40706D02*
D03*
X74842Y82906D02*
D03*
X73852Y57756D02*
D03*
X80972Y73819D02*
D03*
X22842Y12402D02*
D03*
X36742Y8465D02*
D03*
X62142Y31506D02*
D03*
X6692Y26906D02*
D03*
X76842Y66406D02*
D03*
M02*
