G04*
G04 #@! TF.GenerationSoftware,Altium Limited,Altium Designer,20.1.11 (218)*
G04*
G04 Layer_Color=128*
%FSLAX25Y25*%
%MOIN*%
G70*
G04*
G04 #@! TF.SameCoordinates,49FD3369-56E0-4B66-BF1D-E122077B7428*
G04*
G04*
G04 #@! TF.FilePolarity,Positive*
G04*
G01*
G75*
%ADD10C,0.00984*%
%ADD11C,0.01000*%
G04:AMPARAMS|DCode=20|XSize=22.05mil|YSize=20.08mil|CornerRadius=5.02mil|HoleSize=0mil|Usage=FLASHONLY|Rotation=180.000|XOffset=0mil|YOffset=0mil|HoleType=Round|Shape=RoundedRectangle|*
%AMROUNDEDRECTD20*
21,1,0.02205,0.01004,0,0,180.0*
21,1,0.01201,0.02008,0,0,180.0*
1,1,0.01004,-0.00600,0.00502*
1,1,0.01004,0.00600,0.00502*
1,1,0.01004,0.00600,-0.00502*
1,1,0.01004,-0.00600,-0.00502*
%
%ADD20ROUNDEDRECTD20*%
G04:AMPARAMS|DCode=27|XSize=22.05mil|YSize=20.08mil|CornerRadius=5.02mil|HoleSize=0mil|Usage=FLASHONLY|Rotation=90.000|XOffset=0mil|YOffset=0mil|HoleType=Round|Shape=RoundedRectangle|*
%AMROUNDEDRECTD27*
21,1,0.02205,0.01004,0,0,90.0*
21,1,0.01201,0.02008,0,0,90.0*
1,1,0.01004,0.00502,0.00600*
1,1,0.01004,0.00502,-0.00600*
1,1,0.01004,-0.00502,-0.00600*
1,1,0.01004,-0.00502,0.00600*
%
%ADD27ROUNDEDRECTD27*%
%ADD97R,0.04331X0.08661*%
%ADD98R,0.05118X0.12008*%
%ADD99R,0.01181X0.03150*%
%ADD100C,0.00787*%
%ADD101R,0.02055X0.02362*%
%ADD102R,0.03110X0.01024*%
%ADD103R,0.01024X0.03110*%
%ADD104R,0.10630X0.10236*%
G04:AMPARAMS|DCode=105|XSize=9.84mil|YSize=43.31mil|CornerRadius=2.46mil|HoleSize=0mil|Usage=FLASHONLY|Rotation=270.000|XOffset=0mil|YOffset=0mil|HoleType=Round|Shape=RoundedRectangle|*
%AMROUNDEDRECTD105*
21,1,0.00984,0.03839,0,0,270.0*
21,1,0.00492,0.04331,0,0,270.0*
1,1,0.00492,-0.01919,-0.00246*
1,1,0.00492,-0.01919,0.00246*
1,1,0.00492,0.01919,0.00246*
1,1,0.00492,0.01919,-0.00246*
%
%ADD105ROUNDEDRECTD105*%
G36*
X37633Y62244D02*
X41417D01*
Y65826D01*
X37633D01*
Y62244D01*
D02*
G37*
G36*
X37633Y66850D02*
X41417D01*
Y70438D01*
X37633D01*
Y66850D01*
D02*
G37*
G36*
X42442Y62244D02*
X46220D01*
Y65826D01*
X42442D01*
Y62244D01*
D02*
G37*
G36*
X42441Y66850D02*
X46220D01*
Y70434D01*
X42441D01*
Y66850D01*
D02*
G37*
D10*
X-33600Y-26441D02*
Y-35100D01*
X-29271D01*
X-27828Y-33657D01*
Y-32214D01*
X-29271Y-30771D01*
X-33600D01*
X-29271D01*
X-27828Y-29328D01*
Y-27885D01*
X-29271Y-26441D01*
X-33600D01*
X-20612D02*
X-23498D01*
X-24941Y-27885D01*
Y-33657D01*
X-23498Y-35100D01*
X-20612D01*
X-19169Y-33657D01*
Y-27885D01*
X-20612Y-26441D01*
X-16283D02*
X-10510D01*
X-13397D01*
Y-35100D01*
X-7624Y-26441D02*
X-1852D01*
X-4738D01*
Y-35100D01*
X5364Y-26441D02*
X2478D01*
X1034Y-27885D01*
Y-33657D01*
X2478Y-35100D01*
X5364D01*
X6807Y-33657D01*
Y-27885D01*
X5364Y-26441D01*
X9693Y-35100D02*
Y-26441D01*
X12579Y-29328D01*
X15465Y-26441D01*
Y-35100D01*
X27010D02*
Y-26441D01*
X31340D01*
X32783Y-27885D01*
Y-30771D01*
X31340Y-32214D01*
X27010D01*
X35669Y-35100D02*
Y-29328D01*
X38555Y-26441D01*
X41441Y-29328D01*
Y-35100D01*
Y-30771D01*
X35669D01*
X50100Y-27885D02*
X48657Y-26441D01*
X45771D01*
X44328Y-27885D01*
Y-29328D01*
X45771Y-30771D01*
X48657D01*
X50100Y-32214D01*
Y-33657D01*
X48657Y-35100D01*
X45771D01*
X44328Y-33657D01*
X52986Y-26441D02*
X58759D01*
X55872D01*
Y-35100D01*
X67417Y-26441D02*
X61645D01*
Y-35100D01*
X67417D01*
X61645Y-30771D02*
X64531D01*
X78962Y-35100D02*
Y-26441D01*
X81848Y-29328D01*
X84734Y-26441D01*
Y-35100D01*
X87621D02*
Y-29328D01*
X90507Y-26441D01*
X93393Y-29328D01*
Y-35100D01*
Y-30771D01*
X87621D01*
X102052Y-27885D02*
X100609Y-26441D01*
X97722D01*
X96279Y-27885D01*
Y-29328D01*
X97722Y-30771D01*
X100609D01*
X102052Y-32214D01*
Y-33657D01*
X100609Y-35100D01*
X97722D01*
X96279Y-33657D01*
X104938Y-26441D02*
Y-35100D01*
Y-32214D01*
X110710Y-26441D01*
X106381Y-30771D01*
X110710Y-35100D01*
D11*
X68047Y74906D02*
G03*
X68047Y74906I-3000J0D01*
G01*
D20*
X46900Y80828D02*
D03*
Y84372D02*
D03*
X43100Y80828D02*
D03*
Y84372D02*
D03*
X54200Y71272D02*
D03*
Y67728D02*
D03*
D27*
X69114Y66405D02*
D03*
X65571D02*
D03*
X72114Y82905D02*
D03*
X68571D02*
D03*
D97*
X76378Y100787D02*
D03*
X7480D02*
D03*
D98*
X72047Y102461D02*
D03*
X11811D02*
D03*
D99*
X64567Y94882D02*
D03*
X62598D02*
D03*
X60630D02*
D03*
X58661D02*
D03*
X56693D02*
D03*
X54724D02*
D03*
X52756D02*
D03*
X50787D02*
D03*
X48819D02*
D03*
X46850D02*
D03*
X44882D02*
D03*
X42913D02*
D03*
X40945D02*
D03*
X38976D02*
D03*
X37008D02*
D03*
X35039D02*
D03*
X33071D02*
D03*
X31102D02*
D03*
X29134D02*
D03*
X27165D02*
D03*
X25197D02*
D03*
X23228D02*
D03*
X21260D02*
D03*
X19291D02*
D03*
D100*
X65047Y71906D02*
D03*
X65047Y77906D02*
D03*
D101*
X73213Y71363D02*
D03*
Y78449D02*
D03*
X69976D02*
D03*
Y71363D02*
D03*
X73213Y74906D02*
D03*
D102*
X34173Y61417D02*
D03*
Y63386D02*
D03*
Y65354D02*
D03*
Y67323D02*
D03*
Y69291D02*
D03*
Y71260D02*
D03*
X49685D02*
D03*
Y69291D02*
D03*
Y67323D02*
D03*
Y65354D02*
D03*
Y63386D02*
D03*
Y61417D02*
D03*
D103*
X37008Y74094D02*
D03*
X38976D02*
D03*
X40945D02*
D03*
X42913D02*
D03*
X44882D02*
D03*
X46850D02*
D03*
Y58583D02*
D03*
X44882D02*
D03*
X42913D02*
D03*
X40945D02*
D03*
X38976D02*
D03*
X37008D02*
D03*
D104*
X41929Y66338D02*
D03*
D105*
X31083Y19685D02*
D03*
Y21654D02*
D03*
X52776Y19685D02*
D03*
Y21654D02*
D03*
X31083Y41339D02*
D03*
X52776D02*
D03*
Y39370D02*
D03*
X31083D02*
D03*
X52776Y37402D02*
D03*
X31083D02*
D03*
X52776Y35433D02*
D03*
X31083D02*
D03*
X52776Y33465D02*
D03*
X31083D02*
D03*
X52776Y31496D02*
D03*
X31083D02*
D03*
X52776Y29528D02*
D03*
X31083D02*
D03*
X52776Y27559D02*
D03*
X31083D02*
D03*
X52776Y25591D02*
D03*
X31083D02*
D03*
X52776Y23622D02*
D03*
X31083D02*
D03*
X52776Y17717D02*
D03*
X31083D02*
D03*
X52776Y15748D02*
D03*
X31083D02*
D03*
X52776Y13780D02*
D03*
X31083D02*
D03*
M02*
