G04*
G04 #@! TF.GenerationSoftware,Altium Limited,Altium Designer,20.1.11 (218)*
G04*
G04 Layer_Color=32896*
%FSLAX25Y25*%
%MOIN*%
G70*
G04*
G04 #@! TF.SameCoordinates,49FD3369-56E0-4B66-BF1D-E122077B7428*
G04*
G04*
G04 #@! TF.FilePolarity,Positive*
G04*
G01*
G75*
%ADD10C,0.00984*%
%ADD11C,0.01000*%
%ADD12C,0.00787*%
%ADD13C,0.00394*%
%ADD15C,0.00500*%
G36*
X18082Y74716D02*
X18464D01*
Y74684D01*
X18719D01*
Y74652D01*
X18910D01*
Y74621D01*
X19069D01*
Y74589D01*
X19197D01*
Y74557D01*
X19324D01*
Y74525D01*
X19451D01*
Y74493D01*
X19579D01*
Y74462D01*
X19674D01*
Y74430D01*
X19770D01*
Y74398D01*
X19865D01*
Y74366D01*
X19961D01*
Y74334D01*
X20056D01*
Y74302D01*
X20120D01*
Y74270D01*
X20216D01*
Y74239D01*
X20279D01*
Y74207D01*
X20375D01*
Y74175D01*
X20439D01*
Y74143D01*
X20502D01*
Y74111D01*
X20566D01*
Y74079D01*
X20662D01*
Y74047D01*
X20725D01*
Y74016D01*
X20789D01*
Y73984D01*
X20853D01*
Y73952D01*
X20916D01*
Y73920D01*
X20948D01*
Y73888D01*
X21012D01*
Y73857D01*
X21075D01*
Y73825D01*
X21139D01*
Y73793D01*
X21203D01*
Y73761D01*
X21235D01*
Y73729D01*
X21298D01*
Y73697D01*
X21362D01*
Y73665D01*
X21394D01*
Y73634D01*
X21458D01*
Y73602D01*
X21521D01*
Y73570D01*
X21553D01*
Y73538D01*
X21617D01*
Y73506D01*
X21649D01*
Y73474D01*
X21712D01*
Y73443D01*
X21744D01*
Y73411D01*
X21808D01*
Y73379D01*
X21840D01*
Y73347D01*
X21903D01*
Y73315D01*
X21935D01*
Y73283D01*
X21999D01*
Y73251D01*
X22031D01*
Y73220D01*
X22063D01*
Y73188D01*
X22126D01*
Y73156D01*
X22158D01*
Y73124D01*
X22222D01*
Y73092D01*
X22254D01*
Y73060D01*
X22286D01*
Y73028D01*
X22317D01*
Y72997D01*
X22381D01*
Y72965D01*
X22413D01*
Y72933D01*
X22445D01*
Y72901D01*
X22508D01*
Y72869D01*
X22540D01*
Y72838D01*
X22572D01*
Y72806D01*
X22604D01*
Y72774D01*
X22636D01*
Y72742D01*
X22700D01*
Y72710D01*
X22731D01*
Y72678D01*
X22763D01*
Y72646D01*
X22795D01*
Y72615D01*
X22827D01*
Y72583D01*
X22859D01*
Y72551D01*
X22922D01*
Y72519D01*
X22954D01*
Y72487D01*
X22986D01*
Y72455D01*
X23018D01*
Y72423D01*
X23050D01*
Y72392D01*
X23082D01*
Y72360D01*
X23113D01*
Y72328D01*
X23145D01*
Y72296D01*
X23177D01*
Y72264D01*
X23209D01*
Y72232D01*
X23273D01*
Y72201D01*
X23304D01*
Y72169D01*
X23336D01*
Y72137D01*
X23368D01*
Y72105D01*
X23400D01*
Y72073D01*
X23432D01*
Y72041D01*
X23464D01*
Y72009D01*
X23496D01*
Y71978D01*
X23527D01*
Y71946D01*
X23559D01*
Y71914D01*
X23591D01*
Y71882D01*
X23623D01*
Y71850D01*
X23655D01*
Y71819D01*
X23687D01*
Y71787D01*
X23719D01*
Y71755D01*
X23750D01*
Y71723D01*
X23782D01*
Y71691D01*
X23814D01*
Y71659D01*
Y71627D01*
X23846D01*
Y71596D01*
X23878D01*
Y71564D01*
X23910D01*
Y71532D01*
X23941D01*
Y71500D01*
X23973D01*
Y71468D01*
X24005D01*
Y71436D01*
X24037D01*
Y71404D01*
X24069D01*
Y71373D01*
X24101D01*
Y71341D01*
X24132D01*
Y71309D01*
X24164D01*
Y71277D01*
Y71245D01*
X24196D01*
Y71213D01*
X24228D01*
Y71182D01*
X24260D01*
Y71150D01*
X24292D01*
Y71118D01*
X24324D01*
Y71086D01*
X24355D01*
Y71054D01*
X24387D01*
Y71022D01*
Y70991D01*
X24419D01*
Y70959D01*
X24451D01*
Y70927D01*
X24483D01*
Y70895D01*
X24515D01*
Y70863D01*
X24546D01*
Y70831D01*
X24578D01*
Y70799D01*
Y70768D01*
X24610D01*
Y70736D01*
X24642D01*
Y70704D01*
X24674D01*
Y70672D01*
X24706D01*
Y70640D01*
Y70608D01*
X24737D01*
Y70577D01*
X24769D01*
Y70545D01*
X24801D01*
Y70513D01*
X24833D01*
Y70481D01*
Y70449D01*
X24865D01*
Y70417D01*
X24897D01*
Y70385D01*
X24928D01*
Y70354D01*
X24960D01*
Y70322D01*
Y70290D01*
X24992D01*
Y70258D01*
X25024D01*
Y70226D01*
X25056D01*
Y70194D01*
X25088D01*
Y70163D01*
Y70131D01*
X25120D01*
Y70099D01*
X25151D01*
Y70067D01*
X25183D01*
Y70035D01*
Y70003D01*
X25215D01*
Y69972D01*
X25247D01*
Y69940D01*
Y69908D01*
X25215D01*
Y69876D01*
X25183D01*
Y69844D01*
Y69812D01*
X25151D01*
Y69780D01*
X25120D01*
Y69749D01*
Y69717D01*
X25088D01*
Y69685D01*
X25056D01*
Y69653D01*
Y69621D01*
X25024D01*
Y69589D01*
X24992D01*
Y69558D01*
X24960D01*
Y69526D01*
Y69494D01*
X24928D01*
Y69462D01*
X24897D01*
Y69430D01*
Y69398D01*
X24865D01*
Y69367D01*
X24833D01*
Y69335D01*
X24801D01*
Y69303D01*
X24769D01*
Y69271D01*
Y69239D01*
X24737D01*
Y69207D01*
X24706D01*
Y69175D01*
X24674D01*
Y69144D01*
Y69112D01*
X24642D01*
Y69080D01*
X24610D01*
Y69048D01*
X24578D01*
Y69016D01*
X24546D01*
Y68984D01*
Y68953D01*
X24515D01*
Y68921D01*
X24483D01*
Y68889D01*
X24451D01*
Y68857D01*
X24419D01*
Y68825D01*
X24387D01*
Y68793D01*
Y68761D01*
X24355D01*
Y68730D01*
X24324D01*
Y68698D01*
X24292D01*
Y68666D01*
X24260D01*
Y68634D01*
X24228D01*
Y68602D01*
X24196D01*
Y68570D01*
X24164D01*
Y68539D01*
Y68507D01*
X24132D01*
Y68475D01*
X24101D01*
Y68443D01*
X24069D01*
Y68411D01*
X24037D01*
Y68379D01*
X24005D01*
Y68348D01*
X23973D01*
Y68316D01*
X23941D01*
Y68284D01*
X23910D01*
Y68252D01*
X23878D01*
Y68220D01*
X23846D01*
Y68188D01*
X23814D01*
Y68156D01*
X23782D01*
Y68125D01*
X23750D01*
Y68093D01*
X23719D01*
Y68061D01*
X23687D01*
Y68029D01*
Y67997D01*
X23655D01*
Y67965D01*
X23623D01*
Y67933D01*
X23591D01*
Y67902D01*
X23559D01*
Y67870D01*
X23527D01*
Y67838D01*
X23464D01*
Y67806D01*
X23432D01*
Y67774D01*
X23400D01*
Y67743D01*
X23368D01*
Y67711D01*
X23336D01*
Y67679D01*
X23304D01*
Y67647D01*
X23273D01*
Y67615D01*
X23241D01*
Y67583D01*
X23209D01*
Y67551D01*
X23177D01*
Y67520D01*
X23145D01*
Y67488D01*
X23113D01*
Y67456D01*
X23082D01*
Y67424D01*
X23050D01*
Y67392D01*
X22986D01*
Y67360D01*
X22954D01*
Y67329D01*
X22922D01*
Y67297D01*
X22891D01*
Y67265D01*
X22859D01*
Y67233D01*
X22827D01*
Y67201D01*
X22763D01*
Y67169D01*
X22731D01*
Y67137D01*
X22700D01*
Y67106D01*
X22668D01*
Y67074D01*
X22636D01*
Y67042D01*
X22572D01*
Y67010D01*
X22540D01*
Y66978D01*
X22508D01*
Y66946D01*
X22477D01*
Y66914D01*
X22413D01*
Y66883D01*
X22381D01*
Y66851D01*
X22349D01*
Y66819D01*
X22286D01*
Y66787D01*
X22254D01*
Y66755D01*
X22222D01*
Y66724D01*
X22158D01*
Y66692D01*
X22126D01*
Y66660D01*
X22094D01*
Y66628D01*
X22031D01*
Y66596D01*
X21999D01*
Y66564D01*
X21935D01*
Y66532D01*
X21903D01*
Y66501D01*
X21871D01*
Y66469D01*
X21808D01*
Y66437D01*
X21776D01*
Y66405D01*
X21712D01*
Y66373D01*
X21680D01*
Y66341D01*
X21617D01*
Y66309D01*
X21585D01*
Y66278D01*
X21521D01*
Y66246D01*
X21458D01*
Y66214D01*
X21426D01*
Y66182D01*
X21362D01*
Y66150D01*
X21298D01*
Y66118D01*
X21267D01*
Y66087D01*
X21203D01*
Y66055D01*
X21139D01*
Y66023D01*
X21075D01*
Y65991D01*
X21044D01*
Y65959D01*
X20980D01*
Y65927D01*
X20916D01*
Y65895D01*
X20853D01*
Y65864D01*
X20789D01*
Y65832D01*
X20725D01*
Y65800D01*
X20662D01*
Y65768D01*
X20598D01*
Y65736D01*
X20534D01*
Y65705D01*
X20470D01*
Y65673D01*
X20375D01*
Y65641D01*
X20311D01*
Y65609D01*
X20247D01*
Y65577D01*
X20152D01*
Y65545D01*
X20088D01*
Y65513D01*
X19993D01*
Y65482D01*
X19929D01*
Y65450D01*
X19834D01*
Y65418D01*
X19738D01*
Y65386D01*
X19643D01*
Y65354D01*
X19547D01*
Y65322D01*
X19420D01*
Y65290D01*
X19324D01*
Y65259D01*
X19197D01*
Y65227D01*
X19069D01*
Y65195D01*
X18910D01*
Y65163D01*
X18751D01*
Y65131D01*
X18528D01*
Y65099D01*
X18273D01*
Y65068D01*
X17827D01*
Y65036D01*
X17477D01*
Y65068D01*
X17031D01*
Y65099D01*
X16777D01*
Y65131D01*
X16586D01*
Y65163D01*
X16426D01*
Y65195D01*
X16267D01*
Y65227D01*
X16140D01*
Y65259D01*
X16012D01*
Y65290D01*
X15917D01*
Y65322D01*
X15821D01*
Y65354D01*
X15726D01*
Y65386D01*
X15630D01*
Y65418D01*
X15535D01*
Y65450D01*
X15439D01*
Y65482D01*
X15375D01*
Y65513D01*
X15280D01*
Y65545D01*
X15216D01*
Y65577D01*
X15121D01*
Y65609D01*
X15057D01*
Y65641D01*
X14993D01*
Y65673D01*
X14930D01*
Y65705D01*
X14866D01*
Y65736D01*
X14802D01*
Y65768D01*
X14739D01*
Y65800D01*
X14675D01*
Y65832D01*
X14611D01*
Y65864D01*
X14548D01*
Y65895D01*
X14484D01*
Y65927D01*
X14420D01*
Y65959D01*
X14388D01*
Y65991D01*
X14325D01*
Y66023D01*
X14261D01*
Y66055D01*
X14229D01*
Y66087D01*
X14165D01*
Y66118D01*
X14102D01*
Y66150D01*
X14070D01*
Y66182D01*
X14006D01*
Y66214D01*
X13974D01*
Y66246D01*
X13911D01*
Y66278D01*
X13879D01*
Y66309D01*
X13815D01*
Y66341D01*
X13783D01*
Y66373D01*
X13751D01*
Y66405D01*
X13688D01*
Y66437D01*
X13656D01*
Y66469D01*
X13592D01*
Y66501D01*
X13560D01*
Y66532D01*
X13529D01*
Y66564D01*
X13465D01*
Y66596D01*
X13433D01*
Y66628D01*
X13401D01*
Y66660D01*
X13337D01*
Y66692D01*
X13306D01*
Y66724D01*
X13274D01*
Y66755D01*
X13242D01*
Y66787D01*
X13178D01*
Y66819D01*
X13146D01*
Y66851D01*
X13115D01*
Y66883D01*
X13083D01*
Y66914D01*
X13051D01*
Y66946D01*
X13019D01*
Y66978D01*
X12955D01*
Y67010D01*
X12923D01*
Y67042D01*
X12892D01*
Y67074D01*
X12860D01*
Y67106D01*
X12828D01*
Y67137D01*
X12796D01*
Y67169D01*
X12764D01*
Y67201D01*
X12732D01*
Y67233D01*
X12669D01*
Y67265D01*
X12637D01*
Y67297D01*
X12605D01*
Y67329D01*
X12573D01*
Y67360D01*
X12541D01*
Y67392D01*
X12509D01*
Y67424D01*
X12478D01*
Y67456D01*
X12446D01*
Y67488D01*
X12414D01*
Y67520D01*
X12382D01*
Y67551D01*
X12350D01*
Y67583D01*
X12318D01*
Y67615D01*
X12287D01*
Y67647D01*
X12255D01*
Y67679D01*
X12223D01*
Y67711D01*
X12191D01*
Y67743D01*
X12159D01*
Y67774D01*
X12127D01*
Y67806D01*
X12095D01*
Y67838D01*
X12064D01*
Y67870D01*
X12032D01*
Y67902D01*
Y67933D01*
X12000D01*
Y67965D01*
X11968D01*
Y67997D01*
X11936D01*
Y68029D01*
X11904D01*
Y68061D01*
X11873D01*
Y68093D01*
X11841D01*
Y68125D01*
X11809D01*
Y68156D01*
X11777D01*
Y68188D01*
X11745D01*
Y68220D01*
Y68252D01*
X11713D01*
Y68284D01*
X11682D01*
Y68316D01*
X11650D01*
Y68348D01*
X11618D01*
Y68379D01*
X11586D01*
Y68411D01*
X11554D01*
Y68443D01*
Y68475D01*
X11522D01*
Y68507D01*
X11490D01*
Y68539D01*
X11459D01*
Y68570D01*
X11427D01*
Y68602D01*
X11395D01*
Y68634D01*
Y68666D01*
X11363D01*
Y68698D01*
X11331D01*
Y68730D01*
X11299D01*
Y68761D01*
X11268D01*
Y68793D01*
Y68825D01*
X11236D01*
Y68857D01*
X11204D01*
Y68889D01*
X11172D01*
Y68921D01*
X11140D01*
Y68953D01*
Y68984D01*
X11108D01*
Y69016D01*
X11077D01*
Y69048D01*
X11045D01*
Y69080D01*
Y69112D01*
X11013D01*
Y69144D01*
X10981D01*
Y69175D01*
X10949D01*
Y69207D01*
Y69239D01*
X10917D01*
Y69271D01*
X10886D01*
Y69303D01*
X10854D01*
Y69335D01*
Y69367D01*
X10822D01*
Y69398D01*
X10790D01*
Y69430D01*
X10758D01*
Y69462D01*
Y69494D01*
X10726D01*
Y69526D01*
X10694D01*
Y69558D01*
Y69589D01*
X10662D01*
Y69621D01*
X10631D01*
Y69653D01*
X10599D01*
Y69685D01*
Y69717D01*
X10567D01*
Y69749D01*
X10535D01*
Y69780D01*
Y69812D01*
X10503D01*
Y69844D01*
X10471D01*
Y69876D01*
X10440D01*
Y69908D01*
Y69940D01*
X10471D01*
Y69972D01*
X10503D01*
Y70003D01*
Y70035D01*
X10535D01*
Y70067D01*
Y70099D01*
X10567D01*
Y70131D01*
X10599D01*
Y70163D01*
Y70194D01*
X10631D01*
Y70226D01*
X10662D01*
Y70258D01*
Y70290D01*
X10694D01*
Y70322D01*
X10726D01*
Y70354D01*
Y70385D01*
X10758D01*
Y70417D01*
X10790D01*
Y70449D01*
Y70481D01*
X10822D01*
Y70513D01*
X10854D01*
Y70545D01*
X10886D01*
Y70577D01*
Y70608D01*
X10917D01*
Y70640D01*
X10949D01*
Y70672D01*
X10981D01*
Y70704D01*
Y70736D01*
X11013D01*
Y70768D01*
X11045D01*
Y70799D01*
X11077D01*
Y70831D01*
Y70863D01*
X11108D01*
Y70895D01*
X11140D01*
Y70927D01*
X11172D01*
Y70959D01*
Y70991D01*
X11204D01*
Y71022D01*
X11236D01*
Y71054D01*
X11268D01*
Y71086D01*
X11299D01*
Y71118D01*
X11331D01*
Y71150D01*
Y71182D01*
X11363D01*
Y71213D01*
X11395D01*
Y71245D01*
X11427D01*
Y71277D01*
X11459D01*
Y71309D01*
X11490D01*
Y71341D01*
Y71373D01*
X11522D01*
Y71404D01*
X11554D01*
Y71436D01*
X11586D01*
Y71468D01*
X11618D01*
Y71500D01*
X11650D01*
Y71532D01*
X11682D01*
Y71564D01*
X11713D01*
Y71596D01*
Y71627D01*
X11745D01*
Y71659D01*
X11777D01*
Y71691D01*
X11809D01*
Y71723D01*
X11841D01*
Y71755D01*
X11873D01*
Y71787D01*
X11904D01*
Y71819D01*
X11936D01*
Y71850D01*
X11968D01*
Y71882D01*
X12000D01*
Y71914D01*
X12032D01*
Y71946D01*
X12064D01*
Y71978D01*
X12095D01*
Y72009D01*
X12127D01*
Y72041D01*
X12159D01*
Y72073D01*
X12191D01*
Y72105D01*
X12223D01*
Y72137D01*
X12255D01*
Y72169D01*
X12287D01*
Y72201D01*
X12318D01*
Y72232D01*
X12350D01*
Y72264D01*
X12382D01*
Y72296D01*
X12414D01*
Y72328D01*
X12446D01*
Y72360D01*
X12478D01*
Y72392D01*
X12509D01*
Y72423D01*
X12541D01*
Y72455D01*
X12573D01*
Y72487D01*
X12637D01*
Y72519D01*
X12669D01*
Y72551D01*
X12700D01*
Y72583D01*
X12732D01*
Y72615D01*
X12764D01*
Y72646D01*
X12796D01*
Y72678D01*
X12828D01*
Y72710D01*
X12892D01*
Y72742D01*
X12923D01*
Y72774D01*
X12955D01*
Y72806D01*
X12987D01*
Y72838D01*
X13019D01*
Y72869D01*
X13083D01*
Y72901D01*
X13115D01*
Y72933D01*
X13146D01*
Y72965D01*
X13178D01*
Y72997D01*
X13242D01*
Y73028D01*
X13274D01*
Y73060D01*
X13306D01*
Y73092D01*
X13369D01*
Y73124D01*
X13401D01*
Y73156D01*
X13433D01*
Y73188D01*
X13497D01*
Y73220D01*
X13529D01*
Y73251D01*
X13560D01*
Y73283D01*
X13624D01*
Y73315D01*
X13656D01*
Y73347D01*
X13720D01*
Y73379D01*
X13751D01*
Y73411D01*
X13815D01*
Y73443D01*
X13847D01*
Y73474D01*
X13911D01*
Y73506D01*
X13942D01*
Y73538D01*
X14006D01*
Y73570D01*
X14038D01*
Y73602D01*
X14102D01*
Y73634D01*
X14133D01*
Y73665D01*
X14197D01*
Y73697D01*
X14261D01*
Y73729D01*
X14325D01*
Y73761D01*
X14356D01*
Y73793D01*
X14420D01*
Y73825D01*
X14484D01*
Y73857D01*
X14548D01*
Y73888D01*
X14611D01*
Y73920D01*
X14643D01*
Y73952D01*
X14707D01*
Y73984D01*
X14770D01*
Y74016D01*
X14834D01*
Y74047D01*
X14930D01*
Y74079D01*
X14993D01*
Y74111D01*
X15057D01*
Y74143D01*
X15121D01*
Y74175D01*
X15184D01*
Y74207D01*
X15280D01*
Y74239D01*
X15344D01*
Y74270D01*
X15439D01*
Y74302D01*
X15503D01*
Y74334D01*
X15598D01*
Y74366D01*
X15694D01*
Y74398D01*
X15789D01*
Y74430D01*
X15885D01*
Y74462D01*
X15980D01*
Y74493D01*
X16108D01*
Y74525D01*
X16235D01*
Y74557D01*
X16363D01*
Y74589D01*
X16490D01*
Y74621D01*
X16681D01*
Y74652D01*
X16872D01*
Y74684D01*
X17095D01*
Y74716D01*
X17477D01*
Y74748D01*
X18082D01*
Y74716D01*
D02*
G37*
G36*
X28048Y63978D02*
Y63963D01*
Y63948D01*
Y63934D01*
Y63919D01*
Y63904D01*
Y63890D01*
Y63875D01*
Y63860D01*
Y63846D01*
Y63831D01*
Y63816D01*
Y63802D01*
Y63787D01*
Y63772D01*
Y63758D01*
Y63743D01*
Y63728D01*
Y63714D01*
Y63699D01*
Y63684D01*
Y63670D01*
Y63655D01*
Y63640D01*
X27697D01*
Y63655D01*
Y63670D01*
Y63684D01*
Y63699D01*
Y63714D01*
Y63728D01*
Y63743D01*
Y63758D01*
Y63772D01*
Y63787D01*
Y63802D01*
Y63816D01*
Y63831D01*
Y63846D01*
Y63860D01*
Y63875D01*
Y63890D01*
Y63904D01*
Y63919D01*
Y63934D01*
Y63948D01*
Y63963D01*
Y63978D01*
Y63992D01*
X28048D01*
Y63978D01*
D02*
G37*
G36*
X19955Y64051D02*
Y64036D01*
Y64022D01*
Y64007D01*
Y63992D01*
Y63978D01*
Y63963D01*
Y63948D01*
Y63934D01*
Y63919D01*
Y63904D01*
Y63890D01*
Y63875D01*
Y63860D01*
Y63846D01*
Y63831D01*
Y63816D01*
Y63802D01*
Y63787D01*
Y63772D01*
Y63758D01*
Y63743D01*
Y63728D01*
Y63714D01*
Y63699D01*
Y63684D01*
Y63670D01*
Y63655D01*
Y63640D01*
Y63626D01*
Y63611D01*
Y63597D01*
Y63582D01*
Y63567D01*
Y63553D01*
Y63538D01*
Y63523D01*
Y63509D01*
Y63494D01*
Y63479D01*
Y63465D01*
Y63450D01*
Y63435D01*
Y63421D01*
Y63406D01*
Y63391D01*
Y63377D01*
Y63362D01*
Y63347D01*
Y63333D01*
Y63318D01*
X19222D01*
Y63333D01*
Y63347D01*
Y63362D01*
Y63377D01*
Y63391D01*
Y63406D01*
Y63421D01*
Y63435D01*
Y63450D01*
Y63465D01*
Y63479D01*
Y63494D01*
Y63509D01*
Y63523D01*
Y63538D01*
Y63553D01*
Y63567D01*
Y63582D01*
Y63597D01*
Y63611D01*
Y63626D01*
Y63640D01*
Y63655D01*
Y63670D01*
Y63684D01*
Y63699D01*
Y63714D01*
Y63728D01*
Y63743D01*
Y63758D01*
Y63772D01*
Y63787D01*
Y63802D01*
Y63816D01*
Y63831D01*
Y63846D01*
Y63860D01*
Y63875D01*
Y63890D01*
Y63904D01*
Y63919D01*
Y63934D01*
Y63948D01*
Y63963D01*
Y63978D01*
Y63992D01*
Y64007D01*
Y64022D01*
Y64036D01*
Y64051D01*
Y64066D01*
X19955D01*
Y64051D01*
D02*
G37*
G36*
X16158D02*
Y64036D01*
Y64022D01*
Y64007D01*
Y63992D01*
Y63978D01*
Y63963D01*
Y63948D01*
Y63934D01*
Y63919D01*
Y63904D01*
Y63890D01*
Y63875D01*
Y63860D01*
Y63846D01*
Y63831D01*
Y63816D01*
Y63802D01*
Y63787D01*
Y63772D01*
Y63758D01*
Y63743D01*
Y63728D01*
Y63714D01*
Y63699D01*
Y63684D01*
Y63670D01*
Y63655D01*
Y63640D01*
Y63626D01*
Y63611D01*
Y63597D01*
Y63582D01*
Y63567D01*
Y63553D01*
Y63538D01*
Y63523D01*
Y63509D01*
Y63494D01*
Y63479D01*
Y63465D01*
Y63450D01*
Y63435D01*
Y63421D01*
Y63406D01*
Y63391D01*
Y63377D01*
Y63362D01*
Y63347D01*
Y63333D01*
Y63318D01*
X15425D01*
Y63333D01*
Y63347D01*
Y63362D01*
Y63377D01*
Y63391D01*
Y63406D01*
Y63421D01*
Y63435D01*
Y63450D01*
Y63465D01*
Y63479D01*
Y63494D01*
Y63509D01*
Y63523D01*
Y63538D01*
Y63553D01*
Y63567D01*
Y63582D01*
Y63597D01*
Y63611D01*
Y63626D01*
Y63640D01*
Y63655D01*
Y63670D01*
Y63684D01*
Y63699D01*
Y63714D01*
Y63728D01*
Y63743D01*
Y63758D01*
Y63772D01*
Y63787D01*
Y63802D01*
Y63816D01*
Y63831D01*
Y63846D01*
Y63860D01*
Y63875D01*
Y63890D01*
Y63904D01*
Y63919D01*
Y63934D01*
Y63948D01*
Y63963D01*
Y63978D01*
Y63992D01*
Y64007D01*
Y64022D01*
Y64036D01*
Y64051D01*
Y64066D01*
X16158D01*
Y64051D01*
D02*
G37*
G36*
X5103D02*
Y64036D01*
Y64022D01*
Y64007D01*
Y63992D01*
Y63978D01*
Y63963D01*
Y63948D01*
Y63934D01*
Y63919D01*
Y63904D01*
Y63890D01*
Y63875D01*
Y63860D01*
Y63846D01*
Y63831D01*
Y63816D01*
Y63802D01*
Y63787D01*
Y63772D01*
Y63758D01*
Y63743D01*
Y63728D01*
Y63714D01*
Y63699D01*
Y63684D01*
Y63670D01*
Y63655D01*
Y63640D01*
Y63626D01*
Y63611D01*
Y63597D01*
Y63582D01*
Y63567D01*
Y63553D01*
Y63538D01*
Y63523D01*
Y63509D01*
Y63494D01*
Y63479D01*
Y63465D01*
Y63450D01*
Y63435D01*
Y63421D01*
Y63406D01*
Y63391D01*
Y63377D01*
Y63362D01*
Y63347D01*
Y63333D01*
Y63318D01*
X4356D01*
Y63333D01*
Y63347D01*
Y63362D01*
Y63377D01*
Y63391D01*
Y63406D01*
Y63421D01*
Y63435D01*
Y63450D01*
Y63465D01*
Y63479D01*
Y63494D01*
Y63509D01*
Y63523D01*
Y63538D01*
Y63553D01*
Y63567D01*
Y63582D01*
Y63597D01*
Y63611D01*
Y63626D01*
Y63640D01*
Y63655D01*
Y63670D01*
Y63684D01*
Y63699D01*
Y63714D01*
Y63728D01*
Y63743D01*
Y63758D01*
Y63772D01*
Y63787D01*
Y63802D01*
Y63816D01*
Y63831D01*
Y63846D01*
Y63860D01*
Y63875D01*
Y63890D01*
Y63904D01*
Y63919D01*
Y63934D01*
Y63948D01*
Y63963D01*
Y63978D01*
Y63992D01*
Y64007D01*
Y64022D01*
Y64036D01*
Y64051D01*
Y64066D01*
X5103D01*
Y64051D01*
D02*
G37*
G36*
X6848Y63142D02*
X7038D01*
Y63127D01*
X7126D01*
Y63113D01*
X7200D01*
Y63098D01*
X7258D01*
Y63083D01*
X7317D01*
Y63069D01*
X7361D01*
Y63054D01*
X7390D01*
Y63039D01*
X7434D01*
Y63025D01*
X7463D01*
Y63010D01*
X7493D01*
Y62995D01*
X7522D01*
Y62981D01*
X7552D01*
Y62966D01*
X7581D01*
Y62951D01*
X7610D01*
Y62937D01*
X7625D01*
Y62922D01*
X7654D01*
Y62907D01*
X7669D01*
Y62893D01*
X7683D01*
Y62878D01*
X7698D01*
Y62863D01*
X7727D01*
Y62849D01*
X7742D01*
Y62834D01*
X7757D01*
Y62819D01*
X7771D01*
Y62805D01*
X7786D01*
Y62790D01*
Y62775D01*
X7801D01*
Y62761D01*
X7815D01*
Y62746D01*
X7830D01*
Y62731D01*
Y62717D01*
X7845D01*
Y62702D01*
X7859D01*
Y62688D01*
Y62673D01*
X7874D01*
Y62658D01*
Y62644D01*
X7889D01*
Y62629D01*
Y62614D01*
Y62600D01*
X7903D01*
Y62585D01*
Y62570D01*
X7918D01*
Y62556D01*
Y62541D01*
Y62526D01*
X7933D01*
Y62512D01*
Y62497D01*
Y62482D01*
Y62468D01*
X7947D01*
Y62453D01*
Y62438D01*
Y62424D01*
Y62409D01*
X7962D01*
Y62394D01*
Y62380D01*
Y62365D01*
X7889D01*
Y62350D01*
X7742D01*
Y62336D01*
X7581D01*
Y62321D01*
X7434D01*
Y62306D01*
X7274D01*
Y62321D01*
Y62336D01*
X7273D01*
Y62350D01*
Y62365D01*
Y62380D01*
X7258D01*
Y62394D01*
Y62409D01*
X7259D01*
Y62424D01*
X7244D01*
Y62438D01*
Y62453D01*
X7230D01*
Y62468D01*
X7229D01*
Y62482D01*
X7215D01*
Y62497D01*
Y62512D01*
X7200D01*
Y62526D01*
X7185D01*
Y62541D01*
X7171D01*
Y62556D01*
X7156D01*
Y62570D01*
X7141D01*
Y62585D01*
X7127D01*
Y62600D01*
X7098D01*
Y62614D01*
X7082D01*
Y62629D01*
X7038D01*
Y62644D01*
X6994D01*
Y62658D01*
X6921D01*
Y62673D01*
X6774D01*
Y62658D01*
X6701D01*
Y62644D01*
X6657D01*
Y62629D01*
X6628D01*
Y62614D01*
X6599D01*
Y62600D01*
X6584D01*
Y62585D01*
X6555D01*
Y62570D01*
X6540D01*
Y62556D01*
Y62541D01*
X6525D01*
Y62526D01*
X6510D01*
Y62512D01*
Y62497D01*
X6496D01*
Y62482D01*
Y62468D01*
Y62453D01*
X6481D01*
Y62438D01*
Y62424D01*
Y62409D01*
Y62394D01*
X6466D01*
Y62380D01*
Y62365D01*
Y62350D01*
Y62336D01*
Y62321D01*
Y62306D01*
Y62292D01*
Y62277D01*
Y62262D01*
Y62248D01*
Y62233D01*
Y62218D01*
Y62204D01*
Y62189D01*
Y62174D01*
Y62160D01*
Y62145D01*
X6569D01*
Y62130D01*
X6730D01*
Y62116D01*
X6877D01*
Y62101D01*
X6994D01*
Y62086D01*
X7097D01*
Y62072D01*
X7185D01*
Y62057D01*
X7258D01*
Y62042D01*
X7317D01*
Y62028D01*
X7376D01*
Y62013D01*
X7419D01*
Y61998D01*
X7463D01*
Y61984D01*
X7508D01*
Y61969D01*
X7537D01*
Y61954D01*
X7566D01*
Y61940D01*
X7595D01*
Y61925D01*
X7625D01*
Y61910D01*
X7654D01*
Y61896D01*
X7669D01*
Y61881D01*
X7698D01*
Y61866D01*
X7713D01*
Y61852D01*
X7742D01*
Y61837D01*
X7757D01*
Y61823D01*
X7771D01*
Y61808D01*
X7786D01*
Y61793D01*
X7801D01*
Y61779D01*
X7815D01*
Y61764D01*
X7830D01*
Y61749D01*
X7845D01*
Y61735D01*
X7859D01*
Y61720D01*
X7874D01*
Y61705D01*
X7889D01*
Y61691D01*
X7903D01*
Y61676D01*
Y61661D01*
X7918D01*
Y61647D01*
X7933D01*
Y61632D01*
Y61617D01*
X7947D01*
Y61603D01*
Y61588D01*
X7962D01*
Y61573D01*
Y61559D01*
X7977D01*
Y61544D01*
Y61529D01*
X7991D01*
Y61515D01*
Y61500D01*
Y61485D01*
X8006D01*
Y61471D01*
Y61456D01*
Y61441D01*
X8021D01*
Y61427D01*
Y61412D01*
Y61397D01*
Y61383D01*
X8035D01*
Y61368D01*
Y61353D01*
Y61339D01*
Y61324D01*
Y61309D01*
Y61295D01*
Y61280D01*
Y61265D01*
Y61251D01*
Y61236D01*
Y61221D01*
Y61207D01*
Y61192D01*
Y61177D01*
Y61163D01*
Y61148D01*
Y61133D01*
Y61119D01*
Y61104D01*
Y61089D01*
Y61075D01*
X8021D01*
Y61060D01*
Y61045D01*
Y61031D01*
Y61016D01*
X8006D01*
Y61001D01*
Y60987D01*
Y60972D01*
X7991D01*
Y60957D01*
Y60943D01*
Y60928D01*
X7977D01*
Y60914D01*
Y60899D01*
X7962D01*
Y60884D01*
Y60870D01*
X7947D01*
Y60855D01*
Y60840D01*
X7933D01*
Y60826D01*
X7918D01*
Y60811D01*
X7903D01*
Y60796D01*
Y60782D01*
X7889D01*
Y60767D01*
X7874D01*
Y60752D01*
X7859D01*
Y60738D01*
X7845D01*
Y60723D01*
X7830D01*
Y60708D01*
X7815D01*
Y60694D01*
X7801D01*
Y60679D01*
X7771D01*
Y60664D01*
X7757D01*
Y60650D01*
X7727D01*
Y60635D01*
X7713D01*
Y60620D01*
X7683D01*
Y60606D01*
X7654D01*
Y60591D01*
X7625D01*
Y60576D01*
X7581D01*
Y60562D01*
X7537D01*
Y60547D01*
X7478D01*
Y60532D01*
X7390D01*
Y60518D01*
X7097D01*
Y60532D01*
X7009D01*
Y60547D01*
X6950D01*
Y60562D01*
X6907D01*
Y60576D01*
X6862D01*
Y60591D01*
X6834D01*
Y60606D01*
X6804D01*
Y60620D01*
X6775D01*
Y60635D01*
X6761D01*
Y60650D01*
X6730D01*
Y60664D01*
X6716D01*
Y60679D01*
X6687D01*
Y60694D01*
X6672D01*
Y60708D01*
X6657D01*
Y60723D01*
X6643D01*
Y60738D01*
X6629D01*
Y60752D01*
X6614D01*
Y60767D01*
X6599D01*
Y60782D01*
X6584D01*
Y60796D01*
X6570D01*
Y60811D01*
X6555D01*
Y60826D01*
X6540D01*
Y60840D01*
X6526D01*
Y60855D01*
X6510D01*
Y60870D01*
X6511D01*
Y60884D01*
X6496D01*
Y60899D01*
X6481D01*
Y60914D01*
X6468D01*
Y60928D01*
X6466D01*
Y60943D01*
X6452D01*
Y60957D01*
X6437D01*
Y60943D01*
Y60928D01*
Y60914D01*
Y60899D01*
Y60884D01*
Y60870D01*
Y60855D01*
Y60840D01*
Y60826D01*
Y60811D01*
Y60796D01*
Y60782D01*
Y60767D01*
Y60752D01*
X6423D01*
Y60738D01*
Y60723D01*
Y60708D01*
Y60694D01*
Y60679D01*
Y60664D01*
Y60650D01*
X6408D01*
Y60635D01*
Y60620D01*
Y60606D01*
Y60591D01*
Y60576D01*
X6393D01*
Y60562D01*
X5689D01*
Y60576D01*
X5691D01*
Y60591D01*
Y60606D01*
Y60620D01*
X5704D01*
Y60635D01*
Y60650D01*
X5705D01*
Y60664D01*
Y60679D01*
Y60694D01*
X5719D01*
Y60708D01*
Y60723D01*
Y60738D01*
Y60752D01*
X5720D01*
Y60767D01*
Y60782D01*
Y60796D01*
Y60811D01*
Y60826D01*
Y60840D01*
Y60855D01*
Y60870D01*
X5734D01*
Y60884D01*
Y60899D01*
Y60914D01*
Y60928D01*
Y60943D01*
Y60957D01*
X5734D01*
Y60972D01*
Y60987D01*
Y61001D01*
X5734D01*
Y61016D01*
X5734D01*
Y61031D01*
Y61045D01*
X5734D01*
Y61060D01*
X5734D01*
Y61075D01*
X5734D01*
Y61089D01*
X5734D01*
Y61104D01*
X5734D01*
Y61119D01*
X5734D01*
Y61133D01*
Y61148D01*
X5734D01*
Y61163D01*
Y61177D01*
X5734D01*
Y61192D01*
X5734D01*
Y61207D01*
Y61221D01*
X5734D01*
Y61236D01*
Y61251D01*
Y61265D01*
Y61280D01*
X5734D01*
Y61295D01*
Y61309D01*
Y61324D01*
X5734D01*
Y61339D01*
Y61353D01*
Y61368D01*
X5734D01*
Y61383D01*
Y61397D01*
Y61412D01*
Y61427D01*
Y61441D01*
X5734D01*
Y61456D01*
Y61471D01*
Y61485D01*
Y61500D01*
Y61515D01*
Y61529D01*
Y61544D01*
Y61559D01*
Y61573D01*
Y61588D01*
Y61603D01*
Y61617D01*
Y61632D01*
Y61647D01*
Y61661D01*
Y61676D01*
Y61691D01*
Y61705D01*
Y61720D01*
Y61735D01*
Y61749D01*
Y61764D01*
Y61779D01*
X5734D01*
Y61793D01*
X5734D01*
Y61808D01*
Y61823D01*
X5734D01*
Y61837D01*
X5734D01*
Y61852D01*
Y61866D01*
Y61881D01*
Y61896D01*
X5734D01*
Y61910D01*
X5734D01*
Y61925D01*
Y61940D01*
Y61954D01*
X5734D01*
Y61969D01*
Y61984D01*
Y61998D01*
X5734D01*
Y62013D01*
Y62028D01*
X5734D01*
Y62042D01*
X5734D01*
Y62057D01*
Y62072D01*
X5734D01*
Y62086D01*
Y62101D01*
Y62116D01*
Y62130D01*
X5734D01*
Y62145D01*
Y62160D01*
Y62174D01*
Y62189D01*
Y62204D01*
Y62218D01*
Y62233D01*
Y62248D01*
Y62262D01*
Y62277D01*
Y62292D01*
Y62306D01*
Y62321D01*
Y62336D01*
Y62350D01*
Y62365D01*
Y62380D01*
Y62394D01*
X5734D01*
Y62409D01*
Y62424D01*
Y62438D01*
Y62453D01*
X5734D01*
Y62468D01*
Y62482D01*
Y62497D01*
X5748D01*
Y62512D01*
Y62526D01*
X5749D01*
Y62541D01*
Y62556D01*
Y62570D01*
X5748D01*
Y62585D01*
Y62600D01*
X5763D01*
Y62614D01*
X5764D01*
Y62629D01*
Y62644D01*
X5777D01*
Y62658D01*
Y62673D01*
X5779D01*
Y62688D01*
X5792D01*
Y62702D01*
Y62717D01*
X5793D01*
Y62731D01*
X5808D01*
Y62746D01*
X5807D01*
Y62761D01*
X5821D01*
Y62775D01*
X5836D01*
Y62790D01*
Y62805D01*
X5852D01*
Y62819D01*
X5866D01*
Y62834D01*
X5880D01*
Y62849D01*
X5881D01*
Y62863D01*
X5896D01*
Y62878D01*
X5910D01*
Y62893D01*
X5939D01*
Y62907D01*
X5954D01*
Y62922D01*
X5969D01*
Y62937D01*
X5984D01*
Y62951D01*
X6013D01*
Y62966D01*
X6027D01*
Y62981D01*
X6056D01*
Y62995D01*
X6085D01*
Y63010D01*
X6115D01*
Y63025D01*
X6144D01*
Y63039D01*
X6174D01*
Y63054D01*
X6217D01*
Y63069D01*
X6261D01*
Y63083D01*
X6305D01*
Y63098D01*
X6365D01*
Y63113D01*
X6438D01*
Y63127D01*
X6525D01*
Y63142D01*
X6701D01*
Y63157D01*
X6848D01*
Y63142D01*
D02*
G37*
G36*
X22594Y63083D02*
Y63069D01*
X22579D01*
Y63054D01*
Y63039D01*
Y63025D01*
X22565D01*
Y63010D01*
Y62995D01*
Y62981D01*
X22550D01*
Y62966D01*
Y62951D01*
Y62937D01*
X22535D01*
Y62922D01*
Y62907D01*
Y62893D01*
X22521D01*
Y62878D01*
Y62863D01*
X22506D01*
Y62849D01*
Y62834D01*
Y62819D01*
X22491D01*
Y62805D01*
Y62790D01*
Y62775D01*
X22477D01*
Y62761D01*
Y62746D01*
Y62731D01*
X22462D01*
Y62717D01*
Y62702D01*
Y62688D01*
X22447D01*
Y62673D01*
Y62658D01*
Y62644D01*
X22433D01*
Y62629D01*
Y62614D01*
Y62600D01*
X22418D01*
Y62585D01*
Y62570D01*
Y62556D01*
X22403D01*
Y62541D01*
Y62526D01*
Y62512D01*
X22389D01*
Y62497D01*
Y62482D01*
Y62468D01*
X22374D01*
Y62453D01*
Y62438D01*
Y62424D01*
X22359D01*
Y62409D01*
Y62394D01*
Y62380D01*
X22345D01*
Y62365D01*
Y62350D01*
X22330D01*
Y62336D01*
Y62321D01*
Y62306D01*
X22315D01*
Y62292D01*
Y62277D01*
Y62262D01*
X22301D01*
Y62248D01*
Y62233D01*
Y62218D01*
X22286D01*
Y62204D01*
Y62189D01*
Y62174D01*
X22271D01*
Y62160D01*
Y62145D01*
Y62130D01*
X22257D01*
Y62116D01*
Y62101D01*
Y62086D01*
X22242D01*
Y62072D01*
Y62057D01*
Y62042D01*
X22227D01*
Y62028D01*
Y62013D01*
Y61998D01*
X22213D01*
Y61984D01*
Y61969D01*
Y61954D01*
X22198D01*
Y61940D01*
Y61925D01*
Y61910D01*
X22183D01*
Y61896D01*
Y61881D01*
Y61866D01*
X22169D01*
Y61852D01*
Y61837D01*
X22154D01*
Y61823D01*
Y61808D01*
Y61793D01*
X22139D01*
Y61779D01*
Y61764D01*
Y61749D01*
X22125D01*
Y61735D01*
Y61720D01*
Y61705D01*
X22110D01*
Y61691D01*
Y61676D01*
Y61661D01*
X22095D01*
Y61647D01*
Y61632D01*
Y61617D01*
X22081D01*
Y61603D01*
Y61588D01*
Y61573D01*
X22066D01*
Y61559D01*
Y61544D01*
Y61529D01*
X22051D01*
Y61515D01*
Y61500D01*
Y61485D01*
X22037D01*
Y61471D01*
Y61456D01*
Y61441D01*
X22022D01*
Y61427D01*
Y61412D01*
Y61397D01*
X22007D01*
Y61383D01*
Y61368D01*
Y61353D01*
X21993D01*
Y61339D01*
Y61324D01*
X21978D01*
Y61309D01*
Y61295D01*
Y61280D01*
X21963D01*
Y61265D01*
Y61251D01*
Y61236D01*
X21949D01*
Y61221D01*
Y61207D01*
Y61192D01*
X21934D01*
Y61177D01*
Y61163D01*
Y61148D01*
X21919D01*
Y61133D01*
Y61119D01*
Y61104D01*
X21905D01*
Y61089D01*
Y61075D01*
Y61060D01*
X21890D01*
Y61045D01*
Y61031D01*
Y61016D01*
X21876D01*
Y61001D01*
Y60987D01*
Y60972D01*
X21861D01*
Y60957D01*
Y60943D01*
Y60928D01*
X21846D01*
Y60914D01*
Y60899D01*
Y60884D01*
X21832D01*
Y60870D01*
Y60855D01*
Y60840D01*
X21817D01*
Y60826D01*
Y60811D01*
Y60796D01*
X21802D01*
Y60782D01*
Y60767D01*
X21788D01*
Y60752D01*
Y60738D01*
Y60723D01*
X21773D01*
Y60708D01*
Y60694D01*
Y60679D01*
X21758D01*
Y60664D01*
Y60650D01*
Y60635D01*
X21744D01*
Y60620D01*
Y60606D01*
Y60591D01*
X21729D01*
Y60576D01*
Y60562D01*
X21158D01*
Y60576D01*
X21142D01*
Y60591D01*
X21143D01*
Y60606D01*
Y60620D01*
X21128D01*
Y60635D01*
X21129D01*
Y60650D01*
Y60664D01*
X21114D01*
Y60679D01*
X21113D01*
Y60694D01*
Y60708D01*
X21099D01*
Y60723D01*
Y60738D01*
Y60752D01*
X21084D01*
Y60767D01*
X21085D01*
Y60782D01*
Y60796D01*
X21070D01*
Y60811D01*
Y60826D01*
Y60840D01*
X21055D01*
Y60855D01*
Y60870D01*
Y60884D01*
X21040D01*
Y60899D01*
Y60914D01*
Y60928D01*
X21026D01*
Y60943D01*
Y60957D01*
Y60972D01*
X21011D01*
Y60987D01*
Y61001D01*
Y61016D01*
X20997D01*
Y61031D01*
Y61045D01*
X20981D01*
Y61060D01*
X20982D01*
Y61075D01*
Y61089D01*
X20967D01*
Y61104D01*
X20967D01*
Y61119D01*
Y61133D01*
X20953D01*
Y61148D01*
Y61163D01*
Y61177D01*
X20937D01*
Y61192D01*
X20938D01*
Y61207D01*
Y61221D01*
X20922D01*
Y61236D01*
X20923D01*
Y61251D01*
Y61265D01*
X20908D01*
Y61280D01*
X20909D01*
Y61295D01*
Y61309D01*
X20894D01*
Y61324D01*
X20893D01*
Y61339D01*
Y61353D01*
X20879D01*
Y61368D01*
Y61383D01*
Y61397D01*
X20865D01*
Y61412D01*
Y61427D01*
Y61441D01*
X20850D01*
Y61456D01*
Y61471D01*
Y61485D01*
X20835D01*
Y61500D01*
X20834D01*
Y61515D01*
X20835D01*
Y61529D01*
X20821D01*
Y61544D01*
Y61559D01*
X20806D01*
Y61573D01*
Y61588D01*
Y61603D01*
X20791D01*
Y61617D01*
Y61632D01*
Y61647D01*
X20776D01*
Y61661D01*
X20777D01*
Y61676D01*
Y61691D01*
X20761D01*
Y61705D01*
Y61720D01*
Y61735D01*
X20746D01*
Y61749D01*
X20748D01*
Y61764D01*
Y61779D01*
X20732D01*
Y61793D01*
X20733D01*
Y61808D01*
Y61823D01*
X20717D01*
Y61837D01*
X20718D01*
Y61852D01*
Y61866D01*
X20703D01*
Y61881D01*
Y61896D01*
X20704D01*
Y61910D01*
X20688D01*
Y61925D01*
Y61940D01*
Y61954D01*
X20673D01*
Y61969D01*
Y61984D01*
X20674D01*
Y61998D01*
X20659D01*
Y62013D01*
Y62028D01*
X20660D01*
Y62042D01*
X20644D01*
Y62057D01*
Y62072D01*
X20630D01*
Y62086D01*
X20629D01*
Y62101D01*
Y62116D01*
X20616D01*
Y62130D01*
X20615D01*
Y62145D01*
Y62160D01*
X20600D01*
Y62174D01*
Y62189D01*
Y62204D01*
X20586D01*
Y62218D01*
X20585D01*
Y62233D01*
Y62248D01*
X20572D01*
Y62262D01*
X20571D01*
Y62277D01*
Y62292D01*
X20557D01*
Y62306D01*
Y62321D01*
X20556D01*
Y62336D01*
X20542D01*
Y62350D01*
Y62365D01*
X20541D01*
Y62380D01*
X20527D01*
Y62394D01*
Y62409D01*
Y62424D01*
X20513D01*
Y62438D01*
Y62453D01*
X20512D01*
Y62468D01*
X20498D01*
Y62482D01*
Y62497D01*
Y62512D01*
X20484D01*
Y62526D01*
Y62541D01*
Y62556D01*
X20469D01*
Y62570D01*
Y62585D01*
X20454D01*
Y62600D01*
X20453D01*
Y62614D01*
Y62629D01*
X20440D01*
Y62644D01*
Y62658D01*
Y62673D01*
X20424D01*
Y62688D01*
X20425D01*
Y62702D01*
Y62717D01*
X20409D01*
Y62731D01*
Y62746D01*
X20410D01*
Y62761D01*
X20395D01*
Y62775D01*
Y62790D01*
X20396D01*
Y62805D01*
X20381D01*
Y62819D01*
Y62834D01*
X20380D01*
Y62849D01*
X20366D01*
Y62863D01*
Y62878D01*
Y62893D01*
X20351D01*
Y62907D01*
Y62922D01*
X20352D01*
Y62937D01*
X20336D01*
Y62951D01*
Y62966D01*
Y62981D01*
X20321D01*
Y62995D01*
Y63010D01*
Y63025D01*
X20308D01*
Y63039D01*
Y63054D01*
Y63069D01*
X20293D01*
Y63083D01*
Y63098D01*
X20834D01*
Y63083D01*
Y63069D01*
X20849D01*
Y63054D01*
Y63039D01*
Y63025D01*
X20864D01*
Y63010D01*
Y62995D01*
Y62981D01*
X20878D01*
Y62966D01*
Y62951D01*
Y62937D01*
Y62922D01*
X20893D01*
Y62907D01*
Y62893D01*
Y62878D01*
X20908D01*
Y62863D01*
Y62849D01*
Y62834D01*
X20922D01*
Y62819D01*
Y62805D01*
Y62790D01*
X20937D01*
Y62775D01*
Y62761D01*
Y62746D01*
X20952D01*
Y62731D01*
Y62717D01*
Y62702D01*
Y62688D01*
X20967D01*
Y62673D01*
Y62658D01*
Y62644D01*
X20981D01*
Y62629D01*
Y62614D01*
Y62600D01*
X20996D01*
Y62585D01*
Y62570D01*
Y62556D01*
X21010D01*
Y62541D01*
Y62526D01*
Y62512D01*
X21025D01*
Y62497D01*
Y62482D01*
Y62468D01*
Y62453D01*
X21040D01*
Y62438D01*
Y62424D01*
Y62409D01*
X21054D01*
Y62394D01*
Y62380D01*
Y62365D01*
X21069D01*
Y62350D01*
Y62336D01*
Y62321D01*
X21084D01*
Y62306D01*
Y62292D01*
Y62277D01*
Y62262D01*
X21098D01*
Y62248D01*
Y62233D01*
Y62218D01*
X21113D01*
Y62204D01*
Y62189D01*
Y62174D01*
X21128D01*
Y62160D01*
Y62145D01*
Y62130D01*
X21142D01*
Y62116D01*
Y62101D01*
Y62086D01*
X21157D01*
Y62072D01*
Y62057D01*
Y62042D01*
Y62028D01*
X21172D01*
Y62013D01*
Y61998D01*
Y61984D01*
X21186D01*
Y61969D01*
Y61954D01*
Y61940D01*
X21201D01*
Y61925D01*
Y61910D01*
Y61896D01*
X21216D01*
Y61881D01*
Y61866D01*
Y61852D01*
Y61837D01*
X21230D01*
Y61823D01*
Y61808D01*
Y61793D01*
X21245D01*
Y61779D01*
Y61764D01*
Y61749D01*
X21260D01*
Y61735D01*
Y61720D01*
Y61705D01*
X21274D01*
Y61691D01*
Y61676D01*
Y61661D01*
X21289D01*
Y61647D01*
Y61632D01*
Y61617D01*
Y61603D01*
X21304D01*
Y61588D01*
Y61573D01*
Y61559D01*
X21318D01*
Y61544D01*
Y61529D01*
Y61515D01*
X21333D01*
Y61500D01*
X21349D01*
Y61515D01*
Y61529D01*
X21348D01*
Y61544D01*
X21363D01*
Y61559D01*
Y61573D01*
Y61588D01*
X21377D01*
Y61603D01*
Y61617D01*
X21378D01*
Y61632D01*
Y61647D01*
X21392D01*
Y61661D01*
X21393D01*
Y61676D01*
Y61691D01*
X21406D01*
Y61705D01*
X21407D01*
Y61720D01*
Y61735D01*
X21422D01*
Y61749D01*
X21421D01*
Y61764D01*
Y61779D01*
X21437D01*
Y61793D01*
Y61808D01*
Y61823D01*
Y61837D01*
X21451D01*
Y61852D01*
Y61866D01*
X21450D01*
Y61881D01*
X21466D01*
Y61896D01*
Y61910D01*
X21465D01*
Y61925D01*
X21481D01*
Y61940D01*
Y61954D01*
X21480D01*
Y61969D01*
Y61984D01*
X21494D01*
Y61998D01*
Y62013D01*
Y62028D01*
X21510D01*
Y62042D01*
X21509D01*
Y62057D01*
Y62072D01*
X21524D01*
Y62086D01*
X21524D01*
Y62101D01*
Y62116D01*
X21539D01*
Y62130D01*
X21538D01*
Y62145D01*
Y62160D01*
Y62174D01*
X21553D01*
Y62189D01*
Y62204D01*
Y62218D01*
X21568D01*
Y62233D01*
Y62248D01*
Y62262D01*
X21582D01*
Y62277D01*
Y62292D01*
Y62306D01*
X21597D01*
Y62321D01*
Y62336D01*
Y62350D01*
X21598D01*
Y62365D01*
X21611D01*
Y62380D01*
X21612D01*
Y62394D01*
Y62409D01*
X21626D01*
Y62424D01*
Y62438D01*
Y62453D01*
X21641D01*
Y62468D01*
X21642D01*
Y62482D01*
Y62497D01*
Y62512D01*
X21656D01*
Y62526D01*
Y62541D01*
Y62556D01*
X21671D01*
Y62570D01*
Y62585D01*
Y62600D01*
X21686D01*
Y62614D01*
Y62629D01*
Y62644D01*
X21700D01*
Y62658D01*
Y62673D01*
Y62688D01*
X21700D01*
Y62702D01*
X21715D01*
Y62717D01*
Y62731D01*
X21714D01*
Y62746D01*
X21730D01*
Y62761D01*
Y62775D01*
X21729D01*
Y62790D01*
X21745D01*
Y62805D01*
Y62819D01*
X21744D01*
Y62834D01*
Y62849D01*
X21759D01*
Y62863D01*
Y62878D01*
Y62893D01*
X21774D01*
Y62907D01*
Y62922D01*
Y62937D01*
X21788D01*
Y62951D01*
Y62966D01*
Y62981D01*
X21802D01*
Y62995D01*
Y63010D01*
Y63025D01*
X21803D01*
Y63039D01*
X21817D01*
Y63054D01*
Y63069D01*
Y63083D01*
X21832D01*
Y63098D01*
X22594D01*
Y63083D01*
D02*
G37*
G36*
X24646D02*
X24632D01*
Y63069D01*
Y63054D01*
Y63039D01*
X24617D01*
Y63025D01*
Y63010D01*
Y62995D01*
X24602D01*
Y62981D01*
Y62966D01*
Y62951D01*
X24588D01*
Y62937D01*
Y62922D01*
Y62907D01*
X24573D01*
Y62893D01*
Y62878D01*
Y62863D01*
X24558D01*
Y62849D01*
Y62834D01*
Y62819D01*
X24544D01*
Y62805D01*
Y62790D01*
Y62775D01*
X24529D01*
Y62761D01*
Y62746D01*
X24514D01*
Y62731D01*
Y62717D01*
Y62702D01*
X24500D01*
Y62688D01*
Y62673D01*
Y62658D01*
X24485D01*
Y62644D01*
Y62629D01*
Y62614D01*
X24471D01*
Y62600D01*
Y62585D01*
Y62570D01*
X24456D01*
Y62556D01*
Y62541D01*
Y62526D01*
X24441D01*
Y62512D01*
Y62497D01*
Y62482D01*
X24427D01*
Y62468D01*
Y62453D01*
Y62438D01*
X24412D01*
Y62424D01*
Y62409D01*
Y62394D01*
X24397D01*
Y62380D01*
Y62365D01*
Y62350D01*
X24383D01*
Y62336D01*
Y62321D01*
Y62306D01*
X24368D01*
Y62292D01*
Y62277D01*
X24353D01*
Y62262D01*
Y62248D01*
Y62233D01*
X24339D01*
Y62218D01*
Y62204D01*
Y62189D01*
X24324D01*
Y62174D01*
Y62160D01*
Y62145D01*
X24309D01*
Y62130D01*
Y62116D01*
Y62101D01*
X24295D01*
Y62086D01*
Y62072D01*
Y62057D01*
X24280D01*
Y62042D01*
Y62028D01*
Y62013D01*
X24265D01*
Y61998D01*
Y61984D01*
Y61969D01*
X24251D01*
Y61954D01*
Y61940D01*
Y61925D01*
X24236D01*
Y61910D01*
Y61896D01*
Y61881D01*
X24221D01*
Y61866D01*
Y61852D01*
X24207D01*
Y61837D01*
Y61823D01*
Y61808D01*
X24192D01*
Y61793D01*
Y61779D01*
Y61764D01*
X24177D01*
Y61749D01*
Y61735D01*
Y61720D01*
X24163D01*
Y61705D01*
Y61691D01*
Y61676D01*
X24148D01*
Y61661D01*
Y61647D01*
Y61632D01*
X24133D01*
Y61617D01*
Y61603D01*
Y61588D01*
X24119D01*
Y61573D01*
Y61559D01*
Y61544D01*
X24104D01*
Y61529D01*
Y61515D01*
Y61500D01*
X24089D01*
Y61485D01*
Y61471D01*
Y61456D01*
X24075D01*
Y61441D01*
Y61427D01*
Y61412D01*
X24060D01*
Y61397D01*
Y61383D01*
X24045D01*
Y61368D01*
Y61353D01*
Y61339D01*
X24031D01*
Y61324D01*
Y61309D01*
Y61295D01*
X24016D01*
Y61280D01*
Y61265D01*
Y61251D01*
X24001D01*
Y61236D01*
Y61221D01*
Y61207D01*
X23987D01*
Y61192D01*
Y61177D01*
Y61163D01*
X23972D01*
Y61148D01*
Y61133D01*
Y61119D01*
X23957D01*
Y61104D01*
Y61089D01*
Y61075D01*
X23943D01*
Y61060D01*
Y61045D01*
Y61031D01*
X23928D01*
Y61016D01*
Y61001D01*
Y60987D01*
X23913D01*
Y60972D01*
Y60957D01*
X23899D01*
Y60943D01*
Y60928D01*
Y60914D01*
X23884D01*
Y60899D01*
Y60884D01*
Y60870D01*
X23869D01*
Y60855D01*
Y60840D01*
Y60826D01*
X23855D01*
Y60811D01*
Y60796D01*
Y60782D01*
X23840D01*
Y60767D01*
Y60752D01*
Y60738D01*
X23825D01*
Y60723D01*
Y60708D01*
Y60694D01*
X23811D01*
Y60679D01*
Y60664D01*
Y60650D01*
X23796D01*
Y60635D01*
Y60620D01*
Y60606D01*
Y60591D01*
Y60576D01*
Y60562D01*
X23811D01*
Y60547D01*
Y60532D01*
Y60518D01*
X23825D01*
Y60503D01*
Y60488D01*
X23840D01*
Y60474D01*
Y60459D01*
Y60444D01*
X23855D01*
Y60430D01*
Y60415D01*
Y60400D01*
X23869D01*
Y60386D01*
Y60371D01*
X23884D01*
Y60356D01*
Y60342D01*
Y60327D01*
X23899D01*
Y60312D01*
Y60298D01*
X23913D01*
Y60283D01*
Y60268D01*
X23928D01*
Y60254D01*
Y60239D01*
X23943D01*
Y60224D01*
Y60210D01*
X23957D01*
Y60195D01*
Y60180D01*
X23972D01*
Y60166D01*
Y60151D01*
X23987D01*
Y60136D01*
X24001D01*
Y60122D01*
Y60107D01*
X24016D01*
Y60093D01*
X24031D01*
Y60078D01*
X24045D01*
Y60063D01*
Y60049D01*
X24060D01*
Y60034D01*
X24075D01*
Y60019D01*
X24104D01*
Y60005D01*
X24119D01*
Y59990D01*
X24133D01*
Y59975D01*
X24163D01*
Y59961D01*
X24192D01*
Y59946D01*
X24221D01*
Y59931D01*
X24265D01*
Y59917D01*
X24529D01*
Y59931D01*
X24602D01*
Y59946D01*
X24662D01*
Y59961D01*
X24676D01*
Y59946D01*
Y59931D01*
Y59917D01*
Y59902D01*
Y59887D01*
Y59873D01*
Y59858D01*
Y59843D01*
Y59829D01*
Y59814D01*
Y59799D01*
Y59785D01*
Y59770D01*
Y59755D01*
Y59741D01*
Y59726D01*
Y59711D01*
X24646D01*
Y59697D01*
X24588D01*
Y59682D01*
X24500D01*
Y59667D01*
X24265D01*
Y59682D01*
X24177D01*
Y59697D01*
X24133D01*
Y59711D01*
X24089D01*
Y59726D01*
X24060D01*
Y59741D01*
X24032D01*
Y59755D01*
X24002D01*
Y59770D01*
X23972D01*
Y59785D01*
X23958D01*
Y59799D01*
X23943D01*
Y59814D01*
X23913D01*
Y59829D01*
X23899D01*
Y59843D01*
X23885D01*
Y59858D01*
X23869D01*
Y59873D01*
X23856D01*
Y59887D01*
Y59902D01*
X23840D01*
Y59917D01*
X23825D01*
Y59931D01*
X23811D01*
Y59946D01*
X23796D01*
Y59961D01*
Y59975D01*
X23782D01*
Y59990D01*
X23767D01*
Y60005D01*
X23768D01*
Y60019D01*
X23753D01*
Y60034D01*
X23752D01*
Y60049D01*
X23738D01*
Y60063D01*
X23723D01*
Y60078D01*
X23724D01*
Y60093D01*
X23709D01*
Y60107D01*
X23708D01*
Y60122D01*
X23694D01*
Y60136D01*
X23693D01*
Y60151D01*
Y60166D01*
X23679D01*
Y60180D01*
X23680D01*
Y60195D01*
X23664D01*
Y60210D01*
X23665D01*
Y60224D01*
X23649D01*
Y60239D01*
X23650D01*
Y60254D01*
Y60268D01*
X23636D01*
Y60283D01*
Y60298D01*
X23620D01*
Y60312D01*
Y60327D01*
X23621D01*
Y60342D01*
X23606D01*
Y60356D01*
Y60371D01*
X23606D01*
Y60386D01*
X23592D01*
Y60400D01*
X23591D01*
Y60415D01*
Y60430D01*
X23577D01*
Y60444D01*
X23576D01*
Y60459D01*
X23562D01*
Y60474D01*
Y60488D01*
Y60503D01*
X23547D01*
Y60518D01*
X23548D01*
Y60532D01*
Y60547D01*
X23533D01*
Y60562D01*
X23532D01*
Y60576D01*
X23518D01*
Y60591D01*
Y60606D01*
Y60620D01*
X23503D01*
Y60635D01*
Y60650D01*
X23504D01*
Y60664D01*
X23488D01*
Y60679D01*
Y60694D01*
X23489D01*
Y60708D01*
X23473D01*
Y60723D01*
Y60738D01*
X23459D01*
Y60752D01*
Y60767D01*
Y60782D01*
X23444D01*
Y60796D01*
Y60811D01*
Y60826D01*
X23429D01*
Y60840D01*
Y60855D01*
Y60870D01*
X23415D01*
Y60884D01*
Y60899D01*
X23401D01*
Y60914D01*
X23400D01*
Y60928D01*
Y60943D01*
X23386D01*
Y60957D01*
Y60972D01*
Y60987D01*
X23371D01*
Y61001D01*
Y61016D01*
X23357D01*
Y61031D01*
X23356D01*
Y61045D01*
Y61060D01*
X23343D01*
Y61075D01*
Y61089D01*
Y61104D01*
X23327D01*
Y61119D01*
X23328D01*
Y61133D01*
Y61148D01*
X23313D01*
Y61163D01*
X23312D01*
Y61177D01*
X23299D01*
Y61192D01*
X23298D01*
Y61207D01*
Y61221D01*
X23284D01*
Y61236D01*
X23283D01*
Y61251D01*
Y61265D01*
X23269D01*
Y61280D01*
Y61295D01*
X23254D01*
Y61309D01*
Y61324D01*
X23255D01*
Y61339D01*
X23240D01*
Y61353D01*
X23239D01*
Y61368D01*
Y61383D01*
X23225D01*
Y61397D01*
X23224D01*
Y61412D01*
Y61427D01*
X23211D01*
Y61441D01*
X23210D01*
Y61456D01*
X23196D01*
Y61471D01*
Y61485D01*
Y61500D01*
X23180D01*
Y61515D01*
X23181D01*
Y61529D01*
Y61544D01*
X23167D01*
Y61559D01*
X23166D01*
Y61573D01*
X23152D01*
Y61588D01*
Y61603D01*
X23151D01*
Y61617D01*
X23137D01*
Y61632D01*
X23136D01*
Y61647D01*
Y61661D01*
X23123D01*
Y61676D01*
Y61691D01*
Y61705D01*
X23107D01*
Y61720D01*
X23108D01*
Y61735D01*
X23093D01*
Y61749D01*
Y61764D01*
X23092D01*
Y61779D01*
X23079D01*
Y61793D01*
X23078D01*
Y61808D01*
Y61823D01*
X23064D01*
Y61837D01*
X23063D01*
Y61852D01*
X23049D01*
Y61866D01*
Y61881D01*
Y61896D01*
X23034D01*
Y61910D01*
X23035D01*
Y61925D01*
Y61940D01*
X23020D01*
Y61954D01*
X23019D01*
Y61969D01*
Y61984D01*
X23005D01*
Y61998D01*
X23004D01*
Y62013D01*
X22991D01*
Y62028D01*
Y62042D01*
X22990D01*
Y62057D01*
X22976D01*
Y62072D01*
Y62086D01*
Y62101D01*
X22960D01*
Y62116D01*
X22961D01*
Y62130D01*
X22947D01*
Y62145D01*
Y62160D01*
X22946D01*
Y62174D01*
X22932D01*
Y62189D01*
Y62204D01*
X22931D01*
Y62218D01*
X22917D01*
Y62233D01*
X22916D01*
Y62248D01*
Y62262D01*
X22903D01*
Y62277D01*
Y62292D01*
X22887D01*
Y62306D01*
Y62321D01*
X22888D01*
Y62336D01*
X22873D01*
Y62350D01*
X22872D01*
Y62365D01*
Y62380D01*
X22859D01*
Y62394D01*
X22858D01*
Y62409D01*
X22844D01*
Y62424D01*
Y62438D01*
X22843D01*
Y62453D01*
X22829D01*
Y62468D01*
Y62482D01*
Y62497D01*
X22814D01*
Y62512D01*
X22815D01*
Y62526D01*
Y62541D01*
X22800D01*
Y62556D01*
X22799D01*
Y62570D01*
X22785D01*
Y62585D01*
Y62600D01*
X22784D01*
Y62614D01*
X22771D01*
Y62629D01*
Y62644D01*
X22770D01*
Y62658D01*
X22756D01*
Y62673D01*
Y62688D01*
X22740D01*
Y62702D01*
Y62717D01*
X22741D01*
Y62731D01*
X22727D01*
Y62746D01*
Y62761D01*
X22726D01*
Y62775D01*
X22712D01*
Y62790D01*
Y62805D01*
X22711D01*
Y62819D01*
X22697D01*
Y62834D01*
X22696D01*
Y62849D01*
X22683D01*
Y62863D01*
Y62878D01*
Y62893D01*
X22667D01*
Y62907D01*
Y62922D01*
X22668D01*
Y62937D01*
X22654D01*
Y62951D01*
X22652D01*
Y62966D01*
X22639D01*
Y62981D01*
Y62995D01*
X22638D01*
Y63010D01*
X22624D01*
Y63025D01*
Y63039D01*
X22623D01*
Y63054D01*
X22610D01*
Y63069D01*
Y63083D01*
Y63098D01*
X22872D01*
Y63083D01*
X22887D01*
Y63069D01*
Y63054D01*
Y63039D01*
X22902D01*
Y63025D01*
Y63010D01*
Y62995D01*
X22916D01*
Y62981D01*
Y62966D01*
Y62951D01*
X22931D01*
Y62937D01*
Y62922D01*
X22946D01*
Y62907D01*
Y62893D01*
Y62878D01*
X22960D01*
Y62863D01*
Y62849D01*
Y62834D01*
X22975D01*
Y62819D01*
Y62805D01*
X22990D01*
Y62790D01*
Y62775D01*
Y62761D01*
X23004D01*
Y62746D01*
Y62731D01*
Y62717D01*
X23019D01*
Y62702D01*
Y62688D01*
Y62673D01*
X23034D01*
Y62658D01*
Y62644D01*
X23048D01*
Y62629D01*
Y62614D01*
Y62600D01*
X23063D01*
Y62585D01*
Y62570D01*
Y62556D01*
X23078D01*
Y62541D01*
Y62526D01*
Y62512D01*
X23092D01*
Y62497D01*
Y62482D01*
X23107D01*
Y62468D01*
Y62453D01*
Y62438D01*
X23122D01*
Y62424D01*
Y62409D01*
Y62394D01*
X23136D01*
Y62380D01*
Y62365D01*
Y62350D01*
X23151D01*
Y62336D01*
Y62321D01*
X23166D01*
Y62306D01*
Y62292D01*
Y62277D01*
X23180D01*
Y62262D01*
Y62248D01*
Y62233D01*
X23195D01*
Y62218D01*
Y62204D01*
X23210D01*
Y62189D01*
Y62174D01*
Y62160D01*
X23224D01*
Y62145D01*
Y62130D01*
Y62116D01*
X23239D01*
Y62101D01*
Y62086D01*
Y62072D01*
X23254D01*
Y62057D01*
Y62042D01*
X23268D01*
Y62028D01*
Y62013D01*
Y61998D01*
X23283D01*
Y61984D01*
Y61969D01*
Y61954D01*
X23298D01*
Y61940D01*
Y61925D01*
Y61910D01*
X23312D01*
Y61896D01*
Y61881D01*
X23327D01*
Y61866D01*
Y61852D01*
Y61837D01*
X23342D01*
Y61823D01*
Y61808D01*
Y61793D01*
X23356D01*
Y61779D01*
Y61764D01*
X23371D01*
Y61749D01*
Y61735D01*
Y61720D01*
X23386D01*
Y61705D01*
Y61691D01*
Y61676D01*
X23400D01*
Y61661D01*
Y61647D01*
Y61632D01*
X23415D01*
Y61617D01*
Y61603D01*
X23429D01*
Y61588D01*
Y61573D01*
Y61559D01*
X23444D01*
Y61544D01*
Y61529D01*
Y61515D01*
X23459D01*
Y61500D01*
Y61485D01*
Y61471D01*
X23473D01*
Y61456D01*
Y61441D01*
X23488D01*
Y61427D01*
Y61412D01*
Y61397D01*
X23503D01*
Y61383D01*
Y61368D01*
Y61353D01*
X23517D01*
Y61339D01*
Y61324D01*
X23532D01*
Y61309D01*
Y61295D01*
Y61280D01*
X23547D01*
Y61265D01*
Y61251D01*
Y61236D01*
X23562D01*
Y61221D01*
Y61207D01*
Y61192D01*
X23576D01*
Y61177D01*
Y61163D01*
X23591D01*
Y61148D01*
Y61133D01*
Y61119D01*
X23606D01*
Y61104D01*
Y61089D01*
Y61075D01*
X23620D01*
Y61060D01*
Y61045D01*
Y61031D01*
X23649D01*
Y61045D01*
Y61060D01*
X23665D01*
Y61075D01*
X23664D01*
Y61089D01*
Y61104D01*
X23680D01*
Y61119D01*
X23679D01*
Y61133D01*
Y61148D01*
X23693D01*
Y61163D01*
Y61177D01*
Y61192D01*
X23709D01*
Y61207D01*
X23708D01*
Y61221D01*
Y61236D01*
X23724D01*
Y61251D01*
X23723D01*
Y61265D01*
Y61280D01*
X23738D01*
Y61295D01*
X23737D01*
Y61309D01*
Y61324D01*
X23753D01*
Y61339D01*
X23752D01*
Y61353D01*
Y61368D01*
X23767D01*
Y61383D01*
Y61397D01*
Y61412D01*
X23781D01*
Y61427D01*
Y61441D01*
Y61456D01*
X23796D01*
Y61471D01*
Y61485D01*
Y61500D01*
X23811D01*
Y61515D01*
Y61529D01*
Y61544D01*
X23825D01*
Y61559D01*
Y61573D01*
Y61588D01*
X23840D01*
Y61603D01*
Y61617D01*
Y61632D01*
X23855D01*
Y61647D01*
Y61661D01*
Y61676D01*
X23869D01*
Y61691D01*
Y61705D01*
Y61720D01*
X23884D01*
Y61735D01*
Y61749D01*
Y61764D01*
X23899D01*
Y61779D01*
Y61793D01*
Y61808D01*
X23913D01*
Y61823D01*
Y61837D01*
Y61852D01*
X23928D01*
Y61866D01*
Y61881D01*
X23929D01*
Y61896D01*
X23943D01*
Y61910D01*
Y61925D01*
X23944D01*
Y61940D01*
X23957D01*
Y61954D01*
Y61969D01*
X23958D01*
Y61984D01*
X23972D01*
Y61998D01*
Y62013D01*
Y62028D01*
X23987D01*
Y62042D01*
Y62057D01*
X23988D01*
Y62072D01*
X24001D01*
Y62086D01*
Y62101D01*
X24002D01*
Y62116D01*
X24016D01*
Y62130D01*
Y62145D01*
X24017D01*
Y62160D01*
X24031D01*
Y62174D01*
Y62189D01*
X24032D01*
Y62204D01*
X24045D01*
Y62218D01*
Y62233D01*
Y62248D01*
X24060D01*
Y62262D01*
Y62277D01*
X24061D01*
Y62292D01*
X24075D01*
Y62306D01*
X24076D01*
Y62321D01*
Y62336D01*
X24089D01*
Y62350D01*
X24090D01*
Y62365D01*
Y62380D01*
X24104D01*
Y62394D01*
X24105D01*
Y62409D01*
Y62424D01*
X24119D01*
Y62438D01*
Y62453D01*
Y62468D01*
X24133D01*
Y62482D01*
X24134D01*
Y62497D01*
Y62512D01*
X24148D01*
Y62526D01*
X24149D01*
Y62541D01*
Y62556D01*
X24163D01*
Y62570D01*
X24164D01*
Y62585D01*
Y62600D01*
X24177D01*
Y62614D01*
X24178D01*
Y62629D01*
Y62644D01*
X24192D01*
Y62658D01*
Y62673D01*
Y62688D01*
X24207D01*
Y62702D01*
X24208D01*
Y62717D01*
Y62731D01*
X24221D01*
Y62746D01*
X24222D01*
Y62761D01*
Y62775D01*
X24237D01*
Y62790D01*
Y62805D01*
Y62819D01*
X24251D01*
Y62834D01*
Y62849D01*
Y62863D01*
X24265D01*
Y62878D01*
Y62893D01*
Y62907D01*
X24281D01*
Y62922D01*
Y62937D01*
Y62951D01*
X24295D01*
Y62966D01*
Y62981D01*
Y62995D01*
X24310D01*
Y63010D01*
Y63025D01*
Y63039D01*
X24325D01*
Y63054D01*
Y63069D01*
Y63083D01*
X24339D01*
Y63098D01*
X24646D01*
Y63083D01*
D02*
G37*
G36*
X29279Y63743D02*
X29426D01*
Y63728D01*
X29515D01*
Y63714D01*
Y63699D01*
Y63684D01*
Y63670D01*
Y63655D01*
Y63640D01*
Y63626D01*
Y63611D01*
Y63597D01*
Y63582D01*
Y63567D01*
Y63553D01*
Y63538D01*
Y63523D01*
Y63509D01*
Y63494D01*
Y63479D01*
Y63465D01*
Y63450D01*
Y63435D01*
Y63421D01*
Y63406D01*
Y63391D01*
Y63377D01*
Y63362D01*
Y63347D01*
Y63333D01*
Y63318D01*
Y63303D01*
Y63289D01*
Y63274D01*
Y63259D01*
Y63245D01*
Y63230D01*
Y63215D01*
Y63201D01*
Y63186D01*
Y63171D01*
Y63157D01*
Y63142D01*
Y63127D01*
Y63113D01*
Y63098D01*
X30012D01*
Y63083D01*
Y63069D01*
Y63054D01*
Y63039D01*
Y63025D01*
Y63010D01*
Y62995D01*
Y62981D01*
Y62966D01*
Y62951D01*
Y62937D01*
Y62922D01*
Y62907D01*
Y62893D01*
Y62878D01*
Y62863D01*
X29499D01*
Y62849D01*
Y62834D01*
Y62819D01*
Y62805D01*
Y62790D01*
Y62775D01*
Y62761D01*
Y62746D01*
Y62731D01*
Y62717D01*
Y62702D01*
Y62688D01*
Y62673D01*
Y62658D01*
Y62644D01*
Y62629D01*
Y62614D01*
Y62600D01*
Y62585D01*
Y62570D01*
Y62556D01*
Y62541D01*
Y62526D01*
Y62512D01*
Y62497D01*
Y62482D01*
Y62468D01*
Y62453D01*
Y62438D01*
Y62424D01*
Y62409D01*
Y62394D01*
Y62380D01*
Y62365D01*
Y62350D01*
Y62336D01*
Y62321D01*
Y62306D01*
Y62292D01*
Y62277D01*
Y62262D01*
Y62248D01*
Y62233D01*
Y62218D01*
Y62204D01*
Y62189D01*
Y62174D01*
Y62160D01*
Y62145D01*
Y62130D01*
Y62116D01*
Y62101D01*
Y62086D01*
Y62072D01*
Y62057D01*
Y62042D01*
Y62028D01*
Y62013D01*
Y61998D01*
Y61984D01*
Y61969D01*
Y61954D01*
Y61940D01*
Y61925D01*
Y61910D01*
Y61896D01*
Y61881D01*
Y61866D01*
Y61852D01*
Y61837D01*
Y61823D01*
Y61808D01*
Y61793D01*
Y61779D01*
Y61764D01*
Y61749D01*
Y61735D01*
Y61720D01*
Y61705D01*
Y61691D01*
Y61676D01*
Y61661D01*
Y61647D01*
Y61632D01*
Y61617D01*
Y61603D01*
Y61588D01*
Y61573D01*
Y61559D01*
Y61544D01*
Y61529D01*
Y61515D01*
Y61500D01*
Y61485D01*
Y61471D01*
Y61456D01*
Y61441D01*
Y61427D01*
Y61412D01*
Y61397D01*
Y61383D01*
Y61368D01*
Y61353D01*
Y61339D01*
Y61324D01*
Y61309D01*
Y61295D01*
Y61280D01*
Y61265D01*
Y61251D01*
Y61236D01*
Y61221D01*
Y61207D01*
Y61192D01*
Y61177D01*
Y61163D01*
Y61148D01*
Y61133D01*
X29485D01*
Y61119D01*
Y61104D01*
Y61089D01*
Y61075D01*
Y61060D01*
Y61045D01*
Y61031D01*
X29470D01*
Y61016D01*
Y61001D01*
Y60987D01*
Y60972D01*
Y60957D01*
X29455D01*
Y60943D01*
Y60928D01*
Y60914D01*
X29442D01*
Y60899D01*
Y60884D01*
Y60870D01*
X29426D01*
Y60855D01*
Y60840D01*
X29411D01*
Y60826D01*
Y60811D01*
X29397D01*
Y60796D01*
Y60782D01*
X29382D01*
Y60767D01*
Y60752D01*
X29367D01*
Y60738D01*
X29353D01*
Y60723D01*
Y60708D01*
X29338D01*
Y60694D01*
X29323D01*
Y60679D01*
X29309D01*
Y60664D01*
X29294D01*
Y60650D01*
X29279D01*
Y60635D01*
X29265D01*
Y60620D01*
X29250D01*
Y60606D01*
X29221D01*
Y60591D01*
X29206D01*
Y60576D01*
X29177D01*
Y60562D01*
X29147D01*
Y60547D01*
X29103D01*
Y60532D01*
X29059D01*
Y60518D01*
X29001D01*
Y60503D01*
X28898D01*
Y60488D01*
X28678D01*
Y60503D01*
X28532D01*
Y60518D01*
X28445D01*
Y60532D01*
X28444D01*
Y60547D01*
Y60562D01*
Y60576D01*
X28445D01*
Y60591D01*
X28444D01*
Y60606D01*
Y60620D01*
Y60635D01*
X28445D01*
Y60650D01*
X28444D01*
Y60664D01*
X28445D01*
Y60679D01*
X28444D01*
Y60694D01*
Y60708D01*
X28445D01*
Y60723D01*
Y60738D01*
X28444D01*
Y60752D01*
X28517D01*
Y60738D01*
X28898D01*
Y60752D01*
X28958D01*
Y60767D01*
X28986D01*
Y60782D01*
X29016D01*
Y60796D01*
X29045D01*
Y60811D01*
X29060D01*
Y60826D01*
X29074D01*
Y60840D01*
X29089D01*
Y60855D01*
X29104D01*
Y60870D01*
X29118D01*
Y60884D01*
X29134D01*
Y60899D01*
Y60914D01*
X29148D01*
Y60928D01*
Y60943D01*
X29162D01*
Y60957D01*
X29163D01*
Y60972D01*
Y60987D01*
X29177D01*
Y61001D01*
Y61016D01*
Y61031D01*
Y61045D01*
X29191D01*
Y61060D01*
Y61075D01*
Y61089D01*
Y61104D01*
Y61119D01*
Y61133D01*
X29192D01*
Y61148D01*
Y61163D01*
X29206D01*
Y61177D01*
Y61192D01*
Y61207D01*
Y61221D01*
Y61236D01*
Y61251D01*
Y61265D01*
Y61280D01*
Y61295D01*
Y61309D01*
Y61324D01*
Y61339D01*
Y61353D01*
Y61368D01*
Y61383D01*
Y61397D01*
Y61412D01*
Y61427D01*
Y61441D01*
Y61456D01*
Y61471D01*
Y61485D01*
Y61500D01*
Y61515D01*
Y61529D01*
Y61544D01*
Y61559D01*
Y61573D01*
Y61588D01*
Y61603D01*
Y61617D01*
Y61632D01*
Y61647D01*
Y61661D01*
Y61676D01*
Y61691D01*
Y61705D01*
Y61720D01*
Y61735D01*
Y61749D01*
Y61764D01*
Y61779D01*
Y61793D01*
Y61808D01*
Y61823D01*
Y61837D01*
Y61852D01*
Y61866D01*
Y61881D01*
Y61896D01*
Y61910D01*
Y61925D01*
Y61940D01*
Y61954D01*
Y61969D01*
Y61984D01*
Y61998D01*
Y62013D01*
Y62028D01*
Y62042D01*
Y62057D01*
Y62072D01*
Y62086D01*
Y62101D01*
Y62116D01*
Y62130D01*
Y62145D01*
Y62160D01*
Y62174D01*
Y62189D01*
Y62204D01*
Y62218D01*
Y62233D01*
Y62248D01*
Y62262D01*
Y62277D01*
Y62292D01*
Y62306D01*
Y62321D01*
Y62336D01*
Y62350D01*
Y62365D01*
Y62380D01*
Y62394D01*
Y62409D01*
Y62424D01*
Y62438D01*
Y62453D01*
Y62468D01*
Y62482D01*
Y62497D01*
Y62512D01*
Y62526D01*
Y62541D01*
Y62556D01*
Y62570D01*
Y62585D01*
Y62600D01*
Y62614D01*
Y62629D01*
Y62644D01*
Y62658D01*
Y62673D01*
Y62688D01*
Y62702D01*
Y62717D01*
Y62731D01*
Y62746D01*
Y62761D01*
Y62775D01*
Y62790D01*
Y62805D01*
Y62819D01*
Y62834D01*
Y62849D01*
Y62863D01*
X28606D01*
Y62878D01*
Y62893D01*
Y62907D01*
Y62922D01*
Y62937D01*
Y62951D01*
Y62966D01*
Y62981D01*
Y62995D01*
Y63010D01*
Y63025D01*
Y63039D01*
Y63054D01*
Y63069D01*
Y63083D01*
Y63098D01*
X29207D01*
Y63113D01*
Y63127D01*
Y63142D01*
Y63157D01*
Y63171D01*
Y63186D01*
Y63201D01*
Y63215D01*
Y63230D01*
Y63245D01*
Y63259D01*
Y63274D01*
Y63289D01*
Y63303D01*
Y63318D01*
Y63333D01*
Y63347D01*
Y63362D01*
Y63377D01*
Y63391D01*
Y63406D01*
Y63421D01*
Y63435D01*
Y63450D01*
Y63465D01*
Y63479D01*
Y63494D01*
Y63509D01*
Y63523D01*
Y63538D01*
Y63553D01*
Y63567D01*
Y63582D01*
Y63597D01*
Y63611D01*
Y63626D01*
Y63640D01*
Y63655D01*
Y63670D01*
Y63684D01*
Y63699D01*
Y63714D01*
Y63728D01*
X29206D01*
Y63743D01*
Y63758D01*
X29279D01*
Y63743D01*
D02*
G37*
G36*
X28019Y63083D02*
Y63069D01*
Y63054D01*
Y63039D01*
Y63025D01*
Y63010D01*
Y62995D01*
Y62981D01*
Y62966D01*
Y62951D01*
Y62937D01*
Y62922D01*
Y62907D01*
Y62893D01*
Y62878D01*
Y62863D01*
Y62849D01*
Y62834D01*
Y62819D01*
Y62805D01*
Y62790D01*
Y62775D01*
Y62761D01*
Y62746D01*
Y62731D01*
Y62717D01*
Y62702D01*
Y62688D01*
Y62673D01*
Y62658D01*
Y62644D01*
Y62629D01*
Y62614D01*
Y62600D01*
Y62585D01*
Y62570D01*
Y62556D01*
Y62541D01*
Y62526D01*
Y62512D01*
Y62497D01*
Y62482D01*
Y62468D01*
Y62453D01*
Y62438D01*
Y62424D01*
Y62409D01*
Y62394D01*
Y62380D01*
Y62365D01*
Y62350D01*
Y62336D01*
Y62321D01*
Y62306D01*
Y62292D01*
Y62277D01*
Y62262D01*
Y62248D01*
Y62233D01*
Y62218D01*
Y62204D01*
Y62189D01*
Y62174D01*
Y62160D01*
Y62145D01*
Y62130D01*
Y62116D01*
Y62101D01*
Y62086D01*
Y62072D01*
Y62057D01*
Y62042D01*
Y62028D01*
Y62013D01*
Y61998D01*
Y61984D01*
Y61969D01*
Y61954D01*
Y61940D01*
Y61925D01*
Y61910D01*
Y61896D01*
Y61881D01*
Y61866D01*
Y61852D01*
Y61837D01*
Y61823D01*
Y61808D01*
Y61793D01*
Y61779D01*
Y61764D01*
Y61749D01*
Y61735D01*
Y61720D01*
Y61705D01*
Y61691D01*
Y61676D01*
Y61661D01*
Y61647D01*
Y61632D01*
Y61617D01*
Y61603D01*
Y61588D01*
Y61573D01*
Y61559D01*
Y61544D01*
Y61529D01*
Y61515D01*
Y61500D01*
Y61485D01*
Y61471D01*
Y61456D01*
Y61441D01*
Y61427D01*
Y61412D01*
Y61397D01*
Y61383D01*
Y61368D01*
Y61353D01*
Y61339D01*
Y61324D01*
Y61309D01*
Y61295D01*
Y61280D01*
Y61265D01*
Y61251D01*
Y61236D01*
Y61221D01*
Y61207D01*
Y61192D01*
Y61177D01*
Y61163D01*
Y61148D01*
Y61133D01*
Y61119D01*
Y61104D01*
Y61089D01*
Y61075D01*
Y61060D01*
Y61045D01*
Y61031D01*
Y61016D01*
Y61001D01*
Y60987D01*
Y60972D01*
Y60957D01*
Y60943D01*
Y60928D01*
Y60914D01*
Y60899D01*
Y60884D01*
Y60870D01*
Y60855D01*
Y60840D01*
Y60826D01*
Y60811D01*
Y60796D01*
Y60782D01*
Y60767D01*
Y60752D01*
Y60738D01*
Y60723D01*
Y60708D01*
Y60694D01*
Y60679D01*
Y60664D01*
Y60650D01*
Y60635D01*
Y60620D01*
Y60606D01*
Y60591D01*
Y60576D01*
Y60562D01*
X27725D01*
Y60576D01*
Y60591D01*
Y60606D01*
Y60620D01*
Y60635D01*
Y60650D01*
Y60664D01*
Y60679D01*
Y60694D01*
Y60708D01*
Y60723D01*
Y60738D01*
Y60752D01*
Y60767D01*
Y60782D01*
Y60796D01*
Y60811D01*
Y60826D01*
Y60840D01*
Y60855D01*
Y60870D01*
Y60884D01*
Y60899D01*
Y60914D01*
Y60928D01*
Y60943D01*
Y60957D01*
Y60972D01*
Y60987D01*
Y61001D01*
Y61016D01*
Y61031D01*
Y61045D01*
Y61060D01*
Y61075D01*
Y61089D01*
Y61104D01*
Y61119D01*
Y61133D01*
Y61148D01*
Y61163D01*
Y61177D01*
Y61192D01*
Y61207D01*
Y61221D01*
Y61236D01*
Y61251D01*
Y61265D01*
Y61280D01*
Y61295D01*
Y61309D01*
Y61324D01*
Y61339D01*
Y61353D01*
Y61368D01*
Y61383D01*
Y61397D01*
Y61412D01*
Y61427D01*
Y61441D01*
Y61456D01*
Y61471D01*
Y61485D01*
Y61500D01*
Y61515D01*
Y61529D01*
Y61544D01*
Y61559D01*
Y61573D01*
Y61588D01*
Y61603D01*
Y61617D01*
Y61632D01*
Y61647D01*
Y61661D01*
Y61676D01*
Y61691D01*
Y61705D01*
Y61720D01*
Y61735D01*
Y61749D01*
Y61764D01*
Y61779D01*
Y61793D01*
Y61808D01*
Y61823D01*
Y61837D01*
Y61852D01*
Y61866D01*
Y61881D01*
Y61896D01*
Y61910D01*
Y61925D01*
Y61940D01*
Y61954D01*
Y61969D01*
Y61984D01*
Y61998D01*
Y62013D01*
Y62028D01*
Y62042D01*
Y62057D01*
Y62072D01*
Y62086D01*
Y62101D01*
Y62116D01*
Y62130D01*
Y62145D01*
Y62160D01*
Y62174D01*
Y62189D01*
Y62204D01*
Y62218D01*
Y62233D01*
Y62248D01*
Y62262D01*
Y62277D01*
Y62292D01*
Y62306D01*
Y62321D01*
Y62336D01*
Y62350D01*
Y62365D01*
Y62380D01*
Y62394D01*
Y62409D01*
Y62424D01*
Y62438D01*
Y62453D01*
Y62468D01*
Y62482D01*
Y62497D01*
Y62512D01*
Y62526D01*
Y62541D01*
Y62556D01*
Y62570D01*
Y62585D01*
Y62600D01*
Y62614D01*
Y62629D01*
Y62644D01*
Y62658D01*
Y62673D01*
Y62688D01*
Y62702D01*
Y62717D01*
Y62731D01*
Y62746D01*
Y62761D01*
Y62775D01*
Y62790D01*
Y62805D01*
Y62819D01*
Y62834D01*
Y62849D01*
Y62863D01*
Y62878D01*
Y62893D01*
Y62907D01*
Y62922D01*
Y62937D01*
Y62951D01*
Y62966D01*
Y62981D01*
Y62995D01*
Y63010D01*
Y63025D01*
Y63039D01*
Y63054D01*
Y63069D01*
Y63083D01*
Y63098D01*
X28019D01*
Y63083D01*
D02*
G37*
G36*
X25893Y63157D02*
X25981D01*
Y63142D01*
X26039D01*
Y63127D01*
X26083D01*
Y63113D01*
X26112D01*
Y63098D01*
X26156D01*
Y63083D01*
X26186D01*
Y63069D01*
X26215D01*
Y63054D01*
X26230D01*
Y63039D01*
X26259D01*
Y63025D01*
X26274D01*
Y63010D01*
X26289D01*
Y62995D01*
X26318D01*
Y62981D01*
X26332D01*
Y62966D01*
X26347D01*
Y62951D01*
X26362D01*
Y62937D01*
X26376D01*
Y62922D01*
X26391D01*
Y62907D01*
X26406D01*
Y62893D01*
X26420D01*
Y62878D01*
X26435D01*
Y62863D01*
X26450D01*
Y62849D01*
Y62834D01*
X26464D01*
Y62819D01*
X26479D01*
Y62805D01*
X26494D01*
Y62790D01*
Y62775D01*
X26508D01*
Y62761D01*
X26523D01*
Y62746D01*
Y62731D01*
X26538D01*
Y62717D01*
X26552D01*
Y62702D01*
Y62688D01*
X26567D01*
Y62673D01*
Y62658D01*
X26582D01*
Y62644D01*
Y62629D01*
X26597D01*
Y62644D01*
Y62658D01*
Y62673D01*
Y62688D01*
Y62702D01*
Y62717D01*
Y62731D01*
Y62746D01*
Y62761D01*
Y62775D01*
Y62790D01*
Y62805D01*
Y62819D01*
Y62834D01*
Y62849D01*
Y62863D01*
Y62878D01*
Y62893D01*
Y62907D01*
Y62922D01*
Y62937D01*
Y62951D01*
Y62966D01*
Y62981D01*
Y62995D01*
Y63010D01*
Y63025D01*
Y63039D01*
Y63054D01*
Y63069D01*
Y63083D01*
Y63098D01*
X26904D01*
Y63083D01*
Y63069D01*
Y63054D01*
Y63039D01*
Y63025D01*
Y63010D01*
Y62995D01*
Y62981D01*
Y62966D01*
Y62951D01*
Y62937D01*
Y62922D01*
Y62907D01*
Y62893D01*
Y62878D01*
Y62863D01*
Y62849D01*
Y62834D01*
Y62819D01*
Y62805D01*
Y62790D01*
Y62775D01*
Y62761D01*
Y62746D01*
Y62731D01*
Y62717D01*
Y62702D01*
Y62688D01*
Y62673D01*
Y62658D01*
Y62644D01*
Y62629D01*
Y62614D01*
Y62600D01*
Y62585D01*
Y62570D01*
Y62556D01*
Y62541D01*
Y62526D01*
Y62512D01*
Y62497D01*
Y62482D01*
Y62468D01*
Y62453D01*
Y62438D01*
Y62424D01*
Y62409D01*
Y62394D01*
Y62380D01*
Y62365D01*
Y62350D01*
Y62336D01*
Y62321D01*
Y62306D01*
Y62292D01*
Y62277D01*
Y62262D01*
Y62248D01*
Y62233D01*
Y62218D01*
Y62204D01*
Y62189D01*
Y62174D01*
Y62160D01*
Y62145D01*
Y62130D01*
Y62116D01*
Y62101D01*
Y62086D01*
Y62072D01*
Y62057D01*
Y62042D01*
Y62028D01*
Y62013D01*
Y61998D01*
Y61984D01*
Y61969D01*
Y61954D01*
Y61940D01*
Y61925D01*
Y61910D01*
Y61896D01*
Y61881D01*
Y61866D01*
Y61852D01*
Y61837D01*
Y61823D01*
Y61808D01*
Y61793D01*
Y61779D01*
Y61764D01*
Y61749D01*
Y61735D01*
Y61720D01*
Y61705D01*
Y61691D01*
Y61676D01*
Y61661D01*
Y61647D01*
Y61632D01*
Y61617D01*
Y61603D01*
Y61588D01*
Y61573D01*
Y61559D01*
Y61544D01*
Y61529D01*
Y61515D01*
Y61500D01*
Y61485D01*
Y61471D01*
Y61456D01*
Y61441D01*
Y61427D01*
Y61412D01*
Y61397D01*
Y61383D01*
Y61368D01*
Y61353D01*
Y61339D01*
Y61324D01*
Y61309D01*
Y61295D01*
Y61280D01*
Y61265D01*
Y61251D01*
Y61236D01*
Y61221D01*
Y61207D01*
Y61192D01*
Y61177D01*
Y61163D01*
Y61148D01*
Y61133D01*
Y61119D01*
Y61104D01*
Y61089D01*
Y61075D01*
Y61060D01*
Y61045D01*
Y61031D01*
Y61016D01*
Y61001D01*
Y60987D01*
Y60972D01*
Y60957D01*
Y60943D01*
Y60928D01*
Y60914D01*
Y60899D01*
Y60884D01*
Y60870D01*
Y60855D01*
Y60840D01*
Y60826D01*
Y60811D01*
Y60796D01*
Y60782D01*
Y60767D01*
Y60752D01*
Y60738D01*
Y60723D01*
Y60708D01*
Y60694D01*
Y60679D01*
Y60664D01*
Y60650D01*
Y60635D01*
Y60620D01*
Y60606D01*
Y60591D01*
Y60576D01*
Y60562D01*
X26597D01*
Y60576D01*
Y60591D01*
Y60606D01*
Y60620D01*
Y60635D01*
Y60650D01*
Y60664D01*
Y60679D01*
Y60694D01*
Y60708D01*
Y60723D01*
Y60738D01*
Y60752D01*
Y60767D01*
Y60782D01*
Y60796D01*
Y60811D01*
Y60826D01*
Y60840D01*
Y60855D01*
Y60870D01*
Y60884D01*
Y60899D01*
Y60914D01*
Y60928D01*
Y60943D01*
Y60957D01*
Y60972D01*
Y60987D01*
Y61001D01*
Y61016D01*
Y61031D01*
Y61045D01*
Y61060D01*
Y61075D01*
Y61089D01*
Y61104D01*
Y61119D01*
Y61133D01*
Y61148D01*
Y61163D01*
Y61177D01*
Y61192D01*
Y61207D01*
Y61221D01*
Y61236D01*
Y61251D01*
Y61265D01*
Y61280D01*
Y61295D01*
Y61309D01*
Y61324D01*
Y61339D01*
Y61353D01*
Y61368D01*
Y61383D01*
Y61397D01*
Y61412D01*
Y61427D01*
Y61441D01*
Y61456D01*
Y61471D01*
Y61485D01*
Y61500D01*
Y61515D01*
Y61529D01*
Y61544D01*
Y61559D01*
Y61573D01*
Y61588D01*
Y61603D01*
Y61617D01*
Y61632D01*
Y61647D01*
Y61661D01*
Y61676D01*
Y61691D01*
Y61705D01*
Y61720D01*
Y61735D01*
Y61749D01*
Y61764D01*
Y61779D01*
Y61793D01*
Y61808D01*
Y61823D01*
Y61837D01*
Y61852D01*
Y61866D01*
Y61881D01*
Y61896D01*
Y61910D01*
Y61925D01*
Y61940D01*
Y61954D01*
Y61969D01*
Y61984D01*
Y61998D01*
Y62013D01*
Y62028D01*
Y62042D01*
Y62057D01*
Y62072D01*
Y62086D01*
Y62101D01*
Y62116D01*
Y62130D01*
Y62145D01*
X26582D01*
Y62160D01*
Y62174D01*
Y62189D01*
Y62204D01*
Y62218D01*
Y62233D01*
X26568D01*
Y62248D01*
Y62262D01*
Y62277D01*
Y62292D01*
X26552D01*
Y62306D01*
Y62321D01*
Y62336D01*
Y62350D01*
X26538D01*
Y62365D01*
Y62380D01*
X26524D01*
Y62394D01*
Y62409D01*
Y62424D01*
X26508D01*
Y62438D01*
Y62453D01*
X26495D01*
Y62468D01*
Y62482D01*
X26479D01*
Y62497D01*
Y62512D01*
X26464D01*
Y62526D01*
Y62541D01*
X26451D01*
Y62556D01*
Y62570D01*
X26435D01*
Y62585D01*
X26421D01*
Y62600D01*
Y62614D01*
X26406D01*
Y62629D01*
X26391D01*
Y62644D01*
X26377D01*
Y62658D01*
X26363D01*
Y62673D01*
Y62688D01*
X26348D01*
Y62702D01*
X26332D01*
Y62717D01*
X26318D01*
Y62731D01*
X26303D01*
Y62746D01*
X26274D01*
Y62761D01*
X26259D01*
Y62775D01*
X26245D01*
Y62790D01*
X26230D01*
Y62805D01*
X26202D01*
Y62819D01*
X26171D01*
Y62834D01*
X26156D01*
Y62849D01*
X26127D01*
Y62863D01*
X26084D01*
Y62878D01*
X26054D01*
Y62893D01*
X26011D01*
Y62907D01*
X25938D01*
Y62922D01*
X25673D01*
Y62907D01*
X25614D01*
Y62893D01*
X25570D01*
Y62878D01*
X25541D01*
Y62863D01*
X25511D01*
Y62849D01*
X25482D01*
Y62834D01*
X25467D01*
Y62819D01*
X25453D01*
Y62805D01*
X25438D01*
Y62790D01*
X25423D01*
Y62775D01*
X25409D01*
Y62761D01*
X25394D01*
Y62746D01*
Y62731D01*
X25379D01*
Y62717D01*
X25365D01*
Y62702D01*
Y62688D01*
X25350D01*
Y62673D01*
Y62658D01*
X25335D01*
Y62644D01*
Y62629D01*
Y62614D01*
X25321D01*
Y62600D01*
Y62585D01*
Y62570D01*
X25306D01*
Y62556D01*
Y62541D01*
Y62526D01*
Y62512D01*
X25291D01*
Y62497D01*
Y62482D01*
Y62468D01*
Y62453D01*
Y62438D01*
X25277D01*
Y62424D01*
Y62409D01*
Y62394D01*
Y62380D01*
Y62365D01*
Y62350D01*
Y62336D01*
Y62321D01*
Y62306D01*
Y62292D01*
X25262D01*
Y62277D01*
Y62262D01*
Y62248D01*
Y62233D01*
Y62218D01*
Y62204D01*
Y62189D01*
Y62174D01*
Y62160D01*
Y62145D01*
Y62130D01*
Y62116D01*
Y62101D01*
Y62086D01*
Y62072D01*
Y62057D01*
Y62042D01*
Y62028D01*
Y62013D01*
Y61998D01*
Y61984D01*
Y61969D01*
Y61954D01*
Y61940D01*
Y61925D01*
Y61910D01*
Y61896D01*
Y61881D01*
Y61866D01*
Y61852D01*
Y61837D01*
Y61823D01*
Y61808D01*
Y61793D01*
Y61779D01*
Y61764D01*
Y61749D01*
Y61735D01*
Y61720D01*
Y61705D01*
Y61691D01*
Y61676D01*
Y61661D01*
Y61647D01*
Y61632D01*
Y61617D01*
Y61603D01*
Y61588D01*
Y61573D01*
Y61559D01*
Y61544D01*
Y61529D01*
Y61515D01*
Y61500D01*
Y61485D01*
Y61471D01*
Y61456D01*
Y61441D01*
Y61427D01*
Y61412D01*
Y61397D01*
Y61383D01*
Y61368D01*
Y61353D01*
Y61339D01*
Y61324D01*
Y61309D01*
Y61295D01*
Y61280D01*
Y61265D01*
Y61251D01*
Y61236D01*
Y61221D01*
Y61207D01*
Y61192D01*
Y61177D01*
Y61163D01*
Y61148D01*
Y61133D01*
Y61119D01*
Y61104D01*
Y61089D01*
Y61075D01*
Y61060D01*
Y61045D01*
Y61031D01*
Y61016D01*
Y61001D01*
Y60987D01*
Y60972D01*
Y60957D01*
Y60943D01*
Y60928D01*
Y60914D01*
Y60899D01*
Y60884D01*
Y60870D01*
Y60855D01*
Y60840D01*
Y60826D01*
Y60811D01*
Y60796D01*
Y60782D01*
Y60767D01*
Y60752D01*
Y60738D01*
Y60723D01*
Y60708D01*
Y60694D01*
Y60679D01*
Y60664D01*
Y60650D01*
Y60635D01*
Y60620D01*
Y60606D01*
Y60591D01*
Y60576D01*
Y60562D01*
X24969D01*
Y60576D01*
Y60591D01*
Y60606D01*
Y60620D01*
Y60635D01*
Y60650D01*
Y60664D01*
Y60679D01*
Y60694D01*
Y60708D01*
Y60723D01*
Y60738D01*
Y60752D01*
Y60767D01*
Y60782D01*
Y60796D01*
Y60811D01*
Y60826D01*
Y60840D01*
Y60855D01*
Y60870D01*
Y60884D01*
Y60899D01*
Y60914D01*
Y60928D01*
Y60943D01*
Y60957D01*
Y60972D01*
Y60987D01*
Y61001D01*
Y61016D01*
Y61031D01*
Y61045D01*
Y61060D01*
Y61075D01*
Y61089D01*
Y61104D01*
Y61119D01*
Y61133D01*
Y61148D01*
Y61163D01*
Y61177D01*
Y61192D01*
Y61207D01*
Y61221D01*
Y61236D01*
Y61251D01*
Y61265D01*
Y61280D01*
Y61295D01*
Y61309D01*
Y61324D01*
Y61339D01*
Y61353D01*
Y61368D01*
Y61383D01*
Y61397D01*
Y61412D01*
Y61427D01*
Y61441D01*
Y61456D01*
Y61471D01*
Y61485D01*
Y61500D01*
Y61515D01*
Y61529D01*
Y61544D01*
Y61559D01*
Y61573D01*
Y61588D01*
Y61603D01*
Y61617D01*
Y61632D01*
Y61647D01*
Y61661D01*
Y61676D01*
Y61691D01*
Y61705D01*
Y61720D01*
Y61735D01*
Y61749D01*
Y61764D01*
Y61779D01*
Y61793D01*
Y61808D01*
Y61823D01*
Y61837D01*
Y61852D01*
Y61866D01*
Y61881D01*
Y61896D01*
Y61910D01*
Y61925D01*
Y61940D01*
Y61954D01*
Y61969D01*
Y61984D01*
Y61998D01*
Y62013D01*
Y62028D01*
Y62042D01*
Y62057D01*
Y62072D01*
Y62086D01*
Y62101D01*
Y62116D01*
Y62130D01*
Y62145D01*
Y62160D01*
Y62174D01*
Y62189D01*
Y62204D01*
Y62218D01*
Y62233D01*
Y62248D01*
Y62262D01*
Y62277D01*
Y62292D01*
X24970D01*
Y62306D01*
Y62321D01*
Y62336D01*
Y62350D01*
X24984D01*
Y62365D01*
Y62380D01*
Y62394D01*
Y62409D01*
Y62424D01*
Y62438D01*
X24985D01*
Y62453D01*
Y62468D01*
Y62482D01*
X24998D01*
Y62497D01*
Y62512D01*
Y62526D01*
Y62541D01*
Y62556D01*
Y62570D01*
X25014D01*
Y62585D01*
Y62600D01*
Y62614D01*
X25013D01*
Y62629D01*
X25029D01*
Y62644D01*
Y62658D01*
X25028D01*
Y62673D01*
X25043D01*
Y62688D01*
X25042D01*
Y62702D01*
Y62717D01*
X25058D01*
Y62731D01*
X25057D01*
Y62746D01*
X25073D01*
Y62761D01*
X25072D01*
Y62775D01*
X25087D01*
Y62790D01*
X25086D01*
Y62805D01*
X25102D01*
Y62819D01*
X25101D01*
Y62834D01*
X25116D01*
Y62849D01*
X25131D01*
Y62863D01*
X25130D01*
Y62878D01*
X25146D01*
Y62893D01*
X25161D01*
Y62907D01*
X25175D01*
Y62922D01*
X25190D01*
Y62937D01*
X25189D01*
Y62951D01*
X25203D01*
Y62966D01*
X25233D01*
Y62981D01*
X25249D01*
Y62995D01*
X25262D01*
Y63010D01*
X25277D01*
Y63025D01*
X25291D01*
Y63039D01*
X25321D01*
Y63054D01*
X25351D01*
Y63069D01*
X25365D01*
Y63083D01*
X25394D01*
Y63098D01*
X25424D01*
Y63113D01*
X25467D01*
Y63127D01*
X25511D01*
Y63142D01*
X25570D01*
Y63157D01*
X25658D01*
Y63171D01*
X25893D01*
Y63157D01*
D02*
G37*
G36*
X19955Y63083D02*
Y63069D01*
Y63054D01*
Y63039D01*
Y63025D01*
Y63010D01*
Y62995D01*
Y62981D01*
Y62966D01*
Y62951D01*
Y62937D01*
Y62922D01*
Y62907D01*
Y62893D01*
Y62878D01*
Y62863D01*
Y62849D01*
Y62834D01*
Y62819D01*
Y62805D01*
Y62790D01*
Y62775D01*
Y62761D01*
Y62746D01*
Y62731D01*
Y62717D01*
Y62702D01*
Y62688D01*
Y62673D01*
Y62658D01*
Y62644D01*
Y62629D01*
Y62614D01*
Y62600D01*
Y62585D01*
Y62570D01*
Y62556D01*
Y62541D01*
Y62526D01*
Y62512D01*
Y62497D01*
Y62482D01*
Y62468D01*
Y62453D01*
Y62438D01*
Y62424D01*
Y62409D01*
Y62394D01*
Y62380D01*
Y62365D01*
Y62350D01*
Y62336D01*
Y62321D01*
Y62306D01*
Y62292D01*
Y62277D01*
Y62262D01*
Y62248D01*
Y62233D01*
Y62218D01*
Y62204D01*
Y62189D01*
Y62174D01*
Y62160D01*
Y62145D01*
Y62130D01*
Y62116D01*
Y62101D01*
Y62086D01*
Y62072D01*
Y62057D01*
Y62042D01*
Y62028D01*
Y62013D01*
Y61998D01*
Y61984D01*
Y61969D01*
Y61954D01*
Y61940D01*
Y61925D01*
Y61910D01*
Y61896D01*
Y61881D01*
Y61866D01*
Y61852D01*
Y61837D01*
Y61823D01*
Y61808D01*
Y61793D01*
Y61779D01*
Y61764D01*
Y61749D01*
Y61735D01*
Y61720D01*
Y61705D01*
Y61691D01*
Y61676D01*
Y61661D01*
Y61647D01*
Y61632D01*
Y61617D01*
Y61603D01*
Y61588D01*
Y61573D01*
Y61559D01*
Y61544D01*
Y61529D01*
Y61515D01*
Y61500D01*
Y61485D01*
Y61471D01*
Y61456D01*
Y61441D01*
Y61427D01*
Y61412D01*
Y61397D01*
Y61383D01*
Y61368D01*
Y61353D01*
Y61339D01*
Y61324D01*
Y61309D01*
Y61295D01*
Y61280D01*
Y61265D01*
Y61251D01*
Y61236D01*
Y61221D01*
Y61207D01*
Y61192D01*
Y61177D01*
Y61163D01*
Y61148D01*
Y61133D01*
Y61119D01*
Y61104D01*
Y61089D01*
Y61075D01*
Y61060D01*
Y61045D01*
Y61031D01*
Y61016D01*
Y61001D01*
Y60987D01*
Y60972D01*
Y60957D01*
Y60943D01*
Y60928D01*
Y60914D01*
Y60899D01*
Y60884D01*
Y60870D01*
Y60855D01*
Y60840D01*
Y60826D01*
Y60811D01*
Y60796D01*
Y60782D01*
Y60767D01*
Y60752D01*
Y60738D01*
Y60723D01*
Y60708D01*
Y60694D01*
Y60679D01*
Y60664D01*
Y60650D01*
Y60635D01*
Y60620D01*
Y60606D01*
Y60591D01*
Y60576D01*
Y60562D01*
X19222D01*
Y60576D01*
Y60591D01*
Y60606D01*
Y60620D01*
Y60635D01*
Y60650D01*
Y60664D01*
Y60679D01*
Y60694D01*
Y60708D01*
Y60723D01*
Y60738D01*
Y60752D01*
Y60767D01*
Y60782D01*
Y60796D01*
Y60811D01*
Y60826D01*
Y60840D01*
Y60855D01*
Y60870D01*
Y60884D01*
Y60899D01*
Y60914D01*
Y60928D01*
Y60943D01*
Y60957D01*
Y60972D01*
Y60987D01*
Y61001D01*
Y61016D01*
Y61031D01*
Y61045D01*
Y61060D01*
Y61075D01*
Y61089D01*
Y61104D01*
Y61119D01*
Y61133D01*
Y61148D01*
Y61163D01*
Y61177D01*
Y61192D01*
Y61207D01*
Y61221D01*
Y61236D01*
Y61251D01*
Y61265D01*
Y61280D01*
Y61295D01*
Y61309D01*
Y61324D01*
Y61339D01*
Y61353D01*
Y61368D01*
Y61383D01*
Y61397D01*
Y61412D01*
Y61427D01*
Y61441D01*
Y61456D01*
Y61471D01*
Y61485D01*
Y61500D01*
Y61515D01*
Y61529D01*
Y61544D01*
Y61559D01*
Y61573D01*
Y61588D01*
Y61603D01*
Y61617D01*
Y61632D01*
Y61647D01*
Y61661D01*
Y61676D01*
Y61691D01*
Y61705D01*
Y61720D01*
Y61735D01*
Y61749D01*
Y61764D01*
Y61779D01*
Y61793D01*
Y61808D01*
Y61823D01*
Y61837D01*
Y61852D01*
Y61866D01*
Y61881D01*
Y61896D01*
Y61910D01*
Y61925D01*
Y61940D01*
Y61954D01*
Y61969D01*
Y61984D01*
Y61998D01*
Y62013D01*
Y62028D01*
Y62042D01*
Y62057D01*
Y62072D01*
Y62086D01*
Y62101D01*
Y62116D01*
Y62130D01*
Y62145D01*
Y62160D01*
Y62174D01*
Y62189D01*
Y62204D01*
Y62218D01*
Y62233D01*
Y62248D01*
Y62262D01*
Y62277D01*
Y62292D01*
Y62306D01*
Y62321D01*
Y62336D01*
Y62350D01*
Y62365D01*
Y62380D01*
Y62394D01*
Y62409D01*
Y62424D01*
Y62438D01*
Y62453D01*
Y62468D01*
Y62482D01*
Y62497D01*
Y62512D01*
Y62526D01*
Y62541D01*
Y62556D01*
Y62570D01*
Y62585D01*
Y62600D01*
Y62614D01*
Y62629D01*
Y62644D01*
Y62658D01*
Y62673D01*
Y62688D01*
Y62702D01*
Y62717D01*
Y62731D01*
Y62746D01*
Y62761D01*
Y62775D01*
Y62790D01*
Y62805D01*
Y62819D01*
Y62834D01*
Y62849D01*
Y62863D01*
Y62878D01*
Y62893D01*
Y62907D01*
Y62922D01*
Y62937D01*
Y62951D01*
Y62966D01*
Y62981D01*
Y62995D01*
Y63010D01*
Y63025D01*
Y63039D01*
Y63054D01*
Y63069D01*
Y63083D01*
Y63098D01*
X19955D01*
Y63083D01*
D02*
G37*
G36*
X16158D02*
Y63069D01*
Y63054D01*
Y63039D01*
Y63025D01*
Y63010D01*
Y62995D01*
Y62981D01*
Y62966D01*
Y62951D01*
Y62937D01*
Y62922D01*
Y62907D01*
Y62893D01*
Y62878D01*
Y62863D01*
Y62849D01*
Y62834D01*
Y62819D01*
Y62805D01*
Y62790D01*
Y62775D01*
Y62761D01*
Y62746D01*
Y62731D01*
Y62717D01*
Y62702D01*
Y62688D01*
Y62673D01*
Y62658D01*
Y62644D01*
Y62629D01*
Y62614D01*
Y62600D01*
Y62585D01*
Y62570D01*
Y62556D01*
Y62541D01*
Y62526D01*
Y62512D01*
Y62497D01*
Y62482D01*
Y62468D01*
Y62453D01*
Y62438D01*
Y62424D01*
Y62409D01*
Y62394D01*
Y62380D01*
Y62365D01*
Y62350D01*
Y62336D01*
Y62321D01*
Y62306D01*
Y62292D01*
Y62277D01*
Y62262D01*
Y62248D01*
Y62233D01*
Y62218D01*
Y62204D01*
Y62189D01*
Y62174D01*
Y62160D01*
Y62145D01*
Y62130D01*
Y62116D01*
Y62101D01*
Y62086D01*
Y62072D01*
Y62057D01*
Y62042D01*
Y62028D01*
Y62013D01*
Y61998D01*
Y61984D01*
Y61969D01*
Y61954D01*
Y61940D01*
Y61925D01*
Y61910D01*
Y61896D01*
Y61881D01*
Y61866D01*
Y61852D01*
Y61837D01*
Y61823D01*
Y61808D01*
Y61793D01*
Y61779D01*
Y61764D01*
Y61749D01*
Y61735D01*
Y61720D01*
Y61705D01*
Y61691D01*
Y61676D01*
Y61661D01*
Y61647D01*
Y61632D01*
Y61617D01*
Y61603D01*
Y61588D01*
Y61573D01*
Y61559D01*
Y61544D01*
Y61529D01*
Y61515D01*
Y61500D01*
Y61485D01*
Y61471D01*
Y61456D01*
Y61441D01*
Y61427D01*
Y61412D01*
Y61397D01*
Y61383D01*
Y61368D01*
Y61353D01*
Y61339D01*
Y61324D01*
Y61309D01*
Y61295D01*
Y61280D01*
Y61265D01*
Y61251D01*
Y61236D01*
Y61221D01*
Y61207D01*
Y61192D01*
Y61177D01*
Y61163D01*
Y61148D01*
Y61133D01*
Y61119D01*
Y61104D01*
Y61089D01*
Y61075D01*
Y61060D01*
Y61045D01*
Y61031D01*
Y61016D01*
Y61001D01*
Y60987D01*
Y60972D01*
Y60957D01*
Y60943D01*
Y60928D01*
Y60914D01*
Y60899D01*
Y60884D01*
Y60870D01*
Y60855D01*
Y60840D01*
Y60826D01*
Y60811D01*
Y60796D01*
Y60782D01*
Y60767D01*
Y60752D01*
Y60738D01*
Y60723D01*
Y60708D01*
Y60694D01*
Y60679D01*
Y60664D01*
Y60650D01*
Y60635D01*
Y60620D01*
Y60606D01*
Y60591D01*
Y60576D01*
Y60562D01*
X15425D01*
Y60576D01*
Y60591D01*
Y60606D01*
Y60620D01*
Y60635D01*
Y60650D01*
Y60664D01*
Y60679D01*
Y60694D01*
Y60708D01*
Y60723D01*
Y60738D01*
Y60752D01*
Y60767D01*
Y60782D01*
Y60796D01*
Y60811D01*
Y60826D01*
Y60840D01*
Y60855D01*
Y60870D01*
Y60884D01*
Y60899D01*
Y60914D01*
Y60928D01*
Y60943D01*
Y60957D01*
Y60972D01*
Y60987D01*
Y61001D01*
Y61016D01*
Y61031D01*
Y61045D01*
Y61060D01*
Y61075D01*
Y61089D01*
Y61104D01*
Y61119D01*
Y61133D01*
Y61148D01*
Y61163D01*
Y61177D01*
Y61192D01*
Y61207D01*
Y61221D01*
Y61236D01*
Y61251D01*
Y61265D01*
Y61280D01*
Y61295D01*
Y61309D01*
Y61324D01*
Y61339D01*
Y61353D01*
Y61368D01*
Y61383D01*
Y61397D01*
Y61412D01*
Y61427D01*
Y61441D01*
Y61456D01*
Y61471D01*
Y61485D01*
Y61500D01*
Y61515D01*
Y61529D01*
Y61544D01*
Y61559D01*
Y61573D01*
Y61588D01*
Y61603D01*
Y61617D01*
Y61632D01*
Y61647D01*
Y61661D01*
Y61676D01*
Y61691D01*
Y61705D01*
Y61720D01*
Y61735D01*
Y61749D01*
Y61764D01*
Y61779D01*
Y61793D01*
Y61808D01*
Y61823D01*
Y61837D01*
Y61852D01*
Y61866D01*
Y61881D01*
Y61896D01*
Y61910D01*
Y61925D01*
Y61940D01*
Y61954D01*
Y61969D01*
Y61984D01*
Y61998D01*
Y62013D01*
Y62028D01*
Y62042D01*
Y62057D01*
Y62072D01*
Y62086D01*
Y62101D01*
Y62116D01*
Y62130D01*
Y62145D01*
Y62160D01*
Y62174D01*
Y62189D01*
Y62204D01*
Y62218D01*
Y62233D01*
Y62248D01*
Y62262D01*
Y62277D01*
Y62292D01*
Y62306D01*
Y62321D01*
Y62336D01*
Y62350D01*
Y62365D01*
Y62380D01*
Y62394D01*
Y62409D01*
Y62424D01*
Y62438D01*
Y62453D01*
Y62468D01*
Y62482D01*
Y62497D01*
Y62512D01*
Y62526D01*
Y62541D01*
Y62556D01*
Y62570D01*
Y62585D01*
Y62600D01*
Y62614D01*
Y62629D01*
Y62644D01*
Y62658D01*
Y62673D01*
Y62688D01*
Y62702D01*
Y62717D01*
Y62731D01*
Y62746D01*
Y62761D01*
Y62775D01*
Y62790D01*
Y62805D01*
Y62819D01*
Y62834D01*
Y62849D01*
Y62863D01*
Y62878D01*
Y62893D01*
Y62907D01*
Y62922D01*
Y62937D01*
Y62951D01*
Y62966D01*
Y62981D01*
Y62995D01*
Y63010D01*
Y63025D01*
Y63039D01*
Y63054D01*
Y63069D01*
Y63083D01*
Y63098D01*
X16158D01*
Y63083D01*
D02*
G37*
G36*
X10674Y63142D02*
X10806D01*
Y63127D01*
X10865D01*
Y63113D01*
X10909D01*
Y63098D01*
X10953D01*
Y63083D01*
X10982D01*
Y63069D01*
X11011D01*
Y63054D01*
X11026D01*
Y63039D01*
X11056D01*
Y63025D01*
X11070D01*
Y63010D01*
X11085D01*
Y62995D01*
X11100D01*
Y62981D01*
X11114D01*
Y62966D01*
X11129D01*
Y62951D01*
X11144D01*
Y62937D01*
X11158D01*
Y62922D01*
X11173D01*
Y62907D01*
X11187D01*
Y62893D01*
X11202D01*
Y62878D01*
X11217D01*
Y62863D01*
Y62849D01*
X11231D01*
Y62834D01*
X11246D01*
Y62819D01*
X11261D01*
Y62805D01*
Y62790D01*
X11275D01*
Y62775D01*
X11290D01*
Y62761D01*
Y62746D01*
X11305D01*
Y62731D01*
Y62717D01*
X11319D01*
Y62702D01*
X11334D01*
Y62688D01*
Y62673D01*
X11350D01*
Y62688D01*
Y62702D01*
Y62717D01*
Y62731D01*
Y62746D01*
Y62761D01*
Y62775D01*
Y62790D01*
Y62805D01*
Y62819D01*
Y62834D01*
Y62849D01*
Y62863D01*
Y62878D01*
Y62893D01*
Y62907D01*
Y62922D01*
Y62937D01*
Y62951D01*
Y62966D01*
Y62981D01*
Y62995D01*
Y63010D01*
Y63025D01*
Y63039D01*
Y63054D01*
Y63069D01*
Y63083D01*
Y63098D01*
X12038D01*
Y63083D01*
Y63069D01*
Y63054D01*
Y63039D01*
Y63025D01*
Y63010D01*
Y62995D01*
Y62981D01*
Y62966D01*
Y62951D01*
Y62937D01*
Y62922D01*
Y62907D01*
Y62893D01*
Y62878D01*
Y62863D01*
Y62849D01*
Y62834D01*
Y62819D01*
Y62805D01*
Y62790D01*
Y62775D01*
Y62761D01*
Y62746D01*
Y62731D01*
Y62717D01*
Y62702D01*
Y62688D01*
Y62673D01*
Y62658D01*
Y62644D01*
Y62629D01*
Y62614D01*
Y62600D01*
Y62585D01*
Y62570D01*
Y62556D01*
Y62541D01*
Y62526D01*
Y62512D01*
Y62497D01*
Y62482D01*
Y62468D01*
Y62453D01*
Y62438D01*
Y62424D01*
Y62409D01*
Y62394D01*
Y62380D01*
Y62365D01*
Y62350D01*
Y62336D01*
Y62321D01*
Y62306D01*
Y62292D01*
Y62277D01*
Y62262D01*
Y62248D01*
Y62233D01*
Y62218D01*
Y62204D01*
Y62189D01*
Y62174D01*
Y62160D01*
Y62145D01*
Y62130D01*
Y62116D01*
Y62101D01*
Y62086D01*
Y62072D01*
Y62057D01*
Y62042D01*
Y62028D01*
Y62013D01*
Y61998D01*
Y61984D01*
Y61969D01*
Y61954D01*
Y61940D01*
Y61925D01*
Y61910D01*
Y61896D01*
Y61881D01*
Y61866D01*
Y61852D01*
Y61837D01*
Y61823D01*
Y61808D01*
Y61793D01*
Y61779D01*
Y61764D01*
Y61749D01*
Y61735D01*
Y61720D01*
Y61705D01*
Y61691D01*
Y61676D01*
Y61661D01*
Y61647D01*
Y61632D01*
Y61617D01*
Y61603D01*
Y61588D01*
Y61573D01*
Y61559D01*
Y61544D01*
Y61529D01*
Y61515D01*
Y61500D01*
Y61485D01*
Y61471D01*
Y61456D01*
Y61441D01*
Y61427D01*
Y61412D01*
Y61397D01*
Y61383D01*
Y61368D01*
Y61353D01*
Y61339D01*
Y61324D01*
Y61309D01*
Y61295D01*
Y61280D01*
Y61265D01*
Y61251D01*
Y61236D01*
Y61221D01*
Y61207D01*
Y61192D01*
Y61177D01*
Y61163D01*
Y61148D01*
Y61133D01*
Y61119D01*
Y61104D01*
Y61089D01*
Y61075D01*
Y61060D01*
Y61045D01*
Y61031D01*
Y61016D01*
Y61001D01*
Y60987D01*
Y60972D01*
Y60957D01*
Y60943D01*
Y60928D01*
Y60914D01*
Y60899D01*
Y60884D01*
Y60870D01*
Y60855D01*
Y60840D01*
Y60826D01*
Y60811D01*
Y60796D01*
Y60782D01*
Y60767D01*
Y60752D01*
Y60738D01*
Y60723D01*
Y60708D01*
Y60694D01*
Y60679D01*
Y60664D01*
Y60650D01*
Y60635D01*
Y60620D01*
Y60606D01*
Y60591D01*
Y60576D01*
Y60562D01*
X11305D01*
Y60576D01*
Y60591D01*
Y60606D01*
Y60620D01*
Y60635D01*
Y60650D01*
Y60664D01*
Y60679D01*
Y60694D01*
Y60708D01*
Y60723D01*
Y60738D01*
Y60752D01*
Y60767D01*
Y60782D01*
Y60796D01*
Y60811D01*
Y60826D01*
Y60840D01*
Y60855D01*
Y60870D01*
Y60884D01*
Y60899D01*
Y60914D01*
Y60928D01*
Y60943D01*
Y60957D01*
Y60972D01*
Y60987D01*
Y61001D01*
Y61016D01*
Y61031D01*
Y61045D01*
Y61060D01*
Y61075D01*
Y61089D01*
Y61104D01*
Y61119D01*
Y61133D01*
Y61148D01*
Y61163D01*
Y61177D01*
Y61192D01*
Y61207D01*
Y61221D01*
Y61236D01*
Y61251D01*
Y61265D01*
Y61280D01*
Y61295D01*
Y61309D01*
Y61324D01*
Y61339D01*
Y61353D01*
Y61368D01*
Y61383D01*
Y61397D01*
Y61412D01*
Y61427D01*
Y61441D01*
Y61456D01*
Y61471D01*
Y61485D01*
Y61500D01*
Y61515D01*
Y61529D01*
Y61544D01*
Y61559D01*
Y61573D01*
Y61588D01*
Y61603D01*
Y61617D01*
Y61632D01*
Y61647D01*
Y61661D01*
Y61676D01*
Y61691D01*
Y61705D01*
Y61720D01*
Y61735D01*
Y61749D01*
Y61764D01*
Y61779D01*
Y61793D01*
Y61808D01*
Y61823D01*
Y61837D01*
Y61852D01*
Y61866D01*
Y61881D01*
Y61896D01*
Y61910D01*
Y61925D01*
Y61940D01*
Y61954D01*
Y61969D01*
Y61984D01*
Y61998D01*
Y62013D01*
Y62028D01*
Y62042D01*
X11290D01*
Y62057D01*
Y62072D01*
Y62086D01*
Y62101D01*
Y62116D01*
Y62130D01*
Y62145D01*
Y62160D01*
Y62174D01*
Y62189D01*
X11276D01*
Y62204D01*
Y62218D01*
Y62233D01*
Y62248D01*
Y62262D01*
X11261D01*
Y62277D01*
Y62292D01*
Y62306D01*
X11247D01*
Y62321D01*
Y62336D01*
Y62350D01*
X11231D01*
Y62365D01*
Y62380D01*
X11217D01*
Y62394D01*
Y62409D01*
X11203D01*
Y62424D01*
X11187D01*
Y62438D01*
Y62453D01*
X11174D01*
Y62468D01*
X11158D01*
Y62482D01*
X11144D01*
Y62497D01*
X11130D01*
Y62512D01*
X11100D01*
Y62526D01*
X11085D01*
Y62541D01*
X11056D01*
Y62556D01*
X11011D01*
Y62570D01*
X10792D01*
Y62556D01*
X10762D01*
Y62541D01*
X10733D01*
Y62526D01*
X10704D01*
Y62512D01*
X10689D01*
Y62497D01*
X10674D01*
Y62482D01*
X10660D01*
Y62468D01*
X10645D01*
Y62453D01*
Y62438D01*
X10630D01*
Y62424D01*
Y62409D01*
X10616D01*
Y62394D01*
Y62380D01*
X10601D01*
Y62365D01*
Y62350D01*
Y62336D01*
X10586D01*
Y62321D01*
Y62306D01*
Y62292D01*
Y62277D01*
Y62262D01*
Y62248D01*
Y62233D01*
Y62218D01*
X10572D01*
Y62204D01*
Y62189D01*
Y62174D01*
Y62160D01*
Y62145D01*
Y62130D01*
Y62116D01*
Y62101D01*
Y62086D01*
Y62072D01*
Y62057D01*
Y62042D01*
Y62028D01*
Y62013D01*
Y61998D01*
Y61984D01*
Y61969D01*
Y61954D01*
Y61940D01*
Y61925D01*
Y61910D01*
Y61896D01*
Y61881D01*
Y61866D01*
Y61852D01*
Y61837D01*
Y61823D01*
Y61808D01*
Y61793D01*
Y61779D01*
Y61764D01*
Y61749D01*
Y61735D01*
Y61720D01*
Y61705D01*
Y61691D01*
Y61676D01*
Y61661D01*
Y61647D01*
Y61632D01*
Y61617D01*
Y61603D01*
Y61588D01*
Y61573D01*
Y61559D01*
Y61544D01*
Y61529D01*
Y61515D01*
Y61500D01*
Y61485D01*
Y61471D01*
Y61456D01*
Y61441D01*
Y61427D01*
Y61412D01*
Y61397D01*
Y61383D01*
Y61368D01*
Y61353D01*
Y61339D01*
Y61324D01*
Y61309D01*
Y61295D01*
Y61280D01*
Y61265D01*
Y61251D01*
Y61236D01*
Y61221D01*
Y61207D01*
Y61192D01*
Y61177D01*
Y61163D01*
Y61148D01*
Y61133D01*
Y61119D01*
Y61104D01*
Y61089D01*
Y61075D01*
Y61060D01*
Y61045D01*
Y61031D01*
Y61016D01*
Y61001D01*
Y60987D01*
Y60972D01*
Y60957D01*
Y60943D01*
Y60928D01*
Y60914D01*
Y60899D01*
Y60884D01*
Y60870D01*
Y60855D01*
Y60840D01*
Y60826D01*
Y60811D01*
Y60796D01*
Y60782D01*
Y60767D01*
Y60752D01*
Y60738D01*
Y60723D01*
Y60708D01*
Y60694D01*
Y60679D01*
Y60664D01*
Y60650D01*
Y60635D01*
Y60620D01*
Y60606D01*
Y60591D01*
Y60576D01*
Y60562D01*
X9839D01*
Y60576D01*
Y60591D01*
Y60606D01*
Y60620D01*
Y60635D01*
Y60650D01*
Y60664D01*
Y60679D01*
Y60694D01*
Y60708D01*
Y60723D01*
Y60738D01*
Y60752D01*
Y60767D01*
Y60782D01*
Y60796D01*
Y60811D01*
Y60826D01*
Y60840D01*
Y60855D01*
Y60870D01*
Y60884D01*
Y60899D01*
Y60914D01*
Y60928D01*
Y60943D01*
Y60957D01*
Y60972D01*
Y60987D01*
Y61001D01*
Y61016D01*
Y61031D01*
Y61045D01*
Y61060D01*
Y61075D01*
Y61089D01*
Y61104D01*
Y61119D01*
Y61133D01*
Y61148D01*
Y61163D01*
Y61177D01*
Y61192D01*
Y61207D01*
Y61221D01*
Y61236D01*
Y61251D01*
Y61265D01*
Y61280D01*
Y61295D01*
Y61309D01*
Y61324D01*
Y61339D01*
Y61353D01*
Y61368D01*
Y61383D01*
Y61397D01*
Y61412D01*
Y61427D01*
Y61441D01*
Y61456D01*
Y61471D01*
Y61485D01*
Y61500D01*
Y61515D01*
Y61529D01*
Y61544D01*
Y61559D01*
Y61573D01*
Y61588D01*
Y61603D01*
Y61617D01*
Y61632D01*
Y61647D01*
Y61661D01*
Y61676D01*
Y61691D01*
Y61705D01*
Y61720D01*
Y61735D01*
Y61749D01*
Y61764D01*
Y61779D01*
Y61793D01*
Y61808D01*
Y61823D01*
Y61837D01*
Y61852D01*
Y61866D01*
Y61881D01*
Y61896D01*
Y61910D01*
Y61925D01*
Y61940D01*
Y61954D01*
Y61969D01*
Y61984D01*
Y61998D01*
Y62013D01*
Y62028D01*
Y62042D01*
Y62057D01*
Y62072D01*
Y62086D01*
Y62101D01*
Y62116D01*
Y62130D01*
Y62145D01*
Y62160D01*
Y62174D01*
Y62189D01*
Y62204D01*
Y62218D01*
X9840D01*
Y62233D01*
Y62248D01*
Y62262D01*
Y62277D01*
Y62292D01*
Y62306D01*
Y62321D01*
Y62336D01*
X9839D01*
Y62350D01*
Y62365D01*
Y62380D01*
X9840D01*
Y62394D01*
Y62409D01*
X9839D01*
Y62424D01*
X9854D01*
Y62438D01*
Y62453D01*
Y62468D01*
X9853D01*
Y62482D01*
X9854D01*
Y62497D01*
X9853D01*
Y62512D01*
X9854D01*
Y62526D01*
X9853D01*
Y62541D01*
X9869D01*
Y62556D01*
X9868D01*
Y62570D01*
Y62585D01*
Y62600D01*
Y62614D01*
X9884D01*
Y62629D01*
Y62644D01*
Y62658D01*
Y62673D01*
X9897D01*
Y62688D01*
Y62702D01*
X9898D01*
Y62717D01*
X9912D01*
Y62731D01*
Y62746D01*
Y62761D01*
X9928D01*
Y62775D01*
X9927D01*
Y62790D01*
X9941D01*
Y62805D01*
Y62819D01*
X9956D01*
Y62834D01*
X9957D01*
Y62849D01*
X9971D01*
Y62863D01*
X9985D01*
Y62878D01*
X9986D01*
Y62893D01*
X10001D01*
Y62907D01*
X10016D01*
Y62922D01*
X10030D01*
Y62937D01*
X10044D01*
Y62951D01*
X10059D01*
Y62966D01*
X10074D01*
Y62981D01*
X10089D01*
Y62995D01*
X10103D01*
Y63010D01*
X10132D01*
Y63025D01*
X10147D01*
Y63039D01*
X10176D01*
Y63054D01*
X10205D01*
Y63069D01*
X10235D01*
Y63083D01*
X10265D01*
Y63098D01*
X10309D01*
Y63113D01*
X10352D01*
Y63127D01*
X10426D01*
Y63142D01*
X10557D01*
Y63157D01*
X10674D01*
Y63142D01*
D02*
G37*
G36*
X9252Y61324D02*
Y61309D01*
Y61295D01*
Y61280D01*
Y61265D01*
Y61251D01*
Y61236D01*
Y61221D01*
Y61207D01*
Y61192D01*
Y61177D01*
Y61163D01*
Y61148D01*
Y61133D01*
Y61119D01*
Y61104D01*
Y61089D01*
Y61075D01*
Y61060D01*
Y61045D01*
Y61031D01*
Y61016D01*
Y61001D01*
Y60987D01*
Y60972D01*
Y60957D01*
Y60943D01*
Y60928D01*
Y60914D01*
Y60899D01*
Y60884D01*
Y60870D01*
Y60855D01*
Y60840D01*
Y60826D01*
Y60811D01*
Y60796D01*
Y60782D01*
Y60767D01*
Y60752D01*
Y60738D01*
Y60723D01*
Y60708D01*
Y60694D01*
Y60679D01*
Y60664D01*
Y60650D01*
Y60635D01*
Y60620D01*
Y60606D01*
Y60591D01*
Y60576D01*
Y60562D01*
X8475D01*
Y60576D01*
Y60591D01*
Y60606D01*
Y60620D01*
Y60635D01*
Y60650D01*
Y60664D01*
Y60679D01*
Y60694D01*
Y60708D01*
Y60723D01*
Y60738D01*
Y60752D01*
Y60767D01*
Y60782D01*
Y60796D01*
Y60811D01*
Y60826D01*
Y60840D01*
Y60855D01*
Y60870D01*
Y60884D01*
Y60899D01*
Y60914D01*
Y60928D01*
Y60943D01*
Y60957D01*
Y60972D01*
Y60987D01*
Y61001D01*
Y61016D01*
Y61031D01*
Y61045D01*
Y61060D01*
Y61075D01*
Y61089D01*
Y61104D01*
Y61119D01*
Y61133D01*
Y61148D01*
Y61163D01*
Y61177D01*
Y61192D01*
Y61207D01*
Y61221D01*
Y61236D01*
Y61251D01*
Y61265D01*
Y61280D01*
Y61295D01*
Y61309D01*
Y61324D01*
Y61339D01*
X9252D01*
Y61324D01*
D02*
G37*
G36*
X5103Y63083D02*
Y63069D01*
Y63054D01*
Y63039D01*
Y63025D01*
Y63010D01*
Y62995D01*
Y62981D01*
Y62966D01*
Y62951D01*
Y62937D01*
Y62922D01*
Y62907D01*
Y62893D01*
Y62878D01*
Y62863D01*
Y62849D01*
Y62834D01*
Y62819D01*
Y62805D01*
Y62790D01*
Y62775D01*
Y62761D01*
Y62746D01*
Y62731D01*
Y62717D01*
Y62702D01*
Y62688D01*
Y62673D01*
Y62658D01*
Y62644D01*
Y62629D01*
Y62614D01*
Y62600D01*
Y62585D01*
Y62570D01*
Y62556D01*
Y62541D01*
Y62526D01*
Y62512D01*
Y62497D01*
Y62482D01*
Y62468D01*
Y62453D01*
Y62438D01*
Y62424D01*
Y62409D01*
Y62394D01*
Y62380D01*
Y62365D01*
Y62350D01*
Y62336D01*
Y62321D01*
Y62306D01*
Y62292D01*
Y62277D01*
Y62262D01*
Y62248D01*
Y62233D01*
Y62218D01*
Y62204D01*
Y62189D01*
Y62174D01*
Y62160D01*
Y62145D01*
Y62130D01*
Y62116D01*
Y62101D01*
Y62086D01*
Y62072D01*
Y62057D01*
Y62042D01*
Y62028D01*
Y62013D01*
Y61998D01*
Y61984D01*
Y61969D01*
Y61954D01*
Y61940D01*
Y61925D01*
Y61910D01*
Y61896D01*
Y61881D01*
Y61866D01*
Y61852D01*
Y61837D01*
Y61823D01*
Y61808D01*
Y61793D01*
Y61779D01*
Y61764D01*
Y61749D01*
Y61735D01*
Y61720D01*
Y61705D01*
Y61691D01*
Y61676D01*
Y61661D01*
Y61647D01*
Y61632D01*
Y61617D01*
Y61603D01*
Y61588D01*
Y61573D01*
Y61559D01*
Y61544D01*
Y61529D01*
Y61515D01*
Y61500D01*
Y61485D01*
Y61471D01*
Y61456D01*
Y61441D01*
Y61427D01*
Y61412D01*
Y61397D01*
Y61383D01*
Y61368D01*
Y61353D01*
Y61339D01*
Y61324D01*
Y61309D01*
Y61295D01*
Y61280D01*
Y61265D01*
Y61251D01*
Y61236D01*
Y61221D01*
Y61207D01*
Y61192D01*
Y61177D01*
Y61163D01*
Y61148D01*
Y61133D01*
Y61119D01*
Y61104D01*
Y61089D01*
Y61075D01*
Y61060D01*
Y61045D01*
Y61031D01*
Y61016D01*
Y61001D01*
Y60987D01*
Y60972D01*
Y60957D01*
Y60943D01*
Y60928D01*
Y60914D01*
Y60899D01*
Y60884D01*
Y60870D01*
Y60855D01*
Y60840D01*
Y60826D01*
Y60811D01*
Y60796D01*
Y60782D01*
Y60767D01*
Y60752D01*
Y60738D01*
Y60723D01*
Y60708D01*
Y60694D01*
Y60679D01*
Y60664D01*
Y60650D01*
Y60635D01*
Y60620D01*
Y60606D01*
Y60591D01*
Y60576D01*
Y60562D01*
X4356D01*
Y60576D01*
Y60591D01*
Y60606D01*
Y60620D01*
Y60635D01*
Y60650D01*
Y60664D01*
Y60679D01*
Y60694D01*
Y60708D01*
Y60723D01*
Y60738D01*
Y60752D01*
Y60767D01*
Y60782D01*
Y60796D01*
Y60811D01*
Y60826D01*
Y60840D01*
Y60855D01*
Y60870D01*
Y60884D01*
Y60899D01*
Y60914D01*
Y60928D01*
Y60943D01*
Y60957D01*
Y60972D01*
Y60987D01*
Y61001D01*
Y61016D01*
Y61031D01*
Y61045D01*
Y61060D01*
Y61075D01*
Y61089D01*
Y61104D01*
Y61119D01*
Y61133D01*
Y61148D01*
Y61163D01*
Y61177D01*
Y61192D01*
Y61207D01*
Y61221D01*
Y61236D01*
Y61251D01*
Y61265D01*
Y61280D01*
Y61295D01*
Y61309D01*
Y61324D01*
Y61339D01*
Y61353D01*
Y61368D01*
Y61383D01*
Y61397D01*
Y61412D01*
Y61427D01*
Y61441D01*
Y61456D01*
Y61471D01*
Y61485D01*
Y61500D01*
Y61515D01*
Y61529D01*
Y61544D01*
Y61559D01*
Y61573D01*
Y61588D01*
Y61603D01*
Y61617D01*
Y61632D01*
Y61647D01*
Y61661D01*
Y61676D01*
Y61691D01*
Y61705D01*
Y61720D01*
Y61735D01*
Y61749D01*
Y61764D01*
Y61779D01*
Y61793D01*
Y61808D01*
Y61823D01*
Y61837D01*
Y61852D01*
Y61866D01*
Y61881D01*
Y61896D01*
Y61910D01*
Y61925D01*
Y61940D01*
Y61954D01*
Y61969D01*
Y61984D01*
Y61998D01*
Y62013D01*
Y62028D01*
Y62042D01*
Y62057D01*
Y62072D01*
Y62086D01*
Y62101D01*
Y62116D01*
Y62130D01*
Y62145D01*
Y62160D01*
Y62174D01*
Y62189D01*
Y62204D01*
Y62218D01*
Y62233D01*
Y62248D01*
Y62262D01*
Y62277D01*
Y62292D01*
Y62306D01*
Y62321D01*
Y62336D01*
Y62350D01*
Y62365D01*
Y62380D01*
Y62394D01*
Y62409D01*
Y62424D01*
Y62438D01*
Y62453D01*
Y62468D01*
Y62482D01*
Y62497D01*
Y62512D01*
Y62526D01*
Y62541D01*
Y62556D01*
Y62570D01*
Y62585D01*
Y62600D01*
Y62614D01*
Y62629D01*
Y62644D01*
Y62658D01*
Y62673D01*
Y62688D01*
Y62702D01*
Y62717D01*
Y62731D01*
Y62746D01*
Y62761D01*
Y62775D01*
Y62790D01*
Y62805D01*
Y62819D01*
Y62834D01*
Y62849D01*
Y62863D01*
Y62878D01*
Y62893D01*
Y62907D01*
Y62922D01*
Y62937D01*
Y62951D01*
Y62966D01*
Y62981D01*
Y62995D01*
Y63010D01*
Y63025D01*
Y63039D01*
Y63054D01*
Y63069D01*
Y63083D01*
Y63098D01*
X5103D01*
Y63083D01*
D02*
G37*
G36*
X17770Y63142D02*
X17946D01*
Y63127D01*
X18034D01*
Y63113D01*
X18093D01*
Y63098D01*
X18151D01*
Y63083D01*
X18195D01*
Y63069D01*
X18239D01*
Y63054D01*
X18269D01*
Y63039D01*
X18313D01*
Y63025D01*
X18342D01*
Y63010D01*
X18371D01*
Y62995D01*
X18386D01*
Y62981D01*
X18415D01*
Y62966D01*
X18445D01*
Y62951D01*
X18459D01*
Y62937D01*
X18474D01*
Y62922D01*
X18503D01*
Y62907D01*
X18518D01*
Y62893D01*
X18533D01*
Y62878D01*
X18547D01*
Y62863D01*
X18562D01*
Y62849D01*
X18577D01*
Y62834D01*
X18591D01*
Y62819D01*
X18606D01*
Y62805D01*
X18621D01*
Y62790D01*
Y62775D01*
X18635D01*
Y62761D01*
X18650D01*
Y62746D01*
X18665D01*
Y62731D01*
Y62717D01*
X18679D01*
Y62702D01*
Y62688D01*
X18694D01*
Y62673D01*
Y62658D01*
X18709D01*
Y62644D01*
Y62629D01*
X18723D01*
Y62614D01*
Y62600D01*
X18738D01*
Y62585D01*
Y62570D01*
Y62556D01*
X18753D01*
Y62541D01*
Y62526D01*
Y62512D01*
Y62497D01*
X18767D01*
Y62482D01*
Y62468D01*
Y62453D01*
Y62438D01*
Y62424D01*
Y62409D01*
Y62394D01*
X18782D01*
Y62380D01*
Y62365D01*
Y62350D01*
Y62336D01*
Y62321D01*
Y62306D01*
Y62292D01*
Y62277D01*
Y62262D01*
Y62248D01*
X18767D01*
Y62233D01*
Y62218D01*
Y62204D01*
Y62189D01*
Y62174D01*
Y62160D01*
X18753D01*
Y62145D01*
Y62130D01*
Y62116D01*
Y62101D01*
X18738D01*
Y62086D01*
Y62072D01*
Y62057D01*
X18723D01*
Y62042D01*
Y62028D01*
Y62013D01*
X18709D01*
Y61998D01*
Y61984D01*
X18694D01*
Y61969D01*
Y61954D01*
X18679D01*
Y61940D01*
Y61925D01*
X18665D01*
Y61910D01*
X18650D01*
Y61896D01*
Y61881D01*
X18635D01*
Y61866D01*
X18621D01*
Y61852D01*
X18606D01*
Y61837D01*
X18591D01*
Y61823D01*
X18577D01*
Y61808D01*
Y61793D01*
X18562D01*
Y61779D01*
X18533D01*
Y61764D01*
X18518D01*
Y61749D01*
X18503D01*
Y61735D01*
X18489D01*
Y61720D01*
X18459D01*
Y61705D01*
X18445D01*
Y61691D01*
X18415D01*
Y61676D01*
X18386D01*
Y61661D01*
X18357D01*
Y61647D01*
X18313D01*
Y61632D01*
X18269D01*
Y61617D01*
X18225D01*
Y61603D01*
X18166D01*
Y61588D01*
X18108D01*
Y61573D01*
X18049D01*
Y61559D01*
X17976D01*
Y61544D01*
X17902D01*
Y61529D01*
X17829D01*
Y61515D01*
X17741D01*
Y61500D01*
X17653D01*
Y61485D01*
X17550D01*
Y61471D01*
X17462D01*
Y61456D01*
X17404D01*
Y61441D01*
X17360D01*
Y61427D01*
X17331D01*
Y61412D01*
X17301D01*
Y61397D01*
X17287D01*
Y61383D01*
X17272D01*
Y61368D01*
X17257D01*
Y61353D01*
Y61339D01*
X17243D01*
Y61324D01*
Y61309D01*
Y61295D01*
Y61280D01*
Y61265D01*
Y61251D01*
Y61236D01*
Y61221D01*
Y61207D01*
Y61192D01*
X17257D01*
Y61177D01*
Y61163D01*
X17272D01*
Y61148D01*
X17287D01*
Y61133D01*
X17301D01*
Y61119D01*
X17316D01*
Y61104D01*
X17331D01*
Y61089D01*
X17360D01*
Y61075D01*
X17389D01*
Y61060D01*
X17418D01*
Y61045D01*
X17462D01*
Y61031D01*
X17521D01*
Y61016D01*
X17668D01*
Y61001D01*
X17712D01*
Y61016D01*
X17874D01*
Y61031D01*
X17933D01*
Y61045D01*
X17977D01*
Y61060D01*
X18021D01*
Y61075D01*
X18049D01*
Y61089D01*
X18079D01*
Y61104D01*
X18093D01*
Y61119D01*
X18108D01*
Y61133D01*
X18122D01*
Y61148D01*
X18138D01*
Y61163D01*
X18151D01*
Y61177D01*
X18167D01*
Y61192D01*
X18181D01*
Y61207D01*
X18195D01*
Y61221D01*
X18196D01*
Y61236D01*
X18210D01*
Y61251D01*
Y61265D01*
X18226D01*
Y61280D01*
Y61295D01*
X18239D01*
Y61309D01*
X18240D01*
Y61324D01*
Y61339D01*
X18371D01*
Y61324D01*
X18474D01*
Y61309D01*
X18577D01*
Y61295D01*
X18679D01*
Y61280D01*
X18797D01*
Y61265D01*
X18870D01*
Y61251D01*
Y61236D01*
Y61221D01*
X18855D01*
Y61207D01*
Y61192D01*
Y61177D01*
Y61163D01*
X18841D01*
Y61148D01*
Y61133D01*
Y61119D01*
X18826D01*
Y61104D01*
Y61089D01*
X18811D01*
Y61075D01*
Y61060D01*
X18797D01*
Y61045D01*
Y61031D01*
X18782D01*
Y61016D01*
Y61001D01*
X18767D01*
Y60987D01*
Y60972D01*
X18753D01*
Y60957D01*
X18738D01*
Y60943D01*
Y60928D01*
X18723D01*
Y60914D01*
X18709D01*
Y60899D01*
X18694D01*
Y60884D01*
X18679D01*
Y60870D01*
X18665D01*
Y60855D01*
X18650D01*
Y60840D01*
X18635D01*
Y60826D01*
X18621D01*
Y60811D01*
X18606D01*
Y60796D01*
X18591D01*
Y60782D01*
X18577D01*
Y60767D01*
X18562D01*
Y60752D01*
X18547D01*
Y60738D01*
X18518D01*
Y60723D01*
X18503D01*
Y60708D01*
X18474D01*
Y60694D01*
X18459D01*
Y60679D01*
X18430D01*
Y60664D01*
X18401D01*
Y60650D01*
X18371D01*
Y60635D01*
X18342D01*
Y60620D01*
X18313D01*
Y60606D01*
X18269D01*
Y60591D01*
X18239D01*
Y60576D01*
X18181D01*
Y60562D01*
X18122D01*
Y60547D01*
X18049D01*
Y60532D01*
X17932D01*
Y60518D01*
X17551D01*
Y60532D01*
X17434D01*
Y60547D01*
X17361D01*
Y60562D01*
X17288D01*
Y60576D01*
X17244D01*
Y60591D01*
X17199D01*
Y60606D01*
X17155D01*
Y60620D01*
X17125D01*
Y60635D01*
X17081D01*
Y60650D01*
X17052D01*
Y60664D01*
X17024D01*
Y60679D01*
X16993D01*
Y60694D01*
X16979D01*
Y60708D01*
X16950D01*
Y60723D01*
X16935D01*
Y60738D01*
X16905D01*
Y60752D01*
X16892D01*
Y60767D01*
X16877D01*
Y60782D01*
X16861D01*
Y60796D01*
X16847D01*
Y60811D01*
X16832D01*
Y60826D01*
X16818D01*
Y60840D01*
X16804D01*
Y60855D01*
X16788D01*
Y60870D01*
X16773D01*
Y60884D01*
X16759D01*
Y60899D01*
X16745D01*
Y60914D01*
X16744D01*
Y60928D01*
X16729D01*
Y60943D01*
X16715D01*
Y60957D01*
X16716D01*
Y60972D01*
X16701D01*
Y60987D01*
X16685D01*
Y61001D01*
Y61016D01*
X16672D01*
Y61031D01*
Y61045D01*
X16656D01*
Y61060D01*
Y61075D01*
X16657D01*
Y61089D01*
X16642D01*
Y61104D01*
X16641D01*
Y61119D01*
X16628D01*
Y61133D01*
X16627D01*
Y61148D01*
X16628D01*
Y61163D01*
X16627D01*
Y61177D01*
X16613D01*
Y61192D01*
X16612D01*
Y61207D01*
Y61221D01*
Y61236D01*
X16598D01*
Y61251D01*
Y61265D01*
Y61280D01*
Y61295D01*
Y61309D01*
Y61324D01*
Y61339D01*
X16597D01*
Y61353D01*
Y61368D01*
X16598D01*
Y61383D01*
X16597D01*
Y61397D01*
X16598D01*
Y61412D01*
X16597D01*
Y61427D01*
Y61441D01*
Y61456D01*
X16598D01*
Y61471D01*
X16597D01*
Y61485D01*
Y61500D01*
X16598D01*
Y61515D01*
Y61529D01*
Y61544D01*
X16612D01*
Y61559D01*
Y61573D01*
Y61588D01*
X16613D01*
Y61603D01*
X16612D01*
Y61617D01*
X16628D01*
Y61632D01*
X16627D01*
Y61647D01*
Y61661D01*
X16642D01*
Y61676D01*
X16641D01*
Y61691D01*
Y61705D01*
X16657D01*
Y61720D01*
X16656D01*
Y61735D01*
X16671D01*
Y61749D01*
X16672D01*
Y61764D01*
X16686D01*
Y61779D01*
X16685D01*
Y61793D01*
X16700D01*
Y61808D01*
Y61823D01*
X16715D01*
Y61837D01*
X16730D01*
Y61852D01*
X16729D01*
Y61866D01*
X16745D01*
Y61881D01*
X16760D01*
Y61896D01*
X16773D01*
Y61910D01*
X16788D01*
Y61925D01*
X16804D01*
Y61940D01*
X16817D01*
Y61954D01*
X16832D01*
Y61969D01*
X16848D01*
Y61984D01*
X16861D01*
Y61998D01*
X16892D01*
Y62013D01*
X16906D01*
Y62028D01*
X16936D01*
Y62042D01*
X16964D01*
Y62057D01*
X16994D01*
Y62072D01*
X17023D01*
Y62086D01*
X17068D01*
Y62101D01*
X17111D01*
Y62116D01*
X17155D01*
Y62130D01*
X17213D01*
Y62145D01*
X17287D01*
Y62160D01*
X17361D01*
Y62174D01*
X17448D01*
Y62189D01*
X17536D01*
Y62204D01*
X17638D01*
Y62218D01*
X17741D01*
Y62233D01*
X17829D01*
Y62248D01*
X17902D01*
Y62262D01*
X17961D01*
Y62277D01*
X18005D01*
Y62292D01*
X18034D01*
Y62306D01*
X18049D01*
Y62321D01*
X18065D01*
Y62336D01*
X18078D01*
Y62350D01*
X18094D01*
Y62365D01*
X18108D01*
Y62380D01*
Y62394D01*
Y62409D01*
Y62424D01*
X18122D01*
Y62438D01*
Y62453D01*
Y62468D01*
Y62482D01*
X18108D01*
Y62497D01*
X18109D01*
Y62512D01*
Y62526D01*
Y62541D01*
X18093D01*
Y62556D01*
X18094D01*
Y62570D01*
X18078D01*
Y62585D01*
X18065D01*
Y62600D01*
X18050D01*
Y62614D01*
X18020D01*
Y62629D01*
X18005D01*
Y62644D01*
X17976D01*
Y62658D01*
X17932D01*
Y62673D01*
X17858D01*
Y62688D01*
X17609D01*
Y62673D01*
X17536D01*
Y62658D01*
X17492D01*
Y62644D01*
X17462D01*
Y62629D01*
X17433D01*
Y62614D01*
X17418D01*
Y62600D01*
X17389D01*
Y62585D01*
X17375D01*
Y62570D01*
X17360D01*
Y62556D01*
X17345D01*
Y62541D01*
X17331D01*
Y62526D01*
X17316D01*
Y62512D01*
Y62497D01*
X17301D01*
Y62482D01*
Y62468D01*
X17287D01*
Y62453D01*
X17272D01*
Y62438D01*
Y62424D01*
Y62409D01*
X17257D01*
Y62394D01*
Y62380D01*
X17243D01*
Y62365D01*
Y62350D01*
X17199D01*
Y62365D01*
X17141D01*
Y62380D01*
X17097D01*
Y62394D01*
X17037D01*
Y62409D01*
X16979D01*
Y62424D01*
X16935D01*
Y62438D01*
X16876D01*
Y62453D01*
X16817D01*
Y62468D01*
X16774D01*
Y62482D01*
X16715D01*
Y62497D01*
X16701D01*
Y62512D01*
X16715D01*
Y62526D01*
X16716D01*
Y62541D01*
X16729D01*
Y62556D01*
X16730D01*
Y62570D01*
X16745D01*
Y62585D01*
Y62600D01*
X16759D01*
Y62614D01*
X16760D01*
Y62629D01*
X16774D01*
Y62644D01*
Y62658D01*
X16788D01*
Y62673D01*
Y62688D01*
X16804D01*
Y62702D01*
Y62717D01*
X16818D01*
Y62731D01*
X16832D01*
Y62746D01*
X16833D01*
Y62761D01*
X16848D01*
Y62775D01*
X16861D01*
Y62790D01*
Y62805D01*
X16877D01*
Y62819D01*
X16892D01*
Y62834D01*
X16906D01*
Y62849D01*
X16921D01*
Y62863D01*
Y62878D01*
X16936D01*
Y62893D01*
X16949D01*
Y62907D01*
X16964D01*
Y62922D01*
X16994D01*
Y62937D01*
X17009D01*
Y62951D01*
X17023D01*
Y62966D01*
X17038D01*
Y62981D01*
X17067D01*
Y62995D01*
X17081D01*
Y63010D01*
X17111D01*
Y63025D01*
X17140D01*
Y63039D01*
X17169D01*
Y63054D01*
X17199D01*
Y63069D01*
X17228D01*
Y63083D01*
X17272D01*
Y63098D01*
X17317D01*
Y63113D01*
X17375D01*
Y63127D01*
X17463D01*
Y63142D01*
X17639D01*
Y63157D01*
X17770D01*
Y63142D01*
D02*
G37*
G36*
X13797D02*
X13944D01*
Y63127D01*
X14032D01*
Y63113D01*
X14090D01*
Y63098D01*
X14134D01*
Y63083D01*
X14178D01*
Y63069D01*
X14208D01*
Y63054D01*
X14252D01*
Y63039D01*
X14281D01*
Y63025D01*
X14310D01*
Y63010D01*
X14340D01*
Y62995D01*
X14369D01*
Y62981D01*
X14384D01*
Y62966D01*
X14413D01*
Y62951D01*
X14428D01*
Y62937D01*
X14457D01*
Y62922D01*
X14471D01*
Y62907D01*
X14486D01*
Y62893D01*
X14501D01*
Y62878D01*
X14530D01*
Y62863D01*
X14545D01*
Y62849D01*
X14559D01*
Y62834D01*
X14574D01*
Y62819D01*
X14589D01*
Y62805D01*
X14604D01*
Y62790D01*
X14618D01*
Y62775D01*
X14633D01*
Y62761D01*
Y62746D01*
X14648D01*
Y62731D01*
X14662D01*
Y62717D01*
X14677D01*
Y62702D01*
X14692D01*
Y62688D01*
Y62673D01*
X14706D01*
Y62658D01*
X14721D01*
Y62644D01*
Y62629D01*
X14736D01*
Y62614D01*
X14750D01*
Y62600D01*
Y62585D01*
X14765D01*
Y62570D01*
Y62556D01*
X14779D01*
Y62541D01*
Y62526D01*
X14794D01*
Y62512D01*
Y62497D01*
X14809D01*
Y62482D01*
Y62468D01*
X14823D01*
Y62453D01*
Y62438D01*
Y62424D01*
X14838D01*
Y62409D01*
Y62394D01*
X14853D01*
Y62380D01*
Y62365D01*
Y62350D01*
X14867D01*
Y62336D01*
Y62321D01*
Y62306D01*
X14882D01*
Y62292D01*
Y62277D01*
Y62262D01*
Y62248D01*
X14897D01*
Y62233D01*
Y62218D01*
Y62204D01*
Y62189D01*
X14911D01*
Y62174D01*
Y62160D01*
Y62145D01*
Y62130D01*
Y62116D01*
Y62101D01*
X14926D01*
Y62086D01*
Y62072D01*
Y62057D01*
Y62042D01*
Y62028D01*
Y62013D01*
Y61998D01*
Y61984D01*
Y61969D01*
Y61954D01*
X14941D01*
Y61940D01*
Y61925D01*
Y61910D01*
Y61896D01*
Y61881D01*
Y61866D01*
Y61852D01*
Y61837D01*
Y61823D01*
Y61808D01*
Y61793D01*
Y61779D01*
Y61764D01*
Y61749D01*
Y61735D01*
X14926D01*
Y61720D01*
Y61705D01*
Y61691D01*
Y61676D01*
Y61661D01*
Y61647D01*
Y61632D01*
Y61617D01*
Y61603D01*
Y61588D01*
Y61573D01*
X14911D01*
Y61559D01*
Y61544D01*
Y61529D01*
Y61515D01*
Y61500D01*
Y61485D01*
X14897D01*
Y61471D01*
Y61456D01*
Y61441D01*
Y61427D01*
X14882D01*
Y61412D01*
Y61397D01*
Y61383D01*
Y61368D01*
X14867D01*
Y61353D01*
Y61339D01*
Y61324D01*
X14853D01*
Y61309D01*
Y61295D01*
Y61280D01*
X14838D01*
Y61265D01*
Y61251D01*
X14823D01*
Y61236D01*
Y61221D01*
Y61207D01*
X14809D01*
Y61192D01*
Y61177D01*
X14794D01*
Y61163D01*
Y61148D01*
X14779D01*
Y61133D01*
Y61119D01*
X14765D01*
Y61104D01*
Y61089D01*
X14750D01*
Y61075D01*
X14736D01*
Y61060D01*
Y61045D01*
X14721D01*
Y61031D01*
Y61016D01*
X14706D01*
Y61001D01*
X14692D01*
Y60987D01*
X14677D01*
Y60972D01*
Y60957D01*
X14662D01*
Y60943D01*
X14648D01*
Y60928D01*
X14633D01*
Y60914D01*
Y60899D01*
X14618D01*
Y60884D01*
X14604D01*
Y60870D01*
X14589D01*
Y60855D01*
X14574D01*
Y60840D01*
X14559D01*
Y60826D01*
X14545D01*
Y60811D01*
X14530D01*
Y60796D01*
X14515D01*
Y60782D01*
X14501D01*
Y60767D01*
X14471D01*
Y60752D01*
X14457D01*
Y60738D01*
X14442D01*
Y60723D01*
X14428D01*
Y60708D01*
X14398D01*
Y60694D01*
X14384D01*
Y60679D01*
X14354D01*
Y60664D01*
X14325D01*
Y60650D01*
X14296D01*
Y60635D01*
X14266D01*
Y60620D01*
X14237D01*
Y60606D01*
X14208D01*
Y60591D01*
X14164D01*
Y60576D01*
X14120D01*
Y60562D01*
X14076D01*
Y60547D01*
X14002D01*
Y60532D01*
X13900D01*
Y60518D01*
X13593D01*
Y60532D01*
X13489D01*
Y60547D01*
X13416D01*
Y60562D01*
X13373D01*
Y60576D01*
X13329D01*
Y60591D01*
X13285D01*
Y60606D01*
X13240D01*
Y60620D01*
X13211D01*
Y60635D01*
X13182D01*
Y60650D01*
X13152D01*
Y60664D01*
X13124D01*
Y60679D01*
X13093D01*
Y60694D01*
X13079D01*
Y60708D01*
X13050D01*
Y60723D01*
X13036D01*
Y60738D01*
X13006D01*
Y60752D01*
X12992D01*
Y60767D01*
X12977D01*
Y60782D01*
X12962D01*
Y60796D01*
X12933D01*
Y60811D01*
X12918D01*
Y60826D01*
X12903D01*
Y60840D01*
X12888D01*
Y60855D01*
X12874D01*
Y60870D01*
X12860D01*
Y60884D01*
X12845D01*
Y60899D01*
X12830D01*
Y60914D01*
X12816D01*
Y60928D01*
X12815D01*
Y60943D01*
X12800D01*
Y60957D01*
X12787D01*
Y60972D01*
X12771D01*
Y60987D01*
X12772D01*
Y61001D01*
X12757D01*
Y61016D01*
X12743D01*
Y61031D01*
X12728D01*
Y61045D01*
Y61060D01*
X12713D01*
Y61075D01*
X12712D01*
Y61089D01*
X12697D01*
Y61104D01*
X12683D01*
Y61119D01*
X12684D01*
Y61133D01*
X12669D01*
Y61148D01*
Y61163D01*
X12654D01*
Y61177D01*
X12654D01*
Y61192D01*
X12639D01*
Y61207D01*
X12640D01*
Y61221D01*
X12624D01*
Y61236D01*
X12625D01*
Y61251D01*
Y61265D01*
X12610D01*
Y61280D01*
Y61295D01*
X12596D01*
Y61309D01*
Y61324D01*
Y61339D01*
X12580D01*
Y61353D01*
Y61368D01*
X12581D01*
Y61383D01*
Y61397D01*
X12566D01*
Y61412D01*
Y61427D01*
Y61441D01*
X12551D01*
Y61456D01*
Y61471D01*
Y61485D01*
Y61500D01*
Y61515D01*
X12536D01*
Y61529D01*
Y61544D01*
X12537D01*
Y61559D01*
Y61573D01*
Y61588D01*
Y61603D01*
X12522D01*
Y61617D01*
Y61632D01*
Y61647D01*
Y61661D01*
Y61676D01*
Y61691D01*
Y61705D01*
Y61720D01*
Y61735D01*
Y61749D01*
Y61764D01*
Y61779D01*
X12508D01*
Y61793D01*
Y61808D01*
Y61823D01*
Y61837D01*
Y61852D01*
Y61866D01*
X12522D01*
Y61881D01*
Y61896D01*
Y61910D01*
Y61925D01*
Y61940D01*
Y61954D01*
Y61969D01*
Y61984D01*
Y61998D01*
Y62013D01*
Y62028D01*
Y62042D01*
Y62057D01*
X12537D01*
Y62072D01*
Y62086D01*
Y62101D01*
Y62116D01*
X12536D01*
Y62130D01*
Y62145D01*
X12551D01*
Y62160D01*
Y62174D01*
Y62189D01*
Y62204D01*
Y62218D01*
X12567D01*
Y62233D01*
X12566D01*
Y62248D01*
Y62262D01*
Y62277D01*
X12581D01*
Y62292D01*
Y62306D01*
X12580D01*
Y62321D01*
X12596D01*
Y62336D01*
Y62350D01*
Y62365D01*
X12610D01*
Y62380D01*
Y62394D01*
Y62409D01*
X12625D01*
Y62424D01*
Y62438D01*
X12639D01*
Y62453D01*
X12640D01*
Y62468D01*
Y62482D01*
X12654D01*
Y62497D01*
Y62512D01*
X12669D01*
Y62526D01*
Y62541D01*
X12684D01*
Y62556D01*
Y62570D01*
X12697D01*
Y62585D01*
X12712D01*
Y62600D01*
X12713D01*
Y62614D01*
X12728D01*
Y62629D01*
Y62644D01*
X12742D01*
Y62658D01*
X12756D01*
Y62673D01*
X12757D01*
Y62688D01*
X12772D01*
Y62702D01*
X12787D01*
Y62717D01*
X12800D01*
Y62731D01*
X12815D01*
Y62746D01*
X12816D01*
Y62761D01*
X12830D01*
Y62775D01*
X12845D01*
Y62790D01*
X12860D01*
Y62805D01*
X12874D01*
Y62819D01*
X12888D01*
Y62834D01*
X12903D01*
Y62849D01*
X12918D01*
Y62863D01*
X12933D01*
Y62878D01*
X12961D01*
Y62893D01*
X12976D01*
Y62907D01*
X12992D01*
Y62922D01*
X13006D01*
Y62937D01*
X13035D01*
Y62951D01*
X13049D01*
Y62966D01*
X13080D01*
Y62981D01*
X13109D01*
Y62995D01*
X13123D01*
Y63010D01*
X13153D01*
Y63025D01*
X13181D01*
Y63039D01*
X13212D01*
Y63054D01*
X13255D01*
Y63069D01*
X13285D01*
Y63083D01*
X13328D01*
Y63098D01*
X13387D01*
Y63113D01*
X13445D01*
Y63127D01*
X13533D01*
Y63142D01*
X13680D01*
Y63157D01*
X13797D01*
Y63142D01*
D02*
G37*
G36*
X57629Y40859D02*
X55629Y41359D01*
X57629Y41859D01*
Y40859D01*
D02*
G37*
G36*
X48692Y49376D02*
X35815D01*
Y55585D01*
X48692D01*
Y49376D01*
D02*
G37*
G36*
X59022Y43132D02*
X59073Y43058D01*
X59133Y42985D01*
X59188Y42920D01*
X59244Y42864D01*
X59285Y42818D01*
X59304Y42804D01*
X59318Y42790D01*
X59323Y42786D01*
X59327Y42781D01*
X59424Y42703D01*
X59521Y42629D01*
X59614Y42564D01*
X59706Y42513D01*
X59785Y42467D01*
X59817Y42449D01*
X59845Y42435D01*
X59868Y42421D01*
X59886Y42416D01*
X59895Y42407D01*
X59900D01*
Y42028D01*
X59831Y42056D01*
X59761Y42088D01*
X59692Y42121D01*
X59627Y42153D01*
X59572Y42181D01*
X59526Y42204D01*
X59498Y42222D01*
X59493Y42227D01*
X59489D01*
X59406Y42278D01*
X59332Y42329D01*
X59267Y42375D01*
X59216Y42416D01*
X59170Y42449D01*
X59142Y42476D01*
X59119Y42495D01*
X59115Y42499D01*
Y40000D01*
X58722D01*
Y43211D01*
X58976D01*
X59022Y43132D01*
D02*
G37*
G36*
X25470Y43106D02*
X25548Y43102D01*
X25622Y43088D01*
X25692Y43074D01*
X25756Y43055D01*
X25816Y43037D01*
X25872Y43014D01*
X25923Y42991D01*
X25969Y42968D01*
X26006Y42945D01*
X26038Y42926D01*
X26066Y42908D01*
X26089Y42894D01*
X26103Y42880D01*
X26112Y42875D01*
X26116Y42871D01*
X26163Y42825D01*
X26204Y42774D01*
X26246Y42718D01*
X26278Y42663D01*
X26334Y42552D01*
X26371Y42441D01*
X26384Y42390D01*
X26398Y42339D01*
X26408Y42298D01*
X26417Y42261D01*
X26421Y42228D01*
Y42205D01*
X26426Y42191D01*
Y42187D01*
X26024Y42145D01*
X26015Y42252D01*
X25996Y42344D01*
X25969Y42427D01*
X25936Y42492D01*
X25909Y42547D01*
X25881Y42584D01*
X25862Y42607D01*
X25853Y42617D01*
X25784Y42672D01*
X25710Y42714D01*
X25631Y42746D01*
X25562Y42764D01*
X25497Y42778D01*
X25442Y42783D01*
X25423Y42788D01*
X25396D01*
X25299Y42783D01*
X25211Y42764D01*
X25137Y42737D01*
X25072Y42709D01*
X25022Y42677D01*
X24989Y42654D01*
X24966Y42635D01*
X24957Y42626D01*
X24902Y42561D01*
X24860Y42496D01*
X24828Y42432D01*
X24809Y42367D01*
X24795Y42316D01*
X24791Y42270D01*
X24786Y42242D01*
Y42238D01*
Y42233D01*
X24795Y42150D01*
X24814Y42062D01*
X24846Y41984D01*
X24878Y41910D01*
X24915Y41850D01*
X24948Y41799D01*
X24957Y41780D01*
X24966Y41767D01*
X24975Y41762D01*
Y41757D01*
X25012Y41706D01*
X25059Y41656D01*
X25109Y41600D01*
X25165Y41545D01*
X25280Y41434D01*
X25396Y41323D01*
X25456Y41272D01*
X25507Y41226D01*
X25558Y41184D01*
X25599Y41147D01*
X25631Y41120D01*
X25659Y41097D01*
X25678Y41083D01*
X25682Y41078D01*
X25798Y40981D01*
X25904Y40889D01*
X25992Y40806D01*
X26061Y40736D01*
X26121Y40676D01*
X26163Y40635D01*
X26186Y40607D01*
X26195Y40602D01*
Y40598D01*
X26260Y40519D01*
X26311Y40445D01*
X26357Y40371D01*
X26394Y40307D01*
X26421Y40251D01*
X26440Y40209D01*
X26449Y40182D01*
X26454Y40177D01*
Y40173D01*
X26472Y40122D01*
X26482Y40076D01*
X26491Y40029D01*
X26495Y39988D01*
X26500Y39951D01*
Y39923D01*
Y39905D01*
Y39900D01*
X24379D01*
Y40279D01*
X25955D01*
X25899Y40357D01*
X25872Y40390D01*
X25849Y40422D01*
X25826Y40450D01*
X25807Y40468D01*
X25793Y40482D01*
X25789Y40487D01*
X25765Y40510D01*
X25738Y40533D01*
X25673Y40593D01*
X25599Y40662D01*
X25521Y40732D01*
X25447Y40792D01*
X25414Y40819D01*
X25387Y40847D01*
X25363Y40866D01*
X25345Y40879D01*
X25336Y40889D01*
X25331Y40893D01*
X25257Y40958D01*
X25183Y41018D01*
X25119Y41078D01*
X25059Y41129D01*
X25003Y41180D01*
X24957Y41226D01*
X24911Y41267D01*
X24874Y41304D01*
X24837Y41341D01*
X24809Y41369D01*
X24786Y41392D01*
X24763Y41415D01*
X24740Y41443D01*
X24731Y41452D01*
X24666Y41531D01*
X24610Y41600D01*
X24564Y41669D01*
X24527Y41725D01*
X24499Y41776D01*
X24481Y41813D01*
X24472Y41836D01*
X24467Y41845D01*
X24440Y41914D01*
X24421Y41984D01*
X24403Y42048D01*
X24393Y42104D01*
X24389Y42155D01*
X24384Y42191D01*
Y42215D01*
Y42224D01*
X24389Y42293D01*
X24398Y42358D01*
X24407Y42423D01*
X24426Y42478D01*
X24472Y42589D01*
X24518Y42677D01*
X24546Y42718D01*
X24569Y42750D01*
X24592Y42783D01*
X24615Y42806D01*
X24633Y42825D01*
X24643Y42843D01*
X24652Y42848D01*
X24657Y42852D01*
X24707Y42898D01*
X24763Y42940D01*
X24823Y42972D01*
X24883Y43000D01*
X25003Y43046D01*
X25123Y43079D01*
X25174Y43088D01*
X25225Y43097D01*
X25271Y43102D01*
X25308Y43106D01*
X25340Y43111D01*
X25387D01*
X25470Y43106D01*
D02*
G37*
G36*
X60570Y14562D02*
X60648Y14557D01*
X60722Y14543D01*
X60791Y14529D01*
X60856Y14511D01*
X60916Y14492D01*
X60972Y14469D01*
X61023Y14446D01*
X61069Y14423D01*
X61106Y14400D01*
X61138Y14381D01*
X61166Y14363D01*
X61189Y14349D01*
X61203Y14335D01*
X61212Y14331D01*
X61216Y14326D01*
X61263Y14280D01*
X61304Y14229D01*
X61346Y14174D01*
X61378Y14118D01*
X61434Y14007D01*
X61471Y13896D01*
X61484Y13846D01*
X61498Y13795D01*
X61508Y13753D01*
X61517Y13716D01*
X61522Y13684D01*
Y13661D01*
X61526Y13647D01*
Y13642D01*
X61124Y13601D01*
X61115Y13707D01*
X61096Y13799D01*
X61069Y13883D01*
X61036Y13947D01*
X61009Y14003D01*
X60981Y14040D01*
X60962Y14063D01*
X60953Y14072D01*
X60884Y14127D01*
X60810Y14169D01*
X60731Y14201D01*
X60662Y14220D01*
X60597Y14234D01*
X60542Y14238D01*
X60523Y14243D01*
X60496D01*
X60399Y14238D01*
X60311Y14220D01*
X60237Y14192D01*
X60172Y14164D01*
X60122Y14132D01*
X60089Y14109D01*
X60066Y14090D01*
X60057Y14081D01*
X60001Y14017D01*
X59960Y13952D01*
X59928Y13887D01*
X59909Y13823D01*
X59895Y13772D01*
X59891Y13725D01*
X59886Y13698D01*
Y13693D01*
Y13689D01*
X59895Y13605D01*
X59914Y13518D01*
X59946Y13439D01*
X59978Y13365D01*
X60015Y13305D01*
X60048Y13254D01*
X60057Y13236D01*
X60066Y13222D01*
X60075Y13217D01*
Y13213D01*
X60112Y13162D01*
X60159Y13111D01*
X60209Y13056D01*
X60265Y13000D01*
X60380Y12889D01*
X60496Y12778D01*
X60556Y12728D01*
X60607Y12681D01*
X60658Y12640D01*
X60699Y12603D01*
X60731Y12575D01*
X60759Y12552D01*
X60778Y12538D01*
X60782Y12533D01*
X60898Y12437D01*
X61004Y12344D01*
X61092Y12261D01*
X61161Y12192D01*
X61221Y12132D01*
X61263Y12090D01*
X61286Y12062D01*
X61295Y12058D01*
Y12053D01*
X61360Y11975D01*
X61411Y11901D01*
X61457Y11827D01*
X61494Y11762D01*
X61522Y11707D01*
X61540Y11665D01*
X61549Y11637D01*
X61554Y11633D01*
Y11628D01*
X61572Y11577D01*
X61581Y11531D01*
X61591Y11485D01*
X61595Y11443D01*
X61600Y11406D01*
Y11378D01*
Y11360D01*
Y11355D01*
X59479D01*
Y11734D01*
X61055D01*
X60999Y11813D01*
X60972Y11845D01*
X60949Y11878D01*
X60926Y11905D01*
X60907Y11924D01*
X60893Y11938D01*
X60888Y11942D01*
X60865Y11965D01*
X60838Y11988D01*
X60773Y12048D01*
X60699Y12118D01*
X60621Y12187D01*
X60547Y12247D01*
X60514Y12275D01*
X60487Y12303D01*
X60464Y12321D01*
X60445Y12335D01*
X60436Y12344D01*
X60431Y12349D01*
X60357Y12413D01*
X60283Y12473D01*
X60219Y12533D01*
X60159Y12584D01*
X60103Y12635D01*
X60057Y12681D01*
X60011Y12723D01*
X59974Y12760D01*
X59937Y12797D01*
X59909Y12825D01*
X59886Y12848D01*
X59863Y12871D01*
X59840Y12899D01*
X59830Y12908D01*
X59766Y12986D01*
X59710Y13056D01*
X59664Y13125D01*
X59627Y13180D01*
X59600Y13231D01*
X59581Y13268D01*
X59572Y13291D01*
X59567Y13300D01*
X59540Y13370D01*
X59521Y13439D01*
X59503Y13504D01*
X59493Y13559D01*
X59489Y13610D01*
X59484Y13647D01*
Y13670D01*
Y13679D01*
X59489Y13749D01*
X59498Y13813D01*
X59507Y13878D01*
X59526Y13933D01*
X59572Y14044D01*
X59618Y14132D01*
X59646Y14174D01*
X59669Y14206D01*
X59692Y14238D01*
X59715Y14261D01*
X59733Y14280D01*
X59743Y14298D01*
X59752Y14303D01*
X59757Y14308D01*
X59807Y14354D01*
X59863Y14395D01*
X59923Y14428D01*
X59983Y14456D01*
X60103Y14502D01*
X60223Y14534D01*
X60274Y14543D01*
X60325Y14552D01*
X60371Y14557D01*
X60408Y14562D01*
X60440Y14566D01*
X60487D01*
X60570Y14562D01*
D02*
G37*
G36*
X58135D02*
X58209Y14552D01*
X58283Y14539D01*
X58347Y14520D01*
X58472Y14469D01*
X58528Y14446D01*
X58574Y14419D01*
X58620Y14386D01*
X58657Y14363D01*
X58694Y14335D01*
X58722Y14312D01*
X58745Y14294D01*
X58759Y14280D01*
X58768Y14271D01*
X58773Y14266D01*
X58823Y14211D01*
X58865Y14146D01*
X58907Y14086D01*
X58939Y14021D01*
X58967Y13952D01*
X58990Y13887D01*
X59022Y13767D01*
X59036Y13707D01*
X59045Y13656D01*
X59050Y13605D01*
X59054Y13564D01*
X59059Y13532D01*
Y13508D01*
Y13490D01*
Y13485D01*
X59054Y13397D01*
X59045Y13319D01*
X59036Y13240D01*
X59017Y13167D01*
X58994Y13102D01*
X58971Y13037D01*
X58948Y12982D01*
X58920Y12931D01*
X58897Y12885D01*
X58874Y12843D01*
X58851Y12811D01*
X58828Y12778D01*
X58810Y12755D01*
X58800Y12741D01*
X58791Y12732D01*
X58786Y12728D01*
X58736Y12677D01*
X58680Y12635D01*
X58625Y12594D01*
X58565Y12561D01*
X58509Y12533D01*
X58454Y12510D01*
X58347Y12478D01*
X58301Y12464D01*
X58255Y12455D01*
X58218Y12450D01*
X58181Y12446D01*
X58153Y12441D01*
X58117D01*
X58029Y12446D01*
X57946Y12460D01*
X57872Y12478D01*
X57802Y12501D01*
X57752Y12520D01*
X57710Y12538D01*
X57682Y12552D01*
X57673Y12557D01*
X57599Y12603D01*
X57534Y12654D01*
X57479Y12705D01*
X57433Y12751D01*
X57400Y12797D01*
X57373Y12829D01*
X57354Y12852D01*
X57350Y12862D01*
Y12825D01*
Y12801D01*
Y12788D01*
Y12783D01*
X57354Y12691D01*
X57359Y12603D01*
X57368Y12524D01*
X57377Y12450D01*
X57391Y12390D01*
X57400Y12344D01*
X57405Y12326D01*
Y12312D01*
X57410Y12307D01*
Y12303D01*
X57433Y12219D01*
X57456Y12145D01*
X57479Y12081D01*
X57502Y12025D01*
X57521Y11984D01*
X57539Y11951D01*
X57548Y11928D01*
X57553Y11924D01*
X57590Y11873D01*
X57627Y11831D01*
X57664Y11794D01*
X57701Y11762D01*
X57728Y11734D01*
X57756Y11716D01*
X57775Y11707D01*
X57779Y11702D01*
X57830Y11674D01*
X57885Y11656D01*
X57936Y11642D01*
X57987Y11633D01*
X58029Y11628D01*
X58061Y11623D01*
X58093D01*
X58167Y11628D01*
X58237Y11642D01*
X58297Y11660D01*
X58347Y11683D01*
X58385Y11702D01*
X58417Y11720D01*
X58435Y11734D01*
X58440Y11739D01*
X58486Y11790D01*
X58523Y11850D01*
X58555Y11914D01*
X58578Y11979D01*
X58597Y12035D01*
X58611Y12085D01*
X58615Y12104D01*
Y12113D01*
X58620Y12122D01*
Y12127D01*
X58999Y12095D01*
X58971Y11961D01*
X58934Y11845D01*
X58888Y11744D01*
X58842Y11660D01*
X58796Y11596D01*
X58773Y11568D01*
X58754Y11545D01*
X58740Y11531D01*
X58726Y11517D01*
X58722Y11513D01*
X58717Y11508D01*
X58671Y11471D01*
X58620Y11439D01*
X58518Y11388D01*
X58417Y11351D01*
X58320Y11328D01*
X58232Y11309D01*
X58195Y11305D01*
X58163D01*
X58140Y11300D01*
X58103D01*
X57973Y11309D01*
X57858Y11328D01*
X57752Y11360D01*
X57664Y11397D01*
X57627Y11411D01*
X57590Y11429D01*
X57562Y11448D01*
X57534Y11462D01*
X57516Y11471D01*
X57502Y11480D01*
X57493Y11489D01*
X57488D01*
X57396Y11568D01*
X57313Y11656D01*
X57248Y11748D01*
X57192Y11836D01*
X57146Y11914D01*
X57128Y11951D01*
X57114Y11979D01*
X57105Y12007D01*
X57095Y12025D01*
X57091Y12035D01*
Y12039D01*
X57068Y12109D01*
X57045Y12187D01*
X57012Y12344D01*
X56989Y12510D01*
X56975Y12667D01*
X56966Y12737D01*
X56962Y12806D01*
Y12866D01*
X56957Y12917D01*
Y12959D01*
Y12991D01*
Y13014D01*
Y13019D01*
Y13125D01*
X56962Y13227D01*
X56971Y13319D01*
X56980Y13407D01*
X56989Y13485D01*
X56998Y13559D01*
X57012Y13629D01*
X57026Y13689D01*
X57040Y13739D01*
X57049Y13786D01*
X57063Y13827D01*
X57072Y13859D01*
X57082Y13883D01*
X57091Y13901D01*
X57095Y13910D01*
Y13915D01*
X57151Y14026D01*
X57211Y14123D01*
X57280Y14206D01*
X57340Y14275D01*
X57400Y14326D01*
X57447Y14363D01*
X57465Y14377D01*
X57479Y14386D01*
X57484Y14395D01*
X57488D01*
X57585Y14451D01*
X57682Y14492D01*
X57779Y14525D01*
X57867Y14543D01*
X57946Y14557D01*
X57978Y14562D01*
X58001D01*
X58024Y14566D01*
X58056D01*
X58135Y14562D01*
D02*
G37*
G36*
X25636Y14557D02*
X25761Y14534D01*
X25867Y14497D01*
X25960Y14460D01*
X26001Y14437D01*
X26033Y14419D01*
X26066Y14400D01*
X26089Y14381D01*
X26107Y14368D01*
X26121Y14358D01*
X26130Y14354D01*
X26135Y14349D01*
X26223Y14261D01*
X26292Y14164D01*
X26348Y14063D01*
X26394Y13961D01*
X26421Y13873D01*
X26435Y13836D01*
X26445Y13804D01*
X26449Y13776D01*
X26454Y13758D01*
X26458Y13744D01*
Y13739D01*
X26066Y13670D01*
X26047Y13772D01*
X26019Y13859D01*
X25987Y13933D01*
X25955Y13994D01*
X25923Y14040D01*
X25895Y14072D01*
X25876Y14095D01*
X25872Y14100D01*
X25812Y14146D01*
X25747Y14183D01*
X25687Y14206D01*
X25627Y14224D01*
X25571Y14234D01*
X25530Y14243D01*
X25493D01*
X25410Y14238D01*
X25336Y14220D01*
X25271Y14197D01*
X25216Y14174D01*
X25174Y14146D01*
X25142Y14123D01*
X25119Y14104D01*
X25114Y14100D01*
X25063Y14044D01*
X25026Y13984D01*
X25003Y13924D01*
X24985Y13869D01*
X24975Y13818D01*
X24966Y13781D01*
Y13753D01*
Y13749D01*
Y13744D01*
Y13693D01*
X24975Y13647D01*
X24998Y13568D01*
X25031Y13499D01*
X25068Y13439D01*
X25105Y13397D01*
X25137Y13365D01*
X25160Y13347D01*
X25165Y13342D01*
X25169D01*
X25248Y13300D01*
X25322Y13268D01*
X25400Y13245D01*
X25470Y13231D01*
X25530Y13222D01*
X25581Y13213D01*
X25641D01*
X25659Y13217D01*
X25682D01*
X25728Y12871D01*
X25668Y12885D01*
X25613Y12894D01*
X25567Y12903D01*
X25525Y12908D01*
X25493Y12912D01*
X25451D01*
X25354Y12903D01*
X25267Y12885D01*
X25188Y12857D01*
X25123Y12825D01*
X25072Y12792D01*
X25036Y12765D01*
X25012Y12746D01*
X25003Y12737D01*
X24943Y12667D01*
X24897Y12594D01*
X24864Y12520D01*
X24846Y12446D01*
X24832Y12386D01*
X24828Y12335D01*
X24823Y12316D01*
Y12303D01*
Y12293D01*
Y12289D01*
X24832Y12187D01*
X24855Y12095D01*
X24883Y12016D01*
X24920Y11947D01*
X24957Y11891D01*
X24985Y11850D01*
X25008Y11822D01*
X25017Y11813D01*
X25091Y11748D01*
X25169Y11702D01*
X25248Y11670D01*
X25322Y11647D01*
X25387Y11633D01*
X25437Y11628D01*
X25456Y11623D01*
X25484D01*
X25567Y11628D01*
X25645Y11647D01*
X25715Y11670D01*
X25770Y11697D01*
X25816Y11720D01*
X25853Y11744D01*
X25872Y11762D01*
X25881Y11767D01*
X25936Y11831D01*
X25983Y11905D01*
X26024Y11984D01*
X26057Y12067D01*
X26080Y12136D01*
X26089Y12169D01*
X26093Y12196D01*
X26098Y12219D01*
X26103Y12238D01*
X26107Y12247D01*
Y12252D01*
X26500Y12201D01*
X26491Y12127D01*
X26477Y12058D01*
X26435Y11928D01*
X26384Y11817D01*
X26357Y11771D01*
X26329Y11725D01*
X26301Y11683D01*
X26274Y11651D01*
X26250Y11619D01*
X26227Y11596D01*
X26214Y11577D01*
X26200Y11563D01*
X26191Y11554D01*
X26186Y11549D01*
X26130Y11508D01*
X26075Y11466D01*
X26019Y11434D01*
X25960Y11406D01*
X25844Y11360D01*
X25733Y11332D01*
X25682Y11323D01*
X25636Y11314D01*
X25594Y11309D01*
X25558Y11305D01*
X25530Y11300D01*
X25488D01*
X25400Y11305D01*
X25322Y11314D01*
X25243Y11328D01*
X25169Y11346D01*
X25100Y11369D01*
X25040Y11392D01*
X24980Y11420D01*
X24929Y11448D01*
X24878Y11471D01*
X24837Y11499D01*
X24800Y11522D01*
X24772Y11545D01*
X24749Y11563D01*
X24731Y11577D01*
X24721Y11586D01*
X24717Y11591D01*
X24661Y11647D01*
X24615Y11707D01*
X24574Y11767D01*
X24536Y11827D01*
X24509Y11882D01*
X24481Y11942D01*
X24444Y12053D01*
X24435Y12104D01*
X24426Y12150D01*
X24416Y12192D01*
X24412Y12229D01*
X24407Y12256D01*
Y12279D01*
Y12293D01*
Y12298D01*
X24412Y12409D01*
X24430Y12510D01*
X24458Y12598D01*
X24486Y12672D01*
X24513Y12732D01*
X24541Y12778D01*
X24560Y12806D01*
X24564Y12815D01*
X24629Y12885D01*
X24698Y12945D01*
X24772Y12991D01*
X24846Y13028D01*
X24911Y13056D01*
X24961Y13074D01*
X24980Y13079D01*
X24994Y13083D01*
X25003Y13088D01*
X25008D01*
X24929Y13129D01*
X24864Y13171D01*
X24809Y13217D01*
X24763Y13259D01*
X24726Y13296D01*
X24698Y13328D01*
X24684Y13347D01*
X24680Y13356D01*
X24643Y13421D01*
X24615Y13485D01*
X24592Y13550D01*
X24578Y13610D01*
X24569Y13661D01*
X24564Y13698D01*
Y13725D01*
Y13735D01*
X24569Y13813D01*
X24583Y13892D01*
X24601Y13961D01*
X24624Y14021D01*
X24647Y14072D01*
X24666Y14114D01*
X24680Y14137D01*
X24684Y14146D01*
X24731Y14215D01*
X24786Y14275D01*
X24841Y14326D01*
X24897Y14372D01*
X24943Y14405D01*
X24985Y14432D01*
X25012Y14446D01*
X25017Y14451D01*
X25022D01*
X25105Y14488D01*
X25188Y14515D01*
X25271Y14539D01*
X25345Y14552D01*
X25405Y14562D01*
X25456Y14566D01*
X25571D01*
X25636Y14557D01*
D02*
G37*
G36*
X23100D02*
X23215Y14539D01*
X23312Y14506D01*
X23395Y14474D01*
X23465Y14437D01*
X23492Y14423D01*
X23516Y14405D01*
X23534Y14395D01*
X23548Y14386D01*
X23552Y14377D01*
X23557D01*
X23640Y14303D01*
X23709Y14215D01*
X23770Y14127D01*
X23816Y14044D01*
X23853Y13966D01*
X23871Y13933D01*
X23880Y13901D01*
X23890Y13878D01*
X23899Y13859D01*
X23904Y13850D01*
Y13846D01*
X23922Y13776D01*
X23941Y13707D01*
X23968Y13555D01*
X23991Y13402D01*
X24005Y13259D01*
X24010Y13190D01*
X24014Y13129D01*
Y13074D01*
X24019Y13023D01*
Y12986D01*
Y12954D01*
Y12935D01*
Y12931D01*
X24014Y12769D01*
X24005Y12617D01*
X23991Y12478D01*
X23968Y12349D01*
X23945Y12229D01*
X23917Y12122D01*
X23890Y12025D01*
X23862Y11942D01*
X23834Y11868D01*
X23802Y11804D01*
X23779Y11748D01*
X23756Y11707D01*
X23733Y11670D01*
X23719Y11647D01*
X23709Y11633D01*
X23705Y11628D01*
X23654Y11573D01*
X23599Y11522D01*
X23539Y11476D01*
X23479Y11439D01*
X23418Y11406D01*
X23358Y11378D01*
X23298Y11360D01*
X23243Y11342D01*
X23188Y11328D01*
X23137Y11319D01*
X23090Y11309D01*
X23054Y11305D01*
X23021Y11300D01*
X22975D01*
X22850Y11309D01*
X22735Y11328D01*
X22638Y11360D01*
X22555Y11392D01*
X22485Y11425D01*
X22462Y11443D01*
X22439Y11457D01*
X22421Y11466D01*
X22407Y11476D01*
X22402Y11485D01*
X22397D01*
X22314Y11563D01*
X22245Y11647D01*
X22185Y11739D01*
X22139Y11822D01*
X22102Y11901D01*
X22083Y11933D01*
X22074Y11965D01*
X22065Y11988D01*
X22056Y12007D01*
X22051Y12016D01*
Y12021D01*
X22028Y12090D01*
X22009Y12159D01*
X21982Y12307D01*
X21959Y12460D01*
X21945Y12607D01*
X21940Y12672D01*
X21935Y12732D01*
Y12788D01*
X21931Y12839D01*
Y12875D01*
Y12908D01*
Y12926D01*
Y12931D01*
Y13019D01*
X21935Y13102D01*
Y13176D01*
X21940Y13250D01*
X21949Y13314D01*
X21954Y13379D01*
X21959Y13434D01*
X21968Y13485D01*
X21972Y13532D01*
X21982Y13573D01*
X21986Y13605D01*
X21991Y13633D01*
X21995Y13656D01*
X22000Y13670D01*
X22005Y13679D01*
Y13684D01*
X22032Y13786D01*
X22065Y13878D01*
X22102Y13957D01*
X22129Y14026D01*
X22162Y14086D01*
X22180Y14127D01*
X22199Y14151D01*
X22203Y14160D01*
X22254Y14229D01*
X22305Y14289D01*
X22361Y14340D01*
X22411Y14386D01*
X22457Y14419D01*
X22494Y14442D01*
X22518Y14456D01*
X22522Y14460D01*
X22527D01*
X22601Y14497D01*
X22679Y14520D01*
X22753Y14539D01*
X22822Y14552D01*
X22883Y14562D01*
X22933Y14566D01*
X22975D01*
X23100Y14557D01*
D02*
G37*
G36*
X20200Y29423D02*
X17854Y26980D01*
X17785Y26313D01*
X17632Y24717D01*
X17521Y23565D01*
X20033Y20970D01*
X19867Y20803D01*
X17493Y23232D01*
X17355Y21747D01*
X17285D01*
Y21178D01*
X16758D01*
Y21747D01*
X15120D01*
X15064Y21636D01*
X14981Y21525D01*
X14870Y21400D01*
X14717Y21289D01*
X14537Y21233D01*
X14370Y21219D01*
X14204D01*
X14079Y21261D01*
X13926Y21317D01*
X13801Y21400D01*
X13704Y21497D01*
X13607Y21636D01*
X13538Y21789D01*
X13496Y21927D01*
X13482Y22052D01*
X13496Y22191D01*
X13524Y22302D01*
X13565Y22413D01*
X13621Y22524D01*
X13690Y22621D01*
X13787Y22719D01*
X13898Y22788D01*
X13996Y22830D01*
X13982Y22954D01*
X11900Y20803D01*
X11733Y20984D01*
X13954Y23288D01*
X13774Y25300D01*
X13649Y26758D01*
X12982D01*
Y27688D01*
X13163D01*
X11469Y29423D01*
X11650Y29589D01*
X13232Y27951D01*
Y28076D01*
X13205Y28104D01*
X13163Y28132D01*
X13121Y28173D01*
X13080Y28215D01*
X13052Y28284D01*
X13038Y28340D01*
X13024Y28409D01*
X13038Y28493D01*
X13066Y28548D01*
X13121Y28645D01*
X13191Y28701D01*
X13288Y28743D01*
X13385Y28756D01*
X13482Y28743D01*
X13565Y28715D01*
X13635Y28673D01*
X13663Y28631D01*
X13732Y28687D01*
X13829Y28756D01*
X13954Y28812D01*
X14134Y28881D01*
X14329Y28937D01*
X14523Y28978D01*
X14731Y29020D01*
X14898Y29034D01*
Y29242D01*
X16230D01*
Y29062D01*
X16341D01*
X16508Y29048D01*
X16688Y29020D01*
X16869Y28992D01*
Y29103D01*
X17438D01*
Y28840D01*
X17507Y28798D01*
X17604Y28756D01*
X17702Y28701D01*
X17785Y28645D01*
X17868Y28576D01*
X17924Y28520D01*
X17951Y28479D01*
X17979Y28423D01*
X17965Y28326D01*
X18298D01*
Y27896D01*
X17938D01*
X17882Y27354D01*
X20033Y29589D01*
X20200Y29423D01*
D02*
G37*
G36*
X19700Y18888D02*
Y18860D01*
Y18804D01*
Y18749D01*
Y18693D01*
Y18638D01*
Y18610D01*
Y18596D01*
Y18374D01*
Y18166D01*
Y18069D01*
Y17999D01*
Y17958D01*
Y17944D01*
Y17694D01*
Y17583D01*
Y17486D01*
Y17402D01*
Y17347D01*
Y17305D01*
Y17291D01*
Y17194D01*
Y17125D01*
Y17069D01*
Y17042D01*
Y17000D01*
X12108D01*
Y17014D01*
Y17042D01*
Y17153D01*
Y17250D01*
Y17278D01*
Y17291D01*
Y17514D01*
Y17722D01*
Y17819D01*
Y17888D01*
Y17930D01*
Y17944D01*
Y18194D01*
Y18305D01*
Y18402D01*
Y18485D01*
Y18541D01*
Y18582D01*
Y18596D01*
Y18693D01*
Y18777D01*
Y18832D01*
Y18860D01*
Y18888D01*
Y18902D01*
X19700D01*
Y18888D01*
D02*
G37*
G36*
X15164Y35002D02*
X14248D01*
Y35658D01*
X14165Y35529D01*
X14082Y35418D01*
X13989Y35316D01*
X13906Y35242D01*
X13841Y35177D01*
X13777Y35131D01*
X13739Y35103D01*
X13730Y35094D01*
X13610Y35030D01*
X13499Y34983D01*
X13388Y34946D01*
X13295Y34928D01*
X13212Y34909D01*
X13148Y34900D01*
X13092D01*
X12981Y34909D01*
X12870Y34928D01*
X12759Y34955D01*
X12657Y35002D01*
X12482Y35094D01*
X12315Y35214D01*
X12185Y35326D01*
X12093Y35427D01*
X12056Y35464D01*
X12028Y35492D01*
X12019Y35511D01*
X12010Y35520D01*
X11926Y35640D01*
X11852Y35770D01*
X11788Y35917D01*
X11732Y36056D01*
X11649Y36352D01*
X11593Y36639D01*
X11575Y36768D01*
X11566Y36889D01*
X11557Y37000D01*
X11547Y37102D01*
X11538Y37176D01*
Y37240D01*
Y37277D01*
Y37286D01*
X11547Y37499D01*
X11557Y37694D01*
X11575Y37879D01*
X11612Y38045D01*
X11640Y38202D01*
X11677Y38350D01*
X11723Y38480D01*
X11760Y38591D01*
X11806Y38702D01*
X11843Y38785D01*
X11890Y38859D01*
X11917Y38924D01*
X11945Y38970D01*
X11973Y39007D01*
X11982Y39026D01*
X11991Y39035D01*
X12075Y39136D01*
X12167Y39229D01*
X12259Y39312D01*
X12352Y39386D01*
X12454Y39442D01*
X12537Y39488D01*
X12713Y39562D01*
X12870Y39608D01*
X12935Y39617D01*
X12990Y39627D01*
X13036Y39636D01*
X13101D01*
X13212Y39627D01*
X13323Y39608D01*
X13425Y39581D01*
X13508Y39553D01*
X13582Y39525D01*
X13638Y39497D01*
X13675Y39479D01*
X13684Y39470D01*
X13786Y39405D01*
X13869Y39331D01*
X13952Y39248D01*
X14026Y39173D01*
X14091Y39109D01*
X14137Y39053D01*
X14165Y39016D01*
X14174Y38998D01*
Y41255D01*
X15164D01*
Y35002D01*
D02*
G37*
G36*
X19900D02*
X18864D01*
Y37361D01*
X18022D01*
X17865Y37370D01*
X17717Y37379D01*
X17587Y37388D01*
X17467Y37407D01*
X17366Y37416D01*
X17264Y37435D01*
X17180Y37453D01*
X17107Y37472D01*
X17042Y37490D01*
X16996Y37499D01*
X16949Y37518D01*
X16912Y37527D01*
X16894Y37536D01*
X16875Y37545D01*
X16736Y37629D01*
X16607Y37721D01*
X16496Y37832D01*
X16404Y37934D01*
X16330Y38026D01*
X16274Y38110D01*
X16237Y38165D01*
X16228Y38175D01*
Y38184D01*
X16145Y38369D01*
X16080Y38554D01*
X16034Y38748D01*
X15996Y38924D01*
X15978Y39081D01*
Y39155D01*
X15969Y39211D01*
Y39257D01*
Y39294D01*
Y39312D01*
Y39322D01*
X15978Y39590D01*
X16015Y39830D01*
X16061Y40034D01*
X16117Y40209D01*
X16154Y40293D01*
X16182Y40358D01*
X16200Y40413D01*
X16228Y40459D01*
X16246Y40496D01*
X16265Y40524D01*
X16274Y40533D01*
Y40543D01*
X16394Y40709D01*
X16514Y40839D01*
X16644Y40949D01*
X16755Y41033D01*
X16866Y41088D01*
X16949Y41135D01*
X17005Y41153D01*
X17014Y41162D01*
X17023D01*
X17088Y41181D01*
X17162Y41190D01*
X17245Y41208D01*
X17338Y41218D01*
X17532Y41236D01*
X17745Y41245D01*
X17930Y41255D01*
X19900D01*
Y35002D01*
D02*
G37*
G36*
X74352Y57167D02*
X61046D01*
Y63465D01*
X74352D01*
Y57167D01*
D02*
G37*
%LPC*%
G36*
X21330Y72487D02*
X21298D01*
Y72455D01*
X21330D01*
Y72423D01*
X21362D01*
Y72392D01*
Y72360D01*
X21394D01*
Y72328D01*
X21426D01*
Y72296D01*
Y72264D01*
X21458D01*
Y72232D01*
X21489D01*
Y72201D01*
Y72169D01*
X21521D01*
Y72137D01*
Y72105D01*
X21553D01*
Y72073D01*
Y72041D01*
X21585D01*
Y72009D01*
X21617D01*
Y71978D01*
Y71946D01*
X21649D01*
Y71914D01*
Y71882D01*
X21680D01*
Y71850D01*
Y71819D01*
X21712D01*
Y71787D01*
Y71755D01*
X21744D01*
Y71723D01*
Y71691D01*
Y71659D01*
X21776D01*
Y71627D01*
Y71596D01*
X21808D01*
Y71564D01*
Y71532D01*
X21840D01*
Y71500D01*
Y71468D01*
Y71436D01*
X21871D01*
Y71404D01*
Y71373D01*
Y71341D01*
X21903D01*
Y71309D01*
Y71277D01*
Y71245D01*
X21935D01*
Y71213D01*
Y71182D01*
Y71150D01*
X21967D01*
Y71118D01*
Y71086D01*
Y71054D01*
Y71022D01*
X21999D01*
Y70991D01*
Y70959D01*
Y70927D01*
Y70895D01*
X22031D01*
Y70863D01*
Y70831D01*
Y70799D01*
Y70768D01*
Y70736D01*
X22063D01*
Y70704D01*
Y70672D01*
Y70640D01*
Y70608D01*
Y70577D01*
Y70545D01*
X22094D01*
Y70513D01*
Y70481D01*
Y70449D01*
Y70417D01*
Y70385D01*
Y70354D01*
Y70322D01*
Y70290D01*
Y70258D01*
X22126D01*
Y70226D01*
Y70194D01*
Y70163D01*
Y70131D01*
Y70099D01*
Y70067D01*
Y70035D01*
Y70003D01*
Y69972D01*
Y69940D01*
Y69908D01*
Y69876D01*
Y69844D01*
Y69812D01*
Y69780D01*
Y69749D01*
Y69717D01*
Y69685D01*
Y69653D01*
X22094D01*
Y69621D01*
Y69589D01*
Y69558D01*
Y69526D01*
Y69494D01*
Y69462D01*
Y69430D01*
Y69398D01*
Y69367D01*
X22063D01*
Y69335D01*
Y69303D01*
Y69271D01*
Y69239D01*
Y69207D01*
Y69175D01*
X22031D01*
Y69144D01*
Y69112D01*
Y69080D01*
Y69048D01*
Y69016D01*
X21999D01*
Y68984D01*
Y68953D01*
Y68921D01*
Y68889D01*
X21967D01*
Y68857D01*
Y68825D01*
Y68793D01*
Y68761D01*
X21935D01*
Y68730D01*
Y68698D01*
Y68666D01*
X21903D01*
Y68634D01*
Y68602D01*
Y68570D01*
X21871D01*
Y68539D01*
Y68507D01*
Y68475D01*
X21840D01*
Y68443D01*
Y68411D01*
Y68379D01*
X21808D01*
Y68348D01*
Y68316D01*
X21776D01*
Y68284D01*
Y68252D01*
X21744D01*
Y68220D01*
Y68188D01*
Y68156D01*
X21712D01*
Y68125D01*
Y68093D01*
X21680D01*
Y68061D01*
Y68029D01*
X21649D01*
Y67997D01*
Y67965D01*
X21617D01*
Y67933D01*
Y67902D01*
X21585D01*
Y67870D01*
X21553D01*
Y67838D01*
Y67806D01*
X21521D01*
Y67774D01*
Y67743D01*
X21489D01*
Y67711D01*
X21458D01*
Y67679D01*
Y67647D01*
X21426D01*
Y67615D01*
Y67583D01*
X21394D01*
Y67551D01*
X21362D01*
Y67520D01*
Y67488D01*
X21330D01*
Y67456D01*
X21298D01*
Y67424D01*
X21267D01*
Y67392D01*
Y67360D01*
X21235D01*
Y67329D01*
X21298D01*
Y67360D01*
X21330D01*
Y67392D01*
X21394D01*
Y67424D01*
X21426D01*
Y67456D01*
X21489D01*
Y67488D01*
X21521D01*
Y67520D01*
X21553D01*
Y67551D01*
X21617D01*
Y67583D01*
X21649D01*
Y67615D01*
X21680D01*
Y67647D01*
X21744D01*
Y67679D01*
X21776D01*
Y67711D01*
X21808D01*
Y67743D01*
X21840D01*
Y67774D01*
X21903D01*
Y67806D01*
X21935D01*
Y67838D01*
X21967D01*
Y67870D01*
X21999D01*
Y67902D01*
X22063D01*
Y67933D01*
X22094D01*
Y67965D01*
X22126D01*
Y67997D01*
X22158D01*
Y68029D01*
X22190D01*
Y68061D01*
X22254D01*
Y68093D01*
X22286D01*
Y68125D01*
X22317D01*
Y68156D01*
X22349D01*
Y68188D01*
X22381D01*
Y68220D01*
X22413D01*
Y68252D01*
X22445D01*
Y68284D01*
X22477D01*
Y68316D01*
X22508D01*
Y68348D01*
X22572D01*
Y68379D01*
X22604D01*
Y68411D01*
X22636D01*
Y68443D01*
X22668D01*
Y68475D01*
X22700D01*
Y68507D01*
X22731D01*
Y68539D01*
X22763D01*
Y68570D01*
X22795D01*
Y68602D01*
X22827D01*
Y68634D01*
X22859D01*
Y68666D01*
X22891D01*
Y68698D01*
X22922D01*
Y68730D01*
X22954D01*
Y68761D01*
X22986D01*
Y68793D01*
X23018D01*
Y68825D01*
X23050D01*
Y68857D01*
X23082D01*
Y68889D01*
X23113D01*
Y68921D01*
X23145D01*
Y68953D01*
X23177D01*
Y68984D01*
X23209D01*
Y69016D01*
Y69048D01*
X23241D01*
Y69080D01*
X23273D01*
Y69112D01*
X23304D01*
Y69144D01*
X23336D01*
Y69175D01*
X23368D01*
Y69207D01*
X23400D01*
Y69239D01*
X23432D01*
Y69271D01*
X23464D01*
Y69303D01*
X23496D01*
Y69335D01*
Y69367D01*
X23527D01*
Y69398D01*
X23559D01*
Y69430D01*
X23591D01*
Y69462D01*
X23623D01*
Y69494D01*
X23655D01*
Y69526D01*
X23687D01*
Y69558D01*
Y69589D01*
X23719D01*
Y69621D01*
X23750D01*
Y69653D01*
X23782D01*
Y69685D01*
X23814D01*
Y69717D01*
Y69749D01*
X23846D01*
Y69780D01*
X23878D01*
Y69812D01*
X23910D01*
Y69844D01*
X23941D01*
Y69876D01*
Y69908D01*
X23973D01*
Y69940D01*
X23941D01*
Y69972D01*
X23910D01*
Y70003D01*
X23878D01*
Y70035D01*
X23846D01*
Y70067D01*
Y70099D01*
X23814D01*
Y70131D01*
X23782D01*
Y70163D01*
X23750D01*
Y70194D01*
X23719D01*
Y70226D01*
X23687D01*
Y70258D01*
Y70290D01*
X23655D01*
Y70322D01*
X23623D01*
Y70354D01*
X23591D01*
Y70385D01*
X23559D01*
Y70417D01*
X23527D01*
Y70449D01*
X23496D01*
Y70481D01*
Y70513D01*
X23464D01*
Y70545D01*
X23432D01*
Y70577D01*
X23400D01*
Y70608D01*
X23368D01*
Y70640D01*
X23336D01*
Y70672D01*
X23304D01*
Y70704D01*
X23273D01*
Y70736D01*
X23241D01*
Y70768D01*
Y70799D01*
X23209D01*
Y70831D01*
X23177D01*
Y70863D01*
X23145D01*
Y70895D01*
X23113D01*
Y70927D01*
X23082D01*
Y70959D01*
X23050D01*
Y70991D01*
X23018D01*
Y71022D01*
X22986D01*
Y71054D01*
X22954D01*
Y71086D01*
X22922D01*
Y71118D01*
X22891D01*
Y71150D01*
X22859D01*
Y71182D01*
X22827D01*
Y71213D01*
X22795D01*
Y71245D01*
X22763D01*
Y71277D01*
X22731D01*
Y71309D01*
X22700D01*
Y71341D01*
X22668D01*
Y71373D01*
X22636D01*
Y71404D01*
X22604D01*
Y71436D01*
X22572D01*
Y71468D01*
X22540D01*
Y71500D01*
X22508D01*
Y71532D01*
X22477D01*
Y71564D01*
X22445D01*
Y71596D01*
X22413D01*
Y71627D01*
X22349D01*
Y71659D01*
X22317D01*
Y71691D01*
X22286D01*
Y71723D01*
X22254D01*
Y71755D01*
X22222D01*
Y71787D01*
X22190D01*
Y71819D01*
X22158D01*
Y71850D01*
X22094D01*
Y71882D01*
X22063D01*
Y71914D01*
X22031D01*
Y71946D01*
X21999D01*
Y71978D01*
X21967D01*
Y72009D01*
X21935D01*
Y72041D01*
X21871D01*
Y72073D01*
X21840D01*
Y72105D01*
X21808D01*
Y72137D01*
X21776D01*
Y72169D01*
X21712D01*
Y72201D01*
X21680D01*
Y72232D01*
X21649D01*
Y72264D01*
X21585D01*
Y72296D01*
X21553D01*
Y72328D01*
X21521D01*
Y72360D01*
X21458D01*
Y72392D01*
X21426D01*
Y72423D01*
X21362D01*
Y72455D01*
X21330D01*
Y72487D01*
D02*
G37*
G36*
X21235Y67329D02*
X21203D01*
Y67297D01*
X21235D01*
Y67329D01*
D02*
G37*
G36*
X21203Y67297D02*
X21171D01*
Y67265D01*
X21203D01*
Y67297D01*
D02*
G37*
G36*
X14484Y72646D02*
X14452D01*
Y72615D01*
X14420D01*
Y72583D01*
X14356D01*
Y72551D01*
X14325D01*
Y72519D01*
X14261D01*
Y72487D01*
X14229D01*
Y72455D01*
X14197D01*
Y72423D01*
X14133D01*
Y72392D01*
X14102D01*
Y72360D01*
X14038D01*
Y72328D01*
X14006D01*
Y72296D01*
X13974D01*
Y72264D01*
X13911D01*
Y72232D01*
X13879D01*
Y72201D01*
X13847D01*
Y72169D01*
X13815D01*
Y72137D01*
X13751D01*
Y72105D01*
X13720D01*
Y72073D01*
X13688D01*
Y72041D01*
X13656D01*
Y72009D01*
X13592D01*
Y71978D01*
X13560D01*
Y71946D01*
X13529D01*
Y71914D01*
X13497D01*
Y71882D01*
X13465D01*
Y71850D01*
X13433D01*
Y71819D01*
X13369D01*
Y71787D01*
X13337D01*
Y71755D01*
X13306D01*
Y71723D01*
X13274D01*
Y71691D01*
X13242D01*
Y71659D01*
X13210D01*
Y71627D01*
X13178D01*
Y71596D01*
X13146D01*
Y71564D01*
X13115D01*
Y71532D01*
X13083D01*
Y71500D01*
X13051D01*
Y71468D01*
X13019D01*
Y71436D01*
X12955D01*
Y71404D01*
X12923D01*
Y71373D01*
X12892D01*
Y71341D01*
X12860D01*
Y71309D01*
X12828D01*
Y71277D01*
X12796D01*
Y71245D01*
Y71213D01*
X12764D01*
Y71182D01*
X12732D01*
Y71150D01*
X12700D01*
Y71118D01*
X12669D01*
Y71086D01*
X12637D01*
Y71054D01*
X12605D01*
Y71022D01*
X12573D01*
Y70991D01*
X12541D01*
Y70959D01*
X12509D01*
Y70927D01*
X12478D01*
Y70895D01*
X12446D01*
Y70863D01*
X12414D01*
Y70831D01*
X12382D01*
Y70799D01*
Y70768D01*
X12350D01*
Y70736D01*
X12318D01*
Y70704D01*
X12287D01*
Y70672D01*
X12255D01*
Y70640D01*
X12223D01*
Y70608D01*
X12191D01*
Y70577D01*
Y70545D01*
X12159D01*
Y70513D01*
X12127D01*
Y70481D01*
X12095D01*
Y70449D01*
X12064D01*
Y70417D01*
X12032D01*
Y70385D01*
Y70354D01*
X12000D01*
Y70322D01*
X11968D01*
Y70290D01*
X11936D01*
Y70258D01*
X11904D01*
Y70226D01*
Y70194D01*
X11873D01*
Y70163D01*
X11841D01*
Y70131D01*
X11809D01*
Y70099D01*
Y70067D01*
X11777D01*
Y70035D01*
X11745D01*
Y70003D01*
X11713D01*
Y69972D01*
Y69940D01*
Y69908D01*
Y69876D01*
X11745D01*
Y69844D01*
X11777D01*
Y69812D01*
Y69780D01*
X11809D01*
Y69749D01*
X11841D01*
Y69717D01*
X11873D01*
Y69685D01*
Y69653D01*
X11904D01*
Y69621D01*
X11936D01*
Y69589D01*
X11968D01*
Y69558D01*
X12000D01*
Y69526D01*
Y69494D01*
X12032D01*
Y69462D01*
X12064D01*
Y69430D01*
X12095D01*
Y69398D01*
X12127D01*
Y69367D01*
Y69335D01*
X12159D01*
Y69303D01*
X12191D01*
Y69271D01*
X12223D01*
Y69239D01*
X12255D01*
Y69207D01*
Y69175D01*
X12287D01*
Y69144D01*
X12318D01*
Y69112D01*
X12350D01*
Y69080D01*
X12382D01*
Y69048D01*
X12414D01*
Y69016D01*
Y68984D01*
X12446D01*
Y68953D01*
X12478D01*
Y68921D01*
X12509D01*
Y68889D01*
X12541D01*
Y68857D01*
X12573D01*
Y68825D01*
X12605D01*
Y68793D01*
X12637D01*
Y68761D01*
Y68730D01*
X12669D01*
Y68698D01*
X12700D01*
Y68666D01*
X12732D01*
Y68634D01*
X12764D01*
Y68602D01*
X12796D01*
Y68570D01*
X12828D01*
Y68539D01*
X12860D01*
Y68507D01*
X12892D01*
Y68475D01*
X12923D01*
Y68443D01*
X12955D01*
Y68411D01*
X12987D01*
Y68379D01*
X13019D01*
Y68348D01*
X13051D01*
Y68316D01*
X13083D01*
Y68284D01*
X13115D01*
Y68252D01*
X13146D01*
Y68220D01*
X13178D01*
Y68188D01*
X13210D01*
Y68156D01*
X13242D01*
Y68125D01*
X13274D01*
Y68093D01*
X13306D01*
Y68061D01*
X13337D01*
Y68029D01*
X13369D01*
Y67997D01*
X13401D01*
Y67965D01*
X13433D01*
Y67933D01*
X13465D01*
Y67902D01*
X13497D01*
Y67870D01*
X13560D01*
Y67838D01*
X13592D01*
Y67806D01*
X13624D01*
Y67774D01*
X13656D01*
Y67743D01*
X13688D01*
Y67711D01*
X13720D01*
Y67679D01*
X13783D01*
Y67647D01*
X13815D01*
Y67615D01*
X13847D01*
Y67583D01*
X13879D01*
Y67551D01*
X13911D01*
Y67520D01*
X13974D01*
Y67488D01*
X14006D01*
Y67456D01*
X14038D01*
Y67424D01*
X14102D01*
Y67392D01*
X14133D01*
Y67360D01*
X14165D01*
Y67329D01*
X14229D01*
Y67297D01*
X14261D01*
Y67265D01*
X14293D01*
Y67233D01*
X14356D01*
Y67201D01*
X14388D01*
Y67169D01*
X14452D01*
Y67137D01*
X14484D01*
Y67106D01*
X14548D01*
Y67074D01*
X14579D01*
Y67042D01*
X14643D01*
Y67010D01*
X14675D01*
Y66978D01*
X14739D01*
Y66946D01*
X14770D01*
Y66914D01*
X14802D01*
Y66946D01*
X14770D01*
Y66978D01*
X14739D01*
Y67010D01*
X14707D01*
Y67042D01*
X14675D01*
Y67074D01*
Y67106D01*
X14643D01*
Y67137D01*
X14611D01*
Y67169D01*
X14579D01*
Y67201D01*
X14548D01*
Y67233D01*
X14516D01*
Y67265D01*
X14484D01*
Y67297D01*
Y67329D01*
X14452D01*
Y67360D01*
X14420D01*
Y67392D01*
X14388D01*
Y67424D01*
Y67456D01*
X14356D01*
Y67488D01*
X14325D01*
Y67520D01*
X14293D01*
Y67551D01*
Y67583D01*
X14261D01*
Y67615D01*
X14229D01*
Y67647D01*
Y67679D01*
X14197D01*
Y67711D01*
Y67743D01*
X14165D01*
Y67774D01*
X14133D01*
Y67806D01*
Y67838D01*
X14102D01*
Y67870D01*
Y67902D01*
X14070D01*
Y67933D01*
Y67965D01*
X14038D01*
Y67997D01*
Y68029D01*
X14006D01*
Y68061D01*
Y68093D01*
X13974D01*
Y68125D01*
Y68156D01*
X13942D01*
Y68188D01*
Y68220D01*
X13911D01*
Y68252D01*
Y68284D01*
X13879D01*
Y68316D01*
Y68348D01*
Y68379D01*
X13847D01*
Y68411D01*
Y68443D01*
X13815D01*
Y68475D01*
Y68507D01*
Y68539D01*
X13783D01*
Y68570D01*
Y68602D01*
Y68634D01*
X13751D01*
Y68666D01*
Y68698D01*
Y68730D01*
X13720D01*
Y68761D01*
Y68793D01*
Y68825D01*
X13688D01*
Y68857D01*
Y68889D01*
Y68921D01*
Y68953D01*
X13656D01*
Y68984D01*
Y69016D01*
Y69048D01*
Y69080D01*
Y69112D01*
X13624D01*
Y69144D01*
Y69175D01*
Y69207D01*
Y69239D01*
Y69271D01*
X13592D01*
Y69303D01*
Y69335D01*
Y69367D01*
Y69398D01*
Y69430D01*
Y69462D01*
Y69494D01*
Y69526D01*
X13560D01*
Y69558D01*
Y69589D01*
Y69621D01*
Y69653D01*
Y69685D01*
Y69717D01*
Y69749D01*
Y69780D01*
Y69812D01*
Y69844D01*
Y69876D01*
Y69908D01*
Y69940D01*
Y69972D01*
Y70003D01*
Y70035D01*
Y70067D01*
Y70099D01*
Y70131D01*
Y70163D01*
Y70194D01*
Y70226D01*
Y70258D01*
Y70290D01*
Y70322D01*
Y70354D01*
Y70385D01*
X13592D01*
Y70417D01*
Y70449D01*
Y70481D01*
Y70513D01*
Y70545D01*
Y70577D01*
Y70608D01*
Y70640D01*
X13624D01*
Y70672D01*
Y70704D01*
Y70736D01*
Y70768D01*
Y70799D01*
X13656D01*
Y70831D01*
Y70863D01*
Y70895D01*
Y70927D01*
Y70959D01*
X13688D01*
Y70991D01*
Y71022D01*
Y71054D01*
Y71086D01*
X13720D01*
Y71118D01*
Y71150D01*
Y71182D01*
X13751D01*
Y71213D01*
Y71245D01*
Y71277D01*
X13783D01*
Y71309D01*
Y71341D01*
Y71373D01*
X13815D01*
Y71404D01*
Y71436D01*
Y71468D01*
X13847D01*
Y71500D01*
Y71532D01*
Y71564D01*
X13879D01*
Y71596D01*
Y71627D01*
X13911D01*
Y71659D01*
Y71691D01*
X13942D01*
Y71723D01*
Y71755D01*
X13974D01*
Y71787D01*
Y71819D01*
X14006D01*
Y71850D01*
Y71882D01*
X14038D01*
Y71914D01*
Y71946D01*
X14070D01*
Y71978D01*
Y72009D01*
X14102D01*
Y72041D01*
Y72073D01*
X14133D01*
Y72105D01*
Y72137D01*
X14165D01*
Y72169D01*
X14197D01*
Y72201D01*
Y72232D01*
X14229D01*
Y72264D01*
Y72296D01*
X14261D01*
Y72328D01*
X14293D01*
Y72360D01*
Y72392D01*
X14325D01*
Y72423D01*
X14356D01*
Y72455D01*
X14388D01*
Y72487D01*
Y72519D01*
X14420D01*
Y72551D01*
X14452D01*
Y72583D01*
X14484D01*
Y72615D01*
Y72646D01*
D02*
G37*
G36*
X20980Y71819D02*
X14707D01*
Y71787D01*
Y71755D01*
Y71723D01*
X14739D01*
Y71691D01*
X14770D01*
Y71659D01*
Y71627D01*
X14802D01*
Y71596D01*
Y71564D01*
X14834D01*
Y71532D01*
Y71500D01*
X14866D01*
Y71468D01*
X14898D01*
Y71436D01*
Y71404D01*
X14930D01*
Y71373D01*
Y71341D01*
X14961D01*
Y71309D01*
Y71277D01*
X14993D01*
Y71245D01*
X15025D01*
Y71213D01*
Y71182D01*
X15057D01*
Y71150D01*
Y71118D01*
X15089D01*
Y71086D01*
X15121D01*
Y71054D01*
Y71022D01*
X15153D01*
Y70991D01*
Y70959D01*
X15184D01*
Y70927D01*
Y70895D01*
X15216D01*
Y70863D01*
X15248D01*
Y70831D01*
Y70799D01*
X15280D01*
Y70768D01*
Y70736D01*
X15312D01*
Y70704D01*
Y70672D01*
X15344D01*
Y70640D01*
X15375D01*
Y70608D01*
Y70577D01*
X15407D01*
Y70545D01*
Y70513D01*
X15439D01*
Y70481D01*
X15471D01*
Y70449D01*
Y70417D01*
X15503D01*
Y70385D01*
Y70354D01*
X15535D01*
Y70322D01*
Y70290D01*
X15566D01*
Y70258D01*
X15598D01*
Y70226D01*
Y70194D01*
X15630D01*
Y70163D01*
Y70131D01*
X15662D01*
Y70099D01*
Y70067D01*
X15694D01*
Y70035D01*
X15726D01*
Y70003D01*
Y69972D01*
X15757D01*
Y69940D01*
Y69908D01*
X15789D01*
Y69876D01*
Y69844D01*
X15821D01*
Y69812D01*
X15853D01*
Y69780D01*
Y69749D01*
X15885D01*
Y69717D01*
Y69685D01*
X15917D01*
Y69653D01*
X15949D01*
Y69621D01*
Y69589D01*
X15980D01*
Y69558D01*
Y69526D01*
X16012D01*
Y69494D01*
Y69462D01*
X16044D01*
Y69430D01*
X16076D01*
Y69398D01*
Y69367D01*
X16108D01*
Y69335D01*
Y69303D01*
X16140D01*
Y69271D01*
Y69239D01*
X16172D01*
Y69207D01*
X16203D01*
Y69175D01*
Y69144D01*
X16235D01*
Y69112D01*
Y69080D01*
X16267D01*
Y69048D01*
Y69016D01*
X16299D01*
Y68984D01*
X16331D01*
Y68953D01*
Y68921D01*
X16363D01*
Y68889D01*
Y68857D01*
X16394D01*
Y68825D01*
X16426D01*
Y68793D01*
Y68761D01*
X16458D01*
Y68730D01*
Y68698D01*
X16490D01*
Y68666D01*
Y68634D01*
X16522D01*
Y68602D01*
X16554D01*
Y68570D01*
Y68539D01*
X16586D01*
Y68507D01*
Y68475D01*
X16617D01*
Y68443D01*
Y68411D01*
X16649D01*
Y68379D01*
X16681D01*
Y68348D01*
Y68316D01*
X16713D01*
Y68284D01*
Y68252D01*
X16745D01*
Y68220D01*
Y68188D01*
X16777D01*
Y68156D01*
X16808D01*
Y68125D01*
Y68093D01*
X16840D01*
Y68061D01*
Y68029D01*
X16872D01*
Y67997D01*
X16904D01*
Y67965D01*
Y67933D01*
X16936D01*
Y67902D01*
Y67870D01*
X16968D01*
Y67838D01*
Y67806D01*
X16999D01*
Y67774D01*
X17031D01*
Y67743D01*
Y67711D01*
X17063D01*
Y67679D01*
Y67647D01*
X17095D01*
Y67615D01*
Y67583D01*
X17127D01*
Y67551D01*
X17159D01*
Y67520D01*
Y67488D01*
X17190D01*
Y67456D01*
Y67424D01*
X17222D01*
Y67392D01*
X17254D01*
Y67360D01*
Y67329D01*
X17286D01*
Y67297D01*
Y67265D01*
X17318D01*
Y67233D01*
Y67201D01*
X17350D01*
Y67169D01*
X17382D01*
Y67137D01*
Y67106D01*
X17413D01*
Y67074D01*
Y67042D01*
X17445D01*
Y67010D01*
Y66978D01*
X17477D01*
Y66946D01*
X17509D01*
Y66914D01*
Y66883D01*
X17541D01*
Y66851D01*
Y66819D01*
X17573D01*
Y66787D01*
Y66755D01*
X17605D01*
Y66724D01*
X17636D01*
Y66692D01*
Y66660D01*
X17668D01*
Y66628D01*
Y66596D01*
X17700D01*
Y66564D01*
X17732D01*
Y66532D01*
Y66501D01*
X17764D01*
Y66469D01*
Y66437D01*
X17796D01*
Y66405D01*
Y66373D01*
X17859D01*
Y66405D01*
X17891D01*
Y66437D01*
Y66469D01*
X17923D01*
Y66501D01*
X17955D01*
Y66532D01*
Y66564D01*
X17987D01*
Y66596D01*
Y66628D01*
X18018D01*
Y66660D01*
Y66692D01*
X18050D01*
Y66724D01*
X18082D01*
Y66755D01*
Y66787D01*
X18114D01*
Y66819D01*
Y66851D01*
X18146D01*
Y66883D01*
X18178D01*
Y66914D01*
Y66946D01*
X18210D01*
Y66978D01*
Y67010D01*
X18241D01*
Y67042D01*
Y67074D01*
X18273D01*
Y67106D01*
X18305D01*
Y67137D01*
Y67169D01*
X18337D01*
Y67201D01*
Y67233D01*
X18369D01*
Y67265D01*
Y67297D01*
X18401D01*
Y67329D01*
X18432D01*
Y67360D01*
Y67392D01*
X18464D01*
Y67424D01*
Y67456D01*
X18496D01*
Y67488D01*
Y67520D01*
X18528D01*
Y67551D01*
X18560D01*
Y67583D01*
Y67615D01*
X18592D01*
Y67647D01*
Y67679D01*
X18623D01*
Y67711D01*
X18655D01*
Y67743D01*
Y67774D01*
X18687D01*
Y67806D01*
Y67838D01*
X18719D01*
Y67870D01*
Y67902D01*
X18751D01*
Y67933D01*
X18783D01*
Y67965D01*
Y67997D01*
X18814D01*
Y68029D01*
Y68061D01*
X18846D01*
Y68093D01*
Y68125D01*
X18878D01*
Y68156D01*
X18910D01*
Y68188D01*
Y68220D01*
X18942D01*
Y68252D01*
Y68284D01*
X18974D01*
Y68316D01*
Y68348D01*
X19006D01*
Y68379D01*
X19037D01*
Y68411D01*
Y68443D01*
X19069D01*
Y68475D01*
Y68507D01*
X19101D01*
Y68539D01*
X19133D01*
Y68570D01*
Y68602D01*
X19165D01*
Y68634D01*
Y68666D01*
X19197D01*
Y68698D01*
Y68730D01*
X19229D01*
Y68761D01*
X19260D01*
Y68793D01*
Y68825D01*
X19292D01*
Y68857D01*
Y68889D01*
X19324D01*
Y68921D01*
Y68953D01*
X19356D01*
Y68984D01*
X19388D01*
Y69016D01*
Y69048D01*
X19420D01*
Y69080D01*
Y69112D01*
X19451D01*
Y69144D01*
Y69175D01*
X19483D01*
Y69207D01*
X19515D01*
Y69239D01*
Y69271D01*
X19547D01*
Y69303D01*
Y69335D01*
X19579D01*
Y69367D01*
X19611D01*
Y69398D01*
Y69430D01*
X19643D01*
Y69462D01*
Y69494D01*
X19674D01*
Y69526D01*
Y69558D01*
X19706D01*
Y69589D01*
X19738D01*
Y69621D01*
Y69653D01*
X19770D01*
Y69685D01*
Y69717D01*
X19802D01*
Y69749D01*
Y69780D01*
X19834D01*
Y69812D01*
X19865D01*
Y69844D01*
Y69876D01*
X19897D01*
Y69908D01*
Y69940D01*
X19929D01*
Y69972D01*
X19961D01*
Y70003D01*
Y70035D01*
X19993D01*
Y70067D01*
Y70099D01*
X20025D01*
Y70131D01*
Y70163D01*
X20056D01*
Y70194D01*
X20088D01*
Y70226D01*
Y70258D01*
X20120D01*
Y70290D01*
Y70322D01*
X20152D01*
Y70354D01*
Y70385D01*
X20184D01*
Y70417D01*
X20216D01*
Y70449D01*
Y70481D01*
X20247D01*
Y70513D01*
Y70545D01*
X20279D01*
Y70577D01*
Y70608D01*
X20311D01*
Y70640D01*
X20343D01*
Y70672D01*
Y70704D01*
X20375D01*
Y70736D01*
Y70768D01*
X20407D01*
Y70799D01*
X20439D01*
Y70831D01*
Y70863D01*
X20470D01*
Y70895D01*
Y70927D01*
X20502D01*
Y70959D01*
Y70991D01*
X20534D01*
Y71022D01*
X20566D01*
Y71054D01*
Y71086D01*
X20598D01*
Y71118D01*
Y71150D01*
X20630D01*
Y71182D01*
Y71213D01*
X20662D01*
Y71245D01*
X20693D01*
Y71277D01*
Y71309D01*
X20725D01*
Y71341D01*
Y71373D01*
X20757D01*
Y71404D01*
Y71436D01*
X20789D01*
Y71468D01*
X20821D01*
Y71500D01*
Y71532D01*
X20853D01*
Y71564D01*
Y71596D01*
X20884D01*
Y71627D01*
X20916D01*
Y71659D01*
Y71691D01*
X20948D01*
Y71723D01*
Y71755D01*
X20980D01*
Y71787D01*
Y71819D01*
D02*
G37*
G36*
X6585Y61779D02*
X6466D01*
Y61764D01*
Y61749D01*
Y61735D01*
Y61720D01*
Y61705D01*
Y61691D01*
Y61676D01*
Y61661D01*
Y61647D01*
Y61632D01*
Y61617D01*
Y61603D01*
Y61588D01*
Y61573D01*
Y61559D01*
Y61544D01*
Y61529D01*
Y61515D01*
Y61500D01*
Y61485D01*
Y61471D01*
Y61456D01*
Y61441D01*
X6481D01*
Y61427D01*
Y61412D01*
Y61397D01*
Y61383D01*
Y61368D01*
X6496D01*
Y61353D01*
Y61339D01*
Y61324D01*
X6510D01*
Y61309D01*
Y61295D01*
Y61280D01*
X6525D01*
Y61265D01*
Y61251D01*
X6540D01*
Y61236D01*
Y61221D01*
X6555D01*
Y61207D01*
Y61192D01*
X6569D01*
Y61177D01*
X6584D01*
Y61163D01*
Y61148D01*
X6599D01*
Y61133D01*
X6613D01*
Y61119D01*
X6628D01*
Y61104D01*
X6643D01*
Y61089D01*
X6657D01*
Y61075D01*
X6672D01*
Y61060D01*
X6701D01*
Y61045D01*
X6716D01*
Y61031D01*
X6745D01*
Y61016D01*
X6774D01*
Y61001D01*
X6818D01*
Y60987D01*
X6892D01*
Y60972D01*
X6980D01*
Y60987D01*
X7053D01*
Y61001D01*
X7082D01*
Y61016D01*
X7113D01*
Y61031D01*
X7141D01*
Y61045D01*
X7157D01*
Y61060D01*
X7170D01*
Y61075D01*
X7185D01*
Y61089D01*
X7200D01*
Y61104D01*
X7215D01*
Y61119D01*
Y61133D01*
X7229D01*
Y61148D01*
Y61163D01*
X7245D01*
Y61177D01*
Y61192D01*
Y61207D01*
X7258D01*
Y61221D01*
Y61236D01*
Y61251D01*
Y61265D01*
Y61280D01*
Y61295D01*
Y61309D01*
Y61324D01*
Y61339D01*
Y61353D01*
Y61368D01*
Y61383D01*
X7259D01*
Y61397D01*
X7244D01*
Y61412D01*
Y61427D01*
Y61441D01*
X7229D01*
Y61456D01*
Y61471D01*
Y61485D01*
X7215D01*
Y61500D01*
X7200D01*
Y61515D01*
Y61529D01*
X7186D01*
Y61544D01*
X7170D01*
Y61559D01*
X7156D01*
Y61573D01*
X7142D01*
Y61588D01*
X7127D01*
Y61603D01*
X7113D01*
Y61617D01*
X7082D01*
Y61632D01*
X7053D01*
Y61647D01*
X7025D01*
Y61661D01*
X6994D01*
Y61676D01*
X6966D01*
Y61691D01*
X6922D01*
Y61705D01*
X6877D01*
Y61720D01*
X6833D01*
Y61735D01*
X6760D01*
Y61749D01*
X6687D01*
Y61764D01*
X6585D01*
Y61779D01*
D02*
G37*
G36*
X13782Y62673D02*
X13650D01*
Y62658D01*
X13592D01*
Y62644D01*
X13548D01*
Y62629D01*
X13519D01*
Y62614D01*
X13504D01*
Y62600D01*
X13475D01*
Y62585D01*
X13460D01*
Y62570D01*
X13445D01*
Y62556D01*
Y62541D01*
X13431D01*
Y62526D01*
X13416D01*
Y62512D01*
X13401D01*
Y62497D01*
Y62482D01*
X13387D01*
Y62468D01*
Y62453D01*
X13372D01*
Y62438D01*
Y62424D01*
Y62409D01*
X13357D01*
Y62394D01*
Y62380D01*
Y62365D01*
X13343D01*
Y62350D01*
Y62336D01*
Y62321D01*
Y62306D01*
X13328D01*
Y62292D01*
Y62277D01*
Y62262D01*
Y62248D01*
Y62233D01*
X13313D01*
Y62218D01*
Y62204D01*
Y62189D01*
Y62174D01*
Y62160D01*
Y62145D01*
Y62130D01*
Y62116D01*
X13299D01*
Y62101D01*
Y62086D01*
Y62072D01*
Y62057D01*
Y62042D01*
Y62028D01*
Y62013D01*
Y61998D01*
Y61984D01*
Y61969D01*
Y61954D01*
Y61940D01*
Y61925D01*
Y61910D01*
Y61896D01*
Y61881D01*
Y61866D01*
Y61852D01*
Y61837D01*
Y61823D01*
Y61808D01*
Y61793D01*
Y61779D01*
Y61764D01*
Y61749D01*
Y61735D01*
Y61720D01*
Y61705D01*
Y61691D01*
Y61676D01*
Y61661D01*
Y61647D01*
Y61632D01*
Y61617D01*
Y61603D01*
Y61588D01*
Y61573D01*
Y61559D01*
Y61544D01*
X13313D01*
Y61529D01*
Y61515D01*
Y61500D01*
Y61485D01*
Y61471D01*
Y61456D01*
Y61441D01*
X13328D01*
Y61427D01*
Y61412D01*
Y61397D01*
Y61383D01*
Y61368D01*
X13343D01*
Y61353D01*
Y61339D01*
Y61324D01*
Y61309D01*
X13357D01*
Y61295D01*
Y61280D01*
Y61265D01*
X13372D01*
Y61251D01*
Y61236D01*
X13387D01*
Y61221D01*
Y61207D01*
X13401D01*
Y61192D01*
Y61177D01*
X13416D01*
Y61163D01*
Y61148D01*
X13431D01*
Y61133D01*
X13445D01*
Y61119D01*
X13460D01*
Y61104D01*
Y61089D01*
X13475D01*
Y61075D01*
X13504D01*
Y61060D01*
X13519D01*
Y61045D01*
X13548D01*
Y61031D01*
X13577D01*
Y61016D01*
X13621D01*
Y61001D01*
X13826D01*
Y61016D01*
X13871D01*
Y61031D01*
X13901D01*
Y61045D01*
X13929D01*
Y61060D01*
X13944D01*
Y61075D01*
X13973D01*
Y61089D01*
X13988D01*
Y61104D01*
Y61119D01*
X14002D01*
Y61133D01*
X14017D01*
Y61148D01*
X14032D01*
Y61163D01*
Y61177D01*
X14046D01*
Y61192D01*
Y61207D01*
X14062D01*
Y61221D01*
Y61236D01*
X14076D01*
Y61251D01*
X14077D01*
Y61265D01*
Y61280D01*
X14090D01*
Y61295D01*
Y61309D01*
Y61324D01*
X14105D01*
Y61339D01*
Y61353D01*
Y61368D01*
X14106D01*
Y61383D01*
X14120D01*
Y61397D01*
Y61412D01*
Y61427D01*
Y61441D01*
Y61456D01*
X14135D01*
Y61471D01*
Y61485D01*
X14134D01*
Y61500D01*
Y61515D01*
Y61529D01*
Y61544D01*
Y61559D01*
X14150D01*
Y61573D01*
X14149D01*
Y61588D01*
Y61603D01*
Y61617D01*
Y61632D01*
Y61647D01*
Y61661D01*
Y61676D01*
Y61691D01*
Y61705D01*
Y61720D01*
Y61735D01*
X14150D01*
Y61749D01*
Y61764D01*
Y61779D01*
Y61793D01*
Y61808D01*
Y61823D01*
Y61837D01*
Y61852D01*
Y61866D01*
Y61881D01*
Y61896D01*
Y61910D01*
Y61925D01*
Y61940D01*
Y61954D01*
X14149D01*
Y61969D01*
Y61984D01*
Y61998D01*
Y62013D01*
Y62028D01*
Y62042D01*
Y62057D01*
Y62072D01*
Y62086D01*
Y62101D01*
X14150D01*
Y62116D01*
Y62130D01*
Y62145D01*
Y62160D01*
Y62174D01*
X14134D01*
Y62189D01*
X14135D01*
Y62204D01*
Y62218D01*
Y62233D01*
Y62248D01*
Y62262D01*
Y62277D01*
X14120D01*
Y62292D01*
Y62306D01*
X14121D01*
Y62321D01*
Y62336D01*
X14105D01*
Y62350D01*
X14106D01*
Y62365D01*
Y62380D01*
Y62394D01*
X14091D01*
Y62409D01*
Y62424D01*
X14076D01*
Y62438D01*
Y62453D01*
Y62468D01*
X14062D01*
Y62482D01*
X14046D01*
Y62497D01*
X14047D01*
Y62512D01*
X14032D01*
Y62526D01*
X14017D01*
Y62541D01*
Y62556D01*
X14003D01*
Y62570D01*
X13988D01*
Y62585D01*
X13973D01*
Y62600D01*
X13944D01*
Y62614D01*
X13929D01*
Y62629D01*
X13901D01*
Y62644D01*
X13857D01*
Y62658D01*
X13782D01*
Y62673D01*
D02*
G37*
G36*
X40341Y55085D02*
X38328D01*
X39660D01*
Y52125D01*
Y52118D01*
Y52096D01*
Y52059D01*
Y52014D01*
X39653Y51962D01*
Y51896D01*
X39645Y51755D01*
X39631Y51592D01*
X39608Y51430D01*
X39579Y51274D01*
X39564Y51208D01*
X39542Y51141D01*
X39534Y51126D01*
X39520Y51089D01*
X39483Y51037D01*
X39438Y50963D01*
X39386Y50889D01*
X39312Y50808D01*
X39224Y50727D01*
X39120Y50660D01*
X39105Y50653D01*
X39068Y50630D01*
X39002Y50608D01*
X38913Y50579D01*
X38809Y50542D01*
X38676Y50519D01*
X38535Y50497D01*
X38380Y50490D01*
X38306D01*
X38262Y50497D01*
X38195D01*
X38128Y50505D01*
X37966Y50534D01*
X37788Y50571D01*
X37618Y50630D01*
X37455Y50712D01*
X37381Y50764D01*
X37314Y50823D01*
X37307Y50830D01*
X37300Y50838D01*
X37285Y50860D01*
X37263Y50889D01*
X37240Y50934D01*
X37211Y50978D01*
X37181Y51045D01*
X37152Y51111D01*
X37122Y51193D01*
X37100Y51289D01*
X37070Y51400D01*
X37048Y51518D01*
X37026Y51652D01*
X37011Y51792D01*
X36996Y51955D01*
Y52125D01*
Y55085D01*
X36315D01*
Y49876D01*
Y51999D01*
X36323Y51933D01*
Y51859D01*
X36330Y51770D01*
X36338Y51681D01*
X36360Y51481D01*
X36389Y51274D01*
X36434Y51074D01*
X36463Y50978D01*
X36493Y50889D01*
Y50882D01*
X36500Y50867D01*
X36515Y50845D01*
X36530Y50815D01*
X36574Y50734D01*
X36641Y50630D01*
X36730Y50512D01*
X36833Y50394D01*
X36967Y50268D01*
X37129Y50157D01*
X37137D01*
X37152Y50142D01*
X37174Y50135D01*
X37211Y50112D01*
X37255Y50090D01*
X37314Y50068D01*
X37374Y50046D01*
X37448Y50016D01*
X37529Y49987D01*
X37618Y49964D01*
X37714Y49942D01*
X37825Y49920D01*
X37936Y49905D01*
X38054Y49890D01*
X38321Y49876D01*
X40341D01*
Y55085D01*
D02*
G37*
G36*
X48192D02*
X47512D01*
Y49964D01*
X48192D01*
Y55085D01*
D02*
G37*
G36*
X46335D02*
X41451D01*
Y49964D01*
X42102D01*
Y54249D01*
X43597Y49964D01*
X44204D01*
X45684Y54323D01*
Y49964D01*
X46335D01*
Y55085D01*
D02*
G37*
%LPD*%
G36*
X40341Y49876D02*
X38387D01*
X38439Y49883D01*
X38498D01*
X38572Y49890D01*
X38654Y49898D01*
X38735Y49905D01*
X38920Y49935D01*
X39120Y49979D01*
X39312Y50038D01*
X39497Y50120D01*
X39505D01*
X39520Y50135D01*
X39542Y50149D01*
X39571Y50164D01*
X39653Y50223D01*
X39749Y50305D01*
X39860Y50408D01*
X39964Y50527D01*
X40067Y50675D01*
X40149Y50838D01*
Y50845D01*
X40156Y50860D01*
X40163Y50889D01*
X40178Y50926D01*
X40193Y50971D01*
X40208Y51030D01*
X40230Y51097D01*
X40245Y51178D01*
X40260Y51267D01*
X40282Y51363D01*
X40297Y51467D01*
X40311Y51578D01*
X40326Y51703D01*
X40334Y51837D01*
X40341Y51977D01*
Y49876D01*
D02*
G37*
G36*
X44108Y51452D02*
Y51444D01*
X44100Y51430D01*
X44093Y51407D01*
X44078Y51370D01*
X44048Y51282D01*
X44011Y51171D01*
X43974Y51045D01*
X43930Y50919D01*
X43893Y50801D01*
X43863Y50697D01*
X43856Y50712D01*
X43849Y50749D01*
X43826Y50815D01*
X43797Y50904D01*
X43760Y51023D01*
X43708Y51163D01*
X43656Y51326D01*
X43590Y51518D01*
X42361Y55085D01*
X45321D01*
X44108Y51452D01*
D02*
G37*
%LPC*%
G36*
X58033Y14243D02*
X57959D01*
X57913Y14234D01*
X57830Y14211D01*
X57756Y14178D01*
X57692Y14146D01*
X57641Y14109D01*
X57604Y14077D01*
X57581Y14053D01*
X57571Y14049D01*
Y14044D01*
X57511Y13966D01*
X57465Y13878D01*
X57433Y13786D01*
X57414Y13698D01*
X57400Y13624D01*
X57396Y13591D01*
Y13559D01*
X57391Y13536D01*
Y13518D01*
Y13508D01*
Y13504D01*
X57400Y13384D01*
X57419Y13277D01*
X57447Y13190D01*
X57479Y13116D01*
X57516Y13056D01*
X57544Y13014D01*
X57562Y12986D01*
X57571Y12977D01*
X57641Y12912D01*
X57715Y12866D01*
X57788Y12834D01*
X57862Y12811D01*
X57923Y12797D01*
X57973Y12792D01*
X57992Y12788D01*
X58020D01*
X58117Y12797D01*
X58204Y12815D01*
X58283Y12848D01*
X58352Y12885D01*
X58403Y12917D01*
X58444Y12949D01*
X58468Y12968D01*
X58477Y12977D01*
X58537Y13051D01*
X58583Y13134D01*
X58611Y13217D01*
X58634Y13296D01*
X58648Y13365D01*
X58652Y13393D01*
Y13421D01*
X58657Y13444D01*
Y13457D01*
Y13467D01*
Y13471D01*
X58648Y13591D01*
X58629Y13702D01*
X58597Y13799D01*
X58560Y13878D01*
X58528Y13943D01*
X58495Y13989D01*
X58486Y14003D01*
X58477Y14017D01*
X58468Y14021D01*
Y14026D01*
X58431Y14063D01*
X58394Y14100D01*
X58315Y14151D01*
X58237Y14192D01*
X58163Y14215D01*
X58103Y14234D01*
X58052Y14238D01*
X58033Y14243D01*
D02*
G37*
G36*
X23007D02*
X22980D01*
X22929Y14238D01*
X22878Y14234D01*
X22832Y14220D01*
X22790Y14201D01*
X22712Y14160D01*
X22642Y14114D01*
X22591Y14063D01*
X22550Y14021D01*
X22536Y14003D01*
X22527Y13989D01*
X22518Y13984D01*
Y13980D01*
X22485Y13924D01*
X22457Y13859D01*
X22430Y13786D01*
X22411Y13707D01*
X22393Y13624D01*
X22379Y13536D01*
X22356Y13361D01*
X22347Y13273D01*
X22342Y13194D01*
X22337Y13120D01*
Y13060D01*
X22333Y13005D01*
Y12963D01*
Y12940D01*
Y12935D01*
Y12931D01*
Y12788D01*
X22342Y12658D01*
X22351Y12543D01*
X22361Y12432D01*
X22374Y12340D01*
X22393Y12252D01*
X22411Y12178D01*
X22425Y12109D01*
X22444Y12053D01*
X22462Y12007D01*
X22476Y11965D01*
X22494Y11933D01*
X22504Y11910D01*
X22513Y11896D01*
X22522Y11887D01*
Y11882D01*
X22559Y11836D01*
X22596Y11799D01*
X22633Y11762D01*
X22670Y11734D01*
X22749Y11688D01*
X22818Y11656D01*
X22883Y11637D01*
X22929Y11628D01*
X22947Y11623D01*
X22975D01*
X23026Y11628D01*
X23072Y11633D01*
X23160Y11665D01*
X23238Y11707D01*
X23308Y11753D01*
X23358Y11799D01*
X23400Y11840D01*
X23423Y11873D01*
X23432Y11878D01*
Y11882D01*
X23465Y11938D01*
X23492Y12002D01*
X23520Y12076D01*
X23539Y12155D01*
X23557Y12238D01*
X23571Y12326D01*
X23594Y12506D01*
X23603Y12589D01*
X23608Y12667D01*
X23613Y12741D01*
Y12801D01*
X23617Y12857D01*
Y12899D01*
Y12922D01*
Y12931D01*
X23613Y13074D01*
X23608Y13203D01*
X23599Y13324D01*
X23585Y13434D01*
X23571Y13532D01*
X23552Y13619D01*
X23534Y13698D01*
X23516Y13767D01*
X23497Y13827D01*
X23483Y13878D01*
X23465Y13919D01*
X23451Y13957D01*
X23437Y13980D01*
X23428Y13998D01*
X23418Y14007D01*
Y14012D01*
X23386Y14053D01*
X23354Y14090D01*
X23317Y14118D01*
X23280Y14146D01*
X23206Y14187D01*
X23137Y14215D01*
X23077Y14229D01*
X23026Y14238D01*
X23007Y14243D01*
D02*
G37*
G36*
X15980Y29006D02*
X15134D01*
Y28867D01*
X15980D01*
Y29006D01*
D02*
G37*
G36*
X16230Y28812D02*
Y28631D01*
X14898D01*
Y28784D01*
X14620Y28743D01*
X14370Y28687D01*
X14162Y28631D01*
X13996Y28548D01*
X13871Y28479D01*
X13774Y28382D01*
Y28326D01*
X16869D01*
Y28729D01*
X16675Y28770D01*
X16466Y28798D01*
X16230Y28812D01*
D02*
G37*
G36*
X17202Y28867D02*
X17105D01*
Y28548D01*
X17202D01*
Y28867D01*
D02*
G37*
G36*
X17438Y28562D02*
Y28326D01*
X17729D01*
Y28368D01*
X17660Y28437D01*
X17577Y28493D01*
X17438Y28562D01*
D02*
G37*
G36*
X13413Y28520D02*
X13399D01*
X13329Y28506D01*
X13288Y28465D01*
X13274Y28409D01*
Y28396D01*
X13288Y28326D01*
X13329Y28298D01*
X13385Y28284D01*
X13399D01*
X13468Y28298D01*
X13496Y28340D01*
X13510Y28382D01*
Y28396D01*
X13496Y28465D01*
X13454Y28506D01*
X13413Y28520D01*
D02*
G37*
G36*
X13690Y27452D02*
X13232D01*
Y26994D01*
X13690D01*
Y27452D01*
D02*
G37*
G36*
X16022Y26411D02*
X14773D01*
Y26327D01*
X16022D01*
Y26411D01*
D02*
G37*
G36*
X17688Y27896D02*
X13801D01*
X13829Y27688D01*
X13926D01*
Y27243D01*
X14509Y26647D01*
X16258D01*
Y26091D01*
X15051D01*
X15856Y25259D01*
X17618Y27091D01*
X17688Y27896D01*
D02*
G37*
G36*
X17577Y26702D02*
X16022Y25092D01*
X17299Y23773D01*
X17577Y26702D01*
D02*
G37*
G36*
X13926Y26896D02*
Y26758D01*
X13898D01*
X14176Y23524D01*
X15689Y25092D01*
X14717Y26091D01*
X14509D01*
Y26300D01*
X13926Y26896D01*
D02*
G37*
G36*
X15856Y24912D02*
X14204Y23204D01*
X14232Y22899D01*
X14343Y22913D01*
X14468Y22899D01*
X14620Y22857D01*
X14773Y22788D01*
X14884Y22705D01*
X14981Y22607D01*
X15078Y22469D01*
X15148Y22302D01*
X15189Y22122D01*
X15175Y21997D01*
X17132D01*
X17271Y23454D01*
X15856Y24912D01*
D02*
G37*
G36*
X14412Y22483D02*
X14343D01*
X14204Y22469D01*
X14107Y22413D01*
X14023Y22358D01*
X13982Y22274D01*
X13954Y22205D01*
X13926Y22136D01*
Y22080D01*
Y22066D01*
X13940Y21927D01*
X13996Y21830D01*
X14051Y21747D01*
X14134Y21705D01*
X14204Y21678D01*
X14273Y21664D01*
X14329Y21650D01*
X14343D01*
X14481Y21664D01*
X14579Y21719D01*
X14662Y21789D01*
X14704Y21858D01*
X14731Y21941D01*
X14745Y21997D01*
X14759Y22052D01*
Y22066D01*
X14745Y22205D01*
X14690Y22302D01*
X14620Y22385D01*
X14551Y22427D01*
X14468Y22455D01*
X14412Y22483D01*
D02*
G37*
G36*
X17049Y21747D02*
X16994D01*
Y21414D01*
X17049D01*
Y21747D01*
D02*
G37*
%LPD*%
G36*
X14440Y22330D02*
X14509Y22302D01*
X14551Y22261D01*
X14579Y22205D01*
X14620Y22108D01*
Y22080D01*
Y22066D01*
X14606Y21969D01*
X14579Y21900D01*
X14537Y21858D01*
X14481Y21830D01*
X14384Y21789D01*
X14343D01*
X14245Y21802D01*
X14176Y21830D01*
X14134Y21872D01*
X14093Y21927D01*
X14065Y22025D01*
Y22052D01*
Y22066D01*
X14079Y22163D01*
X14107Y22233D01*
X14148Y22274D01*
X14204Y22316D01*
X14301Y22344D01*
X14343D01*
X14440Y22330D01*
D02*
G37*
%LPC*%
G36*
X14356Y22108D02*
X14315D01*
X14301Y22094D01*
Y22080D01*
Y22066D01*
Y22038D01*
X14315Y22025D01*
X14343D01*
X14370Y22038D01*
X14384Y22052D01*
Y22066D01*
X14370Y22094D01*
X14356Y22108D01*
D02*
G37*
G36*
X13388Y38720D02*
X13370D01*
X13240Y38702D01*
X13129Y38665D01*
X13027Y38609D01*
X12944Y38544D01*
X12879Y38480D01*
X12824Y38424D01*
X12796Y38387D01*
X12787Y38369D01*
X12741Y38304D01*
X12704Y38221D01*
X12648Y38054D01*
X12602Y37860D01*
X12574Y37684D01*
X12555Y37518D01*
Y37444D01*
X12546Y37379D01*
Y37323D01*
Y37286D01*
Y37259D01*
Y37249D01*
X12555Y36990D01*
X12583Y36778D01*
X12620Y36593D01*
X12657Y36435D01*
X12704Y36325D01*
X12741Y36241D01*
X12768Y36195D01*
X12777Y36176D01*
X12870Y36066D01*
X12962Y35982D01*
X13055Y35927D01*
X13138Y35890D01*
X13221Y35862D01*
X13277Y35853D01*
X13314Y35844D01*
X13332D01*
X13416Y35853D01*
X13490Y35871D01*
X13564Y35890D01*
X13629Y35927D01*
X13684Y35954D01*
X13730Y35973D01*
X13758Y35991D01*
X13767Y36001D01*
X13841Y36066D01*
X13906Y36140D01*
X13952Y36213D01*
X13998Y36288D01*
X14036Y36362D01*
X14063Y36417D01*
X14073Y36454D01*
X14082Y36463D01*
X14119Y36593D01*
X14137Y36741D01*
X14156Y36889D01*
X14174Y37027D01*
Y37157D01*
X14184Y37268D01*
Y37305D01*
Y37333D01*
Y37351D01*
Y37361D01*
X14174Y37601D01*
X14146Y37804D01*
X14109Y37980D01*
X14063Y38128D01*
X14026Y38239D01*
X13989Y38313D01*
X13961Y38359D01*
X13952Y38378D01*
X13860Y38489D01*
X13758Y38572D01*
X13666Y38637D01*
X13573Y38674D01*
X13490Y38702D01*
X13425Y38711D01*
X13388Y38720D01*
D02*
G37*
G36*
X18864Y40200D02*
X18143D01*
X18050Y40191D01*
X17957D01*
X17809Y40182D01*
X17698Y40163D01*
X17615Y40154D01*
X17560Y40135D01*
X17532Y40126D01*
X17523D01*
X17449Y40089D01*
X17384Y40052D01*
X17328Y39997D01*
X17273Y39950D01*
X17236Y39904D01*
X17208Y39867D01*
X17190Y39840D01*
X17180Y39830D01*
X17134Y39747D01*
X17097Y39654D01*
X17079Y39571D01*
X17060Y39488D01*
X17051Y39414D01*
X17042Y39358D01*
Y39322D01*
Y39303D01*
X17051Y39192D01*
X17060Y39090D01*
X17088Y39007D01*
X17107Y38933D01*
X17134Y38868D01*
X17162Y38822D01*
X17171Y38794D01*
X17180Y38785D01*
X17236Y38711D01*
X17291Y38646D01*
X17347Y38600D01*
X17402Y38554D01*
X17449Y38526D01*
X17486Y38508D01*
X17514Y38489D01*
X17523D01*
X17615Y38461D01*
X17726Y38443D01*
X17856Y38434D01*
X17985Y38424D01*
X18105Y38415D01*
X18864D01*
Y40200D01*
D02*
G37*
G36*
X73852Y62877D02*
X68968D01*
Y57756D01*
X69620D01*
Y62040D01*
X71114Y57756D01*
X71721D01*
X73201Y62114D01*
Y57756D01*
X73852D01*
Y62877D01*
D02*
G37*
G36*
X67755D02*
X67074D01*
Y57756D01*
X67755D01*
Y62877D01*
D02*
G37*
G36*
X66075Y62965D02*
X61546D01*
Y59369D01*
X61554Y59339D01*
X61568Y59295D01*
X61591Y59236D01*
X61613Y59169D01*
X61642Y59088D01*
X61679Y58999D01*
X61724Y58903D01*
X61827Y58696D01*
X61961Y58488D01*
X62042Y58385D01*
X62123Y58281D01*
X62212Y58192D01*
X62316Y58104D01*
X62323Y58096D01*
X62338Y58081D01*
X62375Y58067D01*
X62412Y58037D01*
X62471Y58000D01*
X62530Y57963D01*
X62612Y57926D01*
X62693Y57889D01*
X62789Y57845D01*
X62893Y57808D01*
X63004Y57771D01*
X63122Y57734D01*
X63248Y57704D01*
X63381Y57689D01*
X63522Y57674D01*
X63670Y57667D01*
X63751D01*
X63811Y57674D01*
X63877D01*
X63959Y57682D01*
X64047Y57697D01*
X64151Y57711D01*
X64366Y57748D01*
X64588Y57808D01*
X64810Y57889D01*
X64913Y57941D01*
X65017Y58000D01*
X65024Y58007D01*
X65039Y58015D01*
X65069Y58037D01*
X65098Y58067D01*
X65143Y58096D01*
X65194Y58141D01*
X65254Y58192D01*
X65313Y58252D01*
X65372Y58318D01*
X65439Y58385D01*
X65572Y58555D01*
X65698Y58755D01*
X65809Y58977D01*
Y58984D01*
X65823Y59006D01*
X65831Y59043D01*
X65853Y59088D01*
X65868Y59147D01*
X65890Y59221D01*
X65920Y59302D01*
X65942Y59391D01*
X65964Y59487D01*
X65994Y59598D01*
X66031Y59828D01*
X66060Y60087D01*
X66075Y60353D01*
Y60486D01*
Y60435D01*
X66068Y60486D01*
Y60560D01*
X66060Y60634D01*
X66053Y60731D01*
X66038Y60827D01*
X66001Y61041D01*
X65949Y61278D01*
X65875Y61515D01*
X65772Y61744D01*
X65764Y61752D01*
X65757Y61774D01*
X65742Y61804D01*
X65712Y61841D01*
X65683Y61892D01*
X65646Y61952D01*
X65550Y62085D01*
X65424Y62233D01*
X65276Y62381D01*
X65106Y62529D01*
X64906Y62655D01*
X64898Y62662D01*
X64876Y62669D01*
X64847Y62684D01*
X64810Y62706D01*
X64750Y62729D01*
X64691Y62751D01*
X64617Y62780D01*
X64536Y62810D01*
X64447Y62840D01*
X64351Y62869D01*
X64144Y62914D01*
X63907Y62951D01*
X63663Y62965D01*
X66075D01*
D02*
G37*
%LPD*%
G36*
X71625Y59243D02*
Y59236D01*
X71618Y59221D01*
X71610Y59199D01*
X71595Y59162D01*
X71566Y59073D01*
X71529Y58962D01*
X71492Y58836D01*
X71447Y58710D01*
X71410Y58592D01*
X71381Y58488D01*
X71373Y58503D01*
X71366Y58540D01*
X71344Y58607D01*
X71314Y58696D01*
X71277Y58814D01*
X71225Y58955D01*
X71174Y59117D01*
X71107Y59310D01*
X69879Y62877D01*
X72839D01*
X71625Y59243D01*
D02*
G37*
G36*
X63537Y62958D02*
X63470Y62951D01*
X63389Y62943D01*
X63307Y62936D01*
X63211Y62914D01*
X63011Y62869D01*
X62789Y62803D01*
X62678Y62758D01*
X62575Y62706D01*
X62471Y62640D01*
X62368Y62573D01*
X62360Y62566D01*
X62345Y62558D01*
X62316Y62536D01*
X62279Y62499D01*
X62242Y62462D01*
X62190Y62410D01*
X62138Y62351D01*
X62079Y62292D01*
X62020Y62218D01*
X61961Y62129D01*
X61894Y62040D01*
X61835Y61944D01*
X61783Y61833D01*
X61724Y61722D01*
X61679Y61604D01*
X61635Y61471D01*
X62301Y61315D01*
Y61323D01*
X62308Y61337D01*
X62323Y61367D01*
X62338Y61404D01*
X62353Y61448D01*
X62375Y61508D01*
X62434Y61626D01*
X62508Y61759D01*
X62597Y61892D01*
X62708Y62018D01*
X62826Y62129D01*
X62841Y62144D01*
X62886Y62174D01*
X62960Y62211D01*
X63056Y62262D01*
X63182Y62307D01*
X63322Y62351D01*
X63492Y62381D01*
X63677Y62388D01*
X63737D01*
X63774Y62381D01*
X63825D01*
X63885Y62373D01*
X64025Y62351D01*
X64181Y62322D01*
X64343Y62270D01*
X64514Y62196D01*
X64669Y62100D01*
X64676D01*
X64684Y62085D01*
X64736Y62048D01*
X64802Y61989D01*
X64884Y61900D01*
X64980Y61789D01*
X65069Y61663D01*
X65150Y61508D01*
X65224Y61337D01*
Y61330D01*
X65231Y61315D01*
X65239Y61293D01*
X65246Y61256D01*
X65261Y61212D01*
X65276Y61160D01*
X65298Y61034D01*
X65328Y60886D01*
X65357Y60723D01*
X65372Y60546D01*
X65379Y60353D01*
Y60346D01*
Y60324D01*
Y60287D01*
Y60242D01*
X65372Y60190D01*
Y60124D01*
X65365Y60050D01*
X65357Y59968D01*
X65335Y59791D01*
X65298Y59598D01*
X65254Y59406D01*
X65194Y59214D01*
Y59206D01*
X65187Y59191D01*
X65172Y59169D01*
X65157Y59132D01*
X65113Y59043D01*
X65046Y58940D01*
X64965Y58821D01*
X64861Y58696D01*
X64743Y58585D01*
X64602Y58481D01*
X64595D01*
X64580Y58474D01*
X64558Y58459D01*
X64528Y58444D01*
X64491Y58429D01*
X64447Y58407D01*
X64343Y58363D01*
X64210Y58318D01*
X64062Y58281D01*
X63899Y58252D01*
X63729Y58244D01*
X63677D01*
X63633Y58252D01*
X63581D01*
X63529Y58259D01*
X63396Y58289D01*
X63241Y58326D01*
X63085Y58385D01*
X62923Y58466D01*
X62841Y58511D01*
X62767Y58570D01*
X62760Y58577D01*
X62752Y58585D01*
X62730Y58607D01*
X62701Y58629D01*
X62671Y58666D01*
X62634Y58710D01*
X62590Y58755D01*
X62553Y58814D01*
X62508Y58881D01*
X62456Y58955D01*
X62412Y59029D01*
X62368Y59117D01*
X62331Y59214D01*
X62294Y59317D01*
X62257Y59428D01*
X62227Y59547D01*
X61546Y59376D01*
Y62965D01*
X63589D01*
X63537Y62958D01*
D02*
G37*
D10*
X73705Y66929D02*
G03*
X73705Y66929I-492J0D01*
G01*
D11*
X22100Y38200D02*
G03*
X22100Y38200I-6000J0D01*
G01*
X53729Y7659D02*
Y10859D01*
X48729Y7659D02*
X53729D01*
X53829Y44159D02*
Y47359D01*
X48829D02*
X53829D01*
X30129Y7659D02*
Y10859D01*
Y7659D02*
X35129D01*
X30129Y44259D02*
Y47459D01*
X35129D01*
X12000Y34300D02*
X19900Y42200D01*
X-17400Y-26941D02*
Y-35600D01*
X-13071D01*
X-11628Y-34157D01*
Y-32714D01*
X-13071Y-31271D01*
X-17400D01*
X-13071D01*
X-11628Y-29828D01*
Y-28385D01*
X-13071Y-26941D01*
X-17400D01*
X-4412D02*
X-7298D01*
X-8741Y-28385D01*
Y-34157D01*
X-7298Y-35600D01*
X-4412D01*
X-2969Y-34157D01*
Y-28385D01*
X-4412Y-26941D01*
X-83D02*
X5690D01*
X2803D01*
Y-35600D01*
X8576Y-26941D02*
X14348D01*
X11462D01*
Y-35600D01*
X21564Y-26941D02*
X18678D01*
X17234Y-28385D01*
Y-34157D01*
X18678Y-35600D01*
X21564D01*
X23007Y-34157D01*
Y-28385D01*
X21564Y-26941D01*
X25893Y-35600D02*
Y-26941D01*
X28779Y-29828D01*
X31666Y-26941D01*
Y-35600D01*
X47540Y-26941D02*
X44653D01*
X43210Y-28385D01*
Y-34157D01*
X44653Y-35600D01*
X47540D01*
X48983Y-34157D01*
Y-28385D01*
X47540Y-26941D01*
X51869D02*
Y-32714D01*
X54755Y-35600D01*
X57641Y-32714D01*
Y-26941D01*
X66300D02*
X60528D01*
Y-35600D01*
X66300D01*
X60528Y-31271D02*
X63414D01*
X69186Y-35600D02*
Y-26941D01*
X73515D01*
X74959Y-28385D01*
Y-31271D01*
X73515Y-32714D01*
X69186D01*
X72072D02*
X74959Y-35600D01*
X77845Y-26941D02*
Y-35600D01*
X83617D01*
X86503D02*
Y-29828D01*
X89390Y-26941D01*
X92276Y-29828D01*
Y-35600D01*
Y-31271D01*
X86503D01*
X95162Y-26941D02*
Y-28385D01*
X98048Y-31271D01*
X100935Y-28385D01*
Y-26941D01*
X98048Y-31271D02*
Y-35600D01*
D12*
X18898Y91732D02*
G03*
X19685Y91732I394J0D01*
G01*
D02*
G03*
X18898Y91732I-394J0D01*
G01*
X31299Y61221D02*
G03*
X31299Y61221I-394J0D01*
G01*
X60953Y80122D02*
X66858D01*
X60953Y69689D02*
X66858D01*
X60953Y77268D02*
Y80122D01*
Y69689D02*
Y72544D01*
D13*
X15945Y97244D02*
X17520D01*
X66338D02*
X67913D01*
X9252Y111024D02*
X74606D01*
D15*
X33858Y58268D02*
X35630D01*
X33858D02*
Y60039D01*
X48228Y58268D02*
X50000D01*
Y60039D01*
X48228Y74410D02*
X50000D01*
Y72638D02*
Y74410D01*
X33858Y72638D02*
Y74410D01*
X35630D01*
X48500Y79600D02*
Y85210D01*
X45300Y79700D02*
Y85409D01*
X44700Y79600D02*
Y85210D01*
X41500Y79700D02*
Y85409D01*
X64732Y68005D02*
X70342D01*
X64534Y64805D02*
X70242D01*
X67732Y84505D02*
X73342D01*
X67534Y81305D02*
X73242D01*
X52600Y66890D02*
Y72500D01*
X55800Y66691D02*
Y72400D01*
M02*
