G04*
G04 #@! TF.GenerationSoftware,Altium Limited,Altium Designer,20.1.11 (218)*
G04*
G04 Layer_Physical_Order=4*
G04 Layer_Color=16440176*
%FSLAX25Y25*%
%MOIN*%
G70*
G04*
G04 #@! TF.SameCoordinates,49FD3369-56E0-4B66-BF1D-E122077B7428*
G04*
G04*
G04 #@! TF.FilePolarity,Positive*
G04*
G01*
G75*
%ADD10C,0.00984*%
%ADD15C,0.00500*%
%ADD83C,0.01900*%
%ADD96C,0.01772*%
G36*
X83043Y75296D02*
X82646Y75031D01*
X82538Y74870D01*
X81972Y74818D01*
X81513Y75124D01*
X80972Y75232D01*
X80432Y75124D01*
X79973Y74818D01*
X79667Y74360D01*
X79559Y73819D01*
X79667Y73278D01*
X79973Y72820D01*
X80432Y72513D01*
X80972Y72406D01*
X81513Y72513D01*
X81972Y72820D01*
X82538Y72768D01*
X82646Y72607D01*
X83043Y72342D01*
Y70296D01*
X82646Y70031D01*
X82538Y69870D01*
X81972Y69818D01*
X81513Y70124D01*
X80972Y70232D01*
X80432Y70124D01*
X79973Y69818D01*
X79667Y69359D01*
X79559Y68819D01*
X79667Y68278D01*
X79973Y67820D01*
X80432Y67513D01*
X80972Y67406D01*
X81513Y67513D01*
X81972Y67820D01*
X82538Y67768D01*
X82646Y67607D01*
X83043Y67342D01*
Y65296D01*
X82646Y65031D01*
X82538Y64869D01*
X81972Y64818D01*
X81513Y65124D01*
X80972Y65232D01*
X80432Y65124D01*
X79973Y64818D01*
X79667Y64359D01*
X79559Y63819D01*
X79667Y63278D01*
X79973Y62820D01*
X80432Y62513D01*
X80972Y62406D01*
X81513Y62513D01*
X81972Y62820D01*
X82538Y62768D01*
X82646Y62607D01*
X83043Y62342D01*
Y60296D01*
X82646Y60031D01*
X82538Y59869D01*
X81972Y59818D01*
X81513Y60124D01*
X80972Y60232D01*
X80432Y60124D01*
X79973Y59818D01*
X79667Y59360D01*
X79559Y58819D01*
X79667Y58278D01*
X79973Y57820D01*
X80432Y57513D01*
X80972Y57406D01*
X81513Y57513D01*
X81972Y57820D01*
X82538Y57768D01*
X82646Y57607D01*
X83043Y57342D01*
Y55296D01*
X82646Y55031D01*
X82538Y54870D01*
X81972Y54818D01*
X81513Y55124D01*
X80972Y55232D01*
X80432Y55124D01*
X79973Y54818D01*
X79667Y54360D01*
X79559Y53819D01*
X79667Y53278D01*
X79973Y52820D01*
X80432Y52513D01*
X80972Y52406D01*
X81513Y52513D01*
X81972Y52820D01*
X82538Y52768D01*
X82646Y52607D01*
X83043Y52342D01*
Y50296D01*
X82646Y50031D01*
X82538Y49869D01*
X81972Y49818D01*
X81513Y50124D01*
X80972Y50232D01*
X80432Y50124D01*
X79973Y49818D01*
X79667Y49360D01*
X79559Y48819D01*
X79667Y48278D01*
X79973Y47820D01*
X80432Y47513D01*
X80972Y47406D01*
X81513Y47513D01*
X81972Y47820D01*
X82538Y47768D01*
X82646Y47607D01*
X83043Y47342D01*
Y45296D01*
X82646Y45031D01*
X82538Y44870D01*
X81972Y44818D01*
X81513Y45124D01*
X80972Y45232D01*
X80432Y45124D01*
X79973Y44818D01*
X79667Y44359D01*
X79559Y43819D01*
X79088Y43727D01*
X78782Y44185D01*
X78323Y44491D01*
X77782Y44599D01*
X77242Y44491D01*
X76783Y44185D01*
X76477Y43727D01*
X76370Y43186D01*
X76477Y42645D01*
X76783Y42187D01*
X77242Y41880D01*
X77782Y41773D01*
X78323Y41880D01*
X78782Y42187D01*
X79088Y42645D01*
X79195Y43186D01*
X79667Y43278D01*
X79973Y42820D01*
X80432Y42513D01*
X80972Y42406D01*
X81513Y42513D01*
X81972Y42820D01*
X82538Y42768D01*
X82646Y42607D01*
X83043Y42342D01*
Y40296D01*
X82646Y40031D01*
X82538Y39869D01*
X81972Y39818D01*
X81513Y40124D01*
X80972Y40232D01*
X80432Y40124D01*
X79973Y39818D01*
X79817Y39584D01*
X76998D01*
X72341Y44241D01*
X72093Y44407D01*
X71800Y44465D01*
X61937D01*
X61644Y44407D01*
X61396Y44241D01*
X61219Y44064D01*
X60942Y44119D01*
X60402Y44011D01*
X59943Y43705D01*
X59637Y43246D01*
X59530Y42706D01*
X59637Y42165D01*
X59943Y41707D01*
X60402Y41400D01*
X60942Y41293D01*
X61483Y41400D01*
X61942Y41707D01*
X62248Y42165D01*
X62355Y42706D01*
X62544Y42935D01*
X70853D01*
X71005Y42435D01*
X70801Y42299D01*
X70495Y41841D01*
X70387Y41300D01*
X70495Y40759D01*
X70801Y40301D01*
X71259Y39995D01*
X71800Y39887D01*
X72341Y39995D01*
X72799Y40301D01*
X73044Y40667D01*
X73590Y40828D01*
X76140Y38278D01*
X76389Y38112D01*
X76681Y38054D01*
X79416D01*
X79507Y37927D01*
X79249Y37427D01*
X70472D01*
X70151Y37927D01*
X70216Y38256D01*
X70108Y38797D01*
X69802Y39255D01*
X69344Y39561D01*
X68803Y39669D01*
X68262Y39561D01*
X67804Y39255D01*
X67497Y38797D01*
X67390Y38256D01*
X67455Y37927D01*
X67134Y37427D01*
X54021D01*
X52341Y39107D01*
X52341Y41741D01*
X58300Y47700D01*
X58300Y54626D01*
X60234Y56560D01*
X67666Y56560D01*
X69518Y54709D01*
X70991Y54709D01*
X71008Y54216D01*
Y54002D01*
X70773Y53845D01*
X70467Y53386D01*
X69918Y53188D01*
X69883Y53211D01*
X69342Y53319D01*
X68802Y53211D01*
X68343Y52905D01*
X68037Y52447D01*
X67930Y51906D01*
X68037Y51365D01*
X68343Y50907D01*
X68369Y50889D01*
Y50288D01*
X68343Y50271D01*
X68037Y49812D01*
X67930Y49272D01*
X68037Y48731D01*
X68343Y48273D01*
X68553Y48133D01*
Y47545D01*
X68343Y47405D01*
X68037Y46946D01*
X67930Y46406D01*
X68037Y45865D01*
X68343Y45407D01*
X68802Y45100D01*
X69342Y44993D01*
X69883Y45100D01*
X70342Y45407D01*
X70648Y45865D01*
X70755Y46406D01*
X70648Y46946D01*
X70342Y47405D01*
X70132Y47545D01*
Y48133D01*
X70342Y48273D01*
X70648Y48731D01*
X70755Y49272D01*
X70648Y49812D01*
X70342Y50271D01*
X70316Y50288D01*
Y50889D01*
X70342Y50907D01*
X70648Y51365D01*
X71197Y51564D01*
X71232Y51540D01*
X71772Y51433D01*
X72313Y51540D01*
X72772Y51847D01*
X73078Y52305D01*
X73185Y52846D01*
X73078Y53386D01*
X72772Y53845D01*
X72537Y54002D01*
Y56328D01*
X72518Y56425D01*
X72525Y56433D01*
X72978Y56673D01*
X73312Y56450D01*
X73852Y56343D01*
X74393Y56450D01*
X74852Y56757D01*
X75158Y57215D01*
X75265Y57756D01*
X75158Y58297D01*
X74852Y58755D01*
X74393Y59061D01*
X73852Y59169D01*
X73312Y59061D01*
X72853Y58755D01*
X72547Y58297D01*
X72439Y57756D01*
X72516Y57373D01*
X72055Y57127D01*
X70991Y58191D01*
Y58309D01*
X68331Y60969D01*
X61550Y60969D01*
X58152Y64367D01*
Y67602D01*
X58299Y67701D01*
X58605Y68159D01*
X58635Y68308D01*
X60234Y69907D01*
Y70035D01*
X70543D01*
X70836Y70094D01*
X71084Y70259D01*
X73649Y72825D01*
X73815Y73073D01*
X73873Y73366D01*
Y73710D01*
X74212Y73852D01*
X74373Y73887D01*
X74802Y73600D01*
X75342Y73493D01*
X75883Y73600D01*
X76342Y73907D01*
X76648Y74365D01*
X76755Y74906D01*
X76648Y75446D01*
X76342Y75905D01*
X75883Y76211D01*
X75342Y76319D01*
X74802Y76211D01*
X74373Y75925D01*
X74212Y75960D01*
X73873Y76102D01*
Y81191D01*
X73852Y81300D01*
X74286Y81611D01*
X74302Y81600D01*
X74842Y81493D01*
X75383Y81600D01*
X75842Y81907D01*
X76148Y82365D01*
X76255Y82906D01*
X76148Y83447D01*
X75842Y83905D01*
X75383Y84211D01*
X74842Y84319D01*
X74302Y84211D01*
X73843Y83905D01*
X73537Y83447D01*
X73430Y82906D01*
X73491Y82598D01*
X73030Y82351D01*
X71754Y83628D01*
X71918Y84170D01*
X72041Y84195D01*
X72499Y84501D01*
X72805Y84959D01*
X72913Y85500D01*
X72805Y86041D01*
X72499Y86499D01*
X72041Y86805D01*
X71500Y86913D01*
X70959Y86805D01*
X70465Y87076D01*
Y93880D01*
X70965Y94032D01*
X71048Y93907D01*
X71507Y93600D01*
X72047Y93493D01*
X72588Y93600D01*
X73047Y93907D01*
X73353Y94365D01*
X73460Y94906D01*
X73353Y95446D01*
X73047Y95905D01*
X72588Y96211D01*
X72047Y96319D01*
X71507Y96211D01*
X71048Y95905D01*
X70965Y95780D01*
X70465Y95931D01*
Y112696D01*
X70407Y112988D01*
X70241Y113236D01*
X64963Y118514D01*
X64715Y118679D01*
X64423Y118738D01*
X20125D01*
X20125Y118738D01*
X19833Y118679D01*
X19585Y118514D01*
X19585Y118514D01*
X12727Y111656D01*
X12450Y111711D01*
X11910Y111603D01*
X11451Y111297D01*
X11145Y110839D01*
X11098Y110604D01*
X11009Y110573D01*
X10578Y110551D01*
X10342Y110905D01*
X9883Y111211D01*
X9342Y111319D01*
X8802Y111211D01*
X8343Y110905D01*
X8037Y110447D01*
X7930Y109906D01*
X8037Y109365D01*
X8343Y108907D01*
X8802Y108600D01*
X9342Y108493D01*
X9883Y108600D01*
X10342Y108907D01*
X10648Y109365D01*
X10695Y109600D01*
X10783Y109631D01*
X11215Y109652D01*
X11451Y109299D01*
X11910Y108993D01*
X12450Y108885D01*
X12991Y108993D01*
X13449Y109299D01*
X13756Y109757D01*
X13863Y110298D01*
X13808Y110574D01*
X20442Y117208D01*
X64106D01*
X68935Y112379D01*
Y84600D01*
X68994Y84307D01*
X69159Y84059D01*
X72344Y80875D01*
Y76934D01*
X71844Y76782D01*
X71699Y76999D01*
X71241Y77305D01*
X70700Y77413D01*
X70159Y77305D01*
X69701Y76999D01*
X69395Y76541D01*
X69287Y76000D01*
X69395Y75459D01*
X69701Y75001D01*
X70159Y74695D01*
X70700Y74587D01*
X71241Y74695D01*
X71699Y75001D01*
X71844Y75218D01*
X72344Y75066D01*
Y73683D01*
X70226Y71565D01*
X60588D01*
X60234Y71918D01*
X60234Y74857D01*
X60370Y75059D01*
X60477Y75600D01*
X60370Y76141D01*
X60063Y76599D01*
X59605Y76905D01*
X59064Y77013D01*
X58523Y76905D01*
X58345Y76786D01*
X57100Y78030D01*
X57100Y79908D01*
X61834Y84635D01*
X62400D01*
X62693Y84693D01*
X62941Y84859D01*
X65073Y86992D01*
X65073Y86992D01*
X65239Y87240D01*
X65297Y87532D01*
X65297Y87533D01*
Y88093D01*
X66461Y89256D01*
X66461Y101794D01*
X52855Y115400D01*
X30600Y115400D01*
X20239Y105039D01*
X19696Y105203D01*
X19648Y105447D01*
X19342Y105906D01*
X18883Y106212D01*
X18342Y106320D01*
X17802Y106212D01*
X17343Y105906D01*
X17037Y105447D01*
X16929Y104907D01*
X16936Y104876D01*
X16883Y104789D01*
X16502Y104491D01*
X16141Y104563D01*
X15601Y104455D01*
X15142Y104149D01*
X14836Y103691D01*
X14728Y103150D01*
X14836Y102609D01*
X15142Y102151D01*
X15601Y101844D01*
X16141Y101737D01*
X16440Y101796D01*
X16885Y101446D01*
X16900Y101417D01*
Y92500D01*
X13753Y89353D01*
X13753Y68847D01*
X16808Y65792D01*
X24915Y65792D01*
X25868Y64822D01*
X25868Y62392D01*
X19715Y56224D01*
X9614D01*
X3720Y62117D01*
Y62663D01*
X3955Y62820D01*
X4261Y63278D01*
X4368Y63819D01*
X4261Y64359D01*
X3955Y64818D01*
X3496Y65124D01*
X2955Y65232D01*
X2415Y65124D01*
X1956Y64818D01*
X1956Y64818D01*
X1355D01*
X1212Y65031D01*
X816Y65296D01*
Y67342D01*
X1212Y67607D01*
X1316Y67763D01*
X1910Y67773D01*
X2390Y67453D01*
X2955Y67340D01*
X8582D01*
X8600Y67344D01*
X8797Y66988D01*
X8826Y66879D01*
X8537Y66447D01*
X8429Y65906D01*
X8537Y65365D01*
X8843Y64907D01*
X9302Y64600D01*
X9842Y64493D01*
X10383Y64600D01*
X10842Y64907D01*
X11148Y65365D01*
X11255Y65906D01*
X11148Y66447D01*
X10842Y66905D01*
X10383Y67211D01*
X9846Y67318D01*
X9834Y67337D01*
X9643Y67741D01*
X9643Y67789D01*
X10101Y68246D01*
X10421Y68726D01*
X10534Y69292D01*
X10421Y69858D01*
X10101Y70337D01*
X9621Y70658D01*
X9055Y70770D01*
X8490Y70658D01*
X8010Y70337D01*
X7970Y70297D01*
X2955D01*
X2390Y70185D01*
X1910Y69864D01*
X1316Y69875D01*
X1212Y70031D01*
X816Y70296D01*
Y72342D01*
X1212Y72607D01*
X1355Y72820D01*
X1956D01*
X1956Y72820D01*
X2415Y72513D01*
X2955Y72406D01*
X3496Y72513D01*
X3955Y72820D01*
X4261Y73278D01*
X4368Y73819D01*
X4261Y74360D01*
X3955Y74818D01*
X3496Y75124D01*
X2955Y75232D01*
X2415Y75124D01*
X1956Y74818D01*
X1956Y74818D01*
X1355D01*
X1212Y75031D01*
X816Y75296D01*
Y77342D01*
X1212Y77607D01*
X1355Y77820D01*
X1956D01*
X1956Y77820D01*
X2415Y77513D01*
X2955Y77406D01*
X3496Y77513D01*
X3955Y77820D01*
X4261Y78278D01*
X4368Y78819D01*
X4261Y79360D01*
X3955Y79818D01*
X3496Y80124D01*
X2955Y80232D01*
X2415Y80124D01*
X1956Y79818D01*
X1956Y79817D01*
X1355D01*
X1212Y80031D01*
X816Y80296D01*
Y122413D01*
X83043D01*
Y75296D01*
D02*
G37*
%LPC*%
G36*
X15157Y118819D02*
X14617Y118711D01*
X14158Y118405D01*
X13852Y117947D01*
X13745Y117406D01*
X13852Y116865D01*
X14158Y116407D01*
X14617Y116100D01*
X15157Y115993D01*
X15698Y116100D01*
X16157Y116407D01*
X16463Y116865D01*
X16570Y117406D01*
X16463Y117947D01*
X16157Y118405D01*
X15698Y118711D01*
X15157Y118819D01*
D02*
G37*
G36*
X10039D02*
X9499Y118711D01*
X9040Y118405D01*
X8734Y117947D01*
X8626Y117406D01*
X8734Y116865D01*
X9040Y116407D01*
X9499Y116100D01*
X10039Y115993D01*
X10580Y116100D01*
X11039Y116407D01*
X11345Y116865D01*
X11452Y117406D01*
X11345Y117947D01*
X11039Y118405D01*
X10580Y118711D01*
X10039Y118819D01*
D02*
G37*
G36*
X64828Y111713D02*
X64287Y111605D01*
X63829Y111299D01*
X63522Y110841D01*
X63415Y110300D01*
X63522Y109759D01*
X63829Y109301D01*
X64287Y108995D01*
X64828Y108887D01*
X65369Y108995D01*
X65827Y109301D01*
X66133Y109759D01*
X66241Y110300D01*
X66133Y110841D01*
X65827Y111299D01*
X65369Y111605D01*
X64828Y111713D01*
D02*
G37*
G36*
X18342Y110819D02*
X17802Y110711D01*
X17343Y110405D01*
X17037Y109947D01*
X16929Y109406D01*
X17037Y108865D01*
X17343Y108407D01*
X17802Y108100D01*
X18342Y107993D01*
X18883Y108100D01*
X19342Y108407D01*
X19648Y108865D01*
X19755Y109406D01*
X19648Y109947D01*
X19342Y110405D01*
X18883Y110711D01*
X18342Y110819D01*
D02*
G37*
G36*
X80571Y103547D02*
X80031Y103439D01*
X79572Y103133D01*
X79266Y102674D01*
X79159Y102134D01*
X79266Y101593D01*
X79572Y101135D01*
X80031Y100828D01*
X80571Y100721D01*
X81112Y100828D01*
X81571Y101135D01*
X81877Y101593D01*
X81984Y102134D01*
X81877Y102674D01*
X81571Y103133D01*
X81112Y103439D01*
X80571Y103547D01*
D02*
G37*
G36*
X3800Y102213D02*
X3259Y102105D01*
X2801Y101799D01*
X2495Y101341D01*
X2387Y100800D01*
X2495Y100259D01*
X2801Y99801D01*
X3259Y99495D01*
X3800Y99387D01*
X4341Y99495D01*
X4799Y99801D01*
X5105Y100259D01*
X5213Y100800D01*
X5105Y101341D01*
X4799Y101799D01*
X4341Y102105D01*
X3800Y102213D01*
D02*
G37*
G36*
X76378Y96355D02*
X75838Y96247D01*
X75379Y95941D01*
X75073Y95482D01*
X74966Y94942D01*
X75073Y94401D01*
X75379Y93943D01*
X75838Y93636D01*
X76378Y93529D01*
X76919Y93636D01*
X77378Y93943D01*
X77684Y94401D01*
X77791Y94942D01*
X77684Y95482D01*
X77378Y95941D01*
X76919Y96247D01*
X76378Y96355D01*
D02*
G37*
G36*
X11790Y96640D02*
X11249Y96533D01*
X10791Y96227D01*
X10484Y95768D01*
X10377Y95227D01*
X10484Y94687D01*
X10702Y94362D01*
X10754Y94012D01*
X10699Y93688D01*
X10477Y93357D01*
X10369Y92816D01*
X10477Y92275D01*
X10783Y91817D01*
X11242Y91510D01*
X11782Y91403D01*
X12323Y91510D01*
X12782Y91817D01*
X13088Y92275D01*
X13195Y92816D01*
X13088Y93357D01*
X12819Y93760D01*
X12789Y94228D01*
X13095Y94687D01*
X13203Y95227D01*
X13095Y95768D01*
X12789Y96227D01*
X12331Y96533D01*
X11790Y96640D01*
D02*
G37*
G36*
X3575Y92090D02*
X3034Y91982D01*
X2576Y91676D01*
X2269Y91217D01*
X2162Y90677D01*
X2269Y90136D01*
X2576Y89678D01*
X3034Y89371D01*
X3575Y89264D01*
X4115Y89371D01*
X4574Y89678D01*
X4880Y90136D01*
X4988Y90677D01*
X4880Y91217D01*
X4574Y91676D01*
X4115Y91982D01*
X3575Y92090D01*
D02*
G37*
G36*
X77558Y86650D02*
X77018Y86542D01*
X76559Y86236D01*
X76253Y85777D01*
X76145Y85237D01*
X76253Y84696D01*
X76559Y84238D01*
X77018Y83931D01*
X77558Y83824D01*
X78099Y83931D01*
X78558Y84238D01*
X78864Y84696D01*
X78971Y85237D01*
X78864Y85777D01*
X78558Y86236D01*
X78099Y86542D01*
X77558Y86650D01*
D02*
G37*
G36*
X3113Y88547D02*
X2573Y88439D01*
X2114Y88133D01*
X1808Y87674D01*
X1701Y87134D01*
X1808Y86593D01*
X2114Y86135D01*
X2573Y85828D01*
X3113Y85721D01*
X3654Y85828D01*
X3722Y85874D01*
X4082Y85513D01*
X4037Y85445D01*
X3929Y84905D01*
X4037Y84364D01*
X4343Y83906D01*
X4802Y83599D01*
X5342Y83492D01*
X5883Y83599D01*
X6342Y83906D01*
X6648Y84364D01*
X6755Y84905D01*
X6648Y85445D01*
X6342Y85904D01*
X5883Y86210D01*
X5342Y86318D01*
X4802Y86210D01*
X4734Y86165D01*
X4374Y86526D01*
X4419Y86593D01*
X4526Y87134D01*
X4419Y87674D01*
X4113Y88133D01*
X3654Y88439D01*
X3113Y88547D01*
D02*
G37*
G36*
X9342Y84484D02*
X8802Y84376D01*
X8343Y84070D01*
X8037Y83612D01*
X7930Y83071D01*
X8037Y82530D01*
X8343Y82072D01*
X8802Y81765D01*
X9342Y81658D01*
X9883Y81765D01*
X10342Y82072D01*
X10648Y82530D01*
X10755Y83071D01*
X10648Y83612D01*
X10342Y84070D01*
X9883Y84376D01*
X9342Y84484D01*
D02*
G37*
G36*
X65842Y83319D02*
X65302Y83211D01*
X64843Y82905D01*
X64537Y82446D01*
X64429Y81906D01*
X64537Y81365D01*
X64843Y80907D01*
X65302Y80600D01*
X65842Y80493D01*
X66383Y80600D01*
X66842Y80907D01*
X67148Y81365D01*
X67255Y81906D01*
X67148Y82446D01*
X66842Y82905D01*
X66383Y83211D01*
X65842Y83319D01*
D02*
G37*
G36*
X9055Y79760D02*
X8515Y79652D01*
X8056Y79346D01*
X7750Y78887D01*
X7643Y78347D01*
X7750Y77806D01*
X8056Y77348D01*
X8515Y77041D01*
X9055Y76934D01*
X9596Y77041D01*
X10055Y77348D01*
X10361Y77806D01*
X10468Y78347D01*
X10361Y78887D01*
X10055Y79346D01*
X9596Y79652D01*
X9055Y79760D01*
D02*
G37*
G36*
X65047Y77455D02*
X64072Y77261D01*
X63245Y76708D01*
X62692Y75881D01*
X62498Y74906D01*
X62692Y73930D01*
X63245Y73103D01*
X64072Y72551D01*
X65047Y72357D01*
X66023Y72551D01*
X66850Y73103D01*
X67402Y73930D01*
X67596Y74906D01*
X67402Y75881D01*
X66850Y76708D01*
X66023Y77261D01*
X65047Y77455D01*
D02*
G37*
G36*
X75299Y72776D02*
X74759Y72668D01*
X74300Y72362D01*
X73994Y71904D01*
X73887Y71363D01*
X73994Y70822D01*
X74300Y70364D01*
X74759Y70057D01*
X75299Y69950D01*
X75840Y70057D01*
X76299Y70364D01*
X76605Y70822D01*
X76712Y71363D01*
X76605Y71904D01*
X76299Y72362D01*
X75840Y72668D01*
X75299Y72776D01*
D02*
G37*
G36*
X76842Y67819D02*
X76302Y67711D01*
X75843Y67405D01*
X75537Y66947D01*
X75429Y66406D01*
X75537Y65865D01*
X75843Y65407D01*
X76302Y65100D01*
X76842Y64993D01*
X77383Y65100D01*
X77842Y65407D01*
X78148Y65865D01*
X78255Y66406D01*
X78148Y66947D01*
X77842Y67405D01*
X77383Y67711D01*
X76842Y67819D01*
D02*
G37*
G36*
X69114Y65319D02*
X68574Y65211D01*
X68115Y64905D01*
X67809Y64447D01*
X67702Y63906D01*
X67809Y63365D01*
X68115Y62907D01*
X68574Y62600D01*
X69114Y62493D01*
X69655Y62600D01*
X70114Y62907D01*
X70420Y63365D01*
X70527Y63906D01*
X70420Y64447D01*
X70114Y64905D01*
X69655Y65211D01*
X69114Y65319D01*
D02*
G37*
G36*
X63342Y67818D02*
X62802Y67710D01*
X62343Y67404D01*
X62037Y66945D01*
X61930Y66405D01*
X62037Y65864D01*
X62343Y65406D01*
X62802Y65099D01*
X63342Y64992D01*
X63600Y65043D01*
X63700Y65063D01*
X63895Y64592D01*
X63814Y64537D01*
X63615Y64405D01*
X63309Y63946D01*
X63201Y63406D01*
X63309Y62865D01*
X63615Y62407D01*
X64074Y62100D01*
X64614Y61993D01*
X65155Y62100D01*
X65614Y62407D01*
X65920Y62865D01*
X66027Y63406D01*
X65920Y63946D01*
X65614Y64405D01*
X65155Y64711D01*
X64614Y64819D01*
X64357Y64768D01*
X64257Y64748D01*
X64062Y65219D01*
X64143Y65273D01*
X64342Y65406D01*
X64648Y65864D01*
X64755Y66405D01*
X64648Y66945D01*
X64342Y67404D01*
X63883Y67710D01*
X63342Y67818D01*
D02*
G37*
G36*
X18503Y64359D02*
X17963Y64251D01*
X17504Y63945D01*
X17198Y63486D01*
X17090Y62946D01*
X17198Y62405D01*
X17504Y61947D01*
X17963Y61640D01*
X18503Y61533D01*
X19044Y61640D01*
X19503Y61947D01*
X19809Y62405D01*
X19916Y62946D01*
X19809Y63486D01*
X19503Y63945D01*
X19044Y64251D01*
X18503Y64359D01*
D02*
G37*
G36*
X77302Y59359D02*
X76762Y59251D01*
X76303Y58945D01*
X75997Y58486D01*
X75889Y57946D01*
X75997Y57405D01*
X76303Y56947D01*
X76762Y56640D01*
X77302Y56533D01*
X77843Y56640D01*
X78302Y56947D01*
X78608Y57405D01*
X78715Y57946D01*
X78608Y58486D01*
X78302Y58945D01*
X77843Y59251D01*
X77302Y59359D01*
D02*
G37*
G36*
X62272Y49209D02*
X61732Y49101D01*
X61273Y48795D01*
X60967Y48336D01*
X60860Y47796D01*
X60967Y47255D01*
X61273Y46797D01*
X61732Y46490D01*
X62272Y46383D01*
X62813Y46490D01*
X63272Y46797D01*
X63578Y47255D01*
X63685Y47796D01*
X63578Y48336D01*
X63272Y48795D01*
X62813Y49101D01*
X62272Y49209D01*
D02*
G37*
G36*
X74242Y51119D02*
X73702Y51011D01*
X73243Y50705D01*
X72937Y50247D01*
X72830Y49706D01*
X72937Y49165D01*
X73152Y48843D01*
X73209Y48505D01*
X73152Y48166D01*
X72937Y47844D01*
X72830Y47304D01*
X72937Y46763D01*
X73243Y46305D01*
X73305Y45662D01*
X73201Y45507D01*
X73093Y44966D01*
X73201Y44425D01*
X73507Y43967D01*
X73966Y43660D01*
X74506Y43553D01*
X75047Y43660D01*
X75506Y43967D01*
X75812Y44425D01*
X75919Y44966D01*
X75812Y45507D01*
X75506Y45965D01*
X75444Y46608D01*
X75548Y46763D01*
X75655Y47304D01*
X75548Y47844D01*
X75333Y48166D01*
X75276Y48505D01*
X75333Y48843D01*
X75548Y49165D01*
X75655Y49706D01*
X75548Y50247D01*
X75242Y50705D01*
X74783Y51011D01*
X74242Y51119D01*
D02*
G37*
G36*
X56342Y42119D02*
X55802Y42011D01*
X55343Y41705D01*
X55037Y41247D01*
X54930Y40706D01*
X55037Y40165D01*
X55343Y39707D01*
X55802Y39400D01*
X56342Y39293D01*
X56883Y39400D01*
X57342Y39707D01*
X57648Y40165D01*
X57755Y40706D01*
X57648Y41247D01*
X57342Y41705D01*
X56883Y42011D01*
X56342Y42119D01*
D02*
G37*
G36*
X62742Y40919D02*
X62202Y40811D01*
X61743Y40505D01*
X61437Y40047D01*
X61330Y39506D01*
X61437Y38965D01*
X61743Y38507D01*
X62202Y38200D01*
X62742Y38093D01*
X63283Y38200D01*
X63742Y38507D01*
X64048Y38965D01*
X64155Y39506D01*
X64048Y40047D01*
X63742Y40505D01*
X63283Y40811D01*
X62742Y40919D01*
D02*
G37*
%LPD*%
D10*
X-37381Y-27174D02*
Y-35833D01*
X-31608D01*
X-28722D02*
Y-30061D01*
X-25836Y-27174D01*
X-22950Y-30061D01*
Y-35833D01*
Y-31504D01*
X-28722D01*
X-20063Y-27174D02*
Y-28618D01*
X-17177Y-31504D01*
X-14291Y-28618D01*
Y-27174D01*
X-17177Y-31504D02*
Y-35833D01*
X-5632Y-27174D02*
X-11405D01*
Y-35833D01*
X-5632D01*
X-11405Y-31504D02*
X-8518D01*
X-2746Y-35833D02*
Y-27174D01*
X1583D01*
X3026Y-28618D01*
Y-31504D01*
X1583Y-32947D01*
X-2746D01*
X140D02*
X3026Y-35833D01*
X18900D02*
Y-27174D01*
X14571Y-31504D01*
X20344D01*
X31888D02*
X37661D01*
X49206Y-35833D02*
Y-27174D01*
X52092Y-30061D01*
X54978Y-27174D01*
Y-35833D01*
X57864Y-27174D02*
X60750D01*
X59307D01*
Y-35833D01*
X57864D01*
X60750D01*
X65080Y-27174D02*
Y-35833D01*
X69409D01*
X70852Y-34390D01*
Y-28618D01*
X69409Y-27174D01*
X65080D01*
X73738D02*
Y-35833D01*
X79511D01*
X82397D02*
Y-30061D01*
X85283Y-27174D01*
X88169Y-30061D01*
Y-35833D01*
Y-31504D01*
X82397D01*
X91056Y-27174D02*
Y-28618D01*
X93942Y-31504D01*
X96828Y-28618D01*
Y-27174D01*
X93942Y-31504D02*
Y-35833D01*
X105487Y-27174D02*
X99714D01*
Y-35833D01*
X105487D01*
X99714Y-31504D02*
X102600D01*
X108373Y-35833D02*
Y-27174D01*
X112702D01*
X114145Y-28618D01*
Y-31504D01*
X112702Y-32947D01*
X108373D01*
X111259D02*
X114145Y-35833D01*
X131463D02*
X125690D01*
X131463Y-30061D01*
Y-28618D01*
X130019Y-27174D01*
X127133D01*
X125690Y-28618D01*
D15*
X17597Y66903D02*
X26475D01*
X15464Y69036D02*
Y79127D01*
Y69036D02*
X17597Y66903D01*
X27482Y62082D02*
Y65896D01*
X9456Y55300D02*
X20700D01*
X27482Y62082D01*
X2955Y61801D02*
X9456Y55300D01*
X27606Y4200D02*
X29556Y2250D01*
X9200Y4200D02*
X27606D01*
X4842Y8558D02*
X9200Y4200D01*
X4842Y8558D02*
Y19347D01*
X76731Y25616D02*
X80972Y21375D01*
Y18819D02*
Y21375D01*
X60942Y42706D02*
X61937Y43700D01*
X71800D01*
X76681Y38819D01*
X68100Y60000D02*
X71772Y56328D01*
Y52846D02*
Y56328D01*
X57200Y64100D02*
Y65700D01*
X55600Y67300D02*
Y69900D01*
Y67300D02*
X57200Y65700D01*
Y64100D02*
X61300Y60000D01*
X33029Y74200D02*
X33629Y74800D01*
X32700Y74200D02*
X33029D01*
X33629Y74800D02*
X39500D01*
X8737Y20482D02*
X12119D01*
X13053Y19547D01*
X8661Y20406D02*
X8737Y20482D01*
X78201Y36591D02*
X80972Y33819D01*
X52427Y36591D02*
X78201D01*
X29638Y42294D02*
Y46984D01*
X29635Y46699D02*
Y50729D01*
X31412Y52506D01*
X29638Y42294D02*
X33532Y38400D01*
X57436Y48036D02*
Y59700D01*
X47800Y38400D02*
X57436Y48036D01*
X33532Y38400D02*
X47800D01*
X18842Y68539D02*
X18875D01*
X20100Y69763D01*
X16100Y87100D02*
X20100Y83100D01*
Y69763D02*
Y83100D01*
X16100Y87100D02*
Y90614D01*
X17700Y101200D02*
X31073Y114573D01*
X17700Y92214D02*
Y101200D01*
X31073Y114573D02*
X37203D01*
X16100Y90614D02*
X17700Y92214D01*
X37203Y114573D02*
X39370Y112406D01*
X59064Y75600D02*
X59100Y75564D01*
X59064Y70800D02*
X70543D01*
X59100Y73400D02*
Y75564D01*
X57400Y73800D02*
Y76549D01*
X51700Y68100D02*
X57400Y73800D01*
X56300Y77649D02*
X57400Y76549D01*
X55600Y69900D02*
X59100Y73400D01*
X5942Y9272D02*
X9814Y5400D01*
X5942Y9272D02*
Y12706D01*
X9814Y5400D02*
X27487D01*
X29556Y2250D02*
X56585D01*
X27487Y5400D02*
X31092Y9006D01*
X26539Y7600D02*
X29666Y10728D01*
X15748Y10252D02*
X18400Y7600D01*
X15748Y10252D02*
Y12008D01*
X18400Y7600D02*
X26539D01*
X9542Y9458D02*
X12500Y6500D01*
X26900D02*
X30800Y10400D01*
X12500Y6500D02*
X26900D01*
X9542Y9458D02*
Y12906D01*
X14082Y14145D02*
Y22682D01*
X16007Y24607D02*
X25342D01*
X14082Y22682D02*
X16007Y24607D01*
X16535Y20406D02*
X18235Y22106D01*
X16038Y25900D02*
X23197D01*
X25022Y27726D01*
X7942Y33996D02*
X16038Y25900D01*
X25442Y17906D02*
X32088D01*
X35883Y21700D02*
X52937D01*
X32088Y17906D02*
X35883Y21700D01*
X52937D02*
X53406Y22170D01*
X30800Y10400D02*
Y13100D01*
X35806Y18106D02*
X58242D01*
X30800Y13100D02*
X35806Y18106D01*
X36406Y20406D02*
X58242D01*
X29666Y10728D02*
Y13666D01*
X36406Y20406D01*
X31092Y9006D02*
X33742D01*
X56585Y2250D02*
X60142Y5808D01*
X49442Y33606D02*
X52427Y36591D01*
X76681Y38819D02*
X80972D01*
X21260Y68539D02*
Y83354D01*
X26475Y66903D02*
X27482Y65896D01*
X28900Y57318D02*
X31212Y55006D01*
X60142Y5808D02*
Y11706D01*
X60232Y85732D02*
Y94576D01*
X58872Y95936D02*
X60232Y94576D01*
X64423Y117973D02*
X69700Y112696D01*
X12450Y110298D02*
X20125Y117973D01*
X64423D01*
X69700Y84600D02*
Y112696D01*
X73109Y73366D02*
Y81191D01*
X69700Y84600D02*
X73109Y81191D01*
X70543Y70800D02*
X73109Y73366D01*
X17100Y87514D02*
X21260Y83354D01*
X17100Y87514D02*
Y90200D01*
X2955Y61801D02*
Y63819D01*
X5752Y54199D02*
X21359D01*
X29172Y62012D02*
Y66672D01*
X21359Y54199D02*
X29172Y62012D01*
X2955Y58819D02*
X4692Y57082D01*
Y53139D02*
Y57082D01*
Y45243D02*
Y53139D01*
X5752Y54199D01*
X50442Y44606D02*
Y54858D01*
X18800Y100700D02*
X21846Y103746D01*
X18800Y91900D02*
Y100700D01*
X21846Y103746D02*
X33062D01*
X17100Y90200D02*
X18800Y91900D01*
X61400Y85400D02*
X62400D01*
X64532Y87532D02*
Y95766D01*
X62400Y85400D02*
X64532Y87532D01*
X48900Y56400D02*
X50442Y54858D01*
X47769Y43782D02*
Y52567D01*
X48628Y53426D01*
X38907Y45093D02*
X39000Y45000D01*
X38907Y45093D02*
Y65307D01*
X52700Y63800D02*
X55900D01*
X61724Y57976D02*
X66732D01*
X55900Y63800D02*
X61724Y57976D01*
X61300Y60000D02*
X68100D01*
X51700Y64800D02*
Y68100D01*
X56300Y80300D02*
X61400Y85400D01*
X56300Y77649D02*
Y80300D01*
X49200Y74700D02*
X60232Y85732D01*
X49200Y61105D02*
Y74700D01*
X48100Y72869D02*
Y75100D01*
X56800Y83800D02*
Y97277D01*
X48100Y75100D02*
X56800Y83800D01*
X51700Y64800D02*
X52700Y63800D01*
X55200Y27748D02*
Y33100D01*
X57038Y34938D02*
X69867D01*
X55200Y33100D02*
X57038Y34938D01*
X55200Y27748D02*
X58142Y24806D01*
X32700Y68719D02*
Y74200D01*
X31581Y67600D02*
X32700Y68719D01*
X30100Y67600D02*
X31581D01*
X39500Y74800D02*
X41629Y76929D01*
X29172Y66672D02*
X30100Y67600D01*
X44900Y86886D02*
X46714Y88700D01*
X31300Y61100D02*
X44900Y74700D01*
Y86886D01*
X31092Y59256D02*
X46000Y74163D01*
Y82800D02*
X48500Y85300D01*
X46000Y74163D02*
Y82800D01*
X30832Y62946D02*
X30946D01*
X43800Y87200D02*
X46300Y89700D01*
X30946Y62946D02*
X43800Y75800D01*
Y87200D01*
X47000Y73400D02*
Y75500D01*
X38907Y65307D02*
X47000Y73400D01*
Y75500D02*
X54603Y83104D01*
X41914Y66683D02*
X48100Y72869D01*
X49200Y61105D02*
X52756Y57548D01*
X39681Y90619D02*
X42700Y87600D01*
Y76500D02*
Y87600D01*
X39000Y72800D02*
X42700Y76500D01*
X41629Y76929D02*
Y87171D01*
X37842Y90958D02*
X41629Y87171D01*
X56142Y97935D02*
X56800Y97277D01*
X56142Y97935D02*
Y98206D01*
X54603Y83104D02*
Y89537D01*
X41914Y53177D02*
Y66683D01*
X48500Y85300D02*
Y86800D01*
X30100Y61100D02*
X31300D01*
X28900Y59900D02*
X30100Y61100D01*
X28900Y57318D02*
Y59900D01*
X48500Y86800D02*
X49400Y87700D01*
X50619D01*
X46714Y88700D02*
X50200D01*
X52053Y90553D01*
X50619Y87700D02*
X53100Y90181D01*
X52053Y90553D02*
Y95925D01*
X54300Y97100D02*
Y99273D01*
X53100Y90181D02*
Y95900D01*
X54300Y97100D01*
Y99273D02*
X55932Y100906D01*
X46300Y89700D02*
X49577D01*
X51053Y91177D01*
X31879Y65679D02*
X39000Y72800D01*
X30867Y65679D02*
X31879D01*
X39000Y72800D02*
X39000D01*
X51053Y91177D02*
Y95485D01*
X39681Y90619D02*
Y98566D01*
X37842Y90958D02*
Y103406D01*
X28692Y69137D02*
X28722D01*
X45042Y107342D02*
X56958D01*
X62800Y101500D01*
Y97498D02*
X64532Y95766D01*
X62800Y97498D02*
Y101500D01*
X43242Y11206D02*
Y12542D01*
X43800Y13100D02*
X57307D01*
X43242Y12542D02*
X43800Y13100D01*
X57307D02*
X57707Y13500D01*
X60917D02*
X61842Y14426D01*
X57707Y13500D02*
X60917D01*
X22700Y75128D02*
X28692Y69137D01*
X22700Y92448D02*
X24357Y94106D01*
X22700Y75128D02*
Y92448D01*
X58872Y98546D02*
X59978Y99652D01*
Y101583D01*
X56462Y105100D02*
X59978Y101583D01*
X45700Y105100D02*
X56462D01*
X44636Y100686D02*
X47342Y103393D01*
X44636Y98200D02*
Y100686D01*
X43000Y98878D02*
Y105300D01*
X45042Y107342D01*
X58872Y95936D02*
Y98546D01*
X46368Y97930D02*
X46370Y97928D01*
Y97896D02*
Y97928D01*
X43600Y97164D02*
X44636Y98200D01*
X42322Y97164D02*
X43600D01*
X41364Y98122D02*
X42322Y97164D01*
X41364Y98122D02*
Y100744D01*
X39572Y102536D02*
X41364Y100744D01*
X48642Y97896D02*
X51053Y95485D01*
X46368Y98952D02*
X47152Y99736D01*
X46368Y97930D02*
Y98952D01*
X71700Y30500D02*
X72606Y31406D01*
X68417Y30500D02*
X71700D01*
X72606Y31406D02*
X78385D01*
X65722Y27806D02*
X68417Y30500D01*
X78385Y31406D02*
X80972Y28819D01*
X40370Y16470D02*
X58972D01*
X39142Y9406D02*
Y15242D01*
X40370Y16470D01*
X32056Y22556D02*
X39206Y29706D01*
X24692Y22556D02*
X32056D01*
X39206Y29706D02*
X49122D01*
X4842Y19347D02*
X12401Y26906D01*
X13053Y14617D02*
Y19547D01*
X5942Y12706D02*
X8788Y15552D01*
X60342Y20876D02*
X66094Y26628D01*
X77135D02*
X77146Y26616D01*
X66094Y26628D02*
X77135D01*
X78175Y26616D02*
X80972Y23819D01*
X77146Y26616D02*
X78175D01*
X4692Y45243D02*
X7942Y41993D01*
X29382Y94106D02*
X33200Y97923D01*
Y100253D02*
X35092Y102146D01*
X33200Y97923D02*
Y100253D01*
X24357Y94106D02*
X29382D01*
X39342Y33606D02*
X49442D01*
X37442Y35506D02*
X39342Y33606D01*
X55932Y100906D02*
X58342D01*
X38722Y105086D02*
X39572Y104236D01*
Y102536D02*
Y104236D01*
X66652Y25616D02*
X76731D01*
X61842Y20806D02*
X66652Y25616D01*
X61842Y14426D02*
Y20806D01*
X50592Y97386D02*
X52053Y95925D01*
X50592Y97386D02*
Y98446D01*
X49302Y99736D02*
X50592Y98446D01*
X47152Y99736D02*
X49302D01*
X18142Y35506D02*
X37442D01*
X61511Y24446D02*
Y24457D01*
X59235Y22170D02*
X61511Y24446D01*
X53406Y22170D02*
X59235D01*
X24142Y19206D02*
X25442Y17906D01*
X21543Y19206D02*
X24142D01*
X17889Y15552D02*
X21543Y19206D01*
X15748Y15552D02*
X17889D01*
X36142Y105086D02*
X38722D01*
X35092Y104036D02*
X36142Y105086D01*
X35092Y102146D02*
Y104036D01*
X7942Y33996D02*
Y41993D01*
X25022Y27726D02*
Y33776D01*
X40444Y8104D02*
X45046D01*
X39142Y9406D02*
X40444Y8104D01*
X58972Y16470D02*
X60342Y17840D01*
Y20876D01*
X11217Y12008D02*
X11945D01*
X14082Y14145D01*
X12142Y13706D02*
X13053Y14617D01*
X10342Y13706D02*
X12142D01*
X9542Y12906D02*
X10342Y13706D01*
X8788Y15552D02*
X11417D01*
X18235Y22106D02*
X20342D01*
X21342Y21106D01*
X23242D01*
X24692Y22556D01*
X49122Y29706D02*
X55658Y23170D01*
X58820D01*
X59778Y24128D01*
Y27692D01*
X60832Y28746D01*
X62642D01*
X63582Y27806D01*
X65722D01*
D83*
X2955Y68819D02*
X8582D01*
X9055Y69292D01*
D96*
X31412Y52506D02*
D03*
X57436Y59700D02*
D03*
X29635Y46699D02*
D03*
X18842Y68539D02*
D03*
X39370Y112406D02*
D03*
X23372Y63616D02*
D03*
X27482Y65896D02*
D03*
X59064Y70800D02*
D03*
Y75600D02*
D03*
X16535Y20406D02*
D03*
X21260Y68539D02*
D03*
X31212Y55006D02*
D03*
X60142Y11706D02*
D03*
X9055Y69292D02*
D03*
X12450Y110298D02*
D03*
X50442Y44606D02*
D03*
X48628Y53426D02*
D03*
X15464Y79127D02*
D03*
X48900Y56400D02*
D03*
X52700Y63800D02*
D03*
X47769Y43782D02*
D03*
X39000Y45000D02*
D03*
X61071Y63406D02*
D03*
X58264Y79107D02*
D03*
X65842Y84406D02*
D03*
X66732Y57976D02*
D03*
X32700Y74200D02*
D03*
X52756Y57548D02*
D03*
X30832Y62946D02*
D03*
X54603Y89537D02*
D03*
X30867Y65679D02*
D03*
X41914Y53177D02*
D03*
X31092Y59256D02*
D03*
X28722Y69137D02*
D03*
X2955Y63819D02*
D03*
Y68819D02*
D03*
X11417Y15552D02*
D03*
X11217Y12008D02*
D03*
X8661Y20406D02*
D03*
X15748Y15552D02*
D03*
Y12008D02*
D03*
X18142Y35506D02*
D03*
X15751Y93049D02*
D03*
X33062Y103746D02*
D03*
X47342Y103393D02*
D03*
X58242Y20406D02*
D03*
X58342Y100906D02*
D03*
X71772Y52846D02*
D03*
X80972Y23819D02*
D03*
Y28819D02*
D03*
Y38819D02*
D03*
Y78819D02*
D03*
X2955Y58819D02*
D03*
X12401Y26906D02*
D03*
X25342Y24607D02*
D03*
X25022Y33776D02*
D03*
X33742Y9006D02*
D03*
X43242Y11206D02*
D03*
X39681Y98566D02*
D03*
X43000Y98878D02*
D03*
X48642Y97896D02*
D03*
X58242Y18106D02*
D03*
X58142Y24806D02*
D03*
X56042Y43006D02*
D03*
X56142Y98206D02*
D03*
X80972Y18819D02*
D03*
Y33819D02*
D03*
X80571Y105678D02*
D03*
X80342Y98906D02*
D03*
Y90906D02*
D03*
X45046Y8104D02*
D03*
X37842Y103406D02*
D03*
X61511Y24457D02*
D03*
X78342Y107907D02*
D03*
X46370Y97896D02*
D03*
X45700Y105100D02*
D03*
X60942Y42706D02*
D03*
X69867Y34938D02*
D03*
M02*
