%TF.GenerationSoftware,Altium Limited,Altium Designer,20.1.11 (218)*%
G04 Layer_Color=255*
%FSLAX26Y26*%
%MOIN*%
%TF.SameCoordinates,27E64F16-BD7F-4648-91A1-9AE93EB88D02*%
%TF.FilePolarity,Positive*%
%TF.FileFunction,Pads,Bot*%
%TF.Part,Single*%
G01*
G75*
%TA.AperFunction,SMDPad,CuDef*%
%ADD16C,0.007874*%
G04:AMPARAMS|DCode=18|XSize=25.984mil|YSize=22.835mil|CornerRadius=5.709mil|HoleSize=0mil|Usage=FLASHONLY|Rotation=180.000|XOffset=0mil|YOffset=0mil|HoleType=Round|Shape=RoundedRectangle|*
%AMROUNDEDRECTD18*
21,1,0.025984,0.011417,0,0,180.0*
21,1,0.014567,0.022835,0,0,180.0*
1,1,0.011417,-0.007284,0.005709*
1,1,0.011417,0.007284,0.005709*
1,1,0.011417,0.007284,-0.005709*
1,1,0.011417,-0.007284,-0.005709*
%
%ADD18ROUNDEDRECTD18*%
G04:AMPARAMS|DCode=26|XSize=25.984mil|YSize=22.835mil|CornerRadius=5.709mil|HoleSize=0mil|Usage=FLASHONLY|Rotation=270.000|XOffset=0mil|YOffset=0mil|HoleType=Round|Shape=RoundedRectangle|*
%AMROUNDEDRECTD26*
21,1,0.025984,0.011417,0,0,270.0*
21,1,0.014567,0.022835,0,0,270.0*
1,1,0.011417,-0.005709,-0.007284*
1,1,0.011417,-0.005709,0.007284*
1,1,0.011417,0.005709,0.007284*
1,1,0.011417,0.005709,-0.007284*
%
%ADD26ROUNDEDRECTD26*%
%ADD36C,0.039370*%
%TA.AperFunction,ComponentPad*%
%ADD58C,0.055118*%
%ADD59C,0.059055*%
%ADD60C,0.244095*%
%ADD61R,0.059055X0.059055*%
%ADD62C,0.040000*%
%ADD63C,0.165354*%
G04:AMPARAMS|DCode=64|XSize=74.803mil|YSize=59.055mil|CornerRadius=14.764mil|HoleSize=0mil|Usage=FLASHONLY|Rotation=0.000|XOffset=0mil|YOffset=0mil|HoleType=Round|Shape=RoundedRectangle|*
%AMROUNDEDRECTD64*
21,1,0.074803,0.029527,0,0,0.0*
21,1,0.045276,0.059055,0,0,0.0*
1,1,0.029528,0.022638,-0.014764*
1,1,0.029528,-0.022638,-0.014764*
1,1,0.029528,-0.022638,0.014764*
1,1,0.029528,0.022638,0.014764*
%
%ADD64ROUNDEDRECTD64*%
%ADD65O,0.047244X0.035433*%
%ADD66R,0.059055X0.059055*%
%TA.AperFunction,ConnectorPad*%
%ADD69R,0.039370X0.061417*%
%TA.AperFunction,SMDPad,CuDef*%
G04:AMPARAMS|DCode=70|XSize=9.842mil|YSize=43.307mil|CornerRadius=2.461mil|HoleSize=0mil|Usage=FLASHONLY|Rotation=270.000|XOffset=0mil|YOffset=0mil|HoleType=Round|Shape=RoundedRectangle|*
%AMROUNDEDRECTD70*
21,1,0.009842,0.038386,0,0,270.0*
21,1,0.004921,0.043307,0,0,270.0*
1,1,0.004921,-0.019193,-0.002461*
1,1,0.004921,-0.019193,0.002461*
1,1,0.004921,0.019193,0.002461*
1,1,0.004921,0.019193,-0.002461*
%
%ADD70ROUNDEDRECTD70*%
%ADD71R,0.020551X0.023622*%
D16*
X3282237Y257402D02*
D03*
X3282237Y317402D02*
D03*
D18*
X315000Y1192291D02*
D03*
X426546Y1162992D02*
D03*
X389000Y1163291D02*
D03*
Y1124709D02*
D03*
X426546Y1124410D02*
D03*
X315000Y1153709D02*
D03*
D26*
X3122441Y209646D02*
D03*
Y252348D02*
D03*
X2473445Y1531281D02*
D03*
X2473445Y1493879D02*
D03*
X2030624Y1493845D02*
D03*
X2031608Y1533216D02*
D03*
X2070191D02*
D03*
X2069207Y1493845D02*
D03*
X2434863Y1493879D02*
D03*
X2434863Y1531281D02*
D03*
X3161024Y252348D02*
D03*
Y209646D02*
D03*
D36*
X125000Y1675394D02*
D03*
X102362Y394094D02*
D03*
X3725000Y350394D02*
D03*
D58*
X905512Y605827D02*
D03*
D59*
X3500000Y1500000D02*
D03*
X3600000D02*
D03*
X3700000D02*
D03*
X3500000Y1400000D02*
D03*
X3600000D02*
D03*
X3700000D02*
D03*
X3800000D02*
D03*
X3500000Y1600000D02*
D03*
X3600000D02*
D03*
X3700000D02*
D03*
X3800000D02*
D03*
X2900000Y1100000D02*
D03*
X2800000Y1000000D02*
D03*
X2900000D02*
D03*
X1700000D02*
D03*
X1600000D02*
D03*
X1700000Y1100000D02*
D03*
X3800000Y1300000D02*
D03*
Y900000D02*
D03*
Y500000D02*
D03*
Y700000D02*
D03*
Y1100000D02*
D03*
Y1500000D02*
D03*
X3012598Y74803D02*
D03*
X2300000Y200000D02*
D03*
Y300000D02*
D03*
X114173Y1493701D02*
D03*
X3100000Y600000D02*
D03*
Y800000D02*
D03*
Y1600000D02*
D03*
X2400000Y200000D02*
D03*
Y300000D02*
D03*
X2200000D02*
D03*
Y200000D02*
D03*
X2000000Y300000D02*
D03*
X2100000D02*
D03*
X2000000Y200000D02*
D03*
X2100000D02*
D03*
X1900000Y300000D02*
D03*
X3212598Y74803D02*
D03*
X3312598D02*
D03*
X3112598D02*
D03*
X3300000Y1600000D02*
D03*
X3400000D02*
D03*
X3200000D02*
D03*
X3300000Y1500000D02*
D03*
X3400000D02*
D03*
X3100000D02*
D03*
X3200000D02*
D03*
X3100000Y1200000D02*
D03*
Y1100000D02*
D03*
X3200000Y1200000D02*
D03*
Y1100000D02*
D03*
X3300000Y1200000D02*
D03*
Y1100000D02*
D03*
X3400000Y1200000D02*
D03*
Y1100000D02*
D03*
X3500000Y1200000D02*
D03*
Y1100000D02*
D03*
X3600000Y1200000D02*
D03*
Y1100000D02*
D03*
X3700000Y1200000D02*
D03*
Y1100000D02*
D03*
X3800000Y1200000D02*
D03*
X3100000Y700000D02*
D03*
X3200000Y800000D02*
D03*
Y700000D02*
D03*
X3300000Y800000D02*
D03*
Y700000D02*
D03*
X3400000Y800000D02*
D03*
Y700000D02*
D03*
X3500000Y800000D02*
D03*
Y700000D02*
D03*
X3600000Y800000D02*
D03*
Y700000D02*
D03*
X3700000Y800000D02*
D03*
Y700000D02*
D03*
X3800000Y800000D02*
D03*
X3100000Y500000D02*
D03*
X3200000Y600000D02*
D03*
Y500000D02*
D03*
X3300000Y600000D02*
D03*
Y500000D02*
D03*
X3400000Y600000D02*
D03*
Y500000D02*
D03*
X3500000Y600000D02*
D03*
Y500000D02*
D03*
X3600000Y600000D02*
D03*
Y500000D02*
D03*
X3700000Y600000D02*
D03*
Y500000D02*
D03*
X3800000Y600000D02*
D03*
X3100000Y1000000D02*
D03*
Y900000D02*
D03*
X3200000Y1000000D02*
D03*
Y900000D02*
D03*
X3300000Y1000000D02*
D03*
Y900000D02*
D03*
X3400000Y1000000D02*
D03*
Y900000D02*
D03*
X3500000Y1000000D02*
D03*
Y900000D02*
D03*
X3600000Y1000000D02*
D03*
Y900000D02*
D03*
X3700000Y1000000D02*
D03*
Y900000D02*
D03*
X3800000Y1000000D02*
D03*
X3100000Y1400000D02*
D03*
Y1300000D02*
D03*
X3200000Y1400000D02*
D03*
Y1300000D02*
D03*
X3300000Y1400000D02*
D03*
Y1300000D02*
D03*
X3400000Y1400000D02*
D03*
Y1300000D02*
D03*
X3500000D02*
D03*
X3600000D02*
D03*
X3700000D02*
D03*
X1700000Y1700000D02*
D03*
X1600000Y1600000D02*
D03*
X1700000D02*
D03*
X1600000Y1500000D02*
D03*
X1700000D02*
D03*
X1600000Y1400000D02*
D03*
X1700000D02*
D03*
X1600000Y1300000D02*
D03*
X1700000D02*
D03*
X1600000Y1200000D02*
D03*
X1700000D02*
D03*
X1600000Y1100000D02*
D03*
X2800000D02*
D03*
X2900000Y1200000D02*
D03*
X2800000D02*
D03*
X2900000Y1300000D02*
D03*
X2800000D02*
D03*
X2900000Y1400000D02*
D03*
X2800000D02*
D03*
X2900000Y1500000D02*
D03*
X2800000D02*
D03*
X2900000Y1600000D02*
D03*
X2800000D02*
D03*
X2900000Y1700000D02*
D03*
D60*
X157480Y1889764D02*
D03*
X3700787Y157480D02*
D03*
Y1889764D02*
D03*
X157480Y157480D02*
D03*
D61*
X114173Y1393701D02*
D03*
X1600000Y1700000D02*
D03*
X2800000D02*
D03*
D62*
X3282237Y287402D02*
D03*
D63*
X2539134Y1264331D02*
D03*
X2149134Y1939331D02*
D03*
D64*
X110236Y873031D02*
D03*
Y1201772D02*
D03*
D65*
X228346Y949803D02*
D03*
Y1125000D02*
D03*
D66*
X1900000Y200000D02*
D03*
X3412598Y74803D02*
D03*
D69*
X2997244Y707992D02*
D03*
X2897244D02*
D03*
X2797244D02*
D03*
X2697244D02*
D03*
X2597244D02*
D03*
X2497244D02*
D03*
X2397244D02*
D03*
X2297244D02*
D03*
X2197244D02*
D03*
X2097244D02*
D03*
X1997244D02*
D03*
X1897244D02*
D03*
X1797244D02*
D03*
X1697244D02*
D03*
X1597244D02*
D03*
X1497244D02*
D03*
X1397244D02*
D03*
X1297244D02*
D03*
X1197244D02*
D03*
X1097244D02*
D03*
X2997244Y479252D02*
D03*
X2897244D02*
D03*
X2797244D02*
D03*
X2697244D02*
D03*
X2597244D02*
D03*
X2497244D02*
D03*
X2397244D02*
D03*
X2297244D02*
D03*
X2197244D02*
D03*
X2097244D02*
D03*
X1997244D02*
D03*
X1897244D02*
D03*
X1797244D02*
D03*
X1697244D02*
D03*
X1597244D02*
D03*
X1497244D02*
D03*
X1397244D02*
D03*
X1297244D02*
D03*
X1197244D02*
D03*
X1097244D02*
D03*
D70*
X2141536Y1375867D02*
D03*
Y1415237D02*
D03*
Y1356181D02*
D03*
Y1395551D02*
D03*
X2358464Y1336497D02*
D03*
X2141536Y1277441D02*
D03*
X2358464Y1257757D02*
D03*
X2141536D02*
D03*
X2358464Y1238071D02*
D03*
X2141536D02*
D03*
X2358464Y1277441D02*
D03*
X2141536Y1336497D02*
D03*
X2358464Y1356181D02*
D03*
Y1375867D02*
D03*
Y1395551D02*
D03*
Y1415237D02*
D03*
X2141536Y1434921D02*
D03*
X2358464D02*
D03*
X2141536Y1454607D02*
D03*
X2358464D02*
D03*
X2141536Y1474291D02*
D03*
X2358464D02*
D03*
X2141536Y1493977D02*
D03*
X2358464D02*
D03*
Y1513661D02*
D03*
X2141536D02*
D03*
X2358464Y1316811D02*
D03*
Y1297127D02*
D03*
X2141536Y1316811D02*
D03*
Y1297127D02*
D03*
D71*
X3232946Y322835D02*
D03*
X3200583D02*
D03*
Y251969D02*
D03*
X3232946D02*
D03*
X3200583Y287402D02*
D03*
%TF.MD5,3a1feb5a1a38deb1dad07d2d02d46a06*%
M02*
