%TF.GenerationSoftware,Altium Limited,Altium Designer,20.1.11 (218)*%
G04 Layer_Color=8388736*
%FSLAX26Y26*%
%MOIN*%
%TF.SameCoordinates,27E64F16-BD7F-4648-91A1-9AE93EB88D02*%
%TF.FilePolarity,Negative*%
%TF.FileFunction,Soldermask,Top*%
%TF.Part,Single*%
G01*
G75*
%TA.AperFunction,ComponentPad*%
%ADD62C,0.040000*%
%TA.AperFunction,NonConductor*%
%ADD75C,0.010000*%
%TA.AperFunction,SMDPad,CuDef*%
G04:AMPARAMS|DCode=82|XSize=33.984mil|YSize=30.835mil|CornerRadius=9.709mil|HoleSize=0mil|Usage=FLASHONLY|Rotation=0.000|XOffset=0mil|YOffset=0mil|HoleType=Round|Shape=RoundedRectangle|*
%AMROUNDEDRECTD82*
21,1,0.033984,0.011417,0,0,0.0*
21,1,0.014567,0.030835,0,0,0.0*
1,1,0.019417,0.007284,-0.005709*
1,1,0.019417,-0.007284,-0.005709*
1,1,0.019417,-0.007284,0.005709*
1,1,0.019417,0.007284,0.005709*
%
%ADD82ROUNDEDRECTD82*%
G04:AMPARAMS|DCode=83|XSize=33.984mil|YSize=30.835mil|CornerRadius=9.709mil|HoleSize=0mil|Usage=FLASHONLY|Rotation=90.000|XOffset=0mil|YOffset=0mil|HoleType=Round|Shape=RoundedRectangle|*
%AMROUNDEDRECTD83*
21,1,0.033984,0.011417,0,0,90.0*
21,1,0.014567,0.030835,0,0,90.0*
1,1,0.019417,0.005709,0.007284*
1,1,0.019417,0.005709,-0.007284*
1,1,0.019417,-0.005709,-0.007284*
1,1,0.019417,-0.005709,0.007284*
%
%ADD83ROUNDEDRECTD83*%
%ADD84C,0.015874*%
%ADD85C,0.098425*%
%TA.AperFunction,ComponentPad*%
%ADD86C,0.063118*%
%ADD87C,0.067055*%
%ADD88C,0.252095*%
%ADD89R,0.067055X0.067055*%
%ADD90C,0.173354*%
G04:AMPARAMS|DCode=91|XSize=82.803mil|YSize=67.055mil|CornerRadius=18.764mil|HoleSize=0mil|Usage=FLASHONLY|Rotation=0.000|XOffset=0mil|YOffset=0mil|HoleType=Round|Shape=RoundedRectangle|*
%AMROUNDEDRECTD91*
21,1,0.082803,0.029527,0,0,0.0*
21,1,0.045276,0.067055,0,0,0.0*
1,1,0.037528,0.022638,-0.014764*
1,1,0.037528,-0.022638,-0.014764*
1,1,0.037528,-0.022638,0.014764*
1,1,0.037528,0.022638,0.014764*
%
%ADD91ROUNDEDRECTD91*%
%ADD92O,0.055244X0.043433*%
%ADD93R,0.067055X0.067055*%
%TA.AperFunction,NonConductor*%
%ADD100C,0.024000*%
%TA.AperFunction,SMDPad,CuDef*%
G04:AMPARAMS|DCode=101|XSize=32.409mil|YSize=30.441mil|CornerRadius=9.61mil|HoleSize=0mil|Usage=FLASHONLY|Rotation=0.000|XOffset=0mil|YOffset=0mil|HoleType=Round|Shape=RoundedRectangle|*
%AMROUNDEDRECTD101*
21,1,0.032409,0.011220,0,0,0.0*
21,1,0.013189,0.030441,0,0,0.0*
1,1,0.019220,0.006594,-0.005610*
1,1,0.019220,-0.006594,-0.005610*
1,1,0.019220,-0.006594,0.005610*
1,1,0.019220,0.006594,0.005610*
%
%ADD101ROUNDEDRECTD101*%
%ADD102R,0.033591X0.055244*%
%ADD103O,0.015811X0.074866*%
%ADD104O,0.074866X0.015811*%
G04:AMPARAMS|DCode=105|XSize=32.409mil|YSize=30.441mil|CornerRadius=9.61mil|HoleSize=0mil|Usage=FLASHONLY|Rotation=90.000|XOffset=0mil|YOffset=0mil|HoleType=Round|Shape=RoundedRectangle|*
%AMROUNDEDRECTD105*
21,1,0.032409,0.011220,0,0,90.0*
21,1,0.013189,0.030441,0,0,90.0*
1,1,0.019220,0.005610,0.006594*
1,1,0.019220,0.005610,-0.006594*
1,1,0.019220,-0.005610,-0.006594*
1,1,0.019220,-0.005610,0.006594*
%
%ADD105ROUNDEDRECTD105*%
%ADD106R,0.053276X0.037528*%
%ADD107R,0.045402X0.063118*%
G04:AMPARAMS|DCode=108|XSize=52.488mil|YSize=104.063mil|CornerRadius=15.122mil|HoleSize=0mil|Usage=FLASHONLY|Rotation=0.000|XOffset=0mil|YOffset=0mil|HoleType=Round|Shape=RoundedRectangle|*
%AMROUNDEDRECTD108*
21,1,0.052488,0.073819,0,0,0.0*
21,1,0.022244,0.104063,0,0,0.0*
1,1,0.030244,0.011122,-0.036910*
1,1,0.030244,-0.011122,-0.036910*
1,1,0.030244,-0.011122,0.036910*
1,1,0.030244,0.011122,0.036910*
%
%ADD108ROUNDEDRECTD108*%
%ADD109R,0.020535X0.012661*%
G04:AMPARAMS|DCode=110|XSize=19.748mil|YSize=57.15mil|CornerRadius=5.937mil|HoleSize=0mil|Usage=FLASHONLY|Rotation=270.000|XOffset=0mil|YOffset=0mil|HoleType=Round|Shape=RoundedRectangle|*
%AMROUNDEDRECTD110*
21,1,0.019748,0.045276,0,0,270.0*
21,1,0.007874,0.057150,0,0,270.0*
1,1,0.011874,-0.022638,-0.003937*
1,1,0.011874,-0.022638,0.003937*
1,1,0.011874,0.022638,0.003937*
1,1,0.011874,0.022638,-0.003937*
%
%ADD110ROUNDEDRECTD110*%
%ADD111R,0.054457X0.032016*%
G04:AMPARAMS|DCode=112|XSize=47.37mil|YSize=63.118mil|CornerRadius=13.842mil|HoleSize=0mil|Usage=FLASHONLY|Rotation=90.000|XOffset=0mil|YOffset=0mil|HoleType=Round|Shape=RoundedRectangle|*
%AMROUNDEDRECTD112*
21,1,0.047370,0.035433,0,0,90.0*
21,1,0.019685,0.063118,0,0,90.0*
1,1,0.027685,0.017717,0.009843*
1,1,0.027685,0.017717,-0.009843*
1,1,0.027685,-0.017717,-0.009843*
1,1,0.027685,-0.017717,0.009843*
%
%ADD112ROUNDEDRECTD112*%
G04:AMPARAMS|DCode=113|XSize=21.716mil|YSize=51.244mil|CornerRadius=3.949mil|HoleSize=0mil|Usage=FLASHONLY|Rotation=0.000|XOffset=0mil|YOffset=0mil|HoleType=Round|Shape=RoundedRectangle|*
%AMROUNDEDRECTD113*
21,1,0.021716,0.043346,0,0,0.0*
21,1,0.013819,0.051244,0,0,0.0*
1,1,0.007898,0.006910,-0.021673*
1,1,0.007898,-0.006910,-0.021673*
1,1,0.007898,-0.006910,0.021673*
1,1,0.007898,0.006910,0.021673*
%
%ADD113ROUNDEDRECTD113*%
%ADD114R,0.043370X0.017000*%
%ADD115R,0.039433X0.029591*%
%ADD116R,0.043370X0.013840*%
%ADD117R,0.031620X0.061150*%
%ADD118R,0.035559X0.033591*%
%ADD119R,0.055240X0.086740*%
G04:AMPARAMS|DCode=120|XSize=54.26mil|YSize=82.803mil|CornerRadius=15.565mil|HoleSize=0mil|Usage=FLASHONLY|Rotation=90.000|XOffset=0mil|YOffset=0mil|HoleType=Round|Shape=RoundedRectangle|*
%AMROUNDEDRECTD120*
21,1,0.054260,0.051673,0,0,90.0*
21,1,0.023130,0.082803,0,0,90.0*
1,1,0.031130,0.025837,0.011565*
1,1,0.031130,0.025837,-0.011565*
1,1,0.031130,-0.025837,-0.011565*
1,1,0.031130,-0.025837,0.011565*
%
%ADD120ROUNDEDRECTD120*%
G04:AMPARAMS|DCode=121|XSize=78.866mil|YSize=82.803mil|CornerRadius=21.716mil|HoleSize=0mil|Usage=FLASHONLY|Rotation=270.000|XOffset=0mil|YOffset=0mil|HoleType=Round|Shape=RoundedRectangle|*
%AMROUNDEDRECTD121*
21,1,0.078866,0.039370,0,0,270.0*
21,1,0.035433,0.082803,0,0,270.0*
1,1,0.043433,-0.019685,-0.017717*
1,1,0.043433,-0.019685,0.017717*
1,1,0.043433,0.019685,0.017717*
1,1,0.043433,0.019685,-0.017717*
%
%ADD121ROUNDEDRECTD121*%
%TA.AperFunction,ViaPad*%
%ADD122C,0.047370*%
D62*
X3282237Y287402D02*
D03*
D75*
X3307237D02*
G03*
X3307237Y287402I-25000J0D01*
G01*
D82*
X2657906Y937071D02*
D03*
Y898488D02*
D03*
X2070236Y1533252D02*
D03*
Y1571834D02*
D03*
X2689400Y1596909D02*
D03*
X230315Y1541929D02*
D03*
X602756Y1369291D02*
D03*
X459000Y995291D02*
D03*
X661417Y690354D02*
D03*
X2471850Y1569816D02*
D03*
X2523622Y200394D02*
D03*
X1050197Y922638D02*
D03*
X2646457Y412992D02*
D03*
X2434836Y1569816D02*
D03*
X1058000Y1130291D02*
D03*
X331000Y1317291D02*
D03*
X2689400Y1635491D02*
D03*
X230315Y1503347D02*
D03*
X661417Y728937D02*
D03*
X2523622Y161811D02*
D03*
X1058000Y1091709D02*
D03*
X331000Y1278709D02*
D03*
X2434836Y1531234D02*
D03*
X2646457Y374409D02*
D03*
X1050197Y961220D02*
D03*
X2471850Y1531234D02*
D03*
X459000Y956709D02*
D03*
X602756Y1330709D02*
D03*
D83*
X295669Y1544291D02*
D03*
X832283Y1331693D02*
D03*
X838976Y729134D02*
D03*
X390354Y915354D02*
D03*
X2676575Y252953D02*
D03*
X2335039Y374016D02*
D03*
X1149213Y1749323D02*
D03*
X3043701Y169291D02*
D03*
X941291Y1337000D02*
D03*
X832291Y1372000D02*
D03*
X390354Y956693D02*
D03*
X558465Y1436024D02*
D03*
X2776968Y412402D02*
D03*
X404331Y868307D02*
D03*
X833071Y1411516D02*
D03*
X793701Y1331693D02*
D03*
X877559Y729134D02*
D03*
X2715157Y252953D02*
D03*
X2373622Y374016D02*
D03*
X1110630Y1749323D02*
D03*
X793709Y1372000D02*
D03*
X597047Y1436024D02*
D03*
X2815551Y412402D02*
D03*
X871654Y1411516D02*
D03*
X442913Y868307D02*
D03*
X351772Y956693D02*
D03*
X902709Y1337000D02*
D03*
X3082283Y169291D02*
D03*
X1184547Y1749323D02*
D03*
X1223130D02*
D03*
X351772Y915354D02*
D03*
X334252Y1544291D02*
D03*
D84*
X1495700Y1100000D02*
D03*
X1520300D02*
D03*
X1521300Y1042000D02*
D03*
X1494700D02*
D03*
X1608000Y867600D02*
D03*
Y841000D02*
D03*
X508000Y1731700D02*
D03*
Y1758300D02*
D03*
X340000Y1574700D02*
D03*
Y1601300D02*
D03*
D85*
X102362Y393701D02*
D03*
X3725000Y350394D02*
D03*
X125000Y1675000D02*
D03*
D86*
X905512Y605827D02*
D03*
D87*
X3500000Y1500000D02*
D03*
X3600000D02*
D03*
X3700000D02*
D03*
X3500000Y1400000D02*
D03*
X3600000D02*
D03*
X3700000D02*
D03*
X3800000D02*
D03*
X3500000Y1600000D02*
D03*
X3600000D02*
D03*
X3700000D02*
D03*
X3800000D02*
D03*
X2900000Y1100000D02*
D03*
X2800000Y1000000D02*
D03*
X2900000D02*
D03*
X1700000D02*
D03*
X1600000D02*
D03*
X1700000Y1100000D02*
D03*
X3800000Y1300000D02*
D03*
Y900000D02*
D03*
Y500000D02*
D03*
Y700000D02*
D03*
Y1100000D02*
D03*
Y1500000D02*
D03*
X3012598Y74803D02*
D03*
X2300000Y200000D02*
D03*
Y300000D02*
D03*
X114173Y1493701D02*
D03*
X3100000Y600000D02*
D03*
Y800000D02*
D03*
Y1600000D02*
D03*
X2400000Y200000D02*
D03*
Y300000D02*
D03*
X2200000D02*
D03*
Y200000D02*
D03*
X2000000Y300000D02*
D03*
X2100000D02*
D03*
X2000000Y200000D02*
D03*
X2100000D02*
D03*
X1900000Y300000D02*
D03*
X3212598Y74803D02*
D03*
X3312598D02*
D03*
X3112598D02*
D03*
X3300000Y1600000D02*
D03*
X3400000D02*
D03*
X3200000D02*
D03*
X3300000Y1500000D02*
D03*
X3400000D02*
D03*
X3100000D02*
D03*
X3200000D02*
D03*
X3100000Y1200000D02*
D03*
Y1100000D02*
D03*
X3200000Y1200000D02*
D03*
Y1100000D02*
D03*
X3300000Y1200000D02*
D03*
Y1100000D02*
D03*
X3400000Y1200000D02*
D03*
Y1100000D02*
D03*
X3500000Y1200000D02*
D03*
Y1100000D02*
D03*
X3600000Y1200000D02*
D03*
Y1100000D02*
D03*
X3700000Y1200000D02*
D03*
Y1100000D02*
D03*
X3800000Y1200000D02*
D03*
X3100000Y700000D02*
D03*
X3200000Y800000D02*
D03*
Y700000D02*
D03*
X3300000Y800000D02*
D03*
Y700000D02*
D03*
X3400000Y800000D02*
D03*
Y700000D02*
D03*
X3500000Y800000D02*
D03*
Y700000D02*
D03*
X3600000Y800000D02*
D03*
Y700000D02*
D03*
X3700000Y800000D02*
D03*
Y700000D02*
D03*
X3800000Y800000D02*
D03*
X3100000Y500000D02*
D03*
X3200000Y600000D02*
D03*
Y500000D02*
D03*
X3300000Y600000D02*
D03*
Y500000D02*
D03*
X3400000Y600000D02*
D03*
Y500000D02*
D03*
X3500000Y600000D02*
D03*
Y500000D02*
D03*
X3600000Y600000D02*
D03*
Y500000D02*
D03*
X3700000Y600000D02*
D03*
Y500000D02*
D03*
X3800000Y600000D02*
D03*
X3100000Y1000000D02*
D03*
Y900000D02*
D03*
X3200000Y1000000D02*
D03*
Y900000D02*
D03*
X3300000Y1000000D02*
D03*
Y900000D02*
D03*
X3400000Y1000000D02*
D03*
Y900000D02*
D03*
X3500000Y1000000D02*
D03*
Y900000D02*
D03*
X3600000Y1000000D02*
D03*
Y900000D02*
D03*
X3700000Y1000000D02*
D03*
Y900000D02*
D03*
X3800000Y1000000D02*
D03*
X3100000Y1400000D02*
D03*
Y1300000D02*
D03*
X3200000Y1400000D02*
D03*
Y1300000D02*
D03*
X3300000Y1400000D02*
D03*
Y1300000D02*
D03*
X3400000Y1400000D02*
D03*
Y1300000D02*
D03*
X3500000D02*
D03*
X3600000D02*
D03*
X3700000D02*
D03*
X1700000Y1700000D02*
D03*
X1600000Y1600000D02*
D03*
X1700000D02*
D03*
X1600000Y1500000D02*
D03*
X1700000D02*
D03*
X1600000Y1400000D02*
D03*
X1700000D02*
D03*
X1600000Y1300000D02*
D03*
X1700000D02*
D03*
X1600000Y1200000D02*
D03*
X1700000D02*
D03*
X1600000Y1100000D02*
D03*
X2800000D02*
D03*
X2900000Y1200000D02*
D03*
X2800000D02*
D03*
X2900000Y1300000D02*
D03*
X2800000D02*
D03*
X2900000Y1400000D02*
D03*
X2800000D02*
D03*
X2900000Y1500000D02*
D03*
X2800000D02*
D03*
X2900000Y1600000D02*
D03*
X2800000D02*
D03*
X2900000Y1700000D02*
D03*
D88*
X157480Y1889764D02*
D03*
X3700787Y157480D02*
D03*
Y1889764D02*
D03*
X157480Y157480D02*
D03*
D89*
X114173Y1393701D02*
D03*
X1600000Y1700000D02*
D03*
X2800000D02*
D03*
D90*
X2539134Y1264331D02*
D03*
X2149134Y1939331D02*
D03*
D91*
X110236Y873031D02*
D03*
Y1201772D02*
D03*
D92*
X228346Y949803D02*
D03*
Y1125000D02*
D03*
D93*
X1900000Y200000D02*
D03*
X3412598Y74803D02*
D03*
D100*
X1519100Y1100000D02*
G03*
X1519100Y1100000I-11000J0D01*
G01*
X1520100Y1042000D02*
G03*
X1520100Y1042000I-11000J0D01*
G01*
X1517900D02*
G03*
X1517900Y1042000I-11000J0D01*
G01*
X1619000Y855400D02*
G03*
X1619000Y855400I-11000J0D01*
G01*
Y853200D02*
G03*
X1619000Y853200I-11000J0D01*
G01*
X519000Y1743900D02*
G03*
X519000Y1743900I-11000J0D01*
G01*
Y1746100D02*
G03*
X519000Y1746100I-11000J0D01*
G01*
X351000Y1586900D02*
G03*
X351000Y1586900I-11000J0D01*
G01*
Y1589100D02*
G03*
X351000Y1589100I-11000J0D01*
G01*
D101*
X1233386Y1828937D02*
D03*
Y1791142D02*
D03*
X1176083Y1828937D02*
D03*
Y1791142D02*
D03*
X302000Y970898D02*
D03*
Y933102D02*
D03*
X3800780Y1700000D02*
D03*
Y1662205D02*
D03*
X3700000Y1700000D02*
D03*
Y1662205D02*
D03*
X3600000Y1700000D02*
D03*
Y1662205D02*
D03*
X3500000Y1700000D02*
D03*
Y1662205D02*
D03*
X749000Y690158D02*
D03*
Y727953D02*
D03*
X2457000Y902898D02*
D03*
X545276Y1481890D02*
D03*
X504921Y1482087D02*
D03*
Y1519882D02*
D03*
X545276Y1519685D02*
D03*
X520866Y1298394D02*
D03*
Y1336189D02*
D03*
X456000Y1200898D02*
D03*
Y1163102D02*
D03*
X926181Y1723228D02*
D03*
Y1761024D02*
D03*
X807087Y1722047D02*
D03*
Y1759842D02*
D03*
X688976Y1722244D02*
D03*
Y1760039D02*
D03*
X564961Y1722047D02*
D03*
Y1759842D02*
D03*
X2606299Y321063D02*
D03*
Y283268D02*
D03*
Y357087D02*
D03*
Y394882D02*
D03*
X2457000Y865102D02*
D03*
X444882Y1721260D02*
D03*
Y1759055D02*
D03*
X742126Y1540551D02*
D03*
Y1502756D02*
D03*
D102*
X455915Y1371610D02*
D03*
X418514D02*
D03*
X381112D02*
D03*
X381112Y1261373D02*
D03*
X455915D02*
D03*
X2520590Y864882D02*
D03*
X2557992D02*
D03*
X2595394D02*
D03*
X2595394Y975118D02*
D03*
X2520590D02*
D03*
D103*
X602362Y1261811D02*
D03*
X622047D02*
D03*
X641732D02*
D03*
X661417D02*
D03*
X681102D02*
D03*
X700787D02*
D03*
X720472D02*
D03*
X740157D02*
D03*
X759842D02*
D03*
X779528D02*
D03*
X799213D02*
D03*
X818898D02*
D03*
X838583D02*
D03*
X858268D02*
D03*
X877953D02*
D03*
X897638D02*
D03*
Y809055D02*
D03*
X877953D02*
D03*
X858268D02*
D03*
X838583D02*
D03*
X818898D02*
D03*
X799213D02*
D03*
X779528D02*
D03*
X759842D02*
D03*
X740157D02*
D03*
X720472D02*
D03*
X700787D02*
D03*
X681102D02*
D03*
X661417D02*
D03*
X641732D02*
D03*
X622047D02*
D03*
X602362D02*
D03*
D104*
X976378Y1183071D02*
D03*
Y1163386D02*
D03*
Y1143701D02*
D03*
Y1124016D02*
D03*
Y1104331D02*
D03*
Y1084646D02*
D03*
Y1064961D02*
D03*
Y1045276D02*
D03*
Y1025591D02*
D03*
Y1005906D02*
D03*
Y986221D02*
D03*
Y966535D02*
D03*
Y946851D02*
D03*
Y927165D02*
D03*
Y907480D02*
D03*
Y887795D02*
D03*
X523622D02*
D03*
Y907480D02*
D03*
Y927165D02*
D03*
Y946851D02*
D03*
Y966535D02*
D03*
Y986221D02*
D03*
Y1005906D02*
D03*
Y1025591D02*
D03*
Y1045276D02*
D03*
Y1064961D02*
D03*
Y1084646D02*
D03*
Y1104331D02*
D03*
Y1124016D02*
D03*
Y1143701D02*
D03*
Y1163386D02*
D03*
Y1183071D02*
D03*
D105*
X2654827Y864882D02*
D03*
X2692622D02*
D03*
X385827Y1092520D02*
D03*
X1216043Y1878051D02*
D03*
X404724Y814961D02*
D03*
X1086417Y1481299D02*
D03*
X1193110D02*
D03*
X437411Y1438102D02*
D03*
X728543Y1598425D02*
D03*
X690748D02*
D03*
X399616Y1438102D02*
D03*
X423622Y1092520D02*
D03*
X1155315Y1481299D02*
D03*
X1124213D02*
D03*
X442520Y814961D02*
D03*
X1178248Y1878051D02*
D03*
D106*
X1721008Y419212D02*
D03*
X1596992D02*
D03*
Y539291D02*
D03*
X1721008D02*
D03*
D107*
X1577307Y479252D02*
D03*
X1740693D02*
D03*
D108*
X994882Y122047D02*
D03*
X1094882D02*
D03*
X1294882D02*
D03*
Y460630D02*
D03*
X1094882D02*
D03*
X994882D02*
D03*
X894882D02*
D03*
X594882Y122047D02*
D03*
X694882D02*
D03*
X794882D02*
D03*
X894882D02*
D03*
X1194882D02*
D03*
Y460630D02*
D03*
X794882D02*
D03*
X694882D02*
D03*
X594882D02*
D03*
D109*
X302205Y1058748D02*
D03*
X327795D02*
D03*
Y1027252D02*
D03*
Y1043000D02*
D03*
X302205Y1027252D02*
D03*
Y1043000D02*
D03*
D110*
X215551Y1062992D02*
D03*
Y986220D02*
D03*
Y1011811D02*
D03*
Y1088583D02*
D03*
Y1037401D02*
D03*
D111*
X333661Y1386220D02*
D03*
Y1458268D02*
D03*
X252953Y1422244D02*
D03*
D112*
X444882Y1890748D02*
D03*
X926181Y1890748D02*
D03*
X807087Y1890748D02*
D03*
X688976D02*
D03*
X564961Y1890748D02*
D03*
Y1819882D02*
D03*
X688976Y1819882D02*
D03*
X807087D02*
D03*
X926181Y1819882D02*
D03*
X444882Y1819882D02*
D03*
D113*
X1152657Y1679828D02*
D03*
X1178248Y1563686D02*
D03*
X1203839D02*
D03*
X1127067Y1679828D02*
D03*
X1152657Y1563686D02*
D03*
X1127067D02*
D03*
X1178248Y1679828D02*
D03*
X1203839D02*
D03*
D114*
X2813378Y308749D02*
D03*
X2694496D02*
D03*
X2813378Y367805D02*
D03*
X2694496Y328435D02*
D03*
Y348119D02*
D03*
Y367805D02*
D03*
X2813378Y328435D02*
D03*
Y348119D02*
D03*
D115*
X689961Y1519685D02*
D03*
X595472Y1482284D02*
D03*
X689961D02*
D03*
Y1557087D02*
D03*
X595472D02*
D03*
Y1519685D02*
D03*
D116*
X2326772Y1238071D02*
D03*
Y1257756D02*
D03*
X2173228D02*
D03*
Y1238071D02*
D03*
Y1375866D02*
D03*
Y1277441D02*
D03*
Y1297126D02*
D03*
Y1316811D02*
D03*
Y1336496D02*
D03*
Y1356181D02*
D03*
Y1395551D02*
D03*
Y1415236D02*
D03*
Y1434921D02*
D03*
Y1454606D02*
D03*
Y1474291D02*
D03*
Y1493976D02*
D03*
Y1513661D02*
D03*
X2326772Y1415236D02*
D03*
Y1395551D02*
D03*
Y1356181D02*
D03*
Y1434921D02*
D03*
Y1493976D02*
D03*
Y1474291D02*
D03*
Y1454606D02*
D03*
Y1375866D02*
D03*
Y1277441D02*
D03*
Y1336496D02*
D03*
Y1316811D02*
D03*
Y1297126D02*
D03*
Y1513661D02*
D03*
D117*
X2676176Y200000D02*
D03*
X2715546D02*
D03*
X2754926D02*
D03*
X2794296D02*
D03*
D118*
X351378Y814961D02*
D03*
X387000Y1182575D02*
D03*
Y1129425D02*
D03*
X351378Y868110D02*
D03*
D119*
X2624996Y55310D02*
D03*
X2845476D02*
D03*
D120*
X110236Y911939D02*
D03*
Y1162864D02*
D03*
D121*
Y992126D02*
D03*
Y1082677D02*
D03*
D122*
X2697244Y707992D02*
D03*
X2497244D02*
D03*
X2145000Y725000D02*
D03*
Y675000D02*
D03*
X2197244Y707992D02*
D03*
X1997244D02*
D03*
X1797000D02*
D03*
X1697244D02*
D03*
X1297244D02*
D03*
X2898000Y645000D02*
D03*
X2997000Y481500D02*
D03*
X2798000Y480000D02*
D03*
X1444000Y534000D02*
D03*
X2898000Y695000D02*
D03*
Y745000D02*
D03*
X2299000Y420000D02*
D03*
X2296992Y479252D02*
D03*
X1800000Y425000D02*
D03*
Y480000D02*
D03*
Y540000D02*
D03*
X1444000Y424000D02*
D03*
X1499000Y534000D02*
D03*
Y424000D02*
D03*
%TF.MD5,eac01e7457cf1cfb8a7d19a98054c82b*%
M02*
