%TF.GenerationSoftware,Altium Limited,Altium Designer,20.1.11 (218)*%
G04 Layer_Color=128*
%FSLAX26Y26*%
%MOIN*%
%TF.SameCoordinates,27E64F16-BD7F-4648-91A1-9AE93EB88D02*%
%TF.FilePolarity,Positive*%
%TF.FileFunction,Drillmap*%
%TF.Part,Single*%
G01*
G75*
%TA.AperFunction,NonConductor*%
%ADD77C,0.005000*%
D77*
X850394Y605827D02*
X960630D01*
X905512Y550709D02*
Y660945D01*
X3482284Y1500000D02*
X3517717D01*
X3500000Y1482284D02*
Y1517716D01*
X3582284Y1500000D02*
X3617716D01*
X3600000Y1482284D02*
Y1517716D01*
X3682283Y1500000D02*
X3717716D01*
X3700000Y1482284D02*
Y1517716D01*
X3482284Y1400000D02*
X3517716D01*
X3500000Y1382284D02*
Y1417716D01*
X3582284Y1400000D02*
X3617716D01*
X3600000Y1382284D02*
Y1417716D01*
X3682284Y1400000D02*
X3717716D01*
X3700000Y1382284D02*
Y1417716D01*
X3782284Y1400000D02*
X3817716D01*
X3800000Y1382284D02*
Y1417716D01*
X3482284Y1600000D02*
X3517716D01*
X3500000Y1582284D02*
Y1617716D01*
X3582284Y1600000D02*
X3617716D01*
X3600000Y1582284D02*
Y1617716D01*
X3682284Y1600000D02*
X3717716D01*
X3700000Y1582284D02*
Y1617716D01*
X3782283Y1600000D02*
X3817716D01*
X3800000Y1582284D02*
Y1617716D01*
X103347Y1889764D02*
X211614D01*
X157480Y1835630D02*
Y1943898D01*
X2882284Y1100000D02*
X2917716D01*
X2900000Y1082284D02*
Y1117716D01*
X2782284Y1000000D02*
X2817716D01*
X2800000Y982284D02*
Y1017716D01*
X2882284Y1000000D02*
X2917716D01*
X2900000Y982284D02*
Y1017716D01*
X1682284Y1000000D02*
X1717716D01*
X1700000Y982284D02*
Y1017716D01*
X1582284Y1000000D02*
X1617716D01*
X1600000Y982284D02*
Y1017716D01*
X1682284Y1100000D02*
X1717716D01*
X1700000Y1082284D02*
Y1117716D01*
X3646654Y157480D02*
X3754921D01*
X3700787Y103347D02*
Y211614D01*
X3646654Y1889764D02*
X3754921D01*
X3700787Y1835630D02*
Y1943898D01*
X3782284Y1300000D02*
X3817716D01*
X3800000Y1282284D02*
Y1317716D01*
X3782284Y900000D02*
X3817716D01*
X3800000Y882284D02*
Y917716D01*
X3782284Y500000D02*
X3817716D01*
X3800000Y482284D02*
Y517716D01*
X3782284Y700000D02*
X3817716D01*
X3800000Y682284D02*
Y717716D01*
X3782284Y1100000D02*
X3817716D01*
X3800000Y1082284D02*
Y1117716D01*
X3782284Y1500000D02*
X3817716D01*
X3800000Y1482284D02*
Y1517716D01*
X2994882Y74803D02*
X3030315D01*
X3012598Y57087D02*
Y92520D01*
X2282284Y200000D02*
X2317716D01*
X2300000Y182284D02*
Y217716D01*
X2282284Y300000D02*
X2317716D01*
X2300000Y282284D02*
Y317716D01*
X103347Y157480D02*
X211614D01*
X157480Y103347D02*
Y211614D01*
X96457Y1493701D02*
X131890D01*
X114173Y1475984D02*
Y1511417D01*
X3082284Y600000D02*
X3117716D01*
X3100000Y582284D02*
Y617716D01*
X3082284Y800000D02*
X3117716D01*
X3100000Y782284D02*
Y817716D01*
X3082284Y1600000D02*
X3117716D01*
X3100000Y1582284D02*
Y1617716D01*
X2382284Y200000D02*
X2417716D01*
X2400000Y182284D02*
Y217716D01*
X2382284Y300000D02*
X2417716D01*
X2400000Y282284D02*
Y317716D01*
X96457Y1393701D02*
X131890D01*
X114173Y1375984D02*
Y1411417D01*
X3262237Y287402D02*
X3302237D01*
X3282237Y267402D02*
Y307402D01*
X2495827Y1264331D02*
X2582441D01*
X2539134Y1221024D02*
Y1307638D01*
X2105827Y1939331D02*
X2192441D01*
X2149134Y1896024D02*
Y1982638D01*
X98425Y873031D02*
X122047D01*
X110236Y861220D02*
Y884842D01*
X98425Y1201772D02*
X122047D01*
X110236Y1189961D02*
Y1213583D01*
X215551Y949803D02*
X241142D01*
X228346Y937008D02*
Y962598D01*
X215551Y1125000D02*
X241142D01*
X228346Y1112205D02*
Y1137795D01*
X2182284Y300000D02*
X2217716D01*
X2200000Y282284D02*
Y317716D01*
X2182284Y200000D02*
X2217716D01*
X2200000Y182284D02*
Y217716D01*
X1982284Y300000D02*
X2017716D01*
X2000000Y282284D02*
Y317716D01*
X2082284Y300000D02*
X2117716D01*
X2100000Y282284D02*
Y317716D01*
X1982284Y200000D02*
X2017716D01*
X2000000Y182284D02*
Y217716D01*
X2082284Y200000D02*
X2117716D01*
X2100000Y182284D02*
Y217716D01*
X1882284Y300000D02*
X1917716D01*
X1900000Y282284D02*
Y317716D01*
X1882284Y200000D02*
X1917716D01*
X1900000Y182284D02*
Y217716D01*
X3194882Y74803D02*
X3230315D01*
X3212598Y57087D02*
Y92520D01*
X3294882Y74803D02*
X3330315D01*
X3312598Y57087D02*
Y92520D01*
X3094882Y74803D02*
X3130315D01*
X3112598Y57087D02*
Y92520D01*
X3394882Y74803D02*
X3430315D01*
X3412598Y57087D02*
Y92520D01*
X3282284Y1600000D02*
X3317717D01*
X3300000Y1582284D02*
Y1617716D01*
X3382284Y1600000D02*
X3417717D01*
X3400000Y1582284D02*
Y1617716D01*
X3182284Y1600000D02*
X3217716D01*
X3200000Y1582284D02*
Y1617716D01*
X3282284Y1500000D02*
X3317716D01*
X3300000Y1482284D02*
Y1517716D01*
X3382284Y1500000D02*
X3417716D01*
X3400000Y1482284D02*
Y1517716D01*
X3082284Y1500000D02*
X3117716D01*
X3100000Y1482284D02*
Y1517716D01*
X3182284Y1500000D02*
X3217716D01*
X3200000Y1482284D02*
Y1517716D01*
X3082284Y1200000D02*
X3117716D01*
X3100000Y1182284D02*
Y1217716D01*
X3082284Y1100000D02*
X3117716D01*
X3100000Y1082284D02*
Y1117716D01*
X3182284Y1200000D02*
X3217716D01*
X3200000Y1182284D02*
Y1217716D01*
X3182284Y1100000D02*
X3217716D01*
X3200000Y1082284D02*
Y1117716D01*
X3282284Y1200000D02*
X3317716D01*
X3300000Y1182284D02*
Y1217716D01*
X3282284Y1100000D02*
X3317716D01*
X3300000Y1082284D02*
Y1117716D01*
X3382284Y1200000D02*
X3417716D01*
X3400000Y1182284D02*
Y1217716D01*
X3382284Y1100000D02*
X3417716D01*
X3400000Y1082284D02*
Y1117716D01*
X3482284Y1200000D02*
X3517716D01*
X3500000Y1182284D02*
Y1217716D01*
X3482284Y1100000D02*
X3517716D01*
X3500000Y1082284D02*
Y1117716D01*
X3582284Y1200000D02*
X3617716D01*
X3600000Y1182284D02*
Y1217716D01*
X3582284Y1100000D02*
X3617716D01*
X3600000Y1082284D02*
Y1117716D01*
X3682284Y1200000D02*
X3717716D01*
X3700000Y1182284D02*
Y1217716D01*
X3682284Y1100000D02*
X3717716D01*
X3700000Y1082284D02*
Y1117716D01*
X3782284Y1200000D02*
X3817716D01*
X3800000Y1182284D02*
Y1217716D01*
X3082284Y700000D02*
X3117716D01*
X3100000Y682284D02*
Y717716D01*
X3182284Y800000D02*
X3217716D01*
X3200000Y782284D02*
Y817716D01*
X3182284Y700000D02*
X3217716D01*
X3200000Y682284D02*
Y717716D01*
X3282284Y800000D02*
X3317716D01*
X3300000Y782284D02*
Y817716D01*
X3282284Y700000D02*
X3317716D01*
X3300000Y682284D02*
Y717716D01*
X3382284Y800000D02*
X3417716D01*
X3400000Y782284D02*
Y817716D01*
X3382284Y700000D02*
X3417716D01*
X3400000Y682284D02*
Y717716D01*
X3482284Y800000D02*
X3517716D01*
X3500000Y782284D02*
Y817716D01*
X3482284Y700000D02*
X3517716D01*
X3500000Y682284D02*
Y717716D01*
X3582284Y800000D02*
X3617716D01*
X3600000Y782284D02*
Y817716D01*
X3582284Y700000D02*
X3617716D01*
X3600000Y682284D02*
Y717716D01*
X3682284Y800000D02*
X3717716D01*
X3700000Y782284D02*
Y817716D01*
X3682284Y700000D02*
X3717716D01*
X3700000Y682284D02*
Y717716D01*
X3782284Y800000D02*
X3817716D01*
X3800000Y782284D02*
Y817716D01*
X3082284Y500000D02*
X3117716D01*
X3100000Y482284D02*
Y517716D01*
X3182284Y600000D02*
X3217716D01*
X3200000Y582284D02*
Y617716D01*
X3182284Y500000D02*
X3217716D01*
X3200000Y482284D02*
Y517716D01*
X3282284Y600000D02*
X3317716D01*
X3300000Y582284D02*
Y617716D01*
X3282284Y500000D02*
X3317716D01*
X3300000Y482284D02*
Y517716D01*
X3382284Y600000D02*
X3417716D01*
X3400000Y582284D02*
Y617716D01*
X3382284Y500000D02*
X3417716D01*
X3400000Y482284D02*
Y517716D01*
X3482284Y600000D02*
X3517716D01*
X3500000Y582284D02*
Y617716D01*
X3482284Y500000D02*
X3517716D01*
X3500000Y482284D02*
Y517716D01*
X3582284Y600000D02*
X3617716D01*
X3600000Y582284D02*
Y617716D01*
X3582284Y500000D02*
X3617716D01*
X3600000Y482284D02*
Y517716D01*
X3682284Y600000D02*
X3717716D01*
X3700000Y582284D02*
Y617716D01*
X3682284Y500000D02*
X3717716D01*
X3700000Y482284D02*
Y517716D01*
X3782284Y600000D02*
X3817716D01*
X3800000Y582284D02*
Y617716D01*
X3082284Y1000000D02*
X3117716D01*
X3100000Y982284D02*
Y1017716D01*
X3082284Y900000D02*
X3117716D01*
X3100000Y882284D02*
Y917716D01*
X3182284Y1000000D02*
X3217716D01*
X3200000Y982284D02*
Y1017716D01*
X3182284Y900000D02*
X3217716D01*
X3200000Y882284D02*
Y917716D01*
X3282284Y1000000D02*
X3317716D01*
X3300000Y982284D02*
Y1017716D01*
X3282284Y900000D02*
X3317716D01*
X3300000Y882284D02*
Y917716D01*
X3382284Y1000000D02*
X3417716D01*
X3400000Y982284D02*
Y1017716D01*
X3382284Y900000D02*
X3417716D01*
X3400000Y882284D02*
Y917716D01*
X3482284Y1000000D02*
X3517716D01*
X3500000Y982284D02*
Y1017716D01*
X3482284Y900000D02*
X3517716D01*
X3500000Y882284D02*
Y917716D01*
X3582284Y1000000D02*
X3617716D01*
X3600000Y982284D02*
Y1017716D01*
X3582284Y900000D02*
X3617716D01*
X3600000Y882284D02*
Y917716D01*
X3682284Y1000000D02*
X3717716D01*
X3700000Y982284D02*
Y1017716D01*
X3682284Y900000D02*
X3717716D01*
X3700000Y882284D02*
Y917716D01*
X3782284Y1000000D02*
X3817716D01*
X3800000Y982284D02*
Y1017716D01*
X3082284Y1400000D02*
X3117716D01*
X3100000Y1382284D02*
Y1417716D01*
X3082284Y1300000D02*
X3117716D01*
X3100000Y1282284D02*
Y1317716D01*
X3182284Y1400000D02*
X3217716D01*
X3200000Y1382284D02*
Y1417716D01*
X3182284Y1300000D02*
X3217716D01*
X3200000Y1282284D02*
Y1317716D01*
X3282284Y1400000D02*
X3317716D01*
X3300000Y1382284D02*
Y1417716D01*
X3282284Y1300000D02*
X3317716D01*
X3300000Y1282284D02*
Y1317716D01*
X3382284Y1400000D02*
X3417716D01*
X3400000Y1382284D02*
Y1417716D01*
X3382284Y1300000D02*
X3417716D01*
X3400000Y1282284D02*
Y1317716D01*
X3482284Y1300000D02*
X3517716D01*
X3500000Y1282284D02*
Y1317716D01*
X3582284Y1300000D02*
X3617716D01*
X3600000Y1282284D02*
Y1317716D01*
X3682284Y1300000D02*
X3717716D01*
X3700000Y1282284D02*
Y1317716D01*
X1582284Y1700000D02*
X1617716D01*
X1600000Y1682284D02*
Y1717716D01*
X1682284Y1700000D02*
X1717716D01*
X1700000Y1682284D02*
Y1717716D01*
X1582284Y1600000D02*
X1617716D01*
X1600000Y1582284D02*
Y1617716D01*
X1682284Y1600000D02*
X1717716D01*
X1700000Y1582284D02*
Y1617716D01*
X1582284Y1500000D02*
X1617716D01*
X1600000Y1482284D02*
Y1517716D01*
X1682284Y1500000D02*
X1717716D01*
X1700000Y1482284D02*
Y1517716D01*
X1582284Y1400000D02*
X1617716D01*
X1600000Y1382284D02*
Y1417716D01*
X1682284Y1400000D02*
X1717716D01*
X1700000Y1382284D02*
Y1417716D01*
X1582284Y1300000D02*
X1617716D01*
X1600000Y1282284D02*
Y1317716D01*
X1682284Y1300000D02*
X1717716D01*
X1700000Y1282284D02*
Y1317716D01*
X1582284Y1200000D02*
X1617716D01*
X1600000Y1182284D02*
Y1217716D01*
X1682284Y1200000D02*
X1717716D01*
X1700000Y1182284D02*
Y1217716D01*
X1582284Y1100000D02*
X1617716D01*
X1600000Y1082284D02*
Y1117716D01*
X2782284Y1100000D02*
X2817716D01*
X2800000Y1082284D02*
Y1117716D01*
X2882284Y1200000D02*
X2917716D01*
X2900000Y1182284D02*
Y1217716D01*
X2782284Y1200000D02*
X2817716D01*
X2800000Y1182284D02*
Y1217716D01*
X2882284Y1300000D02*
X2917716D01*
X2900000Y1282284D02*
Y1317716D01*
X2782284Y1300000D02*
X2817716D01*
X2800000Y1282284D02*
Y1317716D01*
X2882284Y1400000D02*
X2917716D01*
X2900000Y1382284D02*
Y1417716D01*
X2782284Y1400000D02*
X2817716D01*
X2800000Y1382284D02*
Y1417716D01*
X2882284Y1500000D02*
X2917716D01*
X2900000Y1482284D02*
Y1517716D01*
X2782284Y1500000D02*
X2817716D01*
X2800000Y1482284D02*
Y1517716D01*
X2882284Y1600000D02*
X2917716D01*
X2900000Y1582284D02*
Y1617716D01*
X2782284Y1600000D02*
X2817716D01*
X2800000Y1582284D02*
Y1617716D01*
X2882284Y1700000D02*
X2917716D01*
X2900000Y1682284D02*
Y1717716D01*
X2782284Y1700000D02*
X2817716D01*
X2800000Y1682284D02*
Y1717716D01*
X1134094Y165000D02*
X1145906D01*
X1140000Y159095D02*
Y170905D01*
X1289094Y235000D02*
X1300906D01*
X1295000Y229095D02*
Y240905D01*
X1659094Y810000D02*
X1670906D01*
X1665000Y804095D02*
Y815905D01*
X1389094Y280000D02*
X1400906D01*
X1395000Y274094D02*
Y285906D01*
X929095Y180000D02*
X940905D01*
X935000Y174095D02*
Y185905D01*
X1034094Y180000D02*
X1045906D01*
X1040000Y174095D02*
Y185905D01*
X1602094Y809055D02*
X1613906D01*
X1608000Y803150D02*
Y814961D01*
X2244095Y480000D02*
X2255905D01*
X2250000Y474094D02*
Y485906D01*
X2339095Y480000D02*
X2350905D01*
X2345000Y474094D02*
Y485906D01*
X3034095Y480000D02*
X3045905D01*
X3040000Y474094D02*
Y485906D01*
X2641374Y710215D02*
X2653185D01*
X2647280Y704310D02*
Y716121D01*
X2539095Y710000D02*
X2550905D01*
X2545000Y704095D02*
Y715905D01*
X2739095Y710000D02*
X2750905D01*
X2745000Y704095D02*
Y715905D01*
X2687402Y707992D02*
X2707087D01*
X2697244Y698150D02*
Y717835D01*
X2487402Y707992D02*
X2507087D01*
X2497244Y698150D02*
Y717835D01*
X2135157Y725000D02*
X2154843D01*
X2145000Y715158D02*
Y734842D01*
X2135157Y675000D02*
X2154843D01*
X2145000Y665158D02*
Y684842D01*
X2187402Y707992D02*
X2207087D01*
X2197244Y698150D02*
Y717835D01*
X1987402Y707992D02*
X2007087D01*
X1997244Y698150D02*
Y717835D01*
X1787158Y707992D02*
X1806842D01*
X1797000Y698150D02*
Y717835D01*
X1687402Y707992D02*
X1707087D01*
X1697244Y698150D02*
Y717835D01*
X1287402Y707992D02*
X1307087D01*
X1297244Y698150D02*
Y717835D01*
X2803095Y631000D02*
X2814905D01*
X2809000Y625095D02*
Y636905D01*
X2888157Y645000D02*
X2907843D01*
X2898000Y635158D02*
Y654842D01*
X2987157Y481500D02*
X3006843D01*
X2997000Y471658D02*
Y491342D01*
X2788157Y480000D02*
X2807843D01*
X2798000Y470158D02*
Y489842D01*
X2378095Y871000D02*
X2389905D01*
X2384000Y865095D02*
Y876905D01*
X2408095Y871000D02*
X2419905D01*
X2414000Y865095D02*
Y876905D01*
X1999094Y965000D02*
X2010906D01*
X2005000Y959095D02*
Y970905D01*
X1933094Y998000D02*
X1944906D01*
X1939000Y992095D02*
Y1003905D01*
X1835094Y591000D02*
X1846906D01*
X1841000Y585095D02*
Y596905D01*
X1487158Y755000D02*
X1506842D01*
X1497000Y745158D02*
Y764842D01*
X1487158Y696000D02*
X1506842D01*
X1497000Y686158D02*
Y705842D01*
X1375094Y959000D02*
X1386906D01*
X1381000Y953095D02*
Y964905D01*
X1391158Y707992D02*
X1410842D01*
X1401000Y698150D02*
Y717835D01*
X1391158Y766000D02*
X1410842D01*
X1401000Y756158D02*
Y775842D01*
X1090094Y787000D02*
X1101906D01*
X1096000Y781095D02*
Y792905D01*
X1999094Y1065000D02*
X2010906D01*
X2005000Y1059094D02*
Y1070906D01*
X1954094Y1240000D02*
X1965906D01*
X1960000Y1234094D02*
Y1245906D01*
X2034094Y1160000D02*
X2045906D01*
X2040000Y1154094D02*
Y1165906D01*
X1909094Y1160000D02*
X1920906D01*
X1915000Y1154094D02*
Y1165906D01*
X1952094Y535000D02*
X1963906D01*
X1958000Y529095D02*
Y540905D01*
X1905094Y380000D02*
X1916906D01*
X1911000Y374094D02*
Y385906D01*
X1952094Y427000D02*
X1963906D01*
X1958000Y421094D02*
Y432906D01*
X1909094Y586000D02*
X1920906D01*
X1915000Y580095D02*
Y591905D01*
X1238094Y405000D02*
X1249906D01*
X1244000Y399094D02*
Y410906D01*
X2116095Y588000D02*
X2127905D01*
X2122000Y582095D02*
Y593905D01*
X1649094Y425000D02*
X1660906D01*
X1655000Y419094D02*
Y430906D01*
X1549094Y315000D02*
X1560906D01*
X1555000Y309094D02*
Y320906D01*
X1469094Y235000D02*
X1480906D01*
X1475000Y229095D02*
Y240905D01*
X1684094Y235000D02*
X1695906D01*
X1690000Y229095D02*
Y240905D01*
X1709094Y315000D02*
X1720906D01*
X1715000Y309094D02*
Y320906D01*
X1649094Y315000D02*
X1660906D01*
X1655000Y309094D02*
Y320906D01*
X1599094Y260000D02*
X1610906D01*
X1605000Y254095D02*
Y265906D01*
X1544094Y205000D02*
X1555906D01*
X1550000Y199095D02*
Y210905D01*
X1434158Y534000D02*
X1453842D01*
X1444000Y524158D02*
Y543842D01*
X1419094Y315000D02*
X1430906D01*
X1425000Y309094D02*
Y320906D01*
X1354094Y315000D02*
X1365906D01*
X1360000Y309094D02*
Y320906D01*
X2789346Y568993D02*
X2801157D01*
X2795252Y563087D02*
Y574899D01*
X2749095Y568346D02*
X2760905D01*
X2755000Y562441D02*
Y574252D01*
X2378095Y840500D02*
X2389905D01*
X2384000Y834595D02*
Y846405D01*
X2408095Y840500D02*
X2419905D01*
X2414000Y834595D02*
Y846405D01*
X2408095Y810000D02*
X2419905D01*
X2414000Y804095D02*
Y815905D01*
X2378095Y810000D02*
X2389905D01*
X2384000Y804095D02*
Y815905D01*
X3054095Y430000D02*
X3065905D01*
X3060000Y424094D02*
Y435906D01*
X2969095Y303000D02*
X2980905D01*
X2975000Y297094D02*
Y308906D01*
X2888157Y695000D02*
X2907843D01*
X2898000Y685158D02*
Y704842D01*
X2888157Y745000D02*
X2907843D01*
X2898000Y735158D02*
Y754842D01*
X3064332Y549939D02*
X3076143D01*
X3070238Y544033D02*
Y555844D01*
X2304095Y535000D02*
X2315905D01*
X2310000Y529095D02*
Y540905D01*
X2289157Y420000D02*
X2308843D01*
X2299000Y410158D02*
Y429842D01*
X2287150Y479252D02*
X2306835D01*
X2296992Y469409D02*
Y489094D01*
X1790158Y425000D02*
X1809842D01*
X1800000Y415158D02*
Y434842D01*
X1790158Y480000D02*
X1809842D01*
X1800000Y470158D02*
Y489842D01*
X1790158Y540000D02*
X1809842D01*
X1800000Y530158D02*
Y549842D01*
X1434158Y424000D02*
X1453842D01*
X1444000Y414158D02*
Y433842D01*
X1489158Y534000D02*
X1508842D01*
X1499000Y524158D02*
Y543842D01*
X1489158Y424000D02*
X1508842D01*
X1499000Y414158D02*
Y433842D01*
X1487150Y478252D02*
X1506835D01*
X1496992Y468409D02*
Y488094D01*
X1291094Y821000D02*
X1302906D01*
X1297000Y815095D02*
Y826905D01*
X1291094Y766000D02*
X1302906D01*
X1297000Y760095D02*
Y771905D01*
X1261094Y899898D02*
X1272906D01*
X1267000Y893992D02*
Y905803D01*
X1120158Y305000D02*
X1139842D01*
X1130000Y295158D02*
Y314842D01*
X1075158Y305000D02*
X1094842D01*
X1085000Y295158D02*
Y314842D01*
X1030158Y305000D02*
X1049842D01*
X1040000Y295158D02*
Y314842D01*
X994095Y650000D02*
X1005905D01*
X1000000Y644095D02*
Y655905D01*
X908095Y746000D02*
X919905D01*
X914000Y740095D02*
Y751905D01*
X1778543Y809055D02*
X1790354D01*
X1784449Y803150D02*
Y814961D01*
X2386863Y1136486D02*
X2398674D01*
X2392769Y1130581D02*
Y1142392D01*
X2349095Y535000D02*
X2360905D01*
X2355000Y529095D02*
Y540905D01*
X1653094Y875000D02*
X1664906D01*
X1659000Y869095D02*
Y880905D01*
X1401094Y1024000D02*
X1412906D01*
X1407000Y1018095D02*
Y1029906D01*
X1469094Y1146531D02*
X1480906D01*
X1475000Y1140625D02*
Y1152436D01*
X1440094Y1173074D02*
X1451906D01*
X1446000Y1167168D02*
Y1178979D01*
X1373094Y1216535D02*
X1384906D01*
X1379000Y1210630D02*
Y1222441D01*
X1440094Y986221D02*
X1451906D01*
X1446000Y980315D02*
Y992126D01*
X1440094Y1042000D02*
X1451906D01*
X1446000Y1036094D02*
Y1047906D01*
X2318494Y907500D02*
X2330305D01*
X2324400Y901595D02*
Y913405D01*
X686394Y897400D02*
X698206D01*
X692300Y891495D02*
Y903306D01*
X654794Y898100D02*
X666606D01*
X660700Y892194D02*
Y904005D01*
X909694Y1154100D02*
X921505D01*
X915600Y1148195D02*
Y1160005D01*
X852794Y1207500D02*
X864606D01*
X858700Y1201594D02*
Y1213406D01*
X695095Y1159400D02*
X706905D01*
X701000Y1153495D02*
Y1165305D01*
X416594Y1187000D02*
X428406D01*
X422500Y1181094D02*
Y1192906D01*
X1028195Y1187000D02*
X1040005D01*
X1034100Y1181094D02*
Y1192906D01*
X612794Y272900D02*
X624606D01*
X618700Y266995D02*
Y278805D01*
X782294Y280800D02*
X794106D01*
X788200Y274894D02*
Y286705D01*
X1753695Y1101200D02*
X1765505D01*
X1759600Y1095294D02*
Y1107105D01*
X1691094Y650000D02*
X1702906D01*
X1697000Y644095D02*
Y655905D01*
X1767594Y367500D02*
X1779406D01*
X1773500Y361594D02*
Y373406D01*
X738495Y325100D02*
X750306D01*
X744400Y319195D02*
Y331005D01*
X578241Y573000D02*
X590052D01*
X584146Y567095D02*
Y578905D01*
X2683494Y1662205D02*
X2695305D01*
X2689400Y1656299D02*
Y1668110D01*
X1643701Y966189D02*
X1655512D01*
X1649606Y960284D02*
Y972095D01*
X2328738Y1210190D02*
X2340549D01*
X2334643Y1204285D02*
Y1216096D01*
X3048874Y665000D02*
X3060685D01*
X3054780Y659095D02*
Y670905D01*
X1287874Y1341000D02*
X1299685D01*
X1293780Y1335094D02*
Y1346906D01*
X1231398Y1130512D02*
X1251083D01*
X1241240Y1120669D02*
Y1140354D01*
X1644874Y1478756D02*
X1656685D01*
X1650780Y1472850D02*
Y1484661D01*
X1291094Y645000D02*
X1302906D01*
X1297000Y639095D02*
Y650905D01*
X1132874Y1779756D02*
X1144685D01*
X1138780Y1773850D02*
Y1785661D01*
X1092874Y1785756D02*
X1104685D01*
X1098780Y1779850D02*
Y1791661D01*
X644874Y1589756D02*
X656685D01*
X650780Y1583850D02*
Y1595661D01*
X597716Y1397236D02*
X609527D01*
X603621Y1391330D02*
Y1403141D01*
X553380Y1404370D02*
X565191D01*
X559285Y1398464D02*
Y1410275D01*
X827945Y1482039D02*
X839756D01*
X833851Y1476134D02*
Y1487945D01*
X965577Y1336756D02*
X977388D01*
X971483Y1330850D02*
Y1342661D01*
X936165Y1305173D02*
X947976D01*
X942071Y1299268D02*
Y1311079D01*
X936945Y1369090D02*
X948756D01*
X942851Y1363185D02*
Y1374995D01*
X1031310Y896394D02*
X1043121D01*
X1037215Y890489D02*
Y902299D01*
X754717Y863929D02*
X766528D01*
X760622Y858024D02*
Y869835D01*
X518354Y1230786D02*
X530165D01*
X524260Y1224881D02*
Y1236692D01*
X578241Y1104087D02*
X590052D01*
X584146Y1098181D02*
Y1109992D01*
X577461Y1011811D02*
X589272D01*
X583367Y1005905D02*
Y1017716D01*
X577461Y980543D02*
X589272D01*
X583367Y974638D02*
Y986449D01*
X578241Y946606D02*
X590052D01*
X584146Y940701D02*
Y952512D01*
X578241Y915110D02*
X590052D01*
X584146Y909205D02*
Y921016D01*
X473807Y856543D02*
X485618D01*
X479712Y850638D02*
Y862449D01*
X406874Y896756D02*
X418685D01*
X412780Y890850D02*
Y902661D01*
X421874Y996756D02*
X433685D01*
X427780Y990850D02*
Y1002661D01*
X344971Y1011567D02*
X356782D01*
X350877Y1005661D02*
Y1017472D01*
X352874Y1091756D02*
X364685D01*
X358780Y1085850D02*
Y1097661D01*
X439756Y1932756D02*
X451567D01*
X445661Y1926850D02*
Y1938661D01*
X559835Y1933756D02*
X571646D01*
X565740Y1927850D02*
Y1939661D01*
X683851Y1932756D02*
X695662D01*
X689756Y1926850D02*
Y1938661D01*
X801961Y1932756D02*
X813772D01*
X807866Y1926850D02*
Y1938661D01*
X921055Y1933756D02*
X932866D01*
X926961Y1927850D02*
Y1939661D01*
X971252Y1890504D02*
X983063D01*
X977158Y1884598D02*
Y1896409D01*
X859874Y1889756D02*
X871685D01*
X865780Y1883850D02*
Y1895661D01*
X740874Y1890756D02*
X752685D01*
X746780Y1884850D02*
Y1896661D01*
X619874Y1889756D02*
X631685D01*
X625780Y1883850D02*
Y1895661D01*
X498874Y1889756D02*
X510685D01*
X504780Y1883850D02*
Y1895661D01*
X377874Y1888756D02*
X389685D01*
X383780Y1882850D02*
Y1894661D01*
X1643874Y1024756D02*
X1655685D01*
X1649780Y1018850D02*
Y1030661D01*
X1744874Y1024756D02*
X1756685D01*
X1750780Y1018850D02*
Y1030661D01*
X2542095Y975000D02*
X2553905D01*
X2548000Y969095D02*
Y980905D01*
X2487874Y974756D02*
X2499685D01*
X2493780Y968850D02*
Y980661D01*
X2514874Y934756D02*
X2526685D01*
X2520780Y928850D02*
Y940661D01*
X2552874Y913756D02*
X2564685D01*
X2558780Y907850D02*
Y919661D01*
X2624874Y898756D02*
X2636685D01*
X2630780Y892850D02*
Y904661D01*
X2793874Y931756D02*
X2805685D01*
X2799780Y925850D02*
Y937661D01*
X2894874Y931756D02*
X2906685D01*
X2900780Y925850D02*
Y937661D01*
X2913874Y1049756D02*
X2925685D01*
X2919780Y1043850D02*
Y1055661D01*
X2913874Y1149756D02*
X2925685D01*
X2919780Y1143850D02*
Y1155661D01*
X2842874Y1120756D02*
X2854685D01*
X2848780Y1114850D02*
Y1126661D01*
X2842874Y1051756D02*
X2854685D01*
X2848780Y1045850D02*
Y1057661D01*
X2095874Y1249756D02*
X2107685D01*
X2101780Y1243850D02*
Y1255661D01*
X2095874Y1222756D02*
X2107685D01*
X2101780Y1216850D02*
Y1228661D01*
X2064874Y1597756D02*
X2076685D01*
X2070780Y1591850D02*
Y1603661D01*
X2026874Y1570756D02*
X2038685D01*
X2032780Y1564850D02*
Y1576661D01*
X2149874Y1197756D02*
X2161685D01*
X2155780Y1191850D02*
Y1203661D01*
X2117874Y1197756D02*
X2129685D01*
X2123780Y1191850D02*
Y1203661D01*
X1049874Y1155756D02*
X1061685D01*
X1055780Y1149850D02*
Y1161661D01*
X1026874Y1129756D02*
X1038685D01*
X1032780Y1123850D02*
Y1135661D01*
X621842Y690110D02*
X633654D01*
X627748Y684205D02*
Y696016D01*
X34244Y1493457D02*
X46055D01*
X40150Y1487551D02*
Y1499362D01*
X109146Y1570598D02*
X120957D01*
X115051Y1564693D02*
Y1576504D01*
X381874Y849756D02*
X393685D01*
X387780Y843850D02*
Y855661D01*
X168874Y987756D02*
X180685D01*
X174780Y981850D02*
Y993661D01*
X165874Y916756D02*
X177685D01*
X171780Y910850D02*
Y922661D01*
X166874Y1159756D02*
X178685D01*
X172780Y1153850D02*
Y1165661D01*
X171874Y1233756D02*
X183685D01*
X177780Y1227850D02*
Y1239661D01*
X794874Y382756D02*
X806685D01*
X800780Y376850D02*
Y388661D01*
X823874Y231756D02*
X835685D01*
X829780Y225850D02*
Y237661D01*
X2293874Y372756D02*
X2305685D01*
X2299780Y366850D02*
Y378661D01*
X2323874Y249756D02*
X2335685D01*
X2329780Y243850D02*
Y255661D01*
X2271874Y150756D02*
X2283685D01*
X2277780Y144850D02*
Y156661D01*
X2489874Y199756D02*
X2501685D01*
X2495780Y193850D02*
Y205661D01*
X2642874Y252756D02*
X2654685D01*
X2648780Y246850D02*
Y258661D01*
X2672874Y283756D02*
X2684685D01*
X2678780Y277850D02*
Y289661D01*
X2642095Y198000D02*
X2653905D01*
X2648000Y192095D02*
Y203905D01*
X2807874Y288756D02*
X2819685D01*
X2813780Y282850D02*
Y294661D01*
X2937874Y74756D02*
X2949685D01*
X2943780Y68850D02*
Y80661D01*
X3006874Y137756D02*
X3018685D01*
X3012780Y131850D02*
Y143661D01*
X3043874Y34756D02*
X3055685D01*
X3049780Y28850D02*
Y40661D01*
X2429724Y1599743D02*
X2441535D01*
X2435629Y1593837D02*
Y1605648D01*
X224874Y1571756D02*
X236685D01*
X230780Y1565850D02*
Y1577661D01*
X290709Y1572591D02*
X302520D01*
X296614Y1566685D02*
Y1578496D01*
X44874Y1999756D02*
X56685D01*
X50780Y1993850D02*
Y2005661D01*
X244874Y1999756D02*
X256685D01*
X250780Y1993850D02*
Y2005661D01*
X344874Y1999756D02*
X356685D01*
X350780Y1993850D02*
Y2005661D01*
X444874Y1999756D02*
X456685D01*
X450780Y1993850D02*
Y2005661D01*
X544874Y1999756D02*
X556685D01*
X550780Y1993850D02*
Y2005661D01*
X644874Y1999756D02*
X656685D01*
X650780Y1993850D02*
Y2005661D01*
X744874Y1999756D02*
X756685D01*
X750780Y1993850D02*
Y2005661D01*
X844874Y1999756D02*
X856685D01*
X850780Y1993850D02*
Y2005661D01*
X944874Y1999756D02*
X956685D01*
X950780Y1993850D02*
Y2005661D01*
X1044874Y1999756D02*
X1056685D01*
X1050780Y1993850D02*
Y2005661D01*
X1144874Y1999756D02*
X1156685D01*
X1150780Y1993850D02*
Y2005661D01*
X1244874Y1999756D02*
X1256685D01*
X1250780Y1993850D02*
Y2005661D01*
X1344874Y1999756D02*
X1356685D01*
X1350780Y1993850D02*
Y2005661D01*
X1444874Y1999756D02*
X1456685D01*
X1450780Y1993850D02*
Y2005661D01*
X1544874Y1999756D02*
X1556685D01*
X1550780Y1993850D02*
Y2005661D01*
X1644874Y1999756D02*
X1656685D01*
X1650780Y1993850D02*
Y2005661D01*
X1744874Y1999756D02*
X1756685D01*
X1750780Y1993850D02*
Y2005661D01*
X1844874Y1999756D02*
X1856685D01*
X1850780Y1993850D02*
Y2005661D01*
X1944874Y1999756D02*
X1956685D01*
X1950780Y1993850D02*
Y2005661D01*
X2044874Y1999756D02*
X2056685D01*
X2050780Y1993850D02*
Y2005661D01*
X2244874Y1999756D02*
X2256685D01*
X2250780Y1993850D02*
Y2005661D01*
X2344874Y1999756D02*
X2356685D01*
X2350780Y1993850D02*
Y2005661D01*
X2444874Y1999756D02*
X2456685D01*
X2450780Y1993850D02*
Y2005661D01*
X2544874Y1999756D02*
X2556685D01*
X2550780Y1993850D02*
Y2005661D01*
X2644874Y1999756D02*
X2656685D01*
X2650780Y1993850D02*
Y2005661D01*
X2744874Y1999756D02*
X2756685D01*
X2750780Y1993850D02*
Y2005661D01*
X2844874Y1999756D02*
X2856685D01*
X2850780Y1993850D02*
Y2005661D01*
X2944874Y1999756D02*
X2956685D01*
X2950780Y1993850D02*
Y2005661D01*
X3044874Y1999756D02*
X3056685D01*
X3050780Y1993850D02*
Y2005661D01*
X3144874Y1999756D02*
X3156685D01*
X3150780Y1993850D02*
Y2005661D01*
X3244874Y1999756D02*
X3256685D01*
X3250780Y1993850D02*
Y2005661D01*
X3344874Y1999756D02*
X3356685D01*
X3350780Y1993850D02*
Y2005661D01*
X3444874Y1999756D02*
X3456685D01*
X3450780Y1993850D02*
Y2005661D01*
X3544874Y1999756D02*
X3556685D01*
X3550780Y1993850D02*
Y2005661D01*
X3794874Y1999756D02*
X3806685D01*
X3800780Y1993850D02*
Y2005661D01*
X3544874Y1899756D02*
X3556685D01*
X3550780Y1893850D02*
Y1905661D01*
X3444874Y1899756D02*
X3456685D01*
X3450780Y1893850D02*
Y1905661D01*
X3344874Y1899756D02*
X3356685D01*
X3350780Y1893850D02*
Y1905661D01*
X3244874Y1899756D02*
X3256685D01*
X3250780Y1893850D02*
Y1905661D01*
X3144874Y1899756D02*
X3156685D01*
X3150780Y1893850D02*
Y1905661D01*
X2244874Y1899756D02*
X2256685D01*
X2250780Y1893850D02*
Y1905661D01*
X2044874Y1899756D02*
X2056685D01*
X2050780Y1893850D02*
Y1905661D01*
X344874Y1799756D02*
X356685D01*
X350780Y1793850D02*
Y1805661D01*
X44874Y1699756D02*
X56685D01*
X50780Y1693850D02*
Y1705661D01*
X244874Y1699756D02*
X256685D01*
X250780Y1693850D02*
Y1705661D01*
X744874Y1799756D02*
X756685D01*
X750780Y1793850D02*
Y1805661D01*
X44874Y49756D02*
X56685D01*
X50780Y43850D02*
Y55661D01*
X244874Y49756D02*
X256685D01*
X250780Y43850D02*
Y55661D01*
X344874Y49756D02*
X356685D01*
X350780Y43850D02*
Y55661D01*
X444874Y49756D02*
X456685D01*
X450780Y43850D02*
Y55661D01*
X544874Y49756D02*
X556685D01*
X550780Y43850D02*
Y55661D01*
X744874Y49756D02*
X756685D01*
X750780Y43850D02*
Y55661D01*
X844874Y49756D02*
X856685D01*
X850780Y43850D02*
Y55661D01*
X944874Y49756D02*
X956685D01*
X950780Y43850D02*
Y55661D01*
X1044874Y49756D02*
X1056685D01*
X1050780Y43850D02*
Y55661D01*
X1144874Y49756D02*
X1156685D01*
X1150780Y43850D02*
Y55661D01*
X1244874Y49756D02*
X1256685D01*
X1250780Y43850D02*
Y55661D01*
X1344874Y49756D02*
X1356685D01*
X1350780Y43850D02*
Y55661D01*
X1444874Y49756D02*
X1456685D01*
X1450780Y43850D02*
Y55661D01*
X1544874Y49756D02*
X1556685D01*
X1550780Y43850D02*
Y55661D01*
X1644874Y49756D02*
X1656685D01*
X1650780Y43850D02*
Y55661D01*
X1744874Y49756D02*
X1756685D01*
X1750780Y43850D02*
Y55661D01*
X1844874Y49756D02*
X1856685D01*
X1850780Y43850D02*
Y55661D01*
X1944874Y49756D02*
X1956685D01*
X1950780Y43850D02*
Y55661D01*
X2044874Y49756D02*
X2056685D01*
X2050780Y43850D02*
Y55661D01*
X2144874Y49756D02*
X2156685D01*
X2150780Y43850D02*
Y55661D01*
X2244874Y49756D02*
X2256685D01*
X2250780Y43850D02*
Y55661D01*
X2344874Y49756D02*
X2356685D01*
X2350780Y43850D02*
Y55661D01*
X2444874Y49756D02*
X2456685D01*
X2450780Y43850D02*
Y55661D01*
X2544874Y49756D02*
X2556685D01*
X2550780Y43850D02*
Y55661D01*
X2744874Y49756D02*
X2756685D01*
X2750780Y43850D02*
Y55661D01*
X3794874Y49756D02*
X3806685D01*
X3800780Y43850D02*
Y55661D01*
X3594874Y49756D02*
X3606685D01*
X3600780Y43850D02*
Y55661D01*
X3494874Y49756D02*
X3506685D01*
X3500780Y43850D02*
Y55661D01*
X3494874Y149756D02*
X3506685D01*
X3500780Y143850D02*
Y155661D01*
X3494874Y249756D02*
X3506685D01*
X3500780Y243850D02*
Y255661D01*
X3494874Y349756D02*
X3506685D01*
X3500780Y343850D02*
Y355661D01*
X3594874Y349756D02*
X3606685D01*
X3600780Y343850D02*
Y355661D01*
X3394874Y349756D02*
X3406685D01*
X3400780Y343850D02*
Y355661D01*
X3294874Y349756D02*
X3306685D01*
X3300780Y343850D02*
Y355661D01*
X3294874Y149756D02*
X3306685D01*
X3300780Y143850D02*
Y155661D01*
X3094874Y249756D02*
X3106685D01*
X3100780Y243850D02*
Y255661D01*
X2894874Y249756D02*
X2906685D01*
X2900780Y243850D02*
Y255661D01*
X2894874Y149756D02*
X2906685D01*
X2900780Y143850D02*
Y155661D01*
X1544874Y149756D02*
X1556685D01*
X1550780Y143850D02*
Y155661D01*
X1644874Y149756D02*
X1656685D01*
X1650780Y143850D02*
Y155661D01*
X1744874Y149756D02*
X1756685D01*
X1750780Y143850D02*
Y155661D01*
X1844874Y149756D02*
X1856685D01*
X1850780Y143850D02*
Y155661D01*
X1784094Y235000D02*
X1795906D01*
X1790000Y229095D02*
Y240905D01*
X344874Y149756D02*
X356685D01*
X350780Y143850D02*
Y155661D01*
X344874Y249756D02*
X356685D01*
X350780Y243850D02*
Y255661D01*
X344874Y349756D02*
X356685D01*
X350780Y343850D02*
Y355661D01*
X244874Y349756D02*
X256685D01*
X250780Y343850D02*
Y355661D01*
X144874Y349756D02*
X156685D01*
X150780Y343850D02*
Y355661D01*
X44874Y349756D02*
X56685D01*
X50780Y343850D02*
Y355661D01*
X44874Y249756D02*
X56685D01*
X50780Y243850D02*
Y255661D01*
X44874Y449756D02*
X56685D01*
X50780Y443850D02*
Y455661D01*
X144874Y449756D02*
X156685D01*
X150780Y443850D02*
Y455661D01*
X244874Y449756D02*
X256685D01*
X250780Y443850D02*
Y455661D01*
X144874Y549756D02*
X156685D01*
X150780Y543850D02*
Y555661D01*
X44874Y549756D02*
X56685D01*
X50780Y543850D02*
Y555661D01*
X44874Y649756D02*
X56685D01*
X50780Y643850D02*
Y655661D01*
X144874Y649756D02*
X156685D01*
X150780Y643850D02*
Y655661D01*
X144874Y749756D02*
X156685D01*
X150780Y743850D02*
Y755661D01*
X44874Y749756D02*
X56685D01*
X50780Y743850D02*
Y755661D01*
X344874Y549756D02*
X356685D01*
X350780Y543850D02*
Y555661D01*
X344874Y649756D02*
X356685D01*
X350780Y643850D02*
Y655661D01*
X344874Y749756D02*
X356685D01*
X350780Y743850D02*
Y755661D01*
X444874Y649756D02*
X456685D01*
X450780Y643850D02*
Y655661D01*
X444874Y549756D02*
X456685D01*
X450780Y543850D02*
Y555661D01*
X794874Y899756D02*
X806685D01*
X800780Y893850D02*
Y905661D01*
X894874Y899756D02*
X906685D01*
X900780Y893850D02*
Y905661D01*
X894874Y999756D02*
X906685D01*
X900780Y993850D02*
Y1005661D01*
X794874Y999756D02*
X806685D01*
X800780Y993850D02*
Y1005661D01*
X894874Y1099756D02*
X906685D01*
X900780Y1093850D02*
Y1105661D01*
X794874Y1099756D02*
X806685D01*
X800780Y1093850D02*
Y1105661D01*
X2644874Y1049756D02*
X2656685D01*
X2650780Y1043850D02*
Y1055661D01*
X2894874Y849756D02*
X2906685D01*
X2900780Y843850D02*
Y855661D01*
X2794874Y849756D02*
X2806685D01*
X2800780Y843850D02*
Y855661D01*
X2294874Y1599756D02*
X2306685D01*
X2300780Y1593850D02*
Y1605661D01*
X1894094Y1700000D02*
X1905906D01*
X1900000Y1694094D02*
Y1705906D01*
X1994874Y1599756D02*
X2006685D01*
X2000780Y1593850D02*
Y1605661D01*
X498874Y1791756D02*
X510685D01*
X504780Y1785850D02*
Y1797661D01*
X1021874Y1682756D02*
X1033685D01*
X1027780Y1676850D02*
Y1688661D01*
X1401874Y1286756D02*
X1413685D01*
X1407780Y1280850D02*
Y1292661D01*
X1542874Y1519756D02*
X1554685D01*
X1548780Y1513850D02*
Y1525661D01*
X1643874Y1383756D02*
X1655685D01*
X1649780Y1377850D02*
Y1389661D01*
X2210874Y1453756D02*
X2222685D01*
X2216780Y1447850D02*
Y1459661D01*
X2466095Y1600000D02*
X2477905D01*
X2472000Y1594094D02*
Y1605906D01*
X2082095Y965000D02*
X2093905D01*
X2088000Y959095D02*
Y970905D01*
X2151874Y150756D02*
X2163685D01*
X2157780Y144850D02*
Y156661D01*
X1905874Y148756D02*
X1917685D01*
X1911780Y142850D02*
Y154661D01*
X944874Y802041D02*
X956685D01*
X950780Y796136D02*
Y807947D01*
X2743874Y411756D02*
X2755685D01*
X2749780Y405850D02*
Y417661D01*
X2669874Y412756D02*
X2681685D01*
X2675780Y406850D02*
Y418661D01*
X2644095Y480000D02*
X2655905D01*
X2650000Y474094D02*
Y485906D01*
X3226874Y349756D02*
X3238685D01*
X3232780Y343850D02*
Y355661D01*
X3228874Y295756D02*
X3240685D01*
X3234780Y289850D02*
Y301661D01*
X449874Y1406756D02*
X461685D01*
X455780Y1400850D02*
Y1412661D01*
X478874Y1371756D02*
X490685D01*
X484780Y1365850D02*
Y1377661D01*
X326874Y1349756D02*
X338685D01*
X332780Y1343850D02*
Y1355661D01*
X354874Y1316756D02*
X366685D01*
X360780Y1310850D02*
Y1322661D01*
X2733874Y135756D02*
X2745685D01*
X2739780Y129850D02*
Y141661D01*
X2733874Y805756D02*
X2745685D01*
X2739780Y799850D02*
Y811661D01*
X2544095Y480000D02*
X2555905D01*
X2550000Y474094D02*
Y485906D01*
X1089370Y1102362D02*
X1109055D01*
X1099213Y1092520D02*
Y1112205D01*
X397292Y728985D02*
X416977D01*
X407134Y719142D02*
Y738827D01*
X2408095Y374000D02*
X2419905D01*
X2414000Y368094D02*
Y379906D01*
X218095Y1471000D02*
X229905D01*
X224000Y1465094D02*
Y1476906D01*
X245595Y1471000D02*
X257406D01*
X251500Y1465094D02*
Y1476906D01*
X273094Y1471000D02*
X284906D01*
X279000Y1465094D02*
Y1476906D01*
X1187296Y1447746D02*
X1199107D01*
X1193202Y1441841D02*
Y1453651D01*
X2408095Y412000D02*
X2419905D01*
X2414000Y406094D02*
Y417906D01*
X321158Y1237000D02*
X340842D01*
X331000Y1227158D02*
Y1246842D01*
X1076158Y1427000D02*
X1095842D01*
X1086000Y1417158D02*
Y1436842D01*
X621063Y728346D02*
X632874D01*
X626968Y722441D02*
Y734252D01*
X368698Y1603072D02*
X380509D01*
X374604Y1597166D02*
Y1608977D01*
X393711Y1603072D02*
X405522D01*
X399616Y1597166D02*
Y1608977D01*
X397316Y432000D02*
X417001D01*
X407158Y422158D02*
Y441842D01*
X2728690Y864105D02*
X2740501D01*
X2734595Y858199D02*
Y870010D01*
X2159448Y1086923D02*
X2171259D01*
X2165354Y1081018D02*
Y1092829D01*
X2198095Y1124000D02*
X2209905D01*
X2204000Y1118094D02*
Y1129906D01*
X1860094Y1052134D02*
X1871906D01*
X1866000Y1046228D02*
Y1058039D01*
X1318898Y1169291D02*
X1330709D01*
X1324803Y1163386D02*
Y1175197D01*
X802095Y690000D02*
X813905D01*
X808000Y684095D02*
Y695905D01*
X1069934Y961661D02*
X1081745D01*
X1075840Y955756D02*
Y967567D01*
X1035386Y758858D02*
X1055071D01*
X1045228Y749016D02*
Y768701D01*
X1231398Y947543D02*
X1251083D01*
X1241240Y937701D02*
Y957386D01*
X1168307Y1085186D02*
X1180118D01*
X1174213Y1079281D02*
Y1091091D01*
X1168307Y900000D02*
X1180118D01*
X1174213Y894095D02*
Y905905D01*
X1214242Y877215D02*
X1226053D01*
X1220148Y871309D02*
Y883120D01*
X2648921Y823000D02*
X2660732D01*
X2654827Y817095D02*
Y828905D01*
X1045866Y1261373D02*
X1057677D01*
X1051772Y1255468D02*
Y1267279D01*
X789370Y246139D02*
X801181D01*
X795276Y240234D02*
Y252045D01*
X691095Y246139D02*
X702905D01*
X697000Y240234D02*
Y252045D01*
X658095Y246139D02*
X669905D01*
X664000Y240234D02*
Y252045D01*
X724095Y246139D02*
X735905D01*
X730000Y240234D02*
Y252045D01*
X1740094Y899898D02*
X1751906D01*
X1746000Y893992D02*
Y905803D01*
X1902094Y899898D02*
X1913906D01*
X1908000Y893992D02*
Y905803D01*
X785433Y541765D02*
X805118D01*
X795276Y531923D02*
Y551608D01*
X1720473Y809055D02*
X1732284D01*
X1726378Y803150D02*
Y814961D01*
X378929Y1722047D02*
X398614D01*
X388772Y1712205D02*
Y1731890D01*
X2106095Y1533000D02*
X2117905D01*
X2112000Y1527094D02*
Y1538906D01*
X1364157Y1839819D02*
X1375968D01*
X1370063Y1833914D02*
Y1845725D01*
X865749Y1451000D02*
X877560D01*
X871654Y1445094D02*
Y1456906D01*
X351227Y1129553D02*
X363038D01*
X357132Y1123647D02*
Y1135458D01*
X268094Y1361192D02*
X279906D01*
X274000Y1355287D02*
Y1367098D01*
X268094Y1331385D02*
X279906D01*
X274000Y1325479D02*
Y1337290D01*
X502094Y1686000D02*
X513905D01*
X508000Y1680094D02*
Y1691906D01*
X310094Y1000000D02*
X321906D01*
X316000Y994095D02*
Y1005905D01*
X656496Y341000D02*
X676181D01*
X666338Y331158D02*
Y350842D01*
X660433Y383251D02*
X672244D01*
X666338Y377345D02*
Y389156D01*
X624705Y383251D02*
X636516D01*
X630610Y377345D02*
Y389156D01*
X588976Y383251D02*
X600787D01*
X594882Y377345D02*
Y389156D01*
X1406463Y1839819D02*
X1418274D01*
X1412368Y1833914D02*
Y1845725D01*
X1406463Y1889000D02*
X1418274D01*
X1412368Y1883094D02*
Y1894906D01*
X1364157Y1889000D02*
X1375968D01*
X1370063Y1883094D02*
Y1894906D01*
X1321852Y1839819D02*
X1333663D01*
X1327757Y1833914D02*
Y1845725D01*
X1321852Y1889000D02*
X1333663D01*
X1327757Y1883094D02*
Y1894906D01*
X2679095Y1730806D02*
X2690905D01*
X2685000Y1724900D02*
Y1736711D01*
X1132874Y1878051D02*
X1144685D01*
X1138780Y1872146D02*
Y1883957D01*
X1132874Y1827756D02*
X1144685D01*
X1138780Y1821850D02*
Y1833661D01*
X724095Y204159D02*
X735905D01*
X730000Y198253D02*
Y210064D01*
X1041094Y1544000D02*
X1052906D01*
X1047000Y1538094D02*
Y1549906D01*
X1041094Y1580333D02*
X1052906D01*
X1047000Y1574428D02*
Y1586239D01*
X1041094Y1616667D02*
X1052906D01*
X1047000Y1610761D02*
Y1622572D01*
X1041094Y1653000D02*
X1052906D01*
X1047000Y1647094D02*
Y1658905D01*
X691095Y204159D02*
X702905D01*
X697000Y198253D02*
Y210064D01*
X658095Y204159D02*
X669905D01*
X664000Y198253D02*
Y210064D01*
X3076379Y137865D02*
X3088190D01*
X3082284Y131960D02*
Y143771D01*
X3132095Y323000D02*
X3143905D01*
X3138000Y317094D02*
Y328906D01*
X514961Y1371535D02*
X526772D01*
X520866Y1365630D02*
Y1377440D01*
X3165077Y287402D02*
X3176888D01*
X3170983Y281496D02*
Y293307D01*
X2094095Y1493977D02*
X2105905D01*
X2100000Y1488071D02*
Y1499882D01*
X2395401Y1493976D02*
X2407212D01*
X2401306Y1488070D02*
Y1499881D01*
X2395401Y1531234D02*
X2407212D01*
X2401306Y1525328D02*
Y1537139D01*
X565988Y1331226D02*
X577799D01*
X571894Y1325321D02*
Y1337131D01*
X268094Y1391000D02*
X279906D01*
X274000Y1385094D02*
Y1396906D01*
X309545Y1125000D02*
X321356D01*
X315450Y1119094D02*
Y1130905D01*
X309255Y1094566D02*
X321066D01*
X315160Y1088660D02*
Y1100471D01*
X453094Y1124016D02*
X464906D01*
X459000Y1118110D02*
Y1129921D01*
X424234Y956740D02*
X436045D01*
X430139Y950834D02*
Y962645D01*
X743675Y1016707D02*
X755486D01*
X749581Y1010801D02*
Y1022612D01*
X1196063Y1125000D02*
X1207874D01*
X1201968Y1119094D02*
Y1130906D01*
X1348425Y1169291D02*
X1360236D01*
X1354331Y1163386D02*
Y1175197D01*
X1045866Y1216535D02*
X1057677D01*
X1051772Y1210630D02*
Y1222441D01*
X2557059Y393701D02*
X2568869D01*
X2562964Y387795D02*
Y399606D01*
X2558071Y285796D02*
X2569882D01*
X2563976Y279891D02*
Y291702D01*
X897638Y1374213D02*
X909449D01*
X903543Y1368307D02*
Y1380118D01*
%TF.MD5,89e571961ffb6c6e6bc91d6f63db63cc*%
M02*
