%TF.GenerationSoftware,Altium Limited,Altium Designer,20.1.11 (218)*%
G04 Layer_Physical_Order=1*
G04 Layer_Color=255*
%FSLAX26Y26*%
%MOIN*%
%TF.SameCoordinates,27E64F16-BD7F-4648-91A1-9AE93EB88D02*%
%TF.FilePolarity,Positive*%
%TF.FileFunction,Copper,L1,Top,Signal*%
%TF.Part,Single*%
G01*
G75*
%TA.AperFunction,Conductor*%
%ADD10C,0.006000*%
%TA.AperFunction,NonConductor*%
%ADD11C,0.006000*%
%TA.AperFunction,SMDPad,CuDef*%
G04:AMPARAMS|DCode=12|XSize=24.409mil|YSize=22.441mil|CornerRadius=5.61mil|HoleSize=0mil|Usage=FLASHONLY|Rotation=0.000|XOffset=0mil|YOffset=0mil|HoleType=Round|Shape=RoundedRectangle|*
%AMROUNDEDRECTD12*
21,1,0.024409,0.011220,0,0,0.0*
21,1,0.013189,0.022441,0,0,0.0*
1,1,0.011220,0.006594,-0.005610*
1,1,0.011220,-0.006594,-0.005610*
1,1,0.011220,-0.006594,0.005610*
1,1,0.011220,0.006594,0.005610*
%
%ADD12ROUNDEDRECTD12*%
%ADD13R,0.025591X0.047244*%
%ADD14O,0.011811X0.070866*%
%ADD15O,0.070866X0.011811*%
%ADD16C,0.007874*%
G04:AMPARAMS|DCode=17|XSize=24.409mil|YSize=22.441mil|CornerRadius=5.61mil|HoleSize=0mil|Usage=FLASHONLY|Rotation=90.000|XOffset=0mil|YOffset=0mil|HoleType=Round|Shape=RoundedRectangle|*
%AMROUNDEDRECTD17*
21,1,0.024409,0.011220,0,0,90.0*
21,1,0.013189,0.022441,0,0,90.0*
1,1,0.011220,0.005610,0.006594*
1,1,0.011220,0.005610,-0.006594*
1,1,0.011220,-0.005610,-0.006594*
1,1,0.011220,-0.005610,0.006594*
%
%ADD17ROUNDEDRECTD17*%
G04:AMPARAMS|DCode=18|XSize=25.984mil|YSize=22.835mil|CornerRadius=5.709mil|HoleSize=0mil|Usage=FLASHONLY|Rotation=180.000|XOffset=0mil|YOffset=0mil|HoleType=Round|Shape=RoundedRectangle|*
%AMROUNDEDRECTD18*
21,1,0.025984,0.011417,0,0,180.0*
21,1,0.014567,0.022835,0,0,180.0*
1,1,0.011417,-0.007284,0.005709*
1,1,0.011417,0.007284,0.005709*
1,1,0.011417,0.007284,-0.005709*
1,1,0.011417,-0.007284,-0.005709*
%
%ADD18ROUNDEDRECTD18*%
%ADD19R,0.045276X0.029528*%
%ADD20R,0.037402X0.055118*%
G04:AMPARAMS|DCode=21|XSize=44.488mil|YSize=96.063mil|CornerRadius=11.122mil|HoleSize=0mil|Usage=FLASHONLY|Rotation=0.000|XOffset=0mil|YOffset=0mil|HoleType=Round|Shape=RoundedRectangle|*
%AMROUNDEDRECTD21*
21,1,0.044488,0.073819,0,0,0.0*
21,1,0.022244,0.096063,0,0,0.0*
1,1,0.022244,0.011122,-0.036910*
1,1,0.022244,-0.011122,-0.036910*
1,1,0.022244,-0.011122,0.036910*
1,1,0.022244,0.011122,0.036910*
%
%ADD21ROUNDEDRECTD21*%
%ADD22R,0.016535X0.008661*%
G04:AMPARAMS|DCode=23|XSize=15.748mil|YSize=53.15mil|CornerRadius=3.937mil|HoleSize=0mil|Usage=FLASHONLY|Rotation=270.000|XOffset=0mil|YOffset=0mil|HoleType=Round|Shape=RoundedRectangle|*
%AMROUNDEDRECTD23*
21,1,0.015748,0.045276,0,0,270.0*
21,1,0.007874,0.053150,0,0,270.0*
1,1,0.007874,-0.022638,-0.003937*
1,1,0.007874,-0.022638,0.003937*
1,1,0.007874,0.022638,0.003937*
1,1,0.007874,0.022638,-0.003937*
%
%ADD23ROUNDEDRECTD23*%
%ADD24R,0.046457X0.024016*%
G04:AMPARAMS|DCode=25|XSize=39.37mil|YSize=55.118mil|CornerRadius=9.842mil|HoleSize=0mil|Usage=FLASHONLY|Rotation=90.000|XOffset=0mil|YOffset=0mil|HoleType=Round|Shape=RoundedRectangle|*
%AMROUNDEDRECTD25*
21,1,0.039370,0.035433,0,0,90.0*
21,1,0.019685,0.055118,0,0,90.0*
1,1,0.019685,0.017717,0.009843*
1,1,0.019685,0.017717,-0.009843*
1,1,0.019685,-0.017717,-0.009843*
1,1,0.019685,-0.017717,0.009843*
%
%ADD25ROUNDEDRECTD25*%
G04:AMPARAMS|DCode=26|XSize=25.984mil|YSize=22.835mil|CornerRadius=5.709mil|HoleSize=0mil|Usage=FLASHONLY|Rotation=270.000|XOffset=0mil|YOffset=0mil|HoleType=Round|Shape=RoundedRectangle|*
%AMROUNDEDRECTD26*
21,1,0.025984,0.011417,0,0,270.0*
21,1,0.014567,0.022835,0,0,270.0*
1,1,0.011417,-0.005709,-0.007284*
1,1,0.011417,-0.005709,0.007284*
1,1,0.011417,0.005709,0.007284*
1,1,0.011417,0.005709,-0.007284*
%
%ADD26ROUNDEDRECTD26*%
G04:AMPARAMS|DCode=27|XSize=17.716mil|YSize=47.244mil|CornerRadius=1.949mil|HoleSize=0mil|Usage=FLASHONLY|Rotation=0.000|XOffset=0mil|YOffset=0mil|HoleType=Round|Shape=RoundedRectangle|*
%AMROUNDEDRECTD27*
21,1,0.017716,0.043346,0,0,0.0*
21,1,0.013819,0.047244,0,0,0.0*
1,1,0.003898,0.006910,-0.021673*
1,1,0.003898,-0.006910,-0.021673*
1,1,0.003898,-0.006910,0.021673*
1,1,0.003898,0.006910,0.021673*
%
%ADD27ROUNDEDRECTD27*%
%ADD28R,0.039370X0.013000*%
%ADD29R,0.035433X0.025591*%
%ADD30R,0.039370X0.009840*%
%ADD31R,0.023620X0.053150*%
%ADD32R,0.027559X0.025591*%
%ADD33R,0.047240X0.078740*%
G04:AMPARAMS|DCode=34|XSize=46.26mil|YSize=74.803mil|CornerRadius=11.565mil|HoleSize=0mil|Usage=FLASHONLY|Rotation=90.000|XOffset=0mil|YOffset=0mil|HoleType=Round|Shape=RoundedRectangle|*
%AMROUNDEDRECTD34*
21,1,0.046260,0.051673,0,0,90.0*
21,1,0.023130,0.074803,0,0,90.0*
1,1,0.023130,0.025837,0.011565*
1,1,0.023130,0.025837,-0.011565*
1,1,0.023130,-0.025837,-0.011565*
1,1,0.023130,-0.025837,0.011565*
%
%ADD34ROUNDEDRECTD34*%
G04:AMPARAMS|DCode=35|XSize=70.866mil|YSize=74.803mil|CornerRadius=17.716mil|HoleSize=0mil|Usage=FLASHONLY|Rotation=270.000|XOffset=0mil|YOffset=0mil|HoleType=Round|Shape=RoundedRectangle|*
%AMROUNDEDRECTD35*
21,1,0.070866,0.039370,0,0,270.0*
21,1,0.035433,0.074803,0,0,270.0*
1,1,0.035433,-0.019685,-0.017717*
1,1,0.035433,-0.019685,0.017717*
1,1,0.035433,0.019685,0.017717*
1,1,0.035433,0.019685,-0.017717*
%
%ADD35ROUNDEDRECTD35*%
%ADD36C,0.039370*%
%TA.AperFunction,Conductor*%
%ADD37C,0.007874*%
%ADD38C,0.019685*%
%ADD39C,0.039370*%
%ADD40C,0.008000*%
%ADD41C,0.020000*%
%ADD42C,0.010000*%
%ADD43C,0.023622*%
%TA.AperFunction,NonConductor*%
%ADD44C,0.008000*%
%TA.AperFunction,Conductor*%
%ADD45C,0.011811*%
%ADD46C,0.013780*%
%ADD47C,0.031496*%
%ADD48C,0.011024*%
%ADD49C,0.009842*%
%ADD50C,0.005906*%
%ADD51R,0.100000X0.085000*%
%ADD52R,0.060000X0.150000*%
%ADD53R,0.095000X0.060000*%
%ADD54R,0.060000X0.165000*%
%ADD55R,0.060000X0.115000*%
%ADD56R,0.055000X0.130000*%
%ADD57R,0.145000X0.050000*%
%TA.AperFunction,ComponentPad*%
%ADD58C,0.055118*%
%ADD59C,0.059055*%
%ADD60C,0.244095*%
%ADD61R,0.059055X0.059055*%
%ADD62C,0.040000*%
%ADD63C,0.165354*%
G04:AMPARAMS|DCode=64|XSize=74.803mil|YSize=59.055mil|CornerRadius=14.764mil|HoleSize=0mil|Usage=FLASHONLY|Rotation=0.000|XOffset=0mil|YOffset=0mil|HoleType=Round|Shape=RoundedRectangle|*
%AMROUNDEDRECTD64*
21,1,0.074803,0.029527,0,0,0.0*
21,1,0.045276,0.059055,0,0,0.0*
1,1,0.029528,0.022638,-0.014764*
1,1,0.029528,-0.022638,-0.014764*
1,1,0.029528,-0.022638,0.014764*
1,1,0.029528,0.022638,0.014764*
%
%ADD64ROUNDEDRECTD64*%
%ADD65O,0.047244X0.035433*%
%ADD66R,0.059055X0.059055*%
%TA.AperFunction,ViaPad*%
%ADD67C,0.023622*%
%ADD68C,0.039370*%
G36*
X3843536Y1606545D02*
X3838536Y1606053D01*
X3836715Y1615208D01*
X3828100Y1628100D01*
X3815208Y1636715D01*
X3814428Y1636870D01*
Y1643196D01*
X3818231Y1645738D01*
X3821559Y1650719D01*
X3822728Y1656595D01*
Y1667815D01*
X3821559Y1673691D01*
X3818231Y1678672D01*
Y1683533D01*
X3821559Y1688514D01*
X3822728Y1694390D01*
Y1705610D01*
X3821559Y1711486D01*
X3818231Y1716467D01*
X3813250Y1719795D01*
X3807374Y1720964D01*
X3799117D01*
X3758430Y1761651D01*
X3755497Y1763611D01*
X3755183Y1768504D01*
X3755403Y1769229D01*
X3774504Y1779439D01*
X3794611Y1795941D01*
X3811112Y1816047D01*
X3823373Y1838987D01*
X3830924Y1863878D01*
X3832981Y1884764D01*
X3568594D01*
X3570651Y1863878D01*
X3578201Y1838987D01*
X3590463Y1816047D01*
X3606964Y1795941D01*
X3627071Y1779439D01*
X3643518Y1770648D01*
X3642266Y1765648D01*
X3212453D01*
X3037451Y1940651D01*
X3033023Y1943609D01*
X3027800Y1944648D01*
X2381000D01*
X2375777Y1943609D01*
X2371349Y1940651D01*
X2239347Y1808648D01*
X1509752D01*
X1504529Y1807609D01*
X1500101Y1804651D01*
X1404387Y1708936D01*
X1399767Y1710850D01*
Y1795470D01*
X1430272Y1795470D01*
X1437504Y1798466D01*
X1447679Y1808641D01*
X1450675Y1815872D01*
X1450674Y1903805D01*
X1449133Y1907527D01*
X1447679Y1911037D01*
X1437341Y1921375D01*
X1437341Y1921376D01*
X1437341Y1921376D01*
X1433832Y1922829D01*
X1430110Y1924371D01*
X1430109Y1924371D01*
X1430109Y1924371D01*
X1308267Y1924371D01*
X1301036Y1921376D01*
X1295271Y1920525D01*
X1258467Y1957330D01*
X1248830Y1963769D01*
X1237463Y1966030D01*
X1093382D01*
X1082014Y1963769D01*
X1072378Y1957330D01*
X1035608Y1920560D01*
X1029168Y1910923D01*
X1026907Y1899555D01*
Y1838041D01*
X1026157Y1834269D01*
Y1751396D01*
Y1722047D01*
X1028418Y1710680D01*
X1034857Y1701043D01*
X1054174Y1681726D01*
X1053957Y1677795D01*
X1049340Y1674211D01*
X1047000Y1674676D01*
X1038705Y1673026D01*
X1031672Y1668327D01*
X1030550Y1666648D01*
X976356D01*
X942808Y1700197D01*
X943441Y1706633D01*
X943633Y1706761D01*
X946961Y1711743D01*
X948130Y1717618D01*
Y1728839D01*
X946961Y1734714D01*
X943633Y1739695D01*
Y1744557D01*
X946961Y1749538D01*
X948130Y1755413D01*
Y1766634D01*
X946961Y1772509D01*
X945850Y1774171D01*
Y1790758D01*
X951425Y1791867D01*
X957806Y1796131D01*
X962070Y1802512D01*
X963567Y1810039D01*
Y1829724D01*
X962070Y1837251D01*
X957806Y1843632D01*
X951425Y1847896D01*
X943898Y1849393D01*
X908465D01*
X900938Y1847896D01*
X894556Y1843632D01*
X890293Y1837251D01*
X888795Y1829724D01*
Y1810039D01*
X890293Y1802512D01*
X894556Y1796131D01*
X900938Y1791867D01*
X906512Y1790758D01*
Y1774171D01*
X905401Y1772509D01*
X904233Y1766634D01*
Y1755413D01*
X905401Y1749538D01*
X908730Y1744557D01*
Y1739695D01*
X905401Y1734714D01*
X904233Y1728839D01*
Y1717618D01*
X905345Y1712028D01*
X905128Y1711718D01*
X900532Y1709769D01*
X878603Y1731698D01*
X874176Y1734656D01*
X868953Y1735695D01*
X826422D01*
X825070Y1737718D01*
X824538Y1741109D01*
Y1743376D01*
X827866Y1748357D01*
X829035Y1754232D01*
Y1765453D01*
X827866Y1771328D01*
X826756Y1772990D01*
Y1790759D01*
X832330Y1791867D01*
X838711Y1796131D01*
X842975Y1802512D01*
X844472Y1810039D01*
Y1829724D01*
X842975Y1837252D01*
X838711Y1843633D01*
X832330Y1847896D01*
X824803Y1849394D01*
X789370D01*
X781843Y1847896D01*
X775462Y1843633D01*
X771198Y1837252D01*
X769701Y1829724D01*
Y1810039D01*
X771198Y1802512D01*
X775462Y1796131D01*
X781843Y1791867D01*
X787417Y1790759D01*
Y1772990D01*
X786307Y1771328D01*
X785138Y1765453D01*
Y1754232D01*
X786307Y1748357D01*
X789635Y1743376D01*
Y1738514D01*
X786307Y1733533D01*
X785138Y1727658D01*
Y1716437D01*
X785473Y1714751D01*
X782302Y1710886D01*
X719636D01*
X710925Y1719597D01*
Y1727854D01*
X709756Y1733730D01*
X706428Y1738711D01*
Y1743572D01*
X709756Y1748553D01*
X710925Y1754429D01*
Y1765649D01*
X709756Y1771525D01*
X708646Y1773187D01*
Y1790759D01*
X714220Y1791867D01*
X720601Y1796131D01*
X724865Y1802512D01*
X726362Y1810039D01*
Y1829724D01*
X724865Y1837252D01*
X720601Y1843633D01*
X714220Y1847896D01*
X706693Y1849394D01*
X671260D01*
X663733Y1847896D01*
X657352Y1843633D01*
X653088Y1837252D01*
X651591Y1829724D01*
Y1810039D01*
X653088Y1802512D01*
X657352Y1796131D01*
X663733Y1791867D01*
X669307Y1790759D01*
Y1773187D01*
X668197Y1771525D01*
X667028Y1765649D01*
Y1754429D01*
X668197Y1748553D01*
X671525Y1743572D01*
Y1738711D01*
X668197Y1733730D01*
X667028Y1727854D01*
Y1716634D01*
X668197Y1710758D01*
X671525Y1705777D01*
X676506Y1702449D01*
X682382Y1701280D01*
X688131D01*
X689350Y1699648D01*
X686843Y1694648D01*
X612645D01*
X586909Y1720384D01*
Y1727658D01*
X585740Y1733533D01*
X582412Y1738514D01*
Y1743376D01*
X585740Y1748357D01*
X586909Y1754232D01*
Y1765453D01*
X585740Y1771328D01*
X584630Y1772990D01*
Y1790758D01*
X590204Y1791867D01*
X596585Y1796131D01*
X600849Y1802512D01*
X602346Y1810039D01*
Y1829724D01*
X600849Y1837251D01*
X596585Y1843632D01*
X590204Y1847896D01*
X582677Y1849393D01*
X547244D01*
X539717Y1847896D01*
X533336Y1843632D01*
X529072Y1837251D01*
X527575Y1829724D01*
Y1810039D01*
X529072Y1802512D01*
X529493Y1801882D01*
X532000Y1798000D01*
X532000D01*
X532000Y1798000D01*
Y1773667D01*
X527000Y1770994D01*
X519685Y1775881D01*
X508000Y1778206D01*
X496315Y1775881D01*
X490428Y1771948D01*
X483000D01*
Y1805000D01*
X483000D01*
X481604Y1806701D01*
X482268Y1810039D01*
Y1829724D01*
X480770Y1837252D01*
X476507Y1843633D01*
X470125Y1847896D01*
X462598Y1849394D01*
X427165D01*
X419638Y1847896D01*
X413257Y1843633D01*
X408993Y1837252D01*
X407496Y1829724D01*
Y1810039D01*
X408993Y1802512D01*
X413257Y1796131D01*
X419638Y1791867D01*
X427165Y1790370D01*
X431234D01*
Y1778063D01*
X427430Y1775522D01*
X424102Y1770541D01*
X422933Y1764665D01*
Y1753445D01*
X424102Y1747569D01*
X424935Y1746323D01*
X422262Y1741323D01*
X410931D01*
X409776Y1743052D01*
X400139Y1749491D01*
X388772Y1751752D01*
X377404Y1749491D01*
X367767Y1743052D01*
X361328Y1733415D01*
X359067Y1722047D01*
X361328Y1710680D01*
X367767Y1701043D01*
X377404Y1694604D01*
X388772Y1692343D01*
X400139Y1694604D01*
X409776Y1701043D01*
X410405Y1701984D01*
X431634D01*
X432412Y1701465D01*
X438287Y1700296D01*
X451476D01*
X457352Y1701465D01*
X462333Y1704793D01*
X465662Y1709774D01*
X466830Y1715650D01*
Y1726870D01*
X465662Y1732746D01*
X462333Y1737727D01*
Y1739994D01*
X462866Y1743385D01*
X463712Y1744652D01*
X474982D01*
X478690Y1739652D01*
X478357Y1737978D01*
X478974Y1734877D01*
X478948Y1734871D01*
X479789Y1730644D01*
X480200Y1730030D01*
X486408Y1720738D01*
X494352Y1715430D01*
Y1702450D01*
X492673Y1701328D01*
X487974Y1694295D01*
X486324Y1686000D01*
X487974Y1677705D01*
X489978Y1674705D01*
X487306Y1669705D01*
X320000D01*
X308632Y1667444D01*
X298996Y1661004D01*
X271996Y1634004D01*
X265557Y1624367D01*
X263531Y1614186D01*
X249673Y1600328D01*
X244974Y1593295D01*
X243324Y1585000D01*
X243324Y1584999D01*
Y1529767D01*
X208786Y1529767D01*
X201554Y1526772D01*
X157361Y1482579D01*
X152753Y1485042D01*
X153481Y1488701D01*
X119173D01*
Y1454393D01*
X122832Y1455121D01*
X125296Y1450513D01*
X120992Y1446210D01*
X64668Y1446210D01*
X57436Y1443215D01*
X41981Y1427759D01*
X38985Y1420527D01*
X38985Y1340600D01*
X41981Y1333369D01*
X56842Y1318508D01*
X64073Y1315513D01*
X171664Y1315513D01*
X178896Y1318508D01*
X189799Y1329411D01*
X194799Y1327340D01*
X194799Y1225382D01*
X196073Y1222307D01*
X194356Y1219771D01*
X192362Y1218199D01*
X186264Y1219413D01*
X186263Y1219412D01*
X156989D01*
X155682Y1225983D01*
X150330Y1233992D01*
X142321Y1239343D01*
X132874Y1241222D01*
X87599D01*
X78151Y1239343D01*
X70142Y1233992D01*
X64791Y1225983D01*
X62912Y1216535D01*
Y1187008D01*
X64194Y1180561D01*
X62974Y1174429D01*
Y1151299D01*
X64605Y1143100D01*
X69250Y1136149D01*
X76201Y1131505D01*
X79142Y1130920D01*
X79751Y1127204D01*
X79600Y1125748D01*
X70966Y1119979D01*
X64962Y1110993D01*
X62854Y1100394D01*
Y1064961D01*
X64962Y1054361D01*
X70966Y1045376D01*
X78743Y1040179D01*
X79064Y1038919D01*
Y1035884D01*
X78743Y1034624D01*
X70966Y1029428D01*
X64962Y1020442D01*
X62854Y1009842D01*
Y974409D01*
X64962Y963810D01*
X70966Y954824D01*
X79600Y949055D01*
X79751Y947600D01*
X79142Y943883D01*
X76201Y943298D01*
X69250Y938654D01*
X64605Y931703D01*
X62974Y923504D01*
Y900374D01*
X64194Y894242D01*
X62912Y887795D01*
Y858268D01*
X64791Y848820D01*
X70142Y840811D01*
X78151Y835460D01*
X87599Y833581D01*
X132874D01*
X142321Y835460D01*
X150330Y840811D01*
X155682Y848820D01*
X156186Y851355D01*
X180270D01*
X180270Y851355D01*
X188566Y853005D01*
X195598Y857704D01*
X241109Y903215D01*
X245808Y910247D01*
X246797Y915221D01*
X252312Y917316D01*
X256890Y914257D01*
X265185Y912607D01*
X293048D01*
X295406Y912138D01*
X308594D01*
X314470Y913307D01*
X319451Y916635D01*
X322780Y921616D01*
X323949Y927492D01*
Y938713D01*
X322780Y944588D01*
X319451Y949569D01*
X314470Y952898D01*
X311534Y953482D01*
X310295Y954310D01*
X302000Y955960D01*
X274164D01*
X267253Y962871D01*
X260221Y967569D01*
X254260Y968755D01*
X253837Y969388D01*
X244851Y975392D01*
X234252Y977501D01*
X222441D01*
X211842Y975392D01*
X202856Y969388D01*
X196852Y960403D01*
X194744Y949803D01*
X196852Y939204D01*
X202856Y930218D01*
X201730Y925146D01*
X171292Y894708D01*
X160312D01*
X157140Y898573D01*
X157498Y900374D01*
Y923504D01*
X155867Y931703D01*
X151223Y938654D01*
X144272Y943298D01*
X141331Y943883D01*
X140721Y947600D01*
X140872Y949055D01*
X149506Y954824D01*
X155511Y963810D01*
X157619Y974409D01*
Y1009842D01*
X155511Y1020442D01*
X149506Y1029428D01*
X141730Y1034624D01*
X141409Y1035884D01*
Y1038919D01*
X141730Y1040179D01*
X149506Y1045376D01*
X155511Y1054361D01*
X157619Y1064961D01*
Y1100394D01*
X155511Y1110993D01*
X149506Y1119979D01*
X140872Y1125748D01*
X140721Y1127204D01*
X141331Y1130920D01*
X144272Y1131505D01*
X151223Y1136149D01*
X155867Y1143100D01*
X157498Y1151299D01*
Y1174429D01*
X158837Y1176060D01*
X177285D01*
X202980Y1150365D01*
X202856Y1144585D01*
X196852Y1135599D01*
X194744Y1125000D01*
X196852Y1114400D01*
X199406Y1110577D01*
X197049Y1106168D01*
X192913D01*
X187691Y1105129D01*
X183263Y1102170D01*
X180304Y1097743D01*
X179266Y1092520D01*
Y1084646D01*
X180304Y1079423D01*
X182733Y1075787D01*
X180304Y1072152D01*
X179266Y1066929D01*
Y1059055D01*
X180304Y1053832D01*
X182733Y1050197D01*
X180304Y1046561D01*
X179266Y1041339D01*
Y1033465D01*
X180304Y1028242D01*
X182733Y1024606D01*
X180304Y1020971D01*
X179266Y1015748D01*
Y1007874D01*
X180304Y1002651D01*
X183263Y998223D01*
X187691Y995265D01*
X192913Y994226D01*
X238189D01*
X243412Y995265D01*
X247840Y998223D01*
X250798Y1002651D01*
X251837Y1007874D01*
Y1015748D01*
X251061Y1019650D01*
X251286Y1024792D01*
X255714Y1027751D01*
X257315Y1029352D01*
X284488D01*
Y1013472D01*
X292887D01*
Y1009465D01*
X293926Y1004242D01*
X294883Y1002810D01*
X294324Y1000000D01*
X295974Y991705D01*
X300673Y984673D01*
X307705Y979974D01*
X316000Y978324D01*
X324295Y979974D01*
X331327Y984673D01*
X336026Y991705D01*
X337676Y1000000D01*
X336026Y1008295D01*
X331327Y1015327D01*
X324295Y1020026D01*
X320183Y1020844D01*
Y1026858D01*
X324779Y1029220D01*
X345512D01*
Y1029352D01*
X356620D01*
X361843Y1030391D01*
X366271Y1033349D01*
X369868Y1036947D01*
X393097D01*
X395168Y1031947D01*
X346770Y983548D01*
X343705Y978962D01*
X340149Y978254D01*
X335135Y974904D01*
X331785Y969890D01*
X330609Y963976D01*
Y949409D01*
X331785Y943495D01*
X331906Y943315D01*
Y928732D01*
X331785Y928552D01*
X330609Y922638D01*
Y908071D01*
X331785Y902157D01*
X331906Y901976D01*
Y890354D01*
X328150D01*
Y845866D01*
X374606D01*
Y890354D01*
X371244D01*
Y901387D01*
X371758Y902157D01*
X372935Y908071D01*
Y922638D01*
X371758Y928552D01*
X371244Y929322D01*
Y942726D01*
X371758Y943495D01*
X372935Y949409D01*
Y963976D01*
X372809Y964607D01*
Y966444D01*
X416703Y1010337D01*
X492077D01*
X494094Y1009936D01*
X553149D01*
X559140Y1011127D01*
X564219Y1014521D01*
X567613Y1019600D01*
X568805Y1025591D01*
X567613Y1031582D01*
X565039Y1035433D01*
X567613Y1039285D01*
X568805Y1045276D01*
X567613Y1051267D01*
X565039Y1055118D01*
X567613Y1058970D01*
X568805Y1064961D01*
X567613Y1070952D01*
X565039Y1074803D01*
X567613Y1078655D01*
X568805Y1084646D01*
X567613Y1090637D01*
X564219Y1095716D01*
X559140Y1099109D01*
X553149Y1100301D01*
X494094D01*
X492077Y1099899D01*
X470174D01*
X468657Y1104899D01*
X474327Y1108688D01*
X474726Y1109284D01*
X489453D01*
X494094Y1108361D01*
X553149D01*
X559140Y1109552D01*
X564219Y1112946D01*
X567613Y1118025D01*
X568805Y1124016D01*
X567613Y1130007D01*
X565039Y1133858D01*
X567613Y1137710D01*
X568805Y1143701D01*
X567613Y1149692D01*
X565039Y1153543D01*
X567613Y1157395D01*
X568805Y1163386D01*
X567613Y1169377D01*
X564219Y1174456D01*
X559140Y1177849D01*
X553149Y1179041D01*
X494094D01*
X488740Y1177976D01*
X474516D01*
X473451Y1179569D01*
Y1184431D01*
X476780Y1189412D01*
X477949Y1195287D01*
Y1206508D01*
X476780Y1212383D01*
X473451Y1217365D01*
X470690Y1219210D01*
Y1228303D01*
X478159D01*
Y1273610D01*
X488211Y1283662D01*
X502255D01*
X503415Y1281927D01*
X508396Y1278598D01*
X514272Y1277429D01*
X527461D01*
X533336Y1278598D01*
X538318Y1281927D01*
X541646Y1286908D01*
X542815Y1292784D01*
Y1304004D01*
X541646Y1309880D01*
X538318Y1314861D01*
Y1319722D01*
X541646Y1324703D01*
X542815Y1330579D01*
Y1341799D01*
X541646Y1347675D01*
X538318Y1352656D01*
X537879Y1358729D01*
X540893Y1363240D01*
X542543Y1371535D01*
X540893Y1379830D01*
X536194Y1386862D01*
X529161Y1391561D01*
X520866Y1393211D01*
X512571Y1391561D01*
X505539Y1386862D01*
X500840Y1379830D01*
X499190Y1371535D01*
X500840Y1363240D01*
X503854Y1358729D01*
X503415Y1352656D01*
X500087Y1347675D01*
X498918Y1341799D01*
Y1330579D01*
X500087Y1324703D01*
X503415Y1319722D01*
Y1317645D01*
X501796Y1313126D01*
X482109D01*
X476471Y1312004D01*
X471692Y1308811D01*
X457325Y1294444D01*
X433671D01*
Y1228303D01*
X441226D01*
Y1219153D01*
X438549Y1217365D01*
X435220Y1212383D01*
X434051Y1206508D01*
Y1195287D01*
X435220Y1189412D01*
X438549Y1184431D01*
Y1179569D01*
X435220Y1174588D01*
X434051Y1168713D01*
Y1162500D01*
X410228D01*
Y1204819D01*
X400942D01*
Y1228303D01*
X403356D01*
Y1294444D01*
X386061D01*
X382192Y1297029D01*
X374604Y1298539D01*
X344432D01*
X344198Y1298695D01*
X338284Y1299872D01*
X323716D01*
X317802Y1298695D01*
X312789Y1295345D01*
X309438Y1290332D01*
X308401Y1285117D01*
X303401Y1285609D01*
X303401Y1421357D01*
X300406Y1428589D01*
X285829Y1443165D01*
X285914Y1444680D01*
X286106Y1445343D01*
X287634Y1448431D01*
X294224Y1451160D01*
X296365Y1453301D01*
X300984Y1451388D01*
Y1436811D01*
X366339D01*
Y1449443D01*
X366392Y1449573D01*
X366392Y1570922D01*
X367800Y1573030D01*
X368211Y1573644D01*
X369052Y1577871D01*
X371124Y1582088D01*
X374604Y1581395D01*
X382899Y1583045D01*
X384744Y1584278D01*
X389476D01*
X391321Y1583045D01*
X399616Y1581395D01*
X407911Y1583045D01*
X409756Y1584278D01*
X414000D01*
X417582Y1581885D01*
Y1482087D01*
Y1460566D01*
X412582Y1457894D01*
X411102Y1458882D01*
X405226Y1460051D01*
X394006D01*
X388130Y1458882D01*
X383149Y1455554D01*
X379821Y1450573D01*
X378652Y1444697D01*
Y1436658D01*
X370695Y1428701D01*
X367502Y1423922D01*
X366380Y1418284D01*
Y1404680D01*
X358868D01*
Y1338539D01*
X440758D01*
Y1404680D01*
X395844D01*
Y1412182D01*
X399816Y1416154D01*
X405226D01*
X411102Y1417323D01*
X416083Y1420651D01*
X420944D01*
X425925Y1417323D01*
X431801Y1416154D01*
X443022D01*
X448897Y1417323D01*
X453878Y1420651D01*
X457207Y1425632D01*
X458376Y1431508D01*
Y1444697D01*
X457241Y1450400D01*
Y1462257D01*
X492624D01*
X498327Y1461122D01*
X511516D01*
X516724Y1462159D01*
X532710D01*
X532805Y1462094D01*
X538681Y1460926D01*
X551870D01*
X557746Y1462094D01*
X557989Y1462257D01*
X568307D01*
Y1460039D01*
X576430D01*
Y1446052D01*
X575884Y1443307D01*
Y1428740D01*
X577061Y1422826D01*
X580411Y1417812D01*
X585424Y1414462D01*
X591338Y1413286D01*
X602756D01*
X608670Y1414462D01*
X613684Y1417812D01*
X614352Y1418812D01*
X619352Y1417295D01*
Y1353980D01*
X614352Y1351014D01*
X610039Y1351872D01*
X595472D01*
X590070Y1350797D01*
X580870D01*
X580189Y1351252D01*
X571894Y1352902D01*
X563599Y1351252D01*
X556566Y1346553D01*
X551867Y1339521D01*
X550217Y1331226D01*
X551867Y1322931D01*
X556566Y1315899D01*
X563599Y1311200D01*
X571894Y1309550D01*
X579876Y1311138D01*
X587354D01*
Y1294590D01*
X586707Y1291339D01*
Y1232284D01*
X587899Y1226293D01*
X591292Y1221214D01*
X596371Y1217820D01*
X602362Y1216629D01*
X608353Y1217820D01*
X612205Y1220394D01*
X616056Y1217820D01*
X622047Y1216629D01*
X628038Y1217820D01*
X631890Y1220394D01*
X635741Y1217820D01*
X641732Y1216629D01*
X647723Y1217820D01*
X651575Y1220394D01*
X655426Y1217820D01*
X661417Y1216629D01*
X667408Y1217820D01*
X671260Y1220394D01*
X675111Y1217820D01*
X681102Y1216629D01*
X687093Y1217820D01*
X690945Y1220394D01*
X694797Y1217820D01*
X700787Y1216629D01*
X706778Y1217820D01*
X710630Y1220394D01*
X714481Y1217820D01*
X720472Y1216629D01*
X726463Y1217820D01*
X730315Y1220394D01*
X734167Y1217820D01*
X740157Y1216629D01*
X746148Y1217820D01*
X750000Y1220394D01*
X753852Y1217820D01*
X759842Y1216629D01*
X765833Y1217820D01*
X769685Y1220394D01*
X773537Y1217820D01*
X779528Y1216629D01*
X785518Y1217820D01*
X789370Y1220394D01*
X793222Y1217820D01*
X799213Y1216629D01*
X805203Y1217820D01*
X809055Y1220394D01*
X812907Y1217820D01*
X818898Y1216629D01*
X824889Y1217820D01*
X828740Y1220394D01*
X832592Y1217820D01*
X838583Y1216629D01*
X844573Y1217820D01*
X849652Y1221214D01*
X853046Y1226293D01*
X854238Y1232284D01*
Y1291339D01*
X853046Y1297330D01*
X849652Y1302408D01*
X844573Y1305802D01*
X838583Y1306994D01*
X832592Y1305802D01*
X828740Y1303228D01*
X824889Y1305802D01*
X818898Y1306994D01*
X812907Y1305802D01*
X810653Y1304296D01*
X807034Y1306164D01*
X807075Y1311302D01*
X810337Y1313482D01*
X813688Y1318495D01*
X814864Y1324409D01*
Y1338976D01*
X813688Y1344890D01*
X813531Y1345125D01*
Y1358556D01*
X813695Y1358802D01*
X814872Y1364716D01*
Y1379284D01*
X813695Y1385198D01*
X813531Y1385444D01*
Y1490786D01*
X832739Y1509995D01*
X863996D01*
X865171Y1508820D01*
X866394Y1508003D01*
X867212Y1506780D01*
X913697Y1460295D01*
X923333Y1453856D01*
X934701Y1451595D01*
X1056713D01*
Y1429098D01*
X1056295Y1427000D01*
X1056713Y1424902D01*
Y1381069D01*
X1058974Y1369702D01*
X1065413Y1360065D01*
X1069508Y1355970D01*
Y1281105D01*
X1064508Y1278432D01*
X1060067Y1281400D01*
X1051772Y1283050D01*
X1043476Y1281400D01*
X1036444Y1276701D01*
X1036046Y1276105D01*
X955246D01*
X949608Y1274984D01*
X944829Y1271791D01*
X917912Y1244874D01*
X913293Y1246787D01*
Y1291339D01*
X912716Y1294238D01*
Y1314357D01*
X917845Y1317785D01*
X917847Y1317787D01*
X919345Y1318789D01*
X922695Y1323802D01*
X923872Y1329716D01*
Y1344284D01*
X923212Y1347599D01*
Y1365383D01*
X923569Y1365917D01*
X925220Y1374213D01*
X923569Y1382508D01*
X918871Y1389540D01*
X911838Y1394239D01*
X903543Y1395889D01*
X896484Y1394485D01*
X895356Y1395116D01*
X891640Y1398318D01*
X892817Y1404232D01*
Y1418799D01*
X891640Y1424713D01*
X891484Y1424947D01*
Y1442410D01*
X891681Y1442705D01*
X893331Y1451000D01*
X891681Y1459295D01*
X886982Y1466328D01*
X879949Y1471026D01*
X871654Y1472676D01*
X863359Y1471026D01*
X856327Y1466328D01*
X851628Y1459295D01*
X849978Y1451000D01*
X851628Y1442705D01*
X851824Y1442411D01*
Y1424949D01*
X851667Y1424713D01*
X850490Y1418799D01*
Y1404232D01*
X851667Y1398318D01*
X851824Y1398082D01*
Y1356298D01*
X853334Y1348710D01*
X857633Y1342276D01*
X863301Y1338489D01*
Y1296384D01*
X862298Y1291339D01*
Y1232284D01*
X863489Y1226293D01*
X866883Y1221214D01*
X871962Y1217820D01*
X877953Y1216629D01*
X883749Y1217782D01*
X884134Y1217532D01*
X886696Y1213658D01*
X847170Y1174132D01*
X716726D01*
X716327Y1174727D01*
X709295Y1179426D01*
X701000Y1181076D01*
X692705Y1179426D01*
X685673Y1174727D01*
X680974Y1167695D01*
X679324Y1159400D01*
X680974Y1151105D01*
X685673Y1144072D01*
X692705Y1139374D01*
X701000Y1137724D01*
X709295Y1139374D01*
X716215Y1143997D01*
X716833Y1144033D01*
X719744Y1143805D01*
X721667Y1138969D01*
X640349Y1057651D01*
X637391Y1053223D01*
X636352Y1048000D01*
Y931260D01*
X606535Y901443D01*
X560361D01*
X559140Y902259D01*
X553149Y903451D01*
X494094D01*
X488104Y902259D01*
X483025Y898865D01*
X479631Y893786D01*
X478439Y887795D01*
X479631Y881804D01*
X483025Y876726D01*
X488104Y873332D01*
X494094Y872140D01*
X534696D01*
X536610Y867521D01*
X527349Y858261D01*
X524391Y853833D01*
X523352Y848610D01*
Y663032D01*
X524391Y657809D01*
X527349Y653381D01*
X618884Y561847D01*
X616970Y557227D01*
X553000Y557227D01*
X545768Y554232D01*
X513634Y522097D01*
X510638Y514866D01*
X510639Y325915D01*
X513634Y318683D01*
X538768Y293550D01*
X546000Y290554D01*
X637237Y290554D01*
X637607Y290000D01*
X637608Y78997D01*
X639480Y74478D01*
X639481Y74477D01*
X655769Y58189D01*
X660288Y56317D01*
X733524D01*
X738044Y58189D01*
X753183Y73328D01*
X754114Y75575D01*
X755055Y77837D01*
X755402Y289990D01*
X755400Y289995D01*
X755402Y290000D01*
X754472Y292244D01*
X753537Y294512D01*
X753532Y294515D01*
X753530Y294520D01*
X751271Y295455D01*
X749020Y296392D01*
X749015Y296390D01*
X749010Y296392D01*
X733910D01*
X731132Y300549D01*
X731228Y300781D01*
X731228Y353006D01*
X733569Y354354D01*
X736228Y354849D01*
X895727Y195349D01*
X900155Y192391D01*
X905378Y191352D01*
X911460D01*
X914587Y186352D01*
X913324Y180000D01*
X912051Y178728D01*
X906004Y179931D01*
X883760D01*
X875734Y178334D01*
X868929Y173788D01*
X864383Y166983D01*
X862786Y158957D01*
Y85138D01*
X864383Y77112D01*
X868929Y70307D01*
X875734Y65761D01*
X883760Y64164D01*
X906004D01*
X914030Y65761D01*
X920835Y70307D01*
X925381Y77112D01*
X926978Y85138D01*
Y152677D01*
X933019Y158718D01*
X935000Y158324D01*
X943295Y159974D01*
X950327Y164673D01*
X955026Y171705D01*
X956676Y180000D01*
X955413Y186352D01*
X958540Y191352D01*
X1016460D01*
X1019587Y186352D01*
X1018583Y181305D01*
X1014828Y178855D01*
X1013538Y178432D01*
X1006004Y179931D01*
X983760D01*
X975734Y178334D01*
X968929Y173788D01*
X964383Y166983D01*
X962786Y158957D01*
Y85138D01*
X964383Y77112D01*
X968929Y70307D01*
X975734Y65761D01*
X983760Y64164D01*
X1006004D01*
X1014030Y65761D01*
X1020835Y70307D01*
X1025381Y77112D01*
X1026978Y85138D01*
Y148836D01*
X1030473Y151172D01*
X1038019Y158718D01*
X1040000Y158324D01*
X1048295Y159974D01*
X1055328Y164673D01*
X1060026Y171705D01*
X1061676Y180000D01*
X1060413Y186352D01*
X1063540Y191352D01*
X1070266D01*
X1077779Y183839D01*
X1076133Y178414D01*
X1075734Y178334D01*
X1068929Y173788D01*
X1064382Y166983D01*
X1062786Y158957D01*
Y85138D01*
X1064382Y77112D01*
X1068929Y70307D01*
X1075734Y65761D01*
X1083760Y64164D01*
X1106004D01*
X1114030Y65761D01*
X1120835Y70307D01*
X1125381Y77112D01*
X1126978Y85138D01*
Y142384D01*
X1131102Y144944D01*
X1131978Y144919D01*
X1140000Y143324D01*
X1148295Y144974D01*
X1155328Y149673D01*
X1157786Y153352D01*
X1162786Y151835D01*
Y85138D01*
X1164382Y77112D01*
X1168929Y70307D01*
X1175734Y65761D01*
X1183760Y64164D01*
X1206004D01*
X1214030Y65761D01*
X1220835Y70307D01*
X1225381Y77112D01*
X1226978Y85138D01*
Y102378D01*
X1262786D01*
Y85138D01*
X1264382Y77112D01*
X1268929Y70307D01*
X1275734Y65761D01*
X1283760Y64164D01*
X1306004D01*
X1314030Y65761D01*
X1320835Y70307D01*
X1325381Y77112D01*
X1326978Y85138D01*
Y158957D01*
X1325381Y166983D01*
X1320835Y173788D01*
X1314030Y178334D01*
X1308589Y179417D01*
Y218511D01*
X1310328Y219673D01*
X1315026Y226705D01*
X1316676Y235000D01*
X1315622Y240298D01*
X1320231Y242761D01*
X1477996Y84996D01*
X1487632Y78556D01*
X1499000Y76295D01*
X2361000D01*
X2372367Y78556D01*
X2382004Y84996D01*
X2421004Y123996D01*
X2427443Y133632D01*
X2429705Y145000D01*
Y174300D01*
X2433627Y180170D01*
X2439543D01*
X2471924Y147789D01*
X2478357Y143491D01*
X2485945Y141981D01*
X2510190D01*
X2510424Y141824D01*
X2516338Y140648D01*
X2516742D01*
X2533546Y123844D01*
X2539979Y119545D01*
X2547568Y118036D01*
X2692519D01*
X2700108Y119545D01*
X2706541Y123844D01*
X2728716Y146019D01*
X2733015Y152452D01*
X2734524Y160041D01*
Y163976D01*
X2741278D01*
Y161614D01*
X2742317Y156391D01*
X2745276Y151963D01*
X2753543Y143696D01*
X2757971Y140737D01*
X2763194Y139698D01*
X2806896D01*
X2812119Y140737D01*
X2816546Y143696D01*
X2833666Y160816D01*
X2836625Y165244D01*
X2837664Y170467D01*
Y239770D01*
X2836625Y244992D01*
X2833666Y249420D01*
X2791648Y291439D01*
Y312486D01*
X2842512D01*
Y314787D01*
X2843435D01*
X2848658Y315826D01*
X2853086Y318784D01*
X2879651Y345349D01*
X2882609Y349777D01*
X2883648Y355000D01*
Y465380D01*
X2882609Y470603D01*
X2879651Y475031D01*
X2867648Y487033D01*
Y609537D01*
X2868000Y609773D01*
X2928000D01*
X2935232Y612768D01*
X2938227Y620000D01*
Y770000D01*
X2935232Y777232D01*
X2928000Y780227D01*
X2868000D01*
X2860768Y777232D01*
X2857773Y770000D01*
Y718062D01*
X2853153Y716149D01*
X2782652Y786651D01*
X2778224Y789609D01*
X2773001Y790648D01*
X2482594D01*
X2479253Y795648D01*
X2480227Y798000D01*
Y851454D01*
X2498346D01*
Y831811D01*
X2542835D01*
Y897953D01*
X2498346D01*
Y878750D01*
X2480227D01*
Y883000D01*
X2477232Y890232D01*
X2477157Y890479D01*
X2477780Y891412D01*
X2478948Y897287D01*
Y908508D01*
X2478676Y909876D01*
Y993832D01*
X2505168Y1020324D01*
X2557612D01*
X2573119Y1004817D01*
Y975725D01*
X2573119Y975724D01*
X2573150Y975571D01*
Y942047D01*
X2617638D01*
Y942047D01*
X2622531Y941790D01*
X2635716Y928605D01*
X2636344Y925448D01*
X2639694Y920434D01*
X2644708Y917084D01*
X2650622Y915908D01*
X2654538D01*
X2657118Y915394D01*
X2657119Y915394D01*
X2662950D01*
X2670946Y907399D01*
Y887869D01*
X2667086Y885806D01*
X2665946Y885735D01*
X2660437Y886830D01*
X2649217D01*
X2643341Y885662D01*
X2638360Y882333D01*
X2635818Y878530D01*
X2617638D01*
Y897953D01*
X2573149D01*
Y831811D01*
X2617638D01*
Y851234D01*
X2635818D01*
X2638360Y847431D01*
X2641179Y845547D01*
Y839450D01*
X2639499Y838327D01*
X2634800Y831295D01*
X2633151Y823000D01*
X2634800Y814705D01*
X2639499Y807673D01*
X2646532Y802974D01*
X2654827Y801324D01*
X2663122Y802974D01*
X2670154Y807673D01*
X2674853Y814705D01*
X2676503Y823000D01*
X2674853Y831295D01*
X2670154Y838327D01*
X2668475Y839450D01*
Y845547D01*
X2670497Y846898D01*
X2673888Y847431D01*
X2676155D01*
X2681136Y844102D01*
X2687012Y842933D01*
X2692404D01*
X2693016Y842812D01*
X2693016Y842812D01*
X2694906D01*
X2696835Y842428D01*
X2696835Y842428D01*
X2734595D01*
X2742891Y844078D01*
X2749923Y848777D01*
X2754622Y855809D01*
X2756272Y864105D01*
X2754622Y872400D01*
X2749923Y879432D01*
X2742891Y884131D01*
X2734595Y885781D01*
X2714298D01*
Y916378D01*
X2712648Y924673D01*
X2707950Y931706D01*
X2707949Y931706D01*
X2687257Y952398D01*
X2680224Y957097D01*
X2671929Y958747D01*
X2671929Y958747D01*
X2666884D01*
X2642599Y983032D01*
X2635567Y987731D01*
X2627271Y989381D01*
X2627271Y989381D01*
X2617638D01*
Y1008189D01*
X2616472D01*
Y1013795D01*
X2616472Y1013795D01*
X2614822Y1022090D01*
X2610123Y1029123D01*
X2610123Y1029123D01*
X2581918Y1057328D01*
X2574886Y1062026D01*
X2566590Y1063676D01*
X2566590Y1063676D01*
X2496189D01*
X2487894Y1062026D01*
X2480861Y1057328D01*
X2480861Y1057327D01*
X2441673Y1018139D01*
X2436974Y1011106D01*
X2435324Y1002811D01*
X2435324Y1002811D01*
Y909876D01*
X2435052Y908508D01*
Y897287D01*
X2435090Y897092D01*
X2431918Y893227D01*
X2370000D01*
X2362768Y890232D01*
X2359773Y883000D01*
Y798000D01*
X2360747Y795648D01*
X2357406Y790648D01*
X2183580D01*
X2183088Y795648D01*
X2187134Y796453D01*
X2191561Y799411D01*
X2402419Y1010269D01*
X2405378Y1014697D01*
X2406417Y1019920D01*
Y1120037D01*
X2408096Y1121159D01*
X2412795Y1128191D01*
X2414357Y1136043D01*
X2418600Y1138707D01*
X2418707Y1138764D01*
X2450122Y1107349D01*
X2454549Y1104391D01*
X2459772Y1103352D01*
X2715837D01*
X2721059Y1104391D01*
X2725487Y1107349D01*
X2753078Y1134940D01*
X2773523D01*
X2774975Y1130155D01*
X2771900Y1128100D01*
X2763285Y1115208D01*
X2760260Y1100000D01*
X2763285Y1084792D01*
X2771900Y1071900D01*
X2784792Y1063285D01*
X2800000Y1060260D01*
X2815208Y1063285D01*
X2828100Y1071900D01*
X2836715Y1084792D01*
X2839740Y1100000D01*
X2836715Y1115208D01*
X2828100Y1128100D01*
X2825025Y1130155D01*
X2826477Y1134940D01*
X2848588D01*
X2853811Y1135979D01*
X2858239Y1138937D01*
X2883470Y1164169D01*
X2884792Y1163285D01*
X2900000Y1160260D01*
X2915208Y1163285D01*
X2928100Y1171900D01*
X2929453Y1173924D01*
X2934238Y1172473D01*
Y1128519D01*
X2929453Y1127068D01*
X2928498Y1128498D01*
X2915423Y1137234D01*
X2905000Y1139307D01*
Y1100000D01*
Y1060693D01*
X2915423Y1062766D01*
X2928498Y1071502D01*
X2929453Y1072932D01*
X2934238Y1071481D01*
Y1028519D01*
X2929453Y1027068D01*
X2928498Y1028498D01*
X2915423Y1037234D01*
X2905000Y1039307D01*
Y1000000D01*
Y960693D01*
X2915423Y962766D01*
X2928498Y971502D01*
X2930918Y975125D01*
X2936694Y974770D01*
X2938235Y972464D01*
X2967352Y943347D01*
Y631653D01*
X2905349Y569651D01*
X2902391Y565223D01*
X2901352Y560000D01*
Y415000D01*
X2902391Y409777D01*
X2905349Y405349D01*
X2980349Y330349D01*
X2984777Y327391D01*
X2990000Y326352D01*
X3111892D01*
X3116324Y323000D01*
X3117974Y314705D01*
X3122673Y307673D01*
X3124352Y306550D01*
Y252122D01*
X3125391Y246899D01*
X3128349Y242472D01*
X3149352Y221469D01*
Y98953D01*
X3144352Y97436D01*
X3140699Y102903D01*
X3127806Y111518D01*
X3112598Y114543D01*
X3097391Y111518D01*
X3084498Y102903D01*
X3075883Y90011D01*
X3072858Y74803D01*
X3075883Y59595D01*
X3084498Y46703D01*
X3097391Y38088D01*
X3112598Y35063D01*
X3127806Y38088D01*
X3140699Y46703D01*
X3144352Y52170D01*
X3147473Y51825D01*
X3149500Y50875D01*
X3150391Y46395D01*
X3153349Y41967D01*
X3175585Y19732D01*
X3173514Y14732D01*
X2878545D01*
Y104129D01*
X2812407D01*
Y14732D01*
X2658065D01*
Y104129D01*
X2591927D01*
Y14732D01*
X14732D01*
Y823851D01*
X39370D01*
X45008Y824972D01*
X49787Y828166D01*
X52981Y832945D01*
X54102Y838583D01*
Y1244094D01*
X52981Y1249732D01*
X49787Y1254512D01*
X45008Y1257705D01*
X39370Y1258826D01*
X14732D01*
Y2032512D01*
X2120291D01*
X2121286Y2027512D01*
X2102673Y2019803D01*
X2083429Y2005036D01*
X2068662Y1985791D01*
X2059379Y1963380D01*
X2056213Y1939331D01*
X2059379Y1915281D01*
X2068662Y1892870D01*
X2083429Y1873626D01*
X2102673Y1858859D01*
X2125084Y1849576D01*
X2149134Y1846410D01*
X2173184Y1849576D01*
X2195594Y1858859D01*
X2214839Y1873626D01*
X2229606Y1892870D01*
X2238889Y1915281D01*
X2242055Y1939331D01*
X2238889Y1963380D01*
X2229606Y1985791D01*
X2214839Y2005036D01*
X2195594Y2019803D01*
X2176982Y2027512D01*
X2177976Y2032512D01*
X3843536D01*
Y1606545D01*
D02*
G37*
G36*
X1440447Y1903805D02*
X1440447Y1815872D01*
X1430272Y1805697D01*
X1308267Y1805697D01*
X1308267Y1914144D01*
X1430109Y1914144D01*
X1440447Y1903805D01*
D02*
G37*
G36*
X512800Y1767400D02*
X515600Y1766400D01*
X521000Y1763100D01*
X524200Y1759800D01*
X526465Y1756187D01*
X527700Y1752200D01*
X527000Y1750200D01*
X524929Y1749022D01*
X490992D01*
X488100Y1752000D01*
X489614Y1756660D01*
X491300Y1759200D01*
X494200Y1762100D01*
X496500Y1764200D01*
X500400Y1766500D01*
X504100Y1767600D01*
X512800Y1767400D01*
D02*
G37*
G36*
X527900Y1738000D02*
X526386Y1733340D01*
X524700Y1730800D01*
X521800Y1727900D01*
X519500Y1725800D01*
X515600Y1723500D01*
X511900Y1722400D01*
X503200Y1722600D01*
X500400Y1723600D01*
X495000Y1726900D01*
X491800Y1730200D01*
X489535Y1733813D01*
X488300Y1737800D01*
X489000Y1739800D01*
X491071Y1740978D01*
X525008D01*
X527900Y1738000D01*
D02*
G37*
G36*
X2832441Y1738098D02*
X2832441Y1673812D01*
X2828459Y1669830D01*
X2757600D01*
X2754540Y1669221D01*
X2741419D01*
X2722921Y1687720D01*
X2613324D01*
X2589589Y1663985D01*
Y1555436D01*
X2554153Y1520000D01*
X2464919D01*
X2464919Y1538464D01*
X2468455Y1542000D01*
X2512238Y1542000D01*
X2544231Y1573994D01*
X2544231Y1696260D01*
X2593970Y1745999D01*
X2824541D01*
X2832441Y1738098D01*
D02*
G37*
G36*
X414000Y1590670D02*
X318000D01*
Y1600000D01*
X334667Y1616667D01*
X414000D01*
Y1590670D01*
D02*
G37*
G36*
X3778831Y1702647D02*
Y1694390D01*
X3780000Y1688514D01*
X3783328Y1683533D01*
Y1678672D01*
X3780000Y1673691D01*
X3778831Y1667815D01*
Y1656595D01*
X3780000Y1650719D01*
X3783328Y1645738D01*
X3787132Y1643196D01*
Y1637180D01*
X3784792Y1636715D01*
X3771899Y1628100D01*
X3763285Y1615208D01*
X3760260Y1600000D01*
X3763285Y1584792D01*
X3771899Y1571900D01*
X3784792Y1563285D01*
X3800000Y1560260D01*
X3815208Y1563285D01*
X3828100Y1571900D01*
X3836715Y1584792D01*
X3838536Y1593947D01*
X3843536Y1593455D01*
Y1509371D01*
X3838536Y1508879D01*
X3837234Y1515423D01*
X3828498Y1528498D01*
X3815423Y1537234D01*
X3805000Y1539307D01*
Y1500000D01*
X3800000D01*
Y1495000D01*
X3760693D01*
X3762766Y1484577D01*
X3771502Y1471502D01*
X3782143Y1464392D01*
X3780626Y1459392D01*
X3719373D01*
X3717857Y1464392D01*
X3728498Y1471502D01*
X3737234Y1484577D01*
X3739307Y1495000D01*
X3660693D01*
X3662766Y1484577D01*
X3671502Y1471502D01*
X3682143Y1464392D01*
X3680626Y1459392D01*
X3619374D01*
X3617857Y1464392D01*
X3628498Y1471502D01*
X3637234Y1484577D01*
X3639307Y1495000D01*
X3600000D01*
Y1500000D01*
X3595000D01*
Y1539307D01*
X3584577Y1537234D01*
X3571648Y1528595D01*
X3569284Y1529045D01*
X3566648Y1529845D01*
Y1571147D01*
X3571433Y1572598D01*
X3571900Y1571900D01*
X3584792Y1563285D01*
X3600000Y1560260D01*
X3615208Y1563285D01*
X3628100Y1571900D01*
X3636715Y1584792D01*
X3639740Y1600000D01*
X3636715Y1615208D01*
X3628100Y1628100D01*
X3615208Y1636715D01*
X3613648Y1637025D01*
Y1643196D01*
X3617451Y1645738D01*
X3620780Y1650719D01*
X3621948Y1656595D01*
Y1667815D01*
X3620780Y1673691D01*
X3617451Y1678672D01*
Y1683533D01*
X3620780Y1688514D01*
X3621948Y1694390D01*
Y1705610D01*
X3620780Y1711486D01*
X3618865Y1714352D01*
X3621449Y1719352D01*
X3661347D01*
X3678052Y1702647D01*
Y1694390D01*
X3679220Y1688514D01*
X3682549Y1683533D01*
Y1678672D01*
X3679220Y1673691D01*
X3678052Y1667815D01*
Y1656595D01*
X3679220Y1650719D01*
X3682549Y1645738D01*
X3686352Y1643196D01*
Y1637025D01*
X3684792Y1636715D01*
X3671900Y1628100D01*
X3663285Y1615208D01*
X3660260Y1600000D01*
X3663285Y1584792D01*
X3671900Y1571900D01*
X3684792Y1563285D01*
X3700000Y1560260D01*
X3715208Y1563285D01*
X3728100Y1571900D01*
X3736715Y1584792D01*
X3739740Y1600000D01*
X3736715Y1615208D01*
X3728100Y1628100D01*
X3715208Y1636715D01*
X3713648Y1637025D01*
Y1643196D01*
X3717451Y1645738D01*
X3720780Y1650719D01*
X3721948Y1656595D01*
Y1667815D01*
X3720780Y1673691D01*
X3717451Y1678672D01*
Y1683533D01*
X3720780Y1688514D01*
X3721948Y1694390D01*
Y1705610D01*
X3720780Y1711486D01*
X3717451Y1716467D01*
X3712470Y1719795D01*
X3706595Y1720964D01*
X3698337D01*
X3685569Y1733733D01*
X3687482Y1738352D01*
X3743126D01*
X3778831Y1702647D01*
D02*
G37*
G36*
X2089773Y1697406D02*
X2089773Y1552830D01*
X2084045D01*
X2083433Y1553239D01*
X2077519Y1554415D01*
X2062952D01*
X2057038Y1553239D01*
X2052024Y1549889D01*
X2048674Y1544875D01*
X2047498Y1538961D01*
Y1527543D01*
X2048674Y1521629D01*
X2050560Y1518806D01*
X2047913Y1513806D01*
X2032368D01*
X1843237Y1702938D01*
X1841865Y1709831D01*
X1836296Y1718166D01*
X1833892Y1719773D01*
X1835409Y1724773D01*
X2062406D01*
X2089773Y1697406D01*
D02*
G37*
G36*
X1126000Y1895081D02*
X1123452Y1893379D01*
X1118753Y1886346D01*
X1117103Y1878051D01*
X1118753Y1869756D01*
X1123452Y1862724D01*
X1126000Y1861021D01*
Y1844786D01*
X1123452Y1843083D01*
X1118753Y1836051D01*
X1117103Y1827756D01*
X1118753Y1819461D01*
X1123452Y1812428D01*
X1130484Y1807729D01*
X1138780Y1806080D01*
X1147075Y1807729D01*
X1147369Y1807926D01*
X1152830D01*
X1155502Y1802926D01*
X1155303Y1802628D01*
X1154134Y1796752D01*
Y1785532D01*
X1155303Y1779656D01*
X1158631Y1774675D01*
X1163612Y1771346D01*
X1164750Y1771120D01*
X1164989Y1770849D01*
X1166648Y1765645D01*
X1164561Y1762521D01*
X1163384Y1756607D01*
Y1742040D01*
X1164561Y1736126D01*
X1167911Y1731112D01*
X1167888Y1727650D01*
X1164712Y1722897D01*
X1163596Y1717290D01*
Y1710631D01*
X1162615Y1710224D01*
X1159002Y1701501D01*
Y1658154D01*
X1162615Y1649431D01*
X1171339Y1645818D01*
X1185157D01*
X1191043Y1648256D01*
X1196929Y1645818D01*
X1210748D01*
X1219471Y1649431D01*
X1223085Y1658154D01*
Y1701501D01*
X1219971Y1709017D01*
X1230565Y1719610D01*
X1233758Y1724389D01*
X1234416Y1727695D01*
X1234753Y1727762D01*
X1239766Y1731112D01*
X1243117Y1736126D01*
X1244293Y1742040D01*
Y1751854D01*
X1246996Y1755900D01*
X1248118Y1761538D01*
Y1772858D01*
X1250837Y1774675D01*
X1254165Y1779656D01*
X1255334Y1785532D01*
Y1796752D01*
X1254165Y1802628D01*
X1254154Y1802644D01*
X1256262Y1806970D01*
X1261234Y1807764D01*
X1266617Y1804167D01*
X1277985Y1801906D01*
X1289352Y1804167D01*
X1293421Y1806885D01*
X1298604Y1804335D01*
X1301035Y1798465D01*
X1308267Y1795470D01*
X1340358Y1795470D01*
Y1595161D01*
X1249335Y1504137D01*
X1170765Y1503762D01*
X1167221Y1507289D01*
Y1532847D01*
X1168290Y1533289D01*
X1171903Y1542013D01*
Y1585359D01*
X1168290Y1594082D01*
X1159567Y1597696D01*
X1145748D01*
X1139862Y1595258D01*
X1133976Y1597696D01*
X1120158D01*
X1116122Y1600392D01*
Y1643121D01*
X1120158Y1645818D01*
X1133976D01*
X1142700Y1649431D01*
X1146313Y1658154D01*
Y1676893D01*
X1146897Y1679828D01*
X1146313Y1682762D01*
Y1701501D01*
X1142700Y1710224D01*
X1133976Y1713837D01*
X1123000D01*
Y1728261D01*
X1127267Y1731112D01*
X1130617Y1736126D01*
X1131793Y1742040D01*
Y1756607D01*
X1130617Y1762521D01*
X1127267Y1767535D01*
X1122253Y1770885D01*
X1116339Y1772061D01*
X1104921D01*
X1099007Y1770885D01*
X1096416Y1769153D01*
X1085566D01*
Y1831247D01*
X1086316Y1835019D01*
Y1887251D01*
X1105686Y1906621D01*
X1126000D01*
Y1895081D01*
D02*
G37*
G36*
X3002414Y1701123D02*
X3002415Y1486900D01*
X2997415Y1484829D01*
X2972593Y1509651D01*
X2968166Y1512609D01*
X2962943Y1513648D01*
X2937025D01*
X2936715Y1515208D01*
X2928100Y1528100D01*
X2915208Y1536715D01*
X2910000Y1537751D01*
Y1562249D01*
X2915208Y1563285D01*
X2928100Y1571900D01*
X2936715Y1584792D01*
X2939740Y1600000D01*
X2936715Y1615208D01*
X2928100Y1628100D01*
X2915208Y1636715D01*
X2910000Y1637751D01*
Y1662249D01*
X2915208Y1663285D01*
X2928100Y1671900D01*
X2936715Y1684792D01*
X2939740Y1700000D01*
X2936715Y1715208D01*
X2928100Y1728100D01*
X2915208Y1736715D01*
X2900000Y1739740D01*
X2884792Y1736715D01*
X2871900Y1728100D01*
X2863285Y1715208D01*
X2860260Y1700000D01*
X2862201Y1690244D01*
X2847668Y1675712D01*
X2842668Y1677783D01*
X2842668Y1738098D01*
X2839673Y1745330D01*
X2831773Y1753230D01*
X2824541Y1756226D01*
X2593970D01*
X2586738Y1753230D01*
X2536999Y1703492D01*
X2534004Y1696260D01*
X2534004Y1578230D01*
X2508001Y1552227D01*
X2479987Y1552227D01*
X2479133Y1552397D01*
X2464566D01*
X2458652Y1551221D01*
X2458417Y1551064D01*
X2448269D01*
X2448034Y1551221D01*
X2442120Y1552397D01*
X2427553D01*
X2421639Y1551221D01*
X2421404Y1551064D01*
X2409896D01*
X2409601Y1551260D01*
X2401306Y1552910D01*
X2393011Y1551260D01*
X2385979Y1546561D01*
X2381280Y1539529D01*
X2379630Y1531234D01*
X2375643Y1528393D01*
X2326772D01*
X2324946Y1528030D01*
X2297638D01*
Y1487939D01*
X2295291D01*
X2290068Y1486900D01*
X2285640Y1483941D01*
X2235129Y1433430D01*
X2232837Y1430000D01*
X2202362D01*
Y1478821D01*
X2238121Y1478821D01*
X2245353Y1481816D01*
X2273077Y1509541D01*
X2276072Y1516773D01*
X2276073Y1604585D01*
X2457250Y1785762D01*
X2917777Y1785762D01*
X3002414Y1701123D01*
D02*
G37*
G36*
X358000Y1584000D02*
X360000Y1582000D01*
X360000Y1449573D01*
X357081Y1446653D01*
X310000D01*
X310000Y1470000D01*
X322000Y1482000D01*
X322000Y1576072D01*
X321535Y1576813D01*
X320300Y1580800D01*
X321000Y1582800D01*
X322000Y1583369D01*
Y1584000D01*
X358000Y1584000D01*
D02*
G37*
G36*
X300428Y1519540D02*
X300428Y1471827D01*
X286993Y1458392D01*
X217761Y1458392D01*
X186264Y1426895D01*
X186264Y1340340D01*
X171664Y1325740D01*
X64073Y1325740D01*
X49212Y1340601D01*
X49212Y1420527D01*
X64668Y1435983D01*
X125228Y1435982D01*
X208786Y1519540D01*
X300428Y1519540D01*
D02*
G37*
G36*
X1575475Y1530489D02*
X1571900Y1528100D01*
X1563285Y1515208D01*
X1560260Y1500000D01*
X1563285Y1484792D01*
X1571900Y1471900D01*
X1584792Y1463285D01*
X1600000Y1460260D01*
X1615208Y1463285D01*
X1628100Y1471900D01*
X1636715Y1484792D01*
X1638455Y1493538D01*
X1657706Y1512790D01*
X1662314Y1510326D01*
X1660260Y1500000D01*
X1663285Y1484792D01*
X1671900Y1471900D01*
X1675591Y1469433D01*
X1674140Y1464648D01*
X1651000D01*
X1645777Y1463609D01*
X1641349Y1460651D01*
X1616530Y1435831D01*
X1615208Y1436715D01*
X1600000Y1439740D01*
X1584792Y1436715D01*
X1571900Y1428100D01*
X1563285Y1415208D01*
X1560260Y1400000D01*
X1563285Y1384792D01*
X1571900Y1371900D01*
X1584792Y1363285D01*
X1600000Y1360260D01*
X1615208Y1363285D01*
X1628100Y1371900D01*
X1636715Y1384792D01*
X1639740Y1400000D01*
X1636715Y1415208D01*
X1635831Y1416530D01*
X1656653Y1437352D01*
X1676746D01*
X1678263Y1432352D01*
X1671900Y1428100D01*
X1663285Y1415208D01*
X1660260Y1400000D01*
X1663285Y1384792D01*
X1669942Y1374829D01*
X1667270Y1369829D01*
X1656181D01*
X1650958Y1368790D01*
X1646530Y1365831D01*
X1616530Y1335831D01*
X1615208Y1336715D01*
X1600000Y1339740D01*
X1584792Y1336715D01*
X1571900Y1328100D01*
X1563285Y1315208D01*
X1562975Y1313648D01*
X1462000D01*
X1456777Y1312609D01*
X1452349Y1309651D01*
X1380593Y1237895D01*
X1379000Y1238212D01*
X1372979Y1237014D01*
X1367979Y1240296D01*
Y1387729D01*
X1515523Y1535274D01*
X1574024D01*
X1575475Y1530489D01*
D02*
G37*
G36*
X3821000Y1453000D02*
X3831000Y1443000D01*
X3831000Y1359000D01*
X3822000Y1350000D01*
X3580000D01*
X3569000Y1361000D01*
X3569000Y1443000D01*
X3579000Y1453000D01*
X3821000Y1453000D01*
D02*
G37*
G36*
X3791484Y1338608D02*
X3784577Y1337234D01*
X3771502Y1328498D01*
X3762766Y1315423D01*
X3760693Y1305000D01*
X3800000D01*
Y1300000D01*
X3805000D01*
Y1260693D01*
X3815423Y1262766D01*
X3828498Y1271502D01*
X3837234Y1284577D01*
X3838536Y1291121D01*
X3843536Y1290629D01*
Y1206546D01*
X3838536Y1206053D01*
X3836715Y1215208D01*
X3828100Y1228100D01*
X3815208Y1236715D01*
X3800000Y1239740D01*
X3784792Y1236715D01*
X3771900Y1228100D01*
X3763285Y1215208D01*
X3760260Y1200000D01*
X3763285Y1184792D01*
X3771900Y1171900D01*
X3784792Y1163285D01*
X3800000Y1160260D01*
X3815208Y1163285D01*
X3828100Y1171900D01*
X3836715Y1184792D01*
X3838536Y1193947D01*
X3843536Y1193454D01*
Y1109371D01*
X3838536Y1108879D01*
X3837234Y1115423D01*
X3828498Y1128498D01*
X3815423Y1137234D01*
X3805000Y1139307D01*
Y1100000D01*
Y1060693D01*
X3815423Y1062766D01*
X3828498Y1071502D01*
X3837234Y1084577D01*
X3838536Y1091121D01*
X3843536Y1090629D01*
Y1006546D01*
X3838536Y1006053D01*
X3836715Y1015208D01*
X3828100Y1028100D01*
X3815208Y1036715D01*
X3800000Y1039740D01*
X3784792Y1036715D01*
X3771900Y1028100D01*
X3763285Y1015208D01*
X3760260Y1000000D01*
X3763285Y984792D01*
X3771900Y971900D01*
X3784792Y963285D01*
X3800000Y960260D01*
X3815208Y963285D01*
X3828100Y971900D01*
X3836715Y984792D01*
X3838536Y993947D01*
X3843536Y993454D01*
Y909371D01*
X3838536Y908879D01*
X3837234Y915423D01*
X3828498Y928498D01*
X3815423Y937234D01*
X3805000Y939307D01*
Y900000D01*
Y860693D01*
X3815423Y862766D01*
X3828498Y871502D01*
X3837234Y884577D01*
X3838536Y891121D01*
X3843536Y890629D01*
Y806546D01*
X3838536Y806053D01*
X3836715Y815208D01*
X3828100Y828100D01*
X3815208Y836715D01*
X3800000Y839740D01*
X3784792Y836715D01*
X3771900Y828100D01*
X3763285Y815208D01*
X3760260Y800000D01*
X3763285Y784792D01*
X3771900Y771900D01*
X3784792Y763285D01*
X3800000Y760260D01*
X3815208Y763285D01*
X3828100Y771900D01*
X3836715Y784792D01*
X3838536Y793947D01*
X3843536Y793454D01*
Y709371D01*
X3838536Y708879D01*
X3837234Y715423D01*
X3828498Y728498D01*
X3815423Y737234D01*
X3805000Y739307D01*
Y700000D01*
Y660693D01*
X3815423Y662766D01*
X3828498Y671502D01*
X3837234Y684577D01*
X3838536Y691121D01*
X3843536Y690629D01*
Y606546D01*
X3838536Y606053D01*
X3836715Y615208D01*
X3828100Y628100D01*
X3815208Y636715D01*
X3800000Y639740D01*
X3784792Y636715D01*
X3771900Y628100D01*
X3763285Y615208D01*
X3760260Y600000D01*
X3763285Y584792D01*
X3771900Y571900D01*
X3784792Y563285D01*
X3800000Y560260D01*
X3815208Y563285D01*
X3828100Y571900D01*
X3836715Y584792D01*
X3838536Y593947D01*
X3843536Y593454D01*
Y509371D01*
X3838536Y508879D01*
X3837234Y515423D01*
X3828498Y528498D01*
X3815423Y537234D01*
X3805000Y539307D01*
Y500000D01*
Y460693D01*
X3815423Y462766D01*
X3828498Y471502D01*
X3837234Y484577D01*
X3838536Y491121D01*
X3843536Y490629D01*
Y14732D01*
X3278899D01*
X3276828Y19732D01*
X3296068Y38972D01*
X3297391Y38088D01*
X3312598Y35063D01*
X3327806Y38088D01*
X3340699Y46703D01*
X3349313Y59595D01*
X3352338Y74803D01*
X3349313Y90011D01*
X3340699Y102903D01*
X3327806Y111518D01*
X3312598Y114543D01*
X3297391Y111518D01*
X3284498Y102903D01*
X3275883Y90011D01*
X3272858Y74803D01*
X3275883Y59595D01*
X3276767Y58273D01*
X3257142Y38648D01*
X3237256D01*
X3235805Y43433D01*
X3240699Y46703D01*
X3249313Y59595D01*
X3252338Y74803D01*
X3249313Y90011D01*
X3240699Y102903D01*
X3227806Y111518D01*
X3226246Y111828D01*
Y245786D01*
X3225207Y251009D01*
X3222249Y255436D01*
X3192265Y285421D01*
X3192659Y287402D01*
X3191009Y295697D01*
X3186310Y302729D01*
X3184631Y303851D01*
Y329017D01*
X3183592Y334240D01*
X3180633Y338668D01*
X3157569Y361733D01*
X3159482Y366352D01*
X3322004D01*
X3398950Y289405D01*
Y113779D01*
X3373622D01*
Y35827D01*
X3451575D01*
Y113779D01*
X3426246D01*
Y295059D01*
X3425207Y300281D01*
X3422249Y304709D01*
X3337308Y389651D01*
X3332880Y392609D01*
X3327657Y393648D01*
X3015653D01*
X2968648Y440653D01*
Y524347D01*
X3039651Y595349D01*
X3042609Y599777D01*
X3043648Y605000D01*
Y641313D01*
X3048648Y644543D01*
X3054780Y643324D01*
X3056761Y643718D01*
X3063129Y637349D01*
X3067557Y634391D01*
X3071223Y633662D01*
X3072681Y628622D01*
X3071900Y628100D01*
X3063285Y615208D01*
X3060260Y600000D01*
X3063285Y584792D01*
X3068866Y576440D01*
X3066564Y570885D01*
X3061943Y569965D01*
X3054910Y565266D01*
X3050211Y558234D01*
X3048561Y549939D01*
X3050211Y541644D01*
X3054910Y534611D01*
X3061943Y529913D01*
X3066492Y529008D01*
X3068794Y523452D01*
X3063285Y515208D01*
X3060260Y500000D01*
X3063285Y484792D01*
X3071900Y471900D01*
X3084792Y463285D01*
X3100000Y460260D01*
X3115208Y463285D01*
X3128100Y471900D01*
X3136715Y484792D01*
X3139740Y500000D01*
X3136715Y515208D01*
X3128100Y528100D01*
X3123003Y531506D01*
X3124455Y536291D01*
X3175545D01*
X3176997Y531506D01*
X3171900Y528100D01*
X3163285Y515208D01*
X3160260Y500000D01*
X3163285Y484792D01*
X3171900Y471900D01*
X3184792Y463285D01*
X3200000Y460260D01*
X3215208Y463285D01*
X3228100Y471900D01*
X3236715Y484792D01*
X3239740Y500000D01*
X3236715Y515208D01*
X3228100Y528100D01*
X3223003Y531506D01*
X3224455Y536291D01*
X3275545D01*
X3276997Y531506D01*
X3271900Y528100D01*
X3263285Y515208D01*
X3260260Y500000D01*
X3263285Y484792D01*
X3271900Y471900D01*
X3284792Y463285D01*
X3300000Y460260D01*
X3315208Y463285D01*
X3328100Y471900D01*
X3336715Y484792D01*
X3339740Y500000D01*
X3336715Y515208D01*
X3328100Y528100D01*
X3323003Y531506D01*
X3324455Y536291D01*
X3375545D01*
X3376997Y531506D01*
X3371900Y528100D01*
X3363285Y515208D01*
X3360260Y500000D01*
X3363285Y484792D01*
X3371900Y471900D01*
X3384792Y463285D01*
X3400000Y460260D01*
X3415208Y463285D01*
X3428100Y471900D01*
X3436715Y484792D01*
X3439740Y500000D01*
X3436715Y515208D01*
X3428100Y528100D01*
X3423003Y531506D01*
X3424455Y536291D01*
X3429939D01*
X3435162Y537330D01*
X3439590Y540288D01*
X3457651Y558349D01*
X3460609Y562777D01*
X3461648Y568000D01*
Y578242D01*
X3466648Y579759D01*
X3471900Y571900D01*
X3484792Y563285D01*
X3500000Y560260D01*
X3515208Y563285D01*
X3528100Y571900D01*
X3534352Y581256D01*
X3539352Y579739D01*
Y520261D01*
X3534352Y518744D01*
X3528100Y528100D01*
X3515208Y536715D01*
X3500000Y539740D01*
X3484792Y536715D01*
X3471900Y528100D01*
X3463285Y515208D01*
X3460260Y500000D01*
X3463285Y484792D01*
X3471900Y471900D01*
X3484792Y463285D01*
X3500000Y460260D01*
X3513591Y462964D01*
X3516054Y458356D01*
X3501347Y443648D01*
X3076450D01*
X3075327Y445327D01*
X3068295Y450026D01*
X3060000Y451676D01*
X3051705Y450026D01*
X3044673Y445327D01*
X3039974Y438295D01*
X3038324Y430000D01*
X3039974Y421705D01*
X3044673Y414673D01*
X3051705Y409974D01*
X3060000Y408324D01*
X3068295Y409974D01*
X3075327Y414673D01*
X3076450Y416352D01*
X3507000D01*
X3512223Y417391D01*
X3516651Y420349D01*
X3562651Y466349D01*
X3565609Y470777D01*
X3565845Y471962D01*
X3571153Y473017D01*
X3571900Y471900D01*
X3584792Y463285D01*
X3600000Y460260D01*
X3615208Y463285D01*
X3628100Y471900D01*
X3636715Y484792D01*
X3639740Y500000D01*
X3636715Y515208D01*
X3628100Y528100D01*
X3615208Y536715D01*
X3600000Y539740D01*
X3584792Y536715D01*
X3571900Y528100D01*
X3571433Y527402D01*
X3566648Y528853D01*
Y571147D01*
X3571433Y572598D01*
X3571900Y571900D01*
X3584792Y563285D01*
X3600000Y560260D01*
X3615208Y563285D01*
X3628100Y571900D01*
X3636715Y584792D01*
X3639740Y600000D01*
X3636715Y615208D01*
X3628100Y628100D01*
X3615208Y636715D01*
X3600000Y639740D01*
X3584792Y636715D01*
X3571900Y628100D01*
X3571433Y627402D01*
X3566648Y628853D01*
Y671147D01*
X3571433Y672598D01*
X3571900Y671900D01*
X3584792Y663285D01*
X3600000Y660260D01*
X3615208Y663285D01*
X3628100Y671900D01*
X3636715Y684792D01*
X3639740Y700000D01*
X3636715Y715208D01*
X3628100Y728100D01*
X3615208Y736715D01*
X3600000Y739740D01*
X3584792Y736715D01*
X3571900Y728100D01*
X3571433Y727402D01*
X3566648Y728853D01*
Y771147D01*
X3571433Y772598D01*
X3571900Y771900D01*
X3584792Y763285D01*
X3600000Y760260D01*
X3615208Y763285D01*
X3628100Y771900D01*
X3636715Y784792D01*
X3639740Y800000D01*
X3636715Y815208D01*
X3628100Y828100D01*
X3615208Y836715D01*
X3600000Y839740D01*
X3584792Y836715D01*
X3571900Y828100D01*
X3571433Y827402D01*
X3566648Y828853D01*
Y871147D01*
X3571433Y872598D01*
X3571900Y871900D01*
X3584792Y863285D01*
X3600000Y860260D01*
X3615208Y863285D01*
X3628100Y871900D01*
X3636715Y884792D01*
X3639740Y900000D01*
X3636715Y915208D01*
X3628100Y928100D01*
X3615208Y936715D01*
X3600000Y939740D01*
X3584792Y936715D01*
X3571900Y928100D01*
X3571433Y927402D01*
X3566648Y928853D01*
Y971147D01*
X3571433Y972598D01*
X3571900Y971900D01*
X3584792Y963285D01*
X3600000Y960260D01*
X3615208Y963285D01*
X3628100Y971900D01*
X3636715Y984792D01*
X3639740Y1000000D01*
X3636715Y1015208D01*
X3628100Y1028100D01*
X3615208Y1036715D01*
X3600000Y1039740D01*
X3584792Y1036715D01*
X3571900Y1028100D01*
X3571433Y1027402D01*
X3566648Y1028853D01*
Y1071147D01*
X3571433Y1072598D01*
X3571900Y1071900D01*
X3584792Y1063285D01*
X3600000Y1060260D01*
X3615208Y1063285D01*
X3628100Y1071900D01*
X3636715Y1084792D01*
X3639740Y1100000D01*
X3636715Y1115208D01*
X3628100Y1128100D01*
X3615208Y1136715D01*
X3600000Y1139740D01*
X3584792Y1136715D01*
X3571900Y1128100D01*
X3571433Y1127402D01*
X3566648Y1128853D01*
Y1171147D01*
X3571433Y1172598D01*
X3571900Y1171900D01*
X3584792Y1163285D01*
X3600000Y1160260D01*
X3615208Y1163285D01*
X3628100Y1171900D01*
X3636715Y1184792D01*
X3639740Y1200000D01*
X3636715Y1215208D01*
X3628100Y1228100D01*
X3615208Y1236715D01*
X3600000Y1239740D01*
X3584792Y1236715D01*
X3571900Y1228100D01*
X3571433Y1227402D01*
X3566648Y1228853D01*
Y1271147D01*
X3571433Y1272598D01*
X3571900Y1271900D01*
X3584792Y1263285D01*
X3600000Y1260260D01*
X3615208Y1263285D01*
X3628100Y1271900D01*
X3636715Y1284792D01*
X3639740Y1300000D01*
X3636715Y1315208D01*
X3628100Y1328100D01*
X3615208Y1336715D01*
X3605691Y1338608D01*
X3606184Y1343608D01*
X3693816D01*
X3694309Y1338608D01*
X3684792Y1336715D01*
X3671900Y1328100D01*
X3663285Y1315208D01*
X3660260Y1300000D01*
X3663285Y1284792D01*
X3671900Y1271900D01*
X3684792Y1263285D01*
X3700000Y1260260D01*
X3715208Y1263285D01*
X3728100Y1271900D01*
X3736715Y1284792D01*
X3739740Y1300000D01*
X3736715Y1315208D01*
X3728100Y1328100D01*
X3715208Y1336715D01*
X3705691Y1338608D01*
X3706184Y1343608D01*
X3790991D01*
X3791484Y1338608D01*
D02*
G37*
G36*
X3254606Y1670539D02*
X3254607Y1180372D01*
X3219575Y1145340D01*
X3082903Y1146162D01*
X3066281Y1162785D01*
X3066610Y1217998D01*
X3082024Y1233412D01*
X3116897Y1233412D01*
X3141000Y1257514D01*
X3141000Y1664148D01*
X2947423Y1857725D01*
X2416725Y1857725D01*
X2206058Y1647058D01*
X2206058Y1522103D01*
X2192809Y1509000D01*
X2116000D01*
X2100000Y1525000D01*
X2100000Y1701642D01*
X2066642Y1735000D01*
X1717353D01*
X1710175Y1737973D01*
X1700000Y1739313D01*
X1689825Y1737973D01*
X1682647Y1735000D01*
X1655517D01*
X1645620Y1725102D01*
Y1674730D01*
X1610890Y1640000D01*
X1553000D01*
X1535660Y1640000D01*
X1535660Y1760660D01*
X1551204Y1776204D01*
X2261399Y1776204D01*
X2392596Y1907400D01*
X3017745Y1907401D01*
X3254606Y1670539D01*
D02*
G37*
G36*
X1036444Y1201208D02*
X1043476Y1196509D01*
X1051772Y1194859D01*
X1060067Y1196509D01*
X1064508Y1199477D01*
X1069508Y1196804D01*
Y1115972D01*
X1065643Y1112800D01*
X1065284Y1112872D01*
X1050716D01*
X1044802Y1111695D01*
X1039789Y1108345D01*
X1036438Y1103332D01*
X1035996Y1101108D01*
X1034578Y1100826D01*
X1029798Y1097632D01*
X1027188Y1095022D01*
X1021219Y1096124D01*
X1020285Y1098214D01*
X1020369Y1098340D01*
X1021561Y1104331D01*
X1020369Y1110322D01*
X1017795Y1114173D01*
X1020369Y1118025D01*
X1021561Y1124016D01*
X1020369Y1130007D01*
X1017795Y1133858D01*
X1020369Y1137710D01*
X1021561Y1143701D01*
X1020369Y1149692D01*
X1016975Y1154771D01*
X1011896Y1158164D01*
X1005905Y1159356D01*
X946850D01*
X940860Y1158164D01*
X935781Y1154771D01*
X932387Y1149692D01*
X931195Y1143701D01*
X932387Y1137710D01*
X934961Y1133858D01*
X932387Y1130007D01*
X931195Y1124016D01*
X932387Y1118025D01*
X934961Y1114173D01*
X932387Y1110322D01*
X931195Y1104331D01*
X932387Y1098340D01*
X934961Y1094488D01*
X932387Y1090637D01*
X931195Y1084646D01*
X932387Y1078655D01*
X934961Y1074803D01*
X932387Y1070952D01*
X931195Y1064961D01*
X932387Y1058970D01*
X934961Y1055118D01*
X932387Y1051267D01*
X931195Y1045276D01*
X932387Y1039285D01*
X934961Y1035433D01*
X932387Y1031582D01*
X931195Y1025591D01*
X932387Y1019600D01*
X934961Y1015748D01*
X932387Y1011896D01*
X931195Y1005906D01*
X932387Y999915D01*
X934961Y996063D01*
X932387Y992211D01*
X931195Y986221D01*
X932387Y980230D01*
X934961Y976378D01*
X932387Y972526D01*
X931195Y966535D01*
X932387Y960545D01*
X934961Y956693D01*
X932387Y952841D01*
X931195Y946851D01*
X932387Y940860D01*
X935781Y935781D01*
X940860Y932387D01*
X946850Y931195D01*
X1005905D01*
X1011896Y932387D01*
X1016975Y935781D01*
X1019499Y939557D01*
X1078700Y939557D01*
Y916219D01*
X1024224Y861743D01*
X1017785Y852106D01*
X1015524Y840739D01*
Y758858D01*
X1017785Y747491D01*
X1024224Y737854D01*
X1033861Y731415D01*
X1045228Y729154D01*
X1056596Y731415D01*
X1066233Y737854D01*
X1072672Y747491D01*
X1074933Y758858D01*
Y828435D01*
X1148156Y901659D01*
X1152708Y899139D01*
X1154186Y891705D01*
X1158885Y884673D01*
X1160565Y883550D01*
Y875787D01*
X1161604Y870564D01*
X1164562Y866137D01*
X1185350Y845349D01*
X1189777Y842391D01*
X1195000Y841352D01*
X1494347D01*
X1585349Y750349D01*
X1589777Y747391D01*
X1595000Y746352D01*
X2109137D01*
X2113991Y741352D01*
X2113991Y663292D01*
X2089347Y638648D01*
X1878000D01*
X1872777Y637609D01*
X1868349Y634651D01*
X1845483Y611784D01*
X1841000Y612676D01*
X1832705Y611026D01*
X1825672Y606327D01*
X1824550Y604648D01*
X1736653D01*
X1734739Y609267D01*
X1805438Y679966D01*
X1808368Y680549D01*
X1818004Y686988D01*
X1824444Y696625D01*
X1826705Y707992D01*
X1824444Y719360D01*
X1818004Y728996D01*
X1808368Y735436D01*
X1797000Y737697D01*
X1785632Y735436D01*
X1775996Y728996D01*
X1769556Y719360D01*
X1767295Y707992D01*
X1769556Y696625D01*
X1775139Y688270D01*
X1710517Y623648D01*
X1185653D01*
X1104651Y704651D01*
X1100223Y707609D01*
X1095000Y708648D01*
X909510D01*
X907994Y713648D01*
X913115Y717070D01*
X921950Y725905D01*
X922295Y725974D01*
X929327Y730673D01*
X934026Y737705D01*
X935676Y746000D01*
X934026Y754295D01*
X929327Y761327D01*
X922295Y766026D01*
X914000Y767676D01*
X911222Y772222D01*
X912101Y773537D01*
X913293Y779528D01*
Y838583D01*
X912101Y844574D01*
X908707Y849653D01*
X903629Y853046D01*
X897638Y854238D01*
X891647Y853046D01*
X887795Y850473D01*
X883944Y853046D01*
X877953Y854238D01*
X871962Y853046D01*
X868110Y850473D01*
X864259Y853046D01*
X858268Y854238D01*
X852277Y853046D01*
X848425Y850472D01*
X844573Y853046D01*
X838583Y854238D01*
X832592Y853046D01*
X828740Y850473D01*
X824889Y853046D01*
X818898Y854238D01*
X812907Y853046D01*
X809055Y850473D01*
X805203Y853046D01*
X799213Y854238D01*
X793222Y853046D01*
X789370Y850472D01*
X785518Y853046D01*
X779528Y854238D01*
X773537Y853046D01*
X768458Y849653D01*
X765064Y844574D01*
X763872Y838583D01*
Y779528D01*
X765064Y773537D01*
X768458Y768458D01*
X773537Y765064D01*
X779528Y763873D01*
X785518Y765064D01*
X789370Y767638D01*
X793222Y765064D01*
X799213Y763873D01*
X805203Y765064D01*
X809055Y767638D01*
X812907Y765064D01*
X818898Y763873D01*
X824889Y765064D01*
X828740Y767638D01*
X832592Y765064D01*
X838583Y763873D01*
X844573Y765064D01*
X848425Y767638D01*
X852277Y765064D01*
X858268Y763873D01*
X859356Y764089D01*
X863221Y760917D01*
Y748881D01*
X860922Y747345D01*
X857572Y742332D01*
X856396Y736417D01*
Y721850D01*
X857572Y715936D01*
X859618Y712874D01*
X858883Y708269D01*
X857950Y707056D01*
X854349Y704651D01*
X833552Y683853D01*
X828943Y686316D01*
X829676Y690000D01*
X828026Y698295D01*
X823327Y705327D01*
X816295Y710026D01*
X808000Y711676D01*
X799705Y710026D01*
X792673Y705327D01*
X791550Y703648D01*
X768440D01*
X766451Y706625D01*
Y711486D01*
X769780Y716467D01*
X770948Y722342D01*
Y733563D01*
X769780Y739439D01*
X766451Y744420D01*
X762648Y746961D01*
Y747260D01*
X761609Y752483D01*
X758651Y756911D01*
X753805Y761756D01*
Y772317D01*
X754621Y773537D01*
X755812Y779528D01*
Y838583D01*
X754621Y844574D01*
X751227Y849653D01*
X746148Y853046D01*
X740157Y854238D01*
X739120Y854032D01*
X734120Y858135D01*
Y981945D01*
X747600Y995425D01*
X749581Y995030D01*
X757876Y996681D01*
X764908Y1001379D01*
X769607Y1008412D01*
X771257Y1016707D01*
X769607Y1025002D01*
X764908Y1032034D01*
X757876Y1036733D01*
X749581Y1038383D01*
X741286Y1036733D01*
X734253Y1032034D01*
X729555Y1025002D01*
X727905Y1016707D01*
X728299Y1014726D01*
X710822Y997249D01*
X707863Y992821D01*
X706824Y987598D01*
Y872159D01*
X702205Y870246D01*
X691044Y881406D01*
X686617Y884365D01*
X681394Y885404D01*
X635631D01*
X633717Y890023D01*
X659651Y915956D01*
X662609Y920384D01*
X663648Y925607D01*
Y1042347D01*
X747253Y1125952D01*
X862120D01*
X867342Y1126991D01*
X871770Y1129949D01*
X926397Y1184576D01*
X929167Y1183707D01*
X931323Y1182431D01*
X932387Y1177080D01*
X935781Y1172001D01*
X940860Y1168608D01*
X946850Y1167416D01*
X1005905D01*
X1011896Y1168608D01*
X1016975Y1172001D01*
X1020369Y1177080D01*
X1021561Y1183071D01*
X1020369Y1189062D01*
X1016975Y1194141D01*
X1011896Y1197534D01*
X1010121Y1197887D01*
X1010614Y1202887D01*
X1035322D01*
X1036444Y1201208D01*
D02*
G37*
G36*
X2144095Y1263072D02*
X2189352D01*
Y1168653D01*
X2155703Y1135004D01*
X2152744Y1130576D01*
X2151706Y1125354D01*
Y1103373D01*
X2150026Y1102251D01*
X2145327Y1095219D01*
X2143677Y1086923D01*
X2145327Y1078628D01*
X2150026Y1071596D01*
X2157058Y1066897D01*
X2160784Y1066156D01*
X2162430Y1060731D01*
X2113347Y1011648D01*
X1955450D01*
X1954328Y1013327D01*
X1947295Y1018026D01*
X1939000Y1019676D01*
X1930705Y1018026D01*
X1923672Y1013327D01*
X1918974Y1006295D01*
X1917324Y998000D01*
X1918974Y989705D01*
X1923672Y982673D01*
X1930705Y977974D01*
X1939000Y976324D01*
X1947295Y977974D01*
X1954328Y982673D01*
X1955450Y984352D01*
X2119000D01*
X2121500Y982300D01*
Y969242D01*
X2100662Y948404D01*
X1718756D01*
X1713533Y947365D01*
X1709105Y944406D01*
X1660981Y896282D01*
X1659000Y896676D01*
X1650705Y895026D01*
X1643672Y890327D01*
X1642980Y889291D01*
X1605610D01*
X1507263Y987638D01*
X1509177Y992258D01*
X1543816D01*
X1549039Y993297D01*
X1553467Y996255D01*
X1555033Y997822D01*
X1560459Y996176D01*
X1562766Y984577D01*
X1571502Y971502D01*
X1584577Y962766D01*
X1595000Y960693D01*
Y1000000D01*
X1600000D01*
Y1005000D01*
X1639307D01*
X1637234Y1015423D01*
X1628498Y1028498D01*
X1621033Y1033486D01*
X1622549Y1038486D01*
X1677451D01*
X1678967Y1033486D01*
X1671502Y1028498D01*
X1662766Y1015423D01*
X1660693Y1005000D01*
X1700000D01*
X1739307D01*
X1737234Y1015423D01*
X1728498Y1028498D01*
X1721033Y1033486D01*
X1722549Y1038486D01*
X1849550D01*
X1850672Y1036806D01*
X1857705Y1032108D01*
X1866000Y1030458D01*
X1874295Y1032108D01*
X1881328Y1036806D01*
X1886026Y1043839D01*
X1887676Y1052134D01*
X1886026Y1060429D01*
X1881328Y1067461D01*
X1874295Y1072160D01*
X1866000Y1073810D01*
X1857705Y1072160D01*
X1850672Y1067461D01*
X1849550Y1065782D01*
X1728549D01*
X1727097Y1070567D01*
X1728498Y1071502D01*
X1737234Y1084577D01*
X1739307Y1095000D01*
X1700000D01*
Y1105000D01*
X1739307D01*
X1737234Y1115423D01*
X1728952Y1127818D01*
X1730346Y1132818D01*
X1812530D01*
X1812531Y1132818D01*
X1817778Y1133862D01*
X1822227Y1136834D01*
X1949121Y1263728D01*
X2144095D01*
Y1263072D01*
D02*
G37*
G36*
X276428Y1438102D02*
X293174Y1421357D01*
X293174Y1231474D01*
X328918Y1195723D01*
X328918Y1089838D01*
X319946Y1080866D01*
X200388Y1080866D01*
X200186Y1092832D01*
X203692Y1096398D01*
X247458Y1096398D01*
X262178Y1111117D01*
X262177Y1168230D01*
X205026Y1225382D01*
X205026Y1422026D01*
X221102Y1438102D01*
X276428Y1438102D01*
D02*
G37*
G36*
X1518660Y1118386D02*
X1521200Y1116700D01*
X1524100Y1113800D01*
X1526200Y1111500D01*
X1528500Y1107600D01*
X1529600Y1103900D01*
X1529400Y1095200D01*
X1528400Y1092400D01*
X1525100Y1087000D01*
X1521800Y1083800D01*
X1518187Y1081535D01*
X1514200Y1080300D01*
X1512200Y1081000D01*
X1511022Y1083071D01*
Y1117008D01*
X1514000Y1119900D01*
X1518660Y1118386D01*
D02*
G37*
G36*
X1503800Y1119000D02*
X1504978Y1116929D01*
Y1082992D01*
X1502000Y1080100D01*
X1497340Y1081614D01*
X1494800Y1083300D01*
X1491900Y1086200D01*
X1489800Y1088500D01*
X1487500Y1092400D01*
X1486400Y1096100D01*
X1486600Y1104800D01*
X1487600Y1107600D01*
X1490900Y1113000D01*
X1494200Y1116200D01*
X1497813Y1118465D01*
X1501800Y1119700D01*
X1503800Y1119000D01*
D02*
G37*
G36*
X1519660Y1060386D02*
X1522200Y1058700D01*
X1525100Y1055800D01*
X1527200Y1053500D01*
X1529500Y1049600D01*
X1530600Y1045900D01*
X1530400Y1037200D01*
X1529400Y1034400D01*
X1526100Y1029000D01*
X1522800Y1025800D01*
X1519187Y1023535D01*
X1515200Y1022300D01*
X1513200Y1023000D01*
X1512022Y1025071D01*
Y1059008D01*
X1515000Y1061900D01*
X1519660Y1060386D01*
D02*
G37*
G36*
X1502800Y1061000D02*
X1503978Y1058929D01*
Y1024992D01*
X1501000Y1022100D01*
X1496340Y1023614D01*
X1493800Y1025300D01*
X1490900Y1028200D01*
X1488800Y1030500D01*
X1486500Y1034400D01*
X1485400Y1038100D01*
X1485600Y1046800D01*
X1486600Y1049600D01*
X1489900Y1055000D01*
X1493200Y1058200D01*
X1496813Y1060465D01*
X1500800Y1061700D01*
X1502800Y1061000D01*
D02*
G37*
G36*
X2359974Y1256725D02*
Y1155633D01*
X2361013Y1150410D01*
X2363971Y1145983D01*
X2371486Y1138467D01*
X2371092Y1136486D01*
X2372742Y1128191D01*
X2377441Y1121159D01*
X2379121Y1120037D01*
Y1025573D01*
X2332748Y979200D01*
X2305305D01*
X2304648Y980000D01*
Y1263072D01*
X2353627D01*
X2359974Y1256725D01*
D02*
G37*
G36*
X1572810Y883489D02*
X1575005Y879393D01*
X1575005D01*
X1575005Y879393D01*
X1574997Y831375D01*
X1569996Y829305D01*
X1512436Y886865D01*
X1508008Y889824D01*
X1502785Y890863D01*
X1291977D01*
X1287874Y895863D01*
X1288676Y899898D01*
X1287026Y908193D01*
X1282328Y915225D01*
X1275295Y919924D01*
X1267000Y921574D01*
X1262463Y920671D01*
X1260512Y925381D01*
X1262244Y926539D01*
X1268684Y936176D01*
X1270945Y947543D01*
X1268684Y958911D01*
X1262896Y967572D01*
X1264535Y972572D01*
X1429550D01*
X1430672Y970893D01*
X1437705Y966194D01*
X1446000Y964544D01*
X1454295Y966194D01*
X1461328Y970893D01*
X1462450Y972572D01*
X1483726D01*
X1572810Y883489D01*
D02*
G37*
G36*
X3054999Y1728598D02*
X3055000Y1058401D01*
X3074809Y1038592D01*
X3114669Y1038593D01*
X3132199Y1021062D01*
X3132200Y981200D01*
X3115000Y964000D01*
X3073669Y964000D01*
X3012642Y1025027D01*
X3012642Y1705360D01*
X2922014Y1795989D01*
X2453013Y1795989D01*
X2265845Y1608821D01*
X2265845Y1516773D01*
X2238121Y1489048D01*
X2176764Y1489048D01*
X2173228Y1492584D01*
X2173228Y1498929D01*
X2173442Y1498971D01*
X2204776Y1499001D01*
X2221954Y1516179D01*
X2221954Y1640073D01*
X2423448Y1841568D01*
X2942029D01*
X3054999Y1728598D01*
D02*
G37*
G36*
X1612800Y876700D02*
X1615600Y875700D01*
X1621000Y872400D01*
X1624200Y869100D01*
X1626465Y865487D01*
X1627700Y861500D01*
X1627000Y859500D01*
X1624929Y858322D01*
X1590992D01*
X1588100Y861300D01*
X1589614Y865960D01*
X1591300Y868500D01*
X1594200Y871400D01*
X1596500Y873500D01*
X1600400Y875800D01*
X1604100Y876900D01*
X1612800Y876700D01*
D02*
G37*
G36*
X1627900Y847300D02*
X1626386Y842640D01*
X1624700Y840100D01*
X1621800Y837200D01*
X1619500Y835100D01*
X1615600Y832800D01*
X1611900Y831700D01*
X1603200Y831900D01*
X1600400Y832900D01*
X1595000Y836200D01*
X1591800Y839500D01*
X1589535Y843113D01*
X1588300Y847100D01*
X1589000Y849100D01*
X1591071Y850278D01*
X1625008D01*
X1627900Y847300D01*
D02*
G37*
G36*
X2225000Y681000D02*
X2189000Y645000D01*
X2120383Y645000D01*
X2120383Y746000D01*
X2225000Y746000D01*
Y681000D01*
D02*
G37*
G36*
X2317428Y561733D02*
X2311979Y556283D01*
X2310000Y556676D01*
X2301705Y555026D01*
X2294673Y550327D01*
X2289974Y543295D01*
X2288324Y535000D01*
X2289974Y526705D01*
X2294673Y519673D01*
X2301705Y514974D01*
X2310000Y513324D01*
X2318295Y514974D01*
X2325327Y519673D01*
X2329910Y526531D01*
X2331024Y526705D01*
X2333976D01*
X2335090Y526531D01*
X2339673Y519673D01*
X2346705Y514974D01*
X2355000Y513324D01*
X2363295Y514974D01*
X2370327Y519673D01*
X2371450Y521352D01*
X2379347D01*
X2476352Y424347D01*
Y370000D01*
X2477391Y364777D01*
X2480349Y360349D01*
X2530468Y310231D01*
X2534895Y307273D01*
X2540118Y306234D01*
X2547297D01*
X2548814Y301234D01*
X2548649Y301124D01*
X2543950Y294091D01*
X2542300Y285796D01*
X2543950Y277501D01*
X2548649Y270469D01*
X2555681Y265770D01*
X2563976Y264120D01*
X2568283Y264977D01*
X2591578D01*
X2593829Y263472D01*
X2599705Y262304D01*
X2612894D01*
X2618769Y263472D01*
X2623751Y266801D01*
X2627079Y271782D01*
X2628248Y277658D01*
Y288878D01*
X2627079Y294754D01*
X2623751Y299735D01*
Y304596D01*
X2627079Y309577D01*
X2628115Y314787D01*
X2665362D01*
Y312486D01*
X2717937D01*
Y299891D01*
X2703475Y285430D01*
X2699864Y280025D01*
X2698596Y273650D01*
Y271214D01*
X2698521Y271164D01*
X2695171Y266150D01*
X2693994Y260236D01*
Y245669D01*
X2694918Y241024D01*
X2694287Y236024D01*
X2694287D01*
X2694287Y236024D01*
Y167678D01*
X2684305Y157695D01*
X2555781D01*
X2546360Y167117D01*
Y167520D01*
X2545184Y173434D01*
X2541833Y178448D01*
X2536820Y181798D01*
X2530905Y182974D01*
X2516338D01*
X2510424Y181798D01*
X2510190Y181641D01*
X2494159D01*
X2461778Y214022D01*
X2455345Y218320D01*
X2447757Y219830D01*
X2433627D01*
X2428100Y228100D01*
X2415208Y236715D01*
X2400000Y239740D01*
X2384792Y236715D01*
X2371900Y228100D01*
X2363285Y215208D01*
X2360260Y200000D01*
X2363285Y184792D01*
X2370295Y174300D01*
Y157304D01*
X2348696Y135705D01*
X1511304D01*
X1321004Y326004D01*
X1313001Y331352D01*
X1314518Y336352D01*
X1718347D01*
X1822350Y232349D01*
X1826777Y229391D01*
X1832000Y228352D01*
X1861024D01*
Y161024D01*
X1938976D01*
Y228352D01*
X1952347D01*
X1964169Y216530D01*
X1963285Y215208D01*
X1960260Y200000D01*
X1963285Y184792D01*
X1971900Y171900D01*
X1984792Y163285D01*
X2000000Y160260D01*
X2015208Y163285D01*
X2028100Y171900D01*
X2036715Y184792D01*
X2039740Y200000D01*
X2036715Y215208D01*
X2028100Y228100D01*
X2015208Y236715D01*
X2001950Y239352D01*
X2002443Y244352D01*
X2036347D01*
X2064169Y216530D01*
X2063285Y215208D01*
X2060260Y200000D01*
X2063285Y184792D01*
X2071900Y171900D01*
X2084792Y163285D01*
X2100000Y160260D01*
X2115208Y163285D01*
X2128100Y171900D01*
X2136715Y184792D01*
X2139740Y200000D01*
X2136715Y215208D01*
X2128100Y228100D01*
X2115208Y236715D01*
X2100000Y239740D01*
X2084792Y236715D01*
X2083470Y235831D01*
X2051651Y267651D01*
X2047223Y270609D01*
X2042000Y271648D01*
X2033946D01*
X2031273Y276648D01*
X2036715Y284792D01*
X2039740Y300000D01*
X2036715Y315208D01*
X2028100Y328100D01*
X2015208Y336715D01*
X2013648Y337025D01*
Y359347D01*
X2081352Y427051D01*
X2086352Y424980D01*
Y337025D01*
X2084792Y336715D01*
X2071900Y328100D01*
X2063285Y315208D01*
X2060260Y300000D01*
X2063285Y284792D01*
X2071900Y271900D01*
X2084792Y263285D01*
X2100000Y260260D01*
X2115208Y263285D01*
X2128100Y271900D01*
X2136715Y284792D01*
X2139740Y300000D01*
X2136715Y315208D01*
X2128100Y328100D01*
X2115208Y336715D01*
X2113648Y337025D01*
Y424347D01*
X2181733Y492431D01*
X2186352Y490518D01*
Y337025D01*
X2184792Y336715D01*
X2171900Y328100D01*
X2163285Y315208D01*
X2160260Y300000D01*
X2163285Y284792D01*
X2171900Y271900D01*
X2184792Y263285D01*
X2200000Y260260D01*
X2215208Y263285D01*
X2228100Y271900D01*
X2236715Y284792D01*
X2239740Y300000D01*
X2236715Y315208D01*
X2228100Y328100D01*
X2215208Y336715D01*
X2213648Y337025D01*
Y495036D01*
X2284964Y566352D01*
X2315515D01*
X2317428Y561733D01*
D02*
G37*
G36*
X2510349Y520349D02*
X2514777Y517391D01*
X2520000Y516352D01*
X2742347D01*
X2770021Y488677D01*
X2768295Y480000D01*
X2770557Y468632D01*
X2776996Y458996D01*
X2786633Y452557D01*
X2798000Y450295D01*
X2809367Y452557D01*
X2819004Y458996D01*
X2821914Y463350D01*
X2827696Y463003D01*
X2841352Y449347D01*
Y421998D01*
X2836352Y421506D01*
X2835538Y425599D01*
X2832188Y430613D01*
X2827174Y433963D01*
X2821260Y435139D01*
X2809842D01*
X2803928Y433963D01*
X2798914Y430613D01*
X2795564Y425599D01*
X2794388Y419685D01*
Y405118D01*
X2795564Y399204D01*
X2798892Y394223D01*
Y384464D01*
X2749678D01*
X2743303Y383195D01*
X2737899Y379584D01*
X2728249Y369935D01*
X2723630Y371848D01*
Y383754D01*
X2668471D01*
X2668018Y386032D01*
X2664668Y391046D01*
X2659654Y394396D01*
X2653740Y395573D01*
X2642288D01*
X2641430Y395743D01*
X2628842D01*
X2628248Y396337D01*
Y400492D01*
X2627079Y406368D01*
X2623751Y411349D01*
X2618769Y414677D01*
X2612894Y415846D01*
X2599705D01*
X2593829Y414677D01*
X2591872Y413370D01*
X2571794D01*
X2571259Y413727D01*
X2562964Y415377D01*
X2554669Y413727D01*
X2547637Y409028D01*
X2542938Y401996D01*
X2541288Y393701D01*
X2542938Y385406D01*
X2547637Y378373D01*
X2551585Y375735D01*
X2550069Y370735D01*
X2538566D01*
X2521648Y387653D01*
Y442000D01*
X2520609Y447223D01*
X2517651Y451651D01*
X2407569Y561733D01*
X2409482Y566352D01*
X2464347D01*
X2510349Y520349D01*
D02*
G37*
G36*
X823352Y404558D02*
Y402055D01*
X824391Y396832D01*
X827349Y392404D01*
X879404Y340349D01*
X883832Y337391D01*
X889055Y336352D01*
X1002904D01*
X1005682Y332195D01*
X1004773Y330000D01*
Y280000D01*
X1007768Y272768D01*
X1015000Y269773D01*
X1160000D01*
X1167232Y272768D01*
X1168279Y275295D01*
X1287696D01*
X1302761Y260231D01*
X1300298Y255623D01*
X1295000Y256676D01*
X1286705Y255026D01*
X1279672Y250327D01*
X1274974Y243295D01*
X1273324Y235000D01*
X1274974Y226705D01*
X1279672Y219673D01*
X1281293Y218590D01*
Y179440D01*
X1275734Y178334D01*
X1268929Y173788D01*
X1264382Y166983D01*
X1262786Y158957D01*
Y141717D01*
X1226978D01*
Y158957D01*
X1225381Y166983D01*
X1220835Y173788D01*
X1214030Y178334D01*
X1208530Y179428D01*
Y193483D01*
X1207491Y198706D01*
X1204533Y203134D01*
X1178016Y229651D01*
X1173588Y232609D01*
X1168365Y233648D01*
X915921D01*
X772648Y376921D01*
Y400849D01*
X777648Y403962D01*
X783760Y402747D01*
X806004D01*
X814030Y404343D01*
X818352Y407231D01*
X823352Y404558D01*
D02*
G37*
G36*
X2822609Y684119D02*
Y652779D01*
X2818199Y650422D01*
X2817295Y651026D01*
X2809000Y652676D01*
X2800705Y651026D01*
X2793673Y646327D01*
X2792550Y644648D01*
X2764096D01*
X2758873Y643609D01*
X2754446Y640651D01*
X2716443Y602648D01*
X2548411D01*
X2506408Y644651D01*
X2501981Y647609D01*
X2496758Y648648D01*
X2235000D01*
X2229777Y647609D01*
X2225349Y644651D01*
X1916530Y335831D01*
X1915208Y336715D01*
X1900000Y339740D01*
X1884792Y336715D01*
X1871900Y328100D01*
X1863285Y315208D01*
X1860260Y300000D01*
X1863285Y284792D01*
X1868727Y276648D01*
X1866054Y271648D01*
X1847653D01*
X1744651Y374651D01*
X1740223Y377609D01*
X1735000Y378648D01*
X902196D01*
X866648Y414196D01*
Y548611D01*
X871132Y550822D01*
X872950Y549428D01*
X888657Y542922D01*
X905512Y540703D01*
X922367Y542922D01*
X938074Y549428D01*
X951561Y559777D01*
X961911Y573265D01*
X968417Y588971D01*
X970636Y605827D01*
X968417Y622682D01*
X961911Y638389D01*
X951561Y651876D01*
X939212Y661352D01*
X940522Y666352D01*
X979343D01*
X982016Y661352D01*
X979974Y658295D01*
X978324Y650000D01*
X979974Y641705D01*
X984673Y634673D01*
X991705Y629974D01*
X1000000Y628324D01*
X1008295Y629974D01*
X1015327Y634673D01*
X1016450Y636352D01*
X1072693D01*
X1148729Y560317D01*
X1153156Y557358D01*
X1158379Y556319D01*
X1178709D01*
X1181871Y551319D01*
X1181234Y548115D01*
Y518011D01*
X1175734Y516917D01*
X1168929Y512370D01*
X1164382Y505566D01*
X1162786Y497539D01*
Y423721D01*
X1164382Y415694D01*
X1168929Y408890D01*
X1175734Y404343D01*
X1183760Y402747D01*
X1206004D01*
X1214030Y404343D01*
X1220835Y408890D01*
X1225381Y415694D01*
X1226978Y423721D01*
Y497539D01*
X1225381Y505566D01*
X1220835Y512370D01*
X1214030Y516917D01*
X1208530Y518011D01*
Y542461D01*
X1222388Y556319D01*
X1564906D01*
Y515079D01*
X1629079D01*
Y549549D01*
X1634079Y551620D01*
X1646352Y539347D01*
Y495000D01*
X1647391Y489777D01*
X1650349Y485349D01*
X1666098Y469601D01*
X1670525Y466643D01*
X1675748Y465604D01*
X1712543D01*
Y443425D01*
X1688921D01*
Y395000D01*
X1753094D01*
Y439773D01*
X1759773D01*
Y400000D01*
X1762768Y392768D01*
X1770000Y389773D01*
X1830000D01*
X1837232Y392768D01*
X1840227Y400000D01*
Y564460D01*
X1840338Y565158D01*
X1843632Y569847D01*
X1849295Y570974D01*
X1856328Y575673D01*
X1861026Y582705D01*
X1862521Y590220D01*
X1883653Y611352D01*
X2095000D01*
X2100223Y612391D01*
X2104651Y615349D01*
X2127909Y638608D01*
X2189000Y638608D01*
X2193520Y640480D01*
X2229520Y676480D01*
X2231392Y681000D01*
Y746000D01*
X2231627Y746352D01*
X2760375D01*
X2822609Y684119D01*
D02*
G37*
G36*
X721000Y523062D02*
X721001Y300781D01*
X546000Y300781D01*
X520866Y325915D01*
X520866Y514866D01*
X553000Y547000D01*
X697062Y547000D01*
X721000Y523062D01*
D02*
G37*
G36*
X748663Y77848D02*
X733524Y62709D01*
X660289D01*
X644000Y78997D01*
X643999Y290000D01*
X749010Y290000D01*
X748663Y77848D01*
D02*
G37*
%LPC*%
G36*
X3705787Y2021957D02*
Y1894764D01*
X3832981D01*
X3830924Y1915650D01*
X3823373Y1940541D01*
X3811112Y1963480D01*
X3794611Y1983587D01*
X3774504Y2000088D01*
X3751564Y2012350D01*
X3726673Y2019900D01*
X3705787Y2021957D01*
D02*
G37*
G36*
X3695787D02*
X3674902Y2019900D01*
X3650011Y2012350D01*
X3627071Y2000088D01*
X3606964Y1983587D01*
X3590463Y1963480D01*
X3578201Y1940541D01*
X3570651Y1915650D01*
X3568594Y1894764D01*
X3695787D01*
Y2021957D01*
D02*
G37*
G36*
X162480D02*
Y1894764D01*
X289674D01*
X287617Y1915650D01*
X280066Y1940541D01*
X267805Y1963480D01*
X251304Y1983587D01*
X231197Y2000088D01*
X208257Y2012350D01*
X183366Y2019900D01*
X162480Y2021957D01*
D02*
G37*
G36*
X152480D02*
X131595Y2019900D01*
X106704Y2012350D01*
X83764Y2000088D01*
X63657Y1983587D01*
X47156Y1963480D01*
X34894Y1940541D01*
X27344Y1915650D01*
X25287Y1894764D01*
X152480D01*
Y2021957D01*
D02*
G37*
G36*
X289674Y1884764D02*
X162480D01*
Y1757570D01*
X183366Y1759627D01*
X208257Y1767178D01*
X231197Y1779439D01*
X251304Y1795941D01*
X267805Y1816047D01*
X280066Y1838987D01*
X287617Y1863878D01*
X289674Y1884764D01*
D02*
G37*
G36*
X152480D02*
X25287D01*
X27344Y1863878D01*
X34894Y1838987D01*
X47156Y1816047D01*
X63657Y1795941D01*
X83764Y1779439D01*
X106704Y1767178D01*
X131595Y1759627D01*
X152480Y1757570D01*
Y1884764D01*
D02*
G37*
G36*
X125000Y1725038D02*
X111947Y1723319D01*
X99784Y1718281D01*
X89340Y1710267D01*
X81325Y1699822D01*
X76287Y1687659D01*
X74569Y1674606D01*
X76287Y1661554D01*
X81325Y1649391D01*
X89340Y1638946D01*
X99784Y1630931D01*
X111947Y1625893D01*
X125000Y1624175D01*
X138053Y1625893D01*
X150216Y1630931D01*
X160660Y1638946D01*
X168675Y1649391D01*
X173713Y1661554D01*
X175431Y1674606D01*
X173713Y1687659D01*
X168675Y1699822D01*
X160660Y1710267D01*
X150216Y1718281D01*
X138053Y1723319D01*
X125000Y1725038D01*
D02*
G37*
G36*
X119173Y1533008D02*
Y1498701D01*
X153481D01*
X151407Y1509124D01*
X142671Y1522198D01*
X129596Y1530935D01*
X119173Y1533008D01*
D02*
G37*
G36*
X109173Y1533008D02*
X98750Y1530935D01*
X85675Y1522198D01*
X76939Y1509124D01*
X74866Y1498701D01*
X109173D01*
Y1533008D01*
D02*
G37*
G36*
Y1488701D02*
X74866D01*
X76939Y1478278D01*
X85675Y1465203D01*
X98750Y1456467D01*
X109173Y1454393D01*
Y1488701D01*
D02*
G37*
G36*
X2895000Y1139307D02*
X2884577Y1137234D01*
X2871502Y1128498D01*
X2862766Y1115423D01*
X2860693Y1105000D01*
X2895000D01*
Y1139307D01*
D02*
G37*
G36*
Y1095000D02*
X2860693D01*
X2862766Y1084577D01*
X2871502Y1071502D01*
X2884577Y1062766D01*
X2895000Y1060693D01*
Y1095000D01*
D02*
G37*
G36*
X2805000Y1039307D02*
Y1005000D01*
X2839307D01*
X2837234Y1015423D01*
X2828498Y1028498D01*
X2815423Y1037234D01*
X2805000Y1039307D01*
D02*
G37*
G36*
X2895000Y1039307D02*
X2884577Y1037234D01*
X2871502Y1028498D01*
X2862766Y1015423D01*
X2860693Y1005000D01*
X2895000D01*
Y1039307D01*
D02*
G37*
G36*
X2795000D02*
X2784577Y1037234D01*
X2771502Y1028498D01*
X2762766Y1015423D01*
X2760693Y1005000D01*
X2795000D01*
Y1039307D01*
D02*
G37*
G36*
X553149Y982191D02*
X494094D01*
X489453Y981267D01*
X466722D01*
X461085Y980146D01*
X457681Y977872D01*
X451716D01*
X445802Y976695D01*
X445486Y976484D01*
X438856D01*
X438434Y976766D01*
X430139Y978416D01*
X421844Y976766D01*
X414812Y972067D01*
X410113Y965035D01*
X408463Y956740D01*
X410113Y948444D01*
X414812Y941412D01*
X421844Y936713D01*
X430139Y935063D01*
X438434Y936713D01*
X441126Y935776D01*
X442669Y930383D01*
X432127Y919841D01*
X428821Y914892D01*
X427660Y909055D01*
Y887442D01*
X426277Y886519D01*
X422927Y881505D01*
X421750Y875591D01*
Y861024D01*
X422927Y855110D01*
X426277Y850096D01*
X427463Y849303D01*
Y833354D01*
X426053Y832412D01*
X421191D01*
X416210Y835740D01*
X410335Y836909D01*
X399114D01*
X395981Y836286D01*
X394215Y836637D01*
X394214Y836637D01*
X374606D01*
Y837205D01*
X328150D01*
Y792716D01*
X374606D01*
Y793284D01*
X385236D01*
X385458Y793062D01*
Y748983D01*
X379691Y740352D01*
X377430Y728985D01*
Y210779D01*
X379691Y199412D01*
X386130Y189775D01*
X474862Y101043D01*
X484499Y94604D01*
X495866Y92343D01*
X562786D01*
Y85138D01*
X564383Y77112D01*
X568929Y70307D01*
X575734Y65761D01*
X583760Y64164D01*
X606004D01*
X614030Y65761D01*
X620835Y70307D01*
X625381Y77112D01*
X626978Y85138D01*
Y158957D01*
X625381Y166983D01*
X620835Y173788D01*
X614030Y178334D01*
X606004Y179931D01*
X583760D01*
X575734Y178334D01*
X568929Y173788D01*
X564383Y166983D01*
X562786Y158957D01*
Y151752D01*
X508170D01*
X436839Y223083D01*
Y431880D01*
X436863Y432000D01*
X436839Y432120D01*
Y728985D01*
X434578Y740352D01*
X428811Y748983D01*
Y790111D01*
X433811Y793629D01*
X436909Y793012D01*
X448130D01*
X454005Y794181D01*
X458987Y797509D01*
X462315Y802490D01*
X463484Y808366D01*
Y821555D01*
X462315Y827431D01*
X458987Y832412D01*
X457970Y833091D01*
Y849040D01*
X459550Y850096D01*
X462900Y855110D01*
X464076Y861024D01*
Y875591D01*
X462900Y881505D01*
X459550Y886519D01*
X458167Y887442D01*
Y902737D01*
X467342Y911912D01*
X492077D01*
X494094Y911510D01*
X553149D01*
X559140Y912702D01*
X564219Y916096D01*
X567613Y921174D01*
X568805Y927165D01*
X567613Y933156D01*
X564219Y938235D01*
X559140Y941629D01*
X553149Y942821D01*
X494094D01*
X492077Y942419D01*
X484335D01*
X481318Y946977D01*
X482786Y951804D01*
X489453D01*
X494094Y950880D01*
X553149D01*
X559140Y952072D01*
X564219Y955466D01*
X567613Y960545D01*
X568805Y966535D01*
X567613Y972526D01*
X564219Y977605D01*
X559140Y980999D01*
X553149Y982191D01*
D02*
G37*
G36*
X2839307Y995000D02*
X2805000D01*
Y960693D01*
X2815423Y962766D01*
X2828498Y971502D01*
X2837234Y984577D01*
X2839307Y995000D01*
D02*
G37*
G36*
X2895000D02*
X2860693D01*
X2862766Y984577D01*
X2871502Y971502D01*
X2884577Y962766D01*
X2895000Y960693D01*
Y995000D01*
D02*
G37*
G36*
X2795000D02*
X2760693D01*
X2762766Y984577D01*
X2771502Y971502D01*
X2784577Y962766D01*
X2795000Y960693D01*
Y995000D01*
D02*
G37*
G36*
X102362Y443738D02*
X89310Y442020D01*
X77147Y436982D01*
X66702Y428967D01*
X58687Y418523D01*
X53649Y406360D01*
X51931Y393307D01*
X53649Y380255D01*
X58687Y368091D01*
X66702Y357647D01*
X77147Y349632D01*
X89310Y344594D01*
X102362Y342876D01*
X115415Y344594D01*
X127578Y349632D01*
X138023Y357647D01*
X146037Y368091D01*
X151075Y380255D01*
X152794Y393307D01*
X151075Y406360D01*
X146037Y418523D01*
X138023Y428967D01*
X127578Y436982D01*
X115415Y442020D01*
X102362Y443738D01*
D02*
G37*
G36*
X162480Y289674D02*
Y162480D01*
X289674D01*
X287617Y183366D01*
X280066Y208257D01*
X267805Y231197D01*
X251304Y251304D01*
X231197Y267805D01*
X208257Y280066D01*
X183366Y287617D01*
X162480Y289674D01*
D02*
G37*
G36*
X152480D02*
X131595Y287617D01*
X106704Y280066D01*
X83764Y267805D01*
X63657Y251304D01*
X47156Y231197D01*
X34894Y208257D01*
X27344Y183366D01*
X25287Y162480D01*
X152480D01*
Y289674D01*
D02*
G37*
G36*
X3087992Y192029D02*
X3076575D01*
X3070661Y190853D01*
X3065647Y187503D01*
X3062297Y182489D01*
X3061120Y176575D01*
Y162008D01*
X3062297Y156094D01*
X3062454Y155858D01*
Y146454D01*
X3062258Y146160D01*
X3060608Y137865D01*
X3062258Y129570D01*
X3066957Y122538D01*
X3073989Y117839D01*
X3082284Y116189D01*
X3090579Y117839D01*
X3097612Y122538D01*
X3102311Y129570D01*
X3103961Y137865D01*
X3102311Y146160D01*
X3102114Y146455D01*
Y155859D01*
X3102270Y156094D01*
X3103447Y162008D01*
Y176575D01*
X3102270Y182489D01*
X3098920Y187503D01*
X3093906Y190853D01*
X3087992Y192029D01*
D02*
G37*
G36*
X3017599Y114110D02*
Y79803D01*
X3051906D01*
X3049832Y90226D01*
X3041096Y103301D01*
X3028021Y112037D01*
X3017599Y114110D01*
D02*
G37*
G36*
X3007599Y114111D02*
X2997175Y112037D01*
X2984101Y103301D01*
X2975364Y90226D01*
X2973291Y79803D01*
X3007599D01*
Y114111D01*
D02*
G37*
G36*
X795276Y267815D02*
X786980Y266166D01*
X779948Y261467D01*
X775249Y254434D01*
X773599Y246139D01*
X775249Y237844D01*
X779948Y230812D01*
X781234Y229953D01*
Y179428D01*
X775734Y178334D01*
X768929Y173788D01*
X764383Y166983D01*
X762786Y158957D01*
Y85138D01*
X764383Y77112D01*
X768929Y70307D01*
X775734Y65761D01*
X783760Y64164D01*
X806004D01*
X814030Y65761D01*
X820835Y70307D01*
X825381Y77112D01*
X826978Y85138D01*
Y158957D01*
X825381Y166983D01*
X820835Y173788D01*
X814030Y178334D01*
X808530Y179428D01*
Y229426D01*
X810603Y230812D01*
X815302Y237844D01*
X816952Y246139D01*
X815302Y254434D01*
X810603Y261467D01*
X803571Y266166D01*
X795276Y267815D01*
D02*
G37*
G36*
X3051906Y69803D02*
X3017599D01*
Y35496D01*
X3028021Y37569D01*
X3041096Y46305D01*
X3049832Y59380D01*
X3051906Y69803D01*
D02*
G37*
G36*
X3007599D02*
X2973291D01*
X2975364Y59380D01*
X2984101Y46305D01*
X2997175Y37569D01*
X3007599Y35496D01*
Y69803D01*
D02*
G37*
G36*
X289674Y152480D02*
X162480D01*
Y25287D01*
X183366Y27344D01*
X208257Y34894D01*
X231197Y47156D01*
X251304Y63657D01*
X267805Y83764D01*
X280066Y106704D01*
X287617Y131595D01*
X289674Y152480D01*
D02*
G37*
G36*
X152480D02*
X25287D01*
X27344Y131595D01*
X34894Y106704D01*
X47156Y83764D01*
X63657Y63657D01*
X83764Y47156D01*
X106704Y34894D01*
X131595Y27344D01*
X152480Y25287D01*
Y152480D01*
D02*
G37*
G36*
X3795000Y1539307D02*
X3784577Y1537234D01*
X3771502Y1528498D01*
X3762766Y1515423D01*
X3760693Y1505000D01*
X3795000D01*
Y1539307D01*
D02*
G37*
G36*
X3705000D02*
Y1505000D01*
X3739307D01*
X3737234Y1515423D01*
X3728498Y1528498D01*
X3715423Y1537234D01*
X3705000Y1539307D01*
D02*
G37*
G36*
X3695000D02*
X3684577Y1537234D01*
X3671502Y1528498D01*
X3662766Y1515423D01*
X3660693Y1505000D01*
X3695000D01*
Y1539307D01*
D02*
G37*
G36*
X3605000D02*
Y1505000D01*
X3639307D01*
X3637234Y1515423D01*
X3628498Y1528498D01*
X3615423Y1537234D01*
X3605000Y1539307D01*
D02*
G37*
G36*
X3795000Y1295000D02*
X3760693D01*
X3762766Y1284577D01*
X3771502Y1271502D01*
X3784577Y1262766D01*
X3795000Y1260693D01*
Y1295000D01*
D02*
G37*
G36*
X3700000Y1239740D02*
X3684792Y1236715D01*
X3671900Y1228100D01*
X3663285Y1215208D01*
X3660260Y1200000D01*
X3663285Y1184792D01*
X3671900Y1171900D01*
X3684792Y1163285D01*
X3700000Y1160260D01*
X3715208Y1163285D01*
X3728100Y1171900D01*
X3736715Y1184792D01*
X3739740Y1200000D01*
X3736715Y1215208D01*
X3728100Y1228100D01*
X3715208Y1236715D01*
X3700000Y1239740D01*
D02*
G37*
G36*
X3795000Y1139307D02*
X3784577Y1137234D01*
X3771502Y1128498D01*
X3762766Y1115423D01*
X3760693Y1105000D01*
X3795000D01*
Y1139307D01*
D02*
G37*
G36*
Y1095000D02*
X3760693D01*
X3762766Y1084577D01*
X3771502Y1071502D01*
X3784577Y1062766D01*
X3795000Y1060693D01*
Y1095000D01*
D02*
G37*
G36*
X3700000Y1139740D02*
X3684792Y1136715D01*
X3671900Y1128100D01*
X3663285Y1115208D01*
X3660260Y1100000D01*
X3663285Y1084792D01*
X3671900Y1071900D01*
X3684792Y1063285D01*
X3700000Y1060260D01*
X3715208Y1063285D01*
X3728100Y1071900D01*
X3736715Y1084792D01*
X3739740Y1100000D01*
X3736715Y1115208D01*
X3728100Y1128100D01*
X3715208Y1136715D01*
X3700000Y1139740D01*
D02*
G37*
G36*
Y1039740D02*
X3684792Y1036715D01*
X3671900Y1028100D01*
X3663285Y1015208D01*
X3660260Y1000000D01*
X3663285Y984792D01*
X3671900Y971900D01*
X3684792Y963285D01*
X3700000Y960260D01*
X3715208Y963285D01*
X3728100Y971900D01*
X3736715Y984792D01*
X3739740Y1000000D01*
X3736715Y1015208D01*
X3728100Y1028100D01*
X3715208Y1036715D01*
X3700000Y1039740D01*
D02*
G37*
G36*
X3795000Y939307D02*
X3784577Y937234D01*
X3771502Y928498D01*
X3762766Y915423D01*
X3760693Y905000D01*
X3795000D01*
Y939307D01*
D02*
G37*
G36*
Y895000D02*
X3760693D01*
X3762766Y884577D01*
X3771502Y871502D01*
X3784577Y862766D01*
X3795000Y860693D01*
Y895000D01*
D02*
G37*
G36*
X3700000Y939740D02*
X3684792Y936715D01*
X3671900Y928100D01*
X3663285Y915208D01*
X3660260Y900000D01*
X3663285Y884792D01*
X3671900Y871900D01*
X3684792Y863285D01*
X3700000Y860260D01*
X3715208Y863285D01*
X3728100Y871900D01*
X3736715Y884792D01*
X3739740Y900000D01*
X3736715Y915208D01*
X3728100Y928100D01*
X3715208Y936715D01*
X3700000Y939740D01*
D02*
G37*
G36*
Y839740D02*
X3684792Y836715D01*
X3671900Y828100D01*
X3663285Y815208D01*
X3660260Y800000D01*
X3663285Y784792D01*
X3671900Y771900D01*
X3684792Y763285D01*
X3700000Y760260D01*
X3715208Y763285D01*
X3728100Y771900D01*
X3736715Y784792D01*
X3739740Y800000D01*
X3736715Y815208D01*
X3728100Y828100D01*
X3715208Y836715D01*
X3700000Y839740D01*
D02*
G37*
G36*
X3795000Y739307D02*
X3784577Y737234D01*
X3771502Y728498D01*
X3762766Y715423D01*
X3760693Y705000D01*
X3795000D01*
Y739307D01*
D02*
G37*
G36*
Y695000D02*
X3760693D01*
X3762766Y684577D01*
X3771502Y671502D01*
X3784577Y662766D01*
X3795000Y660693D01*
Y695000D01*
D02*
G37*
G36*
X3700000Y739740D02*
X3684792Y736715D01*
X3671900Y728100D01*
X3663285Y715208D01*
X3660260Y700000D01*
X3663285Y684792D01*
X3671900Y671900D01*
X3684792Y663285D01*
X3700000Y660260D01*
X3715208Y663285D01*
X3728100Y671900D01*
X3736715Y684792D01*
X3739740Y700000D01*
X3736715Y715208D01*
X3728100Y728100D01*
X3715208Y736715D01*
X3700000Y739740D01*
D02*
G37*
G36*
Y639740D02*
X3684792Y636715D01*
X3671900Y628100D01*
X3663285Y615208D01*
X3660260Y600000D01*
X3663285Y584792D01*
X3671900Y571900D01*
X3684792Y563285D01*
X3700000Y560260D01*
X3715208Y563285D01*
X3728100Y571900D01*
X3736715Y584792D01*
X3739740Y600000D01*
X3736715Y615208D01*
X3728100Y628100D01*
X3715208Y636715D01*
X3700000Y639740D01*
D02*
G37*
G36*
X3795000Y539307D02*
X3784577Y537234D01*
X3771502Y528498D01*
X3762766Y515423D01*
X3760693Y505000D01*
X3795000D01*
Y539307D01*
D02*
G37*
G36*
Y495000D02*
X3760693D01*
X3762766Y484577D01*
X3771502Y471502D01*
X3784577Y462766D01*
X3795000Y460693D01*
Y495000D01*
D02*
G37*
G36*
X3700000Y539740D02*
X3684792Y536715D01*
X3671900Y528100D01*
X3663285Y515208D01*
X3660260Y500000D01*
X3663285Y484792D01*
X3671900Y471900D01*
X3684792Y463285D01*
X3700000Y460260D01*
X3715208Y463285D01*
X3728100Y471900D01*
X3736715Y484792D01*
X3739740Y500000D01*
X3736715Y515208D01*
X3728100Y528100D01*
X3715208Y536715D01*
X3700000Y539740D01*
D02*
G37*
G36*
X3725000Y400431D02*
X3711947Y398713D01*
X3699784Y393675D01*
X3689340Y385660D01*
X3681325Y375216D01*
X3676287Y363053D01*
X3674569Y350000D01*
X3676287Y336947D01*
X3681325Y324784D01*
X3689340Y314340D01*
X3699784Y306325D01*
X3711947Y301287D01*
X3725000Y299569D01*
X3738053Y301287D01*
X3750216Y306325D01*
X3760660Y314340D01*
X3768675Y324784D01*
X3773713Y336947D01*
X3775431Y350000D01*
X3773713Y363053D01*
X3768675Y375216D01*
X3760660Y385660D01*
X3750216Y393675D01*
X3738053Y398713D01*
X3725000Y400431D01*
D02*
G37*
G36*
X3282237Y317427D02*
X3270747Y315142D01*
X3261006Y308633D01*
X3254497Y298892D01*
X3252211Y287402D01*
X3254497Y275911D01*
X3261006Y266170D01*
X3270747Y259661D01*
X3282237Y257376D01*
X3293727Y259661D01*
X3303468Y266170D01*
X3309977Y275911D01*
X3312263Y287402D01*
X3309977Y298892D01*
X3303468Y308633D01*
X3293727Y315142D01*
X3282237Y317427D01*
D02*
G37*
G36*
X3705787Y289674D02*
Y162480D01*
X3832981D01*
X3830924Y183366D01*
X3823373Y208257D01*
X3811112Y231197D01*
X3794611Y251304D01*
X3774504Y267805D01*
X3751564Y280066D01*
X3726673Y287617D01*
X3705787Y289674D01*
D02*
G37*
G36*
X3695787D02*
X3674902Y287617D01*
X3650011Y280066D01*
X3627071Y267805D01*
X3606964Y251304D01*
X3590463Y231197D01*
X3578201Y208257D01*
X3570651Y183366D01*
X3568594Y162480D01*
X3695787D01*
Y289674D01*
D02*
G37*
G36*
X3832981Y152480D02*
X3705787D01*
Y25287D01*
X3726673Y27344D01*
X3751564Y34894D01*
X3774504Y47156D01*
X3794611Y63657D01*
X3811112Y83764D01*
X3823373Y106704D01*
X3830924Y131595D01*
X3832981Y152480D01*
D02*
G37*
G36*
X3695787D02*
X3568594D01*
X3570651Y131595D01*
X3578201Y106704D01*
X3590463Y83764D01*
X3606964Y63657D01*
X3627071Y47156D01*
X3650011Y34894D01*
X3674902Y27344D01*
X3695787Y25287D01*
Y152480D01*
D02*
G37*
G36*
X3200000Y1639313D02*
X3189825Y1637973D01*
X3180344Y1634046D01*
X3172202Y1627798D01*
X3165954Y1619656D01*
X3162027Y1610175D01*
X3160687Y1600000D01*
X3162027Y1589825D01*
X3165954Y1580344D01*
X3172202Y1572202D01*
X3180344Y1565954D01*
X3189825Y1562027D01*
X3200000Y1560687D01*
X3210175Y1562027D01*
X3219656Y1565954D01*
X3227798Y1572202D01*
X3234046Y1580344D01*
X3237973Y1589825D01*
X3239313Y1600000D01*
X3237973Y1610175D01*
X3234046Y1619656D01*
X3227798Y1627798D01*
X3219656Y1634046D01*
X3210175Y1637973D01*
X3200000Y1639313D01*
D02*
G37*
G36*
Y1539313D02*
X3189825Y1537973D01*
X3180344Y1534046D01*
X3172202Y1527798D01*
X3165954Y1519656D01*
X3162027Y1510175D01*
X3160687Y1500000D01*
X3162027Y1489825D01*
X3165954Y1480344D01*
X3172202Y1472202D01*
X3180344Y1465954D01*
X3189825Y1462027D01*
X3200000Y1460687D01*
X3210175Y1462027D01*
X3219656Y1465954D01*
X3227798Y1472202D01*
X3234046Y1480344D01*
X3237973Y1489825D01*
X3239313Y1500000D01*
X3237973Y1510175D01*
X3234046Y1519656D01*
X3227798Y1527798D01*
X3219656Y1534046D01*
X3210175Y1537973D01*
X3200000Y1539313D01*
D02*
G37*
G36*
Y1439313D02*
X3189825Y1437973D01*
X3180344Y1434046D01*
X3172202Y1427798D01*
X3165954Y1419656D01*
X3162027Y1410175D01*
X3160687Y1400000D01*
X3162027Y1389825D01*
X3165954Y1380344D01*
X3172202Y1372202D01*
X3180344Y1365954D01*
X3189825Y1362027D01*
X3200000Y1360687D01*
X3210175Y1362027D01*
X3219656Y1365954D01*
X3227798Y1372202D01*
X3234046Y1380344D01*
X3237973Y1389825D01*
X3239313Y1400000D01*
X3237973Y1410175D01*
X3234046Y1419656D01*
X3227798Y1427798D01*
X3219656Y1434046D01*
X3210175Y1437973D01*
X3200000Y1439313D01*
D02*
G37*
G36*
Y1339313D02*
X3189825Y1337973D01*
X3180344Y1334046D01*
X3172202Y1327798D01*
X3165954Y1319656D01*
X3162027Y1310175D01*
X3160687Y1300000D01*
X3162027Y1289825D01*
X3165954Y1280344D01*
X3172202Y1272202D01*
X3180344Y1265954D01*
X3189825Y1262027D01*
X3200000Y1260687D01*
X3210175Y1262027D01*
X3219656Y1265954D01*
X3227798Y1272202D01*
X3234046Y1280344D01*
X3237973Y1289825D01*
X3239313Y1300000D01*
X3237973Y1310175D01*
X3234046Y1319656D01*
X3227798Y1327798D01*
X3219656Y1334046D01*
X3210175Y1337973D01*
X3200000Y1339313D01*
D02*
G37*
G36*
Y1239313D02*
X3189825Y1237973D01*
X3180344Y1234046D01*
X3172202Y1227798D01*
X3165954Y1219656D01*
X3162027Y1210175D01*
X3160687Y1200000D01*
X3162027Y1189825D01*
X3165954Y1180344D01*
X3172202Y1172202D01*
X3180344Y1165954D01*
X3189825Y1162027D01*
X3200000Y1160687D01*
X3210175Y1162027D01*
X3219656Y1165954D01*
X3227798Y1172202D01*
X3234046Y1180344D01*
X3237973Y1189825D01*
X3239313Y1200000D01*
X3237973Y1210175D01*
X3234046Y1219656D01*
X3227798Y1227798D01*
X3219656Y1234046D01*
X3210175Y1237973D01*
X3200000Y1239313D01*
D02*
G37*
G36*
X1005905Y923135D02*
X946850D01*
X940860Y921944D01*
X935781Y918550D01*
X932387Y913471D01*
X931195Y907480D01*
X932387Y901490D01*
X934961Y897638D01*
X932387Y893786D01*
X931195Y887795D01*
X932387Y881804D01*
X935781Y876726D01*
X940860Y873332D01*
X946850Y872140D01*
X1005905D01*
X1011896Y873332D01*
X1016975Y876726D01*
X1020369Y881804D01*
X1021561Y887795D01*
X1020369Y893786D01*
X1017795Y897638D01*
X1020369Y901490D01*
X1021561Y907480D01*
X1020369Y913471D01*
X1016975Y918550D01*
X1011896Y921944D01*
X1005905Y923135D01*
D02*
G37*
G36*
X1527000Y790227D02*
X1467000D01*
X1459768Y787232D01*
X1456773Y780000D01*
Y665000D01*
X1459768Y657768D01*
X1467000Y654773D01*
X1527000D01*
X1534232Y657768D01*
X1537227Y665000D01*
Y780000D01*
X1534232Y787232D01*
X1527000Y790227D01*
D02*
G37*
G36*
X1427000Y805227D02*
X1372000D01*
X1364768Y802232D01*
X1361773Y795000D01*
Y665000D01*
X1364768Y657768D01*
X1372000Y654773D01*
X1427000D01*
X1434232Y657768D01*
X1437227Y665000D01*
Y795000D01*
X1434232Y802232D01*
X1427000Y805227D01*
D02*
G37*
G36*
X1739307Y995000D02*
X1705000D01*
Y960693D01*
X1715423Y962766D01*
X1728498Y971502D01*
X1737234Y984577D01*
X1739307Y995000D01*
D02*
G37*
G36*
X1639307D02*
X1605000D01*
Y960693D01*
X1615423Y962766D01*
X1628498Y971502D01*
X1637234Y984577D01*
X1639307Y995000D01*
D02*
G37*
G36*
X1695000D02*
X1660693D01*
X1662766Y984577D01*
X1671502Y971502D01*
X1684577Y962766D01*
X1695000Y960693D01*
Y995000D01*
D02*
G37*
G36*
X2427435Y433682D02*
X2359284D01*
X2354764Y431810D01*
X2352891Y427290D01*
Y383474D01*
X2352459Y381299D01*
Y366732D01*
X2352891Y364558D01*
Y358268D01*
X2354764Y353748D01*
X2359284Y351876D01*
X2364907D01*
X2367913Y351278D01*
X2379331D01*
X2382336Y351876D01*
X2437597D01*
X2442117Y353748D01*
X2443989Y358268D01*
Y417129D01*
X2442117Y421649D01*
X2431955Y431810D01*
X2427435Y433682D01*
D02*
G37*
G36*
X2305000Y339307D02*
Y305000D01*
X2339307D01*
X2337234Y315423D01*
X2328498Y328498D01*
X2315423Y337234D01*
X2305000Y339307D01*
D02*
G37*
G36*
X2295000D02*
X2284577Y337234D01*
X2271502Y328498D01*
X2262766Y315423D01*
X2260693Y305000D01*
X2295000D01*
Y339307D01*
D02*
G37*
G36*
X2339307Y295000D02*
X2305000D01*
Y260693D01*
X2315423Y262766D01*
X2328498Y271502D01*
X2337234Y284577D01*
X2339307Y295000D01*
D02*
G37*
G36*
X2295000D02*
X2260693D01*
X2262766Y284577D01*
X2271502Y271502D01*
X2284577Y262766D01*
X2295000Y260693D01*
Y295000D01*
D02*
G37*
G36*
X2400000Y339740D02*
X2384792Y336715D01*
X2371900Y328100D01*
X2363285Y315208D01*
X2360260Y300000D01*
X2363285Y284792D01*
X2371900Y271900D01*
X2384792Y263285D01*
X2400000Y260260D01*
X2415208Y263285D01*
X2428100Y271900D01*
X2436715Y284792D01*
X2439740Y300000D01*
X2436715Y315208D01*
X2428100Y328100D01*
X2415208Y336715D01*
X2400000Y339740D01*
D02*
G37*
G36*
X2305000Y239307D02*
Y205000D01*
X2339307D01*
X2337234Y215423D01*
X2328498Y228498D01*
X2315423Y237234D01*
X2305000Y239307D01*
D02*
G37*
G36*
X2295000D02*
X2284577Y237234D01*
X2271502Y228498D01*
X2262766Y215423D01*
X2260693Y205000D01*
X2295000D01*
Y239307D01*
D02*
G37*
G36*
X2339307Y195000D02*
X2305000D01*
Y160693D01*
X2315423Y162766D01*
X2328498Y171502D01*
X2337234Y184577D01*
X2339307Y195000D01*
D02*
G37*
G36*
X2295000D02*
X2260693D01*
X2262766Y184577D01*
X2271502Y171502D01*
X2284577Y162766D01*
X2295000Y160693D01*
Y195000D01*
D02*
G37*
G36*
X2200000Y239740D02*
X2184792Y236715D01*
X2171900Y228100D01*
X2163285Y215208D01*
X2160260Y200000D01*
X2163285Y184792D01*
X2171900Y171900D01*
X2184792Y163285D01*
X2200000Y160260D01*
X2215208Y163285D01*
X2228100Y171900D01*
X2236715Y184792D01*
X2239740Y200000D01*
X2236715Y215208D01*
X2228100Y228100D01*
X2215208Y236715D01*
X2200000Y239740D01*
D02*
G37*
%LPD*%
G36*
X2437597Y417129D02*
Y358268D01*
X2359284D01*
Y427290D01*
X2427435D01*
X2437597Y417129D01*
D02*
G37*
%LPC*%
G36*
X1629079Y443425D02*
X1564906D01*
Y395000D01*
X1629079D01*
Y443425D01*
D02*
G37*
%LPD*%
D10*
X1488830Y1100000D02*
G03*
X1501978Y1083050I17500J0D01*
G01*
Y1116950D02*
G03*
X1488830Y1100000I4352J-16950D01*
G01*
X1527170D02*
G03*
X1514022Y1116950I-17500J0D01*
G01*
Y1083050D02*
G03*
X1521300Y1086923I-4352J16950D01*
G01*
D02*
G03*
X1527170Y1100000I-11630J13077D01*
G01*
D11*
X1500978Y1058950D02*
G03*
X1500978Y1025050I4352J-16950D01*
G01*
X1515022D02*
G03*
X1515022Y1058950I-4352J16950D01*
G01*
X1591050Y847278D02*
G03*
X1624950Y847278I16950J4352D01*
G01*
Y861322D02*
G03*
X1591050Y861322I-16950J-4352D01*
G01*
X524950Y1752022D02*
G03*
X491050Y1752022I-16950J-4352D01*
G01*
Y1737978D02*
G03*
X524950Y1737978I16950J4352D01*
G01*
X356950Y1595022D02*
G03*
X323050Y1595022I-16950J-4352D01*
G01*
Y1580978D02*
G03*
X356950Y1580978I16950J4352D01*
G01*
D12*
X1233386Y1828937D02*
D03*
Y1791142D02*
D03*
X1176083Y1828937D02*
D03*
Y1791142D02*
D03*
X302000Y970898D02*
D03*
Y933102D02*
D03*
X3800780Y1700000D02*
D03*
Y1662205D02*
D03*
X3700000Y1700000D02*
D03*
Y1662205D02*
D03*
X3600000Y1700000D02*
D03*
Y1662205D02*
D03*
X3500000Y1700000D02*
D03*
Y1662205D02*
D03*
X749000Y690158D02*
D03*
Y727953D02*
D03*
X2457000Y902898D02*
D03*
X545276Y1481890D02*
D03*
X504921Y1482087D02*
D03*
Y1519882D02*
D03*
X545276Y1519685D02*
D03*
X520866Y1298394D02*
D03*
Y1336189D02*
D03*
X456000Y1200898D02*
D03*
Y1163102D02*
D03*
X926181Y1723228D02*
D03*
Y1761024D02*
D03*
X807087Y1722047D02*
D03*
Y1759842D02*
D03*
X688976Y1722244D02*
D03*
Y1760039D02*
D03*
X564961Y1722047D02*
D03*
Y1759842D02*
D03*
X2606299Y321063D02*
D03*
Y283268D02*
D03*
Y357087D02*
D03*
Y394882D02*
D03*
X2457000Y865102D02*
D03*
X444882Y1721260D02*
D03*
Y1759055D02*
D03*
X742126Y1540551D02*
D03*
Y1502756D02*
D03*
D13*
X455915Y1371610D02*
D03*
X418514D02*
D03*
X381112D02*
D03*
X381112Y1261373D02*
D03*
X455915D02*
D03*
X2520590Y864882D02*
D03*
X2557992D02*
D03*
X2595394D02*
D03*
X2595394Y975118D02*
D03*
X2520590D02*
D03*
D14*
X602362Y1261811D02*
D03*
X622047D02*
D03*
X641732D02*
D03*
X661417D02*
D03*
X681102D02*
D03*
X700787D02*
D03*
X720472D02*
D03*
X740157D02*
D03*
X759842D02*
D03*
X779528D02*
D03*
X799213D02*
D03*
X818898D02*
D03*
X838583D02*
D03*
X858268D02*
D03*
X877953D02*
D03*
X897638D02*
D03*
Y809055D02*
D03*
X877953D02*
D03*
X858268D02*
D03*
X838583D02*
D03*
X818898D02*
D03*
X799213D02*
D03*
X779528D02*
D03*
X759842D02*
D03*
X740157D02*
D03*
X720472D02*
D03*
X700787D02*
D03*
X681102D02*
D03*
X661417D02*
D03*
X641732D02*
D03*
X622047D02*
D03*
X602362D02*
D03*
D15*
X976378Y1183071D02*
D03*
Y1163386D02*
D03*
Y1143701D02*
D03*
Y1124016D02*
D03*
Y1104331D02*
D03*
Y1084646D02*
D03*
Y1064961D02*
D03*
Y1045276D02*
D03*
Y1025591D02*
D03*
Y1005906D02*
D03*
Y986221D02*
D03*
Y966535D02*
D03*
Y946851D02*
D03*
Y927165D02*
D03*
Y907480D02*
D03*
Y887795D02*
D03*
X523622D02*
D03*
Y907480D02*
D03*
Y927165D02*
D03*
Y946851D02*
D03*
Y966535D02*
D03*
Y986221D02*
D03*
Y1005906D02*
D03*
Y1025591D02*
D03*
Y1045276D02*
D03*
Y1064961D02*
D03*
Y1084646D02*
D03*
Y1104331D02*
D03*
Y1124016D02*
D03*
Y1143701D02*
D03*
Y1163386D02*
D03*
Y1183071D02*
D03*
D16*
X1495700Y1100000D02*
D03*
X1520300D02*
D03*
X1521300Y1042000D02*
D03*
X1494700D02*
D03*
X1608000Y867600D02*
D03*
Y841000D02*
D03*
X508000Y1731700D02*
D03*
Y1758300D02*
D03*
X340000Y1574700D02*
D03*
Y1601300D02*
D03*
D17*
X2654827Y864882D02*
D03*
X2692622D02*
D03*
X385827Y1092520D02*
D03*
X1216043Y1878051D02*
D03*
X404724Y814961D02*
D03*
X1086417Y1481299D02*
D03*
X1193110D02*
D03*
X437411Y1438102D02*
D03*
X728543Y1598425D02*
D03*
X690748D02*
D03*
X399616Y1438102D02*
D03*
X423622Y1092520D02*
D03*
X1155315Y1481299D02*
D03*
X1124213D02*
D03*
X442520Y814961D02*
D03*
X1178248Y1878051D02*
D03*
D18*
X2657906Y937071D02*
D03*
Y898488D02*
D03*
X2070236Y1533252D02*
D03*
Y1571834D02*
D03*
X2689400Y1596909D02*
D03*
X230315Y1541929D02*
D03*
X602756Y1369291D02*
D03*
X459000Y995291D02*
D03*
X661417Y690354D02*
D03*
X2471850Y1569816D02*
D03*
X2523622Y200394D02*
D03*
X1050197Y922638D02*
D03*
X2646457Y412992D02*
D03*
X2434836Y1569816D02*
D03*
X1058000Y1130291D02*
D03*
X331000Y1317291D02*
D03*
X2689400Y1635491D02*
D03*
X230315Y1503347D02*
D03*
X661417Y728937D02*
D03*
X2523622Y161811D02*
D03*
X1058000Y1091709D02*
D03*
X331000Y1278709D02*
D03*
X2434836Y1531234D02*
D03*
X2646457Y374409D02*
D03*
X1050197Y961220D02*
D03*
X2471850Y1531234D02*
D03*
X459000Y956709D02*
D03*
X602756Y1330709D02*
D03*
D19*
X1721008Y419212D02*
D03*
X1596992D02*
D03*
Y539291D02*
D03*
X1721008D02*
D03*
D20*
X1577307Y479252D02*
D03*
X1740693D02*
D03*
D21*
X994882Y122047D02*
D03*
X1094882D02*
D03*
X1294882D02*
D03*
Y460630D02*
D03*
X1094882D02*
D03*
X994882D02*
D03*
X894882D02*
D03*
X594882Y122047D02*
D03*
X694882D02*
D03*
X794882D02*
D03*
X894882D02*
D03*
X1194882D02*
D03*
Y460630D02*
D03*
X794882D02*
D03*
X694882D02*
D03*
X594882D02*
D03*
D22*
X302205Y1058748D02*
D03*
X327795D02*
D03*
Y1027252D02*
D03*
Y1043000D02*
D03*
X302205Y1027252D02*
D03*
Y1043000D02*
D03*
D23*
X215551Y1062992D02*
D03*
Y986220D02*
D03*
Y1011811D02*
D03*
Y1088583D02*
D03*
Y1037401D02*
D03*
D24*
X333661Y1386220D02*
D03*
Y1458268D02*
D03*
X252953Y1422244D02*
D03*
D25*
X444882Y1890748D02*
D03*
X926181Y1890748D02*
D03*
X807087Y1890748D02*
D03*
X688976D02*
D03*
X564961Y1890748D02*
D03*
Y1819882D02*
D03*
X688976Y1819882D02*
D03*
X807087D02*
D03*
X926181Y1819882D02*
D03*
X444882Y1819882D02*
D03*
D26*
X295669Y1544291D02*
D03*
X832283Y1331693D02*
D03*
X838976Y729134D02*
D03*
X390354Y915354D02*
D03*
X2676575Y252953D02*
D03*
X2335039Y374016D02*
D03*
X1149213Y1749323D02*
D03*
X3043701Y169291D02*
D03*
X941291Y1337000D02*
D03*
X832291Y1372000D02*
D03*
X390354Y956693D02*
D03*
X558465Y1436024D02*
D03*
X2776968Y412402D02*
D03*
X404331Y868307D02*
D03*
X833071Y1411516D02*
D03*
X793701Y1331693D02*
D03*
X877559Y729134D02*
D03*
X2715157Y252953D02*
D03*
X2373622Y374016D02*
D03*
X1110630Y1749323D02*
D03*
X793709Y1372000D02*
D03*
X597047Y1436024D02*
D03*
X2815551Y412402D02*
D03*
X871654Y1411516D02*
D03*
X442913Y868307D02*
D03*
X351772Y956693D02*
D03*
X902709Y1337000D02*
D03*
X3082283Y169291D02*
D03*
X1184547Y1749323D02*
D03*
X1223130D02*
D03*
X351772Y915354D02*
D03*
X334252Y1544291D02*
D03*
D27*
X1152657Y1679828D02*
D03*
X1178248Y1563686D02*
D03*
X1203839D02*
D03*
X1127067Y1679828D02*
D03*
X1152657Y1563686D02*
D03*
X1127067D02*
D03*
X1178248Y1679828D02*
D03*
X1203839D02*
D03*
D28*
X2813378Y308749D02*
D03*
X2694496D02*
D03*
X2813378Y367805D02*
D03*
X2694496Y328435D02*
D03*
Y348119D02*
D03*
Y367805D02*
D03*
X2813378Y328435D02*
D03*
Y348119D02*
D03*
D29*
X689961Y1519685D02*
D03*
X595472Y1482284D02*
D03*
X689961D02*
D03*
Y1557087D02*
D03*
X595472D02*
D03*
Y1519685D02*
D03*
D30*
X2326772Y1238071D02*
D03*
Y1257756D02*
D03*
X2173228D02*
D03*
Y1238071D02*
D03*
Y1375866D02*
D03*
Y1277441D02*
D03*
Y1297126D02*
D03*
Y1316811D02*
D03*
Y1336496D02*
D03*
Y1356181D02*
D03*
Y1395551D02*
D03*
Y1415236D02*
D03*
Y1434921D02*
D03*
Y1454606D02*
D03*
Y1474291D02*
D03*
Y1493976D02*
D03*
Y1513661D02*
D03*
X2326772Y1415236D02*
D03*
Y1395551D02*
D03*
Y1356181D02*
D03*
Y1434921D02*
D03*
Y1493976D02*
D03*
Y1474291D02*
D03*
Y1454606D02*
D03*
Y1375866D02*
D03*
Y1277441D02*
D03*
Y1336496D02*
D03*
Y1316811D02*
D03*
Y1297126D02*
D03*
Y1513661D02*
D03*
D31*
X2676176Y200000D02*
D03*
X2715546D02*
D03*
X2754926D02*
D03*
X2794296D02*
D03*
D32*
X351378Y814961D02*
D03*
X387000Y1182575D02*
D03*
Y1129425D02*
D03*
X351378Y868110D02*
D03*
D33*
X2624996Y55310D02*
D03*
X2845476D02*
D03*
D34*
X110236Y911939D02*
D03*
Y1162864D02*
D03*
D35*
Y992126D02*
D03*
Y1082677D02*
D03*
D36*
X102362Y393701D02*
D03*
X3725000Y350394D02*
D03*
X125000Y1675000D02*
D03*
D37*
X1116820Y165000D02*
X1140000D01*
X1094882Y143062D02*
X1116820Y165000D01*
X1665000Y810000D02*
X1727000Y872000D01*
X2130000D01*
X1294882Y122047D02*
X1294941Y122106D01*
Y234941D01*
X1295000Y235000D01*
X1194882Y122047D02*
Y193483D01*
X1168365Y220000D02*
X1194882Y193483D01*
X910268Y220000D02*
X1168365D01*
X759000Y371268D02*
X910268Y220000D01*
X912642Y161706D02*
X916706D01*
X935000Y180000D01*
X894882Y143946D02*
X912642Y161706D01*
X894882Y122047D02*
Y143946D01*
X1075919Y205000D02*
X1094882Y186037D01*
X745221Y365157D02*
X905378Y205000D01*
X1075919D01*
X1094882Y143062D02*
Y186037D01*
Y122047D02*
Y143062D01*
X994882Y122047D02*
Y143062D01*
X1020822Y160822D02*
X1040000Y180000D01*
X994882Y143062D02*
X1012642Y160822D01*
X1020822D01*
X2935000Y425000D02*
Y545000D01*
X3010000Y380000D02*
X3327657D01*
X2955000Y435000D02*
Y530000D01*
X2990000Y340000D02*
X3121968D01*
X2915000Y415000D02*
Y560000D01*
Y415000D02*
X2990000Y340000D01*
X2935000Y425000D02*
X3000000Y360000D01*
X3140000D01*
X2955000Y435000D02*
X3010000Y380000D01*
X2955000Y530000D02*
X3030000Y605000D01*
X2915000Y560000D02*
X2981000Y626000D01*
X2935000Y545000D02*
X3005000Y615000D01*
X1509752Y1795000D02*
X2245000D01*
X2381000Y1931000D02*
X3027800D01*
X2245000Y1795000D02*
X2381000Y1931000D01*
X1407780Y1693028D02*
X1509752Y1795000D01*
X1195000Y855000D02*
X1500000D01*
X1595000Y760000D02*
X2766028D01*
X1500000Y855000D02*
X1595000Y760000D01*
X1220148Y877215D02*
X1502785D01*
X1603000Y777000D02*
X2773001D01*
X1502785Y877215D02*
X1603000Y777000D01*
X2095000Y625000D02*
X2145000Y675000D01*
X1878000Y625000D02*
X2095000D01*
X1716171Y610000D02*
X1796171Y690000D01*
X1180000Y610000D02*
X1716171D01*
X2722096Y589000D02*
X2764096Y631000D01*
X2809000D01*
X2854000Y481380D02*
Y696001D01*
X2773001Y777000D02*
X2854000Y696001D01*
Y481380D02*
X2870000Y465380D01*
X2855000Y365000D02*
Y455000D01*
X2836257Y473743D02*
Y689772D01*
Y473743D02*
X2855000Y455000D01*
X2870000Y355000D02*
Y465380D01*
X2766028Y760000D02*
X2836257Y689772D01*
X979000Y1581000D02*
X1048000D01*
X2542758Y589000D02*
X2722096D01*
X2496758Y635000D02*
X2542758Y589000D01*
X2839319Y349319D02*
X2855000Y365000D01*
X2748000Y530000D02*
X2798000Y480000D01*
X2520000Y530000D02*
X2748000D01*
X2119000Y998000D02*
X2231000Y1110000D01*
X1939000Y998000D02*
X2119000D01*
X2231000Y1110000D02*
Y1393000D01*
X2208764Y1415236D02*
X2231000Y1393000D01*
X2173228Y1415236D02*
X2208764D01*
X1172067Y591000D02*
X1841000D01*
X1844000D01*
X1878000Y625000D01*
X853000Y408543D02*
Y557000D01*
X662276Y605835D02*
X804165D01*
X853000Y557000D01*
X837000Y402055D02*
Y548000D01*
X793000Y592000D02*
X837000Y548000D01*
X654457Y592000D02*
X793000D01*
X1216735Y569967D02*
X1635033D01*
X1158379D02*
X1216735D01*
X1194882Y460630D02*
Y548115D01*
X1216735Y569967D01*
X1078347Y650000D02*
X1158379Y569967D01*
X1675748Y479252D02*
X1740693D01*
X1660000Y495000D02*
X1675748Y479252D01*
X1660000Y495000D02*
Y545000D01*
X1635033Y569967D02*
X1660000Y545000D01*
X3507000Y430000D02*
X3553000Y476000D01*
X3060000Y430000D02*
X3507000D01*
X2772952Y546693D02*
X2795252Y568993D01*
X2528627Y546693D02*
X2772952D01*
X2477380Y597940D02*
X2528627Y546693D01*
X2753347Y570000D02*
X2755000Y568346D01*
X2535000Y570000D02*
X2753347D01*
X3005000Y615000D02*
Y960000D01*
X3030000Y605000D02*
Y970000D01*
X3327657Y380000D02*
X3412598Y295059D01*
X3170983Y287402D02*
Y329017D01*
X3140000Y360000D02*
X3170983Y329017D01*
X3121968Y340000D02*
X3138000Y323968D01*
Y252122D02*
Y323968D01*
X2981000Y626000D02*
Y949000D01*
X2235000Y635000D02*
X2496758D01*
X2813378Y328435D02*
X2843435D01*
X2786435D02*
X2813378D01*
X2843435D02*
X2870000Y355000D01*
X2813378Y348119D02*
X2814578Y349319D01*
X2839319D01*
X2780119Y348119D02*
X2813378D01*
X1900000Y300000D02*
X2235000Y635000D01*
X2252823Y617823D02*
X2487177D01*
X2535000Y570000D01*
X2000000Y365000D02*
X2252823Y617823D01*
X3070238Y549939D02*
X3429939D01*
X3448000Y568000D02*
Y1678000D01*
X3429939Y549939D02*
X3448000Y568000D01*
X2470000Y580000D02*
X2520000Y530000D01*
X2100000Y430000D02*
X2267940Y597940D01*
X2477380D01*
X2279311Y580000D02*
X2470000D01*
X2200000Y500689D02*
X2279311Y580000D01*
X2390000Y560000D02*
X2508000Y442000D01*
X2334997Y560000D02*
X2390000D01*
X2310000Y535003D02*
X2334997Y560000D01*
X2200000Y300000D02*
Y500689D01*
X2310000Y535000D02*
Y535003D01*
X2508000Y382000D02*
Y442000D01*
X1900000Y300000D02*
Y300000D01*
X2000000Y300000D02*
Y365000D01*
X2100000Y300000D02*
Y430000D01*
X2490000Y370000D02*
Y430000D01*
X2540118Y319882D02*
X2610625D01*
X2490000Y370000D02*
X2540118Y319882D01*
X2532913Y357087D02*
X2608189D01*
X2508000Y382000D02*
X2532913Y357087D01*
X2385000Y535000D02*
X2490000Y430000D01*
X2355000Y535000D02*
X2385000D01*
X1095000Y695000D02*
X1180000Y610000D01*
X864000Y695000D02*
X1095000D01*
X1083067Y680000D02*
X1172067Y591000D01*
X807779Y638779D02*
X864000Y695000D01*
X816032Y623032D02*
X873000Y680000D01*
X1083067D01*
X1174213Y875787D02*
X1195000Y855000D01*
X1174213Y875787D02*
Y900000D01*
X1266898D02*
X1267000Y899898D01*
X1174213Y900000D02*
X1266898D01*
X1724000Y350000D02*
X1832000Y242000D01*
X837000Y402055D02*
X889055Y350000D01*
X1724000D01*
X1735000Y365000D02*
X1842000Y258000D01*
X853000Y408543D02*
X896543Y365000D01*
X1735000D01*
X1000000Y650000D02*
X1078347D01*
X1784449Y809055D02*
X1784456Y809062D01*
X2181911D01*
X2373622Y1155633D02*
X2392769Y1136486D01*
Y1019920D02*
Y1136486D01*
X2181911Y809062D02*
X2392769Y1019920D01*
X2373622Y1155633D02*
Y1262378D01*
X2608189Y357087D02*
X2617157Y348119D01*
X2694496D01*
X1718756Y934756D02*
X2106315D01*
X1659000Y875000D02*
X1718756Y934756D01*
X1646531Y1146531D02*
X1700000Y1200000D01*
X1475000Y1146531D02*
X1646531D01*
X976378Y1005906D02*
X1334375D01*
X1475000Y1146531D01*
X976378Y1025591D02*
X1298517D01*
X1446000Y1173074D01*
X1462000Y1300000D02*
X1600000D01*
X1379000Y1217000D02*
X1462000Y1300000D01*
X1446000Y986221D02*
X1489380D01*
X976378D02*
X1446000D01*
Y1042000D02*
X1494700D01*
X926260Y1697443D02*
Y1723228D01*
X1632559Y1251000D02*
X1671766Y1290207D01*
X1294882Y1065602D02*
X1480280Y1251000D01*
X1632559D01*
X1628384Y1200000D02*
X1678384Y1250000D01*
X1600000Y1200000D02*
X1628384D01*
X1678384Y1250000D02*
X1820361D01*
X862120Y1139600D02*
X939055Y1216535D01*
X741600Y1139600D02*
X862120D01*
X650000Y1048000D02*
X741600Y1139600D01*
X3800780Y1600780D02*
Y1662205D01*
X3800000Y1600000D02*
X3800780Y1600780D01*
X3700000Y1600000D02*
Y1662205D01*
X3600000Y1600000D02*
Y1662205D01*
X3500000Y1600000D02*
Y1662205D01*
X1293780Y1341000D02*
Y1445756D01*
X1407780Y1559756D01*
Y1693028D01*
X3027800Y1931000D02*
X3206800Y1752000D01*
X3748780D01*
X3800701Y1700000D02*
X3800780D01*
X3792512Y1708189D02*
X3800701Y1700000D01*
X3792512Y1708189D02*
Y1708268D01*
X3748780Y1752000D02*
X3792512Y1708268D01*
X3699921Y1700000D02*
X3700000D01*
X3691732Y1708189D02*
X3699921Y1700000D01*
X3691732Y1708189D02*
Y1708268D01*
X3667000Y1733000D02*
X3691732Y1708268D01*
X3391000Y1733000D02*
X3667000D01*
X3351000Y1693000D02*
X3391000Y1733000D01*
X3351000Y684000D02*
Y1693000D01*
X3314000Y647000D02*
X3351000Y684000D01*
X3054780Y665000D02*
X3072780Y647000D01*
X3314000D01*
X3573000Y1700000D02*
X3600000D01*
X3553000Y1680000D02*
X3573000Y1700000D01*
X3553000Y476000D02*
Y1680000D01*
X3470000Y1700000D02*
X3500000D01*
X3448000Y1678000D02*
X3470000Y1700000D01*
X973000Y1618000D02*
X1047000D01*
X1293780Y1066704D02*
Y1341000D01*
Y1066704D02*
X1294882Y1065602D01*
X1324803Y1169291D02*
Y1415158D01*
X1509646Y1600000D01*
X1354331Y1169291D02*
Y1393383D01*
X1509870Y1548922D01*
X1656181Y1356181D02*
X2173228D01*
X1600000Y1300000D02*
X1656181Y1356181D01*
X1201968Y1125000D02*
Y1398819D01*
X1174213Y1085186D02*
Y1379942D01*
X1156496Y1444291D02*
X1201968Y1398819D01*
X1690207Y1290207D02*
X1700000Y1300000D01*
X1671766Y1290207D02*
X1690207D01*
X976378Y1045276D02*
X1274556D01*
X1294882Y1065602D01*
X759000Y371268D02*
Y550842D01*
X745221Y365157D02*
Y545135D01*
X726355Y564000D02*
X745221Y545135D01*
X636031Y564000D02*
X726355D01*
X537000Y663032D02*
X636031Y564000D01*
X568000Y654330D02*
X644322Y578008D01*
X731835D01*
X568000Y654330D02*
Y847000D01*
X537000Y663032D02*
Y848610D01*
X560146Y871756D01*
X681394D01*
X700787Y852362D01*
Y809055D02*
Y852362D01*
X568000Y847000D02*
X577000Y856000D01*
X2106315Y934756D02*
X2244780Y1073220D01*
X1908000Y900000D02*
X2107000D01*
X2261000Y1054000D02*
Y1309000D01*
X2107000Y900000D02*
X2261000Y1054000D01*
X2130000Y872000D02*
X2276000Y1018000D01*
Y1297000D01*
X2326772Y1316811D02*
X2390189D01*
X1762323Y845000D02*
X2156000D01*
X2326772Y1277441D02*
X2358559D01*
X2373622Y1262378D01*
X2288496Y1336496D02*
X2326772D01*
X2261000Y1309000D02*
X2288496Y1336496D01*
X2295811Y1316811D02*
X2326772D01*
X2276000Y1297000D02*
X2295811Y1316811D01*
X2325789Y1296143D02*
X2326772Y1297126D01*
X2303143Y1296143D02*
X2325789D01*
X2291000Y1284000D02*
X2303143Y1296143D01*
X2326772Y1297126D02*
X2378874D01*
X2156000Y845000D02*
X2291000Y980000D01*
X2244780Y1073220D02*
Y1423780D01*
X2173228Y1395551D02*
X2201449D01*
X2295291Y1474291D02*
X2326772D01*
X2244780Y1423780D02*
X2295291Y1474291D01*
X2165354Y1125354D02*
X2203000Y1163000D01*
X1700000Y1300000D02*
X1827000D01*
X1863497Y1336497D02*
X1939788D01*
X1827000Y1300000D02*
X1863497Y1336497D01*
X1887172Y1316811D02*
X2173228D01*
X1820361Y1250000D02*
X1887172Y1316811D01*
X1939789Y1336496D02*
X2173228D01*
X1939788Y1336497D02*
X1939789Y1336496D01*
X246063Y1062992D02*
X250307Y1058748D01*
X215551Y1062992D02*
X246063D01*
X250307Y1058748D02*
X302205D01*
X350097D02*
X356310Y1064961D01*
X523622D01*
X302205Y1058748D02*
X350097D01*
X335050Y1026858D02*
X350097Y1011811D01*
X328189Y1026858D02*
X335050D01*
X327795Y1027252D02*
X328189Y1026858D01*
X350097Y1011811D02*
X350097D01*
X2165354Y1086923D02*
Y1125354D01*
X2204514Y1124000D02*
X2217000Y1136486D01*
X2204000Y1124000D02*
X2204514D01*
X2173228Y1375866D02*
X2174211Y1374883D01*
X1862134Y1375866D02*
X2173228D01*
X2198387Y1374883D02*
X2203000Y1370270D01*
X2217000Y1136486D02*
Y1380000D01*
X2201449Y1395551D02*
X2217000Y1380000D01*
X1958000Y242000D02*
X2000000Y200000D01*
X1842000Y258000D02*
X2042000D01*
X2100000Y200000D01*
X749158Y690000D02*
X808000D01*
X749000Y690158D02*
X749158Y690000D01*
X2203000Y1163000D02*
Y1370270D01*
X2174211Y1374883D02*
X2198387D01*
X1889449Y1395551D02*
X2173228D01*
X1590044Y1052134D02*
X1866000D01*
X2595401Y864882D02*
X2654827D01*
Y823000D02*
Y864882D01*
X2457000Y865102D02*
X2520378D01*
X2520598Y864882D01*
X2456002Y864105D02*
X2457000Y865102D01*
X939055Y1216535D02*
X1051772D01*
X650000Y925607D02*
Y1048000D01*
X1047000Y1544000D02*
X1048000D01*
X983000D02*
X1047000D01*
X1501978Y1005906D02*
X1543816D01*
X1590044Y1052134D01*
X1494700Y1013183D02*
Y1042000D01*
Y1013183D02*
X1501978Y1005906D01*
X1489380Y986221D02*
X1608000Y867600D01*
X749000Y727953D02*
Y747260D01*
X740157Y756103D02*
Y809055D01*
Y756103D02*
X749000Y747260D01*
X794882Y122047D02*
Y245745D01*
X795276Y246139D01*
X1907898Y899898D02*
X1908000Y900000D01*
X1746000Y899898D02*
X1907898D01*
X1832000Y242000D02*
X1958000D01*
X748917Y638779D02*
X807779D01*
X731835Y578008D02*
X759000Y550842D01*
X640979Y809808D02*
Y849021D01*
X577000Y856000D02*
X634000D01*
X640979Y809808D02*
X641732Y809055D01*
X634000Y856000D02*
X640979Y849021D01*
X583367Y663090D02*
X654457Y592000D01*
X597146Y670964D02*
X662276Y605835D01*
X597146Y741635D02*
X622047Y766537D01*
X583367Y663090D02*
Y747343D01*
X622047Y766537D02*
Y809055D01*
X583367Y747343D02*
X602362Y766339D01*
X733858Y623032D02*
X816032D01*
X700787Y656102D02*
X733858Y623032D01*
X602362Y766339D02*
Y809055D01*
X597146Y670964D02*
Y741635D01*
X444882Y1759055D02*
X445260Y1758678D01*
X444882Y1759055D02*
X444882Y1759055D01*
X444882Y1759055D02*
Y1819882D01*
Y1759055D02*
X444882D01*
X444882D02*
X445637Y1758300D01*
X508000D01*
Y1686000D02*
Y1731700D01*
X1820394Y1649606D02*
X2001124Y1468876D01*
X2119243D02*
X2124657Y1474291D01*
X2001124Y1468876D02*
X2119243D01*
X1726378Y809055D02*
X1762323Y845000D01*
X2291000Y980000D02*
Y1284000D01*
X1123032Y1431123D02*
Y1481299D01*
Y1431123D02*
X1174213Y1379942D01*
X1156496Y1444291D02*
Y1481299D01*
X1154577Y1483218D02*
X1156496Y1481299D01*
X612188Y887795D02*
X650000Y925607D01*
X523622Y887795D02*
X612188D01*
X3262795Y25000D02*
X3312598Y74803D01*
X3189618Y25000D02*
X3262795D01*
X3163000Y51618D02*
X3189618Y25000D01*
X2947886Y982114D02*
Y1384000D01*
Y982114D02*
X2981000Y949000D01*
X2970000Y995000D02*
Y1416301D01*
Y995000D02*
X3005000Y960000D01*
X2991000Y1009000D02*
Y1471943D01*
Y1009000D02*
X3030000Y970000D01*
X606992Y1681000D02*
X846000D01*
X565945Y1722047D02*
X606992Y1681000D01*
X846000D02*
X983000Y1544000D01*
X713982Y1697238D02*
X862762D01*
X979000Y1581000D01*
X807087Y1722047D02*
X868953D01*
X973000Y1618000D01*
X688976Y1722244D02*
X713982Y1697238D01*
X768000Y1412000D02*
Y1534000D01*
X742126Y1540551D02*
X742206Y1540471D01*
X761529D01*
X768000Y1534000D01*
X661417Y1305417D02*
X768000Y1412000D01*
X661417Y1261811D02*
Y1305417D01*
X649606Y1318606D02*
Y1520780D01*
X641732Y1261811D02*
Y1310732D01*
X649606Y1318606D01*
X633000Y1325000D02*
Y1507000D01*
X622047Y1261811D02*
Y1314047D01*
X633000Y1325000D01*
X620388Y1519613D02*
X633000Y1507000D01*
X595472Y1519685D02*
X595545Y1519613D01*
X620388D01*
X595472Y1557087D02*
X613300D01*
X649606Y1520780D01*
X356620Y1043000D02*
X364215Y1050595D01*
X302205Y1043000D02*
X356620D01*
X484252Y1045276D02*
X523622D01*
X478933Y1050595D02*
X484252Y1045276D01*
X364215Y1050595D02*
X478933D01*
X2794296Y200000D02*
Y242704D01*
X2759000Y278000D02*
Y327000D01*
Y278000D02*
X2794296Y242704D01*
X2759000Y327000D02*
X2780119Y348119D01*
X2778000Y285785D02*
X2824016Y239770D01*
X2778000Y320000D02*
X2786435Y328435D01*
X2778000Y285785D02*
Y320000D01*
X306535Y1009465D02*
Y1026858D01*
Y1009465D02*
X316000Y1000000D01*
X306142Y1027252D02*
X306535Y1026858D01*
X302205Y1027252D02*
X306142D01*
X926260Y1697443D02*
X970703Y1653000D01*
X1047000D01*
X3163000Y51618D02*
Y227122D01*
X3138000Y252122D02*
X3163000Y227122D01*
X2939517Y1446784D02*
X2970000Y1416301D01*
X2962943Y1500000D02*
X2991000Y1471943D01*
X3412598Y74803D02*
Y295059D01*
X2931855Y1400030D02*
X2947886Y1384000D01*
X2900030Y1400030D02*
X2931855D01*
X2900000Y1400000D02*
X2900030Y1400030D01*
X2884103Y1446784D02*
X2939517D01*
X2841339Y1404019D02*
X2884103Y1446784D01*
X2800000Y1400000D02*
X2804019Y1404019D01*
X2841339D01*
X2900000Y1500000D02*
X2962943D01*
X3212598Y74803D02*
Y245786D01*
X3170983Y287402D02*
X3212598Y245786D01*
X1649606Y1649606D02*
X1820394D01*
X1821000Y1600000D02*
X1966394Y1454606D01*
X1700000Y1600000D02*
X1821000D01*
X1966394Y1454606D02*
X2173228D01*
X1834000Y1451000D02*
X1889449Y1395551D01*
X1600000Y1400000D02*
X1651000Y1451000D01*
X1834000D01*
X1700000Y1200000D02*
X1818000D01*
X1915126Y1297126D01*
X2173228D01*
X1700000Y1400000D02*
X1838000D01*
X1862134Y1375866D01*
X1941079Y1434921D02*
X2173228D01*
X1677387Y1551772D02*
X1824228D01*
X1941079Y1434921D01*
X1914764Y1415236D02*
X2173228D01*
X1700000Y1500000D02*
X1830000D01*
X1914764Y1415236D01*
X2124657Y1474291D02*
X2173228D01*
X2390189Y1316811D02*
X2409623Y1297377D01*
Y1192337D02*
Y1297377D01*
X2378874Y1297126D02*
X2392769Y1283231D01*
Y1184004D02*
Y1283231D01*
X2759000Y1251000D02*
X2851000D01*
X2472183Y1156000D02*
X2664000D01*
X2759000Y1251000D01*
X2465960Y1136000D02*
X2691000D01*
X2755000Y1200000D02*
X2800000D01*
X2691000Y1136000D02*
X2755000Y1200000D01*
X2459772Y1117000D02*
X2715837D01*
X2747425Y1148588D02*
X2848588D01*
X2715837Y1117000D02*
X2747425Y1148588D01*
X2427435Y1200748D02*
X2472183Y1156000D01*
X2409623Y1192337D02*
X2465960Y1136000D01*
X2392769Y1184004D02*
X2459772Y1117000D01*
X2427435Y1200748D02*
Y1310087D01*
X2401027Y1336496D02*
X2427435Y1310087D01*
X2326772Y1336496D02*
X2401027D01*
X2327755Y1357164D02*
X2658880D01*
X2716044Y1300000D01*
X2326772Y1356181D02*
X2327755Y1357164D01*
X2716044Y1300000D02*
X2800000D01*
X2326772Y1395551D02*
X2795551D01*
X2800000Y1400000D01*
X2380000Y1470000D02*
X2626499D01*
X2375709Y1474291D02*
X2380000Y1470000D01*
X2626499D02*
X2756499Y1600000D01*
X2660120Y1454606D02*
X2755711Y1550197D01*
X2326772Y1454606D02*
X2660120D01*
X2326772Y1474291D02*
X2375709D01*
X2326772Y1434921D02*
X2677047D01*
X2742126Y1500000D01*
X2689869Y1415236D02*
X2725618Y1450984D01*
X2326772Y1415236D02*
X2689869D01*
X2697953Y1375866D02*
X2723425Y1350394D01*
X2326772Y1375866D02*
X2697953D01*
X2723425Y1350394D02*
X2850394D01*
X2900000Y1400000D01*
X2756499Y1600000D02*
X2800000D01*
X2755711Y1550197D02*
X2850197D01*
X251662Y1043000D02*
X302205D01*
X246063Y1037401D02*
X251662Y1043000D01*
X215551Y1037401D02*
X246063D01*
X2851000Y1251000D02*
X2900000Y1300000D01*
X720472Y987598D02*
X749581Y1016707D01*
X2824016Y170467D02*
Y239770D01*
X2806896Y153346D02*
X2824016Y170467D01*
X2763194Y153346D02*
X2806896D01*
X1509646Y1600000D02*
X1600000D01*
X1509870Y1548922D02*
X1627293D01*
X720472Y667225D02*
X748917Y638779D01*
X1627293Y1548922D02*
X1668578Y1590207D01*
X1690207D01*
X1700000Y1600000D01*
X1625615Y1500000D02*
X1677387Y1551772D01*
X1600000Y1500000D02*
X1625615D01*
X564961Y1722047D02*
X565945D01*
X720472Y809055D02*
Y987598D01*
X926181Y1723228D02*
X926260D01*
X700787Y656102D02*
Y739173D01*
X681102Y758858D02*
X700787Y739173D01*
X681102Y758858D02*
Y809055D01*
X720472Y667225D02*
Y809055D01*
X1600000Y1600000D02*
X1649606Y1649606D01*
X2848588Y1148588D02*
X2900000Y1200000D01*
X2742126Y1500000D02*
X2800000D01*
X2725618Y1450984D02*
X2850984D01*
X2900000Y1500000D01*
X2850197Y1550197D02*
X2900000Y1600000D01*
X2754926Y161614D02*
X2763194Y153346D01*
X2754926Y161614D02*
Y200000D01*
X2610625Y319882D02*
X2619178Y328435D01*
X2694496D01*
D38*
X1194882Y122047D02*
X1294882D01*
X2562964Y393701D02*
X2606299D01*
X388772Y1722047D02*
X389165Y1721654D01*
X444488D01*
X689961Y1557087D02*
X725591D01*
X739764Y1542913D01*
Y1541929D02*
Y1542913D01*
Y1541929D02*
X741142Y1540551D01*
X742126D01*
X903543Y1332087D02*
Y1374213D01*
X430139Y956740D02*
X430214Y956815D01*
X455043D01*
X455118Y956890D01*
X351575Y915354D02*
Y956496D01*
X794882Y460630D02*
X795079Y460827D01*
X2563976Y285796D02*
X2565042D01*
X2566192Y284646D01*
X2606102D01*
X2606299Y284449D01*
X351575Y868307D02*
Y915354D01*
X351378Y868110D02*
X351575Y868307D01*
Y956496D02*
X351772Y956693D01*
X903543Y1332087D02*
X903937Y1331693D01*
X444488Y1721654D02*
X444882Y1721260D01*
X720669Y1482284D02*
X741142Y1502756D01*
X689961Y1482284D02*
X720669D01*
X741142Y1502756D02*
X742126D01*
X689961Y1557087D02*
X690354Y1557480D01*
Y1598032D01*
X690748Y1598425D01*
X926181Y1761024D02*
Y1819882D01*
X807087Y1759842D02*
Y1819882D01*
X688976Y1760039D02*
Y1819882D01*
X564961Y1759842D02*
Y1819882D01*
D39*
X1499000Y106000D02*
X2361000D01*
X2400000Y145000D02*
Y200000D01*
X2361000Y106000D02*
X2400000Y145000D01*
X1086417Y1381069D02*
Y1481299D01*
X407134Y210779D02*
Y728985D01*
X1130000Y305000D02*
X1300000D01*
X1241240Y1454034D02*
X1370063Y1582857D01*
Y1839819D01*
X1241240Y1130512D02*
Y1454034D01*
X495866Y122047D02*
X594882D01*
X1099213Y1102362D02*
Y1368274D01*
X407134Y210779D02*
X495866Y122047D01*
X1055861Y1722047D02*
X1086417Y1691491D01*
X1056612Y1835019D02*
Y1899555D01*
X1093382Y1936325D01*
X1277985Y1831610D02*
Y1895803D01*
X1237463Y1936325D02*
X1277985Y1895803D01*
X1093382Y1936325D02*
X1216533D01*
X1237463D01*
X1055861Y1722047D02*
Y1751396D01*
Y1834269D01*
X1086417Y1481299D02*
Y1679319D01*
Y1691491D01*
Y1381069D02*
X1099213Y1368274D01*
X726635Y1640000D02*
X776000D01*
X934701Y1481299D02*
X1086417D01*
X776000Y1640000D02*
X886175Y1529825D01*
X888216Y1527784D02*
X934701Y1481299D01*
X293000Y1613000D02*
X320000Y1640000D01*
X438862D01*
X726635D01*
X1300000Y305000D02*
X1499000Y106000D01*
X1045228Y758858D02*
Y840739D01*
X1152033Y947543D02*
X1241240D01*
X1045228Y840739D02*
X1152033Y947543D01*
X1370063Y1839819D02*
Y1889000D01*
X110236Y911939D02*
Y992126D01*
Y1082677D01*
Y1162864D01*
D40*
X1608000Y809055D02*
Y841000D01*
X1527170Y1100000D02*
X1600000D01*
X1943441Y1277441D02*
X2173228D01*
X1812531Y1146531D02*
X1943441Y1277441D01*
X1686614Y1146531D02*
X1812531D01*
X1640083Y1100000D02*
X1686614Y1146531D01*
X1600000Y1100000D02*
X1640083D01*
X1521300Y1086923D02*
Y1099000D01*
Y1042000D02*
Y1086923D01*
X1520300Y1100000D02*
X1521300Y1099000D01*
D41*
X2714694Y199537D02*
X2715352Y200194D01*
X2523622Y161811D02*
X2525197D01*
X2485945D02*
X2523622D01*
X793701Y1331693D02*
Y1499000D01*
X595276Y1482087D02*
X596260Y1481102D01*
X1057480Y1091929D02*
X1088780D01*
X877953Y729528D02*
X878976Y730551D01*
X877559Y729134D02*
X877953Y729528D01*
X914000Y745999D02*
Y746000D01*
X878976Y730551D02*
Y731092D01*
X899093D01*
X914000Y745999D01*
X2447757Y200000D02*
X2485945Y161811D01*
X2400000Y200000D02*
X2447757D01*
X2689400Y1635491D02*
Y1662205D01*
X2661481Y1596909D02*
X2689400D01*
X2558548Y1493976D02*
X2661481Y1596909D01*
X2689400D02*
X2704509D01*
X2757600Y1650000D01*
X455841Y1371535D02*
X455915Y1371610D01*
X455841Y1332841D02*
Y1371535D01*
X440291Y1317291D02*
X455841Y1332841D01*
X331000Y1317291D02*
X440291D01*
X333437Y1352166D02*
Y1385996D01*
X333661Y1386220D01*
X2472017Y1599833D02*
X2472183Y1600000D01*
X2472017Y1569983D02*
Y1599833D01*
X2471850Y1569816D02*
X2472017Y1569983D01*
X2434849Y1599987D02*
X2434863Y1600000D01*
X2434849Y1569830D02*
Y1599987D01*
X2434836Y1569816D02*
X2434849Y1569830D01*
X558505Y1404614D02*
X558546Y1404573D01*
X558505Y1404614D02*
Y1435983D01*
X558465Y1436024D02*
X558505Y1435983D01*
X602799Y1397437D02*
X602842Y1397480D01*
X602799Y1369334D02*
Y1397437D01*
X602756Y1369291D02*
X602799Y1369334D01*
X626968Y690354D02*
X661417D01*
X358000Y1092000D02*
X385307D01*
X385827Y1092520D01*
X358000Y1092000D02*
X358000Y1092000D01*
X230157Y1542087D02*
X230315Y1541929D01*
X230157Y1542087D02*
Y1570842D01*
X295835Y1572835D02*
X296000Y1573000D01*
X295669Y1544291D02*
X295835Y1544457D01*
X455953Y1371572D02*
X484215D01*
X455915Y1371610D02*
X455953Y1371572D01*
X484215D02*
X484252Y1371535D01*
X230000Y1571000D02*
X230157Y1570842D01*
X295835Y1544457D02*
Y1572835D01*
X545472Y1482087D02*
X595276D01*
X545276Y1481890D02*
X545472Y1482087D01*
X545177Y1481988D02*
X545276Y1481890D01*
X505020Y1481988D02*
X545177D01*
X504921Y1482087D02*
X505020Y1481988D01*
X596260Y1436811D02*
X597047Y1436024D01*
X596260Y1436811D02*
Y1481102D01*
X759993Y1321411D02*
X770275Y1331693D01*
X793701D01*
X437411Y1482087D02*
X504921D01*
X1088780Y1091929D02*
X1099213Y1102362D01*
X1055861Y1834269D02*
X1056612Y1835019D01*
X1233425Y1827795D02*
X1274169D01*
X1233386Y1827756D02*
X1233425Y1827795D01*
X1216043Y1878051D02*
Y1935836D01*
X1057934Y1749323D02*
X1110630D01*
X1086926Y1679828D02*
X1127067D01*
X1193156Y1447792D02*
X1193202Y1447746D01*
X1193156Y1447792D02*
Y1481253D01*
X1193110Y1481299D02*
X1193156Y1481253D01*
X1274169Y1827795D02*
X1277985Y1831610D01*
X2413992Y374008D02*
X2414000Y374000D01*
X2373630Y374008D02*
X2413992D01*
X2373622Y374016D02*
X2373630Y374008D01*
X381112Y1261373D02*
Y1272200D01*
X374604Y1278709D02*
X381112Y1272200D01*
X331000Y1278709D02*
X374604D01*
X386016Y1182575D02*
X387000D01*
X381112Y1187478D02*
X386016Y1182575D01*
X381112Y1187478D02*
Y1261373D01*
X331000Y1237000D02*
Y1278709D01*
X726635Y1640000D02*
X728543Y1638092D01*
Y1598425D02*
Y1638092D01*
X437411Y1638550D02*
X438862Y1640000D01*
X437411Y1438102D02*
Y1482087D01*
Y1638550D01*
X886175Y1529825D02*
X888216Y1527784D01*
X824526Y1529825D02*
X886175D01*
X793701Y1499000D02*
X824526Y1529825D01*
X626968Y728346D02*
X627264Y728642D01*
X661122D01*
X661417Y728937D01*
X877559Y729134D02*
X877953D01*
X2547568Y137866D02*
X2692519D01*
X2526614Y158819D02*
X2547568Y137866D01*
X2526614Y158819D02*
Y160394D01*
X2525197Y161811D02*
X2526614Y160394D01*
X2692519Y137866D02*
X2714694Y160041D01*
Y199537D01*
X1050417Y961441D02*
X1075620D01*
X1818131Y1700000D02*
X2024154Y1493977D01*
X2100000D01*
X2070488Y1533000D02*
X2112000D01*
X871654Y1411516D02*
X871654Y1411516D01*
Y1451000D01*
X871654Y1411516D02*
X871654Y1411515D01*
X871654Y1451000D02*
X871654Y1451000D01*
X357196Y1129489D02*
X386936D01*
X387000Y1129425D01*
X357132Y1129553D02*
X357196Y1129489D01*
X1138780Y1878051D02*
X1178248D01*
X1138780Y1827756D02*
X1176083D01*
X2070236Y1533252D02*
X2070488Y1533000D01*
X2434836Y1531234D02*
X2471850D01*
X3082283Y169291D02*
X3082284Y169291D01*
Y137866D02*
Y169291D01*
Y137866D02*
X3082284Y137865D01*
X2401306Y1493976D02*
X2558548D01*
X2757600Y1650000D02*
X2850000D01*
X2401306Y1531234D02*
X2434836D01*
X2850000Y1650000D02*
X2900000Y1700000D01*
X571894Y1331226D02*
X572153Y1330967D01*
X602497D01*
X602756Y1330709D01*
X871654Y1356298D02*
Y1411515D01*
D42*
X877953Y729528D02*
Y809055D01*
Y729134D02*
Y729528D01*
X1407000Y1024000D02*
Y1044000D01*
X1463000Y1100000D02*
X1488830D01*
X1407000Y1044000D02*
X1463000Y1100000D01*
X1488830D02*
X1495700D01*
X853273Y1159400D02*
X955246Y1261373D01*
X701000Y1159400D02*
X853273D01*
X2606299Y393701D02*
X2610050D01*
X2646457Y375984D02*
X2647452D01*
X2655631Y367805D01*
X523480Y1183213D02*
X523622Y1183071D01*
X523480Y1183213D02*
Y1231030D01*
X976378Y1163386D02*
X976724Y1163040D01*
X1024953D02*
X1057480Y1130512D01*
X976724Y1163040D02*
X1024953D01*
X1057480Y1130512D02*
X1059055D01*
X858268Y1261811D02*
Y1325394D01*
X852362Y1331299D02*
X858268Y1325394D01*
X832283Y1331693D02*
X849842D01*
X850236Y1331299D02*
X852362D01*
X849842Y1331693D02*
X850236Y1331299D01*
X832283Y1331693D02*
Y1372835D01*
X832677Y1373228D01*
Y1411122D01*
X833071Y1411516D01*
X650000Y1551113D02*
Y1590000D01*
X656882Y1544230D02*
Y1544230D01*
Y1544230D02*
X673632Y1527480D01*
X682165D01*
X650000Y1551113D02*
X656882Y1544230D01*
X682165Y1527480D02*
X689961Y1519685D01*
X759993Y1261962D02*
Y1321411D01*
X661417Y728937D02*
Y809055D01*
X877953D02*
X877953Y809055D01*
X1216043Y1935836D02*
X1216533Y1936325D01*
X1055861Y1751396D02*
X1057934Y1749323D01*
X1086417Y1679319D02*
X1086926Y1679828D01*
X1053506Y1087215D02*
X1058000Y1091709D01*
X1040215Y1087215D02*
X1053506D01*
X1017961Y1064961D02*
X1040215Y1087215D01*
X976378Y1064961D02*
X1017961D01*
X1075620Y961441D02*
X1075840Y961661D01*
X955246Y1261373D02*
X1051772D01*
X2112000Y1533000D02*
X2118000D01*
X2137339Y1513661D01*
X399616Y1436788D02*
Y1438102D01*
X381112Y1418284D02*
X399616Y1436788D01*
X381112Y1371610D02*
Y1418284D01*
X2137339Y1513661D02*
X2173228D01*
X520866Y1336189D02*
Y1371535D01*
X2326772Y1513661D02*
X2383733D01*
X2401306Y1531234D01*
X1220148Y1730027D02*
Y1746341D01*
X1203839Y1713718D02*
X1220148Y1730027D01*
Y1746341D02*
X1223130Y1749323D01*
X1203839Y1679828D02*
Y1713718D01*
X1223130Y1749323D02*
Y1751282D01*
X1233386Y1761538D01*
Y1792323D01*
X2326772Y1493976D02*
X2401306D01*
X602086Y1262088D02*
Y1330709D01*
X457077Y956890D02*
X466722Y966535D01*
X602086Y1262088D02*
X602362Y1261811D01*
X482109Y1298394D02*
X520866D01*
X455915Y1272200D02*
X463711Y1279996D01*
X463711D01*
X482109Y1298394D01*
X455915Y1261373D02*
Y1272200D01*
X455958Y1200940D02*
X456000Y1200898D01*
X455958Y1200940D02*
Y1261331D01*
X455915Y1261373D02*
X455958Y1261331D01*
X523480Y1163244D02*
X523622Y1163386D01*
X456142Y1163244D02*
X523480D01*
X456000Y1163102D02*
X456142Y1163244D01*
X459000Y1124016D02*
X523622D01*
X2610050Y393701D02*
X2622740Y381011D01*
X2641430D01*
X2646457Y375984D01*
X2655631Y367805D02*
X2694496D01*
X1050197Y961220D02*
X1050417Y961441D01*
X1045228Y966189D02*
X1050197Y961220D01*
X976724Y966189D02*
X1045228D01*
X976378Y966535D02*
X976724Y966189D01*
X897984Y1325740D02*
X903937Y1331693D01*
X897984Y1262158D02*
Y1325740D01*
X897638Y1261811D02*
X897984Y1262158D01*
X520866Y1557087D02*
X595472D01*
X504921Y1541142D02*
X520866Y1557087D01*
X504921Y1519882D02*
Y1541142D01*
X545276Y1519685D02*
X595472D01*
X455118Y956890D02*
X457077D01*
X466722Y966535D02*
X523622D01*
D43*
X394215Y814961D02*
X407134Y802041D01*
X351378Y814961D02*
X394215D01*
X407134Y728985D02*
Y802041D01*
X265000Y1497000D02*
Y1585000D01*
X293000Y1613000D01*
X2671929Y937071D02*
X2692622Y916378D01*
Y864882D02*
Y916378D01*
X2657906Y937071D02*
X2671929D01*
X2657118D02*
X2657906D01*
X2656724Y937465D02*
X2657118Y937071D01*
X2656724Y937465D02*
Y938252D01*
X2627271Y967705D02*
X2656724Y938252D01*
X2596386Y967705D02*
X2627271D01*
X2595402Y968689D02*
X2596386Y967705D01*
X2595402Y968689D02*
Y975118D01*
X2594795Y975724D02*
X2595402Y975118D01*
X2594795Y975724D02*
Y1013795D01*
X2496189Y1042000D02*
X2566590D01*
X2594795Y1013795D01*
X2457000Y1002811D02*
X2496189Y1042000D01*
X2457000Y902898D02*
Y1002811D01*
X2696835Y864105D02*
X2734595D01*
X2696451Y864488D02*
X2696835Y864105D01*
X2693016Y864488D02*
X2696451D01*
X2692622Y864882D02*
X2693016Y864488D01*
X110236Y873031D02*
X180270D01*
X225781Y918542D02*
Y947238D01*
X180270Y873031D02*
X225781Y918542D01*
Y947238D02*
X228346Y949803D01*
X114272Y1197736D02*
X186264D01*
X226760Y1157240D01*
Y1126586D02*
Y1157240D01*
Y1126586D02*
X228346Y1125000D01*
X110236Y1201772D02*
X114272Y1197736D01*
X230606Y947543D02*
X251925D01*
X265185Y934284D02*
X302000D01*
X251925Y947543D02*
X265185Y934284D01*
X228346Y949803D02*
X230606Y947543D01*
D44*
X1494700Y1042000D02*
X1521300D01*
X1608000Y841000D02*
Y867600D01*
X508000Y1731700D02*
Y1758300D01*
X340000Y1574700D02*
Y1601300D01*
D45*
X1201767Y1565757D02*
X1203839Y1563686D01*
X1178248D02*
X1200886D01*
X1201767Y1564567D01*
Y1565757D01*
X467126Y1005906D02*
X523622D01*
X456693Y995472D02*
X467126Y1005906D01*
X465945Y986221D02*
X523622D01*
X456693Y995472D02*
X465945Y986221D01*
X455118Y995472D02*
X456693D01*
X450886Y991240D02*
X455118Y995472D01*
D46*
X2815551Y369305D02*
Y412402D01*
X2814051Y367805D02*
X2815551Y369305D01*
X2715157Y252953D02*
X2715352Y252758D01*
Y200194D02*
Y252758D01*
X2734595Y292991D02*
Y352722D01*
X2749678Y367805D02*
X2813378D01*
X2814051D01*
X2715255Y253050D02*
Y273650D01*
X2715157Y252953D02*
X2715255Y253050D01*
Y273650D02*
X2734595Y292991D01*
Y352722D02*
X2749678Y367805D01*
D47*
X795079Y460827D02*
Y541568D01*
X795276Y541765D01*
X1700000Y1700000D02*
X1818131D01*
D48*
X410384Y1025591D02*
X523622D01*
X357556Y972762D02*
X410384Y1025591D01*
X351772Y956693D02*
X357556Y962477D01*
Y972762D01*
X423622Y1092520D02*
X423622Y1092520D01*
X450787D01*
X458661Y1084646D01*
X523622D01*
X442716Y868110D02*
X442913Y868307D01*
X442716Y815158D02*
Y868110D01*
X442520Y814961D02*
X442716Y815158D01*
X442913Y868307D02*
Y909055D01*
X461024Y927165D01*
X523622D01*
D49*
X1179437Y1792323D02*
X1184547Y1787212D01*
Y1749323D02*
Y1787212D01*
X1176083Y1792323D02*
X1179437D01*
X1184547Y1749323D02*
X1184547Y1749323D01*
X1184547Y1723590D02*
Y1749323D01*
X1178248Y1717290D02*
X1184547Y1723590D01*
X1178248Y1679828D02*
Y1717290D01*
X2100000Y1493977D02*
X2100001Y1493976D01*
X2173228D01*
X2173228Y1493976D01*
X871654Y1356298D02*
X877953Y1350000D01*
Y1261811D02*
Y1350000D01*
D50*
X1154577Y1483218D02*
Y1561766D01*
X1152657Y1563686D02*
X1154577Y1561766D01*
X1123032Y1481299D02*
X1125049Y1483317D01*
Y1561668D01*
X1127067Y1563686D01*
D51*
X2420000Y840500D02*
D03*
D52*
X2898000Y695000D02*
D03*
D53*
X1772500Y480000D02*
D03*
D54*
X1800000Y482500D02*
D03*
D55*
X1497000Y722500D02*
D03*
D56*
X1399500Y730000D02*
D03*
D57*
X1087500Y305000D02*
D03*
D58*
X905512Y605827D02*
D03*
D59*
X3500000Y1500000D02*
D03*
X3600000D02*
D03*
X3700000D02*
D03*
X3500000Y1400000D02*
D03*
X3600000D02*
D03*
X3700000D02*
D03*
X3800000D02*
D03*
X3500000Y1600000D02*
D03*
X3600000D02*
D03*
X3700000D02*
D03*
X3800000D02*
D03*
X2900000Y1100000D02*
D03*
X2800000Y1000000D02*
D03*
X2900000D02*
D03*
X1700000D02*
D03*
X1600000D02*
D03*
X1700000Y1100000D02*
D03*
X3800000Y1300000D02*
D03*
Y900000D02*
D03*
Y500000D02*
D03*
Y700000D02*
D03*
Y1100000D02*
D03*
Y1500000D02*
D03*
X3012598Y74803D02*
D03*
X2300000Y200000D02*
D03*
Y300000D02*
D03*
X114173Y1493701D02*
D03*
X3100000Y600000D02*
D03*
Y800000D02*
D03*
Y1600000D02*
D03*
X2400000Y200000D02*
D03*
Y300000D02*
D03*
X2200000D02*
D03*
Y200000D02*
D03*
X2000000Y300000D02*
D03*
X2100000D02*
D03*
X2000000Y200000D02*
D03*
X2100000D02*
D03*
X1900000Y300000D02*
D03*
X3212598Y74803D02*
D03*
X3312598D02*
D03*
X3112598D02*
D03*
X3300000Y1600000D02*
D03*
X3400000D02*
D03*
X3200000D02*
D03*
X3300000Y1500000D02*
D03*
X3400000D02*
D03*
X3100000D02*
D03*
X3200000D02*
D03*
X3100000Y1200000D02*
D03*
Y1100000D02*
D03*
X3200000Y1200000D02*
D03*
Y1100000D02*
D03*
X3300000Y1200000D02*
D03*
Y1100000D02*
D03*
X3400000Y1200000D02*
D03*
Y1100000D02*
D03*
X3500000Y1200000D02*
D03*
Y1100000D02*
D03*
X3600000Y1200000D02*
D03*
Y1100000D02*
D03*
X3700000Y1200000D02*
D03*
Y1100000D02*
D03*
X3800000Y1200000D02*
D03*
X3100000Y700000D02*
D03*
X3200000Y800000D02*
D03*
Y700000D02*
D03*
X3300000Y800000D02*
D03*
Y700000D02*
D03*
X3400000Y800000D02*
D03*
Y700000D02*
D03*
X3500000Y800000D02*
D03*
Y700000D02*
D03*
X3600000Y800000D02*
D03*
Y700000D02*
D03*
X3700000Y800000D02*
D03*
Y700000D02*
D03*
X3800000Y800000D02*
D03*
X3100000Y500000D02*
D03*
X3200000Y600000D02*
D03*
Y500000D02*
D03*
X3300000Y600000D02*
D03*
Y500000D02*
D03*
X3400000Y600000D02*
D03*
Y500000D02*
D03*
X3500000Y600000D02*
D03*
Y500000D02*
D03*
X3600000Y600000D02*
D03*
Y500000D02*
D03*
X3700000Y600000D02*
D03*
Y500000D02*
D03*
X3800000Y600000D02*
D03*
X3100000Y1000000D02*
D03*
Y900000D02*
D03*
X3200000Y1000000D02*
D03*
Y900000D02*
D03*
X3300000Y1000000D02*
D03*
Y900000D02*
D03*
X3400000Y1000000D02*
D03*
Y900000D02*
D03*
X3500000Y1000000D02*
D03*
Y900000D02*
D03*
X3600000Y1000000D02*
D03*
Y900000D02*
D03*
X3700000Y1000000D02*
D03*
Y900000D02*
D03*
X3800000Y1000000D02*
D03*
X3100000Y1400000D02*
D03*
Y1300000D02*
D03*
X3200000Y1400000D02*
D03*
Y1300000D02*
D03*
X3300000Y1400000D02*
D03*
Y1300000D02*
D03*
X3400000Y1400000D02*
D03*
Y1300000D02*
D03*
X3500000D02*
D03*
X3600000D02*
D03*
X3700000D02*
D03*
X1700000Y1700000D02*
D03*
X1600000Y1600000D02*
D03*
X1700000D02*
D03*
X1600000Y1500000D02*
D03*
X1700000D02*
D03*
X1600000Y1400000D02*
D03*
X1700000D02*
D03*
X1600000Y1300000D02*
D03*
X1700000D02*
D03*
X1600000Y1200000D02*
D03*
X1700000D02*
D03*
X1600000Y1100000D02*
D03*
X2800000D02*
D03*
X2900000Y1200000D02*
D03*
X2800000D02*
D03*
X2900000Y1300000D02*
D03*
X2800000D02*
D03*
X2900000Y1400000D02*
D03*
X2800000D02*
D03*
X2900000Y1500000D02*
D03*
X2800000D02*
D03*
X2900000Y1600000D02*
D03*
X2800000D02*
D03*
X2900000Y1700000D02*
D03*
D60*
X157480Y1889764D02*
D03*
X3700787Y157480D02*
D03*
Y1889764D02*
D03*
X157480Y157480D02*
D03*
D61*
X114173Y1393701D02*
D03*
X1600000Y1700000D02*
D03*
X2800000D02*
D03*
D62*
X3282237Y287402D02*
D03*
D63*
X2539134Y1264331D02*
D03*
X2149134Y1939331D02*
D03*
D64*
X110236Y873031D02*
D03*
Y1201772D02*
D03*
D65*
X228346Y949803D02*
D03*
Y1125000D02*
D03*
D66*
X1900000Y200000D02*
D03*
X3412598Y74803D02*
D03*
D67*
X1140000Y165000D02*
D03*
X1295000Y235000D02*
D03*
X1665000Y810000D02*
D03*
X1395000Y280000D02*
D03*
X935000Y180000D02*
D03*
X1040000D02*
D03*
X1608000Y809055D02*
D03*
X2250000Y480000D02*
D03*
X2345000D02*
D03*
X3040000D02*
D03*
X2647280Y710215D02*
D03*
X2545000Y710000D02*
D03*
X2745000D02*
D03*
X2809000Y631000D02*
D03*
X2384000Y871000D02*
D03*
X2414000D02*
D03*
X2005000Y965000D02*
D03*
X1939000Y998000D02*
D03*
X1841000Y591000D02*
D03*
X1381000Y959000D02*
D03*
X1096000Y787000D02*
D03*
X2005000Y1065000D02*
D03*
X1960000Y1240000D02*
D03*
X2040000Y1160000D02*
D03*
X1915000D02*
D03*
X1958000Y535000D02*
D03*
X1911000Y380000D02*
D03*
X1958000Y427000D02*
D03*
X1915000Y586000D02*
D03*
X1244000Y405000D02*
D03*
X2122000Y588000D02*
D03*
X1655000Y425000D02*
D03*
X1555000Y315000D02*
D03*
X1475000Y235000D02*
D03*
X1690000D02*
D03*
X1715000Y315000D02*
D03*
X1655000D02*
D03*
X1605000Y260000D02*
D03*
X1550000Y205000D02*
D03*
X1425000Y315000D02*
D03*
X1360000D02*
D03*
X2795252Y568993D02*
D03*
X2755000Y568346D02*
D03*
X2384000Y840500D02*
D03*
X2414000D02*
D03*
Y810000D02*
D03*
X2384000D02*
D03*
X3060000Y430000D02*
D03*
X2975000Y303000D02*
D03*
X3070238Y549939D02*
D03*
X2310000Y535000D02*
D03*
X1297000Y821000D02*
D03*
Y766000D02*
D03*
X1267000Y899898D02*
D03*
X1000000Y650000D02*
D03*
X914000Y746000D02*
D03*
X1784449Y809055D02*
D03*
X2392769Y1136486D02*
D03*
X2355000Y535000D02*
D03*
X1659000Y875000D02*
D03*
X1407000Y1024000D02*
D03*
X1475000Y1146531D02*
D03*
X1446000Y1173074D02*
D03*
X1379000Y1216535D02*
D03*
X1446000Y986221D02*
D03*
Y1042000D02*
D03*
X2324400Y907500D02*
D03*
X692300Y897400D02*
D03*
X660700Y898100D02*
D03*
X915600Y1154100D02*
D03*
X858700Y1207500D02*
D03*
X701000Y1159400D02*
D03*
X422500Y1187000D02*
D03*
X1034100D02*
D03*
X618700Y272900D02*
D03*
X788200Y280800D02*
D03*
X1759600Y1101200D02*
D03*
X1697000Y650000D02*
D03*
X1773500Y367500D02*
D03*
X744400Y325100D02*
D03*
X584146Y573000D02*
D03*
X2689400Y1662205D02*
D03*
X1649606Y966189D02*
D03*
X2334643Y1210190D02*
D03*
X3054780Y665000D02*
D03*
X1293780Y1341000D02*
D03*
X1650780Y1478756D02*
D03*
X1297000Y645000D02*
D03*
X1138780Y1779756D02*
D03*
X1098780Y1785756D02*
D03*
X650780Y1589756D02*
D03*
X603621Y1397236D02*
D03*
X559285Y1404370D02*
D03*
X833851Y1482039D02*
D03*
X971483Y1336756D02*
D03*
X942071Y1305173D02*
D03*
X942851Y1369090D02*
D03*
X1037215Y896394D02*
D03*
X760622Y863929D02*
D03*
X524260Y1230786D02*
D03*
X584146Y1104087D02*
D03*
X583367Y1011811D02*
D03*
Y980543D02*
D03*
X584146Y946606D02*
D03*
Y915110D02*
D03*
X479712Y856543D02*
D03*
X412780Y896756D02*
D03*
X427780Y996756D02*
D03*
X350877Y1011567D02*
D03*
X358780Y1091756D02*
D03*
X445661Y1932756D02*
D03*
X565740Y1933756D02*
D03*
X689756Y1932756D02*
D03*
X807866D02*
D03*
X926961Y1933756D02*
D03*
X977158Y1890504D02*
D03*
X865780Y1889756D02*
D03*
X746780Y1890756D02*
D03*
X625780Y1889756D02*
D03*
X504780D02*
D03*
X383780Y1888756D02*
D03*
X1649780Y1024756D02*
D03*
X1750780D02*
D03*
X2548000Y975000D02*
D03*
X2493780Y974756D02*
D03*
X2520780Y934756D02*
D03*
X2558780Y913756D02*
D03*
X2630780Y898756D02*
D03*
X2799780Y931756D02*
D03*
X2900780D02*
D03*
X2919780Y1049756D02*
D03*
Y1149756D02*
D03*
X2848780Y1120756D02*
D03*
Y1051756D02*
D03*
X2101780Y1249756D02*
D03*
Y1222756D02*
D03*
X2070780Y1597756D02*
D03*
X2032780Y1570756D02*
D03*
X2155780Y1197756D02*
D03*
X2123780D02*
D03*
X1055780Y1155756D02*
D03*
X1032780Y1129756D02*
D03*
X627748Y690110D02*
D03*
X40150Y1493457D02*
D03*
X115051Y1570598D02*
D03*
X387780Y849756D02*
D03*
X174780Y987756D02*
D03*
X171780Y916756D02*
D03*
X172780Y1159756D02*
D03*
X177780Y1233756D02*
D03*
X800780Y382756D02*
D03*
X829780Y231756D02*
D03*
X2299780Y372756D02*
D03*
X2329780Y249756D02*
D03*
X2277780Y150756D02*
D03*
X2495780Y199756D02*
D03*
X2648780Y252756D02*
D03*
X2678780Y283756D02*
D03*
X2648000Y198000D02*
D03*
X2813780Y288756D02*
D03*
X2943780Y74756D02*
D03*
X3012780Y137756D02*
D03*
X3049780Y34756D02*
D03*
X2435629Y1599743D02*
D03*
X230780Y1571756D02*
D03*
X296614Y1572591D02*
D03*
X50780Y1999756D02*
D03*
X250780D02*
D03*
X350780D02*
D03*
X450780D02*
D03*
X550780D02*
D03*
X650780D02*
D03*
X750780D02*
D03*
X850780D02*
D03*
X950780D02*
D03*
X1050780D02*
D03*
X1150780D02*
D03*
X1250780D02*
D03*
X1350780D02*
D03*
X1450780D02*
D03*
X1550780D02*
D03*
X1650780D02*
D03*
X1750780D02*
D03*
X1850780D02*
D03*
X1950780D02*
D03*
X2050780D02*
D03*
X2250780D02*
D03*
X2350780D02*
D03*
X2450780D02*
D03*
X2550780D02*
D03*
X2650780D02*
D03*
X2750780D02*
D03*
X2850780D02*
D03*
X2950780D02*
D03*
X3050780D02*
D03*
X3150780D02*
D03*
X3250780D02*
D03*
X3350780D02*
D03*
X3450780D02*
D03*
X3550780D02*
D03*
X3800780D02*
D03*
X3550780Y1899756D02*
D03*
X3450780D02*
D03*
X3350780D02*
D03*
X3250780D02*
D03*
X3150780D02*
D03*
X2250780D02*
D03*
X2050780D02*
D03*
X350780Y1799756D02*
D03*
X50780Y1699756D02*
D03*
X250780D02*
D03*
X750780Y1799756D02*
D03*
X50780Y49756D02*
D03*
X250780D02*
D03*
X350780D02*
D03*
X450780D02*
D03*
X550780D02*
D03*
X750780D02*
D03*
X850780D02*
D03*
X950780D02*
D03*
X1050780D02*
D03*
X1150780D02*
D03*
X1250780D02*
D03*
X1350780D02*
D03*
X1450780D02*
D03*
X1550780D02*
D03*
X1650780D02*
D03*
X1750780D02*
D03*
X1850780D02*
D03*
X1950780D02*
D03*
X2050780D02*
D03*
X2150780D02*
D03*
X2250780D02*
D03*
X2350780D02*
D03*
X2450780D02*
D03*
X2550780D02*
D03*
X2750780D02*
D03*
X3800780D02*
D03*
X3600780D02*
D03*
X3500780D02*
D03*
Y149756D02*
D03*
Y249756D02*
D03*
Y349756D02*
D03*
X3600780D02*
D03*
X3400780D02*
D03*
X3300780D02*
D03*
Y149756D02*
D03*
X3100780Y249756D02*
D03*
X2900780D02*
D03*
Y149756D02*
D03*
X1550780D02*
D03*
X1650780D02*
D03*
X1750780D02*
D03*
X1850780D02*
D03*
X1790000Y235000D02*
D03*
X350780Y149756D02*
D03*
Y249756D02*
D03*
Y349756D02*
D03*
X250780D02*
D03*
X150780D02*
D03*
X50780D02*
D03*
Y249756D02*
D03*
Y449756D02*
D03*
X150780D02*
D03*
X250780D02*
D03*
X150780Y549756D02*
D03*
X50780D02*
D03*
Y649756D02*
D03*
X150780D02*
D03*
Y749756D02*
D03*
X50780D02*
D03*
X350780Y549756D02*
D03*
Y649756D02*
D03*
Y749756D02*
D03*
X450780Y649756D02*
D03*
Y549756D02*
D03*
X800780Y899756D02*
D03*
X900780D02*
D03*
Y999756D02*
D03*
X800780D02*
D03*
X900780Y1099756D02*
D03*
X800780D02*
D03*
X2650780Y1049756D02*
D03*
X2900780Y849756D02*
D03*
X2800780D02*
D03*
X2300780Y1599756D02*
D03*
X1900000Y1700000D02*
D03*
X2000780Y1599756D02*
D03*
X504780Y1791756D02*
D03*
X1027780Y1682756D02*
D03*
X1407780Y1286756D02*
D03*
X1548780Y1519756D02*
D03*
X1649780Y1383756D02*
D03*
X2216780Y1453756D02*
D03*
X2472000Y1600000D02*
D03*
X2088000Y965000D02*
D03*
X2157780Y150756D02*
D03*
X1911780Y148756D02*
D03*
X950780Y802041D02*
D03*
X2749780Y411756D02*
D03*
X2675780Y412756D02*
D03*
X2650000Y480000D02*
D03*
X3232780Y349756D02*
D03*
X3234780Y295756D02*
D03*
X455780Y1406756D02*
D03*
X484780Y1371756D02*
D03*
X332780Y1349756D02*
D03*
X360780Y1316756D02*
D03*
X2739780Y135756D02*
D03*
Y805756D02*
D03*
X2550000Y480000D02*
D03*
X2414000Y374000D02*
D03*
X224000Y1471000D02*
D03*
X251500D02*
D03*
X279000D02*
D03*
X1193202Y1447746D02*
D03*
X2414000Y412000D02*
D03*
X626968Y728346D02*
D03*
X374604Y1603072D02*
D03*
X399616D02*
D03*
X2734595Y864105D02*
D03*
X2165354Y1086923D02*
D03*
X2204000Y1124000D02*
D03*
X1866000Y1052134D02*
D03*
X1324803Y1169291D02*
D03*
X808000Y690000D02*
D03*
X1075840Y961661D02*
D03*
X1174213Y1085186D02*
D03*
Y900000D02*
D03*
X1220148Y877215D02*
D03*
X2654827Y823000D02*
D03*
X1051772Y1261373D02*
D03*
X795276Y246139D02*
D03*
X697000D02*
D03*
X664000D02*
D03*
X730000D02*
D03*
X1746000Y899898D02*
D03*
X1908000D02*
D03*
X1726378Y809055D02*
D03*
X2112000Y1533000D02*
D03*
X1370063Y1839819D02*
D03*
X871654Y1451000D02*
D03*
X357132Y1129553D02*
D03*
X274000Y1361192D02*
D03*
Y1331385D02*
D03*
X508000Y1686000D02*
D03*
X316000Y1000000D02*
D03*
X666338Y383251D02*
D03*
X630610D02*
D03*
X594882D02*
D03*
X1412368Y1839819D02*
D03*
Y1889000D02*
D03*
X1370063D02*
D03*
X1327757Y1839819D02*
D03*
Y1889000D02*
D03*
X2685000Y1730806D02*
D03*
X1138780Y1878051D02*
D03*
Y1827756D02*
D03*
X730000Y204159D02*
D03*
X1047000Y1544000D02*
D03*
Y1580333D02*
D03*
Y1616667D02*
D03*
Y1653000D02*
D03*
X697000Y204159D02*
D03*
X664000D02*
D03*
X3082284Y137865D02*
D03*
X3138000Y323000D02*
D03*
X520866Y1371535D02*
D03*
X3170983Y287402D02*
D03*
X2100000Y1493977D02*
D03*
X2401306Y1493976D02*
D03*
Y1531234D02*
D03*
X571894Y1331226D02*
D03*
X274000Y1391000D02*
D03*
X315450Y1125000D02*
D03*
X315160Y1094566D02*
D03*
X459000Y1124016D02*
D03*
X430139Y956740D02*
D03*
X749581Y1016707D02*
D03*
X1201968Y1125000D02*
D03*
X1354331Y1169291D02*
D03*
X1051772Y1216535D02*
D03*
X2562964Y393701D02*
D03*
X2563976Y285796D02*
D03*
X903543Y1374213D02*
D03*
D68*
X2697244Y707992D02*
D03*
X2497244D02*
D03*
X2145000Y725000D02*
D03*
Y675000D02*
D03*
X2197244Y707992D02*
D03*
X1997244D02*
D03*
X1797000D02*
D03*
X1697244D02*
D03*
X1297244D02*
D03*
X2898000Y645000D02*
D03*
X2997000Y481500D02*
D03*
X2798000Y480000D02*
D03*
X1497000Y755000D02*
D03*
Y696000D02*
D03*
X1401000Y707992D02*
D03*
Y766000D02*
D03*
X1444000Y534000D02*
D03*
X2898000Y695000D02*
D03*
Y745000D02*
D03*
X2299000Y420000D02*
D03*
X2296992Y479252D02*
D03*
X1800000Y425000D02*
D03*
Y480000D02*
D03*
Y540000D02*
D03*
X1444000Y424000D02*
D03*
X1499000Y534000D02*
D03*
Y424000D02*
D03*
X1496992Y478252D02*
D03*
X1130000Y305000D02*
D03*
X1085000D02*
D03*
X1040000D02*
D03*
X1241240Y1130512D02*
D03*
X1099213Y1102362D02*
D03*
X407134Y728985D02*
D03*
X331000Y1237000D02*
D03*
X1086000Y1427000D02*
D03*
X407158Y432000D02*
D03*
X1045228Y758858D02*
D03*
X1241240Y947543D02*
D03*
X795276Y541765D02*
D03*
X388772Y1722047D02*
D03*
X666338Y341000D02*
D03*
%TF.MD5,51051f39d09788c2c39afda2c2b11d23*%
M02*
