%TF.GenerationSoftware,Altium Limited,Altium Designer,20.1.11 (218)*%
G04 Layer_Physical_Order=2*
G04 Layer_Color=16711680*
%FSLAX26Y26*%
%MOIN*%
%TF.SameCoordinates,27E64F16-BD7F-4648-91A1-9AE93EB88D02*%
%TF.FilePolarity,Positive*%
%TF.FileFunction,Copper,L2,Bot,Signal*%
%TF.Part,Single*%
G01*
G75*
%TA.AperFunction,SMDPad,CuDef*%
%ADD16C,0.007874*%
G04:AMPARAMS|DCode=18|XSize=25.984mil|YSize=22.835mil|CornerRadius=5.709mil|HoleSize=0mil|Usage=FLASHONLY|Rotation=180.000|XOffset=0mil|YOffset=0mil|HoleType=Round|Shape=RoundedRectangle|*
%AMROUNDEDRECTD18*
21,1,0.025984,0.011417,0,0,180.0*
21,1,0.014567,0.022835,0,0,180.0*
1,1,0.011417,-0.007284,0.005709*
1,1,0.011417,0.007284,0.005709*
1,1,0.011417,0.007284,-0.005709*
1,1,0.011417,-0.007284,-0.005709*
%
%ADD18ROUNDEDRECTD18*%
G04:AMPARAMS|DCode=26|XSize=25.984mil|YSize=22.835mil|CornerRadius=5.709mil|HoleSize=0mil|Usage=FLASHONLY|Rotation=270.000|XOffset=0mil|YOffset=0mil|HoleType=Round|Shape=RoundedRectangle|*
%AMROUNDEDRECTD26*
21,1,0.025984,0.011417,0,0,270.0*
21,1,0.014567,0.022835,0,0,270.0*
1,1,0.011417,-0.005709,-0.007284*
1,1,0.011417,-0.005709,0.007284*
1,1,0.011417,0.005709,0.007284*
1,1,0.011417,0.005709,-0.007284*
%
%ADD26ROUNDEDRECTD26*%
%ADD36C,0.039370*%
%TA.AperFunction,Conductor*%
%ADD37C,0.007874*%
%ADD39C,0.039370*%
%ADD40C,0.008000*%
%ADD41C,0.020000*%
%ADD42C,0.010000*%
%ADD43C,0.023622*%
%ADD47C,0.031496*%
%ADD49C,0.009842*%
%ADD54R,0.060000X0.165000*%
%ADD55R,0.060000X0.115000*%
%ADD56R,0.055000X0.130000*%
%TA.AperFunction,ComponentPad*%
%ADD58C,0.055118*%
%ADD59C,0.059055*%
%ADD60C,0.244095*%
%ADD61R,0.059055X0.059055*%
%ADD62C,0.040000*%
%ADD63C,0.165354*%
G04:AMPARAMS|DCode=64|XSize=74.803mil|YSize=59.055mil|CornerRadius=14.764mil|HoleSize=0mil|Usage=FLASHONLY|Rotation=0.000|XOffset=0mil|YOffset=0mil|HoleType=Round|Shape=RoundedRectangle|*
%AMROUNDEDRECTD64*
21,1,0.074803,0.029527,0,0,0.0*
21,1,0.045276,0.059055,0,0,0.0*
1,1,0.029528,0.022638,-0.014764*
1,1,0.029528,-0.022638,-0.014764*
1,1,0.029528,-0.022638,0.014764*
1,1,0.029528,0.022638,0.014764*
%
%ADD64ROUNDEDRECTD64*%
%ADD65O,0.047244X0.035433*%
%ADD66R,0.059055X0.059055*%
%TA.AperFunction,ViaPad*%
%ADD67C,0.023622*%
%ADD68C,0.039370*%
%TA.AperFunction,ConnectorPad*%
%ADD69R,0.039370X0.061417*%
%TA.AperFunction,SMDPad,CuDef*%
G04:AMPARAMS|DCode=70|XSize=9.842mil|YSize=43.307mil|CornerRadius=2.461mil|HoleSize=0mil|Usage=FLASHONLY|Rotation=270.000|XOffset=0mil|YOffset=0mil|HoleType=Round|Shape=RoundedRectangle|*
%AMROUNDEDRECTD70*
21,1,0.009842,0.038386,0,0,270.0*
21,1,0.004921,0.043307,0,0,270.0*
1,1,0.004921,-0.019193,-0.002461*
1,1,0.004921,-0.019193,0.002461*
1,1,0.004921,0.019193,0.002461*
1,1,0.004921,0.019193,-0.002461*
%
%ADD70ROUNDEDRECTD70*%
%ADD71R,0.020551X0.023622*%
%TA.AperFunction,Conductor*%
%ADD72C,0.027559*%
%ADD73R,0.099852X0.101000*%
%ADD74R,0.090000X0.150000*%
G36*
X3843536Y1606545D02*
X3838536Y1606053D01*
X3836715Y1615208D01*
X3828100Y1628100D01*
X3815208Y1636715D01*
X3800000Y1639740D01*
X3784792Y1636715D01*
X3771899Y1628100D01*
X3763285Y1615208D01*
X3760260Y1600000D01*
X3763285Y1584792D01*
X3771899Y1571900D01*
X3784792Y1563285D01*
X3800000Y1560260D01*
X3815208Y1563285D01*
X3828100Y1571900D01*
X3836715Y1584792D01*
X3838536Y1593947D01*
X3843536Y1593455D01*
Y1509371D01*
X3838536Y1508879D01*
X3837234Y1515423D01*
X3828498Y1528498D01*
X3815423Y1537234D01*
X3805000Y1539307D01*
Y1500000D01*
Y1460693D01*
X3815423Y1462766D01*
X3828498Y1471502D01*
X3837234Y1484577D01*
X3838536Y1491121D01*
X3843536Y1490629D01*
Y1406546D01*
X3838536Y1406053D01*
X3836715Y1415208D01*
X3828100Y1428100D01*
X3815208Y1436715D01*
X3800000Y1439740D01*
X3784792Y1436715D01*
X3771900Y1428100D01*
X3763285Y1415208D01*
X3760260Y1400000D01*
X3763285Y1384792D01*
X3771900Y1371900D01*
X3784792Y1363285D01*
X3800000Y1360260D01*
X3815208Y1363285D01*
X3828100Y1371900D01*
X3836715Y1384792D01*
X3838536Y1393947D01*
X3843536Y1393454D01*
Y1309371D01*
X3838536Y1308879D01*
X3837234Y1315423D01*
X3828498Y1328498D01*
X3815423Y1337234D01*
X3805000Y1339307D01*
Y1300000D01*
Y1260693D01*
X3815423Y1262766D01*
X3828498Y1271502D01*
X3837234Y1284577D01*
X3838536Y1291121D01*
X3843536Y1290629D01*
Y1206546D01*
X3838536Y1206053D01*
X3836715Y1215208D01*
X3828100Y1228100D01*
X3815208Y1236715D01*
X3800000Y1239740D01*
X3784792Y1236715D01*
X3771900Y1228100D01*
X3763285Y1215208D01*
X3760260Y1200000D01*
X3763285Y1184792D01*
X3771900Y1171900D01*
X3784792Y1163285D01*
X3800000Y1160260D01*
X3815208Y1163285D01*
X3828100Y1171900D01*
X3836715Y1184792D01*
X3838536Y1193947D01*
X3843536Y1193454D01*
Y1109371D01*
X3838536Y1108879D01*
X3837234Y1115423D01*
X3828498Y1128498D01*
X3815423Y1137234D01*
X3805000Y1139307D01*
Y1100000D01*
Y1060693D01*
X3815423Y1062766D01*
X3828498Y1071502D01*
X3837234Y1084577D01*
X3838536Y1091121D01*
X3843536Y1090629D01*
Y1006546D01*
X3838536Y1006053D01*
X3836715Y1015208D01*
X3828100Y1028100D01*
X3815208Y1036715D01*
X3800000Y1039740D01*
X3784792Y1036715D01*
X3771900Y1028100D01*
X3763285Y1015208D01*
X3760260Y1000000D01*
X3763285Y984792D01*
X3771900Y971900D01*
X3784792Y963285D01*
X3800000Y960260D01*
X3815208Y963285D01*
X3828100Y971900D01*
X3836715Y984792D01*
X3838536Y993947D01*
X3843536Y993454D01*
Y909371D01*
X3838536Y908879D01*
X3837234Y915423D01*
X3828498Y928498D01*
X3815423Y937234D01*
X3805000Y939307D01*
Y900000D01*
Y860693D01*
X3815423Y862766D01*
X3828498Y871502D01*
X3837234Y884577D01*
X3838536Y891121D01*
X3843536Y890629D01*
Y806546D01*
X3838536Y806053D01*
X3836715Y815208D01*
X3828100Y828100D01*
X3815208Y836715D01*
X3800000Y839740D01*
X3784792Y836715D01*
X3771900Y828100D01*
X3763285Y815208D01*
X3760260Y800000D01*
X3763285Y784792D01*
X3771900Y771900D01*
X3784792Y763285D01*
X3800000Y760260D01*
X3815208Y763285D01*
X3828100Y771900D01*
X3836715Y784792D01*
X3838536Y793947D01*
X3843536Y793454D01*
Y709371D01*
X3838536Y708879D01*
X3837234Y715423D01*
X3828498Y728498D01*
X3815423Y737234D01*
X3805000Y739307D01*
Y700000D01*
Y660693D01*
X3815423Y662766D01*
X3828498Y671502D01*
X3837234Y684577D01*
X3838536Y691121D01*
X3843536Y690629D01*
Y606546D01*
X3838536Y606053D01*
X3836715Y615208D01*
X3828100Y628100D01*
X3815208Y636715D01*
X3800000Y639740D01*
X3784792Y636715D01*
X3771900Y628100D01*
X3763285Y615208D01*
X3760260Y600000D01*
X3763285Y584792D01*
X3771900Y571900D01*
X3784792Y563285D01*
X3800000Y560260D01*
X3815208Y563285D01*
X3828100Y571900D01*
X3836715Y584792D01*
X3838536Y593947D01*
X3843536Y593454D01*
Y509371D01*
X3838536Y508879D01*
X3837234Y515423D01*
X3828498Y528498D01*
X3815423Y537234D01*
X3805000Y539307D01*
Y500000D01*
Y460693D01*
X3815423Y462766D01*
X3828498Y471502D01*
X3837234Y484577D01*
X3838536Y491121D01*
X3843536Y490629D01*
Y14732D01*
X14732D01*
Y823851D01*
X39370D01*
X45008Y824972D01*
X49787Y828166D01*
X52981Y832945D01*
X54102Y838583D01*
Y1244094D01*
X52981Y1249732D01*
X49787Y1254512D01*
X45008Y1257705D01*
X39370Y1258826D01*
X14732D01*
Y2032512D01*
X2120291D01*
X2121286Y2027512D01*
X2102673Y2019803D01*
X2083429Y2005036D01*
X2068662Y1985791D01*
X2059379Y1963380D01*
X2056213Y1939331D01*
X2059379Y1915281D01*
X2068662Y1892870D01*
X2083429Y1873626D01*
X2102673Y1858859D01*
X2125084Y1849576D01*
X2149134Y1846410D01*
X2173184Y1849576D01*
X2195594Y1858859D01*
X2214839Y1873626D01*
X2229606Y1892870D01*
X2238889Y1915281D01*
X2242055Y1939331D01*
X2238889Y1963380D01*
X2229606Y1985791D01*
X2214839Y2005036D01*
X2195594Y2019803D01*
X2176982Y2027512D01*
X2177976Y2032512D01*
X3843536D01*
Y1606545D01*
D02*
G37*
%LPC*%
G36*
X3705787Y2021957D02*
Y1894764D01*
X3832981D01*
X3830924Y1915650D01*
X3823373Y1940541D01*
X3811112Y1963480D01*
X3794611Y1983587D01*
X3774504Y2000088D01*
X3751564Y2012350D01*
X3726673Y2019900D01*
X3705787Y2021957D01*
D02*
G37*
G36*
X3695787D02*
X3674902Y2019900D01*
X3650011Y2012350D01*
X3627071Y2000088D01*
X3606964Y1983587D01*
X3590463Y1963480D01*
X3578201Y1940541D01*
X3570651Y1915650D01*
X3568594Y1894764D01*
X3695787D01*
Y2021957D01*
D02*
G37*
G36*
X162480D02*
Y1894764D01*
X289674D01*
X287617Y1915650D01*
X280066Y1940541D01*
X267805Y1963480D01*
X251304Y1983587D01*
X231197Y2000088D01*
X208257Y2012350D01*
X183366Y2019900D01*
X162480Y2021957D01*
D02*
G37*
G36*
X152480D02*
X131595Y2019900D01*
X106704Y2012350D01*
X83764Y2000088D01*
X63657Y1983587D01*
X47156Y1963480D01*
X34894Y1940541D01*
X27344Y1915650D01*
X25287Y1894764D01*
X152480D01*
Y2021957D01*
D02*
G37*
G36*
X3832981Y1884764D02*
X3705787D01*
Y1757570D01*
X3726673Y1759627D01*
X3751564Y1767178D01*
X3774504Y1779439D01*
X3794611Y1795941D01*
X3811112Y1816047D01*
X3823373Y1838987D01*
X3830924Y1863878D01*
X3832981Y1884764D01*
D02*
G37*
G36*
X3695787D02*
X3568594D01*
X3570651Y1863878D01*
X3578201Y1838987D01*
X3590463Y1816047D01*
X3606964Y1795941D01*
X3627071Y1779439D01*
X3650011Y1767178D01*
X3674902Y1759627D01*
X3695787Y1757570D01*
Y1884764D01*
D02*
G37*
G36*
X289674D02*
X162480D01*
Y1757570D01*
X183366Y1759627D01*
X208257Y1767178D01*
X231197Y1779439D01*
X251304Y1795941D01*
X267805Y1816047D01*
X280066Y1838987D01*
X287617Y1863878D01*
X289674Y1884764D01*
D02*
G37*
G36*
X152480D02*
X25287D01*
X27344Y1863878D01*
X34894Y1838987D01*
X47156Y1816047D01*
X63657Y1795941D01*
X83764Y1779439D01*
X106704Y1767178D01*
X131595Y1759627D01*
X152480Y1757570D01*
Y1884764D01*
D02*
G37*
G36*
X125000Y1725431D02*
X111947Y1723713D01*
X99784Y1718675D01*
X89340Y1710660D01*
X81325Y1700216D01*
X76287Y1688053D01*
X74569Y1675000D01*
X76287Y1661947D01*
X81325Y1649784D01*
X89340Y1639340D01*
X99784Y1631325D01*
X111947Y1626287D01*
X125000Y1624569D01*
X138053Y1626287D01*
X150216Y1631325D01*
X160660Y1639340D01*
X168675Y1649784D01*
X173713Y1661947D01*
X175431Y1675000D01*
X173713Y1688053D01*
X168675Y1700216D01*
X160660Y1710660D01*
X150216Y1718675D01*
X138053Y1723713D01*
X125000Y1725431D01*
D02*
G37*
G36*
X1111850Y1924430D02*
X1104618Y1921435D01*
X1087257Y1904073D01*
X1084261Y1896841D01*
Y1823469D01*
X1087257Y1816237D01*
X1105160Y1798333D01*
X1112392Y1795338D01*
X1895953D01*
X2012109Y1679182D01*
X2019341Y1676186D01*
X2717563D01*
X2737981Y1655768D01*
X2745212Y1652773D01*
X2832520Y1652773D01*
X2839752Y1655768D01*
X2842268Y1656268D01*
X2842768Y1655768D01*
X2850000Y1652773D01*
X2950530Y1652773D01*
X2964088Y1639215D01*
X2964088Y1385799D01*
X2967084Y1378568D01*
X2990720Y1354931D01*
X2997952Y1351936D01*
X3120568D01*
X3127800Y1354931D01*
X3132868Y1360000D01*
X3145000Y1360000D01*
X3240449Y1360000D01*
Y1318619D01*
X3235449Y1317103D01*
X3228100Y1328100D01*
X3215208Y1336715D01*
X3200000Y1339740D01*
X3184792Y1336715D01*
X3171900Y1328100D01*
X3163285Y1315208D01*
X3160260Y1300000D01*
X3163285Y1284792D01*
X3171900Y1271900D01*
X3184792Y1263285D01*
X3200000Y1260260D01*
X3215208Y1263285D01*
X3228100Y1271900D01*
X3235449Y1282897D01*
X3240449Y1281381D01*
Y1218619D01*
X3235449Y1217103D01*
X3228100Y1228100D01*
X3215208Y1236715D01*
X3200000Y1239740D01*
X3184792Y1236715D01*
X3171900Y1228100D01*
X3163285Y1215208D01*
X3160260Y1200000D01*
X3163285Y1184792D01*
X3171900Y1171900D01*
X3184792Y1163285D01*
X3200000Y1160260D01*
X3215208Y1163285D01*
X3228100Y1171900D01*
X3235449Y1182897D01*
X3240449Y1181381D01*
Y1118619D01*
X3235449Y1117103D01*
X3228100Y1128100D01*
X3215208Y1136715D01*
X3200000Y1139740D01*
X3184792Y1136715D01*
X3171900Y1128100D01*
X3163285Y1115208D01*
X3160260Y1100000D01*
X3163285Y1084792D01*
X3171900Y1071900D01*
X3184792Y1063285D01*
X3200000Y1060260D01*
X3215208Y1063285D01*
X3228100Y1071900D01*
X3235449Y1082897D01*
X3240449Y1081381D01*
Y1018619D01*
X3235449Y1017103D01*
X3228100Y1028100D01*
X3215208Y1036715D01*
X3200000Y1039740D01*
X3184792Y1036715D01*
X3171900Y1028100D01*
X3163285Y1015208D01*
X3160260Y1000000D01*
X3163285Y984792D01*
X3171900Y971900D01*
X3184792Y963285D01*
X3200000Y960260D01*
X3215208Y963285D01*
X3228100Y971900D01*
X3235449Y982897D01*
X3240449Y981381D01*
Y918619D01*
X3235449Y917103D01*
X3228100Y928100D01*
X3215208Y936715D01*
X3200000Y939740D01*
X3184792Y936715D01*
X3171900Y928100D01*
X3163285Y915208D01*
X3160260Y900000D01*
X3163285Y884792D01*
X3171900Y871900D01*
X3181619Y865405D01*
X3180102Y860405D01*
X3119898D01*
X3118381Y865405D01*
X3128100Y871900D01*
X3136715Y884792D01*
X3139740Y900000D01*
X3136715Y915208D01*
X3128100Y928100D01*
X3115208Y936715D01*
X3100000Y939740D01*
X3084792Y936715D01*
X3071900Y928100D01*
X3063285Y915208D01*
X3060260Y900000D01*
X3063285Y884792D01*
X3071900Y871900D01*
X3081619Y865405D01*
X3080102Y860405D01*
X3052187D01*
X3044955Y857410D01*
X3025532Y837987D01*
X3022537Y830755D01*
Y821676D01*
X2807679D01*
X2749923Y879432D01*
X2742891Y884131D01*
X2734595Y885781D01*
X2726300Y884131D01*
X2719268Y879432D01*
X2714569Y872400D01*
X2712919Y864105D01*
X2714569Y855809D01*
X2719268Y848777D01*
X2778600Y789445D01*
Y748149D01*
X2768110D01*
Y667835D01*
X2778600D01*
Y655227D01*
X2462127Y655227D01*
X2460213Y659846D01*
X2462651Y662284D01*
X2465609Y666712D01*
X2466648Y671934D01*
Y763347D01*
X2512653Y809352D01*
X2638377D01*
X2639499Y807673D01*
X2646532Y802974D01*
X2654827Y801324D01*
X2663122Y802974D01*
X2670154Y807673D01*
X2674853Y814705D01*
X2676503Y823000D01*
X2674853Y831295D01*
X2670154Y838327D01*
X2663122Y843026D01*
X2654827Y844676D01*
X2646532Y843026D01*
X2639499Y838327D01*
X2638377Y836648D01*
X2507000D01*
X2501777Y835609D01*
X2497349Y832651D01*
X2443349Y778651D01*
X2441392Y775721D01*
X2436392Y777238D01*
Y890000D01*
X2434520Y894520D01*
X2430000Y896392D01*
X2368000D01*
X2363480Y894520D01*
X2361608Y890000D01*
Y851713D01*
X2356988Y849800D01*
X2304502Y902287D01*
Y1414713D01*
X2311061Y1421273D01*
X2323992D01*
X2326381Y1417697D01*
Y1412776D01*
X2329439Y1405394D01*
X2326381Y1398011D01*
Y1393090D01*
X2329438Y1385709D01*
X2326381Y1378327D01*
Y1373406D01*
X2329439Y1366024D01*
X2326381Y1358641D01*
Y1353720D01*
X2329438Y1346339D01*
X2326381Y1338957D01*
Y1334036D01*
X2329439Y1326654D01*
X2326381Y1319271D01*
Y1314350D01*
X2329438Y1306969D01*
X2326381Y1299587D01*
Y1294666D01*
X2329439Y1287284D01*
X2326381Y1279901D01*
Y1274980D01*
X2330156Y1265865D01*
X2339271Y1262090D01*
X2377657D01*
X2379352Y1260957D01*
Y1153091D01*
X2377441Y1151814D01*
X2372742Y1144782D01*
X2371092Y1136486D01*
X2372742Y1128191D01*
X2377441Y1121159D01*
X2384473Y1116460D01*
X2392769Y1114810D01*
X2394756Y1115206D01*
X2432689Y1077273D01*
X2437116Y1074314D01*
X2442339Y1073275D01*
X2770980D01*
X2771900Y1071900D01*
X2784792Y1063285D01*
X2800000Y1060260D01*
X2815208Y1063285D01*
X2828100Y1071900D01*
X2836715Y1084792D01*
X2839740Y1100000D01*
X2836715Y1115208D01*
X2828100Y1128100D01*
X2824974Y1130189D01*
X2826426Y1134974D01*
X2848622D01*
X2853845Y1136013D01*
X2858273Y1138971D01*
X2883470Y1164169D01*
X2884792Y1163285D01*
X2900000Y1160260D01*
X2915208Y1163285D01*
X2928100Y1171900D01*
X2936715Y1184792D01*
X2939740Y1200000D01*
X2936715Y1215208D01*
X2928100Y1228100D01*
X2915208Y1236715D01*
X2900000Y1239740D01*
X2884792Y1236715D01*
X2871900Y1228100D01*
X2863285Y1215208D01*
X2860260Y1200000D01*
X2863285Y1184792D01*
X2864169Y1183470D01*
X2842969Y1162270D01*
X2822689D01*
X2821172Y1167270D01*
X2828100Y1171900D01*
X2836715Y1184792D01*
X2839740Y1200000D01*
X2836715Y1215208D01*
X2828100Y1228100D01*
X2821737Y1232352D01*
X2823254Y1237352D01*
X2851000D01*
X2856223Y1238391D01*
X2860651Y1241349D01*
X2883470Y1264169D01*
X2884792Y1263285D01*
X2900000Y1260260D01*
X2915208Y1263285D01*
X2928100Y1271900D01*
X2936715Y1284792D01*
X2939740Y1300000D01*
X2936715Y1315208D01*
X2928100Y1328100D01*
X2915208Y1336715D01*
X2900000Y1339740D01*
X2884792Y1336715D01*
X2871900Y1328100D01*
X2863285Y1315208D01*
X2860260Y1300000D01*
X2863285Y1284792D01*
X2864169Y1283470D01*
X2845347Y1264648D01*
X2825860D01*
X2824409Y1269433D01*
X2828100Y1271900D01*
X2836715Y1284792D01*
X2839740Y1300000D01*
X2836715Y1315208D01*
X2828100Y1328100D01*
X2822645Y1331746D01*
X2824162Y1336746D01*
X2850394D01*
X2855617Y1337785D01*
X2860044Y1340743D01*
X2883470Y1364169D01*
X2884792Y1363285D01*
X2900000Y1360260D01*
X2915208Y1363285D01*
X2928100Y1371900D01*
X2936715Y1384792D01*
X2939740Y1400000D01*
X2936715Y1415208D01*
X2928100Y1428100D01*
X2915208Y1436715D01*
X2900000Y1439740D01*
X2884792Y1436715D01*
X2871900Y1428100D01*
X2863285Y1415208D01*
X2860260Y1400000D01*
X2863285Y1384792D01*
X2864169Y1383470D01*
X2844740Y1364042D01*
X2824952D01*
X2823501Y1368826D01*
X2828100Y1371900D01*
X2836715Y1384792D01*
X2839740Y1400000D01*
X2836715Y1415208D01*
X2828100Y1428100D01*
X2820582Y1433124D01*
X2822099Y1438124D01*
X2851772D01*
X2856995Y1439163D01*
X2861422Y1442121D01*
X2883470Y1464169D01*
X2884792Y1463285D01*
X2900000Y1460260D01*
X2915208Y1463285D01*
X2928100Y1471900D01*
X2936715Y1484792D01*
X2939740Y1500000D01*
X2936715Y1515208D01*
X2928100Y1528100D01*
X2915208Y1536715D01*
X2900000Y1539740D01*
X2884792Y1536715D01*
X2871900Y1528100D01*
X2863285Y1515208D01*
X2860260Y1500000D01*
X2863285Y1484792D01*
X2864169Y1483470D01*
X2846119Y1465420D01*
X2827015D01*
X2825563Y1470204D01*
X2828100Y1471900D01*
X2836715Y1484792D01*
X2839740Y1500000D01*
X2836715Y1515208D01*
X2828100Y1528100D01*
X2822617Y1531764D01*
X2824069Y1536549D01*
X2850197D01*
X2855420Y1537588D01*
X2859847Y1540546D01*
X2883470Y1564169D01*
X2884792Y1563285D01*
X2900000Y1560260D01*
X2915208Y1563285D01*
X2928100Y1571900D01*
X2936715Y1584792D01*
X2939740Y1600000D01*
X2936715Y1615208D01*
X2928100Y1628100D01*
X2915208Y1636715D01*
X2900000Y1639740D01*
X2884792Y1636715D01*
X2871900Y1628100D01*
X2863285Y1615208D01*
X2860260Y1600000D01*
X2863285Y1584792D01*
X2864169Y1583470D01*
X2844544Y1563845D01*
X2824658D01*
X2823206Y1568630D01*
X2828100Y1571900D01*
X2836715Y1584792D01*
X2839740Y1600000D01*
X2836715Y1615208D01*
X2828100Y1628100D01*
X2815208Y1636715D01*
X2800000Y1639740D01*
X2784792Y1636715D01*
X2771900Y1628100D01*
X2763285Y1615208D01*
X2762975Y1613648D01*
X2756499D01*
X2751276Y1612609D01*
X2746848Y1609651D01*
X2621560Y1484363D01*
X2457858D01*
X2456026Y1486596D01*
Y1501163D01*
X2454849Y1507077D01*
X2451499Y1512091D01*
X2453825Y1516550D01*
X2454849Y1518083D01*
X2456026Y1523997D01*
Y1538564D01*
X2454849Y1544478D01*
X2451499Y1549492D01*
X2446485Y1552842D01*
X2440571Y1554019D01*
X2429154D01*
X2423240Y1552842D01*
X2420613Y1551087D01*
X2409860D01*
X2409601Y1551260D01*
X2401306Y1552910D01*
X2393011Y1551260D01*
X2385979Y1546561D01*
X2381280Y1539529D01*
X2380066Y1533426D01*
X2378584Y1530711D01*
X2375185Y1529012D01*
X2339271D01*
X2330156Y1525236D01*
X2326381Y1516121D01*
Y1511200D01*
X2329438Y1503819D01*
X2326381Y1496437D01*
Y1491516D01*
X2329439Y1484134D01*
X2326381Y1476751D01*
Y1471830D01*
X2323992Y1468255D01*
X2305607D01*
X2300384Y1467216D01*
X2295956Y1464257D01*
X2264759Y1433060D01*
X2261800Y1428632D01*
X2260761Y1423409D01*
Y1329254D01*
X2256142Y1327340D01*
X2217651Y1365831D01*
X2213223Y1368790D01*
X2208000Y1369829D01*
X2207999Y1369829D01*
X2176010D01*
X2173620Y1373406D01*
Y1378327D01*
X2170562Y1385709D01*
X2173620Y1393090D01*
Y1398011D01*
X2170562Y1405394D01*
X2173620Y1412776D01*
Y1417697D01*
X2170562Y1425079D01*
X2173620Y1432460D01*
Y1437381D01*
X2170562Y1444764D01*
X2173620Y1452146D01*
Y1457067D01*
X2170562Y1464449D01*
X2173620Y1471830D01*
Y1476751D01*
X2170562Y1484134D01*
X2173620Y1491516D01*
Y1496437D01*
X2170562Y1503819D01*
X2173620Y1511200D01*
Y1516121D01*
X2169844Y1525236D01*
X2160729Y1529012D01*
X2136824D01*
X2133652Y1532877D01*
X2133676Y1533000D01*
X2132026Y1541295D01*
X2127327Y1548328D01*
X2120295Y1553026D01*
X2112000Y1554676D01*
X2103705Y1553026D01*
X2103533Y1552912D01*
X2084605D01*
X2081814Y1554777D01*
X2075900Y1555953D01*
X2064482D01*
X2058568Y1554777D01*
X2053554Y1551427D01*
X2050204Y1546413D01*
X2049028Y1540499D01*
Y1525932D01*
X2050204Y1520018D01*
X2052127Y1517141D01*
X2052570Y1512057D01*
X2049220Y1507043D01*
X2048044Y1501129D01*
Y1486562D01*
X2048078Y1486389D01*
X2044906Y1482524D01*
X2006777D01*
X1949439Y1539862D01*
X1949439Y1539863D01*
X1830045Y1659257D01*
X1825617Y1662215D01*
X1820394Y1663254D01*
X1724162D01*
X1722645Y1668254D01*
X1728100Y1671900D01*
X1736715Y1684792D01*
X1739740Y1700000D01*
X1736715Y1715208D01*
X1728100Y1728100D01*
X1715208Y1736715D01*
X1700000Y1739740D01*
X1684792Y1736715D01*
X1671900Y1728100D01*
X1663285Y1715208D01*
X1660260Y1700000D01*
X1663285Y1684792D01*
X1671900Y1671900D01*
X1677355Y1668254D01*
X1675838Y1663254D01*
X1649606D01*
X1644383Y1662215D01*
X1643976Y1661943D01*
X1638976Y1664616D01*
Y1738976D01*
X1597355D01*
X1596119Y1740213D01*
X1587784Y1745782D01*
X1577953Y1747738D01*
X1577952Y1747738D01*
X402762D01*
X400139Y1749491D01*
X388772Y1751752D01*
X377404Y1749491D01*
X374780Y1747738D01*
X326048D01*
X326047Y1747738D01*
X316216Y1745782D01*
X307881Y1740213D01*
X307881Y1740213D01*
X160476Y1592808D01*
X154907Y1584473D01*
X152951Y1574642D01*
X152951Y1574641D01*
Y1515813D01*
X147951Y1514296D01*
X142671Y1522198D01*
X129596Y1530935D01*
X119173Y1533008D01*
Y1493701D01*
Y1454393D01*
X129596Y1456467D01*
X142671Y1465203D01*
X147951Y1473106D01*
X152951Y1471589D01*
Y1432677D01*
X75197D01*
Y1354725D01*
X152951D01*
Y1294359D01*
X152951Y1294358D01*
X154907Y1284527D01*
X160476Y1276192D01*
X252310Y1184359D01*
Y1150909D01*
X247900Y1148552D01*
X244851Y1150589D01*
X234252Y1152697D01*
X222441D01*
X211842Y1150589D01*
X202856Y1144585D01*
X196852Y1135599D01*
X194744Y1125000D01*
X196852Y1114400D01*
X202856Y1105415D01*
X211842Y1099411D01*
X222441Y1097302D01*
X234252D01*
X244851Y1099411D01*
X247900Y1101448D01*
X252310Y1099091D01*
Y975712D01*
X247900Y973355D01*
X244851Y975392D01*
X234252Y977501D01*
X222441D01*
X211842Y975392D01*
X202856Y969388D01*
X196852Y960403D01*
X194744Y949803D01*
X196852Y939204D01*
X202856Y930218D01*
X211842Y924214D01*
X222441Y922106D01*
X234252D01*
X244851Y924214D01*
X247900Y926251D01*
X252310Y923894D01*
Y486421D01*
X252310Y486421D01*
X254265Y476589D01*
X259834Y468255D01*
X405254Y322834D01*
X405255Y322834D01*
X413589Y317265D01*
X423421Y315310D01*
X528552D01*
X531494Y308208D01*
X546997Y292704D01*
X554229Y289709D01*
X646796D01*
X648867Y284709D01*
X636450Y272292D01*
X633454Y265060D01*
X633454Y177405D01*
X636450Y170173D01*
X653442Y153181D01*
X660673Y150186D01*
X731675D01*
X738907Y153181D01*
X754685Y168960D01*
X754690Y168971D01*
X754701Y168976D01*
X756185Y172580D01*
X756961Y174454D01*
X776612D01*
X865989Y85078D01*
X875626Y78638D01*
X886993Y76377D01*
X2483797D01*
X2495165Y78638D01*
X2504802Y85078D01*
X2584981Y165257D01*
X2591420Y174893D01*
X2593681Y186261D01*
Y270444D01*
X2593836Y270509D01*
X2642228Y318900D01*
X2984822Y319152D01*
X2994524Y309449D01*
X2994524Y180964D01*
X2997519Y173732D01*
X3048772Y122480D01*
X3048772Y100425D01*
X3043988Y98973D01*
X3041096Y103301D01*
X3028021Y112037D01*
X3017599Y114110D01*
Y74803D01*
Y35496D01*
X3028021Y37569D01*
X3041096Y46305D01*
X3046763Y54786D01*
X3048265Y55081D01*
X3052766Y54770D01*
X3072768Y34768D01*
X3072768Y34768D01*
X3080000Y31773D01*
X3133000Y31773D01*
X3140232Y34768D01*
X3162547Y57084D01*
X3165543Y64316D01*
X3165542Y123141D01*
X3220146Y177745D01*
X3223141Y184977D01*
Y207710D01*
X3228141Y209781D01*
X3241026Y196897D01*
X3245453Y193938D01*
X3250676Y192899D01*
X3375952D01*
X3398950Y169901D01*
Y113779D01*
X3373622D01*
Y35827D01*
X3451575D01*
Y113779D01*
X3426246D01*
Y175554D01*
X3425207Y180777D01*
X3422249Y185204D01*
X3391256Y216198D01*
X3386828Y219156D01*
X3381605Y220195D01*
X3256329D01*
X3250816Y225709D01*
X3252670Y230709D01*
X3252670D01*
Y268958D01*
X3252670Y269645D01*
X3254248Y270124D01*
X3257670Y271162D01*
X3261006Y266170D01*
X3270747Y259661D01*
X3282237Y257376D01*
X3293727Y259661D01*
X3303468Y266170D01*
X3309977Y275911D01*
X3312263Y287402D01*
X3309977Y298892D01*
X3303468Y308633D01*
X3293727Y315142D01*
X3282237Y317427D01*
X3270747Y315142D01*
X3261006Y308633D01*
X3254497Y298892D01*
X3252211Y287402D01*
X3253886Y278983D01*
X3251814Y274611D01*
X3250321Y273229D01*
X3250320Y273228D01*
X3249248Y273228D01*
X3220308D01*
Y301575D01*
Y344094D01*
X3180859D01*
Y336648D01*
X3154450D01*
X3153327Y338327D01*
X3146295Y343026D01*
X3138000Y344676D01*
X3129705Y343026D01*
X3122673Y338327D01*
X3117974Y331295D01*
X3116324Y323000D01*
X3117974Y314705D01*
X3122673Y307673D01*
X3129705Y302974D01*
X3138000Y301324D01*
X3146295Y302974D01*
X3152100Y306853D01*
X3152771Y306727D01*
X3153434Y305807D01*
X3154687Y301280D01*
X3150956Y295697D01*
X3149306Y287402D01*
X3150956Y279106D01*
X3151030Y278996D01*
X3148471Y273826D01*
X3146167Y272875D01*
X3146166Y272872D01*
X3146162Y272870D01*
X3142625Y269337D01*
X3142623Y269334D01*
X3142620Y269332D01*
X3141122Y265715D01*
X3141076Y265604D01*
X3141037Y265546D01*
X3141023Y265477D01*
X3139625Y262107D01*
X3139626Y262104D01*
X3139625Y262101D01*
X3139625Y195754D01*
X3124658Y180787D01*
X3096400Y181667D01*
X3059503Y218564D01*
Y295433D01*
X3139786Y375716D01*
X3667546Y375719D01*
X3674778Y378715D01*
X3751632Y455568D01*
X3754627Y462800D01*
X3754627Y1632669D01*
X3751631Y1639901D01*
X3599301Y1792232D01*
X3592070Y1795227D01*
X2846465Y1795227D01*
X2839493Y1792339D01*
X2832521Y1795227D01*
X2070722Y1795228D01*
X1944993Y1920957D01*
X1937761Y1923953D01*
X1113002Y1923953D01*
X1111850Y1924430D01*
D02*
G37*
G36*
X3795000Y1539307D02*
X3784577Y1537234D01*
X3771502Y1528498D01*
X3762766Y1515423D01*
X3760693Y1505000D01*
X3795000D01*
Y1539307D01*
D02*
G37*
G36*
X109173Y1533008D02*
X98750Y1530935D01*
X85675Y1522198D01*
X76939Y1509124D01*
X74866Y1498701D01*
X109173D01*
Y1533008D01*
D02*
G37*
G36*
X3795000Y1495000D02*
X3760693D01*
X3762766Y1484577D01*
X3771502Y1471502D01*
X3784577Y1462766D01*
X3795000Y1460693D01*
Y1495000D01*
D02*
G37*
G36*
X109173Y1488701D02*
X74866D01*
X76939Y1478278D01*
X85675Y1465203D01*
X98750Y1456467D01*
X109173Y1454393D01*
Y1488701D01*
D02*
G37*
G36*
X3795000Y1339307D02*
X3784577Y1337234D01*
X3771502Y1328498D01*
X3762766Y1315423D01*
X3760693Y1305000D01*
X3795000D01*
Y1339307D01*
D02*
G37*
G36*
Y1295000D02*
X3760693D01*
X3762766Y1284577D01*
X3771502Y1271502D01*
X3784577Y1262766D01*
X3795000Y1260693D01*
Y1295000D01*
D02*
G37*
G36*
X3100000Y1339740D02*
X3084792Y1336715D01*
X3071900Y1328100D01*
X3063285Y1315208D01*
X3060260Y1300000D01*
X3063285Y1284792D01*
X3071900Y1271900D01*
X3084792Y1263285D01*
X3100000Y1260260D01*
X3115208Y1263285D01*
X3128100Y1271900D01*
X3136715Y1284792D01*
X3139740Y1300000D01*
X3136715Y1315208D01*
X3128100Y1328100D01*
X3115208Y1336715D01*
X3100000Y1339740D01*
D02*
G37*
G36*
X132874Y1241222D02*
X87599D01*
X78151Y1239343D01*
X70142Y1233992D01*
X64791Y1225983D01*
X62912Y1216535D01*
Y1187008D01*
X64791Y1177561D01*
X70142Y1169552D01*
X78151Y1164200D01*
X87599Y1162321D01*
X132874D01*
X142321Y1164200D01*
X150330Y1169552D01*
X155682Y1177561D01*
X157561Y1187008D01*
Y1216535D01*
X155682Y1225983D01*
X150330Y1233992D01*
X142321Y1239343D01*
X132874Y1241222D01*
D02*
G37*
G36*
X3100000Y1239740D02*
X3084792Y1236715D01*
X3071900Y1228100D01*
X3063285Y1215208D01*
X3060260Y1200000D01*
X3063285Y1184792D01*
X3071900Y1171900D01*
X3084792Y1163285D01*
X3100000Y1160260D01*
X3115208Y1163285D01*
X3128100Y1171900D01*
X3136715Y1184792D01*
X3139740Y1200000D01*
X3136715Y1215208D01*
X3128100Y1228100D01*
X3115208Y1236715D01*
X3100000Y1239740D01*
D02*
G37*
G36*
X2905000Y1139307D02*
Y1105000D01*
X2939307D01*
X2937234Y1115423D01*
X2928498Y1128498D01*
X2915423Y1137234D01*
X2905000Y1139307D01*
D02*
G37*
G36*
X2895000Y1139307D02*
X2884577Y1137234D01*
X2871502Y1128498D01*
X2862766Y1115423D01*
X2860693Y1105000D01*
X2895000D01*
Y1139307D01*
D02*
G37*
G36*
X3795000Y1139307D02*
X3784577Y1137234D01*
X3771502Y1128498D01*
X3762766Y1115423D01*
X3760693Y1105000D01*
X3795000D01*
Y1139307D01*
D02*
G37*
G36*
X2939307Y1095000D02*
X2905000D01*
Y1060693D01*
X2915423Y1062766D01*
X2928498Y1071502D01*
X2937234Y1084577D01*
X2939307Y1095000D01*
D02*
G37*
G36*
X3795000Y1095000D02*
X3760693D01*
X3762766Y1084577D01*
X3771502Y1071502D01*
X3784577Y1062766D01*
X3795000Y1060693D01*
Y1095000D01*
D02*
G37*
G36*
X2895000Y1095000D02*
X2860693D01*
X2862766Y1084577D01*
X2871502Y1071502D01*
X2884577Y1062766D01*
X2895000Y1060693D01*
Y1095000D01*
D02*
G37*
G36*
X3100000Y1139740D02*
X3084792Y1136715D01*
X3071900Y1128100D01*
X3063285Y1115208D01*
X3060260Y1100000D01*
X3063285Y1084792D01*
X3071900Y1071900D01*
X3084792Y1063285D01*
X3100000Y1060260D01*
X3115208Y1063285D01*
X3128100Y1071900D01*
X3136715Y1084792D01*
X3139740Y1100000D01*
X3136715Y1115208D01*
X3128100Y1128100D01*
X3115208Y1136715D01*
X3100000Y1139740D01*
D02*
G37*
G36*
X2805000Y1039307D02*
Y1005000D01*
X2839307D01*
X2837234Y1015423D01*
X2828498Y1028498D01*
X2815423Y1037234D01*
X2805000Y1039307D01*
D02*
G37*
G36*
X2905000D02*
Y1005000D01*
X2939307D01*
X2937234Y1015423D01*
X2928498Y1028498D01*
X2915423Y1037234D01*
X2905000Y1039307D01*
D02*
G37*
G36*
X2895000Y1039307D02*
X2884577Y1037234D01*
X2871502Y1028498D01*
X2862766Y1015423D01*
X2860693Y1005000D01*
X2895000D01*
Y1039307D01*
D02*
G37*
G36*
X2795000D02*
X2784577Y1037234D01*
X2771502Y1028498D01*
X2762766Y1015423D01*
X2760693Y1005000D01*
X2795000D01*
Y1039307D01*
D02*
G37*
G36*
X2939307Y995000D02*
X2905000D01*
Y960693D01*
X2915423Y962766D01*
X2928498Y971502D01*
X2937234Y984577D01*
X2939307Y995000D01*
D02*
G37*
G36*
X2839307D02*
X2805000D01*
Y960693D01*
X2815423Y962766D01*
X2828498Y971502D01*
X2837234Y984577D01*
X2839307Y995000D01*
D02*
G37*
G36*
X2895000D02*
X2860693D01*
X2862766Y984577D01*
X2871502Y971502D01*
X2884577Y962766D01*
X2895000Y960693D01*
Y995000D01*
D02*
G37*
G36*
X2795000D02*
X2760693D01*
X2762766Y984577D01*
X2771502Y971502D01*
X2784577Y962766D01*
X2795000Y960693D01*
Y995000D01*
D02*
G37*
G36*
X3100000Y1039740D02*
X3084792Y1036715D01*
X3071900Y1028100D01*
X3063285Y1015208D01*
X3060260Y1000000D01*
X3063285Y984792D01*
X3071900Y971900D01*
X3084792Y963285D01*
X3100000Y960260D01*
X3115208Y963285D01*
X3128100Y971900D01*
X3136715Y984792D01*
X3139740Y1000000D01*
X3136715Y1015208D01*
X3128100Y1028100D01*
X3115208Y1036715D01*
X3100000Y1039740D01*
D02*
G37*
G36*
X3795000Y939307D02*
X3784577Y937234D01*
X3771502Y928498D01*
X3762766Y915423D01*
X3760693Y905000D01*
X3795000D01*
Y939307D01*
D02*
G37*
G36*
Y895000D02*
X3760693D01*
X3762766Y884577D01*
X3771502Y871502D01*
X3784577Y862766D01*
X3795000Y860693D01*
Y895000D01*
D02*
G37*
G36*
X132874Y912482D02*
X87599D01*
X78151Y910603D01*
X70142Y905251D01*
X64791Y897242D01*
X62912Y887795D01*
Y858268D01*
X64791Y848820D01*
X70142Y840811D01*
X78151Y835460D01*
X87599Y833581D01*
X132874D01*
X142321Y835460D01*
X150330Y840811D01*
X155682Y848820D01*
X157561Y858268D01*
Y887795D01*
X155682Y897242D01*
X150330Y905251D01*
X142321Y910603D01*
X132874Y912482D01*
D02*
G37*
G36*
X3795000Y739307D02*
X3784577Y737234D01*
X3771502Y728498D01*
X3762766Y715423D01*
X3760693Y705000D01*
X3795000D01*
Y739307D01*
D02*
G37*
G36*
X2626378Y748149D02*
X2568110D01*
Y667835D01*
X2626378D01*
Y748149D01*
D02*
G37*
G36*
X3795000Y695000D02*
X3760693D01*
X3762766Y684577D01*
X3771502Y671502D01*
X3784577Y662766D01*
X3795000Y660693D01*
Y695000D01*
D02*
G37*
G36*
Y539307D02*
X3784577Y537234D01*
X3771502Y528498D01*
X3762766Y515423D01*
X3760693Y505000D01*
X3795000D01*
Y539307D01*
D02*
G37*
G36*
Y495000D02*
X3760693D01*
X3762766Y484577D01*
X3771502Y471502D01*
X3784577Y462766D01*
X3795000Y460693D01*
Y495000D01*
D02*
G37*
G36*
X102362Y444132D02*
X89310Y442414D01*
X77147Y437376D01*
X66702Y429361D01*
X58687Y418916D01*
X53649Y406753D01*
X51931Y393701D01*
X53649Y380648D01*
X58687Y368485D01*
X66702Y358040D01*
X77147Y350026D01*
X89310Y344988D01*
X102362Y343269D01*
X115415Y344988D01*
X127578Y350026D01*
X138023Y358040D01*
X146037Y368485D01*
X151075Y380648D01*
X152794Y393701D01*
X151075Y406753D01*
X146037Y418916D01*
X138023Y429361D01*
X127578Y437376D01*
X115415Y442414D01*
X102362Y444132D01*
D02*
G37*
G36*
X3725000Y400431D02*
X3711947Y398713D01*
X3699784Y393675D01*
X3689340Y385660D01*
X3681325Y375216D01*
X3676287Y363053D01*
X3674569Y350000D01*
X3676287Y336947D01*
X3681325Y324784D01*
X3689340Y314340D01*
X3699784Y306325D01*
X3711947Y301287D01*
X3725000Y299569D01*
X3738053Y301287D01*
X3750216Y306325D01*
X3760660Y314340D01*
X3768675Y324784D01*
X3773713Y336947D01*
X3775431Y350000D01*
X3773713Y363053D01*
X3768675Y375216D01*
X3760660Y385660D01*
X3750216Y393675D01*
X3738053Y398713D01*
X3725000Y400431D01*
D02*
G37*
G36*
X3705787Y289674D02*
Y162480D01*
X3832981D01*
X3830924Y183366D01*
X3823373Y208257D01*
X3811112Y231197D01*
X3794611Y251304D01*
X3774504Y267805D01*
X3751564Y280066D01*
X3726673Y287617D01*
X3705787Y289674D01*
D02*
G37*
G36*
X3695787D02*
X3674902Y287617D01*
X3650011Y280066D01*
X3627071Y267805D01*
X3606964Y251304D01*
X3590463Y231197D01*
X3578201Y208257D01*
X3570651Y183366D01*
X3568594Y162480D01*
X3695787D01*
Y289674D01*
D02*
G37*
G36*
X162480D02*
Y162480D01*
X289674D01*
X287617Y183366D01*
X280066Y208257D01*
X267805Y231197D01*
X251304Y251304D01*
X231197Y267805D01*
X208257Y280066D01*
X183366Y287617D01*
X162480Y289674D01*
D02*
G37*
G36*
X152480D02*
X131595Y287617D01*
X106704Y280066D01*
X83764Y267805D01*
X63657Y251304D01*
X47156Y231197D01*
X34894Y208257D01*
X27344Y183366D01*
X25287Y162480D01*
X152480D01*
Y289674D01*
D02*
G37*
G36*
X3007599Y114111D02*
X2997175Y112037D01*
X2984101Y103301D01*
X2975364Y90226D01*
X2973291Y79803D01*
X3007599D01*
Y114111D01*
D02*
G37*
G36*
Y69803D02*
X2973291D01*
X2975364Y59380D01*
X2984101Y46305D01*
X2997175Y37569D01*
X3007599Y35496D01*
Y69803D01*
D02*
G37*
G36*
X3312598Y114543D02*
X3297391Y111518D01*
X3284498Y102903D01*
X3275883Y90011D01*
X3272858Y74803D01*
X3275883Y59595D01*
X3284498Y46703D01*
X3297391Y38088D01*
X3312598Y35063D01*
X3327806Y38088D01*
X3340699Y46703D01*
X3349313Y59595D01*
X3352338Y74803D01*
X3349313Y90011D01*
X3340699Y102903D01*
X3327806Y111518D01*
X3312598Y114543D01*
D02*
G37*
G36*
X3212598D02*
X3197391Y111518D01*
X3184498Y102903D01*
X3175883Y90011D01*
X3172858Y74803D01*
X3175883Y59595D01*
X3184498Y46703D01*
X3197391Y38088D01*
X3212598Y35063D01*
X3227806Y38088D01*
X3240699Y46703D01*
X3249313Y59595D01*
X3252338Y74803D01*
X3249313Y90011D01*
X3240699Y102903D01*
X3227806Y111518D01*
X3212598Y114543D01*
D02*
G37*
G36*
X3832981Y152480D02*
X3705787D01*
Y25287D01*
X3726673Y27344D01*
X3751564Y34894D01*
X3774504Y47156D01*
X3794611Y63657D01*
X3811112Y83764D01*
X3823373Y106704D01*
X3830924Y131595D01*
X3832981Y152480D01*
D02*
G37*
G36*
X3695787D02*
X3568594D01*
X3570651Y131595D01*
X3578201Y106704D01*
X3590463Y83764D01*
X3606964Y63657D01*
X3627071Y47156D01*
X3650011Y34894D01*
X3674902Y27344D01*
X3695787Y25287D01*
Y152480D01*
D02*
G37*
G36*
X289674D02*
X162480D01*
Y25287D01*
X183366Y27344D01*
X208257Y34894D01*
X231197Y47156D01*
X251304Y63657D01*
X267805Y83764D01*
X280066Y106704D01*
X287617Y131595D01*
X289674Y152480D01*
D02*
G37*
G36*
X152480D02*
X25287D01*
X27344Y131595D01*
X34894Y106704D01*
X47156Y83764D01*
X63657Y63657D01*
X83764Y47156D01*
X106704Y34894D01*
X131595Y27344D01*
X152480Y25287D01*
Y152480D01*
D02*
G37*
%LPD*%
G36*
X487389Y1691357D02*
X486324Y1686000D01*
X487974Y1677705D01*
X492673Y1670672D01*
X499705Y1665974D01*
X508000Y1664324D01*
X516295Y1665974D01*
X523327Y1670672D01*
X524450Y1672352D01*
X751347D01*
X899545Y1524154D01*
Y1456227D01*
X897662Y1454855D01*
X892134Y1457014D01*
X891681Y1459295D01*
X886982Y1466328D01*
X879949Y1471026D01*
X871654Y1472676D01*
X863359Y1471026D01*
X863065Y1470830D01*
X334941D01*
X333400Y1473085D01*
X332711Y1475671D01*
X420520Y1563480D01*
X422392Y1568000D01*
Y1631244D01*
X420520Y1635764D01*
X414764Y1641520D01*
X410244Y1643392D01*
X348000D01*
X343480Y1641520D01*
X337480Y1635520D01*
X335608Y1631000D01*
X335608Y1583648D01*
X276353Y1524392D01*
X212000Y1524392D01*
X209332Y1523287D01*
X204332Y1525905D01*
Y1564000D01*
X336689Y1696357D01*
X374780D01*
X377404Y1694604D01*
X388772Y1692343D01*
X400139Y1694604D01*
X402763Y1696357D01*
X483796D01*
X487389Y1691357D01*
D02*
G37*
G36*
X1112327Y1913726D02*
X1937761Y1913726D01*
X2066486Y1785000D01*
X2832521Y1785000D01*
X2832520Y1663000D01*
X2745212Y1663000D01*
X2721799Y1686414D01*
X2019341D01*
X1900189Y1805565D01*
X1112392D01*
X1094488Y1823469D01*
Y1896841D01*
X1111850Y1914203D01*
X1112327Y1913726D01*
D02*
G37*
G36*
X1561024Y1661024D02*
X1634651D01*
X1636723Y1656024D01*
X1616530Y1635831D01*
X1615208Y1636715D01*
X1600000Y1639740D01*
X1584792Y1636715D01*
X1571900Y1628100D01*
X1563285Y1615208D01*
X1560260Y1600000D01*
X1563285Y1584792D01*
X1571900Y1571900D01*
X1584792Y1563285D01*
X1600000Y1560260D01*
X1615208Y1563285D01*
X1628100Y1571900D01*
X1636715Y1584792D01*
X1639740Y1600000D01*
X1636715Y1615208D01*
X1635831Y1616530D01*
X1655259Y1635958D01*
X1675047D01*
X1676499Y1631174D01*
X1671900Y1628100D01*
X1663285Y1615208D01*
X1660260Y1600000D01*
X1663285Y1584792D01*
X1671900Y1571900D01*
X1672374Y1571582D01*
X1670923Y1566798D01*
X1653150D01*
X1647927Y1565759D01*
X1643499Y1562800D01*
X1616530Y1535831D01*
X1615208Y1536715D01*
X1600000Y1539740D01*
X1584792Y1536715D01*
X1571900Y1528100D01*
X1563285Y1515208D01*
X1560260Y1500000D01*
X1563285Y1484792D01*
X1571900Y1471900D01*
X1584792Y1463285D01*
X1600000Y1460260D01*
X1615208Y1463285D01*
X1628100Y1471900D01*
X1636715Y1484792D01*
X1639740Y1500000D01*
X1636715Y1515208D01*
X1635831Y1516530D01*
X1658803Y1539502D01*
X1679963D01*
X1681480Y1534502D01*
X1671900Y1528100D01*
X1663285Y1515208D01*
X1660260Y1500000D01*
X1663285Y1484792D01*
X1671900Y1471900D01*
X1675591Y1469433D01*
X1674140Y1464648D01*
X1651000D01*
X1645777Y1463609D01*
X1641349Y1460651D01*
X1616530Y1435831D01*
X1615208Y1436715D01*
X1600000Y1439740D01*
X1584792Y1436715D01*
X1571900Y1428100D01*
X1563285Y1415208D01*
X1560260Y1400000D01*
X1563285Y1384792D01*
X1571900Y1371900D01*
X1584792Y1363285D01*
X1600000Y1360260D01*
X1615208Y1363285D01*
X1628100Y1371900D01*
X1636715Y1384792D01*
X1639740Y1400000D01*
X1636715Y1415208D01*
X1635831Y1416530D01*
X1656653Y1437352D01*
X1676746D01*
X1678263Y1432352D01*
X1671900Y1428100D01*
X1663285Y1415208D01*
X1660260Y1400000D01*
X1663285Y1384792D01*
X1669942Y1374829D01*
X1667270Y1369829D01*
X1656181D01*
X1650958Y1368790D01*
X1646530Y1365831D01*
X1616530Y1335831D01*
X1615208Y1336715D01*
X1600000Y1339740D01*
X1584792Y1336715D01*
X1571900Y1328100D01*
X1563285Y1315208D01*
X1560260Y1300000D01*
X1563285Y1284792D01*
X1571900Y1271900D01*
X1584792Y1263285D01*
X1600000Y1260260D01*
X1615208Y1263285D01*
X1628100Y1271900D01*
X1636715Y1284792D01*
X1639740Y1300000D01*
X1636715Y1315208D01*
X1635831Y1316530D01*
X1661834Y1342533D01*
X1688412D01*
X1688904Y1337533D01*
X1684792Y1336715D01*
X1671900Y1328100D01*
X1663285Y1315208D01*
X1660260Y1300000D01*
X1663285Y1284792D01*
X1671900Y1271900D01*
X1679438Y1266863D01*
X1679267Y1260963D01*
X1677303Y1259651D01*
X1637958Y1220305D01*
X1632982Y1220795D01*
X1628100Y1228100D01*
X1615208Y1236715D01*
X1600000Y1239740D01*
X1584792Y1236715D01*
X1571900Y1228100D01*
X1563285Y1215208D01*
X1562975Y1213648D01*
X1532799D01*
X1518038Y1228409D01*
Y1597777D01*
X1516999Y1603000D01*
X1514040Y1607428D01*
X1458818Y1662650D01*
X1454390Y1665609D01*
X1449167Y1666648D01*
X1063450D01*
X1062328Y1668327D01*
X1055295Y1673026D01*
X1047000Y1674676D01*
X1038705Y1673026D01*
X1031672Y1668327D01*
X1026974Y1661295D01*
X1025324Y1653000D01*
X1026974Y1644705D01*
X1031672Y1637672D01*
X1032180Y1637333D01*
Y1632333D01*
X1031672Y1631994D01*
X1026974Y1624962D01*
X1025324Y1616667D01*
X1026974Y1608371D01*
X1031672Y1601339D01*
X1032180Y1601000D01*
Y1596000D01*
X1031672Y1595661D01*
X1026974Y1588629D01*
X1025324Y1580333D01*
X1026974Y1572038D01*
X1031672Y1565006D01*
X1032180Y1564667D01*
Y1559667D01*
X1031672Y1559328D01*
X1026974Y1552295D01*
X1025324Y1544000D01*
X1026974Y1535705D01*
X1031672Y1528672D01*
X1033352Y1527550D01*
Y1413032D01*
X1034391Y1407809D01*
X1037349Y1403381D01*
X1109381Y1331349D01*
X1113809Y1328391D01*
X1119032Y1327352D01*
X1277330D01*
X1278452Y1325672D01*
X1285484Y1320974D01*
X1293780Y1319324D01*
X1302075Y1320974D01*
X1309107Y1325672D01*
X1313806Y1332705D01*
X1315456Y1341000D01*
X1313806Y1349295D01*
X1309107Y1356328D01*
X1302075Y1361026D01*
X1293780Y1362676D01*
X1285484Y1361026D01*
X1278452Y1356328D01*
X1277330Y1354648D01*
X1124685D01*
X1086933Y1392400D01*
X1088593Y1397811D01*
X1097368Y1399556D01*
X1107004Y1405996D01*
X1113444Y1415632D01*
X1115705Y1427000D01*
X1115277Y1429149D01*
X1118449Y1433014D01*
X1177476D01*
X1177874Y1432418D01*
X1184907Y1427720D01*
X1193202Y1426070D01*
X1201497Y1427720D01*
X1208529Y1432418D01*
X1213228Y1439451D01*
X1214878Y1447746D01*
X1213228Y1456041D01*
X1208529Y1463073D01*
X1201497Y1467772D01*
X1193202Y1469422D01*
X1184907Y1467772D01*
X1177874Y1463073D01*
X1177476Y1462478D01*
X1106955D01*
X1101317Y1461357D01*
X1096538Y1458163D01*
X1093573Y1455198D01*
X1086000Y1456705D01*
X1074632Y1454444D01*
X1065648Y1448440D01*
X1060648Y1449812D01*
Y1527550D01*
X1062328Y1528672D01*
X1067026Y1535705D01*
X1068676Y1544000D01*
X1067026Y1552295D01*
X1062328Y1559327D01*
X1063341Y1564074D01*
X1065660Y1566685D01*
X1404668D01*
X1432352Y1539002D01*
Y1189523D01*
X1430672Y1188401D01*
X1426732Y1182504D01*
X1421732Y1183722D01*
Y1232000D01*
X1420611Y1237638D01*
X1417417Y1242417D01*
X1388044Y1271791D01*
X1383264Y1274984D01*
X1377627Y1276105D01*
X1067497D01*
X1067099Y1276701D01*
X1060067Y1281400D01*
X1051772Y1283050D01*
X1043476Y1281400D01*
X1036444Y1276701D01*
X1031745Y1269669D01*
X1030095Y1261373D01*
X1031745Y1253078D01*
X1036444Y1246046D01*
X1043116Y1241588D01*
X1043407Y1238954D01*
X1043116Y1236321D01*
X1036444Y1231863D01*
X1031745Y1224831D01*
X1030095Y1216535D01*
X1031745Y1208240D01*
X1036444Y1201208D01*
X1043476Y1196509D01*
X1051772Y1194859D01*
X1060067Y1196509D01*
X1067099Y1201208D01*
X1068221Y1202888D01*
X1362550D01*
X1363672Y1201208D01*
X1370705Y1196509D01*
X1379000Y1194859D01*
X1387295Y1196509D01*
X1387858Y1196885D01*
X1392268Y1194528D01*
Y1039726D01*
X1391672Y1039328D01*
X1386974Y1032295D01*
X1385324Y1024000D01*
X1386974Y1015705D01*
X1391672Y1008673D01*
X1398705Y1003974D01*
X1407000Y1002324D01*
X1415295Y1003974D01*
X1422328Y1008673D01*
X1427026Y1015705D01*
X1428324Y1022228D01*
X1432493Y1024595D01*
X1433537Y1024758D01*
X1437705Y1021974D01*
X1446000Y1020324D01*
X1454295Y1021974D01*
X1457567Y1024160D01*
X1460755Y1020276D01*
X1447981Y1007503D01*
X1446000Y1007897D01*
X1437705Y1006247D01*
X1430672Y1001548D01*
X1425974Y994516D01*
X1424324Y986221D01*
X1424718Y984240D01*
X1391349Y950871D01*
X1388391Y946443D01*
X1387352Y941221D01*
Y805227D01*
X1372000D01*
X1368648Y807467D01*
Y883173D01*
X1367979Y886538D01*
Y1152842D01*
X1369658Y1153964D01*
X1374357Y1160996D01*
X1376007Y1169291D01*
X1374357Y1177587D01*
X1369658Y1184619D01*
X1362626Y1189318D01*
X1354331Y1190968D01*
X1346035Y1189318D01*
X1339567Y1184996D01*
X1333099Y1189318D01*
X1324803Y1190968D01*
X1316508Y1189318D01*
X1309476Y1184619D01*
X1304777Y1177587D01*
X1303127Y1169291D01*
X1304777Y1160996D01*
X1309476Y1153964D01*
X1311155Y1152842D01*
Y880197D01*
X1312194Y874974D01*
X1315153Y870546D01*
X1324352Y861347D01*
Y519409D01*
X1310892D01*
Y536575D01*
X1309853Y541798D01*
X1306895Y546226D01*
X1271648Y581473D01*
Y879146D01*
X1275295Y879871D01*
X1282328Y884570D01*
X1287026Y891602D01*
X1288676Y899898D01*
X1287026Y908193D01*
X1282328Y915225D01*
X1275295Y919924D01*
X1267000Y921574D01*
X1262463Y920671D01*
X1260512Y925381D01*
X1262244Y926539D01*
X1268684Y936176D01*
X1270945Y947543D01*
Y1130512D01*
X1268684Y1141879D01*
X1262244Y1151516D01*
X1252608Y1157955D01*
X1241240Y1160216D01*
X1229873Y1157955D01*
X1220236Y1151516D01*
X1214160Y1142423D01*
X1210264Y1145026D01*
X1201968Y1146676D01*
X1193673Y1145026D01*
X1186641Y1140328D01*
X1181942Y1133295D01*
X1180292Y1125000D01*
X1181942Y1116705D01*
X1185789Y1110948D01*
X1185638Y1109134D01*
X1184965Y1108291D01*
X1180726Y1105567D01*
X1174213Y1106862D01*
X1165918Y1105212D01*
X1158885Y1100514D01*
X1154479Y1093920D01*
X1152049Y1093324D01*
X1149013Y1093101D01*
X1146053Y1097530D01*
X1120217Y1123367D01*
X1110580Y1129806D01*
X1099213Y1132067D01*
X1087845Y1129806D01*
X1078208Y1123367D01*
X1071769Y1113730D01*
X1069508Y1102362D01*
X1071769Y1090995D01*
X1078208Y1081358D01*
X1095345Y1064222D01*
Y992651D01*
X1090725Y990738D01*
X1088011Y993452D01*
X1080779Y996448D01*
X1018016Y996448D01*
X1012616Y1001847D01*
Y1192392D01*
X1009620Y1199624D01*
X928440Y1280804D01*
X928440Y1379977D01*
X927412Y1382458D01*
X925444Y1387208D01*
X925444Y1387208D01*
X915959Y1396693D01*
X915959Y1396693D01*
X915959Y1396694D01*
X908727Y1399689D01*
X881462Y1399689D01*
X874230Y1396694D01*
X864423Y1386886D01*
X861427Y1379654D01*
X861427Y1236869D01*
X864422Y1229637D01*
X929131Y1164928D01*
X929131Y878733D01*
X900645Y850247D01*
X588331D01*
X569197Y869380D01*
Y1128311D01*
X624848Y1183962D01*
X627844Y1191194D01*
X627844Y1344449D01*
X627844Y1344449D01*
X627844Y1344449D01*
X626390Y1347959D01*
X624848Y1351681D01*
X624848Y1351681D01*
X624848Y1351681D01*
X624346Y1352184D01*
X626259Y1356803D01*
X651729D01*
X686268Y1322263D01*
Y1175126D01*
X685673Y1174727D01*
X680974Y1167695D01*
X679324Y1159400D01*
X680974Y1151105D01*
X685673Y1144072D01*
X692705Y1139374D01*
X701000Y1137724D01*
X709295Y1139374D01*
X716327Y1144072D01*
X721026Y1151105D01*
X722676Y1159400D01*
X721026Y1167695D01*
X716327Y1174727D01*
X715732Y1175126D01*
Y1328366D01*
X714611Y1334003D01*
X711417Y1338783D01*
X668248Y1381952D01*
X663468Y1385146D01*
X657831Y1386267D01*
X536592D01*
X536194Y1386862D01*
X529161Y1391561D01*
X520866Y1393211D01*
X512571Y1391561D01*
X505539Y1386862D01*
X500840Y1379830D01*
X499190Y1371535D01*
X500840Y1363240D01*
X505539Y1356207D01*
X512571Y1351509D01*
X520866Y1349859D01*
X529161Y1351509D01*
X536194Y1356207D01*
X536592Y1356803D01*
X544170D01*
X546083Y1352184D01*
X545877Y1351977D01*
X542881Y1344745D01*
X542881Y1197109D01*
X513658Y1167886D01*
X510663Y1160654D01*
X510663Y990126D01*
X503640Y983103D01*
X421699Y983103D01*
X414467Y980108D01*
X406462Y972103D01*
X403466Y964871D01*
Y936453D01*
X406462Y929221D01*
X415750Y919934D01*
X422982Y916938D01*
X503291Y916938D01*
X510663Y909566D01*
X510663Y814401D01*
X513659Y807169D01*
X542889Y777939D01*
X542889Y777938D01*
X550121Y774943D01*
X930470Y774943D01*
X931899Y775535D01*
X933438Y775383D01*
X935381Y776977D01*
X937702Y777939D01*
X938294Y779368D01*
X939489Y780349D01*
X942162Y785349D01*
X942314Y786889D01*
X943173Y788175D01*
X942683Y790639D01*
X942929Y793139D01*
X941948Y794335D01*
X941646Y795852D01*
X940387Y797736D01*
X939531Y802041D01*
X940387Y806346D01*
X942826Y809995D01*
X946475Y812434D01*
X950780Y813290D01*
X955084Y812434D01*
X958734Y809995D01*
X961172Y806346D01*
X961416Y805119D01*
X962275Y803833D01*
X962427Y802293D01*
X964369Y800699D01*
X965765Y798611D01*
X967282Y798309D01*
X968478Y797328D01*
X973903Y795682D01*
X975443Y795833D01*
X976872Y795241D01*
X979193Y796203D01*
X981693Y796449D01*
X982674Y797645D01*
X984104Y798237D01*
X1009620Y823753D01*
X1012616Y830985D01*
X1012616Y930325D01*
X1018833Y936542D01*
X1082081Y936542D01*
X1089312Y939538D01*
X1090725Y940951D01*
X1095345Y939037D01*
Y864173D01*
X1097606Y852806D01*
X1104045Y843169D01*
X1123317Y823897D01*
Y748149D01*
X1074933D01*
Y758858D01*
X1072672Y770226D01*
X1066233Y779863D01*
X1056596Y786302D01*
X1045228Y788563D01*
X1033861Y786302D01*
X1024224Y779863D01*
X1017785Y770226D01*
X1015524Y758858D01*
Y671210D01*
X1010524Y668537D01*
X1008295Y670026D01*
X1000000Y671676D01*
X998019Y671282D01*
X969651Y699651D01*
X965223Y702609D01*
X960000Y703648D01*
X829066D01*
X828594Y704304D01*
X831157Y709304D01*
X897134D01*
X904722Y710814D01*
X911156Y715112D01*
X921948Y725905D01*
X922295Y725974D01*
X929327Y730673D01*
X934026Y737705D01*
X935676Y746000D01*
X934026Y754295D01*
X929327Y761327D01*
X922295Y766026D01*
X914000Y767676D01*
X905705Y766026D01*
X898673Y761327D01*
X893974Y754295D01*
X893905Y753948D01*
X888920Y748964D01*
X632293D01*
X626968Y750023D01*
X620774Y748791D01*
X428939D01*
X428139Y749989D01*
X418502Y756428D01*
X407134Y758689D01*
X395767Y756428D01*
X386130Y749989D01*
X379691Y740352D01*
X377430Y728985D01*
X379691Y717617D01*
X386130Y707980D01*
X395767Y701541D01*
X407134Y699280D01*
X418502Y701541D01*
X428139Y707980D01*
X428908Y709131D01*
X617460D01*
X618673Y708320D01*
X626968Y706670D01*
X635264Y708320D01*
X636736Y709304D01*
X790309D01*
X791989Y704304D01*
X787974Y698295D01*
X786324Y690000D01*
X787974Y681705D01*
X792673Y674673D01*
X799705Y669974D01*
X808000Y668324D01*
X816295Y669974D01*
X823327Y674673D01*
X824450Y676352D01*
X954347D01*
X978718Y651981D01*
X978324Y650000D01*
X979974Y641705D01*
X984673Y634673D01*
X991705Y629974D01*
X1000000Y628324D01*
X1008295Y629974D01*
X1010524Y631463D01*
X1015524Y628790D01*
Y591471D01*
X961757Y537705D01*
X921046D01*
X920718Y542705D01*
X922367Y542922D01*
X938074Y549428D01*
X951561Y559777D01*
X961911Y573265D01*
X968417Y588971D01*
X970636Y605827D01*
X968417Y622682D01*
X961911Y638389D01*
X951561Y651876D01*
X938074Y662226D01*
X922367Y668732D01*
X905512Y670951D01*
X888657Y668732D01*
X872950Y662226D01*
X859462Y651876D01*
X849113Y638389D01*
X842607Y622682D01*
X840388Y605827D01*
X842607Y588971D01*
X849113Y573265D01*
X859462Y559777D01*
X872950Y549428D01*
X888657Y542922D01*
X890306Y542705D01*
X889978Y537705D01*
X841345D01*
X816280Y562769D01*
X806643Y569209D01*
X795276Y571470D01*
X783908Y569209D01*
X774271Y562769D01*
X767832Y553133D01*
X765571Y541765D01*
X767832Y530398D01*
X774271Y520761D01*
X808037Y486996D01*
X817673Y480557D01*
X829041Y478295D01*
X974061D01*
X985429Y480557D01*
X995066Y486996D01*
X1066233Y558163D01*
X1072672Y567799D01*
X1074933Y579167D01*
Y667835D01*
X1123317D01*
Y580325D01*
X1086996Y544004D01*
X1080556Y534367D01*
X1078295Y523000D01*
Y519409D01*
X1068110D01*
Y511392D01*
X1040000D01*
X1035480Y509520D01*
X1010480Y484520D01*
X1008608Y480000D01*
Y461705D01*
X407158D01*
X395791Y459443D01*
X386154Y453004D01*
X379715Y443368D01*
X377454Y432000D01*
X377934Y429585D01*
X373524Y427228D01*
X303690Y497062D01*
Y977100D01*
X308690Y979778D01*
X316000Y978324D01*
X324295Y979974D01*
X331327Y984673D01*
X336026Y991705D01*
X337676Y1000000D01*
X336026Y1008295D01*
X331327Y1015327D01*
X329892Y1016287D01*
Y1078840D01*
X330488Y1079238D01*
X335187Y1086270D01*
X336837Y1094566D01*
X335187Y1102861D01*
X330679Y1109607D01*
X330778Y1109672D01*
X334806Y1115700D01*
X338669Y1116390D01*
X340477Y1116213D01*
X341805Y1114225D01*
X348837Y1109526D01*
X351274Y1109042D01*
X355616Y1106140D01*
X363204Y1104631D01*
X376260D01*
X381716Y1103546D01*
X396284D01*
X400493Y1104383D01*
X413550D01*
X419263Y1103246D01*
X433830D01*
X439744Y1104423D01*
X439831Y1104481D01*
X449969D01*
X450705Y1103989D01*
X459000Y1102340D01*
X467295Y1103989D01*
X474327Y1108688D01*
X479026Y1115721D01*
X480676Y1124016D01*
X479026Y1132311D01*
X474327Y1139343D01*
X467295Y1144042D01*
X459000Y1145692D01*
X451202Y1144141D01*
X440126D01*
X439744Y1144396D01*
X433830Y1145573D01*
X419263D01*
X413349Y1144396D01*
X412819Y1144043D01*
X403175D01*
X402198Y1144695D01*
X396284Y1145872D01*
X381716D01*
X375803Y1144695D01*
X372460Y1144880D01*
X365427Y1149579D01*
X357132Y1151229D01*
X348837Y1149579D01*
X342278Y1145197D01*
X340492Y1145768D01*
X337673Y1147676D01*
X337738Y1148000D01*
Y1159417D01*
X336562Y1165332D01*
X333211Y1170345D01*
X328198Y1173695D01*
X322284Y1174872D01*
X307716D01*
X307555Y1174840D01*
X303690Y1178012D01*
Y1194999D01*
X303690Y1195000D01*
X301735Y1204831D01*
X296166Y1213166D01*
X296166Y1213166D01*
X291136Y1218196D01*
X294323Y1222079D01*
X299411Y1218680D01*
X307000Y1217170D01*
X309211D01*
X309996Y1215996D01*
X319632Y1209556D01*
X331000Y1207295D01*
X342368Y1209556D01*
X352004Y1215996D01*
X358443Y1225632D01*
X360705Y1237000D01*
X358443Y1248368D01*
X352004Y1258004D01*
X342368Y1264444D01*
X331000Y1266705D01*
X320352Y1264587D01*
X318212Y1266227D01*
X316506Y1268368D01*
X317111Y1269829D01*
X317111Y1406068D01*
X342214Y1431170D01*
X781139D01*
X783053Y1426551D01*
X739930Y1383428D01*
X736972Y1379001D01*
X735933Y1373778D01*
Y1033157D01*
X734253Y1032034D01*
X729555Y1025002D01*
X727905Y1016707D01*
X729555Y1008412D01*
X734253Y1001379D01*
X741286Y996681D01*
X749581Y995030D01*
X757876Y996681D01*
X764908Y1001379D01*
X769607Y1008412D01*
X771257Y1016707D01*
X769607Y1025002D01*
X764908Y1032034D01*
X763229Y1033157D01*
Y1368125D01*
X804456Y1409352D01*
X889000D01*
X894223Y1410391D01*
X898651Y1413349D01*
X922844Y1437543D01*
X925803Y1441971D01*
X926841Y1447194D01*
Y1529807D01*
X925803Y1535030D01*
X922844Y1539457D01*
X770945Y1691357D01*
X773016Y1696357D01*
X1561024D01*
Y1661024D01*
D02*
G37*
G36*
X3629069Y1633467D02*
X3625881Y1629583D01*
X3615208Y1636715D01*
X3600000Y1639740D01*
X3584792Y1636715D01*
X3571900Y1628100D01*
X3563285Y1615208D01*
X3560260Y1600000D01*
X3563285Y1584792D01*
X3571900Y1571900D01*
X3584792Y1563285D01*
X3600000Y1560260D01*
X3615208Y1563285D01*
X3628100Y1571900D01*
X3633773Y1580389D01*
X3638773Y1578872D01*
X3638773Y1522120D01*
X3633773Y1520603D01*
X3628498Y1528498D01*
X3615423Y1537234D01*
X3605000Y1539307D01*
Y1500000D01*
X3600000D01*
Y1495000D01*
X3560693D01*
X3562766Y1484577D01*
X3571502Y1471502D01*
X3576726Y1468012D01*
X3575274Y1463227D01*
X3524726D01*
X3523274Y1468012D01*
X3528498Y1471502D01*
X3537234Y1484577D01*
X3539307Y1495000D01*
X3460693D01*
X3462766Y1484577D01*
X3471502Y1471502D01*
X3476726Y1468012D01*
X3475274Y1463227D01*
X3424121Y1463227D01*
X3422604Y1468227D01*
X3428100Y1471900D01*
X3436715Y1484792D01*
X3439740Y1500000D01*
X3436715Y1515208D01*
X3428100Y1528100D01*
X3415208Y1536715D01*
X3400000Y1539740D01*
X3384792Y1536715D01*
X3371900Y1528100D01*
X3363285Y1515208D01*
X3363227Y1514916D01*
X3358227Y1515408D01*
Y1584592D01*
X3363227Y1585085D01*
X3363285Y1584792D01*
X3371900Y1571900D01*
X3384792Y1563285D01*
X3400000Y1560260D01*
X3415208Y1563285D01*
X3428101Y1571900D01*
X3436715Y1584792D01*
X3439740Y1600000D01*
X3436715Y1615208D01*
X3428101Y1628100D01*
X3415208Y1636715D01*
X3400000Y1639740D01*
X3384792Y1636715D01*
X3371900Y1628100D01*
X3363285Y1615208D01*
X3363227Y1614915D01*
X3358227Y1615408D01*
Y1642598D01*
X3355232Y1649830D01*
X3324400Y1680662D01*
Y1714478D01*
X3548056Y1714480D01*
X3629069Y1633467D01*
D02*
G37*
G36*
X416000Y1631244D02*
Y1568000D01*
X296000Y1448000D01*
X213000Y1448000D01*
X207000Y1454000D01*
Y1513000D01*
X212000Y1518000D01*
X279000Y1518000D01*
X342000Y1581000D01*
X342000Y1631000D01*
X348000Y1637000D01*
X410244D01*
X416000Y1631244D01*
D02*
G37*
G36*
X310719Y1269829D02*
X256670Y1323878D01*
X256670Y1413722D01*
X310719D01*
X310719Y1269829D01*
D02*
G37*
G36*
X2172352Y1261840D02*
Y1189653D01*
X1957267Y974569D01*
X1952648Y976482D01*
Y981550D01*
X1954328Y982673D01*
X1959026Y989705D01*
X1960676Y998000D01*
X1959026Y1006295D01*
X1954328Y1013327D01*
X1947295Y1018026D01*
X1939000Y1019676D01*
X1930705Y1018026D01*
X1923672Y1013327D01*
X1918974Y1006295D01*
X1917324Y998000D01*
X1918974Y989705D01*
X1923672Y982673D01*
X1925352Y981550D01*
Y925400D01*
X1879648D01*
Y1035684D01*
X1881328Y1036806D01*
X1886026Y1043839D01*
X1887676Y1052134D01*
X1886026Y1060429D01*
X1881328Y1067461D01*
X1874295Y1072160D01*
X1866000Y1073810D01*
X1857705Y1072160D01*
X1850672Y1067461D01*
X1845974Y1060429D01*
X1844324Y1052134D01*
X1845974Y1043839D01*
X1850672Y1036806D01*
X1852352Y1035684D01*
Y767118D01*
X1848622Y765560D01*
X1847352Y765453D01*
X1805731Y807074D01*
X1806125Y809055D01*
X1804475Y817350D01*
X1799776Y824383D01*
X1792744Y829081D01*
X1784449Y830731D01*
X1776154Y829081D01*
X1769121Y824383D01*
X1764422Y817350D01*
X1762773Y809055D01*
X1764422Y800760D01*
X1769121Y793728D01*
X1776154Y789029D01*
X1784449Y787379D01*
X1786430Y787773D01*
X1821053Y753149D01*
X1818982Y748149D01*
X1787411D01*
X1741757Y793804D01*
X1746404Y800760D01*
X1748054Y809055D01*
X1746404Y817350D01*
X1741706Y824383D01*
X1734673Y829081D01*
X1726378Y830731D01*
X1718083Y829081D01*
X1711051Y824383D01*
X1706352Y817350D01*
X1704702Y809055D01*
X1706352Y800760D01*
X1711051Y793728D01*
X1712730Y792605D01*
Y789881D01*
X1713769Y784659D01*
X1716728Y780231D01*
X1768110Y728848D01*
Y667835D01*
X1824352D01*
Y655653D01*
X1798341Y629643D01*
X1795383Y625215D01*
X1794344Y619992D01*
Y575227D01*
X1770000D01*
X1762768Y572232D01*
X1759773Y565000D01*
Y400000D01*
X1762768Y392768D01*
X1770000Y389773D01*
X1827352D01*
Y259000D01*
X1828391Y253777D01*
X1831349Y249349D01*
X1861024Y219675D01*
Y161024D01*
X1938976D01*
Y234651D01*
X1943976Y236722D01*
X1964169Y216530D01*
X1963285Y215208D01*
X1960260Y200000D01*
X1963285Y184792D01*
X1971900Y171900D01*
X1984792Y163285D01*
X2000000Y160260D01*
X2015208Y163285D01*
X2028100Y171900D01*
X2036715Y184792D01*
X2039740Y200000D01*
X2036715Y215208D01*
X2028100Y228100D01*
X2015208Y236715D01*
X2000000Y239740D01*
X1984792Y236715D01*
X1983470Y235831D01*
X1965648Y253653D01*
Y272644D01*
X1970433Y274095D01*
X1971900Y271900D01*
X1984792Y263285D01*
X2000000Y260260D01*
X2015208Y263285D01*
X2028100Y271900D01*
X2036715Y284792D01*
X2039740Y300000D01*
X2036715Y315208D01*
X2028100Y328100D01*
X2015208Y336715D01*
X2013648Y337025D01*
Y349347D01*
X2043600Y379299D01*
X2047000Y382065D01*
X2050400Y379299D01*
X2086352Y343347D01*
Y337025D01*
X2084792Y336715D01*
X2071900Y328100D01*
X2063285Y315208D01*
X2060260Y300000D01*
X2063285Y284792D01*
X2071900Y271900D01*
X2084792Y263285D01*
X2100000Y260260D01*
X2115208Y263285D01*
X2123479Y268811D01*
X2127888Y266454D01*
Y247189D01*
X2116530Y235831D01*
X2115208Y236715D01*
X2100000Y239740D01*
X2084792Y236715D01*
X2071900Y228100D01*
X2063285Y215208D01*
X2060260Y200000D01*
X2063285Y184792D01*
X2071900Y171900D01*
X2084792Y163285D01*
X2100000Y160260D01*
X2115208Y163285D01*
X2128100Y171900D01*
X2136715Y184792D01*
X2139740Y200000D01*
X2136715Y215208D01*
X2135831Y216530D01*
X2151187Y231886D01*
X2154145Y236313D01*
X2155184Y241536D01*
Y372023D01*
X2154145Y377246D01*
X2151187Y381674D01*
X2110892Y421968D01*
Y439094D01*
X2126378D01*
Y519409D01*
X2110892D01*
Y558756D01*
X2109853Y563979D01*
X2106895Y568407D01*
X2071648Y603653D01*
Y667835D01*
X2114921D01*
Y645000D01*
X2117916Y637768D01*
X2125148Y634773D01*
X2208939D01*
X2210852Y630153D01*
X2138349Y557651D01*
X2135391Y553223D01*
X2134352Y548000D01*
Y425000D01*
X2135391Y419777D01*
X2138349Y415349D01*
X2186352Y367347D01*
Y337025D01*
X2184792Y336715D01*
X2171900Y328100D01*
X2163285Y315208D01*
X2160260Y300000D01*
X2163285Y284792D01*
X2171900Y271900D01*
X2184792Y263285D01*
X2200000Y260260D01*
X2215208Y263285D01*
X2228100Y271900D01*
X2230567Y275591D01*
X2235352Y274140D01*
Y254653D01*
X2216530Y235831D01*
X2215208Y236715D01*
X2200000Y239740D01*
X2184792Y236715D01*
X2171900Y228100D01*
X2163285Y215208D01*
X2160260Y200000D01*
X2163285Y184792D01*
X2171900Y171900D01*
X2184792Y163285D01*
X2200000Y160260D01*
X2215208Y163285D01*
X2228100Y171900D01*
X2236715Y184792D01*
X2239740Y200000D01*
X2236715Y215208D01*
X2235831Y216530D01*
X2258651Y239349D01*
X2261609Y243777D01*
X2262648Y249000D01*
Y275754D01*
X2267648Y277271D01*
X2271502Y271502D01*
X2284577Y262766D01*
X2295000Y260693D01*
Y300000D01*
Y339307D01*
X2284577Y337234D01*
X2271502Y328498D01*
X2267648Y322729D01*
X2262648Y324246D01*
Y366639D01*
X2261609Y371861D01*
X2258651Y376289D01*
X2210892Y424048D01*
Y439094D01*
X2226378D01*
Y519409D01*
X2210892D01*
Y563585D01*
X2270280Y622973D01*
X2273239Y627401D01*
X2274278Y632624D01*
Y667835D01*
X2323352D01*
Y567653D01*
X2311981Y556282D01*
X2310000Y556676D01*
X2301705Y555026D01*
X2294673Y550327D01*
X2289974Y543295D01*
X2288324Y535000D01*
X2289843Y527360D01*
X2290163Y512327D01*
X2364564Y512764D01*
X2368110Y509238D01*
Y449227D01*
X2362000D01*
X2354768Y446232D01*
X2351772Y439000D01*
Y393000D01*
X2351773Y179000D01*
X2354768Y171768D01*
X2367768Y158768D01*
X2375000Y155773D01*
X2456999Y155772D01*
X2464231Y158768D01*
X2477231Y171768D01*
X2477232Y171768D01*
X2480227Y179000D01*
X2480227Y439094D01*
X2526378D01*
Y519409D01*
X2480227D01*
Y526121D01*
X2488224Y534118D01*
X2731922D01*
X2736599Y533400D01*
X2736600Y533400D01*
D01*
X2741514Y533700D01*
X2768500D01*
Y519409D01*
X2768110D01*
Y439094D01*
X2823807D01*
X2826378Y439094D01*
X2827700Y434642D01*
Y396168D01*
X2641503Y396168D01*
X2611413Y426258D01*
X2604181Y429253D01*
X2535886Y429253D01*
X2528654Y426258D01*
X2509790Y407394D01*
X2506795Y400162D01*
Y294745D01*
X2509790Y287513D01*
X2526794Y270509D01*
X2534026Y267513D01*
X2534272D01*
Y198565D01*
X2471493Y135787D01*
X899297D01*
X810413Y224671D01*
X809777Y227306D01*
X809777Y230259D01*
X810603Y230812D01*
X815302Y237844D01*
X816952Y246139D01*
X816558Y248120D01*
X823790Y255352D01*
X939678D01*
X941591Y250733D01*
X925349Y234491D01*
X922391Y230063D01*
X921352Y224840D01*
Y196450D01*
X919673Y195327D01*
X914974Y188295D01*
X913324Y180000D01*
X914974Y171705D01*
X919673Y164673D01*
X926705Y159974D01*
X935000Y158324D01*
X943295Y159974D01*
X950327Y164673D01*
X955026Y171705D01*
X956676Y180000D01*
X955026Y188295D01*
X950327Y195327D01*
X948648Y196450D01*
Y219187D01*
X970270Y240809D01*
X1218457D01*
X1223679Y241847D01*
X1228107Y244806D01*
X1364651Y381349D01*
X1367609Y385777D01*
X1368648Y391000D01*
Y439094D01*
X1426378D01*
Y519409D01*
X1368648D01*
Y652533D01*
X1372000Y654773D01*
X1427000D01*
X1434232Y657768D01*
X1437227Y665000D01*
Y795000D01*
X1434232Y802232D01*
X1427000Y805227D01*
X1414648D01*
Y935567D01*
X1444019Y964938D01*
X1446000Y964544D01*
X1454295Y966194D01*
X1461328Y970893D01*
X1466026Y977925D01*
X1467676Y986221D01*
X1467282Y988202D01*
X1514040Y1034960D01*
X1516999Y1039387D01*
X1518038Y1044610D01*
Y1184431D01*
X1523038Y1187169D01*
X1527146Y1186352D01*
X1562975D01*
X1563285Y1184792D01*
X1571900Y1171900D01*
X1579759Y1166648D01*
X1578242Y1161648D01*
X1557000D01*
X1551777Y1160609D01*
X1547349Y1157651D01*
X1529349Y1139651D01*
X1526391Y1135223D01*
X1525352Y1130000D01*
Y1022874D01*
X1487349Y984871D01*
X1484391Y980443D01*
X1483352Y975221D01*
Y790227D01*
X1467000D01*
X1459768Y787232D01*
X1456773Y780000D01*
Y665000D01*
X1459768Y657768D01*
X1467000Y654773D01*
X1527000D01*
X1527195Y654853D01*
X1531352Y652075D01*
Y389792D01*
X1390208Y248648D01*
X1311450D01*
X1310328Y250327D01*
X1303295Y255026D01*
X1295000Y256676D01*
X1286705Y255026D01*
X1279672Y250327D01*
X1274974Y243295D01*
X1273324Y235000D01*
X1274974Y226705D01*
X1276074Y225058D01*
X1273717Y220648D01*
X1096882D01*
X1091659Y219609D01*
X1087231Y216651D01*
X1064229Y193648D01*
X1056449D01*
X1055328Y195327D01*
X1048295Y200026D01*
X1040000Y201676D01*
X1031705Y200026D01*
X1024672Y195327D01*
X1019974Y188295D01*
X1018324Y180000D01*
X1019974Y171705D01*
X1024672Y164673D01*
X1031705Y159974D01*
X1040000Y158324D01*
X1048295Y159974D01*
X1055328Y164673D01*
X1056450Y166352D01*
X1069882D01*
X1075105Y167391D01*
X1079533Y170350D01*
X1102535Y193352D01*
X1394323D01*
X1399546Y194391D01*
X1403974Y197349D01*
X1569651Y363026D01*
X1572609Y367454D01*
X1573648Y372677D01*
Y439094D01*
X1626378D01*
Y519409D01*
X1573648D01*
Y667835D01*
X1626378D01*
Y748149D01*
X1621712D01*
Y792648D01*
X1623328Y793728D01*
X1628026Y800760D01*
X1629676Y809055D01*
X1628026Y817350D01*
X1623328Y824383D01*
X1616295Y829081D01*
X1608000Y830731D01*
X1599705Y829081D01*
X1592672Y824383D01*
X1587974Y817350D01*
X1586324Y809055D01*
X1587974Y800760D01*
X1592672Y793728D01*
X1594288Y792648D01*
Y748149D01*
X1573648D01*
Y820825D01*
X1614175Y861352D01*
X1642550D01*
X1643672Y859673D01*
X1650705Y854974D01*
X1659000Y853324D01*
X1667295Y854974D01*
X1674328Y859673D01*
X1679026Y866705D01*
X1680676Y875000D01*
X1679433Y881250D01*
X1682608Y886250D01*
X1729550D01*
X1730672Y884570D01*
X1737705Y879871D01*
X1746000Y878221D01*
X1754295Y879871D01*
X1761328Y884570D01*
X1766026Y891602D01*
X1767676Y899898D01*
X1766026Y908193D01*
X1761328Y915225D01*
X1754295Y919924D01*
X1746000Y921574D01*
X1737705Y919924D01*
X1730672Y915225D01*
X1729550Y913546D01*
X1597898D01*
X1592675Y912507D01*
X1588247Y909548D01*
X1535349Y856651D01*
X1532391Y852223D01*
X1531352Y847000D01*
Y792925D01*
X1527195Y790147D01*
X1527000Y790227D01*
X1510648D01*
Y969567D01*
X1548651Y1007570D01*
X1551609Y1011998D01*
X1552648Y1017221D01*
Y1124347D01*
X1562653Y1134352D01*
X1572643D01*
X1574095Y1129567D01*
X1571900Y1128100D01*
X1563285Y1115208D01*
X1560260Y1100000D01*
X1563285Y1084792D01*
X1571900Y1071900D01*
X1584792Y1063285D01*
X1600000Y1060260D01*
X1615208Y1063285D01*
X1628100Y1071900D01*
X1636715Y1084792D01*
X1640084Y1086288D01*
X1645331Y1087332D01*
X1649780Y1090304D01*
X1655409Y1095933D01*
X1660834Y1094287D01*
X1662766Y1084577D01*
X1671502Y1071502D01*
X1684577Y1062766D01*
X1695000Y1060693D01*
Y1100000D01*
X1700000D01*
Y1105000D01*
X1739307D01*
X1737234Y1115423D01*
X1728952Y1127818D01*
X1730346Y1132818D01*
X1812530D01*
X1812531Y1132818D01*
X1817778Y1133862D01*
X1822227Y1136834D01*
X1949121Y1263728D01*
X1987293D01*
X1987293Y1263728D01*
X2118387D01*
X2122343Y1262090D01*
X2160729D01*
X2167352Y1264833D01*
X2172352Y1261840D01*
D02*
G37*
G36*
X3581886Y1334773D02*
X3571900Y1328100D01*
X3563285Y1315208D01*
X3560260Y1300000D01*
X3563285Y1284792D01*
X3571900Y1271900D01*
X3584792Y1263285D01*
X3600000Y1260260D01*
X3615208Y1263285D01*
X3628100Y1271900D01*
X3633773Y1280389D01*
X3638773Y1278872D01*
X3638773Y1221128D01*
X3633773Y1219611D01*
X3628100Y1228100D01*
X3615208Y1236715D01*
X3600000Y1239740D01*
X3584792Y1236715D01*
X3571900Y1228100D01*
X3563285Y1215208D01*
X3560260Y1200000D01*
X3563285Y1184792D01*
X3571900Y1171900D01*
X3584792Y1163285D01*
X3600000Y1160260D01*
X3615208Y1163285D01*
X3628100Y1171900D01*
X3633773Y1180389D01*
X3638773Y1178872D01*
Y1121128D01*
X3633773Y1119611D01*
X3628100Y1128100D01*
X3615208Y1136715D01*
X3600000Y1139740D01*
X3584792Y1136715D01*
X3571900Y1128100D01*
X3563285Y1115208D01*
X3560260Y1100000D01*
X3563285Y1084792D01*
X3571900Y1071900D01*
X3584792Y1063285D01*
X3600000Y1060260D01*
X3615208Y1063285D01*
X3628100Y1071900D01*
X3633773Y1080389D01*
X3638773Y1078872D01*
Y1021128D01*
X3633772Y1019611D01*
X3628100Y1028100D01*
X3615208Y1036715D01*
X3600000Y1039740D01*
X3584792Y1036715D01*
X3571900Y1028100D01*
X3563285Y1015208D01*
X3560260Y1000000D01*
X3563285Y984792D01*
X3571900Y971900D01*
X3584792Y963285D01*
X3600000Y960260D01*
X3615208Y963285D01*
X3628100Y971900D01*
X3633772Y980388D01*
X3638772Y978872D01*
Y921128D01*
X3633772Y919612D01*
X3628100Y928100D01*
X3615208Y936715D01*
X3600000Y939740D01*
X3584792Y936715D01*
X3571900Y928100D01*
X3563285Y915208D01*
X3560260Y900000D01*
X3563285Y884792D01*
X3571900Y871900D01*
X3584792Y863285D01*
X3600000Y860260D01*
X3615208Y863285D01*
X3628100Y871900D01*
X3633772Y880388D01*
X3638772Y878871D01*
Y821129D01*
X3633772Y819612D01*
X3628100Y828100D01*
X3615208Y836715D01*
X3600000Y839740D01*
X3584792Y836715D01*
X3571900Y828100D01*
X3563285Y815208D01*
X3560260Y800000D01*
X3563285Y784792D01*
X3571900Y771900D01*
X3584792Y763285D01*
X3600000Y760260D01*
X3615208Y763285D01*
X3628100Y771900D01*
X3633772Y780388D01*
X3638772Y778871D01*
X3638772Y721129D01*
X3633772Y719612D01*
X3628100Y728100D01*
X3615208Y736715D01*
X3600000Y739740D01*
X3584792Y736715D01*
X3571900Y728100D01*
X3563285Y715208D01*
X3560260Y700000D01*
X3563285Y684792D01*
X3571900Y671900D01*
X3584792Y663285D01*
X3600000Y660260D01*
X3615208Y663285D01*
X3628100Y671900D01*
X3633772Y680388D01*
X3638772Y678871D01*
X3638772Y621129D01*
X3633772Y619612D01*
X3628100Y628100D01*
X3615208Y636715D01*
X3600000Y639740D01*
X3584792Y636715D01*
X3571900Y628100D01*
X3563285Y615208D01*
X3560260Y600000D01*
X3563285Y584792D01*
X3571900Y571900D01*
X3584792Y563285D01*
X3600000Y560260D01*
X3615208Y563285D01*
X3628100Y571900D01*
X3633772Y580388D01*
X3638772Y578871D01*
X3638772Y521129D01*
X3633772Y519612D01*
X3628100Y528100D01*
X3615208Y536715D01*
X3600000Y539740D01*
X3584792Y536715D01*
X3571900Y528100D01*
X3563285Y515208D01*
X3560260Y500000D01*
X3563285Y484792D01*
X3571900Y471900D01*
X3584792Y463285D01*
X3600000Y460260D01*
X3609644Y462178D01*
X3612107Y457570D01*
X3605561Y451024D01*
X3111434Y451723D01*
X3111427Y451720D01*
X3111420Y451723D01*
X3107807Y450227D01*
X3104198Y448738D01*
X3104195Y448731D01*
X3104188Y448728D01*
X3086556Y431096D01*
X3081131Y432742D01*
X3080026Y438295D01*
X3075327Y445327D01*
X3068295Y450026D01*
X3060000Y451676D01*
X3051705Y450026D01*
X3044673Y445327D01*
X3039974Y438295D01*
X3038324Y430000D01*
X3038718Y428019D01*
X3029347Y418648D01*
X2880653D01*
X2858648Y440653D01*
Y518567D01*
X2857609Y523790D01*
X2854651Y528218D01*
X2849483Y533386D01*
X2851396Y538005D01*
X3052642D01*
X3054910Y534611D01*
X3061943Y529913D01*
X3066492Y529008D01*
X3068794Y523452D01*
X3063285Y515208D01*
X3060260Y500000D01*
X3063285Y484792D01*
X3071900Y471900D01*
X3084792Y463285D01*
X3100000Y460260D01*
X3115208Y463285D01*
X3128100Y471900D01*
X3136715Y484792D01*
X3139740Y500000D01*
X3136715Y515208D01*
X3128100Y528100D01*
X3126256Y529333D01*
X3127707Y534118D01*
X3172293D01*
X3173744Y529333D01*
X3171900Y528100D01*
X3163285Y515208D01*
X3160260Y500000D01*
X3163285Y484792D01*
X3171900Y471900D01*
X3184792Y463285D01*
X3200000Y460260D01*
X3215208Y463285D01*
X3228100Y471900D01*
X3236715Y484792D01*
X3239740Y500000D01*
X3236715Y515208D01*
X3228100Y528100D01*
X3226256Y529333D01*
X3227707Y534118D01*
X3272293D01*
X3273744Y529333D01*
X3271900Y528100D01*
X3263285Y515208D01*
X3260260Y500000D01*
X3263285Y484792D01*
X3271900Y471900D01*
X3284792Y463285D01*
X3300000Y460260D01*
X3315208Y463285D01*
X3328100Y471900D01*
X3336715Y484792D01*
X3339740Y500000D01*
X3336715Y515208D01*
X3328100Y528100D01*
X3321813Y532301D01*
X3322261Y538016D01*
X3355231Y570986D01*
X3358227Y578218D01*
Y584593D01*
X3363227Y585086D01*
X3363285Y584792D01*
X3371900Y571900D01*
X3384792Y563285D01*
X3400000Y560260D01*
X3415208Y563285D01*
X3428100Y571900D01*
X3436715Y584792D01*
X3439740Y600000D01*
X3436715Y615208D01*
X3428100Y628100D01*
X3415208Y636715D01*
X3400000Y639740D01*
X3384792Y636715D01*
X3371900Y628100D01*
X3363285Y615208D01*
X3363227Y614914D01*
X3358227Y615407D01*
Y684593D01*
X3363227Y685086D01*
X3363285Y684792D01*
X3371900Y671900D01*
X3384792Y663285D01*
X3400000Y660260D01*
X3415208Y663285D01*
X3428100Y671900D01*
X3436715Y684792D01*
X3439740Y700000D01*
X3436715Y715208D01*
X3428100Y728100D01*
X3415208Y736715D01*
X3400000Y739740D01*
X3384792Y736715D01*
X3371900Y728100D01*
X3363285Y715208D01*
X3363227Y714914D01*
X3358227Y715407D01*
X3358227Y784593D01*
X3363227Y785085D01*
X3363285Y784792D01*
X3371900Y771900D01*
X3384792Y763285D01*
X3400000Y760260D01*
X3415208Y763285D01*
X3428100Y771900D01*
X3436715Y784792D01*
X3439740Y800000D01*
X3436715Y815208D01*
X3428100Y828100D01*
X3415208Y836715D01*
X3400000Y839740D01*
X3384792Y836715D01*
X3371900Y828100D01*
X3363285Y815208D01*
X3363227Y814915D01*
X3358227Y815407D01*
Y884593D01*
X3363227Y885085D01*
X3363285Y884792D01*
X3371900Y871900D01*
X3384792Y863285D01*
X3400000Y860260D01*
X3415208Y863285D01*
X3428100Y871900D01*
X3436715Y884792D01*
X3439740Y900000D01*
X3436715Y915208D01*
X3428100Y928100D01*
X3415208Y936715D01*
X3400000Y939740D01*
X3384792Y936715D01*
X3371900Y928100D01*
X3363285Y915208D01*
X3363227Y914915D01*
X3358227Y915407D01*
Y984593D01*
X3363227Y985085D01*
X3363285Y984792D01*
X3371900Y971900D01*
X3384792Y963285D01*
X3400000Y960260D01*
X3415208Y963285D01*
X3428100Y971900D01*
X3436715Y984792D01*
X3439740Y1000000D01*
X3436715Y1015208D01*
X3428100Y1028100D01*
X3415208Y1036715D01*
X3400000Y1039740D01*
X3384792Y1036715D01*
X3371900Y1028100D01*
X3363285Y1015208D01*
X3363227Y1014915D01*
X3358227Y1015407D01*
Y1084593D01*
X3363227Y1085085D01*
X3363285Y1084792D01*
X3371900Y1071900D01*
X3384792Y1063285D01*
X3400000Y1060260D01*
X3415208Y1063285D01*
X3428100Y1071900D01*
X3436715Y1084792D01*
X3439740Y1100000D01*
X3436715Y1115208D01*
X3428100Y1128100D01*
X3415208Y1136715D01*
X3400000Y1139740D01*
X3384792Y1136715D01*
X3371900Y1128100D01*
X3363285Y1115208D01*
X3363227Y1114915D01*
X3358227Y1115408D01*
Y1184592D01*
X3363227Y1185085D01*
X3363285Y1184792D01*
X3371900Y1171900D01*
X3384792Y1163285D01*
X3400000Y1160260D01*
X3415208Y1163285D01*
X3428100Y1171900D01*
X3436715Y1184792D01*
X3439740Y1200000D01*
X3436715Y1215208D01*
X3428100Y1228100D01*
X3415208Y1236715D01*
X3400000Y1239740D01*
X3384792Y1236715D01*
X3371900Y1228100D01*
X3363285Y1215208D01*
X3363227Y1214915D01*
X3358227Y1215408D01*
Y1284592D01*
X3363227Y1285085D01*
X3363285Y1284792D01*
X3371900Y1271900D01*
X3384792Y1263285D01*
X3400000Y1260260D01*
X3415208Y1263285D01*
X3428100Y1271900D01*
X3436715Y1284792D01*
X3439740Y1300000D01*
X3436715Y1315208D01*
X3428100Y1328100D01*
X3418114Y1334773D01*
X3419631Y1339773D01*
X3480369D01*
X3481886Y1334773D01*
X3471900Y1328100D01*
X3463285Y1315208D01*
X3460260Y1300000D01*
X3463285Y1284792D01*
X3471900Y1271900D01*
X3484792Y1263285D01*
X3500000Y1260260D01*
X3515208Y1263285D01*
X3528100Y1271900D01*
X3536715Y1284792D01*
X3539740Y1300000D01*
X3536715Y1315208D01*
X3528100Y1328100D01*
X3518114Y1334773D01*
X3519631Y1339773D01*
X3580369Y1339773D01*
X3581886Y1334773D01*
D02*
G37*
G36*
X2190352Y1077995D02*
Y756227D01*
X2125148D01*
X2117916Y753232D01*
X2115811Y748149D01*
X2071648D01*
Y973917D01*
X2163373Y1065641D01*
X2165354Y1065247D01*
X2173649Y1066897D01*
X2180681Y1071596D01*
X2185380Y1078628D01*
X2190352Y1077995D01*
D02*
G37*
G36*
X908727Y1389462D02*
X918213Y1379977D01*
X918212Y1276568D01*
X1002388Y1192392D01*
Y997611D01*
X1013779Y986221D01*
X1080779Y986220D01*
X1090000Y976999D01*
Y954689D01*
X1082081Y946770D01*
X1014596Y946769D01*
X1002389Y934562D01*
X1002389Y830985D01*
X976872Y805469D01*
X971447Y807115D01*
X970806Y810336D01*
X966107Y817369D01*
X959075Y822067D01*
X950780Y823717D01*
X942484Y822067D01*
X935452Y817369D01*
X930753Y810336D01*
X929103Y802041D01*
X930753Y793746D01*
X933142Y790170D01*
X930470Y785170D01*
X550121Y785170D01*
X520891Y814401D01*
X520890Y913802D01*
X507527Y927165D01*
X422982Y927165D01*
X413694Y936453D01*
Y964871D01*
X421699Y972876D01*
X507876Y972876D01*
X520890Y985890D01*
X520890Y1160654D01*
X553109Y1192872D01*
X553108Y1344745D01*
X559691Y1351328D01*
X610737Y1351328D01*
X617617Y1344449D01*
X617616Y1191194D01*
X558970Y1132547D01*
Y865144D01*
X584094Y840020D01*
X904882D01*
X939359Y874496D01*
X939359Y1169165D01*
X871654Y1236869D01*
X871654Y1379654D01*
X881462Y1389462D01*
X908727Y1389462D01*
D02*
G37*
G36*
X2430000Y693000D02*
X2415000Y678000D01*
X2368000D01*
Y890000D01*
X2430000D01*
Y693000D01*
D02*
G37*
G36*
X3312325Y1678274D02*
X3348000Y1642598D01*
X3348000Y1453000D01*
X3626000Y1453000D01*
X3635000Y1444000D01*
Y1359000D01*
X3626000Y1350000D01*
X3348000Y1350000D01*
X3347999Y578218D01*
X3314127Y544345D01*
X3094742D01*
X3091570Y548210D01*
X3091914Y549939D01*
X3090264Y558234D01*
X3085565Y565266D01*
X3078533Y569965D01*
X3070238Y571615D01*
X3061943Y569965D01*
X3054963Y565302D01*
X2820947D01*
X2816928Y568993D01*
X2815278Y577288D01*
X2810579Y584321D01*
X2803547Y589019D01*
X2795252Y590669D01*
X2786956Y589019D01*
X2779924Y584321D01*
X2777917Y581316D01*
X2771903D01*
X2770327Y583674D01*
X2763295Y588373D01*
X2755000Y590023D01*
X2746705Y588373D01*
X2739673Y583674D01*
X2734974Y576642D01*
X2733324Y568346D01*
X2734974Y560051D01*
X2739673Y553019D01*
X2737423Y548509D01*
X2736300Y547500D01*
D01*
X2732865Y544345D01*
X2483988D01*
X2470000Y530357D01*
Y519409D01*
X2468110D01*
Y439094D01*
X2470000D01*
X2470000Y179000D01*
X2456999Y166000D01*
X2375000Y166000D01*
X2362000Y179000D01*
X2362000Y393000D01*
Y439000D01*
X2421417D01*
X2423355Y439000D01*
X2423355Y439000D01*
X2426378Y439094D01*
X2426378Y442748D01*
Y519409D01*
X2422201D01*
X2420758Y619878D01*
X2445880Y645000D01*
X2787482Y645000D01*
X2789839Y640590D01*
X2788974Y639295D01*
X2787324Y631000D01*
X2788974Y622705D01*
X2793673Y615673D01*
X2800705Y610974D01*
X2809000Y609324D01*
X2817295Y610974D01*
X2824327Y615673D01*
X2825450Y617352D01*
X2845893D01*
X2846099Y616313D01*
X2848188Y613188D01*
X2851313Y611099D01*
X2855000Y610366D01*
X2945000D01*
X2948687Y611099D01*
X2951812Y613188D01*
X2953901Y616313D01*
X2954634Y620000D01*
Y645000D01*
X3046445Y645000D01*
X3046484Y644974D01*
X3054780Y643324D01*
X3063075Y644974D01*
X3063114Y645000D01*
X3229525D01*
X3250676Y666151D01*
Y732308D01*
X3233633Y749351D01*
X3053371Y749351D01*
X3032764Y769958D01*
Y830755D01*
X3052187Y850178D01*
X3229614Y850178D01*
X3250676Y871240D01*
Y1515860D01*
X3216339Y1550197D01*
X3080197D01*
X3059532Y1570862D01*
X3059532Y1656654D01*
X3081152Y1678274D01*
X3312325Y1678274D01*
D02*
G37*
G36*
X2021352Y992980D02*
Y592180D01*
X2016352Y590109D01*
X1970648Y635813D01*
Y949347D01*
X2016388Y995087D01*
X2021352Y992980D01*
D02*
G37*
G36*
X3592070Y1785000D02*
X3744400Y1632669D01*
X3744400Y462800D01*
X3667546Y385946D01*
X3135550Y385944D01*
X3049275Y299669D01*
Y214328D01*
X3092033Y171571D01*
X3128761Y170427D01*
X3149852Y191518D01*
X3149852Y262101D01*
X3153390Y265634D01*
X3212914Y265561D01*
X3212914Y184977D01*
X3155315Y127378D01*
X3155316Y64316D01*
X3133000Y42000D01*
X3080000Y42000D01*
X3059000Y63000D01*
X3058999Y126716D01*
X3004751Y180964D01*
X3004751Y313685D01*
X2989055Y329382D01*
X2637988Y329124D01*
X2586605Y277740D01*
X2534026Y277740D01*
X2517022Y294745D01*
Y400162D01*
X2535886Y419026D01*
X2604181Y419026D01*
X2637266Y385941D01*
X3055865Y385941D01*
X3111420Y441496D01*
X3609791Y440791D01*
X3648999Y479999D01*
X3649000Y1627999D01*
X3552292Y1724707D01*
X3065945Y1724704D01*
X3037000Y1695759D01*
X3037000Y1484488D01*
X3062528Y1458960D01*
X3121117D01*
X3144454Y1435623D01*
Y1386049D01*
X3120568Y1362163D01*
X2997952D01*
X2974316Y1385799D01*
X2974315Y1643451D01*
X2954767Y1663000D01*
X2850000Y1663000D01*
X2846464Y1666536D01*
X2846465Y1785000D01*
X3592070Y1785000D01*
D02*
G37*
G36*
X1925352Y618000D02*
X1926391Y612777D01*
X1929349Y608350D01*
X1983596Y554103D01*
Y519409D01*
X1968110D01*
Y439094D01*
X1983596D01*
Y390897D01*
X1942349Y349651D01*
X1939391Y345223D01*
X1938352Y340000D01*
Y321758D01*
X1933352Y320241D01*
X1928100Y328100D01*
X1915208Y336715D01*
X1900000Y339740D01*
X1884792Y336715D01*
X1883470Y335831D01*
X1879648Y339653D01*
Y439094D01*
X1926378D01*
Y519409D01*
X1879648D01*
Y667835D01*
X1925352D01*
Y618000D01*
D02*
G37*
G36*
X720148Y303472D02*
X716613Y299936D01*
X554229D01*
X538725Y315440D01*
X538725Y402615D01*
X720148D01*
X720148Y303472D01*
D02*
G37*
G36*
X1248349Y566169D02*
X1283596Y530922D01*
Y519409D01*
X1268110D01*
Y439094D01*
X1324352D01*
Y405653D01*
X1201347Y282648D01*
X1166392D01*
Y434806D01*
X1168110Y439094D01*
X1226378D01*
Y519409D01*
X1210892D01*
Y530174D01*
X1247018Y566300D01*
X1248349Y566169D01*
D02*
G37*
G36*
X1160000Y280000D02*
X1015000D01*
Y480000D01*
X1040000Y505000D01*
X1160000D01*
Y280000D01*
D02*
G37*
G36*
X1008608Y282648D02*
X818136D01*
X812914Y281609D01*
X808486Y278651D01*
X797257Y267421D01*
X795276Y267815D01*
X786980Y266166D01*
X779948Y261467D01*
X775249Y254434D01*
X773599Y246139D01*
X775047Y238863D01*
X772353Y233863D01*
X757551D01*
X757478Y266231D01*
X755977Y269832D01*
X754483Y273440D01*
X740502Y287421D01*
X733270Y290417D01*
X728628D01*
X726557Y295417D01*
X727380Y296240D01*
X730375Y303472D01*
X730375Y398760D01*
X733910Y402295D01*
X1008608D01*
Y282648D01*
D02*
G37*
G36*
X747251Y266208D02*
X747453Y176192D01*
X731675Y160413D01*
X660673D01*
X643681Y177405D01*
X643682Y265060D01*
X658811Y280189D01*
X733270Y280189D01*
X747251Y266208D01*
D02*
G37*
%LPC*%
G36*
X3500000Y1639740D02*
X3484792Y1636715D01*
X3471900Y1628100D01*
X3463285Y1615208D01*
X3460260Y1600000D01*
X3463285Y1584792D01*
X3471900Y1571900D01*
X3484792Y1563285D01*
X3500000Y1560260D01*
X3515208Y1563285D01*
X3528100Y1571900D01*
X3536715Y1584792D01*
X3539740Y1600000D01*
X3536715Y1615208D01*
X3528100Y1628100D01*
X3515208Y1636715D01*
X3500000Y1639740D01*
D02*
G37*
G36*
X3595000Y1539307D02*
X3584577Y1537234D01*
X3571502Y1528498D01*
X3562766Y1515423D01*
X3560693Y1505000D01*
X3595000D01*
Y1539307D01*
D02*
G37*
G36*
X3505000D02*
Y1505000D01*
X3539307D01*
X3537234Y1515423D01*
X3528498Y1528498D01*
X3515423Y1537234D01*
X3505000Y1539307D01*
D02*
G37*
G36*
X3495000D02*
X3484577Y1537234D01*
X3471502Y1528498D01*
X3462766Y1515423D01*
X3460693Y1505000D01*
X3495000D01*
Y1539307D01*
D02*
G37*
G36*
X1739307Y1095000D02*
X1705000D01*
Y1060693D01*
X1715423Y1062766D01*
X1728498Y1071502D01*
X1737234Y1084577D01*
X1739307Y1095000D01*
D02*
G37*
G36*
X1705000Y1039307D02*
Y1005000D01*
X1739307D01*
X1737234Y1015423D01*
X1728498Y1028498D01*
X1715423Y1037234D01*
X1705000Y1039307D01*
D02*
G37*
G36*
X1605000D02*
Y1005000D01*
X1639307D01*
X1637234Y1015423D01*
X1628498Y1028498D01*
X1615423Y1037234D01*
X1605000Y1039307D01*
D02*
G37*
G36*
X1695000Y1039307D02*
X1684577Y1037234D01*
X1671502Y1028498D01*
X1662766Y1015423D01*
X1660693Y1005000D01*
X1695000D01*
Y1039307D01*
D02*
G37*
G36*
X1595000D02*
X1584577Y1037234D01*
X1571502Y1028498D01*
X1562766Y1015423D01*
X1560693Y1005000D01*
X1595000D01*
Y1039307D01*
D02*
G37*
G36*
X1739307Y995000D02*
X1705000D01*
Y960693D01*
X1715423Y962766D01*
X1728498Y971502D01*
X1737234Y984577D01*
X1739307Y995000D01*
D02*
G37*
G36*
X1639307D02*
X1605000D01*
Y960693D01*
X1615423Y962766D01*
X1628498Y971502D01*
X1637234Y984577D01*
X1639307Y995000D01*
D02*
G37*
G36*
X1695000D02*
X1660693D01*
X1662766Y984577D01*
X1671502Y971502D01*
X1684577Y962766D01*
X1695000Y960693D01*
Y995000D01*
D02*
G37*
G36*
X1595000D02*
X1560693D01*
X1562766Y984577D01*
X1571502Y971502D01*
X1584577Y962766D01*
X1595000Y960693D01*
Y995000D01*
D02*
G37*
G36*
X1665000Y831676D02*
X1656705Y830026D01*
X1649672Y825327D01*
X1644974Y818295D01*
X1643324Y810000D01*
X1643718Y808019D01*
X1636349Y800651D01*
X1633391Y796223D01*
X1632352Y791000D01*
Y648973D01*
X1633391Y643750D01*
X1636349Y639323D01*
X1683596Y592076D01*
Y519409D01*
X1668110D01*
Y439094D01*
X1683596D01*
Y411897D01*
X1581350Y309651D01*
X1581349Y309651D01*
X1450347Y178648D01*
X1156450D01*
X1155328Y180327D01*
X1148295Y185026D01*
X1140000Y186676D01*
X1131705Y185026D01*
X1124672Y180327D01*
X1119974Y173295D01*
X1118324Y165000D01*
X1119974Y156705D01*
X1124672Y149673D01*
X1131705Y144974D01*
X1140000Y143324D01*
X1148295Y144974D01*
X1155328Y149673D01*
X1156450Y151352D01*
X1456000D01*
X1461223Y152391D01*
X1465650Y155349D01*
X1600650Y290349D01*
X1600651Y290349D01*
X1706895Y396594D01*
X1709853Y401021D01*
X1710892Y406244D01*
Y439094D01*
X1726378D01*
Y519409D01*
X1710892D01*
Y597729D01*
X1709853Y602952D01*
X1706895Y607380D01*
X1659648Y654626D01*
Y785347D01*
X1663019Y788718D01*
X1665000Y788324D01*
X1673295Y789974D01*
X1680328Y794673D01*
X1685026Y801705D01*
X1686676Y810000D01*
X1685026Y818295D01*
X1680328Y825327D01*
X1673295Y830026D01*
X1665000Y831676D01*
D02*
G37*
G36*
X2726378Y519409D02*
X2668110D01*
Y439094D01*
X2726378D01*
Y519409D01*
D02*
G37*
G36*
X2626378D02*
X2568110D01*
Y439094D01*
X2626378D01*
Y519409D01*
D02*
G37*
G36*
X2305000Y339307D02*
Y305000D01*
X2339307D01*
X2337234Y315423D01*
X2328498Y328498D01*
X2315423Y337234D01*
X2305000Y339307D01*
D02*
G37*
G36*
X2339307Y295000D02*
X2305000D01*
Y260693D01*
X2315423Y262766D01*
X2328498Y271502D01*
X2337234Y284577D01*
X2339307Y295000D01*
D02*
G37*
G36*
X2305000Y239307D02*
Y205000D01*
X2339307D01*
X2337234Y215423D01*
X2328498Y228498D01*
X2315423Y237234D01*
X2305000Y239307D01*
D02*
G37*
G36*
X2295000D02*
X2284577Y237234D01*
X2271502Y228498D01*
X2262766Y215423D01*
X2260693Y205000D01*
X2295000D01*
Y239307D01*
D02*
G37*
G36*
X2339307Y195000D02*
X2305000D01*
Y160693D01*
X2315423Y162766D01*
X2328498Y171502D01*
X2337234Y184577D01*
X2339307Y195000D01*
D02*
G37*
G36*
X2295000D02*
X2260693D01*
X2262766Y184577D01*
X2271502Y171502D01*
X2284577Y162766D01*
X2295000Y160693D01*
Y195000D01*
D02*
G37*
G36*
X3500000Y1239740D02*
X3484792Y1236715D01*
X3471900Y1228100D01*
X3463285Y1215208D01*
X3460260Y1200000D01*
X3463285Y1184792D01*
X3471900Y1171900D01*
X3484792Y1163285D01*
X3500000Y1160260D01*
X3515208Y1163285D01*
X3528100Y1171900D01*
X3536715Y1184792D01*
X3539740Y1200000D01*
X3536715Y1215208D01*
X3528100Y1228100D01*
X3515208Y1236715D01*
X3500000Y1239740D01*
D02*
G37*
G36*
Y1139740D02*
X3484792Y1136715D01*
X3471900Y1128100D01*
X3463285Y1115208D01*
X3460260Y1100000D01*
X3463285Y1084792D01*
X3471900Y1071900D01*
X3484792Y1063285D01*
X3500000Y1060260D01*
X3515208Y1063285D01*
X3528100Y1071900D01*
X3536715Y1084792D01*
X3539740Y1100000D01*
X3536715Y1115208D01*
X3528100Y1128100D01*
X3515208Y1136715D01*
X3500000Y1139740D01*
D02*
G37*
G36*
Y1039740D02*
X3484792Y1036715D01*
X3471900Y1028100D01*
X3463285Y1015208D01*
X3460260Y1000000D01*
X3463285Y984792D01*
X3471900Y971900D01*
X3484792Y963285D01*
X3500000Y960260D01*
X3515208Y963285D01*
X3528100Y971900D01*
X3536715Y984792D01*
X3539740Y1000000D01*
X3536715Y1015208D01*
X3528100Y1028100D01*
X3515208Y1036715D01*
X3500000Y1039740D01*
D02*
G37*
G36*
Y939740D02*
X3484792Y936715D01*
X3471900Y928100D01*
X3463285Y915208D01*
X3460260Y900000D01*
X3463285Y884792D01*
X3471900Y871900D01*
X3484792Y863285D01*
X3500000Y860260D01*
X3515208Y863285D01*
X3528100Y871900D01*
X3536715Y884792D01*
X3539740Y900000D01*
X3536715Y915208D01*
X3528100Y928100D01*
X3515208Y936715D01*
X3500000Y939740D01*
D02*
G37*
G36*
Y839740D02*
X3484792Y836715D01*
X3471900Y828100D01*
X3463285Y815208D01*
X3460260Y800000D01*
X3463285Y784792D01*
X3471900Y771900D01*
X3484792Y763285D01*
X3500000Y760260D01*
X3515208Y763285D01*
X3528100Y771900D01*
X3536715Y784792D01*
X3539740Y800000D01*
X3536715Y815208D01*
X3528100Y828100D01*
X3515208Y836715D01*
X3500000Y839740D01*
D02*
G37*
G36*
Y739740D02*
X3484792Y736715D01*
X3471900Y728100D01*
X3463285Y715208D01*
X3460260Y700000D01*
X3463285Y684792D01*
X3471900Y671900D01*
X3484792Y663285D01*
X3500000Y660260D01*
X3515208Y663285D01*
X3528100Y671900D01*
X3536715Y684792D01*
X3539740Y700000D01*
X3536715Y715208D01*
X3528100Y728100D01*
X3515208Y736715D01*
X3500000Y739740D01*
D02*
G37*
G36*
Y639740D02*
X3484792Y636715D01*
X3471900Y628100D01*
X3463285Y615208D01*
X3460260Y600000D01*
X3463285Y584792D01*
X3471900Y571900D01*
X3484792Y563285D01*
X3500000Y560260D01*
X3515208Y563285D01*
X3528100Y571900D01*
X3536715Y584792D01*
X3539740Y600000D01*
X3536715Y615208D01*
X3528100Y628100D01*
X3515208Y636715D01*
X3500000Y639740D01*
D02*
G37*
G36*
Y539740D02*
X3484792Y536715D01*
X3471900Y528100D01*
X3463285Y515208D01*
X3460260Y500000D01*
X3463285Y484792D01*
X3471900Y471900D01*
X3484792Y463285D01*
X3500000Y460260D01*
X3515208Y463285D01*
X3528100Y471900D01*
X3536715Y484792D01*
X3539740Y500000D01*
X3536715Y515208D01*
X3528100Y528100D01*
X3515208Y536715D01*
X3500000Y539740D01*
D02*
G37*
G36*
X3400000D02*
X3384792Y536715D01*
X3371900Y528100D01*
X3363285Y515208D01*
X3360260Y500000D01*
X3363285Y484792D01*
X3371900Y471900D01*
X3384792Y463285D01*
X3400000Y460260D01*
X3415208Y463285D01*
X3428100Y471900D01*
X3436715Y484792D01*
X3439740Y500000D01*
X3436715Y515208D01*
X3428100Y528100D01*
X3415208Y536715D01*
X3400000Y539740D01*
D02*
G37*
G36*
X2926378Y519409D02*
X2868110D01*
Y439094D01*
X2926378D01*
Y519409D01*
D02*
G37*
G36*
X3300000Y1639313D02*
X3289825Y1637973D01*
X3280344Y1634046D01*
X3272202Y1627798D01*
X3265954Y1619656D01*
X3262027Y1610175D01*
X3260688Y1600000D01*
X3262027Y1589825D01*
X3265954Y1580344D01*
X3272202Y1572202D01*
X3280344Y1565954D01*
X3289825Y1562027D01*
X3300000Y1560687D01*
X3310175Y1562027D01*
X3319656Y1565954D01*
X3327798Y1572202D01*
X3334046Y1580344D01*
X3337973Y1589825D01*
X3339313Y1600000D01*
X3337973Y1610175D01*
X3334046Y1619656D01*
X3327798Y1627798D01*
X3319656Y1634046D01*
X3310175Y1637973D01*
X3300000Y1639313D01*
D02*
G37*
G36*
X3200000D02*
X3189825Y1637973D01*
X3180344Y1634046D01*
X3172202Y1627798D01*
X3165954Y1619656D01*
X3162027Y1610175D01*
X3160687Y1600000D01*
X3162027Y1589825D01*
X3165954Y1580344D01*
X3172202Y1572202D01*
X3180344Y1565954D01*
X3189825Y1562027D01*
X3200000Y1560687D01*
X3210175Y1562027D01*
X3219656Y1565954D01*
X3227798Y1572202D01*
X3234046Y1580344D01*
X3237973Y1589825D01*
X3239313Y1600000D01*
X3237973Y1610175D01*
X3234046Y1619656D01*
X3227798Y1627798D01*
X3219656Y1634046D01*
X3210175Y1637973D01*
X3200000Y1639313D01*
D02*
G37*
G36*
X3300000Y1539313D02*
X3289825Y1537973D01*
X3280344Y1534046D01*
X3272202Y1527798D01*
X3265954Y1519656D01*
X3262027Y1510175D01*
X3260687Y1500000D01*
X3262027Y1489825D01*
X3265954Y1480344D01*
X3272202Y1472202D01*
X3280344Y1465954D01*
X3289825Y1462027D01*
X3300000Y1460687D01*
X3310175Y1462027D01*
X3319656Y1465954D01*
X3327798Y1472202D01*
X3334046Y1480344D01*
X3337973Y1489825D01*
X3339313Y1500000D01*
X3337973Y1510175D01*
X3334046Y1519656D01*
X3327798Y1527798D01*
X3319656Y1534046D01*
X3310175Y1537973D01*
X3300000Y1539313D01*
D02*
G37*
G36*
X3400000Y1439313D02*
X3389825Y1437973D01*
X3380344Y1434046D01*
X3372202Y1427798D01*
X3365954Y1419656D01*
X3362027Y1410175D01*
X3360687Y1400000D01*
X3362027Y1389825D01*
X3365954Y1380344D01*
X3372202Y1372202D01*
X3380344Y1365954D01*
X3389825Y1362027D01*
X3400000Y1360687D01*
X3410175Y1362027D01*
X3419656Y1365954D01*
X3427798Y1372202D01*
X3434046Y1380344D01*
X3437973Y1389825D01*
X3439313Y1400000D01*
X3437973Y1410175D01*
X3434046Y1419656D01*
X3427798Y1427798D01*
X3419656Y1434046D01*
X3410175Y1437973D01*
X3400000Y1439313D01*
D02*
G37*
G36*
X3300000D02*
X3289825Y1437973D01*
X3280344Y1434046D01*
X3272202Y1427798D01*
X3265954Y1419656D01*
X3262027Y1410175D01*
X3260687Y1400000D01*
X3262027Y1389825D01*
X3265954Y1380344D01*
X3272202Y1372202D01*
X3280344Y1365954D01*
X3289825Y1362027D01*
X3300000Y1360687D01*
X3310175Y1362027D01*
X3319656Y1365954D01*
X3327798Y1372202D01*
X3334046Y1380344D01*
X3337973Y1389825D01*
X3339313Y1400000D01*
X3337973Y1410175D01*
X3334046Y1419656D01*
X3327798Y1427798D01*
X3319656Y1434046D01*
X3310175Y1437973D01*
X3300000Y1439313D01*
D02*
G37*
G36*
Y1339313D02*
X3289825Y1337973D01*
X3280344Y1334046D01*
X3272202Y1327798D01*
X3265954Y1319656D01*
X3262027Y1310175D01*
X3260687Y1300000D01*
X3262027Y1289825D01*
X3265954Y1280344D01*
X3272202Y1272202D01*
X3280344Y1265954D01*
X3289825Y1262027D01*
X3300000Y1260687D01*
X3310175Y1262027D01*
X3319656Y1265954D01*
X3327798Y1272202D01*
X3334046Y1280344D01*
X3337973Y1289825D01*
X3339313Y1300000D01*
X3337973Y1310175D01*
X3334046Y1319656D01*
X3327798Y1327798D01*
X3319656Y1334046D01*
X3310175Y1337973D01*
X3300000Y1339313D01*
D02*
G37*
G36*
Y1239313D02*
X3289825Y1237973D01*
X3280344Y1234046D01*
X3272202Y1227798D01*
X3265954Y1219656D01*
X3262027Y1210175D01*
X3260687Y1200000D01*
X3262027Y1189825D01*
X3265954Y1180344D01*
X3272202Y1172202D01*
X3280344Y1165954D01*
X3289825Y1162027D01*
X3300000Y1160687D01*
X3310175Y1162027D01*
X3319656Y1165954D01*
X3327798Y1172202D01*
X3334046Y1180344D01*
X3337973Y1189825D01*
X3339313Y1200000D01*
X3337973Y1210175D01*
X3334046Y1219656D01*
X3327798Y1227798D01*
X3319656Y1234046D01*
X3310175Y1237973D01*
X3300000Y1239313D01*
D02*
G37*
G36*
Y1139313D02*
X3289825Y1137973D01*
X3280344Y1134046D01*
X3272202Y1127798D01*
X3265954Y1119656D01*
X3262027Y1110175D01*
X3260687Y1100000D01*
X3262027Y1089825D01*
X3265954Y1080344D01*
X3272202Y1072202D01*
X3280344Y1065954D01*
X3289825Y1062027D01*
X3300000Y1060687D01*
X3310175Y1062027D01*
X3319656Y1065954D01*
X3327798Y1072202D01*
X3334046Y1080344D01*
X3337973Y1089825D01*
X3339313Y1100000D01*
X3337973Y1110175D01*
X3334046Y1119656D01*
X3327798Y1127798D01*
X3319656Y1134046D01*
X3310175Y1137973D01*
X3300000Y1139313D01*
D02*
G37*
G36*
Y1039313D02*
X3289825Y1037973D01*
X3280344Y1034046D01*
X3272202Y1027798D01*
X3265954Y1019656D01*
X3262027Y1010175D01*
X3260687Y1000000D01*
X3262027Y989825D01*
X3265954Y980344D01*
X3272202Y972202D01*
X3280344Y965954D01*
X3289825Y962027D01*
X3300000Y960687D01*
X3310175Y962027D01*
X3319656Y965954D01*
X3327798Y972202D01*
X3334046Y980344D01*
X3337973Y989825D01*
X3339313Y1000000D01*
X3337973Y1010175D01*
X3334046Y1019656D01*
X3327798Y1027798D01*
X3319656Y1034046D01*
X3310175Y1037973D01*
X3300000Y1039313D01*
D02*
G37*
G36*
Y939313D02*
X3289825Y937973D01*
X3280344Y934046D01*
X3272202Y927798D01*
X3265954Y919656D01*
X3262027Y910175D01*
X3260687Y900000D01*
X3262027Y889825D01*
X3265954Y880344D01*
X3272202Y872202D01*
X3280344Y865954D01*
X3289825Y862027D01*
X3300000Y860687D01*
X3310175Y862027D01*
X3319656Y865954D01*
X3327798Y872202D01*
X3334046Y880344D01*
X3337973Y889825D01*
X3339313Y900000D01*
X3337973Y910175D01*
X3334046Y919656D01*
X3327798Y927798D01*
X3319656Y934046D01*
X3310175Y937973D01*
X3300000Y939313D01*
D02*
G37*
G36*
Y839313D02*
X3289825Y837973D01*
X3280344Y834046D01*
X3272202Y827798D01*
X3265954Y819656D01*
X3262027Y810175D01*
X3260687Y800000D01*
X3262027Y789825D01*
X3265954Y780344D01*
X3272202Y772202D01*
X3280344Y765954D01*
X3289825Y762027D01*
X3300000Y760687D01*
X3310175Y762027D01*
X3319656Y765954D01*
X3327798Y772202D01*
X3334046Y780344D01*
X3337973Y789825D01*
X3339313Y800000D01*
X3337973Y810175D01*
X3334046Y819656D01*
X3327798Y827798D01*
X3319656Y834046D01*
X3310175Y837973D01*
X3300000Y839313D01*
D02*
G37*
G36*
X3200000D02*
X3189825Y837973D01*
X3180344Y834046D01*
X3172202Y827798D01*
X3165954Y819656D01*
X3162027Y810175D01*
X3160687Y800000D01*
X3162027Y789825D01*
X3165954Y780344D01*
X3172202Y772202D01*
X3180344Y765954D01*
X3189825Y762027D01*
X3200000Y760687D01*
X3210175Y762027D01*
X3219656Y765954D01*
X3227798Y772202D01*
X3234046Y780344D01*
X3237973Y789825D01*
X3239313Y800000D01*
X3237973Y810175D01*
X3234046Y819656D01*
X3227798Y827798D01*
X3219656Y834046D01*
X3210175Y837973D01*
X3200000Y839313D01*
D02*
G37*
G36*
X3300000Y739313D02*
X3289825Y737973D01*
X3280344Y734046D01*
X3272202Y727798D01*
X3265954Y719656D01*
X3262027Y710175D01*
X3260687Y700000D01*
X3262027Y689825D01*
X3265954Y680344D01*
X3272202Y672202D01*
X3280344Y665954D01*
X3289825Y662027D01*
X3300000Y660687D01*
X3310175Y662027D01*
X3319656Y665954D01*
X3327798Y672202D01*
X3334046Y680344D01*
X3337973Y689825D01*
X3339313Y700000D01*
X3337973Y710175D01*
X3334046Y719656D01*
X3327798Y727798D01*
X3319656Y734046D01*
X3310175Y737973D01*
X3300000Y739313D01*
D02*
G37*
G36*
Y639313D02*
X3289825Y637973D01*
X3280344Y634046D01*
X3272202Y627798D01*
X3265954Y619656D01*
X3262027Y610175D01*
X3260687Y600000D01*
X3262027Y589825D01*
X3265954Y580344D01*
X3272202Y572202D01*
X3280344Y565954D01*
X3289825Y562027D01*
X3300000Y560687D01*
X3310175Y562027D01*
X3319656Y565954D01*
X3327798Y572202D01*
X3334046Y580344D01*
X3337973Y589825D01*
X3339313Y600000D01*
X3337973Y610175D01*
X3334046Y619656D01*
X3327798Y627798D01*
X3319656Y634046D01*
X3310175Y637973D01*
X3300000Y639313D01*
D02*
G37*
G36*
X3200000D02*
X3189825Y637973D01*
X3180344Y634046D01*
X3172202Y627798D01*
X3165954Y619656D01*
X3162027Y610175D01*
X3160687Y600000D01*
X3162027Y589825D01*
X3165954Y580344D01*
X3172202Y572202D01*
X3180344Y565954D01*
X3189825Y562027D01*
X3200000Y560687D01*
X3210175Y562027D01*
X3219656Y565954D01*
X3227798Y572202D01*
X3234046Y580344D01*
X3237973Y589825D01*
X3239313Y600000D01*
X3237973Y610175D01*
X3234046Y619656D01*
X3227798Y627798D01*
X3219656Y634046D01*
X3210175Y637973D01*
X3200000Y639313D01*
D02*
G37*
G36*
X3700000Y1639313D02*
X3689825Y1637973D01*
X3680344Y1634046D01*
X3672202Y1627798D01*
X3665954Y1619656D01*
X3662027Y1610175D01*
X3660687Y1600000D01*
X3662027Y1589825D01*
X3665954Y1580344D01*
X3672202Y1572202D01*
X3680344Y1565954D01*
X3689825Y1562027D01*
X3700000Y1560687D01*
X3710175Y1562027D01*
X3719656Y1565954D01*
X3727798Y1572202D01*
X3734046Y1580344D01*
X3737973Y1589825D01*
X3739313Y1600000D01*
X3737973Y1610175D01*
X3734046Y1619656D01*
X3727798Y1627798D01*
X3719656Y1634046D01*
X3710175Y1637973D01*
X3700000Y1639313D01*
D02*
G37*
G36*
X3700000Y1539313D02*
X3689825Y1537973D01*
X3680344Y1534046D01*
X3672202Y1527798D01*
X3665954Y1519656D01*
X3662027Y1510175D01*
X3660687Y1500000D01*
X3662027Y1489825D01*
X3665954Y1480344D01*
X3672202Y1472202D01*
X3680344Y1465954D01*
X3689825Y1462027D01*
X3700000Y1460687D01*
X3710175Y1462027D01*
X3719656Y1465954D01*
X3727798Y1472202D01*
X3734046Y1480344D01*
X3737973Y1489825D01*
X3739312Y1500000D01*
X3737973Y1510175D01*
X3734046Y1519656D01*
X3727798Y1527798D01*
X3719656Y1534046D01*
X3710175Y1537973D01*
X3700000Y1539313D01*
D02*
G37*
G36*
X3700000Y1439313D02*
X3689825Y1437973D01*
X3680344Y1434046D01*
X3672202Y1427798D01*
X3665954Y1419656D01*
X3662027Y1410175D01*
X3660687Y1400000D01*
X3662027Y1389825D01*
X3665954Y1380344D01*
X3672202Y1372202D01*
X3680344Y1365954D01*
X3689825Y1362027D01*
X3700000Y1360687D01*
X3710175Y1362027D01*
X3719656Y1365954D01*
X3727798Y1372202D01*
X3734046Y1380344D01*
X3737973Y1389825D01*
X3739313Y1400000D01*
X3737973Y1410175D01*
X3734046Y1419656D01*
X3727798Y1427798D01*
X3719656Y1434046D01*
X3710175Y1437973D01*
X3700000Y1439313D01*
D02*
G37*
G36*
Y1339313D02*
X3689825Y1337973D01*
X3680344Y1334046D01*
X3672202Y1327798D01*
X3665954Y1319656D01*
X3662027Y1310175D01*
X3660687Y1300000D01*
X3662027Y1289825D01*
X3665954Y1280344D01*
X3672202Y1272202D01*
X3680344Y1265954D01*
X3689825Y1262027D01*
X3700000Y1260687D01*
X3710175Y1262027D01*
X3719656Y1265954D01*
X3727798Y1272202D01*
X3734046Y1280344D01*
X3737973Y1289825D01*
X3739313Y1300000D01*
X3737973Y1310175D01*
X3734046Y1319656D01*
X3727798Y1327798D01*
X3719656Y1334046D01*
X3710175Y1337973D01*
X3700000Y1339313D01*
D02*
G37*
G36*
Y1239313D02*
X3689825Y1237973D01*
X3680344Y1234046D01*
X3672202Y1227798D01*
X3665954Y1219656D01*
X3662027Y1210175D01*
X3660687Y1200000D01*
X3662027Y1189825D01*
X3665954Y1180344D01*
X3672202Y1172202D01*
X3680344Y1165954D01*
X3689825Y1162027D01*
X3700000Y1160687D01*
X3710175Y1162027D01*
X3719656Y1165954D01*
X3727798Y1172202D01*
X3734046Y1180344D01*
X3737973Y1189825D01*
X3739313Y1200000D01*
X3737973Y1210175D01*
X3734046Y1219656D01*
X3727798Y1227798D01*
X3719656Y1234046D01*
X3710175Y1237973D01*
X3700000Y1239313D01*
D02*
G37*
G36*
Y1139313D02*
X3689825Y1137973D01*
X3680344Y1134046D01*
X3672202Y1127798D01*
X3665954Y1119656D01*
X3662027Y1110175D01*
X3660687Y1100000D01*
X3662027Y1089825D01*
X3665954Y1080344D01*
X3672202Y1072202D01*
X3680344Y1065954D01*
X3689825Y1062027D01*
X3700000Y1060687D01*
X3710175Y1062027D01*
X3719656Y1065954D01*
X3727798Y1072202D01*
X3734046Y1080344D01*
X3737973Y1089825D01*
X3739313Y1100000D01*
X3737973Y1110175D01*
X3734046Y1119656D01*
X3727798Y1127798D01*
X3719656Y1134046D01*
X3710175Y1137973D01*
X3700000Y1139313D01*
D02*
G37*
G36*
Y1039313D02*
X3689825Y1037973D01*
X3680344Y1034046D01*
X3672202Y1027798D01*
X3665954Y1019656D01*
X3662027Y1010175D01*
X3660687Y1000000D01*
X3662027Y989825D01*
X3665954Y980344D01*
X3672202Y972202D01*
X3680344Y965954D01*
X3689825Y962027D01*
X3700000Y960687D01*
X3710175Y962027D01*
X3719656Y965954D01*
X3727798Y972202D01*
X3734046Y980344D01*
X3737973Y989825D01*
X3739313Y1000000D01*
X3737973Y1010175D01*
X3734046Y1019656D01*
X3727798Y1027798D01*
X3719656Y1034046D01*
X3710175Y1037973D01*
X3700000Y1039313D01*
D02*
G37*
G36*
Y939313D02*
X3689825Y937973D01*
X3680344Y934046D01*
X3672202Y927798D01*
X3665954Y919656D01*
X3662027Y910175D01*
X3660687Y900000D01*
X3662027Y889825D01*
X3665954Y880344D01*
X3672202Y872202D01*
X3680344Y865954D01*
X3689825Y862027D01*
X3700000Y860687D01*
X3710175Y862027D01*
X3719656Y865954D01*
X3727798Y872202D01*
X3734046Y880344D01*
X3737973Y889825D01*
X3739313Y900000D01*
X3737973Y910175D01*
X3734046Y919656D01*
X3727798Y927798D01*
X3719656Y934046D01*
X3710175Y937973D01*
X3700000Y939313D01*
D02*
G37*
G36*
Y839313D02*
X3689825Y837973D01*
X3680344Y834046D01*
X3672202Y827798D01*
X3665954Y819656D01*
X3662027Y810175D01*
X3660687Y800000D01*
X3662027Y789825D01*
X3665954Y780344D01*
X3672202Y772202D01*
X3680344Y765954D01*
X3689825Y762027D01*
X3700000Y760687D01*
X3710175Y762027D01*
X3719656Y765954D01*
X3727798Y772202D01*
X3734046Y780344D01*
X3737973Y789825D01*
X3739313Y800000D01*
X3737973Y810175D01*
X3734046Y819656D01*
X3727798Y827798D01*
X3719656Y834046D01*
X3710175Y837973D01*
X3700000Y839313D01*
D02*
G37*
G36*
Y739313D02*
X3689825Y737973D01*
X3680344Y734046D01*
X3672202Y727798D01*
X3665954Y719656D01*
X3662027Y710175D01*
X3660687Y700000D01*
X3662027Y689825D01*
X3665954Y680344D01*
X3672202Y672202D01*
X3680344Y665954D01*
X3689825Y662027D01*
X3700000Y660687D01*
X3710175Y662027D01*
X3719656Y665954D01*
X3727798Y672202D01*
X3734046Y680344D01*
X3737973Y689825D01*
X3739313Y700000D01*
X3737973Y710175D01*
X3734046Y719656D01*
X3727798Y727798D01*
X3719656Y734046D01*
X3710175Y737973D01*
X3700000Y739313D01*
D02*
G37*
G36*
Y639313D02*
X3689825Y637973D01*
X3680344Y634046D01*
X3672202Y627798D01*
X3665954Y619656D01*
X3662027Y610175D01*
X3660687Y600000D01*
X3662027Y589825D01*
X3665954Y580344D01*
X3672202Y572202D01*
X3680344Y565954D01*
X3689825Y562027D01*
X3700000Y560687D01*
X3710175Y562027D01*
X3719656Y565954D01*
X3727798Y572202D01*
X3734046Y580344D01*
X3737973Y589825D01*
X3739313Y600000D01*
X3737973Y610175D01*
X3734046Y619656D01*
X3727798Y627798D01*
X3719656Y634046D01*
X3710175Y637973D01*
X3700000Y639313D01*
D02*
G37*
G36*
Y539313D02*
X3689825Y537973D01*
X3680344Y534046D01*
X3672202Y527798D01*
X3665954Y519656D01*
X3662027Y510175D01*
X3660687Y500000D01*
X3662027Y489825D01*
X3665954Y480344D01*
X3672202Y472202D01*
X3680344Y465954D01*
X3689825Y462027D01*
X3700000Y460687D01*
X3710175Y462027D01*
X3719656Y465954D01*
X3727798Y472202D01*
X3734046Y480344D01*
X3737973Y489825D01*
X3739313Y500000D01*
X3737973Y510175D01*
X3734046Y519656D01*
X3727798Y527798D01*
X3719656Y534046D01*
X3710175Y537973D01*
X3700000Y539313D01*
D02*
G37*
%LPD*%
D16*
X3282237Y257402D02*
D03*
X3282237Y317402D02*
D03*
D18*
X315000Y1192291D02*
D03*
X426546Y1162992D02*
D03*
X389000Y1163291D02*
D03*
Y1124709D02*
D03*
X426546Y1124410D02*
D03*
X315000Y1153709D02*
D03*
D26*
X3122441Y209646D02*
D03*
Y252348D02*
D03*
X2473445Y1531281D02*
D03*
X2473445Y1493879D02*
D03*
X2030624Y1493845D02*
D03*
X2031608Y1533216D02*
D03*
X2070191D02*
D03*
X2069207Y1493845D02*
D03*
X2434863Y1493879D02*
D03*
X2434863Y1531281D02*
D03*
X3161024Y252348D02*
D03*
Y209646D02*
D03*
D36*
X125000Y1675394D02*
D03*
X102362Y394094D02*
D03*
X3725000Y350394D02*
D03*
D37*
X1456000Y165000D02*
X1591000Y300000D01*
X1140000Y165000D02*
X1456000D01*
X1069882Y180000D02*
X1096882Y207000D01*
X1040000Y180000D02*
X1069882D01*
X1096882Y207000D02*
X1394323D01*
X1040000Y180000D02*
X1040000Y180000D01*
X1394323Y207000D02*
X1560000Y372677D01*
X1295000Y235000D02*
X1395861D01*
X1646000Y791000D02*
X1665000Y810000D01*
X1646000Y648973D02*
Y791000D01*
Y648973D02*
X1697244Y597729D01*
X1395861Y235000D02*
X1545000Y384139D01*
X964617Y254457D02*
X1218457D01*
X935000Y180000D02*
Y224840D01*
X964617Y254457D01*
X1726378Y809055D02*
X1726378Y809055D01*
Y789881D02*
X1797244Y719016D01*
X1726378Y789881D02*
Y809055D01*
X1797244Y707992D02*
Y719016D01*
X1838000Y650000D02*
Y755504D01*
X1497000Y755000D02*
Y975221D01*
X2809000Y631000D02*
X2866000D01*
X2880000Y645000D01*
X2898000D01*
X2950984Y665000D02*
X3054780D01*
X2907992Y696857D02*
Y707992D01*
Y696857D02*
X2912992Y691856D01*
X2924128D02*
X2950984Y665000D01*
X2912992Y691856D02*
X2924128D01*
X2453000Y671934D02*
Y769000D01*
X2507000Y823000D02*
X2654827D01*
X2453000Y769000D02*
X2507000Y823000D01*
X2397244Y616178D02*
X2453000Y671934D01*
X2274409Y887222D02*
X2337000Y824632D01*
Y562000D02*
Y824632D01*
X2274409Y887222D02*
Y1423409D01*
X2290854Y896633D02*
X2355000Y832487D01*
Y535000D02*
Y832487D01*
X2310000Y535000D02*
X2337000Y562000D01*
X2197244Y418394D02*
Y479252D01*
X2260630Y632624D02*
Y1303551D01*
X2197244Y479252D02*
Y569238D01*
X2260630Y632624D01*
X2243000Y643000D02*
Y1283000D01*
X2148000Y425000D02*
Y548000D01*
X2243000Y643000D01*
X2148000Y425000D02*
X2200000Y373000D01*
X2189503Y1336497D02*
X2243000Y1283000D01*
X2204000Y714748D02*
Y1124000D01*
X2197244Y707992D02*
X2204000Y714748D01*
X2058000Y598000D02*
X2097244Y558756D01*
Y479252D02*
Y558756D01*
Y416315D02*
X2141536Y372023D01*
X2097244Y416315D02*
Y479252D01*
X2057000Y392000D02*
Y564000D01*
X2100000Y300000D02*
Y349000D01*
X2057000Y392000D02*
X2100000Y349000D01*
X2058000Y598000D02*
Y979570D01*
X2165354Y1086923D01*
X2035000Y586000D02*
X2057000Y564000D01*
X2035000Y586000D02*
Y995000D01*
X2209000Y1169000D01*
X2000000Y355000D02*
X2037000Y392000D01*
X1957000Y630159D02*
X2037000Y550159D01*
Y392000D02*
Y550159D01*
X1997244Y385244D02*
Y479252D01*
X1952000Y340000D02*
X1997244Y385244D01*
X1939000Y618000D02*
X1997244Y559756D01*
Y479252D02*
Y559756D01*
X1939000Y618000D02*
Y998000D01*
X1957000Y955000D02*
X2186000Y1184000D01*
X1957000Y630159D02*
Y955000D01*
X1841000Y259000D02*
X1900000Y200000D01*
X1841000Y259000D02*
Y591000D01*
X1807992Y540000D02*
Y619992D01*
Y479252D02*
Y540000D01*
X1784449Y809055D02*
X1838000Y755504D01*
X1807992Y619992D02*
X1838000Y650000D01*
X1897244Y707992D02*
X1907949Y718697D01*
Y899846D02*
X1908000Y899898D01*
X1907949Y718697D02*
Y899846D01*
X1866000Y334000D02*
Y1052134D01*
Y334000D02*
X1900000Y300000D01*
X1697244Y479252D02*
Y597729D01*
Y406244D02*
Y479252D01*
X1591000Y300000D02*
X1697244Y406244D01*
X1545000Y847000D02*
X1597898Y899898D01*
X1545000Y384139D02*
Y847000D01*
X1560000Y826478D02*
X1608522Y875000D01*
X1560000Y372677D02*
Y826478D01*
X1401000Y766000D02*
Y941221D01*
X1355000Y391000D02*
Y883173D01*
X1354331Y883842D02*
X1355000Y883173D01*
X1354331Y883842D02*
Y1169291D01*
X1338000Y400000D02*
Y867000D01*
X1324803Y880197D02*
X1338000Y867000D01*
X1258000Y575819D02*
Y887411D01*
X1401000Y941221D02*
X1446000Y986221D01*
X1258000Y575819D02*
X1297244Y536575D01*
X1258000Y887411D02*
X1267000Y896411D01*
X1207000Y269000D02*
X1338000Y400000D01*
X1324803Y880197D02*
Y1169291D01*
X1218457Y254457D02*
X1355000Y391000D01*
X1297244Y479252D02*
Y536575D01*
X1267000Y896411D02*
Y899898D01*
X1239000Y577583D02*
Y858362D01*
X1197244Y535827D02*
X1239000Y577583D01*
X1201968Y895394D02*
X1239000Y858362D01*
X1197244Y479252D02*
Y535827D01*
X2397244Y479252D02*
Y616178D01*
X1497000Y975221D02*
X1539000Y1017221D01*
X2790000Y535000D02*
X2828567D01*
X2845000Y435000D02*
Y518567D01*
X2828567Y535000D02*
X2845000Y518567D01*
Y435000D02*
X2875000Y405000D01*
X3035000D01*
X3060000Y430000D01*
X3068523Y551654D02*
X3070238Y549939D01*
X2756654Y568346D02*
X2790000Y535000D01*
X2795252Y568993D02*
X2812591Y551654D01*
X2755000Y568346D02*
X2756654D01*
X2812591Y551654D02*
X3068523D01*
X960000Y690000D02*
X1000000Y650000D01*
X808000Y690000D02*
X960000D01*
X1807984Y479244D02*
X1807992Y479252D01*
X2392769Y1136486D02*
X2392776D01*
X2442339Y1086923D02*
X2773074D01*
X2392776Y1136486D02*
X2442339Y1086923D01*
X2392769Y1136486D02*
X2393000Y1136718D01*
Y1272828D01*
X2290854Y896633D02*
Y1420367D01*
X2305408Y1434921D01*
X2358464D01*
X1952000Y248000D02*
Y340000D01*
Y248000D02*
X2000000Y200000D01*
X2249000Y249000D02*
Y366639D01*
X2197244Y418394D02*
X2249000Y366639D01*
X2200000Y300000D02*
Y373000D01*
X2141536Y241536D02*
Y372023D01*
X2000000Y300000D02*
Y355000D01*
X2200000Y200000D02*
X2249000Y249000D01*
X1597898Y899898D02*
X1746000D01*
X1608522Y875000D02*
X1659000D01*
X1539000Y1017221D02*
Y1130000D01*
X1557000Y1148000D01*
X1648000D02*
X1700000Y1200000D01*
X1557000Y1148000D02*
X1648000D01*
X1700000Y1200000D02*
X1818000D01*
X1428401Y1616667D02*
X1475000Y1570067D01*
Y1146531D02*
Y1570067D01*
X1446000Y1173074D02*
Y1544655D01*
Y1042000D02*
Y1173074D01*
X1051772Y1216535D02*
X1051772Y1216535D01*
X1379000D02*
X1379000Y1216535D01*
X1051772Y1216535D02*
X1379000D01*
X1446000Y986221D02*
X1504390Y1044610D01*
X1410322Y1580333D02*
X1446000Y1544655D01*
X1047000Y1580333D02*
X1410322D01*
X1504390Y1222756D02*
Y1597777D01*
Y1044610D02*
Y1222756D01*
X1527146Y1200000D02*
X1600000D01*
X1504390Y1222756D02*
X1527146Y1200000D01*
X1600000D02*
X1636954D01*
X1686954Y1250000D01*
X1820361D01*
X2851000Y1251000D02*
X2900000Y1300000D01*
X2759000Y1251000D02*
X2851000D01*
X2664000Y1156000D02*
X2759000Y1251000D01*
X2472183Y1156000D02*
X2664000D01*
X2446614Y1181569D02*
X2472183Y1156000D01*
X2415943Y1336497D02*
X2446614Y1305825D01*
Y1181569D02*
Y1305825D01*
X2427000Y1174960D02*
Y1298000D01*
X2358464Y1316811D02*
X2408189D01*
X2427000Y1298000D01*
X2358464Y1336497D02*
X2415943D01*
X1119032Y1341000D02*
X1293780D01*
X1047000Y1413032D02*
X1119032Y1341000D01*
X818136Y269000D02*
X1207000D01*
X795276Y246139D02*
X818136Y269000D01*
X2773074Y1086923D02*
X2786150Y1100000D01*
X2800000D01*
X2141536Y1356181D02*
X2208000D01*
X2208000Y1356181D01*
X1600000Y1300000D02*
X1656181Y1356181D01*
X1707992D01*
X1707992Y1356181D02*
X2141536D01*
X1707992Y1356181D02*
X1707992Y1356181D01*
X1700000Y1400000D02*
X1838000D01*
X1862133Y1375867D01*
X2141536D01*
X1600000Y1400000D02*
X1651000Y1451000D01*
X1834000D02*
X1889449Y1395551D01*
X1651000Y1451000D02*
X1834000D01*
X1889449Y1395551D02*
X2141536D01*
X1700000Y1500000D02*
X1830000D01*
X1914763Y1415237D01*
X2141536D01*
X1940365Y1434921D02*
X2141536D01*
X2208000Y1356181D02*
X2260630Y1303551D01*
X2141536Y1336497D02*
X2189503D01*
X1201968Y895394D02*
Y1125000D01*
X1174213Y900000D02*
Y1085186D01*
X2209000Y1169000D02*
Y1288000D01*
X2186000Y1184000D02*
Y1282000D01*
X2141536Y1316811D02*
X2180189D01*
X1591000Y300000D02*
X1591000D01*
X2100000Y200000D02*
X2141536Y241536D01*
X2305607Y1454607D02*
X2358464D01*
X2274409Y1423409D02*
X2305607Y1454607D01*
X2358464D02*
X2659610D01*
X2358464Y1434921D02*
X2676921D01*
X2141536Y1297127D02*
X2170873D01*
X2186000Y1282000D01*
X2180189Y1316811D02*
X2209000Y1288000D01*
X1915127Y1297127D02*
X2141536D01*
X1887172Y1316811D02*
X2141536D01*
X1047000Y1413032D02*
Y1544000D01*
X889000Y1423000D02*
X913193Y1447194D01*
X749581Y1373778D02*
X798803Y1423000D01*
X889000D01*
X757000Y1686000D02*
X913193Y1529807D01*
X508000Y1686000D02*
X757000D01*
X913193Y1447194D02*
Y1529807D01*
X749581Y1016707D02*
Y1373778D01*
X1047000Y1616667D02*
X1428401D01*
X1047000Y1653000D02*
X1449167D01*
X1504390Y1597777D01*
X3138000Y323000D02*
X3200418D01*
X3200583Y322835D01*
X2850394Y1350394D02*
X2900000Y1400000D01*
X2723425Y1350394D02*
X2850394D01*
X3412598Y74803D02*
Y175554D01*
X3250676Y206547D02*
X3381605D01*
X3412598Y175554D01*
X3232946Y224278D02*
Y251969D01*
Y224278D02*
X3250676Y206547D01*
X3170983Y287402D02*
X3200583D01*
X1939788Y1530212D02*
Y1530212D01*
X1649606Y1649606D02*
X1820394D01*
X1939788Y1530212D01*
Y1530212D02*
X2001124Y1468876D01*
X1700000Y1600000D02*
X1821000D01*
X1914370Y1506630D01*
Y1505892D02*
Y1506630D01*
X1653150Y1553150D02*
X1822850D01*
X1892717Y1483283D01*
Y1482569D02*
Y1483283D01*
X1820361Y1250000D02*
X1887172Y1316811D01*
X1818000Y1200000D02*
X1915127Y1297127D01*
X1914370Y1505892D02*
X1965655Y1454607D01*
X1892717Y1482569D02*
X1940365Y1434921D01*
X1863497Y1336497D02*
X2141536D01*
X1965655Y1454607D02*
X2141536D01*
X1827000Y1300000D02*
X1863497Y1336497D01*
X1700000Y1300000D02*
X1827000D01*
X2001124Y1468876D02*
X2118713D01*
X2140552Y1473306D02*
X2141536Y1474291D01*
X2118713Y1468876D02*
X2123143Y1473306D01*
X2140552D01*
X2358464Y1277441D02*
X2388387D01*
X2393000Y1272828D01*
X2358465Y1297126D02*
X2394874D01*
X2410000Y1282000D01*
Y1166772D02*
Y1282000D01*
Y1166772D02*
X2459772Y1117000D01*
X2427000Y1174960D02*
X2465960Y1136000D01*
X2358464Y1297127D02*
X2358465Y1297126D01*
X2459772Y1117000D02*
X2715837D01*
X2747459Y1148622D02*
X2848622D01*
X2715837Y1117000D02*
X2747459Y1148622D01*
X2691000Y1136000D02*
X2755000Y1200000D01*
X2465960Y1136000D02*
X2691000D01*
X2755000Y1200000D02*
X2800000D01*
X2358464Y1356181D02*
X2359284Y1357000D01*
X2659000D02*
X2716000Y1300000D01*
X2359284Y1357000D02*
X2659000D01*
X2716000Y1300000D02*
X2800000D01*
X2697952Y1375867D02*
X2723425Y1350394D01*
X2358464Y1375867D02*
X2697952D01*
X2702047Y1395551D02*
X2702048Y1395551D01*
X2795551D02*
X2800000Y1400000D01*
X2702048Y1395551D02*
X2795551D01*
X2358464Y1395551D02*
X2702047D01*
X2689843Y1415237D02*
X2726378Y1451772D01*
X2358464Y1415237D02*
X2689843D01*
X2742000Y1500000D02*
X2800000D01*
X2676921Y1434921D02*
X2742000Y1500000D01*
X2659610Y1454607D02*
X2755200Y1550197D01*
X2850197D01*
X2900000Y1600000D01*
X2358464Y1474291D02*
X2375197D01*
X2756499Y1600000D02*
X2800000D01*
X2375197Y1474291D02*
X2378772Y1470715D01*
X2627214D01*
X2756499Y1600000D01*
X2851772Y1451772D02*
X2900000Y1500000D01*
X2726378Y1451772D02*
X2851772D01*
X2848622Y1148622D02*
X2900000Y1200000D01*
X1600000Y1500000D02*
X1653150Y1553150D01*
X1600000Y1600000D02*
X1649606Y1649606D01*
D39*
X1108000Y512563D02*
Y523000D01*
X1125049Y864173D02*
X1147000Y842222D01*
X1108000Y523000D02*
X1147000Y562000D01*
X1107992Y512555D02*
X1108000Y512563D01*
X1107992Y479260D02*
Y512555D01*
X1108000Y300000D02*
Y468236D01*
X829041Y508000D02*
X974061D01*
X795276Y541765D02*
X829041Y508000D01*
X1045228Y579167D02*
Y758858D01*
X974061Y508000D02*
X1045228Y579167D01*
X1241240Y947543D02*
Y1130512D01*
X1099213Y1102362D02*
X1125049Y1076526D01*
Y864173D02*
Y1076526D01*
X407158Y432000D02*
X1045000D01*
X730000Y204159D02*
X788916D01*
X886993Y106082D01*
X2483797D01*
X697000Y204159D02*
X730000D01*
X664000D02*
X697000D01*
X2563976Y186261D02*
Y285796D01*
X2483797Y106082D02*
X2563976Y186261D01*
D40*
X1597244Y707992D02*
X1608000Y718748D01*
Y809055D01*
X1600000Y1100000D02*
X1640083D01*
X1686614Y1146531D01*
X1812531D01*
X1943441Y1277441D01*
X1987293D01*
X1987293Y1277441D02*
X2141536D01*
X1987293Y1277441D02*
X1987293Y1277441D01*
D41*
X897134Y729134D02*
X914000Y746000D01*
X627165Y729134D02*
X897134D01*
X2031116Y1532723D02*
X2031608Y1533216D01*
X2031116Y1494338D02*
Y1532723D01*
X2030624Y1493845D02*
X2031116Y1494338D01*
X295634Y1572591D02*
X296614D01*
X294800Y1571756D02*
X295634Y1572591D01*
X230780Y1571756D02*
X294800D01*
X407134Y728985D02*
X407158Y728961D01*
X626968Y728937D02*
X627165Y729134D01*
X225000Y1319000D02*
Y1470707D01*
Y1319000D02*
X307000Y1237000D01*
X331000D01*
X626354Y728961D02*
X626968Y728346D01*
X407158Y728961D02*
X626354D01*
X2070325Y1533082D02*
X2111918D01*
X2112000Y1533000D01*
X2070191Y1533216D02*
X2070325Y1533082D01*
X334000Y1451000D02*
X871654D01*
X274000Y1331385D02*
Y1391000D01*
X357132Y1129553D02*
X358112D01*
X363204Y1124461D02*
X388752D01*
X358112Y1129553D02*
X363204Y1124461D01*
X274000Y1391000D02*
X334000Y1451000D01*
X315000Y1153709D02*
X315225Y1153484D01*
Y1125225D02*
Y1153484D01*
Y1125225D02*
X315450Y1125000D01*
X2069207Y1493845D02*
X2069272Y1493911D01*
X2099934D01*
X2100000Y1493977D01*
X2401306Y1493976D02*
X2401354Y1493928D01*
X2434814D01*
X2434863Y1493879D01*
X2434839Y1531257D02*
X2434863Y1531281D01*
X2401330Y1531257D02*
X2434839D01*
X2401306Y1531234D02*
X2401330Y1531257D01*
X426644Y1124311D02*
X458705D01*
X459000Y1124016D01*
X389496Y1124213D02*
X426349D01*
D42*
X3312237Y287402D02*
G03*
X3312237Y287402I-30000J0D01*
G01*
X1407000Y1024000D02*
Y1232000D01*
X1051772Y1261373D02*
X1377627D01*
X1407000Y1232000D01*
X657831Y1371535D02*
X701000Y1328366D01*
Y1159400D02*
Y1328366D01*
X1106955Y1447746D02*
X1193202D01*
X1086000Y1427000D02*
X1086209D01*
X1106955Y1447746D01*
X520866Y1371535D02*
X657831D01*
X2114606Y1524016D02*
X2124961Y1513661D01*
X2112000Y1533000D02*
X2114606Y1530394D01*
Y1524016D02*
Y1530394D01*
X2124961Y1513661D02*
X2141536D01*
X315160Y1000840D02*
Y1094566D01*
Y1000840D02*
X316000Y1000000D01*
X2401306Y1493976D02*
X2401306Y1493976D01*
X2358464Y1493977D02*
X2358465Y1493976D01*
X2401306D01*
D43*
X2734595Y864105D02*
X2798700Y800000D01*
X3100000D01*
D47*
X326047Y1722047D02*
X388772D01*
X388772Y1722047D01*
X278000Y486421D02*
Y1195000D01*
X178642Y1294358D02*
Y1574642D01*
Y1294358D02*
X278000Y1195000D01*
X178642Y1574642D02*
X326047Y1722047D01*
X423421Y341000D02*
X666338D01*
X278000Y486421D02*
X423421Y341000D01*
X1577953Y1722047D02*
X1600000Y1700000D01*
X388772Y1722047D02*
X1577953D01*
D49*
X3124016Y209646D02*
Y252348D01*
X2100000Y1493977D02*
X2141536D01*
X2358464Y1513661D02*
X2383732D01*
X2401305Y1531234D02*
X2401306D01*
X2383732Y1513661D02*
X2401305Y1531234D01*
D54*
X1800000Y482500D02*
D03*
D55*
X1497000Y722500D02*
D03*
D56*
X1399500Y730000D02*
D03*
D58*
X905512Y605827D02*
D03*
D59*
X3500000Y1500000D02*
D03*
X3600000D02*
D03*
X3700000D02*
D03*
X3500000Y1400000D02*
D03*
X3600000D02*
D03*
X3700000D02*
D03*
X3800000D02*
D03*
X3500000Y1600000D02*
D03*
X3600000D02*
D03*
X3700000D02*
D03*
X3800000D02*
D03*
X2900000Y1100000D02*
D03*
X2800000Y1000000D02*
D03*
X2900000D02*
D03*
X1700000D02*
D03*
X1600000D02*
D03*
X1700000Y1100000D02*
D03*
X3800000Y1300000D02*
D03*
Y900000D02*
D03*
Y500000D02*
D03*
Y700000D02*
D03*
Y1100000D02*
D03*
Y1500000D02*
D03*
X3012598Y74803D02*
D03*
X2300000Y200000D02*
D03*
Y300000D02*
D03*
X114173Y1493701D02*
D03*
X3100000Y600000D02*
D03*
Y800000D02*
D03*
Y1600000D02*
D03*
X2400000Y200000D02*
D03*
Y300000D02*
D03*
X2200000D02*
D03*
Y200000D02*
D03*
X2000000Y300000D02*
D03*
X2100000D02*
D03*
X2000000Y200000D02*
D03*
X2100000D02*
D03*
X1900000Y300000D02*
D03*
X3212598Y74803D02*
D03*
X3312598D02*
D03*
X3112598D02*
D03*
X3300000Y1600000D02*
D03*
X3400000D02*
D03*
X3200000D02*
D03*
X3300000Y1500000D02*
D03*
X3400000D02*
D03*
X3100000D02*
D03*
X3200000D02*
D03*
X3100000Y1200000D02*
D03*
Y1100000D02*
D03*
X3200000Y1200000D02*
D03*
Y1100000D02*
D03*
X3300000Y1200000D02*
D03*
Y1100000D02*
D03*
X3400000Y1200000D02*
D03*
Y1100000D02*
D03*
X3500000Y1200000D02*
D03*
Y1100000D02*
D03*
X3600000Y1200000D02*
D03*
Y1100000D02*
D03*
X3700000Y1200000D02*
D03*
Y1100000D02*
D03*
X3800000Y1200000D02*
D03*
X3100000Y700000D02*
D03*
X3200000Y800000D02*
D03*
Y700000D02*
D03*
X3300000Y800000D02*
D03*
Y700000D02*
D03*
X3400000Y800000D02*
D03*
Y700000D02*
D03*
X3500000Y800000D02*
D03*
Y700000D02*
D03*
X3600000Y800000D02*
D03*
Y700000D02*
D03*
X3700000Y800000D02*
D03*
Y700000D02*
D03*
X3800000Y800000D02*
D03*
X3100000Y500000D02*
D03*
X3200000Y600000D02*
D03*
Y500000D02*
D03*
X3300000Y600000D02*
D03*
Y500000D02*
D03*
X3400000Y600000D02*
D03*
Y500000D02*
D03*
X3500000Y600000D02*
D03*
Y500000D02*
D03*
X3600000Y600000D02*
D03*
Y500000D02*
D03*
X3700000Y600000D02*
D03*
Y500000D02*
D03*
X3800000Y600000D02*
D03*
X3100000Y1000000D02*
D03*
Y900000D02*
D03*
X3200000Y1000000D02*
D03*
Y900000D02*
D03*
X3300000Y1000000D02*
D03*
Y900000D02*
D03*
X3400000Y1000000D02*
D03*
Y900000D02*
D03*
X3500000Y1000000D02*
D03*
Y900000D02*
D03*
X3600000Y1000000D02*
D03*
Y900000D02*
D03*
X3700000Y1000000D02*
D03*
Y900000D02*
D03*
X3800000Y1000000D02*
D03*
X3100000Y1400000D02*
D03*
Y1300000D02*
D03*
X3200000Y1400000D02*
D03*
Y1300000D02*
D03*
X3300000Y1400000D02*
D03*
Y1300000D02*
D03*
X3400000Y1400000D02*
D03*
Y1300000D02*
D03*
X3500000D02*
D03*
X3600000D02*
D03*
X3700000D02*
D03*
X1700000Y1700000D02*
D03*
X1600000Y1600000D02*
D03*
X1700000D02*
D03*
X1600000Y1500000D02*
D03*
X1700000D02*
D03*
X1600000Y1400000D02*
D03*
X1700000D02*
D03*
X1600000Y1300000D02*
D03*
X1700000D02*
D03*
X1600000Y1200000D02*
D03*
X1700000D02*
D03*
X1600000Y1100000D02*
D03*
X2800000D02*
D03*
X2900000Y1200000D02*
D03*
X2800000D02*
D03*
X2900000Y1300000D02*
D03*
X2800000D02*
D03*
X2900000Y1400000D02*
D03*
X2800000D02*
D03*
X2900000Y1500000D02*
D03*
X2800000D02*
D03*
X2900000Y1600000D02*
D03*
X2800000D02*
D03*
X2900000Y1700000D02*
D03*
D60*
X157480Y1889764D02*
D03*
X3700787Y157480D02*
D03*
Y1889764D02*
D03*
X157480Y157480D02*
D03*
D61*
X114173Y1393701D02*
D03*
X1600000Y1700000D02*
D03*
X2800000D02*
D03*
D62*
X3282237Y287402D02*
D03*
D63*
X2539134Y1264331D02*
D03*
X2149134Y1939331D02*
D03*
D64*
X110236Y873031D02*
D03*
Y1201772D02*
D03*
D65*
X228346Y949803D02*
D03*
Y1125000D02*
D03*
D66*
X1900000Y200000D02*
D03*
X3412598Y74803D02*
D03*
D67*
X1140000Y165000D02*
D03*
X1295000Y235000D02*
D03*
X1665000Y810000D02*
D03*
X1395000Y280000D02*
D03*
X935000Y180000D02*
D03*
X1040000D02*
D03*
X1608000Y809055D02*
D03*
X2250000Y480000D02*
D03*
X2345000D02*
D03*
X3040000D02*
D03*
X2647280Y710215D02*
D03*
X2545000Y710000D02*
D03*
X2745000D02*
D03*
X2697244Y707992D02*
D03*
X2497244D02*
D03*
X2145000Y725000D02*
D03*
Y675000D02*
D03*
X2197244Y707992D02*
D03*
X1997244D02*
D03*
X1797000D02*
D03*
X1697244D02*
D03*
X1297244D02*
D03*
X2809000Y631000D02*
D03*
X2898000Y645000D02*
D03*
X2997000Y481500D02*
D03*
X2798000Y480000D02*
D03*
X2384000Y871000D02*
D03*
X2414000D02*
D03*
X2005000Y965000D02*
D03*
X1939000Y998000D02*
D03*
X1841000Y591000D02*
D03*
X1381000Y959000D02*
D03*
X1096000Y787000D02*
D03*
X2005000Y1065000D02*
D03*
X1960000Y1240000D02*
D03*
X2040000Y1160000D02*
D03*
X1915000D02*
D03*
X1958000Y535000D02*
D03*
X1911000Y380000D02*
D03*
X1958000Y427000D02*
D03*
X1915000Y586000D02*
D03*
X1244000Y405000D02*
D03*
X2122000Y588000D02*
D03*
X1655000Y425000D02*
D03*
X1555000Y315000D02*
D03*
X1475000Y235000D02*
D03*
X1690000D02*
D03*
X1715000Y315000D02*
D03*
X1655000D02*
D03*
X1605000Y260000D02*
D03*
X1550000Y205000D02*
D03*
X1444000Y534000D02*
D03*
X1425000Y315000D02*
D03*
X1360000D02*
D03*
X2795252Y568993D02*
D03*
X2755000Y568346D02*
D03*
X2384000Y840500D02*
D03*
X2414000D02*
D03*
Y810000D02*
D03*
X2384000D02*
D03*
X3060000Y430000D02*
D03*
X2975000Y303000D02*
D03*
X2898000Y695000D02*
D03*
Y745000D02*
D03*
X3070238Y549939D02*
D03*
X2310000Y535000D02*
D03*
X2299000Y420000D02*
D03*
X2296992Y479252D02*
D03*
X1800000Y425000D02*
D03*
Y480000D02*
D03*
Y540000D02*
D03*
X1444000Y424000D02*
D03*
X1499000Y534000D02*
D03*
Y424000D02*
D03*
X1297000Y821000D02*
D03*
Y766000D02*
D03*
X1267000Y899898D02*
D03*
X1000000Y650000D02*
D03*
X914000Y746000D02*
D03*
X1784449Y809055D02*
D03*
X2392769Y1136486D02*
D03*
X2355000Y535000D02*
D03*
X1659000Y875000D02*
D03*
X1407000Y1024000D02*
D03*
X1475000Y1146531D02*
D03*
X1446000Y1173074D02*
D03*
X1379000Y1216535D02*
D03*
X1446000Y986221D02*
D03*
Y1042000D02*
D03*
X2324400Y907500D02*
D03*
X692300Y897400D02*
D03*
X660700Y898100D02*
D03*
X915600Y1154100D02*
D03*
X858700Y1207500D02*
D03*
X701000Y1159400D02*
D03*
X422500Y1187000D02*
D03*
X1034100D02*
D03*
X618700Y272900D02*
D03*
X788200Y280800D02*
D03*
X1759600Y1101200D02*
D03*
X1697000Y650000D02*
D03*
X1773500Y367500D02*
D03*
X744400Y325100D02*
D03*
X584146Y573000D02*
D03*
X2689400Y1662205D02*
D03*
X1649606Y966189D02*
D03*
X2334643Y1210190D02*
D03*
X3054780Y665000D02*
D03*
X1293780Y1341000D02*
D03*
X1650780Y1478756D02*
D03*
X1297000Y645000D02*
D03*
X1138780Y1779756D02*
D03*
X1098780Y1785756D02*
D03*
X650780Y1589756D02*
D03*
X603621Y1397236D02*
D03*
X559285Y1404370D02*
D03*
X833851Y1482039D02*
D03*
X971483Y1336756D02*
D03*
X942071Y1305173D02*
D03*
X942851Y1369090D02*
D03*
X1037215Y896394D02*
D03*
X760622Y863929D02*
D03*
X524260Y1230786D02*
D03*
X584146Y1104087D02*
D03*
X583367Y1011811D02*
D03*
Y980543D02*
D03*
X584146Y946606D02*
D03*
Y915110D02*
D03*
X479712Y856543D02*
D03*
X412780Y896756D02*
D03*
X427780Y996756D02*
D03*
X350877Y1011567D02*
D03*
X358780Y1091756D02*
D03*
X445661Y1932756D02*
D03*
X565740Y1933756D02*
D03*
X689756Y1932756D02*
D03*
X807866D02*
D03*
X926961Y1933756D02*
D03*
X977158Y1890504D02*
D03*
X865780Y1889756D02*
D03*
X746780Y1890756D02*
D03*
X625780Y1889756D02*
D03*
X504780D02*
D03*
X383780Y1888756D02*
D03*
X1649780Y1024756D02*
D03*
X1750780D02*
D03*
X2548000Y975000D02*
D03*
X2493780Y974756D02*
D03*
X2520780Y934756D02*
D03*
X2558780Y913756D02*
D03*
X2630780Y898756D02*
D03*
X2799780Y931756D02*
D03*
X2900780D02*
D03*
X2919780Y1049756D02*
D03*
Y1149756D02*
D03*
X2848780Y1120756D02*
D03*
Y1051756D02*
D03*
X2101780Y1249756D02*
D03*
Y1222756D02*
D03*
X2070780Y1597756D02*
D03*
X2032780Y1570756D02*
D03*
X2155780Y1197756D02*
D03*
X2123780D02*
D03*
X1055780Y1155756D02*
D03*
X1032780Y1129756D02*
D03*
X627748Y690110D02*
D03*
X40150Y1493457D02*
D03*
X115051Y1570598D02*
D03*
X387780Y849756D02*
D03*
X174780Y987756D02*
D03*
X171780Y916756D02*
D03*
X172780Y1159756D02*
D03*
X177780Y1233756D02*
D03*
X800780Y382756D02*
D03*
X829780Y231756D02*
D03*
X2299780Y372756D02*
D03*
X2329780Y249756D02*
D03*
X2277780Y150756D02*
D03*
X2495780Y199756D02*
D03*
X2648780Y252756D02*
D03*
X2678780Y283756D02*
D03*
X2648000Y198000D02*
D03*
X2813780Y288756D02*
D03*
X2943780Y74756D02*
D03*
X3012780Y137756D02*
D03*
X3049780Y34756D02*
D03*
X2435629Y1599743D02*
D03*
X230780Y1571756D02*
D03*
X296614Y1572591D02*
D03*
X50780Y1999756D02*
D03*
X250780D02*
D03*
X350780D02*
D03*
X450780D02*
D03*
X550780D02*
D03*
X650780D02*
D03*
X750780D02*
D03*
X850780D02*
D03*
X950780D02*
D03*
X1050780D02*
D03*
X1150780D02*
D03*
X1250780D02*
D03*
X1350780D02*
D03*
X1450780D02*
D03*
X1550780D02*
D03*
X1650780D02*
D03*
X1750780D02*
D03*
X1850780D02*
D03*
X1950780D02*
D03*
X2050780D02*
D03*
X2250780D02*
D03*
X2350780D02*
D03*
X2450780D02*
D03*
X2550780D02*
D03*
X2650780D02*
D03*
X2750780D02*
D03*
X2850780D02*
D03*
X2950780D02*
D03*
X3050780D02*
D03*
X3150780D02*
D03*
X3250780D02*
D03*
X3350780D02*
D03*
X3450780D02*
D03*
X3550780D02*
D03*
X3800780D02*
D03*
X3550780Y1899756D02*
D03*
X3450780D02*
D03*
X3350780D02*
D03*
X3250780D02*
D03*
X3150780D02*
D03*
X2250780D02*
D03*
X2050780D02*
D03*
X350780Y1799756D02*
D03*
X50780Y1699756D02*
D03*
X250780D02*
D03*
X750780Y1799756D02*
D03*
X50780Y49756D02*
D03*
X250780D02*
D03*
X350780D02*
D03*
X450780D02*
D03*
X550780D02*
D03*
X750780D02*
D03*
X850780D02*
D03*
X950780D02*
D03*
X1050780D02*
D03*
X1150780D02*
D03*
X1250780D02*
D03*
X1350780D02*
D03*
X1450780D02*
D03*
X1550780D02*
D03*
X1650780D02*
D03*
X1750780D02*
D03*
X1850780D02*
D03*
X1950780D02*
D03*
X2050780D02*
D03*
X2150780D02*
D03*
X2250780D02*
D03*
X2350780D02*
D03*
X2450780D02*
D03*
X2550780D02*
D03*
X2750780D02*
D03*
X3800780D02*
D03*
X3600780D02*
D03*
X3500780D02*
D03*
Y149756D02*
D03*
Y249756D02*
D03*
Y349756D02*
D03*
X3600780D02*
D03*
X3400780D02*
D03*
X3300780D02*
D03*
Y149756D02*
D03*
X3100780Y249756D02*
D03*
X2900780D02*
D03*
Y149756D02*
D03*
X1550780D02*
D03*
X1650780D02*
D03*
X1750780D02*
D03*
X1850780D02*
D03*
X1790000Y235000D02*
D03*
X350780Y149756D02*
D03*
Y249756D02*
D03*
Y349756D02*
D03*
X250780D02*
D03*
X150780D02*
D03*
X50780D02*
D03*
Y249756D02*
D03*
Y449756D02*
D03*
X150780D02*
D03*
X250780D02*
D03*
X150780Y549756D02*
D03*
X50780D02*
D03*
Y649756D02*
D03*
X150780D02*
D03*
Y749756D02*
D03*
X50780D02*
D03*
X350780Y549756D02*
D03*
Y649756D02*
D03*
Y749756D02*
D03*
X450780Y649756D02*
D03*
Y549756D02*
D03*
X800780Y899756D02*
D03*
X900780D02*
D03*
Y999756D02*
D03*
X800780D02*
D03*
X900780Y1099756D02*
D03*
X800780D02*
D03*
X2650780Y1049756D02*
D03*
X2900780Y849756D02*
D03*
X2800780D02*
D03*
X2300780Y1599756D02*
D03*
X1900000Y1700000D02*
D03*
X2000780Y1599756D02*
D03*
X504780Y1791756D02*
D03*
X1027780Y1682756D02*
D03*
X1407780Y1286756D02*
D03*
X1548780Y1519756D02*
D03*
X1649780Y1383756D02*
D03*
X2216780Y1453756D02*
D03*
X2472000Y1600000D02*
D03*
X2088000Y965000D02*
D03*
X2157780Y150756D02*
D03*
X1911780Y148756D02*
D03*
X950780Y802041D02*
D03*
X2749780Y411756D02*
D03*
X2675780Y412756D02*
D03*
X2650000Y480000D02*
D03*
X3232780Y349756D02*
D03*
X3234780Y295756D02*
D03*
X455780Y1406756D02*
D03*
X484780Y1371756D02*
D03*
X332780Y1349756D02*
D03*
X360780Y1316756D02*
D03*
X2739780Y135756D02*
D03*
Y805756D02*
D03*
X2550000Y480000D02*
D03*
X2414000Y374000D02*
D03*
X224000Y1471000D02*
D03*
X251500D02*
D03*
X279000D02*
D03*
X1193202Y1447746D02*
D03*
X2414000Y412000D02*
D03*
X626968Y728346D02*
D03*
X374604Y1603072D02*
D03*
X399616D02*
D03*
X2734595Y864105D02*
D03*
X2165354Y1086923D02*
D03*
X2204000Y1124000D02*
D03*
X1866000Y1052134D02*
D03*
X1324803Y1169291D02*
D03*
X808000Y690000D02*
D03*
X1075840Y961661D02*
D03*
X1174213Y1085186D02*
D03*
Y900000D02*
D03*
X1220148Y877215D02*
D03*
X2654827Y823000D02*
D03*
X1051772Y1261373D02*
D03*
X795276Y246139D02*
D03*
X697000D02*
D03*
X664000D02*
D03*
X730000D02*
D03*
X1746000Y899898D02*
D03*
X1908000D02*
D03*
X1726378Y809055D02*
D03*
X2112000Y1533000D02*
D03*
X1370063Y1839819D02*
D03*
X871654Y1451000D02*
D03*
X357132Y1129553D02*
D03*
X274000Y1361192D02*
D03*
Y1331385D02*
D03*
X508000Y1686000D02*
D03*
X316000Y1000000D02*
D03*
X666338Y383251D02*
D03*
X630610D02*
D03*
X594882D02*
D03*
X1412368Y1839819D02*
D03*
Y1889000D02*
D03*
X1370063D02*
D03*
X1327757Y1839819D02*
D03*
Y1889000D02*
D03*
X2685000Y1730806D02*
D03*
X1138780Y1878051D02*
D03*
Y1827756D02*
D03*
X730000Y204159D02*
D03*
X1047000Y1544000D02*
D03*
Y1580333D02*
D03*
Y1616667D02*
D03*
Y1653000D02*
D03*
X697000Y204159D02*
D03*
X664000D02*
D03*
X3082284Y137865D02*
D03*
X3138000Y323000D02*
D03*
X520866Y1371535D02*
D03*
X3170983Y287402D02*
D03*
X2100000Y1493977D02*
D03*
X2401306Y1493976D02*
D03*
Y1531234D02*
D03*
X571894Y1331226D02*
D03*
X274000Y1391000D02*
D03*
X315450Y1125000D02*
D03*
X315160Y1094566D02*
D03*
X459000Y1124016D02*
D03*
X430139Y956740D02*
D03*
X749581Y1016707D02*
D03*
X1201968Y1125000D02*
D03*
X1354331Y1169291D02*
D03*
X1051772Y1216535D02*
D03*
X2562964Y393701D02*
D03*
X2563976Y285796D02*
D03*
X903543Y1374213D02*
D03*
D68*
X1497000Y755000D02*
D03*
Y696000D02*
D03*
X1401000Y707992D02*
D03*
Y766000D02*
D03*
X1496992Y478252D02*
D03*
X1130000Y305000D02*
D03*
X1085000D02*
D03*
X1040000D02*
D03*
X1241240Y1130512D02*
D03*
X1099213Y1102362D02*
D03*
X407134Y728985D02*
D03*
X331000Y1237000D02*
D03*
X1086000Y1427000D02*
D03*
X407158Y432000D02*
D03*
X1045228Y758858D02*
D03*
X1241240Y947543D02*
D03*
X795276Y541765D02*
D03*
X388772Y1722047D02*
D03*
X666338Y341000D02*
D03*
D69*
X2997244Y707992D02*
D03*
X2897244D02*
D03*
X2797244D02*
D03*
X2697244D02*
D03*
X2597244D02*
D03*
X2497244D02*
D03*
X2397244D02*
D03*
X2297244D02*
D03*
X2197244D02*
D03*
X2097244D02*
D03*
X1997244D02*
D03*
X1897244D02*
D03*
X1797244D02*
D03*
X1697244D02*
D03*
X1597244D02*
D03*
X1497244D02*
D03*
X1397244D02*
D03*
X1297244D02*
D03*
X1197244D02*
D03*
X1097244D02*
D03*
X2997244Y479252D02*
D03*
X2897244D02*
D03*
X2797244D02*
D03*
X2697244D02*
D03*
X2597244D02*
D03*
X2497244D02*
D03*
X2397244D02*
D03*
X2297244D02*
D03*
X2197244D02*
D03*
X2097244D02*
D03*
X1997244D02*
D03*
X1897244D02*
D03*
X1797244D02*
D03*
X1697244D02*
D03*
X1597244D02*
D03*
X1497244D02*
D03*
X1397244D02*
D03*
X1297244D02*
D03*
X1197244D02*
D03*
X1097244D02*
D03*
D70*
X2141536Y1375867D02*
D03*
Y1415237D02*
D03*
Y1356181D02*
D03*
Y1395551D02*
D03*
X2358464Y1336497D02*
D03*
X2141536Y1277441D02*
D03*
X2358464Y1257757D02*
D03*
X2141536D02*
D03*
X2358464Y1238071D02*
D03*
X2141536D02*
D03*
X2358464Y1277441D02*
D03*
X2141536Y1336497D02*
D03*
X2358464Y1356181D02*
D03*
Y1375867D02*
D03*
Y1395551D02*
D03*
Y1415237D02*
D03*
X2141536Y1434921D02*
D03*
X2358464D02*
D03*
X2141536Y1454607D02*
D03*
X2358464D02*
D03*
X2141536Y1474291D02*
D03*
X2358464D02*
D03*
X2141536Y1493977D02*
D03*
X2358464D02*
D03*
Y1513661D02*
D03*
X2141536D02*
D03*
X2358464Y1316811D02*
D03*
Y1297127D02*
D03*
X2141536Y1316811D02*
D03*
Y1297127D02*
D03*
D71*
X3232946Y322835D02*
D03*
X3200583D02*
D03*
Y251969D02*
D03*
X3232946D02*
D03*
X3200583Y287402D02*
D03*
D72*
X1147000Y562000D02*
Y842222D01*
D73*
X2175074Y695500D02*
D03*
D74*
X2900000Y695000D02*
D03*
%TF.MD5,0b9513153cd5fe315ebde91e3fd40d59*%
M02*
