M48
;Layer_Color=9474304
;FILE_FORMAT=2:5
INCH,LZ
;TYPE=PLATED
T1F00S00C0.00787
T2F00S00C0.00787
T3F00S00C0.02362
T4F00S00C0.08500
;TYPE=NON_PLATED
T5F00S00C0.04000
%
T01
X0002955Y0008819
Y0013819
Y0018819
Y0023819
Y0028819
Y0033819
Y0038819
Y0043819
Y0048819
X0006342Y0050406
X0002955Y0053819
Y0058819
Y0063819
Y0068819
Y0073819
Y0078819
X0009055Y0078347
X0009342Y0083071
X0005342Y0084905
X0003113Y0087134
X0003575Y0090677
X0011782Y0092816
X001179Y0095227
X0015751Y0093049
X0020071Y0088135
X0025197Y0091906
X0025342Y0099346
X002757Y0098406
X0031102
X0035374Y009826
X0039681Y0098566
X0043Y0098878
X004637Y0097896
X0048642
X0052492Y0098706
X0056142Y0098206
X0058342Y0100906
X0060693Y0097843
X0064842Y0098905
X0061909Y0091142
Y0087599
X0065842Y0084406
Y0081906
X00715Y00855
X0074842Y0082906
X0077558Y0085237
X0080342Y0090906
X0076378Y0094942
X0072047Y0094906
X0080342Y0098906
X0080571Y0102134
Y0105678
X0078342Y0107907
X0053042Y0103406
X0049656Y0103393
X0047342Y0103393
X00457Y01051
X0041242Y0103306
X0037842Y0103406
X0033062Y0103746
X0033842Y0108006
X0036242Y0107906
X003622Y0112406
X003937
X0027342Y0106406
X0018342Y0104907
X0016141Y010315
X0018342Y0109406
X001245Y0110298
X0009342Y0109906
X0010039Y0117406
X0015157
X00207Y00979
X0023228Y0097906
X00038Y01008
X0015464Y0079127
X0009055Y0069292
X0009842Y0065906
X0023372Y0063616
X0027482Y0065896
X0030867Y0065679
X0030832Y0062946
X0031092Y0059256
X0031212Y0055006
X0031412Y0052506
X0035042Y0052343
X0035552Y0049006
X00326Y0049199
X0029635Y0046699
X0027712Y0043436
X0027559Y0040775
X0025022Y0033776
X0018142Y0035506
X0015342Y0035406
X0011292Y0035456
X0012401Y0026906
X0006692
X0008661Y0020406
X0011417Y0015552
X0011217Y0012008
X0015748
Y0015552
X0016535Y0020406
X0019526
X0022542Y0022906
X0025342Y0024607
X0025542Y002067
X0023342Y0017406
X0025142Y0015506
X0027442Y0014806
X0027559Y0011335
X0022842Y0012402
X0018842Y0009906
X0007638Y0010406
X0033342Y0011406
X0033742Y0009006
X0036742Y0008465
X0036811Y0011418
X0040862Y0011206
X0043242
X004685Y0011221
X0047242Y0008806
X004958Y0008795
X0053Y0007
X00547Y00112
X0055862Y0014786
X0060192Y0015266
X0060142Y0011706
X0063642Y0007806
X0063742Y0005512
X0073242Y0004706
X0080972Y0008819
Y0013819
Y0018819
Y0023819
Y0028819
X007734Y0029721
X0074642Y0029606
X00743Y00348
X0069867Y0034938
X0069287Y0032741
X0069695Y0028409
X0064942Y0029506
X0062142Y0031506
X0059842Y0030512
X0058177Y0028544
X0058142Y0024806
X0061511Y0024457
X0061492Y0026886
X0058177Y0032481
X0056342Y0040706
X0056042Y0043006
X0060942Y0042706
X0062742Y0039506
X0068803Y0038256
X00718Y00413
X0074506Y0044966
X0074242Y0047304
Y0049706
X0069342Y0049272
Y0051906
X0071772Y0052846
X0073852Y0057756
X0077302Y0057946
X0080972Y0058819
Y0053819
Y0048819
Y0043819
X0077782Y0043186
X0080972Y0038819
Y0033819
X0069342Y0046406
X0062272Y0047796
X0066732Y0057976
X0064614Y0063406
X0061071
X0063342Y0066405
X0069114Y0063906
X0076842Y0066406
X0075299Y0071363
X0075342Y0074906
X0080972Y0073819
Y0068819
Y0063819
Y0078819
X0058264Y0079107
X0059064Y00708
X0058558Y0091906
X0054842
X0054603Y0089537
X0049417Y0091901
X0047058Y0091993
X0043782Y0091996
X0041452Y0091906
X00436Y00894
X0039993Y0077607
X00327Y00742
X00301Y00728
X0028722Y0069137
X00195Y00522
X0019772Y0049106
X0009342Y0044406
X0018842Y0027906
X0021942Y0027706
X0040157Y002756
Y0023623
X0044094
Y002756
Y0031497
X0040157
Y0035497
X0044094
X0048031
Y0031497
Y002756
Y0023623
X0058242Y0020406
Y0018106
X0045046Y0008104
X004252Y0005906
X00328Y00042
X00311Y00067
X0039Y0045
X0040928Y0043798
X0040542Y0049206
X0042242Y0050906
X0041914Y0053177
X0048628Y0053426
X00489Y00564
X00524Y0055
X0050442Y0044606
X0047769Y0043782
T02
X000395Y000315
X00111Y0018846
X00105Y0052563
X0018503Y0062946
X0018842Y0068539
X002126
X00308Y00704
X00512Y00735
X0053492Y00739
X0055764Y0074707
X0059064Y00756
X00573Y00687
X0054203Y0065503
X00527Y00638
X0054128Y0059734
X0057436Y00597
X0052756Y0057548
X0054164Y0053177
X00466Y00553
X00495Y00808
X00502Y0086
X0052342Y0084905
X0046858Y008653
X0046576Y0112689
X0044313Y0112483
X0048628Y0113849
X00509Y01134
X0053Y01121
X0064828Y01103
X00707Y0076
T03
X0Y0008819
Y0013819
Y0018819
Y0023819
Y0028819
Y0033819
Y0038819
Y0043819
Y0048819
Y0053819
Y0058819
Y0063819
Y0068819
Y0073819
Y0078819
X0083858
Y0073819
Y0068819
Y0063819
Y0058819
Y0053819
Y0048819
Y0043819
Y0038819
Y0033819
Y0028819
Y0023819
Y0018819
Y0013819
Y0008819
T04
X0070842Y0016406
X0031842Y0083906
T05
X0065047Y0074906
M30
