%TF.GenerationSoftware,Altium Limited,Altium Designer,20.1.11 (218)*%
G04 Layer_Color=255*
%FSLAX26Y26*%
%MOIN*%
%TF.SameCoordinates,3C5C7FA7-1F59-4671-A418-6E2A2DAA0BFA*%
%TF.FilePolarity,Positive*%
%TF.FileFunction,Pads,Top*%
%TF.Part,Single*%
G01*
G75*
%TA.AperFunction,SMDPad,CuDef*%
G04:AMPARAMS|DCode=12|XSize=23.228mil|YSize=25.197mil|CornerRadius=5.923mil|HoleSize=0mil|Usage=FLASHONLY|Rotation=270.000|XOffset=0mil|YOffset=0mil|HoleType=Round|Shape=RoundedRectangle|*
%AMROUNDEDRECTD12*
21,1,0.023228,0.013351,0,0,270.0*
21,1,0.011382,0.025197,0,0,270.0*
1,1,0.011846,-0.006675,-0.005691*
1,1,0.011846,-0.006675,0.005691*
1,1,0.011846,0.006675,0.005691*
1,1,0.011846,0.006675,-0.005691*
%
%ADD12ROUNDEDRECTD12*%
G04:AMPARAMS|DCode=13|XSize=23.228mil|YSize=25.197mil|CornerRadius=5.923mil|HoleSize=0mil|Usage=FLASHONLY|Rotation=180.000|XOffset=0mil|YOffset=0mil|HoleType=Round|Shape=RoundedRectangle|*
%AMROUNDEDRECTD13*
21,1,0.023228,0.013351,0,0,180.0*
21,1,0.011382,0.025197,0,0,180.0*
1,1,0.011846,-0.005691,0.006675*
1,1,0.011846,0.005691,0.006675*
1,1,0.011846,0.005691,-0.006675*
1,1,0.011846,-0.005691,-0.006675*
%
%ADD13ROUNDEDRECTD13*%
%ADD14R,0.031496X0.049000*%
%ADD15R,0.035000X0.032000*%
%ADD16R,0.009840X0.039370*%
%ADD17R,0.059055X0.133858*%
%ADD18R,0.039370X0.137795*%
%ADD19R,0.023620X0.053150*%
%ADD20R,0.047240X0.078740*%
G04:AMPARAMS|DCode=21|XSize=19.685mil|YSize=23.622mil|CornerRadius=5.118mil|HoleSize=0mil|Usage=FLASHONLY|Rotation=270.000|XOffset=0mil|YOffset=0mil|HoleType=Round|Shape=RoundedRectangle|*
%AMROUNDEDRECTD21*
21,1,0.019685,0.013386,0,0,270.0*
21,1,0.009449,0.023622,0,0,270.0*
1,1,0.010236,-0.006693,-0.004724*
1,1,0.010236,-0.006693,0.004724*
1,1,0.010236,0.006693,0.004724*
1,1,0.010236,0.006693,-0.004724*
%
%ADD21ROUNDEDRECTD21*%
G04:AMPARAMS|DCode=22|XSize=25.591mil|YSize=15.748mil|CornerRadius=3.937mil|HoleSize=0mil|Usage=FLASHONLY|Rotation=0.000|XOffset=0mil|YOffset=0mil|HoleType=Round|Shape=RoundedRectangle|*
%AMROUNDEDRECTD22*
21,1,0.025591,0.007874,0,0,0.0*
21,1,0.017717,0.015748,0,0,0.0*
1,1,0.007874,0.008858,-0.003937*
1,1,0.007874,-0.008858,-0.003937*
1,1,0.007874,-0.008858,0.003937*
1,1,0.007874,0.008858,0.003937*
%
%ADD22ROUNDEDRECTD22*%
G04:AMPARAMS|DCode=23|XSize=25.591mil|YSize=11.811mil|CornerRadius=2.953mil|HoleSize=0mil|Usage=FLASHONLY|Rotation=0.000|XOffset=0mil|YOffset=0mil|HoleType=Round|Shape=RoundedRectangle|*
%AMROUNDEDRECTD23*
21,1,0.025591,0.005905,0,0,0.0*
21,1,0.019685,0.011811,0,0,0.0*
1,1,0.005906,0.009842,-0.002953*
1,1,0.005906,-0.009842,-0.002953*
1,1,0.005906,-0.009842,0.002953*
1,1,0.005906,0.009842,0.002953*
%
%ADD23ROUNDEDRECTD23*%
%ADD24C,0.007874*%
%ADD25C,0.002000*%
%ADD26C,0.039370*%
%ADD27R,0.020000X0.052000*%
%ADD28R,0.052000X0.020000*%
%ADD29R,0.029748X0.007843*%
%TA.AperFunction,ConnectorPad*%
G04:AMPARAMS|DCode=30|XSize=46.26mil|YSize=74.803mil|CornerRadius=11.565mil|HoleSize=0mil|Usage=FLASHONLY|Rotation=90.000|XOffset=0mil|YOffset=0mil|HoleType=Round|Shape=RoundedRectangle|*
%AMROUNDEDRECTD30*
21,1,0.046260,0.051673,0,0,90.0*
21,1,0.023130,0.074803,0,0,90.0*
1,1,0.023130,0.025837,0.011565*
1,1,0.023130,0.025837,-0.011565*
1,1,0.023130,-0.025837,-0.011565*
1,1,0.023130,-0.025837,0.011565*
%
%ADD30ROUNDEDRECTD30*%
G04:AMPARAMS|DCode=31|XSize=70.866mil|YSize=74.803mil|CornerRadius=17.716mil|HoleSize=0mil|Usage=FLASHONLY|Rotation=270.000|XOffset=0mil|YOffset=0mil|HoleType=Round|Shape=RoundedRectangle|*
%AMROUNDEDRECTD31*
21,1,0.070866,0.039370,0,0,270.0*
21,1,0.035433,0.074803,0,0,270.0*
1,1,0.035433,-0.019685,-0.017717*
1,1,0.035433,-0.019685,0.017717*
1,1,0.035433,0.019685,0.017717*
1,1,0.035433,0.019685,-0.017717*
%
%ADD31ROUNDEDRECTD31*%
G04:AMPARAMS|DCode=32|XSize=15.748mil|YSize=53.15mil|CornerRadius=3.937mil|HoleSize=0mil|Usage=FLASHONLY|Rotation=270.000|XOffset=0mil|YOffset=0mil|HoleType=Round|Shape=RoundedRectangle|*
%AMROUNDEDRECTD32*
21,1,0.015748,0.045276,0,0,270.0*
21,1,0.007874,0.053150,0,0,270.0*
1,1,0.007874,-0.022638,-0.003937*
1,1,0.007874,-0.022638,0.003937*
1,1,0.007874,0.022638,0.003937*
1,1,0.007874,0.022638,-0.003937*
%
%ADD32ROUNDEDRECTD32*%
%TA.AperFunction,SMDPad,CuDef*%
%ADD33R,0.045276X0.029528*%
%ADD34R,0.037402X0.055118*%
%ADD35R,0.049000X0.031496*%
G04:AMPARAMS|DCode=36|XSize=19.685mil|YSize=23.622mil|CornerRadius=5.118mil|HoleSize=0mil|Usage=FLASHONLY|Rotation=180.000|XOffset=0mil|YOffset=0mil|HoleType=Round|Shape=RoundedRectangle|*
%AMROUNDEDRECTD36*
21,1,0.019685,0.013386,0,0,180.0*
21,1,0.009449,0.023622,0,0,180.0*
1,1,0.010236,-0.004724,0.006693*
1,1,0.010236,0.004724,0.006693*
1,1,0.010236,0.004724,-0.006693*
1,1,0.010236,-0.004724,-0.006693*
%
%ADD36ROUNDEDRECTD36*%
%TA.AperFunction,ComponentPad*%
%ADD44C,0.059055*%
%ADD45R,0.059055X0.059055*%
%ADD46C,0.130000*%
G04:AMPARAMS|DCode=47|XSize=74.803mil|YSize=59.055mil|CornerRadius=14.764mil|HoleSize=0mil|Usage=FLASHONLY|Rotation=0.000|XOffset=0mil|YOffset=0mil|HoleType=Round|Shape=RoundedRectangle|*
%AMROUNDEDRECTD47*
21,1,0.074803,0.029527,0,0,0.0*
21,1,0.045276,0.059055,0,0,0.0*
1,1,0.029528,0.022638,-0.014764*
1,1,0.029528,-0.022638,-0.014764*
1,1,0.029528,-0.022638,0.014764*
1,1,0.029528,0.022638,0.014764*
%
%ADD47ROUNDEDRECTD47*%
%ADD48O,0.047244X0.035433*%
D12*
X704466Y251454D02*
D03*
Y284918D02*
D03*
X548245Y436899D02*
D03*
Y470363D02*
D03*
X297177Y501380D02*
D03*
Y534845D02*
D03*
D13*
X589125Y129191D02*
D03*
X622590D02*
D03*
X864040Y381868D02*
D03*
X897505D02*
D03*
X951986D02*
D03*
X985451D02*
D03*
D14*
X514186Y316163D02*
D03*
X443320D02*
D03*
D15*
X629030Y389092D02*
D03*
Y469801D02*
D03*
X703439Y429447D02*
D03*
D16*
X1322382Y523954D02*
D03*
X1184587D02*
D03*
X1204272D02*
D03*
X1223957D02*
D03*
X1243642D02*
D03*
X1263327D02*
D03*
X1283012D02*
D03*
X1302697D02*
D03*
X1342067D02*
D03*
X1361752D02*
D03*
X1381437D02*
D03*
X1401122D02*
D03*
X1420807D02*
D03*
X1440492D02*
D03*
X1460177D02*
D03*
X1361752Y370411D02*
D03*
X1342067D02*
D03*
X1302697D02*
D03*
X1381437D02*
D03*
X1440492D02*
D03*
X1420807D02*
D03*
X1401122D02*
D03*
X1204272D02*
D03*
X1184587D02*
D03*
X1322382D02*
D03*
X1223957D02*
D03*
X1283012D02*
D03*
X1263327D02*
D03*
X1243642D02*
D03*
X1460177D02*
D03*
D17*
X561890Y826378D02*
D03*
X298110D02*
D03*
D18*
X469370Y600000D02*
D03*
X390630D02*
D03*
D19*
X724272Y538378D02*
D03*
X763642D02*
D03*
X803022D02*
D03*
X842392D02*
D03*
D20*
X673092Y683068D02*
D03*
X893572D02*
D03*
D21*
X394550Y298932D02*
D03*
Y334365D02*
D03*
X346687Y298932D02*
D03*
Y334365D02*
D03*
D22*
X758327Y412474D02*
D03*
Y475466D02*
D03*
X801635Y412474D02*
D03*
Y475466D02*
D03*
D23*
X758327Y434127D02*
D03*
Y453812D02*
D03*
X801635Y434127D02*
D03*
Y453812D02*
D03*
D24*
X955200Y168900D02*
D03*
Y195500D02*
D03*
X898200Y168500D02*
D03*
Y195100D02*
D03*
D25*
X841200Y170500D02*
D03*
Y195100D02*
D03*
X1012200Y170500D02*
D03*
Y195100D02*
D03*
D26*
X288582Y381577D02*
D03*
X1909612Y296567D02*
D03*
X288582Y442300D02*
D03*
X196850Y669685D02*
D03*
Y230506D02*
D03*
D27*
X566978Y182902D02*
D03*
Y284902D02*
D03*
X641781Y182902D02*
D03*
X604379Y284902D02*
D03*
X641781D02*
D03*
D28*
X367008Y394996D02*
D03*
Y469799D02*
D03*
X469008Y394996D02*
D03*
Y432397D02*
D03*
Y469799D02*
D03*
D29*
X864850Y435472D02*
D03*
Y455158D02*
D03*
Y474842D02*
D03*
Y494528D02*
D03*
X985150Y435472D02*
D03*
Y455158D02*
D03*
Y474842D02*
D03*
Y494528D02*
D03*
D30*
X100000Y324537D02*
D03*
Y575463D02*
D03*
D31*
Y495276D02*
D03*
Y404724D02*
D03*
D32*
X205315Y424409D02*
D03*
Y398819D02*
D03*
Y475591D02*
D03*
Y501181D02*
D03*
Y450000D02*
D03*
D33*
X303992Y142961D02*
D03*
Y263039D02*
D03*
X428008Y142961D02*
D03*
Y263039D02*
D03*
D34*
X284307Y203000D02*
D03*
X447693D02*
D03*
D35*
X986145Y622116D02*
D03*
Y692982D02*
D03*
D36*
X967901Y743387D02*
D03*
X1003334D02*
D03*
D44*
X1550000Y150000D02*
D03*
X1450000D02*
D03*
X1650000D02*
D03*
X750000Y850000D02*
D03*
X850000D02*
D03*
X950000D02*
D03*
X1150000D02*
D03*
X1250000D02*
D03*
X1050000D02*
D03*
X1650000D02*
D03*
X1750000D02*
D03*
X1350000D02*
D03*
X1550000D02*
D03*
X1450000D02*
D03*
X1250000Y50000D02*
D03*
X1150000D02*
D03*
X1350000D02*
D03*
X950000D02*
D03*
X850000D02*
D03*
X1050000D02*
D03*
X1650000D02*
D03*
X1450000D02*
D03*
X1550000D02*
D03*
X250000D02*
D03*
X350000D02*
D03*
X450000D02*
D03*
X550000D02*
D03*
X750000D02*
D03*
X650000D02*
D03*
D45*
X1750000Y150000D02*
D03*
X650000Y850000D02*
D03*
X1750000Y50000D02*
D03*
D46*
X1885847Y548048D02*
D03*
X1210847Y158048D02*
D03*
X100000Y800000D02*
D03*
X1900000Y100000D02*
D03*
Y800000D02*
D03*
X100000Y100000D02*
D03*
D47*
Y285630D02*
D03*
Y614370D02*
D03*
D48*
X218110Y362402D02*
D03*
Y537598D02*
D03*
%TF.MD5,06f843630c684d664b3ee6d849eb603b*%
M02*
