%TF.GenerationSoftware,Altium Limited,Altium Designer,20.1.11 (218)*%
G04 Layer_Color=8388736*
%FSLAX26Y26*%
%MOIN*%
%TF.SameCoordinates,3C5C7FA7-1F59-4671-A418-6E2A2DAA0BFA*%
%TF.FilePolarity,Negative*%
%TF.FileFunction,Soldermask,Top*%
%TF.Part,Single*%
G01*
G75*
%TA.AperFunction,SMDPad,CuDef*%
%ADD14R,0.031496X0.049000*%
%ADD15R,0.035000X0.032000*%
%ADD27R,0.020000X0.052000*%
%ADD28R,0.052000X0.020000*%
%ADD29R,0.029748X0.007843*%
%ADD35R,0.049000X0.031496*%
%TA.AperFunction,ComponentPad*%
%ADD56C,0.067055*%
%ADD57R,0.067055X0.067055*%
%ADD58C,0.138000*%
G04:AMPARAMS|DCode=59|XSize=82.803mil|YSize=67.055mil|CornerRadius=18.764mil|HoleSize=0mil|Usage=FLASHONLY|Rotation=0.000|XOffset=0mil|YOffset=0mil|HoleType=Round|Shape=RoundedRectangle|*
%AMROUNDEDRECTD59*
21,1,0.082803,0.029527,0,0,0.0*
21,1,0.045276,0.067055,0,0,0.0*
1,1,0.037528,0.022638,-0.014764*
1,1,0.037528,-0.022638,-0.014764*
1,1,0.037528,-0.022638,0.014764*
1,1,0.037528,0.022638,0.014764*
%
%ADD59ROUNDEDRECTD59*%
%ADD60O,0.055244X0.043433*%
%TA.AperFunction,ViaPad*%
%ADD61C,0.032000*%
%TA.AperFunction,NonConductor*%
%ADD66C,0.024000*%
%TA.AperFunction,SMDPad,CuDef*%
G04:AMPARAMS|DCode=67|XSize=31.228mil|YSize=33.197mil|CornerRadius=9.923mil|HoleSize=0mil|Usage=FLASHONLY|Rotation=270.000|XOffset=0mil|YOffset=0mil|HoleType=Round|Shape=RoundedRectangle|*
%AMROUNDEDRECTD67*
21,1,0.031228,0.013351,0,0,270.0*
21,1,0.011382,0.033197,0,0,270.0*
1,1,0.019846,-0.006675,-0.005691*
1,1,0.019846,-0.006675,0.005691*
1,1,0.019846,0.006675,0.005691*
1,1,0.019846,0.006675,-0.005691*
%
%ADD67ROUNDEDRECTD67*%
G04:AMPARAMS|DCode=68|XSize=31.228mil|YSize=33.197mil|CornerRadius=9.923mil|HoleSize=0mil|Usage=FLASHONLY|Rotation=180.000|XOffset=0mil|YOffset=0mil|HoleType=Round|Shape=RoundedRectangle|*
%AMROUNDEDRECTD68*
21,1,0.031228,0.013351,0,0,180.0*
21,1,0.011382,0.033197,0,0,180.0*
1,1,0.019846,-0.005691,0.006675*
1,1,0.019846,0.005691,0.006675*
1,1,0.019846,0.005691,-0.006675*
1,1,0.019846,-0.005691,-0.006675*
%
%ADD68ROUNDEDRECTD68*%
%ADD69R,0.013840X0.043370*%
%ADD70R,0.067055X0.141858*%
%ADD71R,0.047370X0.145795*%
%ADD72R,0.031620X0.061150*%
%ADD73R,0.055240X0.086740*%
G04:AMPARAMS|DCode=74|XSize=27.685mil|YSize=31.622mil|CornerRadius=9.118mil|HoleSize=0mil|Usage=FLASHONLY|Rotation=270.000|XOffset=0mil|YOffset=0mil|HoleType=Round|Shape=RoundedRectangle|*
%AMROUNDEDRECTD74*
21,1,0.027685,0.013386,0,0,270.0*
21,1,0.009449,0.031622,0,0,270.0*
1,1,0.018236,-0.006693,-0.004724*
1,1,0.018236,-0.006693,0.004724*
1,1,0.018236,0.006693,0.004724*
1,1,0.018236,0.006693,-0.004724*
%
%ADD74ROUNDEDRECTD74*%
G04:AMPARAMS|DCode=75|XSize=29.591mil|YSize=19.748mil|CornerRadius=5.937mil|HoleSize=0mil|Usage=FLASHONLY|Rotation=0.000|XOffset=0mil|YOffset=0mil|HoleType=Round|Shape=RoundedRectangle|*
%AMROUNDEDRECTD75*
21,1,0.029591,0.007874,0,0,0.0*
21,1,0.017717,0.019748,0,0,0.0*
1,1,0.011874,0.008858,-0.003937*
1,1,0.011874,-0.008858,-0.003937*
1,1,0.011874,-0.008858,0.003937*
1,1,0.011874,0.008858,0.003937*
%
%ADD75ROUNDEDRECTD75*%
G04:AMPARAMS|DCode=76|XSize=29.591mil|YSize=15.811mil|CornerRadius=4.953mil|HoleSize=0mil|Usage=FLASHONLY|Rotation=0.000|XOffset=0mil|YOffset=0mil|HoleType=Round|Shape=RoundedRectangle|*
%AMROUNDEDRECTD76*
21,1,0.029591,0.005905,0,0,0.0*
21,1,0.019685,0.015811,0,0,0.0*
1,1,0.009906,0.009842,-0.002953*
1,1,0.009906,-0.009842,-0.002953*
1,1,0.009906,-0.009842,0.002953*
1,1,0.009906,0.009842,0.002953*
%
%ADD76ROUNDEDRECTD76*%
%ADD77C,0.015874*%
%ADD78C,0.010000*%
%ADD79C,0.047370*%
%ADD80C,0.098425*%
%TA.AperFunction,ConnectorPad*%
G04:AMPARAMS|DCode=81|XSize=54.26mil|YSize=82.803mil|CornerRadius=15.565mil|HoleSize=0mil|Usage=FLASHONLY|Rotation=90.000|XOffset=0mil|YOffset=0mil|HoleType=Round|Shape=RoundedRectangle|*
%AMROUNDEDRECTD81*
21,1,0.054260,0.051673,0,0,90.0*
21,1,0.023130,0.082803,0,0,90.0*
1,1,0.031130,0.025837,0.011565*
1,1,0.031130,0.025837,-0.011565*
1,1,0.031130,-0.025837,-0.011565*
1,1,0.031130,-0.025837,0.011565*
%
%ADD81ROUNDEDRECTD81*%
G04:AMPARAMS|DCode=82|XSize=78.866mil|YSize=82.803mil|CornerRadius=21.716mil|HoleSize=0mil|Usage=FLASHONLY|Rotation=270.000|XOffset=0mil|YOffset=0mil|HoleType=Round|Shape=RoundedRectangle|*
%AMROUNDEDRECTD82*
21,1,0.078866,0.039370,0,0,270.0*
21,1,0.035433,0.082803,0,0,270.0*
1,1,0.043433,-0.019685,-0.017717*
1,1,0.043433,-0.019685,0.017717*
1,1,0.043433,0.019685,0.017717*
1,1,0.043433,0.019685,-0.017717*
%
%ADD82ROUNDEDRECTD82*%
G04:AMPARAMS|DCode=83|XSize=19.748mil|YSize=57.15mil|CornerRadius=5.937mil|HoleSize=0mil|Usage=FLASHONLY|Rotation=270.000|XOffset=0mil|YOffset=0mil|HoleType=Round|Shape=RoundedRectangle|*
%AMROUNDEDRECTD83*
21,1,0.019748,0.045276,0,0,270.0*
21,1,0.007874,0.057150,0,0,270.0*
1,1,0.011874,-0.022638,-0.003937*
1,1,0.011874,-0.022638,0.003937*
1,1,0.011874,0.022638,0.003937*
1,1,0.011874,0.022638,-0.003937*
%
%ADD83ROUNDEDRECTD83*%
%TA.AperFunction,SMDPad,CuDef*%
%ADD84R,0.053276X0.037528*%
%ADD85R,0.045402X0.063118*%
G04:AMPARAMS|DCode=86|XSize=27.685mil|YSize=31.622mil|CornerRadius=9.118mil|HoleSize=0mil|Usage=FLASHONLY|Rotation=180.000|XOffset=0mil|YOffset=0mil|HoleType=Round|Shape=RoundedRectangle|*
%AMROUNDEDRECTD86*
21,1,0.027685,0.013386,0,0,180.0*
21,1,0.009449,0.031622,0,0,180.0*
1,1,0.018236,-0.004724,0.006693*
1,1,0.018236,0.004724,0.006693*
1,1,0.018236,0.004724,-0.006693*
1,1,0.018236,-0.004724,-0.006693*
%
%ADD86ROUNDEDRECTD86*%
D14*
X514186Y316163D02*
D03*
X443320D02*
D03*
D15*
X629030Y389092D02*
D03*
Y469801D02*
D03*
X703439Y429447D02*
D03*
D27*
X566978Y182902D02*
D03*
Y284902D02*
D03*
X641781Y182902D02*
D03*
X604379Y284902D02*
D03*
X641781D02*
D03*
D28*
X367008Y394996D02*
D03*
Y469799D02*
D03*
X469008Y394996D02*
D03*
Y432397D02*
D03*
Y469799D02*
D03*
D29*
X864850Y435472D02*
D03*
Y455158D02*
D03*
Y474842D02*
D03*
Y494528D02*
D03*
X985150Y435472D02*
D03*
Y455158D02*
D03*
Y474842D02*
D03*
Y494528D02*
D03*
D35*
X986145Y622116D02*
D03*
Y692982D02*
D03*
D56*
X1550000Y150000D02*
D03*
X1450000D02*
D03*
X1650000D02*
D03*
X750000Y850000D02*
D03*
X850000D02*
D03*
X950000D02*
D03*
X1150000D02*
D03*
X1250000D02*
D03*
X1050000D02*
D03*
X1650000D02*
D03*
X1750000D02*
D03*
X1350000D02*
D03*
X1550000D02*
D03*
X1450000D02*
D03*
X1250000Y50000D02*
D03*
X1150000D02*
D03*
X1350000D02*
D03*
X950000D02*
D03*
X850000D02*
D03*
X1050000D02*
D03*
X1650000D02*
D03*
X1450000D02*
D03*
X1550000D02*
D03*
X250000D02*
D03*
X350000D02*
D03*
X450000D02*
D03*
X550000D02*
D03*
X750000D02*
D03*
X650000D02*
D03*
D57*
X1750000Y150000D02*
D03*
X650000Y850000D02*
D03*
X1750000Y50000D02*
D03*
D58*
X1885847Y548048D02*
D03*
X1210847Y158048D02*
D03*
X100000Y800000D02*
D03*
X1900000Y100000D02*
D03*
Y800000D02*
D03*
X100000Y100000D02*
D03*
D59*
Y285630D02*
D03*
Y614370D02*
D03*
D60*
X218110Y362402D02*
D03*
Y537598D02*
D03*
D61*
X1012000Y144000D02*
D03*
D66*
X966200Y181100D02*
G03*
X966200Y181100I-11000J0D01*
G01*
Y183300D02*
G03*
X966200Y183300I-11000J0D01*
G01*
X909200Y180700D02*
G03*
X909200Y180700I-11000J0D01*
G01*
Y182900D02*
G03*
X909200Y182900I-11000J0D01*
G01*
X852200Y182700D02*
G03*
X852200Y182700I-11000J0D01*
G01*
X1023200D02*
G03*
X1023200Y182700I-11000J0D01*
G01*
D67*
X704466Y251454D02*
D03*
Y284918D02*
D03*
X548245Y436899D02*
D03*
Y470363D02*
D03*
X297177Y501380D02*
D03*
Y534845D02*
D03*
D68*
X589125Y129191D02*
D03*
X622590D02*
D03*
X864040Y381868D02*
D03*
X897505D02*
D03*
X951986D02*
D03*
X985451D02*
D03*
D69*
X1322382Y523954D02*
D03*
X1184587D02*
D03*
X1204272D02*
D03*
X1223957D02*
D03*
X1243642D02*
D03*
X1263327D02*
D03*
X1283012D02*
D03*
X1302697D02*
D03*
X1342067D02*
D03*
X1361752D02*
D03*
X1381437D02*
D03*
X1401122D02*
D03*
X1420807D02*
D03*
X1440492D02*
D03*
X1460177D02*
D03*
X1361752Y370411D02*
D03*
X1342067D02*
D03*
X1302697D02*
D03*
X1381437D02*
D03*
X1440492D02*
D03*
X1420807D02*
D03*
X1401122D02*
D03*
X1204272D02*
D03*
X1184587D02*
D03*
X1322382D02*
D03*
X1223957D02*
D03*
X1283012D02*
D03*
X1263327D02*
D03*
X1243642D02*
D03*
X1460177D02*
D03*
D70*
X561890Y826378D02*
D03*
X298110D02*
D03*
D71*
X469370Y600000D02*
D03*
X390630D02*
D03*
D72*
X724272Y538378D02*
D03*
X763642D02*
D03*
X803022D02*
D03*
X842392D02*
D03*
D73*
X673092Y683068D02*
D03*
X893572D02*
D03*
D74*
X394550Y298932D02*
D03*
Y334365D02*
D03*
X346687Y298932D02*
D03*
Y334365D02*
D03*
D75*
X758327Y412474D02*
D03*
Y475466D02*
D03*
X801635Y412474D02*
D03*
Y475466D02*
D03*
D76*
X758327Y434127D02*
D03*
Y453812D02*
D03*
X801635Y434127D02*
D03*
Y453812D02*
D03*
D77*
X955200Y168900D02*
D03*
Y195500D02*
D03*
X898200Y168500D02*
D03*
Y195100D02*
D03*
D78*
X841200Y170500D02*
D03*
Y195100D02*
D03*
X1012200Y170500D02*
D03*
Y195100D02*
D03*
D79*
X288582Y381577D02*
D03*
Y442300D02*
D03*
D80*
X1909612Y296567D02*
D03*
X196850Y669685D02*
D03*
Y230506D02*
D03*
D81*
X100000Y324537D02*
D03*
Y575463D02*
D03*
D82*
Y495276D02*
D03*
Y404724D02*
D03*
D83*
X205315Y424409D02*
D03*
Y398819D02*
D03*
Y475591D02*
D03*
Y501181D02*
D03*
Y450000D02*
D03*
D84*
X303992Y142961D02*
D03*
Y263039D02*
D03*
X428008Y142961D02*
D03*
Y263039D02*
D03*
D85*
X284307Y203000D02*
D03*
X447693D02*
D03*
D86*
X967901Y743387D02*
D03*
X1003334D02*
D03*
%TF.MD5,edb96ecc8c85499597b90f6c490c0d0c*%
M02*
