%TF.GenerationSoftware,Altium Limited,Altium Designer,20.1.11 (218)*%
G04 Layer_Color=0*
%FSLAX26Y26*%
%MOIN*%
%TF.SameCoordinates,3C5C7FA7-1F59-4671-A418-6E2A2DAA0BFA*%
%TF.FilePolarity,Positive*%
%TF.FileFunction,Plated,1,2,PTH,Drill*%
%TF.Part,Single*%
G01*
G75*
%TA.AperFunction,ComponentDrill*%
%ADD91C,0.035433*%
%ADD92C,0.086614*%
%ADD93O,0.051181X0.023622*%
%ADD94O,0.033465X0.025591*%
%ADD95C,0.100000*%
%TA.AperFunction,ViaDrill,NotFilled*%
%ADD96C,0.012000*%
D91*
X1550000Y150000D02*
D03*
X1450000D02*
D03*
X1650000D02*
D03*
X1750000D02*
D03*
X650000Y850000D02*
D03*
X750000D02*
D03*
X850000D02*
D03*
X950000D02*
D03*
X1150000D02*
D03*
X1250000D02*
D03*
X1050000D02*
D03*
X1650000D02*
D03*
X1750000D02*
D03*
X1350000D02*
D03*
X1550000D02*
D03*
X1450000D02*
D03*
X1250000Y50000D02*
D03*
X1150000D02*
D03*
X1350000D02*
D03*
X950000D02*
D03*
X850000D02*
D03*
X1050000D02*
D03*
X1650000D02*
D03*
X1750000D02*
D03*
X1450000D02*
D03*
X1550000D02*
D03*
X250000D02*
D03*
X350000D02*
D03*
X450000D02*
D03*
X550000D02*
D03*
X750000D02*
D03*
X650000D02*
D03*
D92*
X1885847Y548048D02*
D03*
X1210847Y158048D02*
D03*
D93*
X100000Y285630D02*
D03*
Y614370D02*
D03*
D94*
X218110Y362402D02*
D03*
Y537598D02*
D03*
D95*
X100000Y800000D02*
D03*
X1900000Y100000D02*
D03*
Y800000D02*
D03*
X100000Y100000D02*
D03*
D96*
X1012000Y144000D02*
D03*
X1950000Y200000D02*
D03*
X1061000Y743000D02*
D03*
X200000Y125000D02*
D03*
X50000Y200000D02*
D03*
X325000Y700000D02*
D03*
X50000D02*
D03*
X225000Y825000D02*
D03*
X800000Y700000D02*
D03*
X1450000D02*
D03*
X1600000Y225000D02*
D03*
X1700000D02*
D03*
X1800000Y250000D02*
D03*
X1675000Y550000D02*
D03*
X1600000Y700000D02*
D03*
X1750000D02*
D03*
X1775000Y425000D02*
D03*
X1950000D02*
D03*
Y700000D02*
D03*
X1162830Y370541D02*
D03*
X951986Y412474D02*
D03*
X897505D02*
D03*
X1154000Y524034D02*
D03*
X985150Y523954D02*
D03*
X940203Y622116D02*
D03*
X874747Y538389D02*
D03*
X497852Y861477D02*
D03*
Y795000D02*
D03*
X365604D02*
D03*
Y861477D02*
D03*
X514186Y432397D02*
D03*
X740109Y251000D02*
D03*
X556638Y129191D02*
D03*
X399370Y199675D02*
D03*
X363853Y260551D02*
D03*
X238385Y310056D02*
D03*
X345000Y551576D02*
D03*
Y645025D02*
D03*
Y600000D02*
D03*
X297177Y574357D02*
D03*
X1549508Y523954D02*
D03*
X899321Y795561D02*
D03*
X725640Y186725D02*
D03*
X796047Y387549D02*
D03*
X831109Y370831D02*
D03*
X797025Y309000D02*
D03*
X724272Y595272D02*
D03*
X803000Y589000D02*
D03*
X943091Y743387D02*
D03*
X725000Y475466D02*
D03*
X840750Y143000D02*
D03*
X955161Y115000D02*
D03*
X670379Y204400D02*
D03*
X670000Y171414D02*
D03*
X670379Y138428D02*
D03*
X1067000Y223000D02*
D03*
X955650Y254800D02*
D03*
X898000Y255000D02*
D03*
X1314000Y189883D02*
D03*
Y152000D02*
D03*
X1440492Y413000D02*
D03*
X1493748Y370411D02*
D03*
X1226000Y734000D02*
D03*
X1197000Y758000D02*
D03*
X1280000Y783000D02*
D03*
X1312000Y811000D02*
D03*
X1132655Y622116D02*
D03*
X1289000Y630000D02*
D03*
Y600000D02*
D03*
X1494000Y523954D02*
D03*
X1440492Y574327D02*
D03*
X1003334Y777671D02*
D03*
X1159000Y479000D02*
D03*
X1163738Y623407D02*
D03*
X1197735Y561566D02*
D03*
X1102655Y622116D02*
D03*
X1301000Y332000D02*
D03*
X1271000D02*
D03*
X1241000D02*
D03*
X1211000D02*
D03*
X1120000Y444000D02*
D03*
X1440492Y461000D02*
D03*
X514186Y127915D02*
D03*
X1298000Y482387D02*
D03*
X1328000D02*
D03*
X833158Y422553D02*
D03*
X951986Y453378D02*
D03*
Y483378D02*
D03*
X832000Y454000D02*
D03*
X377508Y495000D02*
D03*
X345000D02*
D03*
X585000Y385000D02*
D03*
X550000D02*
D03*
%TF.MD5,9549d01d624cb8009d0eaf51b6725d2e*%
M02*
