%TF.GenerationSoftware,Altium Limited,Altium Designer,20.1.11 (218)*%
G04 Layer_Color=2752767*
%FSLAX26Y26*%
%MOIN*%
%TF.SameCoordinates,3C5C7FA7-1F59-4671-A418-6E2A2DAA0BFA*%
%TF.FilePolarity,Positive*%
%TF.FileFunction,Drawing*%
%TF.Part,Single*%
G01*
G75*
%TA.AperFunction,NonConductor*%
%ADD55C,0.010000*%
%ADD64C,0.005000*%
%ADD89C,0.001000*%
%ADD97C,0.003333*%
%ADD98C,0.015000*%
%ADD99C,0.016000*%
%ADD100C,0.014000*%
G36*
X2503109Y632870D02*
X2504331D01*
X2505886Y632647D01*
X2507553Y632536D01*
X2509441Y632314D01*
X2511441Y631981D01*
X2513663Y631648D01*
X2518218Y630648D01*
X2520662Y630092D01*
X2523107Y629314D01*
X2525662Y628537D01*
X2528106Y627537D01*
X2528217Y627426D01*
X2528662Y627315D01*
X2529328Y626981D01*
X2530328Y626537D01*
X2531439Y626092D01*
X2532772Y625426D01*
X2534217Y624648D01*
X2535883Y623870D01*
X2537661Y622982D01*
X2539438Y621982D01*
X2543327Y619760D01*
X2547326Y617205D01*
X2551104Y614427D01*
Y607650D01*
X2550993D01*
X2550771Y607872D01*
X2550437Y608094D01*
X2549993Y608317D01*
X2549326Y608650D01*
X2548660Y609094D01*
X2547771Y609539D01*
X2546771Y610094D01*
X2544549Y611316D01*
X2541771Y612649D01*
X2538772Y613983D01*
X2535328Y615538D01*
X2531661Y616982D01*
X2527773Y618316D01*
X2523551Y619649D01*
X2519218Y620871D01*
X2514774Y621871D01*
X2510108Y622648D01*
X2505442Y623093D01*
X2500664Y623315D01*
X2500553D01*
X2500220D01*
X2499664D01*
X2498998D01*
X2498109Y623204D01*
X2496998D01*
X2495887Y623093D01*
X2494554Y622982D01*
X2493110Y622871D01*
X2491554Y622760D01*
X2488332Y622315D01*
X2484777Y621760D01*
X2481111Y620982D01*
X2481000D01*
X2480778Y620871D01*
X2480333Y620760D01*
X2479778Y620649D01*
X2479111Y620426D01*
X2478222Y620204D01*
X2476222Y619649D01*
X2474000Y618982D01*
X2471445Y618093D01*
X2468668Y617093D01*
X2466001Y615982D01*
X2465890D01*
X2465779Y615871D01*
X2465446Y615760D01*
X2465112Y615538D01*
X2464557Y615316D01*
X2463890Y614982D01*
X2463224Y614649D01*
X2462224Y614205D01*
X2461224Y613649D01*
X2460113Y613094D01*
X2458780Y612427D01*
X2457335Y611649D01*
X2455780Y610761D01*
X2454113Y609872D01*
X2452225Y608761D01*
X2450225Y607650D01*
Y614427D01*
X2450336Y614538D01*
X2450780Y614871D01*
X2451558Y615316D01*
X2452447Y615982D01*
X2453669Y616871D01*
X2455113Y617760D01*
X2456669Y618760D01*
X2458446Y619871D01*
X2460446Y621093D01*
X2462557Y622204D01*
X2464668Y623426D01*
X2467001Y624648D01*
X2471778Y626870D01*
X2474334Y627981D01*
X2476778Y628870D01*
X2476889D01*
X2477333Y629092D01*
X2477889Y629203D01*
X2478778Y629537D01*
X2479778Y629870D01*
X2481000Y630203D01*
X2482444Y630537D01*
X2483999Y630981D01*
X2485777Y631314D01*
X2487666Y631648D01*
X2489554Y631981D01*
X2491665Y632314D01*
X2496109Y632759D01*
X2500664Y632981D01*
X2500776D01*
X2501331D01*
X2502109D01*
X2503109Y632870D01*
D02*
G37*
G36*
X2528439Y584208D02*
X2494665D01*
X2494554D01*
X2494443D01*
X2493665D01*
X2492665D01*
X2491443Y584097D01*
X2489999Y583986D01*
X2488555Y583763D01*
X2487221Y583430D01*
X2485999Y583097D01*
X2485888D01*
X2485555Y582875D01*
X2484999Y582541D01*
X2484333Y582208D01*
X2483666Y581653D01*
X2482888Y580986D01*
X2482111Y580097D01*
X2481444Y579097D01*
X2481333Y578986D01*
X2481111Y578653D01*
X2480889Y577986D01*
X2480555Y577208D01*
X2480222Y576320D01*
X2479889Y575209D01*
X2479778Y573875D01*
X2479666Y572542D01*
Y571987D01*
X2479778Y571542D01*
X2479889Y570431D01*
X2480111Y568987D01*
X2480666Y567432D01*
X2481333Y565654D01*
X2482222Y563876D01*
X2483555Y562210D01*
X2483777Y561988D01*
X2484333Y561543D01*
X2484777Y561210D01*
X2485333Y560877D01*
X2485999Y560432D01*
X2486777Y560099D01*
X2487666Y559655D01*
X2488777Y559210D01*
X2489999Y558877D01*
X2491332Y558544D01*
X2492776Y558322D01*
X2494332Y558099D01*
X2496220Y557877D01*
X2498109D01*
X2528439D01*
Y548434D01*
X2472667D01*
Y556877D01*
X2480666D01*
X2480555Y556988D01*
X2480222Y557211D01*
X2479778Y557544D01*
X2479222Y557988D01*
X2478555Y558655D01*
X2477778Y559433D01*
X2476889Y560321D01*
X2476000Y561432D01*
X2475222Y562543D01*
X2474334Y563876D01*
X2473556Y565321D01*
X2472889Y566876D01*
X2472334Y568654D01*
X2471890Y570431D01*
X2471556Y572431D01*
X2471445Y574542D01*
Y575431D01*
X2471556Y576320D01*
X2471667Y577542D01*
X2471890Y578986D01*
X2472223Y580542D01*
X2472667Y582208D01*
X2473334Y583763D01*
X2473445Y583986D01*
X2473667Y584430D01*
X2474000Y585208D01*
X2474556Y586096D01*
X2475222Y587207D01*
X2476111Y588207D01*
X2477000Y589207D01*
X2478111Y590096D01*
X2478222Y590207D01*
X2478667Y590429D01*
X2479222Y590763D01*
X2480000Y591318D01*
X2481111Y591763D01*
X2482222Y592207D01*
X2483555Y592763D01*
X2484999Y593096D01*
X2485110D01*
X2485555Y593207D01*
X2486221Y593318D01*
X2487110Y593429D01*
X2488443D01*
X2489999Y593540D01*
X2491887Y593651D01*
X2494221D01*
X2528439D01*
Y584208D01*
D02*
G37*
G36*
Y524547D02*
X2472667D01*
Y533991D01*
X2528439D01*
Y524547D01*
D02*
G37*
G36*
X2462335D02*
X2451558D01*
Y533991D01*
X2462335D01*
Y524547D01*
D02*
G37*
G36*
X2551104Y506771D02*
X2550993Y506660D01*
X2550659Y506438D01*
X2550104Y505993D01*
X2549326Y505438D01*
X2548437Y504771D01*
X2547326Y503994D01*
X2545993Y503105D01*
X2544549Y502216D01*
X2542882Y501105D01*
X2541105Y500105D01*
X2539216Y498994D01*
X2537216Y497883D01*
X2535105Y496772D01*
X2532883Y495661D01*
X2528106Y493550D01*
X2527995Y493439D01*
X2527551Y493328D01*
X2526773Y493106D01*
X2525773Y492772D01*
X2524551Y492328D01*
X2523218Y491884D01*
X2521551Y491439D01*
X2519662Y490884D01*
X2517774Y490439D01*
X2515552Y489884D01*
X2513330Y489440D01*
X2510997Y489106D01*
X2505886Y488440D01*
X2503331Y488329D01*
X2500664Y488217D01*
X2500553D01*
X2500109D01*
X2499442D01*
X2498553Y488329D01*
X2497443D01*
X2496109Y488440D01*
X2494665Y488551D01*
X2492999Y488773D01*
X2491221Y488884D01*
X2489332Y489217D01*
X2485333Y489884D01*
X2481111Y490884D01*
X2476778Y492217D01*
X2476667Y492328D01*
X2476222Y492439D01*
X2475445Y492661D01*
X2474445Y493106D01*
X2473334Y493550D01*
X2471890Y494217D01*
X2470223Y494995D01*
X2468445Y495772D01*
X2466557Y496772D01*
X2464446Y497772D01*
X2462224Y498994D01*
X2460002Y500327D01*
X2457558Y501772D01*
X2455113Y503327D01*
X2452669Y504993D01*
X2450225Y506771D01*
Y513548D01*
X2450336Y513437D01*
X2450669Y513326D01*
X2451225Y512993D01*
X2452003Y512548D01*
X2452891Y511993D01*
X2454002Y511437D01*
X2456336Y510104D01*
X2458891Y508660D01*
X2461446Y507327D01*
X2463890Y505993D01*
X2464890Y505549D01*
X2465890Y505105D01*
X2466001D01*
X2466223Y504993D01*
X2466557Y504771D01*
X2467112Y504549D01*
X2467779Y504327D01*
X2468557Y503994D01*
X2469445Y503660D01*
X2470445Y503327D01*
X2472778Y502438D01*
X2475334Y501661D01*
X2478111Y500883D01*
X2481000Y500105D01*
X2481111D01*
X2481444Y499994D01*
X2482000Y499883D01*
X2482666Y499772D01*
X2483555Y499550D01*
X2484666Y499438D01*
X2485777Y499216D01*
X2487110Y498994D01*
X2488555Y498772D01*
X2490110Y498550D01*
X2493443Y498216D01*
X2496998Y497994D01*
X2500664Y497883D01*
X2500776D01*
X2500998D01*
X2501331D01*
X2501775D01*
X2502442Y497994D01*
X2503109D01*
X2503997Y498105D01*
X2504997D01*
X2507330Y498327D01*
X2509997Y498661D01*
X2513108Y499216D01*
X2516441Y499883D01*
X2520107Y500661D01*
X2524106Y501661D01*
X2528328Y502994D01*
X2532661Y504549D01*
X2537105Y506327D01*
X2541771Y508327D01*
X2546438Y510771D01*
X2551104Y513548D01*
Y506771D01*
D02*
G37*
G36*
X2493998Y446555D02*
X2495332D01*
X2496776Y446444D01*
X2498331Y446333D01*
X2501887Y445999D01*
X2505553Y445444D01*
X2509108Y444777D01*
X2510774Y444333D01*
X2512441Y443777D01*
X2512552D01*
X2512774Y443666D01*
X2513219Y443444D01*
X2513774Y443222D01*
X2514552Y443000D01*
X2515330Y442555D01*
X2517218Y441666D01*
X2519218Y440555D01*
X2521440Y439111D01*
X2523440Y437445D01*
X2525329Y435445D01*
Y435334D01*
X2525551Y435223D01*
X2525773Y434889D01*
X2525995Y434445D01*
X2526329Y433889D01*
X2526773Y433334D01*
X2527551Y431668D01*
X2528328Y429668D01*
X2529106Y427335D01*
X2529550Y424557D01*
X2529773Y421557D01*
Y420446D01*
X2529662Y419669D01*
X2529550Y418780D01*
X2529328Y417669D01*
X2529106Y416447D01*
X2528773Y415114D01*
X2528328Y413780D01*
X2527884Y412336D01*
X2527217Y410892D01*
X2526440Y409447D01*
X2525551Y408003D01*
X2524440Y406559D01*
X2523218Y405226D01*
X2521885Y404004D01*
X2521773Y403892D01*
X2521440Y403670D01*
X2520885Y403337D01*
X2519996Y402781D01*
X2518996Y402226D01*
X2517663Y401671D01*
X2516107Y400893D01*
X2514330Y400226D01*
X2512330Y399560D01*
X2509997Y398893D01*
X2507441Y398226D01*
X2504553Y397671D01*
X2501442Y397115D01*
X2498109Y396782D01*
X2494443Y396560D01*
X2490554Y396449D01*
X2490443D01*
X2489999D01*
X2489221D01*
X2488332D01*
X2487110Y396560D01*
X2485777D01*
X2484333Y396671D01*
X2482666Y396782D01*
X2479222Y397115D01*
X2475556Y397671D01*
X2471890Y398337D01*
X2470223Y398782D01*
X2468557Y399226D01*
X2468445D01*
X2468223Y399337D01*
X2467779Y399560D01*
X2467223Y399782D01*
X2466446Y400004D01*
X2465668Y400448D01*
X2463779Y401337D01*
X2461779Y402448D01*
X2459669Y403892D01*
X2457558Y405559D01*
X2455780Y407559D01*
Y407670D01*
X2455558Y407781D01*
X2455336Y408114D01*
X2455113Y408559D01*
X2454669Y409114D01*
X2454336Y409781D01*
X2453447Y411447D01*
X2452669Y413447D01*
X2451892Y415780D01*
X2451447Y418558D01*
X2451225Y421557D01*
Y422557D01*
X2451336Y423779D01*
X2451558Y425224D01*
X2451892Y426890D01*
X2452336Y428668D01*
X2452891Y430557D01*
X2453780Y432334D01*
Y432445D01*
X2453891Y432556D01*
X2454225Y433112D01*
X2454780Y434001D01*
X2455558Y435112D01*
X2456669Y436334D01*
X2457891Y437667D01*
X2459335Y438889D01*
X2461002Y440111D01*
X2461224Y440222D01*
X2461779Y440667D01*
X2462779Y441111D01*
X2464224Y441889D01*
X2465890Y442555D01*
X2467779Y443444D01*
X2470001Y444222D01*
X2472445Y444888D01*
X2472556D01*
X2472778Y445000D01*
X2473112Y445111D01*
X2473667Y445222D01*
X2474334Y445333D01*
X2475111Y445444D01*
X2476111Y445666D01*
X2477222Y445777D01*
X2478444Y445999D01*
X2479778Y446111D01*
X2481333Y446222D01*
X2482888Y446444D01*
X2484666Y446555D01*
X2486444D01*
X2488443Y446666D01*
X2490554D01*
X2490665D01*
X2491110D01*
X2491887D01*
X2492776D01*
X2493998Y446555D01*
D02*
G37*
G36*
X2492110Y387116D02*
X2493554D01*
X2495220Y387005D01*
X2496887Y386783D01*
X2500664Y386450D01*
X2504664Y385894D01*
X2508441Y385117D01*
X2510330Y384561D01*
X2511997Y384006D01*
X2512108D01*
X2512330Y383894D01*
X2512774Y383672D01*
X2513441Y383450D01*
X2514108Y383117D01*
X2514996Y382672D01*
X2516885Y381561D01*
X2518996Y380228D01*
X2521218Y378673D01*
X2523329Y376673D01*
X2525218Y374451D01*
Y374340D01*
X2525440Y374118D01*
X2525662Y373784D01*
X2525884Y373340D01*
X2526217Y372673D01*
X2526662Y372007D01*
X2527106Y371118D01*
X2527439Y370229D01*
X2528328Y368118D01*
X2529106Y365563D01*
X2529550Y362786D01*
X2529773Y359675D01*
Y358786D01*
X2529662Y358230D01*
Y357453D01*
X2529550Y356564D01*
X2529106Y354453D01*
X2528550Y352120D01*
X2527662Y349676D01*
X2526440Y347231D01*
X2525662Y346009D01*
X2524773Y344898D01*
X2524662Y344787D01*
X2524551Y344676D01*
X2524218Y344343D01*
X2523884Y344010D01*
X2523329Y343565D01*
X2522662Y343010D01*
X2521107Y341899D01*
X2519107Y340788D01*
X2516663Y339677D01*
X2513885Y338788D01*
X2510663Y338121D01*
X2509886Y347231D01*
X2509997D01*
X2510219Y347343D01*
X2510441D01*
X2510886Y347454D01*
X2512108Y347787D01*
X2513441Y348231D01*
X2514996Y348787D01*
X2516552Y349565D01*
X2517996Y350453D01*
X2519218Y351564D01*
X2519329Y351675D01*
X2519662Y352120D01*
X2520107Y352898D01*
X2520551Y353786D01*
X2521107Y355009D01*
X2521551Y356453D01*
X2521885Y358119D01*
X2521996Y359897D01*
Y360675D01*
X2521885Y361452D01*
X2521773Y362452D01*
X2521551Y363674D01*
X2521218Y364896D01*
X2520773Y366230D01*
X2520107Y367452D01*
X2519996Y367563D01*
X2519774Y368007D01*
X2519329Y368674D01*
X2518663Y369340D01*
X2517885Y370229D01*
X2516996Y371118D01*
X2515996Y372007D01*
X2514774Y372896D01*
X2514663Y373007D01*
X2514108Y373229D01*
X2513330Y373673D01*
X2512330Y374118D01*
X2510997Y374673D01*
X2509441Y375229D01*
X2507664Y375784D01*
X2505664Y376340D01*
X2505553D01*
X2505442Y376451D01*
X2505108D01*
X2504664Y376562D01*
X2503553Y376784D01*
X2502109Y377117D01*
X2500331Y377340D01*
X2498442Y377562D01*
X2496331Y377673D01*
X2494110Y377784D01*
X2493998D01*
X2493665D01*
X2493110D01*
X2492221D01*
X2492443Y377673D01*
X2492999Y377228D01*
X2493776Y376562D01*
X2494887Y375784D01*
X2495998Y374673D01*
X2497220Y373340D01*
X2498442Y371785D01*
X2499553Y370007D01*
X2499664Y369785D01*
X2499998Y369118D01*
X2500442Y368118D01*
X2500887Y366896D01*
X2501442Y365230D01*
X2501887Y363452D01*
X2502220Y361452D01*
X2502331Y359341D01*
Y358453D01*
X2502220Y357786D01*
X2502109Y356897D01*
X2501998Y356008D01*
X2501775Y354897D01*
X2501442Y353786D01*
X2500664Y351231D01*
X2500109Y349898D01*
X2499442Y348565D01*
X2498665Y347120D01*
X2497665Y345787D01*
X2496665Y344454D01*
X2495443Y343232D01*
X2495332Y343121D01*
X2495109Y342899D01*
X2494776Y342676D01*
X2494221Y342232D01*
X2493443Y341676D01*
X2492665Y341121D01*
X2491665Y340565D01*
X2490554Y340010D01*
X2489332Y339343D01*
X2487999Y338788D01*
X2486444Y338232D01*
X2484888Y337677D01*
X2483111Y337233D01*
X2481222Y337010D01*
X2479333Y336788D01*
X2477222Y336677D01*
X2477111D01*
X2476667D01*
X2476111D01*
X2475334Y336788D01*
X2474334Y336899D01*
X2473112Y337010D01*
X2471890Y337233D01*
X2470445Y337566D01*
X2467557Y338344D01*
X2466001Y338899D01*
X2464335Y339566D01*
X2462779Y340343D01*
X2461335Y341343D01*
X2459780Y342343D01*
X2458446Y343565D01*
X2458335Y343676D01*
X2458113Y343899D01*
X2457780Y344232D01*
X2457335Y344787D01*
X2456780Y345454D01*
X2456113Y346343D01*
X2455558Y347231D01*
X2454780Y348342D01*
X2454113Y349454D01*
X2453558Y350787D01*
X2452336Y353786D01*
X2451892Y355342D01*
X2451558Y357119D01*
X2451336Y358897D01*
X2451225Y360786D01*
Y361563D01*
X2451336Y362119D01*
Y362674D01*
X2451447Y363452D01*
X2451780Y365341D01*
X2452225Y367452D01*
X2453003Y369785D01*
X2454002Y372118D01*
X2455336Y374451D01*
Y374562D01*
X2455558Y374673D01*
X2455780Y375007D01*
X2456113Y375451D01*
X2457002Y376562D01*
X2458224Y378006D01*
X2459891Y379450D01*
X2461890Y381117D01*
X2464224Y382561D01*
X2466890Y383894D01*
X2467001D01*
X2467223Y384006D01*
X2467668Y384228D01*
X2468223Y384450D01*
X2469001Y384672D01*
X2470001Y385005D01*
X2471112Y385228D01*
X2472334Y385561D01*
X2473778Y385894D01*
X2475445Y386228D01*
X2477222Y386450D01*
X2479111Y386672D01*
X2481222Y386894D01*
X2483444Y387116D01*
X2485888Y387228D01*
X2488443D01*
X2488555D01*
X2489110D01*
X2489888D01*
X2490888D01*
X2492110Y387116D01*
D02*
G37*
G36*
X2528439Y312124D02*
X2517663D01*
Y322901D01*
X2528439D01*
Y312124D01*
D02*
G37*
G36*
X2493998Y297125D02*
X2495332D01*
X2496776Y297014D01*
X2498331Y296903D01*
X2501887Y296570D01*
X2505553Y296014D01*
X2509108Y295348D01*
X2510774Y294903D01*
X2512441Y294348D01*
X2512552D01*
X2512774Y294237D01*
X2513219Y294015D01*
X2513774Y293792D01*
X2514552Y293570D01*
X2515330Y293126D01*
X2517218Y292237D01*
X2519218Y291126D01*
X2521440Y289682D01*
X2523440Y288015D01*
X2525329Y286015D01*
Y285904D01*
X2525551Y285793D01*
X2525773Y285460D01*
X2525995Y285015D01*
X2526329Y284460D01*
X2526773Y283904D01*
X2527551Y282238D01*
X2528328Y280238D01*
X2529106Y277905D01*
X2529550Y275128D01*
X2529773Y272128D01*
Y271017D01*
X2529662Y270239D01*
X2529550Y269350D01*
X2529328Y268239D01*
X2529106Y267017D01*
X2528773Y265684D01*
X2528328Y264351D01*
X2527884Y262907D01*
X2527217Y261462D01*
X2526440Y260018D01*
X2525551Y258574D01*
X2524440Y257129D01*
X2523218Y255796D01*
X2521885Y254574D01*
X2521773Y254463D01*
X2521440Y254241D01*
X2520885Y253907D01*
X2519996Y253352D01*
X2518996Y252797D01*
X2517663Y252241D01*
X2516107Y251463D01*
X2514330Y250797D01*
X2512330Y250130D01*
X2509997Y249464D01*
X2507441Y248797D01*
X2504553Y248241D01*
X2501442Y247686D01*
X2498109Y247353D01*
X2494443Y247130D01*
X2490554Y247019D01*
X2490443D01*
X2489999D01*
X2489221D01*
X2488332D01*
X2487110Y247130D01*
X2485777D01*
X2484333Y247242D01*
X2482666Y247353D01*
X2479222Y247686D01*
X2475556Y248241D01*
X2471890Y248908D01*
X2470223Y249352D01*
X2468557Y249797D01*
X2468445D01*
X2468223Y249908D01*
X2467779Y250130D01*
X2467223Y250352D01*
X2466446Y250575D01*
X2465668Y251019D01*
X2463779Y251908D01*
X2461779Y253019D01*
X2459669Y254463D01*
X2457558Y256130D01*
X2455780Y258129D01*
Y258240D01*
X2455558Y258351D01*
X2455336Y258685D01*
X2455113Y259129D01*
X2454669Y259685D01*
X2454336Y260351D01*
X2453447Y262018D01*
X2452669Y264018D01*
X2451892Y266351D01*
X2451447Y269128D01*
X2451225Y272128D01*
Y273128D01*
X2451336Y274350D01*
X2451558Y275794D01*
X2451892Y277461D01*
X2452336Y279238D01*
X2452891Y281127D01*
X2453780Y282905D01*
Y283016D01*
X2453891Y283127D01*
X2454225Y283682D01*
X2454780Y284571D01*
X2455558Y285682D01*
X2456669Y286904D01*
X2457891Y288237D01*
X2459335Y289459D01*
X2461002Y290682D01*
X2461224Y290793D01*
X2461779Y291237D01*
X2462779Y291682D01*
X2464224Y292459D01*
X2465890Y293126D01*
X2467779Y294015D01*
X2470001Y294792D01*
X2472445Y295459D01*
X2472556D01*
X2472778Y295570D01*
X2473112Y295681D01*
X2473667Y295792D01*
X2474334Y295903D01*
X2475111Y296014D01*
X2476111Y296237D01*
X2477222Y296348D01*
X2478444Y296570D01*
X2479778Y296681D01*
X2481333Y296792D01*
X2482888Y297014D01*
X2484666Y297125D01*
X2486444D01*
X2488443Y297236D01*
X2490554D01*
X2490665D01*
X2491110D01*
X2491887D01*
X2492776D01*
X2493998Y297125D01*
D02*
G37*
G36*
X1084768Y1182665D02*
X1075325D01*
Y1193442D01*
X1084768D01*
Y1182665D01*
D02*
G37*
G36*
X1127097Y1173444D02*
X1128320Y1173333D01*
X1129764Y1173111D01*
X1131319Y1172777D01*
X1132986Y1172333D01*
X1134541Y1171666D01*
X1134763Y1171555D01*
X1135208Y1171333D01*
X1135985Y1171000D01*
X1136874Y1170444D01*
X1137985Y1169777D01*
X1138985Y1168889D01*
X1139985Y1168000D01*
X1140874Y1166889D01*
X1140985Y1166778D01*
X1141207Y1166333D01*
X1141540Y1165778D01*
X1142096Y1165000D01*
X1142540Y1163889D01*
X1142985Y1162778D01*
X1143540Y1161445D01*
X1143873Y1160001D01*
Y1159890D01*
X1143985Y1159445D01*
X1144096Y1158779D01*
X1144207Y1157890D01*
Y1156557D01*
X1144318Y1155001D01*
X1144429Y1153112D01*
Y1150779D01*
Y1116561D01*
X1134986D01*
Y1150335D01*
Y1150446D01*
Y1150557D01*
Y1151335D01*
Y1152335D01*
X1134874Y1153557D01*
X1134763Y1155001D01*
X1134541Y1156446D01*
X1134208Y1157779D01*
X1133874Y1159001D01*
Y1159112D01*
X1133652Y1159445D01*
X1133319Y1160001D01*
X1132986Y1160667D01*
X1132430Y1161334D01*
X1131764Y1162112D01*
X1130875Y1162889D01*
X1129875Y1163556D01*
X1129764Y1163667D01*
X1129430Y1163889D01*
X1128764Y1164111D01*
X1127986Y1164445D01*
X1127097Y1164778D01*
X1125986Y1165111D01*
X1124653Y1165222D01*
X1123320Y1165333D01*
X1122764D01*
X1122320Y1165222D01*
X1121209Y1165111D01*
X1119765Y1164889D01*
X1118209Y1164334D01*
X1116432Y1163667D01*
X1114654Y1162778D01*
X1112988Y1161445D01*
X1112765Y1161223D01*
X1112321Y1160667D01*
X1111988Y1160223D01*
X1111655Y1159667D01*
X1111210Y1159001D01*
X1110877Y1158223D01*
X1110432Y1157334D01*
X1109988Y1156223D01*
X1109655Y1155001D01*
X1109321Y1153668D01*
X1109099Y1152224D01*
X1108877Y1150668D01*
X1108655Y1148780D01*
Y1146891D01*
Y1116561D01*
X1099211D01*
Y1172333D01*
X1107655D01*
Y1164334D01*
X1107766Y1164445D01*
X1107988Y1164778D01*
X1108322Y1165222D01*
X1108766Y1165778D01*
X1109432Y1166445D01*
X1110210Y1167222D01*
X1111099Y1168111D01*
X1112210Y1169000D01*
X1113321Y1169777D01*
X1114654Y1170666D01*
X1116099Y1171444D01*
X1117654Y1172111D01*
X1119431Y1172666D01*
X1121209Y1173111D01*
X1123209Y1173444D01*
X1125320Y1173555D01*
X1126209D01*
X1127097Y1173444D01*
D02*
G37*
G36*
X1084768Y1116561D02*
X1075325D01*
Y1172333D01*
X1084768D01*
Y1116561D01*
D02*
G37*
G36*
X873678D02*
X862902D01*
Y1127337D01*
X873678D01*
Y1116561D01*
D02*
G37*
G36*
X825128Y1193664D02*
X826016Y1193553D01*
X827127Y1193442D01*
X828350Y1193220D01*
X829572Y1192997D01*
X832460Y1192220D01*
X835349Y1191109D01*
X836793Y1190442D01*
X838237Y1189664D01*
X839571Y1188665D01*
X840793Y1187553D01*
X840904Y1187442D01*
X841126Y1187331D01*
X841348Y1186887D01*
X841793Y1186443D01*
X842348Y1185887D01*
X842904Y1185109D01*
X843459Y1184332D01*
X844126Y1183332D01*
X845237Y1181221D01*
X846348Y1178554D01*
X846792Y1177221D01*
X847014Y1175666D01*
X847236Y1174110D01*
X847348Y1172444D01*
Y1172222D01*
Y1171666D01*
X847236Y1170777D01*
X847125Y1169555D01*
X846903Y1168222D01*
X846459Y1166667D01*
X846014Y1165000D01*
X845348Y1163334D01*
X845237Y1163111D01*
X845014Y1162556D01*
X844570Y1161667D01*
X843904Y1160445D01*
X843015Y1159112D01*
X841904Y1157445D01*
X840571Y1155779D01*
X839015Y1153890D01*
X838793Y1153668D01*
X838237Y1153001D01*
X837682Y1152446D01*
X837126Y1151890D01*
X836460Y1151224D01*
X835571Y1150335D01*
X834682Y1149446D01*
X833571Y1148446D01*
X832460Y1147335D01*
X831127Y1146113D01*
X829683Y1144891D01*
X828127Y1143447D01*
X826350Y1142003D01*
X824572Y1140447D01*
X824461Y1140336D01*
X824239Y1140114D01*
X823794Y1139781D01*
X823239Y1139336D01*
X822572Y1138669D01*
X821795Y1138003D01*
X820017Y1136559D01*
X818128Y1134892D01*
X816351Y1133226D01*
X814795Y1131781D01*
X814129Y1131226D01*
X813573Y1130670D01*
X813462Y1130559D01*
X813129Y1130226D01*
X812684Y1129782D01*
X812129Y1129115D01*
X811573Y1128337D01*
X810907Y1127560D01*
X809574Y1125671D01*
X847459D01*
Y1116561D01*
X796464D01*
Y1116672D01*
Y1117116D01*
Y1117783D01*
X796575Y1118671D01*
X796686Y1119671D01*
X796908Y1120782D01*
X797130Y1121893D01*
X797575Y1123116D01*
Y1123227D01*
X797686Y1123338D01*
X797908Y1124004D01*
X798352Y1125004D01*
X799019Y1126337D01*
X799908Y1127893D01*
X801019Y1129670D01*
X802241Y1131448D01*
X803796Y1133337D01*
Y1133448D01*
X804019Y1133559D01*
X804574Y1134226D01*
X805574Y1135225D01*
X807018Y1136670D01*
X808685Y1138336D01*
X810796Y1140336D01*
X813351Y1142558D01*
X816129Y1144891D01*
X816240Y1145002D01*
X816684Y1145335D01*
X817351Y1145891D01*
X818128Y1146558D01*
X819128Y1147446D01*
X820350Y1148446D01*
X821572Y1149557D01*
X823017Y1150779D01*
X825794Y1153446D01*
X828572Y1156112D01*
X829905Y1157445D01*
X831127Y1158779D01*
X832238Y1160001D01*
X833127Y1161223D01*
Y1161334D01*
X833349Y1161445D01*
X833571Y1161778D01*
X833793Y1162223D01*
X834571Y1163445D01*
X835460Y1164889D01*
X836238Y1166667D01*
X837015Y1168555D01*
X837460Y1170666D01*
X837682Y1172666D01*
Y1172777D01*
Y1172888D01*
X837571Y1173555D01*
X837460Y1174666D01*
X837126Y1175888D01*
X836682Y1177443D01*
X835904Y1178999D01*
X834904Y1180554D01*
X833571Y1182110D01*
X833349Y1182332D01*
X832793Y1182776D01*
X832016Y1183332D01*
X830794Y1184109D01*
X829238Y1184776D01*
X827461Y1185443D01*
X825350Y1185887D01*
X823017Y1185998D01*
X822350D01*
X821906Y1185887D01*
X820572Y1185776D01*
X819017Y1185443D01*
X817351Y1184998D01*
X815462Y1184220D01*
X813684Y1183221D01*
X812018Y1181887D01*
X811796Y1181665D01*
X811351Y1181110D01*
X810685Y1180221D01*
X810018Y1178888D01*
X809240Y1177332D01*
X808574Y1175332D01*
X808129Y1173111D01*
X807907Y1170555D01*
X798241Y1171555D01*
Y1171666D01*
X798352Y1171999D01*
Y1172555D01*
X798464Y1173333D01*
X798686Y1174222D01*
X798908Y1175221D01*
X799241Y1176444D01*
X799575Y1177666D01*
X800463Y1180332D01*
X801797Y1182998D01*
X802574Y1184332D01*
X803574Y1185665D01*
X804574Y1186887D01*
X805685Y1187998D01*
X805796Y1188109D01*
X806018Y1188220D01*
X806352Y1188553D01*
X806907Y1188887D01*
X807574Y1189331D01*
X808351Y1189775D01*
X809240Y1190331D01*
X810351Y1190887D01*
X811573Y1191442D01*
X812907Y1191997D01*
X814351Y1192442D01*
X815906Y1192886D01*
X817573Y1193220D01*
X819350Y1193553D01*
X821239Y1193664D01*
X823239Y1193775D01*
X824350D01*
X825128Y1193664D01*
D02*
G37*
G36*
X974557D02*
X976001Y1193442D01*
X977668Y1193109D01*
X979446Y1192664D01*
X981334Y1192109D01*
X983112Y1191220D01*
X983223D01*
X983334Y1191109D01*
X983889Y1190775D01*
X984778Y1190220D01*
X985889Y1189442D01*
X987111Y1188331D01*
X988445Y1187109D01*
X989667Y1185665D01*
X990889Y1183998D01*
X991000Y1183776D01*
X991444Y1183221D01*
X991889Y1182221D01*
X992666Y1180776D01*
X993333Y1179110D01*
X994222Y1177221D01*
X995000Y1174999D01*
X995666Y1172555D01*
Y1172444D01*
X995777Y1172222D01*
X995888Y1171888D01*
X995999Y1171333D01*
X996111Y1170666D01*
X996222Y1169889D01*
X996444Y1168889D01*
X996555Y1167778D01*
X996777Y1166556D01*
X996888Y1165222D01*
X996999Y1163667D01*
X997221Y1162112D01*
X997333Y1160334D01*
Y1158556D01*
X997444Y1156557D01*
Y1154446D01*
Y1154335D01*
Y1153890D01*
Y1153112D01*
Y1152224D01*
X997333Y1151002D01*
Y1149668D01*
X997221Y1148224D01*
X997110Y1146669D01*
X996777Y1143113D01*
X996222Y1139447D01*
X995555Y1135892D01*
X995111Y1134226D01*
X994555Y1132559D01*
Y1132448D01*
X994444Y1132226D01*
X994222Y1131781D01*
X994000Y1131226D01*
X993777Y1130448D01*
X993333Y1129670D01*
X992444Y1127782D01*
X991333Y1125782D01*
X989889Y1123560D01*
X988222Y1121560D01*
X986223Y1119671D01*
X986111D01*
X986000Y1119449D01*
X985667Y1119227D01*
X985223Y1119005D01*
X984667Y1118671D01*
X984112Y1118227D01*
X982445Y1117449D01*
X980445Y1116672D01*
X978112Y1115894D01*
X975335Y1115450D01*
X972335Y1115227D01*
X971224D01*
X970446Y1115339D01*
X969558Y1115450D01*
X968447Y1115672D01*
X967225Y1115894D01*
X965891Y1116227D01*
X964558Y1116672D01*
X963114Y1117116D01*
X961669Y1117783D01*
X960225Y1118560D01*
X958781Y1119449D01*
X957337Y1120560D01*
X956003Y1121782D01*
X954781Y1123116D01*
X954670Y1123227D01*
X954448Y1123560D01*
X954115Y1124115D01*
X953559Y1125004D01*
X953004Y1126004D01*
X952448Y1127337D01*
X951670Y1128893D01*
X951004Y1130670D01*
X950337Y1132670D01*
X949671Y1135003D01*
X949004Y1137559D01*
X948449Y1140447D01*
X947893Y1143558D01*
X947560Y1146891D01*
X947338Y1150557D01*
X947226Y1154446D01*
Y1154557D01*
Y1155001D01*
Y1155779D01*
Y1156668D01*
X947338Y1157890D01*
Y1159223D01*
X947449Y1160667D01*
X947560Y1162334D01*
X947893Y1165778D01*
X948449Y1169444D01*
X949115Y1173111D01*
X949560Y1174777D01*
X950004Y1176444D01*
Y1176555D01*
X950115Y1176777D01*
X950337Y1177221D01*
X950559Y1177777D01*
X950782Y1178554D01*
X951226Y1179332D01*
X952115Y1181221D01*
X953226Y1183221D01*
X954670Y1185332D01*
X956337Y1187442D01*
X958337Y1189220D01*
X958448D01*
X958559Y1189442D01*
X958892Y1189664D01*
X959336Y1189887D01*
X959892Y1190331D01*
X960558Y1190664D01*
X962225Y1191553D01*
X964225Y1192331D01*
X966558Y1193109D01*
X969335Y1193553D01*
X972335Y1193775D01*
X973335D01*
X974557Y1193664D01*
D02*
G37*
G36*
X914785D02*
X916230Y1193442D01*
X917896Y1193109D01*
X919674Y1192664D01*
X921562Y1192109D01*
X923340Y1191220D01*
X923451D01*
X923562Y1191109D01*
X924118Y1190775D01*
X925006Y1190220D01*
X926117Y1189442D01*
X927340Y1188331D01*
X928673Y1187109D01*
X929895Y1185665D01*
X931117Y1183998D01*
X931228Y1183776D01*
X931673Y1183221D01*
X932117Y1182221D01*
X932895Y1180776D01*
X933561Y1179110D01*
X934450Y1177221D01*
X935228Y1174999D01*
X935894Y1172555D01*
Y1172444D01*
X936005Y1172222D01*
X936116Y1171888D01*
X936228Y1171333D01*
X936339Y1170666D01*
X936450Y1169889D01*
X936672Y1168889D01*
X936783Y1167778D01*
X937005Y1166556D01*
X937116Y1165222D01*
X937227Y1163667D01*
X937450Y1162112D01*
X937561Y1160334D01*
Y1158556D01*
X937672Y1156557D01*
Y1154446D01*
Y1154335D01*
Y1153890D01*
Y1153112D01*
Y1152224D01*
X937561Y1151002D01*
Y1149668D01*
X937450Y1148224D01*
X937339Y1146669D01*
X937005Y1143113D01*
X936450Y1139447D01*
X935783Y1135892D01*
X935339Y1134226D01*
X934783Y1132559D01*
Y1132448D01*
X934672Y1132226D01*
X934450Y1131781D01*
X934228Y1131226D01*
X934006Y1130448D01*
X933561Y1129670D01*
X932672Y1127782D01*
X931561Y1125782D01*
X930117Y1123560D01*
X928451Y1121560D01*
X926451Y1119671D01*
X926340D01*
X926229Y1119449D01*
X925895Y1119227D01*
X925451Y1119005D01*
X924895Y1118671D01*
X924340Y1118227D01*
X922673Y1117449D01*
X920674Y1116672D01*
X918341Y1115894D01*
X915563Y1115450D01*
X912563Y1115227D01*
X911452D01*
X910675Y1115339D01*
X909786Y1115450D01*
X908675Y1115672D01*
X907453Y1115894D01*
X906120Y1116227D01*
X904786Y1116672D01*
X903342Y1117116D01*
X901898Y1117783D01*
X900453Y1118560D01*
X899009Y1119449D01*
X897565Y1120560D01*
X896232Y1121782D01*
X895010Y1123116D01*
X894898Y1123227D01*
X894676Y1123560D01*
X894343Y1124115D01*
X893787Y1125004D01*
X893232Y1126004D01*
X892676Y1127337D01*
X891899Y1128893D01*
X891232Y1130670D01*
X890566Y1132670D01*
X889899Y1135003D01*
X889232Y1137559D01*
X888677Y1140447D01*
X888121Y1143558D01*
X887788Y1146891D01*
X887566Y1150557D01*
X887455Y1154446D01*
Y1154557D01*
Y1155001D01*
Y1155779D01*
Y1156668D01*
X887566Y1157890D01*
Y1159223D01*
X887677Y1160667D01*
X887788Y1162334D01*
X888121Y1165778D01*
X888677Y1169444D01*
X889343Y1173111D01*
X889788Y1174777D01*
X890232Y1176444D01*
Y1176555D01*
X890343Y1176777D01*
X890566Y1177221D01*
X890788Y1177777D01*
X891010Y1178554D01*
X891454Y1179332D01*
X892343Y1181221D01*
X893454Y1183221D01*
X894898Y1185332D01*
X896565Y1187442D01*
X898565Y1189220D01*
X898676D01*
X898787Y1189442D01*
X899120Y1189664D01*
X899565Y1189887D01*
X900120Y1190331D01*
X900787Y1190664D01*
X902453Y1191553D01*
X904453Y1192331D01*
X906786Y1193109D01*
X909564Y1193553D01*
X912563Y1193775D01*
X913563D01*
X914785Y1193664D01*
D02*
G37*
G36*
X1165316Y1194664D02*
X1165649Y1194219D01*
X1166093Y1193442D01*
X1166760Y1192553D01*
X1167649Y1191331D01*
X1168538Y1189887D01*
X1169538Y1188331D01*
X1170649Y1186554D01*
X1171871Y1184554D01*
X1172982Y1182443D01*
X1174204Y1180332D01*
X1175426Y1177999D01*
X1177648Y1173222D01*
X1178759Y1170666D01*
X1179648Y1168222D01*
Y1168111D01*
X1179870Y1167667D01*
X1179981Y1167111D01*
X1180314Y1166222D01*
X1180648Y1165222D01*
X1180981Y1164000D01*
X1181314Y1162556D01*
X1181759Y1161001D01*
X1182092Y1159223D01*
X1182425Y1157334D01*
X1182758Y1155446D01*
X1183092Y1153335D01*
X1183536Y1148891D01*
X1183758Y1144336D01*
Y1144225D01*
Y1143669D01*
Y1142891D01*
X1183647Y1141891D01*
Y1140669D01*
X1183425Y1139114D01*
X1183314Y1137447D01*
X1183092Y1135559D01*
X1182758Y1133559D01*
X1182425Y1131337D01*
X1181425Y1126782D01*
X1180870Y1124338D01*
X1180092Y1121893D01*
X1179314Y1119338D01*
X1178314Y1116894D01*
X1178203Y1116783D01*
X1178092Y1116338D01*
X1177759Y1115672D01*
X1177315Y1114672D01*
X1176870Y1113561D01*
X1176204Y1112228D01*
X1175426Y1110783D01*
X1174648Y1109117D01*
X1173759Y1107339D01*
X1172759Y1105562D01*
X1170537Y1101673D01*
X1167982Y1097674D01*
X1165205Y1093896D01*
X1158428D01*
Y1094007D01*
X1158650Y1094229D01*
X1158872Y1094563D01*
X1159094Y1095007D01*
X1159428Y1095674D01*
X1159872Y1096340D01*
X1160316Y1097229D01*
X1160872Y1098229D01*
X1162094Y1100451D01*
X1163427Y1103229D01*
X1164760Y1106228D01*
X1166316Y1109672D01*
X1167760Y1113339D01*
X1169093Y1117227D01*
X1170426Y1121449D01*
X1171649Y1125782D01*
X1172648Y1130226D01*
X1173426Y1134892D01*
X1173870Y1139558D01*
X1174093Y1144336D01*
Y1144447D01*
Y1144780D01*
Y1145335D01*
Y1146002D01*
X1173982Y1146891D01*
Y1148002D01*
X1173870Y1149113D01*
X1173759Y1150446D01*
X1173648Y1151890D01*
X1173537Y1153446D01*
X1173093Y1156668D01*
X1172537Y1160223D01*
X1171760Y1163889D01*
Y1164000D01*
X1171649Y1164223D01*
X1171537Y1164667D01*
X1171426Y1165222D01*
X1171204Y1165889D01*
X1170982Y1166778D01*
X1170426Y1168778D01*
X1169760Y1171000D01*
X1168871Y1173555D01*
X1167871Y1176332D01*
X1166760Y1178999D01*
Y1179110D01*
X1166649Y1179221D01*
X1166538Y1179554D01*
X1166316Y1179888D01*
X1166093Y1180443D01*
X1165760Y1181110D01*
X1165427Y1181776D01*
X1164983Y1182776D01*
X1164427Y1183776D01*
X1163871Y1184887D01*
X1163205Y1186220D01*
X1162427Y1187665D01*
X1161538Y1189220D01*
X1160650Y1190887D01*
X1159539Y1192775D01*
X1158428Y1194775D01*
X1165205D01*
X1165316Y1194664D01*
D02*
G37*
G36*
X1064215D02*
X1064104Y1194331D01*
X1063770Y1193775D01*
X1063326Y1192997D01*
X1062771Y1192109D01*
X1062215Y1190998D01*
X1060882Y1188665D01*
X1059438Y1186109D01*
X1058104Y1183554D01*
X1056771Y1181110D01*
X1056327Y1180110D01*
X1055882Y1179110D01*
Y1178999D01*
X1055771Y1178777D01*
X1055549Y1178443D01*
X1055327Y1177888D01*
X1055105Y1177221D01*
X1054771Y1176444D01*
X1054438Y1175555D01*
X1054105Y1174555D01*
X1053216Y1172222D01*
X1052438Y1169666D01*
X1051660Y1166889D01*
X1050883Y1164000D01*
Y1163889D01*
X1050772Y1163556D01*
X1050661Y1163000D01*
X1050550Y1162334D01*
X1050327Y1161445D01*
X1050216Y1160334D01*
X1049994Y1159223D01*
X1049772Y1157890D01*
X1049550Y1156446D01*
X1049327Y1154890D01*
X1048994Y1151557D01*
X1048772Y1148002D01*
X1048661Y1144336D01*
Y1144225D01*
Y1144002D01*
Y1143669D01*
Y1143225D01*
X1048772Y1142558D01*
Y1141891D01*
X1048883Y1141003D01*
Y1140003D01*
X1049105Y1137670D01*
X1049438Y1135003D01*
X1049994Y1131892D01*
X1050661Y1128559D01*
X1051438Y1124893D01*
X1052438Y1120893D01*
X1053771Y1116672D01*
X1055327Y1112339D01*
X1057104Y1107895D01*
X1059104Y1103229D01*
X1061548Y1098562D01*
X1064326Y1093896D01*
X1057549D01*
X1057438Y1094007D01*
X1057216Y1094341D01*
X1056771Y1094896D01*
X1056216Y1095674D01*
X1055549Y1096563D01*
X1054771Y1097674D01*
X1053882Y1099007D01*
X1052994Y1100451D01*
X1051883Y1102118D01*
X1050883Y1103895D01*
X1049772Y1105784D01*
X1048661Y1107784D01*
X1047550Y1109895D01*
X1046439Y1112117D01*
X1044328Y1116894D01*
X1044217Y1117005D01*
X1044106Y1117449D01*
X1043883Y1118227D01*
X1043550Y1119227D01*
X1043106Y1120449D01*
X1042661Y1121782D01*
X1042217Y1123449D01*
X1041661Y1125338D01*
X1041217Y1127226D01*
X1040662Y1129448D01*
X1040217Y1131670D01*
X1039884Y1134003D01*
X1039217Y1139114D01*
X1039106Y1141669D01*
X1038995Y1144336D01*
Y1144447D01*
Y1144891D01*
Y1145558D01*
X1039106Y1146447D01*
Y1147557D01*
X1039217Y1148891D01*
X1039328Y1150335D01*
X1039551Y1152002D01*
X1039662Y1153779D01*
X1039995Y1155668D01*
X1040662Y1159667D01*
X1041661Y1163889D01*
X1042995Y1168222D01*
X1043106Y1168333D01*
X1043217Y1168778D01*
X1043439Y1169555D01*
X1043883Y1170555D01*
X1044328Y1171666D01*
X1044995Y1173111D01*
X1045772Y1174777D01*
X1046550Y1176555D01*
X1047550Y1178443D01*
X1048550Y1180554D01*
X1049772Y1182776D01*
X1051105Y1184998D01*
X1052549Y1187442D01*
X1054105Y1189887D01*
X1055771Y1192331D01*
X1057549Y1194775D01*
X1064326D01*
X1064215Y1194664D01*
D02*
G37*
%LPC*%
G36*
X2493998Y437000D02*
X2490554D01*
X2490443D01*
X2490332D01*
X2489777D01*
X2488777D01*
X2487443Y436889D01*
X2485999D01*
X2484222Y436778D01*
X2482333Y436667D01*
X2480222Y436445D01*
X2476000Y435889D01*
X2473889Y435556D01*
X2471890Y435112D01*
X2470001Y434667D01*
X2468223Y434001D01*
X2466668Y433334D01*
X2465335Y432556D01*
X2465224D01*
X2465112Y432334D01*
X2464779Y432112D01*
X2464335Y431779D01*
X2463335Y430779D01*
X2462113Y429557D01*
X2461002Y427890D01*
X2460002Y426001D01*
X2459557Y425002D01*
X2459224Y423890D01*
X2459113Y422668D01*
X2459002Y421446D01*
Y420780D01*
X2459113Y420335D01*
X2459335Y419113D01*
X2459669Y417669D01*
X2460335Y416002D01*
X2461335Y414225D01*
X2462002Y413336D01*
X2462668Y412447D01*
X2463557Y411670D01*
X2464557Y410892D01*
X2464668D01*
X2464890Y410670D01*
X2465335Y410447D01*
X2465890Y410114D01*
X2466779Y409781D01*
X2467779Y409336D01*
X2469001Y409003D01*
X2470445Y408559D01*
X2472112Y408114D01*
X2474000Y407670D01*
X2476111Y407226D01*
X2478444Y406892D01*
X2481111Y406559D01*
X2483999Y406337D01*
X2487110Y406226D01*
X2490554Y406115D01*
X2490776D01*
X2491332D01*
X2492332D01*
X2493665Y406226D01*
X2495109D01*
X2496887Y406337D01*
X2498776Y406448D01*
X2500776Y406670D01*
X2505108Y407226D01*
X2507219Y407559D01*
X2509219Y408003D01*
X2511108Y408448D01*
X2512885Y409114D01*
X2514441Y409781D01*
X2515774Y410558D01*
X2515885D01*
X2515996Y410781D01*
X2516774Y411336D01*
X2517774Y412336D01*
X2518885Y413558D01*
X2519996Y415225D01*
X2520996Y417113D01*
X2521773Y419224D01*
X2521885Y420335D01*
X2521996Y421557D01*
Y422224D01*
X2521885Y422668D01*
X2521662Y423779D01*
X2521218Y425335D01*
X2520440Y427001D01*
X2519329Y428890D01*
X2518663Y429779D01*
X2517774Y430668D01*
X2516885Y431556D01*
X2515774Y432445D01*
X2515663D01*
X2515441Y432667D01*
X2515107Y432890D01*
X2514552Y433112D01*
X2513774Y433556D01*
X2512774Y433889D01*
X2511663Y434334D01*
X2510330Y434778D01*
X2508664Y435112D01*
X2506886Y435556D01*
X2504775Y436000D01*
X2502553Y436334D01*
X2499887Y436556D01*
X2497109Y436778D01*
X2493998Y437000D01*
D02*
G37*
G36*
X2476778Y376784D02*
X2476667D01*
X2476445D01*
X2476000D01*
X2475445Y376673D01*
X2474667D01*
X2473889Y376562D01*
X2472112Y376229D01*
X2470001Y375784D01*
X2467779Y375007D01*
X2465668Y373896D01*
X2463779Y372451D01*
X2463668D01*
X2463557Y372229D01*
X2463001Y371673D01*
X2462224Y370785D01*
X2461335Y369563D01*
X2460557Y368007D01*
X2459780Y366230D01*
X2459224Y364230D01*
X2459002Y363119D01*
Y361341D01*
X2459113Y360897D01*
X2459224Y359675D01*
X2459669Y358230D01*
X2460224Y356453D01*
X2461224Y354564D01*
X2462446Y352675D01*
X2463335Y351787D01*
X2464224Y350898D01*
X2464335D01*
X2464446Y350676D01*
X2464779Y350453D01*
X2465112Y350231D01*
X2466223Y349454D01*
X2467779Y348676D01*
X2469668Y347787D01*
X2472001Y347009D01*
X2474667Y346565D01*
X2477556Y346343D01*
X2477667D01*
X2477889D01*
X2478222D01*
X2478778Y346454D01*
X2479444D01*
X2480111Y346565D01*
X2481777Y346898D01*
X2483666Y347454D01*
X2485666Y348120D01*
X2487666Y349231D01*
X2489443Y350676D01*
X2489666Y350898D01*
X2490110Y351453D01*
X2490888Y352453D01*
X2491665Y353675D01*
X2492554Y355342D01*
X2493332Y357231D01*
X2493776Y359341D01*
X2493998Y361675D01*
Y362341D01*
X2493887Y362786D01*
X2493776Y364008D01*
X2493443Y365452D01*
X2492887Y367229D01*
X2492110Y369007D01*
X2490999Y370785D01*
X2489443Y372451D01*
X2489221Y372673D01*
X2488555Y373118D01*
X2487555Y373784D01*
X2486110Y374673D01*
X2484333Y375451D01*
X2482222Y376118D01*
X2479666Y376562D01*
X2476778Y376784D01*
D02*
G37*
G36*
X2493998Y287571D02*
X2490554D01*
X2490443D01*
X2490332D01*
X2489777D01*
X2488777D01*
X2487443Y287460D01*
X2485999D01*
X2484222Y287349D01*
X2482333Y287238D01*
X2480222Y287015D01*
X2476000Y286460D01*
X2473889Y286127D01*
X2471890Y285682D01*
X2470001Y285238D01*
X2468223Y284571D01*
X2466668Y283904D01*
X2465335Y283127D01*
X2465224D01*
X2465112Y282905D01*
X2464779Y282682D01*
X2464335Y282349D01*
X2463335Y281349D01*
X2462113Y280127D01*
X2461002Y278461D01*
X2460002Y276572D01*
X2459557Y275572D01*
X2459224Y274461D01*
X2459113Y273239D01*
X2459002Y272017D01*
Y271350D01*
X2459113Y270906D01*
X2459335Y269684D01*
X2459669Y268239D01*
X2460335Y266573D01*
X2461335Y264795D01*
X2462002Y263906D01*
X2462668Y263018D01*
X2463557Y262240D01*
X2464557Y261462D01*
X2464668D01*
X2464890Y261240D01*
X2465335Y261018D01*
X2465890Y260685D01*
X2466779Y260351D01*
X2467779Y259907D01*
X2469001Y259574D01*
X2470445Y259129D01*
X2472112Y258685D01*
X2474000Y258240D01*
X2476111Y257796D01*
X2478444Y257463D01*
X2481111Y257129D01*
X2483999Y256907D01*
X2487110Y256796D01*
X2490554Y256685D01*
X2490776D01*
X2491332D01*
X2492332D01*
X2493665Y256796D01*
X2495109D01*
X2496887Y256907D01*
X2498776Y257018D01*
X2500776Y257240D01*
X2505108Y257796D01*
X2507219Y258129D01*
X2509219Y258574D01*
X2511108Y259018D01*
X2512885Y259685D01*
X2514441Y260351D01*
X2515774Y261129D01*
X2515885D01*
X2515996Y261351D01*
X2516774Y261907D01*
X2517774Y262907D01*
X2518885Y264129D01*
X2519996Y265795D01*
X2520996Y267684D01*
X2521773Y269795D01*
X2521885Y270906D01*
X2521996Y272128D01*
Y272795D01*
X2521885Y273239D01*
X2521662Y274350D01*
X2521218Y275905D01*
X2520440Y277572D01*
X2519329Y279461D01*
X2518663Y280349D01*
X2517774Y281238D01*
X2516885Y282127D01*
X2515774Y283016D01*
X2515663D01*
X2515441Y283238D01*
X2515107Y283460D01*
X2514552Y283682D01*
X2513774Y284127D01*
X2512774Y284460D01*
X2511663Y284904D01*
X2510330Y285349D01*
X2508664Y285682D01*
X2506886Y286127D01*
X2504775Y286571D01*
X2502553Y286904D01*
X2499887Y287126D01*
X2497109Y287349D01*
X2493998Y287571D01*
D02*
G37*
G36*
X972224Y1185998D02*
X971557D01*
X971113Y1185887D01*
X969891Y1185665D01*
X968447Y1185332D01*
X966780Y1184665D01*
X965003Y1183665D01*
X964114Y1182998D01*
X963225Y1182332D01*
X962447Y1181443D01*
X961669Y1180443D01*
Y1180332D01*
X961447Y1180110D01*
X961225Y1179665D01*
X960892Y1179110D01*
X960558Y1178221D01*
X960114Y1177221D01*
X959781Y1175999D01*
X959336Y1174555D01*
X958892Y1172888D01*
X958448Y1171000D01*
X958003Y1168889D01*
X957670Y1166556D01*
X957337Y1163889D01*
X957114Y1161001D01*
X957003Y1157890D01*
X956892Y1154446D01*
Y1154224D01*
Y1153668D01*
Y1152668D01*
X957003Y1151335D01*
Y1149891D01*
X957114Y1148113D01*
X957226Y1146224D01*
X957448Y1144225D01*
X958003Y1139892D01*
X958337Y1137781D01*
X958781Y1135781D01*
X959225Y1133892D01*
X959892Y1132115D01*
X960558Y1130559D01*
X961336Y1129226D01*
Y1129115D01*
X961558Y1129004D01*
X962114Y1128226D01*
X963114Y1127226D01*
X964336Y1126115D01*
X966002Y1125004D01*
X967891Y1124004D01*
X970002Y1123227D01*
X971113Y1123116D01*
X972335Y1123004D01*
X973002D01*
X973446Y1123116D01*
X974557Y1123338D01*
X976112Y1123782D01*
X977779Y1124560D01*
X979668Y1125671D01*
X980557Y1126337D01*
X981445Y1127226D01*
X982334Y1128115D01*
X983223Y1129226D01*
Y1129337D01*
X983445Y1129559D01*
X983667Y1129893D01*
X983889Y1130448D01*
X984334Y1131226D01*
X984667Y1132226D01*
X985112Y1133337D01*
X985556Y1134670D01*
X985889Y1136336D01*
X986334Y1138114D01*
X986778Y1140225D01*
X987111Y1142447D01*
X987334Y1145113D01*
X987556Y1147891D01*
X987778Y1151002D01*
Y1154446D01*
Y1154557D01*
Y1154668D01*
Y1155223D01*
Y1156223D01*
X987667Y1157556D01*
Y1159001D01*
X987556Y1160778D01*
X987445Y1162667D01*
X987222Y1164778D01*
X986667Y1169000D01*
X986334Y1171111D01*
X985889Y1173111D01*
X985445Y1174999D01*
X984778Y1176777D01*
X984112Y1178332D01*
X983334Y1179665D01*
Y1179776D01*
X983112Y1179888D01*
X982890Y1180221D01*
X982556Y1180665D01*
X981556Y1181665D01*
X980334Y1182887D01*
X978668Y1183998D01*
X976779Y1184998D01*
X975779Y1185443D01*
X974668Y1185776D01*
X973446Y1185887D01*
X972224Y1185998D01*
D02*
G37*
G36*
X912452D02*
X911786D01*
X911341Y1185887D01*
X910119Y1185665D01*
X908675Y1185332D01*
X907008Y1184665D01*
X905231Y1183665D01*
X904342Y1182998D01*
X903453Y1182332D01*
X902675Y1181443D01*
X901898Y1180443D01*
Y1180332D01*
X901676Y1180110D01*
X901453Y1179665D01*
X901120Y1179110D01*
X900787Y1178221D01*
X900342Y1177221D01*
X900009Y1175999D01*
X899565Y1174555D01*
X899120Y1172888D01*
X898676Y1171000D01*
X898231Y1168889D01*
X897898Y1166556D01*
X897565Y1163889D01*
X897343Y1161001D01*
X897231Y1157890D01*
X897120Y1154446D01*
Y1154224D01*
Y1153668D01*
Y1152668D01*
X897231Y1151335D01*
Y1149891D01*
X897343Y1148113D01*
X897454Y1146224D01*
X897676Y1144225D01*
X898231Y1139892D01*
X898565Y1137781D01*
X899009Y1135781D01*
X899453Y1133892D01*
X900120Y1132115D01*
X900787Y1130559D01*
X901564Y1129226D01*
Y1129115D01*
X901787Y1129004D01*
X902342Y1128226D01*
X903342Y1127226D01*
X904564Y1126115D01*
X906231Y1125004D01*
X908119Y1124004D01*
X910230Y1123227D01*
X911341Y1123116D01*
X912563Y1123004D01*
X913230D01*
X913674Y1123116D01*
X914785Y1123338D01*
X916341Y1123782D01*
X918007Y1124560D01*
X919896Y1125671D01*
X920785Y1126337D01*
X921673Y1127226D01*
X922562Y1128115D01*
X923451Y1129226D01*
Y1129337D01*
X923673Y1129559D01*
X923895Y1129893D01*
X924118Y1130448D01*
X924562Y1131226D01*
X924895Y1132226D01*
X925340Y1133337D01*
X925784Y1134670D01*
X926117Y1136336D01*
X926562Y1138114D01*
X927006Y1140225D01*
X927340Y1142447D01*
X927562Y1145113D01*
X927784Y1147891D01*
X928006Y1151002D01*
Y1154446D01*
Y1154557D01*
Y1154668D01*
Y1155223D01*
Y1156223D01*
X927895Y1157556D01*
Y1159001D01*
X927784Y1160778D01*
X927673Y1162667D01*
X927451Y1164778D01*
X926895Y1169000D01*
X926562Y1171111D01*
X926117Y1173111D01*
X925673Y1174999D01*
X925006Y1176777D01*
X924340Y1178332D01*
X923562Y1179665D01*
Y1179776D01*
X923340Y1179888D01*
X923118Y1180221D01*
X922784Y1180665D01*
X921785Y1181665D01*
X920562Y1182887D01*
X918896Y1183998D01*
X917007Y1184998D01*
X916007Y1185443D01*
X914896Y1185776D01*
X913674Y1185887D01*
X912452Y1185998D01*
D02*
G37*
%LPD*%
D55*
X989954Y2426315D02*
G03*
X989954Y2426315I-33333J0D01*
G01*
X923288Y2842982D02*
Y2859649D01*
X939954Y2876315D01*
X923288Y2892982D02*
X939954Y2876315D01*
X923288Y2892982D02*
Y2909648D01*
X939954D01*
X956621Y2892982D01*
X973288Y2909648D01*
X989954D01*
Y2892982D02*
Y2909648D01*
X973288Y2876315D02*
X989954Y2892982D01*
X973288Y2876315D02*
X989954Y2859649D01*
Y2842982D02*
Y2859649D01*
X973288Y2842982D02*
X989954D01*
X956621Y2859649D02*
X973288Y2842982D01*
X939954D02*
X956621Y2859649D01*
X923288Y2842982D02*
X939954D01*
X956621Y2692982D02*
X989954Y2759648D01*
X923288D02*
X989954D01*
X923288D02*
X956621Y2692982D01*
X939954Y2559649D02*
X956621Y2542982D01*
X923288Y2559649D02*
X939954D01*
X923288D02*
X939954Y2576315D01*
X923288Y2592982D02*
X939954Y2576315D01*
X923288Y2592982D02*
X939954D01*
X956621Y2609648D01*
X973288Y2592982D01*
X989954D01*
X973288Y2576315D02*
X989954Y2592982D01*
X973288Y2576315D02*
X989954Y2559649D01*
X973288D02*
X989954D01*
X956621Y2542982D02*
X973288Y2559649D01*
X923288Y2242982D02*
X989954D01*
Y2309648D01*
X923288D02*
X989954D01*
X923288Y2242982D02*
Y2309648D01*
Y2092982D02*
X956621Y2109649D01*
X989954Y2092982D01*
X973288Y2126315D02*
X989954Y2092982D01*
X973288Y2126315D02*
X989954Y2159648D01*
X956621Y2142982D02*
X989954Y2159648D01*
X923288D02*
X956621Y2142982D01*
X923288Y2159648D02*
X939954Y2126315D01*
X923288Y2092982D02*
X939954Y2126315D01*
X2478000Y900000D02*
X2498000Y840000D01*
X2458000D02*
X2478000Y900000D01*
X2458000Y60000D02*
X2478000Y0D01*
X2498000Y60000D01*
X2478000Y642981D02*
Y900000D01*
Y0D02*
Y237019D01*
X1782000Y900000D02*
X2488000D01*
X1754000Y0D02*
X2488000D01*
X0Y1167000D02*
X60000Y1187000D01*
X0Y1167000D02*
X60000Y1147000D01*
X1940000D02*
X2000000Y1167000D01*
X1940000Y1187000D02*
X2000000Y1167000D01*
X0D02*
X786464D01*
X1193758D02*
X2000000D01*
X0Y800000D02*
Y1177000D01*
X2000000Y800000D02*
Y1177000D01*
X6527957Y2842982D02*
Y2902963D01*
X6557947D01*
X6567944Y2892966D01*
Y2872972D01*
X6557947Y2862975D01*
X6527957D01*
X6547950D02*
X6567944Y2842982D01*
X6597934D02*
X6617928D01*
X6627924Y2852979D01*
Y2872972D01*
X6617928Y2882969D01*
X6597934D01*
X6587937Y2872972D01*
Y2852979D01*
X6597934Y2842982D01*
X6647918Y2882969D02*
Y2852979D01*
X6657915Y2842982D01*
X6687905D01*
Y2882969D01*
X6707899Y2842982D02*
Y2882969D01*
X6737889D01*
X6747886Y2872972D01*
Y2842982D01*
X6807866Y2902963D02*
Y2842982D01*
X6777876D01*
X6767879Y2852979D01*
Y2872972D01*
X6777876Y2882969D01*
X6807866D01*
X6857850Y2842982D02*
X6837856D01*
X6827860Y2852979D01*
Y2872972D01*
X6837856Y2882969D01*
X6857850D01*
X6867847Y2872972D01*
Y2862975D01*
X6827860D01*
X6927827Y2902963D02*
Y2842982D01*
X6897837D01*
X6887840Y2852979D01*
Y2872972D01*
X6897837Y2882969D01*
X6927827D01*
X6527957Y2692982D02*
Y2752963D01*
X6557947D01*
X6567944Y2742966D01*
Y2722972D01*
X6557947Y2712975D01*
X6527957D01*
X6547950D02*
X6567944Y2692982D01*
X6597934D02*
X6617928D01*
X6627924Y2702979D01*
Y2722972D01*
X6617928Y2732969D01*
X6597934D01*
X6587937Y2722972D01*
Y2702979D01*
X6597934Y2692982D01*
X6647918Y2732969D02*
Y2702979D01*
X6657915Y2692982D01*
X6687905D01*
Y2732969D01*
X6707899Y2692982D02*
Y2732969D01*
X6737889D01*
X6747886Y2722972D01*
Y2692982D01*
X6807866Y2752963D02*
Y2692982D01*
X6777876D01*
X6767879Y2702979D01*
Y2722972D01*
X6777876Y2732969D01*
X6807866D01*
X6857850Y2692982D02*
X6837856D01*
X6827860Y2702979D01*
Y2722972D01*
X6837856Y2732969D01*
X6857850D01*
X6867847Y2722972D01*
Y2712975D01*
X6827860D01*
X6927827Y2752963D02*
Y2692982D01*
X6897837D01*
X6887840Y2702979D01*
Y2722972D01*
X6897837Y2732969D01*
X6927827D01*
X7007801Y2692982D02*
Y2752963D01*
X7037792D01*
X7047789Y2742966D01*
Y2722972D01*
X7037792Y2712975D01*
X7007801D01*
X7027795D02*
X7047789Y2692982D01*
X7097772D02*
X7077779D01*
X7067782Y2702979D01*
Y2722972D01*
X7077779Y2732969D01*
X7097772D01*
X7107769Y2722972D01*
Y2712975D01*
X7067782D01*
X7167750Y2732969D02*
X7137760D01*
X7127763Y2722972D01*
Y2702979D01*
X7137760Y2692982D01*
X7167750D01*
X7197740Y2742966D02*
Y2732969D01*
X7187743D01*
X7207737D01*
X7197740D01*
Y2702979D01*
X7207737Y2692982D01*
X7247724Y2732969D02*
X7267717D01*
X7277714Y2722972D01*
Y2692982D01*
X7247724D01*
X7237727Y2702979D01*
X7247724Y2712975D01*
X7277714D01*
X7297708Y2692982D02*
Y2732969D01*
X7327698D01*
X7337695Y2722972D01*
Y2692982D01*
X7377682Y2672988D02*
X7387679D01*
X7397675Y2682985D01*
Y2732969D01*
X7367685D01*
X7357688Y2722972D01*
Y2702979D01*
X7367685Y2692982D01*
X7397675D01*
X7417669D02*
X7437662D01*
X7427666D01*
Y2752963D01*
X7417669D01*
X7497643Y2692982D02*
X7477650D01*
X7467653Y2702979D01*
Y2722972D01*
X7477650Y2732969D01*
X7497643D01*
X7507640Y2722972D01*
Y2712975D01*
X7467653D01*
X6527957Y2542982D02*
Y2602963D01*
X6557947D01*
X6567944Y2592966D01*
Y2572972D01*
X6557947Y2562975D01*
X6527957D01*
X6547950D02*
X6567944Y2542982D01*
X6597934D02*
X6617928D01*
X6627924Y2552979D01*
Y2572972D01*
X6617928Y2582969D01*
X6597934D01*
X6587937Y2572972D01*
Y2552979D01*
X6597934Y2542982D01*
X6647918Y2582969D02*
Y2552979D01*
X6657915Y2542982D01*
X6687905D01*
Y2582969D01*
X6707899Y2542982D02*
Y2582969D01*
X6737889D01*
X6747886Y2572972D01*
Y2542982D01*
X6807866Y2602963D02*
Y2542982D01*
X6777876D01*
X6767879Y2552979D01*
Y2572972D01*
X6777876Y2582969D01*
X6807866D01*
X6857850Y2542982D02*
X6837856D01*
X6827860Y2552979D01*
Y2572972D01*
X6837856Y2582969D01*
X6857850D01*
X6867847Y2572972D01*
Y2562975D01*
X6827860D01*
X6927827Y2602963D02*
Y2542982D01*
X6897837D01*
X6887840Y2552979D01*
Y2572972D01*
X6897837Y2582969D01*
X6927827D01*
X6547950Y2392982D02*
X6527957Y2412975D01*
Y2432969D01*
X6547950Y2452963D01*
X6577940Y2392982D02*
Y2452963D01*
X6597934Y2432969D01*
X6617928Y2452963D01*
Y2392982D01*
X6637921D02*
X6657915D01*
X6647918D01*
Y2432969D01*
X6637921D01*
X6687905D02*
X6727892Y2392982D01*
X6707898Y2412975D01*
X6727892Y2432969D01*
X6687905Y2392982D01*
X6777876D02*
X6757882D01*
X6747886Y2402979D01*
Y2422972D01*
X6757882Y2432969D01*
X6777876D01*
X6787873Y2422972D01*
Y2412975D01*
X6747886D01*
X6847853Y2452963D02*
Y2392982D01*
X6817863D01*
X6807866Y2402979D01*
Y2422972D01*
X6817863Y2432969D01*
X6847853D01*
X6867847Y2392982D02*
X6887840Y2412975D01*
Y2432969D01*
X6867847Y2452963D01*
X6527957Y2242982D02*
Y2302963D01*
X6557947D01*
X6567944Y2292966D01*
Y2272972D01*
X6557947Y2262975D01*
X6527957D01*
X6547950D02*
X6567944Y2242982D01*
X6597934D02*
X6617928D01*
X6627924Y2252979D01*
Y2272972D01*
X6617928Y2282969D01*
X6597934D01*
X6587937Y2272972D01*
Y2252979D01*
X6597934Y2242982D01*
X6647918Y2282969D02*
Y2252979D01*
X6657915Y2242982D01*
X6687905D01*
Y2282969D01*
X6707899Y2242982D02*
Y2282969D01*
X6737889D01*
X6747886Y2272972D01*
Y2242982D01*
X6807866Y2302963D02*
Y2242982D01*
X6777876D01*
X6767879Y2252979D01*
Y2272972D01*
X6777876Y2282969D01*
X6807866D01*
X6857850Y2242982D02*
X6837856D01*
X6827860Y2252979D01*
Y2272972D01*
X6837856Y2282969D01*
X6857850D01*
X6867847Y2272972D01*
Y2262975D01*
X6827860D01*
X6927827Y2302963D02*
Y2242982D01*
X6897837D01*
X6887840Y2252979D01*
Y2272972D01*
X6897837Y2282969D01*
X6927827D01*
X6527957Y2092982D02*
Y2152963D01*
X6557947D01*
X6567944Y2142966D01*
Y2122972D01*
X6557947Y2112975D01*
X6527957D01*
X6547950D02*
X6567944Y2092982D01*
X6597934D02*
X6617928D01*
X6627924Y2102979D01*
Y2122972D01*
X6617928Y2132969D01*
X6597934D01*
X6587937Y2122972D01*
Y2102979D01*
X6597934Y2092982D01*
X6647918Y2132969D02*
Y2102979D01*
X6657915Y2092982D01*
X6687905D01*
Y2132969D01*
X6707899Y2092982D02*
Y2132969D01*
X6737889D01*
X6747886Y2122972D01*
Y2092982D01*
X6807866Y2152963D02*
Y2092982D01*
X6777876D01*
X6767879Y2102979D01*
Y2122972D01*
X6777876Y2132969D01*
X6807866D01*
X6857850Y2092982D02*
X6837856D01*
X6827860Y2102979D01*
Y2122972D01*
X6837856Y2132969D01*
X6857850D01*
X6867847Y2122972D01*
Y2112975D01*
X6827860D01*
X6927827Y2152963D02*
Y2092982D01*
X6897837D01*
X6887840Y2102979D01*
Y2122972D01*
X6897837Y2132969D01*
X6927827D01*
X5938108Y2902963D02*
Y2862975D01*
X5958102Y2842982D01*
X5978095Y2862975D01*
Y2902963D01*
X5998089Y2842982D02*
X6018082D01*
X6008086D01*
Y2882969D01*
X5998089D01*
X6058069D02*
X6078063D01*
X6088060Y2872972D01*
Y2842982D01*
X6058069D01*
X6048073Y2852979D01*
X6058069Y2862975D01*
X6088060D01*
X5938108Y2692982D02*
Y2752963D01*
X5968098D01*
X5978095Y2742966D01*
Y2722972D01*
X5968098Y2712975D01*
X5938108D01*
X6008086Y2732969D02*
X6028079D01*
X6038076Y2722972D01*
Y2692982D01*
X6008086D01*
X5998089Y2702979D01*
X6008086Y2712975D01*
X6038076D01*
X6098056Y2752963D02*
Y2692982D01*
X6068066D01*
X6058069Y2702979D01*
Y2722972D01*
X6068066Y2732969D01*
X6098056D01*
X5938108Y2542982D02*
Y2602963D01*
X5968098D01*
X5978095Y2592966D01*
Y2572972D01*
X5968098Y2562975D01*
X5938108D01*
X6008086Y2582969D02*
X6028079D01*
X6038076Y2572972D01*
Y2542982D01*
X6008086D01*
X5998089Y2552979D01*
X6008086Y2562975D01*
X6038076D01*
X6098056Y2602963D02*
Y2542982D01*
X6068066D01*
X6058069Y2552979D01*
Y2572972D01*
X6068066Y2582969D01*
X6098056D01*
X5938108Y2392982D02*
Y2452963D01*
X5968098D01*
X5978095Y2442966D01*
Y2422972D01*
X5968098Y2412975D01*
X5938108D01*
X6008086Y2432969D02*
X6028079D01*
X6038076Y2422972D01*
Y2392982D01*
X6008086D01*
X5998089Y2402979D01*
X6008086Y2412975D01*
X6038076D01*
X6098056Y2452963D02*
Y2392982D01*
X6068066D01*
X6058069Y2402979D01*
Y2422972D01*
X6068066Y2432969D01*
X6098056D01*
X5938108Y2242982D02*
Y2302963D01*
X5968098D01*
X5978095Y2292966D01*
Y2272972D01*
X5968098Y2262975D01*
X5938108D01*
X6008086Y2282969D02*
X6028079D01*
X6038076Y2272972D01*
Y2242982D01*
X6008086D01*
X5998089Y2252979D01*
X6008086Y2262975D01*
X6038076D01*
X6098056Y2302963D02*
Y2242982D01*
X6068066D01*
X6058069Y2252979D01*
Y2272972D01*
X6068066Y2282969D01*
X6098056D01*
X5938108Y2092982D02*
Y2152963D01*
X5968098D01*
X5978095Y2142966D01*
Y2122972D01*
X5968098Y2112975D01*
X5938108D01*
X6008086Y2132969D02*
X6028079D01*
X6038076Y2122972D01*
Y2092982D01*
X6008086D01*
X5998089Y2102979D01*
X6008086Y2112975D01*
X6038076D01*
X6098056Y2152963D02*
Y2092982D01*
X6068066D01*
X6058069Y2102979D01*
Y2122972D01*
X6068066Y2132969D01*
X6098056D01*
X4438558Y2902963D02*
X4478545D01*
X4458551D01*
Y2842982D01*
X4508535D02*
X4528529D01*
X4538525Y2852979D01*
Y2872972D01*
X4528529Y2882969D01*
X4508535D01*
X4498538Y2872972D01*
Y2852979D01*
X4508535Y2842982D01*
X4558519Y2822988D02*
Y2882969D01*
X4588509D01*
X4598506Y2872972D01*
Y2852979D01*
X4588509Y2842982D01*
X4558519D01*
X4678480Y2902963D02*
Y2842982D01*
X4718467D01*
X4748457Y2882969D02*
X4768451D01*
X4778448Y2872972D01*
Y2842982D01*
X4748457D01*
X4738461Y2852979D01*
X4748457Y2862975D01*
X4778448D01*
X4798441Y2882969D02*
Y2852979D01*
X4808438Y2842982D01*
X4838428D01*
Y2832985D01*
X4828431Y2822988D01*
X4818435D01*
X4838428Y2842982D02*
Y2882969D01*
X4888412Y2842982D02*
X4868419D01*
X4858422Y2852979D01*
Y2872972D01*
X4868419Y2882969D01*
X4888412D01*
X4898409Y2872972D01*
Y2862975D01*
X4858422D01*
X4918402Y2882969D02*
Y2842982D01*
Y2862975D01*
X4928399Y2872972D01*
X4938396Y2882969D01*
X4948393D01*
X5038364Y2872972D02*
X5078351D01*
X5158325Y2902963D02*
Y2842982D01*
X5188315D01*
X5198312Y2852979D01*
Y2862975D01*
X5188315Y2872972D01*
X5158325D01*
X5188315D01*
X5198312Y2882969D01*
Y2892966D01*
X5188315Y2902963D01*
X5158325D01*
X5228302Y2842982D02*
X5248296D01*
X5258292Y2852979D01*
Y2872972D01*
X5248296Y2882969D01*
X5228302D01*
X5218305Y2872972D01*
Y2852979D01*
X5228302Y2842982D01*
X5288283Y2892966D02*
Y2882969D01*
X5278286D01*
X5298279D01*
X5288283D01*
Y2852979D01*
X5298279Y2842982D01*
X5338267Y2892966D02*
Y2882969D01*
X5328270D01*
X5348263D01*
X5338267D01*
Y2852979D01*
X5348263Y2842982D01*
X5388250D02*
X5408244D01*
X5418241Y2852979D01*
Y2872972D01*
X5408244Y2882969D01*
X5388250D01*
X5378254Y2872972D01*
Y2852979D01*
X5388250Y2842982D01*
X5438234D02*
Y2882969D01*
X5448231D01*
X5458228Y2872972D01*
Y2842982D01*
Y2872972D01*
X5468225Y2882969D01*
X5478221Y2872972D01*
Y2842982D01*
X5558195Y2902963D02*
Y2842982D01*
X5598182D01*
X5628173Y2882969D02*
X5648166D01*
X5658163Y2872972D01*
Y2842982D01*
X5628173D01*
X5618176Y2852979D01*
X5628173Y2862975D01*
X5658163D01*
X5678157Y2882969D02*
Y2852979D01*
X5688153Y2842982D01*
X5718144D01*
Y2832985D01*
X5708147Y2822988D01*
X5698150D01*
X5718144Y2842982D02*
Y2882969D01*
X5768127Y2842982D02*
X5748134D01*
X5738137Y2852979D01*
Y2872972D01*
X5748134Y2882969D01*
X5768127D01*
X5778124Y2872972D01*
Y2862975D01*
X5738137D01*
X5798118Y2882969D02*
Y2842982D01*
Y2862975D01*
X5808115Y2872972D01*
X5818111Y2882969D01*
X5828108D01*
X4438558Y2752963D02*
X4478545D01*
X4458551D01*
Y2692982D01*
X4508535D02*
X4528529D01*
X4538525Y2702979D01*
Y2722972D01*
X4528529Y2732969D01*
X4508535D01*
X4498538Y2722972D01*
Y2702979D01*
X4508535Y2692982D01*
X4558519Y2672988D02*
Y2732969D01*
X4588509D01*
X4598506Y2722972D01*
Y2702979D01*
X4588509Y2692982D01*
X4558519D01*
X4678480Y2752963D02*
Y2692982D01*
X4718467D01*
X4748457Y2732969D02*
X4768451D01*
X4778448Y2722972D01*
Y2692982D01*
X4748457D01*
X4738461Y2702979D01*
X4748457Y2712975D01*
X4778448D01*
X4798441Y2732969D02*
Y2702979D01*
X4808438Y2692982D01*
X4838428D01*
Y2682985D01*
X4828431Y2672988D01*
X4818435D01*
X4838428Y2692982D02*
Y2732969D01*
X4888412Y2692982D02*
X4868419D01*
X4858422Y2702979D01*
Y2722972D01*
X4868419Y2732969D01*
X4888412D01*
X4898409Y2722972D01*
Y2712975D01*
X4858422D01*
X4918402Y2732969D02*
Y2692982D01*
Y2712975D01*
X4928399Y2722972D01*
X4938396Y2732969D01*
X4948393D01*
X5038364Y2722972D02*
X5078351D01*
X5158325Y2752963D02*
Y2692982D01*
X5188315D01*
X5198312Y2702979D01*
Y2712975D01*
X5188315Y2722972D01*
X5158325D01*
X5188315D01*
X5198312Y2732969D01*
Y2742966D01*
X5188315Y2752963D01*
X5158325D01*
X5228302Y2692982D02*
X5248296D01*
X5258292Y2702979D01*
Y2722972D01*
X5248296Y2732969D01*
X5228302D01*
X5218305Y2722972D01*
Y2702979D01*
X5228302Y2692982D01*
X5288283Y2742966D02*
Y2732969D01*
X5278286D01*
X5298279D01*
X5288283D01*
Y2702979D01*
X5298279Y2692982D01*
X5338267Y2742966D02*
Y2732969D01*
X5328270D01*
X5348263D01*
X5338267D01*
Y2702979D01*
X5348263Y2692982D01*
X5388250D02*
X5408244D01*
X5418241Y2702979D01*
Y2722972D01*
X5408244Y2732969D01*
X5388250D01*
X5378254Y2722972D01*
Y2702979D01*
X5388250Y2692982D01*
X5438234D02*
Y2732969D01*
X5448231D01*
X5458228Y2722972D01*
Y2692982D01*
Y2722972D01*
X5468225Y2732969D01*
X5478221Y2722972D01*
Y2692982D01*
X5558195Y2752963D02*
Y2692982D01*
X5598182D01*
X5628173Y2732969D02*
X5648166D01*
X5658163Y2722972D01*
Y2692982D01*
X5628173D01*
X5618176Y2702979D01*
X5628173Y2712975D01*
X5658163D01*
X5678157Y2732969D02*
Y2702979D01*
X5688153Y2692982D01*
X5718144D01*
Y2682985D01*
X5708147Y2672988D01*
X5698150D01*
X5718144Y2692982D02*
Y2732969D01*
X5768127Y2692982D02*
X5748134D01*
X5738137Y2702979D01*
Y2722972D01*
X5748134Y2732969D01*
X5768127D01*
X5778124Y2722972D01*
Y2712975D01*
X5738137D01*
X5798118Y2732969D02*
Y2692982D01*
Y2712975D01*
X5808115Y2722972D01*
X5818111Y2732969D01*
X5828108D01*
X4438558Y2602963D02*
X4478545D01*
X4458551D01*
Y2542982D01*
X4508535D02*
X4528529D01*
X4538525Y2552979D01*
Y2572972D01*
X4528529Y2582969D01*
X4508535D01*
X4498538Y2572972D01*
Y2552979D01*
X4508535Y2542982D01*
X4558519Y2522988D02*
Y2582969D01*
X4588509D01*
X4598506Y2572972D01*
Y2552979D01*
X4588509Y2542982D01*
X4558519D01*
X4678480Y2602963D02*
Y2542982D01*
X4718467D01*
X4748457Y2582969D02*
X4768451D01*
X4778448Y2572972D01*
Y2542982D01*
X4748457D01*
X4738461Y2552979D01*
X4748457Y2562975D01*
X4778448D01*
X4798441Y2582969D02*
Y2552979D01*
X4808438Y2542982D01*
X4838428D01*
Y2532985D01*
X4828431Y2522988D01*
X4818435D01*
X4838428Y2542982D02*
Y2582969D01*
X4888412Y2542982D02*
X4868419D01*
X4858422Y2552979D01*
Y2572972D01*
X4868419Y2582969D01*
X4888412D01*
X4898409Y2572972D01*
Y2562975D01*
X4858422D01*
X4918402Y2582969D02*
Y2542982D01*
Y2562975D01*
X4928399Y2572972D01*
X4938396Y2582969D01*
X4948393D01*
X5038364Y2572972D02*
X5078351D01*
X5158325Y2602963D02*
Y2542982D01*
X5188315D01*
X5198312Y2552979D01*
Y2562975D01*
X5188315Y2572972D01*
X5158325D01*
X5188315D01*
X5198312Y2582969D01*
Y2592966D01*
X5188315Y2602963D01*
X5158325D01*
X5228302Y2542982D02*
X5248296D01*
X5258292Y2552979D01*
Y2572972D01*
X5248296Y2582969D01*
X5228302D01*
X5218305Y2572972D01*
Y2552979D01*
X5228302Y2542982D01*
X5288283Y2592966D02*
Y2582969D01*
X5278286D01*
X5298279D01*
X5288283D01*
Y2552979D01*
X5298279Y2542982D01*
X5338267Y2592966D02*
Y2582969D01*
X5328270D01*
X5348263D01*
X5338267D01*
Y2552979D01*
X5348263Y2542982D01*
X5388250D02*
X5408244D01*
X5418241Y2552979D01*
Y2572972D01*
X5408244Y2582969D01*
X5388250D01*
X5378254Y2572972D01*
Y2552979D01*
X5388250Y2542982D01*
X5438234D02*
Y2582969D01*
X5448231D01*
X5458228Y2572972D01*
Y2542982D01*
Y2572972D01*
X5468225Y2582969D01*
X5478221Y2572972D01*
Y2542982D01*
X5558195Y2602963D02*
Y2542982D01*
X5598182D01*
X5628173Y2582969D02*
X5648166D01*
X5658163Y2572972D01*
Y2542982D01*
X5628173D01*
X5618176Y2552979D01*
X5628173Y2562975D01*
X5658163D01*
X5678157Y2582969D02*
Y2552979D01*
X5688153Y2542982D01*
X5718144D01*
Y2532985D01*
X5708147Y2522988D01*
X5698150D01*
X5718144Y2542982D02*
Y2582969D01*
X5768127Y2542982D02*
X5748134D01*
X5738137Y2552979D01*
Y2572972D01*
X5748134Y2582969D01*
X5768127D01*
X5778124Y2572972D01*
Y2562975D01*
X5738137D01*
X5798118Y2582969D02*
Y2542982D01*
Y2562975D01*
X5808115Y2572972D01*
X5818111Y2582969D01*
X5828108D01*
X4438558Y2452963D02*
X4478545D01*
X4458551D01*
Y2392982D01*
X4508535D02*
X4528529D01*
X4538525Y2402979D01*
Y2422972D01*
X4528529Y2432969D01*
X4508535D01*
X4498538Y2422972D01*
Y2402979D01*
X4508535Y2392982D01*
X4558519Y2372988D02*
Y2432969D01*
X4588509D01*
X4598506Y2422972D01*
Y2402979D01*
X4588509Y2392982D01*
X4558519D01*
X4678480Y2452963D02*
Y2392982D01*
X4718467D01*
X4748457Y2432969D02*
X4768451D01*
X4778448Y2422972D01*
Y2392982D01*
X4748457D01*
X4738461Y2402979D01*
X4748457Y2412975D01*
X4778448D01*
X4798441Y2432969D02*
Y2402979D01*
X4808438Y2392982D01*
X4838428D01*
Y2382985D01*
X4828431Y2372988D01*
X4818435D01*
X4838428Y2392982D02*
Y2432969D01*
X4888412Y2392982D02*
X4868419D01*
X4858422Y2402979D01*
Y2422972D01*
X4868419Y2432969D01*
X4888412D01*
X4898409Y2422972D01*
Y2412975D01*
X4858422D01*
X4918402Y2432969D02*
Y2392982D01*
Y2412975D01*
X4928399Y2422972D01*
X4938396Y2432969D01*
X4948393D01*
X5038364Y2422972D02*
X5078351D01*
X5158325Y2452963D02*
Y2392982D01*
X5188315D01*
X5198312Y2402979D01*
Y2412975D01*
X5188315Y2422972D01*
X5158325D01*
X5188315D01*
X5198312Y2432969D01*
Y2442966D01*
X5188315Y2452963D01*
X5158325D01*
X5228302Y2392982D02*
X5248296D01*
X5258292Y2402979D01*
Y2422972D01*
X5248296Y2432969D01*
X5228302D01*
X5218305Y2422972D01*
Y2402979D01*
X5228302Y2392982D01*
X5288283Y2442966D02*
Y2432969D01*
X5278286D01*
X5298279D01*
X5288283D01*
Y2402979D01*
X5298279Y2392982D01*
X5338267Y2442966D02*
Y2432969D01*
X5328270D01*
X5348263D01*
X5338267D01*
Y2402979D01*
X5348263Y2392982D01*
X5388250D02*
X5408244D01*
X5418241Y2402979D01*
Y2422972D01*
X5408244Y2432969D01*
X5388250D01*
X5378254Y2422972D01*
Y2402979D01*
X5388250Y2392982D01*
X5438234D02*
Y2432969D01*
X5448231D01*
X5458228Y2422972D01*
Y2392982D01*
Y2422972D01*
X5468225Y2432969D01*
X5478221Y2422972D01*
Y2392982D01*
X5558195Y2452963D02*
Y2392982D01*
X5598182D01*
X5628173Y2432969D02*
X5648166D01*
X5658163Y2422972D01*
Y2392982D01*
X5628173D01*
X5618176Y2402979D01*
X5628173Y2412975D01*
X5658163D01*
X5678157Y2432969D02*
Y2402979D01*
X5688153Y2392982D01*
X5718144D01*
Y2382985D01*
X5708147Y2372988D01*
X5698150D01*
X5718144Y2392982D02*
Y2432969D01*
X5768127Y2392982D02*
X5748134D01*
X5738137Y2402979D01*
Y2422972D01*
X5748134Y2432969D01*
X5768127D01*
X5778124Y2422972D01*
Y2412975D01*
X5738137D01*
X5798118Y2432969D02*
Y2392982D01*
Y2412975D01*
X5808115Y2422972D01*
X5818111Y2432969D01*
X5828108D01*
X4438558Y2302963D02*
X4478545D01*
X4458551D01*
Y2242982D01*
X4508535D02*
X4528529D01*
X4538525Y2252979D01*
Y2272972D01*
X4528529Y2282969D01*
X4508535D01*
X4498538Y2272972D01*
Y2252979D01*
X4508535Y2242982D01*
X4558519Y2222988D02*
Y2282969D01*
X4588509D01*
X4598506Y2272972D01*
Y2252979D01*
X4588509Y2242982D01*
X4558519D01*
X4678480Y2302963D02*
Y2242982D01*
X4718467D01*
X4748457Y2282969D02*
X4768451D01*
X4778448Y2272972D01*
Y2242982D01*
X4748457D01*
X4738461Y2252979D01*
X4748457Y2262975D01*
X4778448D01*
X4798441Y2282969D02*
Y2252979D01*
X4808438Y2242982D01*
X4838428D01*
Y2232985D01*
X4828431Y2222988D01*
X4818435D01*
X4838428Y2242982D02*
Y2282969D01*
X4888412Y2242982D02*
X4868419D01*
X4858422Y2252979D01*
Y2272972D01*
X4868419Y2282969D01*
X4888412D01*
X4898409Y2272972D01*
Y2262975D01*
X4858422D01*
X4918402Y2282969D02*
Y2242982D01*
Y2262975D01*
X4928399Y2272972D01*
X4938396Y2282969D01*
X4948393D01*
X5038364Y2272972D02*
X5078351D01*
X5158325Y2302963D02*
Y2242982D01*
X5188315D01*
X5198312Y2252979D01*
Y2262975D01*
X5188315Y2272972D01*
X5158325D01*
X5188315D01*
X5198312Y2282969D01*
Y2292966D01*
X5188315Y2302963D01*
X5158325D01*
X5228302Y2242982D02*
X5248296D01*
X5258292Y2252979D01*
Y2272972D01*
X5248296Y2282969D01*
X5228302D01*
X5218305Y2272972D01*
Y2252979D01*
X5228302Y2242982D01*
X5288283Y2292966D02*
Y2282969D01*
X5278286D01*
X5298279D01*
X5288283D01*
Y2252979D01*
X5298279Y2242982D01*
X5338267Y2292966D02*
Y2282969D01*
X5328270D01*
X5348263D01*
X5338267D01*
Y2252979D01*
X5348263Y2242982D01*
X5388250D02*
X5408244D01*
X5418241Y2252979D01*
Y2272972D01*
X5408244Y2282969D01*
X5388250D01*
X5378254Y2272972D01*
Y2252979D01*
X5388250Y2242982D01*
X5438234D02*
Y2282969D01*
X5448231D01*
X5458228Y2272972D01*
Y2242982D01*
Y2272972D01*
X5468225Y2282969D01*
X5478221Y2272972D01*
Y2242982D01*
X5558195Y2302963D02*
Y2242982D01*
X5598182D01*
X5628173Y2282969D02*
X5648166D01*
X5658163Y2272972D01*
Y2242982D01*
X5628173D01*
X5618176Y2252979D01*
X5628173Y2262975D01*
X5658163D01*
X5678157Y2282969D02*
Y2252979D01*
X5688153Y2242982D01*
X5718144D01*
Y2232985D01*
X5708147Y2222988D01*
X5698150D01*
X5718144Y2242982D02*
Y2282969D01*
X5768127Y2242982D02*
X5748134D01*
X5738137Y2252979D01*
Y2272972D01*
X5748134Y2282969D01*
X5768127D01*
X5778124Y2272972D01*
Y2262975D01*
X5738137D01*
X5798118Y2282969D02*
Y2242982D01*
Y2262975D01*
X5808115Y2272972D01*
X5818111Y2282969D01*
X5828108D01*
X4438558Y2152963D02*
X4478545D01*
X4458551D01*
Y2092982D01*
X4508535D02*
X4528529D01*
X4538525Y2102979D01*
Y2122972D01*
X4528529Y2132969D01*
X4508535D01*
X4498538Y2122972D01*
Y2102979D01*
X4508535Y2092982D01*
X4558519Y2072988D02*
Y2132969D01*
X4588509D01*
X4598506Y2122972D01*
Y2102979D01*
X4588509Y2092982D01*
X4558519D01*
X4678480Y2152963D02*
Y2092982D01*
X4718467D01*
X4748457Y2132969D02*
X4768451D01*
X4778448Y2122972D01*
Y2092982D01*
X4748457D01*
X4738461Y2102979D01*
X4748457Y2112975D01*
X4778448D01*
X4798441Y2132969D02*
Y2102979D01*
X4808438Y2092982D01*
X4838428D01*
Y2082985D01*
X4828431Y2072988D01*
X4818435D01*
X4838428Y2092982D02*
Y2132969D01*
X4888412Y2092982D02*
X4868419D01*
X4858422Y2102979D01*
Y2122972D01*
X4868419Y2132969D01*
X4888412D01*
X4898409Y2122972D01*
Y2112975D01*
X4858422D01*
X4918402Y2132969D02*
Y2092982D01*
Y2112975D01*
X4928399Y2122972D01*
X4938396Y2132969D01*
X4948393D01*
X5038364Y2122972D02*
X5078351D01*
X5158325Y2152963D02*
Y2092982D01*
X5188315D01*
X5198312Y2102979D01*
Y2112975D01*
X5188315Y2122972D01*
X5158325D01*
X5188315D01*
X5198312Y2132969D01*
Y2142966D01*
X5188315Y2152963D01*
X5158325D01*
X5228302Y2092982D02*
X5248296D01*
X5258292Y2102979D01*
Y2122972D01*
X5248296Y2132969D01*
X5228302D01*
X5218305Y2122972D01*
Y2102979D01*
X5228302Y2092982D01*
X5288283Y2142966D02*
Y2132969D01*
X5278286D01*
X5298279D01*
X5288283D01*
Y2102979D01*
X5298279Y2092982D01*
X5338267Y2142966D02*
Y2132969D01*
X5328270D01*
X5348263D01*
X5338267D01*
Y2102979D01*
X5348263Y2092982D01*
X5388250D02*
X5408244D01*
X5418241Y2102979D01*
Y2122972D01*
X5408244Y2132969D01*
X5388250D01*
X5378254Y2122972D01*
Y2102979D01*
X5388250Y2092982D01*
X5438234D02*
Y2132969D01*
X5448231D01*
X5458228Y2122972D01*
Y2092982D01*
Y2122972D01*
X5468225Y2132969D01*
X5478221Y2122972D01*
Y2092982D01*
X5558195Y2152963D02*
Y2092982D01*
X5598182D01*
X5628173Y2132969D02*
X5648166D01*
X5658163Y2122972D01*
Y2092982D01*
X5628173D01*
X5618176Y2102979D01*
X5628173Y2112975D01*
X5658163D01*
X5678157Y2132969D02*
Y2102979D01*
X5688153Y2092982D01*
X5718144D01*
Y2082985D01*
X5708147Y2072988D01*
X5698150D01*
X5718144Y2092982D02*
Y2132969D01*
X5768127Y2092982D02*
X5748134D01*
X5738137Y2102979D01*
Y2122972D01*
X5748134Y2132969D01*
X5768127D01*
X5778124Y2122972D01*
Y2112975D01*
X5738137D01*
X5798118Y2132969D02*
Y2092982D01*
Y2112975D01*
X5808115Y2122972D01*
X5818111Y2132969D01*
X5828108D01*
X3704756Y2842982D02*
Y2902963D01*
X3734746D01*
X3744743Y2892966D01*
Y2872972D01*
X3734746Y2862975D01*
X3704756D01*
X3724749D02*
X3744743Y2842982D01*
X3774733D02*
X3794727D01*
X3804723Y2852979D01*
Y2872972D01*
X3794727Y2882969D01*
X3774733D01*
X3764736Y2872972D01*
Y2852979D01*
X3774733Y2842982D01*
X3824717Y2882969D02*
Y2852979D01*
X3834714Y2842982D01*
X3864704D01*
Y2882969D01*
X3884697Y2842982D02*
Y2882969D01*
X3914688D01*
X3924684Y2872972D01*
Y2842982D01*
X3984665Y2902963D02*
Y2842982D01*
X3954675D01*
X3944678Y2852979D01*
Y2872972D01*
X3954675Y2882969D01*
X3984665D01*
X3744743Y2742966D02*
X3734746Y2752963D01*
X3714752D01*
X3704756Y2742966D01*
Y2732969D01*
X3714752Y2722972D01*
X3734746D01*
X3744743Y2712975D01*
Y2702979D01*
X3734746Y2692982D01*
X3714752D01*
X3704756Y2702979D01*
X3764736Y2692982D02*
X3784730D01*
X3774733D01*
Y2752963D01*
X3764736D01*
X3824717Y2692982D02*
X3844710D01*
X3854707Y2702979D01*
Y2722972D01*
X3844710Y2732969D01*
X3824717D01*
X3814720Y2722972D01*
Y2702979D01*
X3824717Y2692982D01*
X3884697Y2742966D02*
Y2732969D01*
X3874701D01*
X3894694D01*
X3884697D01*
Y2702979D01*
X3894694Y2692982D01*
X3744743Y2592966D02*
X3734746Y2602963D01*
X3714752D01*
X3704756Y2592966D01*
Y2582969D01*
X3714752Y2572972D01*
X3734746D01*
X3744743Y2562975D01*
Y2552979D01*
X3734746Y2542982D01*
X3714752D01*
X3704756Y2552979D01*
X3764736Y2542982D02*
X3784730D01*
X3774733D01*
Y2602963D01*
X3764736D01*
X3824717Y2542982D02*
X3844710D01*
X3854707Y2552979D01*
Y2572972D01*
X3844710Y2582969D01*
X3824717D01*
X3814720Y2572972D01*
Y2552979D01*
X3824717Y2542982D01*
X3884697Y2592966D02*
Y2582969D01*
X3874701D01*
X3894694D01*
X3884697D01*
Y2552979D01*
X3894694Y2542982D01*
X3704756Y2392982D02*
Y2452963D01*
X3734746D01*
X3744743Y2442966D01*
Y2422972D01*
X3734746Y2412975D01*
X3704756D01*
X3724749D02*
X3744743Y2392982D01*
X3774733D02*
X3794727D01*
X3804723Y2402979D01*
Y2422972D01*
X3794727Y2432969D01*
X3774733D01*
X3764736Y2422972D01*
Y2402979D01*
X3774733Y2392982D01*
X3824717Y2432969D02*
Y2402979D01*
X3834714Y2392982D01*
X3864704D01*
Y2432969D01*
X3884697Y2392982D02*
Y2432969D01*
X3914688D01*
X3924684Y2422972D01*
Y2392982D01*
X3984665Y2452963D02*
Y2392982D01*
X3954675D01*
X3944678Y2402979D01*
Y2422972D01*
X3954675Y2432969D01*
X3984665D01*
X3704756Y2242982D02*
Y2302963D01*
X3734746D01*
X3744743Y2292966D01*
Y2272972D01*
X3734746Y2262975D01*
X3704756D01*
X3724749D02*
X3744743Y2242982D01*
X3774733D02*
X3794727D01*
X3804723Y2252979D01*
Y2272972D01*
X3794727Y2282969D01*
X3774733D01*
X3764736Y2272972D01*
Y2252979D01*
X3774733Y2242982D01*
X3824717Y2282969D02*
Y2252979D01*
X3834714Y2242982D01*
X3864704D01*
Y2282969D01*
X3884697Y2242982D02*
Y2282969D01*
X3914688D01*
X3924684Y2272972D01*
Y2242982D01*
X3984665Y2302963D02*
Y2242982D01*
X3954675D01*
X3944678Y2252979D01*
Y2272972D01*
X3954675Y2282969D01*
X3984665D01*
X3704756Y2092982D02*
Y2152963D01*
X3734746D01*
X3744743Y2142966D01*
Y2122972D01*
X3734746Y2112975D01*
X3704756D01*
X3724749D02*
X3744743Y2092982D01*
X3774733D02*
X3794727D01*
X3804723Y2102979D01*
Y2122972D01*
X3794727Y2132969D01*
X3774733D01*
X3764736Y2122972D01*
Y2102979D01*
X3774733Y2092982D01*
X3824717Y2132969D02*
Y2102979D01*
X3834714Y2092982D01*
X3864704D01*
Y2132969D01*
X3884697Y2092982D02*
Y2132969D01*
X3914688D01*
X3924684Y2122972D01*
Y2092982D01*
X3984665Y2152963D02*
Y2092982D01*
X3954675D01*
X3944678Y2102979D01*
Y2122972D01*
X3954675Y2132969D01*
X3984665D01*
X3198880Y2842982D02*
Y2902963D01*
X3228870D01*
X3238867Y2892966D01*
Y2872972D01*
X3228870Y2862975D01*
X3198880D01*
X3258860Y2902963D02*
X3298847D01*
X3278854D01*
Y2842982D01*
X3318841Y2902963D02*
Y2842982D01*
Y2872972D01*
X3358828D01*
Y2902963D01*
Y2842982D01*
X3198880Y2692982D02*
Y2752963D01*
X3228870D01*
X3238867Y2742966D01*
Y2722972D01*
X3228870Y2712975D01*
X3198880D01*
X3258860Y2752963D02*
X3298847D01*
X3278854D01*
Y2692982D01*
X3318841Y2752963D02*
Y2692982D01*
Y2722972D01*
X3358828D01*
Y2752963D01*
Y2692982D01*
X3198880Y2542982D02*
Y2602963D01*
X3228870D01*
X3238867Y2592966D01*
Y2572972D01*
X3228870Y2562975D01*
X3198880D01*
X3258860Y2602963D02*
X3298847D01*
X3278854D01*
Y2542982D01*
X3318841Y2602963D02*
Y2542982D01*
Y2572972D01*
X3358828D01*
Y2602963D01*
Y2542982D01*
X3198880Y2392982D02*
Y2452963D01*
X3228870D01*
X3238867Y2442966D01*
Y2422972D01*
X3228870Y2412975D01*
X3198880D01*
X3258860Y2452963D02*
X3298847D01*
X3278854D01*
Y2392982D01*
X3318841Y2452963D02*
Y2392982D01*
Y2422972D01*
X3358828D01*
Y2452963D01*
Y2392982D01*
X3198880Y2242982D02*
Y2302963D01*
X3228870D01*
X3238867Y2292966D01*
Y2272972D01*
X3228870Y2262975D01*
X3198880D01*
X3258860Y2302963D02*
X3298847D01*
X3278854D01*
Y2242982D01*
X3318841Y2302963D02*
Y2242982D01*
Y2272972D01*
X3358828D01*
Y2302963D01*
Y2242982D01*
X3198880Y2092982D02*
Y2152963D01*
X3228870D01*
X3238867Y2142966D01*
Y2122972D01*
X3228870Y2112975D01*
X3198880D01*
X3258860Y2152963D02*
X3298847D01*
X3278854D01*
Y2092982D01*
X3318841Y2152963D02*
Y2092982D01*
Y2122972D01*
X3358828D01*
Y2152963D01*
Y2092982D01*
X2049216Y2842982D02*
X2069210D01*
X2059213D01*
Y2902963D01*
X2049216Y2892966D01*
X2139187Y2842982D02*
X2099200D01*
X2139187Y2882969D01*
Y2892966D01*
X2129190Y2902963D01*
X2109197D01*
X2099200Y2892966D01*
X2159181Y2842982D02*
Y2852979D01*
X2169177D01*
Y2842982D01*
X2159181D01*
X2209164Y2892966D02*
X2219161Y2902963D01*
X2239155D01*
X2249152Y2892966D01*
Y2852979D01*
X2239155Y2842982D01*
X2219161D01*
X2209164Y2852979D01*
Y2892966D01*
X2269145D02*
X2279142Y2902963D01*
X2299135D01*
X2309132Y2892966D01*
Y2852979D01*
X2299135Y2842982D01*
X2279142D01*
X2269145Y2852979D01*
Y2892966D01*
X2329126Y2842982D02*
Y2882969D01*
X2339122D01*
X2349119Y2872972D01*
Y2842982D01*
Y2872972D01*
X2359116Y2882969D01*
X2369113Y2872972D01*
Y2842982D01*
X2389106D02*
X2409100D01*
X2399103D01*
Y2882969D01*
X2389106D01*
X2439090Y2842982D02*
X2459084D01*
X2449087D01*
Y2902963D01*
X2439090D01*
X2569048Y2842982D02*
X2549055Y2862975D01*
Y2882969D01*
X2569048Y2902963D01*
X2599038Y2892966D02*
X2609035Y2902963D01*
X2629029D01*
X2639025Y2892966D01*
Y2852979D01*
X2629029Y2842982D01*
X2609035D01*
X2599038Y2852979D01*
Y2892966D01*
X2659019Y2842982D02*
Y2852979D01*
X2669016D01*
Y2842982D01*
X2659019D01*
X2709003Y2892966D02*
X2718999Y2902963D01*
X2738993D01*
X2748990Y2892966D01*
Y2882969D01*
X2738993Y2872972D01*
X2728996D01*
X2738993D01*
X2748990Y2862975D01*
Y2852979D01*
X2738993Y2842982D01*
X2718999D01*
X2709003Y2852979D01*
X2768983Y2892966D02*
X2778980Y2902963D01*
X2798974D01*
X2808970Y2892966D01*
Y2852979D01*
X2798974Y2842982D01*
X2778980D01*
X2768983Y2852979D01*
Y2892966D01*
X2868951Y2902963D02*
X2828964D01*
Y2872972D01*
X2848957Y2882969D01*
X2858954D01*
X2868951Y2872972D01*
Y2852979D01*
X2858954Y2842982D01*
X2838961D01*
X2828964Y2852979D01*
X2888945Y2842982D02*
Y2882969D01*
X2898941D01*
X2908938Y2872972D01*
Y2842982D01*
Y2872972D01*
X2918935Y2882969D01*
X2928932Y2872972D01*
Y2842982D01*
X2948925D02*
Y2882969D01*
X2958922D01*
X2968919Y2872972D01*
Y2842982D01*
Y2872972D01*
X2978915Y2882969D01*
X2988912Y2872972D01*
Y2842982D01*
X3008906D02*
X3028899Y2862975D01*
Y2882969D01*
X3008906Y2902963D01*
X2089203Y2692982D02*
X2049216D01*
X2089203Y2732969D01*
Y2742966D01*
X2079207Y2752963D01*
X2059213D01*
X2049216Y2742966D01*
X2109197D02*
X2119194Y2752963D01*
X2139187D01*
X2149184Y2742966D01*
Y2732969D01*
X2139187Y2722972D01*
X2129190D01*
X2139187D01*
X2149184Y2712975D01*
Y2702979D01*
X2139187Y2692982D01*
X2119194D01*
X2109197Y2702979D01*
X2169177Y2692982D02*
Y2702979D01*
X2179174D01*
Y2692982D01*
X2169177D01*
X2259148Y2752963D02*
X2239155Y2742966D01*
X2219161Y2722972D01*
Y2702979D01*
X2229158Y2692982D01*
X2249152D01*
X2259148Y2702979D01*
Y2712975D01*
X2249152Y2722972D01*
X2219161D01*
X2319129Y2692982D02*
X2279142D01*
X2319129Y2732969D01*
Y2742966D01*
X2309132Y2752963D01*
X2289139D01*
X2279142Y2742966D01*
X2339122Y2692982D02*
Y2732969D01*
X2349119D01*
X2359116Y2722972D01*
Y2692982D01*
Y2722972D01*
X2369113Y2732969D01*
X2379110Y2722972D01*
Y2692982D01*
X2399103D02*
X2419097D01*
X2409100D01*
Y2732969D01*
X2399103D01*
X2449087Y2692982D02*
X2469080D01*
X2459084D01*
Y2752963D01*
X2449087D01*
X2579045Y2692982D02*
X2559051Y2712975D01*
Y2732969D01*
X2579045Y2752963D01*
X2609035Y2742966D02*
X2619032Y2752963D01*
X2639025D01*
X2649022Y2742966D01*
Y2702979D01*
X2639025Y2692982D01*
X2619032D01*
X2609035Y2702979D01*
Y2742966D01*
X2669016Y2692982D02*
Y2702979D01*
X2679012D01*
Y2692982D01*
X2669016D01*
X2758987Y2752963D02*
X2738993Y2742966D01*
X2718999Y2722972D01*
Y2702979D01*
X2728996Y2692982D01*
X2748990D01*
X2758987Y2702979D01*
Y2712975D01*
X2748990Y2722972D01*
X2718999D01*
X2778980Y2742966D02*
X2788977Y2752963D01*
X2808970D01*
X2818967Y2742966D01*
Y2702979D01*
X2808970Y2692982D01*
X2788977D01*
X2778980Y2702979D01*
Y2742966D01*
X2838961D02*
X2848957Y2752963D01*
X2868951D01*
X2878948Y2742966D01*
Y2702979D01*
X2868951Y2692982D01*
X2848957D01*
X2838961Y2702979D01*
Y2742966D01*
X2898941Y2692982D02*
Y2732969D01*
X2908938D01*
X2918935Y2722972D01*
Y2692982D01*
Y2722972D01*
X2928932Y2732969D01*
X2938928Y2722972D01*
Y2692982D01*
X2958922D02*
Y2732969D01*
X2968919D01*
X2978915Y2722972D01*
Y2692982D01*
Y2722972D01*
X2988912Y2732969D01*
X2998909Y2722972D01*
Y2692982D01*
X3018903D02*
X3038896Y2712975D01*
Y2732969D01*
X3018903Y2752963D01*
X2089203Y2542982D02*
X2049216D01*
X2089203Y2582969D01*
Y2592966D01*
X2079207Y2602963D01*
X2059213D01*
X2049216Y2592966D01*
X2149184Y2602963D02*
X2109197D01*
Y2572972D01*
X2129190Y2582969D01*
X2139187D01*
X2149184Y2572972D01*
Y2552979D01*
X2139187Y2542982D01*
X2119194D01*
X2109197Y2552979D01*
X2169177Y2542982D02*
Y2552979D01*
X2179174D01*
Y2542982D01*
X2169177D01*
X2259148Y2602963D02*
X2219161D01*
Y2572972D01*
X2239155Y2582969D01*
X2249152D01*
X2259148Y2572972D01*
Y2552979D01*
X2249152Y2542982D01*
X2229158D01*
X2219161Y2552979D01*
X2279142D02*
X2289139Y2542982D01*
X2309132D01*
X2319129Y2552979D01*
Y2592966D01*
X2309132Y2602963D01*
X2289139D01*
X2279142Y2592966D01*
Y2582969D01*
X2289139Y2572972D01*
X2319129D01*
X2339122Y2542982D02*
Y2582969D01*
X2349119D01*
X2359116Y2572972D01*
Y2542982D01*
Y2572972D01*
X2369113Y2582969D01*
X2379110Y2572972D01*
Y2542982D01*
X2399103D02*
X2419097D01*
X2409100D01*
Y2582969D01*
X2399103D01*
X2449087Y2542982D02*
X2469080D01*
X2459084D01*
Y2602963D01*
X2449087D01*
X2579045Y2542982D02*
X2559051Y2562975D01*
Y2582969D01*
X2579045Y2602963D01*
X2609035Y2592966D02*
X2619032Y2602963D01*
X2639025D01*
X2649022Y2592966D01*
Y2552979D01*
X2639025Y2542982D01*
X2619032D01*
X2609035Y2552979D01*
Y2592966D01*
X2669016Y2542982D02*
Y2552979D01*
X2679012D01*
Y2542982D01*
X2669016D01*
X2758987Y2602963D02*
X2738993Y2592966D01*
X2718999Y2572972D01*
Y2552979D01*
X2728996Y2542982D01*
X2748990D01*
X2758987Y2552979D01*
Y2562975D01*
X2748990Y2572972D01*
X2718999D01*
X2818967Y2602963D02*
X2778980D01*
Y2572972D01*
X2798974Y2582969D01*
X2808970D01*
X2818967Y2572972D01*
Y2552979D01*
X2808970Y2542982D01*
X2788977D01*
X2778980Y2552979D01*
X2838961Y2592966D02*
X2848957Y2602963D01*
X2868951D01*
X2878948Y2592966D01*
Y2552979D01*
X2868951Y2542982D01*
X2848957D01*
X2838961Y2552979D01*
Y2592966D01*
X2898941Y2542982D02*
Y2582969D01*
X2908938D01*
X2918935Y2572972D01*
Y2542982D01*
Y2572972D01*
X2928932Y2582969D01*
X2938928Y2572972D01*
Y2542982D01*
X2958922D02*
Y2582969D01*
X2968919D01*
X2978915Y2572972D01*
Y2542982D01*
Y2572972D01*
X2988912Y2582969D01*
X2998909Y2572972D01*
Y2542982D01*
X3018903D02*
X3038896Y2562975D01*
Y2582969D01*
X3018903Y2602963D01*
X2049216Y2442966D02*
X2059213Y2452963D01*
X2079207D01*
X2089203Y2442966D01*
Y2432969D01*
X2079207Y2422972D01*
X2069210D01*
X2079207D01*
X2089203Y2412975D01*
Y2402979D01*
X2079207Y2392982D01*
X2059213D01*
X2049216Y2402979D01*
X2149184Y2452963D02*
X2109197D01*
Y2422972D01*
X2129190Y2432969D01*
X2139187D01*
X2149184Y2422972D01*
Y2402979D01*
X2139187Y2392982D01*
X2119194D01*
X2109197Y2402979D01*
X2169177Y2392982D02*
Y2402979D01*
X2179174D01*
Y2392982D01*
X2169177D01*
X2249152D02*
Y2452963D01*
X2219161Y2422972D01*
X2259148D01*
X2279142Y2442966D02*
X2289139Y2452963D01*
X2309132D01*
X2319129Y2442966D01*
Y2432969D01*
X2309132Y2422972D01*
X2299135D01*
X2309132D01*
X2319129Y2412975D01*
Y2402979D01*
X2309132Y2392982D01*
X2289139D01*
X2279142Y2402979D01*
X2339122Y2392982D02*
Y2432969D01*
X2349119D01*
X2359116Y2422972D01*
Y2392982D01*
Y2422972D01*
X2369113Y2432969D01*
X2379110Y2422972D01*
Y2392982D01*
X2399103D02*
X2419097D01*
X2409100D01*
Y2432969D01*
X2399103D01*
X2449087Y2392982D02*
X2469080D01*
X2459084D01*
Y2452963D01*
X2449087D01*
X2579045Y2392982D02*
X2559051Y2412975D01*
Y2432969D01*
X2579045Y2452963D01*
X2609035Y2442966D02*
X2619032Y2452963D01*
X2639025D01*
X2649022Y2442966D01*
Y2402979D01*
X2639025Y2392982D01*
X2619032D01*
X2609035Y2402979D01*
Y2442966D01*
X2669016Y2392982D02*
Y2402979D01*
X2679012D01*
Y2392982D01*
X2669016D01*
X2718999Y2402979D02*
X2728996Y2392982D01*
X2748990D01*
X2758987Y2402979D01*
Y2442966D01*
X2748990Y2452963D01*
X2728996D01*
X2718999Y2442966D01*
Y2432969D01*
X2728996Y2422972D01*
X2758987D01*
X2778980Y2442966D02*
X2788977Y2452963D01*
X2808970D01*
X2818967Y2442966D01*
Y2402979D01*
X2808970Y2392982D01*
X2788977D01*
X2778980Y2402979D01*
Y2442966D01*
X2838961D02*
X2848957Y2452963D01*
X2868951D01*
X2878948Y2442966D01*
Y2402979D01*
X2868951Y2392982D01*
X2848957D01*
X2838961Y2402979D01*
Y2442966D01*
X2898941Y2392982D02*
Y2432969D01*
X2908938D01*
X2918935Y2422972D01*
Y2392982D01*
Y2422972D01*
X2928932Y2432969D01*
X2938928Y2422972D01*
Y2392982D01*
X2958922D02*
Y2432969D01*
X2968919D01*
X2978915Y2422972D01*
Y2392982D01*
Y2422972D01*
X2988912Y2432969D01*
X2998909Y2422972D01*
Y2392982D01*
X3018903D02*
X3038896Y2412975D01*
Y2432969D01*
X3018903Y2452963D01*
X2049216Y2292966D02*
X2059213Y2302963D01*
X2079207D01*
X2089203Y2292966D01*
Y2282969D01*
X2079207Y2272972D01*
X2089203Y2262975D01*
Y2252979D01*
X2079207Y2242982D01*
X2059213D01*
X2049216Y2252979D01*
Y2262975D01*
X2059213Y2272972D01*
X2049216Y2282969D01*
Y2292966D01*
X2059213Y2272972D02*
X2079207D01*
X2149184Y2302963D02*
X2129190Y2292966D01*
X2109197Y2272972D01*
Y2252979D01*
X2119194Y2242982D01*
X2139187D01*
X2149184Y2252979D01*
Y2262975D01*
X2139187Y2272972D01*
X2109197D01*
X2169177Y2242982D02*
Y2252979D01*
X2179174D01*
Y2242982D01*
X2169177D01*
X2259148Y2302963D02*
X2239155Y2292966D01*
X2219161Y2272972D01*
Y2252979D01*
X2229158Y2242982D01*
X2249152D01*
X2259148Y2252979D01*
Y2262975D01*
X2249152Y2272972D01*
X2219161D01*
X2279142Y2242982D02*
X2299135D01*
X2289139D01*
Y2302963D01*
X2279142Y2292966D01*
X2329126Y2242982D02*
Y2282969D01*
X2339122D01*
X2349119Y2272972D01*
Y2242982D01*
Y2272972D01*
X2359116Y2282969D01*
X2369113Y2272972D01*
Y2242982D01*
X2389106D02*
X2409100D01*
X2399103D01*
Y2282969D01*
X2389106D01*
X2439090Y2242982D02*
X2459084D01*
X2449087D01*
Y2302963D01*
X2439090D01*
X2569048Y2242982D02*
X2549055Y2262975D01*
Y2282969D01*
X2569048Y2302963D01*
X2639025Y2242982D02*
X2599038D01*
X2639025Y2282969D01*
Y2292966D01*
X2629029Y2302963D01*
X2609035D01*
X2599038Y2292966D01*
X2659019Y2242982D02*
Y2252979D01*
X2669016D01*
Y2242982D01*
X2659019D01*
X2748990D02*
X2709003D01*
X2748990Y2282969D01*
Y2292966D01*
X2738993Y2302963D01*
X2718999D01*
X2709003Y2292966D01*
X2768983D02*
X2778980Y2302963D01*
X2798974D01*
X2808970Y2292966D01*
Y2252979D01*
X2798974Y2242982D01*
X2778980D01*
X2768983Y2252979D01*
Y2292966D01*
X2828964D02*
X2838961Y2302963D01*
X2858954D01*
X2868951Y2292966D01*
Y2252979D01*
X2858954Y2242982D01*
X2838961D01*
X2828964Y2252979D01*
Y2292966D01*
X2888945Y2242982D02*
Y2282969D01*
X2898941D01*
X2908938Y2272972D01*
Y2242982D01*
Y2272972D01*
X2918935Y2282969D01*
X2928932Y2272972D01*
Y2242982D01*
X2948925D02*
Y2282969D01*
X2958922D01*
X2968919Y2272972D01*
Y2242982D01*
Y2272972D01*
X2978915Y2282969D01*
X2988912Y2272972D01*
Y2242982D01*
X3008906D02*
X3028899Y2262975D01*
Y2282969D01*
X3008906Y2302963D01*
X2049216Y2092982D02*
X2069210D01*
X2059213D01*
Y2152963D01*
X2049216Y2142966D01*
X2099200D02*
X2109197Y2152963D01*
X2129190D01*
X2139187Y2142966D01*
Y2102979D01*
X2129190Y2092982D01*
X2109197D01*
X2099200Y2102979D01*
Y2142966D01*
X2159181D02*
X2169177Y2152963D01*
X2189171D01*
X2199168Y2142966D01*
Y2102979D01*
X2189171Y2092982D01*
X2169177D01*
X2159181Y2102979D01*
Y2142966D01*
X2219161Y2092982D02*
Y2102979D01*
X2229158D01*
Y2092982D01*
X2219161D01*
X2269145Y2142966D02*
X2279142Y2152963D01*
X2299135D01*
X2309132Y2142966D01*
Y2102979D01*
X2299135Y2092982D01*
X2279142D01*
X2269145Y2102979D01*
Y2142966D01*
X2329126D02*
X2339122Y2152963D01*
X2359116D01*
X2369113Y2142966D01*
Y2102979D01*
X2359116Y2092982D01*
X2339122D01*
X2329126Y2102979D01*
Y2142966D01*
X2389106Y2092982D02*
Y2132969D01*
X2399103D01*
X2409100Y2122972D01*
Y2092982D01*
Y2122972D01*
X2419097Y2132969D01*
X2429093Y2122972D01*
Y2092982D01*
X2449087D02*
X2469080D01*
X2459084D01*
Y2132969D01*
X2449087D01*
X2499071Y2092982D02*
X2519064D01*
X2509068D01*
Y2152963D01*
X2499071D01*
X2629029Y2092982D02*
X2609035Y2112975D01*
Y2132969D01*
X2629029Y2152963D01*
X2699006Y2092982D02*
X2659019D01*
X2699006Y2132969D01*
Y2142966D01*
X2689009Y2152963D01*
X2669016D01*
X2659019Y2142966D01*
X2718999Y2092982D02*
Y2102979D01*
X2728996D01*
Y2092982D01*
X2718999D01*
X2808970Y2152963D02*
X2768983D01*
Y2122972D01*
X2788977Y2132969D01*
X2798974D01*
X2808970Y2122972D01*
Y2102979D01*
X2798974Y2092982D01*
X2778980D01*
X2768983Y2102979D01*
X2858954Y2092982D02*
Y2152963D01*
X2828964Y2122972D01*
X2868951D01*
X2888945Y2142966D02*
X2898941Y2152963D01*
X2918935D01*
X2928932Y2142966D01*
Y2102979D01*
X2918935Y2092982D01*
X2898941D01*
X2888945Y2102979D01*
Y2142966D01*
X2948925Y2092982D02*
Y2132969D01*
X2958922D01*
X2968919Y2122972D01*
Y2092982D01*
Y2122972D01*
X2978915Y2132969D01*
X2988912Y2122972D01*
Y2092982D01*
X3008906D02*
Y2132969D01*
X3018903D01*
X3028899Y2122972D01*
Y2092982D01*
Y2122972D01*
X3038896Y2132969D01*
X3048893Y2122972D01*
Y2092982D01*
X3068886D02*
X3088880Y2112975D01*
Y2132969D01*
X3068886Y2152963D01*
X1459372Y1942982D02*
X1479365D01*
X1469368D01*
Y2002963D01*
X1459372Y1992966D01*
X1509355D02*
X1519352Y2002963D01*
X1539346D01*
X1549342Y1992966D01*
Y1982969D01*
X1539346Y1972972D01*
X1529349D01*
X1539346D01*
X1549342Y1962975D01*
Y1952979D01*
X1539346Y1942982D01*
X1519352D01*
X1509355Y1952979D01*
X1609323Y2002963D02*
X1569336D01*
Y1972972D01*
X1589330Y1982969D01*
X1599326D01*
X1609323Y1972972D01*
Y1952979D01*
X1599326Y1942982D01*
X1579333D01*
X1569336Y1952979D01*
X1689297Y2002963D02*
X1729284D01*
X1709291D01*
Y1942982D01*
X1759275D02*
X1779268D01*
X1789265Y1952979D01*
Y1972972D01*
X1779268Y1982969D01*
X1759275D01*
X1749278Y1972972D01*
Y1952979D01*
X1759275Y1942982D01*
X1819255Y1992966D02*
Y1982969D01*
X1809258D01*
X1829252D01*
X1819255D01*
Y1952979D01*
X1829252Y1942982D01*
X1869239Y1982969D02*
X1889233D01*
X1899229Y1972972D01*
Y1942982D01*
X1869239D01*
X1859242Y1952979D01*
X1869239Y1962975D01*
X1899229D01*
X1919223Y1942982D02*
X1939216D01*
X1929220D01*
Y2002963D01*
X1919223D01*
X1459372Y2852979D02*
X1469368Y2842982D01*
X1489362D01*
X1499359Y2852979D01*
Y2892966D01*
X1489362Y2902963D01*
X1469368D01*
X1459372Y2892966D01*
Y2882969D01*
X1469368Y2872972D01*
X1499359D01*
X1519352Y2892966D02*
X1529349Y2902963D01*
X1549342D01*
X1559339Y2892966D01*
Y2882969D01*
X1549342Y2872972D01*
X1539346D01*
X1549342D01*
X1559339Y2862975D01*
Y2852979D01*
X1549342Y2842982D01*
X1529349D01*
X1519352Y2852979D01*
X1499359Y2692982D02*
X1459372D01*
X1499359Y2732969D01*
Y2742966D01*
X1489362Y2752963D01*
X1469368D01*
X1459372Y2742966D01*
X1499359Y2542982D02*
X1459372D01*
X1499359Y2582969D01*
Y2592966D01*
X1489362Y2602963D01*
X1469368D01*
X1459372Y2592966D01*
Y2442966D02*
X1469368Y2452963D01*
X1489362D01*
X1499359Y2442966D01*
Y2432969D01*
X1489362Y2422972D01*
X1479365D01*
X1489362D01*
X1499359Y2412975D01*
Y2402979D01*
X1489362Y2392982D01*
X1469368D01*
X1459372Y2402979D01*
X1559339Y2392982D02*
X1519352D01*
X1559339Y2432969D01*
Y2442966D01*
X1549342Y2452963D01*
X1529349D01*
X1519352Y2442966D01*
X1499359Y2242982D02*
X1459372D01*
X1499359Y2282969D01*
Y2292966D01*
X1489362Y2302963D01*
X1469368D01*
X1459372Y2292966D01*
X1489362Y2092982D02*
Y2152963D01*
X1459372Y2122972D01*
X1499359D01*
X2738965Y1718027D02*
X2778952D01*
X2738965Y1738021D02*
X2778952D01*
X2858927Y1698034D02*
Y1758014D01*
X2888917D01*
X2898914Y1748017D01*
Y1728024D01*
X2888917Y1718027D01*
X2858927D01*
X2878920D02*
X2898914Y1698034D01*
X2928904D02*
X2948898D01*
X2958894Y1708031D01*
Y1728024D01*
X2948898Y1738021D01*
X2928904D01*
X2918907Y1728024D01*
Y1708031D01*
X2928904Y1698034D01*
X2978888Y1738021D02*
Y1708031D01*
X2988885Y1698034D01*
X3018875D01*
Y1738021D01*
X3048865Y1748017D02*
Y1738021D01*
X3038868D01*
X3058862D01*
X3048865D01*
Y1708031D01*
X3058862Y1698034D01*
X3118843D02*
X3098849D01*
X3088852Y1708031D01*
Y1728024D01*
X3098849Y1738021D01*
X3118843D01*
X3128839Y1728024D01*
Y1718027D01*
X3088852D01*
X3188820Y1758014D02*
Y1698034D01*
X3158830D01*
X3148833Y1708031D01*
Y1728024D01*
X3158830Y1738021D01*
X3188820D01*
X3268794Y1698034D02*
Y1758014D01*
X3298784D01*
X3308781Y1748017D01*
Y1728024D01*
X3298784Y1718027D01*
X3268794D01*
X3338771Y1738021D02*
X3358765D01*
X3368762Y1728024D01*
Y1698034D01*
X3338771D01*
X3328775Y1708031D01*
X3338771Y1718027D01*
X3368762D01*
X3398752Y1748017D02*
Y1738021D01*
X3388755D01*
X3408749D01*
X3398752D01*
Y1708031D01*
X3408749Y1698034D01*
X3438739Y1758014D02*
Y1698034D01*
Y1728024D01*
X3448736Y1738021D01*
X3468729D01*
X3478726Y1728024D01*
Y1698034D01*
X3558700Y1758014D02*
Y1698034D01*
X3598687D01*
X3648671D02*
X3628678D01*
X3618681Y1708031D01*
Y1728024D01*
X3628678Y1738021D01*
X3648671D01*
X3658668Y1728024D01*
Y1718027D01*
X3618681D01*
X3678661Y1698034D02*
Y1738021D01*
X3708652D01*
X3718648Y1728024D01*
Y1698034D01*
X3758635Y1678040D02*
X3768632D01*
X3778629Y1688037D01*
Y1738021D01*
X3748639D01*
X3738642Y1728024D01*
Y1708031D01*
X3748639Y1698034D01*
X3778629D01*
X3808619Y1748017D02*
Y1738021D01*
X3798623D01*
X3818616D01*
X3808619D01*
Y1708031D01*
X3818616Y1698034D01*
X3848606Y1758014D02*
Y1698034D01*
Y1728024D01*
X3858603Y1738021D01*
X3878597D01*
X3888593Y1728024D01*
Y1698034D01*
X3968568Y1728024D02*
X4008555D01*
X3988561Y1748017D02*
Y1708031D01*
X4088529Y1758014D02*
X4128516D01*
X4108522D01*
Y1698034D01*
X4158506D02*
X4178500D01*
X4188497Y1708031D01*
Y1728024D01*
X4178500Y1738021D01*
X4158506D01*
X4148509Y1728024D01*
Y1708031D01*
X4158506Y1698034D01*
X4218487D02*
X4238480D01*
X4248477Y1708031D01*
Y1728024D01*
X4238480Y1738021D01*
X4218487D01*
X4208490Y1728024D01*
Y1708031D01*
X4218487Y1698034D01*
X4268471D02*
X4288464D01*
X4278467D01*
Y1758014D01*
X4268471D01*
X4418422Y1748017D02*
X4408425Y1758014D01*
X4388432D01*
X4378435Y1748017D01*
Y1738021D01*
X4388432Y1728024D01*
X4408425D01*
X4418422Y1718027D01*
Y1708031D01*
X4408425Y1698034D01*
X4388432D01*
X4378435Y1708031D01*
X4438416Y1698034D02*
X4458409D01*
X4448412D01*
Y1738021D01*
X4438416D01*
X4488399D02*
X4528386D01*
X4488399Y1698034D01*
X4528386D01*
X4578370D02*
X4558377D01*
X4548380Y1708031D01*
Y1728024D01*
X4558377Y1738021D01*
X4578370D01*
X4588367Y1728024D01*
Y1718027D01*
X4548380D01*
X4668341D02*
X4708328D01*
X4668341Y1738021D02*
X4708328D01*
X4828289Y1748017D02*
X4818293Y1758014D01*
X4798299D01*
X4788302Y1748017D01*
Y1738021D01*
X4798299Y1728024D01*
X4818293D01*
X4828289Y1718027D01*
Y1708031D01*
X4818293Y1698034D01*
X4798299D01*
X4788302Y1708031D01*
X4848283Y1698034D02*
X4868276D01*
X4858280D01*
Y1758014D01*
X4848283D01*
X4908264Y1698034D02*
X4928257D01*
X4938254Y1708031D01*
Y1728024D01*
X4928257Y1738021D01*
X4908264D01*
X4898267Y1728024D01*
Y1708031D01*
X4908264Y1698034D01*
X4968244Y1748017D02*
Y1738021D01*
X4958247D01*
X4978241D01*
X4968244D01*
Y1708031D01*
X4978241Y1698034D01*
X5068212D02*
X5088205D01*
X5078209D01*
Y1758014D01*
X5068212D01*
X5148186Y1698034D02*
X5128192D01*
X5118196Y1708031D01*
Y1728024D01*
X5128192Y1738021D01*
X5148186D01*
X5158183Y1728024D01*
Y1718027D01*
X5118196D01*
X5178176Y1698034D02*
Y1738021D01*
X5208167D01*
X5218163Y1728024D01*
Y1698034D01*
X5258150Y1678040D02*
X5268147D01*
X5278144Y1688037D01*
Y1738021D01*
X5248154D01*
X5238157Y1728024D01*
Y1708031D01*
X5248154Y1698034D01*
X5278144D01*
X5308134Y1748017D02*
Y1738021D01*
X5298137D01*
X5318131D01*
X5308134D01*
Y1708031D01*
X5318131Y1698034D01*
X5348121Y1758014D02*
Y1698034D01*
Y1728024D01*
X5358118Y1738021D01*
X5378111D01*
X5388108Y1728024D01*
Y1698034D01*
X5478079Y1738021D02*
X5498073D01*
X5508069Y1728024D01*
Y1698034D01*
X5478079D01*
X5468082Y1708031D01*
X5478079Y1718027D01*
X5508069D01*
X5528063Y1698034D02*
X5558053D01*
X5568050Y1708031D01*
X5558053Y1718027D01*
X5538060D01*
X5528063Y1728024D01*
X5538060Y1738021D01*
X5568050D01*
X5688011Y1758014D02*
Y1698034D01*
X5658021D01*
X5648024Y1708031D01*
Y1728024D01*
X5658021Y1738021D01*
X5688011D01*
X5737995Y1698034D02*
X5718002D01*
X5708005Y1708031D01*
Y1728024D01*
X5718002Y1738021D01*
X5737995D01*
X5747992Y1728024D01*
Y1718027D01*
X5708005D01*
X5777982Y1698034D02*
Y1748017D01*
Y1728024D01*
X5767985D01*
X5787979D01*
X5777982D01*
Y1748017D01*
X5787979Y1758014D01*
X5817969Y1698034D02*
X5837963D01*
X5827966D01*
Y1738021D01*
X5817969D01*
X5867953Y1698034D02*
Y1738021D01*
X5897943D01*
X5907940Y1728024D01*
Y1698034D01*
X5957924D02*
X5937930D01*
X5927934Y1708031D01*
Y1728024D01*
X5937930Y1738021D01*
X5957924D01*
X5967921Y1728024D01*
Y1718027D01*
X5927934D01*
X6027901Y1758014D02*
Y1698034D01*
X5997911D01*
X5987914Y1708031D01*
Y1728024D01*
X5997911Y1738021D01*
X6027901D01*
X6107875Y1698034D02*
X6127869D01*
X6117872D01*
Y1738021D01*
X6107875D01*
X6157859Y1698034D02*
Y1738021D01*
X6187850D01*
X6197846Y1728024D01*
Y1698034D01*
X6287817Y1748017D02*
Y1738021D01*
X6277820D01*
X6297814D01*
X6287817D01*
Y1708031D01*
X6297814Y1698034D01*
X6327804Y1758014D02*
Y1698034D01*
Y1728024D01*
X6337801Y1738021D01*
X6357794D01*
X6367791Y1728024D01*
Y1698034D01*
X6417775D02*
X6397782D01*
X6387785Y1708031D01*
Y1728024D01*
X6397782Y1738021D01*
X6417775D01*
X6427772Y1728024D01*
Y1718027D01*
X6387785D01*
X6507746Y1698034D02*
Y1758014D01*
X6537736D01*
X6547733Y1748017D01*
Y1728024D01*
X6537736Y1718027D01*
X6507746D01*
X6607714Y1748017D02*
X6597717Y1758014D01*
X6577723D01*
X6567727Y1748017D01*
Y1708031D01*
X6577723Y1698034D01*
X6597717D01*
X6607714Y1708031D01*
X6627707Y1758014D02*
Y1698034D01*
X6657698D01*
X6667694Y1708031D01*
Y1718027D01*
X6657698Y1728024D01*
X6627707D01*
X6657698D01*
X6667694Y1738021D01*
Y1748017D01*
X6657698Y1758014D01*
X6627707D01*
X6747668Y1698034D02*
X6767662D01*
X6757665D01*
Y1758014D01*
X6747668D01*
X6807649Y1738021D02*
X6827642D01*
X6837639Y1728024D01*
Y1698034D01*
X6807649D01*
X6797652Y1708031D01*
X6807649Y1718027D01*
X6837639D01*
X6857633Y1738021D02*
Y1708031D01*
X6867630Y1698034D01*
X6897620D01*
Y1688037D01*
X6887623Y1678040D01*
X6877626D01*
X6897620Y1698034D02*
Y1738021D01*
X6927610Y1698034D02*
X6947604D01*
X6957600Y1708031D01*
Y1728024D01*
X6947604Y1738021D01*
X6927610D01*
X6917613Y1728024D01*
Y1708031D01*
X6927610Y1698034D01*
X6977594Y1738021D02*
Y1708031D01*
X6987591Y1698034D01*
X7017581D01*
Y1738021D01*
X7047571Y1748017D02*
Y1738021D01*
X7037575D01*
X7057568D01*
X7047571D01*
Y1708031D01*
X7057568Y1698034D01*
X3088852Y1818001D02*
X3128839D01*
X3088852Y1837995D02*
X3128839D01*
X3248800Y1847992D02*
X3238804Y1857988D01*
X3218810D01*
X3208813Y1847992D01*
Y1808005D01*
X3218810Y1798008D01*
X3238804D01*
X3248800Y1808005D01*
X3278791Y1837995D02*
X3298784D01*
X3308781Y1827998D01*
Y1798008D01*
X3278791D01*
X3268794Y1808005D01*
X3278791Y1818001D01*
X3308781D01*
X3328775Y1798008D02*
X3348768D01*
X3338771D01*
Y1857988D01*
X3328775D01*
X3418745Y1837995D02*
X3388755D01*
X3378758Y1827998D01*
Y1808005D01*
X3388755Y1798008D01*
X3418745D01*
X3438739Y1837995D02*
Y1808005D01*
X3448736Y1798008D01*
X3478726D01*
Y1837995D01*
X3498720Y1798008D02*
X3518713D01*
X3508716D01*
Y1857988D01*
X3498720D01*
X3558700Y1837995D02*
X3578694D01*
X3588691Y1827998D01*
Y1798008D01*
X3558700D01*
X3548703Y1808005D01*
X3558700Y1818001D01*
X3588691D01*
X3618681Y1847992D02*
Y1837995D01*
X3608684D01*
X3628677D01*
X3618681D01*
Y1808005D01*
X3628677Y1798008D01*
X3688658D02*
X3668665D01*
X3658668Y1808005D01*
Y1827998D01*
X3668665Y1837995D01*
X3688658D01*
X3698655Y1827998D01*
Y1818001D01*
X3658668D01*
X3758635Y1857988D02*
Y1798008D01*
X3728645D01*
X3718648Y1808005D01*
Y1827998D01*
X3728645Y1837995D01*
X3758635D01*
X3848606Y1798008D02*
Y1847992D01*
Y1827998D01*
X3838610D01*
X3858603D01*
X3848606D01*
Y1847992D01*
X3858603Y1857988D01*
X3888593Y1837995D02*
Y1798008D01*
Y1818001D01*
X3898590Y1827998D01*
X3908587Y1837995D01*
X3918584D01*
X3958571Y1798008D02*
X3978564D01*
X3988561Y1808005D01*
Y1827998D01*
X3978564Y1837995D01*
X3958571D01*
X3948574Y1827998D01*
Y1808005D01*
X3958571Y1798008D01*
X4008555D02*
Y1837995D01*
X4018551D01*
X4028548Y1827998D01*
Y1798008D01*
Y1827998D01*
X4038545Y1837995D01*
X4048542Y1827998D01*
Y1798008D01*
X4138513Y1847992D02*
Y1837995D01*
X4128516D01*
X4148509D01*
X4138513D01*
Y1808005D01*
X4148509Y1798008D01*
X4188496D02*
X4208490D01*
X4218487Y1808005D01*
Y1827998D01*
X4208490Y1837995D01*
X4188496D01*
X4178500Y1827998D01*
Y1808005D01*
X4188496Y1798008D01*
X4248477D02*
X4268471D01*
X4278467Y1808005D01*
Y1827998D01*
X4268471Y1837995D01*
X4248477D01*
X4238480Y1827998D01*
Y1808005D01*
X4248477Y1798008D01*
X4298461D02*
X4318454D01*
X4308458D01*
Y1857988D01*
X4298461D01*
X4408425Y1798008D02*
X4438416D01*
X4448412Y1808005D01*
X4438416Y1818001D01*
X4418422D01*
X4408425Y1827998D01*
X4418422Y1837995D01*
X4448412D01*
X4478403Y1847992D02*
Y1837995D01*
X4468406D01*
X4488399D01*
X4478403D01*
Y1808005D01*
X4488399Y1798008D01*
X4528386Y1837995D02*
X4548380D01*
X4558377Y1827998D01*
Y1798008D01*
X4528386D01*
X4518390Y1808005D01*
X4528386Y1818001D01*
X4558377D01*
X4578370Y1837995D02*
Y1798008D01*
Y1818001D01*
X4588367Y1827998D01*
X4598364Y1837995D01*
X4608360D01*
X4648348Y1847992D02*
Y1837995D01*
X4638351D01*
X4658344D01*
X4648348D01*
Y1808005D01*
X4658344Y1798008D01*
X4788302Y1837995D02*
X4758312D01*
X4748315Y1827998D01*
Y1808005D01*
X4758312Y1798008D01*
X4788302D01*
X4838286D02*
X4818293D01*
X4808296Y1808005D01*
Y1827998D01*
X4818293Y1837995D01*
X4838286D01*
X4848283Y1827998D01*
Y1818001D01*
X4808296D01*
X4868276Y1798008D02*
Y1837995D01*
X4898267D01*
X4908264Y1827998D01*
Y1798008D01*
X4938254Y1847992D02*
Y1837995D01*
X4928257D01*
X4948251D01*
X4938254D01*
Y1808005D01*
X4948251Y1798008D01*
X4978241Y1837995D02*
Y1798008D01*
Y1818001D01*
X4988238Y1827998D01*
X4998234Y1837995D01*
X5008231D01*
X5068212Y1798008D02*
X5048218D01*
X5038221Y1808005D01*
Y1827998D01*
X5048218Y1837995D01*
X5068212D01*
X5078208Y1827998D01*
Y1818001D01*
X5038221D01*
X5158183Y1778014D02*
Y1837995D01*
X5188173D01*
X5198170Y1827998D01*
Y1808005D01*
X5188173Y1798008D01*
X5158183D01*
X5228160D02*
X5248154D01*
X5258150Y1808005D01*
Y1827998D01*
X5248154Y1837995D01*
X5228160D01*
X5218163Y1827998D01*
Y1808005D01*
X5228160Y1798008D01*
X5278144D02*
X5308134D01*
X5318131Y1808005D01*
X5308134Y1818001D01*
X5288141D01*
X5278144Y1827998D01*
X5288141Y1837995D01*
X5318131D01*
X5338124Y1798008D02*
X5358118D01*
X5348121D01*
Y1837995D01*
X5338124D01*
X5398105Y1847992D02*
Y1837995D01*
X5388108D01*
X5408102D01*
X5398105D01*
Y1808005D01*
X5408102Y1798008D01*
X5438092D02*
X5458086D01*
X5448089D01*
Y1837995D01*
X5438092D01*
X5498073Y1798008D02*
X5518066D01*
X5528063Y1808005D01*
Y1827998D01*
X5518066Y1837995D01*
X5498073D01*
X5488076Y1827998D01*
Y1808005D01*
X5498073Y1798008D01*
X5548056D02*
Y1837995D01*
X5578047D01*
X5588043Y1827998D01*
Y1798008D01*
X5678014Y1847992D02*
Y1837995D01*
X5668018D01*
X5688011D01*
X5678014D01*
Y1808005D01*
X5688011Y1798008D01*
X5727998D02*
X5747992D01*
X5757989Y1808005D01*
Y1827998D01*
X5747992Y1837995D01*
X5727998D01*
X5718001Y1827998D01*
Y1808005D01*
X5727998Y1798008D01*
X5847959Y1847992D02*
Y1837995D01*
X5837963D01*
X5857956D01*
X5847959D01*
Y1808005D01*
X5857956Y1798008D01*
X5897943D02*
X5917937D01*
X5927934Y1808005D01*
Y1827998D01*
X5917937Y1837995D01*
X5897943D01*
X5887946Y1827998D01*
Y1808005D01*
X5897943Y1798008D01*
X5957924D02*
X5977917D01*
X5987914Y1808005D01*
Y1827998D01*
X5977917Y1837995D01*
X5957924D01*
X5947927Y1827998D01*
Y1808005D01*
X5957924Y1798008D01*
X6007908D02*
X6027901D01*
X6017904D01*
Y1857988D01*
X6007908D01*
X6147862Y1798008D02*
X6127869D01*
X6117872Y1808005D01*
Y1827998D01*
X6127869Y1837995D01*
X6147862D01*
X6157859Y1827998D01*
Y1818001D01*
X6117872D01*
X6177853Y1798008D02*
Y1837995D01*
X6207843D01*
X6217840Y1827998D01*
Y1798008D01*
X6277820Y1857988D02*
Y1798008D01*
X6247830D01*
X6237833Y1808005D01*
Y1827998D01*
X6247830Y1837995D01*
X6277820D01*
X6397782D02*
X6367791D01*
X6357794Y1827998D01*
Y1808005D01*
X6367791Y1798008D01*
X6397782D01*
X6447765D02*
X6427772D01*
X6417775Y1808005D01*
Y1827998D01*
X6427772Y1837995D01*
X6447765D01*
X6457762Y1827998D01*
Y1818001D01*
X6417775D01*
X6477756Y1798008D02*
Y1837995D01*
X6507746D01*
X6517743Y1827998D01*
Y1798008D01*
X6547733Y1847992D02*
Y1837995D01*
X6537736D01*
X6557730D01*
X6547733D01*
Y1808005D01*
X6557730Y1798008D01*
X6587720Y1837995D02*
Y1798008D01*
Y1818001D01*
X6597717Y1827998D01*
X6607713Y1837995D01*
X6617710D01*
X6677691Y1798008D02*
X6657697D01*
X6647701Y1808005D01*
Y1827998D01*
X6657697Y1837995D01*
X6677691D01*
X6687688Y1827998D01*
Y1818001D01*
X6647701D01*
X6767662Y1778014D02*
Y1837995D01*
X6797652D01*
X6807649Y1827998D01*
Y1808005D01*
X6797652Y1798008D01*
X6767662D01*
X6837639D02*
X6857633D01*
X6867630Y1808005D01*
Y1827998D01*
X6857633Y1837995D01*
X6837639D01*
X6827642Y1827998D01*
Y1808005D01*
X6837639Y1798008D01*
X6887623D02*
X6917613D01*
X6927610Y1808005D01*
X6917613Y1818001D01*
X6897620D01*
X6887623Y1827998D01*
X6897620Y1837995D01*
X6927610D01*
X6947604Y1798008D02*
X6967597D01*
X6957600D01*
Y1837995D01*
X6947604D01*
X7007584Y1847992D02*
Y1837995D01*
X6997587D01*
X7017581D01*
X7007584D01*
Y1808005D01*
X7017581Y1798008D01*
X7047571D02*
X7067565D01*
X7057568D01*
Y1837995D01*
X7047571D01*
X7107552Y1798008D02*
X7127545D01*
X7137542Y1808005D01*
Y1827998D01*
X7127545Y1837995D01*
X7107552D01*
X7097555Y1827998D01*
Y1808005D01*
X7107552Y1798008D01*
X7157536D02*
Y1837995D01*
X7187526D01*
X7197523Y1827998D01*
Y1798008D01*
X7217516D02*
Y1808005D01*
X7227513D01*
Y1798008D01*
X7217516D01*
X3178770Y942663D02*
Y882682D01*
X3218757D01*
X3248747Y922669D02*
X3268741D01*
X3278738Y912673D01*
Y882682D01*
X3248747D01*
X3238751Y892679D01*
X3248747Y902676D01*
X3278738D01*
X3298731Y922669D02*
Y892679D01*
X3308728Y882682D01*
X3338718D01*
Y872686D01*
X3328722Y862689D01*
X3318725D01*
X3338718Y882682D02*
Y922669D01*
X3388702Y882682D02*
X3368709D01*
X3358712Y892679D01*
Y912673D01*
X3368709Y922669D01*
X3388702D01*
X3398699Y912673D01*
Y902676D01*
X3358712D01*
X3418692Y922669D02*
Y882682D01*
Y902676D01*
X3428689Y912673D01*
X3438686Y922669D01*
X3448683D01*
X3218757Y282682D02*
X3178770D01*
X3218757Y322670D01*
Y332666D01*
X3208760Y342663D01*
X3188767D01*
X3178770Y332666D01*
Y522682D02*
X3198764D01*
X3188767D01*
Y582663D01*
X3178770Y572666D01*
X3588683Y882682D02*
Y942663D01*
X3628670Y882682D01*
Y942663D01*
X3658660Y922669D02*
X3678654D01*
X3688650Y912673D01*
Y882682D01*
X3658660D01*
X3648663Y892679D01*
X3658660Y902676D01*
X3688650D01*
X3708644Y882682D02*
Y922669D01*
X3718641D01*
X3728637Y912673D01*
Y882682D01*
Y912673D01*
X3738634Y922669D01*
X3748631Y912673D01*
Y882682D01*
X3798615D02*
X3778621D01*
X3768624Y892679D01*
Y912673D01*
X3778621Y922669D01*
X3798615D01*
X3808612Y912673D01*
Y902676D01*
X3768624D01*
X3588683Y102663D02*
Y42682D01*
X3618673D01*
X3628670Y52679D01*
Y62676D01*
X3618673Y72673D01*
X3588683D01*
X3618673D01*
X3628670Y82669D01*
Y92666D01*
X3618673Y102663D01*
X3588683D01*
X3658660Y42682D02*
X3678654D01*
X3688650Y52679D01*
Y72673D01*
X3678654Y82669D01*
X3658660D01*
X3648663Y72673D01*
Y52679D01*
X3658660Y42682D01*
X3718641Y92666D02*
Y82669D01*
X3708644D01*
X3728637D01*
X3718641D01*
Y52679D01*
X3728637Y42682D01*
X3768624Y92666D02*
Y82669D01*
X3758628D01*
X3778621D01*
X3768624D01*
Y52679D01*
X3778621Y42682D01*
X3818608D02*
X3838602D01*
X3848599Y52679D01*
Y72673D01*
X3838602Y82669D01*
X3818608D01*
X3808611Y72673D01*
Y52679D01*
X3818608Y42682D01*
X3868592D02*
Y82669D01*
X3878589D01*
X3888586Y72673D01*
Y42682D01*
Y72673D01*
X3898582Y82669D01*
X3908579Y72673D01*
Y42682D01*
X4018544Y102663D02*
X3998550D01*
X3988553Y92666D01*
Y52679D01*
X3998550Y42682D01*
X4018544D01*
X4028540Y52679D01*
Y92666D01*
X4018544Y102663D01*
X4048534Y82669D02*
X4068527Y42682D01*
X4088521Y82669D01*
X4138505Y42682D02*
X4118511D01*
X4108515Y52679D01*
Y72673D01*
X4118511Y82669D01*
X4138505D01*
X4148502Y72673D01*
Y62676D01*
X4108515D01*
X4168495Y82669D02*
Y42682D01*
Y62676D01*
X4178492Y72673D01*
X4188489Y82669D01*
X4198485D01*
X4228476Y42682D02*
X4248469D01*
X4238472D01*
Y102663D01*
X4228476D01*
X4288456Y82669D02*
X4308450D01*
X4318447Y72673D01*
Y42682D01*
X4288456D01*
X4278459Y52679D01*
X4288456Y62676D01*
X4318447D01*
X4338440Y82669D02*
Y52679D01*
X4348437Y42682D01*
X4378427D01*
Y32686D01*
X4368430Y22689D01*
X4358434D01*
X4378427Y42682D02*
Y82669D01*
X3588683Y222663D02*
Y162682D01*
X3618673D01*
X3628670Y172679D01*
Y182676D01*
X3618673Y192673D01*
X3588683D01*
X3618673D01*
X3628670Y202669D01*
Y212666D01*
X3618673Y222663D01*
X3588683D01*
X3658660Y162682D02*
X3678654D01*
X3688650Y172679D01*
Y192673D01*
X3678654Y202669D01*
X3658660D01*
X3648663Y192673D01*
Y172679D01*
X3658660Y162682D01*
X3718641Y212666D02*
Y202669D01*
X3708644D01*
X3728637D01*
X3718641D01*
Y172679D01*
X3728637Y162682D01*
X3768624Y212666D02*
Y202669D01*
X3758628D01*
X3778621D01*
X3768624D01*
Y172679D01*
X3778621Y162682D01*
X3818608D02*
X3838602D01*
X3848599Y172679D01*
Y192673D01*
X3838602Y202669D01*
X3818608D01*
X3808611Y192673D01*
Y172679D01*
X3818608Y162682D01*
X3868592D02*
Y202669D01*
X3878589D01*
X3888586Y192673D01*
Y162682D01*
Y192673D01*
X3898582Y202669D01*
X3908579Y192673D01*
Y162682D01*
X4028540Y212666D02*
X4018544Y222663D01*
X3998550D01*
X3988553Y212666D01*
Y202669D01*
X3998550Y192673D01*
X4018544D01*
X4028540Y182676D01*
Y172679D01*
X4018544Y162682D01*
X3998550D01*
X3988553Y172679D01*
X4058531Y162682D02*
X4078524D01*
X4088521Y172679D01*
Y192673D01*
X4078524Y202669D01*
X4058531D01*
X4048534Y192673D01*
Y172679D01*
X4058531Y162682D01*
X4108515D02*
X4128508D01*
X4118511D01*
Y222663D01*
X4108515D01*
X4198485D02*
Y162682D01*
X4168495D01*
X4158498Y172679D01*
Y192673D01*
X4168495Y202669D01*
X4198485D01*
X4248469Y162682D02*
X4228476D01*
X4218479Y172679D01*
Y192673D01*
X4228476Y202669D01*
X4248469D01*
X4258466Y192673D01*
Y182676D01*
X4218479D01*
X4278459Y202669D02*
Y162682D01*
Y182676D01*
X4288456Y192673D01*
X4298453Y202669D01*
X4308450D01*
X3588683Y342663D02*
Y282682D01*
X3618673D01*
X3628670Y292679D01*
Y302676D01*
X3618673Y312673D01*
X3588683D01*
X3618673D01*
X3628670Y322670D01*
Y332666D01*
X3618673Y342663D01*
X3588683D01*
X3658660Y282682D02*
X3678654D01*
X3688650Y292679D01*
Y312673D01*
X3678654Y322670D01*
X3658660D01*
X3648663Y312673D01*
Y292679D01*
X3658660Y282682D01*
X3718641Y332666D02*
Y322670D01*
X3708644D01*
X3728637D01*
X3718641D01*
Y292679D01*
X3728637Y282682D01*
X3768624Y332666D02*
Y322670D01*
X3758628D01*
X3778621D01*
X3768624D01*
Y292679D01*
X3778621Y282682D01*
X3818608D02*
X3838602D01*
X3848599Y292679D01*
Y312673D01*
X3838602Y322670D01*
X3818608D01*
X3808611Y312673D01*
Y292679D01*
X3818608Y282682D01*
X3868592D02*
Y322670D01*
X3878589D01*
X3888586Y312673D01*
Y282682D01*
Y312673D01*
X3898582Y322670D01*
X3908579Y312673D01*
Y282682D01*
X3988553Y342663D02*
Y282682D01*
X4028540D01*
X4058531Y322670D02*
X4078524D01*
X4088521Y312673D01*
Y282682D01*
X4058531D01*
X4048534Y292679D01*
X4058531Y302676D01*
X4088521D01*
X4108515Y322670D02*
Y292679D01*
X4118511Y282682D01*
X4148502D01*
Y272686D01*
X4138505Y262689D01*
X4128508D01*
X4148502Y282682D02*
Y322670D01*
X4198485Y282682D02*
X4178492D01*
X4168495Y292679D01*
Y312673D01*
X4178492Y322670D01*
X4198485D01*
X4208482Y312673D01*
Y302676D01*
X4168495D01*
X4228476Y322670D02*
Y282682D01*
Y302676D01*
X4238472Y312673D01*
X4248469Y322670D01*
X4258466D01*
X3588683Y462663D02*
Y402682D01*
X3618673D01*
X3628670Y412679D01*
Y452666D01*
X3618673Y462663D01*
X3588683D01*
X3648663Y402682D02*
X3668657D01*
X3658660D01*
Y442670D01*
X3648663D01*
X3728637Y402682D02*
X3708644D01*
X3698647Y412679D01*
Y432673D01*
X3708644Y442670D01*
X3728637D01*
X3738634Y432673D01*
Y422676D01*
X3698647D01*
X3758628Y402682D02*
X3778621D01*
X3768624D01*
Y462663D01*
X3758628D01*
X3838602Y402682D02*
X3818608D01*
X3808611Y412679D01*
Y432673D01*
X3818608Y442670D01*
X3838602D01*
X3848599Y432673D01*
Y422676D01*
X3808611D01*
X3908579Y442670D02*
X3878589D01*
X3868592Y432673D01*
Y412679D01*
X3878589Y402682D01*
X3908579D01*
X3938570Y452666D02*
Y442670D01*
X3928573D01*
X3948566D01*
X3938570D01*
Y412679D01*
X3948566Y402682D01*
X3978557Y442670D02*
Y402682D01*
Y422676D01*
X3988553Y432673D01*
X3998550Y442670D01*
X4008547D01*
X4038537Y402682D02*
X4058531D01*
X4048534D01*
Y442670D01*
X4038537D01*
X4128508D02*
X4098518D01*
X4088521Y432673D01*
Y412679D01*
X4098518Y402682D01*
X4128508D01*
X4208482D02*
X4228476D01*
X4218479D01*
Y462663D01*
X4208482Y452666D01*
X3588683Y582663D02*
X3628670D01*
X3608676D01*
Y522682D01*
X3658660D02*
X3678654D01*
X3688650Y532679D01*
Y552673D01*
X3678654Y562669D01*
X3658660D01*
X3648663Y552673D01*
Y532679D01*
X3658660Y522682D01*
X3708644Y502689D02*
Y562669D01*
X3738634D01*
X3748631Y552673D01*
Y532679D01*
X3738634Y522682D01*
X3708644D01*
X3828605Y582663D02*
Y522682D01*
X3868592D01*
X3898582Y562669D02*
X3918576D01*
X3928573Y552673D01*
Y522682D01*
X3898582D01*
X3888586Y532679D01*
X3898582Y542676D01*
X3928573D01*
X3948566Y562669D02*
Y532679D01*
X3958563Y522682D01*
X3988553D01*
Y512686D01*
X3978557Y502689D01*
X3968560D01*
X3988553Y522682D02*
Y562669D01*
X4038537Y522682D02*
X4018544D01*
X4008547Y532679D01*
Y552673D01*
X4018544Y562669D01*
X4038537D01*
X4048534Y552673D01*
Y542676D01*
X4008547D01*
X4068528Y562669D02*
Y522682D01*
Y542676D01*
X4078524Y552673D01*
X4088521Y562669D01*
X4098518D01*
X3588683Y702663D02*
X3628670D01*
X3608676D01*
Y642682D01*
X3658660D02*
X3678654D01*
X3688650Y652679D01*
Y672673D01*
X3678654Y682669D01*
X3658660D01*
X3648663Y672673D01*
Y652679D01*
X3658660Y642682D01*
X3708644Y622689D02*
Y682669D01*
X3738634D01*
X3748631Y672673D01*
Y652679D01*
X3738634Y642682D01*
X3708644D01*
X3868592Y692666D02*
X3858595Y702663D01*
X3838602D01*
X3828605Y692666D01*
Y682669D01*
X3838602Y672673D01*
X3858595D01*
X3868592Y662676D01*
Y652679D01*
X3858595Y642682D01*
X3838602D01*
X3828605Y652679D01*
X3898582Y642682D02*
X3918576D01*
X3928573Y652679D01*
Y672673D01*
X3918576Y682669D01*
X3898582D01*
X3888586Y672673D01*
Y652679D01*
X3898582Y642682D01*
X3948566D02*
X3968560D01*
X3958563D01*
Y702663D01*
X3948566D01*
X4038537D02*
Y642682D01*
X4008547D01*
X3998550Y652679D01*
Y672673D01*
X4008547Y682669D01*
X4038537D01*
X4088521Y642682D02*
X4068528D01*
X4058531Y652679D01*
Y672673D01*
X4068528Y682669D01*
X4088521D01*
X4098518Y672673D01*
Y662676D01*
X4058531D01*
X4118511Y682669D02*
Y642682D01*
Y662676D01*
X4128508Y672673D01*
X4138505Y682669D01*
X4148502D01*
X3588683Y822663D02*
X3628670D01*
X3608676D01*
Y762682D01*
X3658660D02*
X3678654D01*
X3688650Y772679D01*
Y792673D01*
X3678654Y802669D01*
X3658660D01*
X3648663Y792673D01*
Y772679D01*
X3658660Y762682D01*
X3708644Y742689D02*
Y802669D01*
X3738634D01*
X3748631Y792673D01*
Y772679D01*
X3738634Y762682D01*
X3708644D01*
X3858595Y822663D02*
X3838602D01*
X3828605Y812666D01*
Y772679D01*
X3838602Y762682D01*
X3858595D01*
X3868592Y772679D01*
Y812666D01*
X3858595Y822663D01*
X3888586Y802669D02*
X3908579Y762682D01*
X3928573Y802669D01*
X3978557Y762682D02*
X3958563D01*
X3948566Y772679D01*
Y792673D01*
X3958563Y802669D01*
X3978557D01*
X3988553Y792673D01*
Y782676D01*
X3948566D01*
X4008547Y802669D02*
Y762682D01*
Y782676D01*
X4018544Y792673D01*
X4028540Y802669D01*
X4038537D01*
X4068528Y762682D02*
X4088521D01*
X4078524D01*
Y822663D01*
X4068528D01*
X4128508Y802669D02*
X4148502D01*
X4158498Y792673D01*
Y762682D01*
X4128508D01*
X4118511Y772679D01*
X4128508Y782676D01*
X4158498D01*
X4178492Y802669D02*
Y772679D01*
X4188489Y762682D01*
X4218479D01*
Y752686D01*
X4208482Y742689D01*
X4198485D01*
X4218479Y762682D02*
Y802669D01*
X4518427Y882682D02*
Y942663D01*
X4538421Y922669D01*
X4558414Y942663D01*
Y882682D01*
X4588405Y922669D02*
X4608398D01*
X4618395Y912673D01*
Y882682D01*
X4588405D01*
X4578408Y892679D01*
X4588405Y902676D01*
X4618395D01*
X4648385Y932666D02*
Y922669D01*
X4638388D01*
X4658382D01*
X4648385D01*
Y892679D01*
X4658382Y882682D01*
X4718363D02*
X4698369D01*
X4688372Y892679D01*
Y912673D01*
X4698369Y922669D01*
X4718363D01*
X4728359Y912673D01*
Y902676D01*
X4688372D01*
X4748353Y922669D02*
Y882682D01*
Y902676D01*
X4758350Y912673D01*
X4768346Y922669D01*
X4778343D01*
X4808333Y882682D02*
X4828327D01*
X4818330D01*
Y922669D01*
X4808333D01*
X4868314D02*
X4888307D01*
X4898304Y912673D01*
Y882682D01*
X4868314D01*
X4858317Y892679D01*
X4868314Y902676D01*
X4898304D01*
X4918298Y882682D02*
X4938291D01*
X4928295D01*
Y942663D01*
X4918298D01*
X4558414Y212666D02*
X4548417Y222663D01*
X4528424D01*
X4518427Y212666D01*
Y202669D01*
X4528424Y192673D01*
X4548417D01*
X4558414Y182676D01*
Y172679D01*
X4548417Y162682D01*
X4528424D01*
X4518427Y172679D01*
X4588405Y162682D02*
X4608398D01*
X4618395Y172679D01*
Y192673D01*
X4608398Y202669D01*
X4588405D01*
X4578408Y192673D01*
Y172679D01*
X4588405Y162682D01*
X4638388D02*
X4658382D01*
X4648385D01*
Y222663D01*
X4638388D01*
X4728359D02*
Y162682D01*
X4698369D01*
X4688372Y172679D01*
Y192673D01*
X4698369Y202669D01*
X4728359D01*
X4778343Y162682D02*
X4758350D01*
X4748353Y172679D01*
Y192673D01*
X4758350Y202669D01*
X4778343D01*
X4788340Y192673D01*
Y182676D01*
X4748353D01*
X4808333Y202669D02*
Y162682D01*
Y182676D01*
X4818330Y192673D01*
X4828327Y202669D01*
X4838324D01*
X4928295Y162682D02*
Y222663D01*
X4958285D01*
X4968282Y212666D01*
Y192673D01*
X4958285Y182676D01*
X4928295D01*
X4948288D02*
X4968282Y162682D01*
X5018266D02*
X4998272D01*
X4988275Y172679D01*
Y192673D01*
X4998272Y202669D01*
X5018266D01*
X5028262Y192673D01*
Y182676D01*
X4988275D01*
X5048256Y162682D02*
X5078246D01*
X5088243Y172679D01*
X5078246Y182676D01*
X5058253D01*
X5048256Y192673D01*
X5058253Y202669D01*
X5088243D01*
X5108236Y162682D02*
X5128230D01*
X5118233D01*
Y202669D01*
X5108236D01*
X5158220Y162682D02*
X5188211D01*
X5198207Y172679D01*
X5188211Y182676D01*
X5168217D01*
X5158220Y192673D01*
X5168217Y202669D01*
X5198207D01*
X5228198Y212666D02*
Y202669D01*
X5218201D01*
X5238194D01*
X5228198D01*
Y172679D01*
X5238194Y162682D01*
X4558414Y332666D02*
X4548417Y342663D01*
X4528424D01*
X4518427Y332666D01*
Y292679D01*
X4528424Y282682D01*
X4548417D01*
X4558414Y292679D01*
X4588405Y282682D02*
X4608398D01*
X4618395Y292679D01*
Y312673D01*
X4608398Y322670D01*
X4588405D01*
X4578408Y312673D01*
Y292679D01*
X4588405Y282682D01*
X4638388Y262689D02*
Y322670D01*
X4668379D01*
X4678376Y312673D01*
Y292679D01*
X4668379Y282682D01*
X4638388D01*
X4698369Y262689D02*
Y322670D01*
X4728359D01*
X4738356Y312673D01*
Y292679D01*
X4728359Y282682D01*
X4698369D01*
X4788340D02*
X4768346D01*
X4758350Y292679D01*
Y312673D01*
X4768346Y322670D01*
X4788340D01*
X4798337Y312673D01*
Y302676D01*
X4758350D01*
X4818330Y322670D02*
Y282682D01*
Y302676D01*
X4828327Y312673D01*
X4838324Y322670D01*
X4848320D01*
X4558414Y462663D02*
X4518427D01*
Y432673D01*
X4538421D01*
X4518427D01*
Y402682D01*
X4578408D02*
Y462663D01*
X4608398D01*
X4618395Y452666D01*
Y432673D01*
X4608398Y422676D01*
X4578408D01*
X4598401D02*
X4618395Y402682D01*
X4638388Y432673D02*
X4678376D01*
X4728359Y402682D02*
Y462663D01*
X4698369Y432673D01*
X4738356D01*
X4558414Y572666D02*
X4548417Y582663D01*
X4528424D01*
X4518427Y572666D01*
Y532679D01*
X4528424Y522682D01*
X4548417D01*
X4558414Y532679D01*
X4588405Y522682D02*
X4608398D01*
X4618395Y532679D01*
Y552673D01*
X4608398Y562669D01*
X4588405D01*
X4578408Y552673D01*
Y532679D01*
X4588405Y522682D01*
X4638388Y502689D02*
Y562669D01*
X4668379D01*
X4678376Y552673D01*
Y532679D01*
X4668379Y522682D01*
X4638388D01*
X4698369Y502689D02*
Y562669D01*
X4728359D01*
X4738356Y552673D01*
Y532679D01*
X4728359Y522682D01*
X4698369D01*
X4788340D02*
X4768346D01*
X4758350Y532679D01*
Y552673D01*
X4768346Y562669D01*
X4788340D01*
X4798337Y552673D01*
Y542676D01*
X4758350D01*
X4818330Y562669D02*
Y522682D01*
Y542676D01*
X4828327Y552673D01*
X4838324Y562669D01*
X4848320D01*
X4558414Y692666D02*
X4548417Y702663D01*
X4528424D01*
X4518427Y692666D01*
Y682669D01*
X4528424Y672673D01*
X4548417D01*
X4558414Y662676D01*
Y652679D01*
X4548417Y642682D01*
X4528424D01*
X4518427Y652679D01*
X4588405Y642682D02*
X4608398D01*
X4618395Y652679D01*
Y672673D01*
X4608398Y682669D01*
X4588405D01*
X4578408Y672673D01*
Y652679D01*
X4588405Y642682D01*
X4638388D02*
X4658382D01*
X4648385D01*
Y702663D01*
X4638388D01*
X4728359D02*
Y642682D01*
X4698369D01*
X4688372Y652679D01*
Y672673D01*
X4698369Y682669D01*
X4728359D01*
X4778343Y642682D02*
X4758350D01*
X4748353Y652679D01*
Y672673D01*
X4758350Y682669D01*
X4778343D01*
X4788340Y672673D01*
Y662676D01*
X4748353D01*
X4808333Y682669D02*
Y642682D01*
Y662676D01*
X4818330Y672673D01*
X4828327Y682669D01*
X4838324D01*
X4928295Y642682D02*
Y702663D01*
X4958285D01*
X4968282Y692666D01*
Y672673D01*
X4958285Y662676D01*
X4928295D01*
X4948288D02*
X4968282Y642682D01*
X5018266D02*
X4998272D01*
X4988275Y652679D01*
Y672673D01*
X4998272Y682669D01*
X5018266D01*
X5028262Y672673D01*
Y662676D01*
X4988275D01*
X5048256Y642682D02*
X5078246D01*
X5088243Y652679D01*
X5078246Y662676D01*
X5058253D01*
X5048256Y672673D01*
X5058253Y682669D01*
X5088243D01*
X5108236Y642682D02*
X5128230D01*
X5118233D01*
Y682669D01*
X5108236D01*
X5158220Y642682D02*
X5188211D01*
X5198207Y652679D01*
X5188211Y662676D01*
X5168217D01*
X5158220Y672673D01*
X5168217Y682669D01*
X5198207D01*
X5228198Y692666D02*
Y682669D01*
X5218201D01*
X5238194D01*
X5228198D01*
Y652679D01*
X5238194Y642682D01*
X5378194Y942663D02*
X5418181D01*
X5398188D01*
Y882682D01*
X5438175Y942663D02*
Y882682D01*
Y912673D01*
X5448172Y922669D01*
X5468165D01*
X5478162Y912673D01*
Y882682D01*
X5498155D02*
X5518149D01*
X5508152D01*
Y922669D01*
X5498155D01*
X5588126D02*
X5558136D01*
X5548139Y912673D01*
Y892679D01*
X5558136Y882682D01*
X5588126D01*
X5608120D02*
Y942663D01*
Y902676D02*
X5638110Y922669D01*
X5608120Y902676D02*
X5638110Y882682D01*
X5668100D02*
Y922669D01*
X5698091D01*
X5708088Y912673D01*
Y882682D01*
X5758071D02*
X5738078D01*
X5728081Y892679D01*
Y912673D01*
X5738078Y922669D01*
X5758071D01*
X5768068Y912673D01*
Y902676D01*
X5728081D01*
X5788062Y882682D02*
X5818052D01*
X5828049Y892679D01*
X5818052Y902676D01*
X5798059D01*
X5788062Y912673D01*
X5798059Y922669D01*
X5828049D01*
X5848042Y882682D02*
X5878033D01*
X5888029Y892679D01*
X5878033Y902676D01*
X5858039D01*
X5848042Y912673D01*
X5858039Y922669D01*
X5888029D01*
X5378194Y212666D02*
X5388191Y222663D01*
X5408185D01*
X5418181Y212666D01*
Y172679D01*
X5408185Y162682D01*
X5388191D01*
X5378194Y172679D01*
Y212666D01*
X5438175Y162682D02*
Y172679D01*
X5448172D01*
Y162682D01*
X5438175D01*
X5518149D02*
Y222663D01*
X5488159Y192673D01*
X5528146D01*
X5548139Y212666D02*
X5558136Y222663D01*
X5578130D01*
X5588126Y212666D01*
Y172679D01*
X5578130Y162682D01*
X5558136D01*
X5548139Y172679D01*
Y212666D01*
X5608120Y162682D02*
Y202669D01*
X5618117D01*
X5628113Y192673D01*
Y162682D01*
Y192673D01*
X5638110Y202669D01*
X5648107Y192673D01*
Y162682D01*
X5668100D02*
X5688094D01*
X5678097D01*
Y202669D01*
X5668100D01*
X5718084Y162682D02*
X5738078D01*
X5728081D01*
Y222663D01*
X5718084D01*
X5378194Y282682D02*
X5398188D01*
X5388191D01*
Y342663D01*
X5378194Y332666D01*
X5428178Y282682D02*
Y292679D01*
X5438175D01*
Y282682D01*
X5428178D01*
X5508152D02*
Y342663D01*
X5478162Y312673D01*
X5518149D01*
X5538142Y332666D02*
X5548139Y342663D01*
X5568133D01*
X5578130Y332666D01*
Y292679D01*
X5568133Y282682D01*
X5548139D01*
X5538142Y292679D01*
Y332666D01*
X5598123Y282682D02*
Y322670D01*
X5608120D01*
X5618117Y312673D01*
Y282682D01*
Y312673D01*
X5628113Y322670D01*
X5638110Y312673D01*
Y282682D01*
X5658104D02*
X5678097D01*
X5668100D01*
Y322670D01*
X5658104D01*
X5708087Y282682D02*
X5728081D01*
X5718084D01*
Y342663D01*
X5708087D01*
X5418181Y462663D02*
X5378194D01*
Y432673D01*
X5398188Y442670D01*
X5408185D01*
X5418181Y432673D01*
Y412679D01*
X5408185Y402682D01*
X5388191D01*
X5378194Y412679D01*
X5438175D02*
X5448172Y402682D01*
X5468165D01*
X5478162Y412679D01*
Y452666D01*
X5468165Y462663D01*
X5448172D01*
X5438175Y452666D01*
Y442670D01*
X5448172Y432673D01*
X5478162D01*
X5498155Y402682D02*
Y412679D01*
X5508152D01*
Y402682D01*
X5498155D01*
X5548139Y452666D02*
X5558136Y462663D01*
X5578130D01*
X5588126Y452666D01*
Y412679D01*
X5578130Y402682D01*
X5558136D01*
X5548139Y412679D01*
Y452666D01*
X5648107Y462663D02*
X5628113Y452666D01*
X5608120Y432673D01*
Y412679D01*
X5618117Y402682D01*
X5638110D01*
X5648107Y412679D01*
Y422676D01*
X5638110Y432673D01*
X5608120D01*
X5668100Y402682D02*
Y442670D01*
X5678097D01*
X5688094Y432673D01*
Y402682D01*
Y432673D01*
X5698091Y442670D01*
X5708088Y432673D01*
Y402682D01*
X5728081D02*
X5748075D01*
X5738078D01*
Y442670D01*
X5728081D01*
X5778065Y402682D02*
X5798058D01*
X5788062D01*
Y462663D01*
X5778065D01*
X5378194Y522682D02*
X5398188D01*
X5388191D01*
Y582663D01*
X5378194Y572666D01*
X5428178Y522682D02*
Y532679D01*
X5438175D01*
Y522682D01*
X5428178D01*
X5508152D02*
Y582663D01*
X5478162Y552673D01*
X5518149D01*
X5538142Y572666D02*
X5548139Y582663D01*
X5568133D01*
X5578130Y572666D01*
Y532679D01*
X5568133Y522682D01*
X5548139D01*
X5538142Y532679D01*
Y572666D01*
X5598123Y522682D02*
Y562669D01*
X5608120D01*
X5618117Y552673D01*
Y522682D01*
Y552673D01*
X5628113Y562669D01*
X5638110Y552673D01*
Y522682D01*
X5658104D02*
X5678097D01*
X5668100D01*
Y562669D01*
X5658104D01*
X5708087Y522682D02*
X5728081D01*
X5718084D01*
Y582663D01*
X5708087D01*
X5378194Y692666D02*
X5388191Y702663D01*
X5408185D01*
X5418181Y692666D01*
Y652679D01*
X5408185Y642682D01*
X5388191D01*
X5378194Y652679D01*
Y692666D01*
X5438175Y642682D02*
Y652679D01*
X5448172D01*
Y642682D01*
X5438175D01*
X5518149D02*
Y702663D01*
X5488159Y672673D01*
X5528146D01*
X5548139Y692666D02*
X5558136Y702663D01*
X5578130D01*
X5588126Y692666D01*
Y652679D01*
X5578130Y642682D01*
X5558136D01*
X5548139Y652679D01*
Y692666D01*
X5608120Y642682D02*
Y682669D01*
X5618117D01*
X5628113Y672673D01*
Y642682D01*
Y672673D01*
X5638110Y682669D01*
X5648107Y672673D01*
Y642682D01*
X5668100D02*
X5688094D01*
X5678097D01*
Y682669D01*
X5668100D01*
X5718084Y642682D02*
X5738078D01*
X5728081D01*
Y702663D01*
X5718084D01*
X6068016Y932666D02*
X6058020Y942663D01*
X6038026D01*
X6028029Y932666D01*
Y892679D01*
X6038026Y882682D01*
X6058020D01*
X6068016Y892679D01*
X6098007Y882682D02*
X6118000D01*
X6127997Y892679D01*
Y912673D01*
X6118000Y922669D01*
X6098007D01*
X6088010Y912673D01*
Y892679D01*
X6098007Y882682D01*
X6147991D02*
Y922669D01*
X6177981D01*
X6187978Y912673D01*
Y882682D01*
X6207971D02*
X6237962D01*
X6247958Y892679D01*
X6237962Y902676D01*
X6217968D01*
X6207971Y912673D01*
X6217968Y922669D01*
X6247958D01*
X6277949Y932666D02*
Y922669D01*
X6267952D01*
X6287945D01*
X6277949D01*
Y892679D01*
X6287945Y882682D01*
X6327932Y922669D02*
X6347926D01*
X6357923Y912673D01*
Y882682D01*
X6327932D01*
X6317936Y892679D01*
X6327932Y902676D01*
X6357923D01*
X6377916Y882682D02*
Y922669D01*
X6407907D01*
X6417903Y912673D01*
Y882682D01*
X6447894Y932666D02*
Y922669D01*
X6437897D01*
X6457890D01*
X6447894D01*
Y892679D01*
X6457890Y882682D01*
X6028029Y212666D02*
X6038026Y222663D01*
X6058020D01*
X6068016Y212666D01*
Y202669D01*
X6058020Y192673D01*
X6048023D01*
X6058020D01*
X6068016Y182676D01*
Y172679D01*
X6058020Y162682D01*
X6038026D01*
X6028029Y172679D01*
X6088010Y162682D02*
Y172679D01*
X6098007D01*
Y162682D01*
X6088010D01*
X6177981Y222663D02*
X6137994D01*
Y192673D01*
X6157987Y202669D01*
X6167984D01*
X6177981Y192673D01*
Y172679D01*
X6167984Y162682D01*
X6147991D01*
X6137994Y172679D01*
X6058020Y402682D02*
Y462663D01*
X6028029Y432673D01*
X6068016D01*
X6088010Y402682D02*
Y412679D01*
X6098007D01*
Y402682D01*
X6088010D01*
X6137994Y452666D02*
X6147991Y462663D01*
X6167984D01*
X6177981Y452666D01*
Y442670D01*
X6167984Y432673D01*
X6177981Y422676D01*
Y412679D01*
X6167984Y402682D01*
X6147991D01*
X6137994Y412679D01*
Y422676D01*
X6147991Y432673D01*
X6137994Y442670D01*
Y452666D01*
X6147991Y432673D02*
X6167984D01*
X6028029Y692666D02*
X6038026Y702663D01*
X6058020D01*
X6068016Y692666D01*
Y682669D01*
X6058020Y672673D01*
X6048023D01*
X6058020D01*
X6068016Y662676D01*
Y652679D01*
X6058020Y642682D01*
X6038026D01*
X6028029Y652679D01*
X6088010Y642682D02*
Y652679D01*
X6098007D01*
Y642682D01*
X6088010D01*
X6177981Y702663D02*
X6137994D01*
Y672673D01*
X6157987Y682669D01*
X6167984D01*
X6177981Y672673D01*
Y652679D01*
X6167984Y642682D01*
X6147991D01*
X6137994Y652679D01*
X6597890Y942663D02*
Y882682D01*
X6627881D01*
X6637877Y892679D01*
Y902676D01*
X6627881Y912673D01*
X6597890D01*
X6627881D01*
X6637877Y922669D01*
Y932666D01*
X6627881Y942663D01*
X6597890D01*
X6667868Y882682D02*
X6687861D01*
X6697858Y892679D01*
Y912673D01*
X6687861Y922669D01*
X6667868D01*
X6657871Y912673D01*
Y892679D01*
X6667868Y882682D01*
X6727848Y922669D02*
X6747842D01*
X6757839Y912673D01*
Y882682D01*
X6727848D01*
X6717851Y892679D01*
X6727848Y902676D01*
X6757839D01*
X6777832Y922669D02*
Y882682D01*
Y902676D01*
X6787829Y912673D01*
X6797826Y922669D01*
X6807822D01*
X6877800Y942663D02*
Y882682D01*
X6847810D01*
X6837813Y892679D01*
Y912673D01*
X6847810Y922669D01*
X6877800D01*
X6957774Y942663D02*
Y882682D01*
X6997761D01*
X7027751Y922669D02*
X7047745D01*
X7057742Y912673D01*
Y882682D01*
X7027751D01*
X7017755Y892679D01*
X7027751Y902676D01*
X7057742D01*
X7077735Y922669D02*
Y892679D01*
X7087732Y882682D01*
X7117722D01*
Y872686D01*
X7107725Y862689D01*
X7097729D01*
X7117722Y882682D02*
Y922669D01*
X7167706Y882682D02*
X7147712D01*
X7137716Y892679D01*
Y912673D01*
X7147712Y922669D01*
X7167706D01*
X7177703Y912673D01*
Y902676D01*
X7137716D01*
X7197696Y922669D02*
Y882682D01*
Y902676D01*
X7207693Y912673D01*
X7217690Y922669D01*
X7227687D01*
X7357645Y932666D02*
X7347648Y942663D01*
X7327654D01*
X7317658Y932666D01*
Y922669D01*
X7327654Y912673D01*
X7347648D01*
X7357645Y902676D01*
Y892679D01*
X7347648Y882682D01*
X7327654D01*
X7317658Y892679D01*
X7387635Y932666D02*
Y922669D01*
X7377638D01*
X7397632D01*
X7387635D01*
Y892679D01*
X7397632Y882682D01*
X7437619Y922669D02*
X7457612D01*
X7467609Y912673D01*
Y882682D01*
X7437619D01*
X7427622Y892679D01*
X7437619Y902676D01*
X7467609D01*
X7527590Y922669D02*
X7497599D01*
X7487602Y912673D01*
Y892679D01*
X7497599Y882682D01*
X7527590D01*
X7547583D02*
Y942663D01*
Y902676D02*
X7577573Y922669D01*
X7547583Y902676D02*
X7577573Y882682D01*
D64*
X0Y100000D02*
G03*
X100000Y0I100000J0D01*
G01*
X1900000D02*
G03*
X2000000Y100000I0J100000D01*
G01*
Y800000D02*
G03*
X1900000Y900000I-100000J0D01*
G01*
X100000D02*
G03*
X0Y800000I0J-100000D01*
G01*
X100000Y0D02*
X1900000D01*
X2000000Y100000D02*
Y800000D01*
X100000Y900000D02*
X1900000D01*
X0Y630000D02*
Y800000D01*
Y630000D02*
X20000Y610000D01*
Y290000D02*
Y610000D01*
X0Y270000D02*
X20000Y290000D01*
X0Y100000D02*
Y270000D01*
D89*
X7587573Y12682D02*
X7647573Y72682D01*
X7527573Y12682D02*
X7647573Y132682D01*
X7467573Y12682D02*
X7587573Y132682D01*
X7407573Y12682D02*
X7527573Y132682D01*
X7347573Y12682D02*
X7467573Y132682D01*
X7287573Y12682D02*
X7407573Y132682D01*
X7227573Y12682D02*
X7347573Y132682D01*
X7167573Y12682D02*
X7287573Y132682D01*
X7107573Y12682D02*
X7227573Y132682D01*
X7047573Y12682D02*
X7167573Y132682D01*
X6987573Y12682D02*
X7107573Y132682D01*
X6927573Y12682D02*
X7047573Y132682D01*
X6867573Y12682D02*
X6987573Y132682D01*
X6807573Y12682D02*
X6927573Y132682D01*
X6747573Y12682D02*
X6867573Y132682D01*
X6687573Y12682D02*
X6807573Y132682D01*
X6627573Y12682D02*
X6747573Y132682D01*
X6567573Y12682D02*
X6687573Y132682D01*
X6527890Y32999D02*
X6627573Y132682D01*
X6527890Y92999D02*
X6567573Y132682D01*
X7587573D02*
X7647573Y192682D01*
X7527573Y132682D02*
X7647573Y252682D01*
X7467573Y132682D02*
X7587573Y252682D01*
X7407573Y132682D02*
X7527573Y252682D01*
X7347573Y132682D02*
X7467573Y252682D01*
X7287573Y132682D02*
X7407573Y252682D01*
X7227573Y132682D02*
X7347573Y252682D01*
X7167573Y132682D02*
X7287573Y252682D01*
X7107573Y132682D02*
X7227573Y252682D01*
X7047573Y132682D02*
X7167573Y252682D01*
X6987573Y132682D02*
X7107573Y252682D01*
X6927573Y132682D02*
X7047573Y252682D01*
X6867573Y132682D02*
X6987573Y252682D01*
X6807573Y132682D02*
X6927573Y252682D01*
X6747573Y132682D02*
X6867573Y252682D01*
X6687573Y132682D02*
X6807573Y252682D01*
X6627573Y132682D02*
X6747573Y252682D01*
X6567573Y132682D02*
X6687573Y252682D01*
X6527890Y152999D02*
X6627573Y252682D01*
X6527890Y212999D02*
X6567573Y252682D01*
X7587573D02*
X7647573Y312682D01*
X7527573Y252682D02*
X7647573Y372682D01*
X7467573Y252682D02*
X7587573Y372682D01*
X7407573Y252682D02*
X7527573Y372682D01*
X7347573Y252682D02*
X7467573Y372682D01*
X7287573Y252682D02*
X7407573Y372682D01*
X7227573Y252682D02*
X7347573Y372682D01*
X7167573Y252682D02*
X7287573Y372682D01*
X7107573Y252682D02*
X7227573Y372682D01*
X7047573Y252682D02*
X7167573Y372682D01*
X6987573Y252682D02*
X7107573Y372682D01*
X6927573Y252682D02*
X7047573Y372682D01*
X6867573Y252682D02*
X6987573Y372682D01*
X6807573Y252682D02*
X6927573Y372682D01*
X6747573Y252682D02*
X6867573Y372682D01*
X6687573Y252682D02*
X6807573Y372682D01*
X6627573Y252682D02*
X6747573Y372682D01*
X6567573Y252682D02*
X6687573Y372682D01*
X6527890Y272999D02*
X6627573Y372682D01*
X6527890Y332999D02*
X6567573Y372682D01*
X7587573D02*
X7647573Y432682D01*
X7527573Y372682D02*
X7647573Y492682D01*
X7467573Y372682D02*
X7587573Y492682D01*
X7407573Y372682D02*
X7527573Y492682D01*
X7347573Y372682D02*
X7467573Y492682D01*
X7287573Y372682D02*
X7407573Y492682D01*
X7227573Y372682D02*
X7347573Y492682D01*
X7167573Y372682D02*
X7287573Y492682D01*
X7107573Y372682D02*
X7227573Y492682D01*
X7047573Y372682D02*
X7167573Y492682D01*
X6987573Y372682D02*
X7107573Y492682D01*
X6927573Y372682D02*
X7047573Y492682D01*
X6867573Y372682D02*
X6987573Y492682D01*
X6807573Y372682D02*
X6927573Y492682D01*
X6747573Y372682D02*
X6867573Y492682D01*
X6687573Y372682D02*
X6807573Y492682D01*
X6627573Y372682D02*
X6747573Y492682D01*
X6567573Y372682D02*
X6687573Y492682D01*
X6527890Y392999D02*
X6627573Y492682D01*
X6527890Y452999D02*
X6567573Y492682D01*
X7587573D02*
X7647573Y552682D01*
X7527573Y492682D02*
X7647573Y612682D01*
X7467573Y492682D02*
X7587573Y612682D01*
X7407573Y492682D02*
X7527573Y612682D01*
X7347573Y492682D02*
X7467573Y612682D01*
X7287573Y492682D02*
X7407573Y612682D01*
X7227573Y492682D02*
X7347573Y612682D01*
X7167573Y492682D02*
X7287573Y612682D01*
X7107573Y492682D02*
X7227573Y612682D01*
X7047573Y492682D02*
X7167573Y612682D01*
X6987573Y492682D02*
X7107573Y612682D01*
X6927573Y492682D02*
X7047573Y612682D01*
X6867573Y492682D02*
X6987573Y612682D01*
X6807573Y492682D02*
X6927573Y612682D01*
X6747573Y492682D02*
X6867573Y612682D01*
X6687573Y492682D02*
X6807573Y612682D01*
X6627573Y492682D02*
X6747573Y612682D01*
X6567573Y492682D02*
X6687573Y612682D01*
X6527890Y512999D02*
X6627573Y612682D01*
X6527890Y572999D02*
X6567573Y612682D01*
X7587573D02*
X7647573Y672682D01*
X7527573Y612682D02*
X7647573Y732682D01*
X7467573Y612682D02*
X7587573Y732682D01*
X7407573Y612682D02*
X7527573Y732682D01*
X7347573Y612682D02*
X7467573Y732682D01*
X7287573Y612682D02*
X7407573Y732682D01*
X7227573Y612682D02*
X7347573Y732682D01*
X7167573Y612682D02*
X7287573Y732682D01*
X7107573Y612682D02*
X7227573Y732682D01*
X7047573Y612682D02*
X7167573Y732682D01*
X6987573Y612682D02*
X7107573Y732682D01*
X6927573Y612682D02*
X7047573Y732682D01*
X6867573Y612682D02*
X6987573Y732682D01*
X6807573Y612682D02*
X6927573Y732682D01*
X6747573Y612682D02*
X6867573Y732682D01*
X6687573Y612682D02*
X6807573Y732682D01*
X6627573Y612682D02*
X6747573Y732682D01*
X6567573Y612682D02*
X6687573Y732682D01*
X6527890Y632999D02*
X6627573Y732682D01*
X6527890Y692999D02*
X6567573Y732682D01*
X7587573D02*
X7647573Y792682D01*
X7527573Y732682D02*
X7647573Y852682D01*
X7467573Y732682D02*
X7587573Y852682D01*
X7407573Y732682D02*
X7527573Y852682D01*
X7347573Y732682D02*
X7467573Y852682D01*
X7287573Y732682D02*
X7407573Y852682D01*
X7227573Y732682D02*
X7347573Y852682D01*
X7167573Y732682D02*
X7287573Y852682D01*
X7107573Y732682D02*
X7227573Y852682D01*
X7047573Y732682D02*
X7167573Y852682D01*
X6987573Y732682D02*
X7107573Y852682D01*
X6927573Y732682D02*
X7047573Y852682D01*
X6867573Y732682D02*
X6987573Y852682D01*
X6807573Y732682D02*
X6927573Y852682D01*
X6747573Y732682D02*
X6867573Y852682D01*
X6687573Y732682D02*
X6807573Y852682D01*
X6627573Y732682D02*
X6747573Y852682D01*
X6567573Y732682D02*
X6687573Y852682D01*
X6527890Y752999D02*
X6627573Y852682D01*
X6527890Y812999D02*
X6567573Y852682D01*
D97*
X666667Y50000D02*
G03*
X666667Y50000I-16667J0D01*
G01*
X766667D02*
G03*
X766667Y50000I-16667J0D01*
G01*
X566667D02*
G03*
X566667Y50000I-16667J0D01*
G01*
X466667D02*
G03*
X466667Y50000I-16667J0D01*
G01*
X366667D02*
G03*
X366667Y50000I-16667J0D01*
G01*
X266667D02*
G03*
X266667Y50000I-16667J0D01*
G01*
X1566667D02*
G03*
X1566667Y50000I-16667J0D01*
G01*
X1466667D02*
G03*
X1466667Y50000I-16667J0D01*
G01*
X1766667D02*
G03*
X1766667Y50000I-16667J0D01*
G01*
X1666667D02*
G03*
X1666667Y50000I-16667J0D01*
G01*
X1066667D02*
G03*
X1066667Y50000I-16667J0D01*
G01*
X866667D02*
G03*
X866667Y50000I-16667J0D01*
G01*
X966667D02*
G03*
X966667Y50000I-16667J0D01*
G01*
X1366667D02*
G03*
X1366667Y50000I-16667J0D01*
G01*
X1166667D02*
G03*
X1166667Y50000I-16667J0D01*
G01*
X1266667D02*
G03*
X1266667Y50000I-16667J0D01*
G01*
X1466667Y850000D02*
G03*
X1466667Y850000I-16667J0D01*
G01*
X1566667D02*
G03*
X1566667Y850000I-16667J0D01*
G01*
X1366667D02*
G03*
X1366667Y850000I-16667J0D01*
G01*
X1766667D02*
G03*
X1766667Y850000I-16667J0D01*
G01*
X1666667D02*
G03*
X1666667Y850000I-16667J0D01*
G01*
X1066667D02*
G03*
X1066667Y850000I-16667J0D01*
G01*
X1266667D02*
G03*
X1266667Y850000I-16667J0D01*
G01*
X1166667D02*
G03*
X1166667Y850000I-16667J0D01*
G01*
X966667D02*
G03*
X966667Y850000I-16667J0D01*
G01*
X866667D02*
G03*
X866667Y850000I-16667J0D01*
G01*
X766667D02*
G03*
X766667Y850000I-16667J0D01*
G01*
X666667D02*
G03*
X666667Y850000I-16667J0D01*
G01*
X1766667Y150000D02*
G03*
X1766667Y150000I-16667J0D01*
G01*
X1666667D02*
G03*
X1666667Y150000I-16667J0D01*
G01*
X1466667D02*
G03*
X1466667Y150000I-16667J0D01*
G01*
X1566667D02*
G03*
X1566667Y150000I-16667J0D01*
G01*
X533333Y368333D02*
Y376667D01*
X541667Y385000D01*
X533333Y393333D02*
X541667Y385000D01*
X533333Y393333D02*
Y401667D01*
X541667D01*
X550000Y393333D01*
X558333Y401667D01*
X566667D01*
Y393333D02*
Y401667D01*
X558333Y385000D02*
X566667Y393333D01*
X558333Y385000D02*
X566667Y376667D01*
Y368333D02*
Y376667D01*
X558333Y368333D02*
X566667D01*
X550000Y376667D02*
X558333Y368333D01*
X541667D02*
X550000Y376667D01*
X533333Y368333D02*
X541667D01*
X568333D02*
Y376667D01*
X576667Y385000D01*
X568333Y393333D02*
X576667Y385000D01*
X568333Y393333D02*
Y401667D01*
X576667D01*
X585000Y393333D01*
X593333Y401667D01*
X601667D01*
Y393333D02*
Y401667D01*
X593333Y385000D02*
X601667Y393333D01*
X593333Y385000D02*
X601667Y376667D01*
Y368333D02*
Y376667D01*
X593333Y368333D02*
X601667D01*
X585000Y376667D02*
X593333Y368333D01*
X576667D02*
X585000Y376667D01*
X568333Y368333D02*
X576667D01*
X328333Y478333D02*
Y486667D01*
X336667Y495000D01*
X328333Y503333D02*
X336667Y495000D01*
X328333Y503333D02*
Y511667D01*
X336667D01*
X345000Y503333D01*
X353333Y511667D01*
X361667D01*
Y503333D02*
Y511667D01*
X353333Y495000D02*
X361667Y503333D01*
X353333Y495000D02*
X361667Y486667D01*
Y478333D02*
Y486667D01*
X353333Y478333D02*
X361667D01*
X345000Y486667D02*
X353333Y478333D01*
X336667D02*
X345000Y486667D01*
X328333Y478333D02*
X336667D01*
X360841D02*
Y486667D01*
X369175Y495000D01*
X360841Y503333D02*
X369175Y495000D01*
X360841Y503333D02*
Y511667D01*
X369175D01*
X377508Y503333D01*
X385841Y511667D01*
X394175D01*
Y503333D02*
Y511667D01*
X385841Y495000D02*
X394175Y503333D01*
X385841Y495000D02*
X394175Y486667D01*
Y478333D02*
Y486667D01*
X385841Y478333D02*
X394175D01*
X377508Y486667D02*
X385841Y478333D01*
X369175D02*
X377508Y486667D01*
X360841Y478333D02*
X369175D01*
X815333Y437333D02*
Y445667D01*
X823667Y454000D01*
X815333Y462333D02*
X823667Y454000D01*
X815333Y462333D02*
Y470667D01*
X823667D01*
X832000Y462333D01*
X840333Y470667D01*
X848667D01*
Y462333D02*
Y470667D01*
X840333Y454000D02*
X848667Y462333D01*
X840333Y454000D02*
X848667Y445667D01*
Y437333D02*
Y445667D01*
X840333Y437333D02*
X848667D01*
X832000Y445667D02*
X840333Y437333D01*
X823667D02*
X832000Y445667D01*
X815333Y437333D02*
X823667D01*
X935319Y466712D02*
Y475045D01*
X943653Y483378D01*
X935319Y491712D02*
X943653Y483378D01*
X935319Y491712D02*
Y500045D01*
X943653D01*
X951986Y491712D01*
X960319Y500045D01*
X968653D01*
Y491712D02*
Y500045D01*
X960319Y483378D02*
X968653Y491712D01*
X960319Y483378D02*
X968653Y475045D01*
Y466712D02*
Y475045D01*
X960319Y466712D02*
X968653D01*
X951986Y475045D02*
X960319Y466712D01*
X943653D02*
X951986Y475045D01*
X935319Y466712D02*
X943653D01*
X935319Y436712D02*
Y445045D01*
X943653Y453378D01*
X935319Y461712D02*
X943653Y453378D01*
X935319Y461712D02*
Y470045D01*
X943653D01*
X951986Y461712D01*
X960319Y470045D01*
X968653D01*
Y461712D02*
Y470045D01*
X960319Y453378D02*
X968653Y461712D01*
X960319Y453378D02*
X968653Y445045D01*
Y436712D02*
Y445045D01*
X960319Y436712D02*
X968653D01*
X951986Y445045D02*
X960319Y436712D01*
X943653D02*
X951986Y445045D01*
X935319Y436712D02*
X943653D01*
X816491Y405886D02*
Y414220D01*
X824824Y422553D01*
X816491Y430886D02*
X824824Y422553D01*
X816491Y430886D02*
Y439220D01*
X824824D01*
X833158Y430886D01*
X841491Y439220D01*
X849824D01*
Y430886D02*
Y439220D01*
X841491Y422553D02*
X849824Y430886D01*
X841491Y422553D02*
X849824Y414220D01*
Y405886D02*
Y414220D01*
X841491Y405886D02*
X849824D01*
X833158Y414220D02*
X841491Y405886D01*
X824824D02*
X833158Y414220D01*
X816491Y405886D02*
X824824D01*
X1311333Y465720D02*
Y474054D01*
X1319667Y482387D01*
X1311333Y490720D02*
X1319667Y482387D01*
X1311333Y490720D02*
Y499054D01*
X1319667D01*
X1328000Y490720D01*
X1336333Y499054D01*
X1344667D01*
Y490720D02*
Y499054D01*
X1336333Y482387D02*
X1344667Y490720D01*
X1336333Y482387D02*
X1344667Y474054D01*
Y465720D02*
Y474054D01*
X1336333Y465720D02*
X1344667D01*
X1328000Y474054D02*
X1336333Y465720D01*
X1319667D02*
X1328000Y474054D01*
X1311333Y465720D02*
X1319667D01*
X1281333D02*
Y474054D01*
X1289667Y482387D01*
X1281333Y490720D02*
X1289667Y482387D01*
X1281333Y490720D02*
Y499054D01*
X1289667D01*
X1298000Y490720D01*
X1306333Y499054D01*
X1314667D01*
Y490720D02*
Y499054D01*
X1306333Y482387D02*
X1314667Y490720D01*
X1306333Y482387D02*
X1314667Y474054D01*
Y465720D02*
Y474054D01*
X1306333Y465720D02*
X1314667D01*
X1298000Y474054D02*
X1306333Y465720D01*
X1289667D02*
X1298000Y474054D01*
X1281333Y465720D02*
X1289667D01*
X497519Y111248D02*
Y119581D01*
X505853Y127915D01*
X497519Y136248D02*
X505853Y127915D01*
X497519Y136248D02*
Y144581D01*
X505853D01*
X514186Y136248D01*
X522519Y144581D01*
X530852D01*
Y136248D02*
Y144581D01*
X522519Y127915D02*
X530852Y136248D01*
X522519Y127915D02*
X530852Y119581D01*
Y111248D02*
Y119581D01*
X522519Y111248D02*
X530852D01*
X514186Y119581D02*
X522519Y111248D01*
X505853D02*
X514186Y119581D01*
X497519Y111248D02*
X505853D01*
X1423826Y444333D02*
Y452667D01*
X1432159Y461000D01*
X1423826Y469333D02*
X1432159Y461000D01*
X1423826Y469333D02*
Y477667D01*
X1432159D01*
X1440492Y469333D01*
X1448825Y477667D01*
X1457159D01*
Y469333D02*
Y477667D01*
X1448825Y461000D02*
X1457159Y469333D01*
X1448825Y461000D02*
X1457159Y452667D01*
Y444333D02*
Y452667D01*
X1448825Y444333D02*
X1457159D01*
X1440492Y452667D02*
X1448825Y444333D01*
X1432159D02*
X1440492Y452667D01*
X1423826Y444333D02*
X1432159D01*
X1103333Y427333D02*
Y435667D01*
X1111667Y444000D01*
X1103333Y452333D02*
X1111667Y444000D01*
X1103333Y452333D02*
Y460667D01*
X1111667D01*
X1120000Y452333D01*
X1128333Y460667D01*
X1136667D01*
Y452333D02*
Y460667D01*
X1128333Y444000D02*
X1136667Y452333D01*
X1128333Y444000D02*
X1136667Y435667D01*
Y427333D02*
Y435667D01*
X1128333Y427333D02*
X1136667D01*
X1120000Y435667D02*
X1128333Y427333D01*
X1111667D02*
X1120000Y435667D01*
X1103333Y427333D02*
X1111667D01*
X1194333Y315333D02*
Y323667D01*
X1202667Y332000D01*
X1194333Y340333D02*
X1202667Y332000D01*
X1194333Y340333D02*
Y348667D01*
X1202667D01*
X1211000Y340333D01*
X1219333Y348667D01*
X1227667D01*
Y340333D02*
Y348667D01*
X1219333Y332000D02*
X1227667Y340333D01*
X1219333Y332000D02*
X1227667Y323667D01*
Y315333D02*
Y323667D01*
X1219333Y315333D02*
X1227667D01*
X1211000Y323667D02*
X1219333Y315333D01*
X1202667D02*
X1211000Y323667D01*
X1194333Y315333D02*
X1202667D01*
X1224333D02*
Y323667D01*
X1232667Y332000D01*
X1224333Y340333D02*
X1232667Y332000D01*
X1224333Y340333D02*
Y348667D01*
X1232667D01*
X1241000Y340333D01*
X1249333Y348667D01*
X1257667D01*
Y340333D02*
Y348667D01*
X1249333Y332000D02*
X1257667Y340333D01*
X1249333Y332000D02*
X1257667Y323667D01*
Y315333D02*
Y323667D01*
X1249333Y315333D02*
X1257667D01*
X1241000Y323667D02*
X1249333Y315333D01*
X1232667D02*
X1241000Y323667D01*
X1224333Y315333D02*
X1232667D01*
X1254333D02*
Y323667D01*
X1262667Y332000D01*
X1254333Y340333D02*
X1262667Y332000D01*
X1254333Y340333D02*
Y348667D01*
X1262667D01*
X1271000Y340333D01*
X1279333Y348667D01*
X1287667D01*
Y340333D02*
Y348667D01*
X1279333Y332000D02*
X1287667Y340333D01*
X1279333Y332000D02*
X1287667Y323667D01*
Y315333D02*
Y323667D01*
X1279333Y315333D02*
X1287667D01*
X1271000Y323667D02*
X1279333Y315333D01*
X1262667D02*
X1271000Y323667D01*
X1254333Y315333D02*
X1262667D01*
X1284333D02*
Y323667D01*
X1292667Y332000D01*
X1284333Y340333D02*
X1292667Y332000D01*
X1284333Y340333D02*
Y348667D01*
X1292667D01*
X1301000Y340333D01*
X1309333Y348667D01*
X1317667D01*
Y340333D02*
Y348667D01*
X1309333Y332000D02*
X1317667Y340333D01*
X1309333Y332000D02*
X1317667Y323667D01*
Y315333D02*
Y323667D01*
X1309333Y315333D02*
X1317667D01*
X1301000Y323667D02*
X1309333Y315333D01*
X1292667D02*
X1301000Y323667D01*
X1284333Y315333D02*
X1292667D01*
X1085988Y605450D02*
Y613783D01*
X1094322Y622116D01*
X1085988Y630450D02*
X1094322Y622116D01*
X1085988Y630450D02*
Y638783D01*
X1094322D01*
X1102655Y630450D01*
X1110988Y638783D01*
X1119321D01*
Y630450D02*
Y638783D01*
X1110988Y622116D02*
X1119321Y630450D01*
X1110988Y622116D02*
X1119321Y613783D01*
Y605450D02*
Y613783D01*
X1110988Y605450D02*
X1119321D01*
X1102655Y613783D02*
X1110988Y605450D01*
X1094322D02*
X1102655Y613783D01*
X1085988Y605450D02*
X1094322D01*
X1181069Y544900D02*
Y553233D01*
X1189402Y561566D01*
X1181069Y569899D02*
X1189402Y561566D01*
X1181069Y569899D02*
Y578233D01*
X1189402D01*
X1197735Y569899D01*
X1206069Y578233D01*
X1214402D01*
Y569899D02*
Y578233D01*
X1206069Y561566D02*
X1214402Y569899D01*
X1206069Y561566D02*
X1214402Y553233D01*
Y544900D02*
Y553233D01*
X1206069Y544900D02*
X1214402D01*
X1197735Y553233D02*
X1206069Y544900D01*
X1189402D02*
X1197735Y553233D01*
X1181069Y544900D02*
X1189402D01*
X1147072Y606741D02*
Y615074D01*
X1155405Y623407D01*
X1147072Y631741D02*
X1155405Y623407D01*
X1147072Y631741D02*
Y640074D01*
X1155405D01*
X1163738Y631741D01*
X1172072Y640074D01*
X1180405D01*
Y631741D02*
Y640074D01*
X1172072Y623407D02*
X1180405Y631741D01*
X1172072Y623407D02*
X1180405Y615074D01*
Y606741D02*
Y615074D01*
X1172072Y606741D02*
X1180405D01*
X1163738Y615074D02*
X1172072Y606741D01*
X1155405D02*
X1163738Y615074D01*
X1147072Y606741D02*
X1155405D01*
X1142333Y462333D02*
Y470667D01*
X1150667Y479000D01*
X1142333Y487333D02*
X1150667Y479000D01*
X1142333Y487333D02*
Y495667D01*
X1150667D01*
X1159000Y487333D01*
X1167333Y495667D01*
X1175667D01*
Y487333D02*
Y495667D01*
X1167333Y479000D02*
X1175667Y487333D01*
X1167333Y479000D02*
X1175667Y470667D01*
Y462333D02*
Y470667D01*
X1167333Y462333D02*
X1175667D01*
X1159000Y470667D02*
X1167333Y462333D01*
X1150667D02*
X1159000Y470667D01*
X1142333Y462333D02*
X1150667D01*
X986667Y761004D02*
Y769337D01*
X995000Y777671D01*
X986667Y786004D02*
X995000Y777671D01*
X986667Y786004D02*
Y794337D01*
X995000D01*
X1003334Y786004D01*
X1011667Y794337D01*
X1020000D01*
Y786004D02*
Y794337D01*
X1011667Y777671D02*
X1020000Y786004D01*
X1011667Y777671D02*
X1020000Y769337D01*
Y761004D02*
Y769337D01*
X1011667Y761004D02*
X1020000D01*
X1003334Y769337D02*
X1011667Y761004D01*
X995000D02*
X1003334Y769337D01*
X986667Y761004D02*
X995000D01*
X1423826Y557661D02*
Y565994D01*
X1432159Y574327D01*
X1423826Y582660D02*
X1432159Y574327D01*
X1423826Y582660D02*
Y590994D01*
X1432159D01*
X1440492Y582660D01*
X1448825Y590994D01*
X1457159D01*
Y582660D02*
Y590994D01*
X1448825Y574327D02*
X1457159Y582660D01*
X1448825Y574327D02*
X1457159Y565994D01*
Y557661D02*
Y565994D01*
X1448825Y557661D02*
X1457159D01*
X1440492Y565994D02*
X1448825Y557661D01*
X1432159D02*
X1440492Y565994D01*
X1423826Y557661D02*
X1432159D01*
X1477333Y507287D02*
Y515621D01*
X1485667Y523954D01*
X1477333Y532287D02*
X1485667Y523954D01*
X1477333Y532287D02*
Y540621D01*
X1485667D01*
X1494000Y532287D01*
X1502333Y540621D01*
X1510667D01*
Y532287D02*
Y540621D01*
X1502333Y523954D02*
X1510667Y532287D01*
X1502333Y523954D02*
X1510667Y515621D01*
Y507287D02*
Y515621D01*
X1502333Y507287D02*
X1510667D01*
X1494000Y515621D02*
X1502333Y507287D01*
X1485667D02*
X1494000Y515621D01*
X1477333Y507287D02*
X1485667D01*
X1272333Y583333D02*
Y591667D01*
X1280667Y600000D01*
X1272333Y608333D02*
X1280667Y600000D01*
X1272333Y608333D02*
Y616667D01*
X1280667D01*
X1289000Y608333D01*
X1297333Y616667D01*
X1305667D01*
Y608333D02*
Y616667D01*
X1297333Y600000D02*
X1305667Y608333D01*
X1297333Y600000D02*
X1305667Y591667D01*
Y583333D02*
Y591667D01*
X1297333Y583333D02*
X1305667D01*
X1289000Y591667D02*
X1297333Y583333D01*
X1280667D02*
X1289000Y591667D01*
X1272333Y583333D02*
X1280667D01*
X1272333Y613333D02*
Y621667D01*
X1280667Y630000D01*
X1272333Y638333D02*
X1280667Y630000D01*
X1272333Y638333D02*
Y646667D01*
X1280667D01*
X1289000Y638333D01*
X1297333Y646667D01*
X1305667D01*
Y638333D02*
Y646667D01*
X1297333Y630000D02*
X1305667Y638333D01*
X1297333Y630000D02*
X1305667Y621667D01*
Y613333D02*
Y621667D01*
X1297333Y613333D02*
X1305667D01*
X1289000Y621667D02*
X1297333Y613333D01*
X1280667D02*
X1289000Y621667D01*
X1272333Y613333D02*
X1280667D01*
X1115988Y605450D02*
Y613783D01*
X1124322Y622116D01*
X1115988Y630450D02*
X1124322Y622116D01*
X1115988Y630450D02*
Y638783D01*
X1124322D01*
X1132655Y630450D01*
X1140988Y638783D01*
X1149321D01*
Y630450D02*
Y638783D01*
X1140988Y622116D02*
X1149321Y630450D01*
X1140988Y622116D02*
X1149321Y613783D01*
Y605450D02*
Y613783D01*
X1140988Y605450D02*
X1149321D01*
X1132655Y613783D02*
X1140988Y605450D01*
X1124322D02*
X1132655Y613783D01*
X1115988Y605450D02*
X1124322D01*
X1295333Y794333D02*
Y802667D01*
X1303667Y811000D01*
X1295333Y819333D02*
X1303667Y811000D01*
X1295333Y819333D02*
Y827667D01*
X1303667D01*
X1312000Y819333D01*
X1320333Y827667D01*
X1328667D01*
Y819333D02*
Y827667D01*
X1320333Y811000D02*
X1328667Y819333D01*
X1320333Y811000D02*
X1328667Y802667D01*
Y794333D02*
Y802667D01*
X1320333Y794333D02*
X1328667D01*
X1312000Y802667D02*
X1320333Y794333D01*
X1303667D02*
X1312000Y802667D01*
X1295333Y794333D02*
X1303667D01*
X1263333Y766333D02*
Y774667D01*
X1271667Y783000D01*
X1263333Y791333D02*
X1271667Y783000D01*
X1263333Y791333D02*
Y799667D01*
X1271667D01*
X1280000Y791333D01*
X1288333Y799667D01*
X1296667D01*
Y791333D02*
Y799667D01*
X1288333Y783000D02*
X1296667Y791333D01*
X1288333Y783000D02*
X1296667Y774667D01*
Y766333D02*
Y774667D01*
X1288333Y766333D02*
X1296667D01*
X1280000Y774667D02*
X1288333Y766333D01*
X1271667D02*
X1280000Y774667D01*
X1263333Y766333D02*
X1271667D01*
X1180333Y741333D02*
Y749667D01*
X1188667Y758000D01*
X1180333Y766333D02*
X1188667Y758000D01*
X1180333Y766333D02*
Y774667D01*
X1188667D01*
X1197000Y766333D01*
X1205333Y774667D01*
X1213667D01*
Y766333D02*
Y774667D01*
X1205333Y758000D02*
X1213667Y766333D01*
X1205333Y758000D02*
X1213667Y749667D01*
Y741333D02*
Y749667D01*
X1205333Y741333D02*
X1213667D01*
X1197000Y749667D02*
X1205333Y741333D01*
X1188667D02*
X1197000Y749667D01*
X1180333Y741333D02*
X1188667D01*
X1209333Y717333D02*
Y725667D01*
X1217667Y734000D01*
X1209333Y742333D02*
X1217667Y734000D01*
X1209333Y742333D02*
Y750667D01*
X1217667D01*
X1226000Y742333D01*
X1234333Y750667D01*
X1242667D01*
Y742333D02*
Y750667D01*
X1234333Y734000D02*
X1242667Y742333D01*
X1234333Y734000D02*
X1242667Y725667D01*
Y717333D02*
Y725667D01*
X1234333Y717333D02*
X1242667D01*
X1226000Y725667D02*
X1234333Y717333D01*
X1217667D02*
X1226000Y725667D01*
X1209333Y717333D02*
X1217667D01*
X1477082Y353744D02*
Y362077D01*
X1485415Y370411D01*
X1477082Y378744D02*
X1485415Y370411D01*
X1477082Y378744D02*
Y387077D01*
X1485415D01*
X1493748Y378744D01*
X1502082Y387077D01*
X1510415D01*
Y378744D02*
Y387077D01*
X1502082Y370411D02*
X1510415Y378744D01*
X1502082Y370411D02*
X1510415Y362077D01*
Y353744D02*
Y362077D01*
X1502082Y353744D02*
X1510415D01*
X1493748Y362077D02*
X1502082Y353744D01*
X1485415D02*
X1493748Y362077D01*
X1477082Y353744D02*
X1485415D01*
X1423826Y396333D02*
Y404667D01*
X1432159Y413000D01*
X1423826Y421333D02*
X1432159Y413000D01*
X1423826Y421333D02*
Y429667D01*
X1432159D01*
X1440492Y421333D01*
X1448825Y429667D01*
X1457159D01*
Y421333D02*
Y429667D01*
X1448825Y413000D02*
X1457159Y421333D01*
X1448825Y413000D02*
X1457159Y404667D01*
Y396333D02*
Y404667D01*
X1448825Y396333D02*
X1457159D01*
X1440492Y404667D02*
X1448825Y396333D01*
X1432159D02*
X1440492Y404667D01*
X1423826Y396333D02*
X1432159D01*
X1297333Y135333D02*
Y143667D01*
X1305667Y152000D01*
X1297333Y160333D02*
X1305667Y152000D01*
X1297333Y160333D02*
Y168667D01*
X1305667D01*
X1314000Y160333D01*
X1322333Y168667D01*
X1330667D01*
Y160333D02*
Y168667D01*
X1322333Y152000D02*
X1330667Y160333D01*
X1322333Y152000D02*
X1330667Y143667D01*
Y135333D02*
Y143667D01*
X1322333Y135333D02*
X1330667D01*
X1314000Y143667D02*
X1322333Y135333D01*
X1305667D02*
X1314000Y143667D01*
X1297333Y135333D02*
X1305667D01*
X1297333Y173216D02*
Y181550D01*
X1305667Y189883D01*
X1297333Y198216D02*
X1305667Y189883D01*
X1297333Y198216D02*
Y206550D01*
X1305667D01*
X1314000Y198216D01*
X1322333Y206550D01*
X1330667D01*
Y198216D02*
Y206550D01*
X1322333Y189883D02*
X1330667Y198216D01*
X1322333Y189883D02*
X1330667Y181550D01*
Y173216D02*
Y181550D01*
X1322333Y173216D02*
X1330667D01*
X1314000Y181550D02*
X1322333Y173216D01*
X1305667D02*
X1314000Y181550D01*
X1297333Y173216D02*
X1305667D01*
X881333Y238333D02*
Y246667D01*
X889667Y255000D01*
X881333Y263333D02*
X889667Y255000D01*
X881333Y263333D02*
Y271667D01*
X889667D01*
X898000Y263333D01*
X906333Y271667D01*
X914667D01*
Y263333D02*
Y271667D01*
X906333Y255000D02*
X914667Y263333D01*
X906333Y255000D02*
X914667Y246667D01*
Y238333D02*
Y246667D01*
X906333Y238333D02*
X914667D01*
X898000Y246667D02*
X906333Y238333D01*
X889667D02*
X898000Y246667D01*
X881333Y238333D02*
X889667D01*
X938983Y238133D02*
Y246467D01*
X947317Y254800D01*
X938983Y263133D02*
X947317Y254800D01*
X938983Y263133D02*
Y271467D01*
X947317D01*
X955650Y263133D01*
X963983Y271467D01*
X972317D01*
Y263133D02*
Y271467D01*
X963983Y254800D02*
X972317Y263133D01*
X963983Y254800D02*
X972317Y246467D01*
Y238133D02*
Y246467D01*
X963983Y238133D02*
X972317D01*
X955650Y246467D02*
X963983Y238133D01*
X947317D02*
X955650Y246467D01*
X938983Y238133D02*
X947317D01*
X1050333Y206333D02*
Y214667D01*
X1058667Y223000D01*
X1050333Y231333D02*
X1058667Y223000D01*
X1050333Y231333D02*
Y239667D01*
X1058667D01*
X1067000Y231333D01*
X1075333Y239667D01*
X1083667D01*
Y231333D02*
Y239667D01*
X1075333Y223000D02*
X1083667Y231333D01*
X1075333Y223000D02*
X1083667Y214667D01*
Y206333D02*
Y214667D01*
X1075333Y206333D02*
X1083667D01*
X1067000Y214667D02*
X1075333Y206333D01*
X1058667D02*
X1067000Y214667D01*
X1050333Y206333D02*
X1058667D01*
X653713Y121762D02*
Y130095D01*
X662046Y138428D01*
X653713Y146762D02*
X662046Y138428D01*
X653713Y146762D02*
Y155095D01*
X662046D01*
X670379Y146762D01*
X678712Y155095D01*
X687046D01*
Y146762D02*
Y155095D01*
X678712Y138428D02*
X687046Y146762D01*
X678712Y138428D02*
X687046Y130095D01*
Y121762D02*
Y130095D01*
X678712Y121762D02*
X687046D01*
X670379Y130095D02*
X678712Y121762D01*
X662046D02*
X670379Y130095D01*
X653713Y121762D02*
X662046D01*
X653333Y154748D02*
Y163081D01*
X661667Y171414D01*
X653333Y179748D02*
X661667Y171414D01*
X653333Y179748D02*
Y188081D01*
X661667D01*
X670000Y179748D01*
X678333Y188081D01*
X686667D01*
Y179748D02*
Y188081D01*
X678333Y171414D02*
X686667Y179748D01*
X678333Y171414D02*
X686667Y163081D01*
Y154748D02*
Y163081D01*
X678333Y154748D02*
X686667D01*
X670000Y163081D02*
X678333Y154748D01*
X661667D02*
X670000Y163081D01*
X653333Y154748D02*
X661667D01*
X653713Y187733D02*
Y196067D01*
X662046Y204400D01*
X653713Y212733D02*
X662046Y204400D01*
X653713Y212733D02*
Y221067D01*
X662046D01*
X670379Y212733D01*
X678712Y221067D01*
X687046D01*
Y212733D02*
Y221067D01*
X678712Y204400D02*
X687046Y212733D01*
X678712Y204400D02*
X687046Y196067D01*
Y187733D02*
Y196067D01*
X678712Y187733D02*
X687046D01*
X670379Y196067D02*
X678712Y187733D01*
X662046D02*
X670379Y196067D01*
X653713Y187733D02*
X662046D01*
X938494Y98333D02*
Y106667D01*
X946827Y115000D01*
X938494Y123333D02*
X946827Y115000D01*
X938494Y123333D02*
Y131667D01*
X946827D01*
X955161Y123333D01*
X963494Y131667D01*
X971827D01*
Y123333D02*
Y131667D01*
X963494Y115000D02*
X971827Y123333D01*
X963494Y115000D02*
X971827Y106667D01*
Y98333D02*
Y106667D01*
X963494Y98333D02*
X971827D01*
X955161Y106667D02*
X963494Y98333D01*
X946827D02*
X955161Y106667D01*
X938494Y98333D02*
X946827D01*
X824083Y126333D02*
Y134667D01*
X832417Y143000D01*
X824083Y151333D02*
X832417Y143000D01*
X824083Y151333D02*
Y159667D01*
X832417D01*
X840750Y151333D01*
X849083Y159667D01*
X857417D01*
Y151333D02*
Y159667D01*
X849083Y143000D02*
X857417Y151333D01*
X849083Y143000D02*
X857417Y134667D01*
Y126333D02*
Y134667D01*
X849083Y126333D02*
X857417D01*
X840750Y134667D02*
X849083Y126333D01*
X832417D02*
X840750Y134667D01*
X824083Y126333D02*
X832417D01*
X708333Y458799D02*
Y467133D01*
X716667Y475466D01*
X708333Y483799D02*
X716667Y475466D01*
X708333Y483799D02*
Y492132D01*
X716667D01*
X725000Y483799D01*
X733333Y492132D01*
X741667D01*
Y483799D02*
Y492132D01*
X733333Y475466D02*
X741667Y483799D01*
X733333Y475466D02*
X741667Y467133D01*
Y458799D02*
Y467133D01*
X733333Y458799D02*
X741667D01*
X725000Y467133D02*
X733333Y458799D01*
X716667D02*
X725000Y467133D01*
X708333Y458799D02*
X716667D01*
X926424Y726720D02*
Y735054D01*
X934758Y743387D01*
X926424Y751720D02*
X934758Y743387D01*
X926424Y751720D02*
Y760054D01*
X934758D01*
X943091Y751720D01*
X951424Y760054D01*
X959758D01*
Y751720D02*
Y760054D01*
X951424Y743387D02*
X959758Y751720D01*
X951424Y743387D02*
X959758Y735054D01*
Y726720D02*
Y735054D01*
X951424Y726720D02*
X959758D01*
X943091Y735054D02*
X951424Y726720D01*
X934758D02*
X943091Y735054D01*
X926424Y726720D02*
X934758D01*
X786333Y572333D02*
Y580667D01*
X794667Y589000D01*
X786333Y597333D02*
X794667Y589000D01*
X786333Y597333D02*
Y605667D01*
X794667D01*
X803000Y597333D01*
X811333Y605667D01*
X819667D01*
Y597333D02*
Y605667D01*
X811333Y589000D02*
X819667Y597333D01*
X811333Y589000D02*
X819667Y580667D01*
Y572333D02*
Y580667D01*
X811333Y572333D02*
X819667D01*
X803000Y580667D02*
X811333Y572333D01*
X794667D02*
X803000Y580667D01*
X786333Y572333D02*
X794667D01*
X707606Y578606D02*
Y586939D01*
X715939Y595272D01*
X707606Y603606D02*
X715939Y595272D01*
X707606Y603606D02*
Y611939D01*
X715939D01*
X724272Y603606D01*
X732606Y611939D01*
X740939D01*
Y603606D02*
Y611939D01*
X732606Y595272D02*
X740939Y603606D01*
X732606Y595272D02*
X740939Y586939D01*
Y578606D02*
Y586939D01*
X732606Y578606D02*
X740939D01*
X724272Y586939D02*
X732606Y578606D01*
X715939D02*
X724272Y586939D01*
X707606Y578606D02*
X715939D01*
X780358Y292333D02*
Y300667D01*
X788692Y309000D01*
X780358Y317333D02*
X788692Y309000D01*
X780358Y317333D02*
Y325667D01*
X788692D01*
X797025Y317333D01*
X805358Y325667D01*
X813692D01*
Y317333D02*
Y325667D01*
X805358Y309000D02*
X813692Y317333D01*
X805358Y309000D02*
X813692Y300667D01*
Y292333D02*
Y300667D01*
X805358Y292333D02*
X813692D01*
X797025Y300667D02*
X805358Y292333D01*
X788692D02*
X797025Y300667D01*
X780358Y292333D02*
X788692D01*
X814442Y354164D02*
Y362497D01*
X822776Y370831D01*
X814442Y379164D02*
X822776Y370831D01*
X814442Y379164D02*
Y387497D01*
X822776D01*
X831109Y379164D01*
X839442Y387497D01*
X847776D01*
Y379164D02*
Y387497D01*
X839442Y370831D02*
X847776Y379164D01*
X839442Y370831D02*
X847776Y362497D01*
Y354164D02*
Y362497D01*
X839442Y354164D02*
X847776D01*
X831109Y362497D02*
X839442Y354164D01*
X822776D02*
X831109Y362497D01*
X814442Y354164D02*
X822776D01*
X779380Y370883D02*
Y379216D01*
X787714Y387549D01*
X779380Y395882D02*
X787714Y387549D01*
X779380Y395882D02*
Y404216D01*
X787714D01*
X796047Y395882D01*
X804380Y404216D01*
X812714D01*
Y395882D02*
Y404216D01*
X804380Y387549D02*
X812714Y395882D01*
X804380Y387549D02*
X812714Y379216D01*
Y370883D02*
Y379216D01*
X804380Y370883D02*
X812714D01*
X796047Y379216D02*
X804380Y370883D01*
X787714D02*
X796047Y379216D01*
X779380Y370883D02*
X787714D01*
X708973Y170059D02*
Y178392D01*
X717306Y186725D01*
X708973Y195059D02*
X717306Y186725D01*
X708973Y195059D02*
Y203392D01*
X717306D01*
X725640Y195059D01*
X733973Y203392D01*
X742306D01*
Y195059D02*
Y203392D01*
X733973Y186725D02*
X742306Y195059D01*
X733973Y186725D02*
X742306Y178392D01*
Y170059D02*
Y178392D01*
X733973Y170059D02*
X742306D01*
X725640Y178392D02*
X733973Y170059D01*
X717306D02*
X725640Y178392D01*
X708973Y170059D02*
X717306D01*
X882654Y778894D02*
Y787228D01*
X890988Y795561D01*
X882654Y803894D02*
X890988Y795561D01*
X882654Y803894D02*
Y812228D01*
X890988D01*
X899321Y803894D01*
X907654Y812228D01*
X915988D01*
Y803894D02*
Y812228D01*
X907654Y795561D02*
X915988Y803894D01*
X907654Y795561D02*
X915988Y787228D01*
Y778894D02*
Y787228D01*
X907654Y778894D02*
X915988D01*
X899321Y787228D02*
X907654Y778894D01*
X890988D02*
X899321Y787228D01*
X882654Y778894D02*
X890988D01*
X1532841Y507287D02*
Y515621D01*
X1541174Y523954D01*
X1532841Y532287D02*
X1541174Y523954D01*
X1532841Y532287D02*
Y540621D01*
X1541174D01*
X1549508Y532287D01*
X1557841Y540621D01*
X1566174D01*
Y532287D02*
Y540621D01*
X1557841Y523954D02*
X1566174Y532287D01*
X1557841Y523954D02*
X1566174Y515621D01*
Y507287D02*
Y515621D01*
X1557841Y507287D02*
X1566174D01*
X1549508Y515621D02*
X1557841Y507287D01*
X1541174D02*
X1549508Y515621D01*
X1532841Y507287D02*
X1541174D01*
X280510Y557691D02*
Y566024D01*
X288844Y574357D01*
X280510Y582691D02*
X288844Y574357D01*
X280510Y582691D02*
Y591024D01*
X288844D01*
X297177Y582691D01*
X305510Y591024D01*
X313844D01*
Y582691D02*
Y591024D01*
X305510Y574357D02*
X313844Y582691D01*
X305510Y574357D02*
X313844Y566024D01*
Y557691D02*
Y566024D01*
X305510Y557691D02*
X313844D01*
X297177Y566024D02*
X305510Y557691D01*
X288844D02*
X297177Y566024D01*
X280510Y557691D02*
X288844D01*
X328333Y583333D02*
Y591667D01*
X336667Y600000D01*
X328333Y608333D02*
X336667Y600000D01*
X328333Y608333D02*
Y616667D01*
X336667D01*
X345000Y608333D01*
X353333Y616667D01*
X361667D01*
Y608333D02*
Y616667D01*
X353333Y600000D02*
X361667Y608333D01*
X353333Y600000D02*
X361667Y591667D01*
Y583333D02*
Y591667D01*
X353333Y583333D02*
X361667D01*
X345000Y591667D02*
X353333Y583333D01*
X336667D02*
X345000Y591667D01*
X328333Y583333D02*
X336667D01*
X328333Y628359D02*
Y636692D01*
X336667Y645025D01*
X328333Y653359D02*
X336667Y645025D01*
X328333Y653359D02*
Y661692D01*
X336667D01*
X345000Y653359D01*
X353333Y661692D01*
X361667D01*
Y653359D02*
Y661692D01*
X353333Y645025D02*
X361667Y653359D01*
X353333Y645025D02*
X361667Y636692D01*
Y628359D02*
Y636692D01*
X353333Y628359D02*
X361667D01*
X345000Y636692D02*
X353333Y628359D01*
X336667D02*
X345000Y636692D01*
X328333Y628359D02*
X336667D01*
X328333Y534910D02*
Y543243D01*
X336667Y551576D01*
X328333Y559909D02*
X336667Y551576D01*
X328333Y559909D02*
Y568243D01*
X336667D01*
X345000Y559909D01*
X353333Y568243D01*
X361667D01*
Y559909D02*
Y568243D01*
X353333Y551576D02*
X361667Y559909D01*
X353333Y551576D02*
X361667Y543243D01*
Y534910D02*
Y543243D01*
X353333Y534910D02*
X361667D01*
X345000Y543243D02*
X353333Y534910D01*
X336667D02*
X345000Y543243D01*
X328333Y534910D02*
X336667D01*
X221718Y293389D02*
Y301723D01*
X230052Y310056D01*
X221718Y318389D02*
X230052Y310056D01*
X221718Y318389D02*
Y326723D01*
X230052D01*
X238385Y318389D01*
X246718Y326723D01*
X255052D01*
Y318389D02*
Y326723D01*
X246718Y310056D02*
X255052Y318389D01*
X246718Y310056D02*
X255052Y301723D01*
Y293389D02*
Y301723D01*
X246718Y293389D02*
X255052D01*
X238385Y301723D02*
X246718Y293389D01*
X230052D02*
X238385Y301723D01*
X221718Y293389D02*
X230052D01*
X347187Y243884D02*
Y252217D01*
X355520Y260551D01*
X347187Y268884D02*
X355520Y260551D01*
X347187Y268884D02*
Y277217D01*
X355520D01*
X363853Y268884D01*
X372187Y277217D01*
X380520D01*
Y268884D02*
Y277217D01*
X372187Y260551D02*
X380520Y268884D01*
X372187Y260551D02*
X380520Y252217D01*
Y243884D02*
Y252217D01*
X372187Y243884D02*
X380520D01*
X363853Y252217D02*
X372187Y243884D01*
X355520D02*
X363853Y252217D01*
X347187Y243884D02*
X355520D01*
X382704Y183008D02*
Y191341D01*
X391037Y199675D01*
X382704Y208008D02*
X391037Y199675D01*
X382704Y208008D02*
Y216341D01*
X391037D01*
X399370Y208008D01*
X407703Y216341D01*
X416037D01*
Y208008D02*
Y216341D01*
X407703Y199675D02*
X416037Y208008D01*
X407703Y199675D02*
X416037Y191341D01*
Y183008D02*
Y191341D01*
X407703Y183008D02*
X416037D01*
X399370Y191341D02*
X407703Y183008D01*
X391037D02*
X399370Y191341D01*
X382704Y183008D02*
X391037D01*
X539972Y112525D02*
Y120858D01*
X548305Y129191D01*
X539972Y137525D02*
X548305Y129191D01*
X539972Y137525D02*
Y145858D01*
X548305D01*
X556638Y137525D01*
X564971Y145858D01*
X573305D01*
Y137525D02*
Y145858D01*
X564971Y129191D02*
X573305Y137525D01*
X564971Y129191D02*
X573305Y120858D01*
Y112525D02*
Y120858D01*
X564971Y112525D02*
X573305D01*
X556638Y120858D02*
X564971Y112525D01*
X548305D02*
X556638Y120858D01*
X539972Y112525D02*
X548305D01*
X723442Y234333D02*
Y242667D01*
X731775Y251000D01*
X723442Y259333D02*
X731775Y251000D01*
X723442Y259333D02*
Y267667D01*
X731775D01*
X740109Y259333D01*
X748442Y267667D01*
X756775D01*
Y259333D02*
Y267667D01*
X748442Y251000D02*
X756775Y259333D01*
X748442Y251000D02*
X756775Y242667D01*
Y234333D02*
Y242667D01*
X748442Y234333D02*
X756775D01*
X740109Y242667D02*
X748442Y234333D01*
X731775D02*
X740109Y242667D01*
X723442Y234333D02*
X731775D01*
X497519Y415731D02*
Y424064D01*
X505853Y432397D01*
X497519Y440731D02*
X505853Y432397D01*
X497519Y440731D02*
Y449064D01*
X505853D01*
X514186Y440731D01*
X522519Y449064D01*
X530852D01*
Y440731D02*
Y449064D01*
X522519Y432397D02*
X530852Y440731D01*
X522519Y432397D02*
X530852Y424064D01*
Y415731D02*
Y424064D01*
X522519Y415731D02*
X530852D01*
X514186Y424064D02*
X522519Y415731D01*
X505853D02*
X514186Y424064D01*
X497519Y415731D02*
X505853D01*
X348937Y844810D02*
Y853144D01*
X357271Y861477D01*
X348937Y869810D02*
X357271Y861477D01*
X348937Y869810D02*
Y878144D01*
X357271D01*
X365604Y869810D01*
X373937Y878144D01*
X382271D01*
Y869810D02*
Y878144D01*
X373937Y861477D02*
X382271Y869810D01*
X373937Y861477D02*
X382271Y853144D01*
Y844810D02*
Y853144D01*
X373937Y844810D02*
X382271D01*
X365604Y853144D02*
X373937Y844810D01*
X357271D02*
X365604Y853144D01*
X348937Y844810D02*
X357271D01*
X348937Y778333D02*
Y786667D01*
X357271Y795000D01*
X348937Y803333D02*
X357271Y795000D01*
X348937Y803333D02*
Y811667D01*
X357271D01*
X365604Y803333D01*
X373937Y811667D01*
X382271D01*
Y803333D02*
Y811667D01*
X373937Y795000D02*
X382271Y803333D01*
X373937Y795000D02*
X382271Y786667D01*
Y778333D02*
Y786667D01*
X373937Y778333D02*
X382271D01*
X365604Y786667D02*
X373937Y778333D01*
X357271D02*
X365604Y786667D01*
X348937Y778333D02*
X357271D01*
X481185D02*
Y786667D01*
X489519Y795000D01*
X481185Y803333D02*
X489519Y795000D01*
X481185Y803333D02*
Y811667D01*
X489519D01*
X497852Y803333D01*
X506185Y811667D01*
X514519D01*
Y803333D02*
Y811667D01*
X506185Y795000D02*
X514519Y803333D01*
X506185Y795000D02*
X514519Y786667D01*
Y778333D02*
Y786667D01*
X506185Y778333D02*
X514519D01*
X497852Y786667D02*
X506185Y778333D01*
X489519D02*
X497852Y786667D01*
X481185Y778333D02*
X489519D01*
X481185Y844810D02*
Y853144D01*
X489519Y861477D01*
X481185Y869810D02*
X489519Y861477D01*
X481185Y869810D02*
Y878144D01*
X489519D01*
X497852Y869810D01*
X506185Y878144D01*
X514519D01*
Y869810D02*
Y878144D01*
X506185Y861477D02*
X514519Y869810D01*
X506185Y861477D02*
X514519Y853144D01*
Y844810D02*
Y853144D01*
X506185Y844810D02*
X514519D01*
X497852Y853144D02*
X506185Y844810D01*
X489519D02*
X497852Y853144D01*
X481185Y844810D02*
X489519D01*
X858080Y521723D02*
Y530056D01*
X866414Y538389D01*
X858080Y546723D02*
X866414Y538389D01*
X858080Y546723D02*
Y555056D01*
X866414D01*
X874747Y546723D01*
X883080Y555056D01*
X891414D01*
Y546723D02*
Y555056D01*
X883080Y538389D02*
X891414Y546723D01*
X883080Y538389D02*
X891414Y530056D01*
Y521723D02*
Y530056D01*
X883080Y521723D02*
X891414D01*
X874747Y530056D02*
X883080Y521723D01*
X866414D02*
X874747Y530056D01*
X858080Y521723D02*
X866414D01*
X923537Y605450D02*
Y613783D01*
X931870Y622116D01*
X923537Y630450D02*
X931870Y622116D01*
X923537Y630450D02*
Y638783D01*
X931870D01*
X940203Y630450D01*
X948537Y638783D01*
X956870D01*
Y630450D02*
Y638783D01*
X948537Y622116D02*
X956870Y630450D01*
X948537Y622116D02*
X956870Y613783D01*
Y605450D02*
Y613783D01*
X948537Y605450D02*
X956870D01*
X940203Y613783D02*
X948537Y605450D01*
X931870D02*
X940203Y613783D01*
X923537Y605450D02*
X931870D01*
X968483Y507287D02*
Y515621D01*
X976816Y523954D01*
X968483Y532287D02*
X976816Y523954D01*
X968483Y532287D02*
Y540621D01*
X976816D01*
X985150Y532287D01*
X993483Y540621D01*
X1001816D01*
Y532287D02*
Y540621D01*
X993483Y523954D02*
X1001816Y532287D01*
X993483Y523954D02*
X1001816Y515621D01*
Y507287D02*
Y515621D01*
X993483Y507287D02*
X1001816D01*
X985150Y515621D02*
X993483Y507287D01*
X976816D02*
X985150Y515621D01*
X968483Y507287D02*
X976816D01*
X1137333Y507367D02*
Y515701D01*
X1145667Y524034D01*
X1137333Y532367D02*
X1145667Y524034D01*
X1137333Y532367D02*
Y540701D01*
X1145667D01*
X1154000Y532367D01*
X1162333Y540701D01*
X1170667D01*
Y532367D02*
Y540701D01*
X1162333Y524034D02*
X1170667Y532367D01*
X1162333Y524034D02*
X1170667Y515701D01*
Y507367D02*
Y515701D01*
X1162333Y507367D02*
X1170667D01*
X1154000Y515701D02*
X1162333Y507367D01*
X1145667D02*
X1154000Y515701D01*
X1137333Y507367D02*
X1145667D01*
X880838Y395807D02*
Y404140D01*
X889172Y412474D01*
X880838Y420807D02*
X889172Y412474D01*
X880838Y420807D02*
Y429140D01*
X889172D01*
X897505Y420807D01*
X905838Y429140D01*
X914172D01*
Y420807D02*
Y429140D01*
X905838Y412474D02*
X914172Y420807D01*
X905838Y412474D02*
X914172Y404140D01*
Y395807D02*
Y404140D01*
X905838Y395807D02*
X914172D01*
X897505Y404140D02*
X905838Y395807D01*
X889172D02*
X897505Y404140D01*
X880838Y395807D02*
X889172D01*
X935319D02*
Y404140D01*
X943653Y412474D01*
X935319Y420807D02*
X943653Y412474D01*
X935319Y420807D02*
Y429140D01*
X943653D01*
X951986Y420807D01*
X960319Y429140D01*
X968653D01*
Y420807D02*
Y429140D01*
X960319Y412474D02*
X968653Y420807D01*
X960319Y412474D02*
X968653Y404140D01*
Y395807D02*
Y404140D01*
X960319Y395807D02*
X968653D01*
X951986Y404140D02*
X960319Y395807D01*
X943653D02*
X951986Y404140D01*
X935319Y395807D02*
X943653D01*
X1146164Y353874D02*
Y362207D01*
X1154497Y370541D01*
X1146164Y378874D02*
X1154497Y370541D01*
X1146164Y378874D02*
Y387207D01*
X1154497D01*
X1162830Y378874D01*
X1171164Y387207D01*
X1179497D01*
Y378874D02*
Y387207D01*
X1171164Y370541D02*
X1179497Y378874D01*
X1171164Y370541D02*
X1179497Y362207D01*
Y353874D02*
Y362207D01*
X1171164Y353874D02*
X1179497D01*
X1162830Y362207D02*
X1171164Y353874D01*
X1154497D02*
X1162830Y362207D01*
X1146164Y353874D02*
X1154497D01*
X1933333Y683333D02*
Y691667D01*
X1941667Y700000D01*
X1933333Y708333D02*
X1941667Y700000D01*
X1933333Y708333D02*
Y716667D01*
X1941667D01*
X1950000Y708333D01*
X1958333Y716667D01*
X1966667D01*
Y708333D02*
Y716667D01*
X1958333Y700000D02*
X1966667Y708333D01*
X1958333Y700000D02*
X1966667Y691667D01*
Y683333D02*
Y691667D01*
X1958333Y683333D02*
X1966667D01*
X1950000Y691667D02*
X1958333Y683333D01*
X1941667D02*
X1950000Y691667D01*
X1933333Y683333D02*
X1941667D01*
X1933333Y408333D02*
Y416667D01*
X1941667Y425000D01*
X1933333Y433333D02*
X1941667Y425000D01*
X1933333Y433333D02*
Y441667D01*
X1941667D01*
X1950000Y433333D01*
X1958333Y441667D01*
X1966667D01*
Y433333D02*
Y441667D01*
X1958333Y425000D02*
X1966667Y433333D01*
X1958333Y425000D02*
X1966667Y416667D01*
Y408333D02*
Y416667D01*
X1958333Y408333D02*
X1966667D01*
X1950000Y416667D02*
X1958333Y408333D01*
X1941667D02*
X1950000Y416667D01*
X1933333Y408333D02*
X1941667D01*
X1758333D02*
Y416667D01*
X1766667Y425000D01*
X1758333Y433333D02*
X1766667Y425000D01*
X1758333Y433333D02*
Y441667D01*
X1766667D01*
X1775000Y433333D01*
X1783333Y441667D01*
X1791667D01*
Y433333D02*
Y441667D01*
X1783333Y425000D02*
X1791667Y433333D01*
X1783333Y425000D02*
X1791667Y416667D01*
Y408333D02*
Y416667D01*
X1783333Y408333D02*
X1791667D01*
X1775000Y416667D02*
X1783333Y408333D01*
X1766667D02*
X1775000Y416667D01*
X1758333Y408333D02*
X1766667D01*
X1733333Y683333D02*
Y691667D01*
X1741667Y700000D01*
X1733333Y708333D02*
X1741667Y700000D01*
X1733333Y708333D02*
Y716667D01*
X1741667D01*
X1750000Y708333D01*
X1758333Y716667D01*
X1766667D01*
Y708333D02*
Y716667D01*
X1758333Y700000D02*
X1766667Y708333D01*
X1758333Y700000D02*
X1766667Y691667D01*
Y683333D02*
Y691667D01*
X1758333Y683333D02*
X1766667D01*
X1750000Y691667D02*
X1758333Y683333D01*
X1741667D02*
X1750000Y691667D01*
X1733333Y683333D02*
X1741667D01*
X1583333D02*
Y691667D01*
X1591667Y700000D01*
X1583333Y708333D02*
X1591667Y700000D01*
X1583333Y708333D02*
Y716667D01*
X1591667D01*
X1600000Y708333D01*
X1608333Y716667D01*
X1616667D01*
Y708333D02*
Y716667D01*
X1608333Y700000D02*
X1616667Y708333D01*
X1608333Y700000D02*
X1616667Y691667D01*
Y683333D02*
Y691667D01*
X1608333Y683333D02*
X1616667D01*
X1600000Y691667D02*
X1608333Y683333D01*
X1591667D02*
X1600000Y691667D01*
X1583333Y683333D02*
X1591667D01*
X1658333Y533333D02*
Y541667D01*
X1666667Y550000D01*
X1658333Y558333D02*
X1666667Y550000D01*
X1658333Y558333D02*
Y566667D01*
X1666667D01*
X1675000Y558333D01*
X1683333Y566667D01*
X1691667D01*
Y558333D02*
Y566667D01*
X1683333Y550000D02*
X1691667Y558333D01*
X1683333Y550000D02*
X1691667Y541667D01*
Y533333D02*
Y541667D01*
X1683333Y533333D02*
X1691667D01*
X1675000Y541667D02*
X1683333Y533333D01*
X1666667D02*
X1675000Y541667D01*
X1658333Y533333D02*
X1666667D01*
X1783333Y233333D02*
Y241667D01*
X1791667Y250000D01*
X1783333Y258333D02*
X1791667Y250000D01*
X1783333Y258333D02*
Y266667D01*
X1791667D01*
X1800000Y258333D01*
X1808333Y266667D01*
X1816667D01*
Y258333D02*
Y266667D01*
X1808333Y250000D02*
X1816667Y258333D01*
X1808333Y250000D02*
X1816667Y241667D01*
Y233333D02*
Y241667D01*
X1808333Y233333D02*
X1816667D01*
X1800000Y241667D02*
X1808333Y233333D01*
X1791667D02*
X1800000Y241667D01*
X1783333Y233333D02*
X1791667D01*
X1683333Y208333D02*
Y216667D01*
X1691667Y225000D01*
X1683333Y233333D02*
X1691667Y225000D01*
X1683333Y233333D02*
Y241667D01*
X1691667D01*
X1700000Y233333D01*
X1708333Y241667D01*
X1716667D01*
Y233333D02*
Y241667D01*
X1708333Y225000D02*
X1716667Y233333D01*
X1708333Y225000D02*
X1716667Y216667D01*
Y208333D02*
Y216667D01*
X1708333Y208333D02*
X1716667D01*
X1700000Y216667D02*
X1708333Y208333D01*
X1691667D02*
X1700000Y216667D01*
X1683333Y208333D02*
X1691667D01*
X1583333D02*
Y216667D01*
X1591667Y225000D01*
X1583333Y233333D02*
X1591667Y225000D01*
X1583333Y233333D02*
Y241667D01*
X1591667D01*
X1600000Y233333D01*
X1608333Y241667D01*
X1616667D01*
Y233333D02*
Y241667D01*
X1608333Y225000D02*
X1616667Y233333D01*
X1608333Y225000D02*
X1616667Y216667D01*
Y208333D02*
Y216667D01*
X1608333Y208333D02*
X1616667D01*
X1600000Y216667D02*
X1608333Y208333D01*
X1591667D02*
X1600000Y216667D01*
X1583333Y208333D02*
X1591667D01*
X1433333Y683333D02*
Y691667D01*
X1441667Y700000D01*
X1433333Y708333D02*
X1441667Y700000D01*
X1433333Y708333D02*
Y716667D01*
X1441667D01*
X1450000Y708333D01*
X1458333Y716667D01*
X1466667D01*
Y708333D02*
Y716667D01*
X1458333Y700000D02*
X1466667Y708333D01*
X1458333Y700000D02*
X1466667Y691667D01*
Y683333D02*
Y691667D01*
X1458333Y683333D02*
X1466667D01*
X1450000Y691667D02*
X1458333Y683333D01*
X1441667D02*
X1450000Y691667D01*
X1433333Y683333D02*
X1441667D01*
X783333D02*
Y691667D01*
X791667Y700000D01*
X783333Y708333D02*
X791667Y700000D01*
X783333Y708333D02*
Y716667D01*
X791667D01*
X800000Y708333D01*
X808333Y716667D01*
X816667D01*
Y708333D02*
Y716667D01*
X808333Y700000D02*
X816667Y708333D01*
X808333Y700000D02*
X816667Y691667D01*
Y683333D02*
Y691667D01*
X808333Y683333D02*
X816667D01*
X800000Y691667D02*
X808333Y683333D01*
X791667D02*
X800000Y691667D01*
X783333Y683333D02*
X791667D01*
X208333Y808333D02*
Y816667D01*
X216667Y825000D01*
X208333Y833333D02*
X216667Y825000D01*
X208333Y833333D02*
Y841667D01*
X216667D01*
X225000Y833333D01*
X233333Y841667D01*
X241667D01*
Y833333D02*
Y841667D01*
X233333Y825000D02*
X241667Y833333D01*
X233333Y825000D02*
X241667Y816667D01*
Y808333D02*
Y816667D01*
X233333Y808333D02*
X241667D01*
X225000Y816667D02*
X233333Y808333D01*
X216667D02*
X225000Y816667D01*
X208333Y808333D02*
X216667D01*
X33333Y683333D02*
Y691667D01*
X41667Y700000D01*
X33333Y708333D02*
X41667Y700000D01*
X33333Y708333D02*
Y716667D01*
X41667D01*
X50000Y708333D01*
X58333Y716667D01*
X66667D01*
Y708333D02*
Y716667D01*
X58333Y700000D02*
X66667Y708333D01*
X58333Y700000D02*
X66667Y691667D01*
Y683333D02*
Y691667D01*
X58333Y683333D02*
X66667D01*
X50000Y691667D02*
X58333Y683333D01*
X41667D02*
X50000Y691667D01*
X33333Y683333D02*
X41667D01*
X308333D02*
Y691667D01*
X316667Y700000D01*
X308333Y708333D02*
X316667Y700000D01*
X308333Y708333D02*
Y716667D01*
X316667D01*
X325000Y708333D01*
X333333Y716667D01*
X341667D01*
Y708333D02*
Y716667D01*
X333333Y700000D02*
X341667Y708333D01*
X333333Y700000D02*
X341667Y691667D01*
Y683333D02*
Y691667D01*
X333333Y683333D02*
X341667D01*
X325000Y691667D02*
X333333Y683333D01*
X316667D02*
X325000Y691667D01*
X308333Y683333D02*
X316667D01*
X33333Y183333D02*
Y191667D01*
X41667Y200000D01*
X33333Y208333D02*
X41667Y200000D01*
X33333Y208333D02*
Y216667D01*
X41667D01*
X50000Y208333D01*
X58333Y216667D01*
X66667D01*
Y208333D02*
Y216667D01*
X58333Y200000D02*
X66667Y208333D01*
X58333Y200000D02*
X66667Y191667D01*
Y183333D02*
Y191667D01*
X58333Y183333D02*
X66667D01*
X50000Y191667D02*
X58333Y183333D01*
X41667D02*
X50000Y191667D01*
X33333Y183333D02*
X41667D01*
X183333Y108333D02*
Y116667D01*
X191667Y125000D01*
X183333Y133333D02*
X191667Y125000D01*
X183333Y133333D02*
Y141667D01*
X191667D01*
X200000Y133333D01*
X208333Y141667D01*
X216667D01*
Y133333D02*
Y141667D01*
X208333Y125000D02*
X216667Y133333D01*
X208333Y125000D02*
X216667Y116667D01*
Y108333D02*
Y116667D01*
X208333Y108333D02*
X216667D01*
X200000Y116667D02*
X208333Y108333D01*
X191667D02*
X200000Y116667D01*
X183333Y108333D02*
X191667D01*
X1044333Y726333D02*
Y734667D01*
X1052667Y743000D01*
X1044333Y751333D02*
X1052667Y743000D01*
X1044333Y751333D02*
Y759667D01*
X1052667D01*
X1061000Y751333D01*
X1069333Y759667D01*
X1077667D01*
Y751333D02*
Y759667D01*
X1069333Y743000D02*
X1077667Y751333D01*
X1069333Y743000D02*
X1077667Y734667D01*
Y726333D02*
Y734667D01*
X1069333Y726333D02*
X1077667D01*
X1061000Y734667D02*
X1069333Y726333D01*
X1052667D02*
X1061000Y734667D01*
X1044333Y726333D02*
X1052667D01*
X1933333Y183333D02*
Y191667D01*
X1941667Y200000D01*
X1933333Y208333D02*
X1941667Y200000D01*
X1933333Y208333D02*
Y216667D01*
X1941667D01*
X1950000Y208333D01*
X1958333Y216667D01*
X1966667D01*
Y208333D02*
Y216667D01*
X1958333Y200000D02*
X1966667Y208333D01*
X1958333Y200000D02*
X1966667Y191667D01*
Y183333D02*
Y191667D01*
X1958333Y183333D02*
X1966667D01*
X1950000Y191667D02*
X1958333Y183333D01*
X1941667D02*
X1950000Y191667D01*
X1933333Y183333D02*
X1941667D01*
X995333Y127333D02*
Y135667D01*
X1003667Y144000D01*
X995333Y152333D02*
X1003667Y144000D01*
X995333Y152333D02*
Y160667D01*
X1003667D01*
X1012000Y152333D01*
X1020333Y160667D01*
X1028667D01*
Y152333D02*
Y160667D01*
X1020333Y144000D02*
X1028667Y152333D01*
X1020333Y144000D02*
X1028667Y135667D01*
Y127333D02*
Y135667D01*
X1020333Y127333D02*
X1028667D01*
X1012000Y135667D02*
X1020333Y127333D01*
X1003667D02*
X1012000Y135667D01*
X995333Y127333D02*
X1003667D01*
X83333Y83333D02*
X100000Y91667D01*
X116667Y83333D01*
X108333Y100000D02*
X116667Y83333D01*
X108333Y100000D02*
X116667Y116667D01*
X100000Y108333D02*
X116667Y116667D01*
X83333D02*
X100000Y108333D01*
X83333Y116667D02*
X91667Y100000D01*
X83333Y83333D02*
X91667Y100000D01*
X1883333Y783333D02*
X1900000Y791667D01*
X1916667Y783333D01*
X1908333Y800000D02*
X1916667Y783333D01*
X1908333Y800000D02*
X1916667Y816667D01*
X1900000Y808333D02*
X1916667Y816667D01*
X1883333D02*
X1900000Y808333D01*
X1883333Y816667D02*
X1891667Y800000D01*
X1883333Y783333D02*
X1891667Y800000D01*
X1883333Y83333D02*
X1900000Y91667D01*
X1916667Y83333D01*
X1908333Y100000D02*
X1916667Y83333D01*
X1908333Y100000D02*
X1916667Y116667D01*
X1900000Y108333D02*
X1916667Y116667D01*
X1883333D02*
X1900000Y108333D01*
X1883333Y116667D02*
X1891667Y100000D01*
X1883333Y83333D02*
X1891667Y100000D01*
X83333Y783333D02*
X100000Y791667D01*
X116667Y783333D01*
X108333Y800000D02*
X116667Y783333D01*
X108333Y800000D02*
X116667Y816667D01*
X100000Y808333D02*
X116667Y816667D01*
X83333D02*
X100000Y808333D01*
X83333Y816667D02*
X91667Y800000D01*
X83333Y783333D02*
X91667Y800000D01*
X209777Y529265D02*
X218110Y520932D01*
X201444Y529265D02*
X209777D01*
X201444D02*
X209777Y537598D01*
X201444Y545932D02*
X209777Y537598D01*
X201444Y545932D02*
X209777D01*
X218110Y554265D01*
X226444Y545932D01*
X234777D01*
X226444Y537598D02*
X234777Y545932D01*
X226444Y537598D02*
X234777Y529265D01*
X226444D02*
X234777D01*
X218110Y520932D02*
X226444Y529265D01*
X209777Y354068D02*
X218110Y345735D01*
X201444Y354068D02*
X209777D01*
X201444D02*
X209777Y362402D01*
X201444Y370735D02*
X209777Y362402D01*
X201444Y370735D02*
X209777D01*
X218110Y379068D01*
X226444Y370735D01*
X234777D01*
X226444Y362402D02*
X234777Y370735D01*
X226444Y362402D02*
X234777Y354068D01*
X226444D02*
X234777D01*
X218110Y345735D02*
X226444Y354068D01*
X100000Y597703D02*
X116667Y631037D01*
X83333D02*
X116667D01*
X83333D02*
X100000Y597703D01*
Y268963D02*
X116667Y302296D01*
X83333D02*
X116667D01*
X83333D02*
X100000Y268963D01*
X1194180Y141382D02*
X1227514D01*
Y174715D01*
X1194180D02*
X1227514D01*
X1194180Y141382D02*
Y174715D01*
X1869180Y531382D02*
X1902514D01*
Y564715D01*
X1869180D02*
X1902514D01*
X1869180Y531382D02*
Y564715D01*
D98*
X863496Y2947982D02*
X7617640D01*
X863496Y2047982D02*
X7617640D01*
X863496Y1897982D02*
X7617640D01*
Y3097982D01*
X863496D02*
X7617640D01*
X863496Y1897982D02*
Y3097982D01*
X6482957Y1897982D02*
Y3097982D01*
X5893108Y1897982D02*
Y3097982D01*
X4393558Y1897982D02*
Y3097982D01*
X3659756Y1897982D02*
Y3097982D01*
X3153880Y1897982D02*
Y3097982D01*
X2004216Y1897982D02*
Y3097982D01*
X1414372Y1897982D02*
Y3097982D01*
X3108770Y852682D02*
X7647573D01*
X3108770Y972682D02*
X7647573D01*
X3108770Y12682D02*
Y972682D01*
Y12682D02*
X3518683D01*
X3108770Y132682D02*
X3518683D01*
X3108770Y252682D02*
X3518683D01*
X3108770Y372682D02*
X3518683D01*
X3108770Y492682D02*
X3518683D01*
X3108770Y612682D02*
X3518683D01*
X3108770Y732682D02*
X3518683D01*
Y12682D02*
Y972682D01*
Y12682D02*
X4448427D01*
X3518683Y132682D02*
X4448427D01*
X3518683Y252682D02*
X4448427D01*
X3518683Y372682D02*
X4448427D01*
X3518683Y492682D02*
X4448427D01*
X3518683Y612682D02*
X4448427D01*
X3518683Y732682D02*
X4448427D01*
Y12682D02*
Y972682D01*
Y12682D02*
X5308194D01*
X4448427Y132682D02*
X5308194D01*
X4448427Y252682D02*
X5308194D01*
X4448427Y372682D02*
X5308194D01*
X4448427Y492682D02*
X5308194D01*
X4448427Y612682D02*
X5308194D01*
X4448427Y732682D02*
X5308194D01*
Y12682D02*
Y972682D01*
Y12682D02*
X5958029D01*
X5308194Y132682D02*
X5958029D01*
X5308194Y252682D02*
X5958029D01*
X5308194Y372682D02*
X5958029D01*
X5308194Y492682D02*
X5958029D01*
X5308194Y612682D02*
X5958029D01*
X5308194Y732682D02*
X5958029D01*
Y12682D02*
Y972682D01*
Y12682D02*
X6527890D01*
X5958029Y132682D02*
X6527890D01*
X5958029Y252682D02*
X6527890D01*
X5958029Y372682D02*
X6527890D01*
X5958029Y492682D02*
X6527890D01*
X5958029Y612682D02*
X6527890D01*
X5958029Y732682D02*
X6527890D01*
Y12682D02*
Y972682D01*
Y12682D02*
X7647573D01*
X6527890Y132682D02*
X7647573D01*
X6527890Y252682D02*
X7647573D01*
X6527890Y372682D02*
X7647573D01*
X6527890Y492682D02*
X7647573D01*
X6527890Y612682D02*
X7647573D01*
X6527890Y732682D02*
X7647573D01*
Y12682D02*
Y972682D01*
D99*
X6527957Y2992982D02*
Y3064959D01*
X6563945D01*
X6575941Y3052963D01*
Y3028970D01*
X6563945Y3016974D01*
X6527957D01*
X6611930Y3040966D02*
X6635922D01*
X6647918Y3028970D01*
Y2992982D01*
X6611930D01*
X6599933Y3004978D01*
X6611930Y3016974D01*
X6647918D01*
X6719895Y3064959D02*
Y2992982D01*
X6683906D01*
X6671910Y3004978D01*
Y3028970D01*
X6683906Y3040966D01*
X6719895D01*
X6863848Y3052963D02*
X6851852Y3064959D01*
X6827860D01*
X6815864Y3052963D01*
Y3040966D01*
X6827860Y3028970D01*
X6851852D01*
X6863848Y3016974D01*
Y3004978D01*
X6851852Y2992982D01*
X6827860D01*
X6815864Y3004978D01*
X6887840Y3064959D02*
Y2992982D01*
Y3028970D01*
X6899836Y3040966D01*
X6923829D01*
X6935825Y3028970D01*
Y2992982D01*
X6971813Y3040966D02*
X6995805D01*
X7007801Y3028970D01*
Y2992982D01*
X6971813D01*
X6959817Y3004978D01*
X6971813Y3016974D01*
X7007801D01*
X7031794Y2968990D02*
Y3040966D01*
X7067782D01*
X7079778Y3028970D01*
Y3004978D01*
X7067782Y2992982D01*
X7031794D01*
X7139759D02*
X7115766D01*
X7103770Y3004978D01*
Y3028970D01*
X7115766Y3040966D01*
X7139759D01*
X7151755Y3028970D01*
Y3016974D01*
X7103770D01*
X5938108Y3064959D02*
Y3016974D01*
X5962100Y2992982D01*
X5986093Y3016974D01*
Y3064959D01*
X6010085Y2992982D02*
X6034077D01*
X6022081D01*
Y3040966D01*
X6010085D01*
X6082061D02*
X6106054D01*
X6118050Y3028970D01*
Y2992982D01*
X6082061D01*
X6070065Y3004978D01*
X6082061Y3016974D01*
X6118050D01*
X6142042Y2992982D02*
X6190027Y3040966D01*
X6214019Y2992982D02*
Y3064959D01*
X6250007D01*
X6262003Y3052963D01*
Y3028970D01*
X6250007Y3016974D01*
X6214019D01*
X6297992Y3040966D02*
X6321984D01*
X6333980Y3028970D01*
Y2992982D01*
X6297992D01*
X6285995Y3004978D01*
X6297992Y3016974D01*
X6333980D01*
X6405957Y3064959D02*
Y2992982D01*
X6369968D01*
X6357972Y3004978D01*
Y3028970D01*
X6369968Y3040966D01*
X6405957D01*
X4438558Y3064959D02*
Y2992982D01*
X4474546D01*
X4486542Y3004978D01*
Y3052963D01*
X4474546Y3064959D01*
X4438558D01*
X4510534Y3040966D02*
Y2992982D01*
Y3016974D01*
X4522530Y3028970D01*
X4534526Y3040966D01*
X4546523D01*
X4582511Y2992982D02*
X4606503D01*
X4594507D01*
Y3040966D01*
X4582511D01*
X4642492Y2992982D02*
X4666484D01*
X4654488D01*
Y3064959D01*
X4642492D01*
X4702472Y2992982D02*
X4726464D01*
X4714468D01*
Y3064959D01*
X4702472D01*
X4834430D02*
Y2992982D01*
X4882414D01*
X4918402Y3040966D02*
X4942395D01*
X4954391Y3028970D01*
Y2992982D01*
X4918402D01*
X4906406Y3004978D01*
X4918402Y3016974D01*
X4954391D01*
X4978383Y3040966D02*
Y3004978D01*
X4990379Y2992982D01*
X5026367D01*
Y2980986D01*
X5014371Y2968990D01*
X5002375D01*
X5026367Y2992982D02*
Y3040966D01*
X5086348Y2992982D02*
X5062356D01*
X5050360Y3004978D01*
Y3028970D01*
X5062356Y3040966D01*
X5086348D01*
X5098344Y3028970D01*
Y3016974D01*
X5050360D01*
X5122336Y3040966D02*
Y2992982D01*
Y3016974D01*
X5134332Y3028970D01*
X5146328Y3040966D01*
X5158325D01*
X5266290Y2992982D02*
Y3064959D01*
X5302278D01*
X5314274Y3052963D01*
Y3028970D01*
X5302278Y3016974D01*
X5266290D01*
X5350262Y3040966D02*
X5374255D01*
X5386251Y3028970D01*
Y2992982D01*
X5350262D01*
X5338266Y3004978D01*
X5350262Y3016974D01*
X5386251D01*
X5410243Y2992982D02*
X5434235D01*
X5422239D01*
Y3040966D01*
X5410243D01*
X5470224D02*
Y2992982D01*
Y3016974D01*
X5482220Y3028970D01*
X5494216Y3040966D01*
X5506212D01*
X3704756Y3064959D02*
Y2992982D01*
Y3028970D01*
X3752740D01*
Y3064959D01*
Y2992982D01*
X3788728D02*
X3812721D01*
X3824717Y3004978D01*
Y3028970D01*
X3812721Y3040966D01*
X3788728D01*
X3776732Y3028970D01*
Y3004978D01*
X3788728Y2992982D01*
X3848709D02*
X3872701D01*
X3860705D01*
Y3064959D01*
X3848709D01*
X3944678Y2992982D02*
X3920686D01*
X3908690Y3004978D01*
Y3028970D01*
X3920686Y3040966D01*
X3944678D01*
X3956674Y3028970D01*
Y3016974D01*
X3908690D01*
X4052643Y3064959D02*
X4100627D01*
X4076635D01*
Y2992982D01*
X4124620Y3040966D02*
Y3004978D01*
X4136616Y2992982D01*
X4172604D01*
Y2980986D01*
X4160608Y2968990D01*
X4148612D01*
X4172604Y2992982D02*
Y3040966D01*
X4196596Y2968990D02*
Y3040966D01*
X4232585D01*
X4244581Y3028970D01*
Y3004978D01*
X4232585Y2992982D01*
X4196596D01*
X4304561D02*
X4280569D01*
X4268573Y3004978D01*
Y3028970D01*
X4280569Y3040966D01*
X4304561D01*
X4316558Y3028970D01*
Y3016974D01*
X4268573D01*
X3198880Y2992982D02*
Y3064959D01*
X3234868D01*
X3246864Y3052963D01*
Y3028970D01*
X3234868Y3016974D01*
X3198880D01*
X3270856Y2992982D02*
X3294849D01*
X3282853D01*
Y3064959D01*
X3270856D01*
X3342833Y3040966D02*
X3366825D01*
X3378822Y3028970D01*
Y2992982D01*
X3342833D01*
X3330837Y3004978D01*
X3342833Y3016974D01*
X3378822D01*
X3414810Y3052963D02*
Y3040966D01*
X3402814D01*
X3426806D01*
X3414810D01*
Y3004978D01*
X3426806Y2992982D01*
X3498783D02*
X3474791D01*
X3462794Y3004978D01*
Y3028970D01*
X3474791Y3040966D01*
X3498783D01*
X3510779Y3028970D01*
Y3016974D01*
X3462794D01*
X3582756Y3064959D02*
Y2992982D01*
X3546767D01*
X3534771Y3004978D01*
Y3028970D01*
X3546767Y3040966D01*
X3582756D01*
X2049216Y3064959D02*
Y2992982D01*
Y3028970D01*
X2097201D01*
Y3064959D01*
Y2992982D01*
X2133189D02*
X2157181D01*
X2169177Y3004978D01*
Y3028970D01*
X2157181Y3040966D01*
X2133189D01*
X2121193Y3028970D01*
Y3004978D01*
X2133189Y2992982D01*
X2193170D02*
X2217162D01*
X2205166D01*
Y3064959D01*
X2193170D01*
X2289139Y2992982D02*
X2265146D01*
X2253150Y3004978D01*
Y3028970D01*
X2265146Y3040966D01*
X2289139D01*
X2301135Y3028970D01*
Y3016974D01*
X2253150D01*
X2445088Y3052963D02*
X2433092Y3064959D01*
X2409100D01*
X2397104Y3052963D01*
Y3040966D01*
X2409100Y3028970D01*
X2433092D01*
X2445088Y3016974D01*
Y3004978D01*
X2433092Y2992982D01*
X2409100D01*
X2397104Y3004978D01*
X2469080Y2992982D02*
X2493073D01*
X2481077D01*
Y3040966D01*
X2469080D01*
X2529061D02*
X2577046D01*
X2529061Y2992982D01*
X2577046D01*
X2637026D02*
X2613034D01*
X2601038Y3004978D01*
Y3028970D01*
X2613034Y3040966D01*
X2637026D01*
X2649022Y3028970D01*
Y3016974D01*
X2601038D01*
X1507356Y3052963D02*
X1495360Y3064959D01*
X1471368D01*
X1459372Y3052963D01*
Y3004978D01*
X1471368Y2992982D01*
X1495360D01*
X1507356Y3004978D01*
X1543344Y2992982D02*
X1567337D01*
X1579333Y3004978D01*
Y3028970D01*
X1567337Y3040966D01*
X1543344D01*
X1531348Y3028970D01*
Y3004978D01*
X1543344Y2992982D01*
X1603325Y3040966D02*
Y3004978D01*
X1615321Y2992982D01*
X1651310D01*
Y3040966D01*
X1675302Y2992982D02*
Y3040966D01*
X1711290D01*
X1723286Y3028970D01*
Y2992982D01*
X1759274Y3052963D02*
Y3040966D01*
X1747278D01*
X1771271D01*
X1759274D01*
Y3004978D01*
X1771271Y2992982D01*
X1001480Y3052963D02*
X989484Y3064959D01*
X965492D01*
X953496Y3052963D01*
Y3040966D01*
X965492Y3028970D01*
X989484D01*
X1001480Y3016974D01*
Y3004978D01*
X989484Y2992982D01*
X965492D01*
X953496Y3004978D01*
X1025473Y3040966D02*
Y3004978D01*
X1037469Y2992982D01*
X1073457D01*
Y2980986D01*
X1061461Y2968990D01*
X1049465D01*
X1073457Y2992982D02*
Y3040966D01*
X1097449Y2992982D02*
Y3040966D01*
X1109445D01*
X1121441Y3028970D01*
Y2992982D01*
Y3028970D01*
X1133438Y3040966D01*
X1145434Y3028970D01*
Y2992982D01*
X1169426Y3064959D02*
Y2992982D01*
X1205414D01*
X1217410Y3004978D01*
Y3016974D01*
Y3028970D01*
X1205414Y3040966D01*
X1169426D01*
X1253399Y2992982D02*
X1277391D01*
X1289387Y3004978D01*
Y3028970D01*
X1277391Y3040966D01*
X1253399D01*
X1241403Y3028970D01*
Y3004978D01*
X1253399Y2992982D01*
X1313379D02*
X1337372D01*
X1325376D01*
Y3064959D01*
X1313379D01*
D100*
X1986185Y1758014D02*
Y1698034D01*
Y1728024D01*
X2026172D01*
Y1758014D01*
Y1698034D01*
X2056163D02*
X2076156D01*
X2086153Y1708031D01*
Y1728024D01*
X2076156Y1738021D01*
X2056163D01*
X2046166Y1728024D01*
Y1708031D01*
X2056163Y1698034D01*
X2106146D02*
X2126140D01*
X2116143D01*
Y1758014D01*
X2106146D01*
X2186121Y1698034D02*
X2166127D01*
X2156130Y1708031D01*
Y1728024D01*
X2166127Y1738021D01*
X2186121D01*
X2196117Y1728024D01*
Y1718027D01*
X2156130D01*
X2276091Y1758014D02*
Y1698034D01*
X2316079D01*
X2366062D02*
X2346069D01*
X2336072Y1708031D01*
Y1728024D01*
X2346069Y1738021D01*
X2366062D01*
X2376059Y1728024D01*
Y1718027D01*
X2336072D01*
X2396053Y1698034D02*
Y1738021D01*
X2426043D01*
X2436040Y1728024D01*
Y1698034D01*
X2476027Y1678040D02*
X2486024D01*
X2496020Y1688037D01*
Y1738021D01*
X2466030D01*
X2456033Y1728024D01*
Y1708031D01*
X2466030Y1698034D01*
X2496020D01*
X2526011Y1748017D02*
Y1738021D01*
X2516014D01*
X2536007D01*
X2526011D01*
Y1708031D01*
X2536007Y1698034D01*
X2565998Y1758014D02*
Y1698034D01*
Y1728024D01*
X2575994Y1738021D01*
X2595988D01*
X2605985Y1728024D01*
Y1698034D01*
X1986185Y1798008D02*
Y1857988D01*
X2016176D01*
X2026172Y1847992D01*
Y1827998D01*
X2016176Y1818001D01*
X1986185D01*
X2006179D02*
X2026172Y1798008D01*
X2056163D02*
X2076156D01*
X2086153Y1808005D01*
Y1827998D01*
X2076156Y1837995D01*
X2056163D01*
X2046166Y1827998D01*
Y1808005D01*
X2056163Y1798008D01*
X2106146Y1837995D02*
Y1808005D01*
X2116143Y1798008D01*
X2146134D01*
Y1837995D01*
X2176124Y1847992D02*
Y1837995D01*
X2166127D01*
X2186121D01*
X2176124D01*
Y1808005D01*
X2186121Y1798008D01*
X2246101D02*
X2226108D01*
X2216111Y1808005D01*
Y1827998D01*
X2226108Y1837995D01*
X2246101D01*
X2256098Y1827998D01*
Y1818001D01*
X2216111D01*
X2316079Y1857988D02*
Y1798008D01*
X2286088D01*
X2276091Y1808005D01*
Y1827998D01*
X2286088Y1837995D01*
X2316079D01*
X2396053Y1798008D02*
Y1857988D01*
X2426043D01*
X2436040Y1847992D01*
Y1827998D01*
X2426043Y1818001D01*
X2396053D01*
X2466030Y1837995D02*
X2486024D01*
X2496020Y1827998D01*
Y1798008D01*
X2466030D01*
X2456033Y1808005D01*
X2466030Y1818001D01*
X2496020D01*
X2526011Y1847992D02*
Y1837995D01*
X2516014D01*
X2536007D01*
X2526011D01*
Y1808005D01*
X2536007Y1798008D01*
X2565998Y1857988D02*
Y1798008D01*
Y1827998D01*
X2575994Y1837995D01*
X2595988D01*
X2605985Y1827998D01*
Y1798008D01*
X2685959Y1857988D02*
Y1798008D01*
X2725946D01*
X2775930D02*
X2755936D01*
X2745939Y1808005D01*
Y1827998D01*
X2755936Y1837995D01*
X2775930D01*
X2785927Y1827998D01*
Y1818001D01*
X2745939D01*
X2805920Y1798008D02*
Y1837995D01*
X2835910D01*
X2845907Y1827998D01*
Y1798008D01*
X2885894Y1778014D02*
X2895891D01*
X2905888Y1788011D01*
Y1837995D01*
X2875898D01*
X2865901Y1827998D01*
Y1808005D01*
X2875898Y1798008D01*
X2905888D01*
X2935878Y1847992D02*
Y1837995D01*
X2925881D01*
X2945875D01*
X2935878D01*
Y1808005D01*
X2945875Y1798008D01*
X2975865Y1857988D02*
Y1798008D01*
Y1827998D01*
X2985862Y1837995D01*
X3005855D01*
X3015852Y1827998D01*
Y1798008D01*
X993483Y1847992D02*
X983486Y1857988D01*
X963493D01*
X953496Y1847992D01*
Y1837995D01*
X963493Y1827998D01*
X983486D01*
X993483Y1818001D01*
Y1808005D01*
X983486Y1798008D01*
X963493D01*
X953496Y1808005D01*
X1013476Y1798008D02*
X1033470D01*
X1023473D01*
Y1857988D01*
X1013476D01*
X1073457Y1798008D02*
X1093451D01*
X1103447Y1808005D01*
Y1827998D01*
X1093451Y1837995D01*
X1073457D01*
X1063460Y1827998D01*
Y1808005D01*
X1073457Y1798008D01*
X1133438Y1847992D02*
Y1837995D01*
X1123441D01*
X1143434D01*
X1133438D01*
Y1808005D01*
X1143434Y1798008D01*
X1273392Y1857988D02*
Y1798008D01*
X1243402D01*
X1233405Y1808005D01*
Y1827998D01*
X1243402Y1837995D01*
X1273392D01*
X1323376Y1798008D02*
X1303383D01*
X1293386Y1808005D01*
Y1827998D01*
X1303383Y1837995D01*
X1323376D01*
X1333373Y1827998D01*
Y1818001D01*
X1293386D01*
X1363363Y1798008D02*
Y1847992D01*
Y1827998D01*
X1353367D01*
X1373360D01*
X1363363D01*
Y1847992D01*
X1373360Y1857988D01*
X1403350Y1798008D02*
X1423344D01*
X1413347D01*
Y1837995D01*
X1403350D01*
X1453334Y1798008D02*
Y1837995D01*
X1483324D01*
X1493321Y1827998D01*
Y1798008D01*
X1513315D02*
X1533308D01*
X1523312D01*
Y1837995D01*
X1513315D01*
X1573295Y1847992D02*
Y1837995D01*
X1563299D01*
X1583292D01*
X1573295D01*
Y1808005D01*
X1583292Y1798008D01*
X1613282D02*
X1633276D01*
X1623279D01*
Y1837995D01*
X1613282D01*
X1673263Y1798008D02*
X1693256D01*
X1703253Y1808005D01*
Y1827998D01*
X1693256Y1837995D01*
X1673263D01*
X1663266Y1827998D01*
Y1808005D01*
X1673263Y1798008D01*
X1723247D02*
Y1837995D01*
X1753237D01*
X1763234Y1827998D01*
Y1798008D01*
X1783227D02*
X1813218D01*
X1823214Y1808005D01*
X1813218Y1818001D01*
X1793224D01*
X1783227Y1827998D01*
X1793224Y1837995D01*
X1823214D01*
X1903188D02*
X1913185D01*
Y1827998D01*
X1903188D01*
Y1837995D01*
Y1808005D02*
X1913185D01*
Y1798008D01*
X1903188D01*
Y1808005D01*
%TF.MD5,1cc8d646c2a90c75262a27b41b2f3b73*%
M02*
