%TF.GenerationSoftware,Altium Limited,Altium Designer,20.1.11 (218)*%
G04 Layer_Color=16711935*
%FSLAX26Y26*%
%MOIN*%
%TF.SameCoordinates,3C5C7FA7-1F59-4671-A418-6E2A2DAA0BFA*%
%TF.FilePolarity,Negative*%
%TF.FileFunction,Soldermask,Bot*%
%TF.Part,Single*%
G01*
G75*
%TA.AperFunction,ComponentPad*%
%ADD56C,0.067055*%
%ADD57R,0.067055X0.067055*%
%ADD58C,0.138000*%
G04:AMPARAMS|DCode=59|XSize=82.803mil|YSize=67.055mil|CornerRadius=18.764mil|HoleSize=0mil|Usage=FLASHONLY|Rotation=0.000|XOffset=0mil|YOffset=0mil|HoleType=Round|Shape=RoundedRectangle|*
%AMROUNDEDRECTD59*
21,1,0.082803,0.029527,0,0,0.0*
21,1,0.045276,0.067055,0,0,0.0*
1,1,0.037528,0.022638,-0.014764*
1,1,0.037528,-0.022638,-0.014764*
1,1,0.037528,-0.022638,0.014764*
1,1,0.037528,0.022638,0.014764*
%
%ADD59ROUNDEDRECTD59*%
%ADD60O,0.055244X0.043433*%
%TA.AperFunction,ViaPad*%
%ADD61C,0.032000*%
D56*
X1550000Y150000D02*
D03*
X1450000D02*
D03*
X1650000D02*
D03*
X750000Y850000D02*
D03*
X850000D02*
D03*
X950000D02*
D03*
X1150000D02*
D03*
X1250000D02*
D03*
X1050000D02*
D03*
X1650000D02*
D03*
X1750000D02*
D03*
X1350000D02*
D03*
X1550000D02*
D03*
X1450000D02*
D03*
X1250000Y50000D02*
D03*
X1150000D02*
D03*
X1350000D02*
D03*
X950000D02*
D03*
X850000D02*
D03*
X1050000D02*
D03*
X1650000D02*
D03*
X1450000D02*
D03*
X1550000D02*
D03*
X250000D02*
D03*
X350000D02*
D03*
X450000D02*
D03*
X550000D02*
D03*
X750000D02*
D03*
X650000D02*
D03*
D57*
X1750000Y150000D02*
D03*
X650000Y850000D02*
D03*
X1750000Y50000D02*
D03*
D58*
X1885847Y548048D02*
D03*
X1210847Y158048D02*
D03*
X100000Y800000D02*
D03*
X1900000Y100000D02*
D03*
Y800000D02*
D03*
X100000Y100000D02*
D03*
D59*
Y285630D02*
D03*
Y614370D02*
D03*
D60*
X218110Y362402D02*
D03*
Y537598D02*
D03*
D61*
X1012000Y144000D02*
D03*
%TF.MD5,ce69ec95fc8a918464778a9fdc3fd96e*%
M02*
