%TF.GenerationSoftware,Altium Limited,Altium Designer,20.1.11 (218)*%
G04 Layer_Color=255*
%FSLAX26Y26*%
%MOIN*%
%TF.SameCoordinates,3C5C7FA7-1F59-4671-A418-6E2A2DAA0BFA*%
%TF.FilePolarity,Positive*%
%TF.FileFunction,Pads,Bot*%
%TF.Part,Single*%
G01*
G75*
%TA.AperFunction,ComponentPad*%
%ADD44C,0.059055*%
%ADD45R,0.059055X0.059055*%
%ADD46C,0.130000*%
G04:AMPARAMS|DCode=47|XSize=74.803mil|YSize=59.055mil|CornerRadius=14.764mil|HoleSize=0mil|Usage=FLASHONLY|Rotation=0.000|XOffset=0mil|YOffset=0mil|HoleType=Round|Shape=RoundedRectangle|*
%AMROUNDEDRECTD47*
21,1,0.074803,0.029527,0,0,0.0*
21,1,0.045276,0.059055,0,0,0.0*
1,1,0.029528,0.022638,-0.014764*
1,1,0.029528,-0.022638,-0.014764*
1,1,0.029528,-0.022638,0.014764*
1,1,0.029528,0.022638,0.014764*
%
%ADD47ROUNDEDRECTD47*%
%ADD48O,0.047244X0.035433*%
D44*
X1550000Y150000D02*
D03*
X1450000D02*
D03*
X1650000D02*
D03*
X750000Y850000D02*
D03*
X850000D02*
D03*
X950000D02*
D03*
X1150000D02*
D03*
X1250000D02*
D03*
X1050000D02*
D03*
X1650000D02*
D03*
X1750000D02*
D03*
X1350000D02*
D03*
X1550000D02*
D03*
X1450000D02*
D03*
X1250000Y50000D02*
D03*
X1150000D02*
D03*
X1350000D02*
D03*
X950000D02*
D03*
X850000D02*
D03*
X1050000D02*
D03*
X1650000D02*
D03*
X1450000D02*
D03*
X1550000D02*
D03*
X250000D02*
D03*
X350000D02*
D03*
X450000D02*
D03*
X550000D02*
D03*
X750000D02*
D03*
X650000D02*
D03*
D45*
X1750000Y150000D02*
D03*
X650000Y850000D02*
D03*
X1750000Y50000D02*
D03*
D46*
X1885847Y548048D02*
D03*
X1210847Y158048D02*
D03*
X100000Y800000D02*
D03*
X1900000Y100000D02*
D03*
Y800000D02*
D03*
X100000Y100000D02*
D03*
D47*
Y285630D02*
D03*
Y614370D02*
D03*
D48*
X218110Y362402D02*
D03*
Y537598D02*
D03*
%TF.MD5,3449070be160d565b02226c3ff54fbdb*%
M02*
