%TF.GenerationSoftware,Altium Limited,Altium Designer,20.1.11 (218)*%
G04 Layer_Physical_Order=2*
G04 Layer_Color=16711680*
%FSLAX26Y26*%
%MOIN*%
%TF.SameCoordinates,3C5C7FA7-1F59-4671-A418-6E2A2DAA0BFA*%
%TF.FilePolarity,Positive*%
%TF.FileFunction,Copper,L2,Bot,Signal*%
%TF.Part,Single*%
G01*
G75*
%TA.AperFunction,Conductor*%
%ADD11C,0.006000*%
%ADD38C,0.020000*%
%ADD39C,0.015000*%
%ADD40C,0.010000*%
%TA.AperFunction,ComponentPad*%
%ADD44C,0.059055*%
%ADD45R,0.059055X0.059055*%
%ADD46C,0.130000*%
G04:AMPARAMS|DCode=47|XSize=74.803mil|YSize=59.055mil|CornerRadius=14.764mil|HoleSize=0mil|Usage=FLASHONLY|Rotation=0.000|XOffset=0mil|YOffset=0mil|HoleType=Round|Shape=RoundedRectangle|*
%AMROUNDEDRECTD47*
21,1,0.074803,0.029527,0,0,0.0*
21,1,0.045276,0.059055,0,0,0.0*
1,1,0.029528,0.022638,-0.014764*
1,1,0.029528,-0.022638,-0.014764*
1,1,0.029528,-0.022638,0.014764*
1,1,0.029528,0.022638,0.014764*
%
%ADD47ROUNDEDRECTD47*%
%ADD48O,0.047244X0.035433*%
%TA.AperFunction,ViaPad*%
%ADD49C,0.024000*%
%TA.AperFunction,Conductor*%
%ADD50R,0.074781X0.101000*%
%TA.AperFunction,ViaPad*%
%ADD51C,0.023622*%
G36*
X1896781Y892229D02*
X1900000Y891588D01*
X1904845Y891214D01*
X1917888Y889930D01*
X1935089Y884712D01*
X1950941Y876239D01*
X1964836Y864836D01*
X1976239Y850941D01*
X1984712Y835089D01*
X1989930Y817888D01*
X1991214Y804845D01*
X1991588Y800000D01*
X1992228Y796781D01*
X1993628Y794687D01*
Y105313D01*
X1992228Y103219D01*
X1991588Y100000D01*
X1991214Y95155D01*
X1989930Y82112D01*
X1984712Y64911D01*
X1976239Y49059D01*
X1964836Y35164D01*
X1950941Y23761D01*
X1935089Y15288D01*
X1917888Y10070D01*
X1904845Y8786D01*
X1900000Y8412D01*
X1896781Y7771D01*
X1894687Y6372D01*
X105313D01*
X103219Y7771D01*
X100000Y8412D01*
X95155Y8786D01*
X82112Y10070D01*
X64911Y15288D01*
X49059Y23761D01*
X35164Y35164D01*
X23761Y49059D01*
X15288Y64911D01*
X10070Y82112D01*
X8786Y95155D01*
X8412Y100000D01*
X7771Y103219D01*
X6372Y105313D01*
Y267360D01*
X24506Y285494D01*
X24506Y285494D01*
X25887Y287561D01*
X26372Y290000D01*
X26372Y290000D01*
Y610000D01*
X26372Y610000D01*
X25887Y612439D01*
X24506Y614506D01*
X24506Y614506D01*
X6372Y632640D01*
Y794687D01*
X7771Y796781D01*
X8412Y800000D01*
X8786Y804845D01*
X10070Y817888D01*
X15288Y835089D01*
X23761Y850941D01*
X35164Y864836D01*
X49059Y876239D01*
X64911Y884712D01*
X82112Y889930D01*
X95155Y891214D01*
X100000Y891588D01*
X103219Y892229D01*
X105313Y893628D01*
X1894687D01*
X1896781Y892229D01*
D02*
G37*
%LPC*%
G36*
X687528Y887528D02*
X612472D01*
Y812472D01*
X687528D01*
Y887528D01*
D02*
G37*
G36*
X1750000Y887851D02*
X1740203Y886562D01*
X1731074Y882780D01*
X1723235Y876765D01*
X1717220Y868926D01*
X1713438Y859797D01*
X1712149Y850000D01*
X1713438Y840203D01*
X1717220Y831074D01*
X1717601Y830578D01*
X1630199Y743176D01*
X1567000D01*
Y754023D01*
X1630578Y817601D01*
X1631074Y817220D01*
X1640203Y813438D01*
X1650000Y812149D01*
X1659797Y813438D01*
X1668926Y817220D01*
X1676765Y823235D01*
X1682780Y831074D01*
X1686562Y840203D01*
X1687851Y850000D01*
X1686562Y859797D01*
X1682780Y868926D01*
X1676765Y876765D01*
X1668926Y882780D01*
X1659797Y886562D01*
X1650000Y887851D01*
X1640203Y886562D01*
X1631074Y882780D01*
X1623235Y876765D01*
X1617220Y868926D01*
X1613438Y859797D01*
X1612149Y850000D01*
X1613438Y840203D01*
X1617220Y831074D01*
X1617601Y830578D01*
X1554199Y767176D01*
X1492000D01*
Y779023D01*
X1530578Y817601D01*
X1531074Y817220D01*
X1540203Y813438D01*
X1550000Y812149D01*
X1559797Y813438D01*
X1568926Y817220D01*
X1576765Y823235D01*
X1582780Y831074D01*
X1586562Y840203D01*
X1587851Y850000D01*
X1586562Y859797D01*
X1582780Y868926D01*
X1576765Y876765D01*
X1568926Y882780D01*
X1559797Y886562D01*
X1550000Y887851D01*
X1540203Y886562D01*
X1531074Y882780D01*
X1523235Y876765D01*
X1517220Y868926D01*
X1513438Y859797D01*
X1512149Y850000D01*
X1513438Y840203D01*
X1517220Y831074D01*
X1517601Y830578D01*
X1479199Y792176D01*
X1421000D01*
X1419000Y792177D01*
Y801962D01*
X1419606Y806629D01*
X1430578Y817601D01*
X1431074Y817220D01*
X1440203Y813438D01*
X1450000Y812149D01*
X1459797Y813438D01*
X1468926Y817220D01*
X1476765Y823235D01*
X1482780Y831074D01*
X1486562Y840203D01*
X1487851Y850000D01*
X1486562Y859797D01*
X1482780Y868926D01*
X1476765Y876765D01*
X1468926Y882780D01*
X1459797Y886562D01*
X1450000Y887851D01*
X1440203Y886562D01*
X1431074Y882780D01*
X1423235Y876765D01*
X1417220Y868926D01*
X1413438Y859797D01*
X1412149Y850000D01*
X1413000Y843534D01*
Y825977D01*
X1407199Y820176D01*
X1386000D01*
Y838848D01*
X1386562Y840203D01*
X1387851Y850000D01*
X1386562Y859797D01*
X1382780Y868926D01*
X1376765Y876765D01*
X1368926Y882780D01*
X1359797Y886562D01*
X1350000Y887851D01*
X1340203Y886562D01*
X1331074Y882780D01*
X1323235Y876765D01*
X1317220Y868926D01*
X1313438Y859797D01*
X1312149Y850000D01*
X1313438Y840203D01*
X1316165Y833622D01*
X1312568Y829240D01*
X1312000Y829353D01*
X1304977Y827956D01*
X1299023Y823977D01*
X1295044Y818023D01*
X1293647Y811000D01*
X1295044Y803977D01*
X1297834Y799802D01*
X1296101Y794735D01*
X1295852Y794454D01*
X1294163Y794203D01*
X1292977Y795977D01*
X1287023Y799956D01*
X1280000Y801353D01*
X1272977Y799956D01*
X1267023Y795977D01*
X1263044Y790023D01*
X1261647Y783000D01*
X1263044Y775977D01*
X1265584Y772176D01*
X1262968Y767176D01*
X1212517D01*
X1209977Y770977D01*
X1204023Y774956D01*
X1197000Y776353D01*
X1189977Y774956D01*
X1184023Y770977D01*
X1180044Y765023D01*
X1178647Y758000D01*
X1180044Y750977D01*
X1184023Y745023D01*
X1189000Y741697D01*
Y714764D01*
X1075001D01*
X1075000Y714765D01*
X1069733Y713717D01*
X1065267Y710733D01*
X1065267Y710733D01*
X1022076Y667542D01*
X1019092Y663077D01*
X1018045Y657809D01*
Y394510D01*
X896610Y273076D01*
X890977Y271956D01*
X885023Y267977D01*
X881044Y262023D01*
X879647Y255000D01*
X881044Y247977D01*
X885023Y242023D01*
X890977Y238044D01*
X898000Y236647D01*
X905023Y238044D01*
X906453Y239000D01*
X946897D01*
X948627Y237844D01*
X955650Y236447D01*
X962673Y237844D01*
X968627Y241823D01*
X972606Y247777D01*
X973726Y253410D01*
X1075568Y355252D01*
X1075568Y355252D01*
X1078552Y359717D01*
X1079599Y364985D01*
Y603000D01*
X1108794D01*
X1135283Y576511D01*
X1138259Y574522D01*
X1141771Y573824D01*
X1178974D01*
X1181331Y569414D01*
X1180780Y568589D01*
X1179383Y561566D01*
X1180780Y554543D01*
X1184758Y548589D01*
X1190712Y544611D01*
X1197735Y543214D01*
X1197959Y543258D01*
X1201824Y540086D01*
Y347517D01*
X1198023Y344977D01*
X1194044Y339023D01*
X1192647Y332000D01*
X1194044Y324977D01*
X1198023Y319023D01*
X1198357Y318800D01*
X1198847Y313824D01*
X1090712Y205689D01*
X1088723Y202712D01*
X1088024Y199200D01*
Y118001D01*
X1069199Y99176D01*
X973000D01*
Y112420D01*
X973513Y115000D01*
X972116Y122023D01*
X968138Y127977D01*
X962184Y131956D01*
X955161Y133353D01*
X949000Y132127D01*
X945066Y134189D01*
X944000Y134963D01*
Y141645D01*
X1011590Y209236D01*
X1055201D01*
X1059977Y206044D01*
X1067000Y204647D01*
X1074023Y206044D01*
X1079977Y210023D01*
X1083956Y215977D01*
X1085353Y223000D01*
X1083956Y230023D01*
X1079977Y235977D01*
X1074023Y239956D01*
X1067000Y241353D01*
X1059977Y239956D01*
X1055201Y236764D01*
X1005889D01*
X1005889Y236765D01*
X1000621Y235717D01*
X996156Y232733D01*
X920187Y156764D01*
X852549D01*
X847773Y159956D01*
X842140Y161076D01*
X810789Y192427D01*
Y297201D01*
X813981Y301977D01*
X815378Y309000D01*
X813981Y316023D01*
X810002Y321977D01*
X804048Y325956D01*
X800430Y326675D01*
X800922Y331675D01*
X805718D01*
X810986Y332723D01*
X815451Y335707D01*
X832499Y352755D01*
X838132Y353875D01*
X844086Y357853D01*
X848065Y363808D01*
X849462Y370831D01*
X848065Y377854D01*
X848000Y377951D01*
Y394575D01*
X848732Y395064D01*
X897870Y444202D01*
X936469D01*
X939009Y440401D01*
X944963Y436423D01*
X951986Y435026D01*
X959009Y436423D01*
X964963Y440401D01*
X968942Y446355D01*
X970338Y453378D01*
X968942Y460401D01*
X964963Y466355D01*
Y470401D01*
X968942Y476355D01*
X970338Y483378D01*
X968942Y490401D01*
X964963Y496355D01*
X959009Y500334D01*
X951986Y501731D01*
X944963Y500334D01*
X939009Y496355D01*
X936469Y492555D01*
X895906D01*
X892394Y491856D01*
X889417Y489867D01*
X855135Y455585D01*
X849710Y457231D01*
X848956Y461023D01*
X844977Y466977D01*
X839023Y470956D01*
X832000Y472353D01*
X827516Y471461D01*
X733448Y565529D01*
Y579755D01*
X737249Y582295D01*
X741228Y588249D01*
X742625Y595272D01*
X741228Y602295D01*
X737249Y608249D01*
X731295Y612228D01*
X724272Y613625D01*
X717249Y612228D01*
X711295Y608249D01*
X707317Y602295D01*
X705920Y595272D01*
X707317Y588249D01*
X711295Y582295D01*
X715096Y579755D01*
Y561728D01*
X715794Y558216D01*
X717784Y555239D01*
X814539Y458484D01*
X813647Y454000D01*
X815044Y446977D01*
X819023Y441023D01*
X820180Y440249D01*
Y440057D01*
X819582Y434635D01*
X816202Y429576D01*
X814805Y422553D01*
X816202Y415530D01*
X816867Y414535D01*
X815487Y408418D01*
X814925Y408042D01*
X808056Y401173D01*
X803070Y404505D01*
X796047Y405902D01*
X789024Y404505D01*
X783070Y400526D01*
X779091Y394572D01*
X777694Y387549D01*
X779091Y380526D01*
X783070Y374572D01*
X789024Y370594D01*
X796047Y369197D01*
X797000Y368414D01*
Y359204D01*
X686693D01*
Y461701D01*
X713201D01*
X717977Y458510D01*
X725000Y457113D01*
X732023Y458510D01*
X737977Y462489D01*
X741956Y468443D01*
X743353Y475466D01*
X741956Y482489D01*
X737977Y488443D01*
X732023Y492421D01*
X725000Y493818D01*
X717977Y492421D01*
X713201Y489230D01*
X686693D01*
Y592622D01*
X720307Y626236D01*
X789258D01*
Y600832D01*
X786044Y596023D01*
X784647Y589000D01*
X786044Y581977D01*
X790023Y576023D01*
X795977Y572044D01*
X803000Y570647D01*
X810023Y572044D01*
X815977Y576023D01*
X819956Y581977D01*
X821353Y589000D01*
X819956Y596023D01*
X816787Y600766D01*
Y626236D01*
X842253D01*
X848496Y627478D01*
X853789Y631014D01*
X948981Y726206D01*
X950114Y726431D01*
X956068Y730410D01*
X960047Y736364D01*
X961444Y743387D01*
X960047Y750410D01*
X956068Y756364D01*
X950114Y760343D01*
X943091Y761740D01*
X936068Y760343D01*
X930114Y756364D01*
X926135Y750410D01*
X925910Y749277D01*
X835496Y658863D01*
X713549D01*
X707307Y657621D01*
X702014Y654085D01*
X658844Y610915D01*
X655308Y605622D01*
X654066Y599379D01*
Y475466D01*
Y424485D01*
X650698Y420932D01*
X649066Y420196D01*
X601313D01*
Y578243D01*
X776535Y753464D01*
X776535Y753465D01*
X837591Y814520D01*
X840203Y813438D01*
X850000Y812149D01*
X859797Y813438D01*
X868926Y817220D01*
X876765Y823235D01*
X882780Y831074D01*
X886562Y840203D01*
X887851Y850000D01*
X886562Y859797D01*
X882780Y868926D01*
X876765Y876765D01*
X868926Y882780D01*
X859797Y886562D01*
X850000Y887851D01*
X840203Y886562D01*
X831074Y882780D01*
X823235Y876765D01*
X817220Y868926D01*
X813438Y859797D01*
X812149Y850000D01*
X813438Y840203D01*
X814520Y837591D01*
X753465Y776536D01*
X753465Y776535D01*
X573465Y596535D01*
X569928Y591243D01*
X568687Y585000D01*
Y420196D01*
X409223Y420196D01*
X405196Y424223D01*
X405196Y512000D01*
X404420Y515902D01*
X402209Y519210D01*
X398902Y521420D01*
X395000Y522196D01*
X282500D01*
X278598Y521420D01*
X275290Y519210D01*
X273080Y515902D01*
X272304Y512000D01*
Y402500D01*
X273080Y398598D01*
X275290Y395291D01*
X312790Y357790D01*
X316098Y355580D01*
X320000Y354804D01*
X650000D01*
X654066Y350515D01*
Y231196D01*
X610000D01*
X606098Y230420D01*
X602790Y228210D01*
X600580Y224902D01*
X599804Y221000D01*
Y120000D01*
X600580Y116098D01*
X602790Y112790D01*
X606098Y110580D01*
X610000Y109804D01*
X684781D01*
X688683Y110580D01*
X691991Y112790D01*
X694201Y116098D01*
X694977Y120000D01*
Y122115D01*
X784814D01*
X801000Y105929D01*
Y99176D01*
X555901D01*
X531647Y123431D01*
X532538Y127915D01*
X531141Y134938D01*
X527163Y140892D01*
X521209Y144870D01*
X514186Y146267D01*
X507163Y144870D01*
X501209Y140892D01*
X497230Y134938D01*
X495833Y127915D01*
X497230Y120891D01*
X501209Y114938D01*
X507163Y110959D01*
X514186Y109562D01*
X518669Y110454D01*
X538044Y91079D01*
X536871Y85181D01*
X531074Y82780D01*
X523235Y76765D01*
X517220Y68926D01*
X513438Y59797D01*
X512675Y54000D01*
X550000D01*
X587325D01*
X586562Y59797D01*
X582780Y68926D01*
X577487Y75824D01*
X578974Y80824D01*
X621026D01*
X622513Y75824D01*
X617220Y68926D01*
X613438Y59797D01*
X612149Y50000D01*
X613438Y40203D01*
X617220Y31074D01*
X623235Y23235D01*
X631074Y17220D01*
X640203Y13438D01*
X650000Y12149D01*
X659797Y13438D01*
X668926Y17220D01*
X676765Y23235D01*
X682780Y31074D01*
X686562Y40203D01*
X687851Y50000D01*
X686562Y59797D01*
X682780Y68926D01*
X677487Y75824D01*
X678974Y80824D01*
X721026D01*
X722513Y75824D01*
X717220Y68926D01*
X713438Y59797D01*
X712149Y50000D01*
X713438Y40203D01*
X717220Y31074D01*
X723235Y23235D01*
X731074Y17220D01*
X740203Y13438D01*
X750000Y12149D01*
X759797Y13438D01*
X768926Y17220D01*
X776765Y23235D01*
X782780Y31074D01*
X786562Y40203D01*
X787851Y50000D01*
X786562Y59797D01*
X782780Y68926D01*
X777487Y75824D01*
X778974Y80824D01*
X821026D01*
X822513Y75824D01*
X817220Y68926D01*
X813438Y59797D01*
X812149Y50000D01*
X813438Y40203D01*
X817220Y31074D01*
X823235Y23235D01*
X831074Y17220D01*
X840203Y13438D01*
X850000Y12149D01*
X859797Y13438D01*
X868926Y17220D01*
X876765Y23235D01*
X882780Y31074D01*
X886562Y40203D01*
X887851Y50000D01*
X886562Y59797D01*
X882780Y68926D01*
X877487Y75824D01*
X878974Y80824D01*
X921026D01*
X922513Y75824D01*
X917220Y68926D01*
X913438Y59797D01*
X912149Y50000D01*
X913438Y40203D01*
X917220Y31074D01*
X923235Y23235D01*
X931074Y17220D01*
X940203Y13438D01*
X950000Y12149D01*
X959797Y13438D01*
X968926Y17220D01*
X976765Y23235D01*
X982780Y31074D01*
X986562Y40203D01*
X987851Y50000D01*
X986562Y59797D01*
X982780Y68926D01*
X977487Y75824D01*
X978974Y80824D01*
X1021026D01*
X1022513Y75824D01*
X1017220Y68926D01*
X1013438Y59797D01*
X1012149Y50000D01*
X1013438Y40203D01*
X1017220Y31074D01*
X1023235Y23235D01*
X1031074Y17220D01*
X1040203Y13438D01*
X1050000Y12149D01*
X1059797Y13438D01*
X1068926Y17220D01*
X1076765Y23235D01*
X1082780Y31074D01*
X1086562Y40203D01*
X1087851Y50000D01*
X1086562Y59797D01*
X1082780Y68926D01*
X1082399Y69422D01*
X1103977Y91000D01*
X1113839D01*
Y76985D01*
X1114537Y73474D01*
X1116526Y70497D01*
X1117601Y69422D01*
X1117220Y68926D01*
X1113438Y59797D01*
X1112149Y50000D01*
X1113438Y40203D01*
X1117220Y31074D01*
X1123235Y23235D01*
X1131074Y17220D01*
X1140203Y13438D01*
X1150000Y12149D01*
X1159797Y13438D01*
X1168926Y17220D01*
X1176765Y23235D01*
X1182780Y31074D01*
X1186562Y40203D01*
X1187851Y50000D01*
X1186562Y59797D01*
X1182780Y68926D01*
X1176765Y76765D01*
X1168926Y82780D01*
X1159797Y86561D01*
X1150000Y87851D01*
X1140203Y86561D01*
X1136349Y84965D01*
X1132191Y87743D01*
Y124000D01*
X1146273D01*
X1149856Y117296D01*
X1158979Y106180D01*
X1170094Y97057D01*
X1182776Y90279D01*
X1196537Y86105D01*
X1210847Y84695D01*
X1214295Y85035D01*
X1218000Y81677D01*
Y69942D01*
X1217220Y68926D01*
X1213438Y59797D01*
X1212149Y50000D01*
X1213438Y40203D01*
X1217220Y31074D01*
X1223235Y23235D01*
X1231074Y17220D01*
X1240203Y13438D01*
X1250000Y12149D01*
X1259797Y13438D01*
X1268926Y17220D01*
X1276765Y23235D01*
X1282780Y31074D01*
X1286562Y40203D01*
X1287851Y50000D01*
X1286562Y59797D01*
X1282780Y68926D01*
X1282399Y69422D01*
X1341977Y129000D01*
X1358023D01*
X1417601Y69422D01*
X1417220Y68926D01*
X1413438Y59797D01*
X1412149Y50000D01*
X1413438Y40203D01*
X1417220Y31074D01*
X1423235Y23235D01*
X1431074Y17220D01*
X1440203Y13438D01*
X1450000Y12149D01*
X1459797Y13438D01*
X1468926Y17220D01*
X1476765Y23235D01*
X1482780Y31074D01*
X1486562Y40203D01*
X1487851Y50000D01*
X1486562Y59797D01*
X1483000Y68395D01*
Y82824D01*
X1504199D01*
X1514000Y73023D01*
Y61152D01*
X1513438Y59797D01*
X1512149Y50000D01*
X1513438Y40203D01*
X1517220Y31074D01*
X1523235Y23235D01*
X1531074Y17220D01*
X1540203Y13438D01*
X1550000Y12149D01*
X1559797Y13438D01*
X1568926Y17220D01*
X1576765Y23235D01*
X1582780Y31074D01*
X1586562Y40203D01*
X1587851Y50000D01*
X1586562Y59797D01*
X1582780Y68926D01*
X1576765Y76765D01*
X1570000Y81956D01*
Y94824D01*
X1592199D01*
X1617601Y69422D01*
X1617220Y68926D01*
X1613438Y59797D01*
X1612149Y50000D01*
X1613438Y40203D01*
X1617220Y31074D01*
X1623235Y23235D01*
X1631074Y17220D01*
X1640203Y13438D01*
X1650000Y12149D01*
X1659797Y13438D01*
X1668926Y17220D01*
X1676765Y23235D01*
X1682780Y31074D01*
X1686562Y40203D01*
X1687851Y50000D01*
X1686562Y59797D01*
X1682780Y68926D01*
X1676765Y76765D01*
X1668926Y82780D01*
X1659797Y86561D01*
X1650000Y87851D01*
X1640203Y86561D01*
X1631074Y82780D01*
X1630578Y82399D01*
X1602489Y110489D01*
X1599512Y112478D01*
X1596000Y113176D01*
X1575000D01*
Y121881D01*
X1576765Y123235D01*
X1582780Y131074D01*
X1586562Y140203D01*
X1587851Y150000D01*
X1586562Y159797D01*
X1582780Y168926D01*
X1576765Y176765D01*
X1568926Y182780D01*
X1566313Y183862D01*
Y314159D01*
X1565072Y320402D01*
X1561535Y325694D01*
X1510929Y376300D01*
X1510704Y377434D01*
X1506726Y383388D01*
X1500772Y387366D01*
X1493748Y388763D01*
X1486725Y387366D01*
X1480771Y383388D01*
X1476793Y377434D01*
X1475396Y370411D01*
X1476793Y363387D01*
X1480771Y357433D01*
X1486725Y353455D01*
X1487859Y353229D01*
X1533687Y307402D01*
Y183862D01*
X1531074Y182780D01*
X1523235Y176765D01*
X1517220Y168926D01*
X1513438Y159797D01*
X1512149Y150000D01*
X1513438Y140203D01*
X1517220Y131074D01*
X1523235Y123235D01*
X1525000Y121881D01*
Y113176D01*
X1475000D01*
Y121881D01*
X1476765Y123235D01*
X1482780Y131074D01*
X1486562Y140203D01*
X1487325Y146000D01*
X1450000D01*
Y150000D01*
X1446000D01*
Y187325D01*
X1440203Y186561D01*
X1431074Y182780D01*
X1423235Y176765D01*
X1417220Y168926D01*
X1413438Y159797D01*
X1412149Y150000D01*
X1412180Y149759D01*
X1408884Y146000D01*
X1400977D01*
X1381176Y165801D01*
Y547000D01*
X1380478Y550512D01*
X1378489Y553489D01*
X1308000Y623977D01*
Y650236D01*
X1345118D01*
X1422416Y572937D01*
X1423537Y567304D01*
X1427515Y561350D01*
X1433469Y557372D01*
X1440492Y555975D01*
X1447515Y557372D01*
X1453469Y561350D01*
X1457448Y567304D01*
X1458845Y574327D01*
X1460218Y576000D01*
X1475344D01*
X1480236Y571108D01*
Y535753D01*
X1477044Y530977D01*
X1475647Y523954D01*
X1477044Y516931D01*
X1481023Y510977D01*
X1486977Y506998D01*
X1494000Y505601D01*
X1501023Y506998D01*
X1506977Y510977D01*
X1510956Y516931D01*
X1512353Y523954D01*
X1510956Y530977D01*
X1507764Y535753D01*
Y576810D01*
X1506717Y582077D01*
X1503733Y586543D01*
X1503733Y586543D01*
X1380000Y710276D01*
Y724824D01*
X1634000D01*
X1637512Y725522D01*
X1640489Y727511D01*
X1730578Y817601D01*
X1731074Y817220D01*
X1740203Y813438D01*
X1750000Y812149D01*
X1759797Y813438D01*
X1768926Y817220D01*
X1776765Y823235D01*
X1782780Y831074D01*
X1786562Y840203D01*
X1787851Y850000D01*
X1786562Y859797D01*
X1782780Y868926D01*
X1776765Y876765D01*
X1768926Y882780D01*
X1759797Y886562D01*
X1750000Y887851D01*
D02*
G37*
G36*
X1250000D02*
X1240203Y886562D01*
X1231074Y882780D01*
X1223235Y876765D01*
X1217220Y868926D01*
X1213438Y859797D01*
X1212149Y850000D01*
X1213438Y840203D01*
X1217220Y831074D01*
X1223235Y823235D01*
X1231074Y817220D01*
X1240203Y813438D01*
X1250000Y812149D01*
X1259797Y813438D01*
X1268926Y817220D01*
X1276765Y823235D01*
X1282780Y831074D01*
X1286562Y840203D01*
X1287851Y850000D01*
X1286562Y859797D01*
X1282780Y868926D01*
X1276765Y876765D01*
X1268926Y882780D01*
X1259797Y886562D01*
X1250000Y887851D01*
D02*
G37*
G36*
X1150000D02*
X1140203Y886562D01*
X1131074Y882780D01*
X1123235Y876765D01*
X1117220Y868926D01*
X1113438Y859797D01*
X1112149Y850000D01*
X1113438Y840203D01*
X1117220Y831074D01*
X1117601Y830578D01*
X1073870Y786847D01*
X1018851D01*
X1016311Y790648D01*
X1010357Y794626D01*
X1003334Y796023D01*
X996311Y794626D01*
X990356Y790648D01*
X986378Y784694D01*
X984981Y777671D01*
X986378Y770648D01*
X990356Y764694D01*
X996311Y760715D01*
X1003334Y759318D01*
X1010357Y760715D01*
X1016311Y764694D01*
X1018851Y768495D01*
X1077671D01*
X1081182Y769193D01*
X1084159Y771182D01*
X1130578Y817601D01*
X1131074Y817220D01*
X1140203Y813438D01*
X1150000Y812149D01*
X1159797Y813438D01*
X1168926Y817220D01*
X1176765Y823235D01*
X1182780Y831074D01*
X1186562Y840203D01*
X1187851Y850000D01*
X1186562Y859797D01*
X1182780Y868926D01*
X1176765Y876765D01*
X1168926Y882780D01*
X1159797Y886562D01*
X1150000Y887851D01*
D02*
G37*
G36*
X1050000D02*
X1040203Y886562D01*
X1031074Y882780D01*
X1023235Y876765D01*
X1017220Y868926D01*
X1013438Y859797D01*
X1012149Y850000D01*
X1013438Y840203D01*
X1017220Y831074D01*
X1023235Y823235D01*
X1031074Y817220D01*
X1040203Y813438D01*
X1050000Y812149D01*
X1059797Y813438D01*
X1068926Y817220D01*
X1076765Y823235D01*
X1082780Y831074D01*
X1086562Y840203D01*
X1087851Y850000D01*
X1086562Y859797D01*
X1082780Y868926D01*
X1076765Y876765D01*
X1068926Y882780D01*
X1059797Y886562D01*
X1050000Y887851D01*
D02*
G37*
G36*
X950000D02*
X940203Y886562D01*
X931074Y882780D01*
X923235Y876765D01*
X917220Y868926D01*
X913438Y859797D01*
X912149Y850000D01*
X913438Y840203D01*
X917220Y831074D01*
X923235Y823235D01*
X931074Y817220D01*
X940203Y813438D01*
X950000Y812149D01*
X959797Y813438D01*
X968926Y817220D01*
X976765Y823235D01*
X982780Y831074D01*
X986562Y840203D01*
X987851Y850000D01*
X986562Y859797D01*
X982780Y868926D01*
X976765Y876765D01*
X968926Y882780D01*
X959797Y886562D01*
X950000Y887851D01*
D02*
G37*
G36*
X750000D02*
X740203Y886562D01*
X731074Y882780D01*
X723235Y876765D01*
X717220Y868926D01*
X713438Y859797D01*
X712149Y850000D01*
X713438Y840203D01*
X717220Y831074D01*
X723235Y823235D01*
X731074Y817220D01*
X740203Y813438D01*
X750000Y812149D01*
X759797Y813438D01*
X768926Y817220D01*
X776765Y823235D01*
X782780Y831074D01*
X786562Y840203D01*
X787851Y850000D01*
X786562Y859797D01*
X782780Y868926D01*
X776765Y876765D01*
X768926Y882780D01*
X759797Y886562D01*
X750000Y887851D01*
D02*
G37*
G36*
X1904000Y872959D02*
Y804000D01*
X1972959D01*
X1971944Y814311D01*
X1967770Y828071D01*
X1960991Y840753D01*
X1951869Y851869D01*
X1940753Y860991D01*
X1928071Y867769D01*
X1914311Y871944D01*
X1904000Y872959D01*
D02*
G37*
G36*
X104000D02*
Y804000D01*
X172959D01*
X171944Y814311D01*
X167769Y828071D01*
X160991Y840753D01*
X151869Y851869D01*
X140753Y860991D01*
X128071Y867769D01*
X114311Y871944D01*
X104000Y872959D01*
D02*
G37*
G36*
X1896000D02*
X1885689Y871944D01*
X1871929Y867769D01*
X1859247Y860991D01*
X1848131Y851869D01*
X1839009Y840753D01*
X1832230Y828071D01*
X1828056Y814311D01*
X1827041Y804000D01*
X1896000D01*
Y872959D01*
D02*
G37*
G36*
X96000D02*
X85689Y871944D01*
X71929Y867769D01*
X59247Y860991D01*
X48132Y851869D01*
X39009Y840753D01*
X32230Y828071D01*
X28056Y814311D01*
X27041Y804000D01*
X96000D01*
Y872959D01*
D02*
G37*
G36*
X1972959Y796000D02*
X1904000D01*
Y727041D01*
X1914311Y728056D01*
X1928071Y732231D01*
X1940753Y739009D01*
X1951869Y748131D01*
X1960991Y759247D01*
X1967770Y771929D01*
X1971944Y785689D01*
X1972959Y796000D01*
D02*
G37*
G36*
X172959D02*
X104000D01*
Y727041D01*
X114311Y728056D01*
X128071Y732231D01*
X140753Y739009D01*
X151869Y748131D01*
X160991Y759247D01*
X167769Y771929D01*
X171944Y785689D01*
X172959Y796000D01*
D02*
G37*
G36*
X96000D02*
X27041D01*
X28056Y785689D01*
X32230Y771929D01*
X39009Y759247D01*
X48132Y748131D01*
X59247Y739009D01*
X71929Y732231D01*
X85689Y728056D01*
X96000Y727041D01*
Y796000D01*
D02*
G37*
G36*
X1896000D02*
X1827041D01*
X1828056Y785689D01*
X1832230Y771929D01*
X1839009Y759247D01*
X1848131Y748131D01*
X1859247Y739009D01*
X1871929Y732231D01*
X1885689Y728056D01*
X1896000Y727041D01*
Y796000D01*
D02*
G37*
G36*
X122638Y652344D02*
X104000D01*
Y618370D01*
X145847D01*
Y629134D01*
X144081Y638016D01*
X139049Y645546D01*
X131520Y650577D01*
X122638Y652344D01*
D02*
G37*
G36*
X96000D02*
X77362D01*
X68480Y650577D01*
X60950Y645546D01*
X55919Y638016D01*
X54153Y629134D01*
Y618370D01*
X96000D01*
Y652344D01*
D02*
G37*
G36*
X145847Y610370D02*
X104000D01*
Y576397D01*
X122638D01*
X131520Y578163D01*
X139049Y583195D01*
X144081Y590724D01*
X145847Y599606D01*
Y610370D01*
D02*
G37*
G36*
X96000D02*
X54153D01*
Y599606D01*
X55919Y590724D01*
X60950Y583195D01*
X68480Y578163D01*
X77362Y576397D01*
X96000D01*
Y610370D01*
D02*
G37*
G36*
X224016Y563537D02*
X222110D01*
Y541598D01*
X249428D01*
X249070Y544312D01*
X246479Y550568D01*
X242357Y555940D01*
X236985Y560062D01*
X230729Y562653D01*
X224016Y563537D01*
D02*
G37*
G36*
X214110D02*
X212205D01*
X205491Y562653D01*
X199236Y560062D01*
X193863Y555940D01*
X189741Y550568D01*
X187150Y544312D01*
X186793Y541598D01*
X214110D01*
Y563537D01*
D02*
G37*
G36*
X249428Y533598D02*
X222110D01*
Y511660D01*
X224016D01*
X230729Y512544D01*
X236985Y515135D01*
X242357Y519257D01*
X246479Y524629D01*
X249070Y530885D01*
X249428Y533598D01*
D02*
G37*
G36*
X214110D02*
X186793D01*
X187150Y530885D01*
X189741Y524629D01*
X193863Y519257D01*
X199236Y515135D01*
X205491Y512544D01*
X212205Y511660D01*
X214110D01*
Y533598D01*
D02*
G37*
G36*
X1885847Y621402D02*
X1871537Y619992D01*
X1857776Y615818D01*
X1845094Y609039D01*
X1833979Y599917D01*
X1824856Y588801D01*
X1818078Y576120D01*
X1813903Y562359D01*
X1812494Y548048D01*
X1813903Y533738D01*
X1818078Y519977D01*
X1824856Y507296D01*
X1833979Y496180D01*
X1845094Y487057D01*
X1857776Y480279D01*
X1871537Y476105D01*
X1885847Y474695D01*
X1900158Y476105D01*
X1913918Y480279D01*
X1926600Y487057D01*
X1937716Y496180D01*
X1946838Y507296D01*
X1953617Y519977D01*
X1957791Y533738D01*
X1959200Y548048D01*
X1957791Y562359D01*
X1953617Y576120D01*
X1946838Y588801D01*
X1937716Y599917D01*
X1926600Y609039D01*
X1913918Y615818D01*
X1900158Y619992D01*
X1885847Y621402D01*
D02*
G37*
G36*
X1159000Y497353D02*
X1151977Y495956D01*
X1146023Y491977D01*
X1142044Y486023D01*
X1140647Y479000D01*
X1142044Y471977D01*
X1146023Y466023D01*
X1146473Y461450D01*
X1139890Y454868D01*
X1134086Y455318D01*
X1132977Y456977D01*
X1127023Y460956D01*
X1120000Y462353D01*
X1112977Y460956D01*
X1107023Y456977D01*
X1103044Y451023D01*
X1101647Y444000D01*
X1103044Y436977D01*
X1107023Y431023D01*
X1112977Y427044D01*
X1120000Y425647D01*
X1127023Y427044D01*
X1132977Y431023D01*
X1135517Y434824D01*
X1142000D01*
X1145512Y435522D01*
X1148489Y437511D01*
X1165489Y454511D01*
X1167478Y457488D01*
X1168176Y461000D01*
Y463483D01*
X1171977Y466023D01*
X1175956Y471977D01*
X1177353Y479000D01*
X1175956Y486023D01*
X1171977Y491977D01*
X1166023Y495956D01*
X1159000Y497353D01*
D02*
G37*
G36*
X224016Y388340D02*
X222110D01*
Y366402D01*
X249428D01*
X249070Y369115D01*
X246479Y375371D01*
X242357Y380743D01*
X236985Y384865D01*
X230729Y387456D01*
X224016Y388340D01*
D02*
G37*
G36*
X214110D02*
X212205D01*
X205491Y387456D01*
X199236Y384865D01*
X193863Y380743D01*
X189741Y375371D01*
X187150Y369115D01*
X186793Y366402D01*
X214110D01*
Y388340D01*
D02*
G37*
G36*
X249428Y358402D02*
X222110D01*
Y336463D01*
X224016D01*
X230729Y337347D01*
X236985Y339938D01*
X242357Y344060D01*
X246479Y349432D01*
X249070Y355688D01*
X249428Y358402D01*
D02*
G37*
G36*
X214110D02*
X186793D01*
X187150Y355688D01*
X189741Y349432D01*
X193863Y344060D01*
X199236Y339938D01*
X205491Y337347D01*
X212205Y336463D01*
X214110D01*
Y358402D01*
D02*
G37*
G36*
X122638Y323603D02*
X104000D01*
Y289630D01*
X145847D01*
Y300394D01*
X144081Y309276D01*
X139049Y316805D01*
X131520Y321837D01*
X122638Y323603D01*
D02*
G37*
G36*
X96000D02*
X77362D01*
X68480Y321837D01*
X60950Y316805D01*
X55919Y309276D01*
X54153Y300394D01*
Y289630D01*
X96000D01*
Y323603D01*
D02*
G37*
G36*
X145847Y281630D02*
X104000D01*
Y247656D01*
X122638D01*
X131520Y249423D01*
X139049Y254454D01*
X144081Y261984D01*
X145847Y270866D01*
Y281630D01*
D02*
G37*
G36*
X96000D02*
X54153D01*
Y270866D01*
X55919Y261984D01*
X60950Y254454D01*
X68480Y249423D01*
X77362Y247656D01*
X96000D01*
Y281630D01*
D02*
G37*
G36*
X1454000Y187325D02*
Y154000D01*
X1487325D01*
X1486562Y159797D01*
X1482780Y168926D01*
X1476765Y176765D01*
X1468926Y182780D01*
X1459797Y186561D01*
X1454000Y187325D01*
D02*
G37*
G36*
X1440492Y479353D02*
X1433469Y477956D01*
X1427515Y473977D01*
X1423537Y468023D01*
X1422140Y461000D01*
X1423537Y453977D01*
X1427515Y448023D01*
X1433469Y444044D01*
X1440492Y442647D01*
X1447515Y444044D01*
X1452291Y447236D01*
X1638404D01*
X1736236Y349404D01*
Y187528D01*
X1712473D01*
Y112472D01*
X1787527D01*
Y187528D01*
X1763764D01*
Y355106D01*
X1762717Y360373D01*
X1759733Y364839D01*
X1653839Y470733D01*
X1649373Y473717D01*
X1644106Y474764D01*
X1452291D01*
X1447515Y477956D01*
X1440492Y479353D01*
D02*
G37*
G36*
Y431353D02*
X1433469Y429956D01*
X1427515Y425977D01*
X1423537Y420023D01*
X1422140Y413000D01*
X1423537Y405977D01*
X1427515Y400023D01*
X1433469Y396044D01*
X1440492Y394647D01*
X1447515Y396044D01*
X1452291Y399236D01*
X1560315D01*
X1636236Y323315D01*
Y184918D01*
X1631074Y182780D01*
X1623235Y176765D01*
X1617220Y168926D01*
X1613438Y159797D01*
X1612149Y150000D01*
X1613438Y140203D01*
X1617220Y131074D01*
X1623235Y123235D01*
X1631074Y117220D01*
X1640203Y113439D01*
X1650000Y112149D01*
X1659797Y113439D01*
X1668926Y117220D01*
X1676765Y123235D01*
X1682780Y131074D01*
X1686562Y140203D01*
X1687851Y150000D01*
X1686562Y159797D01*
X1682780Y168926D01*
X1676765Y176765D01*
X1668926Y182780D01*
X1663764Y184918D01*
Y329016D01*
X1663765Y329016D01*
X1662717Y334284D01*
X1659733Y338749D01*
X1575749Y422733D01*
X1571284Y425717D01*
X1566016Y426764D01*
X1452291D01*
X1447515Y429956D01*
X1440492Y431353D01*
D02*
G37*
G36*
X1904000Y172959D02*
Y104000D01*
X1972959D01*
X1971944Y114311D01*
X1967770Y128071D01*
X1960991Y140753D01*
X1951869Y151869D01*
X1940753Y160991D01*
X1928071Y167769D01*
X1914311Y171944D01*
X1904000Y172959D01*
D02*
G37*
G36*
X104000D02*
Y104000D01*
X172959D01*
X171944Y114311D01*
X167769Y128071D01*
X160991Y140753D01*
X151869Y151869D01*
X140753Y160991D01*
X128071Y167769D01*
X114311Y171944D01*
X104000Y172959D01*
D02*
G37*
G36*
X1896000D02*
X1885689Y171944D01*
X1871929Y167769D01*
X1859247Y160991D01*
X1848131Y151869D01*
X1839009Y140753D01*
X1832230Y128071D01*
X1828056Y114311D01*
X1827041Y104000D01*
X1896000D01*
Y172959D01*
D02*
G37*
G36*
X96000D02*
X85689Y171944D01*
X71929Y167769D01*
X59247Y160991D01*
X48132Y151869D01*
X39009Y140753D01*
X32230Y128071D01*
X28056Y114311D01*
X27041Y104000D01*
X96000D01*
Y172959D01*
D02*
G37*
G36*
X1787527Y87528D02*
X1754000D01*
Y54000D01*
X1787527D01*
Y87528D01*
D02*
G37*
G36*
X1746000D02*
X1712473D01*
Y54000D01*
X1746000D01*
Y87528D01*
D02*
G37*
G36*
X1972959Y96000D02*
X1904000D01*
Y27041D01*
X1914311Y28056D01*
X1928071Y32230D01*
X1940753Y39009D01*
X1951869Y48132D01*
X1960991Y59247D01*
X1967770Y71929D01*
X1971944Y85689D01*
X1972959Y96000D01*
D02*
G37*
G36*
X172959D02*
X104000D01*
Y27041D01*
X114311Y28056D01*
X128071Y32230D01*
X140753Y39009D01*
X151869Y48132D01*
X160991Y59247D01*
X167769Y71929D01*
X171944Y85689D01*
X172959Y96000D01*
D02*
G37*
G36*
X96000D02*
X27041D01*
X28056Y85689D01*
X32230Y71929D01*
X39009Y59247D01*
X48132Y48132D01*
X59247Y39009D01*
X71929Y32230D01*
X85689Y28056D01*
X96000Y27041D01*
Y96000D01*
D02*
G37*
G36*
X1896000D02*
X1827041D01*
X1828056Y85689D01*
X1832230Y71929D01*
X1839009Y59247D01*
X1848131Y48132D01*
X1859247Y39009D01*
X1871929Y32230D01*
X1885689Y28056D01*
X1896000Y27041D01*
Y96000D01*
D02*
G37*
G36*
X587325Y46000D02*
X554000D01*
Y12675D01*
X559797Y13438D01*
X568926Y17220D01*
X576765Y23235D01*
X582780Y31074D01*
X586562Y40203D01*
X587325Y46000D01*
D02*
G37*
G36*
X546000D02*
X512675D01*
X513438Y40203D01*
X517220Y31074D01*
X523235Y23235D01*
X531074Y17220D01*
X540203Y13438D01*
X546000Y12675D01*
Y46000D01*
D02*
G37*
G36*
X1787527D02*
X1754000D01*
Y12473D01*
X1787527D01*
Y46000D01*
D02*
G37*
G36*
X1746000D02*
X1712473D01*
Y12473D01*
X1746000D01*
Y46000D01*
D02*
G37*
G36*
X1350000Y87851D02*
X1340203Y86561D01*
X1331074Y82780D01*
X1323235Y76765D01*
X1317220Y68926D01*
X1313438Y59797D01*
X1312149Y50000D01*
X1313438Y40203D01*
X1317220Y31074D01*
X1323235Y23235D01*
X1331074Y17220D01*
X1340203Y13438D01*
X1350000Y12149D01*
X1359797Y13438D01*
X1368926Y17220D01*
X1376765Y23235D01*
X1382780Y31074D01*
X1386562Y40203D01*
X1387851Y50000D01*
X1386562Y59797D01*
X1382780Y68926D01*
X1376765Y76765D01*
X1368926Y82780D01*
X1359797Y86561D01*
X1350000Y87851D01*
D02*
G37*
G36*
X450000D02*
X440203Y86561D01*
X431074Y82780D01*
X423235Y76765D01*
X417220Y68926D01*
X413438Y59797D01*
X412149Y50000D01*
X413438Y40203D01*
X417220Y31074D01*
X423235Y23235D01*
X431074Y17220D01*
X440203Y13438D01*
X450000Y12149D01*
X459797Y13438D01*
X468926Y17220D01*
X476765Y23235D01*
X482780Y31074D01*
X486562Y40203D01*
X487851Y50000D01*
X486562Y59797D01*
X482780Y68926D01*
X476765Y76765D01*
X468926Y82780D01*
X459797Y86561D01*
X450000Y87851D01*
D02*
G37*
G36*
X350000D02*
X340203Y86561D01*
X331074Y82780D01*
X323235Y76765D01*
X317220Y68926D01*
X313438Y59797D01*
X312149Y50000D01*
X313438Y40203D01*
X317220Y31074D01*
X323235Y23235D01*
X331074Y17220D01*
X340203Y13438D01*
X350000Y12149D01*
X359797Y13438D01*
X368926Y17220D01*
X376765Y23235D01*
X382780Y31074D01*
X386562Y40203D01*
X387851Y50000D01*
X386562Y59797D01*
X382780Y68926D01*
X376765Y76765D01*
X368926Y82780D01*
X359797Y86561D01*
X350000Y87851D01*
D02*
G37*
G36*
X250000D02*
X240203Y86561D01*
X231074Y82780D01*
X223235Y76765D01*
X217220Y68926D01*
X213439Y59797D01*
X212149Y50000D01*
X213439Y40203D01*
X217220Y31074D01*
X223235Y23235D01*
X231074Y17220D01*
X240203Y13438D01*
X250000Y12149D01*
X259797Y13438D01*
X268926Y17220D01*
X276765Y23235D01*
X282780Y31074D01*
X286562Y40203D01*
X287851Y50000D01*
X286562Y59797D01*
X282780Y68926D01*
X276765Y76765D01*
X268926Y82780D01*
X259797Y86561D01*
X250000Y87851D01*
D02*
G37*
%LPD*%
G36*
X395000Y420000D02*
X405000Y410000D01*
X650000Y410000D01*
X650000Y365000D01*
X320000D01*
X282500Y402500D01*
Y512000D01*
X395000D01*
X395000Y420000D01*
D02*
G37*
G36*
X793620Y326675D02*
X790002Y325956D01*
X784048Y321977D01*
X780069Y316023D01*
X778672Y309000D01*
X780069Y301977D01*
X783260Y297201D01*
Y186725D01*
X784308Y181458D01*
X787292Y176992D01*
X793000Y171284D01*
Y155914D01*
X791572Y154742D01*
X694977D01*
Y221000D01*
X694201Y224902D01*
X691991Y228210D01*
X688683Y230420D01*
X686693Y230816D01*
Y331675D01*
X793127D01*
X793620Y326675D01*
D02*
G37*
D11*
X1003334Y777671D02*
X1077671D01*
X1150000Y850000D01*
X804213Y384353D02*
X821413Y401553D01*
X796047Y387549D02*
X801018D01*
X804213Y384353D01*
X724272Y561728D02*
Y595272D01*
X514186Y127915D02*
X552101Y90000D01*
X1073000D02*
X1097200Y114200D01*
X552101Y90000D02*
X1073000D01*
X724272Y561728D02*
X832000Y454000D01*
X1097200Y114200D02*
Y199200D01*
X1111000Y196030D02*
X1165970Y251000D01*
X1252883D01*
X1314000Y189883D01*
X1123015Y191074D02*
X1170941Y239000D01*
X1247913D02*
X1292000Y194913D01*
X1170941Y239000D02*
X1247913D01*
X1314000Y189883D02*
Y189883D01*
X1292000Y174000D02*
Y194913D01*
X1211000Y332000D02*
Y548302D01*
Y313000D02*
Y332000D01*
X1050000Y50000D02*
X1111000Y111000D01*
X1050000Y50000D02*
Y50000D01*
X1111000Y111000D02*
Y196030D01*
X1123015Y76985D02*
Y191074D01*
X1097200Y199200D02*
X1211000Y313000D01*
X1123015Y76985D02*
X1150000Y50000D01*
X1292000Y174000D02*
X1314000Y152000D01*
X1634000Y734000D02*
X1750000Y850000D01*
X1226000Y734000D02*
X1634000D01*
X1197000Y758000D02*
X1558000D01*
X1650000Y850000D01*
X1280000Y783000D02*
X1483000D01*
X1550000Y850000D01*
X1312000Y811000D02*
X1411000D01*
X1450000Y850000D01*
X1132655Y622116D02*
X1159771Y595000D01*
X1213000D01*
X1289000Y600000D02*
X1360000Y529000D01*
X1289000Y630000D02*
X1372000Y547000D01*
X1360000Y157030D02*
Y529000D01*
X1150000Y850000D02*
X1150000D01*
X1120000Y444000D02*
X1142000D01*
X1159000Y461000D02*
Y479000D01*
X1142000Y444000D02*
X1159000Y461000D01*
X1266000Y480971D02*
Y558971D01*
X1180146Y607000D02*
X1217971D01*
X1266000Y558971D01*
X1163738Y623407D02*
X1180146Y607000D01*
X1213000Y595000D02*
X1254000Y554000D01*
X1208030Y583000D02*
X1241000Y550030D01*
X1141771Y583000D02*
X1208030D01*
X1102655Y622116D02*
X1141771Y583000D01*
X1254000Y476000D02*
Y554000D01*
X1241000Y332000D02*
Y550030D01*
X1197735Y561566D02*
X1211000Y548302D01*
X1301000Y332000D02*
Y429000D01*
X1254000Y476000D02*
X1301000Y429000D01*
X1292000Y311000D02*
X1314000D01*
X1271000Y332000D02*
X1292000Y311000D01*
X1314000D02*
X1324000Y321000D01*
Y422971D01*
X1266000Y480971D02*
X1324000Y422971D01*
X1298000Y482387D02*
X1336000Y444387D01*
X1372000Y162000D02*
X1430000Y104000D01*
X1348000Y152000D02*
Y462387D01*
X1372000Y162000D02*
Y547000D01*
X1250000Y50000D02*
X1336000Y136000D01*
Y444387D01*
X1360000Y157030D02*
X1425030Y92000D01*
X1328000Y482387D02*
X1348000Y462387D01*
Y152000D02*
X1450000Y50000D01*
X1430000Y104000D02*
X1596000D01*
X1508000Y92000D02*
X1550000Y50000D01*
X1425030Y92000D02*
X1508000D01*
X1596000Y104000D02*
X1650000Y50000D01*
X834681Y424077D02*
X836604D01*
X895906Y483378D01*
X951986D01*
X833158Y422553D02*
X834681Y424077D01*
X842243Y401553D02*
X894069Y453378D01*
X821413Y401553D02*
X842243D01*
X894069Y453378D02*
X951986D01*
D38*
X1493748Y370411D02*
X1550000Y314159D01*
Y150000D02*
Y314159D01*
X670379Y345440D02*
Y475466D01*
Y204400D02*
Y345440D01*
X803022Y642549D02*
X842253D01*
X713549D02*
X803022D01*
X670379Y599379D02*
X713549Y642549D01*
X842253D02*
X943091Y743387D01*
X670379Y475466D02*
Y599379D01*
Y138428D02*
X791572D01*
X815072Y114928D02*
X955089D01*
X791572Y138428D02*
X815072Y114928D01*
X955089D02*
X955161Y115000D01*
X670379Y138428D02*
X670560Y138247D01*
X585000Y385000D02*
Y585000D01*
X765000Y765000D02*
X765000D01*
X585000Y585000D02*
X765000Y765000D01*
X765000D02*
X850000Y850000D01*
Y850000D01*
D39*
X1566016Y413000D02*
X1650000Y329016D01*
Y150000D02*
Y329016D01*
X1644106Y461000D02*
X1750000Y355106D01*
Y150000D02*
Y355106D01*
X1031809Y388809D02*
Y657809D01*
X898000Y255000D02*
X1031809Y388809D01*
X805718Y345440D02*
X831109Y370831D01*
X670379Y345440D02*
X805718D01*
X797025Y186725D02*
Y309000D01*
Y186725D02*
X840750Y143000D01*
X803022Y589022D02*
Y642549D01*
X670379Y475466D02*
X725000D01*
X840750Y143000D02*
X925889D01*
X1005889Y223000D01*
X840750Y143000D02*
Y143000D01*
X1005889Y223000D02*
X1067000D01*
X955650Y254800D02*
X1065835Y364985D01*
Y639000D01*
X1031809Y657809D02*
X1075000Y701000D01*
X1369810D01*
X1065835Y639000D02*
X1090835Y664000D01*
X1440492Y413000D02*
X1566016D01*
X1090835Y664000D02*
X1350819D01*
X1440492Y574327D01*
X1369810Y701000D02*
X1494000Y576810D01*
Y523954D02*
Y576810D01*
X1440492Y461000D02*
X1644106D01*
D40*
X803000Y589000D02*
X803022Y589022D01*
D44*
X1550000Y150000D02*
D03*
X1450000D02*
D03*
X1650000D02*
D03*
X750000Y850000D02*
D03*
X850000D02*
D03*
X950000D02*
D03*
X1150000D02*
D03*
X1250000D02*
D03*
X1050000D02*
D03*
X1650000D02*
D03*
X1750000D02*
D03*
X1350000D02*
D03*
X1550000D02*
D03*
X1450000D02*
D03*
X1250000Y50000D02*
D03*
X1150000D02*
D03*
X1350000D02*
D03*
X950000D02*
D03*
X850000D02*
D03*
X1050000D02*
D03*
X1650000D02*
D03*
X1450000D02*
D03*
X1550000D02*
D03*
X250000D02*
D03*
X350000D02*
D03*
X450000D02*
D03*
X550000D02*
D03*
X750000D02*
D03*
X650000D02*
D03*
D45*
X1750000Y150000D02*
D03*
X650000Y850000D02*
D03*
X1750000Y50000D02*
D03*
D46*
X1885847Y548048D02*
D03*
X1210847Y158048D02*
D03*
X100000Y800000D02*
D03*
X1900000Y100000D02*
D03*
Y800000D02*
D03*
X100000Y100000D02*
D03*
D47*
Y285630D02*
D03*
Y614370D02*
D03*
D48*
X218110Y362402D02*
D03*
Y537598D02*
D03*
D49*
X1012000Y144000D02*
D03*
X796047Y387549D02*
D03*
X831109Y370831D02*
D03*
X797025Y309000D02*
D03*
X724272Y595272D02*
D03*
X803000Y589000D02*
D03*
X943091Y743387D02*
D03*
X725000Y475466D02*
D03*
X840750Y143000D02*
D03*
X955161Y115000D02*
D03*
X670379Y138428D02*
D03*
X1067000Y223000D02*
D03*
X955650Y254800D02*
D03*
X898000Y255000D02*
D03*
X1314000Y189883D02*
D03*
Y152000D02*
D03*
X1440492Y413000D02*
D03*
X1493748Y370411D02*
D03*
X1226000Y734000D02*
D03*
X1197000Y758000D02*
D03*
X1280000Y783000D02*
D03*
X1312000Y811000D02*
D03*
X1132655Y622116D02*
D03*
X1289000Y630000D02*
D03*
Y600000D02*
D03*
X1494000Y523954D02*
D03*
X1440492Y574327D02*
D03*
X1003334Y777671D02*
D03*
X1159000Y479000D02*
D03*
X1163738Y623407D02*
D03*
X1197735Y561566D02*
D03*
X1102655Y622116D02*
D03*
X1301000Y332000D02*
D03*
X1271000D02*
D03*
X1241000D02*
D03*
X1211000D02*
D03*
X1120000Y444000D02*
D03*
X1440492Y461000D02*
D03*
X514186Y127915D02*
D03*
X1298000Y482387D02*
D03*
X1328000D02*
D03*
X833158Y422553D02*
D03*
X951986Y453378D02*
D03*
Y483378D02*
D03*
X832000Y454000D02*
D03*
D50*
X647390Y170500D02*
D03*
D51*
X1950000Y200000D02*
D03*
X1061000Y743000D02*
D03*
X200000Y125000D02*
D03*
X50000Y200000D02*
D03*
X325000Y700000D02*
D03*
X50000D02*
D03*
X225000Y825000D02*
D03*
X800000Y700000D02*
D03*
X1450000D02*
D03*
X1600000Y225000D02*
D03*
X1700000D02*
D03*
X1800000Y250000D02*
D03*
X1675000Y550000D02*
D03*
X1600000Y700000D02*
D03*
X1750000D02*
D03*
X1775000Y425000D02*
D03*
X1950000D02*
D03*
Y700000D02*
D03*
X1162830Y370541D02*
D03*
X951986Y412474D02*
D03*
X897505D02*
D03*
X1154000Y524034D02*
D03*
X985150Y523954D02*
D03*
X940203Y622116D02*
D03*
X874747Y538389D02*
D03*
X497852Y861477D02*
D03*
Y795000D02*
D03*
X365604D02*
D03*
Y861477D02*
D03*
X514186Y432397D02*
D03*
X740109Y251000D02*
D03*
X556638Y129191D02*
D03*
X399370Y199675D02*
D03*
X363853Y260551D02*
D03*
X238385Y310056D02*
D03*
X345000Y551576D02*
D03*
Y645025D02*
D03*
Y600000D02*
D03*
X297177Y574357D02*
D03*
X1549508Y523954D02*
D03*
X899321Y795561D02*
D03*
X725640Y186725D02*
D03*
X670379Y204400D02*
D03*
X670000Y171414D02*
D03*
X377508Y495000D02*
D03*
X345000D02*
D03*
X585000Y385000D02*
D03*
X550000D02*
D03*
%TF.MD5,64f7eec2f661f64b56e426a5b23cd65d*%
M02*
