%TF.GenerationSoftware,Altium Limited,Altium Designer,20.1.11 (218)*%
G04 Layer_Physical_Order=1*
G04 Layer_Color=255*
%FSLAX26Y26*%
%MOIN*%
%TF.SameCoordinates,3C5C7FA7-1F59-4671-A418-6E2A2DAA0BFA*%
%TF.FilePolarity,Positive*%
%TF.FileFunction,Copper,L1,Top,Signal*%
%TF.Part,Single*%
G01*
G75*
%TA.AperFunction,NonConductor*%
%ADD10C,0.006000*%
%TA.AperFunction,Conductor*%
%ADD11C,0.006000*%
%TA.AperFunction,SMDPad,CuDef*%
G04:AMPARAMS|DCode=12|XSize=23.228mil|YSize=25.197mil|CornerRadius=5.923mil|HoleSize=0mil|Usage=FLASHONLY|Rotation=270.000|XOffset=0mil|YOffset=0mil|HoleType=Round|Shape=RoundedRectangle|*
%AMROUNDEDRECTD12*
21,1,0.023228,0.013351,0,0,270.0*
21,1,0.011382,0.025197,0,0,270.0*
1,1,0.011846,-0.006675,-0.005691*
1,1,0.011846,-0.006675,0.005691*
1,1,0.011846,0.006675,0.005691*
1,1,0.011846,0.006675,-0.005691*
%
%ADD12ROUNDEDRECTD12*%
G04:AMPARAMS|DCode=13|XSize=23.228mil|YSize=25.197mil|CornerRadius=5.923mil|HoleSize=0mil|Usage=FLASHONLY|Rotation=180.000|XOffset=0mil|YOffset=0mil|HoleType=Round|Shape=RoundedRectangle|*
%AMROUNDEDRECTD13*
21,1,0.023228,0.013351,0,0,180.0*
21,1,0.011382,0.025197,0,0,180.0*
1,1,0.011846,-0.005691,0.006675*
1,1,0.011846,0.005691,0.006675*
1,1,0.011846,0.005691,-0.006675*
1,1,0.011846,-0.005691,-0.006675*
%
%ADD13ROUNDEDRECTD13*%
%ADD14R,0.031496X0.049000*%
%ADD15R,0.035000X0.032000*%
%ADD16R,0.009840X0.039370*%
%ADD17R,0.059055X0.133858*%
%ADD18R,0.039370X0.137795*%
%ADD19R,0.023620X0.053150*%
%ADD20R,0.047240X0.078740*%
G04:AMPARAMS|DCode=21|XSize=19.685mil|YSize=23.622mil|CornerRadius=5.118mil|HoleSize=0mil|Usage=FLASHONLY|Rotation=270.000|XOffset=0mil|YOffset=0mil|HoleType=Round|Shape=RoundedRectangle|*
%AMROUNDEDRECTD21*
21,1,0.019685,0.013386,0,0,270.0*
21,1,0.009449,0.023622,0,0,270.0*
1,1,0.010236,-0.006693,-0.004724*
1,1,0.010236,-0.006693,0.004724*
1,1,0.010236,0.006693,0.004724*
1,1,0.010236,0.006693,-0.004724*
%
%ADD21ROUNDEDRECTD21*%
G04:AMPARAMS|DCode=22|XSize=25.591mil|YSize=15.748mil|CornerRadius=3.937mil|HoleSize=0mil|Usage=FLASHONLY|Rotation=0.000|XOffset=0mil|YOffset=0mil|HoleType=Round|Shape=RoundedRectangle|*
%AMROUNDEDRECTD22*
21,1,0.025591,0.007874,0,0,0.0*
21,1,0.017717,0.015748,0,0,0.0*
1,1,0.007874,0.008858,-0.003937*
1,1,0.007874,-0.008858,-0.003937*
1,1,0.007874,-0.008858,0.003937*
1,1,0.007874,0.008858,0.003937*
%
%ADD22ROUNDEDRECTD22*%
G04:AMPARAMS|DCode=23|XSize=25.591mil|YSize=11.811mil|CornerRadius=2.953mil|HoleSize=0mil|Usage=FLASHONLY|Rotation=0.000|XOffset=0mil|YOffset=0mil|HoleType=Round|Shape=RoundedRectangle|*
%AMROUNDEDRECTD23*
21,1,0.025591,0.005905,0,0,0.0*
21,1,0.019685,0.011811,0,0,0.0*
1,1,0.005906,0.009842,-0.002953*
1,1,0.005906,-0.009842,-0.002953*
1,1,0.005906,-0.009842,0.002953*
1,1,0.005906,0.009842,0.002953*
%
%ADD23ROUNDEDRECTD23*%
%ADD24C,0.007874*%
%ADD25C,0.002000*%
%ADD26C,0.039370*%
%ADD27R,0.020000X0.052000*%
%ADD28R,0.052000X0.020000*%
%ADD29R,0.029748X0.007843*%
%TA.AperFunction,ConnectorPad*%
G04:AMPARAMS|DCode=30|XSize=46.26mil|YSize=74.803mil|CornerRadius=11.565mil|HoleSize=0mil|Usage=FLASHONLY|Rotation=90.000|XOffset=0mil|YOffset=0mil|HoleType=Round|Shape=RoundedRectangle|*
%AMROUNDEDRECTD30*
21,1,0.046260,0.051673,0,0,90.0*
21,1,0.023130,0.074803,0,0,90.0*
1,1,0.023130,0.025837,0.011565*
1,1,0.023130,0.025837,-0.011565*
1,1,0.023130,-0.025837,-0.011565*
1,1,0.023130,-0.025837,0.011565*
%
%ADD30ROUNDEDRECTD30*%
G04:AMPARAMS|DCode=31|XSize=70.866mil|YSize=74.803mil|CornerRadius=17.716mil|HoleSize=0mil|Usage=FLASHONLY|Rotation=270.000|XOffset=0mil|YOffset=0mil|HoleType=Round|Shape=RoundedRectangle|*
%AMROUNDEDRECTD31*
21,1,0.070866,0.039370,0,0,270.0*
21,1,0.035433,0.074803,0,0,270.0*
1,1,0.035433,-0.019685,-0.017717*
1,1,0.035433,-0.019685,0.017717*
1,1,0.035433,0.019685,0.017717*
1,1,0.035433,0.019685,-0.017717*
%
%ADD31ROUNDEDRECTD31*%
G04:AMPARAMS|DCode=32|XSize=15.748mil|YSize=53.15mil|CornerRadius=3.937mil|HoleSize=0mil|Usage=FLASHONLY|Rotation=270.000|XOffset=0mil|YOffset=0mil|HoleType=Round|Shape=RoundedRectangle|*
%AMROUNDEDRECTD32*
21,1,0.015748,0.045276,0,0,270.0*
21,1,0.007874,0.053150,0,0,270.0*
1,1,0.007874,-0.022638,-0.003937*
1,1,0.007874,-0.022638,0.003937*
1,1,0.007874,0.022638,0.003937*
1,1,0.007874,0.022638,-0.003937*
%
%ADD32ROUNDEDRECTD32*%
%TA.AperFunction,SMDPad,CuDef*%
%ADD33R,0.045276X0.029528*%
%ADD34R,0.037402X0.055118*%
%ADD35R,0.049000X0.031496*%
G04:AMPARAMS|DCode=36|XSize=19.685mil|YSize=23.622mil|CornerRadius=5.118mil|HoleSize=0mil|Usage=FLASHONLY|Rotation=180.000|XOffset=0mil|YOffset=0mil|HoleType=Round|Shape=RoundedRectangle|*
%AMROUNDEDRECTD36*
21,1,0.019685,0.013386,0,0,180.0*
21,1,0.009449,0.023622,0,0,180.0*
1,1,0.010236,-0.004724,0.006693*
1,1,0.010236,0.004724,0.006693*
1,1,0.010236,0.004724,-0.006693*
1,1,0.010236,-0.004724,-0.006693*
%
%ADD36ROUNDEDRECTD36*%
%TA.AperFunction,NonConductor*%
%ADD37C,0.008000*%
%TA.AperFunction,Conductor*%
%ADD38C,0.020000*%
%ADD39C,0.015000*%
%ADD40C,0.010000*%
%ADD41C,0.008000*%
%ADD42R,0.097000X0.020000*%
%ADD43R,0.115000X0.045000*%
%TA.AperFunction,ComponentPad*%
%ADD44C,0.059055*%
%ADD45R,0.059055X0.059055*%
%ADD46C,0.130000*%
G04:AMPARAMS|DCode=47|XSize=74.803mil|YSize=59.055mil|CornerRadius=14.764mil|HoleSize=0mil|Usage=FLASHONLY|Rotation=0.000|XOffset=0mil|YOffset=0mil|HoleType=Round|Shape=RoundedRectangle|*
%AMROUNDEDRECTD47*
21,1,0.074803,0.029527,0,0,0.0*
21,1,0.045276,0.059055,0,0,0.0*
1,1,0.029528,0.022638,-0.014764*
1,1,0.029528,-0.022638,-0.014764*
1,1,0.029528,-0.022638,0.014764*
1,1,0.029528,0.022638,0.014764*
%
%ADD47ROUNDEDRECTD47*%
%ADD48O,0.047244X0.035433*%
%TA.AperFunction,ViaPad*%
%ADD49C,0.024000*%
G36*
X1896781Y892229D02*
X1900000Y891588D01*
X1904845Y891214D01*
X1917888Y889930D01*
X1935089Y884712D01*
X1950941Y876239D01*
X1964836Y864836D01*
X1976239Y850941D01*
X1984712Y835089D01*
X1989930Y817888D01*
X1991214Y804845D01*
X1991588Y800000D01*
X1992228Y796781D01*
X1993628Y794687D01*
Y105313D01*
X1992228Y103219D01*
X1991588Y100000D01*
X1991214Y95155D01*
X1989930Y82112D01*
X1984712Y64911D01*
X1976239Y49059D01*
X1964836Y35164D01*
X1950941Y23761D01*
X1935089Y15288D01*
X1917888Y10070D01*
X1904845Y8786D01*
X1900000Y8412D01*
X1896781Y7771D01*
X1894687Y6372D01*
X105313D01*
X103219Y7771D01*
X100000Y8412D01*
X95155Y8786D01*
X82112Y10070D01*
X64911Y15288D01*
X49059Y23761D01*
X35164Y35164D01*
X23761Y49059D01*
X15288Y64911D01*
X10070Y82112D01*
X8786Y95155D01*
X8412Y100000D01*
X7771Y103219D01*
X6372Y105313D01*
Y267360D01*
X24506Y285494D01*
X24506Y285494D01*
X25887Y287561D01*
X26372Y290000D01*
X26372Y290000D01*
Y610000D01*
X26372Y610000D01*
X25887Y612439D01*
X24506Y614506D01*
X24506Y614506D01*
X6372Y632640D01*
Y794687D01*
X7771Y796781D01*
X8412Y800000D01*
X8786Y804845D01*
X10070Y817888D01*
X15288Y835089D01*
X23761Y850941D01*
X35164Y864836D01*
X49059Y876239D01*
X64911Y884712D01*
X82112Y889930D01*
X95155Y891214D01*
X100000Y891588D01*
X103219Y892229D01*
X105313Y893628D01*
X599804D01*
Y770223D01*
X592777Y763196D01*
X440000Y763196D01*
X436098Y762420D01*
X432790Y760210D01*
X430580Y756902D01*
X429804Y753000D01*
X429804Y485000D01*
X405196D01*
Y512000D01*
X404420Y515902D01*
X402209Y519210D01*
X398902Y521420D01*
X395000Y522196D01*
X250579Y522196D01*
X247542Y527196D01*
X249070Y530885D01*
X249428Y533598D01*
X186793D01*
X187150Y530885D01*
X188678Y527196D01*
X185642Y522196D01*
X170000D01*
X166098Y521420D01*
X162790Y519210D01*
X160580Y515902D01*
X159804Y512000D01*
Y492000D01*
X160580Y488098D01*
X162790Y484790D01*
X166098Y482580D01*
X170000Y481804D01*
X170677D01*
X172546Y479527D01*
Y471654D01*
X173317Y467776D01*
X175513Y464490D01*
Y461101D01*
X173317Y457814D01*
X172546Y453937D01*
Y446063D01*
X173317Y442186D01*
X175513Y438899D01*
Y435510D01*
X173317Y432224D01*
X172546Y428346D01*
Y420472D01*
X173317Y416595D01*
X175513Y413308D01*
X178800Y411112D01*
X182677Y410341D01*
X227953D01*
X231830Y411112D01*
X235117Y413308D01*
X237313Y416595D01*
X237990Y420000D01*
X248594D01*
Y411369D01*
X249370Y407468D01*
X251580Y404160D01*
X264700Y391040D01*
X263558Y388282D01*
X262675Y381577D01*
X263558Y374872D01*
X266146Y368624D01*
X270263Y363259D01*
X275629Y359141D01*
X281877Y356553D01*
X288582Y355671D01*
X295287Y356553D01*
X301535Y359141D01*
X306901Y363259D01*
X311018Y368624D01*
X313606Y374872D01*
X314489Y381577D01*
X313606Y388282D01*
X311018Y394531D01*
X306901Y399896D01*
X301535Y404013D01*
X295287Y406601D01*
X290000Y407297D01*
Y416580D01*
X295287Y417276D01*
X301535Y419864D01*
X306901Y423981D01*
X311018Y429347D01*
X313360Y435000D01*
X327581D01*
X334790Y427790D01*
X338098Y425580D01*
X342000Y424804D01*
X395000Y424804D01*
X395000Y424804D01*
Y410996D01*
X335008D01*
Y378996D01*
X356812D01*
Y356940D01*
X350297Y350425D01*
X339995D01*
X335656Y349562D01*
X331979Y347105D01*
X329522Y343427D01*
X328659Y339089D01*
Y329640D01*
X329522Y325302D01*
X331979Y321625D01*
X335656Y319168D01*
X339995Y318305D01*
X353380D01*
X357718Y319168D01*
X361396Y321625D01*
X363298Y324471D01*
X377940D01*
X379842Y321625D01*
X383450Y319214D01*
X383519Y318834D01*
Y314462D01*
X383450Y314083D01*
X379842Y311672D01*
X377384Y307994D01*
X376521Y303656D01*
Y294207D01*
X377384Y289869D01*
X379842Y286192D01*
X383519Y283735D01*
X387857Y282872D01*
X399370D01*
Y242276D01*
X456646D01*
Y283803D01*
X460876Y285663D01*
X465068D01*
Y346663D01*
X431345D01*
X428137Y351663D01*
X428764Y354815D01*
Y450000D01*
X439015D01*
X440000Y449804D01*
X595777D01*
X602790Y442790D01*
X606098Y440580D01*
X610000Y439804D01*
X643000Y439804D01*
X646902Y440580D01*
X650210Y442790D01*
X652420Y446098D01*
X653196Y450000D01*
X653196Y637698D01*
X702712D01*
Y728438D01*
X664390D01*
X662477Y733058D01*
X702210Y772790D01*
X704420Y776098D01*
X705196Y780000D01*
X705196Y893628D01*
X1894687D01*
X1896781Y892229D01*
D02*
G37*
G36*
X695000Y780000D02*
X643000Y728000D01*
X643000Y450000D01*
X610000Y450000D01*
X600000Y460000D01*
X440000D01*
X440000Y753000D01*
X597000Y753000D01*
X610000Y766000D01*
Y893628D01*
X695000D01*
X695000Y780000D01*
D02*
G37*
G36*
X209622Y512000D02*
X212205Y511660D01*
X224016D01*
X226598Y512000D01*
X395000Y512000D01*
Y435000D01*
X342000Y435000D01*
X285000Y492000D01*
X170000D01*
Y512000D01*
X209622D01*
D02*
G37*
%LPC*%
G36*
X1350000Y887851D02*
X1340203Y886562D01*
X1331074Y882780D01*
X1323235Y876765D01*
X1317220Y868926D01*
X1313438Y859797D01*
X1312149Y850000D01*
X1313438Y840203D01*
X1316165Y833622D01*
X1312568Y829240D01*
X1312000Y829353D01*
X1304977Y827956D01*
X1299023Y823977D01*
X1295044Y818023D01*
X1293647Y811000D01*
X1295044Y803977D01*
X1299023Y798023D01*
X1303309Y795159D01*
Y650000D01*
X1291638D01*
X1289176Y653000D01*
Y767483D01*
X1292977Y770023D01*
X1296956Y775977D01*
X1298353Y783000D01*
X1296956Y790023D01*
X1292977Y795977D01*
X1287023Y799956D01*
X1280000Y801353D01*
X1272977Y799956D01*
X1267023Y795977D01*
X1266370Y795000D01*
X1259176D01*
Y813357D01*
X1259797Y813438D01*
X1268926Y817220D01*
X1276765Y823235D01*
X1282780Y831074D01*
X1286562Y840203D01*
X1287851Y850000D01*
X1286562Y859797D01*
X1282780Y868926D01*
X1276765Y876765D01*
X1268926Y882780D01*
X1259797Y886562D01*
X1250000Y887851D01*
X1240203Y886562D01*
X1231074Y882780D01*
X1223235Y876765D01*
X1217220Y868926D01*
X1213438Y859797D01*
X1212149Y850000D01*
X1213438Y840203D01*
X1217220Y831074D01*
X1223235Y823235D01*
X1231074Y817220D01*
X1240203Y813438D01*
X1240824Y813357D01*
Y751757D01*
X1235824Y749084D01*
X1233023Y750956D01*
X1226000Y752353D01*
X1218977Y750956D01*
X1214561Y754018D01*
X1215353Y758000D01*
X1213956Y765023D01*
X1209977Y770977D01*
X1204023Y774956D01*
X1197000Y776353D01*
X1189977Y774956D01*
X1184023Y770977D01*
X1180044Y765023D01*
X1178647Y758000D01*
X1180044Y750977D01*
X1184023Y745023D01*
X1187824Y742483D01*
Y645000D01*
X1172915D01*
Y736262D01*
X1172216Y739773D01*
X1170227Y742750D01*
X1082399Y830578D01*
X1082780Y831074D01*
X1086562Y840203D01*
X1087851Y850000D01*
X1086562Y859797D01*
X1082780Y868926D01*
X1076765Y876765D01*
X1068926Y882780D01*
X1059797Y886562D01*
X1050000Y887851D01*
X1040203Y886562D01*
X1031074Y882780D01*
X1023235Y876765D01*
X1017220Y868926D01*
X1013438Y859797D01*
X1012149Y850000D01*
X1013438Y840203D01*
X1017220Y831074D01*
X1023235Y823235D01*
X1025918Y821176D01*
X1024221Y816176D01*
X996801D01*
X982399Y830578D01*
X982780Y831074D01*
X986562Y840203D01*
X987851Y850000D01*
X986562Y859797D01*
X982780Y868926D01*
X976765Y876765D01*
X968926Y882780D01*
X959797Y886562D01*
X950000Y887851D01*
X940203Y886562D01*
X931074Y882780D01*
X923235Y876765D01*
X917220Y868926D01*
X913438Y859797D01*
X912149Y850000D01*
X913438Y840203D01*
X917220Y831074D01*
X923235Y823235D01*
X931074Y817220D01*
X940203Y813438D01*
X950000Y812149D01*
X959797Y813438D01*
X968926Y817220D01*
X969422Y817601D01*
X983000Y804023D01*
Y762000D01*
X948649D01*
X944000Y762000D01*
X939411Y761008D01*
X938334Y760793D01*
X936068Y760343D01*
X930114Y756364D01*
X926135Y750410D01*
X924738Y743387D01*
X926135Y736364D01*
X930114Y730410D01*
X936068Y726431D01*
X943091Y725034D01*
X944000Y725000D01*
X944000Y725000D01*
X994157D01*
Y714731D01*
X955645D01*
Y671235D01*
X1016645D01*
Y683806D01*
X1072256D01*
X1093478Y662584D01*
Y637633D01*
X1089678Y635093D01*
X1085699Y629139D01*
X1084302Y622116D01*
X1085699Y615093D01*
X1088070Y611544D01*
X1085398Y606544D01*
X920875D01*
X907931Y619489D01*
X904954Y621478D01*
X901443Y622176D01*
X742000D01*
X738488Y621478D01*
X735511Y619489D01*
X728756Y612733D01*
X724272Y613625D01*
X717249Y612228D01*
X711295Y608249D01*
X707317Y602295D01*
X705920Y595272D01*
X707317Y588249D01*
X711295Y582295D01*
X715096Y579755D01*
Y570953D01*
X706462D01*
Y505803D01*
X742082D01*
Y505803D01*
X745832D01*
Y505803D01*
X754000D01*
Y489535D01*
X749469D01*
X747940Y489230D01*
X736799D01*
X732023Y492421D01*
X725000Y493818D01*
X717977Y492421D01*
X712023Y488443D01*
X708044Y482489D01*
X706647Y475466D01*
X707696Y470196D01*
X704658Y465196D01*
X680000D01*
X676098Y464420D01*
X672790Y462210D01*
X670580Y458902D01*
X669804Y455000D01*
Y334223D01*
X665777Y330196D01*
X630000D01*
X626098Y329420D01*
X622790Y327210D01*
X620580Y323902D01*
X619804Y320000D01*
Y251215D01*
X587279D01*
X582978Y252902D01*
Y316902D01*
X550978D01*
Y252902D01*
X551499D01*
X555784Y251000D01*
X556638Y246708D01*
X559069Y243069D01*
X570069Y232070D01*
X570069Y232069D01*
X573708Y229638D01*
X578000Y228785D01*
X596698D01*
X599804Y225000D01*
Y110525D01*
X596071Y106792D01*
X523938D01*
X522456Y111792D01*
X527163Y114938D01*
X531141Y120891D01*
X532538Y127915D01*
X531141Y134938D01*
X527163Y140892D01*
X521209Y144870D01*
X514186Y146267D01*
X507163Y144870D01*
X501209Y140892D01*
X497230Y134938D01*
X495833Y127915D01*
X494406Y126176D01*
X456646D01*
Y163724D01*
X399370D01*
Y126176D01*
X356082D01*
X352570Y125478D01*
X349593Y123489D01*
X296104Y70000D01*
X281956D01*
X276765Y76765D01*
X268926Y82780D01*
X259797Y86561D01*
X259176Y86643D01*
Y164619D01*
X259606Y169441D01*
X309008D01*
Y236559D01*
X259606D01*
Y212098D01*
X256488Y211478D01*
X253511Y209489D01*
X243511Y199489D01*
X241522Y196512D01*
X240824Y193000D01*
Y86643D01*
X240203Y86561D01*
X231074Y82780D01*
X223235Y76765D01*
X217220Y68926D01*
X213439Y59797D01*
X212149Y50000D01*
X213439Y40203D01*
X217220Y31074D01*
X223235Y23235D01*
X231074Y17220D01*
X240203Y13438D01*
X250000Y12149D01*
X259797Y13438D01*
X268926Y17220D01*
X276765Y23235D01*
X282780Y31074D01*
X286477Y40000D01*
X313523D01*
X317220Y31074D01*
X323235Y23235D01*
X331074Y17220D01*
X340203Y13438D01*
X350000Y12149D01*
X359797Y13438D01*
X368926Y17220D01*
X376765Y23235D01*
X382780Y31074D01*
X386562Y40203D01*
X387851Y50000D01*
X386562Y59797D01*
X384424Y64958D01*
X398729Y79263D01*
X418850D01*
X421315Y74263D01*
X417220Y68926D01*
X413438Y59797D01*
X412149Y50000D01*
X413438Y40203D01*
X417220Y31074D01*
X423235Y23235D01*
X431074Y17220D01*
X440203Y13438D01*
X450000Y12149D01*
X459797Y13438D01*
X468926Y17220D01*
X476765Y23235D01*
X482780Y31074D01*
X486562Y40203D01*
X487851Y50000D01*
X486562Y59797D01*
X482780Y68926D01*
X478685Y74263D01*
X481150Y79263D01*
X518850D01*
X521315Y74263D01*
X517220Y68926D01*
X513438Y59797D01*
X512675Y54000D01*
X550000D01*
X587325D01*
X586562Y59797D01*
X582780Y68926D01*
X578685Y74263D01*
X581150Y79263D01*
X601773D01*
X607040Y80311D01*
X611505Y83295D01*
X623015Y94804D01*
X685000D01*
X688902Y95580D01*
X692210Y97790D01*
X694420Y101098D01*
X695196Y105000D01*
Y225000D01*
X694420Y228902D01*
X692210Y232210D01*
X688902Y234420D01*
X685000Y235196D01*
X670000D01*
Y250581D01*
X681223Y261804D01*
X725000D01*
X728902Y262580D01*
X732210Y264790D01*
X734420Y268098D01*
X735196Y272000D01*
Y312000D01*
X745958D01*
X748595Y308054D01*
X757381Y299267D01*
X761847Y296283D01*
X767114Y295236D01*
X785000D01*
Y267744D01*
X759511Y242255D01*
X757522Y239278D01*
X756824Y235767D01*
Y130801D01*
X689526Y63503D01*
X684622Y64479D01*
X682780Y68926D01*
X676765Y76765D01*
X668926Y82780D01*
X659797Y86561D01*
X650000Y87851D01*
X640203Y86561D01*
X631074Y82780D01*
X623235Y76765D01*
X617220Y68926D01*
X613438Y59797D01*
X612149Y50000D01*
X613438Y40203D01*
X617220Y31074D01*
X623235Y23235D01*
X631074Y17220D01*
X640203Y13438D01*
X650000Y12149D01*
X659797Y13438D01*
X668926Y17220D01*
X676765Y23235D01*
X682780Y31074D01*
X686477Y40000D01*
X713523D01*
X717220Y31074D01*
X723235Y23235D01*
X731074Y17220D01*
X740203Y13438D01*
X750000Y12149D01*
X759797Y13438D01*
X768926Y17220D01*
X776765Y23235D01*
X782780Y31074D01*
X786562Y40203D01*
X787851Y50000D01*
X786562Y59797D01*
X782780Y68926D01*
X782399Y69422D01*
X784489Y71511D01*
X786478Y74488D01*
X787176Y78000D01*
Y93314D01*
X791796Y95227D01*
X817601Y69422D01*
X817220Y68926D01*
X813438Y59797D01*
X812149Y50000D01*
X813438Y40203D01*
X817220Y31074D01*
X823235Y23235D01*
X831074Y17220D01*
X840203Y13438D01*
X850000Y12149D01*
X859797Y13438D01*
X868926Y17220D01*
X876765Y23235D01*
X882780Y31074D01*
X886562Y40203D01*
X887851Y50000D01*
X886562Y59797D01*
X882780Y68926D01*
X876765Y76765D01*
X872779Y79824D01*
X874476Y84824D01*
X902199D01*
X917601Y69422D01*
X917220Y68926D01*
X913438Y59797D01*
X912149Y50000D01*
X913438Y40203D01*
X917220Y31074D01*
X923235Y23235D01*
X931074Y17220D01*
X940203Y13438D01*
X950000Y12149D01*
X959797Y13438D01*
X968926Y17220D01*
X976765Y23235D01*
X982780Y31074D01*
X986562Y40203D01*
X987851Y50000D01*
X986562Y59797D01*
X982780Y68926D01*
X976765Y76765D01*
X968926Y82780D01*
X959797Y86561D01*
X950000Y87851D01*
X940203Y86561D01*
X931074Y82780D01*
X930578Y82399D01*
X912489Y100489D01*
X909512Y102478D01*
X906000Y103176D01*
X826801D01*
X811176Y118801D01*
Y153000D01*
X820228D01*
X823392Y148000D01*
X822397Y143000D01*
X823794Y135977D01*
X827773Y130023D01*
X833727Y126044D01*
X840750Y124647D01*
X847773Y126044D01*
X853727Y130023D01*
X857706Y135977D01*
X859103Y143000D01*
X858108Y148000D01*
X861272Y153000D01*
X869314D01*
X870790Y150790D01*
X874098Y148580D01*
X878000Y147804D01*
X941396D01*
Y126799D01*
X938205Y122023D01*
X936808Y115000D01*
X938205Y107977D01*
X942183Y102023D01*
X948137Y98044D01*
X955161Y96647D01*
X962184Y98044D01*
X963145Y98686D01*
X1029970D01*
X1036213Y99928D01*
X1041506Y103465D01*
X1176728Y238686D01*
X1455000D01*
X1461243Y239928D01*
X1466535Y243465D01*
X1524535Y301465D01*
X1528072Y306757D01*
X1529313Y313000D01*
Y351159D01*
X1528072Y357402D01*
X1524535Y362694D01*
X1510929Y376300D01*
X1510704Y377434D01*
X1506726Y383388D01*
X1500772Y387366D01*
X1493748Y388763D01*
X1486725Y387366D01*
X1480771Y383388D01*
X1479594Y381626D01*
X1471097D01*
Y396096D01*
X1454257D01*
Y401201D01*
X1457448Y405977D01*
X1458845Y413000D01*
X1457448Y420023D01*
X1453469Y425977D01*
X1447515Y429956D01*
X1440492Y431353D01*
X1433469Y429956D01*
X1427515Y425977D01*
X1423537Y420023D01*
X1422140Y413000D01*
X1423537Y405977D01*
X1426728Y401201D01*
Y396096D01*
X1410255D01*
X1409600Y399389D01*
X1407611Y402366D01*
X1347000Y462977D01*
Y498269D01*
X1429277D01*
Y488485D01*
X1427775Y486238D01*
X1426728Y480971D01*
Y472799D01*
X1423537Y468023D01*
X1422140Y461000D01*
X1423537Y453977D01*
X1427515Y448023D01*
X1433469Y444044D01*
X1440492Y442647D01*
X1447515Y444044D01*
X1453469Y448023D01*
X1457448Y453977D01*
X1458845Y461000D01*
X1457448Y468023D01*
X1454257Y472799D01*
Y480971D01*
X1453209Y486238D01*
X1451708Y488485D01*
Y498269D01*
X1471097D01*
Y506000D01*
X1491996D01*
X1494000Y505601D01*
X1501023Y506998D01*
X1506977Y510977D01*
X1510956Y516931D01*
X1512353Y523954D01*
X1510956Y530977D01*
X1506977Y536931D01*
X1501023Y540910D01*
X1494000Y542307D01*
X1487431Y541000D01*
X1471097D01*
Y549639D01*
X1458845D01*
Y574327D01*
X1457448Y581350D01*
X1453469Y587304D01*
X1447515Y591283D01*
X1440492Y592680D01*
X1433469Y591283D01*
X1427515Y587304D01*
X1423537Y581350D01*
X1422472Y576000D01*
X1410299D01*
Y619824D01*
X1505328D01*
X1585853Y539298D01*
Y327528D01*
X1489502Y231176D01*
X1407423D01*
X1403912Y230478D01*
X1400935Y228489D01*
X1371505Y199059D01*
X1329517D01*
X1326977Y202860D01*
X1321023Y206839D01*
X1314000Y208236D01*
X1306977Y206839D01*
X1301023Y202860D01*
X1297044Y196906D01*
X1295647Y189883D01*
X1297044Y182860D01*
X1301023Y176906D01*
X1305792Y173719D01*
X1306126Y172377D01*
Y169506D01*
X1305792Y168164D01*
X1301023Y164977D01*
X1297044Y159023D01*
X1295647Y152000D01*
X1297044Y144977D01*
X1301023Y139023D01*
X1306977Y135044D01*
X1314000Y133647D01*
X1321023Y135044D01*
X1326977Y139023D01*
X1329517Y142824D01*
X1341000D01*
Y129746D01*
X1340824Y128860D01*
Y86643D01*
X1340203Y86561D01*
X1331074Y82780D01*
X1323235Y76765D01*
X1317220Y68926D01*
X1313438Y59797D01*
X1312149Y50000D01*
X1313438Y40203D01*
X1317220Y31074D01*
X1323235Y23235D01*
X1331074Y17220D01*
X1340203Y13438D01*
X1350000Y12149D01*
X1359797Y13438D01*
X1368926Y17220D01*
X1376765Y23235D01*
X1382780Y31074D01*
X1386562Y40203D01*
X1387851Y50000D01*
X1386562Y59797D01*
X1382780Y68926D01*
X1376765Y76765D01*
X1368926Y82780D01*
X1359797Y86561D01*
X1359176Y86643D01*
Y125059D01*
X1396117Y162000D01*
X1408939D01*
X1409624Y161664D01*
X1413070Y157000D01*
X1412675Y154000D01*
X1450000D01*
X1487325D01*
X1486562Y159797D01*
X1482780Y168926D01*
X1480000Y172549D01*
Y188824D01*
X1503243D01*
X1506755Y189522D01*
X1509732Y191511D01*
X1625518Y307298D01*
X1627507Y310274D01*
X1628206Y313786D01*
Y553040D01*
X1627507Y556552D01*
X1625518Y559529D01*
X1525559Y659489D01*
X1522582Y661478D01*
X1519070Y662176D01*
X1394696D01*
X1391184Y661478D01*
X1388207Y659489D01*
X1363719Y635000D01*
X1351323D01*
Y812323D01*
X1359797Y813438D01*
X1368926Y817220D01*
X1376765Y823235D01*
X1382780Y831074D01*
X1386562Y840203D01*
X1387851Y850000D01*
X1386562Y859797D01*
X1382780Y868926D01*
X1376765Y876765D01*
X1368926Y882780D01*
X1359797Y886562D01*
X1350000Y887851D01*
D02*
G37*
G36*
X1750000D02*
X1740203Y886562D01*
X1731074Y882780D01*
X1723235Y876765D01*
X1717220Y868926D01*
X1713438Y859797D01*
X1712149Y850000D01*
X1713438Y840203D01*
X1717220Y831074D01*
X1723235Y823235D01*
X1731074Y817220D01*
X1740203Y813438D01*
X1750000Y812149D01*
X1759797Y813438D01*
X1768926Y817220D01*
X1776765Y823235D01*
X1782780Y831074D01*
X1786562Y840203D01*
X1787851Y850000D01*
X1786562Y859797D01*
X1782780Y868926D01*
X1776765Y876765D01*
X1768926Y882780D01*
X1759797Y886562D01*
X1750000Y887851D01*
D02*
G37*
G36*
X1650000D02*
X1640203Y886562D01*
X1631074Y882780D01*
X1623235Y876765D01*
X1617220Y868926D01*
X1613438Y859797D01*
X1612149Y850000D01*
X1613438Y840203D01*
X1617220Y831074D01*
X1623235Y823235D01*
X1631074Y817220D01*
X1640203Y813438D01*
X1650000Y812149D01*
X1659797Y813438D01*
X1668926Y817220D01*
X1676765Y823235D01*
X1682780Y831074D01*
X1686562Y840203D01*
X1687851Y850000D01*
X1686562Y859797D01*
X1682780Y868926D01*
X1676765Y876765D01*
X1668926Y882780D01*
X1659797Y886562D01*
X1650000Y887851D01*
D02*
G37*
G36*
X1550000D02*
X1540203Y886562D01*
X1531074Y882780D01*
X1523235Y876765D01*
X1517220Y868926D01*
X1513438Y859797D01*
X1512149Y850000D01*
X1513438Y840203D01*
X1517220Y831074D01*
X1523235Y823235D01*
X1531074Y817220D01*
X1540203Y813438D01*
X1550000Y812149D01*
X1559797Y813438D01*
X1568926Y817220D01*
X1576765Y823235D01*
X1582780Y831074D01*
X1586562Y840203D01*
X1587851Y850000D01*
X1586562Y859797D01*
X1582780Y868926D01*
X1576765Y876765D01*
X1568926Y882780D01*
X1559797Y886562D01*
X1550000Y887851D01*
D02*
G37*
G36*
X1450000D02*
X1440203Y886562D01*
X1431074Y882780D01*
X1423235Y876765D01*
X1417220Y868926D01*
X1413438Y859797D01*
X1412149Y850000D01*
X1413438Y840203D01*
X1417220Y831074D01*
X1423235Y823235D01*
X1431074Y817220D01*
X1440203Y813438D01*
X1450000Y812149D01*
X1459797Y813438D01*
X1468926Y817220D01*
X1476765Y823235D01*
X1482780Y831074D01*
X1486562Y840203D01*
X1487851Y850000D01*
X1486562Y859797D01*
X1482780Y868926D01*
X1476765Y876765D01*
X1468926Y882780D01*
X1459797Y886562D01*
X1450000Y887851D01*
D02*
G37*
G36*
X1150000D02*
X1140203Y886562D01*
X1131074Y882780D01*
X1123235Y876765D01*
X1117220Y868926D01*
X1113438Y859797D01*
X1112149Y850000D01*
X1113438Y840203D01*
X1117220Y831074D01*
X1123235Y823235D01*
X1131074Y817220D01*
X1140203Y813438D01*
X1150000Y812149D01*
X1159797Y813438D01*
X1168926Y817220D01*
X1176765Y823235D01*
X1182780Y831074D01*
X1186562Y840203D01*
X1187851Y850000D01*
X1186562Y859797D01*
X1182780Y868926D01*
X1176765Y876765D01*
X1168926Y882780D01*
X1159797Y886562D01*
X1150000Y887851D01*
D02*
G37*
G36*
X850000D02*
X840203Y886562D01*
X831074Y882780D01*
X823235Y876765D01*
X817220Y868926D01*
X813438Y859797D01*
X812149Y850000D01*
X813438Y840203D01*
X817220Y831074D01*
X823235Y823235D01*
X831074Y817220D01*
X840203Y813438D01*
X850000Y812149D01*
X859797Y813438D01*
X868926Y817220D01*
X876765Y823235D01*
X882780Y831074D01*
X886562Y840203D01*
X887851Y850000D01*
X886562Y859797D01*
X882780Y868926D01*
X876765Y876765D01*
X868926Y882780D01*
X859797Y886562D01*
X850000Y887851D01*
D02*
G37*
G36*
X750000D02*
X740203Y886562D01*
X731074Y882780D01*
X723235Y876765D01*
X717220Y868926D01*
X713438Y859797D01*
X712149Y850000D01*
X713438Y840203D01*
X717220Y831074D01*
X723235Y823235D01*
X731074Y817220D01*
X740203Y813438D01*
X750000Y812149D01*
X759797Y813438D01*
X768926Y817220D01*
X776765Y823235D01*
X782780Y831074D01*
X786562Y840203D01*
X787851Y850000D01*
X786562Y859797D01*
X782780Y868926D01*
X776765Y876765D01*
X768926Y882780D01*
X759797Y886562D01*
X750000Y887851D01*
D02*
G37*
G36*
X1904000Y872959D02*
Y804000D01*
X1972959D01*
X1971944Y814311D01*
X1967770Y828071D01*
X1960991Y840753D01*
X1951869Y851869D01*
X1940753Y860991D01*
X1928071Y867769D01*
X1914311Y871944D01*
X1904000Y872959D01*
D02*
G37*
G36*
X104000D02*
Y804000D01*
X172959D01*
X171944Y814311D01*
X167769Y828071D01*
X160991Y840753D01*
X151869Y851869D01*
X140753Y860991D01*
X128071Y867769D01*
X114311Y871944D01*
X104000Y872959D01*
D02*
G37*
G36*
X1896000D02*
X1885689Y871944D01*
X1871929Y867769D01*
X1859247Y860991D01*
X1848131Y851869D01*
X1839009Y840753D01*
X1832230Y828071D01*
X1828056Y814311D01*
X1827041Y804000D01*
X1896000D01*
Y872959D01*
D02*
G37*
G36*
X96000D02*
X85689Y871944D01*
X71929Y867769D01*
X59247Y860991D01*
X48132Y851869D01*
X39009Y840753D01*
X32230Y828071D01*
X28056Y814311D01*
X27041Y804000D01*
X96000D01*
Y872959D01*
D02*
G37*
G36*
X1972959Y796000D02*
X1904000D01*
Y727041D01*
X1914311Y728056D01*
X1928071Y732231D01*
X1940753Y739009D01*
X1951869Y748131D01*
X1960991Y759247D01*
X1967770Y771929D01*
X1971944Y785689D01*
X1972959Y796000D01*
D02*
G37*
G36*
X172959D02*
X104000D01*
Y727041D01*
X114311Y728056D01*
X128071Y732231D01*
X140753Y739009D01*
X151869Y748131D01*
X160991Y759247D01*
X167769Y771929D01*
X171944Y785689D01*
X172959Y796000D01*
D02*
G37*
G36*
X1896000D02*
X1827041D01*
X1828056Y785689D01*
X1832230Y771929D01*
X1839009Y759247D01*
X1848131Y748131D01*
X1859247Y739009D01*
X1871929Y732231D01*
X1885689Y728056D01*
X1896000Y727041D01*
Y796000D01*
D02*
G37*
G36*
X96000D02*
X27041D01*
X28056Y785689D01*
X32230Y771929D01*
X39009Y759247D01*
X48132Y748131D01*
X59247Y739009D01*
X71929Y732231D01*
X85689Y728056D01*
X96000Y727041D01*
Y796000D01*
D02*
G37*
G36*
X923192Y728438D02*
X863952D01*
Y637698D01*
X923192D01*
Y728438D01*
D02*
G37*
G36*
X196850Y719723D02*
X183798Y718004D01*
X171635Y712966D01*
X161190Y704952D01*
X153175Y694507D01*
X148137Y682344D01*
X146419Y669291D01*
X148137Y656239D01*
X153175Y644076D01*
X161190Y633631D01*
X171635Y625616D01*
X183798Y620578D01*
X196850Y618860D01*
X209903Y620578D01*
X222066Y625616D01*
X232511Y633631D01*
X240525Y644076D01*
X245563Y656239D01*
X247282Y669291D01*
X245563Y682344D01*
X240525Y694507D01*
X232511Y704952D01*
X222066Y712966D01*
X209903Y718004D01*
X196850Y719723D01*
D02*
G37*
G36*
X122638Y652344D02*
X104000D01*
Y618370D01*
X145847D01*
Y629134D01*
X144081Y638016D01*
X139049Y645546D01*
X131520Y650577D01*
X122638Y652344D01*
D02*
G37*
G36*
X96000D02*
X77362D01*
X68480Y650577D01*
X60950Y645546D01*
X55919Y638016D01*
X54153Y629134D01*
Y618370D01*
X96000D01*
Y652344D01*
D02*
G37*
G36*
X145847Y610370D02*
X104000D01*
Y576397D01*
X122638D01*
X131520Y578163D01*
X139049Y583195D01*
X144081Y590724D01*
X145847Y599606D01*
Y610370D01*
D02*
G37*
G36*
X96000D02*
X54153D01*
Y599606D01*
X55919Y590724D01*
X60950Y583195D01*
X68480Y578163D01*
X77362Y576397D01*
X96000D01*
Y610370D01*
D02*
G37*
G36*
X224016Y563537D02*
X222110D01*
Y541598D01*
X249428D01*
X249070Y544312D01*
X246479Y550568D01*
X242357Y555940D01*
X236985Y560062D01*
X230729Y562653D01*
X224016Y563537D01*
D02*
G37*
G36*
X214110D02*
X212205D01*
X205491Y562653D01*
X199236Y560062D01*
X193863Y555940D01*
X189741Y550568D01*
X187150Y544312D01*
X186793Y541598D01*
X214110D01*
Y563537D01*
D02*
G37*
G36*
X1885847Y621402D02*
X1871537Y619992D01*
X1857776Y615818D01*
X1845094Y609039D01*
X1833979Y599917D01*
X1824856Y588801D01*
X1818078Y576120D01*
X1813903Y562359D01*
X1812494Y548048D01*
X1813903Y533738D01*
X1818078Y519977D01*
X1824856Y507296D01*
X1833979Y496180D01*
X1845094Y487057D01*
X1857776Y480279D01*
X1871537Y476105D01*
X1885847Y474695D01*
X1900158Y476105D01*
X1913918Y480279D01*
X1926600Y487057D01*
X1937716Y496180D01*
X1946838Y507296D01*
X1953617Y519977D01*
X1957791Y533738D01*
X1959200Y548048D01*
X1957791Y562359D01*
X1953617Y576120D01*
X1946838Y588801D01*
X1937716Y599917D01*
X1926600Y609039D01*
X1913918Y615818D01*
X1900158Y619992D01*
X1885847Y621402D01*
D02*
G37*
G36*
X650000Y420196D02*
X535000D01*
X531098Y419420D01*
X527790Y417210D01*
X525580Y413902D01*
X524804Y410000D01*
Y405000D01*
X509333D01*
X505267Y407717D01*
X501008Y408564D01*
Y410996D01*
X437008D01*
Y378996D01*
X496538D01*
X500421Y375113D01*
Y346663D01*
X492438D01*
Y285663D01*
X535934D01*
Y346663D01*
X527950D01*
Y352128D01*
X532950Y355212D01*
X535000Y354804D01*
X650000D01*
X653902Y355580D01*
X657210Y357790D01*
X659420Y361098D01*
X660196Y365000D01*
Y410000D01*
X659420Y413902D01*
X657210Y417210D01*
X653902Y419420D01*
X650000Y420196D01*
D02*
G37*
G36*
X224016Y388340D02*
X222110D01*
Y366402D01*
X249428D01*
X249070Y369115D01*
X246479Y375371D01*
X242357Y380743D01*
X236985Y384865D01*
X230729Y387456D01*
X224016Y388340D01*
D02*
G37*
G36*
X214110D02*
X212205D01*
X205491Y387456D01*
X199236Y384865D01*
X193863Y380743D01*
X189741Y375371D01*
X187150Y369115D01*
X186793Y366402D01*
X214110D01*
Y388340D01*
D02*
G37*
G36*
X249428Y358402D02*
X222110D01*
Y336463D01*
X224016D01*
X230729Y337347D01*
X236985Y339938D01*
X242357Y344060D01*
X246479Y349432D01*
X249070Y355688D01*
X249428Y358402D01*
D02*
G37*
G36*
X214110D02*
X186793D01*
X187150Y355688D01*
X189741Y349432D01*
X193863Y344060D01*
X199236Y339938D01*
X205491Y337347D01*
X212205Y336463D01*
X214110D01*
Y358402D01*
D02*
G37*
G36*
X122638Y323603D02*
X104000D01*
Y289630D01*
X145847D01*
Y300394D01*
X144081Y309276D01*
X139049Y316805D01*
X131520Y321837D01*
X122638Y323603D01*
D02*
G37*
G36*
X96000D02*
X77362D01*
X68480Y321837D01*
X60950Y316805D01*
X55919Y309276D01*
X54153Y300394D01*
Y289630D01*
X96000D01*
Y323603D01*
D02*
G37*
G36*
X145847Y281630D02*
X104000D01*
Y247656D01*
X122638D01*
X131520Y249423D01*
X139049Y254454D01*
X144081Y261984D01*
X145847Y270866D01*
Y281630D01*
D02*
G37*
G36*
X96000D02*
X54153D01*
Y270866D01*
X55919Y261984D01*
X60950Y254454D01*
X68480Y249423D01*
X77362Y247656D01*
X96000D01*
Y281630D01*
D02*
G37*
G36*
X1909612Y346605D02*
X1896560Y344886D01*
X1884397Y339848D01*
X1873952Y331834D01*
X1865937Y321389D01*
X1860899Y309226D01*
X1859181Y296173D01*
X1860899Y283121D01*
X1865937Y270958D01*
X1873952Y260513D01*
X1884397Y252499D01*
X1896560Y247460D01*
X1909612Y245742D01*
X1922665Y247460D01*
X1934828Y252499D01*
X1945273Y260513D01*
X1953287Y270958D01*
X1958325Y283121D01*
X1960044Y296173D01*
X1958325Y309226D01*
X1953287Y321389D01*
X1945273Y331834D01*
X1934828Y339848D01*
X1922665Y344886D01*
X1909612Y346605D01*
D02*
G37*
G36*
X332630Y283803D02*
X275354D01*
Y242276D01*
X332630D01*
Y283803D01*
D02*
G37*
G36*
X196850Y280544D02*
X183798Y278826D01*
X171635Y273788D01*
X161190Y265773D01*
X153175Y255328D01*
X148137Y243165D01*
X146419Y230113D01*
X148137Y217060D01*
X153175Y204897D01*
X161190Y194452D01*
X171635Y186438D01*
X183798Y181400D01*
X196850Y179681D01*
X209903Y181400D01*
X222066Y186438D01*
X232511Y194452D01*
X240525Y204897D01*
X245563Y217060D01*
X247282Y230113D01*
X245563Y243165D01*
X240525Y255328D01*
X232511Y265773D01*
X222066Y273788D01*
X209903Y278826D01*
X196850Y280544D01*
D02*
G37*
G36*
X582978Y214902D02*
X550978D01*
Y150902D01*
X582978D01*
Y214902D01*
D02*
G37*
G36*
X332630Y163724D02*
X275354D01*
Y122197D01*
X332630D01*
Y163724D01*
D02*
G37*
G36*
X1487325Y146000D02*
X1454000D01*
Y112675D01*
X1459797Y113439D01*
X1468926Y117220D01*
X1476765Y123235D01*
X1482780Y131074D01*
X1486562Y140203D01*
X1487325Y146000D01*
D02*
G37*
G36*
X1446000D02*
X1412675D01*
X1413438Y140203D01*
X1417220Y131074D01*
X1423235Y123235D01*
X1431074Y117220D01*
X1440203Y113439D01*
X1446000Y112675D01*
Y146000D01*
D02*
G37*
G36*
X1787527Y187528D02*
X1712473D01*
Y112472D01*
X1787527D01*
Y187528D01*
D02*
G37*
G36*
X1650000Y187851D02*
X1640203Y186561D01*
X1631074Y182780D01*
X1623235Y176765D01*
X1617220Y168926D01*
X1613438Y159797D01*
X1612149Y150000D01*
X1613438Y140203D01*
X1617220Y131074D01*
X1623235Y123235D01*
X1631074Y117220D01*
X1640203Y113439D01*
X1650000Y112149D01*
X1659797Y113439D01*
X1668926Y117220D01*
X1676765Y123235D01*
X1682780Y131074D01*
X1686562Y140203D01*
X1687851Y150000D01*
X1686562Y159797D01*
X1682780Y168926D01*
X1676765Y176765D01*
X1668926Y182780D01*
X1659797Y186561D01*
X1650000Y187851D01*
D02*
G37*
G36*
X1550000D02*
X1540203Y186561D01*
X1531074Y182780D01*
X1523235Y176765D01*
X1517220Y168926D01*
X1513438Y159797D01*
X1512149Y150000D01*
X1513438Y140203D01*
X1517220Y131074D01*
X1523235Y123235D01*
X1531074Y117220D01*
X1540203Y113439D01*
X1550000Y112149D01*
X1559797Y113439D01*
X1568926Y117220D01*
X1576765Y123235D01*
X1582780Y131074D01*
X1586562Y140203D01*
X1587851Y150000D01*
X1586562Y159797D01*
X1582780Y168926D01*
X1576765Y176765D01*
X1568926Y182780D01*
X1559797Y186561D01*
X1550000Y187851D01*
D02*
G37*
G36*
X1904000Y172959D02*
Y104000D01*
X1972959D01*
X1971944Y114311D01*
X1967770Y128071D01*
X1960991Y140753D01*
X1951869Y151869D01*
X1940753Y160991D01*
X1928071Y167769D01*
X1914311Y171944D01*
X1904000Y172959D01*
D02*
G37*
G36*
X104000D02*
Y104000D01*
X172959D01*
X171944Y114311D01*
X167769Y128071D01*
X160991Y140753D01*
X151869Y151869D01*
X140753Y160991D01*
X128071Y167769D01*
X114311Y171944D01*
X104000Y172959D01*
D02*
G37*
G36*
X1896000D02*
X1885689Y171944D01*
X1871929Y167769D01*
X1859247Y160991D01*
X1848131Y151869D01*
X1839009Y140753D01*
X1832230Y128071D01*
X1828056Y114311D01*
X1827041Y104000D01*
X1896000D01*
Y172959D01*
D02*
G37*
G36*
X96000D02*
X85689Y171944D01*
X71929Y167769D01*
X59247Y160991D01*
X48132Y151869D01*
X39009Y140753D01*
X32230Y128071D01*
X28056Y114311D01*
X27041Y104000D01*
X96000D01*
Y172959D01*
D02*
G37*
G36*
X1787527Y87528D02*
X1754000D01*
Y54000D01*
X1787527D01*
Y87528D01*
D02*
G37*
G36*
X1746000D02*
X1712473D01*
Y54000D01*
X1746000D01*
Y87528D01*
D02*
G37*
G36*
X1972959Y96000D02*
X1904000D01*
Y27041D01*
X1914311Y28056D01*
X1928071Y32230D01*
X1940753Y39009D01*
X1951869Y48132D01*
X1960991Y59247D01*
X1967770Y71929D01*
X1971944Y85689D01*
X1972959Y96000D01*
D02*
G37*
G36*
X172959D02*
X104000D01*
Y27041D01*
X114311Y28056D01*
X128071Y32230D01*
X140753Y39009D01*
X151869Y48132D01*
X160991Y59247D01*
X167769Y71929D01*
X171944Y85689D01*
X172959Y96000D01*
D02*
G37*
G36*
X96000D02*
X27041D01*
X28056Y85689D01*
X32230Y71929D01*
X39009Y59247D01*
X48132Y48132D01*
X59247Y39009D01*
X71929Y32230D01*
X85689Y28056D01*
X96000Y27041D01*
Y96000D01*
D02*
G37*
G36*
X1896000D02*
X1827041D01*
X1828056Y85689D01*
X1832230Y71929D01*
X1839009Y59247D01*
X1848131Y48132D01*
X1859247Y39009D01*
X1871929Y32230D01*
X1885689Y28056D01*
X1896000Y27041D01*
Y96000D01*
D02*
G37*
G36*
X587325Y46000D02*
X554000D01*
Y12675D01*
X559797Y13438D01*
X568926Y17220D01*
X576765Y23235D01*
X582780Y31074D01*
X586562Y40203D01*
X587325Y46000D01*
D02*
G37*
G36*
X546000D02*
X512675D01*
X513438Y40203D01*
X517220Y31074D01*
X523235Y23235D01*
X531074Y17220D01*
X540203Y13438D01*
X546000Y12675D01*
Y46000D01*
D02*
G37*
G36*
X1787527D02*
X1754000D01*
Y12473D01*
X1787527D01*
Y46000D01*
D02*
G37*
G36*
X1746000D02*
X1712473D01*
Y12473D01*
X1746000D01*
Y46000D01*
D02*
G37*
G36*
X1650000Y87851D02*
X1640203Y86561D01*
X1631074Y82780D01*
X1623235Y76765D01*
X1617220Y68926D01*
X1613438Y59797D01*
X1612149Y50000D01*
X1613438Y40203D01*
X1617220Y31074D01*
X1623235Y23235D01*
X1631074Y17220D01*
X1640203Y13438D01*
X1650000Y12149D01*
X1659797Y13438D01*
X1668926Y17220D01*
X1676765Y23235D01*
X1682780Y31074D01*
X1686562Y40203D01*
X1687851Y50000D01*
X1686562Y59797D01*
X1682780Y68926D01*
X1676765Y76765D01*
X1668926Y82780D01*
X1659797Y86561D01*
X1650000Y87851D01*
D02*
G37*
G36*
X1550000D02*
X1540203Y86561D01*
X1531074Y82780D01*
X1523235Y76765D01*
X1517220Y68926D01*
X1513438Y59797D01*
X1512149Y50000D01*
X1513438Y40203D01*
X1517220Y31074D01*
X1523235Y23235D01*
X1531074Y17220D01*
X1540203Y13438D01*
X1550000Y12149D01*
X1559797Y13438D01*
X1568926Y17220D01*
X1576765Y23235D01*
X1582780Y31074D01*
X1586562Y40203D01*
X1587851Y50000D01*
X1586562Y59797D01*
X1582780Y68926D01*
X1576765Y76765D01*
X1568926Y82780D01*
X1559797Y86561D01*
X1550000Y87851D01*
D02*
G37*
G36*
X1450000D02*
X1440203Y86561D01*
X1431074Y82780D01*
X1423235Y76765D01*
X1417220Y68926D01*
X1413438Y59797D01*
X1412149Y50000D01*
X1413438Y40203D01*
X1417220Y31074D01*
X1423235Y23235D01*
X1431074Y17220D01*
X1440203Y13438D01*
X1450000Y12149D01*
X1459797Y13438D01*
X1468926Y17220D01*
X1476765Y23235D01*
X1482780Y31074D01*
X1486562Y40203D01*
X1487851Y50000D01*
X1486562Y59797D01*
X1482780Y68926D01*
X1476765Y76765D01*
X1468926Y82780D01*
X1459797Y86561D01*
X1450000Y87851D01*
D02*
G37*
G36*
X1210847Y231402D02*
X1196537Y229992D01*
X1182776Y225818D01*
X1170094Y219039D01*
X1158979Y209917D01*
X1149856Y198801D01*
X1143078Y186119D01*
X1138903Y172359D01*
X1137494Y158048D01*
X1138903Y143738D01*
X1143078Y129977D01*
X1149856Y117296D01*
X1158979Y106180D01*
X1170094Y97057D01*
X1182776Y90279D01*
X1196537Y86105D01*
X1210847Y84695D01*
X1225158Y86105D01*
X1229045Y87284D01*
X1231074Y82780D01*
X1223235Y76765D01*
X1217220Y68926D01*
X1213438Y59797D01*
X1212149Y50000D01*
X1213438Y40203D01*
X1217220Y31074D01*
X1223235Y23235D01*
X1231074Y17220D01*
X1240203Y13438D01*
X1250000Y12149D01*
X1259797Y13438D01*
X1268926Y17220D01*
X1276765Y23235D01*
X1282780Y31074D01*
X1286562Y40203D01*
X1287851Y50000D01*
X1286562Y59797D01*
X1282780Y68926D01*
X1276765Y76765D01*
X1268926Y82780D01*
X1259797Y86561D01*
X1250000Y87851D01*
X1243344Y86975D01*
X1241789Y91814D01*
X1251600Y97057D01*
X1262716Y106180D01*
X1271838Y117296D01*
X1278617Y129977D01*
X1282791Y143738D01*
X1284200Y158048D01*
X1282791Y172359D01*
X1278617Y186119D01*
X1271838Y198801D01*
X1262716Y209917D01*
X1251600Y219039D01*
X1238918Y225818D01*
X1225158Y229992D01*
X1210847Y231402D01*
D02*
G37*
G36*
X1150000Y87851D02*
X1140203Y86561D01*
X1131074Y82780D01*
X1123235Y76765D01*
X1117220Y68926D01*
X1113438Y59797D01*
X1112149Y50000D01*
X1113438Y40203D01*
X1117220Y31074D01*
X1123235Y23235D01*
X1131074Y17220D01*
X1140203Y13438D01*
X1150000Y12149D01*
X1159797Y13438D01*
X1168926Y17220D01*
X1176765Y23235D01*
X1182780Y31074D01*
X1186562Y40203D01*
X1187851Y50000D01*
X1186562Y59797D01*
X1182780Y68926D01*
X1176765Y76765D01*
X1168926Y82780D01*
X1159797Y86561D01*
X1150000Y87851D01*
D02*
G37*
G36*
X1050000D02*
X1040203Y86561D01*
X1031074Y82780D01*
X1023235Y76765D01*
X1017220Y68926D01*
X1013438Y59797D01*
X1012149Y50000D01*
X1013438Y40203D01*
X1017220Y31074D01*
X1023235Y23235D01*
X1031074Y17220D01*
X1040203Y13438D01*
X1050000Y12149D01*
X1059797Y13438D01*
X1068926Y17220D01*
X1076765Y23235D01*
X1082780Y31074D01*
X1086562Y40203D01*
X1087851Y50000D01*
X1086562Y59797D01*
X1082780Y68926D01*
X1076765Y76765D01*
X1068926Y82780D01*
X1059797Y86561D01*
X1050000Y87851D01*
D02*
G37*
%LPD*%
G36*
X1123478Y746544D02*
Y644529D01*
X1111831D01*
Y666385D01*
X1111133Y669896D01*
X1109143Y672873D01*
X1082546Y699471D01*
X1079569Y701460D01*
X1076057Y702159D01*
X1016645D01*
Y714731D01*
X1012510D01*
Y726297D01*
X1016074Y728678D01*
X1018531Y732356D01*
X1019394Y736694D01*
Y750080D01*
X1018531Y754418D01*
X1017992Y755224D01*
X1015630Y759246D01*
Y764239D01*
X1016311Y764694D01*
X1020289Y770648D01*
X1021686Y777671D01*
X1020289Y784694D01*
X1016311Y790648D01*
X1015630Y791103D01*
Y797824D01*
X1072199D01*
X1123478Y746544D01*
D02*
G37*
G36*
X908139Y593326D02*
X910361Y590476D01*
X908141Y586499D01*
X895780Y574138D01*
X893791Y571161D01*
X893092Y567649D01*
Y493542D01*
X884314Y484764D01*
X843976D01*
Y484330D01*
X819151D01*
X817657Y486567D01*
X814370Y488763D01*
X810493Y489535D01*
X796000D01*
Y505803D01*
X820832D01*
Y570953D01*
X816776D01*
Y577218D01*
X819956Y581977D01*
X821353Y589000D01*
X819956Y596023D01*
X818084Y598824D01*
X820757Y603824D01*
X897642D01*
X908139Y593326D01*
D02*
G37*
G36*
X1181448Y569590D02*
X1180780Y568589D01*
X1179383Y561566D01*
X1180780Y554543D01*
X1184758Y548589D01*
X1190712Y544611D01*
X1197735Y543214D01*
X1204758Y544611D01*
X1208037Y546801D01*
X1213037Y544129D01*
Y498269D01*
X1281055D01*
X1283623Y493269D01*
X1281044Y489410D01*
X1279647Y482387D01*
X1281044Y475364D01*
X1281564Y474586D01*
X1279207Y470176D01*
X1180801D01*
X1176461Y474517D01*
X1177353Y479000D01*
X1175956Y486023D01*
X1171977Y491977D01*
X1166023Y495956D01*
X1159000Y497353D01*
X1151977Y495956D01*
X1146023Y491977D01*
X1142044Y486023D01*
X1140647Y479000D01*
X1142044Y471977D01*
X1138106Y468871D01*
X1125489Y481489D01*
X1122512Y483478D01*
X1119000Y484176D01*
X1006024D01*
Y484764D01*
X970063D01*
X968942Y490401D01*
X964963Y496355D01*
X959009Y500334D01*
X951986Y501731D01*
X944963Y500334D01*
X939009Y496355D01*
X935030Y490401D01*
X933633Y483378D01*
X935030Y476355D01*
X939009Y470401D01*
Y466355D01*
X935030Y460401D01*
X933633Y453378D01*
X935030Y446355D01*
X939009Y440401D01*
X944963Y436423D01*
X951986Y435026D01*
X952000Y435014D01*
Y435000D01*
X964276D01*
Y425551D01*
X967000D01*
Y363499D01*
X962705Y359204D01*
X882000D01*
Y389000D01*
X881797D01*
X880963Y393195D01*
X879000Y396133D01*
Y425551D01*
X885724D01*
Y465666D01*
X887370D01*
X890882Y466365D01*
X893859Y468354D01*
X908757Y483252D01*
X910746Y486229D01*
X911445Y489741D01*
Y563848D01*
X921420Y573824D01*
X1170000D01*
X1170886Y574000D01*
X1179091D01*
X1181448Y569590D01*
D02*
G37*
G36*
X1213037Y352024D02*
X1211000Y350353D01*
X1203977Y348956D01*
X1198023Y344977D01*
X1194044Y339023D01*
X1192647Y332000D01*
X1194044Y324977D01*
X1196584Y321176D01*
X1193968Y316176D01*
X1102000D01*
Y330993D01*
X1162830Y391824D01*
X1213037D01*
Y352024D01*
D02*
G37*
G36*
X725000Y272000D02*
X677000D01*
X655000Y250000D01*
X630000D01*
Y320000D01*
X670000D01*
X680000Y330000D01*
Y455000D01*
X725000D01*
X725000Y272000D01*
D02*
G37*
G36*
X1017000Y204200D02*
X1019800Y203200D01*
X1025200Y199900D01*
X1028400Y196600D01*
X1030665Y192987D01*
X1031900Y189000D01*
X1031200Y187000D01*
X992949Y187000D01*
X992026Y187950D01*
X993814Y193460D01*
X995500Y196000D01*
X998400Y198900D01*
X1000700Y201000D01*
X1004600Y203300D01*
X1008300Y204400D01*
X1017000Y204200D01*
D02*
G37*
G36*
X846000D02*
X848800Y203200D01*
X854200Y199900D01*
X857400Y196600D01*
X859665Y192987D01*
X860900Y189000D01*
X860200Y187000D01*
X821949Y187000D01*
X821026Y187950D01*
X822814Y193460D01*
X824500Y196000D01*
X827400Y198900D01*
X829700Y201000D01*
X833600Y203300D01*
X837300Y204400D01*
X846000Y204200D01*
D02*
G37*
G36*
X960000Y204600D02*
X962800Y203600D01*
X968200Y200300D01*
X971400Y197000D01*
X973665Y193387D01*
X974900Y189400D01*
X974200Y187400D01*
X972129Y186222D01*
X938192D01*
X935300Y189200D01*
X936814Y193860D01*
X938500Y196400D01*
X941400Y199300D01*
X943700Y201400D01*
X947600Y203700D01*
X951300Y204800D01*
X960000Y204600D01*
D02*
G37*
G36*
X903000Y204200D02*
X905800Y203200D01*
X911200Y199900D01*
X914400Y196600D01*
X916665Y192987D01*
X917900Y189000D01*
X917200Y187000D01*
X915129Y185822D01*
X881192D01*
X878300Y188800D01*
X879814Y193460D01*
X881500Y196000D01*
X884400Y198900D01*
X886700Y201000D01*
X890600Y203300D01*
X894300Y204400D01*
X903000Y204200D01*
D02*
G37*
G36*
X1110000Y285466D02*
X1065610Y241076D01*
X1059977Y239956D01*
X1054023Y235977D01*
X1050044Y230023D01*
X1048647Y223000D01*
X1050044Y215977D01*
X1054023Y210023D01*
X1059977Y206044D01*
X1067000Y204647D01*
X1074023Y206044D01*
X1079977Y210023D01*
X1083956Y215977D01*
X1085076Y221610D01*
X1134701Y271236D01*
X1155000D01*
Y263100D01*
X1023213Y131314D01*
X968925D01*
Y147804D01*
X975000D01*
X978902Y148580D01*
X982210Y150790D01*
X984420Y154098D01*
X985196Y158000D01*
Y174125D01*
X987655Y176451D01*
X988413Y176901D01*
X989262Y177144D01*
X990196Y177351D01*
X990929Y177205D01*
X992587Y176850D01*
X993200Y178600D01*
X1031454Y178598D01*
X1032375Y177650D01*
X1032136Y176914D01*
X1033428Y177247D01*
X1035102Y177580D01*
X1035342Y177741D01*
X1035623Y177813D01*
X1036989Y178841D01*
X1038410Y179791D01*
X1038571Y180031D01*
X1038802Y180205D01*
X1039670Y181677D01*
X1040620Y183098D01*
X1040676Y183382D01*
X1040823Y183632D01*
X1041161Y184596D01*
X1041819Y185580D01*
X1042672Y189872D01*
X1042080Y192852D01*
X1042261Y192903D01*
X1039278Y200104D01*
X1034310Y206580D01*
X1027834Y211549D01*
X1021376Y214223D01*
Y233399D01*
X1085801Y297824D01*
X1110000D01*
Y285466D01*
D02*
G37*
G36*
X860454Y178598D02*
X861375Y177650D01*
X859586Y172140D01*
X857900Y169600D01*
X855000Y166700D01*
X852700Y164600D01*
X848800Y162300D01*
X845100Y161200D01*
X836400Y161400D01*
X833600Y162400D01*
X828200Y165700D01*
X825000Y169000D01*
X822735Y172613D01*
X821500Y176600D01*
X822200Y178600D01*
X860454Y178598D01*
D02*
G37*
G36*
X975100Y175200D02*
X973586Y170540D01*
X971900Y168000D01*
X969000Y165100D01*
X966700Y163000D01*
X962800Y160700D01*
X959100Y159600D01*
X950400Y159800D01*
X947600Y160800D01*
X942200Y164100D01*
X939000Y167400D01*
X936735Y171013D01*
X935500Y175000D01*
X936200Y177000D01*
X938271Y178178D01*
X972208D01*
X975100Y175200D01*
D02*
G37*
G36*
X918100Y174800D02*
X916586Y170140D01*
X914900Y167600D01*
X912000Y164700D01*
X909700Y162600D01*
X905800Y160300D01*
X902100Y159200D01*
X893400Y159400D01*
X890600Y160400D01*
X885200Y163700D01*
X882000Y167000D01*
X879735Y170613D01*
X878500Y174600D01*
X879200Y176600D01*
X881271Y177778D01*
X915208D01*
X918100Y174800D01*
D02*
G37*
G36*
X685000Y105000D02*
X610000D01*
Y225000D01*
X685000D01*
Y105000D01*
D02*
G37*
D10*
X938250Y175178D02*
G03*
X972150Y175178I16950J4352D01*
G01*
Y189222D02*
G03*
X938250Y189222I-16950J-4352D01*
G01*
X881250Y174778D02*
G03*
X915150Y174778I16950J4352D01*
G01*
Y188822D02*
G03*
X881250Y188822I-16950J-4352D01*
G01*
D11*
X860457Y189872D02*
G03*
X858141Y195100I-19257J-5402D01*
G01*
D02*
G03*
X821943Y189872I-16941J-10630D01*
G01*
X841200Y161130D02*
G03*
X860457Y175728I0J20000D01*
G01*
X821943D02*
G03*
X841200Y161130I19257J5402D01*
G01*
X1031457Y189872D02*
G03*
X1012200Y204470I-19257J-5402D01*
G01*
D02*
G03*
X992943Y189872I0J-20000D01*
G01*
X1029141Y170500D02*
G03*
X1031457Y175728I-16941J10630D01*
G01*
X1012200Y161130D02*
G03*
X1029141Y170500I0J20000D01*
G01*
X992943Y175728D02*
G03*
X1012200Y161130I19257J5402D01*
G01*
X796047Y387549D02*
X798841Y390343D01*
Y409680D01*
X801635Y412474D01*
X742000Y613000D02*
X901443D01*
X724272Y538378D02*
Y595272D01*
X742000Y613000D01*
X917074Y597368D02*
X1167398D01*
X901443Y613000D02*
X917074Y597368D01*
X1167398D02*
X1197000Y626971D01*
X802000Y115000D02*
X823000Y94000D01*
X906000D01*
X802000Y115000D02*
Y220855D01*
X790000Y110000D02*
X850000Y50000D01*
X790000Y225826D02*
X861174Y297000D01*
X850000Y50000D02*
Y50000D01*
X790000Y110000D02*
Y225826D01*
X906000Y94000D02*
X950000Y50000D01*
X514053Y127915D02*
X514186D01*
X503139Y117000D02*
X514053Y127915D01*
X356082Y117000D02*
X503139D01*
X650000Y50000D02*
X689000D01*
X766000Y127000D02*
Y235767D01*
X689000Y50000D02*
X766000Y127000D01*
X1012200Y204470D02*
Y237200D01*
X1082000Y307000D01*
X1383000D01*
X866145Y285000D02*
X1043030D01*
X1159030Y401000D01*
X1298000D01*
X778000Y230796D02*
X856204Y309000D01*
X851233Y321000D02*
X1028000D01*
X1033000Y309000D02*
X1149000Y425000D01*
X861174Y297000D02*
X1038000D01*
X1028000Y321000D02*
X1144000Y437000D01*
X856204Y309000D02*
X1033000D01*
X1038000Y297000D02*
X1086440Y345440D01*
X802000Y220855D02*
X866145Y285000D01*
X766000Y235767D02*
X851233Y321000D01*
X750000Y50000D02*
X778000Y78000D01*
Y230796D01*
X1012200Y195100D02*
Y204470D01*
X1314000Y189883D02*
X1375306D01*
X1407423Y222000D01*
X1493302D01*
X1412394Y210000D02*
X1498273D01*
X1314000Y152000D02*
X1354394D01*
X1412394Y210000D01*
X1493302Y222000D02*
X1595030Y323727D01*
X1394696Y653000D02*
X1519070D01*
X1399667Y641000D02*
X1514100D01*
X1350000Y128860D02*
X1419140Y198000D01*
X1619030Y313786D02*
Y553040D01*
X1503243Y198000D02*
X1619030Y313786D01*
X1419140Y198000D02*
X1503243D01*
X1607030Y318757D02*
Y548070D01*
X1498273Y210000D02*
X1607030Y318757D01*
X1514100Y641000D02*
X1607030Y548070D01*
X1519070Y653000D02*
X1619030Y553040D01*
X1350000Y50000D02*
Y128860D01*
X1420807Y344807D02*
Y370411D01*
X1383000Y307000D02*
X1420807Y344807D01*
X1226000Y639000D02*
Y734000D01*
X1170000Y583000D02*
X1226000Y639000D01*
X1197000Y626971D02*
Y758000D01*
X1250000Y644000D02*
Y850000D01*
X1203000Y597000D02*
X1250000Y644000D01*
X1280000Y653000D02*
Y783000D01*
X1224000Y597000D02*
X1280000Y653000D01*
X1312485Y593294D02*
Y810515D01*
X1283012Y563821D02*
X1312485Y593294D01*
X1312000Y811000D02*
X1312485Y810515D01*
X1132655Y622116D02*
Y750345D01*
X1263327Y574327D02*
X1289000Y600000D01*
X1243642Y584642D02*
X1289000Y630000D01*
X1401122Y625485D02*
X1404637Y629000D01*
X1401122Y523954D02*
Y625485D01*
X1003334Y743387D02*
Y777671D01*
X993000Y807000D02*
X1076000D01*
X1132655Y750345D01*
X1050000Y850000D02*
X1163738Y736262D01*
Y623407D02*
X1163738Y623407D01*
X1163738Y623407D02*
Y736262D01*
X950000Y850000D02*
X993000Y807000D01*
X1177000Y461000D02*
X1336000D01*
X1159000Y479000D02*
X1177000Y461000D01*
X1203000Y565081D02*
Y597000D01*
X1197735Y561566D02*
X1201250Y565081D01*
X1203000D01*
X1224000Y523997D02*
Y597000D01*
X1223957Y523954D02*
X1224000Y523997D01*
X990586Y692982D02*
X1076057D01*
X986145D02*
X990586D01*
X1102655Y622116D02*
Y666385D01*
X1076057Y692982D02*
X1102655Y666385D01*
X917619Y583000D02*
X1170000D01*
X1301000Y332000D02*
Y332001D01*
X1284932Y348069D02*
Y368491D01*
Y348069D02*
X1301000Y332001D01*
X1283012Y370411D02*
X1284932Y368491D01*
X1241000Y332000D02*
X1243642Y334642D01*
Y370411D01*
X1223957Y344957D02*
Y370411D01*
X1211000Y332000D02*
X1223957Y344957D01*
X1263327Y343830D02*
Y370411D01*
Y343830D02*
X1271000Y336157D01*
Y332000D02*
Y336157D01*
X1595030Y323727D02*
Y543100D01*
X1509129Y629000D02*
X1595030Y543100D01*
X1404637Y629000D02*
X1509129D01*
X1361752Y523954D02*
Y620056D01*
X1394696Y653000D01*
X1381437Y523954D02*
Y622771D01*
X1399667Y641000D01*
X1086440Y345440D02*
Y345440D01*
X1154000Y413000D01*
X1305000D01*
X1108842Y455158D02*
X1120000Y444000D01*
X1149000Y425000D02*
X1313000D01*
X1144000Y437000D02*
X1321000D01*
X985150Y455158D02*
X1108842D01*
X1145000Y449000D02*
X1328000D01*
X1119000Y475000D02*
X1145000Y449000D01*
X985307Y475000D02*
X1119000D01*
X289082Y50000D02*
X356082Y117000D01*
X250000Y50000D02*
Y193000D01*
X260000Y203000D02*
X284307D01*
X250000Y193000D02*
X260000Y203000D01*
X250000Y50000D02*
X289082D01*
X864850Y474842D02*
X887370D01*
X902269Y489741D02*
Y567649D01*
X887370Y474842D02*
X902269Y489741D01*
Y567649D02*
X917619Y583000D01*
X797025Y475154D02*
X864539D01*
X1003334Y705731D02*
Y743387D01*
X990586Y692982D02*
X1003334Y705731D01*
X1243642Y523954D02*
Y584642D01*
X1263327Y523954D02*
Y574327D01*
X1283012Y523954D02*
Y563821D01*
X1342147Y524034D02*
Y842147D01*
X1342067Y523954D02*
X1342147Y524034D01*
X1336000Y461000D02*
X1401122Y395878D01*
Y370411D02*
Y395878D01*
X1381419Y370428D02*
Y395581D01*
X1328000Y449000D02*
X1381419Y395581D01*
Y370428D02*
X1381437Y370411D01*
X1321000Y437000D02*
X1361752Y396248D01*
Y370411D02*
Y396248D01*
X1298000Y482387D02*
Y487258D01*
X1302697Y491955D02*
Y523954D01*
X1298000Y487258D02*
X1302697Y491955D01*
X1322382Y488005D02*
Y523954D01*
Y488005D02*
X1328000Y482387D01*
X1313000Y425000D02*
X1342067Y395933D01*
X1305000Y413000D02*
X1322382Y395618D01*
X1298000Y401000D02*
X1302697Y396303D01*
X953765Y455158D02*
X985150D01*
Y474842D02*
X985307Y475000D01*
X1342067Y370411D02*
Y395933D01*
X1322382Y370411D02*
Y395618D01*
X1302697Y370411D02*
Y396303D01*
X1342147Y842147D02*
X1350000Y850000D01*
X820643Y431222D02*
X829312Y422553D01*
X833158D01*
X951986Y453378D02*
X953765Y455158D01*
X963816Y474842D02*
X985150D01*
X955280Y483378D02*
X963816Y474842D01*
X951986Y483378D02*
X955280D01*
X804540Y431222D02*
X820643D01*
X801635Y434127D02*
X804540Y431222D01*
X831906Y453906D02*
X833158Y455158D01*
X864850D01*
X801635Y453812D02*
X801728Y453906D01*
X831906D01*
X864539Y475154D02*
X864850Y474842D01*
X763642Y508537D02*
X797025Y475154D01*
X763642Y508537D02*
Y538378D01*
D12*
X704466Y251454D02*
D03*
Y284918D02*
D03*
X548245Y436899D02*
D03*
Y470363D02*
D03*
X297177Y501380D02*
D03*
Y534845D02*
D03*
D13*
X589125Y129191D02*
D03*
X622590D02*
D03*
X864040Y381868D02*
D03*
X897505D02*
D03*
X951986D02*
D03*
X985451D02*
D03*
D14*
X514186Y316163D02*
D03*
X443320D02*
D03*
D15*
X629030Y389092D02*
D03*
Y469801D02*
D03*
X703439Y429447D02*
D03*
D16*
X1322382Y523954D02*
D03*
X1184587D02*
D03*
X1204272D02*
D03*
X1223957D02*
D03*
X1243642D02*
D03*
X1263327D02*
D03*
X1283012D02*
D03*
X1302697D02*
D03*
X1342067D02*
D03*
X1361752D02*
D03*
X1381437D02*
D03*
X1401122D02*
D03*
X1420807D02*
D03*
X1440492D02*
D03*
X1460177D02*
D03*
X1361752Y370411D02*
D03*
X1342067D02*
D03*
X1302697D02*
D03*
X1381437D02*
D03*
X1440492D02*
D03*
X1420807D02*
D03*
X1401122D02*
D03*
X1204272D02*
D03*
X1184587D02*
D03*
X1322382D02*
D03*
X1223957D02*
D03*
X1283012D02*
D03*
X1263327D02*
D03*
X1243642D02*
D03*
X1460177D02*
D03*
D17*
X561890Y826378D02*
D03*
X298110D02*
D03*
D18*
X469370Y600000D02*
D03*
X390630D02*
D03*
D19*
X724272Y538378D02*
D03*
X763642D02*
D03*
X803022D02*
D03*
X842392D02*
D03*
D20*
X673092Y683068D02*
D03*
X893572D02*
D03*
D21*
X394550Y298932D02*
D03*
Y334365D02*
D03*
X346687Y298932D02*
D03*
Y334365D02*
D03*
D22*
X758327Y412474D02*
D03*
Y475466D02*
D03*
X801635Y412474D02*
D03*
Y475466D02*
D03*
D23*
X758327Y434127D02*
D03*
Y453812D02*
D03*
X801635Y434127D02*
D03*
Y453812D02*
D03*
D24*
X955200Y168900D02*
D03*
Y195500D02*
D03*
X898200Y168500D02*
D03*
Y195100D02*
D03*
D25*
X841200Y170500D02*
D03*
Y195100D02*
D03*
X1012200Y170500D02*
D03*
Y195100D02*
D03*
D26*
X288582Y381577D02*
D03*
X1909612Y296567D02*
D03*
X288582Y442300D02*
D03*
X196850Y669685D02*
D03*
Y230506D02*
D03*
D27*
X566978Y182902D02*
D03*
Y284902D02*
D03*
X641781Y182902D02*
D03*
X604379Y284902D02*
D03*
X641781D02*
D03*
D28*
X367008Y394996D02*
D03*
Y469799D02*
D03*
X469008Y394996D02*
D03*
Y432397D02*
D03*
Y469799D02*
D03*
D29*
X864850Y435472D02*
D03*
Y455158D02*
D03*
Y474842D02*
D03*
Y494528D02*
D03*
X985150Y435472D02*
D03*
Y455158D02*
D03*
Y474842D02*
D03*
Y494528D02*
D03*
D30*
X100000Y324537D02*
D03*
Y575463D02*
D03*
D31*
Y495276D02*
D03*
Y404724D02*
D03*
D32*
X205315Y424409D02*
D03*
Y398819D02*
D03*
Y475591D02*
D03*
Y501181D02*
D03*
Y450000D02*
D03*
D33*
X303992Y142961D02*
D03*
Y263039D02*
D03*
X428008Y142961D02*
D03*
Y263039D02*
D03*
D34*
X284307Y203000D02*
D03*
X447693D02*
D03*
D35*
X986145Y622116D02*
D03*
Y692982D02*
D03*
D36*
X967901Y743387D02*
D03*
X1003334D02*
D03*
D37*
X955200Y168900D02*
Y195500D01*
X898200Y168500D02*
Y195100D01*
D38*
X1012000Y144000D02*
Y160930D01*
X1012200Y161130D01*
Y170500D01*
X955161Y115000D02*
X1029970D01*
X1169970Y255000D02*
X1455000D01*
X1029970Y115000D02*
X1169970Y255000D01*
X1513000Y313000D02*
Y351159D01*
X1455000Y255000D02*
X1513000Y313000D01*
X955161Y168861D02*
X955200Y168900D01*
X1493748Y370411D02*
X1513000Y351159D01*
D39*
X621313Y112568D02*
Y127915D01*
X393028Y93028D02*
X601773D01*
X621313Y112568D01*
X1067000Y223000D02*
X1129000Y285000D01*
X1407000D02*
X1440492Y318492D01*
X1129000Y285000D02*
X1407000D01*
X853987Y370831D02*
X864040Y380884D01*
X831109Y370831D02*
X853987D01*
X864040Y380884D02*
Y381868D01*
X864850Y382678D01*
X758327Y317787D02*
X767114Y309000D01*
X797025D01*
X758327Y317787D02*
Y412474D01*
X797025Y309000D02*
X833465Y345440D01*
X968406D01*
X803011Y538389D02*
Y588989D01*
X943091Y743387D02*
X967901D01*
X725000Y475466D02*
X758327D01*
X841200Y143450D02*
Y170500D01*
X840750Y143000D02*
X841200Y143450D01*
X955161Y115000D02*
Y168861D01*
X968406Y345440D02*
X985150Y362183D01*
Y381567D01*
X985451Y381868D01*
X955650Y195950D02*
Y254800D01*
X955200Y195500D02*
X955650Y195950D01*
X858141Y195100D02*
X898200D01*
Y254800D01*
X898000Y255000D02*
X898200Y254800D01*
X841200Y195100D02*
X858141D01*
X1440492Y395581D02*
Y413000D01*
Y318492D02*
Y343915D01*
X1479000Y523954D02*
X1494000D01*
X1420807Y554642D02*
X1440492Y574327D01*
X1440492D01*
X1420807Y550030D02*
Y554642D01*
X1440492Y461000D02*
Y480971D01*
X350000Y50000D02*
X393028Y93028D01*
X621313Y127915D02*
X622590Y129191D01*
X985150Y382169D02*
X985451Y381868D01*
X985150Y382169D02*
Y412427D01*
X864850Y382678D02*
Y412474D01*
X514186Y316163D02*
Y380814D01*
X500000Y395000D02*
X514186Y380814D01*
X469012Y395000D02*
X500000D01*
X469008Y394996D02*
X469012Y395000D01*
X394550Y298932D02*
X434841D01*
X443320Y307411D01*
Y316163D01*
X369508Y467299D02*
X401701D01*
X415000Y354815D02*
Y454000D01*
X401701Y467299D02*
X415000Y454000D01*
X398861Y338676D02*
X415000Y354815D01*
X367008Y469799D02*
X369508Y467299D01*
X394550Y334365D02*
X396519D01*
X398861Y336707D01*
Y338676D01*
D40*
X803011Y538389D02*
X803022Y538378D01*
X803000Y589000D02*
X803011Y588989D01*
X1440492Y370411D02*
Y395581D01*
Y343915D02*
Y370411D01*
X1460177D02*
X1493748D01*
X1460177Y523954D02*
X1479000D01*
X1420807D02*
Y550030D01*
X1440492Y480971D02*
Y523954D01*
X758327Y453812D02*
Y475466D01*
Y412474D02*
Y434127D01*
X641781Y284902D02*
X642500Y284183D01*
Y250000D02*
Y284183D01*
X632500Y240000D02*
X642500Y250000D01*
X567000Y251000D02*
X578000Y240000D01*
X632500D01*
X566978Y284902D02*
X567000Y284880D01*
Y251000D02*
Y284880D01*
X985150Y412427D02*
Y435472D01*
X864850Y412474D02*
Y435472D01*
D41*
X205315Y450000D02*
X235000D01*
X258790Y411369D02*
Y426210D01*
Y411369D02*
X288582Y381577D01*
X235000Y450000D02*
X258790Y426210D01*
X205315Y475591D02*
X255291D01*
X288582Y442300D01*
X367008Y352717D02*
Y394996D01*
X348656Y334365D02*
X367008Y352717D01*
X346687Y334365D02*
X348656D01*
D42*
X926500Y168000D02*
D03*
D43*
X592500Y387500D02*
D03*
D44*
X1550000Y150000D02*
D03*
X1450000D02*
D03*
X1650000D02*
D03*
X750000Y850000D02*
D03*
X850000D02*
D03*
X950000D02*
D03*
X1150000D02*
D03*
X1250000D02*
D03*
X1050000D02*
D03*
X1650000D02*
D03*
X1750000D02*
D03*
X1350000D02*
D03*
X1550000D02*
D03*
X1450000D02*
D03*
X1250000Y50000D02*
D03*
X1150000D02*
D03*
X1350000D02*
D03*
X950000D02*
D03*
X850000D02*
D03*
X1050000D02*
D03*
X1650000D02*
D03*
X1450000D02*
D03*
X1550000D02*
D03*
X250000D02*
D03*
X350000D02*
D03*
X450000D02*
D03*
X550000D02*
D03*
X750000D02*
D03*
X650000D02*
D03*
D45*
X1750000Y150000D02*
D03*
X650000Y850000D02*
D03*
X1750000Y50000D02*
D03*
D46*
X1885847Y548048D02*
D03*
X1210847Y158048D02*
D03*
X100000Y800000D02*
D03*
X1900000Y100000D02*
D03*
Y800000D02*
D03*
X100000Y100000D02*
D03*
D47*
Y285630D02*
D03*
Y614370D02*
D03*
D48*
X218110Y362402D02*
D03*
Y537598D02*
D03*
D49*
X1012000Y144000D02*
D03*
X1950000Y200000D02*
D03*
X1061000Y743000D02*
D03*
X200000Y125000D02*
D03*
X50000Y200000D02*
D03*
X325000Y700000D02*
D03*
X50000D02*
D03*
X225000Y825000D02*
D03*
X800000Y700000D02*
D03*
X1450000D02*
D03*
X1600000Y225000D02*
D03*
X1700000D02*
D03*
X1800000Y250000D02*
D03*
X1675000Y550000D02*
D03*
X1600000Y700000D02*
D03*
X1750000D02*
D03*
X1775000Y425000D02*
D03*
X1950000D02*
D03*
Y700000D02*
D03*
X1162830Y370541D02*
D03*
X951986Y412474D02*
D03*
X897505D02*
D03*
X1154000Y524034D02*
D03*
X985150Y523954D02*
D03*
X940203Y622116D02*
D03*
X874747Y538389D02*
D03*
X497852Y861477D02*
D03*
Y795000D02*
D03*
X365604D02*
D03*
Y861477D02*
D03*
X514186Y432397D02*
D03*
X740109Y251000D02*
D03*
X556638Y129191D02*
D03*
X399370Y199675D02*
D03*
X363853Y260551D02*
D03*
X238385Y310056D02*
D03*
X345000Y551576D02*
D03*
Y645025D02*
D03*
Y600000D02*
D03*
X297177Y574357D02*
D03*
X1549508Y523954D02*
D03*
X899321Y795561D02*
D03*
X725640Y186725D02*
D03*
X796047Y387549D02*
D03*
X831109Y370831D02*
D03*
X797025Y309000D02*
D03*
X724272Y595272D02*
D03*
X803000Y589000D02*
D03*
X943091Y743387D02*
D03*
X725000Y475466D02*
D03*
X840750Y143000D02*
D03*
X955161Y115000D02*
D03*
X670379Y204400D02*
D03*
X670000Y171414D02*
D03*
X670379Y138428D02*
D03*
X1067000Y223000D02*
D03*
X955650Y254800D02*
D03*
X898000Y255000D02*
D03*
X1314000Y189883D02*
D03*
Y152000D02*
D03*
X1440492Y413000D02*
D03*
X1493748Y370411D02*
D03*
X1226000Y734000D02*
D03*
X1197000Y758000D02*
D03*
X1280000Y783000D02*
D03*
X1312000Y811000D02*
D03*
X1132655Y622116D02*
D03*
X1289000Y630000D02*
D03*
Y600000D02*
D03*
X1494000Y523954D02*
D03*
X1440492Y574327D02*
D03*
X1003334Y777671D02*
D03*
X1159000Y479000D02*
D03*
X1163738Y623407D02*
D03*
X1197735Y561566D02*
D03*
X1102655Y622116D02*
D03*
X1301000Y332000D02*
D03*
X1271000D02*
D03*
X1241000D02*
D03*
X1211000D02*
D03*
X1120000Y444000D02*
D03*
X1440492Y461000D02*
D03*
X514186Y127915D02*
D03*
X1298000Y482387D02*
D03*
X1328000D02*
D03*
X833158Y422553D02*
D03*
X951986Y453378D02*
D03*
Y483378D02*
D03*
X832000Y454000D02*
D03*
X377508Y495000D02*
D03*
X345000D02*
D03*
X585000Y385000D02*
D03*
X550000D02*
D03*
%TF.MD5,7cf58b0949427f5c3387df828f463da0*%
M02*
