G04*
G04 #@! TF.GenerationSoftware,Altium Limited,Altium Designer,20.1.11 (218)*
G04*
G04 Layer_Color=65535*
%FSLAX25Y25*%
%MOIN*%
G70*
G04*
G04 #@! TF.SameCoordinates,8FD927A0-C605-41AB-96FE-A5BD1A317AAA*
G04*
G04*
G04 #@! TF.FilePolarity,Positive*
G04*
G01*
G75*
%ADD10C,0.00600*%
%ADD11C,0.01000*%
%ADD12C,0.00472*%
%ADD13C,0.00300*%
%ADD14C,0.00500*%
%ADD15C,0.00787*%
%ADD16C,0.00394*%
G36*
X50250Y57100D02*
X51750Y52600D01*
X54250Y54600D01*
X50250Y57100D01*
D02*
G37*
G36*
X86333Y52838D02*
X89833Y51838D01*
Y53838D01*
X86333Y52838D01*
D02*
G37*
G36*
X50249Y28305D02*
X50295D01*
X50341Y28300D01*
X50402Y28295D01*
X50462Y28286D01*
X50596Y28263D01*
X50743Y28231D01*
X50891Y28184D01*
X51034Y28120D01*
X51039Y28115D01*
X51053Y28111D01*
X51071Y28101D01*
X51095Y28083D01*
X51127Y28064D01*
X51164Y28041D01*
X51247Y27981D01*
X51339Y27903D01*
X51432Y27810D01*
X51524Y27704D01*
X51603Y27579D01*
X51607Y27575D01*
X51612Y27561D01*
X51621Y27542D01*
X51635Y27519D01*
X51649Y27482D01*
X51663Y27445D01*
X51681Y27399D01*
X51700Y27348D01*
X51718Y27293D01*
X51737Y27233D01*
X51764Y27103D01*
X51788Y26956D01*
X51797Y26803D01*
Y26757D01*
X51792Y26724D01*
X51788Y26683D01*
X51783Y26632D01*
X51778Y26581D01*
X51764Y26521D01*
X51737Y26397D01*
X51695Y26258D01*
X51667Y26189D01*
X51635Y26124D01*
X51594Y26059D01*
X51552Y25995D01*
X51547Y25990D01*
X51543Y25981D01*
X51529Y25962D01*
X51506Y25939D01*
X51483Y25916D01*
X51450Y25884D01*
X51413Y25851D01*
X51376Y25814D01*
X51330Y25777D01*
X51275Y25741D01*
X51219Y25699D01*
X51159Y25662D01*
X51090Y25630D01*
X51021Y25593D01*
X50947Y25565D01*
X50863Y25537D01*
X50766Y25953D01*
X50771D01*
X50780Y25958D01*
X50799Y25967D01*
X50822Y25976D01*
X50850Y25985D01*
X50887Y25999D01*
X50961Y26036D01*
X51044Y26082D01*
X51127Y26138D01*
X51205Y26207D01*
X51275Y26281D01*
X51284Y26290D01*
X51302Y26318D01*
X51326Y26364D01*
X51358Y26424D01*
X51386Y26503D01*
X51413Y26590D01*
X51432Y26697D01*
X51436Y26812D01*
Y26849D01*
X51432Y26872D01*
Y26905D01*
X51427Y26942D01*
X51413Y27029D01*
X51395Y27127D01*
X51363Y27228D01*
X51316Y27334D01*
X51256Y27431D01*
Y27436D01*
X51247Y27441D01*
X51224Y27473D01*
X51187Y27514D01*
X51131Y27565D01*
X51062Y27625D01*
X50984Y27681D01*
X50887Y27732D01*
X50780Y27778D01*
X50776D01*
X50766Y27782D01*
X50753Y27787D01*
X50730Y27792D01*
X50702Y27801D01*
X50669Y27810D01*
X50591Y27824D01*
X50499Y27843D01*
X50397Y27861D01*
X50286Y27870D01*
X50166Y27875D01*
X50161D01*
X50147D01*
X50124D01*
X50097D01*
X50064Y27870D01*
X50023D01*
X49977Y27866D01*
X49926Y27861D01*
X49815Y27847D01*
X49695Y27824D01*
X49575Y27796D01*
X49454Y27759D01*
X49450D01*
X49441Y27755D01*
X49427Y27746D01*
X49404Y27736D01*
X49348Y27709D01*
X49283Y27667D01*
X49210Y27616D01*
X49131Y27551D01*
X49062Y27478D01*
X48997Y27390D01*
Y27385D01*
X48992Y27376D01*
X48983Y27362D01*
X48974Y27344D01*
X48965Y27321D01*
X48951Y27293D01*
X48923Y27228D01*
X48895Y27145D01*
X48872Y27053D01*
X48854Y26951D01*
X48849Y26845D01*
Y26812D01*
X48854Y26785D01*
Y26752D01*
X48858Y26720D01*
X48877Y26637D01*
X48900Y26540D01*
X48937Y26443D01*
X48988Y26341D01*
X49016Y26290D01*
X49053Y26244D01*
X49057Y26239D01*
X49062Y26235D01*
X49076Y26221D01*
X49090Y26202D01*
X49113Y26184D01*
X49140Y26161D01*
X49168Y26133D01*
X49205Y26110D01*
X49246Y26082D01*
X49293Y26050D01*
X49339Y26022D01*
X49394Y25995D01*
X49454Y25971D01*
X49519Y25948D01*
X49588Y25925D01*
X49662Y25907D01*
X49556Y25482D01*
X49551D01*
X49533Y25486D01*
X49505Y25496D01*
X49468Y25510D01*
X49427Y25523D01*
X49376Y25542D01*
X49321Y25565D01*
X49260Y25593D01*
X49131Y25657D01*
X49002Y25741D01*
X48937Y25791D01*
X48872Y25842D01*
X48817Y25897D01*
X48761Y25962D01*
X48757Y25967D01*
X48748Y25976D01*
X48738Y25999D01*
X48720Y26022D01*
X48697Y26059D01*
X48674Y26096D01*
X48651Y26147D01*
X48627Y26198D01*
X48600Y26258D01*
X48577Y26323D01*
X48553Y26392D01*
X48530Y26466D01*
X48512Y26544D01*
X48503Y26627D01*
X48493Y26715D01*
X48489Y26808D01*
Y26858D01*
X48493Y26895D01*
Y26937D01*
X48498Y26988D01*
X48507Y27043D01*
X48517Y27108D01*
X48540Y27242D01*
X48577Y27381D01*
X48627Y27519D01*
X48660Y27584D01*
X48697Y27648D01*
X48701Y27653D01*
X48706Y27662D01*
X48720Y27681D01*
X48738Y27699D01*
X48757Y27727D01*
X48785Y27759D01*
X48817Y27796D01*
X48854Y27833D01*
X48895Y27870D01*
X48937Y27912D01*
X49043Y27995D01*
X49168Y28074D01*
X49307Y28143D01*
X49311D01*
X49325Y28152D01*
X49348Y28157D01*
X49376Y28171D01*
X49413Y28180D01*
X49459Y28194D01*
X49510Y28212D01*
X49565Y28226D01*
X49625Y28240D01*
X49695Y28258D01*
X49838Y28282D01*
X50000Y28300D01*
X50166Y28309D01*
X50170D01*
X50189D01*
X50217D01*
X50249Y28305D01*
D02*
G37*
G36*
X51741Y24521D02*
X50429D01*
Y22867D01*
X51741D01*
Y22442D01*
X48544D01*
Y22867D01*
X50050D01*
Y24521D01*
X48544D01*
Y24946D01*
X51741D01*
Y24521D01*
D02*
G37*
G36*
X50203Y21841D02*
X50244D01*
X50295Y21837D01*
X50346Y21827D01*
X50406Y21823D01*
X50471Y21809D01*
X50540Y21800D01*
X50688Y21763D01*
X50840Y21716D01*
X50993Y21652D01*
X50998Y21647D01*
X51011Y21643D01*
X51030Y21633D01*
X51058Y21615D01*
X51095Y21596D01*
X51131Y21573D01*
X51219Y21508D01*
X51321Y21430D01*
X51418Y21333D01*
X51515Y21222D01*
X51556Y21157D01*
X51598Y21093D01*
X51603Y21088D01*
X51607Y21074D01*
X51617Y21056D01*
X51631Y21028D01*
X51644Y20991D01*
X51663Y20949D01*
X51681Y20903D01*
X51700Y20848D01*
X51718Y20788D01*
X51732Y20723D01*
X51751Y20654D01*
X51764Y20580D01*
X51788Y20418D01*
X51797Y20335D01*
Y20187D01*
X51792Y20159D01*
Y20122D01*
X51783Y20035D01*
X51769Y19938D01*
X51746Y19836D01*
X51718Y19725D01*
X51681Y19619D01*
Y19614D01*
X51677Y19605D01*
X51672Y19591D01*
X51663Y19573D01*
X51635Y19522D01*
X51603Y19457D01*
X51556Y19388D01*
X51501Y19314D01*
X51441Y19245D01*
X51367Y19180D01*
X51358Y19171D01*
X51330Y19152D01*
X51289Y19125D01*
X51228Y19088D01*
X51155Y19051D01*
X51062Y19009D01*
X50961Y18968D01*
X50845Y18935D01*
X50743Y19319D01*
X50748D01*
X50753Y19323D01*
X50766Y19328D01*
X50785Y19332D01*
X50827Y19346D01*
X50882Y19365D01*
X50947Y19393D01*
X51007Y19425D01*
X51071Y19457D01*
X51127Y19499D01*
X51131Y19503D01*
X51150Y19517D01*
X51173Y19545D01*
X51205Y19577D01*
X51242Y19619D01*
X51279Y19674D01*
X51316Y19735D01*
X51349Y19804D01*
X51353Y19813D01*
X51363Y19836D01*
X51376Y19878D01*
X51395Y19933D01*
X51409Y19998D01*
X51423Y20072D01*
X51432Y20155D01*
X51436Y20243D01*
Y20293D01*
X51432Y20317D01*
Y20344D01*
X51427Y20414D01*
X51413Y20492D01*
X51399Y20580D01*
X51376Y20663D01*
X51344Y20746D01*
X51339Y20755D01*
X51330Y20783D01*
X51307Y20820D01*
X51284Y20866D01*
X51247Y20922D01*
X51210Y20982D01*
X51164Y21037D01*
X51113Y21088D01*
X51108Y21093D01*
X51090Y21111D01*
X51058Y21134D01*
X51021Y21162D01*
X50974Y21194D01*
X50919Y21227D01*
X50859Y21259D01*
X50794Y21291D01*
X50790D01*
X50780Y21296D01*
X50766Y21301D01*
X50743Y21310D01*
X50716Y21319D01*
X50683Y21328D01*
X50646Y21342D01*
X50605Y21351D01*
X50508Y21375D01*
X50397Y21393D01*
X50281Y21407D01*
X50152Y21411D01*
X50147D01*
X50134D01*
X50111D01*
X50083Y21407D01*
X50046D01*
X50000Y21402D01*
X49953Y21398D01*
X49903Y21393D01*
X49787Y21375D01*
X49667Y21351D01*
X49547Y21315D01*
X49431Y21268D01*
X49427D01*
X49417Y21259D01*
X49404Y21254D01*
X49385Y21241D01*
X49334Y21208D01*
X49270Y21157D01*
X49200Y21097D01*
X49131Y21023D01*
X49066Y20936D01*
X49006Y20839D01*
Y20834D01*
X49002Y20825D01*
X48992Y20811D01*
X48983Y20788D01*
X48974Y20765D01*
X48965Y20732D01*
X48937Y20659D01*
X48914Y20566D01*
X48891Y20464D01*
X48872Y20354D01*
X48868Y20238D01*
Y20192D01*
X48872Y20164D01*
Y20136D01*
X48882Y20067D01*
X48891Y19984D01*
X48909Y19896D01*
X48937Y19799D01*
X48969Y19702D01*
Y19697D01*
X48974Y19688D01*
X48979Y19679D01*
X48988Y19660D01*
X49011Y19610D01*
X49039Y19554D01*
X49071Y19490D01*
X49108Y19420D01*
X49150Y19356D01*
X49196Y19300D01*
X49796D01*
Y20243D01*
X50175D01*
Y18884D01*
X48988D01*
X48983Y18889D01*
X48979Y18898D01*
X48965Y18917D01*
X48946Y18940D01*
X48928Y18968D01*
X48905Y19000D01*
X48877Y19041D01*
X48849Y19083D01*
X48789Y19180D01*
X48724Y19291D01*
X48664Y19406D01*
X48614Y19531D01*
Y19536D01*
X48609Y19545D01*
X48604Y19564D01*
X48595Y19587D01*
X48586Y19619D01*
X48572Y19656D01*
X48563Y19697D01*
X48553Y19739D01*
X48530Y19841D01*
X48507Y19956D01*
X48493Y20081D01*
X48489Y20210D01*
Y20256D01*
X48493Y20289D01*
Y20330D01*
X48498Y20381D01*
X48507Y20437D01*
X48512Y20497D01*
X48540Y20631D01*
X48572Y20774D01*
X48623Y20922D01*
X48651Y20996D01*
X48687Y21070D01*
X48692Y21074D01*
X48697Y21088D01*
X48711Y21107D01*
X48724Y21134D01*
X48748Y21167D01*
X48771Y21199D01*
X48835Y21287D01*
X48919Y21379D01*
X49020Y21476D01*
X49136Y21569D01*
X49270Y21652D01*
X49274D01*
X49288Y21661D01*
X49307Y21670D01*
X49339Y21684D01*
X49371Y21698D01*
X49417Y21712D01*
X49464Y21730D01*
X49519Y21749D01*
X49579Y21767D01*
X49648Y21786D01*
X49718Y21800D01*
X49792Y21813D01*
X49953Y21837D01*
X50124Y21846D01*
X50129D01*
X50147D01*
X50170D01*
X50203Y21841D01*
D02*
G37*
G36*
X152579Y39502D02*
X152574D01*
X152565D01*
X152546D01*
X152519Y39497D01*
X152491Y39492D01*
X152459D01*
X152380Y39478D01*
X152297Y39465D01*
X152214Y39437D01*
X152140Y39409D01*
X152107Y39391D01*
X152080Y39367D01*
X152075Y39363D01*
X152061Y39344D01*
X152038Y39317D01*
X152015Y39280D01*
X151987Y39229D01*
X151969Y39173D01*
X151950Y39104D01*
X151946Y39030D01*
Y39002D01*
X151950Y38975D01*
X151955Y38933D01*
X151964Y38892D01*
X151973Y38845D01*
X151992Y38799D01*
X152015Y38753D01*
X152020Y38748D01*
X152029Y38735D01*
X152047Y38716D01*
X152066Y38688D01*
X152098Y38665D01*
X152130Y38638D01*
X152167Y38614D01*
X152214Y38596D01*
X152218D01*
X152237Y38587D01*
X152269Y38582D01*
X152311Y38573D01*
X152366Y38564D01*
X152435Y38559D01*
X152519Y38550D01*
X152616D01*
X154819D01*
Y38125D01*
X152639D01*
X152634D01*
X152620D01*
X152602D01*
X152574D01*
X152537Y38129D01*
X152500D01*
X152412Y38139D01*
X152311Y38148D01*
X152204Y38166D01*
X152107Y38194D01*
X152015Y38226D01*
X152010D01*
X152006Y38231D01*
X151978Y38245D01*
X151941Y38268D01*
X151890Y38300D01*
X151839Y38346D01*
X151784Y38397D01*
X151728Y38462D01*
X151682Y38536D01*
X151678Y38545D01*
X151664Y38573D01*
X151645Y38614D01*
X151627Y38675D01*
X151604Y38748D01*
X151585Y38832D01*
X151572Y38924D01*
X151567Y39026D01*
Y39067D01*
X151572Y39095D01*
X151576Y39132D01*
X151581Y39169D01*
X151599Y39266D01*
X151627Y39367D01*
X151669Y39474D01*
X151696Y39529D01*
X151728Y39580D01*
X151766Y39626D01*
X151807Y39672D01*
X151812Y39677D01*
X151816Y39682D01*
X151835Y39691D01*
X151853Y39705D01*
X151876Y39723D01*
X151909Y39742D01*
X151946Y39760D01*
X151987Y39783D01*
X152033Y39802D01*
X152089Y39820D01*
X152144Y39839D01*
X152209Y39857D01*
X152278Y39867D01*
X152357Y39880D01*
X152435Y39885D01*
X152523D01*
X152579Y39502D01*
D02*
G37*
G36*
X154029Y37288D02*
X154039Y37279D01*
X154043Y37261D01*
X154057Y37238D01*
X154071Y37210D01*
X154089Y37178D01*
X154136Y37099D01*
X154186Y37007D01*
X154251Y36914D01*
X154325Y36817D01*
X154403Y36720D01*
X154408Y36716D01*
X154413Y36711D01*
X154427Y36697D01*
X154440Y36679D01*
X154487Y36637D01*
X154542Y36582D01*
X154607Y36526D01*
X154681Y36466D01*
X154755Y36415D01*
X154833Y36369D01*
Y36115D01*
X151622D01*
Y36508D01*
X154122D01*
X154117Y36512D01*
X154099Y36535D01*
X154071Y36563D01*
X154039Y36609D01*
X153997Y36660D01*
X153951Y36725D01*
X153900Y36799D01*
X153849Y36882D01*
Y36887D01*
X153844Y36891D01*
X153826Y36919D01*
X153803Y36965D01*
X153775Y37020D01*
X153743Y37085D01*
X153710Y37154D01*
X153678Y37224D01*
X153650Y37293D01*
X154029D01*
Y37288D01*
D02*
G37*
G36*
X56038Y57024D02*
X56034D01*
X56024D01*
X56006D01*
X55978Y57020D01*
X55950Y57015D01*
X55918D01*
X55840Y57001D01*
X55756Y56988D01*
X55673Y56960D01*
X55599Y56932D01*
X55567Y56914D01*
X55539Y56890D01*
X55535Y56886D01*
X55521Y56867D01*
X55498Y56840D01*
X55475Y56803D01*
X55447Y56752D01*
X55428Y56696D01*
X55410Y56627D01*
X55405Y56553D01*
Y56525D01*
X55410Y56498D01*
X55415Y56456D01*
X55424Y56415D01*
X55433Y56368D01*
X55452Y56322D01*
X55475Y56276D01*
X55479Y56271D01*
X55489Y56257D01*
X55507Y56239D01*
X55525Y56211D01*
X55558Y56188D01*
X55590Y56160D01*
X55627Y56137D01*
X55673Y56119D01*
X55678D01*
X55696Y56110D01*
X55729Y56105D01*
X55770Y56096D01*
X55826Y56087D01*
X55895Y56082D01*
X55978Y56073D01*
X56075D01*
X58279D01*
Y55648D01*
X56098D01*
X56094D01*
X56080D01*
X56061D01*
X56034D01*
X55997Y55652D01*
X55960D01*
X55872Y55661D01*
X55770Y55671D01*
X55664Y55689D01*
X55567Y55717D01*
X55475Y55749D01*
X55470D01*
X55465Y55754D01*
X55438Y55768D01*
X55401Y55791D01*
X55350Y55823D01*
X55299Y55869D01*
X55244Y55920D01*
X55188Y55985D01*
X55142Y56059D01*
X55137Y56068D01*
X55124Y56096D01*
X55105Y56137D01*
X55087Y56198D01*
X55063Y56271D01*
X55045Y56354D01*
X55031Y56447D01*
X55027Y56549D01*
Y56590D01*
X55031Y56618D01*
X55036Y56655D01*
X55040Y56692D01*
X55059Y56789D01*
X55087Y56890D01*
X55128Y56997D01*
X55156Y57052D01*
X55188Y57103D01*
X55225Y57149D01*
X55267Y57195D01*
X55271Y57200D01*
X55276Y57205D01*
X55295Y57214D01*
X55313Y57228D01*
X55336Y57246D01*
X55368Y57265D01*
X55405Y57283D01*
X55447Y57306D01*
X55493Y57325D01*
X55549Y57343D01*
X55604Y57362D01*
X55669Y57380D01*
X55738Y57389D01*
X55817Y57403D01*
X55895Y57408D01*
X55983D01*
X56038Y57024D01*
D02*
G37*
G36*
X55170Y55167D02*
X55211Y55163D01*
X55257Y55153D01*
X55304Y55144D01*
X55354Y55126D01*
X55359D01*
X55364Y55121D01*
X55392Y55112D01*
X55433Y55093D01*
X55489Y55066D01*
X55553Y55029D01*
X55627Y54982D01*
X55701Y54932D01*
X55780Y54867D01*
X55784D01*
X55789Y54858D01*
X55817Y54835D01*
X55858Y54793D01*
X55918Y54733D01*
X55988Y54664D01*
X56071Y54576D01*
X56163Y54470D01*
X56260Y54354D01*
X56265Y54349D01*
X56279Y54331D01*
X56302Y54303D01*
X56329Y54271D01*
X56366Y54229D01*
X56408Y54179D01*
X56454Y54128D01*
X56505Y54068D01*
X56616Y53952D01*
X56727Y53837D01*
X56782Y53781D01*
X56838Y53730D01*
X56888Y53684D01*
X56939Y53647D01*
X56944D01*
X56949Y53638D01*
X56962Y53629D01*
X56981Y53619D01*
X57032Y53587D01*
X57092Y53550D01*
X57166Y53518D01*
X57244Y53486D01*
X57332Y53467D01*
X57415Y53458D01*
X57420D01*
X57424D01*
X57452Y53462D01*
X57498Y53467D01*
X57549Y53481D01*
X57614Y53499D01*
X57678Y53532D01*
X57743Y53573D01*
X57808Y53629D01*
X57817Y53638D01*
X57836Y53661D01*
X57859Y53693D01*
X57891Y53744D01*
X57919Y53809D01*
X57946Y53883D01*
X57965Y53971D01*
X57969Y54068D01*
Y54095D01*
X57965Y54114D01*
X57960Y54169D01*
X57946Y54234D01*
X57928Y54303D01*
X57896Y54382D01*
X57854Y54456D01*
X57798Y54525D01*
X57789Y54534D01*
X57766Y54553D01*
X57729Y54580D01*
X57674Y54608D01*
X57609Y54641D01*
X57526Y54668D01*
X57434Y54687D01*
X57327Y54696D01*
X57369Y55098D01*
X57373D01*
X57387Y55093D01*
X57411D01*
X57443Y55089D01*
X57480Y55079D01*
X57521Y55070D01*
X57572Y55056D01*
X57623Y55042D01*
X57734Y55006D01*
X57845Y54950D01*
X57900Y54918D01*
X57956Y54876D01*
X58006Y54835D01*
X58053Y54788D01*
X58057Y54784D01*
X58062Y54774D01*
X58076Y54761D01*
X58090Y54738D01*
X58108Y54710D01*
X58126Y54677D01*
X58150Y54641D01*
X58173Y54594D01*
X58196Y54544D01*
X58219Y54488D01*
X58237Y54428D01*
X58256Y54363D01*
X58270Y54294D01*
X58284Y54220D01*
X58288Y54141D01*
X58293Y54058D01*
Y54012D01*
X58288Y53980D01*
X58284Y53943D01*
X58279Y53897D01*
X58270Y53846D01*
X58261Y53795D01*
X58228Y53675D01*
X58182Y53555D01*
X58154Y53495D01*
X58122Y53435D01*
X58080Y53379D01*
X58034Y53328D01*
X58030Y53324D01*
X58025Y53315D01*
X58006Y53305D01*
X57988Y53287D01*
X57965Y53264D01*
X57933Y53241D01*
X57900Y53218D01*
X57859Y53190D01*
X57771Y53144D01*
X57660Y53097D01*
X57604Y53079D01*
X57540Y53070D01*
X57475Y53061D01*
X57406Y53056D01*
X57397D01*
X57373D01*
X57336Y53061D01*
X57286Y53065D01*
X57230Y53074D01*
X57166Y53093D01*
X57096Y53111D01*
X57027Y53139D01*
X57018Y53144D01*
X56995Y53153D01*
X56958Y53171D01*
X56907Y53199D01*
X56851Y53236D01*
X56782Y53282D01*
X56713Y53338D01*
X56634Y53402D01*
X56625Y53412D01*
X56597Y53435D01*
X56574Y53458D01*
X56551Y53481D01*
X56523Y53509D01*
X56486Y53546D01*
X56450Y53583D01*
X56408Y53629D01*
X56362Y53675D01*
X56311Y53730D01*
X56260Y53790D01*
X56200Y53855D01*
X56140Y53929D01*
X56075Y54003D01*
X56071Y54008D01*
X56061Y54017D01*
X56048Y54035D01*
X56029Y54058D01*
X56001Y54086D01*
X55974Y54118D01*
X55914Y54192D01*
X55844Y54271D01*
X55775Y54345D01*
X55715Y54409D01*
X55692Y54437D01*
X55669Y54460D01*
X55664Y54465D01*
X55650Y54479D01*
X55632Y54497D01*
X55604Y54520D01*
X55572Y54544D01*
X55539Y54571D01*
X55461Y54627D01*
Y53051D01*
X55082D01*
Y55172D01*
X55087D01*
X55105D01*
X55133D01*
X55170Y55167D01*
D02*
G37*
G36*
X92679Y63111D02*
X92674D01*
X92665D01*
X92646D01*
X92619Y63106D01*
X92591Y63102D01*
X92558D01*
X92480Y63088D01*
X92397Y63074D01*
X92314Y63046D01*
X92240Y63019D01*
X92207Y63000D01*
X92180Y62977D01*
X92175Y62972D01*
X92161Y62954D01*
X92138Y62926D01*
X92115Y62889D01*
X92087Y62839D01*
X92069Y62783D01*
X92050Y62714D01*
X92046Y62640D01*
Y62612D01*
X92050Y62584D01*
X92055Y62543D01*
X92064Y62501D01*
X92073Y62455D01*
X92092Y62409D01*
X92115Y62363D01*
X92120Y62358D01*
X92129Y62344D01*
X92147Y62326D01*
X92166Y62298D01*
X92198Y62275D01*
X92230Y62247D01*
X92267Y62224D01*
X92314Y62205D01*
X92318D01*
X92337Y62196D01*
X92369Y62192D01*
X92411Y62182D01*
X92466Y62173D01*
X92535Y62169D01*
X92619Y62159D01*
X92716D01*
X94919D01*
Y61734D01*
X92739D01*
X92734D01*
X92720D01*
X92702D01*
X92674D01*
X92637Y61739D01*
X92600D01*
X92512Y61748D01*
X92411Y61757D01*
X92304Y61776D01*
X92207Y61804D01*
X92115Y61836D01*
X92110D01*
X92106Y61840D01*
X92078Y61854D01*
X92041Y61878D01*
X91990Y61910D01*
X91939Y61956D01*
X91884Y62007D01*
X91829Y62072D01*
X91782Y62146D01*
X91778Y62155D01*
X91764Y62182D01*
X91745Y62224D01*
X91727Y62284D01*
X91704Y62358D01*
X91685Y62441D01*
X91672Y62533D01*
X91667Y62635D01*
Y62677D01*
X91672Y62704D01*
X91676Y62741D01*
X91681Y62778D01*
X91699Y62875D01*
X91727Y62977D01*
X91768Y63083D01*
X91796Y63139D01*
X91829Y63190D01*
X91865Y63236D01*
X91907Y63282D01*
X91912Y63287D01*
X91916Y63291D01*
X91935Y63301D01*
X91953Y63314D01*
X91976Y63333D01*
X92009Y63351D01*
X92046Y63370D01*
X92087Y63393D01*
X92133Y63411D01*
X92189Y63430D01*
X92244Y63448D01*
X92309Y63467D01*
X92378Y63476D01*
X92457Y63490D01*
X92535Y63494D01*
X92623D01*
X92679Y63111D01*
D02*
G37*
G36*
X92619Y60806D02*
X92614D01*
X92605Y60801D01*
X92586Y60796D01*
X92563Y60792D01*
X92535Y60787D01*
X92503Y60778D01*
X92434Y60755D01*
X92351Y60723D01*
X92272Y60681D01*
X92198Y60635D01*
X92133Y60579D01*
X92129Y60570D01*
X92110Y60552D01*
X92087Y60515D01*
X92064Y60468D01*
X92036Y60413D01*
X92013Y60344D01*
X91995Y60265D01*
X91990Y60182D01*
Y60154D01*
X91995Y60136D01*
X92000Y60085D01*
X92013Y60020D01*
X92036Y59946D01*
X92069Y59868D01*
X92115Y59789D01*
X92180Y59715D01*
X92189Y59706D01*
X92217Y59683D01*
X92258Y59655D01*
X92314Y59618D01*
X92383Y59581D01*
X92462Y59554D01*
X92554Y59531D01*
X92655Y59521D01*
X92660D01*
X92669D01*
X92683D01*
X92702Y59526D01*
X92752Y59531D01*
X92813Y59544D01*
X92887Y59563D01*
X92960Y59595D01*
X93034Y59641D01*
X93104Y59702D01*
X93113Y59711D01*
X93131Y59734D01*
X93159Y59771D01*
X93191Y59822D01*
X93224Y59886D01*
X93252Y59965D01*
X93270Y60053D01*
X93279Y60150D01*
Y60191D01*
X93275Y60224D01*
X93270Y60265D01*
X93261Y60311D01*
X93252Y60367D01*
X93238Y60427D01*
X93584Y60381D01*
Y60357D01*
X93580Y60339D01*
Y60279D01*
X93589Y60228D01*
X93598Y60168D01*
X93612Y60099D01*
X93635Y60020D01*
X93667Y59946D01*
X93709Y59868D01*
Y59863D01*
X93713Y59859D01*
X93732Y59835D01*
X93764Y59803D01*
X93806Y59766D01*
X93866Y59729D01*
X93935Y59697D01*
X94014Y59674D01*
X94060Y59664D01*
X94111D01*
X94115D01*
X94120D01*
X94148D01*
X94185Y59674D01*
X94236Y59683D01*
X94291Y59702D01*
X94351Y59725D01*
X94411Y59762D01*
X94467Y59812D01*
X94471Y59817D01*
X94490Y59840D01*
X94513Y59872D01*
X94541Y59914D01*
X94564Y59969D01*
X94587Y60034D01*
X94605Y60108D01*
X94610Y60191D01*
Y60228D01*
X94600Y60270D01*
X94591Y60325D01*
X94573Y60385D01*
X94550Y60445D01*
X94513Y60510D01*
X94467Y60570D01*
X94462Y60575D01*
X94439Y60593D01*
X94406Y60621D01*
X94360Y60653D01*
X94300Y60685D01*
X94226Y60718D01*
X94138Y60746D01*
X94037Y60764D01*
X94106Y61157D01*
X94111D01*
X94125Y61152D01*
X94143Y61147D01*
X94171Y61143D01*
X94203Y61134D01*
X94240Y61120D01*
X94328Y61092D01*
X94430Y61046D01*
X94531Y60990D01*
X94628Y60921D01*
X94716Y60833D01*
X94721Y60829D01*
X94725Y60820D01*
X94735Y60806D01*
X94748Y60787D01*
X94767Y60764D01*
X94785Y60732D01*
X94804Y60699D01*
X94827Y60658D01*
X94864Y60565D01*
X94901Y60459D01*
X94924Y60334D01*
X94933Y60270D01*
Y60154D01*
X94929Y60103D01*
X94919Y60043D01*
X94906Y59969D01*
X94882Y59886D01*
X94855Y59803D01*
X94818Y59720D01*
Y59715D01*
X94813Y59711D01*
X94799Y59683D01*
X94771Y59641D01*
X94739Y59595D01*
X94693Y59540D01*
X94642Y59484D01*
X94582Y59429D01*
X94513Y59383D01*
X94503Y59378D01*
X94480Y59364D01*
X94439Y59346D01*
X94388Y59323D01*
X94328Y59299D01*
X94259Y59281D01*
X94180Y59267D01*
X94102Y59263D01*
X94092D01*
X94065D01*
X94028Y59267D01*
X93977Y59276D01*
X93917Y59290D01*
X93852Y59313D01*
X93787Y59341D01*
X93723Y59378D01*
X93713Y59383D01*
X93695Y59397D01*
X93663Y59424D01*
X93626Y59461D01*
X93584Y59507D01*
X93538Y59563D01*
X93496Y59627D01*
X93455Y59706D01*
Y59702D01*
X93450Y59692D01*
X93445Y59678D01*
X93441Y59660D01*
X93422Y59609D01*
X93395Y59544D01*
X93358Y59470D01*
X93312Y59397D01*
X93252Y59327D01*
X93182Y59263D01*
X93173Y59258D01*
X93145Y59240D01*
X93099Y59212D01*
X93039Y59184D01*
X92965Y59156D01*
X92877Y59129D01*
X92776Y59110D01*
X92665Y59105D01*
X92660D01*
X92646D01*
X92623D01*
X92595Y59110D01*
X92558Y59115D01*
X92517Y59124D01*
X92471Y59133D01*
X92420Y59142D01*
X92309Y59179D01*
X92249Y59207D01*
X92194Y59235D01*
X92133Y59272D01*
X92073Y59313D01*
X92013Y59360D01*
X91958Y59415D01*
X91953Y59420D01*
X91944Y59429D01*
X91930Y59447D01*
X91912Y59470D01*
X91889Y59498D01*
X91865Y59535D01*
X91838Y59577D01*
X91815Y59627D01*
X91787Y59678D01*
X91759Y59738D01*
X91736Y59799D01*
X91713Y59868D01*
X91695Y59942D01*
X91681Y60020D01*
X91672Y60099D01*
X91667Y60187D01*
Y60228D01*
X91672Y60256D01*
X91676Y60293D01*
X91681Y60334D01*
X91690Y60381D01*
X91699Y60431D01*
X91727Y60542D01*
X91773Y60658D01*
X91801Y60718D01*
X91833Y60773D01*
X91875Y60829D01*
X91916Y60884D01*
X91921Y60889D01*
X91930Y60898D01*
X91944Y60912D01*
X91962Y60926D01*
X91986Y60949D01*
X92018Y60972D01*
X92050Y61000D01*
X92092Y61027D01*
X92138Y61055D01*
X92184Y61083D01*
X92295Y61134D01*
X92424Y61175D01*
X92494Y61189D01*
X92568Y61198D01*
X92619Y60806D01*
D02*
G37*
G36*
X95029Y28996D02*
X95025D01*
X95020D01*
X95006Y28991D01*
X94987D01*
X94946Y28982D01*
X94886Y28968D01*
X94826Y28950D01*
X94757Y28931D01*
X94692Y28899D01*
X94632Y28867D01*
X94627Y28862D01*
X94609Y28848D01*
X94576Y28825D01*
X94544Y28788D01*
X94502Y28742D01*
X94461Y28691D01*
X94419Y28622D01*
X94382Y28548D01*
Y28543D01*
X94378Y28539D01*
X94373Y28525D01*
X94368Y28511D01*
X94354Y28465D01*
X94336Y28405D01*
X94318Y28331D01*
X94304Y28248D01*
X94295Y28155D01*
X94290Y28054D01*
Y28012D01*
X94295Y27966D01*
X94299Y27910D01*
X94308Y27846D01*
X94318Y27772D01*
X94336Y27698D01*
X94359Y27628D01*
X94364Y27619D01*
X94373Y27596D01*
X94392Y27564D01*
X94410Y27522D01*
X94442Y27481D01*
X94475Y27435D01*
X94512Y27388D01*
X94558Y27351D01*
X94563Y27347D01*
X94581Y27338D01*
X94604Y27324D01*
X94641Y27305D01*
X94678Y27287D01*
X94724Y27273D01*
X94775Y27264D01*
X94830Y27259D01*
X94835D01*
X94858D01*
X94886Y27264D01*
X94923Y27268D01*
X94960Y27282D01*
X95006Y27296D01*
X95052Y27319D01*
X95094Y27351D01*
X95098Y27356D01*
X95112Y27370D01*
X95131Y27388D01*
X95158Y27421D01*
X95186Y27458D01*
X95218Y27508D01*
X95251Y27569D01*
X95279Y27638D01*
X95283Y27642D01*
X95288Y27665D01*
X95302Y27703D01*
X95306Y27726D01*
X95315Y27758D01*
X95329Y27790D01*
X95339Y27832D01*
X95353Y27878D01*
X95366Y27933D01*
X95380Y27989D01*
X95399Y28054D01*
X95417Y28128D01*
X95436Y28206D01*
Y28211D01*
X95440Y28225D01*
X95445Y28248D01*
X95454Y28275D01*
X95463Y28312D01*
X95473Y28354D01*
X95500Y28446D01*
X95533Y28548D01*
X95565Y28654D01*
X95597Y28747D01*
X95616Y28788D01*
X95634Y28825D01*
Y28830D01*
X95639Y28834D01*
X95657Y28862D01*
X95680Y28904D01*
X95717Y28950D01*
X95759Y29005D01*
X95810Y29061D01*
X95870Y29116D01*
X95935Y29162D01*
X95944Y29167D01*
X95967Y29181D01*
X96004Y29199D01*
X96050Y29218D01*
X96110Y29236D01*
X96179Y29255D01*
X96253Y29269D01*
X96332Y29273D01*
X96337D01*
X96341D01*
X96355D01*
X96373D01*
X96420Y29264D01*
X96480Y29255D01*
X96549Y29241D01*
X96628Y29218D01*
X96706Y29186D01*
X96785Y29139D01*
X96789D01*
X96794Y29135D01*
X96822Y29112D01*
X96859Y29079D01*
X96905Y29038D01*
X96956Y28982D01*
X97011Y28913D01*
X97062Y28830D01*
X97108Y28737D01*
Y28733D01*
X97113Y28723D01*
X97117Y28710D01*
X97127Y28691D01*
X97136Y28668D01*
X97145Y28636D01*
X97163Y28566D01*
X97182Y28479D01*
X97201Y28377D01*
X97214Y28271D01*
X97219Y28151D01*
Y28091D01*
X97214Y28058D01*
Y28026D01*
X97205Y27938D01*
X97191Y27841D01*
X97168Y27739D01*
X97140Y27628D01*
X97103Y27527D01*
Y27522D01*
X97099Y27513D01*
X97090Y27499D01*
X97080Y27481D01*
X97057Y27435D01*
X97016Y27374D01*
X96969Y27305D01*
X96909Y27236D01*
X96840Y27171D01*
X96762Y27111D01*
X96757D01*
X96752Y27106D01*
X96738Y27097D01*
X96725Y27088D01*
X96678Y27065D01*
X96618Y27037D01*
X96544Y27005D01*
X96457Y26982D01*
X96364Y26959D01*
X96263Y26949D01*
X96230Y27356D01*
X96235D01*
X96244D01*
X96258Y27361D01*
X96281Y27365D01*
X96332Y27379D01*
X96401Y27398D01*
X96475Y27425D01*
X96549Y27467D01*
X96618Y27518D01*
X96683Y27582D01*
X96688Y27592D01*
X96706Y27615D01*
X96734Y27661D01*
X96762Y27721D01*
X96789Y27799D01*
X96817Y27892D01*
X96836Y28007D01*
X96840Y28137D01*
Y28201D01*
X96836Y28229D01*
X96831Y28266D01*
X96822Y28349D01*
X96803Y28442D01*
X96780Y28534D01*
X96743Y28622D01*
X96720Y28659D01*
X96697Y28696D01*
X96692Y28705D01*
X96674Y28723D01*
X96641Y28751D01*
X96605Y28779D01*
X96554Y28811D01*
X96498Y28839D01*
X96434Y28857D01*
X96360Y28867D01*
X96350D01*
X96332D01*
X96300Y28862D01*
X96263Y28853D01*
X96216Y28839D01*
X96170Y28816D01*
X96124Y28788D01*
X96078Y28747D01*
X96073Y28742D01*
X96059Y28719D01*
X96046Y28700D01*
X96036Y28682D01*
X96022Y28654D01*
X96004Y28622D01*
X95990Y28580D01*
X95972Y28534D01*
X95953Y28483D01*
X95930Y28423D01*
X95912Y28359D01*
X95888Y28285D01*
X95870Y28201D01*
X95847Y28109D01*
Y28104D01*
X95842Y28086D01*
X95838Y28058D01*
X95828Y28026D01*
X95819Y27984D01*
X95805Y27933D01*
X95791Y27883D01*
X95777Y27827D01*
X95745Y27707D01*
X95713Y27592D01*
X95694Y27536D01*
X95676Y27485D01*
X95662Y27439D01*
X95644Y27402D01*
Y27398D01*
X95639Y27388D01*
X95630Y27374D01*
X95620Y27356D01*
X95593Y27305D01*
X95556Y27245D01*
X95505Y27176D01*
X95450Y27106D01*
X95385Y27042D01*
X95315Y26986D01*
X95306Y26982D01*
X95283Y26963D01*
X95242Y26945D01*
X95186Y26917D01*
X95122Y26894D01*
X95043Y26871D01*
X94955Y26857D01*
X94863Y26852D01*
X94858D01*
X94854D01*
X94840D01*
X94821D01*
X94770Y26862D01*
X94706Y26871D01*
X94632Y26889D01*
X94553Y26912D01*
X94470Y26949D01*
X94382Y27000D01*
X94378D01*
X94373Y27005D01*
X94345Y27028D01*
X94304Y27060D01*
X94257Y27106D01*
X94202Y27167D01*
X94142Y27240D01*
X94087Y27324D01*
X94036Y27421D01*
Y27425D01*
X94031Y27435D01*
X94026Y27448D01*
X94017Y27467D01*
X94008Y27495D01*
X93994Y27527D01*
X93976Y27601D01*
X93953Y27689D01*
X93929Y27795D01*
X93916Y27910D01*
X93911Y28035D01*
Y28109D01*
X93916Y28146D01*
Y28188D01*
X93920Y28234D01*
X93925Y28289D01*
X93943Y28405D01*
X93962Y28525D01*
X93994Y28645D01*
X94036Y28760D01*
Y28765D01*
X94040Y28774D01*
X94050Y28788D01*
X94059Y28807D01*
X94087Y28862D01*
X94128Y28927D01*
X94184Y29001D01*
X94248Y29079D01*
X94327Y29153D01*
X94415Y29222D01*
X94419D01*
X94428Y29232D01*
X94442Y29236D01*
X94461Y29250D01*
X94484Y29259D01*
X94512Y29273D01*
X94581Y29306D01*
X94669Y29338D01*
X94766Y29366D01*
X94877Y29384D01*
X94992Y29393D01*
X95029Y28996D01*
D02*
G37*
G36*
X97163Y25032D02*
X97159Y25000D01*
Y24963D01*
X97150Y24880D01*
X97140Y24787D01*
X97122Y24690D01*
X97099Y24593D01*
X97066Y24505D01*
Y24501D01*
X97062Y24496D01*
X97048Y24468D01*
X97025Y24427D01*
X96993Y24381D01*
X96951Y24325D01*
X96900Y24265D01*
X96836Y24210D01*
X96766Y24159D01*
X96757Y24154D01*
X96729Y24140D01*
X96692Y24117D01*
X96637Y24094D01*
X96572Y24071D01*
X96503Y24048D01*
X96424Y24034D01*
X96346Y24030D01*
X96337D01*
X96313D01*
X96272Y24034D01*
X96221Y24043D01*
X96161Y24057D01*
X96096Y24080D01*
X96032Y24108D01*
X95962Y24145D01*
X95953Y24150D01*
X95935Y24163D01*
X95898Y24191D01*
X95861Y24228D01*
X95815Y24274D01*
X95764Y24330D01*
X95717Y24399D01*
X95671Y24478D01*
Y24473D01*
X95667Y24464D01*
X95662Y24450D01*
X95653Y24431D01*
X95634Y24376D01*
X95602Y24311D01*
X95560Y24242D01*
X95510Y24163D01*
X95450Y24094D01*
X95376Y24030D01*
X95366Y24025D01*
X95339Y24006D01*
X95297Y23979D01*
X95242Y23951D01*
X95168Y23923D01*
X95089Y23896D01*
X94997Y23877D01*
X94895Y23873D01*
X94890D01*
X94886D01*
X94858D01*
X94812Y23877D01*
X94757Y23886D01*
X94692Y23896D01*
X94622Y23914D01*
X94549Y23937D01*
X94475Y23969D01*
X94465Y23974D01*
X94442Y23988D01*
X94410Y24006D01*
X94364Y24034D01*
X94318Y24071D01*
X94267Y24108D01*
X94216Y24154D01*
X94174Y24205D01*
X94170Y24210D01*
X94156Y24228D01*
X94137Y24261D01*
X94119Y24302D01*
X94091Y24353D01*
X94064Y24413D01*
X94040Y24478D01*
X94017Y24556D01*
Y24566D01*
X94008Y24593D01*
X94003Y24639D01*
X93994Y24700D01*
X93985Y24773D01*
X93976Y24861D01*
X93971Y24958D01*
X93967Y25069D01*
Y26289D01*
X97163D01*
Y25032D01*
D02*
G37*
G36*
X96373Y23147D02*
X96383Y23138D01*
X96387Y23119D01*
X96401Y23096D01*
X96415Y23069D01*
X96434Y23036D01*
X96480Y22958D01*
X96531Y22865D01*
X96595Y22773D01*
X96669Y22676D01*
X96748Y22579D01*
X96752Y22574D01*
X96757Y22570D01*
X96771Y22556D01*
X96785Y22537D01*
X96831Y22496D01*
X96886Y22440D01*
X96951Y22385D01*
X97025Y22325D01*
X97099Y22274D01*
X97177Y22228D01*
Y21974D01*
X93967D01*
Y22366D01*
X96466D01*
X96461Y22371D01*
X96443Y22394D01*
X96415Y22422D01*
X96383Y22468D01*
X96341Y22519D01*
X96295Y22583D01*
X96244Y22657D01*
X96193Y22741D01*
Y22745D01*
X96189Y22750D01*
X96170Y22777D01*
X96147Y22824D01*
X96119Y22879D01*
X96087Y22944D01*
X96055Y23013D01*
X96022Y23083D01*
X95995Y23152D01*
X96373D01*
Y23147D01*
D02*
G37*
G36*
X89264Y29583D02*
X89259D01*
X89255D01*
X89241Y29578D01*
X89223D01*
X89181Y29569D01*
X89121Y29555D01*
X89061Y29537D01*
X88991Y29518D01*
X88927Y29486D01*
X88867Y29453D01*
X88862Y29449D01*
X88844Y29435D01*
X88811Y29412D01*
X88779Y29375D01*
X88737Y29329D01*
X88696Y29278D01*
X88654Y29209D01*
X88617Y29135D01*
Y29130D01*
X88613Y29125D01*
X88608Y29112D01*
X88603Y29098D01*
X88590Y29052D01*
X88571Y28991D01*
X88553Y28918D01*
X88539Y28834D01*
X88529Y28742D01*
X88525Y28640D01*
Y28599D01*
X88529Y28552D01*
X88534Y28497D01*
X88543Y28432D01*
X88553Y28359D01*
X88571Y28285D01*
X88594Y28215D01*
X88599Y28206D01*
X88608Y28183D01*
X88626Y28151D01*
X88645Y28109D01*
X88677Y28067D01*
X88710Y28021D01*
X88747Y27975D01*
X88793Y27938D01*
X88797Y27933D01*
X88816Y27924D01*
X88839Y27910D01*
X88876Y27892D01*
X88913Y27873D01*
X88959Y27860D01*
X89010Y27850D01*
X89065Y27846D01*
X89070D01*
X89093D01*
X89121Y27850D01*
X89158Y27855D01*
X89195Y27869D01*
X89241Y27883D01*
X89287Y27906D01*
X89329Y27938D01*
X89333Y27943D01*
X89347Y27957D01*
X89366Y27975D01*
X89393Y28007D01*
X89421Y28044D01*
X89454Y28095D01*
X89486Y28155D01*
X89513Y28225D01*
X89518Y28229D01*
X89523Y28252D01*
X89537Y28289D01*
X89541Y28312D01*
X89551Y28345D01*
X89564Y28377D01*
X89574Y28419D01*
X89587Y28465D01*
X89601Y28520D01*
X89615Y28576D01*
X89634Y28640D01*
X89652Y28714D01*
X89671Y28793D01*
Y28797D01*
X89675Y28811D01*
X89680Y28834D01*
X89689Y28862D01*
X89698Y28899D01*
X89708Y28941D01*
X89735Y29033D01*
X89768Y29135D01*
X89800Y29241D01*
X89832Y29333D01*
X89851Y29375D01*
X89869Y29412D01*
Y29416D01*
X89874Y29421D01*
X89892Y29449D01*
X89916Y29490D01*
X89952Y29537D01*
X89994Y29592D01*
X90045Y29647D01*
X90105Y29703D01*
X90170Y29749D01*
X90179Y29754D01*
X90202Y29768D01*
X90239Y29786D01*
X90285Y29805D01*
X90345Y29823D01*
X90414Y29842D01*
X90488Y29855D01*
X90567Y29860D01*
X90571D01*
X90576D01*
X90590D01*
X90609D01*
X90655Y29851D01*
X90715Y29842D01*
X90784Y29828D01*
X90863Y29805D01*
X90941Y29772D01*
X91020Y29726D01*
X91024D01*
X91029Y29721D01*
X91057Y29698D01*
X91094Y29666D01*
X91140Y29624D01*
X91191Y29569D01*
X91246Y29500D01*
X91297Y29416D01*
X91343Y29324D01*
Y29320D01*
X91348Y29310D01*
X91352Y29296D01*
X91361Y29278D01*
X91371Y29255D01*
X91380Y29222D01*
X91399Y29153D01*
X91417Y29065D01*
X91435Y28964D01*
X91449Y28857D01*
X91454Y28737D01*
Y28677D01*
X91449Y28645D01*
Y28613D01*
X91440Y28525D01*
X91426Y28428D01*
X91403Y28326D01*
X91375Y28215D01*
X91338Y28114D01*
Y28109D01*
X91334Y28100D01*
X91325Y28086D01*
X91315Y28067D01*
X91292Y28021D01*
X91251Y27961D01*
X91205Y27892D01*
X91144Y27823D01*
X91075Y27758D01*
X90997Y27698D01*
X90992D01*
X90987Y27693D01*
X90974Y27684D01*
X90960Y27675D01*
X90913Y27652D01*
X90853Y27624D01*
X90779Y27592D01*
X90692Y27569D01*
X90599Y27545D01*
X90498Y27536D01*
X90465Y27943D01*
X90470D01*
X90479D01*
X90493Y27947D01*
X90516Y27952D01*
X90567Y27966D01*
X90636Y27984D01*
X90710Y28012D01*
X90784Y28054D01*
X90853Y28104D01*
X90918Y28169D01*
X90923Y28178D01*
X90941Y28201D01*
X90969Y28248D01*
X90997Y28308D01*
X91024Y28386D01*
X91052Y28479D01*
X91070Y28594D01*
X91075Y28723D01*
Y28788D01*
X91070Y28816D01*
X91066Y28853D01*
X91057Y28936D01*
X91038Y29028D01*
X91015Y29121D01*
X90978Y29209D01*
X90955Y29245D01*
X90932Y29283D01*
X90927Y29292D01*
X90909Y29310D01*
X90876Y29338D01*
X90839Y29366D01*
X90789Y29398D01*
X90733Y29426D01*
X90669Y29444D01*
X90595Y29453D01*
X90585D01*
X90567D01*
X90535Y29449D01*
X90498Y29440D01*
X90451Y29426D01*
X90405Y29403D01*
X90359Y29375D01*
X90313Y29333D01*
X90308Y29329D01*
X90294Y29306D01*
X90280Y29287D01*
X90271Y29269D01*
X90257Y29241D01*
X90239Y29209D01*
X90225Y29167D01*
X90207Y29121D01*
X90188Y29070D01*
X90165Y29010D01*
X90146Y28945D01*
X90123Y28871D01*
X90105Y28788D01*
X90082Y28696D01*
Y28691D01*
X90077Y28673D01*
X90073Y28645D01*
X90063Y28613D01*
X90054Y28571D01*
X90040Y28520D01*
X90026Y28469D01*
X90013Y28414D01*
X89980Y28294D01*
X89948Y28178D01*
X89929Y28123D01*
X89911Y28072D01*
X89897Y28026D01*
X89878Y27989D01*
Y27984D01*
X89874Y27975D01*
X89865Y27961D01*
X89855Y27943D01*
X89828Y27892D01*
X89791Y27832D01*
X89740Y27762D01*
X89684Y27693D01*
X89620Y27628D01*
X89551Y27573D01*
X89541Y27569D01*
X89518Y27550D01*
X89477Y27531D01*
X89421Y27504D01*
X89356Y27481D01*
X89278Y27458D01*
X89190Y27444D01*
X89098Y27439D01*
X89093D01*
X89088D01*
X89075D01*
X89056D01*
X89005Y27448D01*
X88941Y27458D01*
X88867Y27476D01*
X88788Y27499D01*
X88705Y27536D01*
X88617Y27587D01*
X88613D01*
X88608Y27592D01*
X88580Y27615D01*
X88539Y27647D01*
X88493Y27693D01*
X88437Y27753D01*
X88377Y27827D01*
X88322Y27910D01*
X88271Y28007D01*
Y28012D01*
X88266Y28021D01*
X88261Y28035D01*
X88252Y28054D01*
X88243Y28081D01*
X88229Y28114D01*
X88211Y28188D01*
X88188Y28275D01*
X88165Y28382D01*
X88151Y28497D01*
X88146Y28622D01*
Y28696D01*
X88151Y28733D01*
Y28774D01*
X88155Y28820D01*
X88160Y28876D01*
X88178Y28991D01*
X88197Y29112D01*
X88229Y29232D01*
X88271Y29347D01*
Y29352D01*
X88275Y29361D01*
X88285Y29375D01*
X88294Y29393D01*
X88322Y29449D01*
X88363Y29513D01*
X88419Y29587D01*
X88483Y29666D01*
X88562Y29740D01*
X88650Y29809D01*
X88654D01*
X88664Y29818D01*
X88677Y29823D01*
X88696Y29837D01*
X88719Y29846D01*
X88747Y29860D01*
X88816Y29892D01*
X88904Y29925D01*
X89001Y29952D01*
X89112Y29971D01*
X89227Y29980D01*
X89264Y29583D01*
D02*
G37*
G36*
X91399Y25619D02*
X91394Y25587D01*
Y25550D01*
X91385Y25466D01*
X91375Y25374D01*
X91357Y25277D01*
X91334Y25180D01*
X91302Y25092D01*
Y25087D01*
X91297Y25083D01*
X91283Y25055D01*
X91260Y25014D01*
X91228Y24967D01*
X91186Y24912D01*
X91135Y24852D01*
X91070Y24796D01*
X91001Y24746D01*
X90992Y24741D01*
X90964Y24727D01*
X90927Y24704D01*
X90872Y24681D01*
X90807Y24658D01*
X90738Y24635D01*
X90659Y24621D01*
X90581Y24616D01*
X90571D01*
X90548D01*
X90507Y24621D01*
X90456Y24630D01*
X90396Y24644D01*
X90331Y24667D01*
X90267Y24695D01*
X90197Y24732D01*
X90188Y24736D01*
X90170Y24750D01*
X90133Y24778D01*
X90096Y24815D01*
X90049Y24861D01*
X89999Y24917D01*
X89952Y24986D01*
X89906Y25064D01*
Y25060D01*
X89902Y25051D01*
X89897Y25037D01*
X89888Y25018D01*
X89869Y24963D01*
X89837Y24898D01*
X89795Y24829D01*
X89745Y24750D01*
X89684Y24681D01*
X89611Y24616D01*
X89601Y24612D01*
X89574Y24593D01*
X89532Y24566D01*
X89477Y24538D01*
X89403Y24510D01*
X89324Y24482D01*
X89232Y24464D01*
X89130Y24459D01*
X89126D01*
X89121D01*
X89093D01*
X89047Y24464D01*
X88991Y24473D01*
X88927Y24482D01*
X88858Y24501D01*
X88784Y24524D01*
X88710Y24556D01*
X88700Y24561D01*
X88677Y24575D01*
X88645Y24593D01*
X88599Y24621D01*
X88553Y24658D01*
X88502Y24695D01*
X88451Y24741D01*
X88409Y24792D01*
X88405Y24796D01*
X88391Y24815D01*
X88372Y24847D01*
X88354Y24889D01*
X88326Y24940D01*
X88298Y25000D01*
X88275Y25064D01*
X88252Y25143D01*
Y25152D01*
X88243Y25180D01*
X88238Y25226D01*
X88229Y25286D01*
X88220Y25360D01*
X88211Y25448D01*
X88206Y25545D01*
X88201Y25656D01*
Y26875D01*
X91399D01*
Y25619D01*
D02*
G37*
G36*
X88289Y24090D02*
X88331Y24085D01*
X88377Y24076D01*
X88423Y24067D01*
X88474Y24048D01*
X88479D01*
X88483Y24043D01*
X88511Y24034D01*
X88553Y24016D01*
X88608Y23988D01*
X88673Y23951D01*
X88747Y23905D01*
X88821Y23854D01*
X88899Y23789D01*
X88904D01*
X88908Y23780D01*
X88936Y23757D01*
X88978Y23715D01*
X89038Y23655D01*
X89107Y23586D01*
X89190Y23498D01*
X89283Y23392D01*
X89380Y23277D01*
X89384Y23272D01*
X89398Y23253D01*
X89421Y23226D01*
X89449Y23193D01*
X89486Y23152D01*
X89527Y23101D01*
X89574Y23050D01*
X89624Y22990D01*
X89735Y22875D01*
X89846Y22759D01*
X89902Y22704D01*
X89957Y22653D01*
X90008Y22607D01*
X90059Y22570D01*
X90063D01*
X90068Y22560D01*
X90082Y22551D01*
X90100Y22542D01*
X90151Y22510D01*
X90211Y22473D01*
X90285Y22440D01*
X90364Y22408D01*
X90451Y22389D01*
X90535Y22380D01*
X90539D01*
X90544D01*
X90571Y22385D01*
X90618Y22389D01*
X90669Y22403D01*
X90733Y22422D01*
X90798Y22454D01*
X90863Y22496D01*
X90927Y22551D01*
X90936Y22560D01*
X90955Y22583D01*
X90978Y22616D01*
X91010Y22667D01*
X91038Y22731D01*
X91066Y22805D01*
X91084Y22893D01*
X91089Y22990D01*
Y23018D01*
X91084Y23036D01*
X91080Y23092D01*
X91066Y23156D01*
X91047Y23226D01*
X91015Y23304D01*
X90974Y23378D01*
X90918Y23447D01*
X90909Y23457D01*
X90886Y23475D01*
X90849Y23503D01*
X90793Y23531D01*
X90729Y23563D01*
X90645Y23591D01*
X90553Y23609D01*
X90447Y23618D01*
X90488Y24020D01*
X90493D01*
X90507Y24016D01*
X90530D01*
X90562Y24011D01*
X90599Y24002D01*
X90641Y23993D01*
X90692Y23979D01*
X90742Y23965D01*
X90853Y23928D01*
X90964Y23873D01*
X91020Y23840D01*
X91075Y23799D01*
X91126Y23757D01*
X91172Y23711D01*
X91177Y23706D01*
X91181Y23697D01*
X91195Y23683D01*
X91209Y23660D01*
X91228Y23632D01*
X91246Y23600D01*
X91269Y23563D01*
X91292Y23517D01*
X91315Y23466D01*
X91338Y23411D01*
X91357Y23350D01*
X91375Y23286D01*
X91389Y23216D01*
X91403Y23143D01*
X91408Y23064D01*
X91412Y22981D01*
Y22935D01*
X91408Y22902D01*
X91403Y22865D01*
X91399Y22819D01*
X91389Y22768D01*
X91380Y22717D01*
X91348Y22597D01*
X91302Y22477D01*
X91274Y22417D01*
X91241Y22357D01*
X91200Y22302D01*
X91154Y22251D01*
X91149Y22246D01*
X91144Y22237D01*
X91126Y22228D01*
X91107Y22209D01*
X91084Y22186D01*
X91052Y22163D01*
X91020Y22140D01*
X90978Y22112D01*
X90890Y22066D01*
X90779Y22020D01*
X90724Y22001D01*
X90659Y21992D01*
X90595Y21983D01*
X90525Y21978D01*
X90516D01*
X90493D01*
X90456Y21983D01*
X90405Y21987D01*
X90350Y21997D01*
X90285Y22015D01*
X90216Y22034D01*
X90146Y22061D01*
X90137Y22066D01*
X90114Y22075D01*
X90077Y22094D01*
X90026Y22121D01*
X89971Y22159D01*
X89902Y22205D01*
X89832Y22260D01*
X89754Y22325D01*
X89745Y22334D01*
X89717Y22357D01*
X89694Y22380D01*
X89671Y22403D01*
X89643Y22431D01*
X89606Y22468D01*
X89569Y22505D01*
X89527Y22551D01*
X89481Y22597D01*
X89430Y22653D01*
X89380Y22713D01*
X89319Y22777D01*
X89259Y22851D01*
X89195Y22925D01*
X89190Y22930D01*
X89181Y22939D01*
X89167Y22958D01*
X89149Y22981D01*
X89121Y23009D01*
X89093Y23041D01*
X89033Y23115D01*
X88964Y23193D01*
X88894Y23267D01*
X88834Y23332D01*
X88811Y23360D01*
X88788Y23383D01*
X88784Y23387D01*
X88770Y23401D01*
X88751Y23420D01*
X88723Y23443D01*
X88691Y23466D01*
X88659Y23494D01*
X88580Y23549D01*
Y21974D01*
X88201D01*
Y24094D01*
X88206D01*
X88225D01*
X88252D01*
X88289Y24090D01*
D02*
G37*
G36*
X83464Y29615D02*
X83460D01*
X83455D01*
X83441Y29610D01*
X83422D01*
X83381Y29601D01*
X83321Y29587D01*
X83261Y29569D01*
X83192Y29550D01*
X83127Y29518D01*
X83067Y29486D01*
X83062Y29481D01*
X83044Y29467D01*
X83011Y29444D01*
X82979Y29407D01*
X82937Y29361D01*
X82896Y29310D01*
X82854Y29241D01*
X82817Y29167D01*
Y29162D01*
X82813Y29158D01*
X82808Y29144D01*
X82803Y29130D01*
X82789Y29084D01*
X82771Y29024D01*
X82753Y28950D01*
X82739Y28867D01*
X82730Y28774D01*
X82725Y28673D01*
Y28631D01*
X82730Y28585D01*
X82734Y28529D01*
X82743Y28465D01*
X82753Y28391D01*
X82771Y28317D01*
X82794Y28248D01*
X82799Y28238D01*
X82808Y28215D01*
X82827Y28183D01*
X82845Y28141D01*
X82877Y28100D01*
X82910Y28054D01*
X82947Y28007D01*
X82993Y27970D01*
X82998Y27966D01*
X83016Y27957D01*
X83039Y27943D01*
X83076Y27924D01*
X83113Y27906D01*
X83159Y27892D01*
X83210Y27883D01*
X83265Y27878D01*
X83270D01*
X83293D01*
X83321Y27883D01*
X83358Y27887D01*
X83395Y27901D01*
X83441Y27915D01*
X83487Y27938D01*
X83529Y27970D01*
X83533Y27975D01*
X83547Y27989D01*
X83566Y28007D01*
X83593Y28040D01*
X83621Y28077D01*
X83653Y28128D01*
X83686Y28188D01*
X83714Y28257D01*
X83718Y28262D01*
X83723Y28285D01*
X83737Y28321D01*
X83741Y28345D01*
X83750Y28377D01*
X83764Y28409D01*
X83774Y28451D01*
X83788Y28497D01*
X83801Y28552D01*
X83815Y28608D01*
X83834Y28673D01*
X83852Y28747D01*
X83871Y28825D01*
Y28830D01*
X83875Y28844D01*
X83880Y28867D01*
X83889Y28894D01*
X83898Y28931D01*
X83908Y28973D01*
X83935Y29065D01*
X83968Y29167D01*
X84000Y29273D01*
X84032Y29366D01*
X84051Y29407D01*
X84069Y29444D01*
Y29449D01*
X84074Y29453D01*
X84092Y29481D01*
X84115Y29523D01*
X84152Y29569D01*
X84194Y29624D01*
X84245Y29680D01*
X84305Y29735D01*
X84370Y29781D01*
X84379Y29786D01*
X84402Y29800D01*
X84439Y29818D01*
X84485Y29837D01*
X84545Y29855D01*
X84614Y29874D01*
X84688Y29888D01*
X84767Y29892D01*
X84772D01*
X84776D01*
X84790D01*
X84808D01*
X84855Y29883D01*
X84915Y29874D01*
X84984Y29860D01*
X85063Y29837D01*
X85141Y29805D01*
X85220Y29758D01*
X85224D01*
X85229Y29754D01*
X85257Y29731D01*
X85294Y29698D01*
X85340Y29657D01*
X85391Y29601D01*
X85446Y29532D01*
X85497Y29449D01*
X85543Y29356D01*
Y29352D01*
X85548Y29343D01*
X85552Y29329D01*
X85562Y29310D01*
X85571Y29287D01*
X85580Y29255D01*
X85598Y29186D01*
X85617Y29098D01*
X85636Y28996D01*
X85649Y28890D01*
X85654Y28770D01*
Y28710D01*
X85649Y28677D01*
Y28645D01*
X85640Y28557D01*
X85626Y28460D01*
X85603Y28359D01*
X85575Y28248D01*
X85539Y28146D01*
Y28141D01*
X85534Y28132D01*
X85525Y28118D01*
X85515Y28100D01*
X85492Y28054D01*
X85451Y27994D01*
X85404Y27924D01*
X85344Y27855D01*
X85275Y27790D01*
X85197Y27730D01*
X85192D01*
X85187Y27726D01*
X85173Y27716D01*
X85160Y27707D01*
X85113Y27684D01*
X85053Y27656D01*
X84979Y27624D01*
X84892Y27601D01*
X84799Y27578D01*
X84698Y27569D01*
X84665Y27975D01*
X84670D01*
X84679D01*
X84693Y27980D01*
X84716Y27984D01*
X84767Y27998D01*
X84836Y28017D01*
X84910Y28044D01*
X84984Y28086D01*
X85053Y28137D01*
X85118Y28201D01*
X85123Y28211D01*
X85141Y28234D01*
X85169Y28280D01*
X85197Y28340D01*
X85224Y28419D01*
X85252Y28511D01*
X85271Y28626D01*
X85275Y28756D01*
Y28820D01*
X85271Y28848D01*
X85266Y28885D01*
X85257Y28968D01*
X85238Y29061D01*
X85215Y29153D01*
X85178Y29241D01*
X85155Y29278D01*
X85132Y29315D01*
X85127Y29324D01*
X85109Y29343D01*
X85076Y29370D01*
X85040Y29398D01*
X84989Y29430D01*
X84933Y29458D01*
X84869Y29476D01*
X84795Y29486D01*
X84785D01*
X84767D01*
X84735Y29481D01*
X84698Y29472D01*
X84651Y29458D01*
X84605Y29435D01*
X84559Y29407D01*
X84513Y29366D01*
X84508Y29361D01*
X84494Y29338D01*
X84481Y29320D01*
X84471Y29301D01*
X84457Y29273D01*
X84439Y29241D01*
X84425Y29199D01*
X84407Y29153D01*
X84388Y29102D01*
X84365Y29042D01*
X84346Y28978D01*
X84323Y28904D01*
X84305Y28820D01*
X84282Y28728D01*
Y28723D01*
X84277Y28705D01*
X84273Y28677D01*
X84263Y28645D01*
X84254Y28603D01*
X84240Y28552D01*
X84226Y28502D01*
X84212Y28446D01*
X84180Y28326D01*
X84148Y28211D01*
X84129Y28155D01*
X84111Y28104D01*
X84097Y28058D01*
X84079Y28021D01*
Y28017D01*
X84074Y28007D01*
X84065Y27994D01*
X84055Y27975D01*
X84028Y27924D01*
X83991Y27864D01*
X83940Y27795D01*
X83885Y27726D01*
X83820Y27661D01*
X83750Y27605D01*
X83741Y27601D01*
X83718Y27582D01*
X83677Y27564D01*
X83621Y27536D01*
X83556Y27513D01*
X83478Y27490D01*
X83390Y27476D01*
X83298Y27472D01*
X83293D01*
X83289D01*
X83275D01*
X83256D01*
X83205Y27481D01*
X83141Y27490D01*
X83067Y27508D01*
X82988Y27531D01*
X82905Y27569D01*
X82817Y27619D01*
X82813D01*
X82808Y27624D01*
X82780Y27647D01*
X82739Y27679D01*
X82692Y27726D01*
X82637Y27786D01*
X82577Y27860D01*
X82522Y27943D01*
X82471Y28040D01*
Y28044D01*
X82466Y28054D01*
X82462Y28067D01*
X82452Y28086D01*
X82443Y28114D01*
X82429Y28146D01*
X82411Y28220D01*
X82388Y28308D01*
X82364Y28414D01*
X82351Y28529D01*
X82346Y28654D01*
Y28728D01*
X82351Y28765D01*
Y28807D01*
X82355Y28853D01*
X82360Y28908D01*
X82378Y29024D01*
X82397Y29144D01*
X82429Y29264D01*
X82471Y29379D01*
Y29384D01*
X82475Y29393D01*
X82485Y29407D01*
X82494Y29426D01*
X82522Y29481D01*
X82563Y29546D01*
X82619Y29620D01*
X82683Y29698D01*
X82762Y29772D01*
X82850Y29842D01*
X82854D01*
X82863Y29851D01*
X82877Y29855D01*
X82896Y29869D01*
X82919Y29879D01*
X82947Y29892D01*
X83016Y29925D01*
X83104Y29957D01*
X83201Y29985D01*
X83312Y30003D01*
X83427Y30013D01*
X83464Y29615D01*
D02*
G37*
G36*
X85598Y25651D02*
X85594Y25619D01*
Y25582D01*
X85585Y25499D01*
X85575Y25406D01*
X85557Y25309D01*
X85534Y25212D01*
X85501Y25124D01*
Y25120D01*
X85497Y25115D01*
X85483Y25087D01*
X85460Y25046D01*
X85428Y25000D01*
X85386Y24944D01*
X85335Y24884D01*
X85271Y24829D01*
X85201Y24778D01*
X85192Y24773D01*
X85164Y24759D01*
X85127Y24736D01*
X85072Y24713D01*
X85007Y24690D01*
X84938Y24667D01*
X84859Y24653D01*
X84781Y24649D01*
X84772D01*
X84748D01*
X84707Y24653D01*
X84656Y24663D01*
X84596Y24676D01*
X84531Y24700D01*
X84467Y24727D01*
X84397Y24764D01*
X84388Y24769D01*
X84370Y24783D01*
X84333Y24810D01*
X84296Y24847D01*
X84250Y24893D01*
X84199Y24949D01*
X84152Y25018D01*
X84106Y25097D01*
Y25092D01*
X84102Y25083D01*
X84097Y25069D01*
X84088Y25051D01*
X84069Y24995D01*
X84037Y24930D01*
X83995Y24861D01*
X83945Y24783D01*
X83885Y24713D01*
X83811Y24649D01*
X83801Y24644D01*
X83774Y24625D01*
X83732Y24598D01*
X83677Y24570D01*
X83603Y24542D01*
X83524Y24515D01*
X83432Y24496D01*
X83330Y24492D01*
X83325D01*
X83321D01*
X83293D01*
X83247Y24496D01*
X83192Y24505D01*
X83127Y24515D01*
X83057Y24533D01*
X82984Y24556D01*
X82910Y24589D01*
X82900Y24593D01*
X82877Y24607D01*
X82845Y24625D01*
X82799Y24653D01*
X82753Y24690D01*
X82702Y24727D01*
X82651Y24773D01*
X82609Y24824D01*
X82605Y24829D01*
X82591Y24847D01*
X82572Y24880D01*
X82554Y24921D01*
X82526Y24972D01*
X82499Y25032D01*
X82475Y25097D01*
X82452Y25175D01*
Y25185D01*
X82443Y25212D01*
X82438Y25258D01*
X82429Y25319D01*
X82420Y25392D01*
X82411Y25480D01*
X82406Y25577D01*
X82402Y25688D01*
Y26908D01*
X85598D01*
Y25651D01*
D02*
G37*
G36*
X83298Y23674D02*
X83293D01*
X83284Y23669D01*
X83265Y23665D01*
X83242Y23660D01*
X83215Y23655D01*
X83182Y23646D01*
X83113Y23623D01*
X83030Y23591D01*
X82951Y23549D01*
X82877Y23503D01*
X82813Y23447D01*
X82808Y23438D01*
X82789Y23420D01*
X82766Y23383D01*
X82743Y23337D01*
X82716Y23281D01*
X82692Y23212D01*
X82674Y23133D01*
X82669Y23050D01*
Y23022D01*
X82674Y23004D01*
X82679Y22953D01*
X82692Y22888D01*
X82716Y22815D01*
X82748Y22736D01*
X82794Y22657D01*
X82859Y22583D01*
X82868Y22574D01*
X82896Y22551D01*
X82937Y22523D01*
X82993Y22487D01*
X83062Y22449D01*
X83141Y22422D01*
X83233Y22399D01*
X83335Y22389D01*
X83339D01*
X83349D01*
X83362D01*
X83381Y22394D01*
X83432Y22399D01*
X83492Y22413D01*
X83566Y22431D01*
X83640Y22463D01*
X83714Y22510D01*
X83783Y22570D01*
X83792Y22579D01*
X83811Y22602D01*
X83838Y22639D01*
X83871Y22690D01*
X83903Y22754D01*
X83931Y22833D01*
X83949Y22921D01*
X83958Y23018D01*
Y23059D01*
X83954Y23092D01*
X83949Y23133D01*
X83940Y23179D01*
X83931Y23235D01*
X83917Y23295D01*
X84263Y23249D01*
Y23226D01*
X84259Y23207D01*
Y23147D01*
X84268Y23096D01*
X84277Y23036D01*
X84291Y22967D01*
X84314Y22888D01*
X84346Y22815D01*
X84388Y22736D01*
Y22731D01*
X84393Y22727D01*
X84411Y22704D01*
X84443Y22671D01*
X84485Y22634D01*
X84545Y22597D01*
X84614Y22565D01*
X84693Y22542D01*
X84739Y22533D01*
X84790D01*
X84795D01*
X84799D01*
X84827D01*
X84864Y22542D01*
X84915Y22551D01*
X84970Y22570D01*
X85030Y22593D01*
X85090Y22630D01*
X85146Y22681D01*
X85150Y22685D01*
X85169Y22708D01*
X85192Y22741D01*
X85220Y22782D01*
X85243Y22838D01*
X85266Y22902D01*
X85284Y22976D01*
X85289Y23059D01*
Y23096D01*
X85280Y23138D01*
X85271Y23193D01*
X85252Y23253D01*
X85229Y23313D01*
X85192Y23378D01*
X85146Y23438D01*
X85141Y23443D01*
X85118Y23461D01*
X85086Y23489D01*
X85040Y23521D01*
X84979Y23554D01*
X84905Y23586D01*
X84818Y23614D01*
X84716Y23632D01*
X84785Y24025D01*
X84790D01*
X84804Y24020D01*
X84822Y24016D01*
X84850Y24011D01*
X84882Y24002D01*
X84919Y23988D01*
X85007Y23960D01*
X85109Y23914D01*
X85210Y23859D01*
X85307Y23789D01*
X85395Y23701D01*
X85400Y23697D01*
X85404Y23688D01*
X85414Y23674D01*
X85428Y23655D01*
X85446Y23632D01*
X85465Y23600D01*
X85483Y23568D01*
X85506Y23526D01*
X85543Y23434D01*
X85580Y23327D01*
X85603Y23203D01*
X85612Y23138D01*
Y23022D01*
X85608Y22972D01*
X85598Y22911D01*
X85585Y22838D01*
X85562Y22754D01*
X85534Y22671D01*
X85497Y22588D01*
Y22583D01*
X85492Y22579D01*
X85478Y22551D01*
X85451Y22510D01*
X85418Y22463D01*
X85372Y22408D01*
X85321Y22353D01*
X85261Y22297D01*
X85192Y22251D01*
X85183Y22246D01*
X85160Y22232D01*
X85118Y22214D01*
X85067Y22191D01*
X85007Y22168D01*
X84938Y22149D01*
X84859Y22135D01*
X84781Y22131D01*
X84772D01*
X84744D01*
X84707Y22135D01*
X84656Y22145D01*
X84596Y22159D01*
X84531Y22182D01*
X84467Y22209D01*
X84402Y22246D01*
X84393Y22251D01*
X84374Y22265D01*
X84342Y22292D01*
X84305Y22329D01*
X84263Y22376D01*
X84217Y22431D01*
X84175Y22496D01*
X84134Y22574D01*
Y22570D01*
X84129Y22560D01*
X84125Y22546D01*
X84120Y22528D01*
X84102Y22477D01*
X84074Y22413D01*
X84037Y22339D01*
X83991Y22265D01*
X83931Y22195D01*
X83861Y22131D01*
X83852Y22126D01*
X83824Y22108D01*
X83778Y22080D01*
X83718Y22052D01*
X83644Y22025D01*
X83556Y21997D01*
X83455Y21978D01*
X83344Y21974D01*
X83339D01*
X83325D01*
X83302D01*
X83275Y21978D01*
X83238Y21983D01*
X83196Y21992D01*
X83150Y22001D01*
X83099Y22011D01*
X82988Y22048D01*
X82928Y22075D01*
X82873Y22103D01*
X82813Y22140D01*
X82753Y22182D01*
X82692Y22228D01*
X82637Y22283D01*
X82632Y22288D01*
X82623Y22297D01*
X82609Y22316D01*
X82591Y22339D01*
X82568Y22366D01*
X82545Y22403D01*
X82517Y22445D01*
X82494Y22496D01*
X82466Y22546D01*
X82438Y22607D01*
X82415Y22667D01*
X82392Y22736D01*
X82374Y22810D01*
X82360Y22888D01*
X82351Y22967D01*
X82346Y23055D01*
Y23096D01*
X82351Y23124D01*
X82355Y23161D01*
X82360Y23203D01*
X82369Y23249D01*
X82378Y23300D01*
X82406Y23411D01*
X82452Y23526D01*
X82480Y23586D01*
X82512Y23641D01*
X82554Y23697D01*
X82595Y23752D01*
X82600Y23757D01*
X82609Y23766D01*
X82623Y23780D01*
X82642Y23794D01*
X82665Y23817D01*
X82697Y23840D01*
X82730Y23868D01*
X82771Y23896D01*
X82817Y23923D01*
X82863Y23951D01*
X82974Y24002D01*
X83104Y24043D01*
X83173Y24057D01*
X83247Y24067D01*
X83298Y23674D01*
D02*
G37*
G36*
X100464Y29601D02*
X100460D01*
X100455D01*
X100441Y29597D01*
X100423D01*
X100381Y29587D01*
X100321Y29574D01*
X100261Y29555D01*
X100191Y29537D01*
X100127Y29504D01*
X100067Y29472D01*
X100062Y29467D01*
X100044Y29453D01*
X100011Y29430D01*
X99979Y29393D01*
X99937Y29347D01*
X99896Y29296D01*
X99854Y29227D01*
X99817Y29153D01*
Y29149D01*
X99813Y29144D01*
X99808Y29130D01*
X99803Y29116D01*
X99790Y29070D01*
X99771Y29010D01*
X99753Y28936D01*
X99739Y28853D01*
X99730Y28760D01*
X99725Y28659D01*
Y28617D01*
X99730Y28571D01*
X99734Y28516D01*
X99743Y28451D01*
X99753Y28377D01*
X99771Y28303D01*
X99794Y28234D01*
X99799Y28225D01*
X99808Y28201D01*
X99827Y28169D01*
X99845Y28128D01*
X99877Y28086D01*
X99910Y28040D01*
X99947Y27994D01*
X99993Y27957D01*
X99998Y27952D01*
X100016Y27943D01*
X100039Y27929D01*
X100076Y27910D01*
X100113Y27892D01*
X100159Y27878D01*
X100210Y27869D01*
X100265Y27864D01*
X100270D01*
X100293D01*
X100321Y27869D01*
X100358Y27873D01*
X100395Y27887D01*
X100441Y27901D01*
X100487Y27924D01*
X100529Y27957D01*
X100533Y27961D01*
X100547Y27975D01*
X100566Y27994D01*
X100593Y28026D01*
X100621Y28063D01*
X100654Y28114D01*
X100686Y28174D01*
X100714Y28243D01*
X100718Y28248D01*
X100723Y28271D01*
X100737Y28308D01*
X100741Y28331D01*
X100751Y28363D01*
X100764Y28396D01*
X100774Y28437D01*
X100787Y28483D01*
X100801Y28539D01*
X100815Y28594D01*
X100834Y28659D01*
X100852Y28733D01*
X100871Y28811D01*
Y28816D01*
X100875Y28830D01*
X100880Y28853D01*
X100889Y28881D01*
X100898Y28918D01*
X100908Y28959D01*
X100935Y29052D01*
X100968Y29153D01*
X101000Y29259D01*
X101032Y29352D01*
X101051Y29393D01*
X101069Y29430D01*
Y29435D01*
X101074Y29440D01*
X101092Y29467D01*
X101116Y29509D01*
X101152Y29555D01*
X101194Y29610D01*
X101245Y29666D01*
X101305Y29721D01*
X101370Y29768D01*
X101379Y29772D01*
X101402Y29786D01*
X101439Y29805D01*
X101485Y29823D01*
X101545Y29842D01*
X101614Y29860D01*
X101688Y29874D01*
X101767Y29879D01*
X101771D01*
X101776D01*
X101790D01*
X101809D01*
X101855Y29869D01*
X101915Y29860D01*
X101984Y29846D01*
X102063Y29823D01*
X102141Y29791D01*
X102220Y29744D01*
X102224D01*
X102229Y29740D01*
X102257Y29717D01*
X102294Y29684D01*
X102340Y29643D01*
X102391Y29587D01*
X102446Y29518D01*
X102497Y29435D01*
X102543Y29343D01*
Y29338D01*
X102548Y29329D01*
X102552Y29315D01*
X102562Y29296D01*
X102571Y29273D01*
X102580Y29241D01*
X102599Y29172D01*
X102617Y29084D01*
X102636Y28982D01*
X102649Y28876D01*
X102654Y28756D01*
Y28696D01*
X102649Y28663D01*
Y28631D01*
X102640Y28543D01*
X102626Y28446D01*
X102603Y28345D01*
X102575Y28234D01*
X102538Y28132D01*
Y28128D01*
X102534Y28118D01*
X102525Y28104D01*
X102515Y28086D01*
X102492Y28040D01*
X102451Y27980D01*
X102404Y27910D01*
X102344Y27841D01*
X102275Y27776D01*
X102197Y27716D01*
X102192D01*
X102187Y27712D01*
X102173Y27703D01*
X102160Y27693D01*
X102113Y27670D01*
X102053Y27642D01*
X101979Y27610D01*
X101892Y27587D01*
X101799Y27564D01*
X101698Y27555D01*
X101665Y27961D01*
X101670D01*
X101679D01*
X101693Y27966D01*
X101716Y27970D01*
X101767Y27984D01*
X101836Y28003D01*
X101910Y28030D01*
X101984Y28072D01*
X102053Y28123D01*
X102118Y28188D01*
X102123Y28197D01*
X102141Y28220D01*
X102169Y28266D01*
X102197Y28326D01*
X102224Y28405D01*
X102252Y28497D01*
X102270Y28613D01*
X102275Y28742D01*
Y28807D01*
X102270Y28834D01*
X102266Y28871D01*
X102257Y28954D01*
X102238Y29047D01*
X102215Y29139D01*
X102178Y29227D01*
X102155Y29264D01*
X102132Y29301D01*
X102127Y29310D01*
X102109Y29329D01*
X102076Y29356D01*
X102040Y29384D01*
X101989Y29416D01*
X101933Y29444D01*
X101869Y29463D01*
X101795Y29472D01*
X101785D01*
X101767D01*
X101735Y29467D01*
X101698Y29458D01*
X101651Y29444D01*
X101605Y29421D01*
X101559Y29393D01*
X101513Y29352D01*
X101508Y29347D01*
X101494Y29324D01*
X101480Y29306D01*
X101471Y29287D01*
X101457Y29259D01*
X101439Y29227D01*
X101425Y29186D01*
X101407Y29139D01*
X101388Y29089D01*
X101365Y29028D01*
X101347Y28964D01*
X101323Y28890D01*
X101305Y28807D01*
X101282Y28714D01*
Y28710D01*
X101277Y28691D01*
X101273Y28663D01*
X101263Y28631D01*
X101254Y28589D01*
X101240Y28539D01*
X101226Y28488D01*
X101213Y28432D01*
X101180Y28312D01*
X101148Y28197D01*
X101129Y28141D01*
X101111Y28091D01*
X101097Y28044D01*
X101078Y28007D01*
Y28003D01*
X101074Y27994D01*
X101065Y27980D01*
X101055Y27961D01*
X101028Y27910D01*
X100991Y27850D01*
X100940Y27781D01*
X100884Y27712D01*
X100820Y27647D01*
X100751Y27592D01*
X100741Y27587D01*
X100718Y27569D01*
X100677Y27550D01*
X100621Y27522D01*
X100557Y27499D01*
X100478Y27476D01*
X100390Y27462D01*
X100298Y27458D01*
X100293D01*
X100288D01*
X100275D01*
X100256D01*
X100205Y27467D01*
X100141Y27476D01*
X100067Y27495D01*
X99988Y27518D01*
X99905Y27555D01*
X99817Y27605D01*
X99813D01*
X99808Y27610D01*
X99780Y27633D01*
X99739Y27665D01*
X99692Y27712D01*
X99637Y27772D01*
X99577Y27846D01*
X99522Y27929D01*
X99471Y28026D01*
Y28030D01*
X99466Y28040D01*
X99462Y28054D01*
X99452Y28072D01*
X99443Y28100D01*
X99429Y28132D01*
X99411Y28206D01*
X99388Y28294D01*
X99365Y28400D01*
X99351Y28516D01*
X99346Y28640D01*
Y28714D01*
X99351Y28751D01*
Y28793D01*
X99355Y28839D01*
X99360Y28894D01*
X99378Y29010D01*
X99397Y29130D01*
X99429Y29250D01*
X99471Y29366D01*
Y29370D01*
X99475Y29379D01*
X99485Y29393D01*
X99494Y29412D01*
X99522Y29467D01*
X99563Y29532D01*
X99619Y29606D01*
X99683Y29684D01*
X99762Y29758D01*
X99850Y29828D01*
X99854D01*
X99863Y29837D01*
X99877Y29842D01*
X99896Y29855D01*
X99919Y29865D01*
X99947Y29879D01*
X100016Y29911D01*
X100104Y29943D01*
X100201Y29971D01*
X100312Y29989D01*
X100427Y29999D01*
X100464Y29601D01*
D02*
G37*
G36*
X102599Y25637D02*
X102594Y25605D01*
Y25568D01*
X102585Y25485D01*
X102575Y25392D01*
X102557Y25295D01*
X102534Y25198D01*
X102501Y25111D01*
Y25106D01*
X102497Y25101D01*
X102483Y25074D01*
X102460Y25032D01*
X102428Y24986D01*
X102386Y24930D01*
X102335Y24870D01*
X102270Y24815D01*
X102201Y24764D01*
X102192Y24759D01*
X102164Y24746D01*
X102127Y24723D01*
X102072Y24700D01*
X102007Y24676D01*
X101938Y24653D01*
X101859Y24639D01*
X101781Y24635D01*
X101771D01*
X101748D01*
X101707Y24639D01*
X101656Y24649D01*
X101596Y24663D01*
X101531Y24686D01*
X101467Y24713D01*
X101397Y24750D01*
X101388Y24755D01*
X101370Y24769D01*
X101333Y24796D01*
X101296Y24833D01*
X101250Y24880D01*
X101199Y24935D01*
X101152Y25004D01*
X101106Y25083D01*
Y25078D01*
X101102Y25069D01*
X101097Y25055D01*
X101088Y25037D01*
X101069Y24981D01*
X101037Y24917D01*
X100995Y24847D01*
X100945Y24769D01*
X100884Y24700D01*
X100811Y24635D01*
X100801Y24630D01*
X100774Y24612D01*
X100732Y24584D01*
X100677Y24556D01*
X100603Y24529D01*
X100524Y24501D01*
X100432Y24482D01*
X100330Y24478D01*
X100326D01*
X100321D01*
X100293D01*
X100247Y24482D01*
X100191Y24492D01*
X100127Y24501D01*
X100057Y24519D01*
X99984Y24542D01*
X99910Y24575D01*
X99900Y24579D01*
X99877Y24593D01*
X99845Y24612D01*
X99799Y24639D01*
X99753Y24676D01*
X99702Y24713D01*
X99651Y24759D01*
X99609Y24810D01*
X99605Y24815D01*
X99591Y24833D01*
X99572Y24866D01*
X99554Y24907D01*
X99526Y24958D01*
X99498Y25018D01*
X99475Y25083D01*
X99452Y25161D01*
Y25171D01*
X99443Y25198D01*
X99438Y25245D01*
X99429Y25305D01*
X99420Y25379D01*
X99411Y25466D01*
X99406Y25563D01*
X99401Y25674D01*
Y26894D01*
X102599D01*
Y25637D01*
D02*
G37*
G36*
Y22727D02*
Y22408D01*
X100529D01*
Y21974D01*
X100168D01*
Y22408D01*
X99401D01*
Y22801D01*
X100168D01*
Y24191D01*
X100529D01*
X102599Y22727D01*
D02*
G37*
G36*
X24692Y78601D02*
X24729Y78596D01*
X24775Y78592D01*
X24826Y78582D01*
X24877Y78573D01*
X24997Y78541D01*
X25117Y78495D01*
X25177Y78467D01*
X25237Y78434D01*
X25292Y78393D01*
X25343Y78347D01*
X25348Y78342D01*
X25357Y78338D01*
X25366Y78319D01*
X25385Y78300D01*
X25408Y78277D01*
X25431Y78245D01*
X25454Y78213D01*
X25482Y78171D01*
X25528Y78083D01*
X25574Y77973D01*
X25593Y77917D01*
X25602Y77852D01*
X25611Y77788D01*
X25616Y77718D01*
Y77709D01*
Y77686D01*
X25611Y77649D01*
X25607Y77598D01*
X25597Y77543D01*
X25579Y77478D01*
X25560Y77409D01*
X25533Y77340D01*
X25528Y77330D01*
X25519Y77307D01*
X25500Y77270D01*
X25473Y77219D01*
X25436Y77164D01*
X25389Y77095D01*
X25334Y77025D01*
X25269Y76947D01*
X25260Y76938D01*
X25237Y76910D01*
X25214Y76887D01*
X25191Y76864D01*
X25163Y76836D01*
X25126Y76799D01*
X25089Y76762D01*
X25043Y76720D01*
X24997Y76674D01*
X24941Y76623D01*
X24881Y76573D01*
X24816Y76513D01*
X24743Y76452D01*
X24669Y76388D01*
X24664Y76383D01*
X24655Y76374D01*
X24636Y76360D01*
X24613Y76342D01*
X24586Y76314D01*
X24553Y76286D01*
X24479Y76226D01*
X24401Y76157D01*
X24327Y76087D01*
X24262Y76028D01*
X24234Y76004D01*
X24211Y75981D01*
X24207Y75977D01*
X24193Y75963D01*
X24174Y75944D01*
X24151Y75917D01*
X24128Y75884D01*
X24100Y75852D01*
X24045Y75773D01*
X25620D01*
Y75395D01*
X23500D01*
Y75399D01*
Y75418D01*
Y75445D01*
X23504Y75482D01*
X23509Y75524D01*
X23518Y75570D01*
X23528Y75616D01*
X23546Y75667D01*
Y75672D01*
X23551Y75676D01*
X23560Y75704D01*
X23578Y75746D01*
X23606Y75801D01*
X23643Y75866D01*
X23689Y75940D01*
X23740Y76014D01*
X23805Y76092D01*
Y76097D01*
X23814Y76101D01*
X23837Y76129D01*
X23879Y76171D01*
X23939Y76231D01*
X24008Y76300D01*
X24096Y76383D01*
X24202Y76476D01*
X24317Y76573D01*
X24322Y76577D01*
X24341Y76591D01*
X24368Y76614D01*
X24401Y76642D01*
X24442Y76679D01*
X24493Y76720D01*
X24544Y76767D01*
X24604Y76818D01*
X24720Y76928D01*
X24835Y77039D01*
X24890Y77095D01*
X24941Y77150D01*
X24987Y77201D01*
X25024Y77252D01*
Y77256D01*
X25034Y77261D01*
X25043Y77275D01*
X25052Y77293D01*
X25084Y77344D01*
X25121Y77404D01*
X25154Y77478D01*
X25186Y77557D01*
X25205Y77644D01*
X25214Y77728D01*
Y77732D01*
Y77737D01*
X25209Y77765D01*
X25205Y77811D01*
X25191Y77862D01*
X25172Y77926D01*
X25140Y77991D01*
X25098Y78056D01*
X25043Y78120D01*
X25034Y78130D01*
X25010Y78148D01*
X24978Y78171D01*
X24927Y78203D01*
X24863Y78231D01*
X24789Y78259D01*
X24701Y78277D01*
X24604Y78282D01*
X24576D01*
X24558Y78277D01*
X24502Y78273D01*
X24438Y78259D01*
X24368Y78241D01*
X24290Y78208D01*
X24216Y78167D01*
X24147Y78111D01*
X24137Y78102D01*
X24119Y78079D01*
X24091Y78042D01*
X24063Y77986D01*
X24031Y77922D01*
X24003Y77838D01*
X23985Y77746D01*
X23976Y77640D01*
X23574Y77681D01*
Y77686D01*
X23578Y77700D01*
Y77723D01*
X23583Y77755D01*
X23592Y77792D01*
X23601Y77834D01*
X23615Y77885D01*
X23629Y77936D01*
X23666Y78046D01*
X23721Y78157D01*
X23754Y78213D01*
X23796Y78268D01*
X23837Y78319D01*
X23883Y78365D01*
X23888Y78370D01*
X23897Y78374D01*
X23911Y78388D01*
X23934Y78402D01*
X23962Y78421D01*
X23994Y78439D01*
X24031Y78462D01*
X24077Y78485D01*
X24128Y78508D01*
X24183Y78531D01*
X24244Y78550D01*
X24308Y78569D01*
X24378Y78582D01*
X24452Y78596D01*
X24530Y78601D01*
X24613Y78605D01*
X24659D01*
X24692Y78601D01*
D02*
G37*
G36*
X22118Y78587D02*
X22197Y78582D01*
X22280Y78578D01*
X22359Y78569D01*
X22428Y78559D01*
X22437D01*
X22469Y78550D01*
X22511Y78541D01*
X22567Y78527D01*
X22627Y78504D01*
X22691Y78476D01*
X22761Y78444D01*
X22821Y78407D01*
X22830Y78402D01*
X22848Y78388D01*
X22876Y78361D01*
X22913Y78328D01*
X22955Y78287D01*
X22996Y78231D01*
X23042Y78171D01*
X23079Y78102D01*
X23084Y78093D01*
X23093Y78070D01*
X23112Y78028D01*
X23130Y77973D01*
X23144Y77908D01*
X23163Y77834D01*
X23172Y77751D01*
X23176Y77663D01*
Y77658D01*
Y77644D01*
Y77626D01*
X23172Y77594D01*
X23167Y77561D01*
X23163Y77520D01*
X23153Y77474D01*
X23144Y77423D01*
X23112Y77316D01*
X23093Y77261D01*
X23065Y77201D01*
X23033Y77141D01*
X23001Y77086D01*
X22959Y77030D01*
X22913Y76975D01*
X22908Y76970D01*
X22899Y76961D01*
X22885Y76947D01*
X22862Y76933D01*
X22835Y76910D01*
X22798Y76887D01*
X22751Y76859D01*
X22701Y76836D01*
X22640Y76808D01*
X22571Y76781D01*
X22497Y76757D01*
X22410Y76739D01*
X22317Y76720D01*
X22215Y76707D01*
X22100Y76697D01*
X21980Y76693D01*
X21162D01*
Y75395D01*
X20737D01*
Y78592D01*
X22049D01*
X22118Y78587D01*
D02*
G37*
G36*
X20298Y78213D02*
X19245D01*
Y75395D01*
X18820D01*
Y78213D01*
X17766D01*
Y78592D01*
X20298D01*
Y78213D01*
D02*
G37*
G36*
X21095Y17192D02*
X21090D01*
X21086D01*
X21072Y17187D01*
X21053D01*
X21012Y17178D01*
X20952Y17164D01*
X20892Y17145D01*
X20822Y17127D01*
X20758Y17095D01*
X20698Y17062D01*
X20693Y17058D01*
X20674Y17044D01*
X20642Y17021D01*
X20610Y16984D01*
X20568Y16938D01*
X20527Y16887D01*
X20485Y16817D01*
X20448Y16744D01*
Y16739D01*
X20444Y16734D01*
X20439Y16721D01*
X20434Y16707D01*
X20420Y16660D01*
X20402Y16600D01*
X20383Y16526D01*
X20370Y16443D01*
X20360Y16351D01*
X20356Y16249D01*
Y16208D01*
X20360Y16161D01*
X20365Y16106D01*
X20374Y16041D01*
X20383Y15967D01*
X20402Y15893D01*
X20425Y15824D01*
X20430Y15815D01*
X20439Y15792D01*
X20457Y15759D01*
X20476Y15718D01*
X20508Y15676D01*
X20541Y15630D01*
X20577Y15584D01*
X20624Y15547D01*
X20628Y15542D01*
X20647Y15533D01*
X20670Y15519D01*
X20707Y15501D01*
X20744Y15482D01*
X20790Y15469D01*
X20841Y15459D01*
X20896Y15455D01*
X20901D01*
X20924D01*
X20952Y15459D01*
X20989Y15464D01*
X21026Y15478D01*
X21072Y15492D01*
X21118Y15515D01*
X21160Y15547D01*
X21164Y15552D01*
X21178Y15565D01*
X21197Y15584D01*
X21224Y15616D01*
X21252Y15653D01*
X21284Y15704D01*
X21317Y15764D01*
X21344Y15834D01*
X21349Y15838D01*
X21354Y15861D01*
X21368Y15898D01*
X21372Y15921D01*
X21381Y15954D01*
X21395Y15986D01*
X21405Y16027D01*
X21418Y16074D01*
X21432Y16129D01*
X21446Y16185D01*
X21465Y16249D01*
X21483Y16323D01*
X21501Y16402D01*
Y16406D01*
X21506Y16420D01*
X21511Y16443D01*
X21520Y16471D01*
X21529Y16508D01*
X21539Y16550D01*
X21566Y16642D01*
X21599Y16744D01*
X21631Y16850D01*
X21663Y16942D01*
X21682Y16984D01*
X21700Y17021D01*
Y17025D01*
X21705Y17030D01*
X21723Y17058D01*
X21746Y17099D01*
X21783Y17145D01*
X21825Y17201D01*
X21876Y17256D01*
X21936Y17312D01*
X22001Y17358D01*
X22010Y17363D01*
X22033Y17377D01*
X22070Y17395D01*
X22116Y17413D01*
X22176Y17432D01*
X22245Y17450D01*
X22319Y17464D01*
X22398Y17469D01*
X22402D01*
X22407D01*
X22421D01*
X22439D01*
X22486Y17460D01*
X22546Y17450D01*
X22615Y17437D01*
X22693Y17413D01*
X22772Y17381D01*
X22851Y17335D01*
X22855D01*
X22860Y17330D01*
X22887Y17307D01*
X22925Y17275D01*
X22971Y17233D01*
X23021Y17178D01*
X23077Y17109D01*
X23128Y17025D01*
X23174Y16933D01*
Y16928D01*
X23179Y16919D01*
X23183Y16905D01*
X23192Y16887D01*
X23202Y16864D01*
X23211Y16831D01*
X23229Y16762D01*
X23248Y16674D01*
X23266Y16573D01*
X23280Y16466D01*
X23285Y16346D01*
Y16286D01*
X23280Y16254D01*
Y16221D01*
X23271Y16134D01*
X23257Y16037D01*
X23234Y15935D01*
X23206Y15824D01*
X23169Y15723D01*
Y15718D01*
X23165Y15709D01*
X23155Y15695D01*
X23146Y15676D01*
X23123Y15630D01*
X23082Y15570D01*
X23035Y15501D01*
X22975Y15431D01*
X22906Y15367D01*
X22828Y15307D01*
X22823D01*
X22818Y15302D01*
X22804Y15293D01*
X22791Y15284D01*
X22744Y15261D01*
X22684Y15233D01*
X22610Y15201D01*
X22523Y15177D01*
X22430Y15154D01*
X22329Y15145D01*
X22296Y15552D01*
X22301D01*
X22310D01*
X22324Y15556D01*
X22347Y15561D01*
X22398Y15575D01*
X22467Y15593D01*
X22541Y15621D01*
X22615Y15663D01*
X22684Y15713D01*
X22749Y15778D01*
X22753Y15787D01*
X22772Y15810D01*
X22800Y15857D01*
X22828Y15917D01*
X22855Y15995D01*
X22883Y16088D01*
X22901Y16203D01*
X22906Y16332D01*
Y16397D01*
X22901Y16425D01*
X22897Y16462D01*
X22887Y16545D01*
X22869Y16637D01*
X22846Y16730D01*
X22809Y16817D01*
X22786Y16854D01*
X22763Y16891D01*
X22758Y16901D01*
X22740Y16919D01*
X22707Y16947D01*
X22670Y16975D01*
X22620Y17007D01*
X22564Y17035D01*
X22499Y17053D01*
X22425Y17062D01*
X22416D01*
X22398D01*
X22366Y17058D01*
X22329Y17049D01*
X22282Y17035D01*
X22236Y17012D01*
X22190Y16984D01*
X22144Y16942D01*
X22139Y16938D01*
X22125Y16915D01*
X22111Y16896D01*
X22102Y16878D01*
X22088Y16850D01*
X22070Y16817D01*
X22056Y16776D01*
X22037Y16730D01*
X22019Y16679D01*
X21996Y16619D01*
X21977Y16554D01*
X21954Y16480D01*
X21936Y16397D01*
X21913Y16305D01*
Y16300D01*
X21908Y16282D01*
X21903Y16254D01*
X21894Y16221D01*
X21885Y16180D01*
X21871Y16129D01*
X21857Y16078D01*
X21843Y16023D01*
X21811Y15903D01*
X21779Y15787D01*
X21760Y15732D01*
X21742Y15681D01*
X21728Y15635D01*
X21709Y15598D01*
Y15593D01*
X21705Y15584D01*
X21696Y15570D01*
X21686Y15552D01*
X21659Y15501D01*
X21622Y15441D01*
X21571Y15371D01*
X21515Y15302D01*
X21451Y15237D01*
X21381Y15182D01*
X21372Y15177D01*
X21349Y15159D01*
X21307Y15141D01*
X21252Y15113D01*
X21187Y15090D01*
X21109Y15067D01*
X21021Y15053D01*
X20929Y15048D01*
X20924D01*
X20919D01*
X20906D01*
X20887D01*
X20836Y15057D01*
X20772Y15067D01*
X20698Y15085D01*
X20619Y15108D01*
X20536Y15145D01*
X20448Y15196D01*
X20444D01*
X20439Y15201D01*
X20411Y15224D01*
X20370Y15256D01*
X20323Y15302D01*
X20268Y15362D01*
X20208Y15436D01*
X20153Y15519D01*
X20102Y15616D01*
Y15621D01*
X20097Y15630D01*
X20092Y15644D01*
X20083Y15663D01*
X20074Y15690D01*
X20060Y15723D01*
X20042Y15797D01*
X20019Y15884D01*
X19995Y15991D01*
X19982Y16106D01*
X19977Y16231D01*
Y16305D01*
X19982Y16342D01*
Y16383D01*
X19986Y16429D01*
X19991Y16485D01*
X20009Y16600D01*
X20028Y16721D01*
X20060Y16841D01*
X20102Y16956D01*
Y16961D01*
X20106Y16970D01*
X20116Y16984D01*
X20125Y17002D01*
X20153Y17058D01*
X20194Y17122D01*
X20249Y17196D01*
X20314Y17275D01*
X20393Y17349D01*
X20481Y17418D01*
X20485D01*
X20494Y17427D01*
X20508Y17432D01*
X20527Y17446D01*
X20550Y17455D01*
X20577Y17469D01*
X20647Y17501D01*
X20735Y17534D01*
X20832Y17561D01*
X20943Y17580D01*
X21058Y17589D01*
X21095Y17192D01*
D02*
G37*
G36*
X23229Y14323D02*
X21132Y13847D01*
X21127D01*
X21118Y13842D01*
X21100Y13838D01*
X21077Y13833D01*
X21044Y13828D01*
X21012Y13819D01*
X20970Y13810D01*
X20924Y13801D01*
X20827Y13778D01*
X20716Y13755D01*
X20596Y13731D01*
X20476Y13708D01*
X20481D01*
X20499Y13704D01*
X20522Y13694D01*
X20559Y13690D01*
X20596Y13680D01*
X20642Y13667D01*
X20744Y13644D01*
X20845Y13616D01*
X20896Y13607D01*
X20943Y13593D01*
X20984Y13584D01*
X21021Y13574D01*
X21049Y13565D01*
X21067Y13560D01*
X23229Y12955D01*
Y12442D01*
X21608Y11990D01*
X21603D01*
X21580Y11980D01*
X21548Y11971D01*
X21506Y11962D01*
X21451Y11948D01*
X21391Y11930D01*
X21321Y11911D01*
X21243Y11893D01*
X21155Y11869D01*
X21067Y11851D01*
X20878Y11809D01*
X20679Y11768D01*
X20476Y11735D01*
X20481D01*
X20490Y11731D01*
X20508D01*
X20531Y11722D01*
X20559Y11717D01*
X20591Y11708D01*
X20633Y11703D01*
X20679Y11689D01*
X20781Y11666D01*
X20901Y11638D01*
X21030Y11611D01*
X21173Y11574D01*
X23229Y11075D01*
Y10645D01*
X20032Y11523D01*
Y11939D01*
X22467Y12609D01*
X22472D01*
X22481Y12613D01*
X22495Y12618D01*
X22518Y12623D01*
X22569Y12636D01*
X22629Y12650D01*
X22693Y12669D01*
X22753Y12687D01*
X22804Y12701D01*
X22828Y12706D01*
X22841Y12710D01*
X22837D01*
X22832Y12715D01*
X22804Y12720D01*
X22763Y12729D01*
X22712Y12743D01*
X22657Y12756D01*
X22592Y12775D01*
X22527Y12789D01*
X22467Y12807D01*
X20032Y13482D01*
Y13925D01*
X23229Y14762D01*
Y14323D01*
D02*
G37*
G36*
X22439Y10105D02*
X22449Y10095D01*
X22453Y10077D01*
X22467Y10054D01*
X22481Y10026D01*
X22499Y9994D01*
X22546Y9915D01*
X22596Y9823D01*
X22661Y9730D01*
X22735Y9633D01*
X22814Y9536D01*
X22818Y9532D01*
X22823Y9527D01*
X22837Y9513D01*
X22851Y9495D01*
X22897Y9453D01*
X22952Y9398D01*
X23017Y9342D01*
X23091Y9282D01*
X23165Y9232D01*
X23243Y9185D01*
Y8931D01*
X20032D01*
Y9324D01*
X22532D01*
X22527Y9329D01*
X22509Y9352D01*
X22481Y9379D01*
X22449Y9426D01*
X22407Y9476D01*
X22361Y9541D01*
X22310Y9615D01*
X22259Y9698D01*
Y9703D01*
X22255Y9707D01*
X22236Y9735D01*
X22213Y9781D01*
X22185Y9837D01*
X22153Y9901D01*
X22121Y9971D01*
X22088Y10040D01*
X22061Y10109D01*
X22439D01*
Y10105D01*
D02*
G37*
G36*
X25034Y79095D02*
X24641D01*
Y81594D01*
X24636Y81589D01*
X24613Y81571D01*
X24586Y81543D01*
X24539Y81511D01*
X24488Y81469D01*
X24424Y81423D01*
X24350Y81372D01*
X24267Y81321D01*
X24262D01*
X24258Y81317D01*
X24230Y81298D01*
X24183Y81275D01*
X24128Y81248D01*
X24063Y81215D01*
X23994Y81183D01*
X23925Y81151D01*
X23855Y81123D01*
Y81502D01*
X23860D01*
X23869Y81511D01*
X23888Y81515D01*
X23911Y81529D01*
X23939Y81543D01*
X23971Y81562D01*
X24050Y81608D01*
X24142Y81659D01*
X24234Y81723D01*
X24331Y81797D01*
X24428Y81876D01*
X24433Y81880D01*
X24438Y81885D01*
X24452Y81899D01*
X24470Y81913D01*
X24512Y81959D01*
X24567Y82014D01*
X24622Y82079D01*
X24682Y82153D01*
X24733Y82227D01*
X24780Y82305D01*
X25034D01*
Y79095D01*
D02*
G37*
G36*
X22118Y82287D02*
X22197Y82282D01*
X22280Y82278D01*
X22359Y82269D01*
X22428Y82259D01*
X22437D01*
X22469Y82250D01*
X22511Y82241D01*
X22567Y82227D01*
X22627Y82204D01*
X22691Y82176D01*
X22761Y82144D01*
X22821Y82107D01*
X22830Y82102D01*
X22848Y82088D01*
X22876Y82061D01*
X22913Y82028D01*
X22955Y81987D01*
X22996Y81931D01*
X23042Y81871D01*
X23079Y81802D01*
X23084Y81793D01*
X23093Y81770D01*
X23112Y81728D01*
X23130Y81673D01*
X23144Y81608D01*
X23163Y81534D01*
X23172Y81451D01*
X23176Y81363D01*
Y81358D01*
Y81344D01*
Y81326D01*
X23172Y81294D01*
X23167Y81261D01*
X23163Y81220D01*
X23153Y81174D01*
X23144Y81123D01*
X23112Y81016D01*
X23093Y80961D01*
X23065Y80901D01*
X23033Y80841D01*
X23001Y80786D01*
X22959Y80730D01*
X22913Y80675D01*
X22908Y80670D01*
X22899Y80661D01*
X22885Y80647D01*
X22862Y80633D01*
X22835Y80610D01*
X22798Y80587D01*
X22751Y80559D01*
X22701Y80536D01*
X22640Y80508D01*
X22571Y80481D01*
X22497Y80457D01*
X22410Y80439D01*
X22317Y80421D01*
X22215Y80407D01*
X22100Y80397D01*
X21980Y80393D01*
X21162D01*
Y79095D01*
X20737D01*
Y82292D01*
X22049D01*
X22118Y82287D01*
D02*
G37*
G36*
X20298Y81913D02*
X19245D01*
Y79095D01*
X18820D01*
Y81913D01*
X17766D01*
Y82292D01*
X20298D01*
Y81913D01*
D02*
G37*
G36*
X39660Y51100D02*
X38200D01*
Y51572D01*
X39660D01*
Y51100D01*
D02*
G37*
G36*
X48487Y50893D02*
X49531D01*
Y50454D01*
X48487D01*
Y49400D01*
X48043D01*
Y50454D01*
X47000D01*
Y50893D01*
X48043D01*
Y51936D01*
X48487D01*
Y50893D01*
D02*
G37*
G36*
X103453Y58871D02*
X103448Y58788D01*
X103443Y58696D01*
X103434Y58603D01*
X103420Y58511D01*
X103406Y58432D01*
Y58428D01*
X103402Y58418D01*
Y58404D01*
X103392Y58386D01*
X103379Y58335D01*
X103356Y58271D01*
X103323Y58197D01*
X103281Y58118D01*
X103235Y58039D01*
X103175Y57965D01*
X103171Y57961D01*
X103166Y57956D01*
X103152Y57942D01*
X103138Y57924D01*
X103092Y57878D01*
X103027Y57822D01*
X102949Y57762D01*
X102857Y57698D01*
X102750Y57638D01*
X102630Y57587D01*
X102626D01*
X102616Y57582D01*
X102598Y57573D01*
X102570Y57568D01*
X102538Y57554D01*
X102501Y57545D01*
X102459Y57536D01*
X102408Y57522D01*
X102357Y57508D01*
X102297Y57499D01*
X102168Y57476D01*
X102025Y57462D01*
X101868Y57457D01*
X101863D01*
X101854D01*
X101831D01*
X101808D01*
X101775Y57462D01*
X101739D01*
X101651Y57467D01*
X101549Y57480D01*
X101443Y57494D01*
X101332Y57517D01*
X101221Y57545D01*
X101216D01*
X101207Y57550D01*
X101193Y57554D01*
X101175Y57559D01*
X101124Y57578D01*
X101059Y57605D01*
X100985Y57633D01*
X100911Y57670D01*
X100833Y57716D01*
X100759Y57762D01*
X100750Y57767D01*
X100727Y57785D01*
X100694Y57813D01*
X100653Y57850D01*
X100607Y57892D01*
X100560Y57942D01*
X100510Y57993D01*
X100468Y58053D01*
X100463Y58063D01*
X100450Y58081D01*
X100431Y58113D01*
X100408Y58160D01*
X100380Y58215D01*
X100357Y58280D01*
X100329Y58354D01*
X100306Y58437D01*
Y58446D01*
X100302Y58460D01*
X100297Y58474D01*
X100292Y58520D01*
X100283Y58585D01*
X100274Y58658D01*
X100265Y58746D01*
X100260Y58843D01*
X100255Y58950D01*
Y60100D01*
X103453D01*
Y58871D01*
D02*
G37*
G36*
X101886Y57000D02*
X101942D01*
X102006Y56991D01*
X102085Y56981D01*
X102173Y56968D01*
X102265Y56949D01*
X102362Y56931D01*
X102464Y56903D01*
X102565Y56866D01*
X102672Y56824D01*
X102773Y56778D01*
X102875Y56718D01*
X102967Y56653D01*
X103055Y56580D01*
X103060Y56575D01*
X103074Y56561D01*
X103097Y56533D01*
X103124Y56501D01*
X103161Y56459D01*
X103198Y56409D01*
X103240Y56349D01*
X103281Y56279D01*
X103323Y56205D01*
X103365Y56122D01*
X103402Y56030D01*
X103439Y55933D01*
X103466Y55826D01*
X103489Y55716D01*
X103503Y55600D01*
X103508Y55475D01*
Y55434D01*
X103503Y55401D01*
Y55360D01*
X103499Y55318D01*
X103489Y55263D01*
X103480Y55207D01*
X103457Y55087D01*
X103420Y54949D01*
X103365Y54815D01*
X103332Y54745D01*
X103295Y54676D01*
X103291Y54672D01*
X103286Y54662D01*
X103272Y54644D01*
X103258Y54616D01*
X103235Y54588D01*
X103208Y54551D01*
X103143Y54473D01*
X103060Y54390D01*
X102958Y54297D01*
X102838Y54210D01*
X102704Y54136D01*
X102699D01*
X102686Y54126D01*
X102667Y54117D01*
X102639Y54108D01*
X102602Y54089D01*
X102561Y54075D01*
X102510Y54057D01*
X102455Y54039D01*
X102394Y54025D01*
X102330Y54006D01*
X102256Y53988D01*
X102182Y53974D01*
X102020Y53955D01*
X101845Y53946D01*
X101840D01*
X101822D01*
X101798D01*
X101762Y53951D01*
X101720D01*
X101669Y53955D01*
X101614Y53965D01*
X101554Y53969D01*
X101420Y53992D01*
X101272Y54029D01*
X101124Y54080D01*
X101050Y54108D01*
X100976Y54145D01*
X100971D01*
X100958Y54154D01*
X100939Y54163D01*
X100911Y54182D01*
X100879Y54200D01*
X100847Y54223D01*
X100759Y54288D01*
X100667Y54367D01*
X100570Y54459D01*
X100477Y54570D01*
X100394Y54699D01*
Y54704D01*
X100385Y54713D01*
X100376Y54736D01*
X100362Y54764D01*
X100348Y54796D01*
X100334Y54833D01*
X100315Y54879D01*
X100297Y54930D01*
X100278Y54986D01*
X100260Y55046D01*
X100232Y55180D01*
X100209Y55323D01*
X100200Y55475D01*
Y55522D01*
X100205Y55549D01*
Y55591D01*
X100214Y55637D01*
X100218Y55688D01*
X100228Y55748D01*
X100255Y55873D01*
X100292Y56007D01*
X100348Y56145D01*
X100380Y56215D01*
X100417Y56284D01*
X100422Y56288D01*
X100426Y56298D01*
X100440Y56316D01*
X100459Y56344D01*
X100477Y56372D01*
X100505Y56404D01*
X100574Y56482D01*
X100657Y56570D01*
X100759Y56663D01*
X100874Y56746D01*
X101008Y56824D01*
X101013D01*
X101027Y56834D01*
X101046Y56843D01*
X101073Y56852D01*
X101110Y56866D01*
X101152Y56880D01*
X101198Y56898D01*
X101249Y56912D01*
X101309Y56931D01*
X101369Y56949D01*
X101507Y56977D01*
X101651Y56995D01*
X101808Y57005D01*
X101812D01*
X101817D01*
X101845D01*
X101886Y57000D01*
D02*
G37*
G36*
X103453Y52971D02*
X100939Y51294D01*
X103453D01*
Y50888D01*
X100255D01*
Y51327D01*
X102764Y52999D01*
X100255D01*
Y53406D01*
X103453D01*
Y52971D01*
D02*
G37*
G36*
Y47857D02*
X103074D01*
Y49747D01*
X102099D01*
Y47977D01*
X101720D01*
Y49747D01*
X100634D01*
Y47783D01*
X100255D01*
Y50172D01*
X103453D01*
Y47857D01*
D02*
G37*
%LPC*%
G36*
X96785Y25864D02*
X95824D01*
Y25078D01*
X95828Y25018D01*
X95833Y24954D01*
X95838Y24889D01*
X95847Y24824D01*
X95856Y24773D01*
X95861Y24764D01*
X95865Y24746D01*
X95879Y24718D01*
X95898Y24681D01*
X95916Y24644D01*
X95944Y24602D01*
X95981Y24561D01*
X96018Y24529D01*
X96022Y24524D01*
X96036Y24515D01*
X96064Y24501D01*
X96096Y24487D01*
X96133Y24473D01*
X96179Y24459D01*
X96235Y24450D01*
X96295Y24445D01*
X96304D01*
X96323D01*
X96350Y24450D01*
X96387Y24455D01*
X96434Y24464D01*
X96480Y24478D01*
X96526Y24496D01*
X96572Y24524D01*
X96577Y24529D01*
X96591Y24538D01*
X96614Y24556D01*
X96637Y24579D01*
X96665Y24612D01*
X96692Y24649D01*
X96720Y24695D01*
X96738Y24746D01*
Y24750D01*
X96748Y24773D01*
X96752Y24806D01*
X96762Y24857D01*
X96771Y24926D01*
X96775Y25004D01*
X96785Y25106D01*
Y25864D01*
D02*
G37*
G36*
X95445D02*
X94345D01*
Y24954D01*
X94350Y24857D01*
X94354Y24815D01*
X94359Y24778D01*
Y24773D01*
X94364Y24755D01*
X94368Y24727D01*
X94378Y24695D01*
X94405Y24616D01*
X94442Y24538D01*
X94447Y24533D01*
X94456Y24519D01*
X94470Y24501D01*
X94489Y24478D01*
X94516Y24455D01*
X94544Y24422D01*
X94581Y24399D01*
X94622Y24371D01*
X94627Y24367D01*
X94641Y24362D01*
X94669Y24353D01*
X94701Y24339D01*
X94738Y24325D01*
X94784Y24316D01*
X94840Y24311D01*
X94895Y24307D01*
X94904D01*
X94923D01*
X94960Y24311D01*
X95001Y24321D01*
X95048Y24330D01*
X95098Y24348D01*
X95149Y24371D01*
X95200Y24404D01*
X95205Y24408D01*
X95223Y24422D01*
X95246Y24441D01*
X95274Y24468D01*
X95306Y24505D01*
X95339Y24552D01*
X95366Y24602D01*
X95389Y24663D01*
X95394Y24672D01*
X95399Y24690D01*
X95408Y24732D01*
X95417Y24783D01*
X95426Y24847D01*
X95436Y24926D01*
X95445Y25023D01*
Y25864D01*
D02*
G37*
G36*
X91020Y26450D02*
X90059D01*
Y25665D01*
X90063Y25605D01*
X90068Y25540D01*
X90073Y25476D01*
X90082Y25411D01*
X90091Y25360D01*
X90096Y25351D01*
X90100Y25332D01*
X90114Y25305D01*
X90133Y25268D01*
X90151Y25231D01*
X90179Y25189D01*
X90216Y25148D01*
X90253Y25115D01*
X90257Y25111D01*
X90271Y25101D01*
X90299Y25087D01*
X90331Y25074D01*
X90368Y25060D01*
X90414Y25046D01*
X90470Y25037D01*
X90530Y25032D01*
X90539D01*
X90558D01*
X90585Y25037D01*
X90622Y25041D01*
X90669Y25051D01*
X90715Y25064D01*
X90761Y25083D01*
X90807Y25111D01*
X90812Y25115D01*
X90826Y25124D01*
X90849Y25143D01*
X90872Y25166D01*
X90899Y25198D01*
X90927Y25235D01*
X90955Y25282D01*
X90974Y25332D01*
Y25337D01*
X90983Y25360D01*
X90987Y25392D01*
X90997Y25443D01*
X91006Y25513D01*
X91010Y25591D01*
X91020Y25693D01*
Y26450D01*
D02*
G37*
G36*
X89680D02*
X88580D01*
Y25540D01*
X88585Y25443D01*
X88590Y25402D01*
X88594Y25365D01*
Y25360D01*
X88599Y25342D01*
X88603Y25314D01*
X88613Y25282D01*
X88640Y25203D01*
X88677Y25124D01*
X88682Y25120D01*
X88691Y25106D01*
X88705Y25087D01*
X88723Y25064D01*
X88751Y25041D01*
X88779Y25009D01*
X88816Y24986D01*
X88858Y24958D01*
X88862Y24954D01*
X88876Y24949D01*
X88904Y24940D01*
X88936Y24926D01*
X88973Y24912D01*
X89019Y24903D01*
X89075Y24898D01*
X89130Y24893D01*
X89139D01*
X89158D01*
X89195Y24898D01*
X89236Y24907D01*
X89283Y24917D01*
X89333Y24935D01*
X89384Y24958D01*
X89435Y24991D01*
X89440Y24995D01*
X89458Y25009D01*
X89481Y25027D01*
X89509Y25055D01*
X89541Y25092D01*
X89574Y25138D01*
X89601Y25189D01*
X89624Y25249D01*
X89629Y25258D01*
X89634Y25277D01*
X89643Y25319D01*
X89652Y25369D01*
X89661Y25434D01*
X89671Y25513D01*
X89680Y25610D01*
Y26450D01*
D02*
G37*
G36*
X85220Y26483D02*
X84259D01*
Y25697D01*
X84263Y25637D01*
X84268Y25573D01*
X84273Y25508D01*
X84282Y25443D01*
X84291Y25392D01*
X84296Y25383D01*
X84300Y25365D01*
X84314Y25337D01*
X84333Y25300D01*
X84351Y25263D01*
X84379Y25221D01*
X84416Y25180D01*
X84453Y25148D01*
X84457Y25143D01*
X84471Y25134D01*
X84499Y25120D01*
X84531Y25106D01*
X84568Y25092D01*
X84614Y25078D01*
X84670Y25069D01*
X84730Y25064D01*
X84739D01*
X84758D01*
X84785Y25069D01*
X84822Y25074D01*
X84869Y25083D01*
X84915Y25097D01*
X84961Y25115D01*
X85007Y25143D01*
X85012Y25148D01*
X85026Y25157D01*
X85049Y25175D01*
X85072Y25198D01*
X85100Y25231D01*
X85127Y25268D01*
X85155Y25314D01*
X85173Y25365D01*
Y25369D01*
X85183Y25392D01*
X85187Y25425D01*
X85197Y25476D01*
X85206Y25545D01*
X85210Y25624D01*
X85220Y25725D01*
Y26483D01*
D02*
G37*
G36*
X83880D02*
X82780D01*
Y25573D01*
X82785Y25476D01*
X82789Y25434D01*
X82794Y25397D01*
Y25392D01*
X82799Y25374D01*
X82803Y25346D01*
X82813Y25314D01*
X82840Y25235D01*
X82877Y25157D01*
X82882Y25152D01*
X82891Y25138D01*
X82905Y25120D01*
X82924Y25097D01*
X82951Y25074D01*
X82979Y25041D01*
X83016Y25018D01*
X83057Y24991D01*
X83062Y24986D01*
X83076Y24981D01*
X83104Y24972D01*
X83136Y24958D01*
X83173Y24944D01*
X83219Y24935D01*
X83275Y24930D01*
X83330Y24926D01*
X83339D01*
X83358D01*
X83395Y24930D01*
X83436Y24940D01*
X83483Y24949D01*
X83533Y24967D01*
X83584Y24991D01*
X83635Y25023D01*
X83640Y25027D01*
X83658Y25041D01*
X83681Y25060D01*
X83709Y25087D01*
X83741Y25124D01*
X83774Y25171D01*
X83801Y25221D01*
X83824Y25282D01*
X83829Y25291D01*
X83834Y25309D01*
X83843Y25351D01*
X83852Y25402D01*
X83861Y25466D01*
X83871Y25545D01*
X83880Y25642D01*
Y26483D01*
D02*
G37*
G36*
X102220Y26469D02*
X101259D01*
Y25684D01*
X101263Y25624D01*
X101268Y25559D01*
X101273Y25494D01*
X101282Y25429D01*
X101291Y25379D01*
X101296Y25369D01*
X101300Y25351D01*
X101314Y25323D01*
X101333Y25286D01*
X101351Y25249D01*
X101379Y25208D01*
X101416Y25166D01*
X101453Y25134D01*
X101457Y25129D01*
X101471Y25120D01*
X101499Y25106D01*
X101531Y25092D01*
X101568Y25078D01*
X101614Y25064D01*
X101670Y25055D01*
X101730Y25051D01*
X101739D01*
X101758D01*
X101785Y25055D01*
X101822Y25060D01*
X101869Y25069D01*
X101915Y25083D01*
X101961Y25101D01*
X102007Y25129D01*
X102012Y25134D01*
X102026Y25143D01*
X102049Y25161D01*
X102072Y25185D01*
X102100Y25217D01*
X102127Y25254D01*
X102155Y25300D01*
X102173Y25351D01*
Y25355D01*
X102183Y25379D01*
X102187Y25411D01*
X102197Y25462D01*
X102206Y25531D01*
X102210Y25610D01*
X102220Y25711D01*
Y26469D01*
D02*
G37*
G36*
X100880D02*
X99780D01*
Y25559D01*
X99785Y25462D01*
X99790Y25420D01*
X99794Y25383D01*
Y25379D01*
X99799Y25360D01*
X99803Y25332D01*
X99813Y25300D01*
X99840Y25221D01*
X99877Y25143D01*
X99882Y25138D01*
X99891Y25124D01*
X99905Y25106D01*
X99923Y25083D01*
X99951Y25060D01*
X99979Y25027D01*
X100016Y25004D01*
X100057Y24977D01*
X100062Y24972D01*
X100076Y24967D01*
X100104Y24958D01*
X100136Y24944D01*
X100173Y24930D01*
X100219Y24921D01*
X100275Y24917D01*
X100330Y24912D01*
X100339D01*
X100358D01*
X100395Y24917D01*
X100436Y24926D01*
X100483Y24935D01*
X100533Y24954D01*
X100584Y24977D01*
X100635Y25009D01*
X100640Y25014D01*
X100658Y25027D01*
X100681Y25046D01*
X100709Y25074D01*
X100741Y25111D01*
X100774Y25157D01*
X100801Y25208D01*
X100824Y25268D01*
X100829Y25277D01*
X100834Y25295D01*
X100843Y25337D01*
X100852Y25388D01*
X100861Y25453D01*
X100871Y25531D01*
X100880Y25628D01*
Y26469D01*
D02*
G37*
G36*
X100529Y23808D02*
Y22801D01*
X101961D01*
X100529Y23808D01*
D02*
G37*
G36*
X22077Y78213D02*
X21162D01*
Y77072D01*
X22021D01*
X22054Y77076D01*
X22086D01*
X22123Y77081D01*
X22211Y77090D01*
X22308Y77109D01*
X22405Y77136D01*
X22493Y77173D01*
X22534Y77196D01*
X22567Y77224D01*
X22576Y77233D01*
X22594Y77252D01*
X22622Y77289D01*
X22654Y77335D01*
X22687Y77395D01*
X22714Y77469D01*
X22733Y77552D01*
X22742Y77649D01*
Y77654D01*
Y77658D01*
Y77681D01*
X22738Y77723D01*
X22728Y77769D01*
X22719Y77820D01*
X22701Y77880D01*
X22673Y77936D01*
X22640Y77991D01*
X22636Y77996D01*
X22622Y78014D01*
X22599Y78037D01*
X22571Y78070D01*
X22530Y78102D01*
X22483Y78130D01*
X22433Y78157D01*
X22373Y78180D01*
X22368D01*
X22349Y78185D01*
X22322Y78190D01*
X22285Y78199D01*
X22229Y78203D01*
X22160Y78208D01*
X22077Y78213D01*
D02*
G37*
G36*
Y81913D02*
X21162D01*
Y80772D01*
X22021D01*
X22054Y80776D01*
X22086D01*
X22123Y80781D01*
X22211Y80790D01*
X22308Y80809D01*
X22405Y80836D01*
X22493Y80873D01*
X22534Y80896D01*
X22567Y80924D01*
X22576Y80933D01*
X22594Y80952D01*
X22622Y80989D01*
X22654Y81035D01*
X22687Y81095D01*
X22714Y81169D01*
X22733Y81252D01*
X22742Y81349D01*
Y81354D01*
Y81358D01*
Y81381D01*
X22738Y81423D01*
X22728Y81469D01*
X22719Y81520D01*
X22701Y81580D01*
X22673Y81636D01*
X22640Y81691D01*
X22636Y81696D01*
X22622Y81714D01*
X22599Y81737D01*
X22571Y81770D01*
X22530Y81802D01*
X22483Y81830D01*
X22433Y81857D01*
X22373Y81880D01*
X22368D01*
X22349Y81885D01*
X22322Y81890D01*
X22285Y81899D01*
X22229Y81903D01*
X22160Y81908D01*
X22077Y81913D01*
D02*
G37*
G36*
X103074Y59675D02*
X100634D01*
Y58917D01*
X100639Y58885D01*
X100644Y58816D01*
X100648Y58737D01*
X100657Y58654D01*
X100671Y58571D01*
X100690Y58501D01*
X100694Y58492D01*
X100699Y58469D01*
X100713Y58437D01*
X100731Y58395D01*
X100759Y58349D01*
X100787Y58303D01*
X100819Y58257D01*
X100856Y58210D01*
X100865Y58206D01*
X100884Y58187D01*
X100916Y58160D01*
X100962Y58127D01*
X101022Y58090D01*
X101092Y58049D01*
X101170Y58012D01*
X101258Y57979D01*
X101263D01*
X101272Y57975D01*
X101286Y57970D01*
X101304Y57965D01*
X101327Y57961D01*
X101360Y57952D01*
X101392Y57942D01*
X101429Y57933D01*
X101521Y57919D01*
X101628Y57906D01*
X101748Y57896D01*
X101877Y57892D01*
X101882D01*
X101900D01*
X101923D01*
X101960Y57896D01*
X102002D01*
X102048Y57901D01*
X102103Y57906D01*
X102159Y57910D01*
X102284Y57933D01*
X102413Y57961D01*
X102533Y58003D01*
X102593Y58030D01*
X102644Y58058D01*
X102649D01*
X102658Y58067D01*
X102672Y58076D01*
X102690Y58086D01*
X102736Y58123D01*
X102792Y58169D01*
X102852Y58229D01*
X102912Y58298D01*
X102963Y58377D01*
X103004Y58460D01*
X103009Y58469D01*
X103014Y58492D01*
X103027Y58534D01*
X103041Y58594D01*
X103050Y58668D01*
X103064Y58760D01*
X103069Y58816D01*
Y58876D01*
X103074Y58936D01*
Y59675D01*
D02*
G37*
G36*
X101803Y56570D02*
X101798D01*
X101780D01*
X101748D01*
X101706Y56566D01*
X101660Y56561D01*
X101604Y56552D01*
X101540Y56543D01*
X101475Y56533D01*
X101327Y56496D01*
X101253Y56469D01*
X101175Y56441D01*
X101101Y56404D01*
X101027Y56362D01*
X100958Y56316D01*
X100893Y56261D01*
X100888Y56256D01*
X100879Y56247D01*
X100861Y56228D01*
X100842Y56205D01*
X100814Y56173D01*
X100787Y56136D01*
X100759Y56094D01*
X100727Y56048D01*
X100694Y55993D01*
X100667Y55933D01*
X100639Y55868D01*
X100611Y55799D01*
X100593Y55725D01*
X100574Y55651D01*
X100565Y55568D01*
X100560Y55480D01*
Y55457D01*
X100565Y55434D01*
Y55401D01*
X100570Y55360D01*
X100579Y55314D01*
X100588Y55258D01*
X100602Y55203D01*
X100620Y55138D01*
X100644Y55078D01*
X100667Y55009D01*
X100699Y54944D01*
X100741Y54879D01*
X100782Y54815D01*
X100833Y54750D01*
X100893Y54690D01*
X100898Y54685D01*
X100907Y54676D01*
X100930Y54662D01*
X100958Y54639D01*
X100990Y54616D01*
X101032Y54593D01*
X101082Y54565D01*
X101138Y54533D01*
X101202Y54505D01*
X101277Y54477D01*
X101355Y54454D01*
X101438Y54427D01*
X101531Y54408D01*
X101632Y54394D01*
X101739Y54385D01*
X101849Y54380D01*
X101854D01*
X101868D01*
X101886D01*
X101914D01*
X101946Y54385D01*
X101988D01*
X102030Y54390D01*
X102080Y54399D01*
X102187Y54413D01*
X102297Y54436D01*
X102418Y54468D01*
X102529Y54514D01*
X102533D01*
X102542Y54519D01*
X102556Y54528D01*
X102575Y54537D01*
X102630Y54570D01*
X102695Y54611D01*
X102769Y54667D01*
X102843Y54736D01*
X102917Y54815D01*
X102981Y54902D01*
Y54907D01*
X102990Y54912D01*
X102995Y54926D01*
X103009Y54949D01*
X103018Y54972D01*
X103032Y55000D01*
X103064Y55069D01*
X103092Y55152D01*
X103120Y55249D01*
X103138Y55360D01*
X103143Y55475D01*
Y55517D01*
X103138Y55549D01*
X103134Y55591D01*
X103124Y55632D01*
X103115Y55683D01*
X103106Y55739D01*
X103069Y55859D01*
X103041Y55923D01*
X103014Y55988D01*
X102977Y56058D01*
X102935Y56122D01*
X102889Y56187D01*
X102833Y56247D01*
X102829Y56252D01*
X102820Y56261D01*
X102801Y56275D01*
X102773Y56298D01*
X102741Y56321D01*
X102699Y56349D01*
X102649Y56376D01*
X102588Y56409D01*
X102524Y56436D01*
X102445Y56469D01*
X102362Y56496D01*
X102270Y56520D01*
X102168Y56543D01*
X102053Y56556D01*
X101933Y56566D01*
X101803Y56570D01*
D02*
G37*
%LPD*%
D10*
X60431Y46882D02*
G03*
X60431Y46882I-500J0D01*
G01*
X63367Y36441D02*
X69879D01*
X63367Y41323D02*
Y44566D01*
Y49449D02*
X69879D01*
Y36441D02*
Y40531D01*
Y45359D02*
Y49449D01*
X53838Y19340D02*
Y27440D01*
X59008Y19340D02*
X61868D01*
X67038D02*
Y27440D01*
X37751Y36640D02*
X45851D01*
X37751Y41810D02*
Y44670D01*
Y49840D02*
X45851D01*
X88696Y42063D02*
X96304D01*
X88696Y50937D02*
X96304D01*
D11*
X64645Y33390D02*
G03*
X64645Y33390I-707J0D01*
G01*
X52508Y39740D02*
G03*
X52508Y39740I-707J0D01*
G01*
X102381Y43600D02*
G03*
X102381Y43600I-781J0D01*
G01*
X104679Y13222D02*
Y76214D01*
X90144Y55216D02*
Y61712D01*
X87191Y55216D02*
X90144D01*
X72427Y71948D02*
X84239D01*
X66522Y55216D02*
X69475D01*
X66522D02*
Y61712D01*
D12*
X68478Y24811D02*
Y28826D01*
X72415Y24811D02*
Y28826D01*
X58578Y10951D02*
X62594D01*
X58578Y14888D02*
X62594D01*
X52856Y43355D02*
Y47371D01*
X56793Y43355D02*
Y47371D01*
X27749Y49803D02*
Y53819D01*
X31686Y49803D02*
Y53819D01*
X86069Y36218D02*
X90085D01*
X86069Y40155D02*
X90085D01*
X94864Y36218D02*
X98880D01*
X94864Y40155D02*
X98880D01*
X37565Y29696D02*
Y33633D01*
X41345Y29696D02*
Y33633D01*
X32779Y29696D02*
Y33633D01*
X36558Y29696D02*
Y33633D01*
X96593Y72449D02*
X100530D01*
X96593Y76228D02*
X100530D01*
D13*
X46375Y30166D02*
X49375Y31666D01*
X46375Y30666D02*
X49375Y31666D01*
X46375Y31166D02*
X49375Y31666D01*
X46375Y34166D02*
X49375Y31666D01*
X46375Y33666D02*
X49375Y31666D01*
X46375Y33166D02*
X49375Y31666D01*
X46375Y32666D02*
X49375Y31666D01*
X46375Y32166D02*
X49375Y31666D01*
X46375Y29166D02*
Y34166D01*
Y29166D02*
X49375Y31666D01*
X46375Y29666D02*
X49375Y31666D01*
Y29166D02*
Y34166D01*
X97164Y67255D02*
X98664Y64255D01*
X97664Y67255D02*
X98664Y64255D01*
X98164Y67255D02*
X98664Y64255D01*
X101164Y67255D01*
X98664Y64255D02*
X100664Y67255D01*
X98664Y64255D02*
X100164Y67255D01*
X98664Y64255D02*
X99664Y67255D01*
X98664Y64255D02*
X99164Y67255D01*
X96165D02*
X101164D01*
X96165D02*
X98664Y64255D01*
X96665Y67255D02*
X98664Y64255D01*
X96165D02*
X101164D01*
D14*
X114502Y36254D02*
X116839D01*
X114502D02*
Y39337D01*
Y53183D02*
X116839D01*
X114502Y50100D02*
Y53183D01*
X149935Y36254D02*
Y39337D01*
X147599Y53183D02*
X149935D01*
Y50100D02*
Y53183D01*
X147599Y36254D02*
X149935D01*
X27449Y58622D02*
Y74370D01*
X34339Y88543D02*
X51661D01*
X58551Y58622D02*
Y74370D01*
X50480Y58622D02*
X58551D01*
X27449D02*
X35520D01*
X33450Y13213D02*
X39750D01*
X33450Y27387D02*
X39750D01*
X26900Y46900D02*
Y48200D01*
X25700Y48100D02*
X26900Y46900D01*
X25700Y48100D02*
Y71800D01*
X23100Y74400D02*
X25700Y71800D01*
X23000Y74400D02*
X23100D01*
D15*
X199364Y13222D02*
Y76214D01*
D16*
X73667Y39279D02*
Y49515D01*
Y39279D02*
X82329D01*
X73667Y49515D02*
X82329D01*
Y39279D02*
Y49515D01*
M02*
