%TF.GenerationSoftware,Altium Limited,Altium Designer,20.1.11 (218)*%
G04 Layer_Color=8388736*
%FSLAX26Y26*%
%MOIN*%
%TF.SameCoordinates,F1652399-7491-40A6-9504-01A14B245E9D*%
%TF.FilePolarity,Positive*%
%TF.FileFunction,Other,Frame*%
%TF.Part,Single*%
G01*
G75*
%TA.AperFunction,NonConductor*%
%ADD61C,0.010000*%
%ADD79C,0.007874*%
%ADD124C,0.015000*%
%ADD125C,0.001000*%
%ADD126C,0.007795*%
%ADD127C,0.008425*%
%ADD128C,0.008425*%
%ADD129C,0.017874*%
G36*
X7870593Y-3898731D02*
Y-3952116D01*
X7853830D01*
Y-3898731D01*
X7805183Y-3826034D01*
X7825407D01*
X7850186Y-3864296D01*
Y-3864478D01*
X7850551Y-3864842D01*
X7850915Y-3865389D01*
X7851279Y-3866117D01*
X7852008Y-3867028D01*
X7852737Y-3868122D01*
X7854377Y-3870855D01*
X7856381Y-3874134D01*
X7858567Y-3877778D01*
X7860936Y-3881604D01*
X7863122Y-3885613D01*
Y-3885431D01*
X7863305Y-3885066D01*
X7863669Y-3884520D01*
X7864216Y-3883791D01*
X7864762Y-3882880D01*
X7865491Y-3881787D01*
X7867131Y-3879054D01*
X7869135Y-3875774D01*
X7871504Y-3871948D01*
X7874237Y-3867757D01*
X7877152Y-3863202D01*
X7901384Y-3826034D01*
X7920880D01*
X7870593Y-3898731D01*
D02*
G37*
G36*
X7790425Y-3952116D02*
X7773116D01*
X7707159Y-3853181D01*
Y-3952116D01*
X7691126D01*
Y-3826034D01*
X7708252D01*
X7774391Y-3925150D01*
Y-3826034D01*
X7790425D01*
Y-3952116D01*
D02*
G37*
G36*
X8055708D02*
X8039674D01*
Y-3846622D01*
X8002870Y-3952116D01*
X7987929D01*
X7951489Y-3844800D01*
Y-3952116D01*
X7935456D01*
Y-3826034D01*
X7960417D01*
X7990298Y-3915494D01*
Y-3915676D01*
X7990480Y-3916040D01*
X7990662Y-3916587D01*
X7991027Y-3917498D01*
X7991756Y-3919684D01*
X7992667Y-3922417D01*
X7993578Y-3925515D01*
X7994671Y-3928612D01*
X7995582Y-3931527D01*
X7996311Y-3934078D01*
X7996493Y-3933714D01*
X7996675Y-3932803D01*
X7997222Y-3931163D01*
X7997950Y-3928977D01*
X7998861Y-3926061D01*
X8000137Y-3922599D01*
X8001412Y-3918591D01*
X8003052Y-3913854D01*
X8033297Y-3826034D01*
X8055708D01*
Y-3952116D01*
D02*
G37*
G36*
X7268786D02*
X7252388D01*
X7225969Y-3856097D01*
Y-3855914D01*
X7225787Y-3855550D01*
X7225605Y-3855003D01*
X7225422Y-3854092D01*
X7224876Y-3852088D01*
X7224329Y-3849720D01*
X7223600Y-3847169D01*
X7222872Y-3844800D01*
X7222325Y-3842796D01*
X7222143Y-3841885D01*
X7221961Y-3841338D01*
Y-3841521D01*
X7221778Y-3841703D01*
X7221596Y-3842796D01*
X7221232Y-3844436D01*
X7220685Y-3846440D01*
X7220139Y-3848626D01*
X7219410Y-3851177D01*
X7218863Y-3853728D01*
X7218134Y-3856097D01*
X7191533Y-3952116D01*
X7174042D01*
X7141064Y-3826034D01*
X7158373D01*
X7177139Y-3908752D01*
Y-3908934D01*
X7177322Y-3909299D01*
X7177504Y-3910028D01*
X7177686Y-3910939D01*
X7177868Y-3912214D01*
X7178233Y-3913490D01*
X7178597Y-3915129D01*
X7178961Y-3916951D01*
X7179872Y-3920778D01*
X7180783Y-3925150D01*
X7181694Y-3929887D01*
X7182605Y-3934625D01*
Y-3934443D01*
X7182788Y-3933714D01*
X7183152Y-3932803D01*
X7183334Y-3931345D01*
X7183699Y-3929887D01*
X7184245Y-3928066D01*
X7185156Y-3924057D01*
X7186249Y-3920049D01*
X7186614Y-3918044D01*
X7187160Y-3916222D01*
X7187525Y-3914583D01*
X7187889Y-3913125D01*
X7188254Y-3912032D01*
X7188436Y-3911303D01*
X7212304Y-3826034D01*
X7232528D01*
X7250384Y-3889986D01*
Y-3890168D01*
X7250748Y-3891079D01*
X7251113Y-3892354D01*
X7251477Y-3893994D01*
X7252024Y-3896180D01*
X7252752Y-3898549D01*
X7253481Y-3901282D01*
X7254210Y-3904380D01*
X7255121Y-3907841D01*
X7255850Y-3911303D01*
X7257490Y-3918773D01*
X7259129Y-3926608D01*
X7260405Y-3934625D01*
Y-3934443D01*
X7260587Y-3934078D01*
Y-3933349D01*
X7260951Y-3932438D01*
X7261134Y-3931345D01*
X7261498Y-3930070D01*
X7261680Y-3928430D01*
X7262227Y-3926608D01*
X7263138Y-3922599D01*
X7264231Y-3917862D01*
X7265324Y-3912761D01*
X7266782Y-3907113D01*
X7286459Y-3826034D01*
X7303404D01*
X7268786Y-3952116D01*
D02*
G37*
G36*
X8446345Y-3898914D02*
Y-3899096D01*
Y-3899825D01*
Y-3900735D01*
Y-3902011D01*
X8446162Y-3903651D01*
Y-3905473D01*
X8445980Y-3907659D01*
X8445798Y-3909845D01*
X8445251Y-3914765D01*
X8444523Y-3919867D01*
X8443429Y-3924786D01*
X8442701Y-3927155D01*
X8441972Y-3929341D01*
Y-3929523D01*
X8441790Y-3929887D01*
X8441425Y-3930434D01*
X8441061Y-3931163D01*
X8439968Y-3933167D01*
X8438328Y-3935718D01*
X8436141Y-3938633D01*
X8433591Y-3941548D01*
X8430311Y-3944646D01*
X8426303Y-3947379D01*
X8426120D01*
X8425756Y-3947743D01*
X8425209Y-3947925D01*
X8424298Y-3948472D01*
X8423205Y-3949019D01*
X8421748Y-3949565D01*
X8420290Y-3950112D01*
X8418468Y-3950840D01*
X8416464Y-3951569D01*
X8414277Y-3952116D01*
X8411909Y-3952662D01*
X8409176Y-3953209D01*
X8406443Y-3953573D01*
X8403528Y-3953938D01*
X8396968Y-3954302D01*
X8395329D01*
X8394053Y-3954120D01*
X8392596D01*
X8390774Y-3953938D01*
X8388769Y-3953756D01*
X8386765Y-3953573D01*
X8382210Y-3952845D01*
X8377291Y-3951751D01*
X8372554Y-3950294D01*
X8367999Y-3948290D01*
X8367816D01*
X8367452Y-3947925D01*
X8366905Y-3947561D01*
X8366177Y-3947197D01*
X8364172Y-3945739D01*
X8361804Y-3943735D01*
X8359071Y-3941184D01*
X8356520Y-3938269D01*
X8353969Y-3934625D01*
X8351965Y-3930616D01*
Y-3930434D01*
X8351783Y-3930070D01*
X8351601Y-3929341D01*
X8351236Y-3928430D01*
X8350872Y-3927337D01*
X8350507Y-3925879D01*
X8349961Y-3924239D01*
X8349596Y-3922235D01*
X8349232Y-3920049D01*
X8348685Y-3917680D01*
X8348321Y-3915129D01*
X8347957Y-3912396D01*
X8347592Y-3909299D01*
X8347410Y-3906019D01*
X8347228Y-3902557D01*
Y-3898914D01*
Y-3826034D01*
X8363990D01*
Y-3898914D01*
Y-3899096D01*
Y-3899642D01*
Y-3900553D01*
Y-3901646D01*
X8364172Y-3902922D01*
Y-3904562D01*
X8364355Y-3908023D01*
X8364719Y-3912032D01*
X8365266Y-3916040D01*
X8365994Y-3919867D01*
X8366359Y-3921506D01*
X8366905Y-3923146D01*
X8367088Y-3923510D01*
X8367452Y-3924421D01*
X8368363Y-3925697D01*
X8369456Y-3927519D01*
X8370732Y-3929341D01*
X8372554Y-3931345D01*
X8374740Y-3933349D01*
X8377291Y-3934989D01*
X8377655Y-3935171D01*
X8378566Y-3935718D01*
X8380206Y-3936265D01*
X8382392Y-3936993D01*
X8384943Y-3937904D01*
X8388223Y-3938451D01*
X8391685Y-3938997D01*
X8395511Y-3939180D01*
X8397333D01*
X8398426Y-3938997D01*
X8400066D01*
X8401706Y-3938815D01*
X8405714Y-3938086D01*
X8410087Y-3937175D01*
X8414277Y-3935718D01*
X8418286Y-3933714D01*
X8420108Y-3932438D01*
X8421748Y-3930981D01*
X8421930Y-3930798D01*
X8422112Y-3930616D01*
X8422476Y-3930070D01*
X8423023Y-3929341D01*
X8423570Y-3928248D01*
X8424298Y-3927155D01*
X8425027Y-3925515D01*
X8425756Y-3923875D01*
X8426485Y-3921871D01*
X8427031Y-3919502D01*
X8427760Y-3916769D01*
X8428307Y-3913854D01*
X8428853Y-3910574D01*
X8429218Y-3907113D01*
X8429582Y-3903104D01*
Y-3898914D01*
Y-3826034D01*
X8446345D01*
Y-3898914D01*
D02*
G37*
G36*
X8663709Y-3840974D02*
X8589189D01*
Y-3879418D01*
X8658972D01*
Y-3894358D01*
X8589189D01*
Y-3937175D01*
X8666624D01*
Y-3952116D01*
X8572427D01*
Y-3826034D01*
X8663709D01*
Y-3840974D01*
D02*
G37*
G36*
X8490255Y-3937175D02*
X8552385D01*
Y-3952116D01*
X8473492D01*
Y-3826034D01*
X8490255D01*
Y-3937175D01*
D02*
G37*
G36*
X8271615Y-3826216D02*
X8275259Y-3826398D01*
X8278903Y-3826762D01*
X8282547Y-3827309D01*
X8285644Y-3827856D01*
X8285826D01*
X8286191Y-3828038D01*
X8286737D01*
X8287466Y-3828402D01*
X8289470Y-3828949D01*
X8292021Y-3829860D01*
X8294936Y-3831135D01*
X8298034Y-3832775D01*
X8301131Y-3834597D01*
X8304046Y-3836965D01*
X8304229Y-3837148D01*
X8304411Y-3837330D01*
X8304957Y-3837876D01*
X8305686Y-3838423D01*
X8307508Y-3840245D01*
X8309695Y-3842796D01*
X8312063Y-3845893D01*
X8314614Y-3849537D01*
X8316983Y-3853728D01*
X8318987Y-3858465D01*
Y-3858647D01*
X8319169Y-3859012D01*
X8319533Y-3859740D01*
X8319716Y-3860834D01*
X8320262Y-3862109D01*
X8320627Y-3863567D01*
X8320991Y-3865206D01*
X8321538Y-3867211D01*
X8322084Y-3869215D01*
X8322449Y-3871584D01*
X8323360Y-3876685D01*
X8323906Y-3882333D01*
X8324088Y-3888528D01*
Y-3888710D01*
Y-3889075D01*
Y-3889986D01*
Y-3890897D01*
X8323906Y-3892172D01*
Y-3893630D01*
X8323724Y-3897091D01*
X8323177Y-3901100D01*
X8322631Y-3905291D01*
X8321720Y-3909663D01*
X8320627Y-3914036D01*
Y-3914218D01*
X8320444Y-3914583D01*
X8320262Y-3915129D01*
X8320080Y-3915858D01*
X8319351Y-3917862D01*
X8318258Y-3920413D01*
X8317165Y-3923328D01*
X8315707Y-3926244D01*
X8313885Y-3929341D01*
X8312063Y-3932256D01*
X8311881Y-3932620D01*
X8311152Y-3933532D01*
X8310059Y-3934807D01*
X8308601Y-3936447D01*
X8306962Y-3938269D01*
X8304957Y-3940091D01*
X8302953Y-3942095D01*
X8300585Y-3943735D01*
X8300220Y-3943917D01*
X8299491Y-3944463D01*
X8298216Y-3945192D01*
X8296394Y-3946103D01*
X8294208Y-3947197D01*
X8291657Y-3948108D01*
X8288742Y-3949201D01*
X8285462Y-3950112D01*
X8285098D01*
X8284551Y-3950294D01*
X8284004Y-3950476D01*
X8282182Y-3950658D01*
X8279632Y-3951023D01*
X8276716Y-3951387D01*
X8273255Y-3951751D01*
X8269428Y-3951934D01*
X8265238Y-3952116D01*
X8219870D01*
Y-3826034D01*
X8268335D01*
X8271615Y-3826216D01*
D02*
G37*
G36*
X7661791Y-3952116D02*
X7645029D01*
Y-3826034D01*
X7661791D01*
Y-3952116D01*
D02*
G37*
G36*
X7624987Y-3840974D02*
X7583445D01*
Y-3952116D01*
X7566683D01*
Y-3840974D01*
X7525141D01*
Y-3826034D01*
X7624987D01*
Y-3840974D01*
D02*
G37*
G36*
X7369178Y-3826216D02*
X7370636D01*
X7373915Y-3826580D01*
X7377559Y-3826945D01*
X7381386Y-3827673D01*
X7385212Y-3828584D01*
X7388674Y-3829860D01*
X7388856D01*
X7389038Y-3830042D01*
X7390131Y-3830588D01*
X7391771Y-3831499D01*
X7393593Y-3832775D01*
X7395779Y-3834415D01*
X7398148Y-3836419D01*
X7400334Y-3838970D01*
X7402339Y-3841703D01*
X7402521Y-3842067D01*
X7403067Y-3843160D01*
X7403978Y-3844618D01*
X7404889Y-3846804D01*
X7405800Y-3849355D01*
X7406711Y-3852088D01*
X7407258Y-3855186D01*
X7407440Y-3858283D01*
Y-3858647D01*
Y-3859558D01*
X7407258Y-3861198D01*
X7406894Y-3863202D01*
X7406347Y-3865571D01*
X7405436Y-3868122D01*
X7404343Y-3870673D01*
X7402885Y-3873405D01*
X7402703Y-3873770D01*
X7402156Y-3874499D01*
X7401063Y-3875956D01*
X7399606Y-3877414D01*
X7397784Y-3879236D01*
X7395597Y-3881240D01*
X7392864Y-3883062D01*
X7389767Y-3884884D01*
X7389949D01*
X7390313Y-3885066D01*
X7390860Y-3885249D01*
X7391589Y-3885613D01*
X7393775Y-3886342D01*
X7396326Y-3887617D01*
X7399059Y-3889257D01*
X7402156Y-3891261D01*
X7404889Y-3893630D01*
X7407440Y-3896545D01*
X7407622Y-3896909D01*
X7408351Y-3898003D01*
X7409444Y-3899642D01*
X7410538Y-3901829D01*
X7411631Y-3904744D01*
X7412724Y-3907841D01*
X7413453Y-3911485D01*
X7413635Y-3915494D01*
Y-3915676D01*
Y-3915858D01*
Y-3916951D01*
X7413453Y-3918773D01*
X7413088Y-3920960D01*
X7412724Y-3923510D01*
X7411995Y-3926244D01*
X7411084Y-3929159D01*
X7409809Y-3932074D01*
X7409627Y-3932438D01*
X7409080Y-3933349D01*
X7408351Y-3934625D01*
X7407258Y-3936447D01*
X7405800Y-3938269D01*
X7404343Y-3940273D01*
X7402521Y-3942277D01*
X7400517Y-3943917D01*
X7400334Y-3944099D01*
X7399606Y-3944646D01*
X7398330Y-3945374D01*
X7396690Y-3946103D01*
X7394686Y-3947197D01*
X7392318Y-3948290D01*
X7389767Y-3949201D01*
X7386669Y-3950112D01*
X7386305D01*
X7385212Y-3950476D01*
X7383390Y-3950658D01*
X7381021Y-3951023D01*
X7378106Y-3951387D01*
X7374644Y-3951751D01*
X7370818Y-3951934D01*
X7366445Y-3952116D01*
X7318344D01*
Y-3826034D01*
X7367903D01*
X7369178Y-3826216D01*
D02*
G37*
G36*
X7089683D02*
X7092781Y-3826398D01*
X7096060Y-3826580D01*
X7099158Y-3826945D01*
X7101891Y-3827309D01*
X7102255D01*
X7103531Y-3827673D01*
X7105170Y-3828038D01*
X7107357Y-3828584D01*
X7109725Y-3829495D01*
X7112276Y-3830588D01*
X7115009Y-3831864D01*
X7117378Y-3833322D01*
X7117742Y-3833504D01*
X7118471Y-3834050D01*
X7119564Y-3835144D01*
X7121022Y-3836419D01*
X7122662Y-3838059D01*
X7124301Y-3840245D01*
X7126123Y-3842614D01*
X7127581Y-3845347D01*
X7127763Y-3845711D01*
X7128128Y-3846622D01*
X7128856Y-3848262D01*
X7129585Y-3850448D01*
X7130132Y-3852999D01*
X7130861Y-3855914D01*
X7131225Y-3859194D01*
X7131407Y-3862656D01*
Y-3862838D01*
Y-3863385D01*
Y-3864113D01*
X7131225Y-3865389D01*
X7131043Y-3866664D01*
X7130861Y-3868304D01*
X7130496Y-3870126D01*
X7130132Y-3872130D01*
X7128856Y-3876321D01*
X7128128Y-3878507D01*
X7127034Y-3880876D01*
X7125759Y-3883244D01*
X7124484Y-3885431D01*
X7122844Y-3887617D01*
X7121022Y-3889803D01*
X7120840Y-3889986D01*
X7120475Y-3890350D01*
X7119929Y-3890897D01*
X7119018Y-3891443D01*
X7117924Y-3892354D01*
X7116467Y-3893265D01*
X7114645Y-3894358D01*
X7112641Y-3895269D01*
X7110272Y-3896363D01*
X7107539Y-3897456D01*
X7104624Y-3898367D01*
X7101162Y-3899096D01*
X7097518Y-3899825D01*
X7093510Y-3900371D01*
X7088955Y-3900735D01*
X7084217Y-3900918D01*
X7051968D01*
Y-3952116D01*
X7035206D01*
Y-3826034D01*
X7086950D01*
X7089683Y-3826216D01*
D02*
G37*
G36*
X8140977Y-3824029D02*
X8142617D01*
X8144257Y-3824211D01*
X8146443Y-3824576D01*
X8148630Y-3824940D01*
X8153367Y-3825851D01*
X8158833Y-3827309D01*
X8164117Y-3829495D01*
X8166850Y-3830771D01*
X8169583Y-3832228D01*
X8169765Y-3832410D01*
X8170129Y-3832593D01*
X8170858Y-3833139D01*
X8171951Y-3833686D01*
X8173045Y-3834597D01*
X8174502Y-3835690D01*
X8177600Y-3838241D01*
X8180879Y-3841521D01*
X8184523Y-3845529D01*
X8187985Y-3850266D01*
X8190900Y-3855550D01*
Y-3855732D01*
X8191265Y-3856279D01*
X8191629Y-3857008D01*
X8191993Y-3858101D01*
X8192722Y-3859558D01*
X8193269Y-3861198D01*
X8193998Y-3863202D01*
X8194726Y-3865389D01*
X8195273Y-3867757D01*
X8196002Y-3870308D01*
X8196731Y-3873223D01*
X8197277Y-3876139D01*
X8198006Y-3882515D01*
X8198370Y-3889439D01*
Y-3889621D01*
Y-3890350D01*
Y-3891261D01*
X8198188Y-3892719D01*
Y-3894358D01*
X8198006Y-3896363D01*
X8197642Y-3898549D01*
X8197459Y-3900918D01*
X8196548Y-3906202D01*
X8195091Y-3912032D01*
X8193087Y-3917862D01*
X8191993Y-3920778D01*
X8190536Y-3923693D01*
Y-3923875D01*
X8190171Y-3924421D01*
X8189807Y-3925150D01*
X8189078Y-3926244D01*
X8188349Y-3927519D01*
X8187438Y-3928794D01*
X8184888Y-3932256D01*
X8181790Y-3935900D01*
X8178146Y-3939726D01*
X8173773Y-3943370D01*
X8168672Y-3946650D01*
X8168490D01*
X8168125Y-3947014D01*
X8167214Y-3947379D01*
X8166121Y-3947925D01*
X8164846Y-3948472D01*
X8163388Y-3949019D01*
X8161566Y-3949747D01*
X8159562Y-3950476D01*
X8157375Y-3951205D01*
X8155007Y-3951934D01*
X8149723Y-3953027D01*
X8144075Y-3953938D01*
X8138062Y-3954302D01*
X8136240D01*
X8135147Y-3954120D01*
X8133507D01*
X8131685Y-3953756D01*
X8129681Y-3953573D01*
X8127312Y-3953209D01*
X8122393Y-3952116D01*
X8117109Y-3950658D01*
X8111643Y-3948472D01*
X8108910Y-3947197D01*
X8106177Y-3945739D01*
X8105995Y-3945557D01*
X8105631Y-3945374D01*
X8104902Y-3944828D01*
X8103809Y-3944099D01*
X8102715Y-3943370D01*
X8101440Y-3942277D01*
X8098343Y-3939544D01*
X8094881Y-3936265D01*
X8091237Y-3932256D01*
X8087957Y-3927701D01*
X8084860Y-3922417D01*
Y-3922235D01*
X8084495Y-3921689D01*
X8084131Y-3920960D01*
X8083767Y-3919867D01*
X8083220Y-3918409D01*
X8082673Y-3916769D01*
X8081945Y-3914947D01*
X8081398Y-3912943D01*
X8080669Y-3910574D01*
X8079940Y-3908206D01*
X8078847Y-3902740D01*
X8078118Y-3897091D01*
X8077754Y-3890897D01*
Y-3890715D01*
Y-3890532D01*
Y-3889439D01*
X8077936Y-3887799D01*
Y-3885613D01*
X8078301Y-3883062D01*
X8078665Y-3879965D01*
X8079212Y-3876503D01*
X8079940Y-3872859D01*
X8080669Y-3869033D01*
X8081762Y-3865024D01*
X8083220Y-3861016D01*
X8084860Y-3856825D01*
X8086682Y-3852817D01*
X8089050Y-3848809D01*
X8091601Y-3845164D01*
X8094516Y-3841703D01*
X8094699Y-3841521D01*
X8095245Y-3840974D01*
X8096338Y-3840063D01*
X8097614Y-3838970D01*
X8099254Y-3837512D01*
X8101258Y-3836055D01*
X8103626Y-3834415D01*
X8106359Y-3832775D01*
X8109275Y-3831135D01*
X8112554Y-3829495D01*
X8116198Y-3828038D01*
X8120024Y-3826580D01*
X8124215Y-3825487D01*
X8128588Y-3824576D01*
X8133143Y-3824029D01*
X8138062Y-3823847D01*
X8139702D01*
X8140977Y-3824029D01*
D02*
G37*
G36*
X7456270Y-3952116D02*
Y-3952298D01*
Y-3952480D01*
Y-3953027D01*
Y-3953756D01*
X7456088Y-3955396D01*
X7455905Y-3957764D01*
X7455359Y-3960133D01*
X7454812Y-3962866D01*
X7453901Y-3965416D01*
X7452808Y-3967785D01*
X7452626Y-3967967D01*
X7452079Y-3968696D01*
X7451350Y-3969789D01*
X7450075Y-3971247D01*
X7448617Y-3972704D01*
X7446795Y-3974162D01*
X7444427Y-3975802D01*
X7441876Y-3977077D01*
X7437503Y-3970518D01*
X7437685Y-3970336D01*
X7438232Y-3970154D01*
X7439143Y-3969607D01*
X7440236Y-3968878D01*
X7441329Y-3967967D01*
X7442605Y-3966874D01*
X7443698Y-3965599D01*
X7444609Y-3964141D01*
X7444791Y-3963959D01*
X7444973Y-3963412D01*
X7445338Y-3962319D01*
X7445884Y-3961044D01*
X7446249Y-3959404D01*
X7446795Y-3957218D01*
X7447160Y-3954849D01*
X7447342Y-3952116D01*
X7438596D01*
Y-3934443D01*
X7456270D01*
Y-3952116D01*
D02*
G37*
%LPC*%
G36*
X8265784Y-3840974D02*
X8236632D01*
Y-3937175D01*
X8266513D01*
X8267789Y-3936993D01*
X8270522Y-3936811D01*
X8273619Y-3936629D01*
X8276899Y-3936265D01*
X8280178Y-3935718D01*
X8282911Y-3934989D01*
X8283276Y-3934807D01*
X8284187Y-3934625D01*
X8285462Y-3934078D01*
X8287102Y-3933349D01*
X8288924Y-3932256D01*
X8290746Y-3931163D01*
X8292568Y-3929887D01*
X8294390Y-3928430D01*
X8294572Y-3928066D01*
X8295301Y-3927337D01*
X8296394Y-3926061D01*
X8297669Y-3924239D01*
X8299127Y-3921871D01*
X8300767Y-3919138D01*
X8302224Y-3916040D01*
X8303500Y-3912579D01*
Y-3912396D01*
X8303682Y-3912032D01*
X8303864Y-3911485D01*
X8304046Y-3910756D01*
X8304229Y-3909845D01*
X8304593Y-3908570D01*
X8304957Y-3907295D01*
X8305322Y-3905837D01*
X8305868Y-3902193D01*
X8306415Y-3898003D01*
X8306779Y-3893265D01*
X8306962Y-3888164D01*
Y-3887981D01*
Y-3887253D01*
Y-3886342D01*
X8306779Y-3884884D01*
Y-3883244D01*
X8306597Y-3881422D01*
X8306415Y-3879236D01*
X8306233Y-3877050D01*
X8305322Y-3872130D01*
X8304229Y-3867028D01*
X8302589Y-3862291D01*
X8301496Y-3859923D01*
X8300402Y-3857919D01*
Y-3857736D01*
X8300038Y-3857372D01*
X8299674Y-3856825D01*
X8299309Y-3856097D01*
X8297852Y-3854274D01*
X8296030Y-3852088D01*
X8293661Y-3849720D01*
X8290928Y-3847351D01*
X8287831Y-3845347D01*
X8284551Y-3843707D01*
X8284187Y-3843525D01*
X8283276Y-3843343D01*
X8281636Y-3842796D01*
X8279267Y-3842249D01*
X8276352Y-3841885D01*
X8272708Y-3841338D01*
X8270522Y-3841156D01*
X8268153D01*
X8265784Y-3840974D01*
D02*
G37*
G36*
X7364988D02*
X7335107D01*
Y-3878872D01*
X7366081D01*
X7368449Y-3878689D01*
X7371000Y-3878507D01*
X7373551Y-3878325D01*
X7376102Y-3877961D01*
X7378106Y-3877596D01*
X7378470Y-3877414D01*
X7379199Y-3877232D01*
X7380292Y-3876685D01*
X7381750Y-3875956D01*
X7383208Y-3875227D01*
X7384847Y-3874134D01*
X7386487Y-3872677D01*
X7387763Y-3871219D01*
X7387945Y-3871037D01*
X7388309Y-3870490D01*
X7388856Y-3869397D01*
X7389402Y-3868122D01*
X7389949Y-3866664D01*
X7390496Y-3864842D01*
X7390860Y-3862656D01*
X7391042Y-3860287D01*
Y-3859923D01*
Y-3859194D01*
X7390860Y-3858101D01*
X7390678Y-3856643D01*
X7390313Y-3854821D01*
X7389767Y-3852999D01*
X7389038Y-3851177D01*
X7387945Y-3849355D01*
X7387763Y-3849173D01*
X7387398Y-3848626D01*
X7386669Y-3847715D01*
X7385758Y-3846804D01*
X7384483Y-3845711D01*
X7383025Y-3844618D01*
X7381203Y-3843525D01*
X7379199Y-3842796D01*
X7379017D01*
X7378106Y-3842432D01*
X7376831Y-3842249D01*
X7374826Y-3841885D01*
X7372093Y-3841521D01*
X7368996Y-3841338D01*
X7364988Y-3840974D01*
D02*
G37*
G36*
X7368267Y-3893812D02*
X7335107D01*
Y-3937175D01*
X7371000D01*
X7374826Y-3936993D01*
X7376466Y-3936811D01*
X7377924Y-3936629D01*
X7378106D01*
X7378835Y-3936447D01*
X7379928Y-3936265D01*
X7381203Y-3935900D01*
X7384301Y-3934807D01*
X7387398Y-3933349D01*
X7387580Y-3933167D01*
X7388127Y-3932803D01*
X7388856Y-3932256D01*
X7389767Y-3931527D01*
X7390678Y-3930434D01*
X7391953Y-3929341D01*
X7392864Y-3927883D01*
X7393957Y-3926244D01*
X7394140Y-3926061D01*
X7394322Y-3925515D01*
X7394686Y-3924421D01*
X7395233Y-3923146D01*
X7395779Y-3921689D01*
X7396144Y-3919867D01*
X7396326Y-3917680D01*
X7396508Y-3915494D01*
Y-3915129D01*
Y-3914401D01*
X7396326Y-3912943D01*
X7395962Y-3911303D01*
X7395597Y-3909481D01*
X7394868Y-3907477D01*
X7393957Y-3905473D01*
X7392682Y-3903468D01*
X7392500Y-3903286D01*
X7391953Y-3902557D01*
X7391224Y-3901646D01*
X7390131Y-3900553D01*
X7388674Y-3899278D01*
X7386852Y-3898003D01*
X7384847Y-3896909D01*
X7382479Y-3895998D01*
X7382114Y-3895816D01*
X7381386Y-3895634D01*
X7379746Y-3895269D01*
X7377742Y-3894905D01*
X7375191Y-3894541D01*
X7372093Y-3894176D01*
X7368267Y-3893812D01*
D02*
G37*
G36*
X7088044Y-3840974D02*
X7051968D01*
Y-3885977D01*
X7085857D01*
X7087133Y-3885795D01*
X7088408D01*
X7089866Y-3885613D01*
X7093327Y-3885249D01*
X7097154Y-3884520D01*
X7100980Y-3883427D01*
X7104442Y-3881969D01*
X7106081Y-3881058D01*
X7107357Y-3879965D01*
X7107721Y-3879600D01*
X7108450Y-3878872D01*
X7109543Y-3877414D01*
X7110819Y-3875592D01*
X7112094Y-3873223D01*
X7113187Y-3870308D01*
X7113916Y-3867028D01*
X7114280Y-3863202D01*
Y-3863020D01*
Y-3862838D01*
Y-3861927D01*
X7114098Y-3860287D01*
X7113734Y-3858465D01*
X7113369Y-3856461D01*
X7112641Y-3854092D01*
X7111547Y-3851906D01*
X7110272Y-3849720D01*
X7110090Y-3849537D01*
X7109543Y-3848809D01*
X7108632Y-3847898D01*
X7107539Y-3846622D01*
X7105899Y-3845347D01*
X7104077Y-3844253D01*
X7102073Y-3843160D01*
X7099704Y-3842249D01*
X7099522D01*
X7098793Y-3842067D01*
X7097700Y-3841885D01*
X7096243Y-3841521D01*
X7094056Y-3841338D01*
X7091323Y-3841156D01*
X7088044Y-3840974D01*
D02*
G37*
G36*
X8138062Y-3838241D02*
X8136422D01*
X8135147Y-3838423D01*
X8133507Y-3838605D01*
X8131867Y-3838970D01*
X8129863Y-3839334D01*
X8127677Y-3839698D01*
X8122940Y-3841156D01*
X8120389Y-3842249D01*
X8117838Y-3843343D01*
X8115105Y-3844800D01*
X8112554Y-3846440D01*
X8110003Y-3848262D01*
X8107635Y-3850448D01*
X8107453Y-3850631D01*
X8107088Y-3850995D01*
X8106542Y-3851724D01*
X8105631Y-3852817D01*
X8104720Y-3854092D01*
X8103626Y-3855732D01*
X8102533Y-3857736D01*
X8101258Y-3860105D01*
X8100165Y-3862656D01*
X8098889Y-3865753D01*
X8097796Y-3869033D01*
X8096885Y-3872677D01*
X8095974Y-3876685D01*
X8095427Y-3881240D01*
X8095063Y-3885977D01*
X8094881Y-3891079D01*
Y-3891261D01*
Y-3891990D01*
Y-3893265D01*
X8095063Y-3894905D01*
X8095245Y-3896727D01*
X8095610Y-3898914D01*
X8095974Y-3901464D01*
X8096338Y-3904015D01*
X8097796Y-3909845D01*
X8098889Y-3912761D01*
X8099982Y-3915858D01*
X8101440Y-3918773D01*
X8103080Y-3921689D01*
X8104902Y-3924421D01*
X8107088Y-3926972D01*
X8107270Y-3927155D01*
X8107635Y-3927519D01*
X8108364Y-3928248D01*
X8109275Y-3928977D01*
X8110550Y-3930070D01*
X8112008Y-3931163D01*
X8113647Y-3932256D01*
X8115469Y-3933532D01*
X8117656Y-3934807D01*
X8120024Y-3935900D01*
X8122575Y-3936993D01*
X8125308Y-3938086D01*
X8128223Y-3938815D01*
X8131139Y-3939544D01*
X8134418Y-3939909D01*
X8137880Y-3940091D01*
X8138791D01*
X8139702Y-3939909D01*
X8140977D01*
X8142617Y-3939726D01*
X8144439Y-3939362D01*
X8146626Y-3938997D01*
X8148812Y-3938451D01*
X8151363Y-3937722D01*
X8153731Y-3936811D01*
X8156464Y-3935900D01*
X8159015Y-3934625D01*
X8161566Y-3932985D01*
X8164117Y-3931345D01*
X8166668Y-3929341D01*
X8169036Y-3926972D01*
X8169218Y-3926790D01*
X8169583Y-3926426D01*
X8170129Y-3925515D01*
X8171040Y-3924421D01*
X8171951Y-3923146D01*
X8172862Y-3921506D01*
X8173956Y-3919502D01*
X8175231Y-3917316D01*
X8176324Y-3914765D01*
X8177417Y-3911850D01*
X8178328Y-3908752D01*
X8179422Y-3905473D01*
X8180150Y-3901829D01*
X8180697Y-3897820D01*
X8181061Y-3893630D01*
X8181244Y-3889257D01*
Y-3889075D01*
Y-3888528D01*
Y-3887799D01*
Y-3886706D01*
X8181061Y-3885431D01*
Y-3883791D01*
X8180879Y-3882151D01*
X8180515Y-3880147D01*
X8179968Y-3875956D01*
X8179057Y-3871584D01*
X8177782Y-3866846D01*
X8175960Y-3862474D01*
Y-3862291D01*
X8175778Y-3861927D01*
X8175413Y-3861380D01*
X8175049Y-3860651D01*
X8173773Y-3858465D01*
X8172134Y-3855914D01*
X8169947Y-3852999D01*
X8167214Y-3850084D01*
X8164117Y-3847169D01*
X8160655Y-3844618D01*
X8160473D01*
X8160291Y-3844253D01*
X8159744Y-3844071D01*
X8158833Y-3843525D01*
X8157922Y-3843160D01*
X8156829Y-3842614D01*
X8154096Y-3841338D01*
X8150816Y-3840245D01*
X8146990Y-3839152D01*
X8142617Y-3838423D01*
X8138062Y-3838241D01*
D02*
G37*
%LPD*%
D61*
X7026298Y-4583926D02*
X6965358Y-4423960D01*
X6904419Y-4583926D01*
X6927271Y-4530604D02*
X7003445D01*
X7078858Y-4423960D02*
X7162649D01*
X7116945Y-4484900D01*
X7139797D01*
X7155032Y-4492517D01*
X7162649Y-4500134D01*
X7170267Y-4522987D01*
Y-4538221D01*
X7162649Y-4561074D01*
X7147415Y-4576309D01*
X7124562Y-4583926D01*
X7101710D01*
X7078858Y-4576309D01*
X7071240Y-4568691D01*
X7063623Y-4553456D01*
X-2635803Y-1259019D02*
Y-1319000D01*
X-2595816D01*
X-2565826Y-1279013D02*
X-2545832D01*
X-2535836Y-1289010D01*
Y-1319000D01*
X-2565826D01*
X-2575823Y-1309003D01*
X-2565826Y-1299006D01*
X-2535836D01*
X-2515842Y-1279013D02*
Y-1309003D01*
X-2505845Y-1319000D01*
X-2475855D01*
Y-1328997D01*
X-2485852Y-1338994D01*
X-2495849D01*
X-2475855Y-1319000D02*
Y-1279013D01*
X-2425871Y-1319000D02*
X-2445865D01*
X-2455862Y-1309003D01*
Y-1289010D01*
X-2445865Y-1279013D01*
X-2425871D01*
X-2415874Y-1289010D01*
Y-1299006D01*
X-2455862D01*
X-2395881Y-1279013D02*
Y-1319000D01*
Y-1299006D01*
X-2385884Y-1289010D01*
X-2375887Y-1279013D01*
X-2365891D01*
X-2595816Y-2819019D02*
X-2615810Y-2829016D01*
X-2635803Y-2849010D01*
Y-2869003D01*
X-2625807Y-2879000D01*
X-2605813D01*
X-2595816Y-2869003D01*
Y-2859006D01*
X-2605813Y-2849010D01*
X-2635803D01*
X-2595816Y-2579019D02*
X-2635803D01*
Y-2609010D01*
X-2615810Y-2599013D01*
X-2605813D01*
X-2595816Y-2609010D01*
Y-2629003D01*
X-2605813Y-2639000D01*
X-2625807D01*
X-2635803Y-2629003D01*
X-2605813Y-2399000D02*
Y-2339019D01*
X-2635803Y-2369010D01*
X-2595816D01*
X-2635803Y-2109016D02*
X-2625807Y-2099019D01*
X-2605813D01*
X-2595816Y-2109016D01*
Y-2119013D01*
X-2605813Y-2129010D01*
X-2615810D01*
X-2605813D01*
X-2595816Y-2139006D01*
Y-2149003D01*
X-2605813Y-2159000D01*
X-2625807D01*
X-2635803Y-2149003D01*
X-2595816Y-1919000D02*
X-2635803D01*
X-2595816Y-1879013D01*
Y-1869016D01*
X-2605813Y-1859019D01*
X-2625807D01*
X-2635803Y-1869016D01*
Y-1679000D02*
X-2615810D01*
X-2625807D01*
Y-1619019D01*
X-2635803Y-1629016D01*
X-2225891Y-1319000D02*
Y-1259019D01*
X-2185904Y-1319000D01*
Y-1259019D01*
X-2155913Y-1279013D02*
X-2135920D01*
X-2125923Y-1289010D01*
Y-1319000D01*
X-2155913D01*
X-2165910Y-1309003D01*
X-2155913Y-1299006D01*
X-2125923D01*
X-2105930Y-1319000D02*
Y-1279013D01*
X-2095933D01*
X-2085936Y-1289010D01*
Y-1319000D01*
Y-1289010D01*
X-2075939Y-1279013D01*
X-2065942Y-1289010D01*
Y-1319000D01*
X-2015959D02*
X-2035952D01*
X-2045949Y-1309003D01*
Y-1289010D01*
X-2035952Y-1279013D01*
X-2015959D01*
X-2005962Y-1289010D01*
Y-1299006D01*
X-2045949D01*
X-2225891Y-3059019D02*
Y-3119000D01*
X-2195900D01*
X-2185904Y-3109003D01*
Y-3099006D01*
X-2195900Y-3089010D01*
X-2225891D01*
X-2195900D01*
X-2185904Y-3079013D01*
Y-3069016D01*
X-2195900Y-3059019D01*
X-2225891D01*
X-2155913Y-3119000D02*
X-2135920D01*
X-2125923Y-3109003D01*
Y-3089010D01*
X-2135920Y-3079013D01*
X-2155913D01*
X-2165910Y-3089010D01*
Y-3109003D01*
X-2155913Y-3119000D01*
X-2095933Y-3069016D02*
Y-3079013D01*
X-2105930D01*
X-2085936D01*
X-2095933D01*
Y-3109003D01*
X-2085936Y-3119000D01*
X-2045949Y-3069016D02*
Y-3079013D01*
X-2055946D01*
X-2035952D01*
X-2045949D01*
Y-3109003D01*
X-2035952Y-3119000D01*
X-1995965D02*
X-1975972D01*
X-1965975Y-3109003D01*
Y-3089010D01*
X-1975972Y-3079013D01*
X-1995965D01*
X-2005962Y-3089010D01*
Y-3109003D01*
X-1995965Y-3119000D01*
X-1945981D02*
Y-3079013D01*
X-1935985D01*
X-1925988Y-3089010D01*
Y-3119000D01*
Y-3089010D01*
X-1915991Y-3079013D01*
X-1905994Y-3089010D01*
Y-3119000D01*
X-1796030Y-3059019D02*
X-1816023D01*
X-1826020Y-3069016D01*
Y-3109003D01*
X-1816023Y-3119000D01*
X-1796030D01*
X-1786033Y-3109003D01*
Y-3069016D01*
X-1796030Y-3059019D01*
X-1766040Y-3079013D02*
X-1746046Y-3119000D01*
X-1726052Y-3079013D01*
X-1676069Y-3119000D02*
X-1696062D01*
X-1706059Y-3109003D01*
Y-3089010D01*
X-1696062Y-3079013D01*
X-1676069D01*
X-1666072Y-3089010D01*
Y-3099006D01*
X-1706059D01*
X-1646078Y-3079013D02*
Y-3119000D01*
Y-3099006D01*
X-1636082Y-3089010D01*
X-1626085Y-3079013D01*
X-1616088D01*
X-1586098Y-3119000D02*
X-1566104D01*
X-1576101D01*
Y-3059019D01*
X-1586098D01*
X-1526117Y-3079013D02*
X-1506124D01*
X-1496127Y-3089010D01*
Y-3119000D01*
X-1526117D01*
X-1536114Y-3109003D01*
X-1526117Y-3099006D01*
X-1496127D01*
X-1476133Y-3079013D02*
Y-3109003D01*
X-1466137Y-3119000D01*
X-1436146D01*
Y-3128997D01*
X-1446143Y-3138994D01*
X-1456140D01*
X-1436146Y-3119000D02*
Y-3079013D01*
X-2225891Y-2939019D02*
Y-2999000D01*
X-2195900D01*
X-2185904Y-2989003D01*
Y-2979006D01*
X-2195900Y-2969010D01*
X-2225891D01*
X-2195900D01*
X-2185904Y-2959013D01*
Y-2949016D01*
X-2195900Y-2939019D01*
X-2225891D01*
X-2155913Y-2999000D02*
X-2135920D01*
X-2125923Y-2989003D01*
Y-2969010D01*
X-2135920Y-2959013D01*
X-2155913D01*
X-2165910Y-2969010D01*
Y-2989003D01*
X-2155913Y-2999000D01*
X-2095933Y-2949016D02*
Y-2959013D01*
X-2105930D01*
X-2085936D01*
X-2095933D01*
Y-2989003D01*
X-2085936Y-2999000D01*
X-2045949Y-2949016D02*
Y-2959013D01*
X-2055946D01*
X-2035952D01*
X-2045949D01*
Y-2989003D01*
X-2035952Y-2999000D01*
X-1995965D02*
X-1975972D01*
X-1965975Y-2989003D01*
Y-2969010D01*
X-1975972Y-2959013D01*
X-1995965D01*
X-2005962Y-2969010D01*
Y-2989003D01*
X-1995965Y-2999000D01*
X-1945981D02*
Y-2959013D01*
X-1935985D01*
X-1925988Y-2969010D01*
Y-2999000D01*
Y-2969010D01*
X-1915991Y-2959013D01*
X-1905994Y-2969010D01*
Y-2999000D01*
X-1786033Y-2949016D02*
X-1796030Y-2939019D01*
X-1816023D01*
X-1826020Y-2949016D01*
Y-2959013D01*
X-1816023Y-2969010D01*
X-1796030D01*
X-1786033Y-2979006D01*
Y-2989003D01*
X-1796030Y-2999000D01*
X-1816023D01*
X-1826020Y-2989003D01*
X-1756043Y-2999000D02*
X-1736049D01*
X-1726052Y-2989003D01*
Y-2969010D01*
X-1736049Y-2959013D01*
X-1756043D01*
X-1766040Y-2969010D01*
Y-2989003D01*
X-1756043Y-2999000D01*
X-1706059D02*
X-1686065D01*
X-1696062D01*
Y-2939019D01*
X-1706059D01*
X-1616088D02*
Y-2999000D01*
X-1646078D01*
X-1656075Y-2989003D01*
Y-2969010D01*
X-1646078Y-2959013D01*
X-1616088D01*
X-1566104Y-2999000D02*
X-1586098D01*
X-1596094Y-2989003D01*
Y-2969010D01*
X-1586098Y-2959013D01*
X-1566104D01*
X-1556107Y-2969010D01*
Y-2979006D01*
X-1596094D01*
X-1536114Y-2959013D02*
Y-2999000D01*
Y-2979006D01*
X-1526117Y-2969010D01*
X-1516120Y-2959013D01*
X-1506124D01*
X-2225891Y-2819019D02*
Y-2879000D01*
X-2195900D01*
X-2185904Y-2869003D01*
Y-2859006D01*
X-2195900Y-2849010D01*
X-2225891D01*
X-2195900D01*
X-2185904Y-2839013D01*
Y-2829016D01*
X-2195900Y-2819019D01*
X-2225891D01*
X-2155913Y-2879000D02*
X-2135920D01*
X-2125923Y-2869003D01*
Y-2849010D01*
X-2135920Y-2839013D01*
X-2155913D01*
X-2165910Y-2849010D01*
Y-2869003D01*
X-2155913Y-2879000D01*
X-2095933Y-2829016D02*
Y-2839013D01*
X-2105930D01*
X-2085936D01*
X-2095933D01*
Y-2869003D01*
X-2085936Y-2879000D01*
X-2045949Y-2829016D02*
Y-2839013D01*
X-2055946D01*
X-2035952D01*
X-2045949D01*
Y-2869003D01*
X-2035952Y-2879000D01*
X-1995965D02*
X-1975972D01*
X-1965975Y-2869003D01*
Y-2849010D01*
X-1975972Y-2839013D01*
X-1995965D01*
X-2005962Y-2849010D01*
Y-2869003D01*
X-1995965Y-2879000D01*
X-1945981D02*
Y-2839013D01*
X-1935985D01*
X-1925988Y-2849010D01*
Y-2879000D01*
Y-2849010D01*
X-1915991Y-2839013D01*
X-1905994Y-2849010D01*
Y-2879000D01*
X-1826020Y-2819019D02*
Y-2879000D01*
X-1786033D01*
X-1756043Y-2839013D02*
X-1736049D01*
X-1726052Y-2849010D01*
Y-2879000D01*
X-1756043D01*
X-1766040Y-2869003D01*
X-1756043Y-2859006D01*
X-1726052D01*
X-1706059Y-2839013D02*
Y-2869003D01*
X-1696062Y-2879000D01*
X-1666072D01*
Y-2888997D01*
X-1676069Y-2898994D01*
X-1686065D01*
X-1666072Y-2879000D02*
Y-2839013D01*
X-1616088Y-2879000D02*
X-1636082D01*
X-1646078Y-2869003D01*
Y-2849010D01*
X-1636082Y-2839013D01*
X-1616088D01*
X-1606091Y-2849010D01*
Y-2859006D01*
X-1646078D01*
X-1586098Y-2839013D02*
Y-2879000D01*
Y-2859006D01*
X-1576101Y-2849010D01*
X-1566104Y-2839013D01*
X-1556107D01*
X-2225891Y-2699019D02*
Y-2759000D01*
X-2195900D01*
X-2185904Y-2749003D01*
Y-2709016D01*
X-2195900Y-2699019D01*
X-2225891D01*
X-2165910Y-2759000D02*
X-2145917D01*
X-2155913D01*
Y-2719013D01*
X-2165910D01*
X-2085936Y-2759000D02*
X-2105930D01*
X-2115926Y-2749003D01*
Y-2729010D01*
X-2105930Y-2719013D01*
X-2085936D01*
X-2075939Y-2729010D01*
Y-2739006D01*
X-2115926D01*
X-2055946Y-2759000D02*
X-2035952D01*
X-2045949D01*
Y-2699019D01*
X-2055946D01*
X-1975972Y-2759000D02*
X-1995965D01*
X-2005962Y-2749003D01*
Y-2729010D01*
X-1995965Y-2719013D01*
X-1975972D01*
X-1965975Y-2729010D01*
Y-2739006D01*
X-2005962D01*
X-1905994Y-2719013D02*
X-1935985D01*
X-1945981Y-2729010D01*
Y-2749003D01*
X-1935985Y-2759000D01*
X-1905994D01*
X-1876004Y-2709016D02*
Y-2719013D01*
X-1886001D01*
X-1866007D01*
X-1876004D01*
Y-2749003D01*
X-1866007Y-2759000D01*
X-1836017Y-2719013D02*
Y-2759000D01*
Y-2739006D01*
X-1826020Y-2729010D01*
X-1816023Y-2719013D01*
X-1806027D01*
X-1776036Y-2759000D02*
X-1756043D01*
X-1766040D01*
Y-2719013D01*
X-1776036D01*
X-1686065D02*
X-1716056D01*
X-1726053Y-2729010D01*
Y-2749003D01*
X-1716056Y-2759000D01*
X-1686065D01*
X-1666072Y-2709016D02*
X-1656075Y-2699019D01*
X-1636082D01*
X-1626085Y-2709016D01*
Y-2719013D01*
X-1636082Y-2729010D01*
X-1626085Y-2739006D01*
Y-2749003D01*
X-1636082Y-2759000D01*
X-1656075D01*
X-1666072Y-2749003D01*
Y-2739006D01*
X-1656075Y-2729010D01*
X-1666072Y-2719013D01*
Y-2709016D01*
X-1656075Y-2729010D02*
X-1636082D01*
X-2225891Y-2639000D02*
Y-2579019D01*
X-2195900D01*
X-2185904Y-2589016D01*
Y-2609010D01*
X-2195900Y-2619006D01*
X-2225891D01*
X-2165910Y-2579019D02*
Y-2639000D01*
X-2145917Y-2619006D01*
X-2125923Y-2639000D01*
Y-2579019D01*
X-2105930Y-2639000D02*
Y-2579019D01*
X-2075939D01*
X-2065942Y-2589016D01*
Y-2609010D01*
X-2075939Y-2619006D01*
X-2105930D01*
X-2085936D02*
X-2065942Y-2639000D01*
X-2225891Y-2459019D02*
Y-2519000D01*
X-2195900D01*
X-2185904Y-2509003D01*
Y-2469016D01*
X-2195900Y-2459019D01*
X-2225891D01*
X-2165910Y-2519000D02*
X-2145917D01*
X-2155913D01*
Y-2479013D01*
X-2165910D01*
X-2085936Y-2519000D02*
X-2105930D01*
X-2115926Y-2509003D01*
Y-2489010D01*
X-2105930Y-2479013D01*
X-2085936D01*
X-2075939Y-2489010D01*
Y-2499006D01*
X-2115926D01*
X-2055946Y-2519000D02*
X-2035952D01*
X-2045949D01*
Y-2459019D01*
X-2055946D01*
X-1975972Y-2519000D02*
X-1995965D01*
X-2005962Y-2509003D01*
Y-2489010D01*
X-1995965Y-2479013D01*
X-1975972D01*
X-1965975Y-2489010D01*
Y-2499006D01*
X-2005962D01*
X-1905994Y-2479013D02*
X-1935985D01*
X-1945981Y-2489010D01*
Y-2509003D01*
X-1935985Y-2519000D01*
X-1905994D01*
X-1876004Y-2469016D02*
Y-2479013D01*
X-1886001D01*
X-1866007D01*
X-1876004D01*
Y-2509003D01*
X-1866007Y-2519000D01*
X-1836017Y-2479013D02*
Y-2519000D01*
Y-2499006D01*
X-1826020Y-2489010D01*
X-1816023Y-2479013D01*
X-1806027D01*
X-1776036Y-2519000D02*
X-1756043D01*
X-1766040D01*
Y-2479013D01*
X-1776036D01*
X-1686065D02*
X-1716056D01*
X-1726053Y-2489010D01*
Y-2509003D01*
X-1716056Y-2519000D01*
X-1686065D01*
X-1666072Y-2469016D02*
X-1656075Y-2459019D01*
X-1636082D01*
X-1626085Y-2469016D01*
Y-2479013D01*
X-1636082Y-2489010D01*
X-1646078D01*
X-1636082D01*
X-1626085Y-2499006D01*
Y-2509003D01*
X-1636082Y-2519000D01*
X-1656075D01*
X-1666072Y-2509003D01*
X-2225891Y-2399000D02*
Y-2339019D01*
X-2205897Y-2359013D01*
X-2185904Y-2339019D01*
Y-2399000D01*
X-2165910D02*
X-2145917D01*
X-2155913D01*
Y-2359013D01*
X-2165910D01*
X-2075939Y-2339019D02*
Y-2399000D01*
X-2105930D01*
X-2115926Y-2389003D01*
Y-2369010D01*
X-2105930Y-2359013D01*
X-2075939D01*
X-2055946Y-2369010D02*
X-2015959D01*
X-1995965Y-2339019D02*
Y-2399000D01*
X-1955978D01*
X-1925988Y-2359013D02*
X-1905994D01*
X-1895997Y-2369010D01*
Y-2399000D01*
X-1925988D01*
X-1935985Y-2389003D01*
X-1925988Y-2379006D01*
X-1895997D01*
X-1876004Y-2359013D02*
Y-2389003D01*
X-1866007Y-2399000D01*
X-1836017D01*
Y-2408997D01*
X-1846014Y-2418994D01*
X-1856010D01*
X-1836017Y-2399000D02*
Y-2359013D01*
X-1786033Y-2399000D02*
X-1806026D01*
X-1816023Y-2389003D01*
Y-2369010D01*
X-1806026Y-2359013D01*
X-1786033D01*
X-1776036Y-2369010D01*
Y-2379006D01*
X-1816023D01*
X-1756043Y-2359013D02*
Y-2399000D01*
Y-2379006D01*
X-1746046Y-2369010D01*
X-1736049Y-2359013D01*
X-1726052D01*
X-1596094Y-2399000D02*
X-1636082D01*
X-1596094Y-2359013D01*
Y-2349016D01*
X-1606091Y-2339019D01*
X-1626085D01*
X-1636082Y-2349016D01*
X-2225891Y-2219019D02*
Y-2279000D01*
X-2195900D01*
X-2185904Y-2269003D01*
Y-2229016D01*
X-2195900Y-2219019D01*
X-2225891D01*
X-2165910Y-2279000D02*
X-2145917D01*
X-2155913D01*
Y-2239013D01*
X-2165910D01*
X-2085936Y-2279000D02*
X-2105930D01*
X-2115926Y-2269003D01*
Y-2249010D01*
X-2105930Y-2239013D01*
X-2085936D01*
X-2075939Y-2249010D01*
Y-2259006D01*
X-2115926D01*
X-2055946Y-2279000D02*
X-2035952D01*
X-2045949D01*
Y-2219019D01*
X-2055946D01*
X-1975972Y-2279000D02*
X-1995965D01*
X-2005962Y-2269003D01*
Y-2249010D01*
X-1995965Y-2239013D01*
X-1975972D01*
X-1965975Y-2249010D01*
Y-2259006D01*
X-2005962D01*
X-1905994Y-2239013D02*
X-1935985D01*
X-1945981Y-2249010D01*
Y-2269003D01*
X-1935985Y-2279000D01*
X-1905994D01*
X-1876004Y-2229016D02*
Y-2239013D01*
X-1886001D01*
X-1866007D01*
X-1876004D01*
Y-2269003D01*
X-1866007Y-2279000D01*
X-1836017Y-2239013D02*
Y-2279000D01*
Y-2259006D01*
X-1826020Y-2249010D01*
X-1816023Y-2239013D01*
X-1806027D01*
X-1776036Y-2279000D02*
X-1756043D01*
X-1766040D01*
Y-2239013D01*
X-1776036D01*
X-1686065D02*
X-1716056D01*
X-1726053Y-2249010D01*
Y-2269003D01*
X-1716056Y-2279000D01*
X-1686065D01*
X-1626085D02*
X-1666072D01*
X-1626085Y-2239013D01*
Y-2229016D01*
X-1636082Y-2219019D01*
X-1656075D01*
X-1666072Y-2229016D01*
X-2225891Y-2159000D02*
Y-2099019D01*
X-2205897Y-2119013D01*
X-2185904Y-2099019D01*
Y-2159000D01*
X-2165910D02*
X-2145917D01*
X-2155913D01*
Y-2119013D01*
X-2165910D01*
X-2075939Y-2099019D02*
Y-2159000D01*
X-2105930D01*
X-2115926Y-2149003D01*
Y-2129010D01*
X-2105930Y-2119013D01*
X-2075939D01*
X-2055946Y-2129010D02*
X-2015959D01*
X-1995965Y-2099019D02*
Y-2159000D01*
X-1955978D01*
X-1925988Y-2119013D02*
X-1905994D01*
X-1895997Y-2129010D01*
Y-2159000D01*
X-1925988D01*
X-1935985Y-2149003D01*
X-1925988Y-2139006D01*
X-1895997D01*
X-1876004Y-2119013D02*
Y-2149003D01*
X-1866007Y-2159000D01*
X-1836017D01*
Y-2168997D01*
X-1846014Y-2178994D01*
X-1856010D01*
X-1836017Y-2159000D02*
Y-2119013D01*
X-1786033Y-2159000D02*
X-1806026D01*
X-1816023Y-2149003D01*
Y-2129010D01*
X-1806026Y-2119013D01*
X-1786033D01*
X-1776036Y-2129010D01*
Y-2139006D01*
X-1816023D01*
X-1756043Y-2119013D02*
Y-2159000D01*
Y-2139006D01*
X-1746046Y-2129010D01*
X-1736049Y-2119013D01*
X-1726052D01*
X-1636082Y-2159000D02*
X-1616088D01*
X-1626085D01*
Y-2099019D01*
X-1636082Y-2109016D01*
X-2225891Y-1979019D02*
Y-2039000D01*
X-2195900D01*
X-2185904Y-2029003D01*
Y-1989016D01*
X-2195900Y-1979019D01*
X-2225891D01*
X-2165910Y-2039000D02*
X-2145917D01*
X-2155913D01*
Y-1999013D01*
X-2165910D01*
X-2085936Y-2039000D02*
X-2105930D01*
X-2115926Y-2029003D01*
Y-2009010D01*
X-2105930Y-1999013D01*
X-2085936D01*
X-2075939Y-2009010D01*
Y-2019006D01*
X-2115926D01*
X-2055946Y-2039000D02*
X-2035952D01*
X-2045949D01*
Y-1979019D01*
X-2055946D01*
X-1975972Y-2039000D02*
X-1995965D01*
X-2005962Y-2029003D01*
Y-2009010D01*
X-1995965Y-1999013D01*
X-1975972D01*
X-1965975Y-2009010D01*
Y-2019006D01*
X-2005962D01*
X-1905994Y-1999013D02*
X-1935985D01*
X-1945981Y-2009010D01*
Y-2029003D01*
X-1935985Y-2039000D01*
X-1905994D01*
X-1876004Y-1989016D02*
Y-1999013D01*
X-1886001D01*
X-1866007D01*
X-1876004D01*
Y-2029003D01*
X-1866007Y-2039000D01*
X-1836017Y-1999013D02*
Y-2039000D01*
Y-2019006D01*
X-1826020Y-2009010D01*
X-1816023Y-1999013D01*
X-1806027D01*
X-1776036Y-2039000D02*
X-1756043D01*
X-1766040D01*
Y-1999013D01*
X-1776036D01*
X-1686065D02*
X-1716056D01*
X-1726053Y-2009010D01*
Y-2029003D01*
X-1716056Y-2039000D01*
X-1686065D01*
X-1666072Y-1979019D02*
X-1626085D01*
Y-1989016D01*
X-1666072Y-2029003D01*
Y-2039000D01*
X-2185904Y-1869016D02*
X-2195900Y-1859019D01*
X-2215894D01*
X-2225891Y-1869016D01*
Y-1909003D01*
X-2215894Y-1919000D01*
X-2195900D01*
X-2185904Y-1909003D01*
Y-1889010D01*
X-2205897D01*
X-2165910Y-1919000D02*
Y-1859019D01*
X-2125923Y-1919000D01*
Y-1859019D01*
X-2105930D02*
Y-1919000D01*
X-2075939D01*
X-2065942Y-1909003D01*
Y-1869016D01*
X-2075939Y-1859019D01*
X-2105930D01*
X-2225891Y-1739019D02*
Y-1799000D01*
X-2195900D01*
X-2185904Y-1789003D01*
Y-1749016D01*
X-2195900Y-1739019D01*
X-2225891D01*
X-2165910Y-1799000D02*
X-2145917D01*
X-2155913D01*
Y-1759013D01*
X-2165910D01*
X-2085936Y-1799000D02*
X-2105930D01*
X-2115926Y-1789003D01*
Y-1769010D01*
X-2105930Y-1759013D01*
X-2085936D01*
X-2075939Y-1769010D01*
Y-1779006D01*
X-2115926D01*
X-2055946Y-1799000D02*
X-2035952D01*
X-2045949D01*
Y-1739019D01*
X-2055946D01*
X-1975972Y-1799000D02*
X-1995965D01*
X-2005962Y-1789003D01*
Y-1769010D01*
X-1995965Y-1759013D01*
X-1975972D01*
X-1965975Y-1769010D01*
Y-1779006D01*
X-2005962D01*
X-1905994Y-1759013D02*
X-1935985D01*
X-1945981Y-1769010D01*
Y-1789003D01*
X-1935985Y-1799000D01*
X-1905994D01*
X-1876004Y-1749016D02*
Y-1759013D01*
X-1886001D01*
X-1866007D01*
X-1876004D01*
Y-1789003D01*
X-1866007Y-1799000D01*
X-1836017Y-1759013D02*
Y-1799000D01*
Y-1779006D01*
X-1826020Y-1769010D01*
X-1816023Y-1759013D01*
X-1806027D01*
X-1776036Y-1799000D02*
X-1756043D01*
X-1766040D01*
Y-1759013D01*
X-1776036D01*
X-1686065D02*
X-1716056D01*
X-1726053Y-1769010D01*
Y-1789003D01*
X-1716056Y-1799000D01*
X-1686065D01*
X-1666072D02*
X-1646078D01*
X-1656075D01*
Y-1739019D01*
X-1666072Y-1749016D01*
X-2225891Y-1619019D02*
X-2185904D01*
X-2205897D01*
Y-1679000D01*
X-2155913D02*
X-2135920D01*
X-2125923Y-1669003D01*
Y-1649010D01*
X-2135920Y-1639013D01*
X-2155913D01*
X-2165910Y-1649010D01*
Y-1669003D01*
X-2155913Y-1679000D01*
X-2105930Y-1698994D02*
Y-1639013D01*
X-2075939D01*
X-2065942Y-1649010D01*
Y-1669003D01*
X-2075939Y-1679000D01*
X-2105930D01*
X-1985968Y-1619019D02*
Y-1679000D01*
X-1945981D01*
X-1915991Y-1639013D02*
X-1895997D01*
X-1886001Y-1649010D01*
Y-1679000D01*
X-1915991D01*
X-1925988Y-1669003D01*
X-1915991Y-1659006D01*
X-1886001D01*
X-1866007Y-1639013D02*
Y-1669003D01*
X-1856010Y-1679000D01*
X-1826020D01*
Y-1688997D01*
X-1836017Y-1698994D01*
X-1846014D01*
X-1826020Y-1679000D02*
Y-1639013D01*
X-1776036Y-1679000D02*
X-1796030D01*
X-1806026Y-1669003D01*
Y-1649010D01*
X-1796030Y-1639013D01*
X-1776036D01*
X-1766039Y-1649010D01*
Y-1659006D01*
X-1806026D01*
X-1746046Y-1639013D02*
Y-1679000D01*
Y-1659006D01*
X-1736049Y-1649010D01*
X-1726052Y-1639013D01*
X-1716056D01*
X-2225891Y-1499019D02*
X-2185904D01*
X-2205897D01*
Y-1559000D01*
X-2155913D02*
X-2135920D01*
X-2125923Y-1549003D01*
Y-1529010D01*
X-2135920Y-1519013D01*
X-2155913D01*
X-2165910Y-1529010D01*
Y-1549003D01*
X-2155913Y-1559000D01*
X-2105930Y-1578994D02*
Y-1519013D01*
X-2075939D01*
X-2065942Y-1529010D01*
Y-1549003D01*
X-2075939Y-1559000D01*
X-2105930D01*
X-1945981Y-1509016D02*
X-1955978Y-1499019D01*
X-1975972D01*
X-1985968Y-1509016D01*
Y-1519013D01*
X-1975972Y-1529010D01*
X-1955978D01*
X-1945981Y-1539006D01*
Y-1549003D01*
X-1955978Y-1559000D01*
X-1975972D01*
X-1985968Y-1549003D01*
X-1915991Y-1559000D02*
X-1895997D01*
X-1886001Y-1549003D01*
Y-1529010D01*
X-1895997Y-1519013D01*
X-1915991D01*
X-1925988Y-1529010D01*
Y-1549003D01*
X-1915991Y-1559000D01*
X-1866007D02*
X-1846014D01*
X-1856010D01*
Y-1499019D01*
X-1866007D01*
X-1776036D02*
Y-1559000D01*
X-1806026D01*
X-1816023Y-1549003D01*
Y-1529010D01*
X-1806026Y-1519013D01*
X-1776036D01*
X-1726052Y-1559000D02*
X-1746046D01*
X-1756043Y-1549003D01*
Y-1529010D01*
X-1746046Y-1519013D01*
X-1726052D01*
X-1716056Y-1529010D01*
Y-1539006D01*
X-1756043D01*
X-1696062Y-1519013D02*
Y-1559000D01*
Y-1539006D01*
X-1686065Y-1529010D01*
X-1676069Y-1519013D01*
X-1666072D01*
X-2225891Y-1379019D02*
X-2185904D01*
X-2205897D01*
Y-1439000D01*
X-2155913D02*
X-2135920D01*
X-2125923Y-1429003D01*
Y-1409010D01*
X-2135920Y-1399013D01*
X-2155913D01*
X-2165910Y-1409010D01*
Y-1429003D01*
X-2155913Y-1439000D01*
X-2105930Y-1458994D02*
Y-1399013D01*
X-2075939D01*
X-2065942Y-1409010D01*
Y-1429003D01*
X-2075939Y-1439000D01*
X-2105930D01*
X-1955978Y-1379019D02*
X-1975972D01*
X-1985968Y-1389016D01*
Y-1429003D01*
X-1975972Y-1439000D01*
X-1955978D01*
X-1945981Y-1429003D01*
Y-1389016D01*
X-1955978Y-1379019D01*
X-1925988Y-1399013D02*
X-1905994Y-1439000D01*
X-1886001Y-1399013D01*
X-1836017Y-1439000D02*
X-1856010D01*
X-1866007Y-1429003D01*
Y-1409010D01*
X-1856010Y-1399013D01*
X-1836017D01*
X-1826020Y-1409010D01*
Y-1419006D01*
X-1866007D01*
X-1806026Y-1399013D02*
Y-1439000D01*
Y-1419006D01*
X-1796030Y-1409010D01*
X-1786033Y-1399013D01*
X-1776036D01*
X-1746046Y-1439000D02*
X-1726052D01*
X-1736049D01*
Y-1379019D01*
X-1746046D01*
X-1686065Y-1399013D02*
X-1666072D01*
X-1656075Y-1409010D01*
Y-1439000D01*
X-1686065D01*
X-1696062Y-1429003D01*
X-1686065Y-1419006D01*
X-1656075D01*
X-1636082Y-1399013D02*
Y-1429003D01*
X-1626085Y-1439000D01*
X-1596094D01*
Y-1448997D01*
X-1606091Y-1458994D01*
X-1616088D01*
X-1596094Y-1439000D02*
Y-1399013D01*
X-1296146Y-1319000D02*
Y-1259019D01*
X-1276153Y-1279013D01*
X-1256159Y-1259019D01*
Y-1319000D01*
X-1226169Y-1279013D02*
X-1206175D01*
X-1196178Y-1289010D01*
Y-1319000D01*
X-1226169D01*
X-1236166Y-1309003D01*
X-1226169Y-1299006D01*
X-1196178D01*
X-1166188Y-1269016D02*
Y-1279013D01*
X-1176185D01*
X-1156191D01*
X-1166188D01*
Y-1309003D01*
X-1156191Y-1319000D01*
X-1096211D02*
X-1116204D01*
X-1126201Y-1309003D01*
Y-1289010D01*
X-1116204Y-1279013D01*
X-1096211D01*
X-1086214Y-1289010D01*
Y-1299006D01*
X-1126201D01*
X-1066221Y-1279013D02*
Y-1319000D01*
Y-1299006D01*
X-1056224Y-1289010D01*
X-1046227Y-1279013D01*
X-1036230D01*
X-1006240Y-1319000D02*
X-986246D01*
X-996243D01*
Y-1279013D01*
X-1006240D01*
X-946259D02*
X-926266D01*
X-916269Y-1289010D01*
Y-1319000D01*
X-946259D01*
X-956256Y-1309003D01*
X-946259Y-1299006D01*
X-916269D01*
X-896276Y-1319000D02*
X-876282D01*
X-886279D01*
Y-1259019D01*
X-896276D01*
X-1256159Y-2949016D02*
X-1266156Y-2939019D01*
X-1286149D01*
X-1296146Y-2949016D01*
Y-2959013D01*
X-1286149Y-2969010D01*
X-1266156D01*
X-1256159Y-2979006D01*
Y-2989003D01*
X-1266156Y-2999000D01*
X-1286149D01*
X-1296146Y-2989003D01*
X-1226169Y-2999000D02*
X-1206175D01*
X-1196178Y-2989003D01*
Y-2969010D01*
X-1206175Y-2959013D01*
X-1226169D01*
X-1236166Y-2969010D01*
Y-2989003D01*
X-1226169Y-2999000D01*
X-1176185D02*
X-1156191D01*
X-1166188D01*
Y-2939019D01*
X-1176185D01*
X-1086214D02*
Y-2999000D01*
X-1116204D01*
X-1126201Y-2989003D01*
Y-2969010D01*
X-1116204Y-2959013D01*
X-1086214D01*
X-1036230Y-2999000D02*
X-1056224D01*
X-1066221Y-2989003D01*
Y-2969010D01*
X-1056224Y-2959013D01*
X-1036230D01*
X-1026234Y-2969010D01*
Y-2979006D01*
X-1066221D01*
X-1006240Y-2959013D02*
Y-2999000D01*
Y-2979006D01*
X-996243Y-2969010D01*
X-986246Y-2959013D01*
X-976250D01*
X-886279Y-2999000D02*
Y-2939019D01*
X-856288D01*
X-846292Y-2949016D01*
Y-2969010D01*
X-856288Y-2979006D01*
X-886279D01*
X-866285D02*
X-846292Y-2999000D01*
X-796308D02*
X-816301D01*
X-826298Y-2989003D01*
Y-2969010D01*
X-816301Y-2959013D01*
X-796308D01*
X-786311Y-2969010D01*
Y-2979006D01*
X-826298D01*
X-766318Y-2999000D02*
X-736327D01*
X-726331Y-2989003D01*
X-736327Y-2979006D01*
X-756321D01*
X-766318Y-2969010D01*
X-756321Y-2959013D01*
X-726331D01*
X-706337Y-2999000D02*
X-686343D01*
X-696340D01*
Y-2959013D01*
X-706337D01*
X-656353Y-2999000D02*
X-626363D01*
X-616366Y-2989003D01*
X-626363Y-2979006D01*
X-646356D01*
X-656353Y-2969010D01*
X-646356Y-2959013D01*
X-616366D01*
X-586376Y-2949016D02*
Y-2959013D01*
X-596373D01*
X-576379D01*
X-586376D01*
Y-2989003D01*
X-576379Y-2999000D01*
X-1256159Y-2829016D02*
X-1266156Y-2819019D01*
X-1286149D01*
X-1296146Y-2829016D01*
Y-2869003D01*
X-1286149Y-2879000D01*
X-1266156D01*
X-1256159Y-2869003D01*
X-1226169Y-2879000D02*
X-1206175D01*
X-1196178Y-2869003D01*
Y-2849010D01*
X-1206175Y-2839013D01*
X-1226169D01*
X-1236166Y-2849010D01*
Y-2869003D01*
X-1226169Y-2879000D01*
X-1176185Y-2898994D02*
Y-2839013D01*
X-1146195D01*
X-1136198Y-2849010D01*
Y-2869003D01*
X-1146195Y-2879000D01*
X-1176185D01*
X-1116204Y-2898994D02*
Y-2839013D01*
X-1086214D01*
X-1076217Y-2849010D01*
Y-2869003D01*
X-1086214Y-2879000D01*
X-1116204D01*
X-1026234D02*
X-1046227D01*
X-1056224Y-2869003D01*
Y-2849010D01*
X-1046227Y-2839013D01*
X-1026234D01*
X-1016237Y-2849010D01*
Y-2859006D01*
X-1056224D01*
X-996243Y-2839013D02*
Y-2879000D01*
Y-2859006D01*
X-986246Y-2849010D01*
X-976250Y-2839013D01*
X-966253D01*
X-1256159Y-2699019D02*
X-1296146D01*
Y-2729010D01*
X-1276153D01*
X-1296146D01*
Y-2759000D01*
X-1236166D02*
Y-2699019D01*
X-1206175D01*
X-1196178Y-2709016D01*
Y-2729010D01*
X-1206175Y-2739006D01*
X-1236166D01*
X-1216172D02*
X-1196178Y-2759000D01*
X-1176185Y-2729010D02*
X-1136198D01*
X-1086214Y-2759000D02*
Y-2699019D01*
X-1116204Y-2729010D01*
X-1076217D01*
X-1256159Y-2589016D02*
X-1266156Y-2579019D01*
X-1286149D01*
X-1296146Y-2589016D01*
Y-2629003D01*
X-1286149Y-2639000D01*
X-1266156D01*
X-1256159Y-2629003D01*
X-1226169Y-2639000D02*
X-1206175D01*
X-1196178Y-2629003D01*
Y-2609010D01*
X-1206175Y-2599013D01*
X-1226169D01*
X-1236166Y-2609010D01*
Y-2629003D01*
X-1226169Y-2639000D01*
X-1176185Y-2658994D02*
Y-2599013D01*
X-1146195D01*
X-1136198Y-2609010D01*
Y-2629003D01*
X-1146195Y-2639000D01*
X-1176185D01*
X-1116204Y-2658994D02*
Y-2599013D01*
X-1086214D01*
X-1076217Y-2609010D01*
Y-2629003D01*
X-1086214Y-2639000D01*
X-1116204D01*
X-1026234D02*
X-1046227D01*
X-1056224Y-2629003D01*
Y-2609010D01*
X-1046227Y-2599013D01*
X-1026234D01*
X-1016237Y-2609010D01*
Y-2619006D01*
X-1056224D01*
X-996243Y-2599013D02*
Y-2639000D01*
Y-2619006D01*
X-986246Y-2609010D01*
X-976250Y-2599013D01*
X-966253D01*
X-1256159Y-2349016D02*
X-1266156Y-2339019D01*
X-1286149D01*
X-1296146Y-2349016D01*
Y-2389003D01*
X-1286149Y-2399000D01*
X-1266156D01*
X-1256159Y-2389003D01*
X-1226169Y-2399000D02*
X-1206175D01*
X-1196178Y-2389003D01*
Y-2369010D01*
X-1206175Y-2359013D01*
X-1226169D01*
X-1236166Y-2369010D01*
Y-2389003D01*
X-1226169Y-2399000D01*
X-1176185Y-2418994D02*
Y-2359013D01*
X-1146195D01*
X-1136198Y-2369010D01*
Y-2389003D01*
X-1146195Y-2399000D01*
X-1176185D01*
X-1116204Y-2418994D02*
Y-2359013D01*
X-1086214D01*
X-1076217Y-2369010D01*
Y-2389003D01*
X-1086214Y-2399000D01*
X-1116204D01*
X-1026234D02*
X-1046227D01*
X-1056224Y-2389003D01*
Y-2369010D01*
X-1046227Y-2359013D01*
X-1026234D01*
X-1016237Y-2369010D01*
Y-2379006D01*
X-1056224D01*
X-996243Y-2359013D02*
Y-2399000D01*
Y-2379006D01*
X-986246Y-2369010D01*
X-976250Y-2359013D01*
X-966253D01*
X-1256159Y-2219019D02*
X-1296146D01*
Y-2249010D01*
X-1276153D01*
X-1296146D01*
Y-2279000D01*
X-1236166D02*
Y-2219019D01*
X-1206175D01*
X-1196178Y-2229016D01*
Y-2249010D01*
X-1206175Y-2259006D01*
X-1236166D01*
X-1216172D02*
X-1196178Y-2279000D01*
X-1176185Y-2249010D02*
X-1136198D01*
X-1086214Y-2279000D02*
Y-2219019D01*
X-1116204Y-2249010D01*
X-1076217D01*
X-1256159Y-2109016D02*
X-1266156Y-2099019D01*
X-1286149D01*
X-1296146Y-2109016D01*
Y-2149003D01*
X-1286149Y-2159000D01*
X-1266156D01*
X-1256159Y-2149003D01*
X-1226169Y-2159000D02*
X-1206175D01*
X-1196178Y-2149003D01*
Y-2129010D01*
X-1206175Y-2119013D01*
X-1226169D01*
X-1236166Y-2129010D01*
Y-2149003D01*
X-1226169Y-2159000D01*
X-1176185Y-2178994D02*
Y-2119013D01*
X-1146195D01*
X-1136198Y-2129010D01*
Y-2149003D01*
X-1146195Y-2159000D01*
X-1176185D01*
X-1116204Y-2178994D02*
Y-2119013D01*
X-1086214D01*
X-1076217Y-2129010D01*
Y-2149003D01*
X-1086214Y-2159000D01*
X-1116204D01*
X-1026234D02*
X-1046227D01*
X-1056224Y-2149003D01*
Y-2129010D01*
X-1046227Y-2119013D01*
X-1026234D01*
X-1016237Y-2129010D01*
Y-2139006D01*
X-1056224D01*
X-996243Y-2119013D02*
Y-2159000D01*
Y-2139006D01*
X-986246Y-2129010D01*
X-976250Y-2119013D01*
X-966253D01*
X-1256159Y-1869016D02*
X-1266156Y-1859019D01*
X-1286149D01*
X-1296146Y-1869016D01*
Y-1909003D01*
X-1286149Y-1919000D01*
X-1266156D01*
X-1256159Y-1909003D01*
X-1226169Y-1919000D02*
X-1206175D01*
X-1196178Y-1909003D01*
Y-1889010D01*
X-1206175Y-1879013D01*
X-1226169D01*
X-1236166Y-1889010D01*
Y-1909003D01*
X-1226169Y-1919000D01*
X-1176185Y-1938994D02*
Y-1879013D01*
X-1146195D01*
X-1136198Y-1889010D01*
Y-1909003D01*
X-1146195Y-1919000D01*
X-1176185D01*
X-1116204Y-1938994D02*
Y-1879013D01*
X-1086214D01*
X-1076217Y-1889010D01*
Y-1909003D01*
X-1086214Y-1919000D01*
X-1116204D01*
X-1026234D02*
X-1046227D01*
X-1056224Y-1909003D01*
Y-1889010D01*
X-1046227Y-1879013D01*
X-1026234D01*
X-1016237Y-1889010D01*
Y-1899006D01*
X-1056224D01*
X-996243Y-1879013D02*
Y-1919000D01*
Y-1899006D01*
X-986246Y-1889010D01*
X-976250Y-1879013D01*
X-966253D01*
X-1256159Y-1739019D02*
X-1296146D01*
Y-1769010D01*
X-1276153D01*
X-1296146D01*
Y-1799000D01*
X-1236166D02*
Y-1739019D01*
X-1206175D01*
X-1196178Y-1749016D01*
Y-1769010D01*
X-1206175Y-1779006D01*
X-1236166D01*
X-1216172D02*
X-1196178Y-1799000D01*
X-1176185Y-1769010D02*
X-1136198D01*
X-1086214Y-1799000D02*
Y-1739019D01*
X-1116204Y-1769010D01*
X-1076217D01*
X-1256159Y-1629016D02*
X-1266156Y-1619019D01*
X-1286149D01*
X-1296146Y-1629016D01*
Y-1669003D01*
X-1286149Y-1679000D01*
X-1266156D01*
X-1256159Y-1669003D01*
X-1226169Y-1679000D02*
X-1206175D01*
X-1196178Y-1669003D01*
Y-1649010D01*
X-1206175Y-1639013D01*
X-1226169D01*
X-1236166Y-1649010D01*
Y-1669003D01*
X-1226169Y-1679000D01*
X-1176185Y-1698994D02*
Y-1639013D01*
X-1146195D01*
X-1136198Y-1649010D01*
Y-1669003D01*
X-1146195Y-1679000D01*
X-1176185D01*
X-1116204Y-1698994D02*
Y-1639013D01*
X-1086214D01*
X-1076217Y-1649010D01*
Y-1669003D01*
X-1086214Y-1679000D01*
X-1116204D01*
X-1026234D02*
X-1046227D01*
X-1056224Y-1669003D01*
Y-1649010D01*
X-1046227Y-1639013D01*
X-1026234D01*
X-1016237Y-1649010D01*
Y-1659006D01*
X-1056224D01*
X-996243Y-1639013D02*
Y-1679000D01*
Y-1659006D01*
X-986246Y-1649010D01*
X-976250Y-1639013D01*
X-966253D01*
X-1256159Y-1509016D02*
X-1266156Y-1499019D01*
X-1286149D01*
X-1296146Y-1509016D01*
Y-1519013D01*
X-1286149Y-1529010D01*
X-1266156D01*
X-1256159Y-1539006D01*
Y-1549003D01*
X-1266156Y-1559000D01*
X-1286149D01*
X-1296146Y-1549003D01*
X-1226169Y-1559000D02*
X-1206175D01*
X-1196178Y-1549003D01*
Y-1529010D01*
X-1206175Y-1519013D01*
X-1226169D01*
X-1236166Y-1529010D01*
Y-1549003D01*
X-1226169Y-1559000D01*
X-1176185D02*
X-1156191D01*
X-1166188D01*
Y-1499019D01*
X-1176185D01*
X-1086214D02*
Y-1559000D01*
X-1116204D01*
X-1126201Y-1549003D01*
Y-1529010D01*
X-1116204Y-1519013D01*
X-1086214D01*
X-1036230Y-1559000D02*
X-1056224D01*
X-1066221Y-1549003D01*
Y-1529010D01*
X-1056224Y-1519013D01*
X-1036230D01*
X-1026234Y-1529010D01*
Y-1539006D01*
X-1066221D01*
X-1006240Y-1519013D02*
Y-1559000D01*
Y-1539006D01*
X-996243Y-1529010D01*
X-986246Y-1519013D01*
X-976250D01*
X-886279Y-1559000D02*
Y-1499019D01*
X-856288D01*
X-846292Y-1509016D01*
Y-1529010D01*
X-856288Y-1539006D01*
X-886279D01*
X-866285D02*
X-846292Y-1559000D01*
X-796308D02*
X-816301D01*
X-826298Y-1549003D01*
Y-1529010D01*
X-816301Y-1519013D01*
X-796308D01*
X-786311Y-1529010D01*
Y-1539006D01*
X-826298D01*
X-766318Y-1559000D02*
X-736327D01*
X-726331Y-1549003D01*
X-736327Y-1539006D01*
X-756321D01*
X-766318Y-1529010D01*
X-756321Y-1519013D01*
X-726331D01*
X-706337Y-1559000D02*
X-686343D01*
X-696340D01*
Y-1519013D01*
X-706337D01*
X-656353Y-1559000D02*
X-626363D01*
X-616366Y-1549003D01*
X-626363Y-1539006D01*
X-646356D01*
X-656353Y-1529010D01*
X-646356Y-1519013D01*
X-616366D01*
X-586376Y-1509016D02*
Y-1519013D01*
X-596373D01*
X-576379D01*
X-586376D01*
Y-1549003D01*
X-576379Y-1559000D01*
X-436379Y-1259019D02*
X-396392D01*
X-416386D01*
Y-1319000D01*
X-376399Y-1259019D02*
Y-1319000D01*
Y-1289010D01*
X-366402Y-1279013D01*
X-346408D01*
X-336411Y-1289010D01*
Y-1319000D01*
X-316418D02*
X-296424D01*
X-306421D01*
Y-1279013D01*
X-316418D01*
X-226447D02*
X-256437D01*
X-266434Y-1289010D01*
Y-1309003D01*
X-256437Y-1319000D01*
X-226447D01*
X-206453D02*
Y-1259019D01*
Y-1299006D02*
X-176463Y-1279013D01*
X-206453Y-1299006D02*
X-176463Y-1319000D01*
X-146473D02*
Y-1279013D01*
X-116483D01*
X-106486Y-1289010D01*
Y-1319000D01*
X-56502D02*
X-76496D01*
X-86492Y-1309003D01*
Y-1289010D01*
X-76496Y-1279013D01*
X-56502D01*
X-46505Y-1289010D01*
Y-1299006D01*
X-86492D01*
X-26512Y-1319000D02*
X3479D01*
X13475Y-1309003D01*
X3479Y-1299006D01*
X-16515D01*
X-26512Y-1289010D01*
X-16515Y-1279013D01*
X13475D01*
X33469Y-1319000D02*
X63459D01*
X73456Y-1309003D01*
X63459Y-1299006D01*
X43466D01*
X33469Y-1289010D01*
X43466Y-1279013D01*
X73456D01*
X-436379Y-2949016D02*
X-426382Y-2939019D01*
X-406389D01*
X-396392Y-2949016D01*
Y-2989003D01*
X-406389Y-2999000D01*
X-426382D01*
X-436379Y-2989003D01*
Y-2949016D01*
X-376399Y-2999000D02*
Y-2989003D01*
X-366402D01*
Y-2999000D01*
X-376399D01*
X-296424D02*
Y-2939019D01*
X-326415Y-2969010D01*
X-286428D01*
X-266434Y-2949016D02*
X-256437Y-2939019D01*
X-236444D01*
X-226447Y-2949016D01*
Y-2989003D01*
X-236444Y-2999000D01*
X-256437D01*
X-266434Y-2989003D01*
Y-2949016D01*
X-206453Y-2999000D02*
Y-2959013D01*
X-196457D01*
X-186460Y-2969010D01*
Y-2999000D01*
Y-2969010D01*
X-176463Y-2959013D01*
X-166466Y-2969010D01*
Y-2999000D01*
X-146473D02*
X-126479D01*
X-136476D01*
Y-2959013D01*
X-146473D01*
X-96489Y-2999000D02*
X-76496D01*
X-86492D01*
Y-2939019D01*
X-96489D01*
X-436379Y-2879000D02*
X-416386D01*
X-426382D01*
Y-2819019D01*
X-436379Y-2829016D01*
X-386395Y-2879000D02*
Y-2869003D01*
X-376399D01*
Y-2879000D01*
X-386395D01*
X-306421D02*
Y-2819019D01*
X-336411Y-2849010D01*
X-296424D01*
X-276431Y-2829016D02*
X-266434Y-2819019D01*
X-246441D01*
X-236444Y-2829016D01*
Y-2869003D01*
X-246441Y-2879000D01*
X-266434D01*
X-276431Y-2869003D01*
Y-2829016D01*
X-216450Y-2879000D02*
Y-2839013D01*
X-206453D01*
X-196457Y-2849010D01*
Y-2879000D01*
Y-2849010D01*
X-186460Y-2839013D01*
X-176463Y-2849010D01*
Y-2879000D01*
X-156470D02*
X-136476D01*
X-146473D01*
Y-2839013D01*
X-156470D01*
X-106486Y-2879000D02*
X-86492D01*
X-96489D01*
Y-2819019D01*
X-106486D01*
X-436379Y-2759000D02*
X-416386D01*
X-426382D01*
Y-2699019D01*
X-436379Y-2709016D01*
X-386395D02*
X-376399Y-2699019D01*
X-356405D01*
X-346408Y-2709016D01*
Y-2749003D01*
X-356405Y-2759000D01*
X-376399D01*
X-386395Y-2749003D01*
Y-2709016D01*
X-326415Y-2759000D02*
Y-2749003D01*
X-316418D01*
Y-2759000D01*
X-326415D01*
X-276431Y-2709016D02*
X-266434Y-2699019D01*
X-246441D01*
X-236444Y-2709016D01*
Y-2749003D01*
X-246441Y-2759000D01*
X-266434D01*
X-276431Y-2749003D01*
Y-2709016D01*
X-216450D02*
X-206453Y-2699019D01*
X-186460D01*
X-176463Y-2709016D01*
Y-2749003D01*
X-186460Y-2759000D01*
X-206453D01*
X-216450Y-2749003D01*
Y-2709016D01*
X-156470Y-2759000D02*
Y-2719013D01*
X-146473D01*
X-136476Y-2729010D01*
Y-2759000D01*
Y-2729010D01*
X-126479Y-2719013D01*
X-116483Y-2729010D01*
Y-2759000D01*
X-96489D02*
X-76496D01*
X-86492D01*
Y-2719013D01*
X-96489D01*
X-46505Y-2759000D02*
X-26512D01*
X-36508D01*
Y-2699019D01*
X-46505D01*
X-436379Y-2639000D02*
X-416386D01*
X-426382D01*
Y-2579019D01*
X-436379Y-2589016D01*
X-386395Y-2639000D02*
Y-2629003D01*
X-376399D01*
Y-2639000D01*
X-386395D01*
X-306421D02*
Y-2579019D01*
X-336411Y-2609010D01*
X-296424D01*
X-236444Y-2639000D02*
X-276431D01*
X-236444Y-2599013D01*
Y-2589016D01*
X-246441Y-2579019D01*
X-266434D01*
X-276431Y-2589016D01*
X-216450Y-2639000D02*
Y-2599013D01*
X-206453D01*
X-196457Y-2609010D01*
Y-2639000D01*
Y-2609010D01*
X-186460Y-2599013D01*
X-176463Y-2609010D01*
Y-2639000D01*
X-156470D02*
X-136476D01*
X-146473D01*
Y-2599013D01*
X-156470D01*
X-106486Y-2639000D02*
X-86492D01*
X-96489D01*
Y-2579019D01*
X-106486D01*
X-396392Y-2459019D02*
X-436379D01*
Y-2489010D01*
X-416386Y-2479013D01*
X-406389D01*
X-396392Y-2489010D01*
Y-2509003D01*
X-406389Y-2519000D01*
X-426382D01*
X-436379Y-2509003D01*
X-376399Y-2519000D02*
Y-2509003D01*
X-366402D01*
Y-2519000D01*
X-376399D01*
X-326415Y-2469016D02*
X-316418Y-2459019D01*
X-296424D01*
X-286428Y-2469016D01*
Y-2509003D01*
X-296424Y-2519000D01*
X-316418D01*
X-326415Y-2509003D01*
Y-2469016D01*
X-266434D02*
X-256437Y-2459019D01*
X-236444D01*
X-226447Y-2469016D01*
Y-2509003D01*
X-236444Y-2519000D01*
X-256437D01*
X-266434Y-2509003D01*
Y-2469016D01*
X-206453Y-2519000D02*
Y-2479013D01*
X-196457D01*
X-186460Y-2489010D01*
Y-2519000D01*
Y-2489010D01*
X-176463Y-2479013D01*
X-166466Y-2489010D01*
Y-2519000D01*
X-146473D02*
X-126479D01*
X-136476D01*
Y-2479013D01*
X-146473D01*
X-96489Y-2519000D02*
X-76496D01*
X-86492D01*
Y-2459019D01*
X-96489D01*
X-436379Y-2399000D02*
X-416386D01*
X-426382D01*
Y-2339019D01*
X-436379Y-2349016D01*
X-386395Y-2399000D02*
Y-2389003D01*
X-376399D01*
Y-2399000D01*
X-386395D01*
X-306421D02*
Y-2339019D01*
X-336411Y-2369010D01*
X-296424D01*
X-276431Y-2349016D02*
X-266434Y-2339019D01*
X-246441D01*
X-236444Y-2349016D01*
Y-2389003D01*
X-246441Y-2399000D01*
X-266434D01*
X-276431Y-2389003D01*
Y-2349016D01*
X-216450Y-2399000D02*
Y-2359013D01*
X-206453D01*
X-196457Y-2369010D01*
Y-2399000D01*
Y-2369010D01*
X-186460Y-2359013D01*
X-176463Y-2369010D01*
Y-2399000D01*
X-156470D02*
X-136476D01*
X-146473D01*
Y-2359013D01*
X-156470D01*
X-106486Y-2399000D02*
X-86492D01*
X-96489D01*
Y-2339019D01*
X-106486D01*
X-436379Y-2279000D02*
X-416386D01*
X-426382D01*
Y-2219019D01*
X-436379Y-2229016D01*
X-386395D02*
X-376399Y-2219019D01*
X-356405D01*
X-346408Y-2229016D01*
Y-2269003D01*
X-356405Y-2279000D01*
X-376399D01*
X-386395Y-2269003D01*
Y-2229016D01*
X-326415Y-2279000D02*
Y-2269003D01*
X-316418D01*
Y-2279000D01*
X-326415D01*
X-276431Y-2229016D02*
X-266434Y-2219019D01*
X-246441D01*
X-236444Y-2229016D01*
Y-2269003D01*
X-246441Y-2279000D01*
X-266434D01*
X-276431Y-2269003D01*
Y-2229016D01*
X-216450D02*
X-206453Y-2219019D01*
X-186460D01*
X-176463Y-2229016D01*
Y-2269003D01*
X-186460Y-2279000D01*
X-206453D01*
X-216450Y-2269003D01*
Y-2229016D01*
X-156470Y-2279000D02*
Y-2239013D01*
X-146473D01*
X-136476Y-2249010D01*
Y-2279000D01*
Y-2249010D01*
X-126479Y-2239013D01*
X-116483Y-2249010D01*
Y-2279000D01*
X-96489D02*
X-76496D01*
X-86492D01*
Y-2239013D01*
X-96489D01*
X-46505Y-2279000D02*
X-26512D01*
X-36508D01*
Y-2219019D01*
X-46505D01*
X-436379Y-2159000D02*
X-416386D01*
X-426382D01*
Y-2099019D01*
X-436379Y-2109016D01*
X-386395Y-2159000D02*
Y-2149003D01*
X-376399D01*
Y-2159000D01*
X-386395D01*
X-306421D02*
Y-2099019D01*
X-336411Y-2129010D01*
X-296424D01*
X-276431Y-2109016D02*
X-266434Y-2099019D01*
X-246441D01*
X-236444Y-2109016D01*
Y-2149003D01*
X-246441Y-2159000D01*
X-266434D01*
X-276431Y-2149003D01*
Y-2109016D01*
X-216450Y-2159000D02*
Y-2119013D01*
X-206453D01*
X-196457Y-2129010D01*
Y-2159000D01*
Y-2129010D01*
X-186460Y-2119013D01*
X-176463Y-2129010D01*
Y-2159000D01*
X-156470D02*
X-136476D01*
X-146473D01*
Y-2119013D01*
X-156470D01*
X-106486Y-2159000D02*
X-86492D01*
X-96489D01*
Y-2099019D01*
X-106486D01*
X-396392Y-1979019D02*
X-436379D01*
Y-2009010D01*
X-416386Y-1999013D01*
X-406389D01*
X-396392Y-2009010D01*
Y-2029003D01*
X-406389Y-2039000D01*
X-426382D01*
X-436379Y-2029003D01*
X-376399Y-2039000D02*
Y-2029003D01*
X-366402D01*
Y-2039000D01*
X-376399D01*
X-326415Y-1989016D02*
X-316418Y-1979019D01*
X-296424D01*
X-286428Y-1989016D01*
Y-2029003D01*
X-296424Y-2039000D01*
X-316418D01*
X-326415Y-2029003D01*
Y-1989016D01*
X-266434D02*
X-256437Y-1979019D01*
X-236444D01*
X-226447Y-1989016D01*
Y-2029003D01*
X-236444Y-2039000D01*
X-256437D01*
X-266434Y-2029003D01*
Y-1989016D01*
X-206453Y-2039000D02*
Y-1999013D01*
X-196457D01*
X-186460Y-2009010D01*
Y-2039000D01*
Y-2009010D01*
X-176463Y-1999013D01*
X-166466Y-2009010D01*
Y-2039000D01*
X-146473D02*
X-126479D01*
X-136476D01*
Y-1999013D01*
X-146473D01*
X-96489Y-2039000D02*
X-76496D01*
X-86492D01*
Y-1979019D01*
X-96489D01*
X-436379Y-1919000D02*
X-416386D01*
X-426382D01*
Y-1859019D01*
X-436379Y-1869016D01*
X-386395Y-1919000D02*
Y-1909003D01*
X-376399D01*
Y-1919000D01*
X-386395D01*
X-306421D02*
Y-1859019D01*
X-336411Y-1889010D01*
X-296424D01*
X-236444Y-1919000D02*
X-276431D01*
X-236444Y-1879013D01*
Y-1869016D01*
X-246441Y-1859019D01*
X-266434D01*
X-276431Y-1869016D01*
X-216450Y-1919000D02*
Y-1879013D01*
X-206453D01*
X-196457Y-1889010D01*
Y-1919000D01*
Y-1889010D01*
X-186460Y-1879013D01*
X-176463Y-1889010D01*
Y-1919000D01*
X-156470D02*
X-136476D01*
X-146473D01*
Y-1879013D01*
X-156470D01*
X-106486Y-1919000D02*
X-86492D01*
X-96489D01*
Y-1859019D01*
X-106486D01*
X-436379Y-1799000D02*
X-416386D01*
X-426382D01*
Y-1739019D01*
X-436379Y-1749016D01*
X-346408Y-1739019D02*
X-366402Y-1749016D01*
X-386395Y-1769010D01*
Y-1789003D01*
X-376399Y-1799000D01*
X-356405D01*
X-346408Y-1789003D01*
Y-1779006D01*
X-356405Y-1769010D01*
X-386395D01*
X-326415Y-1799000D02*
Y-1789003D01*
X-316418D01*
Y-1799000D01*
X-326415D01*
X-236444Y-1739019D02*
X-276431D01*
Y-1769010D01*
X-256437Y-1759013D01*
X-246441D01*
X-236444Y-1769010D01*
Y-1789003D01*
X-246441Y-1799000D01*
X-266434D01*
X-276431Y-1789003D01*
X-186460Y-1799000D02*
Y-1739019D01*
X-216450Y-1769010D01*
X-176463D01*
X-156470Y-1799000D02*
Y-1759013D01*
X-146473D01*
X-136476Y-1769010D01*
Y-1799000D01*
Y-1769010D01*
X-126479Y-1759013D01*
X-116483Y-1769010D01*
Y-1799000D01*
X-96489D02*
X-76496D01*
X-86492D01*
Y-1759013D01*
X-96489D01*
X-46505Y-1799000D02*
X-26512D01*
X-36508D01*
Y-1739019D01*
X-46505D01*
X-436379Y-1679000D02*
X-416386D01*
X-426382D01*
Y-1619019D01*
X-436379Y-1629016D01*
X-386395Y-1679000D02*
Y-1669003D01*
X-376399D01*
Y-1679000D01*
X-386395D01*
X-306421D02*
Y-1619019D01*
X-336411Y-1649010D01*
X-296424D01*
X-276431Y-1629016D02*
X-266434Y-1619019D01*
X-246441D01*
X-236444Y-1629016D01*
Y-1669003D01*
X-246441Y-1679000D01*
X-266434D01*
X-276431Y-1669003D01*
Y-1629016D01*
X-216450Y-1679000D02*
Y-1639013D01*
X-206453D01*
X-196457Y-1649010D01*
Y-1679000D01*
Y-1649010D01*
X-186460Y-1639013D01*
X-176463Y-1649010D01*
Y-1679000D01*
X-156470D02*
X-136476D01*
X-146473D01*
Y-1639013D01*
X-156470D01*
X-106486Y-1679000D02*
X-86492D01*
X-96489D01*
Y-1619019D01*
X-106486D01*
X-436379Y-1509016D02*
X-426382Y-1499019D01*
X-406389D01*
X-396392Y-1509016D01*
Y-1549003D01*
X-406389Y-1559000D01*
X-426382D01*
X-436379Y-1549003D01*
Y-1509016D01*
X-376399Y-1559000D02*
Y-1549003D01*
X-366402D01*
Y-1559000D01*
X-376399D01*
X-296424D02*
Y-1499019D01*
X-326415Y-1529010D01*
X-286428D01*
X-266434Y-1509016D02*
X-256437Y-1499019D01*
X-236444D01*
X-226447Y-1509016D01*
Y-1549003D01*
X-236444Y-1559000D01*
X-256437D01*
X-266434Y-1549003D01*
Y-1509016D01*
X-206453Y-1559000D02*
Y-1519013D01*
X-196457D01*
X-186460Y-1529010D01*
Y-1559000D01*
Y-1529010D01*
X-176463Y-1519013D01*
X-166466Y-1529010D01*
Y-1559000D01*
X-146473D02*
X-126479D01*
X-136476D01*
Y-1519013D01*
X-146473D01*
X-96489Y-1559000D02*
X-76496D01*
X-86492D01*
Y-1499019D01*
X-96489D01*
X253443Y-1269016D02*
X243446Y-1259019D01*
X223453D01*
X213456Y-1269016D01*
Y-1309003D01*
X223453Y-1319000D01*
X243446D01*
X253443Y-1309003D01*
X283433Y-1319000D02*
X303427D01*
X313424Y-1309003D01*
Y-1289010D01*
X303427Y-1279013D01*
X283433D01*
X273437Y-1289010D01*
Y-1309003D01*
X283433Y-1319000D01*
X333417D02*
Y-1279013D01*
X363408D01*
X373404Y-1289010D01*
Y-1319000D01*
X393398D02*
X423388D01*
X433385Y-1309003D01*
X423388Y-1299006D01*
X403395D01*
X393398Y-1289010D01*
X403395Y-1279013D01*
X433385D01*
X463375Y-1269016D02*
Y-1279013D01*
X453378D01*
X473372D01*
X463375D01*
Y-1309003D01*
X473372Y-1319000D01*
X513359Y-1279013D02*
X533352D01*
X543349Y-1289010D01*
Y-1319000D01*
X513359D01*
X503362Y-1309003D01*
X513359Y-1299006D01*
X543349D01*
X563343Y-1319000D02*
Y-1279013D01*
X593333D01*
X603330Y-1289010D01*
Y-1319000D01*
X633320Y-1269016D02*
Y-1279013D01*
X623323D01*
X643317D01*
X633320D01*
Y-1309003D01*
X643317Y-1319000D01*
X213456Y-2949016D02*
X223453Y-2939019D01*
X243446D01*
X253443Y-2949016D01*
Y-2959013D01*
X243446Y-2969010D01*
X233450D01*
X243446D01*
X253443Y-2979006D01*
Y-2989003D01*
X243446Y-2999000D01*
X223453D01*
X213456Y-2989003D01*
X273437Y-2999000D02*
Y-2989003D01*
X283433D01*
Y-2999000D01*
X273437D01*
X363408Y-2939019D02*
X323420D01*
Y-2969010D01*
X343414Y-2959013D01*
X353411D01*
X363408Y-2969010D01*
Y-2989003D01*
X353411Y-2999000D01*
X333417D01*
X323420Y-2989003D01*
X243446Y-2759000D02*
Y-2699019D01*
X213456Y-2729010D01*
X253443D01*
X273437Y-2759000D02*
Y-2749003D01*
X283433D01*
Y-2759000D01*
X273437D01*
X363408D02*
X323420D01*
X363408Y-2719013D01*
Y-2709016D01*
X353411Y-2699019D01*
X333417D01*
X323420Y-2709016D01*
X243446Y-2519000D02*
Y-2459019D01*
X213456Y-2489010D01*
X253443D01*
X273437Y-2519000D02*
Y-2509003D01*
X283433D01*
Y-2519000D01*
X273437D01*
X363408D02*
X323420D01*
X363408Y-2479013D01*
Y-2469016D01*
X353411Y-2459019D01*
X333417D01*
X323420Y-2469016D01*
X243446Y-2279000D02*
Y-2219019D01*
X213456Y-2249010D01*
X253443D01*
X273437Y-2279000D02*
Y-2269003D01*
X283433D01*
Y-2279000D01*
X273437D01*
X363408D02*
X323420D01*
X363408Y-2239013D01*
Y-2229016D01*
X353411Y-2219019D01*
X333417D01*
X323420Y-2229016D01*
X243446Y-2039000D02*
Y-1979019D01*
X213456Y-2009010D01*
X253443D01*
X273437Y-2039000D02*
Y-2029003D01*
X283433D01*
Y-2039000D01*
X273437D01*
X363408D02*
X323420D01*
X363408Y-1999013D01*
Y-1989016D01*
X353411Y-1979019D01*
X333417D01*
X323420Y-1989016D01*
X243446Y-1799000D02*
Y-1739019D01*
X213456Y-1769010D01*
X253443D01*
X273437Y-1799000D02*
Y-1789003D01*
X283433D01*
Y-1799000D01*
X273437D01*
X323420Y-1749016D02*
X333417Y-1739019D01*
X353411D01*
X363408Y-1749016D01*
Y-1759013D01*
X353411Y-1769010D01*
X363408Y-1779006D01*
Y-1789003D01*
X353411Y-1799000D01*
X333417D01*
X323420Y-1789003D01*
Y-1779006D01*
X333417Y-1769010D01*
X323420Y-1759013D01*
Y-1749016D01*
X333417Y-1769010D02*
X353411D01*
X213456Y-1509016D02*
X223453Y-1499019D01*
X243446D01*
X253443Y-1509016D01*
Y-1519013D01*
X243446Y-1529010D01*
X233450D01*
X243446D01*
X253443Y-1539006D01*
Y-1549003D01*
X243446Y-1559000D01*
X223453D01*
X213456Y-1549003D01*
X273437Y-1559000D02*
Y-1549003D01*
X283433D01*
Y-1559000D01*
X273437D01*
X363408Y-1499019D02*
X323420D01*
Y-1529010D01*
X343414Y-1519013D01*
X353411D01*
X363408Y-1529010D01*
Y-1549003D01*
X353411Y-1559000D01*
X333417D01*
X323420Y-1549003D01*
X783317Y-1259019D02*
Y-1319000D01*
X813307D01*
X823304Y-1309003D01*
Y-1299006D01*
X813307Y-1289010D01*
X783317D01*
X813307D01*
X823304Y-1279013D01*
Y-1269016D01*
X813307Y-1259019D01*
X783317D01*
X853294Y-1319000D02*
X873288D01*
X883285Y-1309003D01*
Y-1289010D01*
X873288Y-1279013D01*
X853294D01*
X843298Y-1289010D01*
Y-1309003D01*
X853294Y-1319000D01*
X913275Y-1279013D02*
X933268D01*
X943265Y-1289010D01*
Y-1319000D01*
X913275D01*
X903278Y-1309003D01*
X913275Y-1299006D01*
X943265D01*
X963259Y-1279013D02*
Y-1319000D01*
Y-1299006D01*
X973255Y-1289010D01*
X983252Y-1279013D01*
X993249D01*
X1063226Y-1259019D02*
Y-1319000D01*
X1033236D01*
X1023239Y-1309003D01*
Y-1289010D01*
X1033236Y-1279013D01*
X1063226D01*
X1143200Y-1259019D02*
Y-1319000D01*
X1183188D01*
X1213178Y-1279013D02*
X1233171D01*
X1243168Y-1289010D01*
Y-1319000D01*
X1213178D01*
X1203181Y-1309003D01*
X1213178Y-1299006D01*
X1243168D01*
X1263162Y-1279013D02*
Y-1309003D01*
X1273159Y-1319000D01*
X1303149D01*
Y-1328997D01*
X1293152Y-1338994D01*
X1283155D01*
X1303149Y-1319000D02*
Y-1279013D01*
X1353133Y-1319000D02*
X1333139D01*
X1323142Y-1309003D01*
Y-1289010D01*
X1333139Y-1279013D01*
X1353133D01*
X1363129Y-1289010D01*
Y-1299006D01*
X1323142D01*
X1383123Y-1279013D02*
Y-1319000D01*
Y-1299006D01*
X1393120Y-1289010D01*
X1403116Y-1279013D01*
X1413113D01*
X1543071Y-1269016D02*
X1533074Y-1259019D01*
X1513081D01*
X1503084Y-1269016D01*
Y-1279013D01*
X1513081Y-1289010D01*
X1533074D01*
X1543071Y-1299006D01*
Y-1309003D01*
X1533074Y-1319000D01*
X1513081D01*
X1503084Y-1309003D01*
X1573062Y-1269016D02*
Y-1279013D01*
X1563065D01*
X1583058D01*
X1573062D01*
Y-1309003D01*
X1583058Y-1319000D01*
X1623045Y-1279013D02*
X1643039D01*
X1653036Y-1289010D01*
Y-1319000D01*
X1623045D01*
X1613049Y-1309003D01*
X1623045Y-1299006D01*
X1653036D01*
X1713016Y-1279013D02*
X1683026D01*
X1673029Y-1289010D01*
Y-1309003D01*
X1683026Y-1319000D01*
X1713016D01*
X1733010D02*
Y-1259019D01*
Y-1299006D02*
X1763000Y-1279013D01*
X1733010Y-1299006D02*
X1763000Y-1319000D01*
D79*
X7209774Y5099302D02*
Y5788278D01*
X7595600Y5099302D02*
Y5788278D01*
X7838277Y-4937007D02*
Y-4669289D01*
X9385521Y-4933069D02*
Y-4669289D01*
X9888514Y5095366D02*
Y5788278D01*
X10575916Y5099302D02*
Y5788278D01*
X4854025Y-4933069D02*
Y-3047243D01*
X6073711Y-4937007D02*
Y-3732281D01*
X6820010Y5095366D02*
Y5967372D01*
X6846151Y-4933069D02*
Y-3047243D01*
X7243789Y-4669289D02*
Y-4346455D01*
X8440639Y-4665353D02*
Y-4346455D01*
X10684733Y-4665353D02*
Y-4346455D01*
X-4382117Y-4936368D02*
Y5969144D01*
X11208434Y-4936368D02*
Y5969144D01*
X4854025Y-4039369D02*
X6846151D01*
X4854025Y-4641731D02*
X6846151D01*
X4854025Y-3440943D02*
X6846151D01*
Y-4669281D02*
X11207569D01*
X4854025Y-4346445D02*
X11207569D01*
X4854025Y-3732273D02*
X11207569D01*
X4854025Y-3047233D02*
X11207569D01*
X6820010Y5095366D02*
X11200442D01*
X6823946Y5268594D02*
X11200442D01*
X6820010Y5586310D02*
X11204379Y5586309D01*
X6820010Y5783160D02*
X11208316D01*
X6820010Y5441822D02*
X11204379D01*
X-4382117Y-4936368D02*
X11208434D01*
X-4382117Y5969144D02*
X11208434D01*
X7353165Y5351773D02*
Y5354772D01*
X7356164Y5360770D01*
X7359163Y5363769D01*
X7365161Y5366768D01*
X7377157D01*
X7383155Y5363769D01*
X7386154Y5360770D01*
X7389153Y5354772D01*
Y5348774D01*
X7386154Y5342776D01*
X7380156Y5333779D01*
X7350166Y5303790D01*
X7392152D01*
X7454231D02*
X7430239Y5366768D01*
X7406247Y5303790D01*
X7415244Y5324783D02*
X7445234D01*
X7350166Y5528001D02*
X7356164Y5531000D01*
X7365161Y5539997D01*
Y5477018D01*
X7444334D02*
X7420342Y5539997D01*
X7396350Y5477018D01*
X7405347Y5498011D02*
X7435337D01*
X8361977Y-4767096D02*
X8401334D01*
X8381655D01*
Y-4826132D01*
X8421013Y-4767096D02*
X8440691D01*
X8430852D01*
Y-4826132D01*
X8421013D01*
X8440691D01*
X8470209D02*
Y-4767096D01*
X8509567Y-4826132D01*
Y-4767096D01*
X8529245D02*
Y-4776935D01*
X8548924Y-4796614D01*
X8568603Y-4776935D01*
Y-4767096D01*
X8548924Y-4796614D02*
Y-4826132D01*
X8588281D02*
Y-4767096D01*
X8607960Y-4786774D01*
X8627639Y-4767096D01*
Y-4826132D01*
X8676835Y-4767096D02*
X8657157D01*
X8647317Y-4776935D01*
Y-4816292D01*
X8657157Y-4826132D01*
X8676835D01*
X8686675Y-4816292D01*
Y-4776935D01*
X8676835Y-4767096D01*
X8706353D02*
Y-4826132D01*
X8735871D01*
X8745711Y-4816292D01*
Y-4776935D01*
X8735871Y-4767096D01*
X8706353D01*
X8765389D02*
Y-4816292D01*
X8775229Y-4826132D01*
X8794907D01*
X8804747Y-4816292D01*
Y-4767096D01*
X8824425D02*
Y-4826132D01*
X8863783D01*
X8922819Y-4767096D02*
X8883461D01*
Y-4826132D01*
X8922819D01*
X8883461Y-4796614D02*
X8903140D01*
X8942497D02*
X8981855D01*
X9040891Y-4826132D02*
X9001533D01*
X9040891Y-4786774D01*
Y-4776935D01*
X9031051Y-4767096D01*
X9011373D01*
X9001533Y-4776935D01*
X9060569Y-4826132D02*
Y-4786774D01*
X9080248Y-4767096D01*
X9099927Y-4786774D01*
Y-4826132D01*
Y-4796614D01*
X9060569D01*
X7915114Y-4776935D02*
X7905275Y-4767096D01*
X7885596D01*
X7875757Y-4776935D01*
Y-4816292D01*
X7885596Y-4826132D01*
X7905275D01*
X7915114Y-4816292D01*
X7934793Y-4826132D02*
Y-4786774D01*
X7954471Y-4767096D01*
X7974150Y-4786774D01*
Y-4826132D01*
Y-4796614D01*
X7934793D01*
X7993829Y-4767096D02*
Y-4826132D01*
X8023347D01*
X8033186Y-4816292D01*
Y-4776935D01*
X8023347Y-4767096D01*
X7993829D01*
X8052865Y-4786774D02*
X8062704D01*
Y-4796614D01*
X8052865D01*
Y-4786774D01*
Y-4816292D02*
X8062704D01*
Y-4826132D01*
X8052865D01*
Y-4816292D01*
X10775363Y5366768D02*
X10817349Y5303790D01*
Y5366768D02*
X10775363Y5303790D01*
X10831444Y5366768D02*
X10873430Y5303790D01*
Y5366768D02*
X10831444Y5303790D01*
X10887525Y5366768D02*
X10929511Y5303790D01*
Y5366768D02*
X10887525Y5303790D01*
X10775363Y5539997D02*
X10817349Y5477018D01*
Y5539997D02*
X10775363Y5477018D01*
X10831444Y5539997D02*
X10873430Y5477018D01*
Y5539997D02*
X10831444Y5477018D01*
X10887525Y5539997D02*
X10929511Y5477018D01*
Y5539997D02*
X10887525Y5477018D01*
X7105703Y-3372511D02*
X7069996D01*
X7066425Y-3404647D01*
X7069996Y-3401077D01*
X7080708Y-3397506D01*
X7091420D01*
X7102132Y-3401077D01*
X7109273Y-3408218D01*
X7112844Y-3418930D01*
Y-3426071D01*
X7109273Y-3436783D01*
X7102132Y-3443924D01*
X7091420Y-3447495D01*
X7080708D01*
X7069996Y-3443924D01*
X7066425Y-3440354D01*
X7062855Y-3433212D01*
X7172474Y-3383223D02*
X7168903Y-3376082D01*
X7158191Y-3372511D01*
X7151050D01*
X7140338Y-3376082D01*
X7133197Y-3386794D01*
X7129626Y-3404647D01*
Y-3422501D01*
X7133197Y-3436783D01*
X7140338Y-3443924D01*
X7151050Y-3447495D01*
X7154621D01*
X7165333Y-3443924D01*
X7172474Y-3436783D01*
X7176045Y-3426071D01*
Y-3422501D01*
X7172474Y-3411789D01*
X7165333Y-3404647D01*
X7154621Y-3401077D01*
X7151050D01*
X7140338Y-3404647D01*
X7133197Y-3411789D01*
X7129626Y-3422501D01*
X7196041Y-3390365D02*
Y-3386794D01*
X7199611Y-3379653D01*
X7203182Y-3376082D01*
X7210323Y-3372511D01*
X7224606D01*
X7231747Y-3376082D01*
X7235318Y-3379653D01*
X7238888Y-3386794D01*
Y-3393935D01*
X7235318Y-3401077D01*
X7228176Y-3411789D01*
X7192470Y-3447495D01*
X7242459D01*
X7259241Y-3386794D02*
X7266382Y-3383223D01*
X7277095Y-3372511D01*
Y-3447495D01*
X7373145Y-3411789D02*
X7405281D01*
X7415993Y-3408218D01*
X7419564Y-3404647D01*
X7423135Y-3397506D01*
Y-3386794D01*
X7419564Y-3379653D01*
X7415993Y-3376082D01*
X7405281Y-3372511D01*
X7373145D01*
Y-3447495D01*
X7482765Y-3397506D02*
Y-3447495D01*
Y-3408218D02*
X7475623Y-3401077D01*
X7468482Y-3397506D01*
X7457770D01*
X7450629Y-3401077D01*
X7443487Y-3408218D01*
X7439917Y-3418930D01*
Y-3426071D01*
X7443487Y-3436783D01*
X7450629Y-3443924D01*
X7457770Y-3447495D01*
X7468482D01*
X7475623Y-3443924D01*
X7482765Y-3436783D01*
X7502760Y-3372511D02*
Y-3447495D01*
X7518471Y-3397506D02*
Y-3447495D01*
Y-3411789D02*
X7529183Y-3401077D01*
X7536325Y-3397506D01*
X7547037D01*
X7554178Y-3401077D01*
X7557749Y-3411789D01*
Y-3447495D01*
Y-3411789D02*
X7568461Y-3401077D01*
X7575602Y-3397506D01*
X7586314D01*
X7593455Y-3401077D01*
X7597026Y-3411789D01*
Y-3447495D01*
X7620592Y-3418930D02*
X7663440D01*
Y-3411789D01*
X7659870Y-3404647D01*
X7656299Y-3401077D01*
X7649158Y-3397506D01*
X7638446D01*
X7631304Y-3401077D01*
X7624163Y-3408218D01*
X7620592Y-3418930D01*
Y-3426071D01*
X7624163Y-3436783D01*
X7631304Y-3443924D01*
X7638446Y-3447495D01*
X7649158D01*
X7656299Y-3443924D01*
X7663440Y-3436783D01*
X7679508Y-3397506D02*
Y-3447495D01*
Y-3418930D02*
X7683079Y-3408218D01*
X7690220Y-3401077D01*
X7697361Y-3397506D01*
X7708074D01*
X7773774Y-3372511D02*
X7791627Y-3447495D01*
X7809480Y-3372511D02*
X7791627Y-3447495D01*
X7809480Y-3372511D02*
X7827334Y-3447495D01*
X7845187Y-3372511D02*
X7827334Y-3447495D01*
X7903032Y-3397506D02*
Y-3447495D01*
Y-3408218D02*
X7895890Y-3401077D01*
X7888749Y-3397506D01*
X7878037D01*
X7870896Y-3401077D01*
X7863755Y-3408218D01*
X7860184Y-3418930D01*
Y-3426071D01*
X7863755Y-3436783D01*
X7870896Y-3443924D01*
X7878037Y-3447495D01*
X7888749D01*
X7895890Y-3443924D01*
X7903032Y-3436783D01*
X7926598Y-3397506D02*
X7948022Y-3447495D01*
X7969446Y-3397506D02*
X7948022Y-3447495D01*
X7940881Y-3461778D01*
X7933739Y-3468919D01*
X7926598Y-3472490D01*
X7923028D01*
X7989085Y-3443924D02*
X7985514Y-3447495D01*
X7981943Y-3443924D01*
X7985514Y-3440354D01*
X7989085Y-3443924D01*
Y-3451066D01*
X7985514Y-3458207D01*
X7981943Y-3461778D01*
X8114415Y-3383223D02*
X8107274Y-3376082D01*
X8096562Y-3372511D01*
X8082279D01*
X8071567Y-3376082D01*
X8064426Y-3383223D01*
Y-3390365D01*
X8067996Y-3397506D01*
X8071567Y-3401077D01*
X8078708Y-3404647D01*
X8100132Y-3411789D01*
X8107274Y-3415359D01*
X8110844Y-3418930D01*
X8114415Y-3426071D01*
Y-3436783D01*
X8107274Y-3443924D01*
X8096562Y-3447495D01*
X8082279D01*
X8071567Y-3443924D01*
X8064426Y-3436783D01*
X8131197Y-3397506D02*
Y-3433212D01*
X8134768Y-3443924D01*
X8141909Y-3447495D01*
X8152621D01*
X8159762Y-3443924D01*
X8170474Y-3433212D01*
Y-3397506D02*
Y-3447495D01*
X8197254Y-3372511D02*
X8200825Y-3376082D01*
X8204396Y-3372511D01*
X8200825Y-3368941D01*
X8197254Y-3372511D01*
X8200825Y-3397506D02*
Y-3447495D01*
X8228319Y-3372511D02*
Y-3433212D01*
X8231890Y-3443924D01*
X8239031Y-3447495D01*
X8246172D01*
X8217607Y-3397506D02*
X8242602D01*
X8256884Y-3418930D02*
X8299732D01*
Y-3411789D01*
X8296162Y-3404647D01*
X8292591Y-3401077D01*
X8285450Y-3397506D01*
X8274738D01*
X8267596Y-3401077D01*
X8260455Y-3408218D01*
X8256884Y-3418930D01*
Y-3426071D01*
X8260455Y-3436783D01*
X8267596Y-3443924D01*
X8274738Y-3447495D01*
X8285450D01*
X8292591Y-3443924D01*
X8299732Y-3436783D01*
X8431847Y-3447495D02*
X8403281Y-3372511D01*
X8374716Y-3447495D01*
X8385428Y-3422501D02*
X8421135D01*
X7665127Y5366768D02*
Y5321784D01*
X7668126Y5312787D01*
X7674124Y5306789D01*
X7683121Y5303790D01*
X7689119D01*
X7698116Y5306789D01*
X7704114Y5312787D01*
X7707113Y5321784D01*
Y5366768D01*
X7724507Y5333780D02*
X7751498D01*
X7760494Y5336779D01*
X7763493Y5339778D01*
X7766493Y5345775D01*
Y5354773D01*
X7763493Y5360770D01*
X7760494Y5363769D01*
X7751498Y5366768D01*
X7724507D01*
Y5303790D01*
X7780588Y5366768D02*
Y5303790D01*
Y5366768D02*
X7801581D01*
X7810578Y5363769D01*
X7816575Y5357771D01*
X7819574Y5351774D01*
X7822574Y5342776D01*
Y5327782D01*
X7819574Y5318785D01*
X7816575Y5312787D01*
X7810578Y5306789D01*
X7801581Y5303790D01*
X7780588D01*
X7884653D02*
X7860661Y5366768D01*
X7836669Y5303790D01*
X7845666Y5324783D02*
X7875655D01*
X7920340Y5366768D02*
Y5303790D01*
X7899347Y5366768D02*
X7941333D01*
X7987818D02*
X7948831D01*
Y5303790D01*
X7987818D01*
X7948831Y5336779D02*
X7972823D01*
X7665127Y5539997D02*
Y5477018D01*
X7678322Y5539997D02*
Y5477018D01*
Y5539997D02*
X7720308Y5477018D01*
Y5539997D02*
Y5477018D01*
X7737702Y5539997D02*
Y5477018D01*
X7771891Y5539997D02*
Y5477018D01*
X7750898Y5539997D02*
X7792883D01*
X7800381D02*
Y5477018D01*
X7861560D02*
X7837568Y5539997D01*
X7813577Y5477018D01*
X7822574Y5498011D02*
X7852563D01*
X7876255Y5539997D02*
Y5477018D01*
X7912243D01*
X9928999Y5376611D02*
X9961988D01*
X9943994Y5352619D01*
X9952991D01*
X9958989Y5349620D01*
X9961988Y5346621D01*
X9964987Y5337624D01*
Y5331626D01*
X9961988Y5322629D01*
X9955990Y5316631D01*
X9946993Y5313632D01*
X9937996D01*
X9928999Y5316631D01*
X9926000Y5319630D01*
X9923001Y5325628D01*
X9979082Y5364615D02*
X9985080Y5367614D01*
X9994077Y5376611D01*
Y5313632D01*
X10025266Y5340623D02*
X10079248D01*
X10097841Y5376611D02*
Y5313632D01*
Y5376611D02*
X10121833Y5313632D01*
X10145825Y5376611D02*
X10121833Y5313632D01*
X10145825Y5376611D02*
Y5313632D01*
X10211803D02*
X10187811Y5376611D01*
X10163819Y5313632D01*
X10172816Y5334625D02*
X10202806D01*
X10226498Y5376611D02*
X10250489Y5346621D01*
Y5313632D01*
X10274481Y5376611D02*
X10250489Y5346621D01*
X10282579Y5340623D02*
X10336560D01*
X10358153Y5361616D02*
Y5364615D01*
X10361152Y5370613D01*
X10364151Y5373612D01*
X10370149Y5376611D01*
X10382145D01*
X10388143Y5373612D01*
X10391142Y5370613D01*
X10394141Y5364615D01*
Y5358617D01*
X10391142Y5352619D01*
X10385144Y5343622D01*
X10355154Y5313632D01*
X10397140D01*
X10429229Y5376611D02*
X10420232Y5373612D01*
X10414234Y5364615D01*
X10411235Y5349620D01*
Y5340623D01*
X10414234Y5325628D01*
X10420232Y5316631D01*
X10429229Y5313632D01*
X10435227D01*
X10444224Y5316631D01*
X10450222Y5325628D01*
X10453220Y5340623D01*
Y5349620D01*
X10450222Y5364615D01*
X10444224Y5373612D01*
X10435227Y5376611D01*
X10429229D01*
X10467316Y5364615D02*
X10473314Y5367614D01*
X10482311Y5376611D01*
Y5313632D01*
X10552487Y5355618D02*
X10549488Y5346621D01*
X10543490Y5340623D01*
X10534493Y5337624D01*
X10531494D01*
X10522497Y5340623D01*
X10516499Y5346621D01*
X10513500Y5355618D01*
Y5358617D01*
X10516499Y5367614D01*
X10522497Y5373612D01*
X10531494Y5376611D01*
X10534493D01*
X10543490Y5373612D01*
X10549488Y5367614D01*
X10552487Y5355618D01*
Y5340623D01*
X10549488Y5325628D01*
X10543490Y5316631D01*
X10534493Y5313632D01*
X10528495D01*
X10519498Y5316631D01*
X10516499Y5322629D01*
X9966585Y5539997D02*
X9957588Y5536998D01*
X9951590Y5528001D01*
X9948591Y5513006D01*
Y5504009D01*
X9951590Y5489014D01*
X9957588Y5480017D01*
X9966585Y5477018D01*
X9972583D01*
X9981580Y5480017D01*
X9987578Y5489014D01*
X9990577Y5504009D01*
Y5513006D01*
X9987578Y5528001D01*
X9981580Y5536998D01*
X9972583Y5539997D01*
X9966585D01*
X10022666D02*
X10013669Y5536998D01*
X10007671Y5528001D01*
X10004672Y5513006D01*
Y5504009D01*
X10007671Y5489014D01*
X10013669Y5480017D01*
X10022666Y5477018D01*
X10028664D01*
X10037661Y5480017D01*
X10043659Y5489014D01*
X10046658Y5504009D01*
Y5513006D01*
X10043659Y5528001D01*
X10037661Y5536998D01*
X10028664Y5539997D01*
X10022666D01*
X10060753Y5504009D02*
X10114735D01*
X10151322Y5539997D02*
X10142325Y5536998D01*
X10136327Y5528001D01*
X10133328Y5513006D01*
Y5504009D01*
X10136327Y5489014D01*
X10142325Y5480017D01*
X10151322Y5477018D01*
X10157320D01*
X10166317Y5480017D01*
X10172315Y5489014D01*
X10175314Y5504009D01*
Y5513006D01*
X10172315Y5528001D01*
X10166317Y5536998D01*
X10157320Y5539997D01*
X10151322D01*
X10207403D02*
X10198406Y5536998D01*
X10192408Y5528001D01*
X10189409Y5513006D01*
Y5504009D01*
X10192408Y5489014D01*
X10198406Y5480017D01*
X10207403Y5477018D01*
X10213401D01*
X10222398Y5480017D01*
X10228396Y5489014D01*
X10231395Y5504009D01*
Y5513006D01*
X10228396Y5528001D01*
X10222398Y5536998D01*
X10213401Y5539997D01*
X10207403D01*
X10245490Y5504009D02*
X10299472D01*
X10321065Y5525002D02*
Y5528001D01*
X10324064Y5533999D01*
X10327062Y5536998D01*
X10333060Y5539997D01*
X10345056D01*
X10351054Y5536998D01*
X10354053Y5533999D01*
X10357052Y5528001D01*
Y5522003D01*
X10354053Y5516005D01*
X10348055Y5507008D01*
X10318066Y5477018D01*
X10360051D01*
X10392140Y5539997D02*
X10383143Y5536998D01*
X10377146Y5528001D01*
X10374147Y5513006D01*
Y5504009D01*
X10377146Y5489014D01*
X10383143Y5480017D01*
X10392140Y5477018D01*
X10398138D01*
X10407135Y5480017D01*
X10413133Y5489014D01*
X10416132Y5504009D01*
Y5513006D01*
X10413133Y5528001D01*
X10407135Y5536998D01*
X10398138Y5539997D01*
X10392140D01*
X10448221D02*
X10439224Y5536998D01*
X10433226Y5528001D01*
X10430227Y5513006D01*
Y5504009D01*
X10433226Y5489014D01*
X10439224Y5480017D01*
X10448221Y5477018D01*
X10454219D01*
X10463216Y5480017D01*
X10469214Y5489014D01*
X10472213Y5504009D01*
Y5513006D01*
X10469214Y5528001D01*
X10463216Y5536998D01*
X10454219Y5539997D01*
X10448221D01*
X10504302D02*
X10495305Y5536998D01*
X10489307Y5528001D01*
X10486308Y5513006D01*
Y5504009D01*
X10489307Y5489014D01*
X10495305Y5480017D01*
X10504302Y5477018D01*
X10510300D01*
X10519297Y5480017D01*
X10525295Y5489014D01*
X10528294Y5504009D01*
Y5513006D01*
X10525295Y5528001D01*
X10519297Y5536998D01*
X10510300Y5539997D01*
X10504302D01*
X7116415Y-3565365D02*
X7112844Y-3558223D01*
X7105703Y-3551082D01*
X7098561Y-3547511D01*
X7084279D01*
X7077137Y-3551082D01*
X7069996Y-3558223D01*
X7066425Y-3565365D01*
X7062855Y-3576077D01*
Y-3593930D01*
X7066425Y-3604642D01*
X7069996Y-3611783D01*
X7077137Y-3618924D01*
X7084279Y-3622495D01*
X7098561D01*
X7105703Y-3618924D01*
X7112844Y-3611783D01*
X7116415Y-3604642D01*
X7180330Y-3572506D02*
Y-3622495D01*
Y-3583218D02*
X7173188Y-3576077D01*
X7166047Y-3572506D01*
X7155335D01*
X7148194Y-3576077D01*
X7141052Y-3583218D01*
X7137482Y-3593930D01*
Y-3601071D01*
X7141052Y-3611783D01*
X7148194Y-3618924D01*
X7155335Y-3622495D01*
X7166047D01*
X7173188Y-3618924D01*
X7180330Y-3611783D01*
X7200325Y-3572506D02*
Y-3622495D01*
Y-3593930D02*
X7203896Y-3583218D01*
X7211037Y-3576077D01*
X7218179Y-3572506D01*
X7228891D01*
X7235675Y-3547511D02*
Y-3622495D01*
X7290663Y-3583218D02*
X7287092Y-3576077D01*
X7276380Y-3572506D01*
X7265668D01*
X7254957Y-3576077D01*
X7251386Y-3583218D01*
X7254957Y-3590359D01*
X7262098Y-3593930D01*
X7279951Y-3597501D01*
X7287092Y-3601071D01*
X7290663Y-3608212D01*
Y-3611783D01*
X7287092Y-3618924D01*
X7276380Y-3622495D01*
X7265668D01*
X7254957Y-3618924D01*
X7251386Y-3611783D01*
X7306374Y-3547511D02*
Y-3622495D01*
Y-3583218D02*
X7313515Y-3576077D01*
X7320657Y-3572506D01*
X7331369D01*
X7338510Y-3576077D01*
X7345651Y-3583218D01*
X7349222Y-3593930D01*
Y-3601071D01*
X7345651Y-3611783D01*
X7338510Y-3618924D01*
X7331369Y-3622495D01*
X7320657D01*
X7313515Y-3618924D01*
X7306374Y-3611783D01*
X7408138Y-3572506D02*
Y-3622495D01*
Y-3583218D02*
X7400997Y-3576077D01*
X7393855Y-3572506D01*
X7383143D01*
X7376002Y-3576077D01*
X7368861Y-3583218D01*
X7365290Y-3593930D01*
Y-3601071D01*
X7368861Y-3611783D01*
X7376002Y-3618924D01*
X7383143Y-3622495D01*
X7393855D01*
X7400997Y-3618924D01*
X7408138Y-3611783D01*
X7470982Y-3547511D02*
Y-3622495D01*
Y-3583218D02*
X7463840Y-3576077D01*
X7456699Y-3572506D01*
X7445987D01*
X7438846Y-3576077D01*
X7431704Y-3583218D01*
X7428134Y-3593930D01*
Y-3601071D01*
X7431704Y-3611783D01*
X7438846Y-3618924D01*
X7445987Y-3622495D01*
X7456699D01*
X7463840Y-3618924D01*
X7470982Y-3611783D01*
X7498119Y-3618924D02*
X7494548Y-3622495D01*
X7490977Y-3618924D01*
X7494548Y-3615354D01*
X7498119Y-3618924D01*
Y-3626066D01*
X7494548Y-3633207D01*
X7490977Y-3636778D01*
X7627020Y-3565365D02*
X7623449Y-3558223D01*
X7616308Y-3551082D01*
X7609166Y-3547511D01*
X7594884D01*
X7587742Y-3551082D01*
X7580601Y-3558223D01*
X7577030Y-3565365D01*
X7573460Y-3576077D01*
Y-3593930D01*
X7577030Y-3604642D01*
X7580601Y-3611783D01*
X7587742Y-3618924D01*
X7594884Y-3622495D01*
X7609166D01*
X7616308Y-3618924D01*
X7623449Y-3611783D01*
X7627020Y-3604642D01*
X7705217Y-3622495D02*
X7676652Y-3547511D01*
X7648087Y-3622495D01*
X7658798Y-3597501D02*
X7694505D01*
X7828048Y-3572506D02*
X7824477Y-3583218D01*
X7817336Y-3590359D01*
X7806624Y-3593930D01*
X7803053D01*
X7792341Y-3590359D01*
X7785200Y-3583218D01*
X7781629Y-3572506D01*
Y-3568935D01*
X7785200Y-3558223D01*
X7792341Y-3551082D01*
X7803053Y-3547511D01*
X7806624D01*
X7817336Y-3551082D01*
X7824477Y-3558223D01*
X7828048Y-3572506D01*
Y-3590359D01*
X7824477Y-3608212D01*
X7817336Y-3618924D01*
X7806624Y-3622495D01*
X7799483D01*
X7788771Y-3618924D01*
X7785200Y-3611783D01*
X7851971Y-3565365D02*
Y-3561794D01*
X7855542Y-3554653D01*
X7859113Y-3551082D01*
X7866254Y-3547511D01*
X7880537D01*
X7887678Y-3551082D01*
X7891249Y-3554653D01*
X7894819Y-3561794D01*
Y-3568935D01*
X7891249Y-3576077D01*
X7884107Y-3586789D01*
X7848401Y-3622495D01*
X7898390D01*
X7936596Y-3547511D02*
X7925884Y-3551082D01*
X7918743Y-3561794D01*
X7915172Y-3579647D01*
Y-3590359D01*
X7918743Y-3608212D01*
X7925884Y-3618924D01*
X7936596Y-3622495D01*
X7943737D01*
X7954449Y-3618924D01*
X7961591Y-3608212D01*
X7965161Y-3590359D01*
Y-3579647D01*
X7961591Y-3561794D01*
X7954449Y-3551082D01*
X7943737Y-3547511D01*
X7936596D01*
X7981944Y-3561794D02*
X7989085Y-3558223D01*
X7999797Y-3547511D01*
Y-3622495D01*
X8058356Y-3547511D02*
X8047644Y-3551082D01*
X8040502Y-3561794D01*
X8036932Y-3579647D01*
Y-3590359D01*
X8040502Y-3608212D01*
X8047644Y-3618924D01*
X8058356Y-3622495D01*
X8065497D01*
X8076209Y-3618924D01*
X8083350Y-3608212D01*
X8086921Y-3590359D01*
Y-3579647D01*
X8083350Y-3561794D01*
X8076209Y-3551082D01*
X8065497Y-3547511D01*
X8058356D01*
X7090275Y-3145548D02*
Y-3245527D01*
X7056949Y-3145548D02*
X7123602D01*
X7135504D02*
Y-3245527D01*
X7156452Y-3145548D02*
Y-3245527D01*
Y-3145548D02*
X7223104Y-3245527D01*
Y-3145548D02*
Y-3245527D01*
X7250717Y-3145548D02*
X7288804Y-3193157D01*
Y-3245527D01*
X7326891Y-3145548D02*
X7288804Y-3193157D01*
X7339746Y-3145548D02*
X7377833Y-3245527D01*
X7415920Y-3145548D02*
X7377833Y-3245527D01*
X7428774Y-3145548D02*
Y-3245527D01*
X7516374Y-3159831D02*
X7506853Y-3150309D01*
X7492570Y-3145548D01*
X7473526D01*
X7459244Y-3150309D01*
X7449722Y-3159831D01*
Y-3169352D01*
X7454483Y-3178874D01*
X7459244Y-3183635D01*
X7468766Y-3188396D01*
X7497331Y-3197918D01*
X7506853Y-3202679D01*
X7511614Y-3207439D01*
X7516374Y-3216961D01*
Y-3231244D01*
X7506853Y-3240766D01*
X7492570Y-3245527D01*
X7473526D01*
X7459244Y-3240766D01*
X7449722Y-3231244D01*
X7538751Y-3145548D02*
Y-3245527D01*
X7588264Y-3145548D02*
X7578742Y-3150309D01*
X7569220Y-3159831D01*
X7564459Y-3169352D01*
X7559699Y-3183635D01*
Y-3207439D01*
X7564459Y-3221722D01*
X7569220Y-3231244D01*
X7578742Y-3240766D01*
X7588264Y-3245527D01*
X7607307D01*
X7616829Y-3240766D01*
X7626351Y-3231244D01*
X7631112Y-3221722D01*
X7635873Y-3207439D01*
Y-3183635D01*
X7631112Y-3169352D01*
X7626351Y-3159831D01*
X7616829Y-3150309D01*
X7607307Y-3145548D01*
X7588264D01*
X7659201D02*
Y-3245527D01*
Y-3145548D02*
X7725853Y-3245527D01*
Y-3145548D02*
Y-3245527D01*
X7758227Y-3236005D02*
X7753467Y-3240766D01*
X7758227Y-3245527D01*
X7762988Y-3240766D01*
X7758227Y-3236005D01*
X7861062Y-3245527D02*
X7822975Y-3145548D01*
X7784888Y-3245527D01*
X7799171Y-3212200D02*
X7846780D01*
X7884391Y-3145548D02*
Y-3245527D01*
X7983893Y-3145548D02*
Y-3245527D01*
X8004841Y-3145548D02*
Y-3245527D01*
Y-3145548D02*
X8071494Y-3245527D01*
Y-3145548D02*
Y-3245527D01*
X8170520Y-3169352D02*
X8165759Y-3159831D01*
X8156237Y-3150309D01*
X8146716Y-3145548D01*
X8127672D01*
X8118150Y-3150309D01*
X8108628Y-3159831D01*
X8103868Y-3169352D01*
X8099107Y-3183635D01*
Y-3207439D01*
X8103868Y-3221722D01*
X8108628Y-3231244D01*
X8118150Y-3240766D01*
X8127672Y-3245527D01*
X8146716D01*
X8156237Y-3240766D01*
X8165759Y-3231244D01*
X8170520Y-3221722D01*
D124*
X-2705803Y-1349000D02*
X1833000D01*
X-2705803Y-1229000D02*
X1833000D01*
X-2705803Y-3149000D02*
Y-1229000D01*
Y-3149000D02*
X-2295891D01*
X-2705803Y-3029000D02*
X-2295891D01*
X-2705803Y-2909000D02*
X-2295891D01*
X-2705803Y-2789000D02*
X-2295891D01*
X-2705803Y-2669000D02*
X-2295891D01*
X-2705803Y-2549000D02*
X-2295891D01*
X-2705803Y-2429000D02*
X-2295891D01*
X-2705803Y-2309000D02*
X-2295891D01*
X-2705803Y-2189000D02*
X-2295891D01*
X-2705803Y-2069000D02*
X-2295891D01*
X-2705803Y-1949000D02*
X-2295891D01*
X-2705803Y-1829000D02*
X-2295891D01*
X-2705803Y-1709000D02*
X-2295891D01*
X-2705803Y-1589000D02*
X-2295891D01*
X-2705803Y-1469000D02*
X-2295891D01*
Y-3149000D02*
Y-1229000D01*
Y-3149000D02*
X-1366146D01*
X-2295891Y-3029000D02*
X-1366146D01*
X-2295891Y-2909000D02*
X-1366146D01*
X-2295891Y-2789000D02*
X-1366146D01*
X-2295891Y-2669000D02*
X-1366146D01*
X-2295891Y-2549000D02*
X-1366146D01*
X-2295891Y-2429000D02*
X-1366146D01*
X-2295891Y-2309000D02*
X-1366146D01*
X-2295891Y-2189000D02*
X-1366146D01*
X-2295891Y-2069000D02*
X-1366146D01*
X-2295891Y-1949000D02*
X-1366146D01*
X-2295891Y-1829000D02*
X-1366146D01*
X-2295891Y-1709000D02*
X-1366146D01*
X-2295891Y-1589000D02*
X-1366146D01*
X-2295891Y-1469000D02*
X-1366146D01*
Y-3149000D02*
Y-1229000D01*
Y-3149000D02*
X-506379D01*
X-1366146Y-3029000D02*
X-506379D01*
X-1366146Y-2909000D02*
X-506379D01*
X-1366146Y-2789000D02*
X-506379D01*
X-1366146Y-2669000D02*
X-506379D01*
X-1366146Y-2549000D02*
X-506379D01*
X-1366146Y-2429000D02*
X-506379D01*
X-1366146Y-2309000D02*
X-506379D01*
X-1366146Y-2189000D02*
X-506379D01*
X-1366146Y-2069000D02*
X-506379D01*
X-1366146Y-1949000D02*
X-506379D01*
X-1366146Y-1829000D02*
X-506379D01*
X-1366146Y-1709000D02*
X-506379D01*
X-1366146Y-1589000D02*
X-506379D01*
X-1366146Y-1469000D02*
X-506379D01*
Y-3149000D02*
Y-1229000D01*
Y-3149000D02*
X143456D01*
X-506379Y-3029000D02*
X143456D01*
X-506379Y-2909000D02*
X143456D01*
X-506379Y-2789000D02*
X143456D01*
X-506379Y-2669000D02*
X143456D01*
X-506379Y-2549000D02*
X143456D01*
X-506379Y-2429000D02*
X143456D01*
X-506379Y-2309000D02*
X143456D01*
X-506379Y-2189000D02*
X143456D01*
X-506379Y-2069000D02*
X143456D01*
X-506379Y-1949000D02*
X143456D01*
X-506379Y-1829000D02*
X143456D01*
X-506379Y-1709000D02*
X143456D01*
X-506379Y-1589000D02*
X143456D01*
X-506379Y-1469000D02*
X143456D01*
Y-3149000D02*
Y-1229000D01*
Y-3149000D02*
X713317D01*
X143456Y-3029000D02*
X713317D01*
X143456Y-2909000D02*
X713317D01*
X143456Y-2789000D02*
X713317D01*
X143456Y-2669000D02*
X713317D01*
X143456Y-2549000D02*
X713317D01*
X143456Y-2429000D02*
X713317D01*
X143456Y-2309000D02*
X713317D01*
X143456Y-2189000D02*
X713317D01*
X143456Y-2069000D02*
X713317D01*
X143456Y-1949000D02*
X713317D01*
X143456Y-1829000D02*
X713317D01*
X143456Y-1709000D02*
X713317D01*
X143456Y-1589000D02*
X713317D01*
X143456Y-1469000D02*
X713317D01*
Y-3149000D02*
Y-1229000D01*
Y-3149000D02*
X1833000D01*
X713317Y-3029000D02*
X1833000D01*
X713317Y-2909000D02*
X1833000D01*
X713317Y-2789000D02*
X1833000D01*
X713317Y-2669000D02*
X1833000D01*
X713317Y-2549000D02*
X1833000D01*
X713317Y-2429000D02*
X1833000D01*
X713317Y-2309000D02*
X1833000D01*
X713317Y-2189000D02*
X1833000D01*
X713317Y-2069000D02*
X1833000D01*
X713317Y-1949000D02*
X1833000D01*
X713317Y-1829000D02*
X1833000D01*
X713317Y-1709000D02*
X1833000D01*
X713317Y-1589000D02*
X1833000D01*
X713317Y-1469000D02*
X1833000D01*
Y-3149000D02*
Y-1229000D01*
D125*
X1773000Y-3149000D02*
X1833000Y-3089000D01*
X1713000Y-3149000D02*
X1833000Y-3029000D01*
X1653000Y-3149000D02*
X1773000Y-3029000D01*
X1593000Y-3149000D02*
X1713000Y-3029000D01*
X1533000Y-3149000D02*
X1653000Y-3029000D01*
X1473000Y-3149000D02*
X1593000Y-3029000D01*
X1413000Y-3149000D02*
X1533000Y-3029000D01*
X1353000Y-3149000D02*
X1473000Y-3029000D01*
X1293000Y-3149000D02*
X1413000Y-3029000D01*
X1233000Y-3149000D02*
X1353000Y-3029000D01*
X1173000Y-3149000D02*
X1293000Y-3029000D01*
X1113000Y-3149000D02*
X1233000Y-3029000D01*
X1053000Y-3149000D02*
X1173000Y-3029000D01*
X993000Y-3149000D02*
X1113000Y-3029000D01*
X933000Y-3149000D02*
X1053000Y-3029000D01*
X873000Y-3149000D02*
X993000Y-3029000D01*
X813000Y-3149000D02*
X933000Y-3029000D01*
X753000Y-3149000D02*
X873000Y-3029000D01*
X713317Y-3128683D02*
X813000Y-3029000D01*
X713317Y-3068683D02*
X753000Y-3029000D01*
X1773000D02*
X1833000Y-2969000D01*
X1713000Y-3029000D02*
X1833000Y-2909000D01*
X1653000Y-3029000D02*
X1773000Y-2909000D01*
X1593000Y-3029000D02*
X1713000Y-2909000D01*
X1533000Y-3029000D02*
X1653000Y-2909000D01*
X1473000Y-3029000D02*
X1593000Y-2909000D01*
X1413000Y-3029000D02*
X1533000Y-2909000D01*
X1353000Y-3029000D02*
X1473000Y-2909000D01*
X1293000Y-3029000D02*
X1413000Y-2909000D01*
X1233000Y-3029000D02*
X1353000Y-2909000D01*
X1173000Y-3029000D02*
X1293000Y-2909000D01*
X1113000Y-3029000D02*
X1233000Y-2909000D01*
X1053000Y-3029000D02*
X1173000Y-2909000D01*
X993000Y-3029000D02*
X1113000Y-2909000D01*
X933000Y-3029000D02*
X1053000Y-2909000D01*
X873000Y-3029000D02*
X993000Y-2909000D01*
X813000Y-3029000D02*
X933000Y-2909000D01*
X753000Y-3029000D02*
X873000Y-2909000D01*
X713317Y-3008683D02*
X813000Y-2909000D01*
X713317Y-2948683D02*
X753000Y-2909000D01*
X1773000D02*
X1833000Y-2849000D01*
X1713000Y-2909000D02*
X1833000Y-2789000D01*
X1653000Y-2909000D02*
X1773000Y-2789000D01*
X1593000Y-2909000D02*
X1713000Y-2789000D01*
X1533000Y-2909000D02*
X1653000Y-2789000D01*
X1473000Y-2909000D02*
X1593000Y-2789000D01*
X1413000Y-2909000D02*
X1533000Y-2789000D01*
X1353000Y-2909000D02*
X1473000Y-2789000D01*
X1293000Y-2909000D02*
X1413000Y-2789000D01*
X1233000Y-2909000D02*
X1353000Y-2789000D01*
X1173000Y-2909000D02*
X1293000Y-2789000D01*
X1113000Y-2909000D02*
X1233000Y-2789000D01*
X1053000Y-2909000D02*
X1173000Y-2789000D01*
X993000Y-2909000D02*
X1113000Y-2789000D01*
X933000Y-2909000D02*
X1053000Y-2789000D01*
X873000Y-2909000D02*
X993000Y-2789000D01*
X813000Y-2909000D02*
X933000Y-2789000D01*
X753000Y-2909000D02*
X873000Y-2789000D01*
X713317Y-2888683D02*
X813000Y-2789000D01*
X713317Y-2828683D02*
X753000Y-2789000D01*
X1773000D02*
X1833000Y-2729000D01*
X1713000Y-2789000D02*
X1833000Y-2669000D01*
X1653000Y-2789000D02*
X1773000Y-2669000D01*
X1593000Y-2789000D02*
X1713000Y-2669000D01*
X1533000Y-2789000D02*
X1653000Y-2669000D01*
X1473000Y-2789000D02*
X1593000Y-2669000D01*
X1413000Y-2789000D02*
X1533000Y-2669000D01*
X1353000Y-2789000D02*
X1473000Y-2669000D01*
X1293000Y-2789000D02*
X1413000Y-2669000D01*
X1233000Y-2789000D02*
X1353000Y-2669000D01*
X1173000Y-2789000D02*
X1293000Y-2669000D01*
X1113000Y-2789000D02*
X1233000Y-2669000D01*
X1053000Y-2789000D02*
X1173000Y-2669000D01*
X993000Y-2789000D02*
X1113000Y-2669000D01*
X933000Y-2789000D02*
X1053000Y-2669000D01*
X873000Y-2789000D02*
X993000Y-2669000D01*
X813000Y-2789000D02*
X933000Y-2669000D01*
X753000Y-2789000D02*
X873000Y-2669000D01*
X713317Y-2768683D02*
X813000Y-2669000D01*
X713317Y-2708683D02*
X753000Y-2669000D01*
X1773000D02*
X1833000Y-2609000D01*
X1713000Y-2669000D02*
X1833000Y-2549000D01*
X1653000Y-2669000D02*
X1773000Y-2549000D01*
X1593000Y-2669000D02*
X1713000Y-2549000D01*
X1533000Y-2669000D02*
X1653000Y-2549000D01*
X1473000Y-2669000D02*
X1593000Y-2549000D01*
X1413000Y-2669000D02*
X1533000Y-2549000D01*
X1353000Y-2669000D02*
X1473000Y-2549000D01*
X1293000Y-2669000D02*
X1413000Y-2549000D01*
X1233000Y-2669000D02*
X1353000Y-2549000D01*
X1173000Y-2669000D02*
X1293000Y-2549000D01*
X1113000Y-2669000D02*
X1233000Y-2549000D01*
X1053000Y-2669000D02*
X1173000Y-2549000D01*
X993000Y-2669000D02*
X1113000Y-2549000D01*
X933000Y-2669000D02*
X1053000Y-2549000D01*
X873000Y-2669000D02*
X993000Y-2549000D01*
X813000Y-2669000D02*
X933000Y-2549000D01*
X753000Y-2669000D02*
X873000Y-2549000D01*
X713317Y-2648683D02*
X813000Y-2549000D01*
X713317Y-2588683D02*
X753000Y-2549000D01*
X1773000D02*
X1833000Y-2489000D01*
X1713000Y-2549000D02*
X1833000Y-2429000D01*
X1653000Y-2549000D02*
X1773000Y-2429000D01*
X1593000Y-2549000D02*
X1713000Y-2429000D01*
X1533000Y-2549000D02*
X1653000Y-2429000D01*
X1473000Y-2549000D02*
X1593000Y-2429000D01*
X1413000Y-2549000D02*
X1533000Y-2429000D01*
X1353000Y-2549000D02*
X1473000Y-2429000D01*
X1293000Y-2549000D02*
X1413000Y-2429000D01*
X1233000Y-2549000D02*
X1353000Y-2429000D01*
X1173000Y-2549000D02*
X1293000Y-2429000D01*
X1113000Y-2549000D02*
X1233000Y-2429000D01*
X1053000Y-2549000D02*
X1173000Y-2429000D01*
X993000Y-2549000D02*
X1113000Y-2429000D01*
X933000Y-2549000D02*
X1053000Y-2429000D01*
X873000Y-2549000D02*
X993000Y-2429000D01*
X813000Y-2549000D02*
X933000Y-2429000D01*
X753000Y-2549000D02*
X873000Y-2429000D01*
X713317Y-2528683D02*
X813000Y-2429000D01*
X713317Y-2468683D02*
X753000Y-2429000D01*
X1773000D02*
X1833000Y-2369000D01*
X1713000Y-2429000D02*
X1833000Y-2309000D01*
X1653000Y-2429000D02*
X1773000Y-2309000D01*
X1593000Y-2429000D02*
X1713000Y-2309000D01*
X1533000Y-2429000D02*
X1653000Y-2309000D01*
X1473000Y-2429000D02*
X1593000Y-2309000D01*
X1413000Y-2429000D02*
X1533000Y-2309000D01*
X1353000Y-2429000D02*
X1473000Y-2309000D01*
X1293000Y-2429000D02*
X1413000Y-2309000D01*
X1233000Y-2429000D02*
X1353000Y-2309000D01*
X1173000Y-2429000D02*
X1293000Y-2309000D01*
X1113000Y-2429000D02*
X1233000Y-2309000D01*
X1053000Y-2429000D02*
X1173000Y-2309000D01*
X993000Y-2429000D02*
X1113000Y-2309000D01*
X933000Y-2429000D02*
X1053000Y-2309000D01*
X873000Y-2429000D02*
X993000Y-2309000D01*
X813000Y-2429000D02*
X933000Y-2309000D01*
X753000Y-2429000D02*
X873000Y-2309000D01*
X713317Y-2408683D02*
X813000Y-2309000D01*
X713317Y-2348683D02*
X753000Y-2309000D01*
X1773000D02*
X1833000Y-2249000D01*
X1713000Y-2309000D02*
X1833000Y-2189000D01*
X1653000Y-2309000D02*
X1773000Y-2189000D01*
X1593000Y-2309000D02*
X1713000Y-2189000D01*
X1533000Y-2309000D02*
X1653000Y-2189000D01*
X1473000Y-2309000D02*
X1593000Y-2189000D01*
X1413000Y-2309000D02*
X1533000Y-2189000D01*
X1353000Y-2309000D02*
X1473000Y-2189000D01*
X1293000Y-2309000D02*
X1413000Y-2189000D01*
X1233000Y-2309000D02*
X1353000Y-2189000D01*
X1173000Y-2309000D02*
X1293000Y-2189000D01*
X1113000Y-2309000D02*
X1233000Y-2189000D01*
X1053000Y-2309000D02*
X1173000Y-2189000D01*
X993000Y-2309000D02*
X1113000Y-2189000D01*
X933000Y-2309000D02*
X1053000Y-2189000D01*
X873000Y-2309000D02*
X993000Y-2189000D01*
X813000Y-2309000D02*
X933000Y-2189000D01*
X753000Y-2309000D02*
X873000Y-2189000D01*
X713317Y-2288683D02*
X813000Y-2189000D01*
X713317Y-2228683D02*
X753000Y-2189000D01*
X1773000D02*
X1833000Y-2129000D01*
X1713000Y-2189000D02*
X1833000Y-2069000D01*
X1653000Y-2189000D02*
X1773000Y-2069000D01*
X1593000Y-2189000D02*
X1713000Y-2069000D01*
X1533000Y-2189000D02*
X1653000Y-2069000D01*
X1473000Y-2189000D02*
X1593000Y-2069000D01*
X1413000Y-2189000D02*
X1533000Y-2069000D01*
X1353000Y-2189000D02*
X1473000Y-2069000D01*
X1293000Y-2189000D02*
X1413000Y-2069000D01*
X1233000Y-2189000D02*
X1353000Y-2069000D01*
X1173000Y-2189000D02*
X1293000Y-2069000D01*
X1113000Y-2189000D02*
X1233000Y-2069000D01*
X1053000Y-2189000D02*
X1173000Y-2069000D01*
X993000Y-2189000D02*
X1113000Y-2069000D01*
X933000Y-2189000D02*
X1053000Y-2069000D01*
X873000Y-2189000D02*
X993000Y-2069000D01*
X813000Y-2189000D02*
X933000Y-2069000D01*
X753000Y-2189000D02*
X873000Y-2069000D01*
X713317Y-2168683D02*
X813000Y-2069000D01*
X713317Y-2108683D02*
X753000Y-2069000D01*
X1773000D02*
X1833000Y-2009000D01*
X1713000Y-2069000D02*
X1833000Y-1949000D01*
X1653000Y-2069000D02*
X1773000Y-1949000D01*
X1593000Y-2069000D02*
X1713000Y-1949000D01*
X1533000Y-2069000D02*
X1653000Y-1949000D01*
X1473000Y-2069000D02*
X1593000Y-1949000D01*
X1413000Y-2069000D02*
X1533000Y-1949000D01*
X1353000Y-2069000D02*
X1473000Y-1949000D01*
X1293000Y-2069000D02*
X1413000Y-1949000D01*
X1233000Y-2069000D02*
X1353000Y-1949000D01*
X1173000Y-2069000D02*
X1293000Y-1949000D01*
X1113000Y-2069000D02*
X1233000Y-1949000D01*
X1053000Y-2069000D02*
X1173000Y-1949000D01*
X993000Y-2069000D02*
X1113000Y-1949000D01*
X933000Y-2069000D02*
X1053000Y-1949000D01*
X873000Y-2069000D02*
X993000Y-1949000D01*
X813000Y-2069000D02*
X933000Y-1949000D01*
X753000Y-2069000D02*
X873000Y-1949000D01*
X713317Y-2048683D02*
X813000Y-1949000D01*
X713317Y-1988683D02*
X753000Y-1949000D01*
X1773000D02*
X1833000Y-1889000D01*
X1713000Y-1949000D02*
X1833000Y-1829000D01*
X1653000Y-1949000D02*
X1773000Y-1829000D01*
X1593000Y-1949000D02*
X1713000Y-1829000D01*
X1533000Y-1949000D02*
X1653000Y-1829000D01*
X1473000Y-1949000D02*
X1593000Y-1829000D01*
X1413000Y-1949000D02*
X1533000Y-1829000D01*
X1353000Y-1949000D02*
X1473000Y-1829000D01*
X1293000Y-1949000D02*
X1413000Y-1829000D01*
X1233000Y-1949000D02*
X1353000Y-1829000D01*
X1173000Y-1949000D02*
X1293000Y-1829000D01*
X1113000Y-1949000D02*
X1233000Y-1829000D01*
X1053000Y-1949000D02*
X1173000Y-1829000D01*
X993000Y-1949000D02*
X1113000Y-1829000D01*
X933000Y-1949000D02*
X1053000Y-1829000D01*
X873000Y-1949000D02*
X993000Y-1829000D01*
X813000Y-1949000D02*
X933000Y-1829000D01*
X753000Y-1949000D02*
X873000Y-1829000D01*
X713317Y-1928683D02*
X813000Y-1829000D01*
X713317Y-1868683D02*
X753000Y-1829000D01*
X1773000D02*
X1833000Y-1769000D01*
X1713000Y-1829000D02*
X1833000Y-1709000D01*
X1653000Y-1829000D02*
X1773000Y-1709000D01*
X1593000Y-1829000D02*
X1713000Y-1709000D01*
X1533000Y-1829000D02*
X1653000Y-1709000D01*
X1473000Y-1829000D02*
X1593000Y-1709000D01*
X1413000Y-1829000D02*
X1533000Y-1709000D01*
X1353000Y-1829000D02*
X1473000Y-1709000D01*
X1293000Y-1829000D02*
X1413000Y-1709000D01*
X1233000Y-1829000D02*
X1353000Y-1709000D01*
X1173000Y-1829000D02*
X1293000Y-1709000D01*
X1113000Y-1829000D02*
X1233000Y-1709000D01*
X1053000Y-1829000D02*
X1173000Y-1709000D01*
X993000Y-1829000D02*
X1113000Y-1709000D01*
X933000Y-1829000D02*
X1053000Y-1709000D01*
X873000Y-1829000D02*
X993000Y-1709000D01*
X813000Y-1829000D02*
X933000Y-1709000D01*
X753000Y-1829000D02*
X873000Y-1709000D01*
X713317Y-1808683D02*
X813000Y-1709000D01*
X713317Y-1748683D02*
X753000Y-1709000D01*
X1773000D02*
X1833000Y-1649000D01*
X1713000Y-1709000D02*
X1833000Y-1589000D01*
X1653000Y-1709000D02*
X1773000Y-1589000D01*
X1593000Y-1709000D02*
X1713000Y-1589000D01*
X1533000Y-1709000D02*
X1653000Y-1589000D01*
X1473000Y-1709000D02*
X1593000Y-1589000D01*
X1413000Y-1709000D02*
X1533000Y-1589000D01*
X1353000Y-1709000D02*
X1473000Y-1589000D01*
X1293000Y-1709000D02*
X1413000Y-1589000D01*
X1233000Y-1709000D02*
X1353000Y-1589000D01*
X1173000Y-1709000D02*
X1293000Y-1589000D01*
X1113000Y-1709000D02*
X1233000Y-1589000D01*
X1053000Y-1709000D02*
X1173000Y-1589000D01*
X993000Y-1709000D02*
X1113000Y-1589000D01*
X933000Y-1709000D02*
X1053000Y-1589000D01*
X873000Y-1709000D02*
X993000Y-1589000D01*
X813000Y-1709000D02*
X933000Y-1589000D01*
X753000Y-1709000D02*
X873000Y-1589000D01*
X713317Y-1688683D02*
X813000Y-1589000D01*
X713317Y-1628683D02*
X753000Y-1589000D01*
X1773000D02*
X1833000Y-1529000D01*
X1713000Y-1589000D02*
X1833000Y-1469000D01*
X1653000Y-1589000D02*
X1773000Y-1469000D01*
X1593000Y-1589000D02*
X1713000Y-1469000D01*
X1533000Y-1589000D02*
X1653000Y-1469000D01*
X1473000Y-1589000D02*
X1593000Y-1469000D01*
X1413000Y-1589000D02*
X1533000Y-1469000D01*
X1353000Y-1589000D02*
X1473000Y-1469000D01*
X1293000Y-1589000D02*
X1413000Y-1469000D01*
X1233000Y-1589000D02*
X1353000Y-1469000D01*
X1173000Y-1589000D02*
X1293000Y-1469000D01*
X1113000Y-1589000D02*
X1233000Y-1469000D01*
X1053000Y-1589000D02*
X1173000Y-1469000D01*
X993000Y-1589000D02*
X1113000Y-1469000D01*
X933000Y-1589000D02*
X1053000Y-1469000D01*
X873000Y-1589000D02*
X993000Y-1469000D01*
X813000Y-1589000D02*
X933000Y-1469000D01*
X753000Y-1589000D02*
X873000Y-1469000D01*
X713317Y-1568683D02*
X813000Y-1469000D01*
X713317Y-1508683D02*
X753000Y-1469000D01*
X1773000D02*
X1833000Y-1409000D01*
X1713000Y-1469000D02*
X1833000Y-1349000D01*
X1653000Y-1469000D02*
X1773000Y-1349000D01*
X1593000Y-1469000D02*
X1713000Y-1349000D01*
X1533000Y-1469000D02*
X1653000Y-1349000D01*
X1473000Y-1469000D02*
X1593000Y-1349000D01*
X1413000Y-1469000D02*
X1533000Y-1349000D01*
X1353000Y-1469000D02*
X1473000Y-1349000D01*
X1293000Y-1469000D02*
X1413000Y-1349000D01*
X1233000Y-1469000D02*
X1353000Y-1349000D01*
X1173000Y-1469000D02*
X1293000Y-1349000D01*
X1113000Y-1469000D02*
X1233000Y-1349000D01*
X1053000Y-1469000D02*
X1173000Y-1349000D01*
X993000Y-1469000D02*
X1113000Y-1349000D01*
X933000Y-1469000D02*
X1053000Y-1349000D01*
X873000Y-1469000D02*
X993000Y-1349000D01*
X813000Y-1469000D02*
X933000Y-1349000D01*
X753000Y-1469000D02*
X873000Y-1349000D01*
X713317Y-1448683D02*
X813000Y-1349000D01*
X713317Y-1388683D02*
X753000Y-1349000D01*
D126*
X10979726Y-4626013D02*
X10913080D01*
X10979726Y-4559368D01*
Y-4542706D01*
X10963064Y-4526045D01*
X10929742D01*
X10913080Y-4542706D01*
X11013048Y-4626013D02*
Y-4559368D01*
X11046371Y-4526045D01*
X11079693Y-4559368D01*
Y-4626013D01*
Y-4576029D01*
X11013048D01*
X8489024Y-4494707D02*
X8555669D01*
X8522347D01*
Y-4594675D01*
X8588992Y-4494707D02*
X8622315D01*
X8605653D01*
Y-4594675D01*
X8588992D01*
X8622315D01*
X8672299D02*
Y-4494707D01*
X8738944Y-4594675D01*
Y-4494707D01*
X8772266D02*
Y-4511368D01*
X8805589Y-4544691D01*
X8838911Y-4511368D01*
Y-4494707D01*
X8805589Y-4544691D02*
Y-4594675D01*
X8872234D02*
Y-4494707D01*
X8905557Y-4528030D01*
X8938879Y-4494707D01*
Y-4594675D01*
X9022185Y-4494707D02*
X8988863D01*
X8972202Y-4511368D01*
Y-4578014D01*
X8988863Y-4594675D01*
X9022185D01*
X9038847Y-4578014D01*
Y-4511368D01*
X9022185Y-4494707D01*
X9072169D02*
Y-4594675D01*
X9122153D01*
X9138814Y-4578014D01*
Y-4511368D01*
X9122153Y-4494707D01*
X9072169D01*
X9172137D02*
Y-4578014D01*
X9188798Y-4594675D01*
X9222121D01*
X9238782Y-4578014D01*
Y-4494707D01*
X9272105D02*
Y-4594675D01*
X9338750D01*
X9438718Y-4494707D02*
X9372072D01*
Y-4594675D01*
X9438718D01*
X9372072Y-4544691D02*
X9405395D01*
D127*
X8495758Y-4393243D02*
Y-4460628D01*
Y-4393243D02*
X8518219D01*
X8527846Y-4396452D01*
X8534264Y-4402869D01*
X8537472Y-4409287D01*
X8540681Y-4418913D01*
Y-4434958D01*
X8537472Y-4444584D01*
X8534264Y-4451002D01*
X8527846Y-4457419D01*
X8518219Y-4460628D01*
X8495758D01*
X8555763Y-4393243D02*
X8571807Y-4460628D01*
X8587851Y-4393243D02*
X8571807Y-4460628D01*
X8587851Y-4393243D02*
X8603895Y-4460628D01*
X8619940Y-4393243D02*
X8603895Y-4460628D01*
X8681549Y-4409287D02*
X8678340Y-4402869D01*
X8671923Y-4396452D01*
X8665505Y-4393243D01*
X8652670D01*
X8646252Y-4396452D01*
X8639834Y-4402869D01*
X8636625Y-4409287D01*
X8633417Y-4418913D01*
Y-4434958D01*
X8636625Y-4444584D01*
X8639834Y-4451002D01*
X8646252Y-4457419D01*
X8652670Y-4460628D01*
X8665505D01*
X8671923Y-4457419D01*
X8678340Y-4451002D01*
X8681549Y-4444584D01*
Y-4434958D01*
X8665505D02*
X8681549D01*
X8700160Y-4454211D02*
X8696952Y-4457419D01*
X8700160Y-4460628D01*
X8703369Y-4457419D01*
X8700160Y-4454211D01*
X8771076Y-4393243D02*
Y-4460628D01*
Y-4393243D02*
X8815999Y-4460628D01*
Y-4393243D02*
Y-4460628D01*
X8853864Y-4393243D02*
X8847446Y-4396452D01*
X8841028Y-4402869D01*
X8837819Y-4409287D01*
X8834611Y-4418913D01*
Y-4434958D01*
X8837819Y-4444584D01*
X8841028Y-4451002D01*
X8847446Y-4457419D01*
X8853864Y-4460628D01*
X8866699D01*
X8873117Y-4457419D01*
X8879534Y-4451002D01*
X8882743Y-4444584D01*
X8885952Y-4434958D01*
Y-4418913D01*
X8882743Y-4409287D01*
X8879534Y-4402869D01*
X8873117Y-4396452D01*
X8866699Y-4393243D01*
X8853864D01*
X8904884Y-4454211D02*
X8901675Y-4457419D01*
X8904884Y-4460628D01*
X8908093Y-4457419D01*
X8904884Y-4454211D01*
X10731978Y-4397180D02*
Y-4464565D01*
Y-4397180D02*
X10760858D01*
X10770484Y-4400389D01*
X10773693Y-4403597D01*
X10776902Y-4410015D01*
Y-4416433D01*
X10773693Y-4422850D01*
X10770484Y-4426059D01*
X10760858Y-4429268D01*
X10731978D01*
X10754440D02*
X10776902Y-4464565D01*
X10833698Y-4397180D02*
X10791983D01*
Y-4464565D01*
X10833698D01*
X10791983Y-4429268D02*
X10817654D01*
X10844929Y-4397180D02*
X10870600Y-4464565D01*
X10896271Y-4397180D02*
X10870600Y-4464565D01*
X6971961Y5725743D02*
X6930246D01*
Y5658357D01*
X6971961D01*
X6930246Y5693654D02*
X6955917D01*
X7031324Y5709699D02*
X7028115Y5716116D01*
X7021698Y5722534D01*
X7015280Y5725743D01*
X7002445D01*
X6996027Y5722534D01*
X6989609Y5716116D01*
X6986400Y5709699D01*
X6983192Y5700072D01*
Y5684028D01*
X6986400Y5674401D01*
X6989609Y5667984D01*
X6996027Y5661566D01*
X7002445Y5658357D01*
X7015280D01*
X7021698Y5661566D01*
X7028115Y5667984D01*
X7031324Y5674401D01*
X7069509Y5725743D02*
X7063092Y5722534D01*
X7056674Y5716116D01*
X7053465Y5709699D01*
X7050256Y5700072D01*
Y5684028D01*
X7053465Y5674401D01*
X7056674Y5667984D01*
X7063092Y5661566D01*
X7069509Y5658357D01*
X7082345D01*
X7088762Y5661566D01*
X7095180Y5667984D01*
X7098389Y5674401D01*
X7101598Y5684028D01*
Y5700072D01*
X7098389Y5709699D01*
X7095180Y5716116D01*
X7088762Y5722534D01*
X7082345Y5725743D01*
X7069509D01*
X7331821D02*
Y5658357D01*
Y5725743D02*
X7360700D01*
X7370327Y5722534D01*
X7373536Y5719325D01*
X7376744Y5712907D01*
Y5706490D01*
X7373536Y5700072D01*
X7370327Y5696863D01*
X7360700Y5693654D01*
X7331821D01*
X7354283D02*
X7376744Y5658357D01*
X7433541Y5725743D02*
X7391826D01*
Y5658357D01*
X7433541D01*
X7391826Y5693654D02*
X7417497D01*
X7444772Y5725743D02*
X7470442Y5658357D01*
X7496113Y5725743D02*
X7470442Y5658357D01*
X8497175Y5725743D02*
Y5658357D01*
Y5725743D02*
X8519637D01*
X8529263Y5722534D01*
X8535681Y5716116D01*
X8538890Y5709699D01*
X8542099Y5700072D01*
Y5684028D01*
X8538890Y5674401D01*
X8535681Y5667984D01*
X8529263Y5661566D01*
X8519637Y5658357D01*
X8497175D01*
X8598895Y5725743D02*
X8557180D01*
Y5658357D01*
X8598895D01*
X8557180Y5693654D02*
X8582851D01*
X8655050Y5716116D02*
X8648632Y5722534D01*
X8639005Y5725743D01*
X8626170D01*
X8616544Y5722534D01*
X8610126Y5716116D01*
Y5709699D01*
X8613335Y5703281D01*
X8616544Y5700072D01*
X8622961Y5696863D01*
X8642214Y5690445D01*
X8648632Y5687237D01*
X8651841Y5684028D01*
X8655050Y5677610D01*
Y5667984D01*
X8648632Y5661566D01*
X8639005Y5658357D01*
X8626170D01*
X8616544Y5661566D01*
X8610126Y5667984D01*
X8718264Y5709699D02*
X8715055Y5716116D01*
X8708637Y5722534D01*
X8702220Y5725743D01*
X8689384D01*
X8682967Y5722534D01*
X8676549Y5716116D01*
X8673340Y5709699D01*
X8670131Y5700072D01*
Y5684028D01*
X8673340Y5674401D01*
X8676549Y5667984D01*
X8682967Y5661566D01*
X8689384Y5658357D01*
X8702220D01*
X8708637Y5661566D01*
X8715055Y5667984D01*
X8718264Y5674401D01*
X8737196Y5725743D02*
Y5658357D01*
Y5725743D02*
X8766075D01*
X8775702Y5722534D01*
X8778911Y5719325D01*
X8782120Y5712907D01*
Y5706490D01*
X8778911Y5700072D01*
X8775702Y5696863D01*
X8766075Y5693654D01*
X8737196D01*
X8759658D02*
X8782120Y5658357D01*
X8797201Y5725743D02*
Y5658357D01*
X8811320Y5690445D02*
X8840200D01*
X8849826Y5693654D01*
X8853035Y5696863D01*
X8856244Y5703281D01*
Y5712907D01*
X8853035Y5719325D01*
X8849826Y5722534D01*
X8840200Y5725743D01*
X8811320D01*
Y5658357D01*
X8893787Y5725743D02*
Y5658357D01*
X8871325Y5725743D02*
X8916249D01*
X8924271D02*
Y5658357D01*
X8957643Y5725743D02*
X8951225Y5722534D01*
X8944808Y5716116D01*
X8941599Y5709699D01*
X8938390Y5700072D01*
Y5684028D01*
X8941599Y5674401D01*
X8944808Y5667984D01*
X8951225Y5661566D01*
X8957643Y5658357D01*
X8970478D01*
X8976896Y5661566D01*
X8983314Y5667984D01*
X8986522Y5674401D01*
X8989731Y5684028D01*
Y5700072D01*
X8986522Y5709699D01*
X8983314Y5716116D01*
X8976896Y5722534D01*
X8970478Y5725743D01*
X8957643D01*
X9005455D02*
Y5658357D01*
Y5725743D02*
X9050378Y5658357D01*
Y5725743D02*
Y5658357D01*
X10136545Y5724562D02*
Y5657176D01*
Y5724562D02*
X10159007D01*
X10168634Y5721353D01*
X10175051Y5714935D01*
X10178260Y5708517D01*
X10181469Y5698891D01*
Y5682847D01*
X10178260Y5673220D01*
X10175051Y5666803D01*
X10168634Y5660385D01*
X10159007Y5657176D01*
X10136545D01*
X10247892D02*
X10222221Y5724562D01*
X10196550Y5657176D01*
X10206177Y5679638D02*
X10238265D01*
X10286077Y5724562D02*
Y5657176D01*
X10263615Y5724562D02*
X10308539D01*
X10358276D02*
X10316561D01*
Y5657176D01*
X10358276D01*
X10316561Y5692473D02*
X10342232D01*
X10776863Y5658357D02*
X10751192Y5725743D01*
X10725522Y5658357D01*
X10735148Y5680819D02*
X10767236D01*
X10792586Y5690445D02*
X10821466D01*
X10831092Y5693654D01*
X10834301Y5696863D01*
X10837510Y5703281D01*
Y5712907D01*
X10834301Y5719325D01*
X10831092Y5722534D01*
X10821466Y5725743D01*
X10792586D01*
Y5658357D01*
X10852591Y5690445D02*
X10881471D01*
X10891097Y5693654D01*
X10894306Y5696863D01*
X10897515Y5703281D01*
Y5712907D01*
X10894306Y5719325D01*
X10891097Y5722534D01*
X10881471Y5725743D01*
X10852591D01*
Y5658357D01*
X10912597Y5725743D02*
X10938267Y5658357D01*
X10963938Y5725743D02*
X10938267Y5658357D01*
X10972602Y5725743D02*
Y5658357D01*
Y5725743D02*
X10995064D01*
X11004690Y5722534D01*
X11011108Y5716116D01*
X11014317Y5709699D01*
X11017525Y5700072D01*
Y5684028D01*
X11014317Y5674401D01*
X11011108Y5667984D01*
X11004690Y5661566D01*
X10995064Y5658357D01*
X10972602D01*
X4975285Y-4697643D02*
Y-4765028D01*
X5034328Y-4707269D02*
X5027910Y-4700852D01*
X5018283Y-4697643D01*
X5005448D01*
X4995822Y-4700852D01*
X4989404Y-4707269D01*
Y-4713687D01*
X4992613Y-4720105D01*
X4995822Y-4723314D01*
X5002239Y-4726522D01*
X5021492Y-4732940D01*
X5027910Y-4736149D01*
X5031119Y-4739358D01*
X5034328Y-4745775D01*
Y-4755402D01*
X5027910Y-4761820D01*
X5018283Y-4765028D01*
X5005448D01*
X4995822Y-4761820D01*
X4989404Y-4755402D01*
X5094333Y-4707269D02*
X5087915Y-4700852D01*
X5078289Y-4697643D01*
X5065453D01*
X5055827Y-4700852D01*
X5049409Y-4707269D01*
Y-4713687D01*
X5052618Y-4720105D01*
X5055827Y-4723314D01*
X5062244Y-4726522D01*
X5081498Y-4732940D01*
X5087915Y-4736149D01*
X5091124Y-4739358D01*
X5094333Y-4745775D01*
Y-4755402D01*
X5087915Y-4761820D01*
X5078289Y-4765028D01*
X5065453D01*
X5055827Y-4761820D01*
X5049409Y-4755402D01*
X5109414Y-4697643D02*
Y-4745775D01*
X5112623Y-4755402D01*
X5119041Y-4761820D01*
X5128667Y-4765028D01*
X5135085D01*
X5144712Y-4761820D01*
X5151129Y-4755402D01*
X5154338Y-4745775D01*
Y-4697643D01*
X5214664D02*
X5172949D01*
Y-4765028D01*
X5214664D01*
X5172949Y-4729731D02*
X5198620D01*
X5225895Y-4697643D02*
Y-4765028D01*
Y-4697643D02*
X5248357D01*
X5257984Y-4700852D01*
X5264401Y-4707269D01*
X5267610Y-4713687D01*
X5270819Y-4723314D01*
Y-4739358D01*
X5267610Y-4748984D01*
X5264401Y-4755402D01*
X5257984Y-4761820D01*
X5248357Y-4765028D01*
X5225895D01*
X5043103Y-4414474D02*
X5039894Y-4408057D01*
X5033476Y-4401639D01*
X5027059Y-4398430D01*
X5014223D01*
X5007805Y-4401639D01*
X5001388Y-4408057D01*
X4998179Y-4414474D01*
X4994970Y-4424101D01*
Y-4440145D01*
X4998179Y-4449772D01*
X5001388Y-4456189D01*
X5007805Y-4462607D01*
X5014223Y-4465816D01*
X5027059D01*
X5033476Y-4462607D01*
X5039894Y-4456189D01*
X5043103Y-4449772D01*
X5062035Y-4398430D02*
Y-4465816D01*
X5106958Y-4398430D02*
Y-4465816D01*
X5062035Y-4430519D02*
X5106958D01*
X5167285Y-4398430D02*
X5125570D01*
Y-4465816D01*
X5167285D01*
X5125570Y-4430519D02*
X5151240D01*
X5226648Y-4414474D02*
X5223439Y-4408057D01*
X5217022Y-4401639D01*
X5210604Y-4398430D01*
X5197769D01*
X5191351Y-4401639D01*
X5184933Y-4408057D01*
X5181724Y-4414474D01*
X5178516Y-4424101D01*
Y-4440145D01*
X5181724Y-4449772D01*
X5184933Y-4456189D01*
X5191351Y-4462607D01*
X5197769Y-4465816D01*
X5210604D01*
X5217022Y-4462607D01*
X5223439Y-4456189D01*
X5226648Y-4449772D01*
X5245580Y-4398430D02*
Y-4465816D01*
X5290504Y-4398430D02*
X5245580Y-4443354D01*
X5261624Y-4427310D02*
X5290504Y-4465816D01*
X4994970Y-4083470D02*
Y-4150855D01*
Y-4083470D02*
X5017432D01*
X5027059Y-4086678D01*
X5033476Y-4093096D01*
X5036685Y-4099514D01*
X5039894Y-4109140D01*
Y-4125185D01*
X5036685Y-4134811D01*
X5033476Y-4141229D01*
X5027059Y-4147646D01*
X5017432Y-4150855D01*
X4994970D01*
X5054975Y-4083470D02*
Y-4150855D01*
Y-4083470D02*
X5083855D01*
X5093481Y-4086678D01*
X5096690Y-4089887D01*
X5099899Y-4096305D01*
Y-4102723D01*
X5096690Y-4109140D01*
X5093481Y-4112349D01*
X5083855Y-4115558D01*
X5054975D01*
X5077437D02*
X5099899Y-4150855D01*
X5166322D02*
X5140651Y-4083470D01*
X5114980Y-4150855D01*
X5124607Y-4128393D02*
X5156695D01*
X5182045Y-4083470D02*
X5198089Y-4150855D01*
X5214134Y-4083470D02*
X5198089Y-4150855D01*
X5214134Y-4083470D02*
X5230178Y-4150855D01*
X5246222Y-4083470D02*
X5230178Y-4150855D01*
X5259699Y-4083470D02*
Y-4150855D01*
Y-4083470D02*
X5304623Y-4150855D01*
Y-4083470D02*
Y-4150855D01*
X9879264Y-4760498D02*
X9872846Y-4754081D01*
X9863220Y-4750872D01*
X9850385D01*
X9840758Y-4754081D01*
X9834340Y-4760498D01*
Y-4766916D01*
X9837549Y-4773334D01*
X9840758Y-4776543D01*
X9847176Y-4779752D01*
X9866429Y-4786169D01*
X9872846Y-4789378D01*
X9876055Y-4792587D01*
X9879264Y-4799005D01*
Y-4808631D01*
X9872846Y-4815049D01*
X9863220Y-4818258D01*
X9850385D01*
X9840758Y-4815049D01*
X9834340Y-4808631D01*
X9894345Y-4750872D02*
Y-4818258D01*
X9939269Y-4750872D02*
Y-4818258D01*
X9894345Y-4782960D02*
X9939269D01*
X9999595Y-4750872D02*
X9957880D01*
Y-4818258D01*
X9999595D01*
X9957880Y-4782960D02*
X9983551D01*
X10052541Y-4750872D02*
X10010826D01*
Y-4818258D01*
X10052541D01*
X10010826Y-4782960D02*
X10036497D01*
X10086234Y-4750872D02*
Y-4818258D01*
X10063772Y-4750872D02*
X10108696D01*
X10328501Y-4763707D02*
X10334919Y-4760498D01*
X10344545Y-4750872D01*
Y-4818258D01*
X10661899Y-4750872D02*
X10655481Y-4754081D01*
X10649064Y-4760498D01*
X10645855Y-4766916D01*
X10642646Y-4776543D01*
Y-4792587D01*
X10645855Y-4802213D01*
X10649064Y-4808631D01*
X10655481Y-4815049D01*
X10661899Y-4818258D01*
X10674735D01*
X10681152Y-4815049D01*
X10687570Y-4808631D01*
X10690779Y-4802213D01*
X10693988Y-4792587D01*
Y-4776543D01*
X10690779Y-4766916D01*
X10687570Y-4760498D01*
X10681152Y-4754081D01*
X10674735Y-4750872D01*
X10661899D01*
X10709711D02*
Y-4818258D01*
Y-4750872D02*
X10751426D01*
X10709711Y-4782960D02*
X10735382D01*
X11023856Y-4763707D02*
X11030274Y-4760498D01*
X11039900Y-4750872D01*
Y-4818258D01*
X8788514Y5910782D02*
Y5843396D01*
Y5910782D02*
X8817393D01*
X8827020Y5907573D01*
X8830228Y5904364D01*
X8833437Y5897947D01*
Y5891529D01*
X8830228Y5885111D01*
X8827020Y5881903D01*
X8817393Y5878694D01*
X8788514D01*
X8810976D02*
X8833437Y5843396D01*
X8890234Y5910782D02*
X8848519D01*
Y5843396D01*
X8890234D01*
X8848519Y5878694D02*
X8874190D01*
X8901465Y5910782D02*
X8927135Y5843396D01*
X8952806Y5910782D02*
X8927135Y5843396D01*
X8961470Y5910782D02*
Y5843396D01*
X9020512Y5901156D02*
X9014095Y5907573D01*
X9004468Y5910782D01*
X8991633D01*
X8982006Y5907573D01*
X8975589Y5901156D01*
Y5894738D01*
X8978798Y5888320D01*
X8982006Y5885111D01*
X8988424Y5881903D01*
X9007677Y5875485D01*
X9014095Y5872276D01*
X9017304Y5869067D01*
X9020512Y5862650D01*
Y5853023D01*
X9014095Y5846605D01*
X9004468Y5843396D01*
X8991633D01*
X8982006Y5846605D01*
X8975589Y5853023D01*
X9035594Y5910782D02*
Y5843396D01*
X9068966Y5910782D02*
X9062548Y5907573D01*
X9056130Y5901156D01*
X9052922Y5894738D01*
X9049713Y5885111D01*
Y5869067D01*
X9052922Y5859441D01*
X9056130Y5853023D01*
X9062548Y5846605D01*
X9068966Y5843396D01*
X9081801D01*
X9088219Y5846605D01*
X9094637Y5853023D01*
X9097845Y5859441D01*
X9101054Y5869067D01*
Y5885111D01*
X9097845Y5894738D01*
X9094637Y5901156D01*
X9088219Y5907573D01*
X9081801Y5910782D01*
X9068966D01*
X9116778D02*
Y5843396D01*
Y5910782D02*
X9161701Y5843396D01*
Y5910782D02*
Y5843396D01*
X9225236Y5901156D02*
X9218818Y5907573D01*
X9209192Y5910782D01*
X9196357D01*
X9186730Y5907573D01*
X9180312Y5901156D01*
Y5894738D01*
X9183521Y5888320D01*
X9186730Y5885111D01*
X9193148Y5881903D01*
X9212401Y5875485D01*
X9218818Y5872276D01*
X9222027Y5869067D01*
X9225236Y5862650D01*
Y5853023D01*
X9218818Y5846605D01*
X9209192Y5843396D01*
X9196357D01*
X9186730Y5846605D01*
X9180312Y5853023D01*
X5262687Y-3532289D02*
Y-3599674D01*
Y-3532289D02*
X5285149D01*
X5294775Y-3535497D01*
X5301193Y-3541915D01*
X5304402Y-3548333D01*
X5307610Y-3557959D01*
Y-3574003D01*
X5304402Y-3583630D01*
X5301193Y-3590048D01*
X5294775Y-3596465D01*
X5285149Y-3599674D01*
X5262687D01*
X5341945Y-3532289D02*
X5335527Y-3535497D01*
X5329110Y-3541915D01*
X5325901Y-3548333D01*
X5322692Y-3557959D01*
Y-3574003D01*
X5325901Y-3583630D01*
X5329110Y-3590048D01*
X5335527Y-3596465D01*
X5341945Y-3599674D01*
X5354780D01*
X5361198Y-3596465D01*
X5367616Y-3590048D01*
X5370824Y-3583630D01*
X5374033Y-3574003D01*
Y-3557959D01*
X5370824Y-3548333D01*
X5367616Y-3541915D01*
X5361198Y-3535497D01*
X5354780Y-3532289D01*
X5341945D01*
X5442702D02*
Y-3599674D01*
Y-3532289D02*
X5487626Y-3599674D01*
Y-3532289D02*
Y-3599674D01*
X5525490Y-3532289D02*
X5519073Y-3535497D01*
X5512655Y-3541915D01*
X5509446Y-3548333D01*
X5506237Y-3557959D01*
Y-3574003D01*
X5509446Y-3583630D01*
X5512655Y-3590048D01*
X5519073Y-3596465D01*
X5525490Y-3599674D01*
X5538326D01*
X5544743Y-3596465D01*
X5551161Y-3590048D01*
X5554370Y-3583630D01*
X5557579Y-3574003D01*
Y-3557959D01*
X5554370Y-3548333D01*
X5551161Y-3541915D01*
X5544743Y-3535497D01*
X5538326Y-3532289D01*
X5525490D01*
X5595764D02*
Y-3599674D01*
X5573302Y-3532289D02*
X5618226D01*
X5724117Y-3541915D02*
X5717700Y-3535497D01*
X5708073Y-3532289D01*
X5695238D01*
X5685611Y-3535497D01*
X5679194Y-3541915D01*
Y-3548333D01*
X5682403Y-3554750D01*
X5685611Y-3557959D01*
X5692029Y-3561168D01*
X5711282Y-3567586D01*
X5717700Y-3570795D01*
X5720909Y-3574003D01*
X5724117Y-3580421D01*
Y-3590048D01*
X5717700Y-3596465D01*
X5708073Y-3599674D01*
X5695238D01*
X5685611Y-3596465D01*
X5679194Y-3590048D01*
X5787331Y-3548333D02*
X5784123Y-3541915D01*
X5777705Y-3535497D01*
X5771287Y-3532289D01*
X5758452D01*
X5752034Y-3535497D01*
X5745617Y-3541915D01*
X5742408Y-3548333D01*
X5739199Y-3557959D01*
Y-3574003D01*
X5742408Y-3583630D01*
X5745617Y-3590048D01*
X5752034Y-3596465D01*
X5758452Y-3599674D01*
X5771287D01*
X5777705Y-3596465D01*
X5784123Y-3590048D01*
X5787331Y-3583630D01*
X5857605Y-3599674D02*
X5831934Y-3532289D01*
X5806264Y-3599674D01*
X5815890Y-3577212D02*
X5847979D01*
X5873328Y-3532289D02*
Y-3599674D01*
X5911834D01*
X5960930Y-3532289D02*
X5919215D01*
Y-3599674D01*
X5960930D01*
X5919215Y-3564377D02*
X5944885D01*
X6025106Y-3532289D02*
Y-3599674D01*
Y-3532289D02*
X6047568D01*
X6057195Y-3535497D01*
X6063612Y-3541915D01*
X6066821Y-3548333D01*
X6070030Y-3557959D01*
Y-3574003D01*
X6066821Y-3583630D01*
X6063612Y-3590048D01*
X6057195Y-3596465D01*
X6047568Y-3599674D01*
X6025106D01*
X6085111Y-3532289D02*
Y-3599674D01*
Y-3532289D02*
X6113991D01*
X6123618Y-3535497D01*
X6126826Y-3538706D01*
X6130035Y-3545124D01*
Y-3551542D01*
X6126826Y-3557959D01*
X6123618Y-3561168D01*
X6113991Y-3564377D01*
X6085111D01*
X6107573D02*
X6130035Y-3599674D01*
X6196458D02*
X6170787Y-3532289D01*
X6145117Y-3599674D01*
X6154743Y-3577212D02*
X6186832D01*
X6212181Y-3532289D02*
X6228226Y-3599674D01*
X6244270Y-3532289D02*
X6228226Y-3599674D01*
X6244270Y-3532289D02*
X6260314Y-3599674D01*
X6276358Y-3532289D02*
X6260314Y-3599674D01*
X6289835Y-3532289D02*
Y-3599674D01*
X6303954Y-3532289D02*
Y-3599674D01*
Y-3532289D02*
X6348878Y-3599674D01*
Y-3532289D02*
Y-3599674D01*
X6415622Y-3548333D02*
X6412413Y-3541915D01*
X6405995Y-3535497D01*
X6399578Y-3532289D01*
X6386742D01*
X6380324Y-3535497D01*
X6373907Y-3541915D01*
X6370698Y-3548333D01*
X6367489Y-3557959D01*
Y-3574003D01*
X6370698Y-3583630D01*
X6373907Y-3590048D01*
X6380324Y-3596465D01*
X6386742Y-3599674D01*
X6399578D01*
X6405995Y-3596465D01*
X6412413Y-3590048D01*
X6415622Y-3583630D01*
Y-3574003D01*
X6399578D02*
X6415622D01*
X5318753Y-3921258D02*
X5293082Y-3853873D01*
X5267411Y-3921258D01*
X5277038Y-3898796D02*
X5309126D01*
X5334476Y-3889170D02*
X5363355D01*
X5372982Y-3885961D01*
X5376191Y-3882752D01*
X5379400Y-3876335D01*
Y-3866708D01*
X5376191Y-3860290D01*
X5372982Y-3857082D01*
X5363355Y-3853873D01*
X5334476D01*
Y-3921258D01*
X5394481Y-3889170D02*
X5423361D01*
X5432987Y-3885961D01*
X5436196Y-3882752D01*
X5439405Y-3876335D01*
Y-3866708D01*
X5436196Y-3860290D01*
X5432987Y-3857082D01*
X5423361Y-3853873D01*
X5394481D01*
Y-3921258D01*
X5454486Y-3853873D02*
Y-3921258D01*
Y-3853873D02*
X5483366D01*
X5492992Y-3857082D01*
X5496201Y-3860290D01*
X5499410Y-3866708D01*
Y-3873126D01*
X5496201Y-3879543D01*
X5492992Y-3882752D01*
X5483366Y-3885961D01*
X5454486D01*
X5476948D02*
X5499410Y-3921258D01*
X5533744Y-3853873D02*
X5527327Y-3857082D01*
X5520909Y-3863499D01*
X5517700Y-3869917D01*
X5514492Y-3879543D01*
Y-3895588D01*
X5517700Y-3905214D01*
X5520909Y-3911632D01*
X5527327Y-3918050D01*
X5533744Y-3921258D01*
X5546580D01*
X5552998Y-3918050D01*
X5559415Y-3911632D01*
X5562624Y-3905214D01*
X5565833Y-3895588D01*
Y-3879543D01*
X5562624Y-3869917D01*
X5559415Y-3863499D01*
X5552998Y-3857082D01*
X5546580Y-3853873D01*
X5533744D01*
X5581556D02*
X5607227Y-3921258D01*
X5632898Y-3853873D02*
X5607227Y-3921258D01*
X5692903D02*
X5667232Y-3853873D01*
X5641561Y-3921258D01*
X5651188Y-3898796D02*
X5683276D01*
X5708626Y-3853873D02*
Y-3921258D01*
X5747132D01*
X5799436Y-3863499D02*
X5793019Y-3857082D01*
X5783392Y-3853873D01*
X5770557D01*
X5760930Y-3857082D01*
X5754512Y-3863499D01*
Y-3869917D01*
X5757721Y-3876335D01*
X5760930Y-3879543D01*
X5767348Y-3882752D01*
X5786601Y-3889170D01*
X5793019Y-3892379D01*
X5796227Y-3895588D01*
X5799436Y-3902005D01*
Y-3911632D01*
X5793019Y-3918050D01*
X5783392Y-3921258D01*
X5770557D01*
X5760930Y-3918050D01*
X5754512Y-3911632D01*
X6365836Y-3853873D02*
Y-3921258D01*
Y-3853873D02*
X6388298D01*
X6397925Y-3857082D01*
X6404342Y-3863499D01*
X6407551Y-3869917D01*
X6410760Y-3879543D01*
Y-3895588D01*
X6407551Y-3905214D01*
X6404342Y-3911632D01*
X6397925Y-3918050D01*
X6388298Y-3921258D01*
X6365836D01*
X6477183D02*
X6451512Y-3853873D01*
X6425842Y-3921258D01*
X6435468Y-3898796D02*
X6467556D01*
X6515368Y-3853873D02*
Y-3921258D01*
X6492906Y-3853873D02*
X6537830D01*
X6587567D02*
X6545852D01*
Y-3921258D01*
X6587567D01*
X6545852Y-3885961D02*
X6571523D01*
D128*
X6135246Y-4158271D02*
X6170544D01*
X6151291Y-4183942D01*
X6160918D01*
X6167335Y-4187151D01*
X6170544Y-4190360D01*
X6173753Y-4199987D01*
Y-4206405D01*
X6170544Y-4216032D01*
X6164127Y-4222449D01*
X6154500Y-4225658D01*
X6144873D01*
X6135246Y-4222449D01*
X6132037Y-4219240D01*
X6128828Y-4212823D01*
X6188835Y-4171107D02*
X6195253Y-4167898D01*
X6204880Y-4158271D01*
Y-4225658D01*
X6238252Y-4196778D02*
X6296013D01*
X6315908Y-4158271D02*
Y-4225658D01*
Y-4158271D02*
X6341579Y-4225658D01*
X6367251Y-4158271D02*
X6341579Y-4225658D01*
X6367251Y-4158271D02*
Y-4225658D01*
X6437847D02*
X6412176Y-4158271D01*
X6386504Y-4225658D01*
X6396131Y-4203196D02*
X6428220D01*
X6453570Y-4158271D02*
X6479242Y-4190360D01*
Y-4225658D01*
X6504913Y-4158271D02*
X6479242Y-4190360D01*
X6513577Y-4196778D02*
X6571338D01*
X6594442Y-4174316D02*
Y-4171107D01*
X6597651Y-4164689D01*
X6600860Y-4161480D01*
X6607278Y-4158271D01*
X6620113D01*
X6626531Y-4161480D01*
X6629740Y-4164689D01*
X6632949Y-4171107D01*
Y-4177525D01*
X6629740Y-4183942D01*
X6623322Y-4193569D01*
X6591233Y-4225658D01*
X6636158D01*
X6670493Y-4158271D02*
X6660866Y-4161480D01*
X6654449Y-4171107D01*
X6651240Y-4187151D01*
Y-4196778D01*
X6654449Y-4212823D01*
X6660866Y-4222449D01*
X6670493Y-4225658D01*
X6676911D01*
X6686538Y-4222449D01*
X6692956Y-4212823D01*
X6696164Y-4196778D01*
Y-4187151D01*
X6692956Y-4171107D01*
X6686538Y-4161480D01*
X6676911Y-4158271D01*
X6670493D01*
X6711246Y-4171107D02*
X6717664Y-4167898D01*
X6727291Y-4158271D01*
Y-4225658D01*
X6802379Y-4180734D02*
X6799170Y-4190360D01*
X6792753Y-4196778D01*
X6783126Y-4199987D01*
X6779917D01*
X6770290Y-4196778D01*
X6763872Y-4190360D01*
X6760663Y-4180734D01*
Y-4177525D01*
X6763872Y-4167898D01*
X6770290Y-4161480D01*
X6779917Y-4158271D01*
X6783126D01*
X6792753Y-4161480D01*
X6799170Y-4167898D01*
X6802379Y-4180734D01*
Y-4196778D01*
X6799170Y-4212823D01*
X6792753Y-4222449D01*
X6783126Y-4225658D01*
X6776708D01*
X6767081Y-4222449D01*
X6763872Y-4216032D01*
D129*
X5077647Y-3180728D02*
Y-3323690D01*
Y-3180728D02*
X5132109Y-3323690D01*
X5186570Y-3180728D02*
X5132109Y-3323690D01*
X5186570Y-3180728D02*
Y-3323690D01*
X5315917Y-3180728D02*
X5227417D01*
Y-3323690D01*
X5315917D01*
X5227417Y-3248805D02*
X5281878D01*
X5387397Y-3180728D02*
Y-3323690D01*
X5339743Y-3180728D02*
X5435051D01*
X5452070D02*
Y-3323690D01*
Y-3180728D02*
X5513340D01*
X5533763Y-3187536D01*
X5540570Y-3194344D01*
X5547378Y-3207959D01*
Y-3221575D01*
X5540570Y-3235190D01*
X5533763Y-3241997D01*
X5513340Y-3248805D01*
X5452070D01*
X5499724D02*
X5547378Y-3323690D01*
X5579374Y-3180728D02*
Y-3323690D01*
X5711443Y-3214767D02*
X5704636Y-3201151D01*
X5691020Y-3187536D01*
X5677405Y-3180728D01*
X5650174D01*
X5636559Y-3187536D01*
X5622943Y-3201151D01*
X5616136Y-3214767D01*
X5609328Y-3235190D01*
Y-3269228D01*
X5616136Y-3289651D01*
X5622943Y-3303267D01*
X5636559Y-3316882D01*
X5650174Y-3323690D01*
X5677405D01*
X5691020Y-3316882D01*
X5704636Y-3303267D01*
X5711443Y-3289651D01*
X5863935Y-3194344D02*
Y-3330497D01*
X5870743Y-3194344D02*
Y-3330497D01*
X5863935Y-3194344D02*
X5897974D01*
X5863935Y-3330497D02*
X5897974D01*
X6028682Y-3180728D02*
Y-3323690D01*
X6058635Y-3180728D02*
Y-3323690D01*
Y-3180728D02*
X6153943Y-3323690D01*
Y-3180728D02*
Y-3323690D01*
X6295543Y-3214767D02*
X6288735Y-3201151D01*
X6275120Y-3187536D01*
X6261505Y-3180728D01*
X6234274D01*
X6220658Y-3187536D01*
X6207043Y-3201151D01*
X6200235Y-3214767D01*
X6193428Y-3235190D01*
Y-3269228D01*
X6200235Y-3289651D01*
X6207043Y-3303267D01*
X6220658Y-3316882D01*
X6234274Y-3323690D01*
X6261505D01*
X6275120Y-3316882D01*
X6288735Y-3303267D01*
X6295543Y-3289651D01*
X6335708Y-3180728D02*
Y-3323690D01*
X6431016Y-3180728D02*
Y-3323690D01*
X6335708Y-3248805D02*
X6431016D01*
X6610058Y-3194344D02*
Y-3330497D01*
X6616866Y-3194344D02*
Y-3330497D01*
X6582827Y-3194344D02*
X6616866D01*
X6582827Y-3330497D02*
X6616866D01*
%TF.MD5,7169ad085ab572e57cc183a917e21086*%
M02*
