G04*
G04 #@! TF.GenerationSoftware,Altium Limited,Altium Designer,20.1.11 (218)*
G04*
G04 Layer_Color=16711935*
%FSLAX25Y25*%
%MOIN*%
G70*
G04*
G04 #@! TF.SameCoordinates,49FD3369-56E0-4B66-BF1D-E122077B7428*
G04*
G04*
G04 #@! TF.FilePolarity,Positive*
G04*
G01*
G75*
%ADD12C,0.00787*%
%ADD13C,0.00394*%
%ADD126C,0.00197*%
G36*
X64907Y76068D02*
X64947Y76010D01*
X64994Y75951D01*
X65038Y75901D01*
X65081Y75857D01*
X65114Y75820D01*
X65129Y75810D01*
X65140Y75799D01*
X65143Y75795D01*
X65147Y75791D01*
X65223Y75729D01*
X65300Y75671D01*
X65373Y75620D01*
X65445Y75580D01*
X65507Y75544D01*
X65533Y75529D01*
X65555Y75518D01*
X65573Y75507D01*
X65587Y75504D01*
X65595Y75496D01*
X65598D01*
Y75198D01*
X65544Y75220D01*
X65489Y75245D01*
X65434Y75271D01*
X65383Y75296D01*
X65340Y75318D01*
X65303Y75336D01*
X65282Y75351D01*
X65278Y75354D01*
X65274D01*
X65209Y75394D01*
X65150Y75435D01*
X65100Y75471D01*
X65060Y75504D01*
X65023Y75529D01*
X65001Y75551D01*
X64983Y75566D01*
X64979Y75569D01*
Y73600D01*
X64670D01*
Y76130D01*
X64870D01*
X64907Y76068D01*
D02*
G37*
G36*
X68070Y73600D02*
X67735D01*
Y74474D01*
X67324Y74870D01*
X66428Y73600D01*
X65988D01*
X67091Y75096D01*
X66035Y76119D01*
X66490D01*
X67735Y74867D01*
Y76119D01*
X68070D01*
Y73600D01*
D02*
G37*
G36*
X71000D02*
X70680D01*
Y75744D01*
X69952Y73600D01*
X69653D01*
X68918Y75708D01*
Y73600D01*
X68598D01*
Y76119D01*
X69045D01*
X69650Y74364D01*
X69682Y74270D01*
X69708Y74190D01*
X69733Y74120D01*
X69752Y74062D01*
X69766Y74019D01*
X69777Y73986D01*
X69781Y73968D01*
X69784Y73960D01*
X69799Y74011D01*
X69817Y74070D01*
X69839Y74131D01*
X69857Y74193D01*
X69875Y74248D01*
X69890Y74292D01*
X69897Y74310D01*
X69901Y74321D01*
X69904Y74328D01*
Y74332D01*
X70501Y76119D01*
X71000D01*
Y73600D01*
D02*
G37*
G36*
X43800Y66187D02*
Y66114D01*
X43796Y66045D01*
X43793Y65980D01*
X43785Y65918D01*
X43778Y65863D01*
X43771Y65812D01*
X43760Y65765D01*
X43753Y65721D01*
X43745Y65681D01*
X43734Y65649D01*
X43727Y65619D01*
X43720Y65597D01*
X43713Y65579D01*
X43709Y65565D01*
X43705Y65557D01*
Y65554D01*
X43665Y65474D01*
X43614Y65401D01*
X43563Y65343D01*
X43509Y65292D01*
X43461Y65252D01*
X43421Y65223D01*
X43407Y65215D01*
X43396Y65208D01*
X43389Y65201D01*
X43385D01*
X43294Y65161D01*
X43199Y65132D01*
X43101Y65110D01*
X43010Y65095D01*
X42970Y65092D01*
X42930Y65088D01*
X42894Y65084D01*
X42864D01*
X42839Y65081D01*
X42806D01*
X42675Y65088D01*
X42617Y65095D01*
X42562Y65102D01*
X42508Y65113D01*
X42460Y65124D01*
X42417Y65135D01*
X42377Y65150D01*
X42340Y65164D01*
X42311Y65175D01*
X42282Y65186D01*
X42260Y65197D01*
X42242Y65208D01*
X42231Y65212D01*
X42224Y65219D01*
X42220D01*
X42140Y65274D01*
X42075Y65335D01*
X42024Y65394D01*
X41980Y65452D01*
X41947Y65503D01*
X41925Y65543D01*
X41918Y65557D01*
X41911Y65568D01*
X41907Y65576D01*
Y65579D01*
X41893Y65623D01*
X41878Y65670D01*
X41856Y65769D01*
X41842Y65870D01*
X41831Y65969D01*
X41827Y66013D01*
X41823Y66056D01*
Y66093D01*
X41820Y66125D01*
Y66151D01*
Y66169D01*
Y66184D01*
Y66187D01*
Y67643D01*
X42155D01*
Y66187D01*
Y66104D01*
X42162Y66023D01*
X42169Y65954D01*
X42180Y65889D01*
X42191Y65830D01*
X42206Y65776D01*
X42217Y65729D01*
X42231Y65689D01*
X42246Y65656D01*
X42260Y65623D01*
X42275Y65601D01*
X42286Y65579D01*
X42297Y65565D01*
X42304Y65554D01*
X42307Y65550D01*
X42311Y65547D01*
X42344Y65517D01*
X42380Y65492D01*
X42460Y65452D01*
X42544Y65423D01*
X42632Y65405D01*
X42712Y65390D01*
X42744Y65386D01*
X42777D01*
X42799Y65383D01*
X42835D01*
X42912Y65386D01*
X42981Y65397D01*
X43046Y65408D01*
X43097Y65426D01*
X43141Y65441D01*
X43174Y65452D01*
X43192Y65463D01*
X43199Y65466D01*
X43250Y65499D01*
X43294Y65539D01*
X43330Y65579D01*
X43356Y65616D01*
X43378Y65652D01*
X43396Y65678D01*
X43403Y65696D01*
X43407Y65703D01*
X43418Y65736D01*
X43425Y65769D01*
X43440Y65845D01*
X43450Y65925D01*
X43458Y66005D01*
X43461Y66074D01*
Y66107D01*
X43465Y66133D01*
Y66154D01*
Y66173D01*
Y66184D01*
Y66187D01*
Y67643D01*
X43800D01*
Y66187D01*
D02*
G37*
G36*
X41496Y66013D02*
Y65729D01*
X40400D01*
Y65124D01*
X40091D01*
Y65729D01*
X39749D01*
Y66013D01*
X40091D01*
Y67643D01*
X40342D01*
X41496Y66013D01*
D02*
G37*
G36*
X48187Y85128D02*
X48125Y85092D01*
X48067Y85052D01*
X48009Y85005D01*
X47958Y84961D01*
X47914Y84917D01*
X47878Y84884D01*
X47867Y84870D01*
X47856Y84859D01*
X47853Y84855D01*
X47849Y84852D01*
X47787Y84775D01*
X47729Y84699D01*
X47678Y84626D01*
X47638Y84553D01*
X47601Y84491D01*
X47587Y84466D01*
X47576Y84444D01*
X47565Y84426D01*
X47561Y84411D01*
X47554Y84404D01*
Y84400D01*
X47256D01*
X47277Y84455D01*
X47303Y84509D01*
X47328Y84564D01*
X47354Y84615D01*
X47376Y84659D01*
X47394Y84695D01*
X47408Y84717D01*
X47412Y84720D01*
Y84724D01*
X47452Y84790D01*
X47492Y84848D01*
X47528Y84899D01*
X47561Y84939D01*
X47587Y84975D01*
X47609Y84997D01*
X47623Y85015D01*
X47627Y85019D01*
X45658D01*
Y85328D01*
X48187D01*
Y85128D01*
D02*
G37*
G36*
Y83170D02*
X48125Y83134D01*
X48067Y83094D01*
X48009Y83046D01*
X47958Y83003D01*
X47914Y82959D01*
X47878Y82926D01*
X47867Y82911D01*
X47856Y82901D01*
X47853Y82897D01*
X47849Y82893D01*
X47787Y82817D01*
X47729Y82740D01*
X47678Y82668D01*
X47638Y82595D01*
X47601Y82533D01*
X47587Y82507D01*
X47576Y82486D01*
X47565Y82467D01*
X47561Y82453D01*
X47554Y82446D01*
Y82442D01*
X47256D01*
X47277Y82497D01*
X47303Y82551D01*
X47328Y82606D01*
X47354Y82657D01*
X47376Y82700D01*
X47394Y82737D01*
X47408Y82759D01*
X47412Y82762D01*
Y82766D01*
X47452Y82831D01*
X47492Y82890D01*
X47528Y82941D01*
X47561Y82981D01*
X47587Y83017D01*
X47609Y83039D01*
X47623Y83057D01*
X47627Y83061D01*
X45658D01*
Y83370D01*
X48187D01*
Y83170D01*
D02*
G37*
G36*
X46538Y81586D02*
X46480Y81572D01*
X46426Y81554D01*
X46375Y81536D01*
X46327Y81517D01*
X46284Y81495D01*
X46247Y81474D01*
X46211Y81448D01*
X46178Y81426D01*
X46149Y81408D01*
X46127Y81386D01*
X46105Y81368D01*
X46087Y81353D01*
X46076Y81339D01*
X46065Y81328D01*
X46062Y81324D01*
X46058Y81321D01*
X46029Y81284D01*
X46007Y81244D01*
X45967Y81164D01*
X45938Y81088D01*
X45920Y81011D01*
X45905Y80946D01*
X45901Y80920D01*
Y80895D01*
X45898Y80873D01*
Y80848D01*
X45901Y80764D01*
X45916Y80684D01*
X45934Y80611D01*
X45956Y80546D01*
X45978Y80494D01*
X45989Y80473D01*
X45996Y80454D01*
X46003Y80440D01*
X46011Y80429D01*
X46014Y80422D01*
Y80418D01*
X46065Y80349D01*
X46120Y80291D01*
X46182Y80240D01*
X46240Y80200D01*
X46291Y80167D01*
X46335Y80145D01*
X46353Y80138D01*
X46364Y80130D01*
X46371Y80127D01*
X46375D01*
X46469Y80098D01*
X46564Y80076D01*
X46659Y80058D01*
X46746Y80047D01*
X46786Y80043D01*
X46822Y80040D01*
X46855D01*
X46881Y80036D01*
X46902D01*
X46921D01*
X46932D01*
X46935D01*
X47030Y80040D01*
X47117Y80047D01*
X47197Y80061D01*
X47270Y80076D01*
X47332Y80087D01*
X47357Y80094D01*
X47379Y80101D01*
X47398Y80105D01*
X47408Y80109D01*
X47416Y80112D01*
X47419D01*
X47503Y80149D01*
X47580Y80189D01*
X47641Y80232D01*
X47696Y80280D01*
X47740Y80320D01*
X47769Y80352D01*
X47787Y80378D01*
X47794Y80382D01*
Y80385D01*
X47842Y80462D01*
X47878Y80546D01*
X47903Y80625D01*
X47918Y80702D01*
X47929Y80771D01*
X47933Y80800D01*
Y80826D01*
X47936Y80844D01*
Y80873D01*
X47933Y80964D01*
X47918Y81048D01*
X47896Y81117D01*
X47874Y81179D01*
X47849Y81226D01*
X47831Y81262D01*
X47816Y81284D01*
X47809Y81292D01*
X47754Y81350D01*
X47692Y81405D01*
X47627Y81448D01*
X47561Y81485D01*
X47503Y81514D01*
X47474Y81525D01*
X47452Y81532D01*
X47434Y81539D01*
X47419Y81546D01*
X47412Y81550D01*
X47408D01*
X47485Y81878D01*
X47550Y81856D01*
X47609Y81834D01*
X47663Y81805D01*
X47718Y81779D01*
X47765Y81750D01*
X47809Y81717D01*
X47853Y81688D01*
X47889Y81659D01*
X47918Y81630D01*
X47947Y81605D01*
X47973Y81579D01*
X47991Y81561D01*
X48009Y81543D01*
X48020Y81528D01*
X48024Y81521D01*
X48027Y81517D01*
X48060Y81466D01*
X48093Y81415D01*
X48118Y81365D01*
X48140Y81310D01*
X48173Y81201D01*
X48195Y81102D01*
X48206Y81055D01*
X48209Y81015D01*
X48213Y80975D01*
X48217Y80942D01*
X48220Y80917D01*
Y80880D01*
X48213Y80760D01*
X48195Y80644D01*
X48173Y80542D01*
X48158Y80494D01*
X48144Y80451D01*
X48129Y80411D01*
X48115Y80374D01*
X48104Y80345D01*
X48093Y80316D01*
X48082Y80298D01*
X48074Y80283D01*
X48071Y80273D01*
X48067Y80269D01*
X48005Y80171D01*
X47933Y80087D01*
X47860Y80014D01*
X47787Y79952D01*
X47721Y79905D01*
X47692Y79887D01*
X47667Y79872D01*
X47649Y79857D01*
X47634Y79850D01*
X47623Y79847D01*
X47620Y79843D01*
X47507Y79792D01*
X47390Y79756D01*
X47274Y79730D01*
X47168Y79712D01*
X47121Y79705D01*
X47074Y79701D01*
X47037Y79697D01*
X47001D01*
X46975Y79694D01*
X46953D01*
X46939D01*
X46935D01*
X46804Y79701D01*
X46677Y79716D01*
X46564Y79734D01*
X46509Y79748D01*
X46462Y79759D01*
X46418Y79770D01*
X46378Y79785D01*
X46342Y79796D01*
X46313Y79803D01*
X46291Y79814D01*
X46273Y79817D01*
X46262Y79825D01*
X46258D01*
X46149Y79879D01*
X46051Y79941D01*
X45967Y80007D01*
X45934Y80040D01*
X45901Y80069D01*
X45872Y80098D01*
X45847Y80127D01*
X45825Y80152D01*
X45810Y80174D01*
X45796Y80189D01*
X45785Y80203D01*
X45781Y80211D01*
X45778Y80214D01*
X45749Y80265D01*
X45723Y80316D01*
X45683Y80425D01*
X45654Y80534D01*
X45636Y80640D01*
X45628Y80691D01*
X45621Y80735D01*
X45617Y80775D01*
Y80808D01*
X45614Y80837D01*
Y80877D01*
X45617Y80949D01*
X45625Y81019D01*
X45632Y81084D01*
X45647Y81146D01*
X45665Y81204D01*
X45683Y81259D01*
X45701Y81310D01*
X45723Y81357D01*
X45741Y81397D01*
X45759Y81437D01*
X45778Y81466D01*
X45796Y81495D01*
X45810Y81514D01*
X45818Y81532D01*
X45825Y81539D01*
X45829Y81543D01*
X45872Y81594D01*
X45916Y81638D01*
X45967Y81678D01*
X46018Y81717D01*
X46120Y81783D01*
X46222Y81834D01*
X46269Y81856D01*
X46313Y81874D01*
X46353Y81889D01*
X46386Y81899D01*
X46415Y81911D01*
X46437Y81918D01*
X46451Y81921D01*
X46455D01*
X46538Y81586D01*
D02*
G37*
G36*
X43233Y85605D02*
X43292D01*
X43350Y85602D01*
X43401Y85594D01*
X43452Y85591D01*
X43496Y85587D01*
X43536Y85580D01*
X43572Y85576D01*
X43605Y85569D01*
X43630Y85565D01*
X43652Y85562D01*
X43670Y85558D01*
X43681Y85554D01*
X43688Y85551D01*
X43692D01*
X43772Y85529D01*
X43845Y85503D01*
X43907Y85474D01*
X43962Y85452D01*
X44009Y85427D01*
X44042Y85412D01*
X44060Y85398D01*
X44067Y85394D01*
X44122Y85354D01*
X44169Y85314D01*
X44209Y85270D01*
X44245Y85230D01*
X44271Y85194D01*
X44289Y85165D01*
X44300Y85147D01*
X44304Y85143D01*
Y85139D01*
X44333Y85081D01*
X44351Y85019D01*
X44366Y84961D01*
X44376Y84906D01*
X44384Y84859D01*
X44387Y84819D01*
Y84786D01*
X44380Y84688D01*
X44366Y84597D01*
X44340Y84521D01*
X44315Y84455D01*
X44285Y84400D01*
X44275Y84379D01*
X44260Y84360D01*
X44253Y84346D01*
X44245Y84335D01*
X44238Y84331D01*
Y84328D01*
X44180Y84262D01*
X44111Y84207D01*
X44042Y84160D01*
X43976Y84124D01*
X43914Y84095D01*
X43889Y84080D01*
X43863Y84073D01*
X43845Y84066D01*
X43830Y84058D01*
X43823Y84055D01*
X43819D01*
X43765Y84040D01*
X43710Y84026D01*
X43590Y84004D01*
X43470Y83986D01*
X43357Y83974D01*
X43303Y83971D01*
X43255Y83967D01*
X43212D01*
X43172Y83964D01*
X43143D01*
X43117D01*
X43102D01*
X43099D01*
X42971Y83967D01*
X42851Y83974D01*
X42742Y83986D01*
X42640Y84004D01*
X42546Y84022D01*
X42462Y84044D01*
X42385Y84066D01*
X42320Y84087D01*
X42262Y84109D01*
X42211Y84135D01*
X42167Y84153D01*
X42134Y84171D01*
X42105Y84189D01*
X42087Y84200D01*
X42076Y84207D01*
X42072Y84211D01*
X42029Y84251D01*
X41989Y84295D01*
X41952Y84342D01*
X41923Y84390D01*
X41898Y84437D01*
X41876Y84484D01*
X41861Y84531D01*
X41847Y84575D01*
X41836Y84619D01*
X41828Y84659D01*
X41821Y84695D01*
X41818Y84724D01*
X41814Y84750D01*
Y84786D01*
X41821Y84885D01*
X41836Y84975D01*
X41861Y85052D01*
X41887Y85118D01*
X41912Y85172D01*
X41927Y85190D01*
X41938Y85208D01*
X41945Y85223D01*
X41952Y85234D01*
X41960Y85238D01*
Y85241D01*
X42021Y85307D01*
X42087Y85361D01*
X42160Y85409D01*
X42225Y85445D01*
X42287Y85474D01*
X42313Y85489D01*
X42338Y85496D01*
X42356Y85503D01*
X42371Y85511D01*
X42378Y85514D01*
X42382D01*
X42436Y85532D01*
X42491Y85547D01*
X42607Y85569D01*
X42728Y85587D01*
X42844Y85598D01*
X42895Y85602D01*
X42942Y85605D01*
X42986D01*
X43026Y85609D01*
X43055D01*
X43081D01*
X43095D01*
X43099D01*
X43168D01*
X43233Y85605D01*
D02*
G37*
G36*
X44387Y82970D02*
X44326Y82933D01*
X44267Y82894D01*
X44209Y82846D01*
X44158Y82802D01*
X44114Y82759D01*
X44078Y82726D01*
X44067Y82711D01*
X44056Y82701D01*
X44052Y82697D01*
X44049Y82693D01*
X43987Y82617D01*
X43929Y82540D01*
X43878Y82468D01*
X43838Y82395D01*
X43801Y82333D01*
X43787Y82307D01*
X43776Y82286D01*
X43765Y82267D01*
X43761Y82253D01*
X43754Y82245D01*
Y82242D01*
X43455D01*
X43477Y82297D01*
X43503Y82351D01*
X43528Y82406D01*
X43554Y82457D01*
X43576Y82500D01*
X43594Y82537D01*
X43608Y82559D01*
X43612Y82562D01*
Y82566D01*
X43652Y82631D01*
X43692Y82690D01*
X43729Y82741D01*
X43761Y82781D01*
X43787Y82817D01*
X43809Y82839D01*
X43823Y82857D01*
X43827Y82861D01*
X41858D01*
Y83170D01*
X44387D01*
Y82970D01*
D02*
G37*
G36*
X42738Y81387D02*
X42680Y81372D01*
X42626Y81354D01*
X42575Y81336D01*
X42527Y81317D01*
X42484Y81296D01*
X42447Y81274D01*
X42411Y81248D01*
X42378Y81226D01*
X42349Y81208D01*
X42327Y81186D01*
X42305Y81168D01*
X42287Y81154D01*
X42276Y81139D01*
X42265Y81128D01*
X42262Y81124D01*
X42258Y81121D01*
X42229Y81084D01*
X42207Y81044D01*
X42167Y80964D01*
X42138Y80888D01*
X42120Y80811D01*
X42105Y80746D01*
X42101Y80720D01*
Y80695D01*
X42098Y80673D01*
Y80648D01*
X42101Y80564D01*
X42116Y80484D01*
X42134Y80411D01*
X42156Y80345D01*
X42178Y80295D01*
X42189Y80273D01*
X42196Y80255D01*
X42203Y80240D01*
X42211Y80229D01*
X42214Y80222D01*
Y80218D01*
X42265Y80149D01*
X42320Y80091D01*
X42382Y80040D01*
X42440Y80000D01*
X42491Y79967D01*
X42535Y79945D01*
X42553Y79938D01*
X42564Y79931D01*
X42571Y79927D01*
X42575D01*
X42669Y79898D01*
X42764Y79876D01*
X42859Y79858D01*
X42946Y79847D01*
X42986Y79843D01*
X43022Y79839D01*
X43055D01*
X43081Y79836D01*
X43102D01*
X43121D01*
X43132D01*
X43135D01*
X43230Y79839D01*
X43317Y79847D01*
X43397Y79861D01*
X43470Y79876D01*
X43532Y79887D01*
X43557Y79894D01*
X43579Y79901D01*
X43597Y79905D01*
X43608Y79909D01*
X43616Y79912D01*
X43619D01*
X43703Y79949D01*
X43780Y79989D01*
X43841Y80032D01*
X43896Y80080D01*
X43940Y80120D01*
X43969Y80152D01*
X43987Y80178D01*
X43994Y80182D01*
Y80185D01*
X44042Y80262D01*
X44078Y80345D01*
X44103Y80426D01*
X44118Y80502D01*
X44129Y80571D01*
X44133Y80600D01*
Y80626D01*
X44136Y80644D01*
Y80673D01*
X44133Y80764D01*
X44118Y80848D01*
X44096Y80917D01*
X44074Y80979D01*
X44049Y81026D01*
X44031Y81063D01*
X44016Y81084D01*
X44009Y81092D01*
X43954Y81150D01*
X43892Y81204D01*
X43827Y81248D01*
X43761Y81285D01*
X43703Y81314D01*
X43674Y81325D01*
X43652Y81332D01*
X43634Y81339D01*
X43619Y81346D01*
X43612Y81350D01*
X43608D01*
X43685Y81678D01*
X43750Y81656D01*
X43809Y81634D01*
X43863Y81605D01*
X43918Y81579D01*
X43965Y81550D01*
X44009Y81517D01*
X44052Y81488D01*
X44089Y81459D01*
X44118Y81430D01*
X44147Y81405D01*
X44173Y81379D01*
X44191Y81361D01*
X44209Y81343D01*
X44220Y81328D01*
X44224Y81321D01*
X44227Y81317D01*
X44260Y81266D01*
X44293Y81215D01*
X44318Y81164D01*
X44340Y81110D01*
X44373Y81001D01*
X44395Y80902D01*
X44406Y80855D01*
X44409Y80815D01*
X44413Y80775D01*
X44416Y80742D01*
X44420Y80717D01*
Y80680D01*
X44413Y80560D01*
X44395Y80444D01*
X44373Y80342D01*
X44358Y80295D01*
X44344Y80251D01*
X44329Y80211D01*
X44315Y80174D01*
X44304Y80145D01*
X44293Y80116D01*
X44282Y80098D01*
X44275Y80083D01*
X44271Y80072D01*
X44267Y80069D01*
X44205Y79971D01*
X44133Y79887D01*
X44060Y79814D01*
X43987Y79752D01*
X43921Y79705D01*
X43892Y79687D01*
X43867Y79672D01*
X43849Y79658D01*
X43834Y79650D01*
X43823Y79647D01*
X43819Y79643D01*
X43707Y79592D01*
X43590Y79556D01*
X43474Y79530D01*
X43368Y79512D01*
X43321Y79505D01*
X43273Y79501D01*
X43237Y79497D01*
X43201D01*
X43175Y79494D01*
X43153D01*
X43139D01*
X43135D01*
X43004Y79501D01*
X42877Y79515D01*
X42764Y79534D01*
X42709Y79548D01*
X42662Y79559D01*
X42618Y79570D01*
X42578Y79585D01*
X42542Y79596D01*
X42513Y79603D01*
X42491Y79614D01*
X42473Y79618D01*
X42462Y79625D01*
X42458D01*
X42349Y79679D01*
X42251Y79741D01*
X42167Y79807D01*
X42134Y79839D01*
X42101Y79869D01*
X42072Y79898D01*
X42047Y79927D01*
X42025Y79952D01*
X42010Y79974D01*
X41996Y79989D01*
X41985Y80003D01*
X41981Y80011D01*
X41978Y80014D01*
X41949Y80065D01*
X41923Y80116D01*
X41883Y80225D01*
X41854Y80335D01*
X41836Y80440D01*
X41828Y80491D01*
X41821Y80535D01*
X41818Y80575D01*
Y80607D01*
X41814Y80637D01*
Y80677D01*
X41818Y80749D01*
X41825Y80819D01*
X41832Y80884D01*
X41847Y80946D01*
X41865Y81004D01*
X41883Y81059D01*
X41901Y81110D01*
X41923Y81157D01*
X41941Y81197D01*
X41960Y81237D01*
X41978Y81266D01*
X41996Y81296D01*
X42010Y81314D01*
X42018Y81332D01*
X42025Y81339D01*
X42029Y81343D01*
X42072Y81394D01*
X42116Y81437D01*
X42167Y81477D01*
X42218Y81517D01*
X42320Y81583D01*
X42422Y81634D01*
X42469Y81656D01*
X42513Y81674D01*
X42553Y81689D01*
X42586Y81700D01*
X42615Y81710D01*
X42636Y81718D01*
X42651Y81721D01*
X42655D01*
X42738Y81387D01*
D02*
G37*
G36*
X67220Y67626D02*
X67282Y67623D01*
X67340Y67612D01*
X67395Y67601D01*
X67446Y67586D01*
X67493Y67572D01*
X67537Y67553D01*
X67577Y67535D01*
X67614Y67517D01*
X67643Y67499D01*
X67668Y67484D01*
X67690Y67470D01*
X67708Y67459D01*
X67719Y67448D01*
X67726Y67444D01*
X67730Y67440D01*
X67766Y67404D01*
X67799Y67364D01*
X67832Y67320D01*
X67857Y67277D01*
X67901Y67189D01*
X67930Y67102D01*
X67941Y67062D01*
X67952Y67022D01*
X67959Y66989D01*
X67967Y66960D01*
X67970Y66935D01*
Y66916D01*
X67974Y66905D01*
Y66902D01*
X67657Y66869D01*
X67650Y66953D01*
X67635Y67026D01*
X67614Y67091D01*
X67588Y67142D01*
X67566Y67186D01*
X67544Y67215D01*
X67530Y67233D01*
X67523Y67240D01*
X67468Y67284D01*
X67410Y67317D01*
X67348Y67342D01*
X67293Y67357D01*
X67242Y67368D01*
X67198Y67371D01*
X67184Y67375D01*
X67162D01*
X67086Y67371D01*
X67017Y67357D01*
X66958Y67335D01*
X66907Y67313D01*
X66867Y67288D01*
X66842Y67269D01*
X66824Y67255D01*
X66816Y67248D01*
X66773Y67197D01*
X66740Y67146D01*
X66714Y67095D01*
X66700Y67044D01*
X66689Y67004D01*
X66685Y66967D01*
X66682Y66945D01*
Y66942D01*
Y66938D01*
X66689Y66873D01*
X66703Y66803D01*
X66729Y66742D01*
X66754Y66683D01*
X66784Y66636D01*
X66809Y66596D01*
X66816Y66581D01*
X66824Y66571D01*
X66831Y66567D01*
Y66563D01*
X66860Y66523D01*
X66896Y66483D01*
X66936Y66439D01*
X66980Y66396D01*
X67071Y66308D01*
X67162Y66221D01*
X67209Y66181D01*
X67250Y66145D01*
X67290Y66112D01*
X67322Y66083D01*
X67348Y66061D01*
X67370Y66043D01*
X67384Y66032D01*
X67388Y66028D01*
X67479Y65952D01*
X67563Y65879D01*
X67632Y65813D01*
X67686Y65759D01*
X67734Y65711D01*
X67766Y65679D01*
X67785Y65657D01*
X67792Y65653D01*
Y65650D01*
X67843Y65588D01*
X67883Y65530D01*
X67919Y65471D01*
X67948Y65420D01*
X67970Y65377D01*
X67985Y65344D01*
X67992Y65322D01*
X67996Y65318D01*
Y65315D01*
X68010Y65275D01*
X68018Y65238D01*
X68025Y65202D01*
X68028Y65169D01*
X68032Y65140D01*
Y65118D01*
Y65104D01*
Y65100D01*
X66361D01*
Y65399D01*
X67603D01*
X67559Y65460D01*
X67537Y65486D01*
X67519Y65511D01*
X67501Y65533D01*
X67486Y65548D01*
X67475Y65559D01*
X67471Y65562D01*
X67453Y65580D01*
X67431Y65599D01*
X67380Y65646D01*
X67322Y65701D01*
X67260Y65755D01*
X67202Y65803D01*
X67177Y65824D01*
X67155Y65846D01*
X67137Y65861D01*
X67122Y65872D01*
X67115Y65879D01*
X67111Y65883D01*
X67053Y65934D01*
X66995Y65981D01*
X66944Y66028D01*
X66896Y66068D01*
X66853Y66108D01*
X66816Y66145D01*
X66780Y66177D01*
X66751Y66207D01*
X66722Y66236D01*
X66700Y66258D01*
X66682Y66276D01*
X66663Y66294D01*
X66645Y66316D01*
X66638Y66323D01*
X66587Y66385D01*
X66543Y66439D01*
X66507Y66494D01*
X66478Y66538D01*
X66456Y66578D01*
X66441Y66607D01*
X66434Y66625D01*
X66430Y66632D01*
X66409Y66687D01*
X66394Y66742D01*
X66379Y66793D01*
X66372Y66836D01*
X66369Y66876D01*
X66365Y66905D01*
Y66924D01*
Y66931D01*
X66369Y66985D01*
X66376Y67036D01*
X66383Y67087D01*
X66398Y67131D01*
X66434Y67219D01*
X66470Y67288D01*
X66492Y67320D01*
X66511Y67346D01*
X66529Y67371D01*
X66547Y67390D01*
X66562Y67404D01*
X66569Y67419D01*
X66576Y67422D01*
X66580Y67426D01*
X66620Y67462D01*
X66663Y67495D01*
X66711Y67521D01*
X66758Y67542D01*
X66853Y67579D01*
X66947Y67604D01*
X66987Y67612D01*
X67027Y67619D01*
X67064Y67623D01*
X67093Y67626D01*
X67118Y67630D01*
X67155D01*
X67220Y67626D01*
D02*
G37*
G36*
X65975Y66290D02*
X65684Y66250D01*
X65659Y66290D01*
X65626Y66323D01*
X65597Y66356D01*
X65568Y66381D01*
X65539Y66400D01*
X65517Y66418D01*
X65502Y66425D01*
X65499Y66429D01*
X65451Y66450D01*
X65404Y66469D01*
X65360Y66480D01*
X65317Y66491D01*
X65280Y66494D01*
X65251Y66498D01*
X65182D01*
X65138Y66491D01*
X65062Y66472D01*
X64996Y66447D01*
X64938Y66421D01*
X64894Y66392D01*
X64862Y66367D01*
X64843Y66348D01*
X64836Y66345D01*
Y66341D01*
X64785Y66279D01*
X64749Y66214D01*
X64723Y66145D01*
X64705Y66075D01*
X64694Y66017D01*
X64691Y65992D01*
Y65970D01*
X64687Y65952D01*
Y65937D01*
Y65930D01*
Y65926D01*
Y65875D01*
X64694Y65828D01*
X64712Y65737D01*
X64738Y65661D01*
X64763Y65599D01*
X64793Y65548D01*
X64818Y65508D01*
X64829Y65497D01*
X64836Y65486D01*
X64840Y65482D01*
X64843Y65479D01*
X64873Y65449D01*
X64902Y65424D01*
X64967Y65380D01*
X65029Y65351D01*
X65091Y65333D01*
X65142Y65318D01*
X65186Y65315D01*
X65200Y65311D01*
X65222D01*
X65291Y65315D01*
X65353Y65329D01*
X65408Y65347D01*
X65451Y65369D01*
X65491Y65391D01*
X65521Y65409D01*
X65535Y65424D01*
X65542Y65428D01*
X65586Y65479D01*
X65622Y65533D01*
X65652Y65595D01*
X65673Y65650D01*
X65688Y65704D01*
X65699Y65744D01*
X65702Y65763D01*
X65706Y65773D01*
Y65781D01*
Y65784D01*
X66030Y65759D01*
X66023Y65701D01*
X66012Y65646D01*
X65979Y65544D01*
X65939Y65457D01*
X65917Y65417D01*
X65895Y65384D01*
X65877Y65351D01*
X65855Y65322D01*
X65837Y65300D01*
X65819Y65282D01*
X65804Y65267D01*
X65797Y65253D01*
X65790Y65249D01*
X65786Y65246D01*
X65742Y65213D01*
X65699Y65184D01*
X65652Y65158D01*
X65604Y65136D01*
X65513Y65104D01*
X65422Y65082D01*
X65382Y65071D01*
X65342Y65067D01*
X65309Y65064D01*
X65280Y65060D01*
X65255Y65056D01*
X65222D01*
X65146Y65060D01*
X65073Y65071D01*
X65004Y65085D01*
X64942Y65104D01*
X64884Y65129D01*
X64829Y65155D01*
X64778Y65180D01*
X64734Y65209D01*
X64694Y65238D01*
X64658Y65264D01*
X64629Y65293D01*
X64603Y65315D01*
X64585Y65333D01*
X64570Y65347D01*
X64563Y65358D01*
X64560Y65362D01*
X64523Y65409D01*
X64494Y65460D01*
X64465Y65508D01*
X64443Y65559D01*
X64407Y65657D01*
X64385Y65752D01*
X64377Y65792D01*
X64370Y65832D01*
X64367Y65864D01*
X64363Y65894D01*
X64359Y65919D01*
Y65937D01*
Y65948D01*
Y65952D01*
X64363Y66017D01*
X64370Y66079D01*
X64381Y66141D01*
X64396Y66196D01*
X64414Y66247D01*
X64432Y66298D01*
X64454Y66341D01*
X64472Y66381D01*
X64494Y66418D01*
X64516Y66450D01*
X64534Y66476D01*
X64552Y66501D01*
X64567Y66520D01*
X64578Y66531D01*
X64585Y66538D01*
X64589Y66541D01*
X64632Y66581D01*
X64676Y66618D01*
X64723Y66647D01*
X64771Y66672D01*
X64818Y66698D01*
X64865Y66716D01*
X64953Y66742D01*
X64993Y66753D01*
X65029Y66760D01*
X65062Y66764D01*
X65091Y66767D01*
X65113Y66771D01*
X65193D01*
X65237Y66764D01*
X65324Y66745D01*
X65404Y66720D01*
X65477Y66691D01*
X65535Y66662D01*
X65561Y66647D01*
X65582Y66636D01*
X65601Y66625D01*
X65611Y66618D01*
X65619Y66614D01*
X65622Y66611D01*
X65488Y67291D01*
X64479D01*
Y67586D01*
X65732D01*
X65975Y66290D01*
D02*
G37*
G36*
X69433Y67655D02*
X69550Y67637D01*
X69652Y67615D01*
X69699Y67601D01*
X69743Y67586D01*
X69783Y67572D01*
X69819Y67557D01*
X69848Y67546D01*
X69878Y67535D01*
X69896Y67524D01*
X69910Y67517D01*
X69921Y67513D01*
X69925Y67510D01*
X70023Y67448D01*
X70107Y67375D01*
X70180Y67302D01*
X70242Y67229D01*
X70289Y67164D01*
X70307Y67135D01*
X70322Y67109D01*
X70336Y67091D01*
X70344Y67076D01*
X70347Y67066D01*
X70351Y67062D01*
X70402Y66949D01*
X70438Y66833D01*
X70464Y66716D01*
X70482Y66611D01*
X70489Y66563D01*
X70493Y66516D01*
X70496Y66480D01*
Y66443D01*
X70500Y66418D01*
Y66396D01*
Y66381D01*
Y66378D01*
X70493Y66247D01*
X70478Y66119D01*
X70460Y66006D01*
X70445Y65952D01*
X70434Y65904D01*
X70424Y65861D01*
X70409Y65821D01*
X70398Y65784D01*
X70391Y65755D01*
X70380Y65733D01*
X70376Y65715D01*
X70369Y65704D01*
Y65701D01*
X70314Y65591D01*
X70253Y65493D01*
X70187Y65409D01*
X70154Y65377D01*
X70125Y65344D01*
X70096Y65315D01*
X70067Y65289D01*
X70041Y65267D01*
X70020Y65253D01*
X70005Y65238D01*
X69990Y65227D01*
X69983Y65224D01*
X69980Y65220D01*
X69928Y65191D01*
X69878Y65166D01*
X69768Y65126D01*
X69659Y65096D01*
X69554Y65078D01*
X69503Y65071D01*
X69459Y65064D01*
X69419Y65060D01*
X69386D01*
X69357Y65056D01*
X69317D01*
X69244Y65060D01*
X69175Y65067D01*
X69109Y65074D01*
X69048Y65089D01*
X68989Y65107D01*
X68935Y65126D01*
X68884Y65144D01*
X68836Y65166D01*
X68796Y65184D01*
X68756Y65202D01*
X68727Y65220D01*
X68698Y65238D01*
X68680Y65253D01*
X68662Y65260D01*
X68655Y65267D01*
X68651Y65271D01*
X68600Y65315D01*
X68556Y65358D01*
X68516Y65409D01*
X68476Y65460D01*
X68411Y65562D01*
X68360Y65664D01*
X68338Y65711D01*
X68320Y65755D01*
X68305Y65795D01*
X68294Y65828D01*
X68283Y65857D01*
X68276Y65879D01*
X68272Y65894D01*
Y65897D01*
X68607Y65981D01*
X68622Y65923D01*
X68640Y65868D01*
X68658Y65817D01*
X68676Y65770D01*
X68698Y65726D01*
X68720Y65690D01*
X68745Y65653D01*
X68767Y65620D01*
X68786Y65591D01*
X68807Y65570D01*
X68826Y65548D01*
X68840Y65530D01*
X68855Y65519D01*
X68866Y65508D01*
X68869Y65504D01*
X68873Y65500D01*
X68909Y65471D01*
X68949Y65449D01*
X69029Y65409D01*
X69106Y65380D01*
X69182Y65362D01*
X69248Y65347D01*
X69273Y65344D01*
X69299D01*
X69321Y65340D01*
X69346D01*
X69430Y65344D01*
X69510Y65358D01*
X69583Y65377D01*
X69648Y65399D01*
X69699Y65420D01*
X69721Y65431D01*
X69739Y65438D01*
X69754Y65446D01*
X69765Y65453D01*
X69772Y65457D01*
X69776D01*
X69845Y65508D01*
X69903Y65562D01*
X69954Y65624D01*
X69994Y65682D01*
X70027Y65733D01*
X70049Y65777D01*
X70056Y65795D01*
X70063Y65806D01*
X70067Y65813D01*
Y65817D01*
X70096Y65912D01*
X70118Y66006D01*
X70136Y66101D01*
X70147Y66188D01*
X70151Y66228D01*
X70154Y66265D01*
Y66298D01*
X70158Y66323D01*
Y66345D01*
Y66363D01*
Y66374D01*
Y66378D01*
X70154Y66472D01*
X70147Y66560D01*
X70132Y66640D01*
X70118Y66712D01*
X70107Y66774D01*
X70100Y66800D01*
X70092Y66822D01*
X70089Y66840D01*
X70085Y66851D01*
X70081Y66858D01*
Y66862D01*
X70045Y66945D01*
X70005Y67022D01*
X69961Y67084D01*
X69914Y67138D01*
X69874Y67182D01*
X69841Y67211D01*
X69816Y67229D01*
X69812Y67237D01*
X69808D01*
X69732Y67284D01*
X69648Y67320D01*
X69568Y67346D01*
X69492Y67360D01*
X69423Y67371D01*
X69393Y67375D01*
X69368D01*
X69350Y67379D01*
X69321D01*
X69230Y67375D01*
X69146Y67360D01*
X69077Y67339D01*
X69015Y67317D01*
X68968Y67291D01*
X68931Y67273D01*
X68909Y67259D01*
X68902Y67251D01*
X68844Y67197D01*
X68789Y67135D01*
X68745Y67069D01*
X68709Y67004D01*
X68680Y66945D01*
X68669Y66916D01*
X68662Y66895D01*
X68655Y66876D01*
X68647Y66862D01*
X68644Y66855D01*
Y66851D01*
X68316Y66927D01*
X68338Y66993D01*
X68360Y67051D01*
X68389Y67106D01*
X68414Y67160D01*
X68443Y67208D01*
X68476Y67251D01*
X68505Y67295D01*
X68534Y67331D01*
X68563Y67360D01*
X68589Y67390D01*
X68615Y67415D01*
X68633Y67433D01*
X68651Y67451D01*
X68665Y67462D01*
X68673Y67466D01*
X68676Y67470D01*
X68727Y67502D01*
X68778Y67535D01*
X68829Y67561D01*
X68884Y67582D01*
X68993Y67615D01*
X69091Y67637D01*
X69139Y67648D01*
X69179Y67652D01*
X69219Y67655D01*
X69252Y67659D01*
X69277Y67663D01*
X69313D01*
X69433Y67655D01*
D02*
G37*
G36*
X68346Y84123D02*
X68444Y84104D01*
X68528Y84075D01*
X68601Y84046D01*
X68633Y84028D01*
X68659Y84013D01*
X68684Y83999D01*
X68703Y83984D01*
X68717Y83973D01*
X68728Y83966D01*
X68735Y83962D01*
X68739Y83959D01*
X68808Y83890D01*
X68863Y83813D01*
X68906Y83733D01*
X68943Y83653D01*
X68965Y83584D01*
X68976Y83555D01*
X68983Y83529D01*
X68986Y83507D01*
X68990Y83493D01*
X68994Y83482D01*
Y83478D01*
X68684Y83424D01*
X68670Y83504D01*
X68648Y83573D01*
X68622Y83631D01*
X68597Y83678D01*
X68571Y83715D01*
X68550Y83740D01*
X68535Y83758D01*
X68531Y83762D01*
X68484Y83799D01*
X68433Y83828D01*
X68386Y83846D01*
X68339Y83860D01*
X68295Y83868D01*
X68262Y83875D01*
X68233D01*
X68167Y83871D01*
X68109Y83857D01*
X68058Y83839D01*
X68015Y83820D01*
X67982Y83799D01*
X67956Y83780D01*
X67938Y83766D01*
X67934Y83762D01*
X67894Y83719D01*
X67865Y83671D01*
X67847Y83624D01*
X67832Y83580D01*
X67825Y83540D01*
X67818Y83511D01*
Y83489D01*
Y83486D01*
Y83482D01*
Y83442D01*
X67825Y83405D01*
X67843Y83344D01*
X67869Y83289D01*
X67898Y83242D01*
X67927Y83209D01*
X67953Y83183D01*
X67971Y83169D01*
X67975Y83165D01*
X67978D01*
X68040Y83132D01*
X68098Y83107D01*
X68160Y83089D01*
X68215Y83078D01*
X68262Y83071D01*
X68302Y83063D01*
X68349D01*
X68364Y83067D01*
X68382D01*
X68419Y82794D01*
X68371Y82805D01*
X68328Y82812D01*
X68291Y82819D01*
X68258Y82823D01*
X68233Y82827D01*
X68200D01*
X68124Y82819D01*
X68055Y82805D01*
X67993Y82783D01*
X67942Y82758D01*
X67902Y82732D01*
X67873Y82710D01*
X67854Y82696D01*
X67847Y82688D01*
X67800Y82634D01*
X67763Y82576D01*
X67738Y82517D01*
X67723Y82459D01*
X67712Y82412D01*
X67709Y82372D01*
X67705Y82357D01*
Y82346D01*
Y82339D01*
Y82335D01*
X67712Y82255D01*
X67731Y82182D01*
X67752Y82121D01*
X67782Y82066D01*
X67811Y82022D01*
X67832Y81990D01*
X67851Y81968D01*
X67858Y81960D01*
X67916Y81909D01*
X67978Y81873D01*
X68040Y81848D01*
X68098Y81829D01*
X68149Y81818D01*
X68189Y81815D01*
X68204Y81811D01*
X68226D01*
X68291Y81815D01*
X68353Y81829D01*
X68408Y81848D01*
X68451Y81869D01*
X68488Y81888D01*
X68517Y81906D01*
X68531Y81920D01*
X68539Y81924D01*
X68582Y81975D01*
X68619Y82033D01*
X68651Y82095D01*
X68677Y82161D01*
X68695Y82215D01*
X68703Y82241D01*
X68706Y82262D01*
X68710Y82281D01*
X68713Y82295D01*
X68717Y82302D01*
Y82306D01*
X69026Y82266D01*
X69019Y82208D01*
X69008Y82153D01*
X68976Y82051D01*
X68935Y81964D01*
X68914Y81928D01*
X68892Y81891D01*
X68870Y81858D01*
X68848Y81833D01*
X68830Y81808D01*
X68812Y81789D01*
X68801Y81775D01*
X68790Y81764D01*
X68783Y81757D01*
X68779Y81753D01*
X68735Y81720D01*
X68692Y81687D01*
X68648Y81662D01*
X68601Y81640D01*
X68510Y81604D01*
X68422Y81582D01*
X68382Y81574D01*
X68346Y81567D01*
X68313Y81564D01*
X68284Y81560D01*
X68262Y81556D01*
X68229D01*
X68160Y81560D01*
X68098Y81567D01*
X68036Y81578D01*
X67978Y81593D01*
X67923Y81611D01*
X67876Y81629D01*
X67829Y81651D01*
X67789Y81673D01*
X67749Y81691D01*
X67716Y81713D01*
X67687Y81731D01*
X67665Y81749D01*
X67647Y81764D01*
X67632Y81775D01*
X67625Y81782D01*
X67621Y81786D01*
X67578Y81829D01*
X67541Y81877D01*
X67509Y81924D01*
X67479Y81971D01*
X67458Y82015D01*
X67436Y82062D01*
X67407Y82150D01*
X67399Y82190D01*
X67392Y82226D01*
X67385Y82259D01*
X67381Y82288D01*
X67378Y82310D01*
Y82328D01*
Y82339D01*
Y82343D01*
X67381Y82430D01*
X67396Y82510D01*
X67418Y82579D01*
X67439Y82637D01*
X67461Y82685D01*
X67483Y82721D01*
X67498Y82743D01*
X67501Y82750D01*
X67552Y82805D01*
X67607Y82852D01*
X67665Y82889D01*
X67723Y82918D01*
X67774Y82939D01*
X67814Y82954D01*
X67829Y82958D01*
X67840Y82961D01*
X67847Y82965D01*
X67851D01*
X67789Y82998D01*
X67738Y83030D01*
X67694Y83067D01*
X67658Y83100D01*
X67629Y83129D01*
X67607Y83154D01*
X67596Y83169D01*
X67592Y83176D01*
X67563Y83227D01*
X67541Y83278D01*
X67523Y83329D01*
X67512Y83376D01*
X67505Y83416D01*
X67501Y83446D01*
Y83467D01*
Y83475D01*
X67505Y83536D01*
X67516Y83598D01*
X67530Y83653D01*
X67549Y83700D01*
X67567Y83740D01*
X67581Y83773D01*
X67592Y83791D01*
X67596Y83799D01*
X67632Y83853D01*
X67676Y83900D01*
X67720Y83941D01*
X67763Y83977D01*
X67800Y84002D01*
X67832Y84024D01*
X67854Y84035D01*
X67858Y84039D01*
X67862D01*
X67927Y84068D01*
X67993Y84090D01*
X68058Y84108D01*
X68116Y84119D01*
X68164Y84126D01*
X68204Y84130D01*
X68295D01*
X68346Y84123D01*
D02*
G37*
G36*
X70060Y84068D02*
X70100Y84010D01*
X70148Y83951D01*
X70191Y83900D01*
X70235Y83857D01*
X70268Y83820D01*
X70282Y83810D01*
X70293Y83799D01*
X70297Y83795D01*
X70300Y83791D01*
X70377Y83729D01*
X70453Y83671D01*
X70526Y83620D01*
X70599Y83580D01*
X70661Y83544D01*
X70686Y83529D01*
X70708Y83518D01*
X70726Y83507D01*
X70741Y83504D01*
X70748Y83496D01*
X70752D01*
Y83198D01*
X70697Y83220D01*
X70643Y83245D01*
X70588Y83271D01*
X70537Y83296D01*
X70493Y83318D01*
X70457Y83336D01*
X70435Y83351D01*
X70432Y83355D01*
X70428D01*
X70362Y83394D01*
X70304Y83435D01*
X70253Y83471D01*
X70213Y83504D01*
X70177Y83529D01*
X70155Y83551D01*
X70137Y83566D01*
X70133Y83569D01*
Y81600D01*
X69824D01*
Y84130D01*
X70024D01*
X70060Y84068D01*
D02*
G37*
G36*
X72434Y84155D02*
X72550Y84137D01*
X72652Y84115D01*
X72699Y84101D01*
X72743Y84086D01*
X72783Y84072D01*
X72819Y84057D01*
X72848Y84046D01*
X72878Y84035D01*
X72896Y84024D01*
X72910Y84017D01*
X72921Y84013D01*
X72925Y84010D01*
X73023Y83948D01*
X73107Y83875D01*
X73180Y83802D01*
X73242Y83729D01*
X73289Y83664D01*
X73307Y83635D01*
X73322Y83609D01*
X73336Y83591D01*
X73343Y83577D01*
X73347Y83566D01*
X73351Y83562D01*
X73402Y83449D01*
X73438Y83333D01*
X73464Y83216D01*
X73482Y83111D01*
X73489Y83063D01*
X73493Y83016D01*
X73496Y82980D01*
Y82943D01*
X73500Y82918D01*
Y82896D01*
Y82881D01*
Y82878D01*
X73493Y82747D01*
X73478Y82619D01*
X73460Y82506D01*
X73445Y82452D01*
X73435Y82404D01*
X73424Y82361D01*
X73409Y82321D01*
X73398Y82284D01*
X73391Y82255D01*
X73380Y82233D01*
X73376Y82215D01*
X73369Y82204D01*
Y82201D01*
X73314Y82091D01*
X73252Y81993D01*
X73187Y81909D01*
X73154Y81877D01*
X73125Y81844D01*
X73096Y81815D01*
X73067Y81789D01*
X73041Y81767D01*
X73019Y81753D01*
X73005Y81738D01*
X72990Y81727D01*
X72983Y81724D01*
X72979Y81720D01*
X72929Y81691D01*
X72878Y81665D01*
X72768Y81625D01*
X72659Y81596D01*
X72554Y81578D01*
X72503Y81571D01*
X72459Y81564D01*
X72419Y81560D01*
X72386D01*
X72357Y81556D01*
X72317D01*
X72244Y81560D01*
X72175Y81567D01*
X72110Y81574D01*
X72048Y81589D01*
X71989Y81607D01*
X71935Y81625D01*
X71884Y81644D01*
X71837Y81665D01*
X71797Y81684D01*
X71756Y81702D01*
X71727Y81720D01*
X71698Y81738D01*
X71680Y81753D01*
X71662Y81760D01*
X71654Y81767D01*
X71651Y81771D01*
X71600Y81815D01*
X71556Y81858D01*
X71516Y81909D01*
X71476Y81960D01*
X71411Y82062D01*
X71360Y82164D01*
X71338Y82212D01*
X71320Y82255D01*
X71305Y82295D01*
X71294Y82328D01*
X71283Y82357D01*
X71276Y82379D01*
X71272Y82393D01*
Y82397D01*
X71607Y82481D01*
X71622Y82423D01*
X71640Y82368D01*
X71658Y82317D01*
X71676Y82270D01*
X71698Y82226D01*
X71720Y82190D01*
X71746Y82153D01*
X71767Y82121D01*
X71786Y82091D01*
X71807Y82070D01*
X71826Y82048D01*
X71840Y82029D01*
X71855Y82019D01*
X71866Y82008D01*
X71869Y82004D01*
X71873Y82000D01*
X71909Y81971D01*
X71949Y81949D01*
X72029Y81909D01*
X72106Y81880D01*
X72182Y81862D01*
X72248Y81848D01*
X72273Y81844D01*
X72299D01*
X72321Y81840D01*
X72346D01*
X72430Y81844D01*
X72510Y81858D01*
X72583Y81877D01*
X72648Y81898D01*
X72699Y81920D01*
X72721Y81931D01*
X72739Y81938D01*
X72754Y81946D01*
X72765Y81953D01*
X72772Y81957D01*
X72776D01*
X72845Y82008D01*
X72903Y82062D01*
X72954Y82124D01*
X72994Y82182D01*
X73027Y82233D01*
X73049Y82277D01*
X73056Y82295D01*
X73063Y82306D01*
X73067Y82313D01*
Y82317D01*
X73096Y82412D01*
X73118Y82506D01*
X73136Y82601D01*
X73147Y82688D01*
X73151Y82728D01*
X73154Y82765D01*
Y82798D01*
X73158Y82823D01*
Y82845D01*
Y82863D01*
Y82874D01*
Y82878D01*
X73154Y82972D01*
X73147Y83060D01*
X73132Y83140D01*
X73118Y83213D01*
X73107Y83274D01*
X73100Y83300D01*
X73092Y83322D01*
X73089Y83340D01*
X73085Y83351D01*
X73081Y83358D01*
Y83362D01*
X73045Y83446D01*
X73005Y83522D01*
X72961Y83584D01*
X72914Y83638D01*
X72874Y83682D01*
X72841Y83711D01*
X72816Y83729D01*
X72812Y83737D01*
X72808D01*
X72732Y83784D01*
X72648Y83820D01*
X72568Y83846D01*
X72492Y83860D01*
X72423Y83871D01*
X72393Y83875D01*
X72368D01*
X72350Y83879D01*
X72321D01*
X72230Y83875D01*
X72146Y83860D01*
X72077Y83839D01*
X72015Y83817D01*
X71968Y83791D01*
X71931Y83773D01*
X71909Y83758D01*
X71902Y83751D01*
X71844Y83697D01*
X71789Y83635D01*
X71746Y83569D01*
X71709Y83504D01*
X71680Y83446D01*
X71669Y83416D01*
X71662Y83394D01*
X71654Y83376D01*
X71647Y83362D01*
X71644Y83355D01*
Y83351D01*
X71316Y83427D01*
X71338Y83493D01*
X71360Y83551D01*
X71389Y83606D01*
X71414Y83660D01*
X71443Y83708D01*
X71476Y83751D01*
X71505Y83795D01*
X71534Y83831D01*
X71564Y83860D01*
X71589Y83890D01*
X71614Y83915D01*
X71633Y83933D01*
X71651Y83951D01*
X71665Y83962D01*
X71673Y83966D01*
X71676Y83970D01*
X71727Y84002D01*
X71778Y84035D01*
X71829Y84061D01*
X71884Y84083D01*
X71993Y84115D01*
X72091Y84137D01*
X72139Y84148D01*
X72179Y84152D01*
X72219Y84155D01*
X72251Y84159D01*
X72277Y84163D01*
X72313D01*
X72434Y84155D01*
D02*
G37*
G36*
X53256Y71250D02*
X53318Y71294D01*
X53343Y71315D01*
X53369Y71334D01*
X53391Y71352D01*
X53405Y71366D01*
X53416Y71377D01*
X53420Y71381D01*
X53438Y71399D01*
X53456Y71421D01*
X53504Y71472D01*
X53558Y71530D01*
X53613Y71592D01*
X53660Y71650D01*
X53682Y71676D01*
X53704Y71698D01*
X53718Y71716D01*
X53729Y71730D01*
X53737Y71738D01*
X53740Y71741D01*
X53791Y71800D01*
X53838Y71858D01*
X53886Y71909D01*
X53926Y71956D01*
X53966Y72000D01*
X54002Y72036D01*
X54035Y72073D01*
X54064Y72102D01*
X54093Y72131D01*
X54115Y72153D01*
X54133Y72171D01*
X54151Y72189D01*
X54173Y72207D01*
X54181Y72215D01*
X54242Y72265D01*
X54297Y72309D01*
X54352Y72346D01*
X54395Y72375D01*
X54435Y72397D01*
X54465Y72411D01*
X54483Y72418D01*
X54490Y72422D01*
X54545Y72444D01*
X54599Y72458D01*
X54650Y72473D01*
X54694Y72480D01*
X54734Y72484D01*
X54763Y72488D01*
X54781D01*
X54789D01*
X54843Y72484D01*
X54894Y72477D01*
X54945Y72469D01*
X54989Y72455D01*
X55076Y72418D01*
X55145Y72382D01*
X55178Y72360D01*
X55203Y72342D01*
X55229Y72324D01*
X55247Y72306D01*
X55262Y72291D01*
X55276Y72284D01*
X55280Y72276D01*
X55283Y72273D01*
X55320Y72233D01*
X55353Y72189D01*
X55378Y72142D01*
X55400Y72094D01*
X55436Y72000D01*
X55462Y71905D01*
X55469Y71865D01*
X55476Y71825D01*
X55480Y71789D01*
X55484Y71760D01*
X55487Y71734D01*
Y71698D01*
X55484Y71632D01*
X55480Y71570D01*
X55469Y71512D01*
X55458Y71457D01*
X55444Y71407D01*
X55429Y71359D01*
X55411Y71315D01*
X55393Y71275D01*
X55374Y71239D01*
X55356Y71210D01*
X55342Y71184D01*
X55327Y71163D01*
X55316Y71144D01*
X55305Y71134D01*
X55302Y71126D01*
X55298Y71123D01*
X55262Y71086D01*
X55222Y71053D01*
X55178Y71021D01*
X55134Y70995D01*
X55047Y70951D01*
X54960Y70922D01*
X54919Y70911D01*
X54879Y70900D01*
X54847Y70893D01*
X54818Y70886D01*
X54792Y70882D01*
X54774D01*
X54763Y70879D01*
X54759D01*
X54727Y71195D01*
X54810Y71203D01*
X54883Y71217D01*
X54949Y71239D01*
X55000Y71264D01*
X55043Y71286D01*
X55072Y71308D01*
X55091Y71323D01*
X55098Y71330D01*
X55142Y71385D01*
X55174Y71443D01*
X55200Y71505D01*
X55214Y71559D01*
X55225Y71610D01*
X55229Y71654D01*
X55233Y71669D01*
Y71690D01*
X55229Y71767D01*
X55214Y71836D01*
X55193Y71894D01*
X55171Y71945D01*
X55145Y71985D01*
X55127Y72011D01*
X55112Y72029D01*
X55105Y72036D01*
X55054Y72080D01*
X55003Y72113D01*
X54952Y72138D01*
X54901Y72153D01*
X54861Y72164D01*
X54825Y72167D01*
X54803Y72171D01*
X54799D01*
X54796D01*
X54730Y72164D01*
X54661Y72149D01*
X54599Y72124D01*
X54541Y72098D01*
X54494Y72069D01*
X54454Y72044D01*
X54439Y72036D01*
X54428Y72029D01*
X54425Y72022D01*
X54421D01*
X54381Y71992D01*
X54341Y71956D01*
X54297Y71916D01*
X54253Y71872D01*
X54166Y71781D01*
X54079Y71690D01*
X54039Y71643D01*
X54002Y71603D01*
X53970Y71563D01*
X53940Y71530D01*
X53918Y71505D01*
X53900Y71483D01*
X53889Y71468D01*
X53886Y71465D01*
X53809Y71374D01*
X53737Y71290D01*
X53671Y71221D01*
X53616Y71166D01*
X53569Y71119D01*
X53536Y71086D01*
X53514Y71068D01*
X53511Y71061D01*
X53507D01*
X53445Y71010D01*
X53387Y70970D01*
X53329Y70933D01*
X53278Y70904D01*
X53234Y70882D01*
X53201Y70868D01*
X53180Y70860D01*
X53176Y70857D01*
X53172D01*
X53132Y70842D01*
X53096Y70835D01*
X53060Y70828D01*
X53027Y70824D01*
X52998Y70820D01*
X52976D01*
X52961D01*
X52958D01*
Y72491D01*
X53256D01*
Y71250D01*
D02*
G37*
G36*
X55487Y69870D02*
X55426Y69834D01*
X55367Y69794D01*
X55309Y69747D01*
X55258Y69703D01*
X55214Y69659D01*
X55178Y69626D01*
X55167Y69612D01*
X55156Y69601D01*
X55152Y69597D01*
X55149Y69594D01*
X55087Y69517D01*
X55029Y69441D01*
X54978Y69368D01*
X54938Y69295D01*
X54901Y69233D01*
X54887Y69208D01*
X54876Y69186D01*
X54865Y69168D01*
X54861Y69153D01*
X54854Y69146D01*
Y69142D01*
X54555D01*
X54577Y69197D01*
X54603Y69252D01*
X54628Y69306D01*
X54654Y69357D01*
X54676Y69401D01*
X54694Y69437D01*
X54708Y69459D01*
X54712Y69463D01*
Y69466D01*
X54752Y69532D01*
X54792Y69590D01*
X54829Y69641D01*
X54861Y69681D01*
X54887Y69718D01*
X54909Y69739D01*
X54923Y69758D01*
X54927Y69761D01*
X52958D01*
Y70071D01*
X55487D01*
Y69870D01*
D02*
G37*
G36*
X53838Y68287D02*
X53780Y68272D01*
X53726Y68254D01*
X53675Y68236D01*
X53627Y68218D01*
X53584Y68196D01*
X53547Y68174D01*
X53511Y68149D01*
X53478Y68127D01*
X53449Y68109D01*
X53427Y68087D01*
X53405Y68069D01*
X53387Y68054D01*
X53376Y68040D01*
X53365Y68029D01*
X53362Y68025D01*
X53358Y68021D01*
X53329Y67985D01*
X53307Y67945D01*
X53267Y67865D01*
X53238Y67788D01*
X53220Y67712D01*
X53205Y67646D01*
X53201Y67621D01*
Y67595D01*
X53198Y67574D01*
Y67548D01*
X53201Y67464D01*
X53216Y67384D01*
X53234Y67312D01*
X53256Y67246D01*
X53278Y67195D01*
X53289Y67173D01*
X53296Y67155D01*
X53303Y67140D01*
X53311Y67129D01*
X53314Y67122D01*
Y67119D01*
X53365Y67049D01*
X53420Y66991D01*
X53482Y66940D01*
X53540Y66900D01*
X53591Y66867D01*
X53635Y66846D01*
X53653Y66838D01*
X53664Y66831D01*
X53671Y66827D01*
X53675D01*
X53769Y66798D01*
X53864Y66776D01*
X53959Y66758D01*
X54046Y66747D01*
X54086Y66744D01*
X54122Y66740D01*
X54155D01*
X54181Y66736D01*
X54202D01*
X54221D01*
X54232D01*
X54235D01*
X54330Y66740D01*
X54417Y66747D01*
X54497Y66762D01*
X54570Y66776D01*
X54632Y66787D01*
X54657Y66795D01*
X54679Y66802D01*
X54698Y66805D01*
X54708Y66809D01*
X54716Y66813D01*
X54719D01*
X54803Y66849D01*
X54879Y66889D01*
X54941Y66933D01*
X54996Y66980D01*
X55040Y67020D01*
X55069Y67053D01*
X55087Y67079D01*
X55094Y67082D01*
Y67086D01*
X55142Y67162D01*
X55178Y67246D01*
X55203Y67326D01*
X55218Y67402D01*
X55229Y67472D01*
X55233Y67501D01*
Y67526D01*
X55236Y67544D01*
Y67574D01*
X55233Y67665D01*
X55218Y67748D01*
X55196Y67817D01*
X55174Y67879D01*
X55149Y67927D01*
X55131Y67963D01*
X55116Y67985D01*
X55109Y67992D01*
X55054Y68050D01*
X54992Y68105D01*
X54927Y68149D01*
X54861Y68185D01*
X54803Y68214D01*
X54774Y68225D01*
X54752Y68232D01*
X54734Y68240D01*
X54719Y68247D01*
X54712Y68251D01*
X54708D01*
X54785Y68578D01*
X54850Y68556D01*
X54909Y68534D01*
X54963Y68505D01*
X55018Y68480D01*
X55065Y68451D01*
X55109Y68418D01*
X55152Y68389D01*
X55189Y68360D01*
X55218Y68331D01*
X55247Y68305D01*
X55273Y68280D01*
X55291Y68261D01*
X55309Y68243D01*
X55320Y68229D01*
X55324Y68221D01*
X55327Y68218D01*
X55360Y68167D01*
X55393Y68116D01*
X55418Y68065D01*
X55440Y68010D01*
X55473Y67901D01*
X55495Y67803D01*
X55506Y67756D01*
X55509Y67716D01*
X55513Y67676D01*
X55516Y67643D01*
X55520Y67617D01*
Y67581D01*
X55513Y67461D01*
X55495Y67344D01*
X55473Y67242D01*
X55458Y67195D01*
X55444Y67151D01*
X55429Y67111D01*
X55415Y67075D01*
X55404Y67046D01*
X55393Y67017D01*
X55382Y66998D01*
X55374Y66984D01*
X55371Y66973D01*
X55367Y66969D01*
X55305Y66871D01*
X55233Y66787D01*
X55160Y66715D01*
X55087Y66653D01*
X55021Y66605D01*
X54992Y66587D01*
X54967Y66573D01*
X54949Y66558D01*
X54934Y66551D01*
X54923Y66547D01*
X54919Y66543D01*
X54807Y66492D01*
X54690Y66456D01*
X54574Y66431D01*
X54468Y66412D01*
X54421Y66405D01*
X54374Y66401D01*
X54337Y66398D01*
X54301D01*
X54275Y66394D01*
X54253D01*
X54239D01*
X54235D01*
X54104Y66401D01*
X53977Y66416D01*
X53864Y66434D01*
X53809Y66449D01*
X53762Y66460D01*
X53718Y66471D01*
X53678Y66485D01*
X53642Y66496D01*
X53613Y66503D01*
X53591Y66514D01*
X53573Y66518D01*
X53562Y66525D01*
X53558D01*
X53449Y66580D01*
X53351Y66642D01*
X53267Y66707D01*
X53234Y66740D01*
X53201Y66769D01*
X53172Y66798D01*
X53147Y66827D01*
X53125Y66853D01*
X53110Y66875D01*
X53096Y66889D01*
X53085Y66904D01*
X53081Y66911D01*
X53078Y66915D01*
X53049Y66966D01*
X53023Y67017D01*
X52983Y67126D01*
X52954Y67235D01*
X52936Y67341D01*
X52928Y67392D01*
X52921Y67435D01*
X52917Y67475D01*
Y67508D01*
X52914Y67537D01*
Y67577D01*
X52917Y67650D01*
X52925Y67719D01*
X52932Y67785D01*
X52947Y67847D01*
X52965Y67905D01*
X52983Y67959D01*
X53001Y68010D01*
X53023Y68058D01*
X53041Y68098D01*
X53060Y68138D01*
X53078Y68167D01*
X53096Y68196D01*
X53110Y68214D01*
X53118Y68232D01*
X53125Y68240D01*
X53129Y68243D01*
X53172Y68294D01*
X53216Y68338D01*
X53267Y68378D01*
X53318Y68418D01*
X53420Y68484D01*
X53522Y68534D01*
X53569Y68556D01*
X53613Y68575D01*
X53653Y68589D01*
X53686Y68600D01*
X53715Y68611D01*
X53737Y68618D01*
X53751Y68622D01*
X53755D01*
X53838Y68287D01*
D02*
G37*
G36*
X41697Y29101D02*
X41759Y29097D01*
X41817Y29087D01*
X41871Y29076D01*
X41922Y29061D01*
X41970Y29046D01*
X42013Y29028D01*
X42053Y29010D01*
X42090Y28992D01*
X42119Y28974D01*
X42144Y28959D01*
X42166Y28945D01*
X42184Y28934D01*
X42195Y28923D01*
X42203Y28919D01*
X42206Y28915D01*
X42243Y28879D01*
X42275Y28839D01*
X42308Y28795D01*
X42334Y28752D01*
X42377Y28664D01*
X42406Y28577D01*
X42417Y28537D01*
X42428Y28497D01*
X42436Y28464D01*
X42443Y28435D01*
X42447Y28409D01*
Y28391D01*
X42450Y28380D01*
Y28377D01*
X42134Y28344D01*
X42126Y28428D01*
X42112Y28501D01*
X42090Y28566D01*
X42064Y28617D01*
X42042Y28661D01*
X42021Y28690D01*
X42006Y28708D01*
X41999Y28715D01*
X41944Y28759D01*
X41886Y28792D01*
X41824Y28817D01*
X41769Y28832D01*
X41719Y28843D01*
X41675Y28846D01*
X41660Y28850D01*
X41638D01*
X41562Y28846D01*
X41493Y28832D01*
X41435Y28810D01*
X41384Y28788D01*
X41344Y28763D01*
X41318Y28744D01*
X41300Y28730D01*
X41293Y28723D01*
X41249Y28672D01*
X41216Y28621D01*
X41191Y28570D01*
X41176Y28519D01*
X41165Y28479D01*
X41162Y28442D01*
X41158Y28420D01*
Y28417D01*
Y28413D01*
X41165Y28348D01*
X41180Y28278D01*
X41205Y28216D01*
X41231Y28158D01*
X41260Y28111D01*
X41285Y28071D01*
X41293Y28056D01*
X41300Y28045D01*
X41307Y28042D01*
Y28038D01*
X41336Y27998D01*
X41373Y27958D01*
X41413Y27914D01*
X41456Y27871D01*
X41547Y27783D01*
X41638Y27696D01*
X41686Y27656D01*
X41726Y27620D01*
X41766Y27587D01*
X41799Y27558D01*
X41824Y27536D01*
X41846Y27518D01*
X41860Y27507D01*
X41864Y27503D01*
X41955Y27427D01*
X42039Y27354D01*
X42108Y27288D01*
X42163Y27234D01*
X42210Y27186D01*
X42243Y27154D01*
X42261Y27132D01*
X42268Y27128D01*
Y27125D01*
X42319Y27063D01*
X42359Y27004D01*
X42396Y26946D01*
X42425Y26895D01*
X42447Y26851D01*
X42461Y26819D01*
X42468Y26797D01*
X42472Y26793D01*
Y26790D01*
X42487Y26750D01*
X42494Y26713D01*
X42501Y26677D01*
X42505Y26644D01*
X42508Y26615D01*
Y26593D01*
Y26579D01*
Y26575D01*
X40838D01*
Y26873D01*
X42079D01*
X42035Y26935D01*
X42013Y26961D01*
X41995Y26986D01*
X41977Y27008D01*
X41962Y27023D01*
X41952Y27033D01*
X41948Y27037D01*
X41930Y27055D01*
X41908Y27074D01*
X41857Y27121D01*
X41799Y27176D01*
X41737Y27230D01*
X41679Y27277D01*
X41653Y27299D01*
X41631Y27321D01*
X41613Y27336D01*
X41598Y27347D01*
X41591Y27354D01*
X41587Y27358D01*
X41529Y27408D01*
X41471Y27456D01*
X41420Y27503D01*
X41373Y27543D01*
X41329Y27583D01*
X41293Y27620D01*
X41256Y27652D01*
X41227Y27681D01*
X41198Y27711D01*
X41176Y27732D01*
X41158Y27751D01*
X41140Y27769D01*
X41122Y27791D01*
X41114Y27798D01*
X41063Y27860D01*
X41020Y27914D01*
X40983Y27969D01*
X40954Y28013D01*
X40932Y28053D01*
X40918Y28082D01*
X40910Y28100D01*
X40907Y28107D01*
X40885Y28162D01*
X40870Y28216D01*
X40856Y28267D01*
X40849Y28311D01*
X40845Y28351D01*
X40841Y28380D01*
Y28398D01*
Y28406D01*
X40845Y28460D01*
X40852Y28511D01*
X40859Y28562D01*
X40874Y28606D01*
X40910Y28693D01*
X40947Y28763D01*
X40969Y28795D01*
X40987Y28821D01*
X41005Y28846D01*
X41023Y28864D01*
X41038Y28879D01*
X41045Y28894D01*
X41052Y28897D01*
X41056Y28901D01*
X41096Y28937D01*
X41140Y28970D01*
X41187Y28995D01*
X41234Y29017D01*
X41329Y29054D01*
X41424Y29079D01*
X41464Y29087D01*
X41504Y29094D01*
X41540Y29097D01*
X41569Y29101D01*
X41595Y29105D01*
X41631D01*
X41697Y29101D01*
D02*
G37*
G36*
X44685Y26575D02*
X44350D01*
Y27598D01*
X43706D01*
X43611Y27601D01*
X43520Y27609D01*
X43440Y27620D01*
X43367Y27634D01*
X43298Y27649D01*
X43240Y27667D01*
X43185Y27689D01*
X43138Y27711D01*
X43098Y27729D01*
X43062Y27751D01*
X43033Y27769D01*
X43011Y27787D01*
X42992Y27798D01*
X42982Y27809D01*
X42974Y27816D01*
X42971Y27820D01*
X42934Y27863D01*
X42902Y27907D01*
X42876Y27951D01*
X42851Y27998D01*
X42829Y28045D01*
X42814Y28089D01*
X42789Y28173D01*
X42781Y28213D01*
X42774Y28249D01*
X42770Y28282D01*
X42767Y28308D01*
X42763Y28333D01*
Y28348D01*
Y28359D01*
Y28362D01*
X42767Y28431D01*
X42774Y28497D01*
X42789Y28555D01*
X42800Y28606D01*
X42814Y28650D01*
X42829Y28683D01*
X42836Y28701D01*
X42840Y28708D01*
X42869Y28763D01*
X42905Y28810D01*
X42938Y28853D01*
X42971Y28886D01*
X43000Y28912D01*
X43022Y28934D01*
X43036Y28945D01*
X43044Y28948D01*
X43091Y28977D01*
X43145Y29003D01*
X43196Y29025D01*
X43244Y29043D01*
X43287Y29054D01*
X43320Y29061D01*
X43346Y29068D01*
X43353D01*
X43407Y29076D01*
X43469Y29083D01*
X43535Y29087D01*
X43597Y29090D01*
X43651Y29094D01*
X44685D01*
Y26575D01*
D02*
G37*
%LPC*%
G36*
X40400Y67141D02*
Y66013D01*
X41194D01*
X40400Y67141D01*
D02*
G37*
G36*
X43157Y85292D02*
X43124D01*
X43106D01*
X43102D01*
X43099D01*
X42986D01*
X42884Y85285D01*
X42793Y85278D01*
X42706Y85270D01*
X42633Y85259D01*
X42564Y85245D01*
X42505Y85230D01*
X42451Y85219D01*
X42407Y85205D01*
X42371Y85190D01*
X42338Y85179D01*
X42313Y85165D01*
X42294Y85158D01*
X42283Y85150D01*
X42276Y85143D01*
X42272D01*
X42236Y85114D01*
X42207Y85085D01*
X42178Y85056D01*
X42156Y85027D01*
X42120Y84965D01*
X42094Y84910D01*
X42080Y84859D01*
X42072Y84823D01*
X42069Y84808D01*
Y84786D01*
X42072Y84746D01*
X42076Y84710D01*
X42101Y84641D01*
X42134Y84579D01*
X42171Y84524D01*
X42207Y84484D01*
X42240Y84451D01*
X42265Y84433D01*
X42269Y84426D01*
X42272D01*
X42316Y84400D01*
X42367Y84379D01*
X42425Y84357D01*
X42487Y84342D01*
X42553Y84328D01*
X42622Y84317D01*
X42764Y84298D01*
X42829Y84291D01*
X42891Y84288D01*
X42950Y84284D01*
X42997D01*
X43041Y84280D01*
X43073D01*
X43091D01*
X43099D01*
X43212Y84284D01*
X43314Y84288D01*
X43408Y84295D01*
X43496Y84306D01*
X43572Y84317D01*
X43641Y84331D01*
X43703Y84346D01*
X43758Y84360D01*
X43805Y84375D01*
X43845Y84386D01*
X43878Y84400D01*
X43907Y84411D01*
X43925Y84422D01*
X43940Y84430D01*
X43947Y84437D01*
X43951D01*
X43983Y84462D01*
X44012Y84488D01*
X44034Y84517D01*
X44056Y84546D01*
X44089Y84604D01*
X44111Y84659D01*
X44122Y84706D01*
X44129Y84746D01*
X44133Y84761D01*
Y84783D01*
X44129Y84823D01*
X44125Y84863D01*
X44114Y84899D01*
X44100Y84932D01*
X44067Y84994D01*
X44031Y85048D01*
X43991Y85088D01*
X43958Y85121D01*
X43943Y85132D01*
X43932Y85139D01*
X43929Y85147D01*
X43925D01*
X43881Y85172D01*
X43830Y85194D01*
X43772Y85216D01*
X43710Y85230D01*
X43645Y85245D01*
X43576Y85256D01*
X43437Y85274D01*
X43368Y85281D01*
X43306Y85285D01*
X43248Y85289D01*
X43201D01*
X43157Y85292D01*
D02*
G37*
G36*
X44350Y28795D02*
X43630D01*
X43564Y28792D01*
X43509Y28788D01*
X43466Y28784D01*
X43437Y28777D01*
X43415Y28773D01*
X43400Y28770D01*
X43397D01*
X43349Y28752D01*
X43309Y28730D01*
X43273Y28708D01*
X43240Y28683D01*
X43218Y28657D01*
X43200Y28639D01*
X43189Y28624D01*
X43185Y28621D01*
X43160Y28577D01*
X43138Y28533D01*
X43124Y28486D01*
X43116Y28446D01*
X43109Y28409D01*
X43105Y28377D01*
Y28359D01*
Y28355D01*
Y28351D01*
X43113Y28275D01*
X43127Y28209D01*
X43149Y28151D01*
X43174Y28104D01*
X43200Y28067D01*
X43222Y28038D01*
X43236Y28024D01*
X43244Y28016D01*
X43269Y27994D01*
X43302Y27976D01*
X43371Y27947D01*
X43448Y27925D01*
X43524Y27911D01*
X43593Y27904D01*
X43622Y27900D01*
X43648D01*
X43673Y27896D01*
X44350D01*
Y28795D01*
D02*
G37*
%LPD*%
D12*
X33323Y57339D02*
G03*
X33323Y57339I-394J0D01*
G01*
X75323Y69099D02*
Y80713D01*
X60362Y69099D02*
Y80713D01*
Y69099D02*
X75323D01*
X60362Y80713D02*
X75323D01*
D13*
X48475Y79450D02*
Y85750D01*
X45325D02*
X48475D01*
X45325Y79450D02*
Y85750D01*
Y79450D02*
X48475D01*
X44675D02*
Y85750D01*
X41525D02*
X44675D01*
X41525Y79450D02*
Y85750D01*
Y79450D02*
X44675D01*
X64193Y67980D02*
X70492D01*
X64193Y64830D02*
Y67980D01*
Y64830D02*
X70492D01*
Y67980D01*
X67193Y84480D02*
X73492D01*
X67193Y81330D02*
Y84480D01*
Y81330D02*
X73492D01*
Y84480D01*
X52625Y66350D02*
Y72650D01*
Y66350D02*
X55775D01*
Y72650D01*
X52625D02*
X55775D01*
D126*
X31614Y56024D02*
X52244D01*
Y76653D01*
X31614D02*
X52244D01*
X31614Y56024D02*
Y76653D01*
X56429Y11559D02*
Y43559D01*
X27429D02*
X56429D01*
X27429Y11559D02*
Y43559D01*
Y11559D02*
X56429D01*
M02*
